<?xml version="1.0" encoding="utf-8"?>
<!-- Generator: Adobe Illustrator 15.1.0, SVG Export Plug-In . SVG Version: 6.00 Build 0)  -->
<!DOCTYPE svg PUBLIC "-//W3C//DTD SVG 1.0//EN" "http://www.w3.org/TR/2001/REC-SVG-20010904/DTD/svg10.dtd">
<svg version="1.0" id="Layer_1" xmlns="http://www.w3.org/2000/svg" xmlns:xlink="http://www.w3.org/1999/xlink" x="0px" y="0px"
	 width="800px" height="800px" viewBox="191.75999450683594 221.0709991455078 422.2769775390625 379.052978515625" enable-background="new 0 0 800 800" xml:space="preserve">
<g>
	<!-- <path fill="#BCC2C6" d="M208.021,221.071h389.754c4.474,0,8.545,1.831,11.488,4.774v0.017c2.942,2.943,4.773,7.006,4.773,11.462
		v346.548c0,4.463-1.831,8.526-4.773,11.462v0.024c-2.943,2.942-7.015,4.766-11.488,4.766H208.021
		c-4.481,0-8.545-1.823-11.488-4.766v-0.024c-2.942-2.936-4.773-6.999-4.773-11.462V237.324c0-4.456,1.831-8.52,4.773-11.462v-0.017
		C199.477,222.902,203.54,221.071,208.021,221.071"/> -->
	<!-- <path fill="#EBEFF0" d="M608.135,237.324v346.548c0,6.521-4.549,10.358-10.359,10.358H208.021c-5.803,0-10.359-3.722-10.359-10.358
		V237.324c0-6.755,4.573-10.351,10.359-10.351h389.754C603.578,226.974,608.135,230.686,608.135,237.324"/> -->
	<path fill="#BCC2C6" d="M205.873,268.677h394.051c3.889,0,7.416,1.588,9.967,4.146c2.559,2.559,4.146,6.086,4.146,9.966v303.222
		c0,3.896-1.588,7.424-4.146,9.975c-2.551,2.558-6.078,4.138-9.967,4.138H205.873c-3.88,0-7.416-1.58-9.967-4.138
		c-2.559-2.551-4.146-6.078-4.146-9.975V282.79c0-3.88,1.588-7.408,4.146-9.966C198.457,270.265,201.993,268.677,205.873,268.677"/>
	<path fill-rule="evenodd" clip-rule="evenodd" fill="#FFFFFF" d="M205.873,274.579c-2.182,0-4.256,0.869-5.803,2.417
		c-1.538,1.546-2.416,3.62-2.416,5.794v303.222c0,2.19,0.878,4.264,2.416,5.802c1.547,1.548,3.621,2.417,5.803,2.417h394.051
		c2.184,0,4.256-0.869,5.795-2.417c1.546-1.538,2.416-3.611,2.416-5.802V282.79c0-2.182-0.87-4.248-2.416-5.794
		c-1.539-1.547-3.621-2.417-5.795-2.417H205.873z"/>
	<!-- <path fill-rule="evenodd" clip-rule="evenodd" fill="#94A4A5" d="M549.209,241.103c4.146,0,7.517,3.361,7.517,7.508
		c0,4.147-3.361,7.508-7.517,7.508c-4.147,0-7.508-3.361-7.508-7.508C541.701,244.464,545.062,241.103,549.209,241.103
		 M572.803,241.103c4.146,0,7.508,3.361,7.508,7.508c0,4.147-3.361,7.508-7.508,7.508c-4.147,0-7.516-3.361-7.516-7.508
		C565.287,244.464,568.655,241.103,572.803,241.103z M525.623,241.103c4.147,0,7.508,3.361,7.508,7.508
		c0,4.147-3.36,7.508-7.508,7.508c-4.146,0-7.516-3.361-7.516-7.508C518.107,244.464,521.477,241.103,525.623,241.103z"/> -->
	<!-- <path fill-rule="evenodd" clip-rule="evenodd" fill="#94A4A5" d="M454.994,253.41h-8.454v-3.403h8.152v-2.642h-8.152v-3.486h8.454
		v-2.75h-11.271c0,5.025,0,10.058,0,15.074h11.271V253.41z M428.857,241.128v15.074h10.585v-2.625h-7.741v-12.449H428.857z
		 M423.223,252.356c-0.994,0.987-2.474,1.521-3.787,1.521c-3.72,0-5.158-2.6-5.184-5.1c-0.017-2.508,1.556-5.217,5.184-5.217
		c1.313,0,2.65,0.452,3.637,1.413l1.89-1.822c-1.546-1.53-3.479-2.299-5.526-2.299c-5.435,0-7.992,3.996-7.976,7.926
		c0.024,3.913,2.392,7.767,7.976,7.767c2.174,0,4.172-0.71,5.719-2.231L423.223,252.356z M406.895,256.202v-15.074h-2.816v15.074
		H406.895z M392.397,256.202h2.843v-12.491h4.766v-2.583c-4.356,0-8.035,0-12.383,0v2.583h4.774V256.202z M378.185,243.779
		c1.781,0,2.575,1.204,2.575,2.416s-0.77,2.416-2.575,2.416h-4.322v-4.832H378.185z M384.354,256.002l-4.556-5.134
		c2.859-0.585,3.804-2.667,3.804-4.74c0-2.617-1.873-4.975-5.418-5c-2.392,0.025-4.774,0-7.165,0v15.074h2.843v-5.033h2.726
		l4.389,5.033h3.378V256.002z M361.898,250.718h-5.594l2.801-6.421L361.898,250.718z M364.307,256.202h3.093l-6.747-15.074h-3.093
		l-6.756,15.074h3.076l1.288-2.842h7.867L364.307,256.202z"/> -->
	<path fill-rule="evenodd" clip-rule="evenodd" fill="#BCC2C6" d="M238.554,408.533h328.688c2.167,0,3.947,1.772,3.947,3.938
		s-1.78,3.938-3.947,3.938H238.554c-2.173,0-3.946-1.772-3.946-3.938S236.381,408.533,238.554,408.533"/>
	<path fill-rule="evenodd" clip-rule="evenodd" fill="#BCC2C6" d="M238.554,428.347h328.688c2.167,0,3.947,1.772,3.947,3.946l0,0
		c0,2.166-1.78,3.938-3.947,3.938H238.554c-2.173,0-3.946-1.772-3.946-3.938l0,0C234.607,430.119,236.381,428.347,238.554,428.347"
		/>
	<path fill-rule="evenodd" clip-rule="evenodd" fill="#BCC2C6" d="M238.554,448.161h328.688c2.167,0,3.947,1.772,3.947,3.946l0,0
		c0,2.174-1.78,3.947-3.947,3.947H238.554c-2.173,0-3.946-1.773-3.946-3.947l0,0C234.607,449.934,236.381,448.161,238.554,448.161"
		/>
	<path fill-rule="evenodd" clip-rule="evenodd" fill="#BCC2C6" d="M238.554,388.802h215.169c2.165,0,3.938,1.772,3.938,3.946
		c0,2.166-1.773,3.946-3.938,3.946H238.554c-2.173,0-3.946-1.781-3.946-3.946C234.607,390.574,236.381,388.802,238.554,388.802"/>
	<path fill-rule="evenodd" clip-rule="evenodd" fill="#BCC2C6" d="M238.554,509.369h328.688c2.167,0,3.947,1.781,3.947,3.946
		c0,2.167-1.78,3.938-3.947,3.938H238.554c-2.173,0-3.946-1.771-3.946-3.938C234.607,511.15,236.381,509.369,238.554,509.369"/>
	<path fill-rule="evenodd" clip-rule="evenodd" fill="#BCC2C6" d="M238.554,529.193h328.688c2.167,0,3.947,1.772,3.947,3.946
		c0,2.165-1.78,3.938-3.947,3.938H238.554c-2.173,0-3.946-1.772-3.946-3.938C234.607,530.966,236.381,529.193,238.554,529.193"/>
	<path fill-rule="evenodd" clip-rule="evenodd" fill="#BCC2C6" d="M238.554,549.008h328.688c2.167,0,3.947,1.772,3.947,3.946l0,0
		c0,2.174-1.78,3.946-3.947,3.946H238.554c-2.173,0-3.946-1.772-3.946-3.946l0,0C234.607,550.78,236.381,549.008,238.554,549.008"/>
	<path fill-rule="evenodd" clip-rule="evenodd" fill="#BCC2C6" d="M238.554,489.647h215.169c2.165,0,3.938,1.772,3.938,3.945l0,0
		c0,2.166-1.773,3.938-3.938,3.938H238.554c-2.173,0-3.946-1.772-3.946-3.938l0,0C234.607,491.42,236.381,489.647,238.554,489.647"
		/>
	<path fill-rule="evenodd" clip-rule="evenodd" fill="#364A5E" d="M266.821,312.586h272.154c2.174,0,3.946,1.772,3.946,3.946l0,0
		c0,2.174-1.772,3.946-3.946,3.946H266.821c-2.174,0-3.946-1.772-3.946-3.946l0,0C262.875,314.359,264.647,312.586,266.821,312.586"
		/>
	<path fill-rule="evenodd" clip-rule="evenodd" fill="#BCC2C6" d="M301.693,335.988h202.401c2.174,0,3.946,1.772,3.946,3.938l0,0
		c0,2.174-1.772,3.946-3.946,3.946H301.693c-2.165,0-3.938-1.772-3.938-3.946l0,0C297.756,337.76,299.528,335.988,301.693,335.988"
		/>
</g>
</svg>
