<?xml version="1.0" encoding="utf-8"?>
<!-- Generator: Adobe Illustrator 15.1.0, SVG Export Plug-In . SVG Version: 6.00 Build 0)  -->
<!DOCTYPE svg PUBLIC "-//W3C//DTD SVG 1.0//EN" "http://www.w3.org/TR/2001/REC-SVG-20010904/DTD/svg10.dtd">
<svg version="1.0" id="Layer_1" xmlns="http://www.w3.org/2000/svg" xmlns:xlink="http://www.w3.org/1999/xlink" x="0px" y="0px"
	 width="800px" height="800px" viewBox="194.7169952392578 221.0709991455078 422.27703857421875 379.052978515625" enable-background="new 0 0 800 800" xml:space="preserve">
<g>
	<!-- <path fill="#BCC2C6" d="M210.979,221.071h389.755c4.474,0,8.544,1.831,11.488,4.774v0.017c2.942,2.943,4.772,7.006,4.772,11.462
		v346.548c0,4.463-1.83,8.526-4.772,11.462v0.024c-2.944,2.942-7.015,4.766-11.488,4.766H210.979c-4.473,0-8.545-1.823-11.487-4.766
		v-0.024c-2.942-2.936-4.774-6.999-4.774-11.462V237.324c0-4.456,1.832-8.52,4.774-11.462v-0.017
		C202.434,222.902,206.506,221.071,210.979,221.071"/> -->
	<!-- <path fill="#EBEFF0" d="M611.092,237.324v346.548c0,6.521-4.548,10.358-10.358,10.358H210.979c-5.803,0-10.359-3.722-10.359-10.358
		V237.324c0-6.755,4.574-10.351,10.359-10.351h389.755C606.535,226.974,611.092,230.686,611.092,237.324"/> -->
	<path fill="#BCC2C6" d="M208.83,268.677h394.053c3.887,0,7.415,1.588,9.965,4.146c2.559,2.559,4.146,6.086,4.146,9.966v303.222
		c0,3.896-1.588,7.424-4.146,9.975c-2.55,2.558-6.078,4.138-9.965,4.138H208.83c-3.888,0-7.416-1.58-9.966-4.138
		c-2.559-2.551-4.147-6.078-4.147-9.975V282.79c0-3.88,1.589-7.408,4.147-9.966C201.414,270.265,204.942,268.677,208.83,268.677"/>
	<path fill-rule="evenodd" clip-rule="evenodd" fill="#FFFFFF" d="M208.83,274.579c-2.182,0-4.256,0.869-5.794,2.417
		c-1.546,1.546-2.417,3.62-2.417,5.794v303.222c0,2.19,0.871,4.264,2.417,5.802c1.538,1.548,3.612,2.417,5.794,2.417h394.053
		c2.181,0,4.255-0.869,5.801-2.417c1.539-1.538,2.408-3.611,2.408-5.802V282.79c0-2.182-0.869-4.248-2.408-5.794
		c-1.546-1.547-3.62-2.417-5.801-2.417H208.83z"/>
	<!-- <path fill-rule="evenodd" clip-rule="evenodd" fill="#94A4A5" d="M552.167,241.103c4.146,0,7.516,3.361,7.516,7.508
		c0,4.147-3.369,7.508-7.516,7.508c-4.147,0-7.508-3.361-7.508-7.508C544.659,244.464,548.02,241.103,552.167,241.103
		 M575.76,241.103c4.147,0,7.508,3.361,7.508,7.508c0,4.147-3.36,7.508-7.508,7.508c-4.146,0-7.516-3.361-7.516-7.508
		C568.244,244.464,571.613,241.103,575.76,241.103z M528.581,241.103c4.147,0,7.508,3.361,7.508,7.508
		c0,4.147-3.36,7.508-7.508,7.508c-4.146,0-7.508-3.361-7.508-7.508C521.073,244.464,524.435,241.103,528.581,241.103z"/> -->
	<!-- <path fill-rule="evenodd" clip-rule="evenodd" fill="#94A4A5" d="M457.951,253.41h-8.453v-3.403h8.152v-2.642h-8.152v-3.486h8.453
		v-2.75h-11.27c0,5.025,0,10.058,0,15.074h11.27V253.41z M431.815,241.128v15.074H442.4v-2.625h-7.742v-12.449H431.815z
		 M426.182,252.356c-0.988,0.987-2.477,1.521-3.788,1.521c-3.72,0-5.159-2.6-5.176-5.1c-0.024-2.508,1.546-5.217,5.176-5.217
		c1.312,0,2.65,0.452,3.637,1.413l1.89-1.822c-1.547-1.53-3.479-2.299-5.526-2.299c-5.443,0-7.992,3.996-7.976,7.926
		c0.024,3.913,2.391,7.767,7.976,7.767c2.174,0,4.171-0.71,5.728-2.231L426.182,252.356z M409.853,256.202v-15.074h-2.817v15.074
		H409.853z M395.355,256.202h2.843v-12.491h4.772v-2.583c-4.363,0-8.042,0-12.39,0v2.583h4.774V256.202z M381.143,243.779
		c1.781,0,2.575,1.204,2.575,2.416s-0.771,2.416-2.575,2.416h-4.322v-4.832H381.143z M387.312,256.002l-4.556-5.134
		c2.852-0.585,3.804-2.667,3.804-4.74c0-2.617-1.872-4.975-5.417-5c-2.392,0.025-4.774,0-7.166,0v15.074h2.844v-5.033h2.725
		l4.391,5.033h3.376V256.002z M364.856,250.718h-5.586l2.793-6.421L364.856,250.718z M367.264,256.202h3.102l-6.756-15.074h-3.093
		l-6.756,15.074h3.077l1.288-2.842h7.875L367.264,256.202z"/> -->
	<path fill-rule="evenodd" clip-rule="evenodd" fill="#BCC2C6" d="M240.416,328.096h177.086c2.166,0,3.938,1.772,3.938,3.938l0,0
		c0,2.174-1.771,3.946-3.938,3.946H240.416c-2.165,0-3.946-1.772-3.946-3.946l0,0C236.47,329.868,238.251,328.096,240.416,328.096"
		/>
	<path fill-rule="evenodd" clip-rule="evenodd" fill="#BCC2C6" d="M240.416,347.918h177.086c2.166,0,3.938,1.772,3.938,3.938v0.009
		c0,2.157-1.771,3.929-3.938,3.929H240.416c-2.165,0-3.946-1.772-3.946-3.929v-0.009
		C236.47,349.691,238.251,347.918,240.416,347.918"/>
	<path fill-rule="evenodd" clip-rule="evenodd" fill="#BCC2C6" d="M240.416,367.733h177.086c2.166,0,3.938,1.772,3.938,3.946
		c0,2.166-1.771,3.946-3.938,3.946H240.416c-2.165,0-3.946-1.781-3.946-3.946C236.47,369.505,238.251,367.733,240.416,367.733"/>
	<path fill-rule="evenodd" clip-rule="evenodd" fill="#BCC2C6" d="M240.416,387.547h177.086c2.166,0,3.938,1.781,3.938,3.946
		c0,2.174-1.771,3.946-3.938,3.946H240.416c-2.165,0-3.946-1.772-3.946-3.946C236.47,389.329,238.251,387.547,240.416,387.547"/>
	<path fill-rule="evenodd" clip-rule="evenodd" fill="#BCC2C6" d="M240.416,407.371h177.086c2.166,0,3.938,1.78,3.938,3.946
		c0,2.165-1.771,3.938-3.938,3.938H240.416c-2.165,0-3.946-1.772-3.946-3.938C236.47,409.151,238.251,407.371,240.416,407.371"/>
	<path fill-rule="evenodd" clip-rule="evenodd" fill="#BCC2C6" d="M240.416,427.193h114.699c2.166,0,3.938,1.772,3.938,3.946
		c0,2.166-1.771,3.938-3.938,3.938H240.416c-2.165,0-3.946-1.771-3.946-3.938C236.47,428.966,238.251,427.193,240.416,427.193"/>
	<path fill-rule="evenodd" clip-rule="evenodd" fill="#364A5E" d="M240.416,308.373h114.699c2.166,0,3.938,1.772,3.938,3.938v0.009
		c0,2.165-1.771,3.938-3.938,3.938H240.416c-2.165,0-3.946-1.772-3.946-3.938v-0.009
		C236.47,310.145,238.251,308.373,240.416,308.373"/>
	<path fill-rule="evenodd" clip-rule="evenodd" fill="#BCC2C6" d="M240.416,473.277h177.086c2.166,0,3.938,1.772,3.938,3.946l0,0
		c0,2.165-1.771,3.938-3.938,3.938H240.416c-2.165,0-3.946-1.772-3.946-3.938l0,0C236.47,475.05,238.251,473.277,240.416,473.277"/>
	<path fill-rule="evenodd" clip-rule="evenodd" fill="#BCC2C6" d="M240.416,493.092h177.086c2.166,0,3.938,1.772,3.938,3.946
		s-1.771,3.946-3.938,3.946H240.416c-2.165,0-3.946-1.772-3.946-3.946S238.251,493.092,240.416,493.092"/>
	<path fill-rule="evenodd" clip-rule="evenodd" fill="#BCC2C6" d="M240.416,512.914h177.086c2.166,0,3.938,1.781,3.938,3.947
		s-1.771,3.938-3.938,3.938H240.416c-2.165,0-3.946-1.771-3.946-3.938S238.251,512.914,240.416,512.914"/>
	<path fill-rule="evenodd" clip-rule="evenodd" fill="#BCC2C6" d="M240.416,532.738h177.086c2.166,0,3.938,1.772,3.938,3.946
		c0,2.165-1.771,3.938-3.938,3.938H240.416c-2.165,0-3.946-1.772-3.946-3.938C236.47,534.511,238.251,532.738,240.416,532.738"/>
	<path fill-rule="evenodd" clip-rule="evenodd" fill="#BCC2C6" d="M240.416,552.553h114.699c2.166,0,3.938,1.772,3.938,3.946
		s-1.771,3.946-3.938,3.946H240.416c-2.165,0-3.946-1.772-3.946-3.946S238.251,552.553,240.416,552.553"/>
	<path fill-rule="evenodd" clip-rule="evenodd" fill="#364A5E" d="M240.416,453.555h114.699c2.166,0,3.938,1.772,3.938,3.938l0,0
		c0,2.174-1.771,3.946-3.938,3.946H240.416c-2.165,0-3.946-1.772-3.946-3.946l0,0C236.47,455.327,238.251,453.555,240.416,453.555"
		/>
	<path fill-rule="evenodd" clip-rule="evenodd" fill="#BCC2C6" d="M466.83,328.096h104.466c2.174,0,3.946,1.772,3.946,3.938l0,0
		c0,2.174-1.772,3.946-3.946,3.946H466.83c-2.174,0-3.946-1.772-3.946-3.946l0,0C462.884,329.868,464.656,328.096,466.83,328.096"/>
	<path fill-rule="evenodd" clip-rule="evenodd" fill="#BCC2C6" d="M466.83,347.918h104.466c2.174,0,3.946,1.772,3.946,3.938v0.009
		c0,2.157-1.772,3.929-3.946,3.929H466.83c-2.174,0-3.946-1.772-3.946-3.929v-0.009C462.884,349.691,464.656,347.918,466.83,347.918
		"/>
	<path fill-rule="evenodd" clip-rule="evenodd" fill="#BCC2C6" d="M466.83,367.733h104.466c2.174,0,3.946,1.772,3.946,3.946
		c0,2.166-1.772,3.946-3.946,3.946H466.83c-2.174,0-3.946-1.781-3.946-3.946C462.884,369.505,464.656,367.733,466.83,367.733"/>
	<path fill-rule="evenodd" clip-rule="evenodd" fill="#BCC2C6" d="M466.83,387.547h104.466c2.174,0,3.946,1.781,3.946,3.946
		c0,2.174-1.772,3.946-3.946,3.946H466.83c-2.174,0-3.946-1.772-3.946-3.946C462.884,389.329,464.656,387.547,466.83,387.547"/>
	<path fill-rule="evenodd" clip-rule="evenodd" fill="#BCC2C6" d="M466.83,407.371h66.566c2.174,0,3.946,1.78,3.946,3.946
		c0,2.165-1.772,3.938-3.946,3.938H466.83c-2.174,0-3.946-1.772-3.946-3.938C462.884,409.151,464.656,407.371,466.83,407.371"/>
	<path fill-rule="evenodd" clip-rule="evenodd" fill="#364A5E" d="M466.83,308.373h66.566c2.174,0,3.946,1.772,3.946,3.938v0.009
		c0,2.165-1.772,3.938-3.946,3.938H466.83c-2.174,0-3.946-1.772-3.946-3.938v-0.009C462.884,310.145,464.656,308.373,466.83,308.373
		"/>
</g>
</svg>
