<?xml version="1.0" encoding="utf-8"?>
<!-- Generator: Adobe Illustrator 15.1.0, SVG Export Plug-In . SVG Version: 6.00 Build 0)  -->
<!DOCTYPE svg PUBLIC "-//W3C//DTD SVG 1.0//EN" "http://www.w3.org/TR/2001/REC-SVG-20010904/DTD/svg10.dtd">
<svg version="1.0" id="Layer_1" xmlns="http://www.w3.org/2000/svg" xmlns:xlink="http://www.w3.org/1999/xlink" x="0px" y="0px"
	 width="800px" height="800px" viewBox="187.33599853515625 221.0709991455078 422.26898193359375 379.052978515625" enable-background="new 0 0 800 800" xml:space="preserve">
<g>
	<!-- <path fill="#BCC2C6" d="M203.59,221.071h389.755c4.481,0,8.544,1.831,11.487,4.774v0.017c2.943,2.943,4.773,7.006,4.773,11.462
		v346.548c0,4.463-1.83,8.526-4.773,11.462v0.024c-2.943,2.942-7.006,4.766-11.487,4.766H203.59c-4.481,0-8.545-1.823-11.487-4.766
		v-0.024c-2.942-2.936-4.766-6.999-4.766-11.462V237.324c0-4.456,1.823-8.52,4.766-11.462v-0.017
		C195.045,222.902,199.108,221.071,203.59,221.071"/> -->
	<!-- <path fill="#EBEFF0" d="M603.703,237.324v346.548c0,6.521-4.54,10.358-10.358,10.358H203.59c-5.803,0-10.359-3.722-10.359-10.358
		V237.324c0-6.755,4.573-10.351,10.359-10.351h389.755C599.146,226.974,603.703,230.686,603.703,237.324"/> -->
	<path fill="#BCC2C6" d="M201.449,268.677h394.035c3.896,0,7.425,1.588,9.982,4.146c2.55,2.559,4.139,6.086,4.139,9.966v303.222
		c0,3.896-1.589,7.424-4.139,9.975c-2.558,2.558-6.086,4.138-9.982,4.138H201.449c-3.896,0-7.425-1.58-9.974-4.138
		c-2.559-2.551-4.139-6.078-4.139-9.975V282.79c0-3.88,1.58-7.408,4.139-9.966C194.024,270.265,197.553,268.677,201.449,268.677"/>
	<path fill-rule="evenodd" clip-rule="evenodd" fill="#FFFFFF" d="M201.449,274.579c-2.19,0-4.264,0.869-5.802,2.417
		c-1.548,1.546-2.426,3.62-2.426,5.794v303.222c0,2.19,0.878,4.264,2.426,5.802c1.538,1.548,3.611,2.417,5.802,2.417h394.035
		c2.19,0,4.264-0.869,5.803-2.417c1.547-1.538,2.416-3.611,2.416-5.802V282.79c0-2.182-0.869-4.248-2.416-5.794
		c-1.539-1.547-3.612-2.417-5.803-2.417H201.449z"/>
	<!-- <path fill-rule="evenodd" clip-rule="evenodd" fill="#94A4A5" d="M544.786,241.103c4.146,0,7.508,3.361,7.508,7.508
		c0,4.147-3.361,7.508-7.508,7.508c-4.147,0-7.517-3.361-7.517-7.508C537.27,244.464,540.639,241.103,544.786,241.103
		 M568.371,241.103c4.139,0,7.517,3.361,7.517,7.508c0,4.147-3.378,7.508-7.517,7.508c-4.155,0-7.517-3.361-7.517-7.508
		C560.854,244.464,564.225,241.103,568.371,241.103z M521.192,241.103c4.146,0,7.508,3.361,7.508,7.508
		c0,4.147-3.361,7.508-7.508,7.508s-7.508-3.361-7.508-7.508C513.685,244.464,517.046,241.103,521.192,241.103z"/> -->
	<!-- <path fill-rule="evenodd" clip-rule="evenodd" fill="#94A4A5" d="M450.562,253.41h-8.452v-3.403h8.152v-2.642h-8.152v-3.486h8.452
		v-2.75h-11.27c0,5.025,0,10.058,0,15.074h11.27V253.41z M424.427,241.128v15.074h10.585v-2.625h-7.743v-12.449H424.427z
		 M418.791,252.356c-0.986,0.987-2.475,1.521-3.779,1.521c-3.729,0-5.166-2.6-5.183-5.1c-0.025-2.508,1.538-5.217,5.183-5.217
		c1.305,0,2.643,0.452,3.63,1.413l1.89-1.822c-1.548-1.53-3.479-2.299-5.52-2.299c-5.45,0-8.008,3.996-7.976,7.926
		c0.018,3.913,2.375,7.767,7.976,7.767c2.167,0,4.164-0.71,5.72-2.231L418.791,252.356z M402.473,256.202v-15.074h-2.827v15.074
		H402.473z M387.975,256.202h2.834v-12.491h4.773v-2.583c-4.363,0-8.042,0-12.39,0v2.583h4.782V256.202z M373.745,243.779
		c1.788,0,2.591,1.204,2.591,2.416s-0.777,2.416-2.591,2.416h-4.314v-4.832H373.745z M379.923,256.002l-4.557-5.134
		c2.859-0.585,3.805-2.667,3.805-4.74c0-2.617-1.873-4.975-5.426-5c-2.375,0.025-4.766,0-7.157,0v15.074h2.843v-5.033h2.726
		l4.389,5.033h3.378V256.002z M357.467,250.718h-5.585l2.792-6.421L357.467,250.718z M359.883,256.202h3.094l-6.756-15.074h-3.094
		l-6.755,15.074h3.077l1.287-2.842h7.876L359.883,256.202z"/> -->
	<path fill-rule="evenodd" clip-rule="evenodd" fill="#BCC2C6" d="M232.585,331.732H564.35c2.174,0,3.946,1.772,3.946,3.946l0,0
		c0,2.174-1.772,3.946-3.946,3.946H232.585c-2.174,0-3.946-1.772-3.946-3.946l0,0C228.639,333.505,230.411,331.732,232.585,331.732"
		/>
	<path fill-rule="evenodd" clip-rule="evenodd" fill="#BCC2C6" d="M232.585,351.555H564.35c2.174,0,3.946,1.772,3.946,3.938l0,0
		c0,2.173-1.772,3.946-3.946,3.946H232.585c-2.174,0-3.946-1.773-3.946-3.946l0,0C228.639,353.328,230.411,351.555,232.585,351.555"
		/>
	<path fill-rule="evenodd" clip-rule="evenodd" fill="#BCC2C6" d="M232.585,371.378H564.35c2.174,0,3.946,1.772,3.946,3.938l0,0
		c0,2.174-1.772,3.938-3.946,3.938H232.585c-2.174,0-3.946-1.764-3.946-3.938l0,0C228.639,373.151,230.411,371.378,232.585,371.378"
		/>
	<path fill-rule="evenodd" clip-rule="evenodd" fill="#BCC2C6" d="M232.585,391.193H564.35c2.174,0,3.946,1.772,3.946,3.946l0,0
		c0,2.173-1.772,3.938-3.946,3.938H232.585c-2.174,0-3.946-1.764-3.946-3.938l0,0C228.639,392.965,230.411,391.193,232.585,391.193"
		/>
	<path fill-rule="evenodd" clip-rule="evenodd" fill="#BCC2C6" d="M232.585,411.016H564.35c2.174,0,3.946,1.765,3.946,3.938l0,0
		c0,2.174-1.772,3.946-3.946,3.946H232.585c-2.174,0-3.946-1.772-3.946-3.946l0,0C228.639,412.78,230.411,411.016,232.585,411.016"
		/>
	<path fill-rule="evenodd" clip-rule="evenodd" fill="#BCC2C6" d="M232.585,430.83h217.208c2.174,0,3.945,1.781,3.945,3.946
		c0,2.166-1.771,3.938-3.945,3.938H232.585c-2.174,0-3.946-1.771-3.946-3.938C228.639,432.611,230.411,430.83,232.585,430.83"/>
	<path fill-rule="evenodd" clip-rule="evenodd" fill="#364A5E" d="M232.585,312.01h217.208c2.174,0,3.945,1.772,3.945,3.946
		c0,2.165-1.771,3.938-3.945,3.938H232.585c-2.174,0-3.946-1.772-3.946-3.938C228.639,313.782,230.411,312.01,232.585,312.01"/>
	<polygon fill="#364A5E" points="232.877,462.091 328.563,462.091 332.795,462.091 332.795,466.338 332.795,562.017
		332.795,566.247 328.563,566.247 232.877,566.247 228.639,566.247 228.639,562.017 228.639,466.338 228.639,462.091 	"/>
	<rect x="233.821" y="467.274" fill="#3EA3DB" width="93.79" height="93.789"/>
	<path opacity="0.15" fill="#010101" d="M310.171,501.386c-1.021-1.02-2.441-1.655-4.014-1.655c-1.571,0-2.992,0.636-4.013,1.655
		s-1.655,2.441-1.655,4.014c0,1.571,0.635,2.983,1.655,4.013c1.037,1.02,2.449,1.655,4.013,1.655c1.572,0,2.993-0.636,4.014-1.655
		c1.028-1.021,1.655-2.441,1.655-4.013C311.826,503.827,311.199,502.405,310.171,501.386 M306.157,495.057
		c2.851,0,5.435,1.154,7.308,3.026l0.008,0.009c1.873,1.873,3.035,4.455,3.035,7.308c0,2.842-1.162,5.434-3.035,7.307l-0.008,0.009
		c-1.873,1.872-4.457,3.034-7.308,3.034c-2.859,0-5.435-1.17-7.307-3.034c-1.873-1.873-3.035-4.456-3.035-7.315
		c0-2.853,1.162-5.435,3.035-7.308v-0.009C300.723,496.211,303.314,495.057,306.157,495.057z M301.208,520.414L301.208,520.414
		l0.067,0.093l1.313,1.747l-0.017,0.017l7.851,10.668c0.56,0.761,0.803,1.53,0.803,2.258h-0.018c0,0.568-0.133,1.087-0.385,1.555
		c-0.234,0.418-0.567,0.786-0.952,1.07c-0.653,0.476-1.48,0.735-2.316,0.735v-0.008l-19.739,0.008h-37.781
		c-0.912-0.008-1.697-0.268-2.308-0.71c-0.419-0.31-0.753-0.711-0.987-1.171h-0.008c-0.217-0.443-0.334-0.937-0.334-1.472h-0.009
		c0-0.777,0.276-1.613,0.853-2.399l8.269-11.245v-0.017l0.753-1.004l0.084-0.125l0,0l0.017-0.017l10.232-13.595
		c0.351-0.477,0.753-0.869,1.171-1.188c0.803-0.601,1.672-0.895,2.575-0.886c0.903,0,1.764,0.301,2.55,0.886
		c0.418,0.318,0.811,0.72,1.162,1.188l9.766,12.977l4.715-6.271c0.368-0.484,0.752-0.878,1.171-1.188
		c0.786-0.592,1.655-0.894,2.566-0.901c0.903,0,1.772,0.301,2.567,0.895c0.418,0.309,0.811,0.71,1.17,1.194l5.184,6.882
		L301.208,520.414z M305.339,533.9l-7.894-10.735l-0.334-0.452l-4.824-6.412l-0.008-0.017l-0.018,0.017l-5.451,7.249l-1.128,1.497
		l-1.864,2.475l-1.856-2.475l-1.137-1.497l-10.484-13.954l-0.017-0.009l-0.009,0.009l-9.907,13.177l-0.301,0.401l-7.884,10.727
		l35.591,0.008L305.339,533.9z"/>
	<path fill="#364A5E" d="M304.703,490.717c2.851,0,5.435,1.163,7.307,3.027l0.009,0.017c1.873,1.873,3.034,4.456,3.034,7.308
		c0,2.843-1.161,5.434-3.034,7.307h-0.009c-1.872,1.873-4.456,3.035-7.307,3.035c-2.859,0-5.443-1.162-7.308-3.035
		c-1.873-1.873-3.034-4.456-3.034-7.307c0-2.852,1.161-5.435,3.034-7.308v-0.017C299.269,491.88,301.86,490.717,304.703,490.717
		 M299.753,516.083L299.753,516.083l0.067,0.092l1.313,1.748l-0.017,0.009l7.851,10.676c0.568,0.753,0.803,1.53,0.803,2.258h-0.017
		c0,0.568-0.134,1.087-0.385,1.547c-0.234,0.427-0.569,0.794-0.954,1.078c-0.651,0.477-1.479,0.736-2.314,0.736v-0.009l-19.74,0.009
		l-37.781-0.009c-0.911,0-1.697-0.26-2.308-0.711c-0.418-0.301-0.752-0.702-0.986-1.162h-0.009
		c-0.218-0.443-0.334-0.937-0.334-1.479h-0.008c0-0.77,0.275-1.605,0.853-2.399l8.268-11.245l-0.008-0.017l0.761-0.995l0.084-0.126
		h0.009l0.007-0.016l10.234-13.596c0.351-0.484,0.752-0.869,1.171-1.187c0.794-0.603,1.672-0.895,2.574-0.895
		c0.903,0.008,1.765,0.31,2.542,0.895c0.427,0.317,0.819,0.719,1.179,1.187l9.757,12.977l4.725-6.271
		c0.358-0.485,0.743-0.878,1.17-1.196c0.777-0.594,1.646-0.894,2.559-0.894c0.902,0,1.772,0.3,2.566,0.894
		c0.418,0.31,0.811,0.711,1.171,1.196l5.183,6.881L299.753,516.083z"/>
	<path fill-rule="evenodd" clip-rule="evenodd" fill="#54CAF2" d="M300.238,496.545l-0.033,0.042
		c-1.204,1.195-1.856,2.784-1.856,4.481c0,1.688,0.669,3.293,1.856,4.498c1.203,1.195,2.809,1.855,4.498,1.855
		c1.688,0,3.261-0.66,4.465-1.839l0.049-0.034c1.188-1.204,1.849-2.793,1.849-4.48c0-1.681-0.644-3.277-1.831-4.465l-0.043-0.034
		c-1.194-1.195-2.8-1.864-4.488-1.864C303.014,494.705,301.442,495.365,300.238,496.545 M249.439,530.229l36.92,0.009l18.862-0.009
		l-8.604-11.688l-5.242-6.973c-0.117-0.149-0.243-0.292-0.385-0.401c-0.033-0.017-0.125-0.092-0.167-0.092
		c-0.05,0-0.134,0.066-0.176,0.092c-0.142,0.117-0.268,0.252-0.376,0.401l-7.909,10.51l-12.941-17.206
		c-0.109-0.143-0.234-0.293-0.377-0.393c-0.041-0.034-0.134-0.101-0.176-0.101c-0.051,0-0.134,0.066-0.167,0.092
		c-0.15,0.108-0.267,0.259-0.385,0.401l-10.283,13.669L249.439,530.229z"/>
	<path fill-rule="evenodd" clip-rule="evenodd" fill="#BCC2C6" d="M373.144,495.7H564.35c2.174,0,3.946,1.772,3.946,3.946
		s-1.772,3.946-3.946,3.946H373.144c-2.166,0-3.938-1.772-3.938-3.946S370.978,495.7,373.144,495.7"/>
	<path fill-rule="evenodd" clip-rule="evenodd" fill="#BCC2C6" d="M373.144,515.523H564.35c2.174,0,3.946,1.772,3.946,3.938
		c0,2.174-1.772,3.946-3.946,3.946H373.144c-2.166,0-3.938-1.772-3.938-3.946C369.205,517.296,370.978,515.523,373.144,515.523"/>
	<path fill-rule="evenodd" clip-rule="evenodd" fill="#BCC2C6" d="M373.144,535.346h91.665c2.165,0,3.938,1.772,3.938,3.938
		c0,2.165-1.772,3.946-3.938,3.946h-91.665c-2.166,0-3.938-1.781-3.938-3.946C369.205,537.118,370.978,535.346,373.144,535.346"/>
	<path fill-rule="evenodd" clip-rule="evenodd" fill="#BCC2C6" d="M373.144,475.886H564.35c2.174,0,3.946,1.772,3.946,3.946
		c0,2.166-1.772,3.938-3.946,3.938H373.144c-2.166,0-3.938-1.772-3.938-3.938C369.205,477.658,370.978,475.886,373.144,475.886"/>
</g>
</svg>
