<?xml version="1.0" encoding="utf-8"?>
<!-- Generator: Adobe Illustrator 15.1.0, SVG Export Plug-In . SVG Version: 6.00 Build 0)  -->
<!DOCTYPE svg PUBLIC "-//W3C//DTD SVG 1.0//EN" "http://www.w3.org/TR/2001/REC-SVG-20010904/DTD/svg10.dtd">
<svg version="1.0" id="Layer_1" xmlns="http://www.w3.org/2000/svg" xmlns:xlink="http://www.w3.org/1999/xlink" x="0px" y="0px"
	 width="800px" height="800px" viewBox="193.54600524902344 221.0709991455078 422.27001953125 379.052978515625" enable-background="new 0 0 800 800" xml:space="preserve">
<g>
	<!-- <path fill="#BCC2C6" d="M209.807,221.071h389.755c4.473,0,8.545,1.831,11.487,4.774v0.017c2.942,2.943,4.767,7.006,4.767,11.462
		v346.548c0,4.463-1.824,8.526-4.767,11.462v0.024c-2.942,2.942-7.015,4.766-11.487,4.766H209.807
		c-4.481,0-8.544-1.823-11.487-4.766v-0.024c-2.942-2.936-4.773-6.999-4.773-11.462V237.324c0-4.456,1.831-8.52,4.773-11.462v-0.017
		C201.263,222.902,205.325,221.071,209.807,221.071"/> -->
	<!-- <path fill="#EBEFF0" d="M609.921,237.324v346.548c0,6.521-4.549,10.358-10.359,10.358H209.807c-5.802,0-10.358-3.722-10.358-10.358
		V237.324c0-6.755,4.574-10.351,10.358-10.351h389.755C605.364,226.974,609.921,230.686,609.921,237.324"/> -->
	<path fill="#BCC2C6" d="M207.658,268.677h394.053c3.888,0,7.415,1.588,9.966,4.146c2.558,2.559,4.139,6.086,4.139,9.966v303.222
		c0,3.896-1.581,7.424-4.139,9.975c-2.551,2.558-6.078,4.138-9.966,4.138H207.658c-3.888,0-7.415-1.58-9.966-4.138
		c-2.559-2.551-4.146-6.078-4.146-9.975V282.79c0-3.88,1.588-7.408,4.146-9.966C200.243,270.265,203.771,268.677,207.658,268.677"/>
	<path fill-rule="evenodd" clip-rule="evenodd" fill="#FFFFFF" d="M207.658,274.579c-2.182,0-4.255,0.869-5.794,2.417
		c-1.547,1.546-2.416,3.62-2.416,5.794v303.222c0,2.19,0.869,4.264,2.416,5.802c1.539,1.548,3.612,2.417,5.794,2.417h394.053
		c2.182,0,4.255-0.869,5.793-2.417c1.548-1.538,2.417-3.611,2.417-5.802V282.79c0-2.182-0.869-4.248-2.417-5.794
		c-1.538-1.547-3.611-2.417-5.793-2.417H207.658z"/>
	<!-- <path fill-rule="evenodd" clip-rule="evenodd" fill="#94A4A5" d="M550.995,241.103c4.154,0,7.516,3.361,7.516,7.508
		c0,4.147-3.361,7.508-7.516,7.508c-4.146,0-7.508-3.361-7.508-7.508C543.487,244.464,546.849,241.103,550.995,241.103
		 M574.589,241.103c4.146,0,7.508,3.361,7.508,7.508c0,4.147-3.361,7.508-7.508,7.508c-4.156,0-7.516-3.361-7.516-7.508
		C567.073,244.464,570.442,241.103,574.589,241.103z M527.409,241.103c4.148,0,7.508,3.361,7.508,7.508
		c0,4.147-3.359,7.508-7.508,7.508c-4.146,0-7.508-3.361-7.508-7.508C519.901,244.464,523.263,241.103,527.409,241.103z"/> -->
	<!-- <path fill-rule="evenodd" clip-rule="evenodd" fill="#94A4A5" d="M456.779,253.41h-8.452v-3.403h8.151v-2.642h-8.151v-3.486h8.452
		v-2.75h-11.271c0,5.025,0,10.058,0,15.074h11.271V253.41z M430.645,241.128v15.074h10.583v-2.625h-7.741v-12.449H430.645z
		 M425.01,252.356c-0.987,0.987-2.476,1.521-3.788,1.521c-3.721,0-5.158-2.6-5.184-5.1c-0.017-2.508,1.555-5.217,5.184-5.217
		c1.313,0,2.65,0.452,3.637,1.413l1.89-1.822c-1.547-1.53-3.478-2.299-5.526-2.299c-5.435,0-7.993,3.996-7.977,7.926
		c0.025,3.913,2.392,7.767,7.977,7.767c2.174,0,4.172-0.71,5.727-2.231L425.01,252.356z M408.681,256.202v-15.074h-2.817v15.074
		H408.681z M394.184,256.202h2.843v-12.491h4.773v-2.583c-4.364,0-8.043,0-12.391,0v2.583h4.774V256.202z M379.971,243.779
		c1.78,0,2.574,1.204,2.574,2.416s-0.769,2.416-2.574,2.416h-4.322v-4.832H379.971z M386.14,256.002l-4.556-5.134
		c2.851-0.585,3.804-2.667,3.804-4.74c0-2.617-1.872-4.975-5.417-5c-2.392,0.025-4.774,0-7.165,0v15.074h2.843v-5.033h2.725
		l4.391,5.033h3.376V256.002z M363.684,250.718H358.1l2.792-6.421L363.684,250.718z M366.092,256.202h3.102l-6.755-15.074h-3.094
		l-6.756,15.074h3.077l1.287-2.842h7.876L366.092,256.202z"/> -->
	<polygon fill="#364A5E" points="237.414,307.905 338.878,307.905 343.368,307.905 343.368,312.403 343.368,497.823
		343.368,502.313 338.878,502.313 237.414,502.313 232.916,502.313 232.916,497.823 232.916,312.403 232.916,307.905 	"/>
	<rect x="238.417" y="313.406" fill="#3EA3DB" width="99.449" height="183.407"/>
	<path opacity="0.15" fill="#010101" d="M319.381,391.059c-1.087-1.087-2.6-1.764-4.255-1.764c-1.673,0-3.178,0.677-4.256,1.764
		c-1.087,1.087-1.765,2.592-1.765,4.247c0,1.664,0.678,3.169,1.765,4.256s2.592,1.764,4.256,1.764c1.655,0,3.168-0.669,4.255-1.756
		s1.756-2.591,1.756-4.264C321.137,393.651,320.468,392.146,319.381,391.059 M315.126,384.337c3.018,0,5.761,1.238,7.742,3.219
		l0.008,0.008c1.989,1.989,3.219,4.724,3.219,7.742c0,3.027-1.229,5.769-3.219,7.75l-0.008,0.009
		c-1.981,1.99-4.725,3.211-7.742,3.211c-3.035,0-5.777-1.221-7.76-3.211c-1.989-1.981-3.21-4.724-3.21-7.758
		c0-3.018,1.221-5.752,3.21-7.742l0.01-0.008C309.364,385.575,312.1,384.337,315.126,384.337z M309.866,411.226L309.866,411.226
		l0.076,0.108l1.396,1.848l-0.025,0.017l8.326,11.312c0.594,0.812,0.846,1.631,0.846,2.399h-0.009c0,0.603-0.143,1.154-0.41,1.639
		c-0.251,0.452-0.602,0.845-1.012,1.146c-0.686,0.51-1.571,0.778-2.458,0.778l0,0H295.67h-40.063c-0.97,0-1.806-0.284-2.449-0.754
		c-0.443-0.333-0.795-0.752-1.046-1.245h-0.009c-0.233-0.468-0.351-0.995-0.351-1.563h-0.017c0-0.819,0.292-1.705,0.911-2.542
		l8.762-11.922v-0.017l0.795-1.062l0.1-0.134l0,0l0.018-0.025l10.844-14.397c0.376-0.518,0.794-0.937,1.237-1.271
		c0.853-0.636,1.771-0.954,2.733-0.945c0.962,0.008,1.873,0.326,2.71,0.945c0.442,0.334,0.86,0.752,1.236,1.271l10.351,13.753
		l5.008-6.663c0.376-0.502,0.794-0.92,1.238-1.254c0.835-0.628,1.755-0.945,2.717-0.954c0.952,0,1.881,0.318,2.726,0.954
		c0.435,0.325,0.86,0.752,1.237,1.254l5.493,7.307L309.866,411.226z M314.256,425.53l-8.368-11.379l-0.36-0.477l-5.116-6.806
		l-0.009-0.017l-0.017,0.017l-5.785,7.684l-1.195,1.597l-1.974,2.625l-1.974-2.625l-1.195-1.597l-11.128-14.782l-0.008-0.016
		l-0.018,0.016l-10.509,13.962l-0.31,0.427l-8.36,11.371l37.739,0.008L314.256,425.53z"/>
	<path fill="#364A5E" d="M313.579,379.747c3.018,0,5.76,1.229,7.75,3.21l0.009,0.008c1.981,1.99,3.21,4.732,3.21,7.742
		c0,3.026-1.229,5.769-3.21,7.759h-0.009c-1.99,1.989-4.732,3.219-7.75,3.219c-3.027,0-5.77-1.229-7.759-3.219
		c-1.981-1.973-3.211-4.724-3.211-7.759c0-3.01,1.229-5.752,3.211-7.742l0.008-0.008
		C307.818,380.976,310.561,379.747,313.579,379.747 M308.328,406.635L308.328,406.635l0.075,0.101l1.389,1.847l-0.018,0.018
		l8.319,11.32c0.603,0.802,0.853,1.622,0.853,2.391h-0.008c0,0.603-0.151,1.163-0.418,1.64c-0.252,0.459-0.594,0.844-1.012,1.153
		c-0.686,0.502-1.563,0.777-2.45,0.777v-0.009h-20.926h-40.072c-0.962,0-1.798-0.275-2.442-0.752
		c-0.451-0.326-0.803-0.744-1.045-1.237h-0.008c-0.234-0.469-0.359-0.994-0.359-1.563h-0.009c0-0.827,0.284-1.705,0.903-2.55
		l8.77-11.922l-0.008-0.018l0.803-1.062l0.101-0.125l0.017-0.025l10.835-14.405c0.385-0.519,0.803-0.937,1.245-1.271
		c0.846-0.635,1.772-0.945,2.734-0.937c0.953,0,1.873,0.318,2.7,0.945c0.442,0.326,0.861,0.752,1.245,1.263l10.344,13.753
		l5.007-6.655c0.377-0.51,0.795-0.928,1.246-1.263c0.827-0.619,1.748-0.937,2.709-0.945c0.961,0,1.881,0.31,2.725,0.945
		c0.444,0.334,0.862,0.752,1.247,1.263l5.492,7.298L308.328,406.635z"/>
	<path fill-rule="evenodd" clip-rule="evenodd" fill="#54CAF2" d="M308.847,385.926l-0.042,0.042
		c-1.271,1.271-1.964,2.951-1.964,4.741c0,1.806,0.702,3.503,1.973,4.773c1.271,1.271,2.968,1.982,4.766,1.982
		c1.789,0,3.453-0.703,4.732-1.957l0.05-0.042c1.263-1.271,1.965-2.952,1.965-4.757c0-1.772-0.694-3.461-1.948-4.715l-0.041-0.05
		c-1.271-1.263-2.969-1.973-4.758-1.973S310.126,384.671,308.847,385.926 M254.972,421.642l39.161,0.009l19.989-0.009l-9.121-12.39
		l-5.56-7.399c-0.117-0.159-0.251-0.309-0.41-0.426c-0.025-0.018-0.126-0.101-0.167-0.101c-0.059,0-0.15,0.075-0.192,0.101
		c-0.15,0.117-0.284,0.275-0.401,0.426l-8.385,11.146l-13.72-18.244c-0.118-0.159-0.252-0.31-0.402-0.426
		c-0.042-0.025-0.142-0.1-0.191-0.1c-0.043,0-0.144,0.075-0.177,0.092c-0.15,0.117-0.284,0.276-0.4,0.435l-10.902,14.489
		L254.972,421.642z"/>
	<path fill-rule="evenodd" clip-rule="evenodd" fill="#BCC2C6" d="M370.682,327.636h201.825c2.174,0,3.946,1.772,3.946,3.938
		s-1.772,3.946-3.946,3.946H370.682c-2.165,0-3.938-1.781-3.938-3.946S368.517,327.636,370.682,327.636"/>
	<path fill-rule="evenodd" clip-rule="evenodd" fill="#BCC2C6" d="M370.682,347.45h201.825c2.174,0,3.946,1.773,3.946,3.947
		c0,2.173-1.772,3.946-3.946,3.946H370.682c-2.165,0-3.938-1.773-3.938-3.946C366.744,349.223,368.517,347.45,370.682,347.45"/>
	<path fill-rule="evenodd" clip-rule="evenodd" fill="#BCC2C6" d="M370.682,367.273h201.825c2.174,0,3.946,1.772,3.946,3.938
		c0,2.174-1.772,3.946-3.946,3.946H370.682c-2.165,0-3.938-1.772-3.938-3.946C366.744,369.045,368.517,367.273,370.682,367.273"/>
	<path fill-rule="evenodd" clip-rule="evenodd" fill="#BCC2C6" d="M370.682,387.096h201.825c2.174,0,3.946,1.772,3.946,3.938l0,0
		c0,2.166-1.772,3.938-3.946,3.938H370.682c-2.165,0-3.938-1.773-3.938-3.938l0,0C366.744,388.869,368.517,387.096,370.682,387.096"
		/>
	<path fill-rule="evenodd" clip-rule="evenodd" fill="#BCC2C6" d="M370.682,406.91h201.825c2.174,0,3.946,1.772,3.946,3.946l0,0
		c0,2.165-1.772,3.938-3.946,3.938H370.682c-2.165,0-3.938-1.773-3.938-3.938l0,0C366.744,408.683,368.517,406.91,370.682,406.91"/>
	<path fill-rule="evenodd" clip-rule="evenodd" fill="#BCC2C6" d="M370.682,426.726h131.094c2.166,0,3.947,1.772,3.947,3.946l0,0
		c0,2.174-1.781,3.946-3.947,3.946H370.682c-2.165,0-3.938-1.772-3.938-3.946l0,0C366.744,428.498,368.517,426.726,370.682,426.726"
		/>
	<path fill-rule="evenodd" clip-rule="evenodd" fill="#BCC2C6" d="M370.682,307.905h131.094c2.166,0,3.947,1.772,3.947,3.946l0,0
		c0,2.174-1.781,3.946-3.947,3.946H370.682c-2.165,0-3.938-1.772-3.938-3.946l0,0C366.744,309.677,368.517,307.905,370.682,307.905"
		/>
	<path fill-rule="evenodd" clip-rule="evenodd" fill="#BCC2C6" d="M370.682,472.817h201.825c2.174,0,3.946,1.772,3.946,3.938
		c0,2.174-1.772,3.945-3.946,3.945H370.682c-2.165,0-3.938-1.771-3.938-3.945C366.744,474.59,368.517,472.817,370.682,472.817"/>
	<path fill-rule="evenodd" clip-rule="evenodd" fill="#BCC2C6" d="M370.682,492.641h201.825c2.174,0,3.946,1.772,3.946,3.938l0,0
		c0,2.165-1.772,3.938-3.946,3.938H370.682c-2.165,0-3.938-1.772-3.938-3.938l0,0C366.744,494.413,368.517,492.641,370.682,492.641"
		/>
	<path fill-rule="evenodd" clip-rule="evenodd" fill="#BCC2C6" d="M370.682,512.455h201.825c2.174,0,3.946,1.772,3.946,3.946l0,0
		c0,2.165-1.772,3.938-3.946,3.938H370.682c-2.165,0-3.938-1.772-3.938-3.938l0,0C366.744,514.228,368.517,512.455,370.682,512.455"
		/>
	<path fill-rule="evenodd" clip-rule="evenodd" fill="#BCC2C6" d="M370.682,532.27h201.825c2.174,0,3.946,1.772,3.946,3.946l0,0
		c0,2.174-1.772,3.945-3.946,3.945H370.682c-2.165,0-3.938-1.771-3.938-3.945l0,0C366.744,534.042,368.517,532.27,370.682,532.27"/>
	<path fill-rule="evenodd" clip-rule="evenodd" fill="#BCC2C6" d="M370.682,552.093h131.094c2.166,0,3.947,1.772,3.947,3.938v0.009
		c0,2.165-1.781,3.938-3.947,3.938H370.682c-2.165,0-3.938-1.772-3.938-3.938v-0.009
		C366.744,553.865,368.517,552.093,370.682,552.093"/>
	<path fill-rule="evenodd" clip-rule="evenodd" fill="#BCC2C6" d="M370.682,453.095h131.094c2.166,0,3.947,1.772,3.947,3.938
		c0,2.165-1.781,3.946-3.947,3.946H370.682c-2.165,0-3.938-1.781-3.938-3.946C366.744,454.867,368.517,453.095,370.682,453.095"/>
	<path fill-rule="evenodd" clip-rule="evenodd" fill="#BCC2C6" d="M236.862,513.375h102.568c2.165,0,3.938,1.772,3.938,3.946l0,0
		c0,2.174-1.772,3.946-3.938,3.946H236.862c-2.165,0-3.946-1.772-3.946-3.946l0,0C232.916,515.147,234.697,513.375,236.862,513.375"
		/>
	<path fill-rule="evenodd" clip-rule="evenodd" fill="#BCC2C6" d="M236.862,533.197h102.568c2.165,0,3.938,1.772,3.938,3.938l0,0
		c0,2.174-1.772,3.946-3.938,3.946H236.862c-2.165,0-3.946-1.772-3.946-3.946l0,0C232.916,534.97,234.697,533.197,236.862,533.197"
		/>
	<path fill-rule="evenodd" clip-rule="evenodd" fill="#BCC2C6" d="M236.862,553.021h102.568c2.165,0,3.938,1.772,3.938,3.938l0,0
		c0,2.174-1.772,3.938-3.938,3.938H236.862c-2.165,0-3.946-1.764-3.946-3.938l0,0C232.916,554.793,234.697,553.021,236.862,553.021"
		/>
</g>
</svg>
