<?xml version="1.0" encoding="utf-8"?>
<!-- Generator: Adobe Illustrator 15.1.0, SVG Export Plug-In . SVG Version: 6.00 Build 0)  -->
<!DOCTYPE svg PUBLIC "-//W3C//DTD SVG 1.0//EN" "http://www.w3.org/TR/2001/REC-SVG-20010904/DTD/svg10.dtd">
<svg version="1.0" id="Layer_1" xmlns="http://www.w3.org/2000/svg" xmlns:xlink="http://www.w3.org/1999/xlink" x="0px" y="0px"
	 width="800px" height="800px" viewBox="193.08700561523438 221.0709991455078 422.2779846191406 379.052978515625" enable-background="new 0 0 800 800" xml:space="preserve">
<g>
	<!-- <path fill="#BCC2C6" d="M209.349,221.071h389.763c4.465,0,8.536,1.831,11.479,4.774v0.017c2.942,2.943,4.774,7.006,4.774,11.462
		v346.548c0,4.463-1.832,8.526-4.774,11.462v0.024c-2.943,2.942-7.015,4.766-11.479,4.766H209.349
		c-4.474,0-8.544-1.823-11.479-4.766v-0.024c-2.943-2.936-4.782-6.999-4.782-11.462V237.324c0-4.456,1.839-8.52,4.782-11.462v-0.017
		C200.805,222.902,204.875,221.071,209.349,221.071"/> -->
	<!-- <path fill="#EBEFF0" d="M609.462,237.324v346.548c0,6.521-4.548,10.358-10.351,10.358H209.349c-5.803,0-10.359-3.722-10.359-10.358
		V237.324c0-6.755,4.582-10.351,10.359-10.351h389.763C604.914,226.974,609.462,230.686,609.462,237.324"/> -->
	<path fill="#BCC2C6" d="M207.199,268.677h394.053c3.888,0,7.416,1.588,9.966,4.146c2.559,2.559,4.147,6.086,4.147,9.966v303.222
		c0,3.896-1.589,7.424-4.147,9.975c-2.55,2.558-6.078,4.138-9.966,4.138H207.199c-3.879,0-7.407-1.58-9.965-4.138
		c-2.559-2.551-4.147-6.078-4.147-9.975V282.79c0-3.88,1.589-7.408,4.147-9.966C199.792,270.265,203.32,268.677,207.199,268.677"/>
	<path fill-rule="evenodd" clip-rule="evenodd" fill="#FFFFFF" d="M207.199,274.579c-2.182,0-4.246,0.869-5.793,2.417
		c-1.547,1.546-2.417,3.62-2.417,5.794v303.222c0,2.19,0.87,4.264,2.417,5.802c1.547,1.548,3.611,2.417,5.793,2.417h394.053
		c2.189,0,4.256-0.869,5.802-2.417c1.538-1.538,2.408-3.611,2.408-5.802V282.79c0-2.182-0.87-4.248-2.408-5.794
		c-1.546-1.547-3.628-2.417-5.802-2.417H207.199z"/>
	<!-- <path fill-rule="evenodd" clip-rule="evenodd" fill="#94A4A5" d="M550.536,241.103c4.146,0,7.517,3.361,7.517,7.508
		c0,4.147-3.37,7.508-7.517,7.508c-4.147,0-7.508-3.361-7.508-7.508C543.028,244.464,546.389,241.103,550.536,241.103
		 M574.13,241.103c4.146,0,7.508,3.361,7.508,7.508c0,4.147-3.361,7.508-7.508,7.508c-4.147,0-7.508-3.361-7.508-7.508
		C566.622,244.464,569.982,241.103,574.13,241.103z M526.951,241.103c4.146,0,7.516,3.361,7.516,7.508
		c0,4.147-3.369,7.508-7.516,7.508c-4.147,0-7.517-3.361-7.517-7.508C519.435,244.464,522.813,241.103,526.951,241.103z"/> -->
	<!-- <path fill-rule="evenodd" clip-rule="evenodd" fill="#94A4A5" d="M456.321,253.41h-8.454v-3.403h8.152v-2.642h-8.152v-3.486h8.454
		v-2.75h-11.263c0,5.025,0,10.058,0,15.074h11.263V253.41z M430.193,241.128v15.074h10.576v-2.625h-7.741v-12.449H430.193z
		 M424.551,252.356c-0.986,0.987-2.467,1.521-3.788,1.521c-3.712,0-5.15-2.6-5.183-5.1c-0.018-2.508,1.555-5.217,5.183-5.217
		c1.321,0,2.65,0.452,3.646,1.413l1.89-1.822c-1.555-1.53-3.487-2.299-5.535-2.299c-5.435,0-7.992,3.996-7.976,7.926
		c0.025,3.913,2.392,7.767,7.976,7.767c2.174,0,4.181-0.71,5.719-2.231L424.551,252.356z M408.222,256.202v-15.074h-2.809v15.074
		H408.222z M393.725,256.202h2.843v-12.491h4.774v-2.583c-4.365,0-8.044,0-12.383,0v2.583h4.766V256.202z M379.512,243.779
		c1.781,0,2.575,1.204,2.575,2.416s-0.769,2.416-2.575,2.416h-4.322v-4.832H379.512z M385.682,256.002l-4.564-5.134
		c2.868-0.585,3.813-2.667,3.813-4.74c0-2.617-1.873-4.975-5.418-5c-2.392,0.025-4.774,0-7.157,0v15.074h2.835v-5.033h2.733
		l4.382,5.033h3.377V256.002z M363.226,250.718h-5.585l2.792-6.421L363.226,250.718z M365.633,256.202h3.102l-6.747-15.074h-3.101
		l-6.748,15.074h3.068l1.296-2.842h7.859L365.633,256.202z"/> -->
	<polygon fill="#364A5E" points="232.959,296.032 441.891,296.032 446.664,296.032 446.664,300.798 446.664,429.242
		446.664,434.008 441.891,434.008 232.959,434.008 228.185,434.008 228.185,429.242 228.185,300.798 228.185,296.032 	"/>
	<rect x="234.154" y="301.993" fill="#3EA3DB" width="206.54" height="126.053"/>
	<path opacity="0.15" fill="#010101" d="M399,340.478c-2.098-2.082-4.991-3.378-8.193-3.378s-6.095,1.296-8.186,3.378
		c-2.089,2.098-3.377,5-3.377,8.193s1.288,6.086,3.377,8.176c2.1,2.099,4.992,3.395,8.186,3.395c3.202,0,6.096-1.288,8.193-3.377
		c2.082-2.09,3.378-4.991,3.378-8.193C402.378,345.477,401.082,342.576,399,340.478 M390.807,327.568
		c5.812,0,11.078,2.366,14.908,6.187l0.016,0.017c3.813,3.812,6.179,9.08,6.179,14.898s-2.366,11.086-6.179,14.898l-0.016,0.025
		c-3.83,3.821-9.097,6.179-14.908,6.179c-5.826,0-11.103-2.357-14.923-6.187c-3.813-3.812-6.18-9.087-6.18-14.915
		c0-5.819,2.366-11.086,6.18-14.898l0.017-0.017C379.721,329.935,384.996,327.568,390.807,327.568z M380.699,379.304
		L380.699,379.304l0.149,0.192l2.676,3.553l-0.032,0.034l16.002,21.763c1.153,1.563,1.639,3.135,1.639,4.615h-0.018
		c0,1.162-0.284,2.224-0.803,3.152c-0.477,0.878-1.145,1.621-1.939,2.206c-1.321,0.97-3.019,1.506-4.715,1.506v-0.018l-40.266,0.009
		l-77.076-0.009c-1.864,0-3.469-0.534-4.707-1.445c-0.852-0.628-1.537-1.431-2.015-2.384h-0.017
		c-0.451-0.902-0.686-1.914-0.686-3.01h-0.017c0-1.588,0.552-3.276,1.747-4.899l16.863-22.933l-0.017-0.025l1.547-2.057l0.185-0.25
		l0,0l0.033-0.042l20.851-27.716c0.736-0.978,1.539-1.789,2.392-2.424c1.631-1.229,3.41-1.823,5.259-1.823
		c1.848,0.017,3.604,0.627,5.2,1.823c0.86,0.635,1.663,1.455,2.392,2.424l19.906,26.47l9.632-12.809
		c0.735-0.97,1.529-1.781,2.383-2.424c1.604-1.204,3.368-1.814,5.226-1.823c1.839,0,3.611,0.602,5.241,1.823
		c0.845,0.635,1.647,1.446,2.391,2.424l10.56,14.046L380.699,379.304z M389.135,406.811l-16.103-21.888l-0.678-0.919l-9.849-13.093
		l-0.017-0.034l-0.033,0.034l-11.12,14.79l-2.307,3.06l-3.796,5.05l-3.796-5.05l-2.308-3.06l-21.402-28.451l-0.018-0.034
		l-0.033,0.034l-20.208,26.871l-0.602,0.811l-16.095,21.88l72.62,0.017L389.135,406.811z"/>
	<path fill="#364A5E" d="M387.839,320.638c5.819,0,11.086,2.366,14.899,6.179l0.024,0.017c3.821,3.821,6.179,9.096,6.179,14.907
		s-2.357,11.086-6.179,14.907l-0.024,0.017c-3.813,3.812-9.08,6.179-14.899,6.179c-5.827,0-11.103-2.367-14.915-6.179
		c-3.83-3.821-6.188-9.097-6.188-14.924c0-5.811,2.357-11.086,6.188-14.907l0.016-0.017
		C376.753,323.004,382.02,320.638,387.839,320.638 M377.739,372.365L377.739,372.365l0.142,0.201l2.667,3.553l-0.032,0.025
		l16.018,21.771c1.146,1.555,1.631,3.127,1.631,4.616h-0.025c0.009,1.162-0.284,2.224-0.785,3.151
		c-0.485,0.878-1.154,1.613-1.957,2.199c-1.313,0.97-3.01,1.504-4.715,1.504v-0.017l-40.256,0.017l-77.077-0.017
		c-1.856,0-3.469-0.526-4.716-1.438c-0.852-0.636-1.529-1.438-2.006-2.392h-0.017c-0.452-0.902-0.686-1.905-0.686-3.001h-0.017
		c0-1.589,0.552-3.286,1.738-4.908l16.872-22.925l-0.018-0.033l1.539-2.04l0.192-0.259l0,0l0.034-0.042l20.851-27.715
		c0.736-0.978,1.539-1.797,2.392-2.433c1.63-1.22,3.419-1.822,5.259-1.814c1.839,0.008,3.603,0.627,5.2,1.823
		c0.853,0.644,1.655,1.446,2.391,2.424l19.906,26.461l9.633-12.8c0.727-0.978,1.529-1.781,2.383-2.424
		c1.604-1.204,3.377-1.814,5.225-1.823c1.839-0.008,3.62,0.594,5.241,1.814c0.854,0.644,1.656,1.455,2.392,2.433l10.568,14.046
		L377.739,372.365z"/>
	<path fill-rule="evenodd" clip-rule="evenodd" fill="#54CAF2" d="M387.839,326.047c4.172,0,8.126,1.656,11.077,4.599l0.018,0.017
		c2.951,2.951,4.59,6.906,4.59,11.078c0,4.172-1.639,8.118-4.59,11.078l-0.018,0.016c-2.951,2.952-6.896,4.599-11.077,4.599
		c-4.18,0-8.144-1.647-11.086-4.599c-2.96-2.959-4.599-6.914-4.599-11.094c0-4.172,1.639-8.126,4.599-11.078l0.017-0.017
		C379.713,327.694,383.667,326.047,387.839,326.047"/>
	<path fill-rule="evenodd" clip-rule="evenodd" fill="#54CAF2" d="M342.265,380.09l13.955-18.561
		c0.384-0.502,0.819-0.978,1.321-1.354c0.585-0.443,1.228-0.736,1.98-0.736c0.744,0,1.388,0.301,1.973,0.736
		c0.502,0.376,0.945,0.852,1.313,1.354l10.702,14.23l18.661,25.366c0.217,0.284,0.426,0.644,0.518,0.986l0.042,0.143v0.426
		l-0.042,0.143c-0.075,0.293-0.25,0.526-0.493,0.703c-0.317,0.233-0.718,0.358-1.111,0.426l-0.067,0.008l-40.599,0.009
		l-77.068-0.009c-0.501,0-1.095-0.092-1.505-0.393l-0.209-0.15l-0.292-0.61v-0.544l0.017-0.116c0.107-0.452,0.385-0.929,0.651-1.304
		l18.443-25.065l20.986-27.908c0.384-0.501,0.818-0.978,1.32-1.354c0.585-0.443,1.229-0.736,1.981-0.736
		c0.744,0.008,1.396,0.301,1.981,0.744c0.502,0.376,0.937,0.845,1.305,1.346L342.265,380.09z"/>
	<path fill-rule="evenodd" clip-rule="evenodd" fill="#BCC2C6" d="M477.866,315.605h98.454c2.174,0,3.946,1.772,3.946,3.938l0,0
		c0,2.174-1.772,3.946-3.946,3.946h-98.454c-2.165,0-3.946-1.772-3.946-3.946l0,0C473.92,317.377,475.701,315.605,477.866,315.605"
		/>
	<path fill-rule="evenodd" clip-rule="evenodd" fill="#BCC2C6" d="M477.866,335.428h98.454c2.174,0,3.946,1.772,3.946,3.938l0,0
		c0,2.166-1.772,3.938-3.946,3.938h-98.454c-2.165,0-3.946-1.772-3.946-3.938l0,0C473.92,337.2,475.701,335.428,477.866,335.428"/>
	<path fill-rule="evenodd" clip-rule="evenodd" fill="#BCC2C6" d="M477.866,295.781h98.454c2.174,0,3.946,1.772,3.946,3.946l0,0
		c0,2.174-1.772,3.946-3.946,3.946h-98.454c-2.165,0-3.946-1.772-3.946-3.946l0,0C473.92,297.554,475.701,295.781,477.866,295.781"
		/>
	<path fill-rule="evenodd" clip-rule="evenodd" fill="#BCC2C6" d="M477.866,355.242h98.454c2.174,0,3.946,1.772,3.946,3.946
		c0,2.166-1.772,3.946-3.946,3.946h-98.454c-2.165,0-3.946-1.781-3.946-3.946C473.92,357.015,475.701,355.242,477.866,355.242"/>
	<path fill-rule="evenodd" clip-rule="evenodd" fill="#BCC2C6" d="M477.866,375.057h98.454c2.174,0,3.946,1.772,3.946,3.946
		s-1.772,3.946-3.946,3.946h-98.454c-2.165,0-3.946-1.772-3.946-3.946S475.701,375.057,477.866,375.057"/>
	<path fill-rule="evenodd" clip-rule="evenodd" fill="#BCC2C6" d="M477.866,394.88h45.281c2.174,0,3.946,1.781,3.946,3.946
		s-1.772,3.938-3.946,3.938h-45.281c-2.165,0-3.946-1.772-3.946-3.938S475.701,394.88,477.866,394.88"/>
	<path fill-rule="evenodd" clip-rule="evenodd" fill="#BCC2C6" d="M477.866,335.428h98.454c2.174,0,3.946,1.772,3.946,3.938l0,0
		c0,2.166-1.772,3.938-3.946,3.938h-98.454c-2.165,0-3.946-1.772-3.946-3.938l0,0C473.92,337.2,475.701,335.428,477.866,335.428"/>
	<polygon fill="#364A5E" points="232.432,462.091 328.111,462.091 332.35,462.091 332.35,466.338 332.35,562.017 332.35,566.247
		328.111,566.247 232.432,566.247 228.185,566.247 228.185,562.017 228.185,466.338 228.185,462.091 	"/>
	<rect x="233.377" y="467.274" fill="#3EA3DB" width="93.78" height="93.789"/>
	<path opacity="0.15" fill="#010101" d="M309.726,501.386c-1.028-1.02-2.449-1.655-4.013-1.655c-1.572,0-2.984,0.636-4.021,1.655
		c-1.02,1.02-1.655,2.441-1.655,4.014c0,1.571,0.636,2.983,1.663,4.013c1.029,1.02,2.449,1.655,4.014,1.655
		c1.563,0,2.984-0.636,4.013-1.655c1.028-1.021,1.655-2.441,1.655-4.013C311.381,503.827,310.754,502.405,309.726,501.386
		 M305.713,495.057c2.852,0,5.434,1.154,7.299,3.026l0.016,0.009c1.873,1.873,3.027,4.455,3.027,7.308
		c0,2.842-1.154,5.434-3.027,7.307l-0.016,0.009c-1.865,1.872-4.447,3.034-7.299,3.034c-2.859,0-5.442-1.17-7.315-3.034
		c-1.873-1.873-3.027-4.456-3.027-7.315c0-2.853,1.154-5.435,3.027-7.308l0.009-0.009
		C300.278,496.211,302.861,495.057,305.713,495.057z M300.755,520.414L300.755,520.414l0.075,0.093l1.313,1.747l-0.017,0.017
		l7.842,10.668c0.569,0.761,0.803,1.53,0.803,2.258h-0.009c0,0.568-0.142,1.087-0.393,1.555c-0.233,0.418-0.56,0.786-0.953,1.07
		c-0.643,0.476-1.471,0.735-2.308,0.735v-0.008l-19.739,0.008h-37.781c-0.92-0.008-1.706-0.268-2.307-0.71
		c-0.419-0.31-0.753-0.711-0.988-1.171h-0.016c-0.218-0.443-0.335-0.937-0.335-1.472l0,0c0-0.777,0.268-1.613,0.853-2.399
		l8.261-11.245v-0.017l0.753-1.004l0.092-0.125l0,0l0.017-0.017l10.225-13.595c0.36-0.477,0.753-0.869,1.171-1.188
		c0.802-0.601,1.673-0.895,2.574-0.886c0.903,0,1.773,0.301,2.56,0.886c0.417,0.318,0.802,0.72,1.162,1.188l9.757,12.977
		l4.724-6.271c0.358-0.484,0.752-0.878,1.17-1.188c0.786-0.592,1.655-0.894,2.566-0.901c0.903,0,1.772,0.301,2.559,0.895
		c0.418,0.309,0.819,0.71,1.179,1.194l5.176,6.882L300.755,520.414z M304.894,533.9l-7.9-10.735l-0.335-0.452l-4.815-6.412
		l-0.018-0.017l-0.008,0.017l-5.459,7.249l-1.121,1.497l-1.872,2.475l-1.856-2.475l-1.129-1.497l-10.493-13.954l-0.016-0.009v0.009
		l-9.916,13.177l-0.293,0.401l-7.884,10.727l35.591,0.008L304.894,533.9z"/>
	<path fill="#364A5E" d="M304.249,490.717c2.859,0,5.435,1.163,7.308,3.027l0.017,0.017c1.873,1.873,3.027,4.456,3.027,7.308
		c0,2.843-1.154,5.434-3.027,7.307h-0.017c-1.873,1.873-4.448,3.035-7.308,3.035c-2.851,0-5.435-1.162-7.307-3.035
		c-1.873-1.873-3.026-4.456-3.026-7.307c0-2.852,1.153-5.435,3.026-7.308l0.008-0.017
		C298.823,491.88,301.407,490.717,304.249,490.717 M299.301,516.083L299.301,516.083l0.066,0.092l1.32,1.748l-0.016,0.009
		l7.842,10.676c0.568,0.753,0.803,1.53,0.803,2.258h-0.009c0,0.568-0.142,1.087-0.393,1.547c-0.234,0.427-0.568,0.794-0.953,1.078
		c-0.645,0.477-1.472,0.736-2.308,0.736v-0.009l-19.739,0.009l-37.781-0.009c-0.92,0-1.706-0.26-2.309-0.711
		c-0.418-0.301-0.752-0.702-0.986-1.162h-0.017c-0.217-0.443-0.334-0.937-0.334-1.479l0,0c0-0.77,0.268-1.605,0.853-2.399
		l8.26-11.245v-0.017l0.753-0.995l0.092-0.126h0.009l0.009-0.016l10.225-13.596c0.359-0.484,0.753-0.869,1.17-1.187
		c0.803-0.603,1.672-0.895,2.575-0.895c0.903,0.008,1.772,0.31,2.55,0.895c0.427,0.317,0.812,0.719,1.179,1.187l9.749,12.977
		l4.732-6.271c0.351-0.485,0.743-0.878,1.17-1.196c0.777-0.594,1.647-0.894,2.559-0.894c0.903,0,1.772,0.3,2.559,0.894
		c0.418,0.31,0.819,0.711,1.179,1.196l5.176,6.881L299.301,516.083z"/>
	<path fill-rule="evenodd" clip-rule="evenodd" fill="#54CAF2" d="M299.794,496.545l-0.042,0.042
		c-1.196,1.195-1.856,2.784-1.856,4.481c0,1.688,0.669,3.293,1.864,4.498c1.196,1.195,2.801,1.855,4.489,1.855
		c1.689,0,3.261-0.66,4.465-1.839l0.051-0.034c1.195-1.204,1.848-2.793,1.848-4.48c0-1.681-0.645-3.277-1.832-4.465l-0.032-0.034
		c-1.204-1.195-2.802-1.864-4.499-1.864C302.561,494.705,300.997,495.365,299.794,496.545 M248.985,530.229l36.93,0.009
		l18.853-0.009l-8.595-11.688l-5.25-6.973c-0.108-0.149-0.234-0.292-0.385-0.401c-0.033-0.017-0.117-0.092-0.167-0.092
		c-0.042,0-0.134,0.066-0.167,0.092c-0.151,0.117-0.276,0.252-0.385,0.401l-7.909,10.51l-12.942-17.206
		c-0.1-0.143-0.234-0.293-0.376-0.393c-0.033-0.034-0.125-0.101-0.176-0.101c-0.042,0-0.134,0.066-0.167,0.092
		c-0.142,0.108-0.268,0.259-0.385,0.401l-10.275,13.669L248.985,530.229z"/>
	<polygon fill="#364A5E" points="356.386,462.091 452.065,462.091 456.304,462.091 456.304,466.338 456.304,562.017
		456.304,566.247 452.065,566.247 356.386,566.247 352.147,566.247 352.147,562.017 352.147,466.338 352.147,462.091 	"/>
	<rect x="357.34" y="467.274" fill="#3EA3DB" width="93.781" height="93.789"/>
	<path opacity="0.15" fill="#010101" d="M433.68,501.386c-1.027-1.02-2.449-1.655-4.013-1.655s-2.984,0.636-4.021,1.655
		c-1.021,1.02-1.648,2.441-1.648,4.014c0,1.571,0.636,2.983,1.664,4.013c1.021,1.02,2.441,1.655,4.005,1.655
		s2.985-0.636,4.013-1.655c1.029-1.021,1.664-2.441,1.664-4.013C435.344,503.827,434.709,502.405,433.68,501.386 M429.667,495.057
		c2.851,0,5.435,1.154,7.308,3.026l0.008,0.009c1.873,1.873,3.026,4.455,3.026,7.308c0,2.842-1.153,5.434-3.026,7.307l-0.008,0.009
		c-1.873,1.872-4.457,3.034-7.308,3.034s-5.442-1.17-7.315-3.034c-1.873-1.873-3.026-4.456-3.026-7.315
		c0-2.853,1.153-5.435,3.026-7.308l0.009-0.009C424.232,496.211,426.816,495.057,429.667,495.057z M424.709,520.414L424.709,520.414
		l0.075,0.093l1.313,1.747l-0.017,0.017l7.843,10.668c0.568,0.761,0.803,1.53,0.803,2.258h-0.009
		c0.009,0.568-0.143,1.087-0.393,1.555c-0.234,0.418-0.561,0.786-0.954,1.07c-0.643,0.476-1.471,0.735-2.307,0.735v-0.008
		l-19.73,0.008h-37.791c-0.91-0.008-1.705-0.268-2.307-0.71c-0.419-0.31-0.753-0.711-0.987-1.171h-0.008
		c-0.227-0.443-0.344-0.937-0.344-1.472l0,0c0-0.777,0.269-1.613,0.854-2.399l8.269-11.245l-0.009-0.017l0.752-1.004l0.101-0.125
		l0,0l0.018-0.017l10.217-13.595c0.359-0.477,0.752-0.869,1.17-1.188c0.803-0.601,1.672-0.895,2.575-0.886
		c0.912,0,1.772,0.301,2.559,0.886c0.418,0.318,0.812,0.72,1.17,1.188l9.757,12.977l4.724-6.271
		c0.352-0.484,0.753-0.878,1.171-1.188c0.778-0.592,1.647-0.894,2.558-0.901c0.903,0,1.773,0.301,2.568,0.895
		c0.417,0.309,0.81,0.71,1.17,1.194l5.175,6.882L424.709,520.414z M428.848,533.9l-7.893-10.735l-0.334-0.452l-4.824-6.412
		l-0.018-0.017l-0.007,0.017l-5.46,7.249l-1.121,1.497l-1.864,2.475l-1.864-2.475l-1.12-1.497l-10.501-13.954l-0.008-0.009
		l-0.009,0.009l-9.916,13.177l-0.293,0.401l-7.884,10.727l35.601,0.008L428.848,533.9z"/>
	<path fill="#364A5E" d="M428.213,490.717c2.851,0,5.434,1.163,7.307,3.027l0.008,0.017c1.873,1.873,3.027,4.456,3.027,7.308
		c0,2.843-1.154,5.434-3.027,7.307h-0.008c-1.873,1.873-4.456,3.035-7.307,3.035c-2.852,0-5.443-1.162-7.315-3.035
		c-1.873-1.873-3.027-4.456-3.027-7.307c0-2.852,1.154-5.435,3.027-7.308l0.017-0.017
		C422.778,491.88,425.361,490.717,428.213,490.717 M423.255,516.083L423.255,516.083l0.075,0.092l1.313,1.748l-0.017,0.009
		l7.842,10.676c0.568,0.753,0.803,1.53,0.803,2.258l0,0c0,0.568-0.15,1.087-0.401,1.547c-0.233,0.427-0.552,0.794-0.953,1.078
		c-0.635,0.477-1.472,0.736-2.308,0.736v-0.009l-19.731,0.009l-37.789-0.009c-0.912,0-1.706-0.26-2.309-0.711
		c-0.417-0.301-0.752-0.702-0.986-1.162h-0.008c-0.226-0.443-0.343-0.937-0.335-1.479h-0.008c0-0.77,0.268-1.605,0.853-2.399
		l8.27-11.245l-0.009-0.017l0.752-0.995l0.092-0.126h0.009l0.017-0.016l10.216-13.596c0.36-0.484,0.754-0.869,1.172-1.187
		c0.802-0.603,1.672-0.895,2.574-0.895c0.903,0.008,1.773,0.31,2.56,0.895c0.417,0.317,0.81,0.719,1.17,1.187l9.757,12.977
		l4.724-6.271c0.351-0.485,0.752-0.878,1.17-1.196c0.786-0.594,1.647-0.894,2.559-0.894c0.903,0,1.772,0.3,2.566,0.894
		c0.419,0.31,0.812,0.711,1.171,1.196l5.184,6.881L423.255,516.083z"/>
	<path fill-rule="evenodd" clip-rule="evenodd" fill="#54CAF2" d="M423.748,496.545l-0.042,0.042
		c-1.196,1.195-1.856,2.784-1.856,4.481c0,1.688,0.669,3.293,1.873,4.498c1.188,1.195,2.793,1.855,4.49,1.855
		c1.688,0,3.252-0.66,4.464-1.839l0.042-0.034c1.195-1.204,1.855-2.793,1.855-4.48c0-1.681-0.651-3.277-1.839-4.465l-0.033-0.034
		c-1.204-1.195-2.793-1.864-4.489-1.864C426.523,494.705,424.961,495.365,423.748,496.545 M372.939,530.229l36.93,0.009
		l18.853-0.009l-8.595-11.688l-5.249-6.973c-0.109-0.149-0.235-0.292-0.385-0.401c-0.025-0.017-0.117-0.092-0.159-0.092
		c-0.05,0-0.142,0.066-0.176,0.092c-0.15,0.117-0.268,0.252-0.385,0.401l-7.9,10.51l-12.942-17.206
		c-0.108-0.143-0.243-0.293-0.376-0.393c-0.042-0.034-0.135-0.101-0.184-0.101c-0.034,0-0.135,0.066-0.168,0.092
		c-0.142,0.108-0.268,0.259-0.376,0.401l-10.284,13.669L372.939,530.229z"/>
	<polygon fill="#364A5E" points="480.34,462.091 576.02,462.091 580.267,462.091 580.267,466.338 580.267,562.017 580.267,566.247
		576.02,566.247 480.34,566.247 476.109,566.247 476.109,562.017 476.109,466.338 476.109,462.091 	"/>
	<rect x="481.294" y="467.274" fill="#3EA3DB" width="93.781" height="93.789"/>
	<path opacity="0.15" fill="#010101" d="M557.643,501.386c-1.036-1.02-2.449-1.655-4.013-1.655c-1.572,0-2.993,0.636-4.013,1.655
		c-1.029,1.02-1.664,2.441-1.664,4.014c0,1.571,0.635,2.983,1.664,4.013c1.02,1.02,2.44,1.655,4.013,1.655
		c1.563,0,2.977-0.636,4.013-1.655c1.021-1.021,1.656-2.441,1.656-4.013C559.299,503.827,558.663,502.405,557.643,501.386
		 M553.63,495.057c2.842,0,5.435,1.154,7.299,3.026l0.008,0.009c1.873,1.873,3.026,4.455,3.026,7.308
		c0,2.842-1.153,5.434-3.026,7.307l-0.008,0.009c-1.864,1.872-4.457,3.034-7.299,3.034c-2.859,0-5.451-1.17-7.324-3.034
		c-1.864-1.873-3.026-4.456-3.026-7.315c0-2.853,1.153-5.435,3.026-7.308l0.017-0.009
		C548.195,496.211,550.771,495.057,553.63,495.057z M548.672,520.414L548.672,520.414l0.076,0.093l1.303,1.747l-0.017,0.017
		l7.852,10.668c0.56,0.761,0.794,1.53,0.794,2.258l0,0c0,0.568-0.143,1.087-0.393,1.555c-0.234,0.418-0.561,0.786-0.962,1.07
		c-0.636,0.476-1.472,0.735-2.308,0.735v-0.008l-19.73,0.008h-37.79c-0.912-0.008-1.697-0.268-2.308-0.71
		c-0.419-0.31-0.753-0.711-0.987-1.171h-0.008c-0.218-0.443-0.334-0.937-0.327-1.472h-0.016c0-0.777,0.268-1.613,0.853-2.399
		l8.277-11.245l-0.018-0.017l0.753-1.004l0.101-0.125l0,0l0.017-0.017l10.217-13.595c0.367-0.477,0.752-0.869,1.17-1.188
		c0.803-0.601,1.672-0.895,2.584-0.886c0.903,0,1.764,0.301,2.55,0.886c0.418,0.318,0.812,0.72,1.17,1.188l9.757,12.977l4.725-6.271
		c0.359-0.484,0.752-0.878,1.171-1.188c0.785-0.592,1.654-0.894,2.558-0.901c0.903,0,1.772,0.301,2.575,0.895
		c0.417,0.309,0.803,0.71,1.171,1.194l5.174,6.882L548.672,520.414z M552.81,533.9l-7.9-10.735l-0.325-0.452l-4.832-6.412
		l-0.009-0.017l-0.009,0.017l-5.46,7.249l-1.128,1.497l-1.865,2.475l-1.864-2.475l-1.119-1.497l-10.502-13.954v-0.009l-0.017,0.009
		l-9.915,13.177l-0.284,0.401l-7.893,10.727l35.6,0.008L552.81,533.9z"/>
	<path fill="#364A5E" d="M552.175,490.717c2.843,0,5.427,1.163,7.299,3.027l0.009,0.017c1.873,1.873,3.026,4.456,3.026,7.308
		c0,2.843-1.153,5.434-3.026,7.307h-0.009c-1.872,1.873-4.456,3.035-7.299,3.035c-2.859,0-5.451-1.162-7.323-3.035
		c-1.873-1.873-3.026-4.456-3.026-7.307c0-2.852,1.153-5.435,3.026-7.308l0.017-0.017
		C546.741,491.88,549.315,490.717,552.175,490.717 M547.217,516.083L547.217,516.083l0.075,0.092l1.305,1.748l-0.017,0.009
		l7.851,10.676c0.56,0.753,0.803,1.53,0.803,2.258h-0.008c0,0.568-0.151,1.087-0.394,1.547c-0.243,0.427-0.561,0.794-0.953,1.078
		c-0.644,0.477-1.48,0.736-2.315,0.736v-0.009l-19.731,0.009l-37.791-0.009c-0.901,0-1.696-0.26-2.307-0.711
		c-0.418-0.301-0.753-0.702-0.986-1.162h-0.009c-0.218-0.443-0.335-0.937-0.335-1.479h-0.008c0-0.77,0.269-1.605,0.854-2.399
		l8.269-11.245l-0.009-0.017l0.761-0.995l0.092-0.126l0,0l0.017-0.016l10.217-13.596c0.368-0.484,0.761-0.869,1.171-1.187
		c0.803-0.603,1.672-0.895,2.584-0.895c0.902,0.008,1.764,0.31,2.549,0.895c0.419,0.317,0.82,0.719,1.171,1.187l9.757,12.977
		l4.724-6.271c0.352-0.485,0.753-0.878,1.17-1.196c0.787-0.594,1.656-0.894,2.56-0.894c0.902,0,1.772,0.3,2.566,0.894
		c0.417,0.31,0.811,0.711,1.179,1.196l5.175,6.881L547.217,516.083z"/>
	<path fill-rule="evenodd" clip-rule="evenodd" fill="#54CAF2" d="M547.71,496.545l-0.05,0.042
		c-1.187,1.195-1.848,2.784-1.848,4.481c0,1.688,0.661,3.293,1.864,4.498c1.195,1.195,2.793,1.855,4.498,1.855
		c1.689,0,3.244-0.66,4.457-1.839l0.041-0.034c1.204-1.204,1.855-2.793,1.855-4.48c0-1.681-0.651-3.277-1.83-4.465l-0.042-0.034
		c-1.195-1.195-2.792-1.864-4.481-1.864C550.478,494.705,548.914,495.365,547.71,496.545 M496.895,530.229l36.938,0.009
		l18.845-0.009l-8.595-11.688l-5.251-6.973c-0.1-0.149-0.234-0.292-0.376-0.401c-0.025-0.017-0.125-0.092-0.159-0.092
		c-0.05,0-0.149,0.066-0.184,0.092c-0.142,0.117-0.268,0.252-0.376,0.401l-7.909,10.51l-12.942-17.206
		c-0.109-0.143-0.233-0.293-0.376-0.393c-0.034-0.034-0.135-0.101-0.184-0.101c-0.034,0-0.135,0.066-0.167,0.092
		c-0.135,0.108-0.269,0.259-0.369,0.401l-10.282,13.669L496.895,530.229z"/>
</g>
</svg>
