<?xml version="1.0" encoding="utf-8"?>
<!-- Generator: Adobe Illustrator 15.1.0, SVG Export Plug-In . SVG Version: 6.00 Build 0)  -->
<!DOCTYPE svg PUBLIC "-//W3C//DTD SVG 1.0//EN" "http://www.w3.org/TR/2001/REC-SVG-20010904/DTD/svg10.dtd">
<svg version="1.0" id="Layer_1" xmlns="http://www.w3.org/2000/svg" xmlns:xlink="http://www.w3.org/1999/xlink" x="0px" y="0px"
	 width="800px" height="800px" viewBox="186.72598266601562 221.0709991455078 422.2709655761719 379.052978515625" enable-background="new 0 0 800 800" xml:space="preserve">
<g>
	<!-- <path fill="#BCC2C6" d="M202.98,221.071h389.754c4.481,0,8.545,1.831,11.488,4.774v0.017c2.942,2.943,4.773,7.006,4.773,11.462
		v346.548c0,4.463-1.831,8.526-4.773,11.462v0.024c-2.943,2.942-7.007,4.766-11.488,4.766H202.98c-4.481,0-8.545-1.823-11.488-4.766
		v-0.024c-2.942-2.936-4.766-6.999-4.766-11.462V237.324c0-4.456,1.823-8.52,4.766-11.462v-0.017
		C194.436,222.902,198.499,221.071,202.98,221.071"/> -->
	<!-- <path fill="#EBEFF0" d="M603.102,237.324v346.548c0,6.521-4.548,10.358-10.367,10.358H202.98c-5.803,0-10.359-3.722-10.359-10.358
		V237.324c0-6.755,4.573-10.351,10.359-10.351h389.754C598.536,226.974,603.102,230.686,603.102,237.324"/> -->
	<path fill="#BCC2C6" d="M200.84,268.677h394.043c3.889,0,7.416,1.588,9.975,4.146c2.551,2.559,4.139,6.086,4.139,9.966v303.222
		c0,3.896-1.588,7.424-4.139,9.975c-2.559,2.558-6.086,4.138-9.975,4.138H200.84c-3.888,0-7.416-1.58-9.975-4.138
		c-2.55-2.551-4.139-6.078-4.139-9.975V282.79c0-3.88,1.589-7.408,4.139-9.966C193.424,270.265,196.952,268.677,200.84,268.677"/>
	<path fill-rule="evenodd" clip-rule="evenodd" fill="#FFFFFF" d="M200.84,274.579c-2.191,0-4.265,0.869-5.803,2.417
		c-1.546,1.546-2.416,3.62-2.416,5.794v303.222c0,2.19,0.87,4.264,2.416,5.802c1.538,1.548,3.611,2.417,5.803,2.417h394.043
		c2.183,0,4.256-0.869,5.795-2.417c1.546-1.538,2.424-3.611,2.424-5.802V282.79c0-2.182-0.878-4.248-2.424-5.794
		c-1.539-1.547-3.612-2.417-5.795-2.417H200.84z"/>
	<!-- <path fill-rule="evenodd" clip-rule="evenodd" fill="#94A4A5" d="M544.176,241.103c4.147,0,7.509,3.361,7.509,7.508
		c0,4.147-3.361,7.508-7.509,7.508c-4.146,0-7.508-3.361-7.508-7.508C536.668,244.464,540.029,241.103,544.176,241.103
		 M567.762,241.103c4.146,0,7.516,3.361,7.516,7.508c0,4.147-3.369,7.508-7.516,7.508c-4.155,0-7.517-3.361-7.517-7.508
		C560.245,244.464,563.614,241.103,567.762,241.103z M520.582,241.103c4.147,0,7.509,3.361,7.509,7.508
		c0,4.147-3.361,7.508-7.509,7.508c-4.146,0-7.508-3.361-7.508-7.508C513.074,244.464,516.436,241.103,520.582,241.103z"/> -->
	<!-- <path fill-rule="evenodd" clip-rule="evenodd" fill="#94A4A5" d="M449.953,253.41h-8.445v-3.403h8.144v-2.642h-8.144v-3.486h8.445
		v-2.75h-11.271c0,5.025,0,10.058,0,15.074h11.271V253.41z M423.825,241.128v15.074h10.576v-2.625h-7.741v-12.449H423.825z
		 M418.182,252.356c-0.986,0.987-2.475,1.521-3.778,1.521c-3.729,0-5.167-2.6-5.185-5.1c-0.025-2.508,1.547-5.217,5.185-5.217
		c1.304,0,2.642,0.452,3.628,1.413l1.89-1.822c-1.539-1.53-3.479-2.299-5.518-2.299c-5.443,0-8.001,3.996-7.976,7.926
		c0.016,3.913,2.382,7.767,7.976,7.767c2.174,0,4.163-0.71,5.719-2.231L418.182,252.356z M401.862,256.202v-15.074h-2.826v15.074
		H401.862z M387.365,256.202h2.834v-12.491h4.773v-2.583c-4.364,0-8.043,0-12.391,0v2.583h4.783V256.202z M373.144,243.779
		c1.781,0,2.583,1.204,2.583,2.416s-0.777,2.416-2.583,2.416h-4.323v-4.832H373.144z M379.313,256.002l-4.557-5.134
		c2.859-0.585,3.805-2.667,3.805-4.74c0-2.617-1.873-4.975-5.418-5c-2.383,0.025-4.774,0-7.165,0v15.074h2.842v-5.033h2.727
		l4.389,5.033h3.378V256.002z M356.865,250.718h-5.594l2.793-6.421L356.865,250.718z M359.273,256.202h3.093l-6.756-15.074h-3.092
		l-6.756,15.074h3.076l1.288-2.842h7.875L359.273,256.202z"/> -->
	<rect x="226.164" y="303.306" fill-rule="evenodd" clip-rule="evenodd" fill="#364A5E" width="343.395" height="119.732"/>
	<rect x="232.059" y="309.2" fill="#3EA3DB" width="331.598" height="107.944"/>
	<path opacity="0.15" fill="#010101" d="M331.684,347.835c-1.204-1.204-2.859-1.94-4.699-1.94c-1.831,0-3.494,0.736-4.69,1.94
		c-1.195,1.195-1.94,2.859-1.94,4.69s0.745,3.486,1.949,4.69c1.195,1.204,2.859,1.939,4.682,1.939c1.84,0,3.495-0.736,4.699-1.931
		c1.203-1.204,1.939-2.867,1.939-4.698S332.887,349.03,331.684,347.835 M326.984,340.427c3.344,0,6.354,1.354,8.554,3.545
		l0.007,0.008c2.191,2.19,3.546,5.208,3.546,8.545c0,3.335-1.354,6.354-3.546,8.544l-0.007,0.008
		c-2.199,2.191-5.21,3.545-8.554,3.545c-3.336,0-6.362-1.354-8.544-3.545c-2.191-2.19-3.554-5.217-3.554-8.552
		c0-3.336,1.354-6.354,3.554-8.545v-0.008C320.631,341.781,323.657,340.427,326.984,340.427z M321.199,370.091L321.199,370.091
		l0.083,0.108l1.53,2.04l-0.025,0.017l9.181,12.482c0.669,0.886,0.936,1.79,0.936,2.642l0,0c0,0.669-0.167,1.279-0.468,1.814
		c-0.268,0.501-0.651,0.928-1.112,1.262c-0.752,0.552-1.73,0.853-2.7,0.853l0,0h-23.092h-44.194c-1.07,0-1.989-0.301-2.7-0.836
		c-0.493-0.352-0.878-0.82-1.154-1.363h-0.008c-0.26-0.51-0.402-1.095-0.393-1.722h-0.01c0-0.911,0.318-1.881,0.996-2.818
		l9.674-13.142l-0.01-0.017l0.879-1.17l0.117-0.15l0.016-0.025l11.956-15.894c0.418-0.56,0.886-1.02,1.371-1.388
		c0.937-0.702,1.956-1.053,3.019-1.045c1.062,0.008,2.065,0.359,2.984,1.045c0.484,0.368,0.953,0.836,1.371,1.388l11.412,15.183
		l5.526-7.349c0.419-0.56,0.869-1.02,1.362-1.388c0.912-0.694,1.933-1.045,3.002-1.045c1.054,0,2.073,0.343,3.001,1.037
		c0.485,0.368,0.945,0.836,1.364,1.396l6.068,8.06L321.199,370.091z M326.031,385.858l-9.23-12.549l-0.393-0.527l-5.643-7.508
		l-0.018-0.017l-0.017,0.017l-6.379,8.478l-1.321,1.755l-2.174,2.901l-2.182-2.901l-1.32-1.755l-12.274-16.312l-0.008-0.017
		l-0.018,0.017l-11.597,15.409l-0.333,0.468l-9.231,12.541l41.637,0.017L326.031,385.858z"/>
	<path fill="#364A5E" d="M325.287,335.026c3.336,0,6.354,1.354,8.553,3.536v0.008c2.191,2.191,3.545,5.218,3.545,8.545
		c0,3.336-1.354,6.362-3.545,8.544v0.017c-2.198,2.19-5.217,3.544-8.553,3.544s-6.362-1.354-8.553-3.544
		c-2.19-2.191-3.545-5.217-3.545-8.562c0-3.327,1.354-6.354,3.545-8.545l0.009-0.008
		C318.934,336.381,321.951,335.026,325.287,335.026 M319.493,364.689v-0.008l0.083,0.109l1.539,2.04l-0.025,0.017l9.181,12.491
		c0.66,0.886,0.937,1.789,0.937,2.642h-0.009c0,0.668-0.168,1.271-0.46,1.806c-0.275,0.502-0.66,0.928-1.111,1.263
		c-0.753,0.56-1.731,0.861-2.709,0.861V385.9l-23.084,0.008l-44.202-0.008c-1.063,0-1.99-0.301-2.692-0.828
		c-0.502-0.36-0.887-0.819-1.153-1.363h-0.017c-0.252-0.519-0.394-1.095-0.385-1.73h-0.017c0-0.903,0.317-1.873,1.003-2.809
		l9.665-13.143v-0.017l0.878-1.179l0.108-0.142l0,0l0.017-0.025l11.955-15.893c0.427-0.561,0.887-1.028,1.371-1.396
		c0.937-0.703,1.957-1.045,3.027-1.045c1.053,0.009,2.057,0.368,2.977,1.054c0.484,0.36,0.952,0.828,1.371,1.388l11.411,15.174
		l5.526-7.34c0.419-0.561,0.878-1.028,1.371-1.396c0.912-0.686,1.924-1.037,2.994-1.037c1.053,0,2.073,0.335,3.001,1.037
		c0.494,0.368,0.945,0.836,1.371,1.396l6.062,8.051L319.493,364.689z"/>
	<path fill-rule="evenodd" clip-rule="evenodd" fill="#54CAF2" d="M325.287,339.433c-2.049,0-3.979,0.803-5.477,2.299l0.034-0.025
		c-1.455,1.446-2.241,3.37-2.241,5.409c0,2.057,0.803,3.996,2.241,5.443c1.455,1.446,3.394,2.249,5.442,2.249
		s3.979-0.802,5.477-2.291l-0.034,0.017c1.456-1.438,2.249-3.36,2.249-5.417c0-2.04-0.793-3.963-2.215-5.384l-0.051-0.05
		C329.267,340.235,327.336,339.433,325.287,339.433 M260.141,381.495h43.693h22.548l-10.35-14.079l-6.138-8.16
		c-0.149-0.184-0.316-0.376-0.5-0.519c-0.085-0.067-0.218-0.159-0.344-0.159c-0.125,0-0.259,0.092-0.358,0.159
		c-0.185,0.142-0.353,0.334-0.485,0.519l-9.056,12.031l-14.939-19.865c-0.134-0.192-0.301-0.376-0.485-0.51
		c-0.1-0.075-0.234-0.167-0.359-0.167c-0.126,0-0.259,0.083-0.343,0.159c-0.191,0.142-0.359,0.326-0.501,0.518L270.5,367.416
		L260.141,381.495z"/>
	<path fill-rule="evenodd" clip-rule="evenodd" fill="#364A5E" d="M378.787,339.407h161.409c2.174,0,3.946,1.772,3.946,3.946l0,0
		c0,2.174-1.772,3.947-3.946,3.947H378.787c-2.166,0-3.938-1.773-3.938-3.947l0,0C374.849,341.18,376.621,339.407,378.787,339.407"
		/>
	<path fill-rule="evenodd" clip-rule="evenodd" fill="#364A5E" d="M378.787,359.23h161.409c2.174,0,3.946,1.772,3.946,3.938l0,0
		c0,2.174-1.772,3.946-3.946,3.946H378.787c-2.166,0-3.938-1.772-3.938-3.946l0,0C374.849,361.003,376.621,359.23,378.787,359.23"/>
	<path fill-rule="evenodd" clip-rule="evenodd" fill="#364A5E" d="M378.787,379.053h76.767c2.166,0,3.938,1.764,3.938,3.938l0,0
		c0,2.166-1.771,3.938-3.938,3.938h-76.767c-2.166,0-3.938-1.773-3.938-3.938l0,0C374.849,380.817,376.621,379.053,378.787,379.053"
		/>
	<path fill-rule="evenodd" clip-rule="evenodd" fill="#BCC2C6" d="M231.975,462.801H563.74c2.174,0,3.946,1.772,3.946,3.938v0.008
		c0,2.166-1.772,3.938-3.946,3.938H231.975c-2.174,0-3.946-1.772-3.946-3.938v-0.008
		C228.028,464.573,229.801,462.801,231.975,462.801"/>
	<path fill-rule="evenodd" clip-rule="evenodd" fill="#BCC2C6" d="M231.975,482.624H563.74c2.174,0,3.946,1.772,3.946,3.938v0.009
		c0,2.158-1.772,3.938-3.946,3.938H231.975c-2.174,0-3.946-1.779-3.946-3.938v-0.009
		C228.028,484.396,229.801,482.624,231.975,482.624"/>
	<path fill-rule="evenodd" clip-rule="evenodd" fill="#BCC2C6" d="M231.975,502.439H563.74c2.174,0,3.946,1.772,3.946,3.946
		c0,2.165-1.772,3.946-3.946,3.946H231.975c-2.174,0-3.946-1.781-3.946-3.946C228.028,504.212,229.801,502.439,231.975,502.439"/>
	<path fill-rule="evenodd" clip-rule="evenodd" fill="#BCC2C6" d="M231.975,522.254H563.74c2.174,0,3.946,1.78,3.946,3.946
		c0,2.174-1.772,3.946-3.946,3.946H231.975c-2.174,0-3.946-1.772-3.946-3.946C228.028,524.034,229.801,522.254,231.975,522.254"/>
	<path fill-rule="evenodd" clip-rule="evenodd" fill="#BCC2C6" d="M231.975,542.085H563.74c2.174,0,3.946,1.772,3.946,3.938
		c0,2.166-1.772,3.938-3.946,3.938H231.975c-2.174,0-3.946-1.772-3.946-3.938C228.028,543.857,229.801,542.085,231.975,542.085"/>
	<path fill-rule="evenodd" clip-rule="evenodd" fill="#BCC2C6" d="M289.254,561.899h217.208c2.165,0,3.938,1.772,3.938,3.946
		c0,2.165-1.772,3.946-3.938,3.946H289.254c-2.166,0-3.939-1.781-3.939-3.946C285.314,563.672,287.088,561.899,289.254,561.899"/>
	<path fill-rule="evenodd" clip-rule="evenodd" fill="#BCC2C6" d="M289.254,443.079h217.208c2.165,0,3.938,1.772,3.938,3.938v0.009
		c0,2.165-1.772,3.938-3.938,3.938H289.254c-2.166,0-3.939-1.772-3.939-3.938v-0.009
		C285.314,444.852,287.088,443.079,289.254,443.079"/>
</g>
</svg>
