<?xml version="1.0" encoding="utf-8"?>
<!-- Generator: Adobe Illustrator 15.1.0, SVG Export Plug-In . SVG Version: 6.00 Build 0)  -->
<!DOCTYPE svg PUBLIC "-//W3C//DTD SVG 1.0//EN" "http://www.w3.org/TR/2001/REC-SVG-20010904/DTD/svg10.dtd">
<svg version="1.0" id="Layer_1" xmlns="http://www.w3.org/2000/svg" xmlns:xlink="http://www.w3.org/1999/xlink" x="0px" y="0px"
	 width="800px" height="800px" viewBox="186.31399536132812 191.99400329589844 421.4640197753906 378.32000732421875" enable-background="new 0 0 800 800" xml:space="preserve">
<g>
	<!-- <path fill="#BCC2C6" d="M202.543,191.994h389.004c4.463,0,8.527,1.827,11.465,4.765v0.016c2.938,2.946,4.766,6.993,4.766,11.449
		v345.868c0,4.456-1.828,8.512-4.766,11.449v0.017c-2.938,2.938-7.002,4.756-11.465,4.756H202.543
		c-4.471,0-8.527-1.818-11.465-4.756v-0.017c-2.936-2.938-4.764-6.993-4.764-11.449V208.224c0-4.456,1.828-8.503,4.764-11.449
		v-0.016C194.016,193.821,198.072,191.994,202.543,191.994"/>
	<path fill="#EBEFF0" d="M601.885,208.224v345.868c0,6.509-4.539,10.331-10.338,10.331H202.543c-5.789,0-10.338-3.705-10.338-10.331
		V208.224c0-6.751,4.566-10.339,10.338-10.339h389.004C597.338,197.884,601.885,201.598,601.885,208.224"/> -->
	<path fill="#BCC2C6" d="M200.399,239.515h393.292c3.88,0,7.4,1.578,9.947,4.13c2.551,2.554,4.139,6.075,4.139,9.956v302.629
		c0,3.888-1.588,7.409-4.139,9.946c-2.547,2.552-6.067,4.138-9.947,4.138H200.399c-3.871,0-7.4-1.586-9.946-4.138
		c-2.553-2.537-4.139-6.059-4.139-9.946V253.601c0-3.88,1.586-7.402,4.139-9.956C192.999,241.092,196.528,239.515,200.399,239.515"
		/>
	<path fill-rule="evenodd" clip-rule="evenodd" fill="#FFFFFF" d="M200.399,245.397c-2.177,0-4.247,0.876-5.79,2.412
		c-1.535,1.544-2.412,3.613-2.412,5.792v302.629c0,2.169,0.877,4.256,2.412,5.791c1.543,1.533,3.613,2.402,5.79,2.402h393.292
		c2.178,0,4.247-0.869,5.783-2.402c1.543-1.535,2.41-3.605,2.41-5.791V253.601c0-2.187-0.867-4.248-2.41-5.792
		c-1.536-1.543-3.613-2.412-5.783-2.412H200.399z"/>
	<!-- <path fill-rule="evenodd" clip-rule="evenodd" fill="#94A4A5" d="M543.074,211.987c4.139,0,7.5,3.354,7.5,7.493
		s-3.354,7.502-7.5,7.502c-4.141,0-7.494-3.363-7.494-7.502S538.934,211.987,543.074,211.987 M566.621,211.987
		c4.141,0,7.494,3.354,7.494,7.493s-3.354,7.502-7.494,7.502c-4.139,0-7.501-3.363-7.501-7.502S562.482,211.987,566.621,211.987z
		 M519.533,211.987c4.14,0,7.493,3.354,7.493,7.493s-3.354,7.502-7.493,7.502c-4.139,0-7.502-3.363-7.502-7.502
		S515.395,211.987,519.533,211.987z"/> -->
	<path fill="#BCC2C6" d="M428.096,515.028H369.2c-2.261,0-4.321,0.934-5.815,2.437c-1.503,1.484-2.43,3.555-2.43,5.807l0,0
		c0,2.271,0.927,4.34,2.411,5.825l0.019,0.016c1.484,1.486,3.537,2.404,5.815,2.404h58.896c2.262,0,4.321-0.936,5.815-2.42
		c1.494-1.502,2.419-3.554,2.419-5.825l0,0c0-2.269-0.925-4.322-2.41-5.823C432.427,515.962,430.357,515.028,428.096,515.028
		 M369.2,506.967h58.896c4.473,0,8.552,1.836,11.506,4.79l0.009,0.016c2.963,2.955,4.79,7.026,4.79,11.499l0,0
		c0,4.49-1.827,8.579-4.79,11.533c-2.953,2.953-7.026,4.789-11.515,4.789H369.2c-4.474,0-8.546-1.836-11.507-4.789l-0.008-0.017
		h-0.01c-2.953-2.971-4.789-7.044-4.789-11.517l0,0c0-4.488,1.836-8.561,4.789-11.515
		C360.631,508.803,364.711,506.967,369.2,506.967z"/>
	<path fill="#34495E" d="M365.996,500.291h58.895c4.48,0,8.553,1.837,11.506,4.79l0.018,0.017c2.955,2.954,4.791,7.043,4.791,11.516
		l0,0c0,4.489-1.836,8.562-4.791,11.517c-2.955,2.953-7.033,4.788-11.523,4.788h-58.895c-4.473,0-8.546-1.835-11.508-4.788h-0.007
		l-0.01-0.019c-2.953-2.953-4.789-7.025-4.789-11.498l0,0c0-4.489,1.836-8.578,4.789-11.532
		C357.427,502.128,361.506,500.291,365.996,500.291"/>
	<path fill="#27CABF" d="M424.891,505.147c3.037,0,5.949,1.219,8.103,3.354c2.146,2.152,3.354,5.074,3.354,8.111
		s-1.219,5.941-3.363,8.095c-2.152,2.152-5.047,3.354-8.094,3.354h-58.895c-3.037,0-5.939-1.185-8.094-3.339l-0.008-0.016
		c-2.154-2.153-3.355-5.058-3.355-8.095s1.219-5.941,3.363-8.095c2.154-2.152,5.047-3.371,8.094-3.371H424.891z"/>
	<path fill="#51F4E9" d="M424.891,505.147c3.037,0,5.949,1.219,8.103,3.354c2.146,2.152,3.354,5.074,3.354,8.111
		c0,0.785-0.083,1.553-0.233,2.304c-0.45-2.188-1.525-4.189-3.121-5.792c-2.153-2.152-5.065-3.354-8.103-3.354h-58.895
		c-3.047,0-5.939,1.219-8.094,3.371c-1.595,1.586-2.679,3.605-3.131,5.775c-0.149-0.751-0.232-1.519-0.232-2.304
		c0-3.037,1.219-5.941,3.363-8.095c2.154-2.152,5.047-3.371,8.094-3.371H424.891z"/>
	<path fill-rule="evenodd" clip-rule="evenodd" fill="#BCC2C6" d="M275.969,453.513h242.155c2.161,0,3.931,1.769,3.931,3.938
		s-1.77,3.938-3.931,3.938H275.969c-2.162,0-3.931-1.769-3.931-3.938S273.807,453.513,275.969,453.513"/>
	<path fill-rule="evenodd" clip-rule="evenodd" fill="#BCC2C6" d="M338.475,473.289h117.141c2.162,0,3.939,1.768,3.939,3.938
		s-1.777,3.939-3.939,3.939H338.475c-2.169,0-3.937-1.77-3.937-3.939S336.306,473.289,338.475,473.289"/>
	<path fill-rule="evenodd" clip-rule="evenodd" fill="#34495E" d="M438.074,353.546l13.102-17.923v17.923H438.074z M447.256,329.314
		l-17.417,23.898l0.659,7.41h20.678v7.343h7.193v-7.343h4.531v-7.077h-4.531v-24.232H447.256z M379.981,351.394
		c0,23.114,33.962,23.047,33.962,0v-5.591c0-23.064-33.962-23.114-33.962,0V351.394z M387.232,345.802
		c0-13.985,19.459-13.835,19.459,0v5.591c0,14.035-19.459,14.035-19.459,0V345.802z M339.428,353.546l13.102-17.923v17.923H339.428z
		 M348.607,329.314l-17.425,23.898l0.667,7.41h20.68v7.343h7.191v-7.343h4.531v-7.077h-4.531v-24.232H348.607z"/>
	<!-- <path fill-rule="evenodd" clip-rule="evenodd" fill="#94A4A5" d="M415.004,221.649l5.74-7.844v7.844H415.004z M419.025,211.043
		l-7.627,10.456l0.292,3.247h9.054v3.221h3.146v-3.221h1.985v-3.096h-1.985v-10.606H419.025z M389.577,220.707
		c0,10.113,14.862,10.088,14.862,0v-2.445c0-10.097-14.862-10.121-14.862,0V220.707z M392.748,218.261c0-6.125,8.52-6.058,8.52,0
		v2.445c0,6.15-8.52,6.15-8.52,0V218.261z M371.819,221.649l5.742-7.844v7.844H371.819z M375.842,211.043l-7.627,10.456l0.293,3.247
		h9.054v3.221h3.146v-3.221h1.986v-3.096h-1.986v-10.606H375.842z"/> -->
</g>
</svg>
