<?xml version="1.0" encoding="utf-8"?>
<!-- Generator: Adobe Illustrator 15.1.0, SVG Export Plug-In . SVG Version: 6.00 Build 0)  -->
<!DOCTYPE svg PUBLIC "-//W3C//DTD SVG 1.0//EN" "http://www.w3.org/TR/2001/REC-SVG-20010904/DTD/svg10.dtd">
<svg version="1.0" id="Layer_1" xmlns="http://www.w3.org/2000/svg" xmlns:xlink="http://www.w3.org/1999/xlink" x="0px" y="0px"
	 width="800px" height="800px" viewBox="194.38803100585938 191.99400329589844 421.4620056152344 378.32904052734375" enable-background="new 0 0 800 800" xml:space="preserve">
<g>
	<!-- <path fill="#BCC2C6" d="M210.619,191.994h389.01c4.455,0,8.52,1.827,11.455,4.765v0.016c2.938,2.946,4.766,6.993,4.766,11.449
		v345.868c0,4.456-1.828,8.512-4.766,11.449v0.017c-2.936,2.938-7,4.765-11.455,4.765h-389.01c-4.465,0-8.529-1.827-11.457-4.765
		v-0.017c-2.938-2.938-4.773-6.993-4.773-11.449V208.224c0-4.456,1.836-8.503,4.773-11.449v-0.016
		C202.089,193.821,206.154,191.994,210.619,191.994"/>
	<path fill="#EBEFF0" d="M609.959,208.224v345.868c0,6.518-4.541,10.348-10.33,10.348h-389.01c-5.792,0-10.338-3.722-10.338-10.348
		V208.224c0-6.751,4.571-10.339,10.338-10.339h389.01C605.418,197.884,609.959,201.598,609.959,208.224"/> -->
	<path fill="#BCC2C6" d="M208.474,239.515h393.29c3.879,0,7.402,1.586,9.945,4.13c2.555,2.554,4.141,6.075,4.141,9.956v302.637
		c0,3.88-1.586,7.401-4.141,9.947c-2.543,2.552-6.066,4.138-9.945,4.138h-393.29c-3.873,0-7.395-1.586-9.948-4.138
		c-2.554-2.546-4.138-6.067-4.138-9.947V253.601c0-3.88,1.584-7.402,4.138-9.956C201.08,241.101,204.601,239.515,208.474,239.515"/>
	<path fill-rule="evenodd" clip-rule="evenodd" fill="#FFFFFF" d="M208.474,245.397c-2.179,0-4.241,0.868-5.782,2.412
		c-1.546,1.544-2.411,3.613-2.411,5.792v302.637c0,2.178,0.865,4.248,2.411,5.79c1.541,1.535,3.604,2.412,5.782,2.412h393.29
		c2.186,0,4.248-0.877,5.791-2.412c1.535-1.542,2.404-3.604,2.404-5.79V253.601c0-2.187-0.869-4.248-2.404-5.792
		c-1.543-1.543-3.621-2.412-5.791-2.412H208.474z"/>
	<!-- <path fill-rule="evenodd" clip-rule="evenodd" fill="#94A4A5" d="M551.146,211.987c4.139,0,7.502,3.354,7.502,7.493
		s-3.363,7.493-7.502,7.493s-7.492-3.354-7.492-7.493S547.008,211.987,551.146,211.987 M574.695,211.987
		c4.137,0,7.492,3.354,7.492,7.493s-3.355,7.493-7.492,7.493c-4.139,0-7.494-3.354-7.494-7.493S570.557,211.987,574.695,211.987z
		 M527.607,211.987c4.139,0,7.5,3.354,7.5,7.493s-3.361,7.493-7.5,7.493c-4.141,0-7.502-3.354-7.502-7.493
		S523.477,211.987,527.607,211.987z"/> -->
	<rect x="235.751" y="274.419" fill-rule="evenodd" clip-rule="evenodd" fill="#34495E" width="140.111" height="119.501"/>
	<rect x="241.635" y="280.303" fill="#22A6EF" width="128.336" height="107.735"/>
	<path fill-rule="evenodd" clip-rule="evenodd" fill="#BCC2C6" d="M239.682,438.271h326.943c2.162,0,3.932,1.77,3.932,3.93
		c0,2.17-1.77,3.939-3.932,3.939H239.682c-2.162,0-3.931-1.77-3.931-3.939C235.751,440.041,237.52,438.271,239.682,438.271"/>
	<path fill-rule="evenodd" clip-rule="evenodd" fill="#BCC2C6" d="M239.682,458.047h326.943c2.162,0,3.932,1.778,3.932,3.94
		c0,2.169-1.77,3.938-3.932,3.938H239.682c-2.162,0-3.931-1.769-3.931-3.938C235.751,459.825,237.52,458.047,239.682,458.047"/>
	<path fill-rule="evenodd" clip-rule="evenodd" fill="#BCC2C6" d="M239.682,477.832h159.529c2.169,0,3.939,1.77,3.939,3.939
		c0,2.161-1.77,3.93-3.939,3.93H239.682c-2.162,0-3.931-1.769-3.931-3.93C235.751,479.602,237.52,477.832,239.682,477.832"/>
	<path fill-rule="evenodd" clip-rule="evenodd" fill="#34495E" d="M239.682,418.486h159.537c2.162,0,3.931,1.77,3.931,3.939l0,0
		c0,2.161-1.77,3.938-3.931,3.938H239.682c-2.17,0-3.931-1.777-3.931-3.938l0,0C235.751,420.256,237.512,418.486,239.682,418.486"/>
	<path opacity="0.15" d="M340.198,318.863c-1.2-1.194-2.853-1.937-4.688-1.937s-3.487,0.743-4.69,1.937
		c-1.191,1.192-1.935,2.853-1.935,4.689c0,1.828,0.75,3.479,1.943,4.682c1.194,1.193,2.854,1.936,4.682,1.936
		c1.836,0,3.488-0.743,4.688-1.936c1.187-1.193,1.938-2.854,1.938-4.682C342.135,321.716,341.384,320.055,340.198,318.863
		 M335.509,311.469c3.33,0,6.342,1.352,8.529,3.539l0.016,0.008c2.178,2.186,3.53,5.207,3.53,8.536c0,3.321-1.353,6.342-3.53,8.528
		l-0.016,0.008c-2.188,2.186-5.199,3.538-8.529,3.538c-3.338,0-6.358-1.352-8.545-3.538c-2.186-2.187-3.537-5.208-3.537-8.537
		s1.352-6.35,3.537-8.536l0.017-0.008C329.167,312.821,332.179,311.469,335.509,311.469z M329.727,341.075L329.727,341.075
		l0.074,0.108l1.535,2.036l-0.016,0.017l9.162,12.458c0.659,0.894,0.935,1.795,0.935,2.646h-0.009c0,0.667-0.168,1.277-0.459,1.803
		c-0.276,0.5-0.65,0.926-1.118,1.259c-0.752,0.559-1.719,0.86-2.694,0.86v-0.008l-23.039,0.008l-44.11-0.008
		c-1.067,0-1.985-0.3-2.702-0.826c-0.485-0.359-0.876-0.818-1.152-1.36h-0.009c-0.257-0.518-0.391-1.102-0.391-1.728h-0.01
		c0-0.901,0.317-1.877,0.994-2.803l9.662-13.126l-0.016-0.017l0.883-1.168l0.109-0.15v0.008l0.017-0.025l11.94-15.862
		c0.418-0.559,0.878-1.027,1.37-1.394c0.933-0.701,1.952-1.043,3.002-1.043c1.052,0.008,2.07,0.359,2.979,1.043
		c0.492,0.367,0.943,0.834,1.36,1.394l11.398,15.145l5.508-7.327c0.418-0.559,0.883-1.026,1.368-1.385
		c0.917-0.693,1.936-1.043,2.988-1.052c1.059,0,2.068,0.343,3.004,1.043c0.482,0.368,0.95,0.834,1.368,1.394l6.049,8.036
		L329.727,341.075z M334.559,356.821l-9.221-12.525l-0.393-0.534l-5.633-7.485l-0.009-0.025l-0.016,0.025l-6.377,8.461l-1.31,1.752
		l-2.178,2.895l-2.168-2.895l-1.32-1.752l-12.25-16.281l-0.017-0.025l-0.007,0.025l-11.574,15.379l-0.344,0.458l-9.202,12.525
		l41.556,0.009L334.559,356.821z"/>
	<path fill="#34495E" d="M333.807,306.079c3.33,0,6.343,1.352,8.528,3.538l0.017,0.009c2.186,2.186,3.538,5.199,3.538,8.528
		c0,3.33-1.353,6.342-3.538,8.528l-0.017,0.017c-2.186,2.178-5.198,3.53-8.528,3.53c-3.329,0-6.351-1.352-8.536-3.53
		c-2.186-2.186-3.54-5.207-3.54-8.545c0-3.329,1.354-6.342,3.54-8.528l0.008-0.009C327.466,307.431,330.487,306.079,333.807,306.079
		 M328.032,335.685L328.032,335.685l0.076,0.108l1.535,2.036l-0.025,0.017l9.163,12.458c0.658,0.893,0.935,1.793,0.935,2.636h-0.01
		c0.01,0.668-0.157,1.277-0.458,1.811c-0.267,0.501-0.649,0.927-1.109,1.26c-0.76,0.551-1.728,0.859-2.695,0.859v-0.008
		l-23.047,0.008l-44.109-0.008c-1.068,0-1.985-0.301-2.696-0.827c-0.492-0.358-0.875-0.826-1.15-1.368h-0.01
		c-0.257-0.517-0.391-1.094-0.391-1.719h-0.009c0-0.91,0.317-1.878,0.992-2.804l9.655-13.126l-0.009-0.017l0.876-1.168l0.118-0.149
		l0.016-0.026l11.935-15.854c0.416-0.568,0.883-1.035,1.367-1.394c0.934-0.701,1.953-1.052,3.003-1.043
		c1.069,0.008,2.069,0.358,2.988,1.043c0.483,0.367,0.943,0.834,1.361,1.394l11.389,15.145l5.524-7.335
		c0.408-0.551,0.867-1.018,1.352-1.385c0.919-0.692,1.936-1.034,2.996-1.042c1.06,0,2.068,0.342,2.995,1.042
		c0.492,0.368,0.951,0.827,1.367,1.385l6.05,8.044L328.032,335.685z"/>
	<path fill-rule="evenodd" clip-rule="evenodd" fill="#39D4FF" d="M333.807,310.484c-2.035,0-3.971,0.801-5.459,2.287l0.027-0.025
		c-1.445,1.444-2.246,3.363-2.246,5.407c0,2.044,0.801,3.98,2.254,5.433c1.453,1.443,3.379,2.245,5.424,2.245
		c2.044,0,3.973-0.801,5.466-2.295l-0.025,0.025c1.443-1.443,2.236-3.363,2.236-5.407c0-2.044-0.793-3.963-2.211-5.382l-0.043-0.042
		C337.78,311.285,335.851,310.484,333.807,310.484 M268.788,352.457l43.608,0.009l22.513-0.009l-10.338-14.043l-6.126-8.152
		c-0.142-0.184-0.308-0.376-0.492-0.51c-0.1-0.075-0.225-0.158-0.351-0.158c-0.125,0-0.251,0.083-0.351,0.158
		c-0.184,0.134-0.351,0.326-0.492,0.51l-9.037,12.007l-14.902-19.827c-0.143-0.184-0.31-0.367-0.493-0.509
		c-0.101-0.067-0.225-0.159-0.358-0.159c-0.117-0.008-0.251,0.083-0.352,0.159c-0.184,0.133-0.35,0.325-0.482,0.509l-12.009,15.963
		L268.788,352.457z"/>
	<path fill-rule="evenodd" clip-rule="evenodd" fill="#BCC2C6" d="M438.313,300.797h132.244c2.168,0,3.938,1.769,3.938,3.93l0,0
		c0,2.169-1.77,3.939-3.938,3.939H438.313c-2.17,0-3.939-1.77-3.939-3.939l0,0C434.373,302.566,436.143,300.797,438.313,300.797"/>
	<path fill-rule="evenodd" clip-rule="evenodd" fill="#BCC2C6" d="M438.313,320.573h132.244c2.168,0,3.938,1.769,3.938,3.938l0,0
		c0,2.161-1.77,3.93-3.938,3.93H438.313c-2.17,0-3.939-1.77-3.939-3.93l0,0C434.373,322.342,436.143,320.573,438.313,320.573"/>
	<path fill-rule="evenodd" clip-rule="evenodd" fill="#34495E" d="M438.313,281.012h132.244c2.168,0,3.938,1.769,3.938,3.938l0,0
		c0,2.161-1.77,3.931-3.938,3.931H438.313c-2.17,0-3.939-1.77-3.939-3.931l0,0C434.373,282.781,436.143,281.012,438.313,281.012"/>
	<path fill-rule="evenodd" clip-rule="evenodd" fill="#BCC2C6" d="M438.313,340.358h132.244c2.168,0,3.938,1.769,3.938,3.93v0.008
		c0,2.161-1.77,3.931-3.938,3.931H438.313c-2.17,0-3.939-1.77-3.939-3.931v-0.008C434.373,342.126,436.143,340.358,438.313,340.358"
		/>
	<path fill-rule="evenodd" clip-rule="evenodd" fill="#BCC2C6" d="M438.313,360.134h132.244c2.168,0,3.938,1.77,3.938,3.939
		c0,2.161-1.77,3.939-3.938,3.939H438.313c-2.17,0-3.939-1.778-3.939-3.939C434.373,361.903,436.143,360.134,438.313,360.134"/>
	<path fill-rule="evenodd" clip-rule="evenodd" fill="#BCC2C6" d="M438.313,379.919h132.244c2.168,0,3.938,1.769,3.938,3.938
		c0,2.162-1.77,3.93-3.938,3.93H438.313c-2.17,0-3.939-1.769-3.939-3.93C434.373,381.688,436.143,379.919,438.313,379.919"/>
	<!-- <path fill-rule="evenodd" clip-rule="evenodd" fill="#94A4A5" d="M437.553,225.788h2.387v-10.497h4.014v-2.169
		c-3.67,0-6.758,0-10.414,0v2.169h4.014V225.788z M426.33,213.163v7.243c0,2.161-1.119,3.479-3.088,3.479s-3.27-1.21-3.27-3.479
		v-7.243h-2.363v7.243c0,3.805,2.578,5.649,5.617,5.649c3.18,0,5.473-1.912,5.473-5.649v-7.243H426.33z M406.113,215.057
		c2.979,0,4.18,2.387,4.137,4.515c-0.041,2.077-1.158,4.313-4.137,4.313c-2.98,0-4.098-2.219-4.148-4.297
		C401.906,217.46,403.133,215.057,406.113,215.057z M406.113,212.888c-4.365,0-6.501,3.347-6.501,6.667
		c0,3.321,2.06,6.517,6.501,6.517c4.445,0,6.449-3.271,6.48-6.533C412.627,216.234,410.469,212.888,406.113,212.888z
		 M390.299,213.122c-2.003,0-4.006,0-5.991,0v12.667c2.001,0,3.988,0,5.991,0c2.621,0,4.74-0.91,4.74-3.721
		c0-0.801-0.543-2.37-2.027-2.821c1.177-0.526,1.643-1.469,1.643-2.445C394.655,214.248,392.803,213.122,390.299,213.122z
		 M386.662,215.291h3.638c1.52,0,1.986,0.984,1.986,1.561c0,0.734-0.484,1.368-1.986,1.368h-3.638V215.291z M386.662,220.314h3.638
		c0.984,0,2.37,0.592,2.37,1.735c0,1.185-1.386,1.511-2.37,1.511h-3.638V220.314z M375.613,221.183h-4.688l2.335-5.399
		L375.613,221.183z M377.632,225.788h2.604l-5.675-12.667h-2.594l-5.666,12.667h2.577l1.084-2.386h6.61L377.632,225.788z"/> -->
</g>
</svg>
