<?xml version="1.0" encoding="utf-8"?>
<!-- Generator: Adobe Illustrator 15.1.0, SVG Export Plug-In . SVG Version: 6.00 Build 0)  -->
<!DOCTYPE svg PUBLIC "-//W3C//DTD SVG 1.0//EN" "http://www.w3.org/TR/2001/REC-SVG-20010904/DTD/svg10.dtd">
<svg version="1.0" id="Layer_1" xmlns="http://www.w3.org/2000/svg" xmlns:xlink="http://www.w3.org/1999/xlink" x="0px" y="0px"
	 width="800px" height="800px" viewBox="183.43099975585938 191.99400329589844 421.4620666503906 378.32904052734375" enable-background="new 0 0 800 800" xml:space="preserve">
<g>
	<!-- <path fill="#BCC2C6" d="M199.661,191.994h389.002c4.464,0,8.528,1.827,11.465,4.765v0.016c2.938,2.946,4.765,6.993,4.765,11.449
		v345.868c0,4.456-1.827,8.512-4.765,11.449v0.017c-2.937,2.938-7.001,4.765-11.465,4.765H199.661
		c-4.473,0-8.528-1.827-11.466-4.765v-0.017c-2.937-2.938-4.764-6.993-4.764-11.449V208.224c0-4.456,1.827-8.503,4.764-11.449
		v-0.016C191.133,193.821,195.188,191.994,199.661,191.994"/>
	<path fill="#EBEFF0" d="M599.002,208.224v345.868c0,6.518-4.539,10.348-10.339,10.348H199.661c-5.79,0-10.339-3.722-10.339-10.348
		V208.224c0-6.751,4.565-10.339,10.339-10.339h389.002C594.453,197.884,599.002,201.598,599.002,208.224"/> -->
	<path fill="#BCC2C6" d="M197.518,239.515h393.29c3.881,0,7.401,1.586,9.946,4.13c2.554,2.554,4.139,6.075,4.139,9.956v302.637
		c0,3.88-1.585,7.401-4.139,9.947c-2.545,2.552-6.065,4.138-9.946,4.138h-393.29c-3.872,0-7.401-1.586-9.947-4.138
		c-2.554-2.546-4.139-6.067-4.139-9.947V253.601c0-3.88,1.585-7.402,4.139-9.956C190.116,241.101,193.646,239.515,197.518,239.515"
		/>
	<path fill-rule="evenodd" clip-rule="evenodd" fill="#FFFFFF" d="M197.518,245.397c-2.178,0-4.247,0.868-5.792,2.412
		c-1.535,1.544-2.412,3.613-2.412,5.792v302.637c0,2.178,0.877,4.248,2.412,5.79c1.545,1.535,3.614,2.412,5.792,2.412h393.29
		c2.177,0,4.247-0.877,5.782-2.412c1.544-1.542,2.412-3.604,2.412-5.79V253.601c0-2.187-0.868-4.248-2.412-5.792
		c-1.535-1.543-3.613-2.412-5.782-2.412H197.518z"/>
	<!-- <path fill-rule="evenodd" clip-rule="evenodd" fill="#94A4A5" d="M540.19,211.987c4.138,0,7.501,3.354,7.501,7.493
		s-3.354,7.493-7.501,7.493c-4.139,0-7.493-3.354-7.493-7.493S536.052,211.987,540.19,211.987 M563.738,211.987
		c4.139,0,7.493,3.354,7.493,7.493s-3.354,7.493-7.493,7.493c-4.138,0-7.502-3.354-7.502-7.493S559.601,211.987,563.738,211.987z
		 M516.65,211.987c4.14,0,7.494,3.354,7.494,7.493s-3.354,7.493-7.494,7.493s-7.501-3.354-7.501-7.493
		S512.511,211.987,516.65,211.987z"/> -->
	<polygon fill-rule="evenodd" clip-rule="evenodd" fill="#34495E" points="480.854,422.351 480.854,392.677 516.618,392.677
		516.618,457.005 271.708,457.005 271.708,408.757 301.59,408.757 301.59,392.068 331.462,392.068 331.462,361.77 367.227,361.77
		367.227,414.214 391.217,414.214 391.217,338.906 426.98,338.906 426.98,371.658 456.861,371.658 456.861,422.351 	"/>
	<rect x="277.599" y="414.64" fill-rule="evenodd" clip-rule="evenodd" fill="#22A6EF" width="23.991" height="36.482"/>
	<rect x="307.472" y="397.959" fill-rule="evenodd" clip-rule="evenodd" fill="#F65C4C" width="23.99" height="53.163"/>
	<rect x="337.354" y="367.661" fill-rule="evenodd" clip-rule="evenodd" fill="#F29B12" width="23.982" height="83.461"/>
	<rect x="367.227" y="420.105" fill-rule="evenodd" clip-rule="evenodd" fill="#27CABF" width="23.99" height="31.017"/>
	<rect x="397.107" y="344.796" fill-rule="evenodd" clip-rule="evenodd" fill="#22A6EF" width="23.991" height="106.326"/>
	<rect x="426.98" y="377.549" fill-rule="evenodd" clip-rule="evenodd" fill="#F65C4C" width="23.991" height="73.573"/>
	<rect x="456.861" y="428.232" fill-rule="evenodd" clip-rule="evenodd" fill="#F29B12" width="23.992" height="22.89"/>
	<rect x="486.735" y="398.568" fill-rule="evenodd" clip-rule="evenodd" fill="#27CABF" width="23.99" height="52.554"/>
	<path fill-rule="evenodd" clip-rule="evenodd" fill="#BCC2C6" d="M311.277,286.485h165.771c2.161,0,3.93,1.77,3.93,3.939
		c0,2.161-1.769,3.93-3.93,3.93H311.277c-2.161,0-3.931-1.769-3.931-3.93C307.347,288.255,309.116,286.485,311.277,286.485"/>
	<path fill-rule="evenodd" clip-rule="evenodd" fill="#BCC2C6" d="M249.285,511.761h289.752c2.162,0,3.932,1.77,3.932,3.938l0,0
		c0,2.17-1.77,3.932-3.932,3.932H249.285c-2.161,0-3.929-1.762-3.929-3.932l0,0C245.356,513.53,247.124,511.761,249.285,511.761"/>
	<path fill-rule="evenodd" clip-rule="evenodd" fill="#BCC2C6" d="M249.285,531.546h289.752c2.162,0,3.932,1.77,3.932,3.93v0.008
		c0,2.161-1.77,3.932-3.932,3.932H249.285c-2.161,0-3.929-1.771-3.929-3.932v-0.008
		C245.356,533.315,247.124,531.546,249.285,531.546"/>
	<path fill-rule="evenodd" clip-rule="evenodd" fill="#BCC2C6" d="M249.285,491.984h140.938c2.169,0,3.938,1.77,3.938,3.931l0,0
		c0,2.169-1.77,3.938-3.938,3.938H249.285c-2.161,0-3.929-1.77-3.929-3.938l0,0C245.356,493.754,247.124,491.984,249.285,491.984"/>
	<path fill-rule="evenodd" clip-rule="evenodd" fill="#34495E" d="M244.137,457.005h300.042c1.619,0,2.946-1.319,2.946-2.938
		c0-1.627-1.327-2.945-2.946-2.945H244.137c-1.619,0-2.936,1.318-2.936,2.945C241.201,455.686,242.518,457.005,244.137,457.005"/>
	<!-- <path fill-rule="evenodd" clip-rule="evenodd" fill="#94A4A5" d="M458.397,214.891c-1.052-2.137-3.287-2.746-5.44-2.746
		c-2.553,0.016-5.357,1.185-5.357,4.039c0,3.104,2.604,3.855,5.433,4.188c1.845,0.192,3.204,0.734,3.204,2.036
		c0,1.502-1.543,2.078-3.179,2.078c-1.686,0-3.288-0.676-3.897-2.195l-2.178,1.126c1.026,2.537,3.205,3.405,6.032,3.405
		c3.089,0,5.817-1.327,5.817-4.415c0-3.304-2.688-4.055-5.583-4.415c-1.66-0.192-3.087-0.534-3.087-1.735
		c0-1.027,0.934-1.836,2.87-1.836c1.502,0,2.813,0.751,3.288,1.535L458.397,214.891z M442.492,222.926
		c-0.908,0.91-2.27,1.402-3.478,1.402c-3.423,0-4.749-2.395-4.766-4.69c-0.025-2.312,1.428-4.806,4.766-4.806
		c1.208,0,2.435,0.417,3.345,1.31l1.736-1.686c-1.427-1.401-3.204-2.119-5.081-2.119c-5.007,0-7.361,3.68-7.336,7.301
		c0.019,3.605,2.194,7.144,7.336,7.144c1.993,0,3.837-0.651,5.265-2.062L442.492,222.926z M418.761,212.596h-3.103v0.117
		l5.324,8.027v5.725h2.602v-5.725l5.524-8.027v-0.117h-3.146l-3.68,5.732L418.761,212.596z M405.219,226.464h2.611v-11.49h4.39
		v-2.378c-4.014,0-7.402,0-11.398,0v2.378h4.397V226.464z M396.732,226.464v-13.869h-2.587v13.869H396.732z M380.736,212.596v13.869
		h9.729v-2.412h-7.116v-11.457H380.736z M372.467,221.424h-5.14l2.57-5.908L372.467,221.424z M374.687,226.464h2.845l-6.209-13.869
		h-2.853l-6.208,13.869h2.829l1.185-2.612h7.242L374.687,226.464z M356.862,221.199l-6.784-8.603h-2.11v13.869h2.603v-9.346
		l7.286,9.346h1.618v-13.869h-2.612V221.199z M339.697,221.424h-5.139l2.568-5.908L339.697,221.424z M341.918,226.464h2.846
		l-6.218-13.869h-2.845l-6.208,13.869h2.829l1.184-2.612h7.243L341.918,226.464z"/> -->
</g>
</svg>
