<?xml version="1.0" encoding="utf-8"?>
<!-- Generator: Adobe Illustrator 15.1.0, SVG Export Plug-In . SVG Version: 6.00 Build 0)  -->
<!DOCTYPE svg PUBLIC "-//W3C//DTD SVG 1.0//EN" "http://www.w3.org/TR/2001/REC-SVG-20010904/DTD/svg10.dtd">
<svg version="1.0" id="Layer_1" xmlns="http://www.w3.org/2000/svg" xmlns:xlink="http://www.w3.org/1999/xlink" x="0px" y="0px"
	 width="800px" height="800px" viewBox="192.791015625 200.41400146484375 421.47296142578125 378.35400390625" enable-background="new 0 0 800 800" xml:space="preserve">
<g>
	<!-- <path fill="#BCC2C6" d="M209.022,200.414h389.021c4.463,0,8.527,1.836,11.467,4.773v0.017c2.935,2.937,4.754,6.993,4.754,11.449
		v345.873c0,4.456-1.819,8.512-4.754,11.449v0.017c-2.939,2.938-7.004,4.774-11.467,4.774H209.022
		c-4.473,0-8.528-1.837-11.467-4.774v-0.017c-2.938-2.938-4.764-6.993-4.764-11.449V216.653c0-4.456,1.826-8.512,4.764-11.449
		v-0.017C200.494,202.25,204.55,200.414,209.022,200.414"/>
	<path fill="#EBEFF0" d="M608.381,216.653v345.873c0,6.527-4.54,10.349-10.338,10.349H209.022c-5.792,0-10.34-3.723-10.34-10.349
		V216.653c0-6.759,4.564-10.347,10.34-10.347h389.021C603.832,206.307,608.381,210.028,608.381,216.653"/> -->
	<path fill="#BCC2C6" d="M206.877,247.947h393.309c3.882,0,7.402,1.585,9.947,4.123c2.555,2.553,4.131,6.075,4.131,9.964v302.646
		c0,3.873-1.576,7.395-4.131,9.948c-2.545,2.553-6.065,4.14-9.947,4.14H206.877c-3.881,0-7.402-1.587-9.947-4.14
		c-2.555-2.554-4.138-6.075-4.138-9.948V262.033c0-3.889,1.583-7.411,4.138-9.964C199.475,249.532,202.996,247.947,206.877,247.947"
		/>
	<path fill-rule="evenodd" clip-rule="evenodd" fill="#FFFFFF" d="M206.877,253.822c-2.178,0-4.246,0.884-5.783,2.42
		c-1.545,1.535-2.411,3.605-2.411,5.792v302.646c0,2.171,0.866,4.24,2.411,5.792c1.537,1.536,3.605,2.404,5.783,2.404h393.309
		c2.178,0,4.249-0.868,5.784-2.404c1.544-1.552,2.411-3.604,2.411-5.792V262.033c0-2.187-0.867-4.256-2.411-5.792
		c-1.535-1.553-3.606-2.42-5.784-2.42H206.877z"/>
	<!-- <path fill-rule="evenodd" clip-rule="evenodd" fill="#94A4A5" d="M549.567,220.409c4.147,0,7.501,3.354,7.501,7.494
		c0,4.139-3.354,7.51-7.501,7.51c-4.14,0-7.495-3.372-7.495-7.51C542.072,223.763,545.428,220.409,549.567,220.409 M573.116,220.409
		c4.138,0,7.492,3.354,7.492,7.494c0,4.139-3.354,7.51-7.492,7.51c-4.147,0-7.501-3.372-7.501-7.51
		C565.615,223.763,568.977,220.409,573.116,220.409z M526.025,220.409c4.139,0,7.494,3.354,7.494,7.494
		c0,4.139-3.355,7.51-7.494,7.51c-4.138,0-7.494-3.372-7.494-7.51C518.531,223.763,521.888,220.409,526.025,220.409z"/> -->
	<path fill-rule="evenodd" clip-rule="evenodd" fill="#34495E" d="M250.012,535.79h307.031c4.248,0,7.719-3.488,7.719-7.728v-229.43
		c0-4.238-3.487-7.71-7.719-7.71H250.012c-4.221,0-7.71,3.472-7.71,7.71v229.43C242.302,532.318,245.771,535.79,250.012,535.79"/>
	<path fill="#FFFFFF" d="M250.012,529.898h307.031c1.01,0,1.829-0.835,1.829-1.836v-229.43c0-0.984-0.835-1.818-1.829-1.818H250.012
		c-0.984,0-1.82,0.818-1.82,1.818v229.43C248.191,529.081,249.012,529.898,250.012,529.898"/>
	<path fill-rule="evenodd" clip-rule="evenodd" fill="#34495E" d="M250.012,535.79h307.031c4.248,0,7.719-3.488,7.719-7.728V343.278
		c0-4.238-3.479-7.71-7.719-7.71H250.012c-4.23,0-7.71,3.472-7.71,7.71v184.785C242.302,532.318,245.771,535.79,250.012,535.79"/>
	<path fill="#22A6EF" d="M250.012,529.898h307.031c1.01,0,1.829-0.835,1.829-1.836V343.278c0-1.001-0.835-1.818-1.829-1.818H250.012
		c-0.994,0-1.82,0.817-1.82,1.818v184.785C248.191,529.081,249.012,529.898,250.012,529.898"/>
	<path fill-rule="evenodd" clip-rule="evenodd" fill="#34495E" d="M339.401,312.903h128.252c1.628,0,2.947,1.318,2.947,2.938
		s-1.319,2.954-2.947,2.954H339.401c-1.618,0-2.946-1.335-2.946-2.954S337.783,312.903,339.401,312.903"/>
	<rect x="441.441" y="420.436" fill-rule="evenodd" clip-rule="evenodd" fill="#34495E" width="30.5" height="30.491"/>
	<rect x="281.955" y="368.497" fill-rule="evenodd" clip-rule="evenodd" fill="#34495E" width="30.492" height="30.492"/>
	<rect x="335.121" y="368.497" fill-rule="evenodd" clip-rule="evenodd" fill="#34495E" width="30.49" height="30.492"/>
	<rect x="388.277" y="368.497" fill-rule="evenodd" clip-rule="evenodd" fill="#34495E" width="30.5" height="30.492"/>
	<rect x="441.441" y="368.497" fill-rule="evenodd" clip-rule="evenodd" fill="#34495E" width="30.5" height="30.492"/>
	<rect x="494.608" y="368.497" fill-rule="evenodd" clip-rule="evenodd" fill="#34495E" width="30.499" height="30.492"/>
	<rect x="281.955" y="420.436" fill-rule="evenodd" clip-rule="evenodd" fill="#34495E" width="30.492" height="30.491"/>
	<rect x="335.121" y="420.436" fill-rule="evenodd" clip-rule="evenodd" fill="#34495E" width="30.49" height="30.491"/>
	<rect x="388.277" y="420.436" fill-rule="evenodd" clip-rule="evenodd" fill="#34495E" width="30.5" height="30.491"/>
	<rect x="494.608" y="420.436" fill-rule="evenodd" clip-rule="evenodd" fill="#34495E" width="30.499" height="30.491"/>
	<rect x="281.955" y="472.356" fill-rule="evenodd" clip-rule="evenodd" fill="#34495E" width="30.492" height="30.488"/>
	<rect x="335.121" y="472.356" fill-rule="evenodd" clip-rule="evenodd" fill="#34495E" width="30.49" height="30.488"/>
	<rect x="388.277" y="472.356" fill-rule="evenodd" clip-rule="evenodd" fill="#34495E" width="30.5" height="30.488"/>
	<rect x="441.441" y="472.356" fill-rule="evenodd" clip-rule="evenodd" fill="#34495E" width="30.5" height="30.488"/>
	<rect x="494.608" y="472.356" fill-rule="evenodd" clip-rule="evenodd" fill="#34495E" width="30.499" height="30.488"/>
	<rect x="500.5" y="478.248" fill-rule="evenodd" clip-rule="evenodd" fill="#39D4FF" width="18.717" height="18.704"/>
	<rect x="447.334" y="478.248" fill-rule="evenodd" clip-rule="evenodd" fill="#39D4FF" width="18.718" height="18.704"/>
	<rect x="394.17" y="478.248" fill-rule="evenodd" clip-rule="evenodd" fill="#39D4FF" width="18.717" height="18.704"/>
	<rect x="341.003" y="478.248" fill-rule="evenodd" clip-rule="evenodd" fill="#39D4FF" width="18.72" height="18.704"/>
	<rect x="287.839" y="478.248" fill-rule="evenodd" clip-rule="evenodd" fill="#39D4FF" width="18.726" height="18.704"/>
	<rect x="500.5" y="426.31" fill-rule="evenodd" clip-rule="evenodd" fill="#39D4FF" width="18.717" height="18.725"/>
	<rect x="447.334" y="426.31" fill-rule="evenodd" clip-rule="evenodd" fill="#FFFFFF" width="18.718" height="18.725"/>
	<rect x="394.17" y="426.31" fill-rule="evenodd" clip-rule="evenodd" fill="#39D4FF" width="18.717" height="18.725"/>
	<rect x="341.003" y="426.31" fill-rule="evenodd" clip-rule="evenodd" fill="#39D4FF" width="18.72" height="18.725"/>
	<rect x="287.839" y="426.31" fill-rule="evenodd" clip-rule="evenodd" fill="#39D4FF" width="18.726" height="18.725"/>
	<rect x="500.5" y="374.388" fill-rule="evenodd" clip-rule="evenodd" fill="#39D4FF" width="18.717" height="18.725"/>
	<rect x="447.334" y="374.388" fill-rule="evenodd" clip-rule="evenodd" fill="#39D4FF" width="18.718" height="18.725"/>
	<rect x="394.17" y="374.388" fill-rule="evenodd" clip-rule="evenodd" fill="#39D4FF" width="18.717" height="18.725"/>
	<rect x="341.003" y="374.388" fill-rule="evenodd" clip-rule="evenodd" fill="#39D4FF" width="18.72" height="18.725"/>
	<rect x="287.839" y="374.388" fill-rule="evenodd" clip-rule="evenodd" fill="#39D4FF" width="18.726" height="18.725"/>
	<!-- <path fill-rule="evenodd" clip-rule="evenodd" fill="#94A4A5" d="M458.224,223.68c1.536,0,2.212,1.034,2.212,2.086
		c0,1.035-0.658,2.069-2.212,2.069h-3.705v-4.155H458.224z M463.523,234.177l-3.914-4.406c2.454-0.501,3.262-2.286,3.262-4.072
		c0-2.236-1.601-4.273-4.647-4.289c-2.044,0.016-4.097,0-6.142,0v12.935h2.437v-4.306h2.347l3.762,4.306h2.896V234.177z
		 M447.117,231.941h-7.252v-2.904h6.992v-2.27h-6.992v-2.987h7.252v-2.37h-9.664c0,4.323,0,8.645,0,12.935h9.664V231.941z
		 M423.709,223.713h2.654c2.805,0,3.98,2.02,4.039,4.04c0.058,2.102-1.109,4.255-4.039,4.255h-2.654V223.713z M426.363,221.41
		c-1.586,0-3.486,0-5.074,0v12.935c1.588,0,3.488,0,5.074,0c4.522,0,6.517-3.304,6.459-6.576
		C432.764,224.564,430.795,221.41,426.363,221.41z M413.722,229.438l-6.325-8.027h-1.971v12.935h2.43v-8.712l6.791,8.712h1.51
		V221.41h-2.435V229.438z M399.9,231.941h-7.243v-2.904h6.994v-2.27h-6.994v-2.987h7.243v-2.37h-9.662c0,4.323,0,8.645,0,12.935
		h9.662V231.941z M376.419,221.41v12.935h9.079v-2.254h-6.643V221.41H376.419z M367.34,229.638h-4.799l2.404-5.508L367.34,229.638z
		 M369.408,234.345h2.655l-5.79-12.935h-2.654l-5.8,12.935h2.638l1.107-2.437h6.752L369.408,234.345z M353.629,231.041
		c-0.842,0.851-2.119,1.318-3.246,1.318c-3.188,0-4.423-2.236-4.439-4.373c-0.025-2.169,1.326-4.489,4.439-4.489
		c1.127,0,2.27,0.384,3.123,1.218l1.617-1.569c-1.326-1.302-2.986-1.969-4.74-1.969c-4.664,0-6.859,3.438-6.842,6.809
		c0.017,3.354,2.044,6.659,6.842,6.659c1.869,0,3.582-0.617,4.916-1.919L353.629,231.041z"/> -->
</g>
</svg>
