<?xml version="1.0" encoding="utf-8"?>
<!-- Generator: Adobe Illustrator 15.1.0, SVG Export Plug-In . SVG Version: 6.00 Build 0)  -->
<!DOCTYPE svg PUBLIC "-//W3C//DTD SVG 1.0//EN" "http://www.w3.org/TR/2001/REC-SVG-20010904/DTD/svg10.dtd">
<svg version="1.0" id="Layer_1" xmlns="http://www.w3.org/2000/svg" xmlns:xlink="http://www.w3.org/1999/xlink" x="0px" y="0px"
	 width="800px" height="800px" viewBox="207.90098571777344 191.99400329589844 421.46099853515625 378.32904052734375" enable-background="new 0 0 800 800" xml:space="preserve">
<g>
	<!-- <path fill="#BCC2C6" d="M224.131,191.994h389.002c4.463,0,8.527,1.827,11.465,4.765v0.016c2.938,2.946,4.764,6.993,4.764,11.449
		v345.868c0,4.456-1.826,8.512-4.764,11.449v0.017c-2.938,2.938-7.002,4.765-11.465,4.765H224.131
		c-4.465,0-8.529-1.827-11.467-4.765v-0.017c-2.937-2.938-4.763-6.993-4.763-11.449V208.224c0-4.456,1.826-8.503,4.763-11.449
		v-0.016C215.602,193.821,219.666,191.994,224.131,191.994"/>
	<path fill="#EBEFF0" d="M623.471,208.224v345.868c0,6.518-4.539,10.348-10.338,10.348H224.131c-5.792,0-10.339-3.722-10.339-10.348
		V208.224c0-6.751,4.565-10.339,10.339-10.339h389.002C618.923,197.884,623.471,201.598,623.471,208.224"/> -->
	<path fill="#BCC2C6" d="M221.986,239.515h393.29c3.88,0,7.401,1.586,9.946,4.13c2.555,2.554,4.139,6.075,4.139,9.956v302.637
		c0,3.88-1.584,7.401-4.139,9.947c-2.545,2.552-6.066,4.138-9.946,4.138h-393.29c-3.881,0-7.401-1.586-9.947-4.138
		c-2.553-2.546-4.138-6.067-4.138-9.947V253.601c0-3.88,1.585-7.402,4.138-9.956C214.585,241.101,218.105,239.515,221.986,239.515"
		/>
	<path fill-rule="evenodd" clip-rule="evenodd" fill="#FFFFFF" d="M221.986,245.397c-2.179,0-4.248,0.868-5.782,2.412
		c-1.544,1.544-2.412,3.613-2.412,5.792v302.637c0,2.178,0.868,4.248,2.412,5.79c1.534,1.535,3.604,2.412,5.782,2.412h393.29
		c2.178,0,4.247-0.877,5.79-2.412c1.536-1.542,2.404-3.604,2.404-5.79V253.601c0-2.187-0.868-4.248-2.404-5.792
		c-1.543-1.543-3.612-2.412-5.79-2.412H221.986z"/>
	<!-- <path fill-rule="evenodd" clip-rule="evenodd" fill="#94A4A5" d="M564.659,211.987c4.138,0,7.501,3.354,7.501,7.493
		s-3.363,7.493-7.501,7.493c-4.139,0-7.493-3.354-7.493-7.493S560.521,211.987,564.659,211.987 M588.207,211.987
		c4.139,0,7.493,3.354,7.493,7.493s-3.354,7.493-7.493,7.493s-7.502-3.354-7.502-7.493S584.068,211.987,588.207,211.987z
		 M541.119,211.987c4.139,0,7.493,3.354,7.493,7.493s-3.354,7.493-7.493,7.493c-4.14,0-7.493-3.354-7.493-7.493
		S536.979,211.987,541.119,211.987z"/> -->
	<path fill-rule="evenodd" clip-rule="evenodd" fill="#34495E" d="M269.893,307.522h112.031c3.188,0,5.799,2.612,5.799,5.808
		v160.654c0,3.189-2.61,5.801-5.799,5.801H269.893c-3.189,0-5.801-2.611-5.801-5.801V313.33
		C264.092,310.134,266.703,307.522,269.893,307.522"/>
	<rect x="269.976" y="313.414" fill-rule="evenodd" clip-rule="evenodd" fill="#22A6EF" width="111.866" height="160.489"/>
	<path opacity="0.15" d="M360.296,345.206c-1.194-1.193-2.854-1.936-4.691-1.936c-1.827,0-3.487,0.743-4.681,1.936
		c-1.193,1.193-1.936,2.854-1.936,4.681c0,1.835,0.742,3.488,1.936,4.689c1.201,1.193,2.854,1.937,4.681,1.937
		c1.837,0,3.497-0.743,4.691-1.937c1.192-1.193,1.935-2.854,1.935-4.689C362.23,348.06,361.488,346.399,360.296,345.206
		 M355.604,337.813c3.331,0,6.352,1.351,8.538,3.538l0.009,0.008c2.185,2.187,3.537,5.207,3.537,8.528
		c0,3.329-1.353,6.351-3.537,8.537l-0.009,0.008c-2.187,2.187-5.207,3.538-8.538,3.538c-3.329,0-6.35-1.352-8.535-3.538
		c-2.187-2.187-3.539-5.207-3.539-8.545c0-3.321,1.353-6.341,3.539-8.528l0.009-0.008
		C349.264,339.164,352.285,337.813,355.604,337.813z M349.831,367.419L349.831,367.419l0.075,0.108l1.536,2.036l-0.025,0.017
		l9.17,12.458c0.651,0.893,0.935,1.794,0.935,2.645h-0.018c0,0.668-0.156,1.277-0.449,1.803c-0.275,0.508-0.66,0.926-1.118,1.26
		c-0.751,0.559-1.728,0.859-2.704,0.859v-0.008l-23.039,0.008l-44.108-0.008c-1.068,0-1.986-0.3-2.696-0.826
		c-0.49-0.359-0.876-0.818-1.15-1.368h-0.009c-0.259-0.51-0.392-1.085-0.392-1.72h-0.008c0-0.901,0.307-1.877,0.992-2.804
		l9.654-13.125l-0.009-0.017l0.886-1.168l0.108-0.142l0.017-0.025l11.932-15.863c0.426-0.567,0.885-1.026,1.37-1.393
		c0.934-0.701,1.951-1.044,3.012-1.044c1.051,0.009,2.061,0.359,2.971,1.044c0.492,0.367,0.95,0.834,1.368,1.393l11.398,15.146
		l5.507-7.327c0.417-0.559,0.877-1.026,1.37-1.385c0.918-0.692,1.926-1.042,2.986-1.051c1.06,0,2.069,0.342,3.004,1.043
		c0.484,0.368,0.942,0.834,1.359,1.394l6.05,8.036L349.831,367.419z M354.654,383.165l-9.221-12.525l-0.384-0.535l-5.632-7.485
		l-0.017-0.025l-0.017,0.025l-6.367,8.461l-1.319,1.752l-2.169,2.887l-2.178-2.887l-1.318-1.752l-12.249-16.279l-0.009-0.025
		l-0.017,0.025l-11.566,15.378l-0.341,0.459l-9.213,12.525l41.555,0.008L354.654,383.165z"/>
	<path fill="#34495E" d="M353.912,332.421c3.329,0,6.34,1.353,8.527,3.539l0.008,0.008c2.186,2.186,3.539,5.207,3.539,8.528
		c0,3.329-1.354,6.342-3.539,8.528l-0.008,0.017c-2.188,2.178-5.198,3.538-8.527,3.538c-3.339,0-6.35-1.36-8.545-3.538
		c-2.179-2.186-3.529-5.207-3.529-8.544c0-3.321,1.351-6.342,3.529-8.528l0.017-0.008
		C347.569,333.774,350.582,332.421,353.912,332.421 M348.13,362.028L348.13,362.028l0.082,0.108l1.526,2.037l-0.016,0.016
		l9.162,12.459c0.66,0.893,0.935,1.794,0.935,2.637h-0.008c0,0.667-0.168,1.276-0.46,1.811c-0.275,0.501-0.658,0.926-1.109,1.26
		c-0.76,0.55-1.728,0.859-2.704,0.859v-0.008l-23.038,0.008l-44.117-0.008c-1.059-0.008-1.978-0.3-2.695-0.826
		c-0.484-0.359-0.877-0.826-1.15-1.369h-0.01c-0.259-0.517-0.393-1.092-0.393-1.718h-0.008c0-0.91,0.317-1.877,1.002-2.804
		l9.653-13.126l-0.016-0.016l0.885-1.168l0.108-0.151l0,0l0.025-0.024l11.932-15.863c0.418-0.559,0.876-1.018,1.369-1.386
		c0.926-0.701,1.952-1.051,3.004-1.043c1.059,0.009,2.06,0.359,2.979,1.043c0.484,0.368,0.95,0.834,1.367,1.386l11.392,15.145
		l5.516-7.327c0.417-0.55,0.876-1.019,1.359-1.385c0.918-0.685,1.938-1.035,2.995-1.043c1.052,0,2.071,0.342,2.997,1.043
		c0.483,0.366,0.943,0.826,1.368,1.385l6.05,8.044L348.13,362.028z"/>
	<path fill-rule="evenodd" clip-rule="evenodd" fill="#39D4FF" d="M353.912,336.819c-2.045,0-3.973,0.81-5.457,2.295l0.017-0.025
		c-1.444,1.444-2.236,3.362-2.236,5.407c0,2.044,0.8,3.98,2.252,5.432c1.445,1.443,3.38,2.244,5.425,2.244
		c2.044,0,3.971-0.809,5.457-2.294l-0.018,0.026c1.445-1.444,2.236-3.364,2.236-5.408c0-2.045-0.791-3.963-2.219-5.382l-0.041-0.042
		C357.883,337.629,355.956,336.819,353.912,336.819 M288.892,378.801l43.608,0.008l22.505-0.008l-10.331-14.044l-6.133-8.152
		c-0.134-0.184-0.302-0.367-0.493-0.508c-0.091-0.075-0.217-0.159-0.341-0.159c-0.125,0-0.259,0.084-0.359,0.159
		c-0.184,0.142-0.351,0.325-0.492,0.508l-9.028,12.008l-14.912-19.818c-0.142-0.192-0.3-0.375-0.493-0.518
		c-0.091-0.075-0.225-0.158-0.35-0.158s-0.25,0.083-0.351,0.158c-0.183,0.133-0.351,0.325-0.492,0.51l-12.007,15.962
		L288.892,378.801z"/>
	<path fill-rule="evenodd" clip-rule="evenodd" fill="#34495E" d="M295.025,428.626h61.765c2.161,0,3.931,1.769,3.931,3.929l0,0
		c0,2.17-1.77,3.94-3.931,3.94h-61.765c-2.17,0-3.932-1.771-3.932-3.94l0,0C291.094,430.395,292.855,428.626,295.025,428.626"/>
	<path fill-rule="evenodd" clip-rule="evenodd" fill="#34495E" d="M295.025,448.402h61.765c2.161,0,3.931,1.769,3.931,3.938l0,0
		c0,2.161-1.77,3.932-3.931,3.932h-61.765c-2.17,0-3.932-1.771-3.932-3.932l0,0C291.094,450.171,292.855,448.402,295.025,448.402"/>
	<path fill-rule="evenodd" clip-rule="evenodd" fill="#34495E" d="M295.025,408.841h26.943c2.17,0,3.939,1.768,3.939,3.93v0.008
		c0,2.162-1.77,3.931-3.939,3.931h-26.943c-2.17,0-3.932-1.769-3.932-3.931v-0.008C291.094,410.608,292.855,408.841,295.025,408.841
		"/>
	<path fill-rule="evenodd" clip-rule="evenodd" fill="#BCC2C6" d="M462.907,307.522h112.032c3.187,0,5.799,2.612,5.799,5.808
		v160.654c0,3.189-2.612,5.801-5.799,5.801H462.907c-3.188,0-5.8-2.611-5.8-5.801V313.33
		C457.107,310.134,459.719,307.522,462.907,307.522"/>
	<rect x="462.991" y="313.414" fill-rule="evenodd" clip-rule="evenodd" fill="#EBEFF0" width="111.865" height="160.489"/>
	<path fill="#DEE6E8" d="M553.311,344.071c-1.193-1.193-2.854-1.937-4.682-1.937c-1.836,0-3.488,0.743-4.689,1.937
		c-1.193,1.193-1.936,2.853-1.936,4.689c0,1.828,0.742,3.479,1.936,4.682c1.201,1.193,2.861,1.936,4.689,1.936
		s3.488-0.742,4.682-1.936c1.202-1.193,1.936-2.854,1.936-4.682C555.246,346.924,554.513,345.264,553.311,344.071 M548.629,336.677
		c3.32,0,6.342,1.352,8.529,3.539l0.008,0.016c2.186,2.178,3.539,5.199,3.539,8.528c0,3.33-1.354,6.342-3.539,8.528l-0.008,0.008
		c-2.188,2.186-5.209,3.538-8.529,3.538c-3.338,0-6.358-1.353-8.544-3.538c-2.187-2.187-3.539-5.207-3.539-8.537
		c0-3.329,1.353-6.35,3.539-8.528l0.009-0.016C542.279,338.029,545.3,336.677,548.629,336.677z M542.847,366.284L542.847,366.284
		l0.074,0.117l1.536,2.036l-0.025,0.008l9.171,12.458c0.65,0.894,0.935,1.795,0.935,2.646h-0.018
		c0.009,0.667-0.157,1.277-0.449,1.803c-0.275,0.5-0.66,0.926-1.118,1.26c-0.751,0.559-1.72,0.867-2.695,0.867v-0.017l-23.04,0.008
		l-44.115-0.008c-1.069,0-1.987-0.3-2.697-0.826c-0.482-0.359-0.876-0.818-1.15-1.36h-0.009c-0.259-0.517-0.392-1.093-0.392-1.719
		h-0.01c0-0.91,0.317-1.886,0.994-2.812l9.654-13.117l-0.009-0.026l0.886-1.168l0.107-0.142l0,0l0.018-0.024l11.932-15.863
		c0.426-0.559,0.886-1.026,1.369-1.394c0.934-0.701,1.953-1.043,3.013-1.035c1.05,0,2.061,0.351,2.979,1.035
		c0.483,0.375,0.942,0.834,1.368,1.394l11.391,15.145l5.515-7.326c0.409-0.559,0.878-1.027,1.36-1.386
		c0.919-0.693,1.929-1.043,2.988-1.043c1.06-0.008,2.069,0.334,3.004,1.036c0.483,0.367,0.942,0.834,1.368,1.394l6.041,8.035
		L542.847,366.284z M547.67,382.029l-9.213-12.524l-0.392-0.526l-5.634-7.493l-0.016-0.025l-0.008,0.025l-6.375,8.461l-1.319,1.752
		l-2.169,2.896l-2.179-2.896l-1.31-1.752l-12.258-16.281l-0.008-0.025l-0.018,0.025l-11.565,15.379l-0.342,0.459l-9.213,12.524
		l41.563,0.009L547.67,382.029z"/>
	<path fill="#BCC2C6" d="M546.928,332.421c3.329,0,6.342,1.353,8.527,3.539l0.017,0.008c2.178,2.186,3.53,5.207,3.53,8.528
		c0,3.329-1.353,6.342-3.53,8.528l-0.017,0.017c-2.186,2.178-5.198,3.538-8.527,3.538c-3.331,0-6.351-1.36-8.537-3.538
		c-2.187-2.186-3.537-5.207-3.537-8.544c0-3.321,1.351-6.342,3.537-8.528l0.009-0.008
		C540.585,333.774,543.597,332.421,546.928,332.421 M541.146,362.028L541.146,362.028l0.082,0.108l1.536,2.037l-0.025,0.016
		l9.162,12.459c0.66,0.893,0.935,1.794,0.935,2.637h-0.008c0,0.667-0.168,1.276-0.46,1.811c-0.275,0.501-0.658,0.926-1.109,1.26
		c-0.76,0.55-1.728,0.859-2.703,0.859v-0.008l-23.04,0.008l-44.117-0.008c-1.06-0.008-1.976-0.3-2.694-0.826
		c-0.484-0.359-0.877-0.826-1.15-1.369h-0.01c-0.251-0.517-0.393-1.092-0.383-1.718h-0.019c0-0.91,0.318-1.877,1.002-2.804
		l9.654-13.126l-0.007-0.016l0.875-1.168l0.107-0.151l0,0l0.025-0.024l11.934-15.863c0.417-0.559,0.876-1.018,1.369-1.386
		c0.934-0.701,1.952-1.051,3.004-1.043c1.059,0.009,2.068,0.359,2.979,1.043c0.492,0.368,0.95,0.834,1.367,1.386l11.392,15.145
		l5.516-7.327c0.417-0.55,0.876-1.019,1.359-1.385c0.918-0.685,1.937-1.035,2.995-1.043c1.052,0,2.07,0.342,2.996,1.043
		c0.484,0.366,0.952,0.826,1.37,1.385l6.05,8.044L541.146,362.028z"/>
	<path fill-rule="evenodd" clip-rule="evenodd" fill="#FFFFFF" d="M546.928,336.819c-2.045,0-3.973,0.81-5.457,2.295l0.016-0.025
		c-1.443,1.444-2.236,3.362-2.236,5.407c0,2.044,0.81,3.98,2.253,5.432c1.444,1.443,3.38,2.244,5.425,2.244
		c2.043,0,3.971-0.809,5.466-2.294l-0.026,0.026c1.444-1.444,2.236-3.364,2.236-5.408c0-2.045-0.792-3.963-2.21-5.382l-0.051-0.042
		C550.898,337.629,548.971,336.819,546.928,336.819 M481.907,378.801l43.607,0.008l22.506-0.008l-10.331-14.044l-6.125-8.152
		c-0.142-0.184-0.309-0.367-0.501-0.508c-0.092-0.075-0.217-0.159-0.342-0.159c-0.124,0-0.258,0.084-0.351,0.159
		c-0.191,0.142-0.359,0.325-0.491,0.508l-9.037,12.008l-14.904-19.818c-0.142-0.192-0.308-0.375-0.501-0.518
		c-0.092-0.075-0.226-0.158-0.35-0.158c-0.125,0-0.25,0.083-0.351,0.158c-0.183,0.133-0.351,0.325-0.492,0.51l-12.007,15.962
		L481.907,378.801z"/>
	<path fill-rule="evenodd" clip-rule="evenodd" fill="#BCC2C6" d="M488.04,428.626h61.766c2.161,0,3.939,1.769,3.939,3.929l0,0
		c0,2.17-1.778,3.94-3.939,3.94H488.04c-2.161,0-3.931-1.771-3.931-3.94l0,0C484.109,430.395,485.879,428.626,488.04,428.626"/>
	<path fill-rule="evenodd" clip-rule="evenodd" fill="#BCC2C6" d="M488.04,448.402h61.766c2.161,0,3.939,1.769,3.939,3.938l0,0
		c0,2.161-1.778,3.932-3.939,3.932H488.04c-2.161,0-3.931-1.771-3.931-3.932l0,0C484.109,450.171,485.879,448.402,488.04,448.402"/>
	<path fill-rule="evenodd" clip-rule="evenodd" fill="#BCC2C6" d="M488.04,408.841h26.952c2.162,0,3.932,1.768,3.932,3.93v0.008
		c0,2.162-1.77,3.931-3.932,3.931H488.04c-2.161,0-3.931-1.769-3.931-3.931v-0.008C484.109,410.608,485.879,408.841,488.04,408.841"
		/>
	<!-- <path fill-rule="evenodd" clip-rule="evenodd" fill="#94A4A5" d="M456.948,215.191c-0.976-1.995-3.07-2.57-5.081-2.57
		c-2.387,0.017-5.007,1.109-5.007,3.772c0,2.904,2.437,3.605,5.082,3.922c1.718,0.184,2.995,0.684,2.995,1.902
		c0,1.402-1.443,1.944-2.979,1.944c-1.57,0-3.071-0.626-3.639-2.053l-2.036,1.051c0.96,2.37,2.995,3.179,5.641,3.179
		c2.879,0,5.433-1.234,5.433-4.122c0-3.087-2.512-3.789-5.215-4.122c-1.551-0.184-2.879-0.501-2.879-1.627
		c0-0.96,0.868-1.72,2.679-1.72c1.401,0,2.619,0.702,3.062,1.444L456.948,215.191z M432.525,215.358h2.661
		c2.803,0,3.988,2.02,4.048,4.039c0.049,2.119-1.111,4.263-4.048,4.263h-2.661V215.358z M435.187,213.046c-1.595,0-3.496,0-5.091,0
		v12.958c1.595,0,3.496,0,5.091,0c4.523,0,6.517-3.304,6.467-6.583C441.596,216.208,439.617,213.046,435.187,213.046z
		 M420.2,215.325c1.535,0,2.219,1.035,2.219,2.077c0,1.043-0.667,2.078-2.219,2.078h-3.714v-4.155H420.2z M425.508,225.838
		l-3.922-4.415c2.461-0.5,3.27-2.294,3.27-4.08c0-2.245-1.602-4.272-4.655-4.297c-2.054,0.025-4.105,0-6.158,0v12.958h2.444v-4.322
		h2.346l3.771,4.322h2.905V225.838z M404.438,221.291h-4.798l2.396-5.515L404.438,221.291z M406.515,226.005h2.662l-5.808-12.958
		h-2.662l-5.808,12.958h2.646l1.109-2.436h6.768L406.515,226.005z M390.01,222.701c-0.851,0.851-2.119,1.31-3.254,1.31
		c-3.196,0-4.431-2.237-4.447-4.381c-0.025-2.161,1.326-4.489,4.447-4.489c1.135,0,2.277,0.384,3.129,1.218l1.628-1.569
		c-1.337-1.319-2.997-1.986-4.757-1.986c-4.673,0-6.876,3.446-6.852,6.826c0.017,3.363,2.053,6.676,6.852,6.676
		c1.868,0,3.588-0.609,4.923-1.927L390.01,222.701z"/> -->
</g>
</svg>
