<?xml version="1.0" encoding="utf-8"?>
<!-- Generator: Adobe Illustrator 15.1.0, SVG Export Plug-In . SVG Version: 6.00 Build 0)  -->
<!DOCTYPE svg PUBLIC "-//W3C//DTD SVG 1.0//EN" "http://www.w3.org/TR/2001/REC-SVG-20010904/DTD/svg10.dtd">
<svg version="1.0" id="Layer_1" xmlns="http://www.w3.org/2000/svg" xmlns:xlink="http://www.w3.org/1999/xlink" x="0px" y="0px"
	 width="800px" height="800px" viewBox="201.62298583984375 200.41400146484375 421.48297119140625 378.35400390625" enable-background="new 0 0 800 800" xml:space="preserve">
<g>
	<!-- <path fill="#BCC2C6" d="M217.853,200.414h389.02c4.465,0,8.529,1.836,11.467,4.773v0.017c2.938,2.937,4.766,6.993,4.766,11.449
		v345.873c0,4.456-1.828,8.512-4.766,11.449v0.017c-2.938,2.938-7.002,4.774-11.467,4.774h-389.02
		c-4.473,0-8.528-1.837-11.466-4.774v-0.017c-2.937-2.938-4.764-6.993-4.764-11.449V216.653c0-4.456,1.827-8.512,4.764-11.449
		v-0.017C209.324,202.25,213.38,200.414,217.853,200.414"/>
	<path fill="#EBEFF0" d="M617.212,216.653v345.873c0,6.527-4.539,10.349-10.34,10.349h-389.02c-5.791,0-10.341-3.723-10.341-10.349
		V216.653c0-6.759,4.566-10.347,10.341-10.347h389.02C612.665,206.307,617.212,210.028,617.212,216.653"/> -->
	<path fill="#BCC2C6" d="M215.708,247.947h393.309c3.881,0,7.402,1.569,9.948,4.123c2.554,2.553,4.14,6.075,4.14,9.964v302.646
		c0,3.873-1.586,7.395-4.14,9.948c-2.546,2.553-6.067,4.14-9.948,4.14H215.708c-3.872,0-7.402-1.587-9.946-4.14
		c-2.555-2.554-4.139-6.075-4.139-9.948V262.033c0-3.889,1.584-7.411,4.139-9.964C208.306,249.516,211.836,247.947,215.708,247.947"
		/>
	<path fill-rule="evenodd" clip-rule="evenodd" fill="#FFFFFF" d="M215.708,253.822c-2.18,0-4.248,0.867-5.792,2.42
		c-1.534,1.535-2.412,3.605-2.412,5.792v302.646c0,2.171,0.878,4.24,2.412,5.792c1.544,1.536,3.612,2.404,5.792,2.404h393.309
		c2.18,0,4.249-0.868,5.783-2.404c1.543-1.552,2.412-3.621,2.412-5.792V262.033c0-2.187-0.869-4.256-2.412-5.792
		c-1.534-1.553-3.612-2.42-5.783-2.42H215.708z"/>
	<!-- <path fill-rule="evenodd" clip-rule="evenodd" fill="#94A4A5" d="M558.398,220.409c4.139,0,7.502,3.354,7.502,7.494
		c0,4.139-3.355,7.494-7.502,7.494c-4.141,0-7.495-3.355-7.495-7.494C550.903,223.763,554.258,220.409,558.398,220.409
		 M581.947,220.409c4.139,0,7.493,3.354,7.493,7.494c0,4.139-3.354,7.494-7.493,7.494c-4.141,0-7.503-3.355-7.503-7.494
		C574.444,223.763,577.807,220.409,581.947,220.409z M534.857,220.409c4.138,0,7.493,3.354,7.493,7.494
		c0,4.139-3.355,7.494-7.493,7.494c-4.14,0-7.503-3.355-7.503-7.494C527.354,223.763,530.718,220.409,534.857,220.409z"/> -->
	<path fill-rule="evenodd" clip-rule="evenodd" fill="#BCC2C6" d="M249.078,327.507h157.527c2.811,0,5.106,2.302,5.106,5.106v20.896
		c0,2.804-2.296,5.107-5.106,5.107H249.078c-2.812,0-5.106-2.286-5.106-5.107v-20.896
		C243.972,329.809,246.267,327.507,249.078,327.507"/>
	<path fill-rule="evenodd" clip-rule="evenodd" fill="#BCC2C6" d="M249.078,384.769h157.527c2.811,0,5.106,2.303,5.106,5.106v20.895
		c0,2.806-2.296,5.106-5.106,5.106H249.078c-2.812,0-5.106-2.301-5.106-5.106v-20.895
		C243.972,387.072,246.267,384.769,249.078,384.769"/>
	<path fill-rule="evenodd" clip-rule="evenodd" fill="#BCC2C6" d="M249.078,442.031h157.527c2.811,0,5.106,2.285,5.106,5.106v20.878
		c0,2.822-2.296,5.107-5.106,5.107H249.078c-2.812,0-5.106-2.285-5.106-5.107v-20.878
		C243.972,444.316,246.267,442.031,249.078,442.031"/>
	<rect x="249.381" y="447.905" fill-rule="evenodd" clip-rule="evenodd" fill="#FFFFFF" width="156.924" height="19.345"/>
	<rect x="249.381" y="390.66" fill-rule="evenodd" clip-rule="evenodd" fill="#FFFFFF" width="156.924" height="19.328"/>
	<rect x="249.381" y="333.398" fill-rule="evenodd" clip-rule="evenodd" fill="#FFFFFF" width="156.924" height="19.326"/>
	<path fill="#BCC2C6" d="M322.381,512.224h-58.898c-2.263,0-4.323,0.935-5.816,2.437c-1.493,1.484-2.42,3.556-2.42,5.808
		c0,2.271,0.918,4.341,2.403,5.826l0.017,0.016c1.485,1.486,3.546,2.403,5.816,2.403h58.898c2.261,0,4.321-0.935,5.816-2.419
		c1.493-1.503,2.428-3.555,2.428-5.826c0-2.268-0.926-4.323-2.421-5.825C326.711,513.158,324.649,512.224,322.381,512.224
		 M263.482,504.162h58.898c4.48,0,8.553,1.837,11.507,4.791l0.018,0.016c2.953,2.955,4.79,7.027,4.79,11.499
		c0,4.491-1.837,8.58-4.79,11.533c-2.955,2.955-7.036,4.789-11.524,4.789h-58.898c-4.473,0-8.545-1.834-11.508-4.789l-0.007-0.017
		h-0.011c-2.954-2.972-4.788-7.044-4.788-11.517c0-4.487,1.834-8.56,4.788-11.515C254.911,505.999,258.993,504.162,263.482,504.162z
		"/>
	<path fill="#34495E" d="M260.278,497.504h58.897c4.481,0,8.554,1.819,11.507,4.773l0.017,0.017c2.954,2.954,4.79,7.043,4.79,11.515
		c0,4.491-1.836,8.563-4.79,11.518c-2.953,2.952-7.033,4.789-11.523,4.789h-58.897c-4.465,0-8.545-1.837-11.508-4.789l0,0
		l-0.009-0.019c-2.954-2.954-4.79-7.024-4.79-11.499c0-4.488,1.836-8.561,4.79-11.531
		C251.708,499.323,255.789,497.504,260.278,497.504"/>
	<path fill="#27CABF" d="M319.176,502.344c3.046,0,5.949,1.22,8.104,3.371c2.152,2.137,3.354,5.057,3.354,8.094
		c0,3.038-1.21,5.941-3.364,8.097c-2.152,2.151-5.048,3.354-8.094,3.354h-58.897c-3.038,0-5.942-1.187-8.086-3.339l-0.018-0.016
		c-2.152-2.155-3.345-5.059-3.345-8.097c0-3.054,1.209-5.94,3.362-8.094c2.144-2.151,5.048-3.371,8.086-3.371H319.176z"/>
	<path fill="#51F4E9" d="M319.176,502.344c3.046,0,5.949,1.22,8.104,3.371c2.152,2.137,3.354,5.057,3.354,8.094
		c0,0.786-0.075,1.553-0.235,2.304c-0.45-2.185-1.525-4.188-3.119-5.79c-2.154-2.154-5.058-3.356-8.104-3.356h-58.897
		c-3.038,0-5.942,1.22-8.086,3.356c-1.602,1.602-2.68,3.621-3.13,5.807c-0.159-0.768-0.232-1.534-0.232-2.32
		c0-3.054,1.209-5.94,3.362-8.094c2.144-2.151,5.048-3.371,8.086-3.371H319.176z"/>
	<path fill-rule="evenodd" clip-rule="evenodd" fill="#BCC2C6" d="M247.903,289.921h159.879c2.161,0,3.93,1.769,3.93,3.922v0.017
		c0,2.154-1.769,3.922-3.93,3.922H247.903c-2.163,0-3.932-1.769-3.932-3.922v-0.017C243.972,291.69,245.74,289.921,247.903,289.921"
		/>
	<path fill-rule="evenodd" clip-rule="evenodd" fill="#34495E" d="M446.702,474.075h125.806c4.541,0,8.246-3.705,8.246-8.244V298.15
		c0-4.523-3.723-8.229-8.246-8.229H446.702c-4.523,0-8.236,3.705-8.236,8.229v167.681
		C438.466,470.354,442.171,474.075,446.702,474.075"/>
	<path fill="#22A6EF" d="M446.702,295.579h125.806c1.42,0,2.58,1.168,2.58,2.571v167.681c0,1.419-1.169,2.569-2.58,2.569H446.702
		c-1.41,0-2.579-1.15-2.579-2.569V298.15C444.123,296.747,445.283,295.579,446.702,295.579"/>
	<path fill-rule="evenodd" clip-rule="evenodd" fill="#34495E" d="M506.777,380.53c1.56,1.568,4.098,1.568,5.666,0
		c1.56-1.552,1.56-4.089,0-5.659c-1.568-1.567-4.106-1.567-5.666,0C505.209,376.44,505.209,378.978,506.777,380.53 M509.605,415.193
		l-18.742-18.742c-10.323-10.313-10.323-27.17,0-37.501c10.313-10.314,27.17-10.314,37.493,0c10.314,10.331,10.314,27.188,0,37.501
		L509.605,415.193z"/>
	<path fill-rule="evenodd" clip-rule="evenodd" fill="#39D4FF" d="M502.195,385.119c-4.089-4.105-4.089-10.731,0-14.82
		c4.097-4.089,10.731-4.089,14.819,0c4.098,4.089,4.098,10.715,0,14.82C512.927,389.208,506.292,389.208,502.195,385.119
		 M509.605,406.916l-14.604-14.604c-8.035-8.027-8.035-21.179,0-29.207c8.036-8.044,21.18-8.044,29.208,0
		c8.035,8.028,8.035,21.18,0,29.207L509.605,406.916z"/>
	<path fill-rule="evenodd" clip-rule="evenodd" fill="#1C8DCB" d="M509.605,417.965c15.479,0,28.03,0.918,28.03,2.053
		s-12.551,2.068-28.03,2.068c-15.471,0-28.022-0.934-28.022-2.068S494.135,417.965,509.605,417.965"/>
	<!-- <path fill-rule="evenodd" clip-rule="evenodd" fill="#94A4A5" d="M463.835,223.946c-0.902-1.853-2.839-2.37-4.691-2.37
		c-2.212,0.017-4.632,1.018-4.632,3.472c0,2.687,2.255,3.337,4.699,3.621c1.586,0.184,2.762,0.635,2.762,1.77
		c0,1.302-1.325,1.785-2.745,1.785c-1.452,0-2.837-0.567-3.362-1.886l-1.888,0.968c0.894,2.187,2.771,2.938,5.218,2.938
		c2.661,0,5.015-1.152,5.015-3.805c0-2.854-2.32-3.505-4.816-3.806c-1.436-0.184-2.661-0.467-2.661-1.501
		c0-0.901,0.801-1.603,2.479-1.603c1.294,0,2.419,0.651,2.838,1.335L463.835,223.946z M445.608,233.944h2.252v-9.93h3.789v-2.053
		c-3.462,0-6.384,0-9.838,0v2.053h3.797V233.944z M438.239,230.873c-0.783,0.801-1.969,1.218-3.004,1.218
		c-2.962,0-4.097-2.069-4.121-4.038c-0.018-2.003,1.234-4.156,4.121-4.156c1.035,0,2.096,0.351,2.887,1.119l1.504-1.453
		c-1.235-1.201-2.771-1.818-4.391-1.818c-4.32,0-6.357,3.171-6.34,6.309c0.016,3.104,1.9,6.158,6.34,6.158
		c1.721,0,3.314-0.567,4.541-1.769L438.239,230.873z M422.91,229.588h-4.439l2.22-5.107L422.91,229.588z M424.821,233.944h2.462
		l-5.366-11.983h-2.453l-5.365,11.983h2.445l1.017-2.252h6.26L424.821,233.944z M406.271,233.944h2.254v-9.93h3.789v-2.053
		c-3.465,0-6.384,0-9.84,0v2.053h3.797V233.944z M397.208,229.388l-5.857-7.427h-1.827v11.983h2.261v-8.078l6.284,8.078h1.401
		v-11.983h-2.262V229.388z M379.919,223.796c2.818,0,3.947,2.253,3.913,4.272c-0.033,1.953-1.095,4.072-3.913,4.072
		c-2.814,0-3.873-2.102-3.922-4.055C375.938,226.066,377.104,223.796,379.919,223.796z M379.919,221.744
		c-4.133,0-6.152,3.154-6.152,6.309c0,3.137,1.955,6.158,6.152,6.158c4.204,0,6.1-3.088,6.133-6.175
		C386.086,224.898,384.039,221.744,379.919,221.744z M369.854,230.873c-0.784,0.801-1.961,1.218-3.003,1.218
		c-2.954,0-4.107-2.069-4.123-4.038c-0.017-2.003,1.235-4.156,4.123-4.156c1.042,0,2.094,0.351,2.887,1.119l1.502-1.453
		c-1.234-1.201-2.771-1.818-4.389-1.818c-4.324,0-6.359,3.171-6.343,6.309c0.016,3.104,1.895,6.158,6.343,6.158
		c1.718,0,3.313-0.567,4.539-1.769L369.854,230.873z"/> -->
</g>
</svg>
