<?xml version="1.0" encoding="utf-8"?>
<!-- Generator: Adobe Illustrator 15.1.0, SVG Export Plug-In . SVG Version: 6.00 Build 0)  -->
<!DOCTYPE svg PUBLIC "-//W3C//DTD SVG 1.0//EN" "http://www.w3.org/TR/2001/REC-SVG-20010904/DTD/svg10.dtd">
<svg version="1.0" id="Layer_1" xmlns="http://www.w3.org/2000/svg" xmlns:xlink="http://www.w3.org/1999/xlink" x="0px" y="0px"
	 width="800px" height="800px" viewBox="200.99598693847656 191.99400329589844 421.4620361328125 378.32000732421875" enable-background="new 0 0 800 800" xml:space="preserve">
<g>
	<!-- <path fill="#BCC2C6" d="M217.226,191.994h389.01c4.456,0,8.519,1.827,11.456,4.765v0.016c2.938,2.946,4.766,6.993,4.766,11.449
		v345.868c0,4.456-1.828,8.512-4.766,11.449v0.017c-2.938,2.938-7,4.756-11.456,4.756h-389.01c-4.464,0-8.528-1.818-11.458-4.756
		v-0.017c-2.938-2.938-4.771-6.993-4.771-11.449V208.224c0-4.456,1.834-8.503,4.771-11.449v-0.016
		C208.697,193.821,212.762,191.994,217.226,191.994"/>
	<path fill="#EBEFF0" d="M616.566,208.224v345.868c0,6.509-4.54,10.331-10.331,10.331h-389.01c-5.791,0-10.339-3.705-10.339-10.331
		V208.224c0-6.751,4.573-10.339,10.339-10.339h389.01C612.026,197.884,616.566,201.598,616.566,208.224"/> -->
	<path fill="#BCC2C6" d="M215.081,239.515H608.37c3.881,0,7.402,1.578,9.947,4.13c2.555,2.554,4.14,6.075,4.14,9.956v302.629
		c0,3.888-1.585,7.409-4.14,9.946c-2.545,2.552-6.066,4.138-9.947,4.138H215.081c-3.873,0-7.393-1.586-9.947-4.138
		c-2.553-2.537-4.138-6.059-4.138-9.946V253.601c0-3.88,1.585-7.402,4.138-9.956C207.688,241.092,211.208,239.515,215.081,239.515"
		/>
	<path fill-rule="evenodd" clip-rule="evenodd" fill="#FFFFFF" d="M215.081,245.397c-2.178,0-4.24,0.876-5.782,2.412
		c-1.545,1.544-2.412,3.613-2.412,5.792v302.629c0,2.169,0.867,4.256,2.412,5.791c1.542,1.533,3.604,2.402,5.782,2.402H608.37
		c2.188,0,4.248-0.869,5.793-2.402c1.535-1.535,2.403-3.605,2.403-5.791V253.601c0-2.187-0.868-4.248-2.403-5.792
		c-1.545-1.543-3.621-2.412-5.793-2.412H215.081z"/>
	<!-- <path fill-rule="evenodd" clip-rule="evenodd" fill="#94A4A5" d="M557.755,211.987c4.138,0,7.501,3.354,7.501,7.493
		s-3.363,7.502-7.501,7.502c-4.141,0-7.493-3.363-7.493-7.502S553.614,211.987,557.755,211.987 M581.302,211.987
		c4.139,0,7.492,3.354,7.492,7.493s-3.354,7.502-7.492,7.502s-7.492-3.363-7.492-7.502S577.163,211.987,581.302,211.987z
		 M534.215,211.987c4.14,0,7.501,3.354,7.501,7.493s-3.361,7.502-7.501,7.502s-7.501-3.363-7.501-7.502
		S530.083,211.987,534.215,211.987z"/> -->
	<rect x="247.907" y="374.624" fill-rule="evenodd" clip-rule="evenodd" fill="#BCC2C6" width="60.581" height="60.582"/>
	<rect x="325.795" y="374.624" fill-rule="evenodd" clip-rule="evenodd" fill="#BCC2C6" width="60.58" height="60.582"/>
	<rect x="331.688" y="380.516" fill-rule="evenodd" clip-rule="evenodd" fill="#FFFFFF" width="48.813" height="48.798"/>
	<rect x="253.8" y="380.516" fill-rule="evenodd" clip-rule="evenodd" fill="#FFFFFF" width="48.806" height="48.798"/>
	<rect x="331.688" y="404.915" fill-rule="evenodd" clip-rule="evenodd" fill="#EBEFF0" width="48.813" height="24.398"/>
	<rect x="253.8" y="404.915" fill-rule="evenodd" clip-rule="evenodd" fill="#EBEFF0" width="48.806" height="24.398"/>
	<polygon fill-rule="evenodd" clip-rule="evenodd" fill="#34495E" points="271.84,418.466 284.716,418.466 284.716,414.144
		280.969,414.144 280.969,391.363 271.69,391.363 271.69,396.003 275.895,396.003 275.895,414.144 271.84,414.144 	"/>
	<path fill-rule="evenodd" clip-rule="evenodd" fill="#34495E" d="M350.312,399.407c0.033-2.437,2.787-3.788,5.457-3.788
		c3.471,0,6.142,1.385,6.142,4.322c0,3.138-3.755,3.489-5.8,3.489c-5.332,0-10.98,1.852-10.98,8.077c0,2.402,0,4.757,0,7.127h21.92
		v-4.758h-16.823v-2.319c0-2.938,3.64-3.521,5.884-3.521c5.683,0,10.865-1.318,10.865-8.194c0-6.425-5.875-8.628-11.29-8.628
		c-4.991,0-10.397,2.471-10.439,8.195H350.312z"/>
	<rect x="437.077" y="374.624" fill-rule="evenodd" clip-rule="evenodd" fill="#BCC2C6" width="60.572" height="60.582"/>
	<rect x="514.964" y="374.624" fill-rule="evenodd" clip-rule="evenodd" fill="#BCC2C6" width="60.58" height="60.582"/>
	<rect x="520.855" y="380.516" fill-rule="evenodd" clip-rule="evenodd" fill="#FFFFFF" width="48.798" height="48.798"/>
	<rect x="442.959" y="380.516" fill-rule="evenodd" clip-rule="evenodd" fill="#FFFFFF" width="48.808" height="48.798"/>
	<rect x="520.855" y="404.915" fill-rule="evenodd" clip-rule="evenodd" fill="#EBEFF0" width="48.798" height="24.398"/>
	<rect x="442.959" y="404.915" fill-rule="evenodd" clip-rule="evenodd" fill="#EBEFF0" width="48.808" height="24.398"/>
	<path fill-rule="evenodd" clip-rule="evenodd" fill="#34495E" d="M467.484,406.65c4.872,0,5.757,2.02,5.757,3.638
		c0,2.904-3.438,3.988-6.033,3.988c-2.203,0-5.949-0.968-5.949-3.755h-5.148c0.041,6.159,5.916,8.312,11.056,8.312
		c5.226,0,11.449-1.97,11.449-8.577c0-2.287-1.819-4.842-4.405-5.691c2.36-0.734,3.754-3.205,3.754-5.341
		c-0.049-5.758-5.541-8.228-10.639-8.228c-4.99,0-10.789,2.119-10.789,7.96h5.106c0-2.47,3.246-3.321,5.642-3.321
		c4.338,0,5.573,2.053,5.573,3.588c-0.042,2.52-2.938,3.254-5.691,3.254h-3.905v4.173H467.484z"/>
	<path fill-rule="evenodd" clip-rule="evenodd" fill="#34495E" d="M539.446,408.335l9.171-12.516v12.516H539.446z M545.871,391.396
		l-12.183,16.706l0.468,5.189h14.461v5.14h5.032v-5.14h3.17v-4.957h-3.17v-16.938H545.871z"/>
	<rect x="410.708" y="390.646" fill-rule="evenodd" clip-rule="evenodd" fill="#BCC2C6" width="5.891" height="5.892"/>
	<rect x="410.708" y="413.309" fill-rule="evenodd" clip-rule="evenodd" fill="#BCC2C6" width="5.891" height="5.875"/>
	<path fill-rule="evenodd" clip-rule="evenodd" fill="#BCC2C6" d="M328.849,480.966h165.754c2.17,0,3.939,1.769,3.939,3.938l0,0
		c0,2.152-1.77,3.922-3.939,3.922H328.849c-2.169,0-3.938-1.77-3.938-3.922l0,0C324.911,482.734,326.68,480.966,328.849,480.966"/>
	<path fill-rule="evenodd" clip-rule="evenodd" fill="#BCC2C6" d="M368.401,509.403h86.648c2.17,0,3.939,1.77,3.939,3.922v0.018
		c0,2.152-1.77,3.922-3.939,3.922h-86.648c-2.168,0-3.938-1.77-3.938-3.922v-0.018C364.463,511.173,366.233,509.403,368.401,509.403
		"/>
	<!-- <path fill-rule="evenodd" clip-rule="evenodd" fill="#94A4A5" d="M465.765,215.141c1.569,0,2.271,1.067,2.271,2.136
		c0,1.067-0.685,2.127-2.271,2.127h-3.813v-4.264H465.765z M471.189,225.921l-4.007-4.53c2.521-0.509,3.355-2.345,3.355-4.173
		c0-2.303-1.652-4.38-4.773-4.397c-2.103,0.017-4.205,0-6.309,0v13.268h2.495v-4.431h2.412l3.854,4.431h2.972V225.921z
		 M452.864,223.627h-7.434v-2.996h7.174v-2.319h-7.174v-3.071h7.434v-2.42h-9.913c0,4.422,0,8.853,0,13.268h9.913V223.627z
		 M430.134,226.089h2.495V215.09h4.206v-2.269c-3.848,0-7.084,0-10.907,0v2.269h4.206V226.089z M417.275,221.049l-6.492-8.228
		h-2.027v13.268h2.503v-8.946l6.968,8.946h1.552v-13.268h-2.503V221.049z M399.009,212.854v7.593c0,2.27-1.167,3.656-3.237,3.656
		c-2.069,0-3.43-1.269-3.43-3.656v-7.593h-2.478v7.593c0,3.998,2.702,5.925,5.891,5.925c3.33,0,5.732-2.002,5.732-5.925v-7.593
		H399.009z M376.597,214.84c3.12,0,4.371,2.503,4.33,4.74c-0.042,2.177-1.21,4.522-4.33,4.522c-3.13,0-4.307-2.329-4.357-4.506
		C372.182,217.36,373.467,214.84,376.597,214.84z M376.597,212.571c-4.591,0-6.826,3.505-6.826,6.984
		c0,3.488,2.17,6.834,6.826,6.834c4.655,0,6.758-3.421,6.792-6.85C383.431,216.076,381.151,212.571,376.597,212.571z
		 M362.627,222.701c-0.876,0.868-2.187,1.343-3.338,1.343c-3.278,0-4.54-2.286-4.563-4.489c-0.018-2.211,1.36-4.597,4.563-4.597
		c1.151,0,2.329,0.392,3.204,1.251l1.66-1.61c-1.358-1.343-3.062-2.027-4.864-2.027c-4.789,0-7.042,3.521-7.025,6.984
		c0.017,3.446,2.103,6.834,7.025,6.834c1.911,0,3.672-0.617,5.042-1.969L362.627,222.701z"/> -->
</g>
</svg>
