<?xml version="1.0" encoding="utf-8"?>
<!-- Generator: Adobe Illustrator 15.1.0, SVG Export Plug-In . SVG Version: 6.00 Build 0)  -->
<!DOCTYPE svg PUBLIC "-//W3C//DTD SVG 1.0//EN" "http://www.w3.org/TR/2001/REC-SVG-20010904/DTD/svg10.dtd">
<svg version="1.0" id="Layer_1" xmlns="http://www.w3.org/2000/svg" xmlns:xlink="http://www.w3.org/1999/xlink" x="0px" y="0px"
	 width="800px" height="800px" viewBox="207.26199340820312 191.99400329589844 421.4549865722656 378.32904052734375" enable-background="new 0 0 800 800" xml:space="preserve">
<g>
	<!-- <path fill="#BCC2C6" d="M223.493,191.994h389.003c4.464,0,8.527,1.827,11.465,4.765v0.016c2.938,2.946,4.756,6.993,4.756,11.449
		v345.868c0,4.456-1.818,8.512-4.756,11.449v0.017c-2.938,2.938-7.001,4.765-11.465,4.765H223.493
		c-4.472,0-8.527-1.827-11.465-4.765v-0.017c-2.938-2.938-4.766-6.993-4.766-11.449V208.224c0-4.456,1.828-8.503,4.766-11.449
		v-0.016C214.966,193.821,219.021,191.994,223.493,191.994"/>
	<path fill="#EBEFF0" d="M622.834,208.224v345.868c0,6.518-4.54,10.348-10.338,10.348H223.493c-5.79,0-10.338-3.722-10.338-10.348
		V208.224c0-6.751,4.563-10.339,10.338-10.339h389.003C618.285,197.884,622.834,201.598,622.834,208.224"/> -->
	<path fill="#BCC2C6" d="M221.349,239.515H614.64c3.88,0,7.401,1.586,9.946,4.13c2.553,2.554,4.131,6.075,4.131,9.956v302.637
		c0,3.88-1.578,7.401-4.131,9.947c-2.545,2.552-6.066,4.138-9.946,4.138H221.349c-3.88,0-7.402-1.586-9.946-4.138
		c-2.553-2.546-4.14-6.067-4.14-9.947V253.601c0-3.88,1.587-7.402,4.14-9.956C213.946,241.101,217.469,239.515,221.349,239.515"/>
	<path fill-rule="evenodd" clip-rule="evenodd" fill="#FFFFFF" d="M221.349,245.397c-2.179,0-4.247,0.868-5.782,2.412
		c-1.545,1.544-2.411,3.613-2.411,5.792v302.637c0,2.178,0.866,4.248,2.411,5.79c1.535,1.535,3.604,2.412,5.782,2.412H614.64
		c2.179,0,4.247-0.877,5.782-2.412c1.545-1.542,2.412-3.604,2.412-5.79V253.601c0-2.187-0.867-4.248-2.412-5.792
		c-1.535-1.543-3.604-2.412-5.782-2.412H221.349z"/>
	<!-- <path fill-rule="evenodd" clip-rule="evenodd" fill="#94A4A5" d="M564.022,211.987c4.147,0,7.502,3.354,7.502,7.493
		s-3.354,7.493-7.502,7.493c-4.139,0-7.493-3.354-7.493-7.493S559.884,211.987,564.022,211.987 M587.57,211.987
		c4.139,0,7.493,3.354,7.493,7.493s-3.354,7.493-7.493,7.493c-4.147,0-7.502-3.354-7.502-7.493S583.431,211.987,587.57,211.987z
		 M540.483,211.987c4.138,0,7.492,3.354,7.492,7.493s-3.354,7.493-7.492,7.493c-4.14,0-7.495-3.354-7.495-7.493
		S536.344,211.987,540.483,211.987z"/> -->
	<path fill-rule="evenodd" clip-rule="evenodd" fill="#BCC2C6" d="M264.641,351.957h306.708c2.17,0,3.938,1.769,3.938,3.93l0,0
		c0,2.169-1.769,3.938-3.938,3.938H264.641c-2.17,0-3.939-1.769-3.939-3.938l0,0C260.701,353.726,262.471,351.957,264.641,351.957"
		/>
	<path fill-rule="evenodd" clip-rule="evenodd" fill="#BCC2C6" d="M264.641,332.264H465.25c2.16,0,3.929,1.777,3.929,3.938l0,0
		c0,2.17-1.769,3.938-3.929,3.938H264.641c-2.17,0-3.939-1.769-3.939-3.938l0,0C260.701,334.041,262.471,332.264,264.641,332.264"/>
	<path fill-rule="evenodd" clip-rule="evenodd" fill="#BCC2C6" d="M264.641,422.909h306.708c2.17,0,3.938,1.77,3.938,3.93
		c0,2.17-1.769,3.939-3.938,3.939H264.641c-2.17,0-3.939-1.77-3.939-3.939C260.701,424.679,262.471,422.909,264.641,422.909"/>
	<path fill-rule="evenodd" clip-rule="evenodd" fill="#BCC2C6" d="M264.641,403.224H465.25c2.16,0,3.929,1.762,3.929,3.932l0,0
		c0,2.161-1.769,3.938-3.929,3.938H264.641c-2.17,0-3.939-1.776-3.939-3.938l0,0C260.701,404.985,262.471,403.224,264.641,403.224"
		/>
	<path fill-rule="evenodd" clip-rule="evenodd" fill="#BCC2C6" d="M264.641,493.862h306.708c2.17,0,3.938,1.77,3.938,3.93l0,0
		c0,2.169-1.769,3.939-3.938,3.939H264.641c-2.17,0-3.939-1.771-3.939-3.939l0,0C260.701,495.632,262.471,493.862,264.641,493.862"
		/>
	<path fill-rule="evenodd" clip-rule="evenodd" fill="#BCC2C6" d="M264.641,474.17H465.25c2.16,0,3.929,1.776,3.929,3.938l0,0
		c0,2.17-1.769,3.939-3.929,3.939H264.641c-2.17,0-3.939-1.77-3.939-3.939l0,0C260.701,475.946,262.471,474.17,264.641,474.17"/>
	<path fill-rule="evenodd" clip-rule="evenodd" fill="#34495E" d="M264.641,308.106h116.73c2.161,0,3.93,1.769,3.93,3.93v0.008
		c0,2.161-1.769,3.93-3.93,3.93h-116.73c-2.17,0-3.939-1.77-3.939-3.93v-0.008C260.701,309.875,262.471,308.106,264.641,308.106"/>
	<path fill-rule="evenodd" clip-rule="evenodd" fill="#34495E" d="M264.641,380.186h116.73c2.161,0,3.93,1.769,3.93,3.938l0,0
		c0,2.161-1.769,3.931-3.93,3.931h-116.73c-2.17,0-3.939-1.77-3.939-3.931l0,0C260.701,381.955,262.471,380.186,264.641,380.186"/>
	<path fill-rule="evenodd" clip-rule="evenodd" fill="#34495E" d="M264.641,452.265h116.73c2.161,0,3.93,1.771,3.93,3.939l0,0
		c0,2.161-1.769,3.929-3.93,3.929h-116.73c-2.17,0-3.939-1.768-3.939-3.929l0,0C260.701,454.035,262.471,452.265,264.641,452.265"/>
	<!-- <path fill-rule="evenodd" clip-rule="evenodd" fill="#94A4A5" d="M452.115,214.398c-1.102-2.245-3.446-2.887-5.709-2.887
		c-2.677,0.025-5.623,1.243-5.623,4.239c0,3.254,2.737,4.047,5.707,4.398c1.928,0.208,3.355,0.768,3.355,2.136
		c0,1.577-1.619,2.177-3.338,2.177c-1.762,0-3.447-0.708-4.09-2.303l-2.285,1.185c1.084,2.654,3.362,3.572,6.332,3.572
		c3.238,0,6.101-1.394,6.101-4.631c0-3.463-2.821-4.256-5.85-4.631c-1.743-0.201-3.237-0.559-3.237-1.828
		c0-1.077,0.976-1.927,3.012-1.927c1.576,0,2.946,0.793,3.439,1.619L452.115,214.398z M426.897,214.131
		c3.421,0,4.647,2.528,4.749,4.873c0.107,2.487-1.469,5.249-4.749,5.249c-3.153,0-4.731-2.552-4.772-4.939
		C422.083,216.868,423.477,214.131,426.897,214.131z M426.897,211.661c-5.106,0-7.493,3.797-7.476,7.593
		c0.023,3.771,2.302,7.535,7.476,7.535c1.637,0,3.029-0.375,4.131-1.084l1.762,1.744l1.935-1.928l-1.727-1.702
		c0.934-1.353,1.368-3.071,1.351-4.731C434.283,215.35,432.006,211.661,426.897,211.661z M409.592,221.25h-5.399l2.696-6.2
		L409.592,221.25z M411.911,226.54h2.986l-6.516-14.552h-2.987l-6.518,14.552h2.971l1.243-2.746h7.603L411.911,226.54z
		 M386.16,226.54v-5.374h7.286v-2.537h-7.286v-3.964h7.702v-2.637h-10.44v14.511H386.16z"/> -->
</g>
</svg>
