<?xml version="1.0" encoding="utf-8"?>
<!-- Generator: Adobe Illustrator 15.1.0, SVG Export Plug-In . SVG Version: 6.00 Build 0)  -->
<!DOCTYPE svg PUBLIC "-//W3C//DTD SVG 1.0//EN" "http://www.w3.org/TR/2001/REC-SVG-20010904/DTD/svg10.dtd">
<svg version="1.0" id="Layer_1" xmlns="http://www.w3.org/2000/svg" xmlns:xlink="http://www.w3.org/1999/xlink" x="0px" y="0px"
	 width="800px" height="800px" viewBox="213.10699462890625 191.99400329589844 421.45404052734375 378.32904052734375" enable-background="new 0 0 800 800" xml:space="preserve">
<g>
	<!-- <path fill="#BCC2C6" d="M229.329,191.994H618.33c4.472,0,8.527,1.827,11.465,4.765v0.016c2.938,2.946,4.766,6.993,4.766,11.449
		v345.868c0,4.456-1.828,8.512-4.766,11.449v0.017c-2.938,2.938-6.993,4.765-11.465,4.765H229.329
		c-4.474,0-8.529-1.827-11.466-4.765v-0.017c-2.937-2.938-4.756-6.993-4.756-11.449V208.224c0-4.456,1.819-8.503,4.756-11.449
		v-0.016C220.8,193.821,224.855,191.994,229.329,191.994"/>
	<path fill="#EBEFF0" d="M628.677,208.224v345.868c0,6.518-4.539,10.348-10.347,10.348H229.329c-5.791,0-10.34-3.722-10.34-10.348
		V208.224c0-6.751,4.564-10.339,10.34-10.339H618.33C624.12,197.884,628.677,201.598,628.677,208.224"/> -->
	<path fill="#BCC2C6" d="M227.192,239.515h393.282c3.88,0,7.402,1.586,9.955,4.13c2.544,2.554,4.131,6.075,4.131,9.956v302.637
		c0,3.88-1.587,7.401-4.131,9.947c-2.553,2.552-6.075,4.138-9.955,4.138H227.192c-3.88,0-7.401-1.586-9.955-4.138
		c-2.546-2.546-4.13-6.067-4.13-9.947V253.601c0-3.88,1.584-7.402,4.13-9.956C219.791,241.101,223.313,239.515,227.192,239.515"/>
	<path fill-rule="evenodd" clip-rule="evenodd" fill="#FFFFFF" d="M227.192,245.397c-2.187,0-4.256,0.868-5.791,2.412
		c-1.544,1.544-2.412,3.613-2.412,5.792v302.637c0,2.178,0.868,4.248,2.412,5.79c1.535,1.535,3.604,2.412,5.791,2.412h393.282
		c2.178,0,4.248-0.877,5.783-2.412c1.544-1.542,2.419-3.604,2.419-5.79V253.601c0-2.187-0.875-4.248-2.419-5.792
		c-1.535-1.543-3.605-2.412-5.783-2.412H227.192z"/>
	<!-- <path fill-rule="evenodd" clip-rule="evenodd" fill="#94A4A5" d="M569.865,211.987c4.139,0,7.493,3.354,7.493,7.493
		s-3.354,7.493-7.493,7.493c-4.138,0-7.493-3.354-7.493-7.493S565.728,211.987,569.865,211.987 M593.404,211.987
		c4.14,0,7.503,3.354,7.503,7.493s-3.363,7.493-7.503,7.493c-4.146,0-7.501-3.354-7.501-7.493S589.267,211.987,593.404,211.987z
		 M546.316,211.987c4.14,0,7.495,3.354,7.495,7.493s-3.355,7.493-7.495,7.493c-4.138,0-7.492-3.354-7.492-7.493
		S542.179,211.987,546.316,211.987z"/> -->
	<rect x="271.776" y="277.841" fill-rule="evenodd" clip-rule="evenodd" fill="#34495E" width="41.297" height="41.297"/>
	<rect x="277.659" y="283.724" fill="#22A6EF" width="29.532" height="29.531"/>
	<path fill-rule="evenodd" clip-rule="evenodd" fill="#BCC2C6" d="M331.899,304.401h240.052c2.17,0,3.938,1.769,3.938,3.93l0,0
		c0,2.17-1.769,3.938-3.938,3.938H331.899c-2.17,0-3.94-1.769-3.94-3.938l0,0C327.959,306.17,329.729,304.401,331.899,304.401"/>
	<path fill-rule="evenodd" clip-rule="evenodd" fill="#BCC2C6" d="M331.899,284.708h156.424c2.17,0,3.938,1.777,3.938,3.938l0,0
		c0,2.17-1.769,3.931-3.938,3.931H331.899c-2.17,0-3.94-1.761-3.94-3.931l0,0C327.959,286.485,329.729,284.708,331.899,284.708"/>
	<path fill-rule="evenodd" clip-rule="evenodd" fill="#BCC2C6" d="M331.899,375.346h240.052c2.17,0,3.938,1.777,3.938,3.939
		c0,2.169-1.769,3.938-3.938,3.938H331.899c-2.17,0-3.94-1.769-3.94-3.938C327.959,377.123,329.729,375.346,331.899,375.346"/>
	<path fill-rule="evenodd" clip-rule="evenodd" fill="#BCC2C6" d="M331.899,355.661h156.424c2.17,0,3.938,1.769,3.938,3.939l0,0
		c0,2.161-1.769,3.938-3.938,3.938H331.899c-2.17,0-3.94-1.777-3.94-3.938l0,0C327.959,357.43,329.729,355.661,331.899,355.661"/>
	<rect x="271.776" y="348.794" fill-rule="evenodd" clip-rule="evenodd" fill="#34495E" width="41.297" height="41.297"/>
	<rect x="277.659" y="354.676" fill="#22A6EF" width="29.532" height="29.531"/>
	<path fill-rule="evenodd" clip-rule="evenodd" fill="#BCC2C6" d="M331.899,446.308h240.052c2.17,0,3.938,1.76,3.938,3.93l0,0
		c0,2.17-1.769,3.938-3.938,3.938H331.899c-2.17,0-3.94-1.769-3.94-3.938l0,0C327.959,448.067,329.729,446.308,331.899,446.308"/>
	<path fill-rule="evenodd" clip-rule="evenodd" fill="#BCC2C6" d="M331.899,426.613h156.424c2.17,0,3.938,1.778,3.938,3.939l0,0
		c0,2.161-1.769,3.932-3.938,3.932H331.899c-2.17,0-3.94-1.771-3.94-3.932l0,0C327.959,428.392,329.729,426.613,331.899,426.613"/>
	<rect x="271.776" y="419.747" fill-rule="evenodd" clip-rule="evenodd" fill="#34495E" width="41.297" height="41.296"/>
	<rect x="277.659" y="425.63" fill="#22A6EF" width="29.532" height="29.531"/>
	<path fill-rule="evenodd" clip-rule="evenodd" fill="#BCC2C6" d="M331.899,517.252h240.052c2.17,0,3.938,1.777,3.938,3.938
		c0,2.17-1.769,3.938-3.938,3.938H331.899c-2.17,0-3.94-1.768-3.94-3.938C327.959,519.029,329.729,517.252,331.899,517.252"/>
	<path fill-rule="evenodd" clip-rule="evenodd" fill="#BCC2C6" d="M331.899,497.567h156.424c2.17,0,3.938,1.769,3.938,3.938
		c0,2.161-1.769,3.932-3.938,3.932H331.899c-2.17,0-3.94-1.771-3.94-3.932C327.959,499.336,329.729,497.567,331.899,497.567"/>
	<rect x="271.776" y="490.699" fill-rule="evenodd" clip-rule="evenodd" fill="#34495E" width="41.297" height="41.298"/>
	<rect x="277.659" y="496.583" fill="#22A6EF" width="29.532" height="29.53"/>
	<!-- <path fill-rule="evenodd" clip-rule="evenodd" fill="#94A4A5" d="M460.319,225.688h2.338v-12.433h-2.68l-3.896,5.349l-3.889-5.349
		h-2.704v12.433h2.345v-9.037l3.964,5.416h0.467l4.056-5.399V225.688z M441.344,213.255v7.134c0,2.128-1.102,3.43-3.037,3.43
		s-3.222-1.193-3.222-3.43v-7.134h-2.318v7.134c0,3.747,2.535,5.566,5.523,5.566c3.129,0,5.391-1.886,5.391-5.566v-7.134H441.344z
		 M422.828,215.407c1.477,0,2.136,1.001,2.136,2.003c0,1.001-0.642,2.002-2.136,2.002h-3.579v-4.006H422.828z M427.927,225.53
		l-3.772-4.247c2.37-0.485,3.154-2.212,3.154-3.922c0-2.162-1.552-4.122-4.48-4.139c-1.978,0.017-3.946,0-5.917,0v12.466h2.338
		v-4.164h2.269l3.621,4.164h2.788V225.53z M405.279,215.124c2.938,0,4.106,2.354,4.072,4.449c-0.033,2.044-1.135,4.247-4.072,4.247
		s-4.039-2.187-4.088-4.231C401.142,217.494,402.342,215.124,405.279,215.124z M405.279,212.996c-4.297,0-6.392,3.288-6.392,6.559
		c0,3.271,2.02,6.417,6.392,6.417c4.374,0,6.35-3.222,6.392-6.434C411.705,216.284,409.567,212.996,405.279,212.996z
		 M387.347,225.688v-4.606h6.242v-2.169h-6.242v-3.397h6.602v-2.261h-8.945v12.433H387.347z"/> -->
</g>
</svg>
