<?xml version="1.0" encoding="utf-8"?>
<!-- Generator: Adobe Illustrator 15.1.0, SVG Export Plug-In . SVG Version: 6.00 Build 0)  -->
<!DOCTYPE svg PUBLIC "-//W3C//DTD SVG 1.0//EN" "http://www.w3.org/TR/2001/REC-SVG-20010904/DTD/svg10.dtd">
<svg version="1.0" id="Layer_1" xmlns="http://www.w3.org/2000/svg" xmlns:xlink="http://www.w3.org/1999/xlink" x="0px" y="0px"
	 width="800px" height="800px" viewBox="203.99099731445312 200.41400146484375 421.4770202636719 378.35400390625" enable-background="new 0 0 800 800" xml:space="preserve">
<g>
	<!-- <path fill="#BCC2C6" d="M220.214,200.414h389.021c4.473,0,8.528,1.836,11.466,4.773v0.017c2.938,2.937,4.767,6.993,4.767,11.449
		v345.873c0,4.456-1.828,8.512-4.767,11.449v0.017c-2.938,2.938-6.993,4.774-11.466,4.774H220.214
		c-4.474,0-8.528-1.837-11.467-4.774v-0.017c-2.936-2.938-4.756-6.993-4.756-11.449V216.653c0-4.456,1.82-8.512,4.756-11.449v-0.017
		C211.686,202.25,215.74,200.414,220.214,200.414"/>
	<path fill="#EBEFF0" d="M619.582,216.653v345.873c0,6.527-4.539,10.349-10.348,10.349H220.214c-5.79,0-10.341-3.723-10.341-10.349
		V216.653c0-6.759,4.566-10.347,10.341-10.347h389.021C615.026,206.307,619.582,210.028,619.582,216.653"/> -->
	<path fill="#BCC2C6" d="M218.076,247.947H611.38c3.879,0,7.401,1.585,9.954,4.123c2.545,2.553,4.133,6.075,4.133,9.964v302.646
		c0,3.873-1.588,7.395-4.133,9.948c-2.553,2.553-6.075,4.14-9.954,4.14H218.076c-3.879,0-7.4-1.587-9.953-4.14
		c-2.546-2.554-4.132-6.075-4.132-9.948V262.033c0-3.889,1.586-7.411,4.132-9.964C210.676,249.532,214.197,247.947,218.076,247.947"
		/>
	<path fill-rule="evenodd" clip-rule="evenodd" fill="#FFFFFF" d="M218.076,253.822c-2.186,0-4.254,0.884-5.789,2.42
		c-1.545,1.535-2.414,3.605-2.414,5.792v302.646c0,2.171,0.869,4.24,2.414,5.792c1.535,1.536,3.604,2.404,5.789,2.404H611.38
		c2.177,0,4.246-0.868,5.782-2.404c1.543-1.552,2.42-3.604,2.42-5.792V262.033c0-2.187-0.877-4.256-2.42-5.792
		c-1.536-1.553-3.605-2.42-5.782-2.42H218.076z"/>
	<!-- <path fill-rule="evenodd" clip-rule="evenodd" fill="#94A4A5" d="M560.768,220.409c4.139,0,7.494,3.354,7.494,7.494
		c0,4.139-3.355,7.51-7.494,7.51c-4.14,0-7.494-3.372-7.494-7.51C553.273,223.763,556.628,220.409,560.768,220.409 M584.309,220.409
		c4.139,0,7.502,3.354,7.502,7.494c0,4.139-3.363,7.51-7.502,7.51c-4.148,0-7.502-3.372-7.502-7.51
		C576.807,223.763,580.168,220.409,584.309,220.409z M537.219,220.409c4.139,0,7.492,3.354,7.492,7.494
		c0,4.139-3.354,7.51-7.492,7.51c-4.141,0-7.494-3.372-7.494-7.51C529.725,223.763,533.078,220.409,537.219,220.409z"/> -->
	<path fill-rule="evenodd" clip-rule="evenodd" fill="#34495E" d="M414.724,429.73L414.724,429.73c1.62,0,2.946,1.318,2.946,2.938
		v16.989c0,1.62-1.326,2.938-2.946,2.938l0,0c-1.618,0-2.944-1.317-2.944-2.938v-16.989
		C411.779,431.049,413.105,429.73,414.724,429.73"/>
	<path fill-rule="evenodd" clip-rule="evenodd" fill="#34495E" d="M401.832,424.373v0.017c1.143,1.136,1.143,3.005,0,4.155
		l-12.018,12.018c-1.144,1.135-3.021,1.135-4.154,0c-1.152-1.15-1.152-3.021,0-4.172l12.007-12.018
		C398.811,423.239,400.681,423.239,401.832,424.373"/>
	<path fill-rule="evenodd" clip-rule="evenodd" fill="#34495E" d="M396.49,411.488L396.49,411.488c0,1.62-1.327,2.939-2.945,2.939
		h-16.99c-1.619,0-2.946-1.319-2.946-2.939c0-1.617,1.327-2.938,2.946-2.938h16.99C395.163,408.551,396.49,409.871,396.49,411.488"
		/>
	<path fill-rule="evenodd" clip-rule="evenodd" fill="#34495E" d="M401.832,398.588L401.832,398.588
		c-1.151,1.151-3.021,1.151-4.165,0l-12.007-12c-1.152-1.15-1.152-3.021,0-4.172l0,0c1.134-1.134,3.011-1.134,4.154,0l12.018,12.018
		C402.975,395.567,402.975,397.453,401.832,398.588"/>
	<path fill-rule="evenodd" clip-rule="evenodd" fill="#34495E" d="M414.724,370.382L414.724,370.382c1.62,0,2.946,1.319,2.946,2.938
		v16.99c0,1.619-1.326,2.937-2.946,2.937l0,0c-1.618,0-2.944-1.318-2.944-2.937v-16.99
		C411.779,371.701,413.105,370.382,414.724,370.382"/>
	<path fill-rule="evenodd" clip-rule="evenodd" fill="#34495E" d="M443.789,382.415L443.789,382.415
		c1.152,1.152,1.152,3.022,0,4.172l-12.009,12c-1.143,1.151-3.011,1.151-4.164,0l0,0c-1.135-1.135-1.135-3.021,0-4.155
		l12.017-12.018C440.777,381.281,442.654,381.281,443.789,382.415"/>
	<path fill-rule="evenodd" clip-rule="evenodd" fill="#34495E" d="M455.839,411.488L455.839,411.488c0,1.62-1.325,2.939-2.946,2.939
		h-16.998c-1.609,0-2.938-1.319-2.938-2.939c0-1.617,1.328-2.938,2.938-2.938h16.998
		C454.514,408.551,455.839,409.871,455.839,411.488"/>
	<path fill-rule="evenodd" clip-rule="evenodd" fill="#34495E" d="M443.789,440.563L443.789,440.563
		c-1.135,1.135-3.012,1.135-4.156,0l-12.017-12.018c-1.135-1.15-1.135-3.02,0-4.172c1.153-1.134,3.021-1.134,4.164,0l12.009,12.018
		C444.941,437.541,444.941,439.412,443.789,440.563"/>
	<path fill-rule="evenodd" clip-rule="evenodd" fill="#BCC2C6" d="M371.396,302.456h86.654c2.16,0,3.938,1.769,3.938,3.939l0,0
		c0,2.152-1.777,3.921-3.938,3.921h-86.654c-2.16,0-3.93-1.769-3.93-3.921l0,0C367.467,304.224,369.236,302.456,371.396,302.456"/>
	<path fill-rule="evenodd" clip-rule="evenodd" fill="#BCC2C6" d="M299.449,516.38h230.56c2.159,0,3.921,1.769,3.921,3.938l0,0
		c0,2.171-1.762,3.939-3.921,3.939h-230.56c-2.17,0-3.932-1.769-3.932-3.939l0,0C295.518,518.148,297.279,516.38,299.449,516.38"/>
	<!-- <path fill-rule="evenodd" clip-rule="evenodd" fill="#94A4A5" d="M477.427,221.86c-1.669-1.652-3.845-2.486-6.032-2.486
		c-5.725,0-8.58,4.223-8.58,8.795c0,4.256,2.488,8.277,8.58,8.277c2.854,0,4.873-1.101,6.476-2.92v-6.842h-6.96v2.737h4.156v2.871
		c-1.277,1.018-2.395,1.302-3.672,1.302c-4.033,0-5.582-2.771-5.582-5.424c0-3.337,2.111-5.992,5.582-5.992
		c1.417,0,3.037,0.584,4.131,1.619L477.427,221.86z M453.688,229.889l-7.945-10.081h-2.487v16.256h3.062v-10.948l8.537,10.948h1.904
		v-16.256h-3.07V229.889z M436.236,236.064v-16.256H433.2v16.256H436.236z M415.533,222.712h3.339c3.528,0,5.015,2.537,5.091,5.073
		c0.066,2.654-1.402,5.341-5.091,5.341h-3.339V222.712z M418.872,219.808c-1.987,0-4.372,0-6.376,0v16.256c2.004,0,4.389,0,6.376,0
		c5.69,0,8.192-4.139,8.128-8.262C426.924,223.78,424.445,219.808,418.872,219.808z M400.98,230.155h-6.024l3.02-6.926
		L400.98,230.155z M403.584,236.064h3.338l-7.277-16.256h-3.347l-7.284,16.256h3.322l1.394-3.055h8.485L403.584,236.064z
		 M376.205,222.295c3.83,0,5.357,3.07,5.315,5.807c-0.051,2.655-1.485,5.542-5.315,5.542c-3.832,0-5.268-2.854-5.333-5.524
		C370.805,225.382,372.373,222.295,376.205,222.295z M376.205,219.508c-5.616,0-8.354,4.289-8.354,8.561
		c0,4.273,2.654,8.378,8.354,8.378c5.699,0,8.277-4.205,8.318-8.394C384.574,223.796,381.787,219.508,376.205,219.508z
		 M351.58,219.808v16.256h11.414v-2.821h-8.346v-13.435H351.58z"/> -->
</g>
</svg>
