<?xml version="1.0" encoding="utf-8"?>
<!-- Generator: Adobe Illustrator 15.1.0, SVG Export Plug-In . SVG Version: 6.00 Build 0)  -->
<!DOCTYPE svg PUBLIC "-//W3C//DTD SVG 1.0//EN" "http://www.w3.org/TR/2001/REC-SVG-20010904/DTD/svg10.dtd">
<svg version="1.0" id="Layer_1" xmlns="http://www.w3.org/2000/svg" xmlns:xlink="http://www.w3.org/1999/xlink" x="0px" y="0px"
	 width="800px" height="800px" viewBox="193.12799072265625 200.41400146484375 421.47705078125 378.35400390625" enable-background="new 0 0 800 800" xml:space="preserve">
<g>
	<!-- <path fill="#BCC2C6" d="M209.353,200.414h389.021c4.472,0,8.527,1.836,11.464,4.773v0.017c2.938,2.937,4.767,6.993,4.767,11.449
		v345.873c0,4.456-1.829,8.512-4.767,11.449v0.017c-2.937,2.938-6.992,4.774-11.464,4.774H209.353
		c-4.475,0-8.529-1.837-11.467-4.774v-0.017c-2.938-2.938-4.758-6.993-4.758-11.449V216.653c0-4.456,1.82-8.512,4.758-11.449v-0.017
		C200.823,202.25,204.878,200.414,209.353,200.414"/>
	<path fill="#EBEFF0" d="M608.719,216.653v345.873c0,6.527-4.54,10.349-10.346,10.349H209.353c-5.792,0-10.34-3.723-10.34-10.349
		V216.653c0-6.759,4.563-10.347,10.34-10.347h389.021C604.163,206.307,608.719,210.028,608.719,216.653"/> -->
	<path fill="#BCC2C6" d="M207.215,247.947h393.302c3.881,0,7.402,1.569,9.955,4.123c2.546,2.553,4.132,6.075,4.132,9.964v302.646
		c0,3.873-1.586,7.395-4.132,9.948c-2.553,2.553-6.074,4.14-9.955,4.14H207.215c-3.879,0-7.401-1.587-9.955-4.14
		c-2.546-2.554-4.132-6.075-4.132-9.948V262.033c0-3.889,1.586-7.411,4.132-9.964C199.813,249.516,203.336,247.947,207.215,247.947"
		/>
	<path fill-rule="evenodd" clip-rule="evenodd" fill="#FFFFFF" d="M207.215,253.822c-2.186,0-4.257,0.867-5.79,2.42
		c-1.546,1.535-2.412,3.605-2.412,5.792v302.646c0,2.171,0.866,4.24,2.412,5.792c1.533,1.536,3.604,2.404,5.79,2.404h393.302
		c2.177,0,4.248-0.868,5.782-2.404c1.545-1.552,2.42-3.621,2.42-5.792V262.033c0-2.187-0.875-4.256-2.42-5.792
		c-1.534-1.553-3.605-2.42-5.782-2.42H207.215z"/>
	<!-- <path fill-rule="evenodd" clip-rule="evenodd" fill="#94A4A5" d="M549.904,220.409c4.14,0,7.493,3.354,7.493,7.494
		c0,4.139-3.354,7.494-7.493,7.494c-4.138,0-7.494-3.355-7.494-7.494C542.41,223.763,545.767,220.409,549.904,220.409
		 M573.445,220.409c4.14,0,7.501,3.354,7.501,7.494c0,4.139-3.361,7.494-7.501,7.494c-4.147,0-7.502-3.355-7.502-7.494
		C565.943,223.763,569.308,220.409,573.445,220.409z M526.355,220.409c4.14,0,7.493,3.354,7.493,7.494
		c0,4.139-3.354,7.494-7.493,7.494s-7.494-3.355-7.494-7.494C518.861,223.763,522.216,220.409,526.355,220.409z"/> -->
	<path fill-rule="evenodd" clip-rule="evenodd" fill="#BCC2C6" d="M261.122,287.651h112.03c3.195,0,5.801,2.604,5.801,5.808v239.777
		c0,3.205-2.605,5.809-5.801,5.809h-112.03c-3.195,0-5.807-2.604-5.807-5.809V293.459
		C255.315,290.255,257.927,287.651,261.122,287.651"/>
	<rect x="261.206" y="293.543" fill-rule="evenodd" clip-rule="evenodd" fill="#FFFFFF" width="111.863" height="239.61"/>
	<rect x="292.048" y="320.848" fill-rule="evenodd" clip-rule="evenodd" fill="#34495E" width="50.179" height="50.169"/>
	<rect x="297.873" y="326.672" fill="#22A6EF" width="38.521" height="38.52"/>
	<path fill-rule="evenodd" clip-rule="evenodd" fill="#BCC2C6" d="M285.556,428.662h63.154c2.171,0,3.94-1.77,3.94-3.921l0,0
		c0-2.169-1.77-3.939-3.94-3.939h-63.154c-2.169,0-3.938,1.771-3.938,3.939l0,0C281.618,426.893,283.387,428.662,285.556,428.662"/>
	<path fill-rule="evenodd" clip-rule="evenodd" fill="#BCC2C6" d="M297.532,448.356h39.204c2.161,0,3.93-1.769,3.93-3.938l0,0
		c0-2.172-1.769-3.924-3.93-3.924h-39.204c-2.162,0-3.932,1.752-3.932,3.924l0,0C293.601,446.588,295.37,448.356,297.532,448.356"/>
	<path fill-rule="evenodd" clip-rule="evenodd" fill="#BCC2C6" d="M285.556,408.985h63.154c2.171,0,3.94-1.769,3.94-3.938
		s-1.77-3.938-3.94-3.938h-63.154c-2.169,0-3.938,1.769-3.938,3.938S283.387,408.985,285.556,408.985"/>
	<path fill="#BCC2C6" d="M340.658,487.257h-44.62c-1.72,0-3.28,0.7-4.406,1.834c-1.135,1.137-1.836,2.705-1.836,4.407
		c0,1.736,0.691,3.287,1.819,4.407l0.017,0.016c1.118,1.135,2.687,1.837,4.406,1.837h44.62c1.711,0,3.28-0.718,4.415-1.853
		c1.135-1.12,1.835-2.687,1.835-4.407c0-1.719-0.7-3.271-1.835-4.407C343.938,487.957,342.385,487.257,340.658,487.257
		 M296.038,481.151h44.62c3.396,0,6.483,1.385,8.72,3.619l0.019,0.016c2.235,2.235,3.621,5.323,3.621,8.712
		c0,3.405-1.386,6.492-3.621,8.745c-2.238,2.237-5.334,3.621-8.738,3.621h-44.62c-3.388,0-6.476-1.384-8.722-3.621l-0.008-0.018l0,0
		c-2.236-2.252-3.638-5.339-3.638-8.728s1.401-6.492,3.638-8.728C289.546,482.536,292.634,481.151,296.038,481.151z"/>
	<path fill="#34495E" d="M293.609,476.096h44.62c3.405,0,6.484,1.402,8.729,3.638h0.008c2.236,2.253,3.631,5.319,3.631,8.725
		c0,3.403-1.395,6.492-3.631,8.729c-2.244,2.235-5.331,3.621-8.736,3.621h-44.62c-3.388,0-6.476-1.386-8.721-3.621l0,0l-0.017-0.017
		c-2.235-2.238-3.621-5.325-3.621-8.713c0-3.405,1.386-6.488,3.621-8.725C287.117,477.498,290.204,476.096,293.609,476.096"/>
	<path fill="#27CABF" d="M338.229,479.783c2.303,0,4.507,0.9,6.142,2.537c1.627,1.632,2.545,3.835,2.545,6.138
		s-0.926,4.506-2.545,6.125c-1.635,1.636-3.829,2.554-6.142,2.554h-44.62c-2.304,0-4.497-0.902-6.133-2.536l-0.009-0.018
		c-1.628-1.619-2.546-3.822-2.546-6.125s0.927-4.506,2.555-6.138c1.636-1.619,3.821-2.537,6.133-2.537H338.229z"/>
	<path fill="#51F4E9" d="M338.229,479.783c2.303,0,4.507,0.9,6.142,2.537c1.627,1.632,2.545,3.835,2.545,6.138
		c0,0.585-0.059,1.168-0.175,1.735c-0.343-1.635-1.161-3.172-2.37-4.373c-1.635-1.636-3.839-2.555-6.142-2.555h-44.62
		c-2.312,0-4.497,0.919-6.133,2.555c-1.211,1.201-2.028,2.738-2.37,4.389c-0.118-0.566-0.185-1.166-0.185-1.751
		c0-2.303,0.927-4.506,2.555-6.138c1.636-1.619,3.821-2.537,6.133-2.537H338.229z"/>
	<path fill-rule="evenodd" clip-rule="evenodd" fill="#34495E" d="M434.579,287.651h112.021c3.204,0,5.807,2.604,5.807,5.808
		v239.777c0,3.205-2.603,5.809-5.807,5.809H434.579c-3.203,0-5.809-2.604-5.809-5.809V293.459
		C428.771,290.255,431.376,287.651,434.579,287.651"/>
	<rect x="434.662" y="293.543" fill-rule="evenodd" clip-rule="evenodd" fill="#22A6EF" width="111.863" height="239.61"/>
	<rect x="468.593" y="328.458" fill-rule="evenodd" clip-rule="evenodd" fill="#1C8DCB" width="50.178" height="50.187"/>
	<rect x="465.505" y="320.848" fill-rule="evenodd" clip-rule="evenodd" fill="#34495E" width="50.17" height="50.169"/>
	<rect x="471.33" y="326.672" fill="#39D4FF" width="38.521" height="38.52"/>
	<path fill-rule="evenodd" clip-rule="evenodd" fill="#34495E" d="M459.013,428.662h63.154c2.17,0,3.938-1.77,3.938-3.921l0,0
		c0-2.169-1.768-3.939-3.938-3.939h-63.154c-2.169,0-3.939,1.771-3.939,3.939l0,0C455.073,426.893,456.844,428.662,459.013,428.662"
		/>
	<path fill-rule="evenodd" clip-rule="evenodd" fill="#34495E" d="M470.987,448.356h39.204c2.162,0,3.931-1.769,3.931-3.938l0,0
		c0-2.172-1.769-3.924-3.931-3.924h-39.204c-2.161,0-3.93,1.752-3.93,3.924l0,0C467.058,446.588,468.826,448.356,470.987,448.356"/>
	<path fill-rule="evenodd" clip-rule="evenodd" fill="#34495E" d="M459.013,408.985h63.154c2.17,0,3.938-1.769,3.938-3.938
		s-1.768-3.938-3.938-3.938h-63.154c-2.169,0-3.939,1.769-3.939,3.938S456.844,408.985,459.013,408.985"/>
	<path fill="#1C8DCB" d="M514.113,487.257h-44.62c-1.718,0-3.278,0.7-4.404,1.834c-1.136,1.137-1.837,2.705-1.837,4.407
		c0,1.736,0.691,3.287,1.818,4.407l0.019,0.016c1.118,1.135,2.678,1.837,4.404,1.837h44.62c1.71,0,3.28-0.718,4.416-1.853
		c1.126-1.12,1.834-2.687,1.834-4.407c0-1.719-0.7-3.271-1.834-4.407C517.394,487.957,515.832,487.257,514.113,487.257
		 M469.493,481.151h44.62c3.397,0,6.484,1.385,8.721,3.619l0.017,0.016c2.236,2.235,3.621,5.323,3.621,8.712
		c0,3.405-1.385,6.492-3.621,8.745c-2.245,2.237-5.331,3.621-8.737,3.621h-44.62c-3.387,0-6.475-1.384-8.728-3.621v-0.018l0,0
		c-2.245-2.252-3.639-5.339-3.639-8.728s1.394-6.492,3.639-8.728C463.001,482.536,466.089,481.151,469.493,481.151z"/>
	<path fill="#34495E" d="M467.065,476.096h44.62c3.396,0,6.484,1.402,8.729,3.638l0,0c2.235,2.253,3.637,5.319,3.637,8.725
		c0,3.403-1.401,6.492-3.637,8.729c-2.237,2.235-5.325,3.621-8.729,3.621h-44.62c-3.389,0-6.476-1.386-8.72-3.621l0,0l-0.017-0.017
		c-2.237-2.238-3.623-5.325-3.623-8.713c0-3.405,1.386-6.488,3.623-8.725C460.565,477.498,463.661,476.096,467.065,476.096"/>
	<path fill="#27CABF" d="M511.686,479.783c2.303,0,4.505,0.9,6.142,2.537c1.627,1.632,2.545,3.835,2.545,6.138
		s-0.926,4.506-2.553,6.125c-1.629,1.636-3.822,2.554-6.134,2.554h-44.62c-2.304,0-4.506-0.902-6.133-2.536l-0.017-0.018
		c-1.62-1.619-2.537-3.822-2.537-6.125s0.925-4.506,2.554-6.138c1.627-1.619,3.821-2.537,6.133-2.537H511.686z"/>
	<path fill="#51F4E9" d="M511.686,479.783c2.303,0,4.505,0.9,6.142,2.537c1.627,1.632,2.545,3.835,2.545,6.138
		c0,0.585-0.058,1.168-0.174,1.735c-0.351-1.635-1.161-3.172-2.371-4.373c-1.637-1.636-3.839-2.555-6.142-2.555h-44.62
		c-2.312,0-4.506,0.919-6.133,2.555c-1.21,1.201-2.036,2.738-2.371,4.389c-0.116-0.566-0.183-1.166-0.183-1.751
		c0-2.303,0.925-4.506,2.554-6.138c1.627-1.619,3.821-2.537,6.133-2.537H511.686z"/>
	<!-- <path fill-rule="evenodd" clip-rule="evenodd" fill="#94A4A5" d="M445.11,232.993h-9.13v-3.672h8.804v-2.854h-8.804v-3.755h9.13
		v-2.988h-12.166c0,5.441,0,10.882,0,16.289h12.166V232.993z M424.932,231.857c-1.066,1.068-2.671,1.652-4.088,1.652
		c-4.023,0-5.574-2.82-5.601-5.507c-0.024-2.721,1.67-5.642,5.601-5.642c1.417,0,2.854,0.484,3.921,1.535l2.045-1.986
		c-1.678-1.635-3.763-2.486-5.966-2.486c-5.876,0-8.646,4.322-8.62,8.579c0.024,4.222,2.579,8.378,8.62,8.378
		c2.336,0,4.507-0.768,6.176-2.403L424.932,231.857z M405.556,236.013v-16.289h-3.038v16.289H405.556z M390.326,222.595
		c1.928,0,2.787,1.302,2.787,2.604c0,1.318-0.833,2.62-2.787,2.62h-4.665v-5.225H390.326z M396.993,235.813l-4.924-5.558
		c3.09-0.635,4.108-2.888,4.108-5.124c0-2.82-2.021-5.374-5.852-5.408c-2.577,0.034-5.156,0-7.735,0v16.289h3.07v-5.44h2.947
		l4.738,5.44h3.646V235.813z M370.282,219.724c-2.555-0.016-5.106,0-7.669,0v16.289h3.069v-4.789h4.6
		C378.251,231.224,378.234,219.724,370.282,219.724z M365.683,222.662h4.6c3.905,0,3.93,5.758,0,5.758h-4.6V222.662z"/> -->
</g>
</svg>
