<?xml version="1.0" encoding="utf-8"?>
<!-- Generator: Adobe Illustrator 15.1.0, SVG Export Plug-In . SVG Version: 6.00 Build 0)  -->
<!DOCTYPE svg PUBLIC "-//W3C//DTD SVG 1.0//EN" "http://www.w3.org/TR/2001/REC-SVG-20010904/DTD/svg10.dtd">
<svg version="1.0" id="Layer_1" xmlns="http://www.w3.org/2000/svg" xmlns:xlink="http://www.w3.org/1999/xlink" x="0px" y="0px"
	 width="800px" height="800px" viewBox="190.5999755859375 200.41400146484375 421.48199462890625 378.35400390625" enable-background="new 0 0 800 800" xml:space="preserve">
<g>
	<!-- <path fill="#BCC2C6" d="M206.83,200.414h389.03c4.455,0,8.519,1.836,11.456,4.773v0.017c2.938,2.937,4.765,6.993,4.765,11.449
		v345.873c0,4.456-1.827,8.512-4.765,11.449v0.017c-2.938,2.938-7.001,4.774-11.456,4.774H206.83c-4.463,0-8.529-1.837-11.457-4.774
		v-0.017c-2.938-2.938-4.773-6.993-4.773-11.449V216.653c0-4.456,1.836-8.512,4.773-11.449v-0.017
		C198.301,202.25,202.367,200.414,206.83,200.414"/>
	<path fill="#EBEFF0" d="M606.19,216.653v345.873c0,6.527-4.54,10.349-10.33,10.349H206.83c-5.791,0-10.338-3.723-10.338-10.349
		V216.653c0-6.759,4.572-10.347,10.338-10.347h389.03C601.65,206.307,606.19,210.028,606.19,216.653"/> -->
	<path fill="#BCC2C6" d="M204.686,247.947h393.31c3.882,0,7.403,1.569,9.947,4.123c2.555,2.553,4.139,6.075,4.139,9.964v302.646
		c0,3.873-1.584,7.395-4.139,9.948c-2.544,2.553-6.065,4.14-9.947,4.14h-393.31c-3.873,0-7.394-1.587-9.947-4.14
		c-2.552-2.554-4.139-6.075-4.139-9.948V262.033c0-3.889,1.587-7.411,4.139-9.964C197.292,249.516,200.813,247.947,204.686,247.947"
		/>
	<path fill-rule="evenodd" clip-rule="evenodd" fill="#FFFFFF" d="M204.686,253.822c-2.178,0-4.24,0.867-5.781,2.42
		c-1.545,1.535-2.412,3.605-2.412,5.792v302.646c0,2.171,0.867,4.24,2.412,5.792c1.541,1.536,3.604,2.404,5.781,2.404h393.31
		c2.186,0,4.249-0.868,5.791-2.404c1.536-1.552,2.404-3.621,2.404-5.792V262.033c0-2.187-0.868-4.256-2.404-5.792
		c-1.542-1.553-3.621-2.42-5.791-2.42H204.686z"/>
	<!-- <path fill-rule="evenodd" clip-rule="evenodd" fill="#94A4A5" d="M547.376,220.409c4.139,0,7.502,3.354,7.502,7.494
		c0,4.139-3.363,7.494-7.502,7.494c-4.138,0-7.493-3.355-7.493-7.494C539.883,223.763,543.238,220.409,547.376,220.409
		 M570.924,220.409c4.14,0,7.495,3.354,7.495,7.494c0,4.139-3.355,7.494-7.495,7.494c-4.138,0-7.492-3.355-7.492-7.494
		C563.432,223.763,566.786,220.409,570.924,220.409z M523.835,220.409c4.14,0,7.502,3.354,7.502,7.494
		c0,4.139-3.362,7.494-7.502,7.494s-7.502-3.355-7.502-7.494C516.333,223.763,519.705,220.409,523.835,220.409z"/> -->
	<path fill-rule="evenodd" clip-rule="evenodd" fill="#BCC2C6" d="M345.331,287.651h112.02c3.206,0,5.809,2.604,5.809,5.808v239.777
		c0,3.205-2.603,5.809-5.809,5.809h-112.02c-3.205,0-5.809-2.604-5.809-5.809V293.459
		C339.522,290.255,342.126,287.651,345.331,287.651"/>
	<rect x="345.414" y="293.543" fill-rule="evenodd" clip-rule="evenodd" fill="#FFFFFF" width="111.862" height="239.61"/>
	<rect x="261.265" y="320.848" fill-rule="evenodd" clip-rule="evenodd" fill="#34495E" width="50.187" height="50.169"/>
	<rect x="267.098" y="326.672" fill="#22A6EF" width="38.52" height="38.52"/>
	<path fill-rule="evenodd" clip-rule="evenodd" fill="#BCC2C6" d="M254.772,428.662h63.161c2.161,0,3.932-1.77,3.932-3.921l0,0
		c0-2.169-1.771-3.939-3.932-3.939h-63.161c-2.153,0-3.922,1.771-3.922,3.939l0,0C250.851,426.893,252.619,428.662,254.772,428.662"
		/>
	<path fill-rule="evenodd" clip-rule="evenodd" fill="#BCC2C6" d="M266.754,448.356h39.205c2.17,0,3.938-1.769,3.938-3.938l0,0
		c0-2.172-1.768-3.924-3.938-3.924h-39.205c-2.168,0-3.938,1.752-3.938,3.924l0,0C262.816,446.588,264.586,448.356,266.754,448.356"
		/>
	<path fill-rule="evenodd" clip-rule="evenodd" fill="#BCC2C6" d="M254.772,408.985h63.161c2.161,0,3.932-1.769,3.932-3.938
		s-1.771-3.938-3.932-3.938h-63.161c-2.153,0-3.922,1.769-3.922,3.938S252.619,408.985,254.772,408.985"/>
	<path fill="#BCC2C6" d="M309.881,487.257h-44.628c-1.71,0-3.271,0.7-4.407,1.834c-1.135,1.137-1.834,2.705-1.834,4.407
		c0,1.736,0.699,3.287,1.827,4.407l0.007,0.016c1.127,1.135,2.689,1.837,4.407,1.837h44.628c1.719,0,3.272-0.718,4.407-1.853
		c1.135-1.12,1.837-2.687,1.837-4.407c0-1.719-0.702-3.271-1.828-4.407C313.17,487.957,311.6,487.257,309.881,487.257
		 M265.253,481.151h44.628c3.388,0,6.484,1.385,8.721,3.619l0.008,0.016c2.236,2.235,3.63,5.323,3.63,8.712
		c0,3.405-1.394,6.492-3.63,8.745c-2.236,2.237-5.322,3.621-8.729,3.621h-44.628c-3.388,0-6.477-1.384-8.712-3.621l-0.008-0.018
		h-0.01c-2.234-2.252-3.62-5.339-3.62-8.728s1.386-6.492,3.62-8.728C258.761,482.536,261.855,481.151,265.253,481.151z"/>
	<path fill="#34495E" d="M262.833,476.096h44.63c3.386,0,6.475,1.402,8.71,3.638h0.017c2.236,2.253,3.624,5.319,3.624,8.725
		c0,3.403-1.388,6.492-3.624,8.729c-2.234,2.235-5.33,3.621-8.727,3.621h-44.63c-3.387,0-6.476-1.386-8.72-3.621h-0.008v-0.017
		c-2.238-2.238-3.641-5.325-3.641-8.713c0-3.405,1.402-6.488,3.641-8.725C256.341,477.498,259.43,476.096,262.833,476.096"/>
	<path fill="#27CABF" d="M307.463,479.783c2.302,0,4.503,0.9,6.133,2.537c1.627,1.632,2.545,3.835,2.545,6.138
		s-0.928,4.506-2.555,6.125c-1.625,1.636-3.821,2.554-6.123,2.554h-44.63c-2.302,0-4.505-0.902-6.134-2.536l-0.008-0.018
		c-1.637-1.619-2.538-3.822-2.538-6.125s0.918-4.506,2.546-6.138c1.629-1.619,3.822-2.537,6.134-2.537H307.463z"/>
	<path fill="#51F4E9" d="M307.463,479.783c2.302,0,4.503,0.9,6.133,2.537c1.627,1.632,2.545,3.835,2.545,6.138
		c0,0.585-0.066,1.168-0.184,1.735c-0.334-1.635-1.153-3.172-2.361-4.373c-1.63-1.636-3.831-2.555-6.133-2.555h-44.63
		c-2.312,0-4.505,0.919-6.134,2.555c-1.209,1.201-2.027,2.738-2.378,4.389c-0.108-0.566-0.168-1.166-0.168-1.751
		c0-2.303,0.918-4.506,2.546-6.138c1.629-1.619,3.822-2.537,6.134-2.537H307.463z"/>
	<rect x="376.255" y="320.848" fill-rule="evenodd" clip-rule="evenodd" fill="#34495E" width="50.17" height="50.169"/>
	<rect x="382.082" y="326.672" fill="#22A6EF" width="38.521" height="38.52"/>
	<path fill-rule="evenodd" clip-rule="evenodd" fill="#BCC2C6" d="M369.763,428.662h63.154c2.17,0,3.94-1.77,3.94-3.921l0,0
		c0-2.169-1.771-3.939-3.94-3.939h-63.154c-2.168,0-3.938,1.771-3.938,3.939l0,0C365.825,426.893,367.595,428.662,369.763,428.662"
		/>
	<path fill-rule="evenodd" clip-rule="evenodd" fill="#BCC2C6" d="M381.739,448.356h39.204c2.161,0,3.931-1.769,3.931-3.938l0,0
		c0-2.172-1.77-3.924-3.931-3.924h-39.204c-2.163,0-3.93,1.752-3.93,3.924l0,0C377.81,446.588,379.576,448.356,381.739,448.356"/>
	<path fill-rule="evenodd" clip-rule="evenodd" fill="#BCC2C6" d="M369.763,408.985h63.154c2.17,0,3.94-1.769,3.94-3.938
		s-1.771-3.938-3.94-3.938h-63.154c-2.168,0-3.938,1.769-3.938,3.938S367.595,408.985,369.763,408.985"/>
	<path fill="#BCC2C6" d="M424.864,487.257h-44.619c-1.719,0-3.279,0.7-4.406,1.834c-1.135,1.137-1.837,2.705-1.837,4.407
		c0,1.736,0.695,3.287,1.82,4.407l0.017,0.016c1.118,1.135,2.688,1.837,4.406,1.837h44.619c1.711,0,3.28-0.718,4.414-1.853
		c1.128-1.12,1.837-2.687,1.837-4.407c0-1.719-0.7-3.271-1.837-4.407C428.145,487.957,426.584,487.257,424.864,487.257
		 M380.245,481.151h44.619c3.397,0,6.485,1.385,8.722,3.619l0.017,0.016c2.236,2.235,3.622,5.323,3.622,8.712
		c0,3.405-1.386,6.492-3.622,8.745c-2.246,2.237-5.332,3.621-8.738,3.621h-44.619c-3.389,0-6.476-1.384-8.722-3.621l-0.007-0.018
		l0,0c-2.245-2.252-3.639-5.339-3.639-8.728s1.394-6.492,3.639-8.728C373.753,482.536,376.841,481.151,380.245,481.151z"/>
	<path fill="#34495E" d="M377.815,476.096h44.622c3.396,0,6.482,1.402,8.729,3.638l0,0c2.245,2.253,3.639,5.319,3.639,8.725
		c0,3.403-1.394,6.492-3.639,8.729c-2.236,2.235-5.324,3.621-8.729,3.621h-44.622c-3.387,0-6.475-1.386-8.718-3.621l0,0
		l-0.019-0.017c-2.235-2.238-3.621-5.325-3.621-8.713c0-3.405,1.386-6.488,3.621-8.725
		C371.317,477.498,374.413,476.096,377.815,476.096"/>
	<path fill="#27CABF" d="M422.438,479.783c2.303,0,4.505,0.9,6.142,2.537c1.627,1.632,2.545,3.835,2.545,6.138
		s-0.927,4.506-2.555,6.125c-1.627,1.636-3.822,2.554-6.132,2.554h-44.622c-2.302,0-4.497-0.902-6.131-2.536l-0.01-0.018
		c-1.627-1.619-2.545-3.822-2.545-6.125s0.927-4.506,2.555-6.138c1.634-1.619,3.82-2.537,6.131-2.537H422.438z"/>
	<path fill="#51F4E9" d="M422.438,479.783c2.303,0,4.505,0.9,6.142,2.537c1.627,1.632,2.545,3.835,2.545,6.138
		c0,0.585-0.06,1.168-0.176,1.735c-0.349-1.635-1.158-3.172-2.369-4.373c-1.637-1.636-3.839-2.555-6.142-2.555h-44.622
		c-2.311,0-4.497,0.919-6.131,2.555c-1.211,1.201-2.037,2.738-2.37,4.389c-0.118-0.566-0.185-1.166-0.185-1.751
		c0-2.303,0.927-4.506,2.555-6.138c1.634-1.619,3.82-2.537,6.131-2.537H422.438z"/>
	<rect x="491.231" y="320.848" fill-rule="evenodd" clip-rule="evenodd" fill="#34495E" width="50.187" height="50.169"/>
	<rect x="497.064" y="326.672" fill="#22A6EF" width="38.528" height="38.52"/>
	<path fill-rule="evenodd" clip-rule="evenodd" fill="#BCC2C6" d="M484.747,428.662h63.163c2.161,0,3.932-1.77,3.932-3.921l0,0
		c0-2.169-1.771-3.939-3.932-3.939h-63.163c-2.162,0-3.929,1.771-3.929,3.939l0,0C480.818,426.893,482.585,428.662,484.747,428.662"
		/>
	<path fill-rule="evenodd" clip-rule="evenodd" fill="#BCC2C6" d="M496.724,448.356h39.202c2.171,0,3.939-1.769,3.939-3.938l0,0
		c0-2.172-1.769-3.924-3.939-3.924h-39.202c-2.162,0-3.932,1.752-3.932,3.924l0,0C492.792,446.588,494.562,448.356,496.724,448.356"
		/>
	<path fill-rule="evenodd" clip-rule="evenodd" fill="#BCC2C6" d="M484.747,408.985h63.163c2.161,0,3.932-1.769,3.932-3.938
		s-1.771-3.938-3.932-3.938h-63.163c-2.162,0-3.929,1.769-3.929,3.938S482.585,408.985,484.747,408.985"/>
	<path fill="#BCC2C6" d="M539.85,487.257h-44.63c-1.71,0-3.27,0.7-4.404,1.834c-1.135,1.137-1.837,2.705-1.837,4.407
		c0,1.736,0.702,3.287,1.827,4.407l0.01,0.016c1.135,1.135,2.686,1.837,4.404,1.837h44.63c1.719,0,3.279-0.718,4.404-1.853
		c1.136-1.12,1.837-2.687,1.837-4.407c0-1.719-0.701-3.271-1.827-4.407C543.136,487.957,541.568,487.257,539.85,487.257
		 M495.22,481.151h44.63c3.395,0,6.482,1.385,8.728,3.619v0.016c2.238,2.235,3.638,5.323,3.638,8.712
		c0,3.405-1.399,6.492-3.638,8.745c-2.235,2.237-5.323,3.621-8.728,3.621h-44.63c-3.389,0-6.467-1.384-8.712-3.621l-0.008-0.018
		h-0.008c-2.238-2.252-3.621-5.339-3.621-8.728s1.383-6.492,3.621-8.728C488.728,482.536,491.825,481.151,495.22,481.151z"/>
	<path fill="#34495E" d="M492.8,476.096h44.63c3.389,0,6.474,1.402,8.712,3.638h0.016c2.236,2.253,3.621,5.319,3.621,8.725
		c0,3.403-1.385,6.492-3.621,8.729c-2.235,2.235-5.323,3.621-8.728,3.621H492.8c-3.389,0-6.475-1.386-8.72-3.621h-0.008v-0.017
		c-2.238-2.238-3.632-5.325-3.632-8.713c0-3.405,1.394-6.488,3.632-8.725C486.308,477.498,489.396,476.096,492.8,476.096"/>
	<path fill="#27CABF" d="M537.43,479.783c2.303,0,4.506,0.9,6.133,2.537c1.626,1.632,2.544,3.835,2.544,6.138
		s-0.918,4.506-2.553,6.125c-1.627,1.636-3.821,2.554-6.124,2.554H492.8c-2.303,0-4.506-0.902-6.133-2.536l-0.01-0.018
		c-1.635-1.619-2.534-3.822-2.534-6.125s0.917-4.506,2.544-6.138c1.627-1.619,3.83-2.537,6.133-2.537H537.43z"/>
	<path fill="#51F4E9" d="M537.43,479.783c2.303,0,4.506,0.9,6.133,2.537c1.626,1.632,2.544,3.835,2.544,6.138
		c0,0.585-0.065,1.168-0.184,1.735c-0.333-1.635-1.15-3.172-2.36-4.373c-1.627-1.636-3.83-2.555-6.133-2.555H492.8
		c-2.303,0-4.506,0.919-6.133,2.555c-1.209,1.201-2.027,2.738-2.37,4.389c-0.116-0.566-0.174-1.166-0.174-1.751
		c0-2.303,0.917-4.506,2.544-6.138c1.627-1.619,3.83-2.537,6.133-2.537H537.43z"/>
	<!-- <path fill-rule="evenodd" clip-rule="evenodd" fill="#94A4A5" d="M442.59,232.993h-9.128v-3.672h8.804v-2.854h-8.804v-3.755h9.128
		v-2.988h-12.175c0,5.441,0,10.882,0,16.289h12.175V232.993z M422.403,231.857c-1.066,1.068-2.671,1.652-4.089,1.652
		c-4.016,0-5.576-2.82-5.592-5.507c-0.025-2.721,1.668-5.642,5.592-5.642c1.418,0,2.861,0.484,3.93,1.535l2.046-1.986
		c-1.669-1.635-3.764-2.486-5.976-2.486c-5.874,0-8.638,4.322-8.611,8.579c0.024,4.222,2.577,8.378,8.611,8.378
		c2.353,0,4.507-0.768,6.182-2.403L422.403,231.857z M403.043,236.013v-16.289h-3.046v16.289H403.043z M387.807,222.595
		c1.927,0,2.787,1.302,2.787,2.604c0,1.318-0.837,2.62-2.787,2.62h-4.674v-5.225H387.807z M394.473,235.813l-4.932-5.558
		c3.095-0.635,4.114-2.888,4.114-5.124c0-2.82-2.02-5.374-5.849-5.408c-2.581,0.034-5.158,0-7.736,0v16.289h3.063v-5.44h2.954
		l4.74,5.44h3.646V235.813z M367.761,219.724c-2.553-0.016-5.106,0-7.66,0v16.289h3.062v-4.789h4.599
		C375.73,231.224,375.706,219.724,367.761,219.724z M363.162,222.662h4.599c3.905,0,3.924,5.758,0,5.758h-4.599V222.662z"/> -->
</g>
</svg>
