<?xml version="1.0" encoding="utf-8"?>
<!-- Generator: Adobe Illustrator 15.1.0, SVG Export Plug-In . SVG Version: 6.00 Build 0)  -->
<!DOCTYPE svg PUBLIC "-//W3C//DTD SVG 1.0//EN" "http://www.w3.org/TR/2001/REC-SVG-20010904/DTD/svg10.dtd">
<svg version="1.0" id="Layer_1" xmlns="http://www.w3.org/2000/svg" xmlns:xlink="http://www.w3.org/1999/xlink" x="0px" y="0px"
	 width="800px" height="800px" viewBox="197.46298217773438 200.41400146484375 421.4809875488281 378.35400390625" enable-background="new 0 0 800 800" xml:space="preserve">
<g>
	<!-- <path fill="#BCC2C6" d="M213.693,200.414h389.027c4.459,0,8.521,1.836,11.459,4.773v0.017c2.938,2.937,4.764,6.993,4.764,11.449
		v345.873c0,4.456-1.826,8.512-4.764,11.449v0.017c-2.938,2.938-7,4.774-11.459,4.774H213.693c-4.465,0-8.529-1.837-11.457-4.774
		v-0.017c-2.938-2.938-4.773-6.993-4.773-11.449V216.653c0-4.456,1.836-8.512,4.773-11.449v-0.017
		C205.164,202.25,209.229,200.414,213.693,200.414"/>
	<path fill="#EBEFF0" d="M613.053,216.653v345.873c0,6.527-4.539,10.349-10.332,10.349H213.693c-5.791,0-10.338-3.723-10.338-10.349
		V216.653c0-6.759,4.571-10.347,10.338-10.347h389.027C608.514,206.307,613.053,210.028,613.053,216.653"/> -->
	<path fill="#BCC2C6" d="M211.549,247.947h393.309c3.881,0,7.402,1.585,9.948,4.123c2.552,2.553,4.138,6.075,4.138,9.964v302.646
		c0,3.873-1.586,7.395-4.138,9.948c-2.546,2.553-6.067,4.14-9.948,4.14H211.549c-3.873,0-7.394-1.587-9.947-4.14
		c-2.553-2.554-4.139-6.075-4.139-9.948V262.033c0-3.889,1.586-7.411,4.139-9.964C204.155,249.532,207.676,247.947,211.549,247.947"
		/>
	<path fill-rule="evenodd" clip-rule="evenodd" fill="#FFFFFF" d="M211.549,253.822c-2.178,0-4.24,0.884-5.784,2.42
		c-1.543,1.535-2.409,3.605-2.409,5.792v302.646c0,2.171,0.866,4.24,2.409,5.792c1.544,1.536,3.606,2.404,5.784,2.404h393.309
		c2.188,0,4.248-0.868,5.792-2.404c1.536-1.552,2.403-3.604,2.403-5.792V262.033c0-2.187-0.867-4.256-2.403-5.792
		c-1.544-1.553-3.621-2.42-5.792-2.42H211.549z"/>
	<path fill="#BCC2C6" d="M312.088,389.926h59.348c3.397,0,6.484,1.385,8.729,3.623v0.016c2.245,2.236,3.64,5.324,3.64,8.729
		c0,3.388-1.395,6.492-3.64,8.729c-2.236,2.236-5.324,3.622-8.729,3.622h-59.348c-3.396,0-6.476-1.386-8.729-3.622v-0.017h-0.009
		c-2.235-2.235-3.629-5.341-3.629-8.712c0-3.404,1.394-6.509,3.629-8.745C305.596,391.311,308.684,389.926,312.088,389.926"/>
	<!-- <path fill-rule="evenodd" clip-rule="evenodd" fill="#94A4A5" d="M554.239,220.409c4.138,0,7.501,3.354,7.501,7.494
		c0,4.139-3.363,7.51-7.501,7.51c-4.14,0-7.494-3.372-7.494-7.51C546.745,223.763,550.1,220.409,554.239,220.409 M577.787,220.409
		c4.141,0,7.494,3.354,7.494,7.494c0,4.139-3.354,7.51-7.494,7.51c-4.139,0-7.494-3.372-7.494-7.51
		C570.293,223.763,573.648,220.409,577.787,220.409z M530.698,220.409c4.14,0,7.501,3.354,7.501,7.494
		c0,4.139-3.361,7.51-7.501,7.51s-7.502-3.372-7.502-7.51C523.196,223.763,526.566,220.409,530.698,220.409z"/> -->
	<path fill-rule="evenodd" clip-rule="evenodd" fill="#BCC2C6" d="M307.063,380.195h202.279c3.772,0,7.353,1.503,10.014,4.173
		c2.671,2.67,4.183,6.242,4.183,10.03c0,3.772-1.496,7.36-4.164,10.03c-2.671,2.671-6.26,4.173-10.032,4.173H307.063
		c-3.763,0-7.326-1.484-9.946-4.105l-0.084-0.083c-2.654-2.67-4.164-6.243-4.164-10.015c0-3.771,1.502-7.376,4.164-10.03
		C299.703,381.698,303.291,380.195,307.063,380.195"/>
	<path fill="#FFFFFF" d="M509.343,385.721c2.304,0,4.507,0.901,6.134,2.536c1.628,1.636,2.546,3.838,2.546,6.142
		c0,2.304-0.918,4.506-2.555,6.125c-1.627,1.637-3.821,2.554-6.125,2.554H307.063c-2.294,0-4.389-1.018-6.125-2.536l-0.017-0.018
		c-1.617-1.619-2.536-3.821-2.536-6.125c0-2.303,0.926-4.505,2.553-6.142c1.636-1.619,3.821-2.536,6.125-2.536H509.343z"/>
	<path fill-rule="evenodd" clip-rule="evenodd" fill="#34495E" d="M307.063,380.195h59.365c3.771,0,7.36,1.503,10.023,4.173
		c2.669,2.67,4.181,6.242,4.181,10.03c0,3.772-1.503,7.36-4.174,10.03c-2.67,2.671-6.259,4.173-10.03,4.173h-59.365
		c-3.763,0-7.326-1.484-9.946-4.105l-0.084-0.083c-2.654-2.67-4.164-6.243-4.164-10.015c0-3.771,1.502-7.376,4.164-10.03
		C299.703,381.698,303.291,380.195,307.063,380.195"/>
	<path fill="#27CABF" d="M366.429,385.721c2.304,0,4.507,0.901,6.142,2.536c1.628,1.636,2.538,3.838,2.538,6.142
		c0,2.304-0.919,4.506-2.544,6.125c-1.629,1.637-3.832,2.554-6.136,2.554h-59.365c-2.294,0-4.389-1.018-6.125-2.536l-0.017-0.018
		c-1.617-1.619-2.536-3.821-2.536-6.125c0-2.303,0.926-4.505,2.553-6.142c1.636-1.619,3.821-2.536,6.125-2.536H366.429z"/>
	<path fill="#51F4E9" d="M366.429,385.721c2.304,0,4.507,0.901,6.142,2.536c1.628,1.636,2.538,3.838,2.538,6.142
		c0,0.584-0.059,1.168-0.177,1.736c-0.342-1.636-1.158-3.171-2.361-4.373c-1.635-1.635-3.838-2.553-6.142-2.553h-59.365
		c-2.304,0-4.489,0.918-6.125,2.553c-1.21,1.218-2.027,2.737-2.368,4.39c-0.119-0.567-0.185-1.168-0.185-1.753
		c0-2.303,0.926-4.505,2.553-6.142c1.636-1.619,3.821-2.536,6.125-2.536H366.429z"/>
	<path fill-rule="evenodd" clip-rule="evenodd" fill="#BCC2C6" d="M325.321,476.396h165.764c2.17,0,3.938,1.786,3.938,3.938
		c0,2.171-1.768,3.936-3.938,3.936H325.321c-2.168,0-3.938-1.765-3.938-3.936C321.384,478.182,323.153,476.396,325.321,476.396"/>
	<path fill-rule="evenodd" clip-rule="evenodd" fill="#BCC2C6" d="M364.877,504.83h86.653c2.169,0,3.938,1.769,3.938,3.939l0,0
		c0,2.168-1.77,3.938-3.938,3.938h-86.653c-2.17,0-3.938-1.771-3.938-3.938l0,0C360.938,506.599,362.707,504.83,364.877,504.83"/>
	<!-- <path fill-rule="evenodd" clip-rule="evenodd" fill="#94A4A5" d="M484.425,222.411c-1.269-2.57-3.938-3.305-6.524-3.305
		c-3.063,0.034-6.427,1.419-6.427,4.84c0,3.723,3.122,4.623,6.519,5.024c2.209,0.25,3.846,0.884,3.846,2.454
		c0,1.802-1.853,2.487-3.821,2.487c-2.02,0-3.938-0.802-4.674-2.637l-2.604,1.352c1.229,3.037,3.84,4.089,7.228,4.089
		c3.705,0,6.977-1.602,6.977-5.29c0-3.973-3.221-4.874-6.691-5.291c-1.987-0.233-3.699-0.651-3.699-2.086
		c0-1.235,1.111-2.204,3.44-2.204c1.803,0,3.362,0.901,3.938,1.836L484.425,222.411z M465.1,222.411
		c-1.261-2.57-3.939-3.305-6.526-3.305c-3.055,0.034-6.425,1.419-6.425,4.84c0,3.723,3.127,4.623,6.523,5.024
		c2.205,0.25,3.84,0.884,3.84,2.454c0,1.802-1.852,2.487-3.822,2.487c-2.01,0-3.938-0.802-4.673-2.637l-2.603,1.352
		c1.234,3.037,3.837,4.089,7.234,4.089c3.697,0,6.967-1.602,6.967-5.29c0-3.973-3.221-4.874-6.683-5.291
		c-1.995-0.233-3.697-0.651-3.697-2.086c0-1.235,1.11-2.204,3.437-2.204c1.805,0,3.365,0.901,3.94,1.836L465.1,222.411z
		 M445.797,233.193h-9.321v-3.739h8.996v-2.92h-8.996v-3.839h9.321v-3.037h-12.426c0,5.542,0,11.099,0,16.623h12.426V233.193z
		 M421.689,222.578c1.969,0,2.838,1.318,2.838,2.671c0,1.334-0.854,2.653-2.838,2.653h-4.774v-5.324H421.689z M428.49,236.064
		l-5.032-5.658c3.163-0.651,4.206-2.954,4.206-5.24c0-2.871-2.069-5.492-5.975-5.508c-2.638,0.016-5.275,0-7.895,0v16.623h3.12
		v-5.558h3.021l4.832,5.558h3.722V236.064z M407.345,221.744c-1.71-1.687-3.931-2.537-6.168-2.537c-5.858,0-8.779,4.322-8.779,8.995
		c0,4.356,2.538,8.462,8.779,8.462c2.921,0,4.981-1.119,6.618-2.987v-6.993h-7.118v2.787h4.247v2.937
		c-1.302,1.052-2.444,1.336-3.747,1.336c-4.122,0-5.715-2.821-5.715-5.542c0-3.421,2.161-6.125,5.715-6.125
		c1.452,0,3.104,0.584,4.224,1.652L407.345,221.744z M378.605,222.194c3.912,0,5.481,3.138,5.431,5.925
		c-0.05,2.737-1.519,5.674-5.431,5.674c-3.914,0-5.383-2.92-5.45-5.641C373.08,225.349,374.691,222.194,378.605,222.194z
		 M378.605,219.34c-5.733,0-8.537,4.39-8.537,8.762c0,4.356,2.703,8.563,8.537,8.563c5.831,0,8.469-4.29,8.52-8.596
		C387.166,223.73,384.319,219.34,378.605,219.34z M359.068,222.578c1.971,0,2.845,1.318,2.845,2.671
		c0,1.334-0.851,2.653-2.845,2.653h-4.765v-5.324H359.068z M365.879,236.064l-5.032-5.658c3.162-0.651,4.196-2.954,4.196-5.24
		c0-2.871-2.06-5.492-5.975-5.508c-2.637,0.016-5.266,0-7.894,0v16.623h3.129v-5.558h3.014l4.839,5.558h3.723V236.064z
		 M339.291,219.658c-2.604-0.034-5.206,0-7.818,0v16.623h3.128v-4.891h4.69C347.437,231.39,347.411,219.658,339.291,219.658z
		 M334.601,222.645h4.69c3.989,0,4.016,5.875,0,5.875h-4.69V222.645z"/> -->
</g>
</svg>
