<?xml version="1.0" encoding="utf-8"?>
<!-- Generator: Adobe Illustrator 15.1.0, SVG Export Plug-In . SVG Version: 6.00 Build 0)  -->
<!DOCTYPE svg PUBLIC "-//W3C//DTD SVG 1.0//EN" "http://www.w3.org/TR/2001/REC-SVG-20010904/DTD/svg10.dtd">
<svg version="1.0" id="Layer_1" xmlns="http://www.w3.org/2000/svg" xmlns:xlink="http://www.w3.org/1999/xlink" x="0px" y="0px"
	 width="800px" height="800px" viewBox="199.70298767089844 200.41400146484375 421.47393798828125 378.35400390625" enable-background="new 0 0 800 800" xml:space="preserve">
<g>
	<!-- <path fill="#BCC2C6" d="M215.925,200.414h389.021c4.474,0,8.529,1.836,11.467,4.773v0.017c2.938,2.937,4.764,6.993,4.764,11.449
		v345.873c0,4.456-1.826,8.512-4.764,11.449v0.017c-2.938,2.938-6.993,4.774-11.467,4.774H215.925
		c-4.471,0-8.528-1.837-11.465-4.774v-0.017c-2.939-2.938-4.757-6.993-4.757-11.449V216.653c0-4.456,1.817-8.512,4.757-11.449
		v-0.017C207.396,202.25,211.454,200.414,215.925,200.414"/>
	<path fill="#EBEFF0" d="M615.286,216.653v345.873c0,6.527-4.531,10.349-10.341,10.349H215.925c-5.789,0-10.34-3.723-10.34-10.349
		V216.653c0-6.759,4.566-10.347,10.34-10.347h389.021C610.735,206.307,615.286,210.028,615.286,216.653"/> -->
	<path fill="#BCC2C6" d="M213.79,247.947h393.291c3.89,0,7.41,1.585,9.965,4.123c2.545,2.553,4.13,6.075,4.13,9.964v302.646
		c0,3.873-1.585,7.395-4.13,9.948c-2.555,2.553-6.075,4.14-9.965,4.14H213.79c-3.89,0-7.41-1.587-9.957-4.14
		c-2.553-2.554-4.13-6.075-4.13-9.948V262.033c0-3.889,1.577-7.411,4.13-9.964C206.38,249.532,209.9,247.947,213.79,247.947"/>
	<!-- <path fill-rule="evenodd" clip-rule="evenodd" fill="#94A4A5" d="M556.479,220.409c4.14,0,7.495,3.354,7.495,7.494
		c0,4.139-3.355,7.51-7.495,7.51s-7.501-3.372-7.501-7.51C548.978,223.763,552.339,220.409,556.479,220.409 M580.02,220.409
		c4.132,0,7.503,3.354,7.503,7.494c0,4.139-3.371,7.51-7.503,7.51c-4.147,0-7.501-3.372-7.501-7.51
		C572.519,223.763,575.88,220.409,580.02,220.409z M532.929,220.409c4.141,0,7.496,3.354,7.496,7.494c0,4.139-3.355,7.51-7.496,7.51
		c-4.139,0-7.491-3.372-7.491-7.51C525.438,223.763,528.79,220.409,532.929,220.409z"/> -->
	<path fill-rule="evenodd" clip-rule="evenodd" fill="#FFFFFF" d="M213.79,253.822c-2.188,0-4.257,0.884-5.793,2.42
		c-1.541,1.535-2.42,3.605-2.42,5.792v302.646c0,2.171,0.879,4.24,2.42,5.792c1.536,1.536,3.605,2.404,5.793,2.404h393.291
		c2.189,0,4.258-0.868,5.793-2.404c1.543-1.552,2.412-3.604,2.412-5.792V262.033c0-2.187-0.869-4.256-2.412-5.792
		c-1.535-1.553-3.604-2.42-5.793-2.42H213.79z"/>
	<path fill-rule="evenodd" clip-rule="evenodd" fill="#BCC2C6" d="M392.628,335.133c3.32-5.757,10.689-7.727,16.447-4.406
		s7.729,10.698,4.407,16.457c-3.321,5.757-10.692,7.727-16.449,4.406C391.275,348.269,389.298,340.892,392.628,335.133
		 M387.53,332.196c4.947-8.578,15.914-11.516,24.482-6.56c7.711,4.44,10.864,13.752,7.828,21.813l14.438,8.346
		c1.4,0.801,1.885,2.604,1.084,4.021c-0.818,1.403-2.621,1.886-4.022,1.068l-14.438-8.328c-5.473,6.659-15.104,8.578-22.813,4.123
		C385.509,351.74,382.579,340.775,387.53,332.196z"/>
	<path fill-rule="evenodd" clip-rule="evenodd" fill="#BCC2C6" d="M327.547,476.396h165.778c2.16,0,3.93,1.786,3.93,3.938
		c0,2.171-1.77,3.936-3.93,3.936H327.547c-2.161,0-3.94-1.765-3.94-3.936C323.606,478.182,325.386,476.396,327.547,476.396"/>
	<path fill-rule="evenodd" clip-rule="evenodd" fill="#BCC2C6" d="M367.101,504.83h86.662c2.16,0,3.93,1.769,3.93,3.939l0,0
		c0,2.168-1.77,3.938-3.93,3.938h-86.662c-2.152,0-3.922-1.771-3.922-3.938l0,0C363.179,506.599,364.948,504.83,367.101,504.83"/>
	<path fill="#BCC2C6" d="M514.403,405.063H455.04c-0.211,0-0.428,0.017-0.635,0.017v24.702c0.207,0,0.424,0,0.635,0h59.363
		c3.389,0,6.475-1.386,8.712-3.624h0.009l0.01-0.016c2.236-2.237,3.621-5.323,3.621-8.712c0-3.405-1.385-6.492-3.621-8.729
		C520.895,406.466,517.8,405.063,514.403,405.063"/>
	<path fill-rule="evenodd" clip-rule="evenodd" fill="#BCC2C6" d="M510.073,396.918c3.639,0,7.1,1.453,9.671,4.022
		c2.57,2.571,4.024,6.043,4.024,9.682c0,3.638-1.454,7.092-4.089,9.73l0.04-0.052c-2.57,2.57-6.008,4.005-9.646,4.005h-202.27
		c-3.639,0-7.096-1.435-9.673-4.005c-2.577-2.587-4.014-6.041-4.014-9.679c0-3.656,1.452-7.11,4.022-9.682
		c2.568-2.569,6.025-4.022,9.664-4.022H510.073z"/>
	<path fill="#FFFFFF" d="M307.804,401.942c-2.305,0-4.509,0.901-6.134,2.537c-1.629,1.636-2.548,3.839-2.548,6.143
		s0.919,4.489,2.555,6.125c1.627,1.634,3.822,2.553,6.127,2.553h202.27c2.305,0,4.396-1.019,6.133-2.536l0.017-0.017
		c1.62-1.636,2.528-3.821,2.528-6.125s-0.917-4.507-2.545-6.143c-1.636-1.619-3.828-2.537-6.133-2.537H307.804z"/>
	<path fill-rule="evenodd" clip-rule="evenodd" fill="#34495E" d="M510.073,396.918c3.639,0,7.1,1.453,9.671,4.022
		c2.57,2.571,4.024,6.043,4.024,9.682c0,3.638-1.454,7.092-4.089,9.73l0.04-0.052c-2.57,2.57-6.008,4.005-9.646,4.005h-59.357
		c-0.234,0-0.467,0-0.709-0.016l-1.26-0.065v-27.223l1.26-0.066c0.242-0.017,0.475-0.017,0.709-0.017H510.073z"/>
	<path fill="#27CABF" d="M453.628,419.3h56.445c2.305,0,4.396-1.019,6.133-2.536l0.017-0.017c1.62-1.636,2.528-3.821,2.528-6.125
		s-0.917-4.507-2.545-6.143c-1.636-1.619-3.828-2.537-6.133-2.537h-56.445V419.3z"/>
	<path fill="#51F4E9" d="M453.628,405.43h56.445c2.305,0,4.497,0.919,6.133,2.554c1.211,1.219,2.028,2.738,2.371,4.392
		c0.117-0.57,0.174-1.17,0.174-1.753c0-2.304-0.917-4.507-2.545-6.143c-1.636-1.619-3.828-2.537-6.133-2.537h-56.445V405.43z"/>
	<!-- <path fill-rule="evenodd" clip-rule="evenodd" fill="#94A4A5" d="M457.241,234.712v-13.469h-2.521v5.675h-6.626v-5.675h-2.552
		v13.469h2.552v-5.441h6.626v5.441H457.241z M439.286,231.257c-0.887,0.884-2.221,1.369-3.391,1.369
		c-3.337,0-4.623-2.32-4.647-4.557c-0.026-2.252,1.394-4.689,4.647-4.689c1.17,0,2.369,0.401,3.254,1.269l1.703-1.636
		c-1.395-1.368-3.129-2.069-4.957-2.069c-4.874,0-7.176,3.588-7.15,7.125c0.016,3.505,2.136,6.96,7.15,6.96
		c1.945,0,3.737-0.651,5.123-2.02L439.286,231.257z M419.474,223.58c1.602,0,2.319,1.068,2.319,2.153
		c0,1.101-0.701,2.169-2.319,2.169h-3.871v-4.323H419.474z M425.005,234.544l-4.08-4.606c2.555-0.534,3.405-2.403,3.405-4.256
		c0-2.336-1.669-4.456-4.856-4.473c-2.138,0.017-4.271,0-6.418,0v13.502h2.547v-4.506h2.451l3.922,4.506h3.029V234.544z
		 M403.885,229.805h-5.007l2.504-5.758L403.885,229.805z M406.047,234.712h2.778l-6.059-13.502h-2.77l-6.059,13.502h2.754
		l1.159-2.538h7.052L406.047,234.712z M390.282,232.208h-7.576v-3.055h7.311v-2.37h-7.311v-3.121h7.576v-2.454h-10.096
		c0,4.49,0,9.013,0,13.502h10.096V232.208z M374.745,223.429c-1.018-2.069-3.195-2.669-5.29-2.669
		c-2.487,0.016-5.224,1.15-5.224,3.938c0,3.021,2.535,3.755,5.289,4.072c1.803,0.2,3.13,0.717,3.13,1.986
		c0,1.468-1.511,2.035-3.104,2.035c-1.636,0-3.196-0.667-3.798-2.152l-2.119,1.102c1.002,2.47,3.119,3.32,5.873,3.32
		c3.005,0,5.666-1.301,5.666-4.305c0-3.222-2.619-3.956-5.432-4.29c-1.618-0.2-3.004-0.517-3.004-1.702
		c0-1.002,0.9-1.785,2.787-1.785c1.469,0,2.737,0.733,3.205,1.501L374.745,223.429z"/> -->
</g>
</svg>
