<?xml version="1.0" encoding="utf-8"?>
<!-- Generator: Adobe Illustrator 15.1.0, SVG Export Plug-In . SVG Version: 6.00 Build 0)  -->
<!DOCTYPE svg PUBLIC "-//W3C//DTD SVG 1.0//EN" "http://www.w3.org/TR/2001/REC-SVG-20010904/DTD/svg10.dtd">
<svg version="1.0" id="Layer_1" xmlns="http://www.w3.org/2000/svg" xmlns:xlink="http://www.w3.org/1999/xlink" x="0px" y="0px"
	 width="800px" height="800px" viewBox="198.06100463867188 200.41400146484375 421.4819641113281 378.35400390625" enable-background="new 0 0 800 800" xml:space="preserve">
<g>
	<!-- <path fill="#BCC2C6" d="M214.291,200.414h389.021c4.464,0,8.528,1.836,11.467,4.773v0.017c2.936,2.937,4.764,6.993,4.764,11.449
		v345.873c0,4.456-1.828,8.512-4.764,11.449v0.017c-2.938,2.938-7.003,4.774-11.467,4.774H214.291
		c-4.465,0-8.528-1.837-11.466-4.774v-0.017c-2.938-2.938-4.764-6.993-4.764-11.449V216.653c0-4.456,1.826-8.512,4.764-11.449
		v-0.017C205.763,202.25,209.826,200.414,214.291,200.414"/>
	<path fill="#EBEFF0" d="M613.649,216.653v345.873c0,6.527-4.539,10.349-10.338,10.349H214.291c-5.792,0-10.341-3.723-10.341-10.349
		V216.653c0-6.759,4.565-10.347,10.341-10.347h389.021C609.103,206.307,613.649,210.028,613.649,216.653"/> -->
	<path fill="#BCC2C6" d="M212.147,247.947h393.309c3.88,0,7.402,1.585,9.946,4.123c2.554,2.553,4.14,6.075,4.14,9.964v302.646
		c0,3.873-1.586,7.395-4.14,9.948c-2.544,2.553-6.066,4.14-9.946,4.14H212.147c-3.883,0-7.404-1.587-9.948-4.14
		c-2.554-2.554-4.138-6.075-4.138-9.948V262.033c0-3.889,1.584-7.411,4.138-9.964C204.743,249.532,208.265,247.947,212.147,247.947"
		/>
	<path fill-rule="evenodd" clip-rule="evenodd" fill="#FFFFFF" d="M212.147,253.822c-2.179,0-4.248,0.884-5.785,2.42
		c-1.544,1.535-2.412,3.605-2.412,5.792v302.646c0,2.171,0.868,4.24,2.412,5.792c1.537,1.536,3.606,2.404,5.785,2.404h393.309
		c2.177,0,4.248-0.868,5.79-2.404c1.537-1.552,2.403-3.604,2.403-5.792V262.033c0-2.187-0.866-4.256-2.403-5.792
		c-1.542-1.553-3.613-2.42-5.79-2.42H212.147z"/>
	<!-- <path fill-rule="evenodd" clip-rule="evenodd" fill="#94A4A5" d="M554.835,220.409c4.14,0,7.502,3.354,7.502,7.494
		c0,4.139-3.362,7.51-7.502,7.51c-4.139,0-7.494-3.372-7.494-7.51C547.341,223.763,550.696,220.409,554.835,220.409
		 M578.386,220.409c4.138,0,7.492,3.354,7.492,7.494c0,4.139-3.354,7.51-7.492,7.51c-4.139,0-7.502-3.372-7.502-7.51
		C570.884,223.763,574.247,220.409,578.386,220.409z M531.295,220.409c4.14,0,7.495,3.354,7.495,7.494
		c0,4.139-3.355,7.51-7.495,7.51c-4.138,0-7.494-3.372-7.494-7.51C523.801,223.763,527.157,220.409,531.295,220.409z"/> -->
	<path fill="#BCC2C6" d="M512.771,293.159h-59.367c-0.208,0-0.424,0.016-0.635,0.016v24.701c0.211,0,0.427,0.017,0.635,0.017h59.367
		c3.387,0,6.475-1.402,8.711-3.639h0.008l0.008-0.016c2.236-2.236,3.631-5.324,3.631-8.712c0-3.406-1.395-6.492-3.631-8.729
		C519.261,294.561,516.167,293.159,512.771,293.159"/>
	<path fill-rule="evenodd" clip-rule="evenodd" fill="#BCC2C6" d="M508.438,285.015c3.64,0,7.103,1.452,9.681,4.022
		c2.57,2.569,4.014,6.041,4.014,9.679c0,3.639-1.451,7.094-4.08,9.73l0.032-0.05c-2.568,2.571-6.007,4.005-9.646,4.005H306.177
		c-3.648,0-7.11-1.434-9.681-4.005c-2.571-2.586-4.014-6.041-4.014-9.68c0-3.654,1.452-7.11,4.021-9.679
		c2.571-2.571,6.036-4.022,9.673-4.022H508.438z"/>
	<path fill="#FFFFFF" d="M306.177,290.039c-2.313,0-4.516,0.901-6.144,2.536c-1.626,1.636-2.544,3.839-2.544,6.142
		c0,2.304,0.926,4.506,2.555,6.125c1.625,1.636,3.82,2.553,6.133,2.553h202.261c2.304,0,4.399-1.018,6.135-2.536l0.009-0.017
		c1.626-1.619,2.536-3.822,2.536-6.125c0-2.303-0.918-4.505-2.545-6.142c-1.628-1.619-3.831-2.536-6.135-2.536H306.177z"/>
	<path fill-rule="evenodd" clip-rule="evenodd" fill="#34495E" d="M508.438,285.015c3.64,0,7.103,1.452,9.681,4.022
		c2.57,2.569,4.014,6.041,4.014,9.679c0,3.639-1.451,7.094-4.08,9.73l0.032-0.05c-2.568,2.571-6.007,4.005-9.646,4.005h-59.356
		c-0.234,0-0.476,0-0.708-0.016l-1.27-0.066v-27.221l1.27-0.067c0.232-0.016,0.474-0.016,0.708-0.016H508.438z"/>
	<path fill="#27CABF" d="M451.994,307.395h56.443c2.304,0,4.399-1.018,6.135-2.536l0.009-0.017c1.626-1.619,2.536-3.822,2.536-6.125
		c0-2.303-0.918-4.505-2.545-6.142c-1.628-1.619-3.831-2.536-6.135-2.536h-56.443V307.395z"/>
	<path fill="#51F4E9" d="M451.994,293.526h56.443c2.304,0,4.507,0.918,6.135,2.553c1.21,1.202,2.027,2.737,2.369,4.39
		c0.116-0.585,0.176-1.169,0.176-1.753c0-2.303-0.918-4.505-2.545-6.142c-1.628-1.619-3.831-2.536-6.135-2.536h-56.443V293.526z"/>
	<rect x="256.7" y="343.712" fill-rule="evenodd" clip-rule="evenodd" fill="#BCC2C6" width="50.302" height="50.303"/>
	<rect x="262.215" y="349.236" fill-rule="evenodd" clip-rule="evenodd" fill="#EBEFF0" width="39.271" height="39.254"/>
	<path fill-rule="evenodd" clip-rule="evenodd" fill="#BCC2C6" d="M337.136,356.146h161.506c1.986,0,3.613,1.635,3.613,3.622l0,0
		c0,2.002-1.627,3.622-3.613,3.622H337.136c-1.995,0-3.613-1.619-3.613-3.622l0,0C333.522,357.781,335.141,356.146,337.136,356.146"
		/>
	<path fill-rule="evenodd" clip-rule="evenodd" fill="#BCC2C6" d="M337.136,374.338h140.478c1.994,0,3.614,1.619,3.614,3.621l0,0
		c0,1.987-1.62,3.622-3.614,3.622H337.136c-1.995,0-3.613-1.635-3.613-3.622l0,0C333.522,375.957,335.141,374.338,337.136,374.338"
		/>
	<path fill-rule="evenodd" clip-rule="evenodd" fill="#BCC2C6" d="M541.427,358.032l5.725,5.708l5.723-5.708
		c1.413-1.419,3.705-1.419,5.117,0l0,0c1.409,1.401,1.409,3.705,0,5.106l-5.725,5.725l5.725,5.724c1.409,1.402,1.409,3.705,0,5.124
		l0,0c-1.412,1.402-3.704,1.402-5.117,0l-5.723-5.725l-5.725,5.725c-1.404,1.402-3.705,1.402-5.117,0l0,0
		c-1.41-1.419-1.41-3.722,0-5.124l5.725-5.724l-5.725-5.725c-1.41-1.401-1.41-3.705,0-5.106l0,0
		C537.722,356.613,540.022,356.613,541.427,358.032"/>
	<rect x="256.7" y="413.792" fill-rule="evenodd" clip-rule="evenodd" fill="#BCC2C6" width="50.302" height="50.303"/>
	<rect x="262.215" y="419.317" fill-rule="evenodd" clip-rule="evenodd" fill="#EBEFF0" width="39.271" height="39.253"/>
	<path fill-rule="evenodd" clip-rule="evenodd" fill="#BCC2C6" d="M337.136,426.226h161.506c1.986,0,3.613,1.636,3.613,3.622
		c0,2.004-1.627,3.621-3.613,3.621H337.136c-1.995,0-3.613-1.617-3.613-3.621C333.522,427.861,335.141,426.226,337.136,426.226"/>
	<path fill-rule="evenodd" clip-rule="evenodd" fill="#BCC2C6" d="M337.136,444.419h140.478c1.994,0,3.614,1.618,3.614,3.621l0,0
		c0,1.985-1.62,3.621-3.614,3.621H337.136c-1.995,0-3.613-1.636-3.613-3.621l0,0C333.522,446.037,335.141,444.419,337.136,444.419"
		/>
	<rect x="256.7" y="483.868" fill-rule="evenodd" clip-rule="evenodd" fill="#BCC2C6" width="50.302" height="50.302"/>
	<rect x="262.215" y="489.394" fill-rule="evenodd" clip-rule="evenodd" fill="#EBEFF0" width="39.271" height="39.252"/>
	<path fill-rule="evenodd" clip-rule="evenodd" fill="#BCC2C6" d="M337.136,496.318h161.506c1.986,0,3.613,1.619,3.613,3.605
		c0,2.003-1.627,3.621-3.613,3.621H337.136c-1.995,0-3.613-1.618-3.613-3.621C333.522,497.938,335.141,496.318,337.136,496.318"/>
	<path fill-rule="evenodd" clip-rule="evenodd" fill="#BCC2C6" d="M337.136,514.494h140.478c1.994,0,3.614,1.618,3.614,3.622l0,0
		c0,1.984-1.62,3.621-3.614,3.621H337.136c-1.995,0-3.613-1.637-3.613-3.621l0,0C333.522,516.112,335.141,514.494,337.136,514.494"
		/>
	<path fill-rule="evenodd" clip-rule="evenodd" fill="#BCC2C6" d="M541.427,498.188l5.725,5.724l5.723-5.724
		c1.413-1.42,3.705-1.42,5.117,0l0,0c1.409,1.401,1.409,3.705,0,5.106l-5.725,5.726l5.725,5.723c1.409,1.401,1.409,3.705,0,5.125
		l0,0c-1.412,1.401-3.704,1.401-5.117,0l-5.723-5.725l-5.725,5.725c-1.404,1.401-3.705,1.401-5.117,0l0,0
		c-1.41-1.42-1.41-3.724,0-5.125l5.725-5.723l-5.725-5.726c-1.41-1.401-1.41-3.705,0-5.106l0,0
		C537.722,496.769,540.022,496.769,541.427,498.188"/>
	<path fill-rule="evenodd" clip-rule="evenodd" fill="#BCC2C6" d="M539.563,435.723l4.65,4.64l10.521-10.515
		c1.404-1.401,3.705-1.401,5.115,0l0,0c1.412,1.401,1.402,3.705,0,5.106l-13.084,13.086l-0.067,0.065l0,0l-0.067,0.067l-0.066,0.052
		l-0.076,0.065l-0.066,0.051l-0.073,0.066l0,0l-0.076,0.05l-0.067,0.05l-0.082,0.05l-0.074,0.051l0,0l-0.076,0.032l0,0l-0.075,0.052
		h-0.009l-0.074,0.032l0,0l-0.076,0.033h-0.008l-0.074,0.051l0,0l-0.084,0.017v0.016l-0.084,0.018l-0.082,0.033l-0.075,0.033h-0.009
		l-0.083,0.016v0.019l-0.084,0.017l0,0l-0.084,0.016l-0.083,0.018l0,0l-0.084,0.016v0.017h-0.092l0,0l-0.084,0.019l-0.083,0.016l0,0
		h-0.093l0,0l-0.081,0.017l0,0h-0.085l0,0h-0.092l0,0h-0.082h-0.175l0,0h-0.085l-0.176-0.017l0,0l-0.082-0.016h-0.01
		c-0.107-0.019-0.225-0.035-0.332-0.068h-0.011c-0.108-0.016-0.224-0.051-0.331-0.1l-0.086-0.033l0,0l-0.158-0.05l0,0l-0.158-0.084
		l-0.082-0.032l0,0l-0.234-0.135l0,0l-0.151-0.1l0,0l-0.141-0.116l-0.075-0.051l0,0l-0.067-0.065l0,0l-0.075-0.052l-0.059-0.067
		h-0.006l-0.068-0.065l0,0l-7.202-7.194c-1.401-1.417-1.401-3.705,0-5.123l0,0C535.86,434.321,538.162,434.321,539.563,435.723"/>
	<!-- <path fill-rule="evenodd" clip-rule="evenodd" fill="#94A4A5" d="M506.704,223.513c-1.003-2.036-3.139-2.621-5.201-2.621
		c-2.436,0.017-5.123,1.136-5.123,3.856c0,2.971,2.494,3.688,5.199,4.005c1.76,0.201,3.063,0.701,3.063,1.952
		c0,1.436-1.477,1.987-3.047,1.987c-1.602,0-3.137-0.634-3.722-2.103l-2.085,1.084c0.982,2.42,3.07,3.255,5.774,3.255
		c2.946,0,5.558-1.269,5.558-4.224c0-3.154-2.57-3.872-5.332-4.222c-1.593-0.184-2.954-0.501-2.954-1.651
		c0-0.986,0.892-1.77,2.745-1.77c1.436,0,2.688,0.718,3.146,1.485L506.704,223.513z M485.766,234.594h2.495v-10.998h4.197v-2.27
		c-3.838,0-7.067,0-10.891,0v2.27h4.198V234.594z M470.671,221.327v13.267h9.303v-2.32h-6.811v-10.947H470.671z M463.177,221.36
		v7.594c0,2.27-1.17,3.655-3.23,3.655c-2.06,0-3.429-1.269-3.429-3.655v-7.594h-2.479v7.594c0,3.989,2.702,5.924,5.882,5.924
		c3.33,0,5.734-2.019,5.734-5.924v-7.594H463.177z M449.123,223.513c-1.001-2.036-3.146-2.621-5.206-2.621
		c-2.437,0.017-5.125,1.136-5.125,3.856c0,2.971,2.504,3.688,5.199,4.005c1.762,0.201,3.071,0.701,3.071,1.952
		c0,1.436-1.477,1.987-3.046,1.987c-1.611,0-3.139-0.634-3.73-2.103l-2.078,1.084c0.984,2.42,3.063,3.255,5.768,3.255
		c2.952,0,5.564-1.269,5.564-4.224c0-3.154-2.568-3.872-5.34-4.222c-1.586-0.184-2.945-0.501-2.945-1.651
		c0-0.986,0.884-1.77,2.736-1.77c1.443,0,2.688,0.718,3.146,1.485L449.123,223.513z M434.061,232.125h-7.427v-2.987h7.167v-2.321
		h-7.167v-3.071h7.427v-2.419h-9.905c0,4.422,0,8.845,0,13.267h9.905V232.125z M415.167,223.646c1.568,0,2.271,1.068,2.271,2.136
		c0,1.068-0.684,2.12-2.271,2.12h-3.805v-4.256H415.167z M420.593,234.411l-4.006-4.522c2.513-0.501,3.346-2.337,3.346-4.172
		c0-2.287-1.643-4.373-4.766-4.389c-2.102,0.016-4.205,0-6.299,0v13.267h2.494v-4.439h2.402l3.865,4.439h2.963V234.411z
		 M400.106,234.594V221.36h-2.479v5.591h-6.502v-5.591h-2.502v13.234h2.502v-5.34h6.502v5.34H400.106z M382.933,231.207
		c-0.869,0.869-2.179,1.335-3.332,1.335c-3.27,0-4.537-2.286-4.555-4.489c-0.025-2.203,1.361-4.59,4.555-4.59
		c1.153,0,2.329,0.401,3.198,1.251l1.669-1.619c-1.369-1.335-3.072-2.02-4.867-2.02c-4.787,0-7.033,3.521-7.017,6.977
		c0.017,3.455,2.095,6.843,7.017,6.843c1.912,0,3.674-0.635,5.033-1.97L382.933,231.207z M363.938,223.646
		c1.568,0,2.271,1.068,2.271,2.136c0,1.068-0.684,2.12-2.271,2.12h-3.805v-4.256H363.938z M369.371,234.411l-4.013-4.522
		c2.52-0.501,3.346-2.337,3.346-4.172c0-2.287-1.644-4.373-4.766-4.389c-2.102,0.016-4.196,0-6.3,0v13.267h2.495v-4.439h2.402
		l3.864,4.439h2.971V234.411z M349.085,229.755h-4.915l2.463-5.641L349.085,229.755z M351.204,234.594h2.729l-5.942-13.267h-2.727
		l-5.934,13.267h2.702l1.135-2.503h6.927L351.204,234.594z M336.192,232.125h-7.443v-2.987h7.176v-2.321h-7.176v-3.071h7.443v-2.419
		h-9.922c0,4.422,0,8.845,0,13.267h9.922V232.125z M321.397,223.513c-1.011-2.036-3.146-2.621-5.207-2.621
		c-2.439,0.017-5.123,1.136-5.123,3.856c0,2.971,2.496,3.688,5.197,4.005c1.762,0.201,3.071,0.701,3.071,1.952
		c0,1.436-1.476,1.987-3.046,1.987c-1.609,0-3.146-0.634-3.73-2.103l-2.078,1.084c0.979,2.42,3.063,3.255,5.766,3.255
		c2.954,0,5.559-1.269,5.559-4.224c0-3.154-2.57-3.872-5.332-4.222c-1.585-0.184-2.945-0.501-2.945-1.651
		c0-0.986,0.884-1.77,2.736-1.77c1.436,0,2.688,0.718,3.137,1.485L321.397,223.513z"/> -->
</g>
</svg>
