<?xml version="1.0" encoding="utf-8"?>
<!-- Generator: Adobe Illustrator 15.1.0, SVG Export Plug-In . SVG Version: 6.00 Build 0)  -->
<!DOCTYPE svg PUBLIC "-//W3C//DTD SVG 1.0//EN" "http://www.w3.org/TR/2001/REC-SVG-20010904/DTD/svg10.dtd">
<svg version="1.0" id="Layer_1" xmlns="http://www.w3.org/2000/svg" xmlns:xlink="http://www.w3.org/1999/xlink" x="0px" y="0px"
	 width="800px" height="800px" viewBox="202.41000366210938 191.99400329589844 421.4540100097656 378.32904052734375" enable-background="new 0 0 800 800" xml:space="preserve">
<g>
	<!-- <path fill="#BCC2C6" d="M218.632,191.994h389.001c4.473,0,8.528,1.827,11.465,4.765v0.016c2.938,2.946,4.766,6.993,4.766,11.449
		v345.868c0,4.456-1.828,8.512-4.766,11.449v0.017c-2.937,2.938-6.992,4.765-11.465,4.765H218.632
		c-4.473,0-8.528-1.827-11.466-4.765v-0.017c-2.938-2.938-4.756-6.993-4.756-11.449V208.224c0-4.456,1.818-8.503,4.756-11.449
		v-0.016C210.104,193.821,214.159,191.994,218.632,191.994"/>
	<path fill="#EBEFF0" d="M617.973,208.224v345.868c0,6.518-4.532,10.348-10.34,10.348H218.632c-5.792,0-10.34-3.722-10.34-10.348
		V208.224c0-6.751,4.565-10.339,10.34-10.339h389.001C613.424,197.884,617.973,201.598,617.973,208.224"/> -->
	<path fill="#BCC2C6" d="M216.494,239.515h393.274c3.889,0,7.41,1.586,9.963,4.13c2.546,2.554,4.132,6.075,4.132,9.956v302.637
		c0,3.88-1.586,7.401-4.132,9.947c-2.553,2.552-6.074,4.138-9.963,4.138H216.494c-3.889,0-7.409-1.586-9.955-4.138
		c-2.552-2.546-4.129-6.067-4.129-9.947V253.601c0-3.88,1.577-7.402,4.129-9.956C209.085,241.101,212.605,239.515,216.494,239.515"
		/>
	<path fill-rule="evenodd" clip-rule="evenodd" fill="#FFFFFF" d="M216.494,245.397c-2.186,0-4.255,0.868-5.79,2.412
		c-1.543,1.544-2.42,3.613-2.42,5.792v302.637c0,2.178,0.877,4.248,2.42,5.79c1.535,1.535,3.604,2.412,5.79,2.412h393.274
		c2.187,0,4.255-0.877,5.79-2.412c1.545-1.542,2.414-3.604,2.414-5.79V253.601c0-2.187-0.869-4.248-2.414-5.792
		c-1.535-1.543-3.604-2.412-5.79-2.412H216.494z"/>
	<rect x="279.695" y="326.856" fill-rule="evenodd" clip-rule="evenodd" fill="#34495E" width="266.873" height="5.883"/>
	<!-- <path fill-rule="evenodd" clip-rule="evenodd" fill="#94A4A5" d="M559.168,211.987c4.139,0,7.493,3.354,7.493,7.493
		s-3.354,7.493-7.493,7.493s-7.501-3.354-7.501-7.493S555.029,211.987,559.168,211.987 M582.708,211.987
		c4.131,0,7.501,3.354,7.501,7.493s-3.37,7.493-7.501,7.493c-4.148,0-7.501-3.354-7.501-7.493S578.568,211.987,582.708,211.987z
		 M535.62,211.987c4.14,0,7.492,3.354,7.492,7.493s-3.353,7.493-7.492,7.493s-7.494-3.354-7.494-7.493
		S531.48,211.987,535.62,211.987z"/> -->
	<rect x="279.687" y="309.149" fill-rule="evenodd" clip-rule="evenodd" fill="#34495E" width="41.297" height="41.305"/>
	<rect x="285.57" y="315.04" fill="#22A6EF" width="29.531" height="29.523"/>
	<rect x="392.479" y="309.149" fill-rule="evenodd" clip-rule="evenodd" fill="#34495E" width="41.306" height="41.305"/>
	<rect x="398.362" y="315.04" fill="#22A6EF" width="29.53" height="29.523"/>
	<rect x="505.271" y="309.149" fill-rule="evenodd" clip-rule="evenodd" fill="#34495E" width="41.297" height="41.305"/>
	<rect x="511.153" y="315.04" fill="#22A6EF" width="29.54" height="29.523"/>
	<path fill-rule="evenodd" clip-rule="evenodd" fill="#BCC2C6" d="M267.947,380.669h64.787c1.992,0,3.62,1.627,3.62,3.613
		c0,1.994-1.628,3.621-3.62,3.621h-64.787c-1.995,0-3.622-1.627-3.622-3.621C264.325,382.296,265.952,380.669,267.947,380.669"/>
	<path fill-rule="evenodd" clip-rule="evenodd" fill="#BCC2C6" d="M272.436,398.853h55.808c1.994,0,3.622,1.619,3.622,3.612l0,0
		c0,1.994-1.628,3.622-3.622,3.622h-55.808c-1.994,0-3.621-1.628-3.621-3.622l0,0C268.814,400.471,270.441,398.853,272.436,398.853"
		/>
	<path fill-rule="evenodd" clip-rule="evenodd" fill="#BCC2C6" d="M380.73,380.669h64.803c1.986,0,3.613,1.627,3.613,3.613
		c0,1.994-1.627,3.621-3.613,3.621H380.73c-1.985,0-3.613-1.627-3.613-3.621C377.117,382.296,378.745,380.669,380.73,380.669"/>
	<path fill-rule="evenodd" clip-rule="evenodd" fill="#BCC2C6" d="M385.22,398.853h55.825c1.985,0,3.612,1.619,3.612,3.612l0,0
		c0,1.994-1.627,3.622-3.612,3.622H385.22c-1.985,0-3.613-1.628-3.613-3.622l0,0C381.606,400.471,383.234,398.853,385.22,398.853"/>
	<path fill-rule="evenodd" clip-rule="evenodd" fill="#BCC2C6" d="M493.53,380.669h64.787c1.993,0,3.621,1.627,3.621,3.613
		c0,1.994-1.628,3.621-3.621,3.621H493.53c-1.994,0-3.622-1.627-3.622-3.621C489.908,382.296,491.536,380.669,493.53,380.669"/>
	<path fill-rule="evenodd" clip-rule="evenodd" fill="#BCC2C6" d="M498.012,398.853h55.816c1.994,0,3.621,1.619,3.621,3.612l0,0
		c0,1.994-1.627,3.622-3.621,3.622h-55.816c-1.986,0-3.612-1.628-3.612-3.622l0,0C494.399,400.471,496.025,398.853,498.012,398.853"
		/>
	<path fill-rule="evenodd" clip-rule="evenodd" fill="#BCC2C6" d="M268.264,484.29h289.744c2.161,0,3.931,1.771,3.931,3.94l0,0
		c0,2.169-1.77,3.938-3.931,3.938H268.264c-2.17,0-3.938-1.769-3.938-3.938l0,0C264.325,486.061,266.094,484.29,268.264,484.29"/>
	<path fill-rule="evenodd" clip-rule="evenodd" fill="#BCC2C6" d="M268.264,504.075h289.744c2.161,0,3.931,1.77,3.931,3.931v0.009
		c0,2.161-1.77,3.93-3.931,3.93H268.264c-2.17,0-3.938-1.769-3.938-3.93v-0.009C264.325,505.845,266.094,504.075,268.264,504.075"/>
	<path fill-rule="evenodd" clip-rule="evenodd" fill="#BCC2C6" d="M268.264,464.514h140.938c2.162,0,3.923,1.771,3.923,3.932v0.009
		c0,2.16-1.761,3.929-3.923,3.929H268.264c-2.17,0-3.938-1.769-3.938-3.929v-0.009C264.325,466.284,266.094,464.514,268.264,464.514
		"/>
	<!-- <path fill-rule="evenodd" clip-rule="evenodd" fill="#94A4A5" d="M452.393,215.149c-1.002-2.012-3.105-2.595-5.139-2.595
		c-2.405,0.017-5.059,1.118-5.059,3.813c0,2.929,2.462,3.638,5.132,3.955c1.736,0.184,3.029,0.692,3.029,1.919
		c0,1.427-1.461,1.961-3.004,1.961c-1.594,0-3.104-0.634-3.688-2.07l-2.053,1.06c0.969,2.395,3.028,3.213,5.691,3.213
		c2.92,0,5.49-1.252,5.49-4.164c0-3.113-2.537-3.822-5.258-4.164c-1.568-0.184-2.921-0.5-2.921-1.635
		c0-0.977,0.886-1.744,2.713-1.744c1.419,0,2.645,0.718,3.097,1.46L452.393,215.149z M430.889,212.988c-2.053-0.024-4.112,0-6.166,0
		v13.084h2.471v-3.847h3.695C437.289,222.225,437.272,212.988,430.889,212.988z M427.193,215.341h3.695c3.138,0,3.154,4.631,0,4.631
		h-3.695V215.341z M417.813,223.644h-7.343v-2.946h7.076v-2.303h-7.076v-3.021h7.343v-2.386h-9.778c0,4.356,0,8.737,0,13.084h9.778
		V223.644z M394.948,226.072h2.472v-10.848h4.139v-2.236c-3.788,0-6.977,0-10.748,0v2.236h4.138V226.072z M384.243,215.149
		c-0.993-2.012-3.095-2.595-5.131-2.595c-2.413,0.017-5.065,1.118-5.065,3.813c0,2.929,2.469,3.638,5.132,3.955
		c1.735,0.184,3.027,0.692,3.027,1.919c0,1.427-1.46,1.961-3.011,1.961c-1.586,0-3.088-0.634-3.673-2.07l-2.052,1.06
		c0.968,2.395,3.02,3.213,5.69,3.213c2.913,0,5.491-1.252,5.491-4.164c0-3.113-2.536-3.822-5.266-4.164
		c-1.568-0.184-2.912-0.5-2.912-1.635c0-0.977,0.876-1.744,2.704-1.744c1.418,0,2.653,0.718,3.104,1.46L384.243,215.149z"/> -->
</g>
</svg>
