<?xml version="1.0" encoding="utf-8"?>
<!-- Generator: Adobe Illustrator 15.1.0, SVG Export Plug-In . SVG Version: 6.00 Build 0)  -->
<!DOCTYPE svg PUBLIC "-//W3C//DTD SVG 1.0//EN" "http://www.w3.org/TR/2001/REC-SVG-20010904/DTD/svg10.dtd">
<svg version="1.0" id="Layer_1" xmlns="http://www.w3.org/2000/svg" xmlns:xlink="http://www.w3.org/1999/xlink" x="0px" y="0px"
	 width="800px" height="800px" viewBox="191.9739990234375 200.41400146484375 421.4830322265625 378.35400390625" enable-background="new 0 0 800 800" xml:space="preserve">
<g>
	<!-- <path fill="#BCC2C6" d="M208.205,200.414h389.021c4.463,0,8.527,1.836,11.466,4.773v0.017c2.938,2.937,4.765,6.993,4.765,11.449
		v345.873c0,4.456-1.826,8.512-4.765,11.449v0.017c-2.938,2.938-7.003,4.774-11.466,4.774H208.205
		c-4.465,0-8.528-1.837-11.467-4.774v-0.017c-2.938-2.938-4.764-6.993-4.764-11.449V216.653c0-4.456,1.826-8.512,4.764-11.449
		v-0.017C199.677,202.25,203.74,200.414,208.205,200.414"/>
	<path fill="#EBEFF0" d="M607.565,216.653v345.873c0,6.527-4.54,10.349-10.34,10.349H208.205c-5.791,0-10.34-3.723-10.34-10.349
		V216.653c0-6.759,4.565-10.347,10.34-10.347h389.021C603.017,206.307,607.565,210.028,607.565,216.653"/> -->
	<path fill="#BCC2C6" d="M206.061,247.947h393.309c3.881,0,7.402,1.569,9.948,4.123c2.553,2.553,4.139,6.075,4.139,9.964v302.646
		c0,3.873-1.586,7.395-4.139,9.948c-2.546,2.553-6.067,4.14-9.948,4.14H206.061c-3.88,0-7.402-1.587-9.948-4.14
		c-2.552-2.554-4.138-6.075-4.138-9.948V262.033c0-3.889,1.586-7.411,4.138-9.964C198.658,249.516,202.181,247.947,206.061,247.947"
		/>
	<path fill-rule="evenodd" clip-rule="evenodd" fill="#FFFFFF" d="M206.061,253.822c-2.179,0-4.247,0.867-5.784,2.42
		c-1.543,1.535-2.411,3.605-2.411,5.792v302.646c0,2.171,0.868,4.24,2.411,5.792c1.537,1.536,3.605,2.404,5.784,2.404h393.309
		c2.179,0,4.248-0.868,5.792-2.404c1.535-1.552,2.404-3.621,2.404-5.792V262.033c0-2.187-0.869-4.256-2.404-5.792
		c-1.544-1.553-3.613-2.42-5.792-2.42H206.061z"/>
	<!-- <path fill-rule="evenodd" clip-rule="evenodd" fill="#94A4A5" d="M548.75,220.409c4.138,0,7.503,3.354,7.503,7.494
		c0,4.139-3.365,7.494-7.503,7.494c-4.139,0-7.493-3.355-7.493-7.494C541.257,223.763,544.611,220.409,548.75,220.409
		 M572.299,220.409c4.141,0,7.495,3.354,7.495,7.494c0,4.139-3.354,7.494-7.495,7.494c-4.139,0-7.501-3.355-7.501-7.494
		C564.798,223.763,568.16,220.409,572.299,220.409z M525.208,220.409c4.139,0,7.493,3.354,7.493,7.494
		c0,4.139-3.354,7.494-7.493,7.494c-4.138,0-7.492-3.355-7.492-7.494C517.716,223.763,521.07,220.409,525.208,220.409z"/> -->
	<path fill-rule="evenodd" clip-rule="evenodd" fill="#34495E" d="M238.839,536.992h327.752c4.531,0,8.236-3.704,8.236-8.245
		V382.933c0-4.54-3.713-8.245-8.236-8.245H238.839c-4.531,0-8.245,3.705-8.245,8.245v145.814
		C230.594,533.288,234.308,536.992,238.839,536.992"/>
	<path fill="#22A6EF" d="M238.839,380.346h327.752c1.42,0,2.578,1.168,2.578,2.57v145.831c0,1.419-1.168,2.586-2.578,2.586H238.839
		c-1.41,0-2.579-1.167-2.579-2.586V382.917C236.26,381.514,237.42,380.346,238.839,380.346"/>
	<path fill-rule="evenodd" clip-rule="evenodd" fill="#34495E" d="M318.208,410.771h169.015c2.745,0,4.982,2.237,4.982,4.975v15.288
		c0,2.737-2.245,4.973-4.982,4.973H318.208c-2.739,0-4.983-2.235-4.983-4.973v-15.288
		C313.225,413.008,315.461,410.771,318.208,410.771"/>
	<rect x="319.115" y="416.663" fill-rule="evenodd" clip-rule="evenodd" fill="#FFFFFF" width="167.208" height="13.451"/>
	<path fill-rule="evenodd" clip-rule="evenodd" fill="#34495E" d="M346.863,457.019h111.704c2.169,0,3.938,1.771,3.938,3.938l0,0
		c0,2.171-1.77,3.921-3.938,3.921H346.863c-2.169,0-3.94-1.75-3.94-3.921l0,0C342.923,458.789,344.694,457.019,346.863,457.019"/>
	<path fill="#1C8DCB" d="M426.239,494.049h-44.621c-1.718,0-3.278,0.7-4.412,1.837c-1.138,1.134-1.837,2.687-1.837,4.405l0,0
		c0,1.719,0.699,3.288,1.828,4.406l0.009,0.017c1.126,1.117,2.687,1.819,4.412,1.819h44.621c1.719,0,3.279-0.702,4.414-1.836
		c1.127-1.134,1.826-2.688,1.826-4.406l0,0c0-1.719-0.699-3.288-1.826-4.423C429.527,494.749,427.958,494.049,426.239,494.049
		 M381.618,487.924h44.621c3.396,0,6.483,1.401,8.719,3.638l0.01,0.018c2.246,2.235,3.629,5.324,3.629,8.712l0,0
		c0,3.404-1.383,6.492-3.629,8.729c-2.237,2.236-5.323,3.621-8.729,3.621h-44.621c-3.395,0-6.475-1.385-8.72-3.621h-0.008
		l-0.009-0.019c-2.235-2.235-3.621-5.322-3.621-8.711l0,0c0-3.404,1.386-6.492,3.621-8.729
		C375.118,489.325,378.214,487.924,381.618,487.924z"/>
	<path fill="#34495E" d="M379.19,482.883h44.62c3.396,0,6.484,1.386,8.72,3.621l0.018,0.019c2.236,2.236,3.629,5.323,3.629,8.712
		c0,3.403-1.393,6.492-3.629,8.729c-2.236,2.253-5.331,3.638-8.737,3.638h-44.62c-3.387,0-6.475-1.385-8.72-3.638h-0.009l0,0
		c-2.246-2.252-3.629-5.342-3.629-8.729c0-3.389,1.383-6.492,3.629-8.73C372.698,484.269,375.786,482.883,379.19,482.883"/>
	<path fill="#27CABF" d="M423.811,486.555c2.312,0,4.515,0.918,6.142,2.555c1.628,1.618,2.546,3.821,2.546,6.125
		s-0.926,4.505-2.554,6.142c-1.627,1.617-3.822,2.554-6.134,2.554h-44.62c-2.304,0-4.506-0.918-6.133-2.538l-0.008-0.016
		c-1.629-1.637-2.546-3.838-2.546-6.142s0.925-4.507,2.554-6.125c1.627-1.637,3.821-2.555,6.133-2.555H423.811z"/>
	<path fill="#51F4E9" d="M423.811,486.555c2.312,0,4.515,0.918,6.142,2.555c1.628,1.618,2.546,3.821,2.546,6.125
		c0,0.6-0.066,1.185-0.175,1.753c-0.343-1.652-1.161-3.173-2.371-4.391c-1.627-1.635-3.83-2.537-6.142-2.537h-44.62
		c-2.312,0-4.506,0.919-6.133,2.537c-1.21,1.218-2.027,2.738-2.371,4.391c-0.116-0.568-0.183-1.153-0.183-1.753
		c0-2.304,0.925-4.507,2.554-6.125c1.627-1.637,3.821-2.555,6.133-2.555H423.811z"/>
	<path fill-rule="evenodd" clip-rule="evenodd" fill="#BCC2C6" d="M291.444,308.113h222.548c2.163,0,3.933,1.77,3.933,3.939l0,0
		c0,2.169-1.77,3.939-3.933,3.939H291.444c-2.17,0-3.938-1.77-3.938-3.939l0,0C287.506,309.882,289.274,308.113,291.444,308.113"/>
	<path fill-rule="evenodd" clip-rule="evenodd" fill="#BCC2C6" d="M305.798,327.891h193.834c2.17,0,3.938,1.769,3.938,3.938l0,0
		c0,2.17-1.769,3.939-3.938,3.939H305.798c-2.162,0-3.939-1.769-3.939-3.939l0,0C301.858,329.66,303.636,327.891,305.798,327.891"/>
	<!-- <path fill-rule="evenodd" clip-rule="evenodd" fill="#94A4A5" d="M463.517,232.242h-7.637v-3.071h7.361v-2.386h-7.361v-3.154h7.637
		v-2.487h-10.182c0,4.54,0,9.096,0,13.619h10.182V232.242z M444.965,221.143c-2.153,0-4.313,0-6.449,0v13.619
		c2.161,0,4.296,0,6.449,0c2.821,0,5.091-0.968,5.091-4.005c0-0.852-0.585-2.537-2.178-3.021c1.26-0.567,1.77-1.585,1.77-2.637
		C449.647,222.361,447.644,221.143,444.965,221.143z M441.044,223.479h3.921c1.627,0,2.136,1.052,2.136,1.686
		c0,0.784-0.525,1.468-2.136,1.468h-3.921V223.479z M441.044,228.87h3.921c1.052,0,2.546,0.651,2.546,1.87
		c0,1.285-1.494,1.635-2.546,1.635h-3.921V228.87z M434.667,234.762v-13.619h-2.546v13.619H434.667z M423.96,223.529
		c1.611,0,2.339,1.102,2.339,2.187c0,1.101-0.702,2.186-2.339,2.186h-3.896v-4.373H423.96z M429.536,234.594l-4.115-4.656
		c2.578-0.517,3.438-2.403,3.438-4.272c0-2.353-1.693-4.489-4.898-4.523c-2.152,0.034-4.305,0-6.465,0v13.619h2.568v-4.54h2.462
		l3.964,4.54h3.047V234.594z M412.771,231.29c-0.893,0.884-2.228,1.369-3.412,1.369c-3.365,0-4.666-2.337-4.683-4.59
		c-0.025-2.287,1.394-4.723,4.683-4.723c1.185,0,2.385,0.4,3.278,1.285l1.712-1.652c-1.402-1.386-3.146-2.087-4.99-2.087
		c-4.916,0-7.227,3.622-7.211,7.177c0.024,3.522,2.161,7.01,7.211,7.01c1.961,0,3.763-0.65,5.165-2.019L412.771,231.29z
		 M398.609,223.396c-1.026-2.086-3.221-2.687-5.341-2.687c-2.504,0.016-5.258,1.151-5.258,3.955c0,3.054,2.563,3.789,5.333,4.123
		c1.811,0.183,3.146,0.717,3.146,2.002c0,1.469-1.513,2.036-3.122,2.036c-1.652,0-3.221-0.667-3.83-2.153l-2.135,1.102
		c1.009,2.486,3.146,3.338,5.925,3.338c3.027,0,5.714-1.303,5.714-4.323c0-3.254-2.645-3.989-5.481-4.34
		c-1.626-0.2-3.028-0.517-3.028-1.702c0-1.018,0.916-1.819,2.812-1.819c1.478,0,2.763,0.751,3.23,1.519L398.609,223.396z
		 M379.357,221.143c-2.151,0-4.306,0-6.442,0v13.619c2.153,0,4.291,0,6.442,0c2.82,0,5.091-0.968,5.091-4.005
		c0-0.852-0.585-2.537-2.17-3.021c1.261-0.567,1.76-1.585,1.76-2.637C384.038,222.361,382.046,221.143,379.357,221.143z
		 M375.436,223.479h3.922c1.636,0,2.137,1.052,2.137,1.686c0,0.784-0.518,1.468-2.137,1.468h-3.922V223.479z M375.436,228.87h3.922
		c1.052,0,2.545,0.651,2.545,1.87c0,1.285-1.493,1.635-2.545,1.635h-3.922V228.87z M366.423,221.193v7.777
		c0,2.336-1.201,3.755-3.321,3.755c-2.118,0-3.513-1.301-3.513-3.755v-7.777h-2.546v7.777c0,4.106,2.779,6.091,6.042,6.091
		c3.413,0,5.884-2.069,5.884-6.091v-7.777H366.423z M353.113,223.396c-1.027-2.086-3.221-2.687-5.34-2.687
		c-2.504,0.016-5.267,1.151-5.267,3.955c0,3.054,2.57,3.789,5.35,4.123c1.802,0.183,3.146,0.717,3.146,2.002
		c0,1.469-1.519,2.036-3.13,2.036c-1.652,0-3.221-0.667-3.821-2.153l-2.144,1.102c1.016,2.486,3.154,3.338,5.925,3.338
		c3.027,0,5.706-1.303,5.706-4.323c0-3.254-2.637-3.989-5.474-4.34c-1.628-0.2-3.03-0.517-3.03-1.702
		c0-1.018,0.91-1.819,2.822-1.819c1.469,0,2.752,0.751,3.222,1.519L353.113,223.396z"/> -->
</g>
</svg>
