<?xml version="1.0" encoding="utf-8"?>
<!-- Generator: Adobe Illustrator 15.1.0, SVG Export Plug-In . SVG Version: 6.00 Build 0)  -->
<!DOCTYPE svg PUBLIC "-//W3C//DTD SVG 1.0//EN" "http://www.w3.org/TR/2001/REC-SVG-20010904/DTD/svg10.dtd">
<svg version="1.0" id="Layer_1" xmlns="http://www.w3.org/2000/svg" xmlns:xlink="http://www.w3.org/1999/xlink" x="0px" y="0px"
	 width="800px" height="800px" viewBox="207.3040008544922 200.41400146484375 421.4840087890625 378.35400390625" enable-background="new 0 0 800 800" xml:space="preserve">
<g>
	<!-- <path fill="#BCC2C6" d="M223.536,200.414h389.021c4.464,0,8.528,1.836,11.466,4.773v0.017c2.936,2.937,4.765,6.993,4.765,11.449
		v345.873c0,4.456-1.829,8.512-4.765,11.449v0.017c-2.938,2.938-7.002,4.774-11.466,4.774H223.536
		c-4.474,0-8.528-1.837-11.465-4.774v-0.017c-2.939-2.938-4.767-6.993-4.767-11.449V216.653c0-4.456,1.827-8.512,4.767-11.449
		v-0.017C215.008,202.25,219.063,200.414,223.536,200.414"/>
	<path fill="#EBEFF0" d="M622.896,216.653v345.873c0,6.527-4.54,10.349-10.34,10.349H223.536c-5.792,0-10.34-3.723-10.34-10.349
		V216.653c0-6.759,4.564-10.347,10.34-10.347h389.021C618.349,206.307,622.896,210.028,622.896,216.653"/> -->
	<path fill="#BCC2C6" d="M221.392,247.947h393.31c3.88,0,7.401,1.585,9.946,4.123c2.555,2.553,4.14,6.075,4.14,9.964v302.646
		c0,3.873-1.585,7.395-4.14,9.948c-2.545,2.553-6.066,4.14-9.946,4.14h-393.31c-3.871,0-7.401-1.587-9.946-4.14
		c-2.554-2.554-4.141-6.075-4.141-9.948V262.033c0-3.889,1.587-7.411,4.141-9.964C213.99,249.532,217.521,247.947,221.392,247.947"
		/>
	<path fill-rule="evenodd" clip-rule="evenodd" fill="#FFFFFF" d="M221.392,253.822c-2.178,0-4.247,0.884-5.791,2.42
		c-1.534,1.535-2.412,3.605-2.412,5.792v302.646c0,2.171,0.878,4.24,2.412,5.792c1.544,1.536,3.613,2.404,5.791,2.404h393.31
		c2.18,0,4.249-0.868,5.782-2.404c1.545-1.552,2.413-3.604,2.413-5.792V262.033c0-2.187-0.868-4.256-2.413-5.792
		c-1.533-1.553-3.613-2.42-5.782-2.42H221.392z"/>
	<!-- <path fill-rule="evenodd" clip-rule="evenodd" fill="#94A4A5" d="M564.081,220.409c4.14,0,7.502,3.354,7.502,7.494
		c0,4.139-3.354,7.51-7.502,7.51c-4.139,0-7.492-3.372-7.492-7.51C556.589,223.763,559.942,220.409,564.081,220.409 M587.63,220.409
		c4.141,0,7.494,3.354,7.494,7.494c0,4.139-3.354,7.51-7.494,7.51c-4.139,0-7.501-3.372-7.501-7.51
		C580.129,223.763,583.491,220.409,587.63,220.409z M540.54,220.409c4.14,0,7.494,3.354,7.494,7.494c0,4.139-3.354,7.51-7.494,7.51
		c-4.139,0-7.502-3.372-7.502-7.51C533.038,223.763,536.401,220.409,540.54,220.409z"/> -->
	<path fill-rule="evenodd" clip-rule="evenodd" fill="#BCC2C6" d="M254.17,536.992h327.753c4.531,0,8.236-3.704,8.236-8.228V382.933
		c0-4.54-3.705-8.245-8.236-8.245H254.17c-4.53,0-8.243,3.705-8.243,8.245v145.832C245.927,533.288,249.632,536.992,254.17,536.992"
		/>
	<path fill="#EBEFF0" d="M254.17,380.346h327.753c1.418,0,2.578,1.168,2.578,2.586v145.814c0,1.419-1.168,2.586-2.578,2.586H254.17
		c-1.411,0-2.577-1.167-2.577-2.586V382.933C251.593,381.514,252.751,380.346,254.17,380.346"/>
	<path fill-rule="evenodd" clip-rule="evenodd" fill="#BCC2C6" d="M524.302,499.423h-52.714v-29.737h52.714l14.869,14.866
		L524.302,499.423z M427.859,499.423h-38.168v-29.737h38.168l14.87,14.866L427.859,499.423z M357.196,499.423h-52.707v-29.737
		h52.707l14.878,14.866L357.196,499.423z M524.302,450.393h-38.178v-29.757h38.178l14.869,14.887L524.302,450.393z M441.587,450.393
		h-52.714v-29.757h52.714l14.872,14.887L441.587,450.393z M342.659,450.393h-38.17v-29.757h38.17l14.87,14.887L342.659,450.393z"/>
	<path fill-rule="evenodd" clip-rule="evenodd" fill="#BCC2C6" d="M306.774,308.113h222.541c2.17,0,3.94,1.77,3.94,3.939l0,0
		c0,2.169-1.771,3.939-3.94,3.939H306.774c-2.168,0-3.938-1.77-3.938-3.939l0,0C302.837,309.882,304.606,308.113,306.774,308.113"/>
	<path fill-rule="evenodd" clip-rule="evenodd" fill="#BCC2C6" d="M321.131,327.891h193.833c2.171,0,3.938,1.769,3.938,3.938
		c0,2.17-1.767,3.939-3.938,3.939H321.131c-2.171,0-3.94-1.769-3.94-3.939C317.19,329.66,318.96,327.891,321.131,327.891"/>
	<path fill-rule="evenodd" clip-rule="evenodd" fill="#34495E" d="M520.513,495.234h-52.706v-29.737h52.706l14.879,14.87
		L520.513,495.234z M424.071,495.234h-38.168v-29.737h38.168l14.879,14.87L424.071,495.234z M353.416,495.234h-52.714v-29.737
		h52.714l14.87,14.87L353.416,495.234z M520.513,446.203h-38.169v-29.756h38.169l14.879,14.869L520.513,446.203z M437.8,446.203
		h-52.716v-29.756H437.8l14.878,14.869L437.8,446.203z M338.87,446.203h-38.168v-29.756h38.168l14.881,14.869L338.87,446.203z"/>
	<polygon fill-rule="evenodd" clip-rule="evenodd" fill="#22A6EF" points="336.526,440.529 306.368,440.529 306.368,422.121
		336.526,422.121 345.737,431.316 	"/>
	<polygon fill-rule="evenodd" clip-rule="evenodd" fill="#22A6EF" points="435.454,440.529 390.75,440.529 390.75,422.121
		435.454,422.121 444.667,431.316 	"/>
	<polygon fill-rule="evenodd" clip-rule="evenodd" fill="#22A6EF" points="518.168,440.529 488.009,440.529 488.009,422.121
		518.168,422.121 527.38,431.316 	"/>
	<polygon fill-rule="evenodd" clip-rule="evenodd" fill="#22A6EF" points="351.071,489.558 306.368,489.558 306.368,471.154
		351.071,471.154 360.274,480.367 	"/>
	<polygon fill-rule="evenodd" clip-rule="evenodd" fill="#22A6EF" points="421.727,489.558 391.569,489.558 391.569,471.154
		421.727,471.154 430.938,480.367 	"/>
	<polygon fill-rule="evenodd" clip-rule="evenodd" fill="#22A6EF" points="518.168,489.558 473.464,489.558 473.464,471.154
		518.168,471.154 527.38,480.367 	"/>
	<!-- <path fill-rule="evenodd" clip-rule="evenodd" fill="#94A4A5" d="M455.439,223.045c-1.109-2.253-3.479-2.904-5.767-2.904
		c-2.703,0.017-5.674,1.252-5.674,4.273c0,3.288,2.762,4.089,5.758,4.439c1.952,0.2,3.396,0.768,3.396,2.153
		c0,1.603-1.636,2.203-3.371,2.203c-1.785,0-3.479-0.717-4.131-2.32l-2.304,1.186c1.087,2.687,3.397,3.605,6.394,3.605
		c3.261,0,6.156-1.402,6.156-4.674c0-3.488-2.852-4.289-5.906-4.673c-1.762-0.2-3.271-0.567-3.271-1.836
		c0-1.101,0.983-1.952,3.036-1.952c1.593,0,2.979,0.801,3.48,1.636L455.439,223.045z M434.952,222.461
		c-1.51-1.485-3.479-2.236-5.449-2.236c-5.172,0-7.751,3.805-7.751,7.927c0,3.855,2.243,7.494,7.751,7.494
		c2.581,0,4.398-0.984,5.852-2.653v-6.176h-6.293v2.471h3.756v2.604c-1.151,0.917-2.162,1.168-3.314,1.168
		c-3.646,0-5.047-2.487-5.047-4.907c0-3.004,1.902-5.391,5.047-5.391c1.277,0,2.746,0.518,3.731,1.452L434.952,222.461z
		 M409.819,229.955h-5.449l2.72-6.258L409.819,229.955z M412.163,235.313h3.014l-6.576-14.687h-3.021l-6.576,14.687H402l1.259-2.771
		h7.67L412.163,235.313z M384.843,235.313h2.771v-12.184h4.648v-2.503c-4.255,0-7.836,0-12.068,0v2.503h4.649V235.313z"/> -->
</g>
</svg>
