<?xml version="1.0" encoding="utf-8"?>
<!-- Generator: Adobe Illustrator 15.1.0, SVG Export Plug-In . SVG Version: 6.00 Build 0)  -->
<!DOCTYPE svg PUBLIC "-//W3C//DTD SVG 1.0//EN" "http://www.w3.org/TR/2001/REC-SVG-20010904/DTD/svg10.dtd">
<svg version="1.0" id="Layer_1" xmlns="http://www.w3.org/2000/svg" xmlns:xlink="http://www.w3.org/1999/xlink" x="0px" y="0px"
	 width="800px" height="800px" viewBox="196.54800415039062 191.99400329589844 421.4529724121094 378.32000732421875" enable-background="new 0 0 800 800" xml:space="preserve">
<g>
	<!-- <path fill="#BCC2C6" d="M212.77,191.994h389c4.474,0,8.529,1.827,11.467,4.765v0.016c2.936,2.946,4.764,6.993,4.764,11.449v345.868
		c0,4.456-1.828,8.512-4.764,11.449v0.017c-2.938,2.938-6.993,4.756-11.467,4.756h-389c-4.473,0-8.529-1.818-11.467-4.756v-0.017
		c-2.936-2.938-4.755-6.993-4.755-11.449V208.224c0-4.456,1.819-8.503,4.755-11.449v-0.016
		C204.24,193.821,208.297,191.994,212.77,191.994"/>
	<path fill="#EBEFF0" d="M612.117,208.224v345.868c0,6.509-4.539,10.331-10.348,10.331h-389c-5.791,0-10.338-3.705-10.338-10.331
		V208.224c0-6.751,4.564-10.339,10.338-10.339h389C607.563,197.884,612.117,201.598,612.117,208.224"/> -->
	<path fill="#BCC2C6" d="M210.634,239.515h393.282c3.88,0,7.4,1.578,9.955,4.13c2.545,2.554,4.129,6.075,4.129,9.956v302.629
		c0,3.888-1.584,7.409-4.129,9.946c-2.555,2.552-6.075,4.138-9.955,4.138H210.634c-3.88,0-7.402-1.586-9.956-4.138
		c-2.545-2.537-4.13-6.059-4.13-9.946V253.601c0-3.88,1.585-7.402,4.13-9.956C203.231,241.092,206.754,239.515,210.634,239.515"/>
	<path fill-rule="evenodd" clip-rule="evenodd" fill="#FFFFFF" d="M210.634,245.397c-2.187,0-4.256,0.876-5.791,2.412
		c-1.544,1.544-2.411,3.613-2.411,5.792v302.629c0,2.169,0.867,4.256,2.411,5.791c1.535,1.533,3.604,2.402,5.791,2.402h393.282
		c2.178,0,4.247-0.869,5.783-2.402c1.543-1.535,2.418-3.605,2.418-5.791V253.601c0-2.187-0.875-4.248-2.418-5.792
		c-1.536-1.543-3.605-2.412-5.783-2.412H210.634z"/>
	<!-- <path fill-rule="evenodd" clip-rule="evenodd" fill="#94A4A5" d="M553.307,211.987c4.139,0,7.493,3.354,7.493,7.493
		s-3.354,7.502-7.493,7.502c-4.14,0-7.492-3.363-7.492-7.502S549.167,211.987,553.307,211.987 M576.846,211.987
		c4.14,0,7.502,3.354,7.502,7.493s-3.362,7.502-7.502,7.502c-4.146,0-7.501-3.363-7.501-7.502S572.708,211.987,576.846,211.987z
		 M529.758,211.987c4.14,0,7.494,3.354,7.494,7.493s-3.354,7.502-7.494,7.502c-4.139,0-7.492-3.363-7.492-7.502
		S525.619,211.987,529.758,211.987z"/> -->
	<path fill-rule="evenodd" clip-rule="evenodd" fill="#EBEFF0" d="M407.271,431.266c53.262,0,96.436,5.892,96.436,13.186
		c0,7.275-43.174,13.184-96.436,13.184c-53.256,0-96.438-5.908-96.438-13.184C310.834,437.157,354.016,431.266,407.271,431.266"/>
	<path fill-rule="evenodd" clip-rule="evenodd" fill="#BCC2C6" d="M422.732,355.865c3.537-0.284,5.174,3.521,6.309,6.626
		c0.968,2.603,2.454,8.662-0.059,9.847C425.369,374.041,419.463,361.106,422.732,355.865 M468.46,442.766
		c2.511,0.066,3.954,0.399,4.848-1.603c0.993-2.236-2.819-12.05-3.93-14.304l-40.872,13.101c0.553,2.321,3.473,13.084,5.324,14.003
		c2.07,1.019,3.455,0.184,4.206-1.2c2.528,0.366,3.396,0.383,4.257-1.536c2.887,0.267,2.035,0.717,4.172-0.719
		c1.992-1.335,1.718,0.268,3.721-0.883c2.019-1.17,0.066-0.953,2.846-1.052c2.244-0.102,2.078-1.22,2.963-1.503
		c1.334-0.4,1.65,0.901,3.62-0.801c1.854-1.585,0.786,0.018,3.188-0.7c1.869-0.551,0.584-1.318,2.762-1.318
		C467.9,444.268,468.077,444.2,468.46,442.766z M419.295,411.374l39.996-13.019c-2.881-8.127-14.354-2.754-18.317-2.37l-1.636-8.126
		l-2.553-12.067c-0.817-5.891-2.73-17.173-7.344-21.145c-2.753-2.37-6.775-3.789-9.814-0.551
		c-5.063,5.374-1.065,14.202,1.754,19.626c3.764,7.26,9.83,17.674,12.533,24.433c-0.383,0.334,0.117,0.117-0.909,0.584
		C426.178,401.91,419.36,401.761,419.295,411.374z M427.138,436.14c3.021-0.635,7.377-2.304,10.481-3.321
		c5.34-1.735,28.58-9.013,30.391-10.146c-0.651-3.238-2.563-8.028-3.638-11.316c-0.644-1.935-1.261-3.688-1.87-5.606
		c-0.385-1.201-1.268-4.456-2.002-5.374l-40.763,13.452L427.138,436.14z M370.764,354.731c-7.102,0.534-14.703,1.853-20.544,4.506
		c-12.492,5.691-11.999,14.186,0.476,19.125c28.195,11.182,72.188,0.066,60.221-14.419
		C404.09,355.699,381.828,353.913,370.764,354.731z M369.312,360.038c9.204-1.051,21.862-0.35,29.106,3.971
		c5.139,3.071,4.514,6.91-0.418,9.646c-3.605,2.003-8.463,3.171-13.076,3.705c-21.403,2.57-41.889-5.958-28.814-13.635
		C359.515,361.724,364.864,360.556,369.312,360.038z M410.541,443.082l2.428-1.235l-0.051-64.436
		c-0.558,0.601-0.148,0.3-0.759,0.317c-0.424,0.667-0.007,0.149-0.685,0.868l-2.444,1.819c-1.159,0.718-2.337,1.302-3.755,1.936
		c-15.521,6.892-42.156,6.875-57.434-0.434c-4.365-2.086-4.447-2.937-6.768-4.289l0.033,64.285c2.369,0.936,4.789,2.471,7.459,3.555
		C370.028,454.081,390.07,453.729,410.541,443.082z"/>
	<!-- <path fill-rule="evenodd" clip-rule="evenodd" fill="#94A4A5" d="M507.43,220.907l-5.917-7.494h-1.845v12.083h2.27v-8.145
		l6.35,8.145h1.41v-12.083h-2.268V220.907z M490.447,215.258c2.846,0,3.98,2.277,3.947,4.306c-0.034,1.986-1.102,4.13-3.947,4.13
		s-3.913-2.128-3.965-4.113C486.434,217.553,487.602,215.258,490.447,215.258z M490.447,213.188c-4.172,0-6.201,3.188-6.201,6.366
		c0,3.171,1.964,6.217,6.201,6.217c4.247,0,6.158-3.122,6.193-6.242C496.682,216.376,494.611,213.188,490.447,213.188z
		 M481.094,225.497v-12.083h-2.253v12.083H481.094z M470.154,225.497h2.277v-10.014h3.821v-2.069c-3.496,0-6.44,0-9.929,0v2.069
		h3.83V225.497z M463.203,222.417c-0.801,0.785-1.986,1.219-3.037,1.219c-2.988,0-4.139-2.086-4.156-4.081
		c-0.016-2.02,1.234-4.197,4.156-4.197c1.051,0,2.119,0.367,2.912,1.143l1.51-1.469c-1.234-1.227-2.786-1.844-4.422-1.844
		c-4.365,0-6.416,3.204-6.4,6.366c0.018,3.138,1.91,6.217,6.4,6.217c1.734,0,3.337-0.568,4.589-1.786L463.203,222.417z
		 M448.449,213.447v6.917c0,2.07-1.067,3.329-2.953,3.329c-1.877,0-3.121-1.159-3.121-3.329v-6.917h-2.252v6.917
		c0,3.638,2.462,5.391,5.355,5.391c3.039,0,5.225-1.827,5.225-5.391v-6.917H448.449z M432.697,215.533
		c1.434,0,2.068,0.968,2.068,1.936c0,0.976-0.618,1.944-2.068,1.944h-3.475v-3.88H432.697z M437.643,225.346l-3.654-4.123
		c2.295-0.467,3.046-2.136,3.046-3.805c0-2.094-1.493-3.989-4.337-4.006c-1.921,0.017-3.832,0-5.742,0v12.083h2.268v-4.031h2.195
		l3.514,4.031h2.711V225.346z M418.277,225.497h2.27v-10.014h3.82v-2.069c-3.486,0-6.439,0-9.93,0v2.069h3.84V225.497z
		 M409.605,220.907l-5.916-7.494h-1.844v12.083h2.279v-8.145l6.341,8.145h1.419v-12.083h-2.279V220.907z M392.625,215.258
		c2.854,0,3.99,2.277,3.956,4.306c-0.032,1.986-1.102,4.13-3.956,4.13c-2.836,0-3.904-2.128-3.963-4.113
		C388.611,217.553,389.789,215.258,392.625,215.258z M392.625,213.188c-4.171,0-6.208,3.188-6.208,6.366
		c0,3.171,1.97,6.217,6.208,6.217c4.248,0,6.16-3.122,6.192-6.242C398.85,216.376,396.781,213.188,392.625,213.188z
		 M382.946,222.417c-0.794,0.785-1.985,1.219-3.038,1.219c-2.979,0-4.138-2.086-4.155-4.081c-0.018-2.02,1.243-4.197,4.155-4.197
		c1.053,0,2.12,0.367,2.92,1.143l1.52-1.469c-1.242-1.227-2.795-1.844-4.439-1.844c-4.355,0-6.409,3.204-6.392,6.366
		c0.018,3.138,1.911,6.217,6.392,6.217c1.753,0,3.355-0.568,4.59-1.786L382.946,222.417z M363.32,215.533
		c1.426,0,2.069,0.968,2.069,1.936c0,0.976-0.626,1.944-2.069,1.944h-3.472v-3.88H363.32z M368.26,225.346l-3.656-4.123
		c2.304-0.467,3.055-2.136,3.055-3.805c0-2.094-1.501-3.989-4.338-4.006c-1.92,0.017-3.83,0-5.742,0v12.083h2.271v-4.031h2.187
		l3.521,4.031h2.704V225.346z M354.615,223.26h-6.773v-2.729h6.533v-2.12h-6.533v-2.795h6.773v-2.203h-9.035
		c0,4.031,0,8.069,0,12.083h9.035V223.26z M334.416,215.566h2.485c2.62,0,3.721,1.886,3.771,3.771
		c0.05,1.969-1.034,3.972-3.771,3.972h-2.485V215.566z M336.901,213.413c-1.485,0-3.262,0-4.74,0v12.083c1.479,0,3.255,0,4.74,0
		c4.222,0,6.083-3.08,6.032-6.142C342.876,216.359,341.04,213.413,336.901,213.413z M326.771,220.907l-5.916-7.494h-1.844v12.083
		h2.269v-8.145l6.351,8.145h1.41v-12.083h-2.27V220.907z M313.17,213.447v6.917c0,2.07-1.068,3.329-2.945,3.329
		c-1.878,0-3.121-1.159-3.121-3.329v-6.917h-2.262v6.917c0,3.638,2.471,5.391,5.365,5.391c3.029,0,5.225-1.827,5.225-5.391v-6.917
		H313.17z"/> -->
</g>
</svg>
