<?xml version="1.0" encoding="utf-8"?>
<!-- Generator: Adobe Illustrator 15.1.0, SVG Export Plug-In . SVG Version: 6.00 Build 0)  -->
<!DOCTYPE svg PUBLIC "-//W3C//DTD SVG 1.0//EN" "http://www.w3.org/TR/2001/REC-SVG-20010904/DTD/svg10.dtd">
<svg version="1.0" id="Layer_1" xmlns="http://www.w3.org/2000/svg" xmlns:xlink="http://www.w3.org/1999/xlink" x="0px" y="0px"
	 width="800px" height="800px" viewBox="0 0 800 800" enable-background="new 0 0 800 800" xml:space="preserve">
<g id="Header">
	<path fill="#BCC2C6" d="M33.1,34.5h736.2c8.5,0,16.1,3.5,21.7,9l0,0c5.6,5.6,9,13.2,9,21.7v654.6c0,8.4-3.5,16.1-9,21.7l0,0
		c-5.6,5.6-13.2,9-21.7,9H33.1c-8.5,0-16.1-3.5-21.7-9l0,0c-5.6-5.6-9-13.2-9-21.7V65.2c0-8.4,3.5-16.1,9-21.7l0,0
		C16.9,38,24.6,34.5,33.1,34.5"/>
	<path fill="#EBEFF0" d="M788.9,65.2v654.6c0,12.3-8.6,19.6-19.6,19.6H33.1c-11,0-19.6-7-19.6-19.6V65.2c0-12.8,8.6-19.6,19.6-19.6
		h736.2C780.2,45.6,788.9,52.7,788.9,65.2"/>
	<path fill="#94A4A5" d="M677.6,72.3c7.8,0,14.2,6.4,14.2,14.2s-6.3,14.2-14.2,14.2c-7.9,0-14.2-6.3-14.2-14.2
		C663.4,78.7,669.7,72.3,677.6,72.3 M722.1,72.3c7.8,0,14.2,6.4,14.2,14.2s-6.4,14.2-14.2,14.2c-7.8,0-14.2-6.3-14.2-14.2
		C707.9,78.7,714.3,72.3,722.1,72.3z M633,72.3c7.8,0,14.2,6.4,14.2,14.2s-6.3,14.2-14.2,14.2c-7.8,0-14.2-6.4-14.2-14.2
		S625.2,72.3,633,72.3z"/>
	
		<text transform="matrix(1 0 0 1 184.0015 83.2969)" fill="#93A2A3" font-family="'NexaBold'" font-size="44.0749" letter-spacing="2">ARTICLE</text>
</g>
<g id="Body">
	<path fill="#BCC2C6" d="M28.5,125.2h744.8c7.3,0,14,3,18.8,7.8c4.8,4.8,7.8,11.5,7.8,18.8V725c0,7.4-3,14-7.8,18.9
		c-4.8,4.8-11.5,7.8-18.8,7.8H28.5c-7.3,0-14-3-18.8-7.8C4.9,739,1.9,732.3,1.9,725V151.9c0-7.3,3-14,7.8-18.8
		C14.5,128.2,21.2,125.2,28.5,125.2"/>
	<path fill="#FFFFFF" d="M28.5,136.3c-4.1,0-8,1.6-11,4.6c-2.9,2.9-4.6,6.8-4.6,11V725c0,4.1,1.6,8.1,4.6,11c2.9,2.9,6.8,4.6,11,4.6
		h744.8c4.1,0,8-1.6,11-4.6c2.9-2.9,4.6-6.8,4.6-11V151.9c0-4.1-1.7-8-4.6-11c-2.9-2.9-6.8-4.6-11-4.6H28.5z"/>
	<polygon fill="#34495E" points="77.2,176.9 472.1,176.9 481.1,176.9 481.1,185.9 481.1,428.7 481.1,437.7 472.1,437.7 77.2,437.7 
		68.2,437.7 68.2,428.7 68.2,185.9 68.2,176.9 	"/>
	<rect x="79.5" y="188.2" fill="#22A6EF" width="390.4" height="238.3"/>
	<path opacity="0.15" enable-background="new    " d="M391.1,260.9c-4-3.9-9.4-6.4-15.5-6.4c-6.1,0-11.5,2.5-15.5,6.4
		c-3.9,4-6.4,9.4-6.4,15.5s2.4,11.5,6.4,15.5s9.4,6.4,15.5,6.4c6.1,0,11.5-2.4,15.5-6.4c3.9-4,6.4-9.4,6.4-15.5
		C397.4,270.3,395,264.9,391.1,260.9 M375.6,236.5c11,0,20.9,4.5,28.2,11.7l0,0c7.2,7.2,11.7,17.2,11.7,28.2s-4.5,21-11.7,28.2l0,0
		c-7.2,7.2-17.2,11.7-28.2,11.7s-21-4.5-28.2-11.7c-7.2-7.2-11.7-17.2-11.7-28.2s4.5-21,11.7-28.2l0,0
		C354.6,241,364.6,236.5,375.6,236.5z M356.5,334.3L356.5,334.3l0.3,0.4l5,6.7l-0.1,0.1l30.3,41.1c2.2,3,3.1,5.9,3.1,8.7l0,0
		c0,2.2-0.5,4.2-1.5,6c-0.9,1.7-2.2,3.1-3.7,4.2c-2.5,1.8-5.7,2.8-8.9,2.8l0,0h-76.1H159.2c-3.5,0-6.6-1-8.9-2.7
		c-1.6-1.2-2.9-2.7-3.8-4.5l0,0c-0.9-1.7-1.3-3.6-1.3-5.7l0,0c0-3,1-6.2,3.3-9.3l31.9-43.3l0,0l2.9-3.9l0.4-0.5l0,0l0.1-0.1
		l39.4-52.4c1.4-1.8,2.9-3.4,4.5-4.6c3.1-2.3,6.4-3.4,9.9-3.4s6.8,1.2,9.8,3.4c1.6,1.2,3.1,2.7,4.5,4.6l37.6,50l18.2-24.2
		c1.4-1.8,2.9-3.4,4.5-4.6c3-2.3,6.4-3.4,9.9-3.4s6.8,1.1,9.9,3.4c1.6,1.2,3.1,2.7,4.5,4.6L356.5,334.3L356.5,334.3z M372.4,386.3
		L342,344.9l-1.3-1.7l-18.6-24.7v-0.1v0.1l-21,28l-4.4,5.8l-7.2,9.5l-7.2-9.5l-4.3-5.8l-40.5-53.8v-0.1v0.1l-38.2,50.8l-1.1,1.5
		l-30.4,41.4h137.3L372.4,386.3z"/>
	<path fill="#34495E" d="M370,223.4c11,0,21,4.5,28.2,11.7l0,0c7.2,7.2,11.7,17.2,11.7,28.2s-4.5,21-11.7,28.2l0,0
		c-7.2,7.2-17.2,11.7-28.2,11.7s-21-4.5-28.2-11.7s-11.7-17.2-11.7-28.2s4.5-21,11.7-28.2l0,0C349,227.9,359,223.4,370,223.4
		 M350.9,321.2L350.9,321.2l0.3,0.4l5,6.7h-0.1l30.3,41.2c2.2,2.9,3.1,5.9,3.1,8.7l0,0c0,2.2-0.5,4.2-1.5,6c-0.9,1.7-2.2,3-3.7,4.2
		c-2.5,1.8-5.7,2.8-8.9,2.8l0,0h-76.1H153.6c-3.5,0-6.6-1-8.9-2.7c-1.6-1.2-2.9-2.7-3.8-4.5l0,0c-0.8-1.7-1.3-3.6-1.3-5.7l0,0
		c0-3,1-6.2,3.3-9.3l31.9-43.3v-0.1l2.9-3.9l0.4-0.5l0,0l0.1-0.1l39.4-52.4c1.4-1.8,2.9-3.4,4.5-4.6c3.1-2.3,6.5-3.4,9.9-3.4
		c3.5,0,6.8,1.2,9.8,3.4c1.6,1.2,3.1,2.7,4.5,4.6l37.6,50l18.2-24.2c1.4-1.8,2.9-3.4,4.5-4.6c3-2.3,6.4-3.4,9.9-3.4s6.8,1.1,9.9,3.4
		c1.6,1.2,3.1,2.8,4.5,4.6L350.9,321.2L350.9,321.2z"/>
	<path fill="#39D4FF" d="M370,233.6c7.9,0,15.4,3.1,20.9,8.7l0,0c5.6,5.6,8.7,13.1,8.7,20.9c0,7.9-3.1,15.3-8.7,20.9l0,0
		c-5.6,5.6-13,8.7-20.9,8.7s-15.4-3.1-21-8.7s-8.7-13.1-8.7-21s3.1-15.4,8.7-20.9l0,0C354.6,236.7,362.1,233.6,370,233.6"/>
	<path fill="#39D4FF" d="M283.8,335.8l26.4-35.1c0.7-0.9,1.5-1.8,2.5-2.6c1.1-0.8,2.3-1.4,3.8-1.4c1.4,0,2.6,0.6,3.7,1.4
		c0.9,0.7,1.8,1.6,2.5,2.6l20.2,26.9l35.3,47.9c0.4,0.5,0.8,1.2,1,1.9l0.1,0.3v0.8l-0.1,0.3c-0.1,0.6-0.5,1-0.9,1.3
		c-0.6,0.4-1.4,0.7-2.1,0.8h-0.1h-76.7H153.7c-0.9,0-2.1-0.2-2.8-0.7l-0.4-0.3l-0.6-1.2v-1v-0.2c0.2-0.9,0.7-1.8,1.2-2.5l34.9-47.4
		l39.7-52.7c0.7-0.9,1.5-1.8,2.5-2.6c1.1-0.8,2.3-1.4,3.7-1.4s2.6,0.6,3.7,1.4c0.9,0.7,1.8,1.6,2.5,2.5L283.8,335.8z"/>
	<path fill="#BCC2C6" d="M540.1,213.9h186.1c4.1,0,7.5,3.3,7.5,7.4l0,0c0,4.1-3.3,7.5-7.5,7.5H540.1c-4.1,0-7.5-3.4-7.5-7.5l0,0
		C532.7,217.2,536,213.9,540.1,213.9"/>
	<path fill="#BCC2C6" d="M540.1,251.4h186.1c4.1,0,7.5,3.4,7.5,7.4l0,0c0,4.1-3.3,7.4-7.5,7.4H540.1c-4.1,0-7.5-3.4-7.5-7.4l0,0
		C532.7,254.7,536,251.4,540.1,251.4"/>
	<path fill="#BCC2C6" d="M540.1,176.4h186.1c4.1,0,7.5,3.3,7.5,7.5l0,0c0,4.1-3.3,7.5-7.5,7.5H540.1c-4.1,0-7.5-3.4-7.5-7.5l0,0
		C532.7,179.8,536,176.4,540.1,176.4"/>
	<path fill="#BCC2C6" d="M540.1,288.8h186.1c4.1,0,7.5,3.3,7.5,7.5c0,4.1-3.3,7.5-7.5,7.5H540.1c-4.1,0-7.5-3.4-7.5-7.5
		C532.7,292.2,536,288.8,540.1,288.8"/>
	<path fill="#BCC2C6" d="M540.1,326.3h186.1c4.1,0,7.5,3.3,7.5,7.5c0,4.1-3.3,7.5-7.5,7.5H540.1c-4.1,0-7.5-3.4-7.5-7.5
		C532.7,329.6,536,326.3,540.1,326.3"/>
	<path fill="#BCC2C6" d="M540.1,363.7h85.6c4.1,0,7.5,3.4,7.5,7.5c0,4.1-3.4,7.4-7.5,7.4h-85.6c-4.1,0-7.5-3.4-7.5-7.4
		S536,363.7,540.1,363.7"/>
	<path fill="#BCC2C6" d="M540.1,251.4h186.1c4.1,0,7.5,3.4,7.5,7.4l0,0c0,4.1-3.3,7.4-7.5,7.4H540.1c-4.1,0-7.5-3.4-7.5-7.4l0,0
		C532.7,254.7,536,251.4,540.1,251.4"/>
	<polygon fill="#34495E" points="76.2,490.8 257.1,490.8 265.1,490.8 265.1,498.8 265.1,679.6 265.1,687.6 257.1,687.6 76.2,687.6 
		68.2,687.6 68.2,679.6 68.2,498.8 68.2,490.8 	"/>
	<rect x="78" y="500.6" fill="#22A6EF" width="177.3" height="177.3"/>
	<path opacity="0.15" enable-background="new    " d="M222.3,565c-1.9-1.9-4.6-3.1-7.6-3.1s-5.6,1.2-7.6,3.1
		c-1.9,1.9-3.1,4.6-3.1,7.6s1.2,5.6,3.1,7.6c1.9,1.9,4.6,3.1,7.6,3.1s5.6-1.2,7.6-3.1c1.9-1.9,3.1-4.6,3.1-7.6S224.3,567,222.3,565
		 M214.7,553.1c5.4,0,10.3,2.2,13.8,5.7l0,0c3.5,3.5,5.7,8.4,5.7,13.8c0,5.4-2.2,10.3-5.7,13.8l0,0c-3.5,3.5-8.4,5.7-13.8,5.7
		c-5.4,0-10.3-2.2-13.8-5.7s-5.7-8.4-5.7-13.8c0-5.4,2.2-10.3,5.7-13.8l0,0C204.5,555.2,209.3,553.1,214.7,553.1z M205.4,601
		L205.4,601l0.1,0.2l2.5,3.3l0,0l14.8,20.2c1.1,1.4,1.5,2.9,1.5,4.3l0,0c0,1.1-0.3,2.1-0.7,2.9c-0.4,0.8-1.1,1.5-1.8,2
		c-1.2,0.9-2.8,1.4-4.4,1.4l0,0h-37.3h-71.4c-1.7,0-3.2-0.5-4.4-1.3c-0.8-0.6-1.4-1.3-1.9-2.2l0,0c-0.4-0.8-0.6-1.8-0.6-2.8l0,0
		c0-1.5,0.5-3,1.6-4.5l15.6-21.3l0,0l1.4-1.9l0.2-0.2l0,0l0,0l19.3-25.7c0.7-0.9,1.4-1.6,2.2-2.2c1.5-1.1,3.2-1.7,4.9-1.7
		s3.3,0.6,4.8,1.7c0.8,0.6,1.5,1.4,2.2,2.2l18.4,24.5l8.9-11.9c0.7-0.9,1.4-1.7,2.2-2.2c1.5-1.1,3.1-1.7,4.8-1.7
		c1.7,0,3.3,0.6,4.9,1.7c0.8,0.6,1.5,1.3,2.2,2.3L205.4,601L205.4,601z M213.2,626.5l-14.9-20.3l-0.6-0.9l-9.1-12.1l0,0l0,0
		l-10.3,13.7l-2.1,2.8l-3.5,4.7l-3.5-4.7l-2.1-2.8L147,580.5l0,0l0,0l-18.7,24.9l-0.6,0.8l-14.9,20.3h67.3H213.2z"/>
	<path fill="#34495E" d="M212,544.9c5.4,0,10.3,2.2,13.8,5.7l0,0c3.5,3.5,5.7,8.4,5.7,13.8c0,5.4-2.2,10.3-5.7,13.8l0,0
		c-3.5,3.5-8.4,5.7-13.8,5.7s-10.3-2.2-13.8-5.7s-5.7-8.4-5.7-13.8c0-5.4,2.2-10.3,5.7-13.8l0,0C201.7,547.1,206.6,544.9,212,544.9
		 M202.6,592.8L202.6,592.8l0.1,0.2l2.5,3.3l0,0l14.8,20.2c1.1,1.4,1.5,2.9,1.5,4.3l0,0c0,1.1-0.3,2.1-0.7,2.9
		c-0.5,0.8-1.1,1.5-1.8,2c-1.2,0.9-2.8,1.4-4.4,1.4l0,0h-37.3h-71.4c-1.7,0-3.2-0.5-4.4-1.3c-0.8-0.6-1.4-1.3-1.9-2.2l0,0
		c-0.4-0.8-0.6-1.8-0.6-2.8l0,0c0-1.5,0.5-3,1.6-4.5l15.6-21.3l0,0l1.4-1.9l0.2-0.2l0,0l0,0l19.3-25.7c0.7-0.9,1.4-1.6,2.2-2.2
		c1.5-1.1,3.2-1.7,4.9-1.7c1.7,0,3.3,0.6,4.8,1.7c0.8,0.6,1.5,1.4,2.2,2.2l18.4,24.5l8.9-11.9c0.7-0.9,1.4-1.7,2.2-2.3
		c1.5-1.1,3.1-1.7,4.8-1.7s3.4,0.6,4.9,1.7c0.8,0.6,1.5,1.3,2.2,2.3L202.6,592.8L202.6,592.8z"/>
	<path fill="#39D4FF" d="M203.5,555.9L203.5,555.9c-2.3,2.3-3.6,5.3-3.6,8.6c0,3.2,1.3,6.2,3.5,8.5c2.3,2.3,5.3,3.5,8.5,3.5
		c3.2,0,6.2-1.2,8.4-3.5l0.1-0.1c2.3-2.3,3.5-5.3,3.5-8.5c0-3.2-1.2-6.2-3.5-8.4l-0.1-0.1c-2.3-2.3-5.3-3.5-8.5-3.5
		C208.8,552.4,205.8,553.7,203.5,555.9 M107.5,619.5h69.8h35.6l-16.3-22.1l-9.9-13.2c-0.2-0.3-0.4-0.6-0.7-0.8
		c-0.1,0-0.2-0.2-0.3-0.2c-0.1,0-0.3,0.1-0.3,0.2c-0.3,0.2-0.5,0.5-0.7,0.8l-14.9,19.9l-24.5-32.5c-0.2-0.3-0.4-0.6-0.7-0.7
		c-0.1-0.1-0.2-0.2-0.3-0.2c-0.1,0-0.3,0.1-0.3,0.2c-0.3,0.2-0.5,0.5-0.7,0.8l-19.4,25.8L107.5,619.5z"/>
	<polygon fill="#34495E" points="310.5,490.8 491.4,490.8 499.4,490.8 499.4,498.8 499.4,679.6 499.4,687.6 491.4,687.6 
		310.5,687.6 302.5,687.6 302.5,679.6 302.5,498.8 302.5,490.8 	"/>
	<rect x="312.3" y="500.6" fill="#22A6EF" width="177.3" height="177.3"/>
	<path opacity="0.15" enable-background="new    " d="M456.6,565c-1.9-1.9-4.6-3.1-7.6-3.1s-5.6,1.2-7.6,3.1
		c-1.9,1.9-3.1,4.6-3.1,7.6s1.2,5.6,3.1,7.6c1.9,1.9,4.6,3.1,7.6,3.1s5.6-1.2,7.6-3.1c1.9-1.9,3.1-4.6,3.1-7.6S458.5,567,456.6,565
		 M449,553.1c5.4,0,10.3,2.2,13.8,5.7l0,0c3.5,3.5,5.7,8.4,5.7,13.8c0,5.4-2.2,10.3-5.7,13.8l0,0c-3.5,3.5-8.4,5.7-13.8,5.7
		s-10.3-2.2-13.8-5.7s-5.7-8.4-5.7-13.8c0-5.4,2.2-10.3,5.7-13.8l0,0C438.7,555.2,443.6,553.1,449,553.1z M439.7,601L439.7,601
		l0.1,0.2l2.5,3.3l0,0l14.8,20.2c1.1,1.4,1.5,2.9,1.5,4.3l0,0c0,1.1-0.3,2.1-0.7,2.9c-0.4,0.8-1.1,1.5-1.8,2
		c-1.2,0.9-2.8,1.4-4.4,1.4l0,0h-37.3H343c-1.7,0-3.2-0.5-4.4-1.3c-0.8-0.6-1.4-1.3-1.9-2.2l0,0c-0.4-0.8-0.6-1.8-0.6-2.8l0,0
		c0-1.5,0.5-3,1.6-4.5l15.6-21.3l0,0l1.4-1.9l0.2-0.2l0,0l0,0l19.3-25.7c0.7-0.9,1.4-1.6,2.2-2.2c1.5-1.1,3.2-1.7,4.9-1.7
		s3.3,0.6,4.8,1.7c0.8,0.6,1.5,1.4,2.2,2.2l18.4,24.5l8.9-11.9c0.7-0.9,1.4-1.7,2.2-2.2c1.5-1.1,3.1-1.7,4.8-1.7
		c1.7,0,3.3,0.6,4.9,1.7c0.8,0.6,1.5,1.3,2.2,2.3L439.7,601L439.7,601z M447.5,626.5l-14.9-20.3l-0.6-0.9l-9.1-12.1l0,0l0,0
		l-10.3,13.7l-2.1,2.8l-3.5,4.7l-3.5-4.7l-2.1-2.8l-19.8-26.4l0,0l0,0l-18.7,24.9l-0.6,0.8l-14.9,20.3h67.3H447.5z"/>
	<path fill="#34495E" d="M446.3,544.9c5.4,0,10.3,2.2,13.8,5.7l0,0c3.5,3.5,5.7,8.4,5.7,13.8c0,5.4-2.2,10.3-5.7,13.8l0,0
		c-3.5,3.5-8.4,5.7-13.8,5.7c-5.4,0-10.3-2.2-13.8-5.7s-5.7-8.4-5.7-13.8c0-5.4,2.2-10.3,5.7-13.8l0,0
		C436,547.1,440.9,544.9,446.3,544.9 M436.9,592.8L436.9,592.8l0.1,0.2l2.5,3.3l0,0l14.8,20.2c1.1,1.4,1.5,2.9,1.5,4.3l0,0
		c0,1.1-0.3,2.1-0.7,2.9c-0.4,0.8-1.1,1.5-1.8,2c-1.2,0.9-2.8,1.4-4.4,1.4l0,0h-37.3h-71.4c-1.7,0-3.2-0.5-4.4-1.3
		c-0.8-0.6-1.4-1.3-1.9-2.2l0,0c-0.4-0.8-0.6-1.8-0.6-2.8l0,0c0-1.5,0.5-3,1.6-4.5l15.6-21.3l0,0l1.4-1.9l0.2-0.2l0,0l0,0l19.3-25.7
		c0.7-0.9,1.4-1.6,2.2-2.2c1.5-1.1,3.2-1.7,4.9-1.7s3.3,0.6,4.8,1.7c0.8,0.6,1.5,1.4,2.2,2.2l18.5,24.5l8.9-11.9
		c0.7-0.9,1.4-1.7,2.2-2.3c1.5-1.1,3.1-1.7,4.8-1.7c1.7,0,3.3,0.6,4.9,1.7c0.8,0.6,1.5,1.3,2.2,2.3L436.9,592.8L436.9,592.8z"/>
	<path fill="#39D4FF" d="M437.8,555.9L437.8,555.9c-2.3,2.3-3.6,5.3-3.6,8.6c0,3.2,1.3,6.2,3.5,8.5c2.3,2.3,5.3,3.5,8.5,3.5
		s6.1-1.2,8.4-3.5l0.1-0.1c2.3-2.3,3.5-5.3,3.5-8.5c0-3.2-1.2-6.2-3.5-8.4l-0.1-0.1c-2.3-2.3-5.3-3.5-8.5-3.5
		C443.1,552.4,440.1,553.7,437.8,555.9 M341.8,619.5h69.8h35.6l-16.2-22l-9.9-13.2c-0.2-0.3-0.4-0.6-0.7-0.8c-0.1,0-0.2-0.2-0.3-0.2
		c-0.1,0-0.3,0.1-0.3,0.2c-0.3,0.2-0.5,0.5-0.7,0.8L404,604.1l-24.5-32.5c-0.2-0.3-0.5-0.6-0.7-0.7c-0.1-0.1-0.2-0.2-0.3-0.2
		s-0.3,0.1-0.3,0.2c-0.3,0.2-0.5,0.5-0.7,0.8l-19.4,25.8L341.8,619.5z"/>
	<polygon fill="#34495E" points="544.8,490.8 725.6,490.8 733.7,490.8 733.7,498.8 733.7,679.6 733.7,687.6 725.6,687.6 
		544.8,687.6 536.8,687.6 536.8,679.6 536.8,498.8 536.8,490.8 	"/>
	<rect x="546.6" y="500.6" fill="#22A6EF" width="177.3" height="177.3"/>
	<path opacity="0.15" enable-background="new    " d="M690.9,565c-1.9-1.9-4.6-3.1-7.6-3.1s-5.6,1.2-7.6,3.1
		c-1.9,1.9-3.1,4.6-3.1,7.6s1.2,5.6,3.1,7.6c1.9,1.9,4.6,3.1,7.6,3.1s5.6-1.2,7.6-3.1c1.9-1.9,3.1-4.6,3.1-7.6S692.8,567,690.9,565
		 M683.3,553.1c5.4,0,10.3,2.2,13.8,5.7l0,0c3.5,3.5,5.7,8.4,5.7,13.8c0,5.4-2.2,10.3-5.7,13.8l0,0c-3.5,3.5-8.4,5.7-13.8,5.7
		c-5.4,0-10.3-2.2-13.8-5.7s-5.7-8.4-5.7-13.8c0-5.4,2.2-10.3,5.7-13.8l0,0C673,555.2,677.9,553.1,683.3,553.1z M673.9,601
		L673.9,601l0.1,0.2l2.5,3.3l0,0l14.8,20.2c1.1,1.4,1.5,2.9,1.5,4.3l0,0c0,1.1-0.3,2.1-0.7,2.9c-0.4,0.8-1.1,1.5-1.8,2
		c-1.2,0.9-2.8,1.4-4.4,1.4l0,0h-37.3h-71.4c-1.7,0-3.2-0.5-4.4-1.3c-0.8-0.6-1.4-1.3-1.9-2.2l0,0c-0.4-0.8-0.6-1.8-0.6-2.8l0,0
		c0-1.5,0.5-3,1.6-4.5l15.6-21.3l0,0l1.4-1.9l0.2-0.2l0,0l0,0l19.3-25.7c0.7-0.9,1.4-1.6,2.2-2.2c1.5-1.1,3.2-1.7,4.9-1.7
		s3.3,0.6,4.8,1.7c0.8,0.6,1.5,1.4,2.2,2.2l18.4,24.5l8.9-11.9c0.7-0.9,1.4-1.7,2.2-2.2c1.5-1.1,3.1-1.7,4.8-1.7s3.3,0.6,4.9,1.7
		c0.8,0.6,1.5,1.3,2.2,2.3L673.9,601L673.9,601z M681.8,626.5l-14.9-20.3l-0.6-0.9l-9.1-12.1l0,0l0,0l-10.3,13.7l-2.1,2.8l-3.5,4.7
		l-3.5-4.7l-2.1-2.8l-19.8-26.4l0,0l0,0l-18.7,24.9l-0.6,0.8l-14.9,20.3H649H681.8z"/>
	<path fill="#34495E" d="M680.6,544.9c5.4,0,10.3,2.2,13.8,5.7l0,0c3.5,3.5,5.7,8.4,5.7,13.8c0,5.4-2.2,10.3-5.7,13.8l0,0
		c-3.5,3.5-8.4,5.7-13.8,5.7c-5.4,0-10.3-2.2-13.8-5.7s-5.7-8.4-5.7-13.8c0-5.4,2.2-10.3,5.7-13.8l0,0
		C670.3,547.1,675.2,544.9,680.6,544.9 M671.2,592.8L671.2,592.8l0.1,0.2l2.5,3.3l0,0l14.8,20.2c1.1,1.4,1.5,2.9,1.5,4.3l0,0
		c0,1.1-0.3,2.1-0.7,2.9c-0.5,0.8-1.1,1.5-1.8,2c-1.2,0.9-2.8,1.4-4.4,1.4l0,0h-37.3h-71.4c-1.7,0-3.2-0.5-4.4-1.3
		c-0.8-0.6-1.4-1.3-1.9-2.2l0,0c-0.4-0.8-0.6-1.8-0.6-2.8l0,0c0-1.5,0.5-3,1.6-4.5l15.6-21.3l0,0l1.4-1.9l0.2-0.2l0,0l0,0l19.3-25.7
		c0.7-0.9,1.4-1.6,2.2-2.2c1.5-1.1,3.2-1.7,4.9-1.7s3.3,0.6,4.8,1.7c0.8,0.6,1.5,1.4,2.2,2.2l18.4,24.5l8.9-11.9
		c0.7-0.9,1.4-1.7,2.2-2.3c1.5-1.1,3.1-1.7,4.8-1.7c1.7,0,3.3,0.6,4.9,1.7c0.8,0.6,1.5,1.3,2.2,2.3L671.2,592.8L671.2,592.8z"/>
	<path fill="#39D4FF" d="M672.1,555.9L672.1,555.9c-2.3,2.3-3.6,5.3-3.6,8.6c0,3.2,1.3,6.2,3.5,8.5c2.3,2.3,5.3,3.5,8.5,3.5
		s6.1-1.2,8.4-3.5l0.1-0.1c2.3-2.3,3.5-5.3,3.5-8.5c0-3.2-1.2-6.2-3.5-8.4l-0.1-0.1c-2.3-2.3-5.3-3.5-8.5-3.5
		C677.4,552.4,674.4,553.7,672.1,555.9 M576.1,619.5h69.8h35.6l-16.3-22.1l-9.9-13.2c-0.2-0.3-0.4-0.6-0.7-0.8
		c-0.1,0-0.2-0.2-0.3-0.2c-0.1,0-0.3,0.1-0.3,0.2c-0.3,0.2-0.5,0.5-0.7,0.8l-14.9,19.9l-24.5-32.5c-0.2-0.3-0.4-0.6-0.7-0.7
		c-0.1-0.1-0.3-0.2-0.3-0.2c-0.1,0-0.3,0.1-0.3,0.2c-0.3,0.2-0.5,0.5-0.7,0.8l-19.4,25.8L576.1,619.5z"/>
</g>
</svg>
