<?xml version="1.0" encoding="utf-8"?>
<!-- Generator: Adobe Illustrator 15.1.0, SVG Export Plug-In . SVG Version: 6.00 Build 0)  -->
<!DOCTYPE svg PUBLIC "-//W3C//DTD SVG 1.0//EN" "http://www.w3.org/TR/2001/REC-SVG-20010904/DTD/svg10.dtd">
<svg version="1.0" id="Layer_1" xmlns="http://www.w3.org/2000/svg" xmlns:xlink="http://www.w3.org/1999/xlink" x="0px" y="0px"
	 width="800px" height="800px" viewBox="0 0 800 800" enable-background="new 0 0 800 800" xml:space="preserve">
<g id="Header">
	<path fill="#BCC2C6" d="M33.1,34.5h736.2c8.5,0,16.1,3.5,21.7,9l0,0c5.6,5.6,9,13.2,9,21.7v654.6c0,8.4-3.5,16.1-9,21.7l0,0
		c-5.6,5.6-13.2,9-21.7,9H33.1c-8.5,0-16.1-3.5-21.7-9l0,0c-5.6-5.6-9-13.2-9-21.7V65.2c0-8.4,3.5-16.1,9-21.7l0,0
		C16.9,38,24.6,34.5,33.1,34.5"/>
	<path fill="#EBEFF0" d="M788.9,65.2v654.6c0,12.3-8.6,19.6-19.6,19.6H33.1c-11,0-19.6-7-19.6-19.6V65.2c0-12.8,8.6-19.6,19.6-19.6
		h736.2C780.2,45.6,788.9,52.7,788.9,65.2"/>
	<path fill="#94A4A5" d="M677.6,72.3c7.8,0,14.2,6.4,14.2,14.2s-6.3,14.2-14.2,14.2c-7.9,0-14.2-6.3-14.2-14.2
		C663.4,78.7,669.7,72.3,677.6,72.3 M722.1,72.3c7.8,0,14.2,6.4,14.2,14.2s-6.4,14.2-14.2,14.2c-7.8,0-14.2-6.3-14.2-14.2
		C707.9,78.7,714.3,72.3,722.1,72.3z M633,72.3c7.8,0,14.2,6.4,14.2,14.2s-6.3,14.2-14.2,14.2c-7.8,0-14.2-6.4-14.2-14.2
		S625.2,72.3,633,72.3z"/>
	
		<text transform="matrix(1 0 0 1 185.0015 83.2969)" fill="#93A2A3" font-family="'NexaBold'" font-size="44.0749" letter-spacing="2">ARTICLE</text>
</g>
<g id="Body">
	<path fill="#BCC2C6" d="M28.7,123.8h744.6c7.3,0,14,3,18.8,7.8c4.8,4.8,7.8,11.5,7.8,18.8v573c0,7.4-3,14-7.8,18.8
		c-4.8,4.8-11.5,7.8-18.8,7.8H28.7c-7.3,0-14-3-18.8-7.8C5,737.5,2,730.9,2,723.5v-573c0-7.3,3-14,7.8-18.8
		C14.7,126.8,21.4,123.8,28.7,123.8"/>
	<path fill="#FFFFFF" d="M28.7,135c-4.1,0-8,1.6-11,4.6c-2.9,2.9-4.6,6.8-4.6,10.9v573c0,4.1,1.6,8.1,4.6,11c2.9,2.9,6.8,4.6,11,4.6
		h744.6c4.1,0,8-1.6,11-4.6c2.9-2.9,4.6-6.8,4.6-11v-573c0-4.1-1.7-8-4.6-10.9c-2.9-2.9-6.8-4.6-11-4.6H28.7z"/>
	<rect x="76.6" y="189.3" fill="#34495E" width="648.9" height="226.3"/>
	<rect x="87.7" y="200.4" fill="#22A6EF" width="626.6" height="204"/>
	<path opacity="0.15" enable-background="new    " d="M276,273.4c-2.3-2.3-5.4-3.7-8.9-3.7s-6.6,1.4-8.9,3.7
		c-2.3,2.3-3.7,5.4-3.7,8.9s1.4,6.6,3.7,8.9c2.3,2.3,5.4,3.7,8.9,3.7s6.6-1.4,8.9-3.6c2.3-2.3,3.7-5.4,3.7-8.9
		C279.6,278.8,278.2,275.7,276,273.4 M267.1,259.4c6.3,0,12,2.6,16.2,6.7l0,0c4.1,4.1,6.7,9.8,6.7,16.1c0,6.3-2.6,12-6.7,16.1l0,0
		c-4.1,4.1-9.9,6.7-16.2,6.7c-6.3,0-12-2.6-16.2-6.7c-4.1-4.1-6.7-9.9-6.7-16.2c0-6.3,2.6-12,6.7-16.1l0,0
		C255.1,262,260.8,259.4,267.1,259.4z M256.1,315.5L256.1,315.5l0.2,0.2l2.9,3.9l0,0l17.3,23.6c1.2,1.7,1.8,3.4,1.8,5l0,0
		c0,1.3-0.3,2.4-0.9,3.4c-0.5,0.9-1.2,1.8-2.1,2.4c-1.4,1-3.3,1.6-5.1,1.6l0,0h-43.6H143c-2,0-3.8-0.6-5.1-1.6
		c-0.9-0.7-1.7-1.5-2.2-2.6l0,0c-0.5-1-0.7-2.1-0.7-3.3l0,0c0-1.7,0.6-3.6,1.9-5.3l18.3-24.8l0,0l1.7-2.2l0.2-0.3l0,0l22.6-30
		c0.8-1.1,1.7-1.9,2.6-2.6c1.8-1.3,3.7-2,5.7-2s3.9,0.7,5.6,2c0.9,0.7,1.8,1.6,2.6,2.6l21.6,28.7l10.4-13.9c0.8-1.1,1.7-1.9,2.6-2.6
		c1.7-1.3,3.7-2,5.7-2s3.9,0.6,5.7,2c0.9,0.7,1.8,1.6,2.6,2.6L256.1,315.5L256.1,315.5z M265.3,345.3l-17.5-23.7l-0.7-1l-10.7-14.2
		l0,0l0,0l-12.1,16l-2.5,3.3l-4.1,5.5l-4.1-5.5l-2.5-3.3l-23.2-30.8l0,0l0,0L166,320.7l-0.6,0.9L148,345.3h78.7H265.3z"/>
	<path fill="#34495E" d="M263.9,249.2c6.3,0,12,2.6,16.2,6.7l0,0c4.1,4.1,6.7,9.9,6.7,16.1c0,6.3-2.6,12-6.7,16.1l0,0
		c-4.1,4.1-9.9,6.7-16.2,6.7c-6.3,0-12-2.6-16.2-6.7c-4.1-4.1-6.7-9.9-6.7-16.2c0-6.3,2.6-12,6.7-16.1l0,0
		C251.9,251.8,257.6,249.2,263.9,249.2 M252.9,305.3L252.9,305.3l0.2,0.2l2.9,3.9l0,0l17.3,23.6c1.2,1.7,1.8,3.4,1.8,5l0,0
		c0,1.3-0.3,2.4-0.9,3.4c-0.5,0.9-1.2,1.8-2.1,2.4c-1.4,1.1-3.3,1.6-5.1,1.6l0,0h-43.6h-83.5c-2,0-3.8-0.6-5.1-1.6
		c-0.9-0.7-1.7-1.5-2.2-2.6l0,0c-0.5-1-0.7-2.1-0.7-3.3l0,0c0-1.7,0.6-3.5,1.9-5.3l18.3-24.8l0,0l1.7-2.2l0.2-0.3l0,0l0,0l22.6-30
		c0.8-1.1,1.7-1.9,2.6-2.6c1.8-1.3,3.7-2,5.7-2s3.9,0.7,5.6,2c0.9,0.7,1.8,1.6,2.6,2.6l21.6,28.7l10.4-13.9c0.8-1.1,1.7-1.9,2.6-2.6
		c1.7-1.3,3.6-2,5.7-2c2,0,3.9,0.6,5.7,2c0.9,0.7,1.8,1.6,2.6,2.6L252.9,305.3L252.9,305.3z"/>
	<path fill="#39D4FF" d="M263.9,257.5c-3.9,0-7.5,1.5-10.3,4.3l0,0c-2.7,2.7-4.2,6.4-4.2,10.2c0,3.9,1.5,7.6,4.3,10.3
		c2.7,2.7,6.4,4.2,10.3,4.2s7.5-1.5,10.3-4.3l0,0c2.7-2.7,4.2-6.4,4.2-10.2c0-3.9-1.5-7.5-4.2-10.2l-0.1-0.1
		C271.4,259.1,267.7,257.5,263.9,257.5 M140.8,337h82.6H266l-19.6-26.6L234.8,295c-0.3-0.3-0.6-0.7-0.9-1c-0.2-0.1-0.4-0.3-0.7-0.3
		c-0.2,0-0.5,0.2-0.7,0.3c-0.4,0.3-0.7,0.6-0.9,1l-17.1,22.7l-28.2-37.5c-0.3-0.4-0.6-0.7-0.9-1c-0.2-0.1-0.4-0.3-0.7-0.3
		c-0.2,0-0.5,0.2-0.7,0.3c-0.4,0.3-0.7,0.6-0.9,1l-22.7,30.2L140.8,337z"/>
	<path fill="#34495E" d="M365,257.5h305c4.1,0,7.5,3.3,7.5,7.5l0,0c0,4.1-3.3,7.5-7.5,7.5H365c-4.1,0-7.4-3.3-7.4-7.5l0,0
		C357.5,260.8,360.9,257.5,365,257.5"/>
	<path fill="#34495E" d="M365,295h305c4.1,0,7.5,3.3,7.5,7.4l0,0c0,4.1-3.3,7.5-7.5,7.5H365c-4.1,0-7.4-3.3-7.4-7.5l0,0
		C357.5,298.3,360.9,295,365,295"/>
	<path fill="#34495E" d="M365,332.4h145c4.1,0,7.4,3.3,7.4,7.4l0,0c0,4.1-3.3,7.4-7.4,7.4H365c-4.1,0-7.4-3.3-7.4-7.4l0,0
		C357.5,335.7,360.9,332.4,365,332.4"/>
	<path fill="#BCC2C6" d="M87.5,490.7h627c4.1,0,7.4,3.3,7.4,7.4l0,0c0,4.1-3.4,7.4-7.4,7.4h-627c-4.1,0-7.4-3.3-7.4-7.4l0,0
		C80.1,494,83.4,490.7,87.5,490.7"/>
	<path fill="#BCC2C6" d="M87.5,528.1h627c4.1,0,7.4,3.3,7.4,7.4l0,0c0,4.1-3.4,7.4-7.4,7.4h-627c-4.1,0-7.4-3.4-7.4-7.4l0,0
		C80.1,531.5,83.4,528.1,87.5,528.1"/>
	<path fill="#BCC2C6" d="M87.5,565.6h627c4.1,0,7.4,3.3,7.4,7.5c0,4.1-3.4,7.5-7.4,7.5h-627c-4.1,0-7.4-3.4-7.4-7.5
		C80.1,568.9,83.4,565.6,87.5,565.6"/>
	<path fill="#BCC2C6" d="M87.5,603h627c4.1,0,7.4,3.4,7.4,7.5s-3.4,7.5-7.4,7.5h-627c-4.1,0-7.4-3.3-7.4-7.5
		C80.1,606.4,83.4,603,87.5,603"/>
	<path fill="#BCC2C6" d="M87.5,640.5h627c4.1,0,7.4,3.3,7.4,7.4c0,4.1-3.4,7.4-7.4,7.4h-627c-4.1,0-7.4-3.3-7.4-7.4
		C80.1,643.8,83.4,640.5,87.5,640.5"/>
	<path fill="#BCC2C6" d="M195.8,677.9h410.5c4.1,0,7.4,3.3,7.4,7.5c0,4.1-3.3,7.5-7.4,7.5H195.8c-4.1,0-7.4-3.4-7.4-7.5
		C188.3,681.3,191.7,677.9,195.8,677.9"/>
	<path fill="#BCC2C6" d="M195.8,453.4h410.5c4.1,0,7.4,3.3,7.4,7.4l0,0c0,4.1-3.3,7.4-7.4,7.4H195.8c-4.1,0-7.4-3.4-7.4-7.4l0,0
		C188.3,456.8,191.7,453.4,195.8,453.4"/>
</g>
</svg>
