<?xml version="1.0" encoding="utf-8"?>
<!-- Generator: Adobe Illustrator 15.1.0, SVG Export Plug-In . SVG Version: 6.00 Build 0)  -->
<!DOCTYPE svg PUBLIC "-//W3C//DTD SVG 1.0//EN" "http://www.w3.org/TR/2001/REC-SVG-20010904/DTD/svg10.dtd">
<svg version="1.0" id="Layer_1" xmlns="http://www.w3.org/2000/svg" xmlns:xlink="http://www.w3.org/1999/xlink" x="0px" y="0px"
	 width="800px" height="800px" viewBox="0 0 800 800" enable-background="new 0 0 800 800" xml:space="preserve">
<g id="Header">
	<path fill="#BCC2C6" d="M33.1,34.5h736.2c8.5,0,16.1,3.5,21.7,9l0,0c5.6,5.6,9,13.2,9,21.7v654.6c0,8.4-3.5,16.1-9,21.7l0,0
		c-5.6,5.6-13.2,9-21.7,9H33.1c-8.5,0-16.1-3.5-21.7-9l0,0c-5.6-5.6-9-13.2-9-21.7V65.2c0-8.4,3.5-16.1,9-21.7l0,0
		C16.9,38,24.6,34.5,33.1,34.5"/>
	<path fill="#EBEFF0" d="M788.9,65.2v654.6c0,12.3-8.6,19.6-19.6,19.6H33.1c-11,0-19.6-7-19.6-19.6V65.2c0-12.8,8.6-19.6,19.6-19.6
		h736.2C780.2,45.6,788.9,52.7,788.9,65.2"/>
	<path fill="#94A4A5" d="M677.6,72.3c7.8,0,14.2,6.4,14.2,14.2s-6.3,14.2-14.2,14.2c-7.9,0-14.2-6.3-14.2-14.2
		C663.4,78.7,669.7,72.3,677.6,72.3 M722.1,72.3c7.8,0,14.2,6.4,14.2,14.2s-6.4,14.2-14.2,14.2c-7.8,0-14.2-6.3-14.2-14.2
		C707.9,78.7,714.3,72.3,722.1,72.3z M633,72.3c7.8,0,14.2,6.4,14.2,14.2s-6.3,14.2-14.2,14.2c-7.8,0-14.2-6.4-14.2-14.2
		S625.2,72.3,633,72.3z"/>
	
		<text transform="matrix(1 0 0 1 177.0015 84.2969)" fill="#93A2A3" font-family="'NexaBold'" font-size="44.0749" letter-spacing="2">ARTICLE</text>
</g>
<g id="Body">
	<path fill="#BCC2C6" d="M28.8,124.6h744.5c7.3,0,14,3,18.8,7.8c4.8,4.8,7.8,11.5,7.8,18.8v572.9c0,7.4-3,14-7.8,18.8
		c-4.8,4.8-11.5,7.8-18.8,7.8H28.8c-7.3,0-14-3-18.8-7.8c-4.8-4.8-7.8-11.5-7.8-18.8V151.2c0-7.3,3-14,7.8-18.8
		C14.8,127.6,21.5,124.6,28.8,124.6"/>
	<path fill="#FFFFFF" d="M28.8,135.7c-4.1,0-8,1.6-11,4.6c-2.9,2.9-4.6,6.8-4.6,11v572.9c0,4.1,1.7,8.1,4.6,11
		c2.9,2.9,6.8,4.6,11,4.6h744.5c4.1,0,8-1.6,11-4.6c2.9-2.9,4.6-6.8,4.6-11v-573c0-4.1-1.6-8-4.6-11c-2.9-2.9-6.8-4.6-11-4.6H28.8
		V135.7z"/>
	<path fill="#BCC2C6" d="M87.6,243.7h626.9c4.1,0,7.4,3.3,7.4,7.4l0,0c0,4.1-3.4,7.4-7.4,7.4H87.6c-4.1,0-7.4-3.3-7.4-7.4l0,0
		C80.2,247,83.5,243.7,87.6,243.7"/>
	<path fill="#BCC2C6" d="M87.6,281.1h626.9c4.1,0,7.4,3.4,7.4,7.4l0,0c0,4.1-3.4,7.5-7.4,7.5H87.6c-4.1,0-7.4-3.3-7.4-7.5l0,0
		C80.2,284.5,83.5,281.1,87.6,281.1"/>
	<path fill="#BCC2C6" d="M87.6,318.6h626.9c4.1,0,7.4,3.3,7.4,7.4l0,0c0,4.1-3.4,7.4-7.4,7.4H87.6c-4.1,0-7.4-3.3-7.4-7.4l0,0
		C80.2,321.9,83.5,318.6,87.6,318.6"/>
	<path fill="#BCC2C6" d="M87.6,356h626.9c4.1,0,7.4,3.3,7.4,7.5l0,0c0,4.1-3.4,7.4-7.4,7.4H87.6c-4.1,0-7.4-3.3-7.4-7.4l0,0
		C80.2,359.4,83.5,356,87.6,356"/>
	<path fill="#BCC2C6" d="M87.6,393.5h626.9c4.1,0,7.4,3.3,7.4,7.4l0,0c0,4.1-3.4,7.5-7.4,7.5H87.6c-4.1,0-7.4-3.4-7.4-7.5l0,0
		C80.2,396.8,83.5,393.5,87.6,393.5"/>
	<path fill="#BCC2C6" d="M87.6,430.9H498c4.1,0,7.4,3.4,7.4,7.5c0,4.1-3.3,7.4-7.4,7.4H87.6c-4.1,0-7.4-3.3-7.4-7.4
		C80.2,434.3,83.5,430.9,87.6,430.9"/>
	<path fill="#34495E" d="M87.6,206.4H498c4.1,0,7.4,3.3,7.4,7.5c0,4.1-3.3,7.4-7.4,7.4H87.6c-4.1,0-7.4-3.4-7.4-7.4
		C80.2,209.8,83.5,206.4,87.6,206.4"/>
	<polygon fill="#34495E" points="88.2,490 269,490 277,490 277,498 277,678.8 277,686.8 269,686.8 88.2,686.8 80.2,686.8 
		80.2,678.8 80.2,498 80.2,490 	"/>
	<rect x="90" y="499.8" fill="#22A6EF" width="177.2" height="177.2"/>
	<path opacity="0.15" enable-background="new    " d="M234.2,564.2c-1.9-1.9-4.6-3.1-7.6-3.1s-5.7,1.2-7.6,3.1
		c-1.9,1.9-3.1,4.6-3.1,7.6s1.2,5.6,3.1,7.6c1.9,1.9,4.6,3.1,7.6,3.1s5.6-1.2,7.6-3.1c1.9-1.9,3.1-4.6,3.1-7.6
		C237.4,568.9,236.2,566.2,234.2,564.2 M226.7,552.3c5.4,0,10.3,2.2,13.8,5.7l0,0c3.5,3.5,5.7,8.4,5.7,13.8c0,5.4-2.2,10.3-5.7,13.8
		l0,0c-3.5,3.5-8.4,5.7-13.8,5.7c-5.4,0-10.3-2.2-13.8-5.7s-5.7-8.4-5.7-13.8c0-5.4,2.2-10.3,5.7-13.8l0,0
		C216.4,554.5,221.3,552.3,226.7,552.3z M217.3,600.2L217.3,600.2l0.1,0.2l2.5,3.3l0,0l14.8,20.2c1.1,1.4,1.5,2.9,1.5,4.3l0,0
		c0,1.1-0.3,2.1-0.7,2.9c-0.4,0.8-1.1,1.5-1.8,2c-1.2,0.9-2.8,1.4-4.4,1.4l0,0H192h-71.4c-1.7,0-3.2-0.5-4.4-1.3
		c-0.8-0.6-1.4-1.3-1.9-2.2l0,0c-0.4-0.8-0.6-1.8-0.6-2.8l0,0c0-1.5,0.5-3.1,1.6-4.5l15.6-21.2l0,0l1.4-1.9l0.2-0.2l0,0l0,0
		l19.3-25.7c0.7-0.9,1.4-1.6,2.2-2.2c1.5-1.1,3.2-1.7,4.9-1.7c1.7,0,3.3,0.6,4.8,1.7c0.8,0.6,1.5,1.4,2.2,2.2l18.4,24.5l8.9-11.8
		c0.7-0.9,1.4-1.7,2.2-2.2c1.5-1.1,3.1-1.7,4.8-1.7c1.7,0,3.3,0.6,4.9,1.7c0.8,0.6,1.5,1.3,2.2,2.3L217.3,600.2L217.3,600.2z
		 M225.1,625.7l-14.9-20.3l-0.6-0.9l-9.1-12.1l0,0l0,0l-10.3,13.7l-2.1,2.8l-3.5,4.7l-3.5-4.7l-2.1-2.8l-20-26.4l0,0l0,0l-18.7,24.9
		l-0.6,0.8l-14.9,20.3h67.3H225.1z"/>
	<path fill="#34495E" d="M223.9,544.1c5.4,0,10.3,2.2,13.8,5.7l0,0c3.5,3.5,5.7,8.4,5.7,13.8c0,5.4-2.2,10.3-5.7,13.8l0,0
		c-3.5,3.5-8.4,5.7-13.8,5.7s-10.3-2.2-13.8-5.7s-5.7-8.4-5.7-13.8c0-5.4,2.2-10.3,5.7-13.8l0,0
		C213.6,546.3,218.5,544.1,223.9,544.1 M214.6,592L214.6,592l0.1,0.2l2.5,3.3l0,0l14.8,20.2c1.1,1.4,1.5,2.9,1.5,4.3l0,0
		c0,1.1-0.3,2.1-0.7,2.9c-0.5,0.8-1.1,1.5-1.8,2c-1.2,0.9-2.8,1.4-4.4,1.4l0,0h-37.3h-71.4c-1.7,0-3.2-0.5-4.4-1.3
		c-0.8-0.6-1.4-1.3-1.9-2.2l0,0c-0.4-0.8-0.6-1.8-0.6-2.8l0,0c0-1.5,0.5-3,1.6-4.5l15.6-21.2l0,0l1.4-1.9l0.2-0.2l0,0l0,0l19.3-25.7
		c0.7-0.9,1.4-1.6,2.2-2.2c1.5-1.1,3.2-1.7,4.9-1.7c1.7,0,3.3,0.6,4.8,1.7c0.8,0.6,1.5,1.4,2.2,2.2l18.4,24.5l8.9-11.8
		c0.7-0.9,1.4-1.7,2.2-2.3c1.5-1.1,3.1-1.7,4.8-1.7s3.3,0.6,4.8,1.7c0.8,0.6,1.5,1.3,2.2,2.3L214.6,592L214.6,592z"/>
	<path fill="#39D4FF" d="M215.5,555.1L215.5,555.1c-2.3,2.3-3.6,5.3-3.6,8.5c0,3.2,1.3,6.2,3.5,8.5c2.3,2.3,5.3,3.5,8.5,3.5
		c3.2,0,6.2-1.3,8.4-3.5l0.1-0.1c2.3-2.3,3.5-5.3,3.5-8.5s-1.2-6.2-3.5-8.4l-0.1-0.1c-2.3-2.3-5.3-3.5-8.5-3.5
		C220.7,551.6,217.8,552.9,215.5,555.1 M119.5,618.7h69.8h35.6l-16.2-22.1l-9.9-13.2c-0.2-0.3-0.5-0.6-0.7-0.8
		c-0.1,0-0.2-0.2-0.3-0.2c-0.1,0-0.3,0.1-0.3,0.2c-0.3,0.2-0.5,0.5-0.7,0.8l-14.9,19.9l-24.5-32.5c-0.2-0.3-0.4-0.6-0.7-0.7
		c-0.1-0.1-0.3-0.2-0.3-0.2c-0.1,0-0.3,0.1-0.3,0.2c-0.3,0.2-0.5,0.5-0.7,0.8L136,596.7L119.5,618.7z"/>
	<path fill="#BCC2C6" d="M353.2,553.5h361.3c4.1,0,7.5,3.3,7.5,7.5c0,4.1-3.3,7.5-7.5,7.5H353.2c-4.1,0-7.4-3.3-7.4-7.5
		S349.1,553.5,353.2,553.5"/>
	<path fill="#BCC2C6" d="M353.2,590.9h361.3c4.1,0,7.5,3.4,7.5,7.4c0,4.1-3.3,7.5-7.5,7.5H353.2c-4.1,0-7.4-3.4-7.4-7.5
		C345.8,594.3,349.1,590.9,353.2,590.9"/>
	<path fill="#BCC2C6" d="M353.2,628.4h173.2c4.1,0,7.4,3.3,7.4,7.4c0,4.1-3.3,7.5-7.4,7.5H353.2c-4.1,0-7.4-3.4-7.4-7.5
		C345.8,631.8,349.1,628.4,353.2,628.4"/>
	<path fill="#BCC2C6" d="M353.2,516.1h361.3c4.1,0,7.5,3.3,7.5,7.5c0,4.1-3.3,7.4-7.5,7.4H353.2c-4.1,0-7.4-3.3-7.4-7.4
		C345.8,519.4,349.1,516.1,353.2,516.1"/>
</g>
</svg>
