<?xml version="1.0" encoding="utf-8"?>
<!-- Generator: Adobe Illustrator 15.1.0, SVG Export Plug-In . SVG Version: 6.00 Build 0)  -->
<!DOCTYPE svg PUBLIC "-//W3C//DTD SVG 1.0//EN" "http://www.w3.org/TR/2001/REC-SVG-20010904/DTD/svg10.dtd">
<svg version="1.0" id="Layer_1" xmlns="http://www.w3.org/2000/svg" xmlns:xlink="http://www.w3.org/1999/xlink" x="0px" y="0px"
	 width="800px" height="800px" viewBox="0 0 800 800" enable-background="new 0 0 800 800" xml:space="preserve">
<g id="Header">
	<path fill="#BCC2C6" d="M33.1,34.5h736.2c8.5,0,16.1,3.5,21.7,9l0,0c5.6,5.6,9,13.2,9,21.7v654.6c0,8.4-3.5,16.1-9,21.7l0,0
		c-5.6,5.6-13.2,9-21.7,9H33.1c-8.5,0-16.1-3.5-21.7-9l0,0c-5.6-5.6-9-13.2-9-21.7V65.2c0-8.4,3.5-16.1,9-21.7l0,0
		C16.9,38,24.6,34.5,33.1,34.5"/>
	<path fill="#EBEFF0" d="M788.9,65.2v654.6c0,12.3-8.6,19.6-19.6,19.6H33.1c-11,0-19.6-7-19.6-19.6V65.2c0-12.8,8.6-19.6,19.6-19.6
		h736.2C780.2,45.6,788.9,52.7,788.9,65.2"/>
	<path fill="#94A4A5" d="M677.6,72.3c7.8,0,14.2,6.4,14.2,14.2s-6.3,14.2-14.2,14.2c-7.9,0-14.2-6.3-14.2-14.2
		C663.4,78.7,669.7,72.3,677.6,72.3 M722.1,72.3c7.8,0,14.2,6.4,14.2,14.2s-6.4,14.2-14.2,14.2c-7.8,0-14.2-6.3-14.2-14.2
		C707.9,78.7,714.3,72.3,722.1,72.3z M633,72.3c7.8,0,14.2,6.4,14.2,14.2s-6.3,14.2-14.2,14.2c-7.8,0-14.2-6.4-14.2-14.2
		S625.2,72.3,633,72.3z"/>
	
		<text transform="matrix(1 0 0 1 172.0015 82.2969)" fill="#93A2A3" font-family="'NexaBold'" font-size="44.0749" letter-spacing="2">ARTICLE</text>
</g>
<g id="Body">
	<path fill="#BCC2C6" d="M29.1,124.9h744.2c7.3,0,14,3,18.8,7.8c4.8,4.8,7.8,11.5,7.8,18.8v572.7c0,7.4-3,14-7.8,18.8
		c-4.8,4.8-11.5,7.8-18.8,7.8H29.1c-7.3,0-14-3-18.8-7.8c-4.8-4.8-7.8-11.5-7.8-18.8V151.6c0-7.3,3-14,7.8-18.8
		C15.1,127.9,21.8,124.9,29.1,124.9"/>
	<path fill="#FFFFFF" d="M29.1,136.1c-4.1,0-8,1.6-10.9,4.6c-2.9,2.9-4.6,6.8-4.6,10.9v572.7c0,4.1,1.6,8.1,4.6,11
		c2.9,2.9,6.8,4.6,10.9,4.6h744.2c4.1,0,8-1.6,11-4.6c2.9-2.9,4.5-6.8,4.5-11V151.6c0-4.1-1.6-8-4.5-10.9c-2.9-2.9-6.8-4.6-11-4.6
		H29.1z"/>
	<path fill="#BCC2C6" d="M88.8,237.2h334.4c4.1,0,7.4,3.3,7.4,7.4l0,0c0,4.1-3.3,7.5-7.4,7.5H88.8c-4.1,0-7.5-3.3-7.5-7.5l0,0
		C81.3,240.5,84.7,237.2,88.8,237.2"/>
	<path fill="#BCC2C6" d="M88.8,274.6h334.4c4.1,0,7.4,3.3,7.4,7.4l0,0c0,4.1-3.3,7.4-7.4,7.4H88.8c-4.1,0-7.5-3.3-7.5-7.4l0,0
		C81.3,278,84.7,274.6,88.8,274.6"/>
	<path fill="#BCC2C6" d="M88.8,312h334.4c4.1,0,7.4,3.3,7.4,7.5c0,4.1-3.3,7.5-7.4,7.5H88.8c-4.1,0-7.5-3.4-7.5-7.5
		S84.7,312,88.8,312"/>
	<path fill="#BCC2C6" d="M88.8,349.4h334.4c4.1,0,7.4,3.4,7.4,7.5s-3.3,7.5-7.4,7.5H88.8c-4.1,0-7.5-3.3-7.5-7.5
		C81.3,352.8,84.7,349.4,88.8,349.4"/>
	<path fill="#BCC2C6" d="M88.8,386.9h334.4c4.1,0,7.4,3.4,7.4,7.5s-3.3,7.4-7.4,7.4H88.8c-4.1,0-7.5-3.3-7.5-7.4
		C81.3,390.2,84.7,386.9,88.8,386.9"/>
	<path fill="#BCC2C6" d="M88.8,424.3h216.6c4.1,0,7.4,3.3,7.4,7.5c0,4.1-3.3,7.4-7.4,7.4H88.8c-4.1,0-7.5-3.3-7.5-7.4
		C81.3,427.7,84.7,424.3,88.8,424.3"/>
	<path fill="#34495E" d="M88.8,199.9h216.6c4.1,0,7.4,3.3,7.4,7.4l0,0c0,4.1-3.3,7.4-7.4,7.4H88.8c-4.1,0-7.5-3.3-7.5-7.4l0,0
		C81.3,203.3,84.7,199.9,88.8,199.9"/>
	<path fill="#BCC2C6" d="M88.8,511.4h334.4c4.1,0,7.4,3.3,7.4,7.5l0,0c0,4.1-3.3,7.4-7.4,7.4H88.8c-4.1,0-7.5-3.3-7.5-7.4l0,0
		C81.3,514.7,84.7,511.4,88.8,511.4"/>
	<path fill="#BCC2C6" d="M88.8,548.8h334.4c4.1,0,7.4,3.3,7.4,7.5s-3.3,7.5-7.4,7.5H88.8c-4.1,0-7.5-3.3-7.5-7.5
		S84.7,548.8,88.8,548.8"/>
	<path fill="#BCC2C6" d="M88.8,586.2h334.4c4.1,0,7.4,3.4,7.4,7.5c0,4.1-3.3,7.4-7.4,7.4H88.8c-4.1,0-7.5-3.3-7.5-7.4
		C81.3,589.6,84.7,586.2,88.8,586.2"/>
	<path fill="#BCC2C6" d="M88.8,623.7h334.4c4.1,0,7.4,3.3,7.4,7.5c0,4.1-3.3,7.4-7.4,7.4H88.8c-4.1,0-7.5-3.3-7.5-7.4
		C81.3,627,84.7,623.7,88.8,623.7"/>
	<path fill="#BCC2C6" d="M88.8,661.1h216.6c4.1,0,7.4,3.3,7.4,7.5c0,4.1-3.3,7.5-7.4,7.5H88.8c-4.1,0-7.5-3.3-7.5-7.5
		C81.3,664.4,84.7,661.1,88.8,661.1"/>
	<path fill="#34495E" d="M88.8,474.1h216.6c4.1,0,7.4,3.3,7.4,7.4l0,0c0,4.1-3.3,7.5-7.4,7.5H88.8c-4.1,0-7.5-3.3-7.5-7.5l0,0
		C81.3,477.5,84.7,474.1,88.8,474.1"/>
	<path fill="#BCC2C6" d="M516.4,237.2h197.3c4.1,0,7.5,3.3,7.5,7.4l0,0c0,4.1-3.3,7.5-7.5,7.5H516.4c-4.1,0-7.5-3.3-7.5-7.5l0,0
		C508.9,240.5,512.3,237.2,516.4,237.2"/>
	<path fill="#BCC2C6" d="M516.4,274.6h197.3c4.1,0,7.5,3.3,7.5,7.4l0,0c0,4.1-3.3,7.4-7.5,7.4H516.4c-4.1,0-7.5-3.3-7.5-7.4l0,0
		C508.9,278,512.3,274.6,516.4,274.6"/>
	<path fill="#BCC2C6" d="M516.4,312h197.3c4.1,0,7.5,3.3,7.5,7.5c0,4.1-3.3,7.5-7.5,7.5H516.4c-4.1,0-7.5-3.4-7.5-7.5
		S512.3,312,516.4,312"/>
	<path fill="#BCC2C6" d="M516.4,349.4h197.3c4.1,0,7.5,3.4,7.5,7.5s-3.3,7.5-7.5,7.5H516.4c-4.1,0-7.5-3.3-7.5-7.5
		C508.9,352.8,512.3,349.4,516.4,349.4"/>
	<path fill="#BCC2C6" d="M516.4,386.9h125.7c4.1,0,7.5,3.4,7.5,7.5s-3.3,7.4-7.5,7.4H516.4c-4.1,0-7.5-3.3-7.5-7.4
		C508.9,390.2,512.3,386.9,516.4,386.9"/>
	<path fill="#34495E" d="M516.4,199.9h125.7c4.1,0,7.5,3.3,7.5,7.4l0,0c0,4.1-3.3,7.4-7.5,7.4H516.4c-4.1,0-7.5-3.3-7.5-7.4l0,0
		C508.9,203.3,512.3,199.9,516.4,199.9"/>
</g>
</svg>
