<?xml version="1.0" encoding="utf-8"?>
<!-- Generator: Adobe Illustrator 15.1.0, SVG Export Plug-In . SVG Version: 6.00 Build 0)  -->
<!DOCTYPE svg PUBLIC "-//W3C//DTD SVG 1.0//EN" "http://www.w3.org/TR/2001/REC-SVG-20010904/DTD/svg10.dtd">
<svg version="1.0" id="Layer_1" xmlns="http://www.w3.org/2000/svg" xmlns:xlink="http://www.w3.org/1999/xlink" x="0px" y="0px"
	 width="800px" height="800px" viewBox="0 0 800 800" enable-background="new 0 0 800 800" xml:space="preserve">
<g id="Header">
	<path fill="#BCC2C6" d="M33.1,34.5h736.2c8.5,0,16.1,3.5,21.7,9l0,0c5.6,5.6,9,13.2,9,21.7v654.6c0,8.4-3.5,16.1-9,21.7l0,0
		c-5.6,5.6-13.2,9-21.7,9H33.1c-8.5,0-16.1-3.5-21.7-9l0,0c-5.6-5.6-9-13.2-9-21.7V65.2c0-8.4,3.5-16.1,9-21.7l0,0
		C16.9,38,24.6,34.5,33.1,34.5"/>
	<path fill="#EBEFF0" d="M788.9,65.2v654.6c0,12.3-8.6,19.6-19.6,19.6H33.1c-11,0-19.6-7-19.6-19.6V65.2c0-12.8,8.6-19.6,19.6-19.6
		h736.2C780.2,45.6,788.9,52.7,788.9,65.2"/>
	<path fill="#94A4A5" d="M677.6,72.3c7.8,0,14.2,6.4,14.2,14.2s-6.3,14.2-14.2,14.2c-7.9,0-14.2-6.3-14.2-14.2
		C663.4,78.7,669.7,72.3,677.6,72.3 M722.1,72.3c7.8,0,14.2,6.4,14.2,14.2s-6.4,14.2-14.2,14.2c-7.8,0-14.2-6.3-14.2-14.2
		C707.9,78.7,714.3,72.3,722.1,72.3z M633,72.3c7.8,0,14.2,6.4,14.2,14.2s-6.3,14.2-14.2,14.2c-7.8,0-14.2-6.4-14.2-14.2
		S625.2,72.3,633,72.3z"/>
	
		<text transform="matrix(1 0 0 1 184.0015 80.2969)" fill="#93A2A3" font-family="'NexaBold'" font-size="44.0749" letter-spacing="2">ARTICLE</text>
</g>
<g id="Body">
	<path fill="#BCC2C6" d="M29.4,124.8h744c7.3,0,14,3,18.8,7.8c4.8,4.8,7.8,11.5,7.8,18.8v572.5c0,7.4-3,14-7.8,18.8
		s-11.5,7.8-18.8,7.8h-744c-7.3,0-14-3-18.8-7.8c-4.8-4.8-7.8-11.5-7.8-18.8V151.4c0-7.3,3-14,7.8-18.8
		C15.4,127.8,22,124.8,29.4,124.8"/>
	<path fill="#FFFFFF" d="M29.4,135.9c-4.1,0-8,1.6-10.9,4.6c-2.9,2.9-4.6,6.8-4.6,10.9v572.5c0,4.1,1.6,8.1,4.6,11
		c2.9,2.9,6.8,4.6,10.9,4.6h744c4.1,0,8-1.6,10.9-4.6c2.9-2.9,4.6-6.8,4.6-11V151.4c0-4.1-1.6-8-4.6-10.9c-2.9-2.9-6.8-4.6-10.9-4.6
		H29.4z"/>
	<polygon fill="#34495E" points="85.5,198.8 277.1,198.8 285.6,198.8 285.6,207.3 285.6,557.4 285.6,565.9 277.1,565.9 85.5,565.9 
		77.1,565.9 77.1,557.4 77.1,207.3 77.1,198.8 	"/>
	<rect x="87.4" y="209.2" fill="#22A6EF" width="187.8" height="346.3"/>
	<path opacity="0.15" enable-background="new    " d="M240.3,355.8c-2.1-2.1-4.9-3.3-8-3.3c-3.2,0-6,1.3-8,3.3
		c-2.1,2.1-3.3,4.9-3.3,8c0,3.1,1.3,6,3.3,8c2.1,2.1,4.9,3.3,8,3.3c3.1,0,6-1.3,8-3.3c2.1-2.1,3.3-4.9,3.3-8.1
		C243.6,360.7,242.4,357.9,240.3,355.8 M232.3,343.1c5.7,0,10.9,2.3,14.6,6.1l0,0c3.8,3.8,6.1,8.9,6.1,14.6c0,5.7-2.3,10.9-6.1,14.6
		l0,0c-3.7,3.8-8.9,6.1-14.6,6.1c-5.7,0-10.9-2.3-14.6-6.1c-3.8-3.7-6.1-8.9-6.1-14.6c0-5.7,2.3-10.9,6.1-14.6l0,0
		C221.4,345.5,226.6,343.1,232.3,343.1z M222.3,393.9L222.3,393.9l0.1,0.2l2.6,3.5l0,0l15.7,21.4c1.1,1.5,1.6,3.1,1.6,4.5l0,0
		c0,1.1-0.3,2.2-0.8,3.1c-0.5,0.9-1.1,1.6-1.9,2.2c-1.3,1-3,1.5-4.6,1.5l0,0h-39.5h-75.6c-1.8,0-3.4-0.5-4.6-1.4
		c-0.8-0.6-1.5-1.4-2-2.4l0,0c-0.4-0.9-0.7-1.9-0.7-3l0,0c0-1.5,0.6-3.2,1.7-4.8l16.5-22.5l0,0l1.5-2l0.2-0.3l0,0l0,0l20.5-27.2
		c0.7-1,1.5-1.8,2.3-2.4c1.6-1.2,3.3-1.8,5.2-1.8c1.8,0,3.5,0.6,5.1,1.8c0.8,0.6,1.6,1.4,2.3,2.4l19.5,26l9.5-12.6
		c0.7-0.9,1.5-1.7,2.3-2.4c1.6-1.2,3.3-1.8,5.1-1.8c1.8,0,3.6,0.6,5.1,1.8c0.8,0.6,1.6,1.4,2.3,2.4L222.3,393.9L222.3,393.9z
		 M230.6,420.9l-15.8-21.5l-0.7-0.9l-9.7-12.8l0,0l0,0l-10.9,14.5l-2.3,3l-3.7,5l-3.7-5l-2.3-3l-21-27.9l0,0l0,0l-19.8,26.4
		l-0.6,0.8L124.3,421h71.3L230.6,420.9z"/>
	<path fill="#34495E" d="M229.4,334.5c5.7,0,10.9,2.3,14.6,6.1l0,0c3.7,3.8,6.1,8.9,6.1,14.6c0,5.7-2.3,10.9-6.1,14.6l0,0
		c-3.8,3.8-8.9,6.1-14.6,6.1c-5.7,0-10.9-2.3-14.6-6.1c-3.7-3.7-6.1-8.9-6.1-14.6c0-5.7,2.3-10.9,6.1-14.6l0,0
		C218.5,336.8,223.7,334.5,229.4,334.5 M219.4,385.2L219.4,385.2l0.1,0.2l2.6,3.5l0,0l15.7,21.4c1.1,1.5,1.6,3.1,1.6,4.5l0,0
		c0,1.1-0.3,2.2-0.8,3.1c-0.5,0.9-1.1,1.6-1.9,2.2c-1.3,0.9-3,1.5-4.6,1.5l0,0h-39.5H117c-1.8,0-3.4-0.5-4.6-1.4
		c-0.9-0.6-1.5-1.4-2-2.3l0,0c-0.4-0.9-0.7-1.9-0.7-3l0,0c0-1.6,0.5-3.2,1.7-4.8l16.6-22.5l0,0l1.5-2l0.2-0.2l0,0l20.5-27.2
		c0.7-1,1.5-1.8,2.4-2.4c1.6-1.2,3.3-1.8,5.2-1.8c1.8,0,3.5,0.6,5.1,1.8c0.8,0.6,1.6,1.4,2.4,2.4l19.5,26l9.5-12.6
		c0.7-1,1.5-1.8,2.4-2.4c1.6-1.2,3.3-1.8,5.1-1.8c1.8,0,3.6,0.6,5.1,1.8c0.8,0.6,1.6,1.4,2.4,2.4L219.4,385.2L219.4,385.2z"/>
	<path fill="#39D4FF" d="M220.4,346.1L220.4,346.1c-2.5,2.5-3.8,5.7-3.8,9c0,3.4,1.3,6.6,3.7,9c2.4,2.4,5.6,3.7,9,3.7
		c3.4,0,6.5-1.3,8.9-3.7l0.1-0.1c2.4-2.4,3.7-5.6,3.7-9c0-3.3-1.3-6.5-3.7-8.9l-0.1-0.1c-2.4-2.4-5.6-3.7-9-3.7
		C226,342.4,222.8,343.8,220.4,346.1 M118.7,413.6h73.9h37.7l-17.2-23.4l-10.5-14c-0.2-0.3-0.5-0.6-0.8-0.8c0,0-0.2-0.2-0.3-0.2
		s-0.3,0.1-0.4,0.2c-0.3,0.2-0.5,0.5-0.8,0.8l-15.8,21l-25.9-34.4c-0.2-0.3-0.5-0.6-0.8-0.8c-0.1,0-0.3-0.2-0.4-0.2
		s-0.3,0.1-0.3,0.2c-0.3,0.2-0.5,0.5-0.8,0.8l-20.6,27.4L118.7,413.6z"/>
	<path fill="#BCC2C6" d="M337.2,236.1h381.1c4.1,0,7.5,3.3,7.5,7.4s-3.3,7.5-7.5,7.5H337.2c-4.1,0-7.4-3.4-7.4-7.5
		C329.7,239.4,333.1,236.1,337.2,236.1"/>
	<path fill="#BCC2C6" d="M337.2,273.5h381.1c4.1,0,7.5,3.3,7.5,7.5c0,4.1-3.3,7.5-7.5,7.5H337.2c-4.1,0-7.4-3.3-7.4-7.5
		C329.7,276.8,333.1,273.5,337.2,273.5"/>
	<path fill="#BCC2C6" d="M337.2,310.9h381.1c4.1,0,7.5,3.3,7.5,7.4c0,4.1-3.3,7.5-7.5,7.5H337.2c-4.1,0-7.4-3.3-7.4-7.5
		C329.7,314.3,333.1,310.9,337.2,310.9"/>
	<path fill="#BCC2C6" d="M337.2,348.3h381.1c4.1,0,7.5,3.3,7.5,7.4l0,0c0,4.1-3.3,7.4-7.5,7.4H337.2c-4.1,0-7.4-3.3-7.4-7.4l0,0
		C329.7,351.7,333.1,348.3,337.2,348.3"/>
	<path fill="#BCC2C6" d="M337.2,385.8h381.1c4.1,0,7.5,3.3,7.5,7.5l0,0c0,4.1-3.3,7.4-7.5,7.4H337.2c-4.1,0-7.4-3.3-7.4-7.4l0,0
		C329.7,389.1,333.1,385.8,337.2,385.8"/>
	<path fill="#BCC2C6" d="M337.2,423.2h247.5c4.1,0,7.5,3.3,7.5,7.5l0,0c0,4.1-3.4,7.5-7.5,7.5H337.2c-4.1,0-7.4-3.3-7.4-7.5l0,0
		C329.7,426.5,333.1,423.2,337.2,423.2"/>
	<path fill="#BCC2C6" d="M337.2,198.8h247.5c4.1,0,7.5,3.3,7.5,7.5l0,0c0,4.1-3.4,7.5-7.5,7.5H337.2c-4.1,0-7.4-3.3-7.4-7.5l0,0
		C329.7,202.2,333.1,198.8,337.2,198.8"/>
	<path fill="#BCC2C6" d="M337.2,510.2h381.1c4.1,0,7.5,3.3,7.5,7.4c0,4.1-3.3,7.5-7.5,7.5H337.2c-4.1,0-7.4-3.3-7.4-7.5
		C329.7,513.5,333.1,510.2,337.2,510.2"/>
	<path fill="#BCC2C6" d="M337.2,547.6h381.1c4.1,0,7.5,3.3,7.5,7.4l0,0c0,4.1-3.3,7.4-7.5,7.4H337.2c-4.1,0-7.4-3.3-7.4-7.4l0,0
		C329.7,551,333.1,547.6,337.2,547.6"/>
	<path fill="#BCC2C6" d="M337.2,585h381.1c4.1,0,7.5,3.3,7.5,7.5l0,0c0,4.1-3.3,7.4-7.5,7.4H337.2c-4.1,0-7.4-3.3-7.4-7.4l0,0
		C329.7,588.4,333.1,585,337.2,585"/>
	<path fill="#BCC2C6" d="M337.2,622.4h381.1c4.1,0,7.5,3.3,7.5,7.5l0,0c0,4.1-3.3,7.5-7.5,7.5H337.2c-4.1,0-7.4-3.3-7.4-7.5l0,0
		C329.7,625.8,333.1,622.4,337.2,622.4"/>
	<path fill="#BCC2C6" d="M337.2,659.9h247.5c4.1,0,7.5,3.3,7.5,7.4l0,0c0,4.1-3.4,7.4-7.5,7.4H337.2c-4.1,0-7.4-3.3-7.4-7.4l0,0
		C329.7,663.2,333.1,659.9,337.2,659.9"/>
	<path fill="#BCC2C6" d="M337.2,473h247.5c4.1,0,7.5,3.3,7.5,7.4c0,4.1-3.4,7.5-7.5,7.5H337.2c-4.1,0-7.4-3.4-7.4-7.5
		C329.7,476.3,333.1,473,337.2,473"/>
	<path fill="#BCC2C6" d="M84.5,586.8h193.7c4.1,0,7.4,3.3,7.4,7.5l0,0c0,4.1-3.3,7.5-7.4,7.5H84.5c-4.1,0-7.5-3.3-7.5-7.5l0,0
		C77.1,590.1,80.4,586.8,84.5,586.8"/>
	<path fill="#BCC2C6" d="M84.5,624.2h193.7c4.1,0,7.4,3.3,7.4,7.4l0,0c0,4.1-3.3,7.5-7.4,7.5H84.5c-4.1,0-7.5-3.3-7.5-7.5l0,0
		C77.1,627.5,80.4,624.2,84.5,624.2"/>
	<path fill="#BCC2C6" d="M84.5,661.6h193.7c4.1,0,7.4,3.3,7.4,7.4l0,0c0,4.1-3.3,7.4-7.4,7.4H84.5c-4.1,0-7.5-3.3-7.5-7.4l0,0
		C77.1,665,80.4,661.6,84.5,661.6"/>
</g>
</svg>
