<?xml version="1.0" encoding="utf-8"?>
<!-- Generator: Adobe Illustrator 15.1.0, SVG Export Plug-In . SVG Version: 6.00 Build 0)  -->
<!DOCTYPE svg PUBLIC "-//W3C//DTD SVG 1.0//EN" "http://www.w3.org/TR/2001/REC-SVG-20010904/DTD/svg10.dtd">
<svg version="1.0" id="Layer_1" xmlns="http://www.w3.org/2000/svg" xmlns:xlink="http://www.w3.org/1999/xlink" x="0px" y="0px"
	 width="800px" height="800px" viewBox="0 0 800 800" enable-background="new 0 0 800 800" xml:space="preserve">
<g id="Header">
	<path fill="#BCC2C6" d="M33.1,34.5h736.2c8.5,0,16.1,3.5,21.7,9l0,0c5.6,5.6,9,13.2,9,21.7v654.6c0,8.4-3.5,16.1-9,21.7l0,0
		c-5.6,5.6-13.2,9-21.7,9H33.1c-8.5,0-16.1-3.5-21.7-9l0,0c-5.6-5.6-9-13.2-9-21.7V65.2c0-8.4,3.5-16.1,9-21.7l0,0
		C16.9,38,24.6,34.5,33.1,34.5"/>
	<path fill="#EBEFF0" d="M788.9,65.2v654.6c0,12.3-8.6,19.6-19.6,19.6H33.1c-11,0-19.6-7-19.6-19.6V65.2c0-12.8,8.6-19.6,19.6-19.6
		h736.2C780.2,45.6,788.9,52.7,788.9,65.2"/>
	<path fill="#94A4A5" d="M677.6,72.3c7.8,0,14.2,6.4,14.2,14.2s-6.3,14.2-14.2,14.2c-7.9,0-14.2-6.3-14.2-14.2
		C663.4,78.7,669.7,72.3,677.6,72.3 M722.1,72.3c7.8,0,14.2,6.4,14.2,14.2s-6.4,14.2-14.2,14.2c-7.8,0-14.2-6.3-14.2-14.2
		C707.9,78.7,714.3,72.3,722.1,72.3z M633,72.3c7.8,0,14.2,6.4,14.2,14.2s-6.3,14.2-14.2,14.2c-7.8,0-14.2-6.4-14.2-14.2
		S625.2,72.3,633,72.3z"/>
	<text transform="matrix(1 0 0 1 233.4102 82.4453)" fill="#93A2A3" font-family="'NexaBold'" font-size="37.2406">CHAT</text>
</g>
<g id="Body">
	<path fill="#BCC2C6" d="M29.3,126.7h744c7.3,0,14,3,18.8,7.8c4.8,4.8,7.8,11.5,7.8,18.8v572.5c0,7.3-3,14-7.8,18.8
		c-4.8,4.8-11.5,7.8-18.8,7.8h-744c-7.3,0-14-3-18.8-7.8c-4.8-4.8-7.8-11.5-7.8-18.8V153.3c0-7.3,3-14,7.8-18.8
		C15.3,129.6,22,126.7,29.3,126.7"/>
	<path fill="#FFFFFF" d="M29.3,137.8c-4.1,0-8,1.7-10.9,4.6s-4.6,6.8-4.6,11v572.5c0,4.1,1.6,8,4.6,10.9c2.9,2.9,6.8,4.6,10.9,4.6
		h744c4.1,0,8-1.6,11-4.6c2.9-2.9,4.5-6.8,4.5-10.9V153.3c0-4.1-1.6-8-4.5-11c-2.9-2.9-6.8-4.6-11-4.6L29.3,137.8L29.3,137.8z"/>
	<path fill="#34495E" d="M161.9,204.8c36.1,0,65.4,29.3,65.4,65.4c0,36.1-29.3,65.4-65.4,65.4s-65.4-29.3-65.4-65.4
		C96.5,234.1,125.8,204.8,161.9,204.8"/>
	<path fill="#22A6EF" d="M161.9,215.6c30.2,0,54.6,24.5,54.6,54.6c0,30.2-24.5,54.6-54.6,54.6c-30.2,0-54.6-24.5-54.6-54.6
		C107.2,240,131.7,215.6,161.9,215.6"/>
	<path fill="#34495E" d="M161.9,275.7c19.2,0,35.8,11.3,43.5,27.5c-10,13.1-25.8,21.6-43.5,21.6c-17.7,0-33.5-8.5-43.5-21.6
		C126.1,287,142.7,275.7,161.9,275.7"/>
	<path fill="#34495E" d="M161.9,233.4c15,0,27.1,12.2,27.1,27.1c0,15-12.1,27.1-27.1,27.1s-27.1-12.2-27.1-27.1
		C134.7,245.6,146.9,233.4,161.9,233.4"/>
	<path fill="#39D4FF" d="M161.9,244.1c9.1,0,16.4,7.4,16.4,16.4c0,9.1-7.3,16.4-16.4,16.4s-16.4-7.4-16.4-16.4
		S152.8,244.1,161.9,244.1"/>
	<path fill="#39D4FF" d="M161.9,286.4c16.4,0,30.4,10.6,35.4,25.3c-9.5,8.1-21.9,13.1-35.4,13.1s-25.9-4.9-35.4-13.1
		C131.5,297.1,145.4,286.4,161.9,286.4"/>
	<path fill="#BCC2C6" d="M291.2,277.4h394.4c4.1,0,7.5-3.3,7.5-7.4s-3.3-7.5-7.5-7.5H291.2c-4.1,0-7.5,3.3-7.5,7.5
		C283.7,274.1,287.1,277.4,291.2,277.4"/>
	<path fill="#BCC2C6" d="M291.2,314.7H601c4.1,0,7.5-3.3,7.5-7.4l0,0c0-4.1-3.3-7.4-7.5-7.4H291.2c-4.1,0-7.5,3.3-7.5,7.4l0,0
		C283.7,311.3,287.1,314.7,291.2,314.7"/>
	<path fill="#BCC2C6" d="M291.2,240.6h256.4c4.1,0,7.5-3.3,7.5-7.5l0,0c0-4.1-3.4-7.4-7.5-7.4H291.2c-4.1,0-7.5,3.3-7.5,7.4l0,0
		C283.7,237.3,287.1,240.6,291.2,240.6"/>
	<path fill="#BCC2C6" d="M104,464.6h394.4c4.1,0,7.5-3.3,7.5-7.4l0,0c0-4.1-3.3-7.4-7.5-7.4H104c-4.1,0-7.5,3.3-7.5,7.4l0,0
		C96.5,461.2,99.8,464.6,104,464.6"/>
	<path fill="#BCC2C6" d="M104,501.8h309.8c4.1,0,7.4-3.3,7.4-7.5c0-4.1-3.3-7.4-7.4-7.4H104c-4.1,0-7.5,3.3-7.5,7.4
		C96.5,498.5,99.9,501.8,104,501.8"/>
	<path fill="#BCC2C6" d="M104,427.8h256.4c4.1,0,7.5-3.3,7.5-7.4l0,0c0-4.1-3.3-7.5-7.5-7.5H104c-4.1,0-7.5,3.3-7.5,7.5l0,0
		C96.5,424.4,99.9,427.8,104,427.8"/>
	<path fill="#34495E" d="M640.8,392c36.1,0,65.3,29.3,65.3,65.3c0,36.1-29.3,65.4-65.3,65.4c-36.1,0-65.4-29.3-65.4-65.4
		C575.4,421.3,604.7,392,640.8,392"/>
	<path fill="#22A6EF" d="M640.8,402.7c30.2,0,54.6,24.5,54.6,54.6c0,30.2-24.5,54.7-54.6,54.7c-30.2,0-54.7-24.5-54.7-54.7
		C586.2,427.2,610.6,402.7,640.8,402.7"/>
	<path fill="#34495E" d="M640.8,462.9c19.2,0,35.8,11.3,43.5,27.5c-10,13.1-25.8,21.6-43.5,21.6c-17.8,0-33.5-8.5-43.5-21.6
		C605,474.1,621.6,462.9,640.8,462.9"/>
	<path fill="#34495E" d="M640.8,420.6c15,0,27.1,12.2,27.1,27.1c0,15-12.1,27.1-27.1,27.1s-27.1-12.2-27.1-27.1
		C613.7,432.7,625.8,420.6,640.8,420.6"/>
	<path fill="#39D4FF" d="M640.8,431.3c9.1,0,16.4,7.4,16.4,16.4s-7.3,16.4-16.4,16.4c-9.1,0-16.4-7.4-16.4-16.4
		S631.7,431.3,640.8,431.3"/>
	<path fill="#39D4FF" d="M640.8,473.6c16.4,0,30.4,10.6,35.4,25.3c-9.5,8.1-21.9,13.1-35.4,13.1s-25.9-4.9-35.4-13.1
		C610.4,484.2,624.4,473.6,640.8,473.6"/>
	<path fill="#BCC2C6" d="M105.9,606.9h379.5c5.2,0,9.4,4.2,9.4,9.4v28.9c0,5.2-4.2,9.4-9.4,9.4H105.9c-5.2,0-9.4-4.2-9.4-9.4v-28.9
		C96.5,611.2,100.7,606.9,105.9,606.9"/>
	<rect x="107.6" y="618.1" fill="#FFFFFF" width="376.1" height="25.5"/>
	<path fill="#BCC2C6" d="M675.3,627.8H563.9c-4.3,0-8.2,1.8-11,4.6c-2.8,2.8-4.6,6.7-4.6,11l0,0c0,4.3,1.8,8.2,4.6,11l0,0
		c2.8,2.8,6.7,4.6,11,4.6h111.4c4.3,0,8.2-1.8,11-4.6c2.8-2.8,4.6-6.7,4.6-11l0,0c0-4.3-1.8-8.2-4.6-11
		C683.5,629.6,679.6,627.8,675.3,627.8 M563.9,612.6h111.4c8.5,0,16.2,3.5,21.8,9.1l0,0c5.6,5.6,9,13.3,9,21.8l0,0
		c0,8.5-3.5,16.2-9,21.8c-5.6,5.6-13.3,9.1-21.8,9.1H563.9c-8.5,0-16.2-3.5-21.8-9.1l0,0l0,0c-5.6-5.6-9.1-13.3-9.1-21.8l0,0
		c0-8.5,3.5-16.2,9.1-21.8C547.7,616,555.4,612.6,563.9,612.6z"/>
	<path fill="#34495E" d="M557.8,600h111.4c8.5,0,16.2,3.5,21.8,9.1l0,0c5.6,5.6,9.1,13.3,9.1,21.8l0,0c0,8.5-3.5,16.2-9.1,21.8
		c-5.6,5.6-13.3,9.1-21.8,9.1H557.8c-8.5,0-16.2-3.5-21.8-9.1l0,0l0,0c-5.6-5.6-9.1-13.3-9.1-21.8l0,0c0-8.5,3.5-16.2,9.1-21.8
		C541.6,603.4,549.3,600,557.8,600"/>
	<path fill="#27CABF" d="M669.2,609.1c5.7,0,11.3,2.3,15.3,6.3c4.1,4.1,6.3,9.6,6.3,15.3s-2.3,11.2-6.4,15.3
		c-4.1,4.1-9.6,6.4-15.3,6.4H557.8c-5.7,0-11.2-2.3-15.3-6.3l0,0c-4.1-4.1-6.3-9.6-6.3-15.3c0-5.8,2.3-11.2,6.4-15.3
		c4.1-4.1,9.6-6.4,15.3-6.4H669.2z"/>
	<path fill="#51F4E9" d="M669.2,609.1c5.7,0,11.3,2.3,15.3,6.3c4.1,4.1,6.3,9.6,6.3,15.3c0,1.5-0.2,2.9-0.4,4.4
		c-0.9-4.1-2.9-7.9-5.9-11c-4.1-4.1-9.6-6.3-15.3-6.3H557.8c-5.8,0-11.2,2.3-15.3,6.4c-3,3-5.1,6.8-5.9,11c-0.3-1.4-0.4-2.9-0.4-4.4
		c0-5.8,2.3-11.2,6.4-15.3c4.1-4.1,9.6-6.4,15.3-6.4H669.2z"/>
</g>
</svg>
