<?xml version="1.0" encoding="utf-8"?>
<!-- Generator: Adobe Illustrator 15.1.0, SVG Export Plug-In . SVG Version: 6.00 Build 0)  -->
<!DOCTYPE svg PUBLIC "-//W3C//DTD SVG 1.0//EN" "http://www.w3.org/TR/2001/REC-SVG-20010904/DTD/svg10.dtd">
<svg version="1.0" id="Layer_1" xmlns="http://www.w3.org/2000/svg" xmlns:xlink="http://www.w3.org/1999/xlink" x="0px" y="0px"
	 width="800px" height="800px" viewBox="0 0 800 800" enable-background="new 0 0 800 800" xml:space="preserve">
<g id="Header">
	<path fill="#BCC2C6" d="M33.1,34.5h736.2c8.5,0,16.1,3.5,21.7,9l0,0c5.6,5.6,9,13.2,9,21.7v654.6c0,8.4-3.5,16.1-9,21.7l0,0
		c-5.6,5.6-13.2,9-21.7,9H33.1c-8.5,0-16.1-3.5-21.7-9l0,0c-5.6-5.6-9-13.2-9-21.7V65.2c0-8.4,3.5-16.1,9-21.7l0,0
		C16.9,38,24.6,34.5,33.1,34.5"/>
	<path fill="#EBEFF0" d="M788.9,65.2v654.6c0,12.3-8.6,19.6-19.6,19.6H33.1c-11,0-19.6-7-19.6-19.6V65.2c0-12.8,8.6-19.6,19.6-19.6
		h736.2C780.2,45.6,788.9,52.7,788.9,65.2"/>
	<path fill="#94A4A5" d="M677.6,72.3c7.8,0,14.2,6.4,14.2,14.2s-6.3,14.2-14.2,14.2c-7.9,0-14.2-6.3-14.2-14.2
		C663.4,78.7,669.7,72.3,677.6,72.3 M722.1,72.3c7.8,0,14.2,6.4,14.2,14.2s-6.4,14.2-14.2,14.2c-7.8,0-14.2-6.3-14.2-14.2
		C707.9,78.7,714.3,72.3,722.1,72.3z M633,72.3c7.8,0,14.2,6.4,14.2,14.2s-6.3,14.2-14.2,14.2c-7.8,0-14.2-6.4-14.2-14.2
		S625.2,72.3,633,72.3z"/>
	<text transform="matrix(1 0 0 1 149.9102 79.4453)" fill="#93A2A3" font-family="'NexaBold'" font-size="37.2406">COMMENTS</text>
</g>
<g id="Body">
	<path fill="#BCC2C6" d="M29.6,126.7h743.8c7.3,0,14,3,18.8,7.8s7.8,11.5,7.8,18.8v572.3c0,7.3-3,14-7.8,18.8
		c-4.8,4.8-11.5,7.8-18.8,7.8H29.6c-7.3,0-14-3-18.8-7.8C6,739.7,3,733,3,725.7V153.3c0-7.3,3-14,7.8-18.8
		C15.6,129.7,22.3,126.7,29.6,126.7"/>
	<path fill="#FFFFFF" d="M29.6,137.8c-4.1,0-8,1.7-10.9,4.6c-2.9,2.9-4.6,6.8-4.6,11v572.3c0,4.1,1.6,8,4.6,10.9
		c2.9,2.9,6.8,4.6,10.9,4.6h743.8c4.1,0,8-1.6,10.9-4.6c2.9-2.9,4.6-6.8,4.6-10.9V153.3c0-4.1-1.6-8-4.6-11
		c-2.9-2.9-6.8-4.6-10.9-4.6L29.6,137.8L29.6,137.8z"/>
	<path fill="#BCC2C6" d="M97.1,355.5h419.8c8.6,0,15.6-7,15.6-15.6v-128c0-8.6-7-15.6-15.6-15.6H97.1c-8.6,0-15.6,7-15.6,15.6V340
		C81.5,348.5,88.6,355.5,97.1,355.5"/>
	<path fill="#EBEFF0" d="M97.1,207h419.8c2.7,0,4.9,2.2,4.9,4.9V340c0,2.7-2.2,4.9-4.9,4.9H97.1c-2.7,0-4.9-2.2-4.9-4.9V211.9
		C92.2,209.2,94.4,207,97.1,207"/>
	<path fill="#BCC2C6" d="M698.1,308.5h-84.4c-3.2,0-6.2,1.3-8.3,3.5c-2.1,2.1-3.5,5.1-3.5,8.3l0,0c0,3.3,1.3,6.2,3.4,8.3l0,0
		c2.1,2.1,5.1,3.5,8.3,3.5H698c3.2,0,6.2-1.3,8.3-3.5c2.1-2.1,3.5-5.1,3.5-8.3l0,0c0-3.3-1.3-6.2-3.5-8.3
		C704.3,309.8,701.3,308.5,698.1,308.5 M613.7,296.9h84.4c6.4,0,12.2,2.6,16.5,6.9l0,0c4.2,4.2,6.9,10.1,6.9,16.5l0,0
		c0,6.4-2.6,12.3-6.9,16.5c-4.2,4.2-10.1,6.8-16.5,6.8h-84.4c-6.4,0-12.2-2.6-16.5-6.8l0,0l0,0c-4.2-4.2-6.9-10.1-6.9-16.5l0,0
		c0-6.4,2.6-12.3,6.9-16.5C601.4,299.6,607.3,296.9,613.7,296.9z"/>
	<path fill="#34495E" d="M609.1,287.4h84.4c6.4,0,12.2,2.6,16.5,6.9l0,0c4.2,4.2,6.9,10.1,6.9,16.5c0,6.4-2.6,12.3-6.9,16.5
		c-4.2,4.2-10.1,6.9-16.5,6.9h-84.4c-6.4,0-12.2-2.6-16.5-6.9l0,0l0,0c-4.2-4.2-6.9-10.1-6.9-16.5c0-6.4,2.6-12.3,6.9-16.5
		C596.8,290,602.7,287.4,609.1,287.4"/>
	<path fill="#27CABF" d="M693.5,294.3c4.4,0,8.5,1.7,11.6,4.8c3.1,3.1,4.8,7.3,4.8,11.6c0,4.4-1.7,8.5-4.8,11.6
		c-3.1,3.1-7.2,4.8-11.6,4.8h-84.4c-4.4,0-8.5-1.7-11.6-4.8l0,0c-3.1-3.1-4.8-7.2-4.8-11.6c0-4.4,1.7-8.5,4.8-11.6s7.2-4.8,11.6-4.8
		H693.5z"/>
	<path fill="#51F4E9" d="M693.5,294.3c4.4,0,8.5,1.7,11.6,4.8c3.1,3.1,4.8,7.3,4.8,11.6c0,1.1-0.1,2.2-0.3,3.3
		c-0.6-3.1-2.2-6-4.5-8.3c-3.1-3.1-7.2-4.8-11.6-4.8h-84.4c-4.4,0-8.5,1.7-11.6,4.8c-2.3,2.3-3.8,5.2-4.5,8.3
		c-0.2-1.1-0.3-2.2-0.3-3.3c0-4.4,1.7-8.5,4.8-11.6s7.2-4.8,11.6-4.8H693.5z"/>
	<path fill="#34495E" d="M146.9,386.6c36.1,0,65.3,29.2,65.3,65.3c0,36.1-29.2,65.3-65.3,65.3s-65.3-29.3-65.3-65.3
		C81.5,415.8,110.8,386.6,146.9,386.6"/>
	<path fill="#22A6EF" d="M146.9,397.3c30.2,0,54.6,24.4,54.6,54.6c0,30.2-24.4,54.6-54.6,54.6c-30.2,0-54.6-24.5-54.6-54.6
		C92.2,421.7,116.7,397.3,146.9,397.3"/>
	<path fill="#34495E" d="M146.9,457.4c19.2,0,35.8,11.2,43.5,27.5c-10,13.1-25.7,21.6-43.5,21.6c-17.8,0-33.5-8.5-43.5-21.6
		C111.1,468.7,127.7,457.4,146.9,457.4"/>
	<path fill="#34495E" d="M146.9,415.1c15,0,27.1,12.2,27.1,27.1c0,14.9-12.1,27.1-27.1,27.1s-27.1-12.2-27.1-27.1
		C119.8,427.3,131.9,415.1,146.9,415.1"/>
	<path fill="#39D4FF" d="M146.9,425.8c9.1,0,16.4,7.4,16.4,16.4s-7.4,16.4-16.4,16.4s-16.4-7.4-16.4-16.4S137.8,425.8,146.9,425.8"
		/>
	<path fill="#39D4FF" d="M146.9,468.1c16.4,0,30.4,10.6,35.4,25.3c-9.5,8.1-21.9,13.1-35.4,13.1s-25.9-4.9-35.4-13.1
		C116.5,478.7,130.4,468.1,146.9,468.1"/>
	<path fill="#BCC2C6" d="M276.1,459.1h394.3c4.1,0,7.4-3.3,7.4-7.4c0-4.1-3.3-7.4-7.4-7.4H276.1c-4.1,0-7.4,3.3-7.4,7.4
		C268.7,455.8,272,459.1,276.1,459.1"/>
	<path fill="#BCC2C6" d="M276.1,496.4h309.7c4.1,0,7.4-3.3,7.4-7.4l0,0c0-4.1-3.3-7.4-7.4-7.4H276.1c-4.1,0-7.4,3.3-7.4,7.4l0,0
		C268.7,493,272,496.4,276.1,496.4"/>
	<path fill="#BCC2C6" d="M276.1,422.3h256.3c4.1,0,7.4-3.3,7.4-7.4l0,0c0-4.1-3.3-7.4-7.4-7.4H276.1c-4.1,0-7.4,3.3-7.4,7.4l0,0
		C268.7,419,272,422.3,276.1,422.3"/>
	<path fill="#34495E" d="M146.9,552c36.1,0,65.3,29.3,65.3,65.3c0,36.1-29.2,65.3-65.3,65.3s-65.3-29.2-65.3-65.3
		C81.5,581.3,110.8,552,146.9,552"/>
	<path fill="#22A6EF" d="M146.9,562.8c30.2,0,54.6,24.5,54.6,54.6c0,30.2-24.4,54.6-54.6,54.6c-30.2,0-54.6-24.4-54.6-54.6
		C92.2,587.2,116.7,562.8,146.9,562.8"/>
	<path fill="#34495E" d="M146.9,622.9c19.2,0,35.8,11.3,43.5,27.5c-10,13.1-25.7,21.6-43.5,21.6c-17.8,0-33.5-8.5-43.5-21.6
		C111.1,634.1,127.7,622.9,146.9,622.9"/>
	<path fill="#34495E" d="M146.9,580.6c15,0,27.1,12.1,27.1,27.1s-12.1,27.1-27.1,27.1s-27.1-12.1-27.1-27.1
		C119.8,592.8,131.9,580.6,146.9,580.6"/>
	<path fill="#39D4FF" d="M146.9,591.3c9.1,0,16.4,7.3,16.4,16.4c0,9.1-7.4,16.4-16.4,16.4s-16.4-7.3-16.4-16.4
		C130.5,598.7,137.8,591.3,146.9,591.3"/>
	<path fill="#39D4FF" d="M146.9,633.6c16.4,0,30.4,10.6,35.4,25.3c-9.5,8.1-21.9,13-35.4,13s-25.9-4.9-35.4-13
		C116.5,644.2,130.4,633.6,146.9,633.6"/>
	<path fill="#BCC2C6" d="M276.1,624.6h394.3c4.1,0,7.4-3.3,7.4-7.4l0,0c0-4.1-3.3-7.4-7.4-7.4H276.1c-4.1,0-7.4,3.3-7.4,7.4l0,0
		C268.7,621.3,272,624.6,276.1,624.6"/>
	<path fill="#BCC2C6" d="M276.1,661.8h309.7c4.1,0,7.4-3.3,7.4-7.4c0-4.1-3.3-7.4-7.4-7.4H276.1c-4.1,0-7.4,3.4-7.4,7.4
		C268.7,658.5,272,661.8,276.1,661.8"/>
	<path fill="#BCC2C6" d="M276.1,587.8h256.3c4.1,0,7.4-3.3,7.4-7.4l0,0c0-4.1-3.3-7.4-7.4-7.4H276.1c-4.1,0-7.4,3.3-7.4,7.4l0,0
		C268.7,584.5,272,587.8,276.1,587.8"/>
</g>
</svg>
