<?xml version="1.0" encoding="utf-8"?>
<!-- Generator: Adobe Illustrator 15.1.0, SVG Export Plug-In . SVG Version: 6.00 Build 0)  -->
<!DOCTYPE svg PUBLIC "-//W3C//DTD SVG 1.0//EN" "http://www.w3.org/TR/2001/REC-SVG-20010904/DTD/svg10.dtd">
<svg version="1.0" id="Layer_1" xmlns="http://www.w3.org/2000/svg" xmlns:xlink="http://www.w3.org/1999/xlink" x="0px" y="0px"
	 width="800px" height="800px" viewBox="0 0 800 800" enable-background="new 0 0 800 800" xml:space="preserve">
<g id="Header">
	<path fill="#BCC2C6" d="M33.1,34.5h736.2c8.5,0,16.1,3.5,21.7,9l0,0c5.6,5.6,9,13.2,9,21.7v654.6c0,8.4-3.5,16.1-9,21.7l0,0
		c-5.6,5.6-13.2,9-21.7,9H33.1c-8.5,0-16.1-3.5-21.7-9l0,0c-5.6-5.6-9-13.2-9-21.7V65.2c0-8.4,3.5-16.1,9-21.7l0,0
		C16.9,38,24.6,34.5,33.1,34.5"/>
	<path fill="#EBEFF0" d="M788.9,65.2v654.6c0,12.3-8.6,19.6-19.6,19.6H33.1c-11,0-19.6-7-19.6-19.6V65.2c0-12.8,8.6-19.6,19.6-19.6
		h736.2C780.2,45.6,788.9,52.7,788.9,65.2"/>
	<path fill="#94A4A5" d="M677.6,72.3c7.8,0,14.2,6.4,14.2,14.2s-6.3,14.2-14.2,14.2c-7.9,0-14.2-6.3-14.2-14.2
		C663.4,78.7,669.7,72.3,677.6,72.3 M722.1,72.3c7.8,0,14.2,6.4,14.2,14.2s-6.4,14.2-14.2,14.2c-7.8,0-14.2-6.3-14.2-14.2
		C707.9,78.7,714.3,72.3,722.1,72.3z M633,72.3c7.8,0,14.2,6.4,14.2,14.2s-6.3,14.2-14.2,14.2c-7.8,0-14.2-6.4-14.2-14.2
		S625.2,72.3,633,72.3z"/>
	<text transform="matrix(1 0 0 1 151.2441 80.4453)" fill="#93A2A3" font-family="'NexaBold'" font-size="37.2406">CONNECTION</text>
</g>
<g id="Body">
	<path fill="#34495E" d="M29.1,126h744.2c7.3,0,14,3,18.8,7.8c4.8,4.8,7.8,11.5,7.8,18.8v572.7c0,7.3-3,14-7.8,18.8
		c-4.8,4.8-11.5,7.8-18.8,7.8H29.1c-7.3,0-14-3-18.8-7.8c-4.8-4.8-7.8-11.5-7.8-18.8V152.6c0-7.3,3-14,7.8-18.8
		C15.1,129,21.8,126,29.1,126"/>
	<path fill="#FFFFFF" d="M29.1,137.1c-4.1,0-8,1.7-11,4.6c-2.9,2.9-4.6,6.8-4.6,11v572.7c0,4.1,1.7,8,4.6,10.9
		c2.9,2.9,6.8,4.6,11,4.6h744.2c4.1,0,8-1.6,10.9-4.6c2.9-2.9,4.6-6.8,4.6-10.9V152.6c0-4.1-1.6-8-4.6-11c-2.9-2.9-6.8-4.6-10.9-4.6
		H29.1V137.1z"/>
	<rect x="105.7" y="195.7" fill="#34495E" width="130.7" height="130.7"/>
	<rect x="116.4" y="206.4" fill="#22A6EF" width="109.3" height="109.3"/>
	<path fill="#34495E" d="M171.1,266.6c26.6,0,48.1,21.6,48.1,48.2v1h-96.3v-1C122.9,288.2,144.5,266.6,171.1,266.6"/>
	<path fill="#34495E" d="M171.1,224.3c15,0,27.1,12.1,27.1,27.1s-12.2,27.1-27.1,27.1c-15,0-27.1-12.2-27.1-27.1
		C143.9,236.4,156.1,224.3,171.1,224.3"/>
	<path fill="#39D4FF" d="M171.1,235c9.1,0,16.4,7.4,16.4,16.4c0,9.1-7.3,16.4-16.4,16.4s-16.4-7.4-16.4-16.4
		C154.6,242.4,162,235,171.1,235"/>
	<path fill="#39D4FF" d="M171.1,277.3c20.7,0,37.4,16.8,37.4,37.4v1h-74.8v-1C133.6,294.1,150.4,277.3,171.1,277.3"/>
	<path fill="#BCC2C6" d="M119.4,409.7h103.3c4.1,0,7.4-3.3,7.4-7.4l0,0c0-4.1-3.3-7.5-7.4-7.5H119.4c-4.1,0-7.4,3.3-7.4,7.5l0,0
		C112,406.4,115.3,409.7,119.4,409.7"/>
	<path fill="#BCC2C6" d="M104.2,372.3H238c4.1,0,7.4-3.3,7.4-7.5l0,0c0-4.1-3.3-7.4-7.4-7.4H104.2c-4.1,0-7.5,3.3-7.5,7.4l0,0
		C96.7,368.9,100,372.3,104.2,372.3"/>
	<rect x="335.8" y="195.7" fill="#34495E" width="130.7" height="130.7"/>
	<rect x="346.6" y="206.4" fill="#22A6EF" width="109.3" height="109.3"/>
	<path fill="#34495E" d="M401.2,266.6c26.6,0,48.1,21.6,48.1,48.2v1H353v-1C353.1,288.2,374.6,266.6,401.2,266.6"/>
	<path fill="#34495E" d="M401.2,224.3c15,0,27.1,12.1,27.1,27.1s-12.2,27.1-27.1,27.1c-15,0-27.1-12.2-27.1-27.1
		C374.1,236.4,386.2,224.3,401.2,224.3"/>
	<path fill="#39D4FF" d="M401.2,235c9.1,0,16.4,7.4,16.4,16.4c0,9.1-7.4,16.4-16.4,16.4c-9.1,0-16.4-7.4-16.4-16.4
		S392.2,235,401.2,235"/>
	<path fill="#39D4FF" d="M401.2,277.3c20.7,0,37.4,16.8,37.4,37.4v1h-74.8v-1C363.8,294.1,380.6,277.3,401.2,277.3"/>
	<path fill="#BCC2C6" d="M349.6,409.7h103.2c4.1,0,7.5-3.3,7.5-7.4l0,0c0-4.1-3.3-7.5-7.5-7.5H349.6c-4.1,0-7.5,3.3-7.5,7.5l0,0
		C342.1,406.4,345.5,409.7,349.6,409.7"/>
	<path fill="#BCC2C6" d="M334.3,372.3h133.8c4.1,0,7.4-3.3,7.4-7.5l0,0c0-4.1-3.3-7.4-7.4-7.4H334.3c-4.1,0-7.4,3.3-7.4,7.4l0,0
		C326.9,368.9,330.2,372.3,334.3,372.3"/>
	<rect x="566" y="195.7" fill="#34495E" width="130.7" height="130.7"/>
	<rect x="576.7" y="206.4" fill="#22A6EF" width="109.3" height="109.3"/>
	<path fill="#34495E" d="M631.4,266.6c26.6,0,48.2,21.6,48.2,48.2v1h-96.3v-1C583.2,288.2,604.8,266.6,631.4,266.6"/>
	<path fill="#34495E" d="M631.4,224.3c15,0,27.1,12.1,27.1,27.1s-12.2,27.1-27.1,27.1c-15,0-27.1-12.2-27.1-27.1
		C604.2,236.4,616.4,224.3,631.4,224.3"/>
	<path fill="#39D4FF" d="M631.4,235c9.1,0,16.4,7.4,16.4,16.4c0,9.1-7.4,16.4-16.4,16.4c-9.1,0-16.4-7.4-16.4-16.4
		S622.3,235,631.4,235"/>
	<path fill="#39D4FF" d="M631.4,277.3c20.7,0,37.4,16.8,37.4,37.4v1H594v-1C594,294.1,610.7,277.3,631.4,277.3"/>
	<path fill="#BCC2C6" d="M579.8,409.7H683c4.1,0,7.5-3.3,7.5-7.4l0,0c0-4.1-3.3-7.5-7.5-7.5H579.8c-4.1,0-7.5,3.3-7.5,7.5l0,0
		C572.3,406.4,575.7,409.7,579.8,409.7"/>
	<path fill="#BCC2C6" d="M564.5,372.3h133.8c4.1,0,7.4-3.3,7.4-7.5l0,0c0-4.1-3.3-7.4-7.4-7.4H564.5c-4.1,0-7.4,3.3-7.4,7.4l0,0
		C557,368.9,560.4,372.3,564.5,372.3"/>
	<rect x="105.7" y="468.2" fill="#34495E" width="130.7" height="130.7"/>
	<rect x="116.4" y="479" fill="#22A6EF" width="109.3" height="109.3"/>
	<path fill="#34495E" d="M171.1,539.1c26.6,0,48.1,21.6,48.1,48.1v1h-96.3v-1C122.9,560.7,144.5,539.1,171.1,539.1"/>
	<path fill="#34495E" d="M171.1,496.8c15,0,27.1,12.2,27.1,27.1c0,15-12.2,27.1-27.1,27.1c-15,0-27.1-12.2-27.1-27.1
		C143.9,509,156.1,496.8,171.1,496.8"/>
	<path fill="#39D4FF" d="M171.1,507.6c9.1,0,16.4,7.3,16.4,16.4s-7.3,16.4-16.4,16.4s-16.4-7.3-16.4-16.4
		C154.6,514.9,162,507.6,171.1,507.6"/>
	<path fill="#39D4FF" d="M171.1,549.9c20.7,0,37.4,16.8,37.4,37.4v1h-74.8v-1C133.6,566.6,150.4,549.9,171.1,549.9"/>
	<path fill="#BCC2C6" d="M119.4,682.2h103.3c4.1,0,7.4-3.3,7.4-7.4l0,0c0-4.1-3.3-7.5-7.4-7.5H119.4c-4.1,0-7.4,3.4-7.4,7.5l0,0
		C112,678.9,115.3,682.2,119.4,682.2"/>
	<path fill="#BCC2C6" d="M104.2,644.8H238c4.1,0,7.4-3.3,7.4-7.5c0-4.1-3.3-7.4-7.4-7.4H104.2c-4.1,0-7.5,3.3-7.5,7.4
		C96.7,641.4,100,644.8,104.2,644.8"/>
	<rect x="335.8" y="468.2" fill="#34495E" width="130.7" height="130.7"/>
	<rect x="346.6" y="479" fill="#22A6EF" width="109.3" height="109.3"/>
	<path fill="#34495E" d="M401.2,539.1c26.6,0,48.1,21.6,48.1,48.1v1H353v-1C353.1,560.7,374.6,539.1,401.2,539.1"/>
	<path fill="#34495E" d="M401.2,496.8c15,0,27.1,12.2,27.1,27.1c0,15-12.2,27.1-27.1,27.1c-15,0-27.1-12.2-27.1-27.1
		C374.1,509,386.2,496.8,401.2,496.8"/>
	<path fill="#39D4FF" d="M401.2,507.6c9.1,0,16.4,7.3,16.4,16.4s-7.4,16.4-16.4,16.4c-9.1,0-16.4-7.3-16.4-16.4
		S392.2,507.6,401.2,507.6"/>
	<path fill="#39D4FF" d="M401.2,549.9c20.7,0,37.4,16.8,37.4,37.4v1h-74.8v-1C363.8,566.6,380.6,549.9,401.2,549.9"/>
	<path fill="#BCC2C6" d="M349.6,682.2h103.2c4.1,0,7.5-3.3,7.5-7.4l0,0c0-4.1-3.3-7.5-7.5-7.5H349.6c-4.1,0-7.5,3.4-7.5,7.5l0,0
		C342.1,678.9,345.5,682.2,349.6,682.2"/>
	<path fill="#BCC2C6" d="M334.3,644.8h133.8c4.1,0,7.4-3.3,7.4-7.5c0-4.1-3.3-7.4-7.4-7.4H334.3c-4.1,0-7.4,3.3-7.4,7.4
		C326.9,641.4,330.2,644.8,334.3,644.8"/>
	<rect x="566" y="468.2" fill="#34495E" width="130.7" height="130.7"/>
	<rect x="576.7" y="479" fill="#22A6EF" width="109.3" height="109.3"/>
	<path fill="#34495E" d="M631.4,539.1c26.6,0,48.2,21.6,48.2,48.1v1h-96.3v-1C583.2,560.7,604.8,539.1,631.4,539.1"/>
	<path fill="#34495E" d="M631.4,496.8c15,0,27.1,12.2,27.1,27.1c0,15-12.2,27.1-27.1,27.1c-15,0-27.1-12.2-27.1-27.1
		C604.2,509,616.4,496.8,631.4,496.8"/>
	<path fill="#39D4FF" d="M631.4,507.6c9.1,0,16.4,7.3,16.4,16.4s-7.4,16.4-16.4,16.4c-9.1,0-16.4-7.3-16.4-16.4
		S622.3,507.6,631.4,507.6"/>
	<path fill="#39D4FF" d="M631.4,549.9c20.7,0,37.4,16.8,37.4,37.4v1H594v-1C594,566.6,610.7,549.9,631.4,549.9"/>
	<path fill="#BCC2C6" d="M579.8,682.2H683c4.1,0,7.5-3.3,7.5-7.4l0,0c0-4.1-3.3-7.5-7.5-7.5H579.8c-4.1,0-7.5,3.4-7.5,7.5l0,0
		C572.3,678.9,575.7,682.2,579.8,682.2"/>
	<path fill="#BCC2C6" d="M564.5,644.8h133.8c4.1,0,7.4-3.3,7.4-7.5c0-4.1-3.3-7.4-7.4-7.4H564.5c-4.1,0-7.4,3.3-7.4,7.4
		C557,641.4,560.4,644.8,564.5,644.8"/>
	<path opacity="0.5" fill="#34495E" enable-background="new    " d="M29.1,137.1c-4.1,0-8,1.7-11,4.6c-2.9,2.9-4.6,6.8-4.6,11v572.7
		c0,4.1,1.7,8,4.6,10.9c2.9,2.9,6.8,4.6,11,4.6h744.2c4.1,0,8-1.6,10.9-4.6c2.9-2.9,4.6-6.8,4.6-10.9V152.6c0-4.1-1.6-8-4.6-11
		c-2.9-2.9-6.8-4.6-10.9-4.6H29.1V137.1z"/>
	<path fill="#34495E" d="M171.7,246h459c4.5,0,8.6,1.8,11.6,4.8s4.8,7.1,4.8,11.6v353.2c0,4.5-1.8,8.6-4.8,11.6s-7.1,4.8-11.6,4.8
		h-459c-4.5,0-8.6-1.8-11.6-4.8s-4.8-7.1-4.8-11.6V262.4c0-4.5,1.8-8.6,4.8-11.6S167.2,246,171.7,246"/>
	<path fill="#FFFFFF" d="M171.7,257.1c-1.4,0-2.7,0.6-3.7,1.6s-1.5,2.3-1.5,3.7v353.2c0,1.4,0.6,2.7,1.5,3.7c1,1,2.3,1.5,3.7,1.5
		h459c1.4,0,2.7-0.6,3.7-1.5c1-1,1.6-2.3,1.6-3.7V262.4c0-1.4-0.6-2.7-1.6-3.7s-2.3-1.6-3.7-1.6H171.7z"/>
	<path fill="#BCC2C6" d="M353.1,550.7h-84.4c-3.3,0-6.2,1.3-8.3,3.5c-2.1,2.1-3.5,5.1-3.5,8.3c0,3.3,1.3,6.2,3.5,8.4l0,0
		c2.1,2.1,5.1,3.5,8.3,3.5h84.4c3.3,0,6.2-1.3,8.3-3.5c2.1-2.1,3.5-5.1,3.5-8.4s-1.3-6.2-3.5-8.4C359.3,552,356.4,550.7,353.1,550.7
		 M268.7,539.1h84.4c6.4,0,12.3,2.6,16.5,6.9l0,0c4.2,4.2,6.9,10.1,6.9,16.5s-2.6,12.3-6.9,16.5c-4.2,4.2-10.1,6.9-16.5,6.9h-84.4
		c-6.4,0-12.3-2.6-16.5-6.9l0,0l0,0c-4.2-4.2-6.9-10.1-6.9-16.5s2.6-12.3,6.9-16.5C256.4,541.8,262.2,539.1,268.7,539.1z"/>
	<path fill="#34495E" d="M264.1,529.6h84.4c6.4,0,12.3,2.6,16.5,6.9l0,0c4.2,4.2,6.9,10.1,6.9,16.5s-2.6,12.3-6.9,16.5
		c-4.2,4.2-10.1,6.9-16.5,6.9h-84.4c-6.4,0-12.3-2.6-16.5-6.9l0,0l0,0c-4.2-4.2-6.9-10.1-6.9-16.5s2.6-12.3,6.9-16.5
		C251.8,532.2,257.7,529.6,264.1,529.6"/>
	<path fill="#27CABF" d="M348.5,536.5c4.4,0,8.5,1.7,11.6,4.8c3.1,3.1,4.8,7.3,4.8,11.6c0,4.4-1.7,8.5-4.8,11.6
		c-3.1,3.1-7.2,4.8-11.6,4.8h-84.4c-4.4,0-8.5-1.7-11.6-4.8l0,0c-3.1-3.1-4.8-7.2-4.8-11.6c0-4.4,1.7-8.5,4.8-11.6
		c3.1-3.1,7.2-4.8,11.6-4.8H348.5z"/>
	<path fill="#51F4E9" d="M348.5,536.5c4.4,0,8.5,1.7,11.6,4.8c3.1,3.1,4.8,7.3,4.8,11.6c0,1.1-0.1,2.2-0.3,3.3
		c-0.6-3.1-2.2-6-4.5-8.3c-3.1-3.1-7.2-4.8-11.6-4.8h-84.4c-4.4,0-8.5,1.7-11.6,4.8c-2.3,2.3-3.8,5.2-4.5,8.3
		c-0.2-1.1-0.3-2.2-0.3-3.3c0-4.4,1.7-8.5,4.8-11.6c3.1-3.1,7.2-4.8,11.6-4.8H348.5z"/>
	<path fill="#BCC2C6" d="M538.3,550.7h-84.4c-3.2,0-6.2,1.3-8.3,3.5c-2.1,2.1-3.5,5.1-3.5,8.3c0,3.3,1.3,6.2,3.5,8.4l0,0
		c2.1,2.1,5.1,3.5,8.3,3.5h84.4c3.2,0,6.2-1.3,8.3-3.5c2.1-2.1,3.5-5.1,3.5-8.4s-1.3-6.2-3.5-8.4C544.6,552,541.6,550.7,538.3,550.7
		 M453.9,539.1h84.4c6.4,0,12.3,2.6,16.5,6.9l0,0c4.2,4.2,6.9,10.1,6.9,16.5s-2.6,12.3-6.9,16.5c-4.2,4.2-10.1,6.9-16.5,6.9h-84.4
		c-6.4,0-12.3-2.6-16.5-6.9l0,0l0,0c-4.2-4.2-6.9-10.1-6.9-16.5s2.6-12.3,6.9-16.5C441.6,541.8,447.5,539.1,453.9,539.1z"/>
	<path fill="#34495E" d="M449.3,529.6h84.4c6.4,0,12.3,2.6,16.5,6.9l0,0c4.2,4.2,6.9,10.1,6.9,16.5s-2.6,12.3-6.9,16.5
		c-4.2,4.2-10.1,6.9-16.5,6.9h-84.4c-6.4,0-12.2-2.6-16.5-6.9l0,0l0,0c-4.2-4.2-6.9-10.1-6.9-16.5s2.6-12.3,6.9-16.5
		C437,532.2,442.9,529.6,449.3,529.6"/>
	<path fill="#F65C4C" d="M533.8,536.5c4.4,0,8.5,1.7,11.6,4.8c3.1,3.1,4.8,7.3,4.8,11.6c0,4.4-1.7,8.5-4.8,11.6
		c-3.1,3.1-7.2,4.8-11.6,4.8h-84.4c-4.4,0-8.5-1.7-11.6-4.8l0,0c-3.1-3.1-4.8-7.2-4.8-11.6c0-4.4,1.7-8.5,4.8-11.6
		c3.1-3.1,7.2-4.8,11.6-4.8H533.8z"/>
	<path fill="#FF7C6C" d="M533.8,536.5c4.4,0,8.5,1.7,11.6,4.8c3.1,3.1,4.8,7.3,4.8,11.6c0,1.1-0.1,2.2-0.3,3.3
		c-0.6-3.1-2.2-6-4.5-8.3c-3.1-3.1-7.3-4.8-11.6-4.8h-84.4c-4.4,0-8.5,1.7-11.6,4.8c-2.3,2.3-3.8,5.2-4.5,8.3
		c-0.2-1.1-0.3-2.2-0.3-3.3c0-4.4,1.7-8.5,4.8-11.6c3.1-3.1,7.2-4.8,11.6-4.8H533.8z"/>
	<path fill="#FFFFFF" d="M711.5,174.9l11.8,11.8l11.8-11.8c2.9-2.9,7.6-2.9,10.5,0l0,0c2.9,2.9,2.9,7.6,0,10.5l-11.8,11.8l11.8,11.8
		c2.9,2.9,2.9,7.6,0,10.5l0,0c-2.9,2.9-7.6,2.9-10.5,0l-11.8-11.8l-11.8,11.8c-2.9,2.9-7.6,2.9-10.5,0l0,0c-2.9-2.9-2.9-7.6,0-10.5
		l11.8-11.8L701,185.4c-2.9-2.9-2.9-7.6,0-10.5l0,0C703.9,172,708.6,172,711.5,174.9"/>
	<path fill="#34495E" d="M401.2,335.6c36.1,0,65.4,29.3,65.4,65.4c0,36.1-29.3,65.4-65.4,65.4c-36.1,0-65.4-29.3-65.4-65.4
		C335.8,364.9,365.1,335.6,401.2,335.6"/>
	<path fill="#22A6EF" d="M401.2,346.3c30.2,0,54.7,24.5,54.7,54.7s-24.5,54.7-54.7,54.7s-54.7-24.5-54.7-54.7
		C346.6,370.8,371,346.3,401.2,346.3"/>
	<path fill="#34495E" d="M401.2,406.5c19.2,0,35.8,11.3,43.5,27.5c-10,13.1-25.8,21.6-43.5,21.6c-17.8,0-33.5-8.5-43.5-21.6
		C365.4,417.8,382,406.5,401.2,406.5"/>
	<path fill="#34495E" d="M401.2,364.2c15,0,27.1,12.2,27.1,27.1c0,15-12.2,27.1-27.1,27.1c-15,0-27.1-12.2-27.1-27.1
		C374.1,376.4,386.2,364.2,401.2,364.2"/>
	<path fill="#39D4FF" d="M401.2,374.9c9.1,0,16.4,7.3,16.4,16.4c0,9.1-7.4,16.4-16.4,16.4c-9.1,0-16.4-7.4-16.4-16.4
		S392.2,374.9,401.2,374.9"/>
	<path fill="#39D4FF" d="M401.2,417.2c16.4,0,30.4,10.6,35.4,25.4c-9.5,8.1-21.9,13-35.4,13s-25.9-4.9-35.4-13
		C370.8,427.9,384.8,417.2,401.2,417.2"/>
</g>
</svg>
