<?xml version="1.0" encoding="utf-8"?>
<!-- Generator: Adobe Illustrator 15.1.0, SVG Export Plug-In . SVG Version: 6.00 Build 0)  -->
<!DOCTYPE svg PUBLIC "-//W3C//DTD SVG 1.0//EN" "http://www.w3.org/TR/2001/REC-SVG-20010904/DTD/svg10.dtd">
<svg version="1.0" id="Layer_1" xmlns="http://www.w3.org/2000/svg" xmlns:xlink="http://www.w3.org/1999/xlink" x="0px" y="0px"
	 width="800px" height="800px" viewBox="0 0 800 800" enable-background="new 0 0 800 800" xml:space="preserve">
<g id="Header">
	<path fill="#BCC2C6" d="M33.1,34.5h736.2c8.5,0,16.1,3.5,21.7,9l0,0c5.6,5.6,9,13.2,9,21.7v654.6c0,8.4-3.5,16.1-9,21.7l0,0
		c-5.6,5.6-13.2,9-21.7,9H33.1c-8.5,0-16.1-3.5-21.7-9l0,0c-5.6-5.6-9-13.2-9-21.7V65.2c0-8.4,3.5-16.1,9-21.7l0,0
		C16.9,38,24.6,34.5,33.1,34.5"/>
	<path fill="#EBEFF0" d="M788.9,65.2v654.6c0,12.3-8.6,19.6-19.6,19.6H33.1c-11,0-19.6-7-19.6-19.6V65.2c0-12.8,8.6-19.6,19.6-19.6
		h736.2C780.2,45.6,788.9,52.7,788.9,65.2"/>
	<path fill="#94A4A5" d="M677.6,72.3c7.8,0,14.2,6.4,14.2,14.2s-6.3,14.2-14.2,14.2c-7.9,0-14.2-6.3-14.2-14.2
		C663.4,78.7,669.7,72.3,677.6,72.3 M722.1,72.3c7.8,0,14.2,6.4,14.2,14.2s-6.4,14.2-14.2,14.2c-7.8,0-14.2-6.3-14.2-14.2
		C707.9,78.7,714.3,72.3,722.1,72.3z M633,72.3c7.8,0,14.2,6.4,14.2,14.2s-6.3,14.2-14.2,14.2c-7.8,0-14.2-6.4-14.2-14.2
		S625.2,72.3,633,72.3z"/>
	
		<text transform="matrix(1 0 0 1 195.3345 83.2969)" fill="#93A2A3" font-family="'NexaBold'" font-size="44.0749" letter-spacing="1">FEEDS</text>
</g>
<g id="Body">
	<path fill="#BCC2C6" d="M29.7,126.9h743.6c7.3,0,14,3,18.8,7.8c4.8,4.8,7.8,11.5,7.8,18.8v572.2c0,7.3-3,14-7.8,18.8
		c-4.8,4.8-11.5,7.8-18.8,7.8H29.7c-7.3,0-14-3-18.8-7.8c-4.8-4.8-7.8-11.5-7.8-18.8V153.5c0-7.3,3-14,7.8-18.8
		C15.7,129.9,22.4,126.9,29.7,126.9"/>
	<path fill="#FFFFFF" d="M29.7,138c-4.1,0-8,1.7-10.9,4.6c-2.9,2.9-4.6,6.8-4.6,11v572.2c0,4.1,1.6,8,4.6,10.9
		c2.9,2.9,6.8,4.6,10.9,4.6h743.6c4.1,0,8-1.6,10.9-4.6c2.9-2.9,4.6-6.8,4.6-10.9V153.5c0-4.1-1.6-8-4.6-11
		c-2.9-2.9-6.8-4.6-10.9-4.6H29.7V138z"/>
	<path fill="#BCC2C6" d="M98.3,666h196.3c4.3,0,7.9,3.5,7.9,7.9l0,0c0,4.3-3.5,7.9-7.9,7.9H98.3c-4.3,0-7.9-3.5-7.9-7.9l0,0
		C90.5,669.5,94,666,98.3,666"/>
	<path fill="#BCC2C6" d="M98.3,626.6h124.8c4.3,0,7.9,3.5,7.9,7.9l0,0c0,4.3-3.5,7.9-7.9,7.9H98.3c-4.3,0-7.9-3.5-7.9-7.9l0,0
		C90.5,630.1,94,626.6,98.3,626.6"/>
	<path fill="#BCC2C6" d="M98.3,539.7h196.3c4.3,0,7.9,3.6,7.9,7.9l0,0c0,4.3-3.5,7.9-7.9,7.9H98.3c-4.3,0-7.9-3.5-7.9-7.9l0,0
		C90.5,543.3,94,539.7,98.3,539.7"/>
	<path fill="#BCC2C6" d="M98.3,579.4h196.3c4.3,0,7.9,3.5,7.9,7.9l0,0c0,4.3-3.5,7.9-7.9,7.9H98.3c-4.3,0-7.9-3.5-7.9-7.9l0,0
		C90.5,582.9,94,579.4,98.3,579.4"/>
	<path fill="#BCC2C6" d="M98.3,500.3h124.8c4.3,0,7.9,3.5,7.9,7.9l0,0c0,4.3-3.5,7.9-7.9,7.9H98.3c-4.3,0-7.9-3.6-7.9-7.9l0,0
		C90.5,503.9,94,500.3,98.3,500.3"/>
	<path fill="#BCC2C6" d="M98.3,456.8h196.3c4.3,0,7.9,3.5,7.9,7.9l0,0c0,4.3-3.5,7.9-7.9,7.9H98.3c-4.3,0-7.9-3.5-7.9-7.9l0,0
		C90.5,460.3,94,456.8,98.3,456.8"/>
	<path fill="#BCC2C6" d="M98.3,417.4h124.8c4.3,0,7.9,3.5,7.9,7.9l0,0c0,4.3-3.5,7.9-7.9,7.9H98.3c-4.3,0-7.9-3.5-7.9-7.9l0,0
		C90.5,420.9,94,417.4,98.3,417.4"/>
	<path fill="#BCC2C6" d="M98.3,370.2h196.3c4.3,0,7.9,3.5,7.9,7.9l0,0c0,4.3-3.5,7.9-7.9,7.9H98.3c-4.3,0-7.9-3.5-7.9-7.9l0,0
		C90.5,373.7,94,370.2,98.3,370.2"/>
	<rect x="347.1" y="191.6" fill="#34495E" width="358.9" height="184.9"/>
	<rect x="358.2" y="202.7" fill="#22A6EF" width="336.7" height="162.7"/>
	<path opacity="0.15" enable-background="new    " d="M591.6,255.1c-2.3-2.3-5.4-3.7-8.9-3.7s-6.6,1.4-8.9,3.7
		c-2.3,2.3-3.7,5.4-3.7,8.9s1.4,6.6,3.7,8.9c2.3,2.3,5.4,3.7,8.9,3.7s6.6-1.4,8.9-3.7c2.3-2.3,3.7-5.4,3.7-8.9
		C595.2,260.5,593.8,257.3,591.6,255.1 M582.7,241.1c6.3,0,12,2.6,16.1,6.7l0,0c4.1,4.1,6.7,9.8,6.7,16.1c0,6.3-2.6,12-6.7,16.1l0,0
		c-4.1,4.1-9.8,6.7-16.1,6.7s-12-2.6-16.1-6.7c-4.1-4.1-6.7-9.8-6.7-16.1c0-6.3,2.6-12,6.7-16.1l0,0
		C570.7,243.7,576.4,241.1,582.7,241.1z M571.8,297.1L571.8,297.1l0.1,0.2l2.9,3.9l0,0l17.3,23.6c1.2,1.7,1.8,3.4,1.8,5l0,0
		c0,1.2-0.3,2.4-0.9,3.4c-0.5,0.9-1.2,1.8-2.1,2.4c-1.4,1.1-3.3,1.6-5.1,1.6l0,0h-43.6h-83.4c-2,0-3.8-0.6-5.1-1.6
		c-0.9-0.7-1.7-1.5-2.2-2.6l0,0c-0.5-1-0.7-2.1-0.7-3.3l0,0c0-1.7,0.6-3.6,1.9-5.3l18.3-24.8l0,0l1.7-2.2l0.2-0.3l0,0l0,0l22.6-30
		c0.8-1.1,1.7-1.9,2.6-2.6c1.8-1.3,3.7-2,5.7-2s3.9,0.7,5.6,2c0.9,0.7,1.8,1.6,2.6,2.6l21.5,28.6l10.4-13.9c0.8-1.1,1.7-1.9,2.6-2.6
		c1.7-1.3,3.6-2,5.6-2s3.9,0.6,5.7,2c0.9,0.7,1.8,1.6,2.6,2.6L571.8,297.1L571.8,297.1z M580.9,326.9l-17.4-23.7l-0.7-1L552.1,288
		l0,0l0,0l-12,16l-2.5,3.3l-4.1,5.5l-4.1-5.5l-2.5-3.3l-23.2-30.8l0,0l0,0l-21.9,29.1l-0.6,0.9l-17.4,23.7h78.6H580.9z"/>
	<path fill="#34495E" d="M579.5,230.9c6.3,0,12,2.6,16.1,6.7l0,0c4.1,4.1,6.7,9.8,6.7,16.1c0,6.3-2.6,12-6.7,16.1l0,0
		c-4.1,4.1-9.8,6.7-16.1,6.7s-12-2.6-16.1-6.7c-4.1-4.1-6.7-9.8-6.7-16.2c0-6.3,2.6-12,6.7-16.1l0,0
		C567.5,233.5,573.2,230.9,579.5,230.9 M568.6,286.9L568.6,286.9l0.2,0.2l2.9,3.9l0,0l17.3,23.6c1.2,1.7,1.8,3.4,1.8,5l0,0
		c0,1.3-0.3,2.4-0.9,3.4c-0.5,0.9-1.2,1.8-2.1,2.4c-1.4,1-3.3,1.6-5.1,1.6l0,0h-43.6h-83.4c-2,0-3.8-0.6-5.1-1.6
		c-0.9-0.7-1.7-1.6-2.2-2.6l0,0c-0.5-1-0.7-2.1-0.7-3.3l0,0c0-1.7,0.6-3.5,1.9-5.3l18.2-24.8l0,0l1.7-2.2l0.2-0.3l0,0l0,0l22.6-30
		c0.8-1.1,1.7-1.9,2.6-2.6c1.8-1.3,3.7-2,5.7-2s3.9,0.7,5.6,2c0.9,0.7,1.8,1.6,2.6,2.6l21.5,28.6l10.4-13.9c0.8-1,1.7-1.9,2.6-2.6
		c1.7-1.3,3.7-2,5.7-2s3.9,0.6,5.7,2c0.9,0.7,1.8,1.6,2.6,2.6L568.6,286.9L568.6,286.9z"/>
	<path fill="#39D4FF" d="M579.5,239.2c-3.9,0-7.5,1.5-10.3,4.3l0,0c-2.7,2.7-4.2,6.4-4.2,10.2c0,3.9,1.5,7.5,4.3,10.3
		c2.7,2.7,6.4,4.3,10.3,4.3c3.9,0,7.5-1.5,10.3-4.3l0,0c2.7-2.7,4.2-6.4,4.2-10.2c0-3.9-1.5-7.5-4.2-10.2l-0.1-0.1
		C587,240.8,583.3,239.2,579.5,239.2 M456.5,318.6H539h42.6L562,292.1l-11.6-15.4c-0.3-0.3-0.6-0.7-0.9-1c-0.2-0.1-0.4-0.3-0.6-0.3
		c-0.2,0-0.5,0.2-0.7,0.3c-0.4,0.3-0.7,0.6-0.9,1l-17.1,22.7L502,261.9c-0.3-0.4-0.6-0.7-0.9-1c-0.2-0.1-0.4-0.3-0.7-0.3
		c-0.2,0-0.5,0.2-0.7,0.3c-0.3,0.3-0.7,0.6-0.9,1L476.1,292L456.5,318.6z"/>
	<path fill="#BCC2C6" d="M354.5,441h344c4.1,0,7.4,3.3,7.4,7.4l0,0c0,4.1-3.4,7.4-7.4,7.4h-344c-4.1,0-7.4-3.3-7.4-7.4l0,0
		C347.1,444.3,350.4,441,354.5,441"/>
	<path fill="#BCC2C6" d="M354.5,403.7h223c4.1,0,7.4,3.3,7.4,7.4l0,0c0,4.1-3.3,7.4-7.4,7.4h-223c-4.1,0-7.4-3.3-7.4-7.4l0,0
		C347.1,407.1,350.4,403.7,354.5,403.7"/>
	<rect x="347.1" y="487.7" fill="#34495E" width="358.9" height="184.9"/>
	<rect x="358.2" y="498.8" fill="#22A6EF" width="336.7" height="162.7"/>
	<path opacity="0.15" enable-background="new    " d="M591.6,551.2c-2.3-2.3-5.4-3.7-8.9-3.7s-6.6,1.4-8.9,3.7s-3.7,5.4-3.7,8.9
		s1.4,6.6,3.7,8.9s5.4,3.7,8.9,3.7s6.6-1.4,8.9-3.7c2.3-2.3,3.7-5.4,3.7-8.9C595.2,556.6,593.8,553.4,591.6,551.2 M582.7,537.2
		c6.3,0,12,2.6,16.1,6.7l0,0c4.1,4.1,6.7,9.8,6.7,16.1s-2.6,12-6.7,16.1l0,0c-4.1,4.1-9.8,6.7-16.1,6.7s-12-2.6-16.1-6.7
		c-4.1-4.1-6.7-9.8-6.7-16.2c0-6.3,2.6-12,6.7-16.1l0,0C570.7,539.8,576.4,537.2,582.7,537.2z M571.8,593.2L571.8,593.2l0.1,0.2
		l2.9,3.9l0,0l17.3,23.6c1.2,1.7,1.8,3.4,1.8,5l0,0c0,1.3-0.3,2.4-0.9,3.4c-0.5,0.9-1.2,1.8-2.1,2.4c-1.4,1.1-3.3,1.6-5.1,1.6l0,0
		h-43.6h-83.4c-2,0-3.8-0.6-5.1-1.6c-0.9-0.7-1.7-1.5-2.2-2.6l0,0c-0.5-1-0.7-2.1-0.7-3.3l0,0c0-1.7,0.6-3.6,1.9-5.3l18.3-24.8l0,0
		l1.7-2.2l0.2-0.3l0,0l0,0l22.6-30c0.8-1.1,1.7-1.9,2.6-2.6c1.8-1.3,3.7-2,5.7-2s3.9,0.7,5.6,2c0.9,0.7,1.8,1.6,2.6,2.6l21.5,28.6
		l10.4-13.9c0.8-1.1,1.7-1.9,2.6-2.6c1.7-1.3,3.6-2,5.6-2s3.9,0.6,5.7,2c0.9,0.7,1.8,1.6,2.6,2.6L571.8,593.2L571.8,593.2z
		 M580.9,623l-17.4-23.7l-0.7-1l-10.7-14.2l0,0l0,0l-12,16l-2.5,3.3l-4.1,5.5l-4.1-5.5l-2.5-3.3l-23.2-30.8l0,0l0,0l-21.9,29.1
		l-0.6,0.9L463.6,623h78.6H580.9z"/>
	<path fill="#34495E" d="M579.5,527c6.3,0,12,2.6,16.1,6.7l0,0c4.1,4.1,6.7,9.8,6.7,16.1s-2.6,12-6.7,16.1l0,0
		c-4.1,4.1-9.8,6.7-16.1,6.7s-12-2.6-16.1-6.7c-4.1-4.1-6.7-9.8-6.7-16.1s2.6-12,6.7-16.1l0,0C567.5,529.6,573.2,527,579.5,527
		 M568.6,583L568.6,583l0.2,0.2l2.9,3.9l0,0l17.3,23.6c1.2,1.7,1.8,3.4,1.8,5l0,0c0,1.3-0.3,2.4-0.9,3.4c-0.5,0.9-1.2,1.8-2.1,2.4
		c-1.4,1-3.3,1.6-5.1,1.6l0,0h-43.6h-83.4c-2,0-3.8-0.6-5.1-1.6c-0.9-0.7-1.7-1.6-2.2-2.6l0,0c-0.5-1-0.7-2.1-0.7-3.3l0,0
		c0-1.7,0.6-3.5,1.9-5.3l18.2-24.8l0,0l1.7-2.2l0.2-0.3l0,0l22.6-30c0.8-1.1,1.7-1.9,2.6-2.6c1.8-1.3,3.7-2,5.7-2s3.9,0.7,5.6,2
		c0.9,0.7,1.8,1.6,2.6,2.6l21.5,28.7l10.4-13.9c0.8-1,1.7-1.9,2.6-2.6c1.7-1.3,3.7-2,5.7-2s3.9,0.6,5.7,2c0.9,0.7,1.8,1.6,2.6,2.6
		L568.6,583L568.6,583z"/>
	<path fill="#39D4FF" d="M579.5,535.3c-3.9,0-7.5,1.5-10.3,4.3l0,0c-2.7,2.7-4.2,6.4-4.2,10.2c0,3.9,1.5,7.5,4.3,10.3
		c2.7,2.7,6.4,4.3,10.3,4.3c3.9,0,7.5-1.5,10.3-4.3l0,0c2.7-2.7,4.2-6.4,4.2-10.2c0-3.9-1.5-7.5-4.2-10.2l-0.1-0.1
		C587,536.9,583.3,535.3,579.5,535.3 M456.5,614.7H539h42.6L562,588.1l-11.6-15.4c-0.3-0.3-0.6-0.7-0.9-1c-0.2-0.1-0.4-0.3-0.6-0.3
		c-0.2,0-0.5,0.2-0.7,0.3c-0.4,0.3-0.7,0.6-0.9,1l-17.1,22.7L502,558c-0.3-0.4-0.6-0.7-0.9-1c-0.2-0.1-0.4-0.3-0.7-0.3
		c-0.2,0-0.5,0.2-0.7,0.3c-0.3,0.3-0.7,0.6-0.9,1l-22.7,30.2L456.5,614.7z"/>
	<path fill="#34495E" d="M155.8,191.6c36.1,0,65.3,29.3,65.3,65.3c0,36.1-29.2,65.3-65.3,65.3c-36.1,0-65.3-29.2-65.3-65.3
		S119.7,191.6,155.8,191.6"/>
	<path fill="#22A6EF" d="M155.8,202.3c30.2,0,54.6,24.5,54.6,54.6c0,30.2-24.4,54.6-54.6,54.6c-30.2,0-54.6-24.4-54.6-54.6
		C101.2,226.7,125.6,202.3,155.8,202.3"/>
	<path fill="#34495E" d="M155.8,262.4c19.2,0,35.8,11.2,43.5,27.5c-10,13.1-25.7,21.6-43.5,21.6c-17.8,0-33.5-8.5-43.5-21.6
		C120,273.7,136.6,262.4,155.8,262.4"/>
	<path fill="#34495E" d="M155.8,220.1c15,0,27.1,12.1,27.1,27.1s-12.1,27.1-27.1,27.1s-27.1-12.1-27.1-27.1
		C128.7,232.3,140.8,220.1,155.8,220.1"/>
	<path fill="#39D4FF" d="M155.8,230.9c9.1,0,16.4,7.3,16.4,16.4c0,9.1-7.3,16.4-16.4,16.4c-9.1,0-16.4-7.3-16.4-16.4
		C139.4,238.2,146.7,230.9,155.8,230.9"/>
	<path fill="#39D4FF" d="M155.8,273.1c16.4,0,30.4,10.6,35.4,25.3c-9.5,8.1-21.9,13-35.4,13s-25.9-4.9-35.4-13
		C125.4,283.7,139.4,273.1,155.8,273.1"/>
</g>
</svg>
