<?xml version="1.0" encoding="utf-8"?>
<!-- Generator: Adobe Illustrator 15.1.0, SVG Export Plug-In . SVG Version: 6.00 Build 0)  -->
<!DOCTYPE svg PUBLIC "-//W3C//DTD SVG 1.0//EN" "http://www.w3.org/TR/2001/REC-SVG-20010904/DTD/svg10.dtd">
<svg version="1.0" id="Layer_1" xmlns="http://www.w3.org/2000/svg" xmlns:xlink="http://www.w3.org/1999/xlink" x="0px" y="0px"
	 width="800px" height="800px" viewBox="0 0 800 800" enable-background="new 0 0 800 800" xml:space="preserve">
<g id="Header">
	<path fill="#BCC2C6" d="M33.1,34.5h736.2c8.5,0,16.1,3.5,21.7,9l0,0c5.6,5.6,9,13.2,9,21.7v654.6c0,8.4-3.5,16.1-9,21.7l0,0
		c-5.6,5.6-13.2,9-21.7,9H33.1c-8.5,0-16.1-3.5-21.7-9l0,0c-5.6-5.6-9-13.2-9-21.7V65.2c0-8.4,3.5-16.1,9-21.7l0,0
		C16.9,38,24.6,34.5,33.1,34.5"/>
	<path fill="#EBEFF0" d="M788.9,65.2v654.6c0,12.3-8.6,19.6-19.6,19.6H33.1c-11,0-19.6-7-19.6-19.6V65.2c0-12.8,8.6-19.6,19.6-19.6
		h736.2C780.2,45.6,788.9,52.7,788.9,65.2"/>
	<path fill="#94A4A5" d="M677.6,72.3c7.8,0,14.2,6.4,14.2,14.2s-6.3,14.2-14.2,14.2c-7.9,0-14.2-6.3-14.2-14.2
		C663.4,78.7,669.7,72.3,677.6,72.3 M722.1,72.3c7.8,0,14.2,6.4,14.2,14.2s-6.4,14.2-14.2,14.2c-7.8,0-14.2-6.3-14.2-14.2
		C707.9,78.7,714.3,72.3,722.1,72.3z M633,72.3c7.8,0,14.2,6.4,14.2,14.2s-6.3,14.2-14.2,14.2c-7.8,0-14.2-6.4-14.2-14.2
		S625.2,72.3,633,72.3z"/>
	
		<text transform="matrix(1 0 0 1 153.6675 85.2969)" fill="#93A2A3" font-family="'NexaBold'" font-size="44.0749" letter-spacing="1">PROFILE</text>
</g>
<g id="Body">
	<path fill="#BCC2C6" d="M28.1,126.3h745.2c7.4,0,14,3,18.8,7.8c4.8,4.8,7.8,11.5,7.8,18.9v573.4c0,7.4-3,14-7.8,18.8
		c-4.8,4.8-11.5,7.8-18.8,7.8H28.1c-7.4,0-14-3-18.8-7.8c-4.8-4.8-7.8-11.5-7.8-18.8V153c0-7.4,3-14,7.8-18.9
		C14.1,129.3,20.8,126.3,28.1,126.3"/>
	<path fill="#FFFFFF" d="M28.1,137.4c-4.1,0-8,1.6-11,4.6c-2.9,2.9-4.6,6.8-4.6,11v573.4c0,4.1,1.6,8,4.6,11c2.9,2.9,6.8,4.6,11,4.6
		h745.2c4.1,0,8-1.6,11-4.6c2.9-2.9,4.6-6.8,4.6-11V153c0-4.1-1.6-8-4.6-11c-2.9-2.9-6.8-4.6-11-4.6H28.1z"/>
	<path fill="#34495E" d="M28.1,126.3h745.2c7.4,0,14,3,18.8,7.8c4.8,4.8,7.8,11.5,7.8,18.9v228.8c0,7.4-3,14-7.8,18.8
		c-4.8,4.8-11.5,7.8-18.8,7.8H28.1c-7.4,0-14-3-18.8-7.8c-4.8-4.8-7.8-11.5-7.8-18.8V153c0-7.4,3-14,7.8-18.9
		C14.1,129.3,20.8,126.3,28.1,126.3"/>
	<path fill="#22A6EF" d="M28.1,137.4c-4.1,0-8,1.6-11,4.6c-2.9,2.9-4.6,6.8-4.6,11v228.8c0,4.1,1.6,8,4.6,11c2.9,2.9,6.8,4.6,11,4.6
		h745.2c4.1,0,8-1.6,11-4.6c2.9-2.9,4.6-6.8,4.6-11V153c0-4.1-1.6-8.1-4.6-11c-2.9-2.9-6.8-4.6-11-4.6H28.1z"/>
	<polygon fill="#34495E" points="102.3,449.3 294.2,449.3 302.7,449.3 302.7,457.8 302.7,649.6 302.7,658.1 294.2,658.1 
		102.3,658.1 93.8,658.1 93.8,649.6 93.8,457.8 93.8,449.3 	"/>
	<rect x="104.2" y="459.7" fill="#22A6EF" width="188.1" height="188.1"/>
	<path fill="#1C8DCB" d="M230.9,570.5l-18.4,10.6l0,0l-18.4,10.6c-2.6,1.5-5.1,2.2-7.3,2.2c-2,0-3.8-0.5-5.4-1.5
		c-1.6-0.9-2.9-2.3-3.9-3.9c-1.2-2.1-1.8-4.6-1.8-7.4v-21.3v-21.3c0-2.9,0.6-5.4,1.8-7.4c1-1.7,2.3-3.1,4-4c1.6-0.9,3.4-1.4,5.3-1.4
		c2.3,0,4.9,0.7,7.4,2.2l0,0l18.4,10.6l18.4,10.6l0,0c2.5,1.5,4.4,3.3,5.5,5.3c1,1.7,1.5,3.6,1.5,5.4s-0.5,3.6-1.5,5.3
		C235.2,567.2,233.4,569.1,230.9,570.5"/>
	<path fill="#34495E" d="M227.3,564.3L208.8,575l0,0l-18.4,10.6c-2.6,1.5-5.1,2.2-7.3,2.2c-2,0-3.8-0.5-5.4-1.5
		c-1.6-0.9-2.9-2.3-3.9-3.9c-1.2-2.1-1.8-4.6-1.8-7.4v-21.2v-21.3c0-2.9,0.7-5.4,1.8-7.4c1-1.7,2.3-3.1,4-4c1.6-0.9,3.4-1.4,5.3-1.4
		c2.3,0,4.9,0.7,7.4,2.2l0,0l18.4,10.6l18.4,10.6l0,0c2.5,1.5,4.4,3.3,5.5,5.3c1,1.7,1.5,3.6,1.5,5.4s-0.5,3.6-1.5,5.3
		C231.6,561.1,229.7,562.9,227.3,564.3"/>
	<path fill="#FFFFFF" d="M223,556.9c0.9-0.5,1.8-1.2,2.4-2.2c0.2-0.3,0.3-0.7,0.3-1.1c0-0.4-0.1-0.7-0.3-1c-0.5-0.9-1.5-1.6-2.4-2.2
		l-18.4-10.6l-18.4-10.6c-0.9-0.5-2-1-3.1-1c-0.4,0-0.8,0.1-1.1,0.3s-0.6,0.5-0.7,0.8c-0.5,0.9-0.7,2.1-0.7,3.1v42.5
		c0,1,0.2,2.2,0.7,3.1c0.2,0.3,0.4,0.6,0.8,0.8c0.3,0.2,0.7,0.3,1,0.3c1,0,2.2-0.5,3.1-1L223,556.9z"/>
	<path fill="#34495E" d="M198.2,495.7c-32,0-58,26-58,58s26,58,58,58s58-26,58-58S230.2,495.7,198.2,495.7 M198.2,487.1
		c-36.8,0-66.6,29.8-66.6,66.6s29.8,66.6,66.6,66.6c36.8,0,66.6-29.8,66.6-66.6S235,487.1,198.2,487.1z"/>
	<path fill="#BCC2C6" d="M375.5,529h324.7c4.1,0,7.4,3.4,7.4,7.4l0,0c0,4.1-3.4,7.5-7.4,7.5H375.5c-4.1,0-7.4-3.4-7.4-7.5l0,0
		C368,532.3,371.4,529,375.5,529"/>
	<path fill="#BCC2C6" d="M375.5,566.4h324.7c4.1,0,7.4,3.4,7.4,7.5l0,0c0,4.1-3.4,7.5-7.4,7.5H375.5c-4.1,0-7.4-3.4-7.4-7.5l0,0
		C368,569.8,371.4,566.4,375.5,566.4"/>
	<path fill="#BCC2C6" d="M375.5,491.7h210.2c4.1,0,7.5,3.3,7.5,7.4l0,0c0,4.1-3.4,7.5-7.5,7.5H375.5c-4.1,0-7.4-3.4-7.4-7.5l0,0
		C368,495,371.4,491.7,375.5,491.7"/>
	<path fill="#34495E" d="M400.7,201.9c36.1,0,65.5,29.3,65.5,65.5c0,36.1-29.3,65.5-65.5,65.5s-65.5-29.3-65.5-65.5
		C335.3,231.2,364.6,201.9,400.7,201.9"/>
	<path fill="#22A6EF" d="M400.7,212.7c30.2,0,54.7,24.5,54.7,54.7c0,30.2-24.5,54.7-54.7,54.7S346,297.6,346,267.4
		C346,237.1,370.5,212.7,400.7,212.7"/>
	<path fill="#34495E" d="M400.7,272.9c19.2,0,35.8,11.3,43.6,27.6c-10,13.1-25.8,21.6-43.6,21.6s-33.6-8.5-43.6-21.6
		C364.9,284.2,381.5,272.9,400.7,272.9"/>
	<path fill="#34495E" d="M400.7,230.5c15,0,27.2,12.2,27.2,27.2s-12.2,27.2-27.2,27.2s-27.2-12.2-27.2-27.2
		C373.6,242.7,385.7,230.5,400.7,230.5"/>
	<path fill="#39D4FF" d="M400.7,241.3c9.1,0,16.4,7.4,16.4,16.4c0,9.1-7.4,16.4-16.4,16.4c-9.1,0-16.4-7.4-16.4-16.4
		C384.3,248.6,391.7,241.3,400.7,241.3"/>
	<path fill="#39D4FF" d="M400.7,283.6c16.5,0,30.5,10.6,35.5,25.4c-9.5,8.1-21.9,13.1-35.5,13.1c-13.5,0-25.9-4.9-35.5-13.1
		C370.3,294.3,384.3,283.6,400.7,283.6"/>
</g>
</svg>
