<?xml version="1.0" encoding="utf-8"?>
<!-- Generator: Adobe Illustrator 15.1.0, SVG Export Plug-In . SVG Version: 6.00 Build 0)  -->
<!DOCTYPE svg PUBLIC "-//W3C//DTD SVG 1.0//EN" "http://www.w3.org/TR/2001/REC-SVG-20010904/DTD/svg10.dtd">
<svg version="1.0" id="Layer_1" xmlns="http://www.w3.org/2000/svg" xmlns:xlink="http://www.w3.org/1999/xlink" x="0px" y="0px"
	 width="800px" height="800px" viewBox="0 0 800 800" enable-background="new 0 0 800 800" xml:space="preserve">
<g id="Header">
	<path fill="#BCC2C6" d="M33.1,34.5h736.2c8.5,0,16.1,3.5,21.7,9l0,0c5.6,5.6,9,13.2,9,21.7v654.6c0,8.4-3.5,16.1-9,21.7l0,0
		c-5.6,5.6-13.2,9-21.7,9H33.1c-8.5,0-16.1-3.5-21.7-9l0,0c-5.6-5.6-9-13.2-9-21.7V65.2c0-8.4,3.5-16.1,9-21.7l0,0
		C16.9,38,24.6,34.5,33.1,34.5"/>
	<path fill="#EBEFF0" d="M788.9,65.2v654.6c0,12.3-8.6,19.6-19.6,19.6H33.1c-11,0-19.6-7-19.6-19.6V65.2c0-12.8,8.6-19.6,19.6-19.6
		h736.2C780.2,45.6,788.9,52.7,788.9,65.2"/>
	<path fill="#94A4A5" d="M677.6,72.3c7.8,0,14.2,6.4,14.2,14.2s-6.3,14.2-14.2,14.2c-7.9,0-14.2-6.3-14.2-14.2
		C663.4,78.7,669.7,72.3,677.6,72.3 M722.1,72.3c7.8,0,14.2,6.4,14.2,14.2s-6.4,14.2-14.2,14.2c-7.8,0-14.2-6.3-14.2-14.2
		C707.9,78.7,714.3,72.3,722.1,72.3z M633,72.3c7.8,0,14.2,6.4,14.2,14.2s-6.3,14.2-14.2,14.2c-7.8,0-14.2-6.4-14.2-14.2
		S625.2,72.3,633,72.3z"/>
	
		<text transform="matrix(1 0 0 1 149.6675 84.2969)" fill="#93A2A3" font-family="'NexaBold'" font-size="44.0749" letter-spacing="1">PROFILE</text>
</g>
<g id="Body">
	<path fill="#BCC2C6" d="M28.8,126.3H773c7.3,0,14,3,18.8,7.8c4.8,4.8,7.8,11.5,7.8,18.8v572.7c0,7.3-3,14-7.8,18.8
		c-4.8,4.8-11.5,7.8-18.8,7.8H28.8c-7.3,0-14-3-18.8-7.8c-4.8-4.8-7.8-11.5-7.8-18.8V152.9c0-7.3,3-14,7.8-18.8
		C14.8,129.3,21.4,126.3,28.8,126.3"/>
	<path fill="#FFFFFF" d="M28.8,137.4c-4.1,0-8,1.6-10.9,4.6c-2.9,2.9-4.6,6.8-4.6,11v572.7c0,4.1,1.6,8,4.6,10.9
		c2.9,2.9,6.8,4.6,10.9,4.6H773c4.1,0,8-1.6,11-4.6c2.9-2.9,4.5-6.8,4.5-10.9V152.9c0-4.1-1.6-8-4.5-11c-2.9-2.9-6.9-4.6-11-4.6
		H28.8V137.4z"/>
	<path fill="#34495E" d="M57.6,364.3h686.5c8.6,0,15.6-7,15.6-15.6V191.3c0-8.6-7-15.6-15.6-15.6H57.6c-8.6,0-15.6,7-15.6,15.6
		v157.4C42,357.3,49.1,364.3,57.6,364.3"/>
	<path fill="#22A6EF" d="M57.6,186.4h686.5c2.7,0,4.9,2.2,4.9,4.9v157.4c0,2.7-2.2,4.9-4.9,4.9H57.6c-2.7,0-4.9-2.2-4.9-4.9V191.3
		C52.8,188.6,54.9,186.4,57.6,186.4"/>
	<path fill="#BCC2C6" d="M58.5,626H255c4.3,0,7.9,3.5,7.9,7.9l0,0c0,4.3-3.5,7.9-7.9,7.9H58.5c-4.4,0-7.9-3.6-7.9-7.9l0,0
		C50.6,629.5,54.2,626,58.5,626"/>
	<path fill="#BCC2C6" d="M58.5,586.5h124.8c4.4,0,7.9,3.6,7.9,7.9l0,0c0,4.3-3.5,7.9-7.9,7.9H58.5c-4.4,0-7.9-3.5-7.9-7.9l0,0
		C50.6,590.1,54.2,586.5,58.5,586.5"/>
	<path fill="#BCC2C6" d="M335.7,457.2H721c4.1,0,7.5,3.3,7.5,7.4l0,0c0,4.1-3.3,7.4-7.5,7.4H335.7c-4.1,0-7.5-3.3-7.5-7.4l0,0
		C328.3,460.5,331.6,457.2,335.7,457.2"/>
	<path fill="#BCC2C6" d="M335.7,494.6H721c4.1,0,7.5,3.3,7.5,7.4l0,0c0,4.1-3.3,7.5-7.5,7.5H335.7c-4.1,0-7.5-3.3-7.5-7.5l0,0
		C328.3,498,331.6,494.6,335.7,494.6"/>
	<path fill="#BCC2C6" d="M335.7,419.9h250.4c4.1,0,7.4,3.3,7.4,7.4c0,4.1-3.3,7.5-7.4,7.5H335.7c-4.1,0-7.5-3.3-7.5-7.5
		C328.3,423.3,331.6,419.9,335.7,419.9"/>
	<path fill="#BCC2C6" d="M58.5,499.7H255c4.3,0,7.9,3.6,7.9,7.9l0,0c0,4.3-3.5,7.9-7.9,7.9H58.5c-4.4,0-7.9-3.6-7.9-7.9l0,0
		C50.6,503.2,54.2,499.7,58.5,499.7"/>
	<path fill="#BCC2C6" d="M58.5,539.3H255c4.3,0,7.9,3.6,7.9,7.9l0,0c0,4.3-3.5,7.9-7.9,7.9H58.5c-4.4,0-7.9-3.6-7.9-7.9l0,0
		C50.6,542.9,54.2,539.3,58.5,539.3"/>
	<path fill="#BCC2C6" d="M58.5,460.2h124.8c4.4,0,7.9,3.5,7.9,7.9l0,0c0,4.3-3.5,7.9-7.9,7.9H58.5c-4.4,0-7.9-3.5-7.9-7.9l0,0
		C50.6,463.8,54.2,460.2,58.5,460.2"/>
	<path fill="#BCC2C6" d="M335.7,589.2H721c4.1,0,7.5,3.3,7.5,7.4l0,0c0,4.1-3.3,7.4-7.5,7.4H335.7c-4.1,0-7.5-3.3-7.5-7.4l0,0
		C328.3,592.5,331.6,589.2,335.7,589.2"/>
	<path fill="#BCC2C6" d="M335.7,626.6H721c4.1,0,7.5,3.3,7.5,7.4l0,0c0,4.1-3.3,7.5-7.5,7.5H335.7c-4.1,0-7.5-3.3-7.5-7.5l0,0
		C328.3,630,331.6,626.6,335.7,626.6"/>
	<path fill="#BCC2C6" d="M335.7,551.9h250.4c4.1,0,7.4,3.3,7.4,7.4c0,4.1-3.3,7.5-7.4,7.5H335.7c-4.1,0-7.5-3.3-7.5-7.5
		C328.3,555.3,331.6,551.9,335.7,551.9"/>
	<path fill="#1C8DCB" d="M685.2,263h-84.4c-3.2,0-6.2,1.3-8.3,3.5c-2.1,2.1-3.5,5.1-3.5,8.3c0,3.3,1.3,6.2,3.5,8.3l0,0
		c2.1,2.1,5.1,3.5,8.3,3.5h84.4c3.3,0,6.2-1.3,8.3-3.5c2.1-2.1,3.5-5.1,3.5-8.3c0-3.3-1.3-6.2-3.5-8.4
		C691.4,264.3,688.4,263,685.2,263 M600.7,251.4h84.4c6.4,0,12.3,2.6,16.5,6.9l0,0c4.2,4.2,6.9,10.1,6.9,16.5
		c0,6.4-2.6,12.3-6.9,16.5c-4.2,4.2-10.1,6.9-16.5,6.9h-84.4c-6.4,0-12.3-2.6-16.5-6.9l0,0l0,0c-4.2-4.2-6.9-10.1-6.9-16.5
		c0-6.4,2.6-12.3,6.9-16.5C588.5,254,594.3,251.4,600.7,251.4z"/>
	<path fill="#34495E" d="M596.2,241.8h84.4c6.4,0,12.3,2.6,16.5,6.9l0,0c4.2,4.2,6.9,10.1,6.9,16.5c0,6.4-2.6,12.3-6.9,16.5
		c-4.2,4.2-10.1,6.9-16.5,6.9h-84.4c-6.4,0-12.3-2.6-16.5-6.9l0,0l0,0c-4.2-4.2-6.9-10.1-6.9-16.5c0-6.4,2.6-12.3,6.9-16.5
		C583.9,244.5,589.7,241.8,596.2,241.8"/>
	<path fill="#27CABF" d="M680.6,248.8c4.4,0,8.5,1.7,11.6,4.8c3.1,3.1,4.8,7.3,4.8,11.6c0,4.4-1.8,8.5-4.8,11.6
		c-3.1,3.1-7.2,4.8-11.6,4.8h-84.4c-4.4,0-8.5-1.7-11.6-4.8l0,0c-3.1-3.1-4.8-7.2-4.8-11.6c0-4.4,1.7-8.5,4.8-11.6
		c3.1-3.1,7.2-4.8,11.6-4.8H680.6z"/>
	<path fill="#51F4E9" d="M680.6,248.8c4.4,0,8.5,1.7,11.6,4.8c3.1,3.1,4.8,7.3,4.8,11.6c0,1.1-0.1,2.2-0.3,3.3
		c-0.6-3.1-2.2-6-4.5-8.3c-3.1-3.1-7.2-4.8-11.6-4.8h-84.4c-4.4,0-8.5,1.8-11.6,4.8c-2.3,2.3-3.8,5.2-4.5,8.3
		c-0.2-1.1-0.3-2.2-0.3-3.3c0-4.4,1.7-8.5,4.8-11.6c3.1-3.1,7.2-4.8,11.6-4.8H680.6z"/>
	<path fill="#34495E" d="M163.3,292.7c36.1,0,65.4,29.3,65.4,65.4s-29.3,65.4-65.4,65.4c-36.1,0-65.4-29.3-65.4-65.4
		S127.2,292.7,163.3,292.7"/>
	<path fill="#22A6EF" d="M163.3,303.4c30.2,0,54.6,24.5,54.6,54.7c0,30.2-24.5,54.6-54.6,54.6c-30.1,0-54.6-24.5-54.6-54.6
		C108.7,327.9,133.1,303.4,163.3,303.4"/>
	<path fill="#34495E" d="M163.3,363.6c19.2,0,35.8,11.3,43.5,27.5c-10,13.1-25.8,21.6-43.5,21.6c-17.8,0-33.5-8.5-43.5-21.6
		C127.5,374.9,144.1,363.6,163.3,363.6"/>
	<path fill="#34495E" d="M163.3,321.3c15,0,27.1,12.1,27.1,27.1s-12.2,27.1-27.1,27.1c-15,0-27.1-12.2-27.1-27.1
		C136.2,333.4,148.3,321.3,163.3,321.3"/>
	<path fill="#39D4FF" d="M163.3,332c9.1,0,16.4,7.4,16.4,16.4c0,9.1-7.3,16.4-16.4,16.4c-9.1,0-16.4-7.3-16.4-16.4
		C146.9,339.4,154.2,332,163.3,332"/>
	<path fill="#39D4FF" d="M163.3,374.3c16.4,0,30.4,10.6,35.4,25.3c-9.5,8.1-21.9,13.1-35.4,13.1s-25.9-4.9-35.4-13.1
		C132.9,384.9,146.9,374.3,163.3,374.3"/>
</g>
</svg>
