<?xml version="1.0" encoding="utf-8"?>
<!-- Generator: Adobe Illustrator 15.1.0, SVG Export Plug-In . SVG Version: 6.00 Build 0)  -->
<!DOCTYPE svg PUBLIC "-//W3C//DTD SVG 1.0//EN" "http://www.w3.org/TR/2001/REC-SVG-20010904/DTD/svg10.dtd">
<svg version="1.0" id="Layer_1" xmlns="http://www.w3.org/2000/svg" xmlns:xlink="http://www.w3.org/1999/xlink" x="0px" y="0px"
	 width="800px" height="800px" viewBox="0 0 800 800" enable-background="new 0 0 800 800" xml:space="preserve">
<g id="Header">
	<path fill="#BCC2C6" d="M33.1,34.5h736.2c8.5,0,16.1,3.5,21.7,9l0,0c5.6,5.6,9,13.2,9,21.7v654.6c0,8.4-3.5,16.1-9,21.7l0,0
		c-5.6,5.6-13.2,9-21.7,9H33.1c-8.5,0-16.1-3.5-21.7-9l0,0c-5.6-5.6-9-13.2-9-21.7V65.2c0-8.4,3.5-16.1,9-21.7l0,0
		C16.9,38,24.6,34.5,33.1,34.5"/>
	<path fill="#EBEFF0" d="M788.9,65.2v654.6c0,12.3-8.6,19.6-19.6,19.6H33.1c-11,0-19.6-7-19.6-19.6V65.2c0-12.8,8.6-19.6,19.6-19.6
		h736.2C780.2,45.6,788.9,52.7,788.9,65.2"/>
	<path fill="#94A4A5" d="M677.6,72.3c7.8,0,14.2,6.4,14.2,14.2s-6.3,14.2-14.2,14.2c-7.9,0-14.2-6.3-14.2-14.2
		C663.4,78.7,669.7,72.3,677.6,72.3 M722.1,72.3c7.8,0,14.2,6.4,14.2,14.2s-6.4,14.2-14.2,14.2c-7.8,0-14.2-6.3-14.2-14.2
		C707.9,78.7,714.3,72.3,722.1,72.3z M633,72.3c7.8,0,14.2,6.4,14.2,14.2s-6.3,14.2-14.2,14.2c-7.8,0-14.2-6.4-14.2-14.2
		S625.2,72.3,633,72.3z"/>
	
		<text transform="matrix(1 0 0 1 143.6675 82.2969)" fill="#93A2A3" font-family="'NexaBold'" font-size="44.0749" letter-spacing="1">PROFILE</text>
</g>
<g id="Body">
	<path fill="#BCC2C6" d="M28.8,126.5h744.5c7.3,0,14,3,18.8,7.8c4.8,4.8,7.8,11.5,7.8,18.8V726c0,7.3-3,14-7.8,18.8
		c-4.8,4.8-11.5,7.8-18.8,7.8H28.8c-7.3,0-14-3-18.8-7.8S2.2,733.3,2.2,726V153.2c0-7.3,3-14,7.8-18.8
		C14.8,129.5,21.5,126.5,28.8,126.5"/>
	<path fill="#FFFFFF" d="M28.8,137.6c-4.1,0-8.1,1.6-11,4.6c-2.9,2.9-4.6,6.8-4.6,11v572.9c0,4.1,1.6,8,4.6,10.9
		c2.9,2.9,6.8,4.6,11,4.6h744.5c4.1,0,8-1.6,10.9-4.6c2.9-2.9,4.6-6.8,4.6-10.9V153.2c0-4.1-1.7-8-4.6-11c-2.9-2.9-6.8-4.6-10.9-4.6
		H28.8z"/>
	<path fill="#34495E" d="M57.7,507.6h686.7c8.6,0,15.6-7,15.6-15.6V191.5c0-8.6-7-15.6-15.6-15.6H57.7c-8.6,0-15.6,7-15.6,15.6V492
		C42.1,500.6,49.1,507.6,57.7,507.6"/>
	<path fill="#22A6EF" d="M57.7,186.6h686.7c2.7,0,4.9,2.2,4.9,4.9V492c0,2.7-2.2,4.9-4.9,4.9H57.7c-2.7,0-4.9-2.2-4.9-4.9V191.5
		C52.9,188.8,55,186.6,57.7,186.6"/>
	<path fill="#BCC2C6" d="M58.6,626.4h196.5c4.3,0,7.9,3.5,7.9,7.9l0,0c0,4.3-3.6,7.9-7.9,7.9H58.6c-4.3,0-7.9-3.6-7.9-7.9l0,0
		C50.7,629.9,54.3,626.4,58.6,626.4"/>
	<path fill="#BCC2C6" d="M58.6,582.1h124.9c4.3,0,7.9,3.6,7.9,7.9l0,0c0,4.3-3.6,7.9-7.9,7.9H58.6c-4.3,0-7.9-3.5-7.9-7.9l0,0
		C50.7,585.7,54.3,582.1,58.6,582.1"/>
	<path fill="#BCC2C6" d="M58.6,539.7h196.5c4.3,0,7.9,3.6,7.9,7.9l0,0c0,4.3-3.6,7.9-7.9,7.9H58.6c-4.3,0-7.9-3.6-7.9-7.9l0,0
		C50.7,543.2,54.3,539.7,58.6,539.7"/>
	<path fill="#BCC2C6" d="M335.9,589.6h385.5c4.1,0,7.4,3.3,7.4,7.4l0,0c0,4.1-3.3,7.4-7.4,7.4H335.9c-4.1,0-7.4-3.3-7.4-7.4l0,0
		C328.5,592.9,331.8,589.6,335.9,589.6"/>
	<path fill="#BCC2C6" d="M335.9,627h385.5c4.1,0,7.4,3.3,7.4,7.4l0,0c0,4.1-3.3,7.5-7.4,7.5H335.9c-4.1,0-7.4-3.3-7.4-7.5l0,0
		C328.5,630.4,331.8,627,335.9,627"/>
	<path fill="#BCC2C6" d="M335.9,552.3h250.5c4.1,0,7.5,3.3,7.5,7.4c0,4.1-3.3,7.5-7.5,7.5H335.9c-4.1,0-7.4-3.3-7.4-7.5
		C328.5,555.7,331.8,552.3,335.9,552.3"/>
	<path fill="#34495E" d="M302.8,437.7h196.5c4.3,0,7.9,3.5,7.9,7.9l0,0c0,4.3-3.5,7.9-7.9,7.9H302.8c-4.3,0-7.9-3.5-7.9-7.9l0,0
		C295,441.2,298.5,437.7,302.8,437.7"/>
	<path fill="#34495E" d="M401.1,276.4c36.1,0,65.4,29.3,65.4,65.4c0,36.1-29.3,65.4-65.4,65.4c-36.1,0-65.4-29.3-65.4-65.4
		C335.7,305.7,365,276.4,401.1,276.4"/>
	<path fill="#22A6EF" d="M401.1,287.1c30.2,0,54.7,24.5,54.7,54.7c0,30.2-24.5,54.7-54.7,54.7c-30.2,0-54.7-24.5-54.7-54.7
		C346.4,311.6,370.9,287.1,401.1,287.1"/>
	<path fill="#34495E" d="M401.1,347.3c19.2,0,35.8,11.3,43.5,27.5c-10,13.1-25.8,21.6-43.5,21.6c-17.8,0-33.5-8.5-43.5-21.6
		C365.3,358.6,381.9,347.3,401.1,347.3"/>
	<path fill="#34495E" d="M401.1,305c15,0,27.2,12.2,27.2,27.2s-12.2,27.2-27.2,27.2s-27.2-12.2-27.2-27.2
		C373.9,317.1,386.1,305,401.1,305"/>
	<path fill="#39D4FF" d="M401.1,315.7c9.1,0,16.4,7.4,16.4,16.4c0,9.1-7.3,16.4-16.4,16.4c-9.1,0-16.4-7.4-16.4-16.4
		S392,315.7,401.1,315.7"/>
	<path fill="#39D4FF" d="M401.1,358c16.4,0,30.4,10.6,35.5,25.4c-9.6,8.1-21.9,13.1-35.5,13.1c-13.5,0-25.9-4.9-35.4-13.1
		C370.7,368.6,384.6,358,401.1,358"/>
</g>
</svg>
