<?xml version="1.0" encoding="utf-8"?>
<!-- Generator: Adobe Illustrator 15.1.0, SVG Export Plug-In . SVG Version: 6.00 Build 0)  -->
<!DOCTYPE svg PUBLIC "-//W3C//DTD SVG 1.0//EN" "http://www.w3.org/TR/2001/REC-SVG-20010904/DTD/svg10.dtd">
<svg version="1.0" id="Layer_1" xmlns="http://www.w3.org/2000/svg" xmlns:xlink="http://www.w3.org/1999/xlink" x="0px" y="0px"
	 width="800px" height="800px" viewBox="0 0 800 800" enable-background="new 0 0 800 800" xml:space="preserve">
<g id="Header">
	<path fill="#BCC2C6" d="M33.1,34.5h736.2c8.5,0,16.1,3.5,21.7,9l0,0c5.6,5.6,9,13.2,9,21.7v654.6c0,8.4-3.5,16.1-9,21.7l0,0
		c-5.6,5.6-13.2,9-21.7,9H33.1c-8.5,0-16.1-3.5-21.7-9l0,0c-5.6-5.6-9-13.2-9-21.7V65.2c0-8.4,3.5-16.1,9-21.7l0,0
		C16.9,38,24.6,34.5,33.1,34.5"/>
	<path fill="#EBEFF0" d="M788.9,65.2v654.6c0,12.3-8.6,19.6-19.6,19.6H33.1c-11,0-19.6-7-19.6-19.6V65.2c0-12.8,8.6-19.6,19.6-19.6
		h736.2C780.2,45.6,788.9,52.7,788.9,65.2"/>
	<path fill="#94A4A5" d="M677.6,72.3c7.8,0,14.2,6.4,14.2,14.2s-6.3,14.2-14.2,14.2c-7.9,0-14.2-6.3-14.2-14.2
		C663.4,78.7,669.7,72.3,677.6,72.3 M722.1,72.3c7.8,0,14.2,6.4,14.2,14.2s-6.4,14.2-14.2,14.2c-7.8,0-14.2-6.3-14.2-14.2
		C707.9,78.7,714.3,72.3,722.1,72.3z M633,72.3c7.8,0,14.2,6.4,14.2,14.2s-6.3,14.2-14.2,14.2c-7.8,0-14.2-6.4-14.2-14.2
		S625.2,72.3,633,72.3z"/>
	
		<text transform="matrix(1 0 0 1 153.6675 84.2969)" fill="#93A2A3" font-family="'NexaBold'" font-size="44.0749" letter-spacing="1">PROFILE</text>
</g>
<g id="Body">
	<path fill="#BCC2C6" d="M28.7,126.3h744.6c7.4,0,14,3,18.9,7.8c4.8,4.8,7.8,11.5,7.8,18.8v573c0,7.3-3,14-7.8,18.8
		s-11.5,7.8-18.9,7.8H28.7c-7.4,0-14-3-18.8-7.8C5,740.1,2,733.4,2,726V153c0-7.3,3-14,7.8-18.8C14.6,129.3,21.3,126.3,28.7,126.3"
		/>
	<path fill="#FFFFFF" d="M28.7,137.5c-4.1,0-8.1,1.6-11,4.6c-2.9,2.9-4.6,6.8-4.6,11v573c0,4.1,1.7,8,4.6,10.9
		c2.9,2.9,6.8,4.6,11,4.6h744.6c4.1,0,8.1-1.6,11-4.6c2.9-2.9,4.6-6.8,4.6-10.9V153c0-4.1-1.6-8-4.6-11c-2.9-2.9-6.8-4.6-11-4.6
		H28.7V137.5z"/>
	<path fill="#34495E" d="M57.6,364.5h686.9c8.6,0,15.6-7,15.6-15.6V191.4c0-8.6-7-15.6-15.6-15.6H57.6c-8.6,0-15.6,7-15.6,15.6
		v157.5C42,357.5,49,364.5,57.6,364.5"/>
	<path fill="#22A6EF" d="M57.6,186.5h686.9c2.7,0,4.9,2.2,4.9,4.9v157.5c0,2.7-2.2,4.9-4.9,4.9H57.6c-2.7,0-4.9-2.2-4.9-4.9V191.4
		C52.7,188.7,54.9,186.5,57.6,186.5"/>
	<path fill="#BCC2C6" d="M143.9,516.5h514.2c4.1,0,7.4-3.4,7.4-7.5s-3.3-7.5-7.4-7.5H143.9c-4.1,0-7.4,3.4-7.4,7.5
		C136.4,513.2,139.8,516.5,143.9,516.5"/>
	<path fill="#BCC2C6" d="M143.9,479h514.2c4.1,0,7.4-3.3,7.4-7.4c0-4.1-3.3-7.5-7.4-7.5H143.9c-4.1,0-7.4,3.3-7.4,7.5
		C136.4,475.7,139.8,479,143.9,479"/>
	<path fill="#BCC2C6" d="M233.1,553.8h335.8c4.1,0,7.4-3.3,7.4-7.5l0,0c0-4.1-3.4-7.4-7.4-7.4H233.1c-4.1,0-7.4,3.3-7.4,7.4l0,0
		C225.7,550.4,229,553.8,233.1,553.8"/>
	<path fill="#BCC2C6" d="M459.8,634.5H348.3c-4.3,0-8.2,1.8-11,4.6c-2.8,2.8-4.6,6.7-4.6,11c0,4.3,1.8,8.2,4.6,11l0,0
		c2.8,2.8,6.7,4.6,11,4.6h111.5c4.3,0,8.2-1.8,11-4.6c2.8-2.8,4.6-6.7,4.6-11c0-4.3-1.8-8.2-4.6-11
		C468,636.3,464.1,634.5,459.8,634.5 M348.3,619.2h111.5c8.5,0,16.2,3.5,21.8,9.1l0,0c5.6,5.6,9.1,13.3,9.1,21.8s-3.5,16.2-9.1,21.8
		c-5.6,5.6-13.3,9.1-21.8,9.1H348.3c-8.5,0-16.2-3.5-21.8-9.1l0,0l0,0c-5.6-5.6-9.1-13.3-9.1-21.8s3.5-16.2,9.1-21.8
		C332,622.7,339.8,619.2,348.3,619.2z"/>
	<path fill="#34495E" d="M342.2,606.6h111.5c8.5,0,16.2,3.5,21.8,9.1l0,0c5.6,5.6,9.1,13.3,9.1,21.8l0,0c0,8.5-3.5,16.2-9.1,21.8
		c-5.6,5.6-13.3,9.1-21.8,9.1H342.2c-8.5,0-16.2-3.5-21.8-9.1l0,0l0,0c-5.6-5.6-9.1-13.3-9.1-21.8l0,0c0-8.5,3.5-16.2,9.1-21.8
		C326,610.1,333.7,606.6,342.2,606.6"/>
	<path fill="#27CABF" d="M453.7,615.8c5.8,0,11.3,2.3,15.3,6.4c4.1,4.1,6.4,9.6,6.4,15.3c0,5.8-2.3,11.2-6.4,15.3
		c-4.1,4.1-9.6,6.4-15.3,6.4H342.2c-5.8,0-11.3-2.3-15.3-6.4l0,0c-4.1-4.1-6.3-9.6-6.3-15.3c0-5.8,2.3-11.3,6.4-15.3
		c4.1-4.1,9.6-6.4,15.3-6.4H453.7z"/>
	<path fill="#51F4E9" d="M453.7,615.8c5.8,0,11.3,2.3,15.3,6.4c4.1,4.1,6.4,9.6,6.4,15.3c0,1.5-0.1,2.9-0.4,4.3
		c-0.9-4.1-2.9-7.9-5.9-10.9c-4.1-4.1-9.6-6.3-15.3-6.3H342.2c-5.8,0-11.3,2.3-15.3,6.4c-3,3-5.1,6.8-5.9,11
		c-0.3-1.4-0.4-2.9-0.4-4.4c0-5.8,2.3-11.3,6.4-15.3c4.1-4.1,9.6-6.4,15.3-6.4h111.4V615.8z"/>
	<path fill="#34495E" d="M401,299.1c36.1,0,65.4,29.3,65.4,65.4c0,36.1-29.3,65.4-65.4,65.4s-65.4-29.3-65.4-65.4
		C335.6,328.4,364.9,299.1,401,299.1"/>
	<path fill="#22A6EF" d="M401,309.8c30.2,0,54.7,24.5,54.7,54.7s-24.5,54.7-54.7,54.7s-54.7-24.5-54.7-54.7S370.8,309.8,401,309.8"
		/>
	<path fill="#34495E" d="M401,370c19.2,0,35.8,11.3,43.6,27.5c-10,13.1-25.8,21.6-43.6,21.6s-33.6-8.5-43.5-21.6
		C365.2,381.3,381.8,370,401,370"/>
	<path fill="#34495E" d="M401,327.7c15,0,27.2,12.2,27.2,27.2S416,382.1,401,382.1s-27.2-12.2-27.2-27.2
		C373.8,339.8,386,327.7,401,327.7"/>
	<path fill="#39D4FF" d="M401,338.4c9.1,0,16.4,7.4,16.4,16.4c0,9.1-7.4,16.4-16.4,16.4c-9.1,0-16.4-7.4-16.4-16.4
		S391.9,338.4,401,338.4"/>
	<path fill="#39D4FF" d="M401,380.8c16.4,0,30.4,10.6,35.5,25.4c-9.6,8.2-21.9,13.1-35.5,13.1c-13.5,0-25.9-4.9-35.5-13.1
		C370.6,391.4,384.5,380.8,401,380.8"/>
</g>
</svg>
