<?xml version="1.0" encoding="utf-8"?>
<!-- Generator: Adobe Illustrator 15.1.0, SVG Export Plug-In . SVG Version: 6.00 Build 0)  -->
<!DOCTYPE svg PUBLIC "-//W3C//DTD SVG 1.0//EN" "http://www.w3.org/TR/2001/REC-SVG-20010904/DTD/svg10.dtd">
<svg version="1.0" id="Layer_1" xmlns="http://www.w3.org/2000/svg" xmlns:xlink="http://www.w3.org/1999/xlink" x="0px" y="0px"
	 width="800px" height="800px" viewBox="0 0 800 800" enable-background="new 0 0 800 800" xml:space="preserve">
<g id="Header">
	<path fill="#BCC2C6" d="M33.1,34.5h736.2c8.5,0,16.1,3.5,21.7,9l0,0c5.6,5.6,9,13.2,9,21.7v654.6c0,8.4-3.5,16.1-9,21.7l0,0
		c-5.6,5.6-13.2,9-21.7,9H33.1c-8.5,0-16.1-3.5-21.7-9l0,0c-5.6-5.6-9-13.2-9-21.7V65.2c0-8.4,3.5-16.1,9-21.7l0,0
		C16.9,38,24.6,34.5,33.1,34.5"/>
	<path fill="#EBEFF0" d="M788.9,65.2v654.6c0,12.3-8.6,19.6-19.6,19.6H33.1c-11,0-19.6-7-19.6-19.6V65.2c0-12.8,8.6-19.6,19.6-19.6
		h736.2C780.2,45.6,788.9,52.7,788.9,65.2"/>
	<path fill="#94A4A5" d="M677.6,72.3c7.8,0,14.2,6.4,14.2,14.2s-6.3,14.2-14.2,14.2c-7.9,0-14.2-6.3-14.2-14.2
		C663.4,78.7,669.7,72.3,677.6,72.3 M722.1,72.3c7.8,0,14.2,6.4,14.2,14.2s-6.4,14.2-14.2,14.2c-7.8,0-14.2-6.3-14.2-14.2
		C707.9,78.7,714.3,72.3,722.1,72.3z M633,72.3c7.8,0,14.2,6.4,14.2,14.2s-6.3,14.2-14.2,14.2c-7.8,0-14.2-6.4-14.2-14.2
		S625.2,72.3,633,72.3z"/>
	
		<text transform="matrix(1 0 0 1 222.3345 82.2969)" fill="#93A2A3" font-family="'NexaBold'" font-size="44.0749" letter-spacing="1">USERS</text>
</g>
<g id="Body">
	<path fill="#BCC2C6" d="M29.1,126.5h744.3c7.3,0,14,3,18.8,7.8c4.8,4.8,7.8,11.5,7.8,18.8v572.7c0,7.3-3,14-7.8,18.8
		c-4.8,4.8-11.5,7.8-18.8,7.8H29.1c-7.3,0-14-3-18.8-7.8c-4.8-4.8-7.8-11.5-7.8-18.8V153.2c0-7.3,3-14,7.8-18.8
		C15.1,129.5,21.8,126.5,29.1,126.5"/>
	<path fill="#FFFFFF" d="M29.1,137.7c-4.1,0-8,1.6-11,4.6c-2.9,2.9-4.6,6.8-4.6,11V726c0,4.1,1.7,8,4.6,10.9c2.9,2.9,6.8,4.6,11,4.6
		h744.3c4.1,0,8-1.6,10.9-4.6c2.9-2.9,4.6-6.8,4.6-10.9V153.2c0-4.1-1.6-8-4.6-11c-2.9-2.9-6.8-4.6-10.9-4.6H29.1V137.7z"/>
	<path fill="#BCC2C6" d="M119.4,410.3h103.3c4.1,0,7.4-3.3,7.4-7.4l0,0c0-4.1-3.3-7.5-7.4-7.5H119.4c-4.1,0-7.4,3.3-7.4,7.5l0,0
		C112,406.9,115.3,410.3,119.4,410.3"/>
	<path fill="#BCC2C6" d="M104.1,372.8H238c4.1,0,7.4-3.3,7.4-7.5l0,0c0-4.1-3.3-7.4-7.4-7.4H104.1c-4.1,0-7.5,3.3-7.5,7.4l0,0
		C96.7,369.5,100,372.8,104.1,372.8"/>
	<path fill="#BCC2C6" d="M349.6,410.3h103.2c4.1,0,7.5-3.3,7.5-7.4l0,0c0-4.1-3.3-7.5-7.5-7.5H349.6c-4.1,0-7.5,3.3-7.5,7.5l0,0
		C342.1,406.9,345.5,410.3,349.6,410.3"/>
	<path fill="#BCC2C6" d="M334.3,372.8h133.8c4.1,0,7.4-3.3,7.4-7.5l0,0c0-4.1-3.3-7.4-7.4-7.4H334.3c-4.1,0-7.4,3.3-7.4,7.4l0,0
		C326.9,369.5,330.2,372.8,334.3,372.8"/>
	<path fill="#BCC2C6" d="M579.8,410.3H683c4.1,0,7.5-3.3,7.5-7.4l0,0c0-4.1-3.3-7.5-7.5-7.5H579.8c-4.1,0-7.5,3.3-7.5,7.5l0,0
		C572.3,406.9,575.7,410.3,579.8,410.3"/>
	<path fill="#BCC2C6" d="M564.5,372.8h133.8c4.1,0,7.4-3.3,7.4-7.5l0,0c0-4.1-3.3-7.4-7.4-7.4H564.5c-4.1,0-7.4,3.3-7.4,7.4l0,0
		C557,369.5,560.4,372.8,564.5,372.8"/>
	<path fill="#BCC2C6" d="M119.4,682.8h103.3c4.1,0,7.4-3.3,7.4-7.4l0,0c0-4.1-3.3-7.5-7.4-7.5H119.4c-4.1,0-7.4,3.4-7.4,7.5l0,0
		C112,679.4,115.3,682.8,119.4,682.8"/>
	<path fill="#BCC2C6" d="M104.1,645.3H238c4.1,0,7.4-3.3,7.4-7.5c0-4.1-3.3-7.4-7.4-7.4H104.1c-4.1,0-7.5,3.3-7.5,7.4
		C96.7,642,100,645.3,104.1,645.3"/>
	<path fill="#BCC2C6" d="M349.6,682.8h103.2c4.1,0,7.5-3.3,7.5-7.4l0,0c0-4.1-3.3-7.5-7.5-7.5H349.6c-4.1,0-7.5,3.4-7.5,7.5l0,0
		C342.1,679.4,345.5,682.8,349.6,682.8"/>
	<path fill="#BCC2C6" d="M334.3,645.3h133.8c4.1,0,7.4-3.3,7.4-7.5c0-4.1-3.3-7.4-7.4-7.4H334.3c-4.1,0-7.4,3.3-7.4,7.4
		C326.9,642,330.2,645.3,334.3,645.3"/>
	<path fill="#BCC2C6" d="M579.8,682.8H683c4.1,0,7.5-3.3,7.5-7.4l0,0c0-4.1-3.3-7.5-7.5-7.5H579.8c-4.1,0-7.5,3.4-7.5,7.5l0,0
		C572.3,679.4,575.7,682.8,579.8,682.8"/>
	<path fill="#BCC2C6" d="M564.5,645.3h133.8c4.1,0,7.4-3.3,7.4-7.5c0-4.1-3.3-7.4-7.4-7.4H564.5c-4.1,0-7.4,3.3-7.4,7.4
		C557,642,560.4,645.3,564.5,645.3"/>
	<path fill="#34495E" d="M171,196.3c36.1,0,65.4,29.3,65.4,65.4c0,36.1-29.3,65.4-65.4,65.4s-65.4-29.3-65.4-65.4
		C105.7,225.5,134.9,196.3,171,196.3"/>
	<path fill="#22A6EF" d="M171,207c30.2,0,54.7,24.5,54.7,54.7c0,30.2-24.5,54.7-54.7,54.7s-54.7-24.5-54.7-54.7
		C116.4,231.4,140.9,207,171,207"/>
	<path fill="#34495E" d="M171,267.2c19.2,0,35.8,11.3,43.5,27.5c-10,13.1-25.8,21.6-43.5,21.6c-17.8,0-33.5-8.5-43.5-21.6
		C135.2,278.4,151.8,267.2,171,267.2"/>
	<path fill="#34495E" d="M171,224.8c15,0,27.1,12.1,27.1,27.1S185.9,279,171,279c-15,0-27.1-12.2-27.1-27.1S156,224.8,171,224.8"/>
	<path fill="#39D4FF" d="M171,235.6c9.1,0,16.4,7.4,16.4,16.4c0,9.1-7.3,16.4-16.4,16.4s-16.4-7.4-16.4-16.4
		C154.6,242.9,162,235.6,171,235.6"/>
	<path fill="#39D4FF" d="M171,277.9c16.4,0,30.4,10.6,35.4,25.3c-9.5,8.1-21.9,13.1-35.4,13.1s-25.9-4.9-35.4-13.1
		C140.6,288.5,154.6,277.9,171,277.9"/>
	<path fill="#34495E" d="M401.2,196.3c36.1,0,65.4,29.3,65.4,65.4c0,36.1-29.3,65.4-65.4,65.4c-36.1,0-65.4-29.3-65.4-65.4
		C335.8,225.5,365.1,196.3,401.2,196.3"/>
	<path fill="#22A6EF" d="M401.2,207c30.2,0,54.7,24.5,54.7,54.7c0,30.2-24.5,54.7-54.7,54.7s-54.7-24.5-54.7-54.7
		C346.6,231.4,371,207,401.2,207"/>
	<path fill="#34495E" d="M401.2,267.2c19.2,0,35.8,11.3,43.5,27.5c-10,13.1-25.8,21.6-43.5,21.6s-33.5-8.5-43.5-21.6
		C365.4,278.4,382,267.2,401.2,267.2"/>
	<path fill="#34495E" d="M401.2,224.8c15,0,27.1,12.1,27.1,27.1S416.1,279,401.2,279c-15,0-27.1-12.2-27.1-27.1
		S386.2,224.8,401.2,224.8"/>
	<path fill="#39D4FF" d="M401.2,235.6c9.1,0,16.4,7.4,16.4,16.4c0,9.1-7.4,16.4-16.4,16.4c-9.1,0-16.4-7.4-16.4-16.4
		C384.8,242.9,392.1,235.6,401.2,235.6"/>
	<path fill="#39D4FF" d="M401.2,277.9c16.4,0,30.4,10.6,35.4,25.3c-9.5,8.1-21.9,13.1-35.4,13.1s-25.9-4.9-35.4-13.1
		C370.8,288.5,384.8,277.9,401.2,277.9"/>
	<path fill="#34495E" d="M631.4,196.3c36.1,0,65.4,29.3,65.4,65.4c0,36.1-29.3,65.4-65.4,65.4c-36.1,0-65.4-29.3-65.4-65.4
		C566,225.5,595.3,196.3,631.4,196.3"/>
	<path fill="#22A6EF" d="M631.4,207c30.2,0,54.7,24.5,54.7,54.7c0,30.2-24.5,54.7-54.7,54.7c-30.2,0-54.7-24.5-54.7-54.7
		C576.7,231.4,601.2,207,631.4,207"/>
	<path fill="#34495E" d="M631.4,267.2c19.2,0,35.8,11.3,43.5,27.5c-10,13.1-25.8,21.6-43.5,21.6c-17.8,0-33.5-8.5-43.5-21.6
		C595.6,278.4,612.2,267.2,631.4,267.2"/>
	<path fill="#34495E" d="M631.4,224.8c15,0,27.1,12.1,27.1,27.1S646.3,279,631.4,279c-15,0-27.1-12.2-27.1-27.1
		C604.2,237,616.4,224.8,631.4,224.8"/>
	<path fill="#39D4FF" d="M631.4,235.6c9.1,0,16.4,7.4,16.4,16.4c0,9.1-7.4,16.4-16.4,16.4c-9.1,0-16.4-7.4-16.4-16.4
		C615,242.9,622.3,235.6,631.4,235.6"/>
	<path fill="#39D4FF" d="M631.4,277.9c16.5,0,30.4,10.6,35.4,25.3c-9.5,8.1-21.9,13.1-35.4,13.1s-25.9-4.9-35.4-13.1
		C601,288.5,614.9,277.9,631.4,277.9"/>
	<path fill="#34495E" d="M631.4,468.8c36.1,0,65.4,29.3,65.4,65.4c0,36.1-29.3,65.4-65.4,65.4c-36.1,0-65.4-29.3-65.4-65.4
		C566,498.1,595.3,468.8,631.4,468.8"/>
	<path fill="#22A6EF" d="M631.4,479.5c30.2,0,54.7,24.5,54.7,54.7s-24.5,54.7-54.7,54.7c-30.2,0-54.7-24.5-54.7-54.7
		S601.2,479.5,631.4,479.5"/>
	<path fill="#34495E" d="M631.4,539.7c19.2,0,35.8,11.3,43.5,27.5c-10,13.1-25.8,21.6-43.5,21.6c-17.8,0-33.5-8.5-43.5-21.6
		C595.6,550.9,612.2,539.7,631.4,539.7"/>
	<path fill="#34495E" d="M631.4,497.4c15,0,27.1,12.1,27.1,27.1s-12.2,27.1-27.1,27.1c-15,0-27.1-12.2-27.1-27.1
		C604.2,509.5,616.4,497.4,631.4,497.4"/>
	<path fill="#39D4FF" d="M631.4,508.1c9.1,0,16.4,7.3,16.4,16.4s-7.4,16.4-16.4,16.4c-9.1,0-16.4-7.4-16.4-16.4
		S622.3,508.1,631.4,508.1"/>
	<path fill="#39D4FF" d="M631.4,550.4c16.5,0,30.4,10.6,35.4,25.4c-9.5,8.1-21.9,13-35.4,13s-25.9-4.9-35.4-13
		C601,561,614.9,550.4,631.4,550.4"/>
	<path fill="#34495E" d="M401.2,468.8c36.1,0,65.4,29.3,65.4,65.4c0,36.1-29.3,65.4-65.4,65.4c-36.1,0-65.4-29.3-65.4-65.4
		C335.8,498.1,365.1,468.8,401.2,468.8"/>
	<path fill="#22A6EF" d="M401.2,479.5c30.2,0,54.7,24.5,54.7,54.7s-24.5,54.7-54.7,54.7s-54.7-24.5-54.7-54.7S371,479.5,401.2,479.5
		"/>
	<path fill="#34495E" d="M401.2,539.7c19.2,0,35.8,11.3,43.5,27.5c-10,13.1-25.8,21.6-43.5,21.6s-33.5-8.5-43.5-21.6
		C365.4,550.9,382,539.7,401.2,539.7"/>
	<path fill="#34495E" d="M401.2,497.4c15,0,27.1,12.1,27.1,27.1s-12.2,27.1-27.1,27.1c-15,0-27.1-12.2-27.1-27.1
		C374.1,509.5,386.2,497.4,401.2,497.4"/>
	<path fill="#39D4FF" d="M401.2,508.1c9.1,0,16.4,7.3,16.4,16.4s-7.4,16.4-16.4,16.4c-9.1,0-16.4-7.4-16.4-16.4
		S392.1,508.1,401.2,508.1"/>
	<path fill="#39D4FF" d="M401.2,550.4c16.4,0,30.4,10.6,35.4,25.4c-9.5,8.1-21.9,13-35.4,13s-25.9-4.9-35.4-13
		C370.8,561,384.8,550.4,401.2,550.4"/>
	<path fill="#34495E" d="M171,468.8c36.1,0,65.4,29.3,65.4,65.4c0,36.1-29.3,65.4-65.4,65.4s-65.4-29.3-65.4-65.4
		C105.7,498.1,134.9,468.8,171,468.8"/>
	<path fill="#22A6EF" d="M171,479.5c30.2,0,54.7,24.5,54.7,54.7s-24.5,54.7-54.7,54.7s-54.7-24.5-54.7-54.7S140.9,479.5,171,479.5"
		/>
	<path fill="#34495E" d="M171,539.7c19.2,0,35.8,11.3,43.5,27.5c-10,13.1-25.8,21.6-43.5,21.6c-17.8,0-33.5-8.5-43.5-21.6
		C135.2,550.9,151.8,539.7,171,539.7"/>
	<path fill="#34495E" d="M171,497.4c15,0,27.1,12.1,27.1,27.1s-12.2,27.1-27.1,27.1c-15,0-27.1-12.2-27.1-27.1
		C143.9,509.5,156,497.4,171,497.4"/>
	<path fill="#39D4FF" d="M171,508.1c9.1,0,16.4,7.3,16.4,16.4s-7.3,16.4-16.4,16.4s-16.4-7.4-16.4-16.4S162,508.1,171,508.1"/>
	<path fill="#39D4FF" d="M171,550.4c16.4,0,30.4,10.6,35.4,25.4c-9.5,8.1-21.9,13-35.4,13s-25.9-4.9-35.4-13
		C140.6,561,154.6,550.4,171,550.4"/>
</g>
</svg>
