<?xml version="1.0" encoding="utf-8"?>
<!-- Generator: Adobe Illustrator 15.1.0, SVG Export Plug-In . SVG Version: 6.00 Build 0)  -->
<!DOCTYPE svg PUBLIC "-//W3C//DTD SVG 1.0//EN" "http://www.w3.org/TR/2001/REC-SVG-20010904/DTD/svg10.dtd">
<svg version="1.0" id="Layer_1" xmlns="http://www.w3.org/2000/svg" xmlns:xlink="http://www.w3.org/1999/xlink" x="0px" y="0px"
	 width="800px" height="800px" viewBox="0 0 800 800" enable-background="new 0 0 800 800" xml:space="preserve">
<g id="Header">
	<path fill="#BCC2C6" d="M33.1,34.5h736.2c8.5,0,16.1,3.5,21.7,9l0,0c5.6,5.6,9,13.2,9,21.7v654.6c0,8.4-3.5,16.1-9,21.7l0,0
		c-5.6,5.6-13.2,9-21.7,9H33.1c-8.5,0-16.1-3.5-21.7-9l0,0c-5.6-5.6-9-13.2-9-21.7V65.2c0-8.4,3.5-16.1,9-21.7l0,0
		C16.9,38,24.6,34.5,33.1,34.5"/>
	<path fill="#EBEFF0" d="M788.9,65.2v654.6c0,12.3-8.6,19.6-19.6,19.6H33.1c-11,0-19.6-7-19.6-19.6V65.2c0-12.8,8.6-19.6,19.6-19.6
		h736.2C780.2,45.6,788.9,52.7,788.9,65.2"/>
	<path fill="#94A4A5" d="M677.6,72.3c7.8,0,14.2,6.4,14.2,14.2s-6.3,14.2-14.2,14.2c-7.9,0-14.2-6.3-14.2-14.2
		C663.4,78.7,669.7,72.3,677.6,72.3 M722.1,72.3c7.8,0,14.2,6.4,14.2,14.2s-6.4,14.2-14.2,14.2c-7.8,0-14.2-6.3-14.2-14.2
		C707.9,78.7,714.3,72.3,722.1,72.3z M633,72.3c7.8,0,14.2,6.4,14.2,14.2s-6.3,14.2-14.2,14.2c-7.8,0-14.2-6.4-14.2-14.2
		S625.2,72.3,633,72.3z"/>
	
		<text transform="matrix(1 0 0 1 87.0771 77.4453)" fill="#93A2A3" font-family="'NexaBold'" font-size="37.2406" letter-spacing="1">USER SETTINGS</text>
</g>
<g id="Body">
	<path fill="#BCC2C6" d="M29.4,126.7h744c7.3,0,14,3,18.8,7.8s7.8,11.5,7.8,18.8v572.5c0,7.3-3,14-7.8,18.8
		c-4.8,4.8-11.5,7.8-18.8,7.8h-744c-7.3,0-14-3-18.8-7.8c-4.8-4.8-7.8-11.5-7.8-18.8V153.4c0-7.3,3-14,7.8-18.8
		C15.4,129.7,22.1,126.7,29.4,126.7"/>
	<path fill="#FFFFFF" d="M29.4,137.8c-4.1,0-8,1.7-11,4.6c-2.9,2.9-4.6,6.8-4.6,11v572.5c0,4.1,1.6,8,4.6,10.9
		c2.9,2.9,6.8,4.6,11,4.6h744c4.1,0,8-1.6,11-4.6c2.9-2.9,4.6-6.8,4.6-10.9V153.4c0-4.1-1.6-8-4.6-11c-2.9-2.9-6.8-4.6-11-4.6H29.4z
		"/>
	<path fill="#34495E" d="M58.3,356.8h686.2c8.6,0,15.6-7,15.6-15.6V183.9c0-8.6-7-15.6-15.6-15.6H58.3c-8.6,0-15.6,7-15.6,15.6
		v157.4C42.7,349.8,49.7,356.8,58.3,356.8"/>
	<path fill="#22A6EF" d="M58.3,179h686.2c2.7,0,4.9,2.2,4.9,4.9v157.4c0,2.7-2.2,4.9-4.9,4.9H58.3c-2.7,0-4.9-2.2-4.9-4.9V183.9
		C53.4,181.2,55.6,179,58.3,179"/>
	<path fill="#BCC2C6" d="M156.9,474.6h-55.7c-4.3,0-8.2,1.8-11,4.6c-2.8,2.8-4.6,6.7-4.6,11s1.7,8.2,4.6,11l0,0
		c2.8,2.8,6.7,4.6,11,4.6h55.7c4.3,0,8.2-1.8,11-4.6c2.8-2.8,4.6-6.7,4.6-11s-1.8-8.2-4.6-11C165.1,476.4,161.2,474.6,156.9,474.6
		 M101.2,459.3h55.7c8.5,0,16.2,3.5,21.8,9.1l0,0c5.6,5.6,9.1,13.3,9.1,21.8s-3.5,16.2-9.1,21.8c-5.6,5.6-13.3,9.1-21.8,9.1h-55.7
		c-8.5,0-16.2-3.5-21.8-9.1l0,0l0,0c-5.6-5.6-9.1-13.3-9.1-21.8s3.5-16.2,9.1-21.8C85,462.8,92.7,459.3,101.2,459.3z"/>
	<path fill="#34495E" d="M95.1,446.7h55.7c8.5,0,16.2,3.5,21.8,9.1l0,0c5.6,5.6,9.1,13.3,9.1,21.8s-3.5,16.2-9.1,21.8
		c-5.6,5.6-13.3,9.1-21.8,9.1H95.1c-8.5,0-16.2-3.5-21.8-9.1l0,0l0,0c-5.6-5.6-9.1-13.3-9.1-21.8s3.5-16.2,9.1-21.8
		C78.9,450.2,86.6,446.7,95.1,446.7"/>
	<path fill="#27CABF" d="M150.8,455.9c5.8,0,11.3,2.3,15.3,6.3c4.1,4.1,6.4,9.6,6.4,15.3c0,5.8-2.3,11.2-6.4,15.3
		c-4.1,4.1-9.5,6.4-15.3,6.4H95.1c-5.8,0-11.2-2.3-15.3-6.3l0,0c-4.1-4.1-6.3-9.6-6.3-15.3c0-5.8,2.3-11.2,6.4-15.3
		c4.1-4.1,9.5-6.4,15.3-6.4H150.8z"/>
	<path fill="#34495E" d="M151.2,446.7c17,0,30.9,13.8,30.9,30.9c0,17-13.8,30.9-30.9,30.9c-17.1,0-30.9-13.8-30.9-30.9
		C120.4,460.6,134.2,446.7,151.2,446.7"/>
	<path fill="#FFFFFF" d="M151.2,456c-11.9,0-21.6,9.6-21.6,21.6c0,11.9,9.7,21.6,21.6,21.6c11.9,0,21.6-9.7,21.6-21.6
		C172.8,465.7,163.1,456,151.2,456"/>
	<path fill="#BCC2C6" d="M156.9,566.2h-55.7c-4.3,0-8.2,1.8-11,4.6c-2.8,2.8-4.6,6.7-4.6,11s1.7,8.2,4.6,11l0,0
		c2.8,2.8,6.7,4.5,11,4.5h55.7c4.3,0,8.2-1.8,11-4.6c2.8-2.8,4.6-6.7,4.6-11s-1.8-8.2-4.6-11C165.1,568,161.2,566.2,156.9,566.2
		 M101.2,550.9h55.7c8.5,0,16.2,3.5,21.8,9.1l0,0c5.6,5.6,9.1,13.3,9.1,21.8s-3.5,16.2-9.1,21.8c-5.6,5.6-13.3,9-21.8,9h-55.7
		c-8.5,0-16.2-3.5-21.8-9l0,0l0,0c-5.6-5.6-9.1-13.3-9.1-21.8s3.5-16.2,9.1-21.8S92.7,550.9,101.2,550.9z"/>
	<path fill="#34495E" d="M151.3,538.3H95.5c-8.5,0-16.2,3.5-21.8,9.1l0,0c-5.6,5.6-9.1,13.3-9.1,21.8s3.5,16.2,9.1,21.8
		c5.6,5.6,13.3,9.1,21.8,9.1h55.7c8.5,0,16.2-3.5,21.8-9.1l0,0l0,0c5.6-5.6,9.1-13.3,9.1-21.8s-3.5-16.2-9.1-21.8
		C167.5,541.8,159.7,538.3,151.3,538.3"/>
	<path fill="#F65C4C" d="M95.5,547.5c-5.8,0-11.3,2.3-15.3,6.3c-4.1,4.1-6.4,9.6-6.4,15.3c0,5.7,2.3,11.2,6.4,15.3
		c4.1,4.1,9.5,6.4,15.3,6.4h55.7c5.7,0,11.2-2.3,15.3-6.3l0,0c4.1-4.1,6.3-9.6,6.3-15.3c0-5.8-2.3-11.2-6.4-15.3
		c-4.1-4.1-9.6-6.4-15.3-6.4H95.5z"/>
	<path fill="#34495E" d="M95.2,538.3c-17,0-30.9,13.8-30.9,30.9c0,17.1,13.8,30.9,30.9,30.9c17.1,0,30.9-13.8,30.9-30.9
		C126.1,552.1,112.2,538.3,95.2,538.3"/>
	<path fill="#FFFFFF" d="M95.2,547.6c11.9,0,21.6,9.6,21.6,21.6s-9.7,21.6-21.6,21.6c-11.9,0-21.6-9.6-21.6-21.6
		S83.2,547.6,95.2,547.6"/>
	<path fill="#BCC2C6" d="M156.9,657.8h-55.7c-4.3,0-8.2,1.8-11,4.6c-2.8,2.8-4.6,6.7-4.6,11c0,4.3,1.7,8.2,4.6,11l0,0
		c2.8,2.8,6.7,4.6,11,4.6h55.7c4.3,0,8.2-1.8,11-4.6c2.8-2.8,4.6-6.7,4.6-11c0-4.3-1.8-8.2-4.6-11
		C165.1,659.6,161.2,657.8,156.9,657.8 M101.2,642.5h55.7c8.5,0,16.2,3.5,21.8,9.1l0,0c5.6,5.6,9.1,13.3,9.1,21.8
		s-3.5,16.2-9.1,21.8c-5.6,5.6-13.3,9-21.8,9h-55.7c-8.5,0-16.2-3.5-21.8-9l0,0l0,0c-5.6-5.6-9.1-13.3-9.1-21.8s3.5-16.2,9.1-21.8
		C85,646,92.7,642.5,101.2,642.5z"/>
	<path fill="#34495E" d="M95.1,629.9h55.7c8.5,0,16.2,3.5,21.8,9.1l0,0c5.6,5.6,9.1,13.3,9.1,21.8s-3.5,16.2-9.1,21.8
		c-5.6,5.6-13.3,9.1-21.8,9.1H95.1c-8.5,0-16.2-3.5-21.8-9.1l0,0l0,0c-5.6-5.6-9.1-13.3-9.1-21.8s3.5-16.2,9.1-21.8
		C78.9,633.4,86.6,629.9,95.1,629.9"/>
	<path fill="#27CABF" d="M150.8,639.1c5.8,0,11.3,2.3,15.3,6.3c4.1,4.1,6.4,9.6,6.4,15.3s-2.3,11.2-6.4,15.3s-9.5,6.4-15.3,6.4H95.1
		c-5.8,0-11.2-2.3-15.3-6.3l0,0c-4.1-4.1-6.3-9.6-6.3-15.3c0-5.8,2.3-11.2,6.4-15.3s9.5-6.4,15.3-6.4H150.8z"/>
	<path fill="#34495E" d="M151.2,629.9c17,0,30.9,13.8,30.9,30.9c0,17-13.8,30.9-30.9,30.9c-17.1,0-30.9-13.8-30.9-30.9
		C120.4,643.8,134.2,629.9,151.2,629.9"/>
	<path fill="#FFFFFF" d="M151.2,639.2c-11.9,0-21.6,9.6-21.6,21.6c0,11.9,9.7,21.6,21.6,21.6c11.9,0,21.6-9.7,21.6-21.6
		C172.8,648.9,163.1,639.2,151.2,639.2"/>
	<path fill="#BCC2C6" d="M266.5,488.8h324.2c4.1,0,7.4,3.3,7.4,7.4c0,4.1-3.3,7.5-7.4,7.5H266.5c-4.1,0-7.5-3.3-7.5-7.5
		C259.1,492.1,262.4,488.8,266.5,488.8"/>
	<path fill="#BCC2C6" d="M266.5,451.5h209.8c4.1,0,7.4,3.3,7.4,7.4l0,0c0,4.1-3.4,7.5-7.4,7.5H266.5c-4.1,0-7.5-3.3-7.5-7.5l0,0
		C259.1,454.9,262.4,451.5,266.5,451.5"/>
	<path fill="#BCC2C6" d="M266.5,580.4h324.2c4.1,0,7.4,3.3,7.4,7.5c0,4.1-3.3,7.4-7.4,7.4H266.5c-4.1,0-7.5-3.3-7.5-7.4
		C259.1,583.7,262.4,580.4,266.5,580.4"/>
	<path fill="#BCC2C6" d="M266.5,543.1h209.8c4.1,0,7.4,3.3,7.4,7.4l0,0c0,4.1-3.4,7.4-7.4,7.4H266.5c-4.1,0-7.5-3.3-7.5-7.4l0,0
		C259.1,546.5,262.4,543.1,266.5,543.1"/>
	<path fill="#BCC2C6" d="M266.5,672h324.2c4.1,0,7.4,3.3,7.4,7.5l0,0c0,4.1-3.3,7.4-7.4,7.4H266.5c-4.1,0-7.5-3.3-7.5-7.4l0,0
		C259.1,675.3,262.4,672,266.5,672"/>
	<path fill="#BCC2C6" d="M266.5,634.7h209.8c4.1,0,7.4,3.3,7.4,7.4l0,0c0,4.1-3.4,7.5-7.4,7.5H266.5c-4.1,0-7.5-3.3-7.5-7.5l0,0
		C259.1,638.1,262.4,634.7,266.5,634.7"/>
	<path fill="#BCC2C6" d="M678.1,471l9.6,9.6l21.6-21.7c2.9-2.9,7.6-2.9,10.5,0c2.9,2.9,2.9,7.6,0,10.5l-26.9,26.9l-0.1,0.1l-0.1,0.1
		l-0.1,0.1l-0.1,0.1l-0.1,0.1l-0.2,0.1L692,497l-0.1,0.1l0,0l-0.2,0.1l-0.1,0.1l0,0l-0.2,0.1l0,0l-0.2,0.1l0,0l-0.2,0.1l0,0
		l-0.2,0.1l0,0l-0.2,0.1l0,0l-0.2,0.1l0,0l-0.2,0.1l0,0l-0.2,0.1l0,0l-0.2,0.1l0,0h-0.2l0,0h-0.2l0,0h-0.2H689l0,0h-0.2h-0.2l0,0
		h-0.2h-0.2l0,0H688l0,0h-0.2l0,0h-0.2l0,0h-0.2l0,0h-0.2h-0.4h-0.2l0,0h-0.4l0,0H686l0,0c-0.2,0-0.5-0.1-0.7-0.1l0,0
		c-0.2,0-0.5-0.1-0.7-0.2l0,0l0.4,0.1l-0.3-0.1l0,0l-0.3-0.2l0,0l-0.2-0.1l0,0l-0.5-0.3l0,0l-0.3-0.2l-0.3-0.2l0,0l-0.1-0.1l0,0
		l-0.1-0.1l0,0l-0.1-0.1l-0.1-0.1l0,0l-0.1-0.1l0,0l0,0l-14.8-14.8c-2.9-2.9-2.9-7.6,0-10.5l0,0C670.4,468.1,675.2,468.1,678.1,471"
		/>
	<path fill="#BCC2C6" d="M678.1,562.6l9.6,9.6l21.6-21.7c2.9-2.9,7.6-2.9,10.5,0c2.9,2.9,2.9,7.6,0,10.5l-26.9,26.9l-0.1,0.1
		l-0.1,0.1l-0.1,0.1l-0.1,0.1l-0.1,0.1l-0.2,0.1l-0.2,0.1l-0.1,0.1l0,0l-0.2,0.1l-0.1,0.1l0,0l-0.2,0.1l0,0l-0.2,0.1l0,0l-0.2,0.1
		l0,0l-0.2,0.1l0,0l-0.2,0.1l0,0l-0.2,0.1l0,0l-0.2,0.1l0,0H690l0,0l-0.2,0.1l0,0h-0.2l0,0h-0.2l0,0h-0.2H689l0,0h-0.2h-0.2l0,0
		h-0.2h-0.2l0,0H688l0,0h-0.2l0,0h0.2l0,0h-0.2l0,0h-0.2h-0.4H687l0,0h-0.4l0,0h-0.2l0,0c-0.2,0-0.5-0.1-0.7-0.1l0,0
		c-0.2,0-0.5-0.1-0.7-0.2l0,0h-0.2l-0.3-0.1l0,0l-0.3-0.2l0,0L684,589l0,0l-0.5-0.3l0,0l-0.3-0.2l-0.3-0.2l0,0l-0.1-0.1l0,0
		l-0.1-0.1l0,0l-0.1-0.1l-0.1-0.1l0,0l-0.1-0.1l0,0l0,0L667.6,573c-2.9-2.9-2.9-7.6,0-10.5l0,0C670.4,559.7,675.2,559.7,678.1,562.6
		"/>
	<path fill="#BCC2C6" d="M678.1,654.2l9.6,9.5l21.6-21.7c2.9-2.9,7.6-2.9,10.5,0l0,0c2.9,2.9,2.9,7.6,0,10.5l-26.9,26.9l-0.1,0.1
		l-0.1,0.1l-0.1,0.1l-0.1,0.1l-0.1,0.1l-0.2,0.1l0,0l-0.2,0.1l-0.1,0.1l0,0l-0.2,0.1l-0.1,0.1l0,0l-0.2,0.1l0,0l-0.2,0.1l0,0
		l-0.2,0.1l0,0l-0.2,0.1l0,0l-0.2,0.1l0,0l-0.2,0.1l0,0l-0.2,0.1l0,0l-0.2,0.1l0,0h-0.2h-0.2l0,0h-0.2l0,0h-0.2H689l0,0h-0.2l0,0
		h-0.2l0,0h-0.2h-0.2l0,0H688l0,0h-0.2h0.2l0,0h-0.2h-0.2h-0.4H687h-0.4l0,0h-0.2l0,0c-0.2,0-0.5-0.1-0.7-0.1l0,0
		c-0.2,0-0.5-0.1-0.7-0.2l0,0l-0.2-0.1l-0.3-0.1l0,0l-0.3-0.2l0,0l-0.2-0.1l0,0l-0.5-0.3l0,0l-0.3-0.2l-0.3-0.2l0,0l-0.1-0.1l0,0
		l-0.1-0.1l0,0l-0.1-0.1l-0.1-0.1l0,0l-0.1-0.1l0,0l-14.8-14.8c-2.9-2.9-2.9-7.6,0-10.5l0,0C670.4,651.3,675.2,651.3,678.1,654.2"/>
	<path fill="#34495E" d="M401.4,286.9c36.1,0,65.3,29.3,65.3,65.3c0,36.1-29.3,65.3-65.3,65.3c-36.1,0-65.3-29.2-65.3-65.3
		C336,316.2,365.3,286.9,401.4,286.9"/>
	<path fill="#22A6EF" d="M401.4,297.7c30.2,0,54.6,24.5,54.6,54.6c0,30.2-24.5,54.6-54.6,54.6c-30.2,0-54.6-24.5-54.6-54.6
		C346.7,322.1,371.2,297.7,401.4,297.7"/>
	<path fill="#34495E" d="M401.4,357.8c19.2,0,35.8,11.3,43.5,27.5c-10,13.1-25.8,21.6-43.5,21.6c-17.7,0-33.5-8.5-43.5-21.6
		C365.6,369.1,382.2,357.8,401.4,357.8"/>
	<path fill="#34495E" d="M401.4,315.5c15,0,27.1,12.1,27.1,27.1s-12.1,27.1-27.1,27.1s-27.1-12.1-27.1-27.1
		C374.2,327.7,386.4,315.5,401.4,315.5"/>
	<path fill="#39D4FF" d="M401.4,326.2c9.1,0,16.4,7.3,16.4,16.4s-7.4,16.4-16.4,16.4c-9.1,0-16.4-7.3-16.4-16.4
		C385,333.6,392.3,326.2,401.4,326.2"/>
	<path fill="#39D4FF" d="M401.4,368.5c16.4,0,30.4,10.6,35.4,25.4c-9.5,8.1-21.9,13-35.4,13s-25.9-4.9-35.4-13
		C371,379.1,384.9,368.5,401.4,368.5"/>
</g>
</svg>
