<?xml version="1.0" encoding="utf-8"?>
<!-- Generator: Adobe Illustrator 15.1.0, SVG Export Plug-In . SVG Version: 6.00 Build 0)  -->
<!DOCTYPE svg PUBLIC "-//W3C//DTD SVG 1.0//EN" "http://www.w3.org/TR/2001/REC-SVG-20010904/DTD/svg10.dtd">
<svg version="1.0" id="Layer_1" xmlns="http://www.w3.org/2000/svg" xmlns:xlink="http://www.w3.org/1999/xlink" x="0px" y="0px"
	 width="800px" height="800px" viewBox="0 0 800 800" enable-background="new 0 0 800 800" xml:space="preserve">
<g id="Header">
	<path fill="#BCC2C6" d="M33.1,34.5h736.2c8.5,0,16.1,3.5,21.7,9l0,0c5.6,5.6,9,13.2,9,21.7v654.6c0,8.4-3.5,16.1-9,21.7l0,0
		c-5.6,5.6-13.2,9-21.7,9H33.1c-8.5,0-16.1-3.5-21.7-9l0,0c-5.6-5.6-9-13.2-9-21.7V65.2c0-8.4,3.5-16.1,9-21.7l0,0
		C16.9,38,24.6,34.5,33.1,34.5"/>
	<path fill="#EBEFF0" d="M788.9,65.2v654.6c0,12.3-8.6,19.6-19.6,19.6H33.1c-11,0-19.6-7-19.6-19.6V65.2c0-12.8,8.6-19.6,19.6-19.6
		h736.2C780.2,45.6,788.9,52.7,788.9,65.2"/>
	<path fill="#94A4A5" d="M677.6,72.3c7.8,0,14.2,6.4,14.2,14.2s-6.3,14.2-14.2,14.2c-7.9,0-14.2-6.3-14.2-14.2
		C663.4,78.7,669.7,72.3,677.6,72.3 M722.1,72.3c7.8,0,14.2,6.4,14.2,14.2s-6.4,14.2-14.2,14.2c-7.8,0-14.2-6.3-14.2-14.2
		C707.9,78.7,714.3,72.3,722.1,72.3z M633,72.3c7.8,0,14.2,6.4,14.2,14.2s-6.3,14.2-14.2,14.2c-7.8,0-14.2-6.4-14.2-14.2
		S625.2,72.3,633,72.3z"/>
	
		<text transform="matrix(1 0 0 1 83.0771 77.4453)" fill="#93A2A3" font-family="'NexaBold'" font-size="37.2406" letter-spacing="1">USER SETTINGS</text>
</g>
<g id="Body">
	<path fill="#BCC2C6" d="M29.2,126.7h744.2c7.3,0,14,3,18.8,7.8s7.8,11.5,7.8,18.8V726c0,7.3-3,14-7.8,18.8s-11.5,7.8-18.8,7.8H29.2
		c-7.3,0-14-3-18.8-7.8C5.5,740,2.5,733.3,2.5,726V153.4c0-7.3,3-14,7.8-18.8C15.2,129.7,21.8,126.7,29.2,126.7"/>
	<path fill="#FFFFFF" d="M29.2,137.8c-4.1,0-8,1.7-10.9,4.6c-2.9,2.9-4.6,6.8-4.6,11V726c0,4.1,1.6,8,4.6,10.9
		c2.9,2.9,6.8,4.6,10.9,4.6h744.2c4.1,0,8-1.6,11-4.6c2.9-2.9,4.6-6.8,4.6-10.9V153.4c0-4.1-1.6-8-4.6-11c-2.9-2.9-6.8-4.6-11-4.6
		H29.2z"/>
	<path fill="#34495E" d="M58.1,364.7h686.4c8.6,0,15.6-7,15.6-15.6V191.7c0-8.6-7-15.6-15.6-15.6H58.1c-8.6,0-15.6,7-15.6,15.6
		v157.4C42.5,357.7,49.5,364.7,58.1,364.7"/>
	<path fill="#22A6EF" d="M58.1,186.8h686.4c2.7,0,4.9,2.2,4.9,4.9v157.4c0,2.7-2.2,4.9-4.9,4.9H58.1c-2.7,0-4.9-2.2-4.9-4.9V191.7
		C53.2,189,55.4,186.8,58.1,186.8"/>
	<path fill="#BCC2C6" d="M58.9,626.4h196.4c4.3,0,7.9,3.5,7.9,7.9l0,0c0,4.3-3.6,7.9-7.9,7.9H58.9c-4.3,0-7.9-3.6-7.9-7.9l0,0
		C51.1,629.9,54.6,626.4,58.9,626.4"/>
	<path fill="#BCC2C6" d="M58.9,586.9h124.8c4.3,0,7.9,3.6,7.9,7.9l0,0c0,4.3-3.5,7.9-7.9,7.9H58.9c-4.3,0-7.9-3.5-7.9-7.9l0,0
		C51.1,590.5,54.6,586.9,58.9,586.9"/>
	<path fill="#BCC2C6" d="M58.9,500h196.4c4.3,0,7.9,3.6,7.9,7.9l0,0c0,4.3-3.6,7.9-7.9,7.9H58.9c-4.3,0-7.9-3.5-7.9-7.9l0,0
		C51.1,503.6,54.6,500,58.9,500"/>
	<path fill="#BCC2C6" d="M58.9,539.7h196.4c4.3,0,7.9,3.6,7.9,7.9l0,0c0,4.3-3.6,7.9-7.9,7.9H58.9c-4.3,0-7.9-3.5-7.9-7.9l0,0
		C51.1,543.2,54.6,539.7,58.9,539.7"/>
	<path fill="#BCC2C6" d="M58.9,460.6h124.8c4.3,0,7.9,3.5,7.9,7.9l0,0c0,4.3-3.5,7.9-7.9,7.9H58.9c-4.3,0-7.9-3.5-7.9-7.9l0,0
		C51.1,464.1,54.6,460.6,58.9,460.6"/>
	<path fill="#1C8DCB" d="M685.6,263.4h-84.4c-3.2,0-6.2,1.3-8.3,3.5c-2.1,2.1-3.5,5.1-3.5,8.3c0,3.3,1.3,6.2,3.5,8.3l0,0
		c2.1,2.1,5.1,3.4,8.3,3.4h84.4c3.2,0,6.2-1.3,8.3-3.5c2.1-2.1,3.5-5.1,3.5-8.3c0-3.2-1.3-6.2-3.5-8.4
		C691.8,264.7,688.8,263.4,685.6,263.4 M601.1,251.8h84.4c6.4,0,12.3,2.6,16.5,6.9l0,0c4.2,4.2,6.9,10.1,6.9,16.5
		c0,6.4-2.6,12.3-6.9,16.5c-4.2,4.2-10.1,6.9-16.5,6.9h-84.4c-6.4,0-12.3-2.6-16.5-6.9l0,0l0,0c-4.2-4.2-6.9-10.1-6.9-16.5
		c0-6.4,2.6-12.3,6.9-16.5C588.8,254.4,594.7,251.8,601.1,251.8z"/>
	<path fill="#34495E" d="M596.5,242.2H681c6.4,0,12.3,2.6,16.5,6.9l0,0c4.2,4.2,6.9,10.1,6.9,16.5s-2.6,12.3-6.9,16.5
		c-4.2,4.2-10.1,6.9-16.5,6.9h-84.4c-6.4,0-12.2-2.6-16.5-6.9l0,0l0,0c-4.2-4.2-6.9-10.1-6.9-16.5s2.6-12.3,6.9-16.5
		C584.2,244.9,590.1,242.2,596.5,242.2"/>
	<path fill="#27CABF" d="M681,249.2c4.4,0,8.5,1.7,11.6,4.8c3.1,3.1,4.8,7.3,4.8,11.6c0,4.4-1.7,8.5-4.8,11.6
		c-3.1,3.1-7.2,4.8-11.6,4.8h-84.4c-4.4,0-8.5-1.7-11.6-4.8l0,0c-3.1-3.1-4.8-7.2-4.8-11.6s1.7-8.5,4.8-11.6s7.2-4.8,11.6-4.8H681z"
		/>
	<path fill="#51F4E9" d="M681,249.2c4.4,0,8.5,1.7,11.6,4.8c3.1,3.1,4.8,7.3,4.8,11.6c0,1.1-0.1,2.2-0.3,3.3c-0.6-3.1-2.2-6-4.5-8.3
		c-3.1-3.1-7.2-4.8-11.6-4.8h-84.4c-4.4,0-8.5,1.7-11.6,4.8c-2.3,2.3-3.8,5.2-4.5,8.3c-0.2-1.1-0.3-2.2-0.3-3.3
		c0-4.4,1.7-8.5,4.8-11.6s7.2-4.8,11.6-4.8H681z"/>
	<path fill="#BCC2C6" d="M346.4,425.9h404.3c5.2,0,9.4,4.2,9.4,9.4v28.9c0,5.2-4.2,9.4-9.4,9.4H346.4c-5.2,0-9.4-4.2-9.4-9.4v-28.9
		C336.9,430.1,341.2,425.9,346.4,425.9"/>
	<rect x="348.1" y="437" fill="#FFFFFF" width="400.8" height="25.5"/>
	<path fill="#BCC2C6" d="M346.4,493.5h404.3c5.2,0,9.4,4.2,9.4,9.4v28.9c0,5.2-4.2,9.4-9.4,9.4H346.4c-5.2,0-9.4-4.2-9.4-9.4V503
		C336.9,497.8,341.2,493.5,346.4,493.5"/>
	<rect x="348.1" y="504.7" fill="#FFFFFF" width="400.8" height="25.5"/>
	<path fill="#BCC2C6" d="M346.4,561.2h404.3c5.2,0,9.4,4.2,9.4,9.4v28.9c0,5.2-4.2,9.4-9.4,9.4H346.4c-5.2,0-9.4-4.2-9.4-9.4v-28.9
		C336.9,565.4,341.2,561.2,346.4,561.2"/>
	<rect x="348.1" y="572.3" fill="#FFFFFF" width="400.8" height="25.5"/>
	<path fill="#BCC2C6" d="M607.3,658.8H495.8c-4.3,0-8.2,1.8-11,4.6c-2.8,2.8-4.6,6.7-4.6,11c0,4.3,1.7,8.2,4.6,11l0,0
		c2.8,2.8,6.7,4.6,11,4.6h111.4c4.3,0,8.2-1.8,11-4.6c2.8-2.8,4.6-6.7,4.6-11c0-4.3-1.8-8.2-4.6-11
		C615.4,660.5,611.5,658.8,607.3,658.8 M495.8,643.5h111.4c8.5,0,16.2,3.5,21.8,9.1l0,0c5.6,5.6,9.1,13.3,9.1,21.8
		s-3.5,16.2-9.1,21.8c-5.6,5.6-13.3,9.1-21.8,9.1H495.8c-8.5,0-16.2-3.5-21.8-9.1l0,0l0,0c-5.6-5.6-9.1-13.3-9.1-21.8
		s3.5-16.2,9.1-21.8C479.6,647,487.3,643.5,495.8,643.5z"/>
	<path fill="#34495E" d="M489.8,630.9h111.4c8.5,0,16.2,3.5,21.8,9.1l0,0c5.6,5.6,9.1,13.3,9.1,21.8s-3.5,16.2-9.1,21.8
		c-5.6,5.6-13.3,9.1-21.8,9.1H489.8c-8.5,0-16.2-3.5-21.8-9.1l0,0l0,0c-5.6-5.6-9.1-13.3-9.1-21.8s3.5-16.2,9.1-21.8
		C473.5,634.4,481.3,630.9,489.8,630.9"/>
	<path fill="#27CABF" d="M601.2,640.1c5.8,0,11.2,2.3,15.3,6.3c4.1,4.1,6.3,9.6,6.3,15.3c0,5.8-2.3,11.2-6.4,15.3
		c-4.1,4.1-9.6,6.4-15.3,6.4H489.8c-5.8,0-11.3-2.3-15.3-6.3l0,0c-4.1-4.1-6.3-9.6-6.3-15.3c0-5.8,2.3-11.2,6.4-15.3
		c4.1-4.1,9.6-6.4,15.3-6.4H601.2z"/>
	<path fill="#51F4E9" d="M601.2,640.1c5.8,0,11.2,2.3,15.3,6.3c4.1,4.1,6.3,9.6,6.3,15.3c0,1.5-0.2,2.9-0.4,4.4
		c-0.9-4.1-2.9-7.9-5.9-11c-4.1-4.1-9.6-6.3-15.3-6.3H489.8c-5.8,0-11.3,2.3-15.3,6.4c-3,3-5.1,6.8-5.9,11c-0.3-1.4-0.4-2.9-0.4-4.4
		c0-5.8,2.3-11.2,6.4-15.3c4.1-4.1,9.6-6.4,15.3-6.4H601.2z"/>
	<path fill="#34495E" d="M163.7,293.1c36.1,0,65.4,29.3,65.4,65.4s-29.3,65.4-65.4,65.4c-36.1,0-65.4-29.3-65.4-65.4
		S127.6,293.1,163.7,293.1"/>
	<path fill="#22A6EF" d="M163.7,303.8c30.2,0,54.6,24.5,54.6,54.6c0,30.2-24.5,54.6-54.6,54.6c-30.1,0-54.6-24.5-54.6-54.6
		S133.5,303.8,163.7,303.8"/>
	<path fill="#34495E" d="M163.7,364c19.2,0,35.8,11.2,43.5,27.5c-10,13.1-25.8,21.6-43.5,21.6c-17.7,0-33.5-8.5-43.5-21.6
		C127.9,375.2,144.5,364,163.7,364"/>
	<path fill="#34495E" d="M163.7,321.7c15,0,27.1,12.2,27.1,27.1c0,14.9-12.1,27.2-27.1,27.2s-27.1-12.2-27.1-27.1
		S148.7,321.7,163.7,321.7"/>
	<path fill="#39D4FF" d="M163.7,332.4c9.1,0,16.4,7.4,16.4,16.4s-7.4,16.4-16.4,16.4s-16.4-7.4-16.4-16.4S154.6,332.4,163.7,332.4"
		/>
	<path fill="#39D4FF" d="M163.7,374.7c16.4,0,30.4,10.6,35.4,25.4c-9.5,8.1-21.9,13.1-35.4,13.1s-25.9-4.9-35.4-13.1
		C133.3,385.3,147.3,374.7,163.7,374.7"/>
</g>
</svg>
