<?xml version="1.0" encoding="utf-8"?>
<!-- Generator: Adobe Illustrator 15.1.0, SVG Export Plug-In . SVG Version: 6.00 Build 0)  -->
<!DOCTYPE svg PUBLIC "-//W3C//DTD SVG 1.0//EN" "http://www.w3.org/TR/2001/REC-SVG-20010904/DTD/svg10.dtd">
<svg version="1.0" id="Layer_1" xmlns="http://www.w3.org/2000/svg" xmlns:xlink="http://www.w3.org/1999/xlink" x="0px" y="0px"
	 width="800px" height="800px" viewBox="0 0 800 800" enable-background="new 0 0 800 800" xml:space="preserve">
<g id="Header">
	<path fill="#BCC2C6" d="M33.1,34.5h736.2c8.5,0,16.1,3.5,21.7,9l0,0c5.6,5.6,9,13.2,9,21.7v654.6c0,8.4-3.5,16.1-9,21.7l0,0
		c-5.6,5.6-13.2,9-21.7,9H33.1c-8.5,0-16.1-3.5-21.7-9l0,0c-5.6-5.6-9-13.2-9-21.7V65.2c0-8.4,3.5-16.1,9-21.7l0,0
		C16.9,38,24.6,34.5,33.1,34.5"/>
	<path fill="#EBEFF0" d="M788.9,65.2v654.6c0,12.3-8.6,19.6-19.6,19.6H33.1c-11,0-19.6-7-19.6-19.6V65.2c0-12.8,8.6-19.6,19.6-19.6
		h736.2C780.2,45.6,788.9,52.7,788.9,65.2"/>
	<path fill="#94A4A5" d="M677.6,72.3c7.8,0,14.2,6.4,14.2,14.2s-6.3,14.2-14.2,14.2c-7.9,0-14.2-6.3-14.2-14.2
		C663.4,78.7,669.7,72.3,677.6,72.3 M722.1,72.3c7.8,0,14.2,6.4,14.2,14.2s-6.4,14.2-14.2,14.2c-7.8,0-14.2-6.3-14.2-14.2
		C707.9,78.7,714.3,72.3,722.1,72.3z M633,72.3c7.8,0,14.2,6.4,14.2,14.2s-6.3,14.2-14.2,14.2c-7.8,0-14.2-6.4-14.2-14.2
		S625.2,72.3,633,72.3z"/>
	
		<text transform="matrix(1 0 0 1 188.3345 81.2969)" fill="#93A2A3" font-family="'NexaBold'" font-size="44.0749" letter-spacing="1">USERS</text>
</g>
<g id="Body">
	<path fill="#BCC2C6" d="M27.4,126.5h745.9c7.4,0,14,3,18.9,7.8c4.8,4.8,7.8,11.5,7.8,18.9v573.9c0,7.4-3,14-7.8,18.9
		c-4.8,4.8-11.5,7.8-18.9,7.8H27.4c-7.4,0-14-3-18.9-7.8c-4.8-4.8-7.8-11.5-7.8-18.9V153.2c0-7.4,3-14.1,7.8-18.9
		C13.4,129.5,20.1,126.5,27.4,126.5"/>
	<path fill="#FFFFFF" d="M27.4,137.7c-4.1,0-8.1,1.6-11,4.6c-2.9,2.9-4.6,6.9-4.6,11v573.9c0,4.1,1.6,8.1,4.6,11
		c2.9,2.9,6.8,4.6,11,4.6h745.9c4.1,0,8.1-1.6,11-4.6c2.9-2.9,4.6-6.8,4.6-11v-574c0-4.1-1.6-8.1-4.6-11c-2.9-2.9-6.8-4.6-11-4.6
		H27.4V137.7z"/>
	<path fill="#BCC2C6" d="M271.5,253.2h213.8c4.1,0,7.5-3.4,7.5-7.5l0,0c0-4.1-3.4-7.5-7.5-7.5H271.5c-4.1,0-7.5,3.4-7.5,7.5l0,0
		C264,249.8,267.4,253.2,271.5,253.2"/>
	<path fill="#BCC2C6" d="M271.5,290.5h136.6c4.1,0,7.5-3.4,7.5-7.5s-3.3-7.5-7.5-7.5H271.5c-4.1,0-7.5,3.4-7.5,7.5
		C264,287.2,267.4,290.5,271.5,290.5"/>
	<path fill="#BCC2C6" d="M689.6,257.3H605c-3.3,0-6.2,1.3-8.4,3.5c-2.1,2.2-3.5,5.1-3.5,8.4c0,3.3,1.3,6.2,3.5,8.4l0,0
		c2.1,2.1,5.1,3.5,8.4,3.5h84.6c3.3,0,6.2-1.3,8.4-3.5c2.1-2.2,3.5-5.1,3.5-8.4c0-3.3-1.3-6.2-3.5-8.4
		C695.8,258.7,692.8,257.3,689.6,257.3 M604.9,245.7h84.6c6.4,0,12.3,2.6,16.5,6.9l0,0c4.2,4.2,6.9,10.1,6.9,16.5
		c0,6.5-2.6,12.3-6.9,16.6c-4.3,4.2-10.1,6.9-16.6,6.9h-84.6c-6.4,0-12.3-2.6-16.5-6.9l0,0l0,0c-4.3-4.3-6.9-10.1-6.9-16.5
		c0-6.5,2.6-12.3,6.9-16.6C592.6,248.4,598.5,245.7,604.9,245.7z"/>
	<path fill="#34495E" d="M600.3,236.2H685c6.4,0,12.3,2.6,16.5,6.9l0,0c4.2,4.2,6.9,10.1,6.9,16.5s-2.6,12.3-6.9,16.6
		c-4.2,4.2-10.1,6.9-16.6,6.9h-84.6c-6.4,0-12.3-2.6-16.5-6.9l0,0l0,0c-4.2-4.3-6.9-10.1-6.9-16.5c0-6.5,2.6-12.3,6.9-16.6
		C588,238.8,593.9,236.2,600.3,236.2"/>
	<path fill="#27CABF" d="M685,243.1c4.4,0,8.6,1.7,11.6,4.8s4.8,7.3,4.8,11.6c0,4.4-1.8,8.5-4.8,11.6c-3.1,3.1-7.2,4.8-11.6,4.8
		h-84.6c-4.4,0-8.5-1.7-11.6-4.8l0,0c-3.1-3.1-4.8-7.2-4.8-11.6s1.7-8.5,4.8-11.6c3.1-3.1,7.2-4.8,11.6-4.8H685z"/>
	<path fill="#51F4E9" d="M685,243.1c4.4,0,8.6,1.7,11.6,4.8s4.8,7.3,4.8,11.6c0,1.1-0.1,2.2-0.3,3.3c-0.6-3.1-2.2-6-4.5-8.3
		c-3.1-3.1-7.3-4.8-11.6-4.8h-84.6c-4.4,0-8.5,1.7-11.6,4.8c-2.3,2.3-3.8,5.2-4.5,8.3c-0.2-1.1-0.3-2.2-0.3-3.3
		c0-4.4,1.7-8.5,4.8-11.6c3.1-3.1,7.2-4.8,11.6-4.8H685z"/>
	<path fill="#BCC2C6" d="M271.5,429h213.8c4.1,0,7.5-3.4,7.5-7.5l0,0c0-4.1-3.4-7.5-7.5-7.5H271.5c-4.1,0-7.5,3.4-7.5,7.5l0,0
		C264,425.6,267.4,429,271.5,429"/>
	<path fill="#BCC2C6" d="M271.5,466.3h136.6c4.1,0,7.5-3.4,7.5-7.5c0-4.1-3.3-7.5-7.5-7.5H271.5c-4.1,0-7.5,3.4-7.5,7.5
		C264,463,267.4,466.3,271.5,466.3"/>
	<path fill="#BCC2C6" d="M689.6,433.1H605c-3.3,0-6.2,1.3-8.4,3.5c-2.1,2.2-3.5,5.1-3.5,8.4s1.3,6.2,3.5,8.4l0,0
		c2.1,2.1,5.1,3.5,8.4,3.5h84.6c3.3,0,6.2-1.3,8.4-3.5c2.1-2.2,3.5-5.1,3.5-8.4s-1.3-6.2-3.5-8.4
		C695.8,434.5,692.8,433.1,689.6,433.1 M604.9,421.5h84.6c6.4,0,12.3,2.6,16.5,6.9l0,0c4.2,4.2,6.9,10.1,6.9,16.5
		c0,6.5-2.6,12.3-6.9,16.6c-4.3,4.2-10.1,6.9-16.6,6.9h-84.6c-6.4,0-12.3-2.6-16.5-6.9l0,0l0,0c-4.3-4.3-6.9-10.1-6.9-16.5
		s2.6-12.3,6.9-16.6C592.6,424.2,598.5,421.5,604.9,421.5z"/>
	<path fill="#34495E" d="M600.3,412H685c6.4,0,12.3,2.6,16.5,6.9l0,0c4.2,4.2,6.9,10.1,6.9,16.5l0,0c0,6.5-2.6,12.3-6.9,16.6
		c-4.2,4.3-10.1,6.9-16.6,6.9h-84.6c-6.4,0-12.3-2.6-16.5-6.9l0,0l0,0c-4.2-4.3-6.9-10.1-6.9-16.5l0,0c0-6.4,2.6-12.3,6.9-16.6
		C588,414.6,593.9,412,600.3,412"/>
	<path fill="#F65C4C" d="M685,419c4.4,0,8.6,1.7,11.6,4.8c3.1,3.1,4.8,7.3,4.8,11.6c0,4.4-1.8,8.5-4.8,11.6s-7.2,4.8-11.6,4.8h-84.6
		c-4.4,0-8.5-1.7-11.6-4.8l0,0c-3.1-3.1-4.8-7.3-4.8-11.6c0-4.4,1.7-8.5,4.8-11.6c3.1-3.1,7.2-4.8,11.6-4.8H685z"/>
	<path fill="#FF7C6C" d="M685,419c4.4,0,8.6,1.7,11.6,4.8c3.1,3.1,4.8,7.3,4.8,11.6c0,1.1-0.1,2.2-0.3,3.3c-0.6-3.1-2.2-6-4.5-8.3
		c-3.1-3.1-7.3-4.8-11.6-4.8h-84.6c-4.4,0-8.5,1.7-11.6,4.8c-2.3,2.3-3.8,5.2-4.5,8.3c-0.2-1.1-0.3-2.2-0.3-3.3
		c0-4.4,1.7-8.5,4.8-11.6c3.1-3.1,7.2-4.8,11.6-4.8H685z"/>
	<path fill="#BCC2C6" d="M271.5,604.8h213.8c4.1,0,7.5-3.4,7.5-7.5c0-4.1-3.4-7.5-7.5-7.5H271.5c-4.1,0-7.5,3.4-7.5,7.5
		C264,601.4,267.4,604.8,271.5,604.8"/>
	<path fill="#BCC2C6" d="M271.5,642.1h136.6c4.1,0,7.5-3.4,7.5-7.5l0,0c0-4.1-3.3-7.5-7.5-7.5H271.5c-4.1,0-7.5,3.4-7.5,7.5l0,0
		C264,638.8,267.4,642.1,271.5,642.1"/>
	<path fill="#BCC2C6" d="M689.6,609H605c-3.3,0-6.2,1.3-8.4,3.5c-2.1,2.1-3.5,5.1-3.5,8.4c0,3.3,1.3,6.2,3.5,8.4l0,0
		c2.1,2.1,5.1,3.5,8.4,3.5h84.6c3.3,0,6.2-1.3,8.4-3.5c2.1-2.1,3.5-5.1,3.5-8.4c0-3.3-1.3-6.2-3.5-8.4S692.8,609,689.6,609
		 M604.9,597.4h84.6c6.4,0,12.3,2.6,16.5,6.9l0,0c4.2,4.2,6.9,10.1,6.9,16.5c0,6.5-2.6,12.3-6.9,16.6c-4.3,4.3-10.1,6.9-16.6,6.9
		h-84.6c-6.4,0-12.3-2.6-16.5-6.9l0,0l0,0c-4.3-4.3-6.9-10.1-6.9-16.5c0-6.5,2.6-12.3,6.9-16.6S598.5,597.4,604.9,597.4z"/>
	<path fill="#34495E" d="M600.3,587.8H685c6.4,0,12.3,2.6,16.5,6.9l0,0c4.2,4.2,6.9,10.1,6.9,16.5l0,0c0,6.4-2.6,12.3-6.9,16.6
		c-4.2,4.3-10.1,6.9-16.6,6.9h-84.6c-6.4,0-12.3-2.6-16.5-6.9l0,0l0,0c-4.2-4.3-6.9-10.1-6.9-16.5l0,0c0-6.5,2.6-12.3,6.9-16.6
		C588,590.4,593.9,587.8,600.3,587.8"/>
	<path fill="#27CABF" d="M685,594.7c4.4,0,8.6,1.7,11.6,4.8s4.8,7.3,4.8,11.6c0,4.3-1.8,8.5-4.8,11.6c-3.1,3.1-7.2,4.8-11.6,4.8
		h-84.6c-4.4,0-8.5-1.7-11.6-4.8l0,0c-3.1-3.1-4.8-7.3-4.8-11.6c0-4.4,1.7-8.5,4.8-11.6c3.1-3.1,7.2-4.8,11.6-4.8H685z"/>
	<path fill="#51F4E9" d="M685,594.7c4.4,0,8.6,1.7,11.6,4.8s4.8,7.3,4.8,11.6c0,1.1-0.1,2.2-0.3,3.3c-0.6-3.1-2.2-6-4.5-8.3
		c-3.1-3.1-7.3-4.8-11.6-4.8h-84.6c-4.4,0-8.5,1.8-11.6,4.8c-2.3,2.3-3.8,5.2-4.5,8.3c-0.2-1.1-0.3-2.2-0.3-3.3
		c0-4.4,1.7-8.5,4.8-11.6c3.1-3.1,7.2-4.8,11.6-4.8H685z"/>
	<path fill="#34495E" d="M153.3,198.9c36.2,0,65.5,29.3,65.5,65.5c0,36.2-29.3,65.5-65.5,65.5c-36.2,0-65.5-29.3-65.5-65.5
		C87.8,228.2,117.1,198.9,153.3,198.9"/>
	<path fill="#22A6EF" d="M153.3,209.6c30.2,0,54.8,24.5,54.8,54.8c0,30.2-24.5,54.8-54.8,54.8c-30.3,0-54.8-24.5-54.8-54.8
		C98.5,234.1,123,209.6,153.3,209.6"/>
	<path fill="#34495E" d="M153.3,269.9c19.2,0,35.9,11.3,43.6,27.6c-10,13.2-25.8,21.6-43.6,21.6c-17.8,0-33.6-8.5-43.6-21.6
		C117.4,281.2,134,269.9,153.3,269.9"/>
	<path fill="#34495E" d="M153.3,227.5c15,0,27.2,12.2,27.2,27.2s-12.2,27.2-27.2,27.2s-27.2-12.2-27.2-27.2S138.2,227.5,153.3,227.5
		"/>
	<path fill="#39D4FF" d="M153.3,238.3c9.1,0,16.4,7.4,16.4,16.4c0,9.1-7.4,16.5-16.4,16.5c-9.1,0-16.5-7.4-16.5-16.5
		C136.8,245.6,144.2,238.3,153.3,238.3"/>
	<path fill="#39D4FF" d="M153.3,280.7c16.5,0,30.5,10.6,35.5,25.4c-9.6,8.2-22,13.1-35.5,13.1c-13.6,0-26-4.9-35.5-13.1
		C122.8,291.3,136.8,280.7,153.3,280.7"/>
	<path fill="#34495E" d="M153.3,374.7c36.2,0,65.5,29.3,65.5,65.5s-29.3,65.5-65.5,65.5c-36.2,0-65.5-29.3-65.5-65.5
		S117.1,374.7,153.3,374.7"/>
	<path fill="#22A6EF" d="M153.3,385.4c30.2,0,54.8,24.5,54.8,54.8c0,30.2-24.5,54.8-54.8,54.8c-30.3,0-54.8-24.5-54.8-54.8
		S123,385.4,153.3,385.4"/>
	<path fill="#34495E" d="M153.3,445.7c19.2,0,35.9,11.3,43.6,27.6c-10,13.2-25.8,21.6-43.6,21.6c-17.8,0-33.6-8.5-43.6-21.6
		C117.4,457,134,445.7,153.3,445.7"/>
	<path fill="#34495E" d="M153.3,403.3c15,0,27.2,12.2,27.2,27.2s-12.2,27.2-27.2,27.2s-27.2-12.2-27.2-27.2S138.2,403.3,153.3,403.3
		"/>
	<path fill="#39D4FF" d="M153.3,414.1c9.1,0,16.4,7.4,16.4,16.5c0,9.1-7.4,16.5-16.4,16.5c-9.1,0-16.5-7.4-16.5-16.5
		C136.8,421.5,144.2,414.1,153.3,414.1"/>
	<path fill="#39D4FF" d="M153.3,456.5c16.5,0,30.5,10.6,35.5,25.4c-9.6,8.2-22,13.1-35.5,13.1c-13.6,0-26-4.9-35.5-13.1
		C122.8,467.1,136.8,456.5,153.3,456.5"/>
	<path fill="#34495E" d="M153.3,550.5c36.2,0,65.5,29.3,65.5,65.5s-29.3,65.5-65.5,65.5c-36.2,0-65.5-29.3-65.5-65.5
		S117.1,550.5,153.3,550.5"/>
	<path fill="#22A6EF" d="M153.3,561.2c30.2,0,54.8,24.5,54.8,54.8s-24.5,54.8-54.8,54.8c-30.3,0-54.8-24.5-54.8-54.8
		C98.5,585.8,123,561.2,153.3,561.2"/>
	<path fill="#34495E" d="M153.3,621.5c19.2,0,35.9,11.3,43.6,27.6c-10,13.2-25.8,21.6-43.6,21.6c-17.8,0-33.6-8.5-43.6-21.6
		C117.4,632.8,134,621.5,153.3,621.5"/>
	<path fill="#34495E" d="M153.3,579.1c15,0,27.2,12.2,27.2,27.2s-12.2,27.2-27.2,27.2s-27.2-12.2-27.2-27.2S138.2,579.1,153.3,579.1
		"/>
	<path fill="#39D4FF" d="M153.3,589.9c9.1,0,16.4,7.4,16.4,16.5c0,9.1-7.4,16.4-16.4,16.4c-9.1,0-16.5-7.4-16.5-16.4
		C136.8,597.2,144.2,589.9,153.3,589.9"/>
	<path fill="#39D4FF" d="M153.3,632.3c16.5,0,30.5,10.6,35.5,25.4c-9.6,8.1-22,13.1-35.5,13.1c-13.6,0-26-4.9-35.5-13.1
		C122.8,642.9,136.8,632.3,153.3,632.3"/>
</g>
</svg>
