<?xml version="1.0" encoding="utf-8"?>
<!-- Generator: Adobe Illustrator 15.1.0, SVG Export Plug-In . SVG Version: 6.00 Build 0)  -->
<!DOCTYPE svg PUBLIC "-//W3C//DTD SVG 1.0//EN" "http://www.w3.org/TR/2001/REC-SVG-20010904/DTD/svg10.dtd">
<svg version="1.0" id="Layer_1" xmlns="http://www.w3.org/2000/svg" xmlns:xlink="http://www.w3.org/1999/xlink" x="0px" y="0px"
	 width="800px" height="800px" viewBox="0 0 800 800" enable-background="new 0 0 800 800" xml:space="preserve">
<g id="Header">
	<path fill="#BCC2C6" d="M33.1,34.5h736.2c8.5,0,16.1,3.5,21.7,9l0,0c5.6,5.6,9,13.2,9,21.7v654.6c0,8.4-3.5,16.1-9,21.7l0,0
		c-5.6,5.6-13.2,9-21.7,9H33.1c-8.5,0-16.1-3.5-21.7-9l0,0c-5.6-5.6-9-13.2-9-21.7V65.2c0-8.4,3.5-16.1,9-21.7l0,0
		C16.9,38,24.6,34.5,33.1,34.5"/>
	<path fill="#EBEFF0" d="M788.9,65.2v654.6c0,12.3-8.6,19.6-19.6,19.6H33.1c-11,0-19.6-7-19.6-19.6V65.2c0-12.8,8.6-19.6,19.6-19.6
		h736.2C780.2,45.6,788.9,52.7,788.9,65.2"/>
	<path fill="#94A4A5" d="M677.6,72.3c7.8,0,14.2,6.4,14.2,14.2s-6.3,14.2-14.2,14.2c-7.9,0-14.2-6.3-14.2-14.2
		C663.4,78.7,669.7,72.3,677.6,72.3 M722.1,72.3c7.8,0,14.2,6.4,14.2,14.2s-6.4,14.2-14.2,14.2c-7.8,0-14.2-6.3-14.2-14.2
		C707.9,78.7,714.3,72.3,722.1,72.3z M633,72.3c7.8,0,14.2,6.4,14.2,14.2s-6.3,14.2-14.2,14.2c-7.8,0-14.2-6.4-14.2-14.2
		S625.2,72.3,633,72.3z"/>
	<text transform="matrix(1 0 0 1 244.0591 85.2969)" fill="#93A2A3" font-family="'NexaBold'" font-size="44.0749">FILES</text>
</g>
<g id="Body">
	<path fill="#BCC2C6" d="M29.9,126.8h743.5c7.3,0,14,3,18.8,7.8c4.8,4.8,7.8,11.5,7.8,18.8v572.1c0,7.3-3,14-7.8,18.8
		c-4.8,4.8-11.5,7.8-18.8,7.8H29.9c-7.3,0-14-3-18.8-7.8c-4.8-4.8-7.8-11.5-7.8-18.8V153.4c0-7.3,3-14,7.8-18.8
		C15.9,129.8,22.5,126.8,29.9,126.8"/>
	<path fill-rule="evenodd" clip-rule="evenodd" fill="#FFFFFF" d="M29.9,138c-4.1,0-8,1.6-10.9,4.6c-2.9,2.9-4.6,6.8-4.6,10.9v572.1
		c0,4.1,1.6,8,4.6,10.9c2.9,2.9,6.8,4.6,10.9,4.6h743.5c4.1,0,8-1.6,10.9-4.6c2.9-2.9,4.5-6.8,4.5-10.9V153.4c0-4.1-1.6-8-4.5-10.9
		c-2.9-2.9-6.8-4.6-10.9-4.6H29.9z"/>
	<rect x="87.1" y="190.4" fill-rule="evenodd" clip-rule="evenodd" fill="#34495E" width="103.5" height="103.5"/>
	<rect x="98.4" y="201.8" fill-rule="evenodd" clip-rule="evenodd" fill="#22A6EF" width="80.8" height="80.8"/>
	<path fill-rule="evenodd" clip-rule="evenodd" fill="#BCC2C6" d="M252.5,216h240.6c4.1,0,7.4,3.3,7.4,7.4l0,0
		c0,4.1-3.3,7.4-7.4,7.4H252.5c-4.1,0-7.4-3.3-7.4-7.4l0,0C245.1,219.4,248.4,216,252.5,216"/>
	<path fill-rule="evenodd" clip-rule="evenodd" fill="#BCC2C6" d="M252.5,253.4h208.8c4.1,0,7.4,3.3,7.4,7.4v0
		c0,4.1-3.3,7.4-7.4,7.4H252.5c-4.1,0-7.4-3.3-7.4-7.4v0C245.1,256.8,248.4,253.4,252.5,253.4"/>
	<rect x="87.1" y="334.6" fill-rule="evenodd" clip-rule="evenodd" fill="#34495E" width="103.5" height="103.5"/>
	<rect x="98.4" y="345.9" fill-rule="evenodd" clip-rule="evenodd" fill="#22A6EF" width="80.8" height="80.8"/>
	<path fill-rule="evenodd" clip-rule="evenodd" fill="#BCC2C6" d="M252.5,360.2h240.6c4.1,0,7.4,3.3,7.4,7.4c0,4.1-3.3,7.4-7.4,7.4
		H252.5c-4.1,0-7.4-3.3-7.4-7.4C245.1,363.5,248.4,360.2,252.5,360.2"/>
	<path fill-rule="evenodd" clip-rule="evenodd" fill="#BCC2C6" d="M252.5,397.5h208.8c4.1,0,7.4,3.4,7.4,7.4c0,4.1-3.3,7.4-7.4,7.4
		H252.5c-4.1,0-7.4-3.4-7.4-7.4C245.1,400.9,248.4,397.5,252.5,397.5"/>
	<rect x="87.1" y="478.7" fill-rule="evenodd" clip-rule="evenodd" fill="#34495E" width="103.5" height="103.5"/>
	<rect x="98.4" y="490" fill-rule="evenodd" clip-rule="evenodd" fill="#22A6EF" width="80.8" height="80.8"/>
	<path fill-rule="evenodd" clip-rule="evenodd" fill="#BCC2C6" d="M252.5,504.3h240.6c4.1,0,7.4,3.4,7.4,7.4l0,0
		c0,4.1-3.3,7.4-7.4,7.4H252.5c-4.1,0-7.4-3.3-7.4-7.4l0,0C245.1,507.6,248.4,504.3,252.5,504.3"/>
	<path fill-rule="evenodd" clip-rule="evenodd" fill="#BCC2C6" d="M252.5,541.7h208.8c4.1,0,7.4,3.3,7.4,7.4v0
		c0,4.1-3.3,7.4-7.4,7.4H252.5c-4.1,0-7.4-3.3-7.4-7.4v0C245.1,545,248.4,541.7,252.5,541.7"/>
	<path fill="#BCC2C6" d="M445.8,653.4h-84.4c-3.2,0-6.2,1.3-8.3,3.5c-2.1,2.1-3.5,5.1-3.5,8.3c0,3.3,1.3,6.2,3.5,8.3l0,0
		c2.1,2.1,5.1,3.5,8.3,3.5h84.4c3.2,0,6.2-1.3,8.3-3.5c2.1-2.1,3.5-5.1,3.5-8.3c0-3.2-1.3-6.2-3.5-8.3
		C452,654.8,449,653.4,445.8,653.4 M361.4,641.9h84.4c6.4,0,12.2,2.6,16.5,6.9l0,0c4.2,4.2,6.9,10.1,6.9,16.5
		c0,6.4-2.6,12.3-6.9,16.5c-4.2,4.2-10.1,6.9-16.5,6.9h-84.4c-6.4,0-12.2-2.6-16.5-6.9l0,0l0,0c-4.2-4.2-6.9-10.1-6.9-16.5
		c0-6.4,2.6-12.3,6.9-16.5S355,641.9,361.4,641.9z"/>
	<path fill="#34495E" d="M356.8,632.3h84.4c6.4,0,12.3,2.6,16.5,6.9l0,0c4.2,4.2,6.9,10.1,6.9,16.5l0,0c0,6.4-2.6,12.3-6.9,16.5
		c-4.2,4.2-10.1,6.9-16.5,6.9h-84.4c-6.4,0-12.2-2.6-16.5-6.9h0l0,0c-4.2-4.2-6.9-10.1-6.9-16.5l0,0c0-6.4,2.6-12.3,6.9-16.5
		C344.6,635,350.4,632.3,356.8,632.3"/>
	<path fill="#27CABF" d="M441.2,639.3c4.4,0,8.5,1.7,11.6,4.8c3.1,3.1,4.8,7.3,4.8,11.6c0,4.4-1.7,8.5-4.8,11.6
		c-3.1,3.1-7.2,4.8-11.6,4.8h-84.4c-4.4,0-8.5-1.7-11.6-4.8l0,0c-3.1-3.1-4.8-7.2-4.8-11.6c0-4.4,1.7-8.5,4.8-11.6
		c3.1-3.1,7.2-4.8,11.6-4.8H441.2z"/>
	<path fill="#51F4E9" d="M441.2,639.3c4.4,0,8.5,1.7,11.6,4.8c3.1,3.1,4.8,7.3,4.8,11.6c0,1.1-0.1,2.2-0.3,3.3
		c-0.6-3.1-2.2-6-4.5-8.3c-3.1-3.1-7.2-4.8-11.6-4.8h-84.4c-4.4,0-8.5,1.7-11.6,4.8c-2.3,2.3-3.8,5.2-4.5,8.3
		c-0.2-1.1-0.3-2.2-0.3-3.3c0-4.4,1.7-8.5,4.8-11.6c3.1-3.1,7.2-4.8,11.6-4.8H441.2z"/>
	<path fill="#BCC2C6" d="M692.8,239.9h-84.4c-3.2,0-6.2,1.3-8.3,3.5c-2.1,2.1-3.5,5.1-3.5,8.3c0,3.3,1.3,6.2,3.5,8.3l0,0
		c2.1,2.1,5.1,3.5,8.3,3.5h84.4c3.2,0,6.2-1.3,8.3-3.5c2.1-2.1,3.5-5.1,3.5-8.3s-1.3-6.2-3.5-8.3C699,241.2,696,239.9,692.8,239.9
		 M608.4,228.3h84.4c6.4,0,12.3,2.6,16.5,6.9l0,0c4.2,4.2,6.9,10.1,6.9,16.5c0,6.4-2.6,12.3-6.9,16.5c-4.2,4.2-10.1,6.8-16.5,6.8
		h-84.4c-6.4,0-12.2-2.6-16.5-6.8v0l0,0c-4.2-4.2-6.9-10.1-6.9-16.5c0-6.4,2.6-12.3,6.9-16.5C596.2,231,602,228.3,608.4,228.3z"/>
	<path fill="#34495E" d="M603.9,218.8h84.3c6.4,0,12.3,2.6,16.5,6.9l0,0c4.2,4.2,6.9,10.1,6.9,16.5c0,6.4-2.6,12.3-6.9,16.5
		c-4.2,4.2-10.1,6.8-16.5,6.8h-84.3c-6.4,0-12.2-2.6-16.5-6.8l0,0l0,0c-4.2-4.2-6.8-10.1-6.8-16.5c0-6.4,2.6-12.3,6.8-16.5
		S597.4,218.8,603.9,218.8"/>
	<path fill="#27CABF" d="M688.2,225.8c4.4,0,8.5,1.7,11.6,4.8c3.1,3.1,4.8,7.2,4.8,11.6c0,4.4-1.7,8.5-4.8,11.6
		c-3.1,3.1-7.2,4.8-11.6,4.8h-84.3c-4.4,0-8.5-1.7-11.6-4.8l0,0c-3.1-3.1-4.8-7.2-4.8-11.6c0-4.4,1.7-8.5,4.8-11.6
		c3.1-3.1,7.2-4.8,11.6-4.8H688.2z"/>
	<path fill="#51F4E9" d="M688.2,225.8c4.4,0,8.5,1.7,11.6,4.8c3.1,3.1,4.8,7.2,4.8,11.6c0,1.1-0.1,2.2-0.3,3.3
		c-0.6-3.1-2.2-6-4.5-8.3c-3.1-3.1-7.2-4.8-11.6-4.8h-84.3c-4.4,0-8.5,1.7-11.6,4.8c-2.3,2.3-3.8,5.2-4.5,8.3
		c-0.2-1.1-0.3-2.2-0.3-3.3c0-4.4,1.7-8.5,4.8-11.6c3.1-3.1,7.2-4.8,11.6-4.8H688.2z"/>
	<path fill="#BCC2C6" d="M692.8,384h-84.4c-3.2,0-6.2,1.3-8.3,3.5c-2.1,2.1-3.5,5.1-3.5,8.3c0,3.2,1.3,6.2,3.5,8.3l0,0
		c2.1,2.1,5.1,3.4,8.3,3.4h84.4c3.2,0,6.2-1.3,8.3-3.5c2.1-2.1,3.5-5.1,3.5-8.3s-1.3-6.2-3.5-8.3C699,385.4,696,384,692.8,384
		 M608.4,372.5h84.4c6.4,0,12.3,2.6,16.5,6.9l0,0c4.2,4.2,6.9,10.1,6.9,16.5c0,6.4-2.6,12.3-6.9,16.5c-4.2,4.2-10.1,6.9-16.5,6.9
		h-84.4c-6.4,0-12.2-2.6-16.5-6.9l0,0l0,0c-4.2-4.2-6.9-10.1-6.9-16.5c0-6.4,2.6-12.3,6.9-16.5C596.2,375.1,602,372.5,608.4,372.5z"
		/>
	<path fill="#34495E" d="M603.9,362.9h84.3c6.4,0,12.3,2.6,16.5,6.8l0,0c4.2,4.2,6.9,10.1,6.9,16.5c0,6.4-2.6,12.3-6.9,16.5
		c-4.2,4.2-10.1,6.9-16.5,6.9h-84.3c-6.4,0-12.2-2.6-16.5-6.9l0,0h0c-4.2-4.2-6.8-10.1-6.8-16.5c0-6.4,2.6-12.3,6.8-16.5
		C591.6,365.6,597.4,362.9,603.9,362.9"/>
	<path fill="#27CABF" d="M688.2,369.9c4.4,0,8.5,1.7,11.6,4.8c3.1,3.1,4.8,7.3,4.8,11.6s-1.7,8.5-4.8,11.6
		c-3.1,3.1-7.2,4.8-11.6,4.8h-84.3c-4.4,0-8.5-1.7-11.6-4.8l0,0c-3.1-3.1-4.8-7.2-4.8-11.6s1.7-8.5,4.8-11.6
		c3.1-3.1,7.2-4.8,11.6-4.8H688.2z"/>
	<path fill="#51F4E9" d="M688.2,369.9c4.4,0,8.5,1.7,11.6,4.8c3.1,3.1,4.8,7.3,4.8,11.6c0,1.1-0.1,2.2-0.3,3.3
		c-0.6-3.1-2.2-6-4.5-8.3c-3.1-3.1-7.2-4.8-11.6-4.8h-84.3c-4.4,0-8.5,1.8-11.6,4.8c-2.3,2.3-3.8,5.2-4.5,8.3
		c-0.2-1.1-0.3-2.2-0.3-3.3c0-4.4,1.7-8.5,4.8-11.6c3.1-3.1,7.2-4.8,11.6-4.8H688.2z"/>
	<path fill="#BCC2C6" d="M692.8,528.2h-84.4c-3.2,0-6.2,1.3-8.3,3.5c-2.1,2.1-3.5,5.1-3.5,8.3c0,3.2,1.3,6.2,3.5,8.3l0,0
		c2.1,2.1,5.1,3.5,8.3,3.5h84.4c3.2,0,6.2-1.3,8.3-3.5c2.1-2.1,3.5-5.1,3.5-8.3c0-3.3-1.3-6.2-3.5-8.3
		C699,529.5,696,528.2,692.8,528.2 M608.4,516.6h84.4c6.4,0,12.3,2.6,16.5,6.8l0,0c4.2,4.2,6.9,10.1,6.9,16.5
		c0,6.4-2.6,12.3-6.9,16.5c-4.2,4.2-10.1,6.9-16.5,6.9h-84.4c-6.4,0-12.2-2.6-16.5-6.9v0l0,0c-4.2-4.2-6.9-10.1-6.9-16.5
		c0-6.4,2.6-12.3,6.9-16.5C596.2,519.2,602,516.6,608.4,516.6z"/>
	<path fill="#34495E" d="M603.9,507.1h84.3c6.4,0,12.3,2.6,16.5,6.9l0,0c4.2,4.2,6.9,10.1,6.9,16.5v0c0,6.4-2.6,12.3-6.9,16.5
		c-4.2,4.2-10.1,6.9-16.5,6.9h-84.3c-6.4,0-12.2-2.6-16.5-6.9l0,0l0,0c-4.2-4.2-6.8-10.1-6.8-16.5v0c0-6.4,2.6-12.3,6.8-16.5
		S597.4,507.1,603.9,507.1"/>
	<path fill="#27CABF" d="M688.2,514c4.4,0,8.5,1.7,11.6,4.8c3.1,3.1,4.8,7.2,4.8,11.6c0,4.4-1.7,8.5-4.8,11.6
		c-3.1,3.1-7.2,4.8-11.6,4.8h-84.3c-4.4,0-8.5-1.7-11.6-4.8l0,0c-3.1-3.1-4.8-7.2-4.8-11.6c0-4.4,1.7-8.5,4.8-11.6
		c3.1-3.1,7.2-4.8,11.6-4.8H688.2z"/>
	<path fill="#51F4E9" d="M688.2,514c4.4,0,8.5,1.7,11.6,4.8c3.1,3.1,4.8,7.2,4.8,11.6c0,1.1-0.1,2.2-0.3,3.3c-0.6-3.1-2.2-6-4.5-8.3
		c-3.1-3.1-7.2-4.8-11.6-4.8h-84.3c-4.4,0-8.5,1.7-11.6,4.8c-2.3,2.3-3.8,5.2-4.5,8.3c-0.2-1.1-0.3-2.2-0.3-3.3
		c0-4.4,1.7-8.5,4.8-11.6c3.1-3.1,7.2-4.8,11.6-4.8H688.2z"/>
</g>
</svg>
