<?xml version="1.0" encoding="utf-8"?>
<!-- Generator: Adobe Illustrator 15.1.0, SVG Export Plug-In . SVG Version: 6.00 Build 0)  -->
<!DOCTYPE svg PUBLIC "-//W3C//DTD SVG 1.0//EN" "http://www.w3.org/TR/2001/REC-SVG-20010904/DTD/svg10.dtd">
<svg version="1.0" id="Layer_1" xmlns="http://www.w3.org/2000/svg" xmlns:xlink="http://www.w3.org/1999/xlink" x="0px" y="0px"
	 width="800px" height="800px" viewBox="0 0 800 800" enable-background="new 0 0 800 800" xml:space="preserve">
<g id="Header">
	<path fill="#BCC2C6" d="M33.1,34.5h736.2c8.5,0,16.1,3.5,21.7,9l0,0c5.6,5.6,9,13.2,9,21.7v654.6c0,8.4-3.5,16.1-9,21.7l0,0
		c-5.6,5.6-13.2,9-21.7,9H33.1c-8.5,0-16.1-3.5-21.7-9l0,0c-5.6-5.6-9-13.2-9-21.7V65.2c0-8.4,3.5-16.1,9-21.7l0,0
		C16.9,38,24.6,34.5,33.1,34.5"/>
	<path fill="#EBEFF0" d="M788.9,65.2v654.6c0,12.3-8.6,19.6-19.6,19.6H33.1c-11,0-19.6-7-19.6-19.6V65.2c0-12.8,8.6-19.6,19.6-19.6
		h736.2C780.2,45.6,788.9,52.7,788.9,65.2"/>
	<path fill="#94A4A5" d="M677.6,72.3c7.8,0,14.2,6.4,14.2,14.2s-6.3,14.2-14.2,14.2c-7.9,0-14.2-6.3-14.2-14.2
		C663.4,78.7,669.7,72.3,677.6,72.3 M722.1,72.3c7.8,0,14.2,6.4,14.2,14.2s-6.4,14.2-14.2,14.2c-7.8,0-14.2-6.3-14.2-14.2
		C707.9,78.7,714.3,72.3,722.1,72.3z M633,72.3c7.8,0,14.2,6.4,14.2,14.2s-6.3,14.2-14.2,14.2c-7.8,0-14.2-6.4-14.2-14.2
		S625.2,72.3,633,72.3z"/>
	<text transform="matrix(1 0 0 1 225.7905 85.2969)" fill="#93A2A3" font-family="'NexaBold'" font-size="44.0749">SONGS</text>
</g>
<g id="Body">
	<path fill="#BCC2C6" d="M29.9,126.7h743.4c7.3,0,14,3,18.8,7.8c4.8,4.8,7.8,11.5,7.8,18.8v572.1c0,7.3-3,14-7.8,18.8
		c-4.8,4.8-11.5,7.8-18.8,7.8H29.9c-7.3,0-14-3-18.8-7.8c-4.8-4.8-7.8-11.5-7.8-18.8V153.4c0-7.3,3-14,7.8-18.8
		C16,129.7,22.6,126.7,29.9,126.7"/>
	<path fill-rule="evenodd" clip-rule="evenodd" fill="#FFFFFF" d="M29.9,137.9c-4.1,0-8,1.6-10.9,4.6c-2.9,2.9-4.6,6.8-4.6,10.9
		v572.1c0,4.1,1.6,8,4.6,10.9c2.9,2.9,6.8,4.6,10.9,4.6h743.4c4.1,0,8-1.6,10.9-4.6c2.9-2.9,4.6-6.8,4.6-10.9V153.4
		c0-4.1-1.6-8-4.6-10.9c-2.9-2.9-6.8-4.6-10.9-4.6H29.9z"/>
	<path fill-rule="evenodd" clip-rule="evenodd" fill="#34495E" d="M86.8,202h161.7c8,0,14.6,6.6,14.6,14.6v143.7
		c0,8-6.6,14.6-14.6,14.6H86.8c-8,0-14.6-6.6-14.6-14.6V216.6C72.2,208.5,78.7,202,86.8,202"/>
	<path fill="#22A6EF" d="M86.8,213.1h161.7c1.9,0,3.5,1.6,3.5,3.5v143.7c0,1.9-1.6,3.5-3.5,3.5H86.8c-1.9,0-3.5-1.5-3.5-3.5V216.6
		C83.3,214.7,84.9,213.1,86.8,213.1"/>
	<path fill-rule="evenodd" clip-rule="evenodd" fill="#34495E" d="M152.9,321.1c1.5-0.8,3.1-2,3.9-3c2.9-3.7,2.3-6.1,2.3-11.5
		l0-27.5l34.3-6.8l0,29.9c-0.6-0.1-0.9-0.3-1.5-0.5c-1.7-0.4-3.4-0.5-5.2-0.2c-5.5,0.9-12.1,5.9-10.2,12c1.1,3.5,5.6,5.5,10,4.8
		c4.3-0.6,7.8-2.9,9.5-5.5c1.3-2,1.5-3.2,1.5-6v-37.7l0-15.1l-42.8,8.6l0,43.7c-0.6-0.1-1.3-0.4-2.1-0.6c-9.1-1.8-17.9,6.8-14.3,13
		C141.2,323.8,148.5,323.4,152.9,321.1"/>
	<path fill-rule="evenodd" clip-rule="evenodd" fill="#BCC2C6" d="M303.1,202h417.6c5.8,0,10.5,4.7,10.5,10.5v61.2
		c0,5.8-4.7,10.5-10.5,10.5H303.1c-5.8,0-10.5-4.7-10.5-10.5v-61.2C292.6,206.7,297.3,202,303.1,202"/>
	<rect x="303.7" y="213.1" fill-rule="evenodd" clip-rule="evenodd" fill="#FFFFFF" width="416.3" height="59.9"/>
	<path fill-rule="evenodd" clip-rule="evenodd" fill="#34495E" d="M345.7,248.7h332.4c3.1,0,5.6-2.5,5.6-5.6s-2.5-5.6-5.6-5.6H345.7
		c-3.1,0-5.6,2.5-5.6,5.6S342.6,248.7,345.7,248.7"/>
	<path fill-rule="evenodd" clip-rule="evenodd" fill="#34495E" d="M412.5,220.4c12.5,0,22.7,10.2,22.7,22.7
		c0,12.5-10.2,22.7-22.7,22.7c-12.6,0-22.7-10.2-22.7-22.7C389.8,230.5,400,220.4,412.5,220.4"/>
	<path fill-rule="evenodd" clip-rule="evenodd" fill="#FFFFFF" d="M412.5,231.5c6.4,0,11.6,5.2,11.6,11.6s-5.2,11.6-11.6,11.6
		c-6.4,0-11.6-5.2-11.6-11.6S406.1,231.5,412.5,231.5"/>
	<path fill-rule="evenodd" clip-rule="evenodd" fill="#BCC2C6" d="M303.1,332.9h417.6c5.8,0,10.5,4.7,10.5,10.5v61.2
		c0,5.8-4.7,10.5-10.5,10.5H303.1c-5.8,0-10.5-4.7-10.5-10.5v-61.2C292.6,337.6,297.3,332.9,303.1,332.9"/>
	<rect x="303.7" y="344" fill-rule="evenodd" clip-rule="evenodd" fill="#FFFFFF" width="416.3" height="59.9"/>
	<path fill-rule="evenodd" clip-rule="evenodd" fill="#34495E" d="M345.7,379.5h332.4c3.1,0,5.6-2.5,5.6-5.6c0-3.1-2.5-5.6-5.6-5.6
		H345.7c-3.1,0-5.6,2.5-5.6,5.6C340.1,377,342.6,379.5,345.7,379.5"/>
	<path fill-rule="evenodd" clip-rule="evenodd" fill="#BCC2C6" d="M303.1,463.7h417.6c5.8,0,10.5,4.7,10.5,10.5v61.2
		c0,5.8-4.7,10.5-10.5,10.5H303.1c-5.8,0-10.5-4.7-10.5-10.5v-61.2C292.6,468.5,297.3,463.7,303.1,463.7"/>
	<rect x="303.7" y="474.9" fill-rule="evenodd" clip-rule="evenodd" fill="#FFFFFF" width="416.3" height="59.9"/>
	<path fill-rule="evenodd" clip-rule="evenodd" fill="#34495E" d="M345.7,510.4h332.4c3.1,0,5.6-2.5,5.6-5.6c0-3.1-2.5-5.6-5.6-5.6
		H345.7c-3.1,0-5.6,2.5-5.6,5.6C340.1,507.9,342.6,510.4,345.7,510.4"/>
	<path fill-rule="evenodd" clip-rule="evenodd" fill="#BCC2C6" d="M303.1,594.6h417.6c5.8,0,10.5,4.7,10.5,10.5v61.2
		c0,5.8-4.7,10.5-10.5,10.5H303.1c-5.8,0-10.5-4.7-10.5-10.5v-61.2C292.6,599.4,297.3,594.6,303.1,594.6"/>
	<rect x="303.7" y="605.7" fill-rule="evenodd" clip-rule="evenodd" fill="#FFFFFF" width="416.3" height="59.9"/>
	<path fill-rule="evenodd" clip-rule="evenodd" fill="#34495E" d="M345.7,641.3h332.4c3.1,0,5.6-2.5,5.6-5.6c0-3.1-2.5-5.6-5.6-5.6
		H345.7c-3.1,0-5.6,2.5-5.6,5.6C340.1,638.8,342.6,641.3,345.7,641.3"/>
</g>
</svg>
