<?xml version="1.0" encoding="utf-8"?>
<!-- Generator: Adobe Illustrator 15.1.0, SVG Export Plug-In . SVG Version: 6.00 Build 0)  -->
<!DOCTYPE svg PUBLIC "-//W3C//DTD SVG 1.0//EN" "http://www.w3.org/TR/2001/REC-SVG-20010904/DTD/svg10.dtd">
<svg version="1.0" id="Layer_1" xmlns="http://www.w3.org/2000/svg" xmlns:xlink="http://www.w3.org/1999/xlink" x="0px" y="0px"
	 width="800px" height="800px" viewBox="0 0 800 800" enable-background="new 0 0 800 800" xml:space="preserve">
<g id="Header">
	<path fill="#BCC2C6" d="M33.1,34.5h736.2c8.5,0,16.1,3.5,21.7,9l0,0c5.6,5.6,9,13.2,9,21.7v654.6c0,8.4-3.5,16.1-9,21.7l0,0
		c-5.6,5.6-13.2,9-21.7,9H33.1c-8.5,0-16.1-3.5-21.7-9l0,0c-5.6-5.6-9-13.2-9-21.7V65.2c0-8.4,3.5-16.1,9-21.7l0,0
		C16.9,38,24.6,34.5,33.1,34.5"/>
	<path fill="#EBEFF0" d="M788.9,65.2v654.6c0,12.3-8.6,19.6-19.6,19.6H33.1c-11,0-19.6-7-19.6-19.6V65.2c0-12.8,8.6-19.6,19.6-19.6
		h736.2C780.2,45.6,788.9,52.7,788.9,65.2"/>
	<path fill="#94A4A5" d="M677.6,72.3c7.8,0,14.2,6.4,14.2,14.2s-6.3,14.2-14.2,14.2c-7.9,0-14.2-6.3-14.2-14.2
		C663.4,78.7,669.7,72.3,677.6,72.3 M722.1,72.3c7.8,0,14.2,6.4,14.2,14.2s-6.4,14.2-14.2,14.2c-7.8,0-14.2-6.3-14.2-14.2
		C707.9,78.7,714.3,72.3,722.1,72.3z M633,72.3c7.8,0,14.2,6.4,14.2,14.2s-6.3,14.2-14.2,14.2c-7.8,0-14.2-6.4-14.2-14.2
		S625.2,72.3,633,72.3z"/>
	<text transform="matrix(1 0 0 1 225.7905 85.2969)" fill="#93A2A3" font-family="'NexaBold'" font-size="44.0749">SONGS</text>
</g>
<g id="Body">
	<path fill="#BCC2C6" d="M29.7,126.6h743.6c7.3,0,14,3,18.8,7.8c4.8,4.8,7.8,11.5,7.8,18.8v572.2c0,7.3-3,14-7.8,18.8
		c-4.8,4.8-11.5,7.8-18.8,7.8H29.7c-7.3,0-14-3-18.8-7.8c-4.8-4.8-7.8-11.5-7.8-18.8V153.2c0-7.3,3-14,7.8-18.8
		C15.8,129.6,22.4,126.6,29.7,126.6"/>
	<path fill-rule="evenodd" clip-rule="evenodd" fill="#FFFFFF" d="M29.7,137.8c-4.1,0-8,1.6-10.9,4.6c-2.9,2.9-4.6,6.8-4.6,10.9
		v572.2c0,4.1,1.6,8,4.6,10.9c2.9,2.9,6.8,4.6,10.9,4.6h743.6c4.1,0,8-1.6,10.9-4.6c2.9-2.9,4.6-6.8,4.6-10.9V153.2
		c0-4.1-1.6-8-4.6-10.9c-2.9-2.9-6.8-4.6-10.9-4.6H29.7z"/>
	<path fill-rule="evenodd" clip-rule="evenodd" fill="#34495E" d="M90.6,191.6h161.7c8,0,14.6,6.6,14.6,14.6v107.9
		c0,8-6.6,14.6-14.6,14.6H90.6c-8,0-14.6-6.6-14.6-14.6V206.2C76,198.2,82.6,191.6,90.6,191.6"/>
	<path fill="#22A6EF" d="M90.6,202.7h161.7c1.9,0,3.5,1.6,3.5,3.5v107.9c0,1.9-1.6,3.5-3.5,3.5H90.6c-1.9,0-3.5-1.5-3.5-3.5V206.2
		C87.1,204.3,88.7,202.7,90.6,202.7"/>
	<path fill-rule="evenodd" clip-rule="evenodd" fill="#34495E" d="M156.8,292.8c1.5-0.8,3.1-2,3.9-3c2.9-3.7,2.3-6.1,2.3-11.5
		l0-27.5l34.3-6.8l0,29.9c-0.6-0.1-0.9-0.3-1.5-0.5c-1.7-0.4-3.4-0.5-5.2-0.2c-5.5,0.9-12.1,6-10.2,12c1.1,3.5,5.6,5.5,10,4.8
		c4.3-0.6,7.8-2.9,9.5-5.5c1.3-2,1.5-3.2,1.5-6v-37.7l0-15.1l-42.8,8.6l0,43.7c-0.6-0.1-1.3-0.4-2.1-0.6c-9.1-1.8-18,6.8-14.3,13
		C145.1,295.5,152.4,295.1,156.8,292.8"/>
	<path fill-rule="evenodd" clip-rule="evenodd" fill="#BCC2C6" d="M332.8,271.3h386.9c4.1,0,7.4,3.3,7.4,7.4l0,0
		c0,4.1-3.3,7.4-7.4,7.4H332.8c-4.1,0-7.4-3.3-7.4-7.4l0,0C325.3,274.7,328.7,271.3,332.8,271.3"/>
	<path fill-rule="evenodd" clip-rule="evenodd" fill="#BCC2C6" d="M332.8,234.1h251.4c4.1,0,7.4,3.3,7.4,7.4l0,0
		c0,4.1-3.3,7.4-7.4,7.4H332.8c-4.1,0-7.4-3.3-7.4-7.4l0,0C325.3,237.4,328.7,234.1,332.8,234.1"/>
	<path fill-rule="evenodd" clip-rule="evenodd" fill="#34495E" d="M90.6,370.8h161.7c8,0,14.6,6.6,14.6,14.6v107.9
		c0,8-6.6,14.6-14.6,14.6H90.6c-8,0-14.6-6.5-14.6-14.6V385.4C76,377.4,82.6,370.8,90.6,370.8"/>
	<path fill="#22A6EF" d="M90.6,382h161.7c1.9,0,3.5,1.6,3.5,3.5v107.9c0,1.9-1.6,3.5-3.5,3.5H90.6c-1.9,0-3.5-1.5-3.5-3.5V385.4
		C87.1,383.5,88.7,382,90.6,382"/>
	<path fill-rule="evenodd" clip-rule="evenodd" fill="#34495E" d="M156.8,472c1.5-0.8,3.1-2,3.9-3c2.9-3.7,2.3-6.1,2.3-11.5l0-27.5
		l34.3-6.8l0,29.9c-0.6-0.1-0.9-0.3-1.5-0.5c-1.7-0.4-3.4-0.5-5.2-0.2c-5.5,0.9-12.1,6-10.2,12c1.1,3.5,5.6,5.5,10,4.8
		c4.3-0.6,7.8-2.9,9.5-5.5c1.3-2,1.5-3.2,1.5-6v-37.7l0-15.1l-42.8,8.6l0,43.7c-0.6-0.1-1.3-0.4-2.1-0.6c-9.1-1.8-18,6.8-14.3,13
		C145.1,474.7,152.4,474.3,156.8,472"/>
	<path fill-rule="evenodd" clip-rule="evenodd" fill="#BCC2C6" d="M332.8,450.5h386.9c4.1,0,7.4,3.3,7.4,7.4l0,0
		c0,4.1-3.3,7.4-7.4,7.4H332.8c-4.1,0-7.4-3.3-7.4-7.4l0,0C325.3,453.9,328.7,450.5,332.8,450.5"/>
	<path fill-rule="evenodd" clip-rule="evenodd" fill="#BCC2C6" d="M332.8,413.3h251.4c4.1,0,7.4,3.3,7.4,7.4l0,0
		c0,4.1-3.3,7.4-7.4,7.4H332.8c-4.1,0-7.4-3.3-7.4-7.4l0,0C325.3,416.7,328.7,413.3,332.8,413.3"/>
	<path fill-rule="evenodd" clip-rule="evenodd" fill="#34495E" d="M90.6,550.1h161.7c8,0,14.6,6.6,14.6,14.6v107.9
		c0,8-6.6,14.6-14.6,14.6H90.6c-8,0-14.6-6.5-14.6-14.6V564.6C76,556.6,82.6,550.1,90.6,550.1"/>
	<path fill="#22A6EF" d="M90.6,561.2h161.7c1.9,0,3.5,1.6,3.5,3.5v107.9c0,1.9-1.6,3.5-3.5,3.5H90.6c-1.9,0-3.5-1.5-3.5-3.5V564.6
		C87.1,562.7,88.7,561.2,90.6,561.2"/>
	<path fill-rule="evenodd" clip-rule="evenodd" fill="#34495E" d="M156.8,651.2c1.5-0.8,3.1-2,3.9-3c2.9-3.7,2.3-6.1,2.3-11.5
		l0-27.5l34.3-6.8l0,29.9c-0.6-0.1-0.9-0.3-1.5-0.5c-1.7-0.4-3.4-0.5-5.2-0.2c-5.5,0.9-12.1,6-10.2,12c1.1,3.5,5.6,5.5,10,4.8
		c4.3-0.6,7.8-2.9,9.5-5.5c1.3-2,1.5-3.2,1.5-6v-37.7l0-15.1l-42.8,8.6l0,43.7c-0.6-0.1-1.3-0.4-2.1-0.6c-9.1-1.8-18,6.8-14.3,13
		C145.1,653.9,152.4,653.5,156.8,651.2"/>
	<path fill-rule="evenodd" clip-rule="evenodd" fill="#BCC2C6" d="M332.8,629.8h386.9c4.1,0,7.4,3.3,7.4,7.4l0,0
		c0,4.1-3.3,7.4-7.4,7.4H332.8c-4.1,0-7.4-3.3-7.4-7.4l0,0C325.3,633.1,328.7,629.8,332.8,629.8"/>
	<path fill-rule="evenodd" clip-rule="evenodd" fill="#BCC2C6" d="M332.8,592.5h251.4c4.1,0,7.4,3.4,7.4,7.4l0,0
		c0,4.1-3.3,7.4-7.4,7.4H332.8c-4.1,0-7.4-3.3-7.4-7.4l0,0C325.3,595.9,328.7,592.5,332.8,592.5"/>
</g>
</svg>
