<?xml version="1.0" encoding="utf-8"?>
<!-- Generator: Adobe Illustrator 15.1.0, SVG Export Plug-In . SVG Version: 6.00 Build 0)  -->
<!DOCTYPE svg PUBLIC "-//W3C//DTD SVG 1.0//EN" "http://www.w3.org/TR/2001/REC-SVG-20010904/DTD/svg10.dtd">
<svg version="1.0" id="Layer_1" xmlns="http://www.w3.org/2000/svg" xmlns:xlink="http://www.w3.org/1999/xlink" x="0px" y="0px"
	 width="800px" height="800px" viewBox="0 0 800 800" enable-background="new 0 0 800 800" xml:space="preserve">
<g id="Header">
	<path fill="#BCC2C6" d="M33.1,34.5h736.2c8.5,0,16.1,3.5,21.7,9l0,0c5.6,5.6,9,13.2,9,21.7v654.6c0,8.4-3.5,16.1-9,21.7l0,0
		c-5.6,5.6-13.2,9-21.7,9H33.1c-8.5,0-16.1-3.5-21.7-9l0,0c-5.6-5.6-9-13.2-9-21.7V65.2c0-8.4,3.5-16.1,9-21.7l0,0
		C16.9,38,24.6,34.5,33.1,34.5"/>
	<path fill="#EBEFF0" d="M788.9,65.2v654.6c0,12.3-8.6,19.6-19.6,19.6H33.1c-11,0-19.6-7-19.6-19.6V65.2c0-12.8,8.6-19.6,19.6-19.6
		h736.2C780.2,45.6,788.9,52.7,788.9,65.2"/>
	<path fill="#94A4A5" d="M677.6,72.3c7.8,0,14.2,6.4,14.2,14.2s-6.3,14.2-14.2,14.2c-7.9,0-14.2-6.3-14.2-14.2
		C663.4,78.7,669.7,72.3,677.6,72.3 M722.1,72.3c7.8,0,14.2,6.4,14.2,14.2s-6.4,14.2-14.2,14.2c-7.8,0-14.2-6.3-14.2-14.2
		C707.9,78.7,714.3,72.3,722.1,72.3z M633,72.3c7.8,0,14.2,6.4,14.2,14.2s-6.3,14.2-14.2,14.2c-7.8,0-14.2-6.4-14.2-14.2
		S625.2,72.3,633,72.3z"/>
	<text transform="matrix(1 0 0 1 225.7905 85.2969)" fill="#93A2A3" font-family="'NexaBold'" font-size="44.0749">SONGS</text>
</g>
<g id="Body">
	<path fill="#BCC2C6" d="M30.2,127h743.2c7.3,0,14,3,18.8,7.8c4.8,4.8,7.8,11.5,7.8,18.8v571.9c0,7.3-3,14-7.8,18.8
		c-4.8,4.8-11.5,7.8-18.8,7.8H30.2c-7.3,0-14-3-18.8-7.8c-4.8-4.8-7.8-11.5-7.8-18.8V153.6c0-7.3,3-14,7.8-18.8
		C16.2,129.9,22.8,127,30.2,127"/>
	<path fill-rule="evenodd" clip-rule="evenodd" fill="#FFFFFF" d="M30.2,138.1c-4.1,0-8,1.6-10.9,4.6c-2.9,2.9-4.6,6.8-4.6,10.9
		v571.9c0,4.1,1.7,8,4.6,10.9c2.9,2.9,6.8,4.6,10.9,4.6h743.2c4.1,0,8-1.6,10.9-4.6c2.9-2.9,4.6-6.8,4.6-10.9V153.6
		c0-4.1-1.6-8-4.6-10.9c-2.9-2.9-6.8-4.6-10.9-4.6H30.2z"/>
	<path fill-rule="evenodd" clip-rule="evenodd" fill="#34495E" d="M111.7,208.2h580.2c8,0,14.6,6.6,14.6,14.6v433.6
		c0,8-6.6,14.6-14.6,14.6H111.7c-8,0-14.6-6.5-14.6-14.6V222.7C97.1,214.7,103.7,208.2,111.7,208.2"/>
	<path fill="#FFFFFF" d="M111.7,219.3h580.2c1.9,0,3.4,1.6,3.4,3.5v433.6c0,1.9-1.6,3.5-3.4,3.5H111.7c-1.9,0-3.4-1.6-3.4-3.5V222.7
		C108.2,220.9,109.8,219.3,111.7,219.3"/>
	<path fill-rule="evenodd" clip-rule="evenodd" fill="#34495E" d="M111.7,208.2h580.2c8,0,14.6,6.6,14.6,14.6v349.2
		c0,8-6.6,14.6-14.6,14.6H111.7c-8,0-14.6-6.6-14.6-14.6V222.7C97.1,214.7,103.7,208.2,111.7,208.2"/>
	<path fill="#22A6EF" d="M111.7,219.3h580.2c1.9,0,3.4,1.6,3.4,3.5v349.2c0,1.9-1.6,3.5-3.4,3.5H111.7c-1.9,0-3.4-1.6-3.4-3.5V222.7
		C108.2,220.9,109.8,219.3,111.7,219.3"/>
	<path fill-rule="evenodd" clip-rule="evenodd" fill="#34495E" d="M158.4,629.3h486.7c3.1,0,5.6-2.5,5.6-5.6c0-3.1-2.5-5.6-5.6-5.6
		H158.4c-3.1,0-5.6,2.5-5.6,5.6C152.9,626.9,155.4,629.3,158.4,629.3"/>
	<path fill-rule="evenodd" clip-rule="evenodd" fill="#34495E" d="M225.3,601.1c12.6,0,22.7,10.2,22.7,22.7
		c0,12.5-10.2,22.7-22.7,22.7c-12.5,0-22.7-10.2-22.7-22.7C202.6,611.2,212.7,601.1,225.3,601.1"/>
	<path fill-rule="evenodd" clip-rule="evenodd" fill="#FFFFFF" d="M225.3,612.2c6.4,0,11.6,5.2,11.6,11.6c0,6.4-5.2,11.6-11.6,11.6
		c-6.4,0-11.6-5.2-11.6-11.6C213.7,617.4,218.9,612.2,225.3,612.2"/>
	<path fill-rule="evenodd" clip-rule="evenodd" fill="#34495E" d="M376.8,452.9c2.6-1.3,5.3-3.4,6.6-5.1c4.9-6.3,3.8-10.3,3.8-19.6
		l0.1-46.8l58.2-11.5l0,50.9c-0.9-0.2-1.6-0.6-2.6-0.8c-2.9-0.7-5.8-0.8-8.8-0.3c-9.4,1.5-20.5,10.1-17.3,20.4
		c1.9,5.9,9.5,9.4,17.1,8.2c7.2-1.1,13.3-4.9,16.2-9.3c2.2-3.4,2.6-5.4,2.6-10.2v-64l0-25.6l-72.7,14.7l0,74.3c-1-0.1-2.2-0.7-3.5-1
		c-15.5-3.1-30.5,11.6-24.3,22.1C357,457.4,369.4,456.8,376.8,452.9"/>
</g>
</svg>
