<?xml version="1.0" encoding="utf-8"?>
<!-- Generator: Adobe Illustrator 15.1.0, SVG Export Plug-In . SVG Version: 6.00 Build 0)  -->
<!DOCTYPE svg PUBLIC "-//W3C//DTD SVG 1.0//EN" "http://www.w3.org/TR/2001/REC-SVG-20010904/DTD/svg10.dtd">
<svg version="1.0" id="Layer_1" xmlns="http://www.w3.org/2000/svg" xmlns:xlink="http://www.w3.org/1999/xlink" x="0px" y="0px"
	 width="800px" height="800px" viewBox="0 0 800 800" enable-background="new 0 0 800 800" xml:space="preserve">
<g id="Header">
	<path fill="#BCC2C6" d="M33.1,34.5h736.2c8.5,0,16.1,3.5,21.7,9l0,0c5.6,5.6,9,13.2,9,21.7v654.6c0,8.4-3.5,16.1-9,21.7l0,0
		c-5.6,5.6-13.2,9-21.7,9H33.1c-8.5,0-16.1-3.5-21.7-9l0,0c-5.6-5.6-9-13.2-9-21.7V65.2c0-8.4,3.5-16.1,9-21.7l0,0
		C16.9,38,24.6,34.5,33.1,34.5"/>
	<path fill="#EBEFF0" d="M788.9,65.2v654.6c0,12.3-8.6,19.6-19.6,19.6H33.1c-11,0-19.6-7-19.6-19.6V65.2c0-12.8,8.6-19.6,19.6-19.6
		h736.2C780.2,45.6,788.9,52.7,788.9,65.2"/>
	<path fill="#94A4A5" d="M677.6,72.3c7.8,0,14.2,6.4,14.2,14.2s-6.3,14.2-14.2,14.2c-7.9,0-14.2-6.3-14.2-14.2
		C663.4,78.7,669.7,72.3,677.6,72.3 M722.1,72.3c7.8,0,14.2,6.4,14.2,14.2s-6.4,14.2-14.2,14.2c-7.8,0-14.2-6.3-14.2-14.2
		C707.9,78.7,714.3,72.3,722.1,72.3z M633,72.3c7.8,0,14.2,6.4,14.2,14.2s-6.3,14.2-14.2,14.2c-7.8,0-14.2-6.4-14.2-14.2
		S625.2,72.3,633,72.3z"/>
	<text transform="matrix(1 0 0 1 135.0415 85.2969)" fill="#93A2A3" font-family="'NexaBold'" font-size="44.0749">UPLOAD IMAGE</text>
</g>
<g id="Body">
	<path fill="#BCC2C6" d="M30.6,127.2h742.8c7.3,0,14,3,18.8,7.8c4.8,4.8,7.8,11.5,7.8,18.8v571.6c0,7.3-3,14-7.8,18.8
		c-4.8,4.8-11.5,7.8-18.8,7.8H30.6c-7.3,0-14-3-18.8-7.8C7,739.3,4,732.7,4,725.4V153.8c0-7.3,3-14,7.8-18.8
		C16.6,130.1,23.3,127.2,30.6,127.2"/>
	<path fill-rule="evenodd" clip-rule="evenodd" fill="#FFFFFF" d="M30.6,138.3c-4.1,0-8,1.6-10.9,4.6c-2.9,2.9-4.6,6.8-4.6,10.9
		v571.6c0,4.1,1.7,8,4.6,10.9c2.9,2.9,6.8,4.6,10.9,4.6h742.8c4.1,0,8-1.6,10.9-4.6c2.9-2.9,4.6-6.8,4.6-10.9V153.8
		c0-4.1-1.6-8-4.6-10.9c-2.9-2.9-6.8-4.6-10.9-4.6H30.6z"/>
	<path fill-rule="evenodd" clip-rule="evenodd" fill="#34495E" d="M96,217.7h267.3c8,0,14.6,6.6,14.6,14.6v160.3
		c0,8-6.6,14.6-14.6,14.6H96c-8,0-14.6-6.5-14.6-14.6V232.3C81.4,224.3,87.9,217.7,96,217.7"/>
	<path fill="#22A6EF" d="M96,228.8h267.3c1.9,0,3.5,1.5,3.5,3.5v160.3c0,1.9-1.6,3.5-3.5,3.5H96c-1.9,0-3.5-1.6-3.5-3.5V232.3
		C92.5,230.4,94,228.8,96,228.8"/>
	<path fill-rule="evenodd" clip-rule="evenodd" fill="#BCC2C6" d="M697.9,405.3c-2.2,0-3.9-1.8-3.9-4c0-2.2,1.8-3.9,3.9-3.9h2.3
		c2.2,0,3.9,1.8,3.9,3.9c0,2.2-1.8,4-3.9,4H697.9z M684.4,405.3c-2.2,0-3.9-1.8-3.9-4c0-2.2,1.8-3.9,3.9-3.9h2.2
		c2.2,0,3.9,1.8,3.9,3.9c0,2.2-1.8,4-3.9,4H684.4z M671,405.3c-2.2,0-4-1.8-4-4c0-2.2,1.8-3.9,4-3.9h2.2c2.2,0,3.9,1.8,3.9,3.9
		c0,2.2-1.8,4-3.9,4H671z M657.5,405.3c-2.2,0-3.9-1.8-3.9-4c0-2.2,1.8-3.9,3.9-3.9h2.2c2.2,0,3.9,1.8,3.9,3.9c0,2.2-1.8,4-3.9,4
		H657.5z M644.1,405.3c-2.2,0-3.9-1.8-3.9-4c0-2.2,1.8-3.9,3.9-3.9h2.2c2.2,0,3.9,1.8,3.9,3.9c0,2.2-1.8,4-3.9,4H644.1z
		 M630.6,405.3c-2.2,0-3.9-1.8-3.9-4c0-2.2,1.8-3.9,3.9-3.9h2.2c2.2,0,4,1.8,4,3.9c0,2.2-1.8,4-4,4H630.6z M617.2,405.3
		c-2.2,0-3.9-1.8-3.9-4c0-2.2,1.8-3.9,3.9-3.9h2.2c2.2,0,3.9,1.8,3.9,3.9c0,2.2-1.8,4-3.9,4H617.2z M603.7,405.3
		c-2.2,0-3.9-1.8-3.9-4c0-2.2,1.8-3.9,3.9-3.9h2.3c2.2,0,3.9,1.8,3.9,3.9c0,2.2-1.8,4-3.9,4H603.7z M590.3,405.3
		c-2.2,0-3.9-1.8-3.9-4c0-2.2,1.8-3.9,3.9-3.9h2.2c2.2,0,3.9,1.8,3.9,3.9c0,2.2-1.8,4-3.9,4H590.3z M576.8,405.3
		c-2.2,0-3.9-1.8-3.9-4c0-2.2,1.8-3.9,3.9-3.9h2.2c2.2,0,3.9,1.8,3.9,3.9c0,2.2-1.8,4-3.9,4H576.8z M563.4,405.3
		c-2.2,0-3.9-1.8-3.9-4c0-2.2,1.8-3.9,3.9-3.9h2.2c2.2,0,4,1.8,4,3.9c0,2.2-1.8,4-4,4H563.4z M549.9,405.3c-2.2,0-3.9-1.8-3.9-4
		c0-2.2,1.8-3.9,3.9-3.9h2.2c2.2,0,3.9,1.8,3.9,3.9c0,2.2-1.8,4-3.9,4H549.9z M536.5,405.3c-2.2,0-3.9-1.8-3.9-4
		c0-2.2,1.8-3.9,3.9-3.9h2.3c2.2,0,3.9,1.8,3.9,3.9c0,2.2-1.8,4-3.9,4H536.5z M523,405.3c-2.2,0-3.9-1.8-3.9-4
		c0-2.2,1.8-3.9,3.9-3.9h2.2c2.2,0,3.9,1.8,3.9,3.9c0,2.2-1.8,4-3.9,4H523z M509.6,405.3c-2.2,0-4-1.8-4-4c0-2.2,1.8-3.9,4-3.9h2.2
		c2.2,0,3.9,1.8,3.9,3.9c0,2.2-1.8,4-3.9,4H509.6z M496.1,405.3c-2.2,0-3.9-1.8-3.9-4c0-2.2,1.8-3.9,3.9-3.9h2.2
		c2.2,0,3.9,1.8,3.9,3.9c0,2.2-1.8,4-3.9,4H496.1z M482.7,405.3c-2.2,0-3.9-1.8-3.9-4c0-2.2,1.8-3.9,3.9-3.9h2.2
		c2.2,0,3.9,1.8,3.9,3.9c0,2.2-1.8,4-3.9,4H482.7z M469.2,405.3c-2.2,0-3.9-1.8-3.9-4c0-2.2,1.8-3.9,3.9-3.9h2.2c2.2,0,4,1.8,4,3.9
		c0,2.2-1.8,4-4,4H469.2z M455.8,405.3c-2.2,0-3.9-1.8-3.9-4c0-2.2,1.8-3.9,3.9-3.9h2.2c2.2,0,3.9,1.8,3.9,3.9c0,2.2-1.8,4-3.9,4
		H455.8z M444.9,397.2l0.5,0.1c2.1,0.4,3.5,2.5,3.1,4.6c-0.4,2.1-2.5,3.5-4.7,3.1l-2.1-0.6l-0.9-0.4c-2-0.9-2.8-3.3-1.8-5.3
		c0.9-2,3.3-2.8,5.2-1.9L444.9,397.2z M433.6,388.9c0-2.2,1.8-4,3.9-4c2.2,0,3.9,1.8,3.9,4v2.2c0,2.2-1.8,3.9-3.9,3.9
		c-2.2,0-3.9-1.8-3.9-3.9V388.9z M433.6,375.5c0-2.2,1.8-3.9,3.9-3.9c2.2,0,3.9,1.8,3.9,3.9v2.2c0,2.2-1.8,3.9-3.9,3.9
		c-2.2,0-3.9-1.8-3.9-3.9V375.5z M433.6,362c0-2.2,1.8-3.9,3.9-3.9c2.2,0,3.9,1.8,3.9,3.9v2.2c0,2.2-1.8,3.9-3.9,3.9
		c-2.2,0-3.9-1.8-3.9-3.9V362z M433.6,348.6c0-2.2,1.8-3.9,3.9-3.9c2.2,0,3.9,1.8,3.9,3.9v2.2c0,2.2-1.8,4-3.9,4
		c-2.2,0-3.9-1.8-3.9-4V348.6z M433.6,335.1c0-2.2,1.8-3.9,3.9-3.9c2.2,0,3.9,1.8,3.9,3.9v2.2c0,2.2-1.8,3.9-3.9,3.9
		c-2.2,0-3.9-1.8-3.9-3.9V335.1z M433.6,321.7c0-2.2,1.8-3.9,3.9-3.9c2.2,0,3.9,1.8,3.9,3.9v2.3c0,2.2-1.8,3.9-3.9,3.9
		c-2.2,0-3.9-1.8-3.9-3.9V321.7z M433.6,308.2c0-2.2,1.8-3.9,3.9-3.9c2.2,0,3.9,1.8,3.9,3.9v2.2c0,2.2-1.8,3.9-3.9,3.9
		c-2.2,0-3.9-1.8-3.9-3.9V308.2z M433.6,294.8c0-2.2,1.8-4,3.9-4c2.2,0,3.9,1.8,3.9,4v2.2c0,2.2-1.8,3.9-3.9,3.9
		c-2.2,0-3.9-1.8-3.9-3.9V294.8z M433.6,281.3c0-2.2,1.8-3.9,3.9-3.9c2.2,0,3.9,1.8,3.9,3.9v2.3c0,2.2-1.8,3.9-3.9,3.9
		c-2.2,0-3.9-1.8-3.9-3.9V281.3z M433.6,267.9c0-2.2,1.8-3.9,3.9-3.9c2.2,0,3.9,1.8,3.9,3.9v2.2c0,2.2-1.8,3.9-3.9,3.9
		c-2.2,0-3.9-1.8-3.9-3.9V267.9z M433.6,254.4c0-2.2,1.8-3.9,3.9-3.9c2.2,0,3.9,1.8,3.9,3.9v2.3c0,2.2-1.8,3.9-3.9,3.9
		c-2.2,0-3.9-1.8-3.9-3.9V254.4z M433.6,241c0-2.2,1.8-3.9,3.9-3.9c2.2,0,3.9,1.8,3.9,3.9v2.2c0,2.2-1.8,3.9-3.9,3.9
		c-2.2,0-3.9-1.8-3.9-3.9V241z M435.4,225.7c1.1-1.9,3.6-2.5,5.4-1.3c1.8,1.1,2.4,3.5,1.3,5.4l-0.3,0.6l-0.2,0.6
		c-0.6,2.1-2.8,3.2-4.9,2.6c-2.1-0.6-3.3-2.8-2.6-4.9l0.7-1.9L435.4,225.7z M450.7,219.6c2.2,0,3.9,1.8,3.9,4c0,2.2-1.8,3.9-3.9,3.9
		h-2.2c-2.2,0-3.9-1.8-3.9-3.9c0-2.2,1.8-4,3.9-4H450.7z M464.2,219.6c2.2,0,3.9,1.8,3.9,4c0,2.2-1.8,3.9-3.9,3.9h-2.3
		c-2.2,0-3.9-1.8-3.9-3.9c0-2.2,1.8-4,3.9-4H464.2z M477.6,219.6c2.2,0,3.9,1.8,3.9,4c0,2.2-1.8,3.9-3.9,3.9h-2.2
		c-2.2,0-3.9-1.8-3.9-3.9c0-2.2,1.8-4,3.9-4H477.6z M491.1,219.6c2.2,0,3.9,1.8,3.9,4c0,2.2-1.8,3.9-3.9,3.9h-2.3
		c-2.2,0-3.9-1.8-3.9-3.9c0-2.2,1.8-4,3.9-4H491.1z M504.5,219.6c2.2,0,3.9,1.8,3.9,4c0,2.2-1.8,3.9-3.9,3.9h-2.2
		c-2.2,0-3.9-1.8-3.9-3.9c0-2.2,1.8-4,3.9-4H504.5z M518,219.6c2.2,0,4,1.8,4,4c0,2.2-1.8,3.9-4,3.9h-2.2c-2.2,0-3.9-1.8-3.9-3.9
		c0-2.2,1.8-4,3.9-4H518z M531.4,219.6c2.2,0,3.9,1.8,3.9,4c0,2.2-1.8,3.9-3.9,3.9h-2.2c-2.2,0-4-1.8-4-3.9c0-2.2,1.8-4,4-4H531.4z
		 M544.9,219.6c2.2,0,3.9,1.8,3.9,4c0,2.2-1.8,3.9-3.9,3.9h-2.2c-2.2,0-3.9-1.8-3.9-3.9c0-2.2,1.8-4,3.9-4H544.9z M558.3,219.6
		c2.2,0,3.9,1.8,3.9,4c0,2.2-1.8,3.9-3.9,3.9h-2.3c-2.2,0-3.9-1.8-3.9-3.9c0-2.2,1.8-4,3.9-4H558.3z M571.8,219.6
		c2.2,0,3.9,1.8,3.9,4c0,2.2-1.8,3.9-3.9,3.9h-2.2c-2.2,0-4-1.8-4-3.9c0-2.2,1.8-4,4-4H571.8z M585.2,219.6c2.2,0,4,1.8,4,4
		c0,2.2-1.8,3.9-4,3.9H583c-2.2,0-3.9-1.8-3.9-3.9c0-2.2,1.8-4,3.9-4H585.2z M598.7,219.6c2.2,0,3.9,1.8,3.9,4
		c0,2.2-1.8,3.9-3.9,3.9h-2.3c-2.2,0-3.9-1.8-3.9-3.9c0-2.2,1.8-4,3.9-4H598.7z M612.1,219.6c2.2,0,3.9,1.8,3.9,4
		c0,2.2-1.8,3.9-3.9,3.9h-2.2c-2.2,0-3.9-1.8-3.9-3.9c0-2.2,1.8-4,3.9-4H612.1z M625.6,219.6c2.2,0,3.9,1.8,3.9,4
		c0,2.2-1.8,3.9-3.9,3.9h-2.2c-2.2,0-4-1.8-4-3.9c0-2.2,1.8-4,4-4H625.6z M639,219.6c2.2,0,3.9,1.8,3.9,4c0,2.2-1.8,3.9-3.9,3.9
		h-2.2c-2.2,0-3.9-1.8-3.9-3.9c0-2.2,1.8-4,3.9-4H639z M652.5,219.6c2.2,0,3.9,1.8,3.9,4c0,2.2-1.8,3.9-3.9,3.9h-2.3
		c-2.2,0-3.9-1.8-3.9-3.9c0-2.2,1.8-4,3.9-4H652.5z M665.9,219.6c2.2,0,3.9,1.8,3.9,4c0,2.2-1.8,3.9-3.9,3.9h-2.2
		c-2.2,0-4-1.8-4-3.9c0-2.2,1.8-4,4-4H665.9z M679.4,219.6c2.2,0,4,1.8,4,4c0,2.2-1.8,3.9-4,3.9h-2.2c-2.2,0-3.9-1.8-3.9-3.9
		c0-2.2,1.8-4,3.9-4H679.4z M692.8,219.6c2.2,0,3.9,1.8,3.9,4c0,2.2-1.8,3.9-3.9,3.9h-2.3c-2.2,0-3.9-1.8-3.9-3.9c0-2.2,1.8-4,3.9-4
		H692.8z M706.3,219.6c2.2,0,3.9,1.8,3.9,4c0,2.2-1.8,3.9-3.9,3.9H704c-2.2,0-3.9-1.8-3.9-3.9c0-2.2,1.8-4,3.9-4H706.3z
		 M716.6,228.5l-0.3-0.2l-0.3-0.2l-0.3-0.2c-2-0.9-2.8-3.3-1.8-5.3c0.9-2,3.3-2.8,5.2-1.8l1.4,0.8l1.4,1c1.7,1.4,1.8,3.9,0.4,5.6
		c-1.4,1.7-3.9,1.8-5.5,0.5L716.6,228.5z M726.3,238.1c0,2.2-1.8,3.9-3.9,3.9c-2.2,0-3.9-1.8-3.9-3.9v-2.2c0-2.2,1.8-4,3.9-4
		c2.2,0,3.9,1.8,3.9,4V238.1z M726.3,251.6c0,2.2-1.8,3.9-3.9,3.9c-2.2,0-3.9-1.8-3.9-3.9v-2.2c0-2.2,1.8-3.9,3.9-3.9
		c2.2,0,3.9,1.8,3.9,3.9V251.6z M726.3,265c0,2.2-1.8,3.9-3.9,3.9c-2.2,0-3.9-1.8-3.9-3.9v-2.2c0-2.2,1.8-3.9,3.9-3.9
		c2.2,0,3.9,1.8,3.9,3.9V265z M726.3,278.5c0,2.2-1.8,3.9-3.9,3.9c-2.2,0-3.9-1.8-3.9-3.9v-2.2c0-2.2,1.8-4,3.9-4
		c2.2,0,3.9,1.8,3.9,4V278.5z M726.3,291.9c0,2.2-1.8,3.9-3.9,3.9c-2.2,0-3.9-1.8-3.9-3.9v-2.2c0-2.2,1.8-3.9,3.9-3.9
		c2.2,0,3.9,1.8,3.9,3.9V291.9z M726.3,305.4c0,2.2-1.8,3.9-3.9,3.9c-2.2,0-3.9-1.8-3.9-3.9v-2.3c0-2.2,1.8-3.9,3.9-3.9
		c2.2,0,3.9,1.8,3.9,3.9V305.4z M726.3,318.8c0,2.2-1.8,3.9-3.9,3.9c-2.2,0-3.9-1.8-3.9-3.9v-2.2c0-2.2,1.8-3.9,3.9-3.9
		c2.2,0,3.9,1.8,3.9,3.9V318.8z M726.3,332.3c0,2.2-1.8,4-3.9,4c-2.2,0-3.9-1.8-3.9-4V330c0-2.2,1.8-3.9,3.9-3.9
		c2.2,0,3.9,1.8,3.9,3.9V332.3z M726.3,345.7c0,2.2-1.8,3.9-3.9,3.9c-2.2,0-3.9-1.8-3.9-3.9v-2.3c0-2.2,1.8-3.9,3.9-3.9
		c2.2,0,3.9,1.8,3.9,3.9V345.7z M726.3,359.2c0,2.2-1.8,3.9-3.9,3.9c-2.2,0-3.9-1.8-3.9-3.9v-2.2c0-2.2,1.8-3.9,3.9-3.9
		c2.2,0,3.9,1.8,3.9,3.9V359.2z M726.3,372.6c0,2.2-1.8,3.9-3.9,3.9c-2.2,0-3.9-1.8-3.9-3.9v-2.3c0-2.2,1.8-3.9,3.9-3.9
		c2.2,0,3.9,1.8,3.9,3.9V372.6z M726.3,386.1c0,2.2-1.8,3.9-3.9,3.9c-2.2,0-3.9-1.8-3.9-3.9v-2.2c0-2.2,1.8-3.9,3.9-3.9
		c2.2,0,3.9,1.8,3.9,3.9V386.1z M715.8,398.1c0.1-0.8,0.5-1.5,1.1-2.1l0.4-0.5l0.2-0.3l0.2-0.2c1.1-1.9,3.5-2.5,5.3-1.4
		c1.9,1.1,2.5,3.5,1.4,5.3l-0.9,1.3l-1,1.2l-0.1,0.1c-1.4,1.4-3.5,1.5-5.1,0.4c-0.3,1.8-1.9,3.3-3.9,3.3h-2.2c-2.2,0-4-1.8-4-4
		c0-2.2,1.8-3.9,4-3.9h2.2C714.4,397.4,715.2,397.7,715.8,398.1z"/>
	<path fill-rule="evenodd" clip-rule="evenodd" fill="#BCC2C6" d="M579.9,283.9l7.9,7.9l14.3,14.3c2.2,2.2,2.2,5.7,0,7.9
		c-2.2,2.2-5.7,2.2-7.9,0l-8.8-8.8v35.8h-11.1v-35.8l-8.8,8.8c-2.2,2.2-5.7,2.2-7.9,0c-2.2-2.2-2.2-5.7,0-7.9l14.4-14.3L579.9,283.9
		z"/>
	<path fill-rule="evenodd" clip-rule="evenodd" fill="#BCC2C6" d="M347.5,663c-2.2,0-4-1.8-4-4c0-2.2,1.8-3.9,4-3.9h2.2
		c2.2,0,3.9,1.8,3.9,3.9c0,2.2-1.8,4-3.9,4H347.5z M334.1,663c-2.2,0-3.9-1.8-3.9-4c0-2.2,1.8-3.9,3.9-3.9h2.2
		c2.2,0,3.9,1.8,3.9,3.9c0,2.2-1.8,4-3.9,4H334.1z M320.6,663c-2.2,0-3.9-1.8-3.9-4c0-2.2,1.8-3.9,3.9-3.9h2.3
		c2.2,0,3.9,1.8,3.9,3.9c0,2.2-1.8,4-3.9,4H320.6z M307.2,663c-2.2,0-3.9-1.8-3.9-4c0-2.2,1.8-3.9,3.9-3.9h2.2c2.2,0,4,1.8,4,3.9
		c0,2.2-1.8,4-4,4H307.2z M293.7,663c-2.2,0-3.9-1.8-3.9-4c0-2.2,1.8-3.9,3.9-3.9h2.2c2.2,0,3.9,1.8,3.9,3.9c0,2.2-1.8,4-3.9,4
		H293.7z M280.3,663c-2.2,0-3.9-1.8-3.9-4c0-2.2,1.8-3.9,3.9-3.9h2.2c2.2,0,4,1.8,4,3.9c0,2.2-1.8,4-4,4H280.3z M266.8,663
		c-2.2,0-3.9-1.8-3.9-4c0-2.2,1.8-3.9,3.9-3.9h2.2c2.2,0,3.9,1.8,3.9,3.9c0,2.2-1.8,4-3.9,4H266.8z M253.4,663c-2.2,0-4-1.8-4-4
		c0-2.2,1.8-3.9,4-3.9h2.2c2.2,0,3.9,1.8,3.9,3.9c0,2.2-1.8,4-3.9,4H253.4z M239.9,663c-2.2,0-3.9-1.8-3.9-4c0-2.2,1.8-3.9,3.9-3.9
		h2.2c2.2,0,3.9,1.8,3.9,3.9c0,2.2-1.8,4-3.9,4H239.9z M226.5,663c-2.2,0-3.9-1.8-3.9-4c0-2.2,1.8-3.9,3.9-3.9h2.2
		c2.2,0,3.9,1.8,3.9,3.9c0,2.2-1.8,4-3.9,4H226.5z M213,663c-2.2,0-3.9-1.8-3.9-4c0-2.2,1.8-3.9,3.9-3.9h2.3c2.2,0,3.9,1.8,3.9,3.9
		c0,2.2-1.8,4-3.9,4H213z M199.6,663c-2.2,0-3.9-1.8-3.9-4c0-2.2,1.8-3.9,3.9-3.9h2.2c2.2,0,3.9,1.8,3.9,3.9c0,2.2-1.8,4-3.9,4
		H199.6z M186.1,663c-2.2,0-3.9-1.8-3.9-4c0-2.2,1.8-3.9,3.9-3.9h2.3c2.2,0,3.9,1.8,3.9,3.9c0,2.2-1.8,4-3.9,4H186.1z M172.7,663
		c-2.2,0-3.9-1.8-3.9-4c0-2.2,1.8-3.9,3.9-3.9h2.2c2.2,0,3.9,1.8,3.9,3.9c0,2.2-1.8,4-3.9,4H172.7z M159.2,663c-2.2,0-3.9-1.8-3.9-4
		c0-2.2,1.8-3.9,3.9-3.9h2.3c2.2,0,3.9,1.8,3.9,3.9c0,2.2-1.8,4-3.9,4H159.2z M145.8,663c-2.2,0-3.9-1.8-3.9-4
		c0-2.2,1.8-3.9,3.9-3.9h2.2c2.2,0,3.9,1.8,3.9,3.9c0,2.2-1.8,4-3.9,4H145.8z M132.3,663c-2.2,0-3.9-1.8-3.9-4
		c0-2.2,1.8-3.9,3.9-3.9h2.2c2.2,0,3.9,1.8,3.9,3.9c0,2.2-1.8,4-3.9,4H132.3z M118.9,663c-2.2,0-3.9-1.8-3.9-4
		c0-2.2,1.8-3.9,3.9-3.9h2.3c2.2,0,3.9,1.8,3.9,3.9c0,2.2-1.8,4-3.9,4H118.9z M105.4,663c-2.2,0-3.9-1.8-3.9-4
		c0-2.2,1.8-3.9,3.9-3.9h2.2c2.2,0,3.9,1.8,3.9,3.9c0,2.2-1.8,4-3.9,4H105.4z M94.5,654.9L95,655c2.1,0.4,3.5,2.5,3.1,4.6
		c-0.4,2.1-2.5,3.5-4.7,3.1l-2.1-0.6l-0.9-0.4c-2-0.9-2.8-3.3-1.8-5.3c0.9-2,3.3-2.8,5.2-1.9L94.5,654.9z M83.2,646.6
		c0-2.2,1.8-3.9,3.9-3.9s3.9,1.8,3.9,3.9v2.2c0,2.2-1.8,3.9-3.9,3.9s-3.9-1.8-3.9-3.9V646.6z M83.2,633.1c0-2.2,1.8-3.9,3.9-3.9
		s3.9,1.8,3.9,3.9v2.2c0,2.2-1.8,3.9-3.9,3.9s-3.9-1.8-3.9-3.9V633.1z M83.2,619.7c0-2.2,1.8-3.9,3.9-3.9s3.9,1.8,3.9,3.9v2.2
		c0,2.2-1.8,3.9-3.9,3.9s-3.9-1.8-3.9-3.9V619.7z M83.2,606.2c0-2.2,1.8-3.9,3.9-3.9s3.9,1.8,3.9,3.9v2.3c0,2.2-1.8,3.9-3.9,3.9
		s-3.9-1.8-3.9-3.9V606.2z M83.2,592.8c0-2.2,1.8-3.9,3.9-3.9s3.9,1.8,3.9,3.9v2.2c0,2.2-1.8,3.9-3.9,3.9s-3.9-1.8-3.9-3.9V592.8z
		 M83.2,579.3c0-2.2,1.8-3.9,3.9-3.9s3.9,1.8,3.9,3.9v2.3c0,2.2-1.8,3.9-3.9,3.9s-3.9-1.8-3.9-3.9V579.3z M83.2,565.9
		c0-2.2,1.8-3.9,3.9-3.9s3.9,1.8,3.9,3.9v2.2c0,2.2-1.8,4-3.9,4s-3.9-1.8-3.9-4V565.9z M83.2,552.4c0-2.2,1.8-3.9,3.9-3.9
		s3.9,1.8,3.9,3.9v2.2c0,2.2-1.8,3.9-3.9,3.9s-3.9-1.8-3.9-3.9V552.4z M83.2,539c0-2.2,1.8-3.9,3.9-3.9s3.9,1.8,3.9,3.9v2.2
		c0,2.2-1.8,4-3.9,4s-3.9-1.8-3.9-4V539z M83.2,525.5c0-2.2,1.8-3.9,3.9-3.9s3.9,1.8,3.9,3.9v2.2c0,2.2-1.8,3.9-3.9,3.9
		s-3.9-1.8-3.9-3.9V525.5z M83.2,512.1c0-2.2,1.8-4,3.9-4s3.9,1.8,3.9,4v2.2c0,2.2-1.8,3.9-3.9,3.9s-3.9-1.8-3.9-3.9V512.1z
		 M83.2,498.6c0-2.2,1.8-3.9,3.9-3.9s3.9,1.8,3.9,3.9v2.2c0,2.2-1.8,3.9-3.9,3.9s-3.9-1.8-3.9-3.9V498.6z M85.1,483.4
		c1.1-1.9,3.6-2.5,5.4-1.3c1.8,1.1,2.4,3.5,1.3,5.4l-0.3,0.6l-0.2,0.6c-0.6,2.1-2.8,3.2-4.9,2.6c-2.1-0.6-3.3-2.8-2.6-4.9l0.7-1.9
		L85.1,483.4z M100.4,477.2c2.2,0,3.9,1.8,3.9,4c0,2.2-1.8,3.9-3.9,3.9h-2.2c-2.2,0-3.9-1.8-3.9-3.9c0-2.2,1.8-4,3.9-4H100.4z
		 M113.8,477.2c2.2,0,3.9,1.8,3.9,4c0,2.2-1.8,3.9-3.9,3.9h-2.3c-2.2,0-3.9-1.8-3.9-3.9c0-2.2,1.8-4,3.9-4H113.8z M127.3,477.2
		c2.2,0,3.9,1.8,3.9,4c0,2.2-1.8,3.9-3.9,3.9H125c-2.2,0-3.9-1.8-3.9-3.9c0-2.2,1.8-4,3.9-4H127.3z M140.7,477.2
		c2.2,0,3.9,1.8,3.9,4c0,2.2-1.8,3.9-3.9,3.9h-2.3c-2.2,0-3.9-1.8-3.9-3.9c0-2.2,1.8-4,3.9-4H140.7z M154.2,477.2
		c2.2,0,3.9,1.8,3.9,4c0,2.2-1.8,3.9-3.9,3.9h-2.2c-2.2,0-3.9-1.8-3.9-3.9c0-2.2,1.8-4,3.9-4H154.2z M167.6,477.2
		c2.2,0,3.9,1.8,3.9,4c0,2.2-1.8,3.9-3.9,3.9h-2.2c-2.2,0-3.9-1.8-3.9-3.9c0-2.2,1.8-4,3.9-4H167.6z M181.1,477.2
		c2.2,0,3.9,1.8,3.9,4c0,2.2-1.8,3.9-3.9,3.9h-2.2c-2.2,0-4-1.8-4-3.9c0-2.2,1.8-4,4-4H181.1z M194.5,477.2c2.2,0,3.9,1.8,3.9,4
		c0,2.2-1.8,3.9-3.9,3.9h-2.2c-2.2,0-3.9-1.8-3.9-3.9c0-2.2,1.8-4,3.9-4H194.5z M208,477.2c2.2,0,3.9,1.8,3.9,4
		c0,2.2-1.8,3.9-3.9,3.9h-2.3c-2.2,0-3.9-1.8-3.9-3.9c0-2.2,1.8-4,3.9-4H208z M221.4,477.2c2.2,0,3.9,1.8,3.9,4
		c0,2.2-1.8,3.9-3.9,3.9h-2.2c-2.2,0-4-1.8-4-3.9c0-2.2,1.8-4,4-4H221.4z M234.9,477.2c2.2,0,4,1.8,4,4c0,2.2-1.8,3.9-4,3.9h-2.2
		c-2.2,0-3.9-1.8-3.9-3.9c0-2.2,1.8-4,3.9-4H234.9z M248.3,477.2c2.2,0,3.9,1.8,3.9,4c0,2.2-1.8,3.9-3.9,3.9h-2.3
		c-2.2,0-3.9-1.8-3.9-3.9c0-2.2,1.8-4,3.9-4H248.3z M261.8,477.2c2.2,0,3.9,1.8,3.9,4c0,2.2-1.8,3.9-3.9,3.9h-2.2
		c-2.2,0-3.9-1.8-3.9-3.9c0-2.2,1.8-4,3.9-4H261.8z M275.2,477.2c2.2,0,4,1.8,4,4c0,2.2-1.8,3.9-4,3.9H273c-2.2,0-3.9-1.8-3.9-3.9
		c0-2.2,1.8-4,3.9-4H275.2z M288.7,477.2c2.2,0,3.9,1.8,3.9,4c0,2.2-1.8,3.9-3.9,3.9h-2.2c-2.2,0-3.9-1.8-3.9-3.9c0-2.2,1.8-4,3.9-4
		H288.7z M302.1,477.2c2.2,0,3.9,1.8,3.9,4c0,2.2-1.8,3.9-3.9,3.9h-2.3c-2.2,0-3.9-1.8-3.9-3.9c0-2.2,1.8-4,3.9-4H302.1z
		 M315.6,477.2c2.2,0,3.9,1.8,3.9,4c0,2.2-1.8,3.9-3.9,3.9h-2.2c-2.2,0-3.9-1.8-3.9-3.9c0-2.2,1.8-4,3.9-4H315.6z M329,477.2
		c2.2,0,3.9,1.8,3.9,4c0,2.2-1.8,3.9-3.9,3.9h-2.2c-2.2,0-3.9-1.8-3.9-3.9c0-2.2,1.8-4,3.9-4H329z M342.5,477.2c2.2,0,3.9,1.8,3.9,4
		c0,2.2-1.8,3.9-3.9,3.9h-2.3c-2.2,0-3.9-1.8-3.9-3.9c0-2.2,1.8-4,3.9-4H342.5z M355.9,477.2c2.2,0,3.9,1.8,3.9,4
		c0,2.2-1.8,3.9-3.9,3.9h-2.2c-2.2,0-3.9-1.8-3.9-3.9c0-2.2,1.8-4,3.9-4H355.9z M366.2,486.2l-0.3-0.2l-0.3-0.2l-0.3-0.2
		c-2-0.9-2.8-3.3-1.8-5.3c0.9-2,3.3-2.8,5.2-1.8l1.4,0.8l1.4,1c1.7,1.4,1.8,3.9,0.4,5.6c-1.4,1.7-3.9,1.9-5.5,0.5L366.2,486.2z
		 M375.9,495.8c0,2.2-1.8,3.9-3.9,3.9c-2.2,0-3.9-1.8-3.9-3.9v-2.3c0-2.2,1.8-3.9,3.9-3.9c2.2,0,3.9,1.8,3.9,3.9V495.8z
		 M375.9,509.2c0,2.2-1.8,3.9-3.9,3.9c-2.2,0-3.9-1.8-3.9-3.9V507c0-2.2,1.8-3.9,3.9-3.9c2.2,0,3.9,1.8,3.9,3.9V509.2z M375.9,522.7
		c0,2.2-1.8,3.9-3.9,3.9c-2.2,0-3.9-1.8-3.9-3.9v-2.3c0-2.2,1.8-3.9,3.9-3.9c2.2,0,3.9,1.8,3.9,3.9V522.7z M375.9,536.1
		c0,2.2-1.8,3.9-3.9,3.9c-2.2,0-3.9-1.8-3.9-3.9v-2.2c0-2.2,1.8-4,3.9-4c2.2,0,3.9,1.8,3.9,4V536.1z M375.9,549.6
		c0,2.2-1.8,3.9-3.9,3.9c-2.2,0-3.9-1.8-3.9-3.9v-2.2c0-2.2,1.8-3.9,3.9-3.9c2.2,0,3.9,1.8,3.9,3.9V549.6z M375.9,563
		c0,2.2-1.8,3.9-3.9,3.9c-2.2,0-3.9-1.8-3.9-3.9v-2.3c0-2.2,1.8-3.9,3.9-3.9c2.2,0,3.9,1.8,3.9,3.9V563z M375.9,576.5
		c0,2.2-1.8,3.9-3.9,3.9c-2.2,0-3.9-1.8-3.9-3.9v-2.2c0-2.2,1.8-3.9,3.9-3.9c2.2,0,3.9,1.8,3.9,3.9V576.5z M375.9,589.9
		c0,2.2-1.8,4-3.9,4c-2.2,0-3.9-1.8-3.9-4v-2.2c0-2.2,1.8-3.9,3.9-3.9c2.2,0,3.9,1.8,3.9,3.9V589.9z M375.9,603.4
		c0,2.2-1.8,3.9-3.9,3.9c-2.2,0-3.9-1.8-3.9-3.9v-2.2c0-2.2,1.8-3.9,3.9-3.9c2.2,0,3.9,1.8,3.9,3.9V603.4z M375.9,616.8
		c0,2.2-1.8,3.9-3.9,3.9c-2.2,0-3.9-1.8-3.9-3.9v-2.2c0-2.2,1.8-3.9,3.9-3.9c2.2,0,3.9,1.8,3.9,3.9V616.8z M375.9,630.3
		c0,2.2-1.8,3.9-3.9,3.9c-2.2,0-3.9-1.8-3.9-3.9V628c0-2.2,1.8-3.9,3.9-3.9c2.2,0,3.9,1.8,3.9,3.9V630.3z M375.9,643.7
		c0,2.2-1.8,3.9-3.9,3.9c-2.2,0-3.9-1.8-3.9-3.9v-2.2c0-2.2,1.8-3.9,3.9-3.9c2.2,0,3.9,1.8,3.9,3.9V643.7z M365.5,655.8
		c0.1-0.8,0.5-1.5,1.1-2.1l0.4-0.5l0.2-0.3l0.2-0.2c1.1-1.9,3.5-2.5,5.3-1.4c1.9,1.1,2.5,3.5,1.4,5.3l-0.9,1.3l-1,1.2l-0.1,0.1
		c-1.4,1.4-3.5,1.5-5.1,0.4c-0.3,1.8-1.9,3.3-3.9,3.3H361c-2.2,0-4-1.8-4-4c0-2.2,1.8-3.9,4-3.9h2.2
		C364.1,655.1,364.9,655.3,365.5,655.8z"/>
	<path fill-rule="evenodd" clip-rule="evenodd" fill="#BCC2C6" d="M229.6,541.6l7.8,7.9l14.4,14.3c2.2,2.2,2.2,5.7,0,7.9
		c-2.2,2.2-5.7,2.2-7.9,0l-8.8-8.8v35.8H224v-35.8l-8.8,8.8c-2.2,2.2-5.7,2.2-7.9,0c-2.2-2.2-2.2-5.7,0-7.9l14.3-14.3L229.6,541.6z"
		/>
	<path fill-rule="evenodd" clip-rule="evenodd" fill="#BCC2C6" d="M697.9,663c-2.2,0-3.9-1.8-3.9-4c0-2.2,1.8-3.9,3.9-3.9h2.3
		c2.2,0,3.9,1.8,3.9,3.9c0,2.2-1.8,4-3.9,4H697.9z M684.4,663c-2.2,0-3.9-1.8-3.9-4c0-2.2,1.8-3.9,3.9-3.9h2.2
		c2.2,0,3.9,1.8,3.9,3.9c0,2.2-1.8,4-3.9,4H684.4z M671,663c-2.2,0-4-1.8-4-4c0-2.2,1.8-3.9,4-3.9h2.2c2.2,0,3.9,1.8,3.9,3.9
		c0,2.2-1.8,4-3.9,4H671z M657.5,663c-2.2,0-3.9-1.8-3.9-4c0-2.2,1.8-3.9,3.9-3.9h2.2c2.2,0,3.9,1.8,3.9,3.9c0,2.2-1.8,4-3.9,4
		H657.5z M644.1,663c-2.2,0-3.9-1.8-3.9-4c0-2.2,1.8-3.9,3.9-3.9h2.2c2.2,0,3.9,1.8,3.9,3.9c0,2.2-1.8,4-3.9,4H644.1z M630.6,663
		c-2.2,0-3.9-1.8-3.9-4c0-2.2,1.8-3.9,3.9-3.9h2.2c2.2,0,4,1.8,4,3.9c0,2.2-1.8,4-4,4H630.6z M617.2,663c-2.2,0-3.9-1.8-3.9-4
		c0-2.2,1.8-3.9,3.9-3.9h2.2c2.2,0,3.9,1.8,3.9,3.9c0,2.2-1.8,4-3.9,4H617.2z M603.7,663c-2.2,0-3.9-1.8-3.9-4
		c0-2.2,1.8-3.9,3.9-3.9h2.3c2.2,0,3.9,1.8,3.9,3.9c0,2.2-1.8,4-3.9,4H603.7z M590.3,663c-2.2,0-3.9-1.8-3.9-4
		c0-2.2,1.8-3.9,3.9-3.9h2.2c2.2,0,3.9,1.8,3.9,3.9c0,2.2-1.8,4-3.9,4H590.3z M576.8,663c-2.2,0-3.9-1.8-3.9-4
		c0-2.2,1.8-3.9,3.9-3.9h2.2c2.2,0,3.9,1.8,3.9,3.9c0,2.2-1.8,4-3.9,4H576.8z M563.4,663c-2.2,0-3.9-1.8-3.9-4
		c0-2.2,1.8-3.9,3.9-3.9h2.2c2.2,0,4,1.8,4,3.9c0,2.2-1.8,4-4,4H563.4z M549.9,663c-2.2,0-3.9-1.8-3.9-4c0-2.2,1.8-3.9,3.9-3.9h2.2
		c2.2,0,3.9,1.8,3.9,3.9c0,2.2-1.8,4-3.9,4H549.9z M536.5,663c-2.2,0-3.9-1.8-3.9-4c0-2.2,1.8-3.9,3.9-3.9h2.3
		c2.2,0,3.9,1.8,3.9,3.9c0,2.2-1.8,4-3.9,4H536.5z M523,663c-2.2,0-3.9-1.8-3.9-4c0-2.2,1.8-3.9,3.9-3.9h2.2c2.2,0,3.9,1.8,3.9,3.9
		c0,2.2-1.8,4-3.9,4H523z M509.6,663c-2.2,0-4-1.8-4-4c0-2.2,1.8-3.9,4-3.9h2.2c2.2,0,3.9,1.8,3.9,3.9c0,2.2-1.8,4-3.9,4H509.6z
		 M496.1,663c-2.2,0-3.9-1.8-3.9-4c0-2.2,1.8-3.9,3.9-3.9h2.2c2.2,0,3.9,1.8,3.9,3.9c0,2.2-1.8,4-3.9,4H496.1z M482.7,663
		c-2.2,0-3.9-1.8-3.9-4c0-2.2,1.8-3.9,3.9-3.9h2.2c2.2,0,3.9,1.8,3.9,3.9c0,2.2-1.8,4-3.9,4H482.7z M469.2,663c-2.2,0-3.9-1.8-3.9-4
		c0-2.2,1.8-3.9,3.9-3.9h2.2c2.2,0,4,1.8,4,3.9c0,2.2-1.8,4-4,4H469.2z M455.8,663c-2.2,0-3.9-1.8-3.9-4c0-2.2,1.8-3.9,3.9-3.9h2.2
		c2.2,0,3.9,1.8,3.9,3.9c0,2.2-1.8,4-3.9,4H455.8z M444.9,654.9l0.5,0.1c2.1,0.4,3.5,2.5,3.1,4.6c-0.4,2.1-2.5,3.5-4.7,3.1l-2.1-0.6
		l-0.9-0.4c-2-0.9-2.8-3.3-1.8-5.3c0.9-2,3.3-2.8,5.2-1.9L444.9,654.9z M433.6,646.6c0-2.2,1.8-3.9,3.9-3.9c2.2,0,3.9,1.8,3.9,3.9
		v2.2c0,2.2-1.8,3.9-3.9,3.9c-2.2,0-3.9-1.8-3.9-3.9V646.6z M433.6,633.1c0-2.2,1.8-3.9,3.9-3.9c2.2,0,3.9,1.8,3.9,3.9v2.2
		c0,2.2-1.8,3.9-3.9,3.9c-2.2,0-3.9-1.8-3.9-3.9V633.1z M433.6,619.7c0-2.2,1.8-3.9,3.9-3.9c2.2,0,3.9,1.8,3.9,3.9v2.2
		c0,2.2-1.8,3.9-3.9,3.9c-2.2,0-3.9-1.8-3.9-3.9V619.7z M433.6,606.2c0-2.2,1.8-3.9,3.9-3.9c2.2,0,3.9,1.8,3.9,3.9v2.3
		c0,2.2-1.8,3.9-3.9,3.9c-2.2,0-3.9-1.8-3.9-3.9V606.2z M433.6,592.8c0-2.2,1.8-3.9,3.9-3.9c2.2,0,3.9,1.8,3.9,3.9v2.2
		c0,2.2-1.8,3.9-3.9,3.9c-2.2,0-3.9-1.8-3.9-3.9V592.8z M433.6,579.3c0-2.2,1.8-3.9,3.9-3.9c2.2,0,3.9,1.8,3.9,3.9v2.3
		c0,2.2-1.8,3.9-3.9,3.9c-2.2,0-3.9-1.8-3.9-3.9V579.3z M433.6,565.9c0-2.2,1.8-3.9,3.9-3.9c2.2,0,3.9,1.8,3.9,3.9v2.2
		c0,2.2-1.8,4-3.9,4c-2.2,0-3.9-1.8-3.9-4V565.9z M433.6,552.4c0-2.2,1.8-3.9,3.9-3.9c2.2,0,3.9,1.8,3.9,3.9v2.2
		c0,2.2-1.8,3.9-3.9,3.9c-2.2,0-3.9-1.8-3.9-3.9V552.4z M433.6,539c0-2.2,1.8-3.9,3.9-3.9c2.2,0,3.9,1.8,3.9,3.9v2.2
		c0,2.2-1.8,4-3.9,4c-2.2,0-3.9-1.8-3.9-4V539z M433.6,525.5c0-2.2,1.8-3.9,3.9-3.9c2.2,0,3.9,1.8,3.9,3.9v2.2
		c0,2.2-1.8,3.9-3.9,3.9c-2.2,0-3.9-1.8-3.9-3.9V525.5z M433.6,512.1c0-2.2,1.8-4,3.9-4c2.2,0,3.9,1.8,3.9,4v2.2
		c0,2.2-1.8,3.9-3.9,3.9c-2.2,0-3.9-1.8-3.9-3.9V512.1z M433.6,498.6c0-2.2,1.8-3.9,3.9-3.9c2.2,0,3.9,1.8,3.9,3.9v2.2
		c0,2.2-1.8,3.9-3.9,3.9c-2.2,0-3.9-1.8-3.9-3.9V498.6z M435.4,483.4c1.1-1.9,3.6-2.5,5.4-1.3c1.8,1.1,2.4,3.5,1.3,5.4l-0.3,0.6
		l-0.2,0.6c-0.6,2.1-2.8,3.2-4.9,2.6c-2.1-0.6-3.3-2.8-2.6-4.9l0.7-1.9L435.4,483.4z M450.7,477.2c2.2,0,3.9,1.8,3.9,4
		c0,2.2-1.8,3.9-3.9,3.9h-2.2c-2.2,0-3.9-1.8-3.9-3.9c0-2.2,1.8-4,3.9-4H450.7z M464.2,477.2c2.2,0,3.9,1.8,3.9,4
		c0,2.2-1.8,3.9-3.9,3.9h-2.3c-2.2,0-3.9-1.8-3.9-3.9c0-2.2,1.8-4,3.9-4H464.2z M477.6,477.2c2.2,0,3.9,1.8,3.9,4
		c0,2.2-1.8,3.9-3.9,3.9h-2.2c-2.2,0-3.9-1.8-3.9-3.9c0-2.2,1.8-4,3.9-4H477.6z M491.1,477.2c2.2,0,3.9,1.8,3.9,4
		c0,2.2-1.8,3.9-3.9,3.9h-2.3c-2.2,0-3.9-1.8-3.9-3.9c0-2.2,1.8-4,3.9-4H491.1z M504.5,477.2c2.2,0,3.9,1.8,3.9,4
		c0,2.2-1.8,3.9-3.9,3.9h-2.2c-2.2,0-3.9-1.8-3.9-3.9c0-2.2,1.8-4,3.9-4H504.5z M518,477.2c2.2,0,4,1.8,4,4c0,2.2-1.8,3.9-4,3.9
		h-2.2c-2.2,0-3.9-1.8-3.9-3.9c0-2.2,1.8-4,3.9-4H518z M531.4,477.2c2.2,0,3.9,1.8,3.9,4c0,2.2-1.8,3.9-3.9,3.9h-2.2
		c-2.2,0-4-1.8-4-3.9c0-2.2,1.8-4,4-4H531.4z M544.9,477.2c2.2,0,3.9,1.8,3.9,4c0,2.2-1.8,3.9-3.9,3.9h-2.2c-2.2,0-3.9-1.8-3.9-3.9
		c0-2.2,1.8-4,3.9-4H544.9z M558.3,477.2c2.2,0,3.9,1.8,3.9,4c0,2.2-1.8,3.9-3.9,3.9h-2.3c-2.2,0-3.9-1.8-3.9-3.9c0-2.2,1.8-4,3.9-4
		H558.3z M571.8,477.2c2.2,0,3.9,1.8,3.9,4c0,2.2-1.8,3.9-3.9,3.9h-2.2c-2.2,0-4-1.8-4-3.9c0-2.2,1.8-4,4-4H571.8z M585.2,477.2
		c2.2,0,4,1.8,4,4c0,2.2-1.8,3.9-4,3.9H583c-2.2,0-3.9-1.8-3.9-3.9c0-2.2,1.8-4,3.9-4H585.2z M598.7,477.2c2.2,0,3.9,1.8,3.9,4
		c0,2.2-1.8,3.9-3.9,3.9h-2.3c-2.2,0-3.9-1.8-3.9-3.9c0-2.2,1.8-4,3.9-4H598.7z M612.1,477.2c2.2,0,3.9,1.8,3.9,4
		c0,2.2-1.8,3.9-3.9,3.9h-2.2c-2.2,0-3.9-1.8-3.9-3.9c0-2.2,1.8-4,3.9-4H612.1z M625.6,477.2c2.2,0,3.9,1.8,3.9,4
		c0,2.2-1.8,3.9-3.9,3.9h-2.2c-2.2,0-4-1.8-4-3.9c0-2.2,1.8-4,4-4H625.6z M639,477.2c2.2,0,3.9,1.8,3.9,4c0,2.2-1.8,3.9-3.9,3.9
		h-2.2c-2.2,0-3.9-1.8-3.9-3.9c0-2.2,1.8-4,3.9-4H639z M652.5,477.2c2.2,0,3.9,1.8,3.9,4c0,2.2-1.8,3.9-3.9,3.9h-2.3
		c-2.2,0-3.9-1.8-3.9-3.9c0-2.2,1.8-4,3.9-4H652.5z M665.9,477.2c2.2,0,3.9,1.8,3.9,4c0,2.2-1.8,3.9-3.9,3.9h-2.2
		c-2.2,0-4-1.8-4-3.9c0-2.2,1.8-4,4-4H665.9z M679.4,477.2c2.2,0,4,1.8,4,4c0,2.2-1.8,3.9-4,3.9h-2.2c-2.2,0-3.9-1.8-3.9-3.9
		c0-2.2,1.8-4,3.9-4H679.4z M692.8,477.2c2.2,0,3.9,1.8,3.9,4c0,2.2-1.8,3.9-3.9,3.9h-2.3c-2.2,0-3.9-1.8-3.9-3.9c0-2.2,1.8-4,3.9-4
		H692.8z M706.3,477.2c2.2,0,3.9,1.8,3.9,4c0,2.2-1.8,3.9-3.9,3.9H704c-2.2,0-3.9-1.8-3.9-3.9c0-2.2,1.8-4,3.9-4H706.3z
		 M716.6,486.2l-0.3-0.2l-0.3-0.2l-0.3-0.2c-2-0.9-2.8-3.3-1.8-5.3c0.9-2,3.3-2.8,5.2-1.8l1.4,0.8l1.4,1c1.7,1.4,1.8,3.9,0.4,5.6
		c-1.4,1.7-3.9,1.9-5.5,0.5L716.6,486.2z M726.3,495.8c0,2.2-1.8,3.9-3.9,3.9c-2.2,0-3.9-1.8-3.9-3.9v-2.3c0-2.2,1.8-3.9,3.9-3.9
		c2.2,0,3.9,1.8,3.9,3.9V495.8z M726.3,509.2c0,2.2-1.8,3.9-3.9,3.9c-2.2,0-3.9-1.8-3.9-3.9V507c0-2.2,1.8-3.9,3.9-3.9
		c2.2,0,3.9,1.8,3.9,3.9V509.2z M726.3,522.7c0,2.2-1.8,3.9-3.9,3.9c-2.2,0-3.9-1.8-3.9-3.9v-2.3c0-2.2,1.8-3.9,3.9-3.9
		c2.2,0,3.9,1.8,3.9,3.9V522.7z M726.3,536.1c0,2.2-1.8,3.9-3.9,3.9c-2.2,0-3.9-1.8-3.9-3.9v-2.2c0-2.2,1.8-4,3.9-4
		c2.2,0,3.9,1.8,3.9,4V536.1z M726.3,549.6c0,2.2-1.8,3.9-3.9,3.9c-2.2,0-3.9-1.8-3.9-3.9v-2.2c0-2.2,1.8-3.9,3.9-3.9
		c2.2,0,3.9,1.8,3.9,3.9V549.6z M726.3,563c0,2.2-1.8,3.9-3.9,3.9c-2.2,0-3.9-1.8-3.9-3.9v-2.3c0-2.2,1.8-3.9,3.9-3.9
		c2.2,0,3.9,1.8,3.9,3.9V563z M726.3,576.5c0,2.2-1.8,3.9-3.9,3.9c-2.2,0-3.9-1.8-3.9-3.9v-2.2c0-2.2,1.8-3.9,3.9-3.9
		c2.2,0,3.9,1.8,3.9,3.9V576.5z M726.3,589.9c0,2.2-1.8,4-3.9,4c-2.2,0-3.9-1.8-3.9-4v-2.2c0-2.2,1.8-3.9,3.9-3.9
		c2.2,0,3.9,1.8,3.9,3.9V589.9z M726.3,603.4c0,2.2-1.8,3.9-3.9,3.9c-2.2,0-3.9-1.8-3.9-3.9v-2.2c0-2.2,1.8-3.9,3.9-3.9
		c2.2,0,3.9,1.8,3.9,3.9V603.4z M726.3,616.8c0,2.2-1.8,3.9-3.9,3.9c-2.2,0-3.9-1.8-3.9-3.9v-2.2c0-2.2,1.8-3.9,3.9-3.9
		c2.2,0,3.9,1.8,3.9,3.9V616.8z M726.3,630.3c0,2.2-1.8,3.9-3.9,3.9c-2.2,0-3.9-1.8-3.9-3.9V628c0-2.2,1.8-3.9,3.9-3.9
		c2.2,0,3.9,1.8,3.9,3.9V630.3z M726.3,643.7c0,2.2-1.8,3.9-3.9,3.9c-2.2,0-3.9-1.8-3.9-3.9v-2.2c0-2.2,1.8-3.9,3.9-3.9
		c2.2,0,3.9,1.8,3.9,3.9V643.7z M715.8,655.8c0.1-0.8,0.5-1.5,1.1-2.1l0.4-0.5l0.2-0.3l0.2-0.2c1.1-1.9,3.5-2.5,5.3-1.4
		c1.9,1.1,2.5,3.5,1.4,5.3l-0.9,1.3l-1,1.2l-0.1,0.1c-1.4,1.4-3.5,1.5-5.1,0.4c-0.3,1.8-1.9,3.3-3.9,3.3h-2.2c-2.2,0-4-1.8-4-4
		c0-2.2,1.8-3.9,4-3.9h2.2C714.4,655.1,715.2,655.3,715.8,655.8z"/>
	<path fill-rule="evenodd" clip-rule="evenodd" fill="#BCC2C6" d="M579.9,541.6l7.9,7.9l14.3,14.3c2.2,2.2,2.2,5.7,0,7.9
		c-2.2,2.2-5.7,2.2-7.9,0l-8.8-8.8v35.8h-11.1v-35.8l-8.8,8.8c-2.2,2.2-5.7,2.2-7.9,0c-2.2-2.2-2.2-5.7,0-7.9l14.4-14.3L579.9,541.6
		z"/>
	<path opacity="0.15" d="M294.5,283.5c-2.3-2.3-5.4-3.7-8.9-3.7c-3.5,0-6.6,1.4-8.9,3.7c-2.3,2.3-3.6,5.4-3.6,8.9
		c0,3.5,1.4,6.6,3.7,8.8c2.3,2.3,5.4,3.7,8.8,3.7s6.6-1.4,8.9-3.7c2.3-2.3,3.6-5.4,3.6-8.8C298.2,288.9,296.8,285.8,294.5,283.5
		 M285.7,269.5c6.3,0,12,2.6,16.1,6.7l0,0c4.1,4.1,6.7,9.8,6.7,16.1s-2.6,12-6.7,16.1l0,0c-4.1,4.1-9.8,6.7-16.1,6.7
		c-6.3,0-12-2.6-16.1-6.7c-4.1-4.1-6.7-9.8-6.7-16.1s2.6-12,6.7-16.1l0,0C273.7,272.1,279.4,269.5,285.7,269.5z M274.8,325.5
		L274.8,325.5l0.2,0.2l2.9,3.8l0,0l17.3,23.5c1.2,1.7,1.8,3.4,1.8,5h0c0,1.3-0.3,2.4-0.9,3.4c-0.5,0.9-1.2,1.7-2.1,2.4
		c-1.4,1.1-3.3,1.6-5.1,1.6v0l-43.5,0l-83.3,0c-2,0-3.7-0.6-5.1-1.5c-0.9-0.7-1.7-1.6-2.2-2.6h0c-0.5-1-0.7-2.1-0.7-3.2h0
		c0-1.7,0.6-3.6,1.9-5.3L174,328v0l1.7-2.2l0.2-0.3l0,0l0,0l22.6-30c0.8-1.1,1.7-1.9,2.6-2.6c1.8-1.3,3.7-2,5.7-2c2,0,3.9,0.7,5.6,2
		c0.9,0.7,1.8,1.6,2.6,2.6l21.5,28.6l10.4-13.8c0.8-1.1,1.7-1.9,2.6-2.6c1.7-1.3,3.6-2,5.6-2c2,0,3.9,0.6,5.7,2
		c0.9,0.7,1.8,1.6,2.6,2.6L274.8,325.5L274.8,325.5z M283.9,355.2l-17.4-23.7l-0.7-1l-10.6-14.2l0,0l0,0l-12,16l-2.5,3.3l-4.1,5.5
		l-4.1-5.5l-2.5-3.3l-23.1-30.8l0,0l0,0l-21.9,29l-0.6,0.9l-17.4,23.7l78.5,0L283.9,355.2z"/>
	<path fill="#34495E" d="M282.5,259.4c6.3,0,12,2.6,16.1,6.7l0,0c4.1,4.1,6.7,9.8,6.7,16.1c0,6.3-2.6,12-6.7,16.1l0,0
		c-4.1,4.1-9.8,6.7-16.1,6.7c-6.3,0-12-2.6-16.1-6.7c-4.1-4.1-6.7-9.8-6.7-16.1c0-6.3,2.6-12,6.7-16.1l0,0
		C270.5,261.9,276.2,259.4,282.5,259.4 M271.6,315.3L271.6,315.3l0.2,0.2l2.9,3.8l0,0l17.3,23.5c1.2,1.7,1.8,3.4,1.8,5h0
		c0,1.3-0.3,2.4-0.9,3.4c-0.5,0.9-1.2,1.7-2.1,2.4c-1.4,1.1-3.2,1.6-5.1,1.6v0l-43.5,0l-83.3,0c-2,0-3.8-0.6-5.1-1.6
		c-0.9-0.7-1.7-1.5-2.2-2.6h0c-0.5-1-0.7-2.1-0.7-3.2h0c0-1.7,0.6-3.5,1.9-5.3l18.2-24.8l0,0l1.7-2.2l0.2-0.3l0,0l0,0l22.5-30
		c0.8-1.1,1.7-1.9,2.6-2.6c1.8-1.3,3.7-2,5.7-2c2,0,3.9,0.7,5.6,2c0.9,0.7,1.8,1.6,2.6,2.6l21.5,28.6l10.4-13.8
		c0.8-1.1,1.7-1.9,2.6-2.6c1.7-1.3,3.6-2,5.6-2c2,0,3.9,0.6,5.7,2c0.9,0.7,1.8,1.6,2.6,2.6L271.6,315.3L271.6,315.3z"/>
	<path fill-rule="evenodd" clip-rule="evenodd" fill="#39D4FF" d="M282.5,267.7c-3.8,0-7.5,1.5-10.3,4.3l0,0
		c-2.7,2.7-4.2,6.4-4.2,10.2c0,3.9,1.5,7.5,4.2,10.3c2.7,2.7,6.4,4.2,10.2,4.2s7.5-1.5,10.3-4.3l0,0c2.7-2.7,4.2-6.4,4.2-10.2
		c0-3.9-1.5-7.5-4.2-10.2l-0.1-0.1C290,269.2,286.3,267.7,282.5,267.7 M159.7,347l82.4,0l42.5,0L265,320.4l-11.6-15.4
		c-0.3-0.4-0.6-0.7-0.9-1c-0.2-0.1-0.4-0.3-0.6-0.3c-0.3,0-0.5,0.2-0.7,0.3c-0.4,0.3-0.7,0.6-0.9,1l-17.1,22.7l-28.2-37.4
		c-0.3-0.3-0.6-0.7-0.9-1c-0.2-0.1-0.4-0.3-0.7-0.3c-0.2,0-0.5,0.2-0.6,0.3c-0.4,0.3-0.7,0.6-0.9,1l-22.7,30.1L159.7,347z"/>
</g>
</svg>
