<?xml version="1.0" encoding="utf-8"?>
<!-- Generator: Adobe Illustrator 15.1.0, SVG Export Plug-In . SVG Version: 6.00 Build 0)  -->
<!DOCTYPE svg PUBLIC "-//W3C//DTD SVG 1.0//EN" "http://www.w3.org/TR/2001/REC-SVG-20010904/DTD/svg10.dtd">
<svg version="1.0" id="Layer_1" xmlns="http://www.w3.org/2000/svg" xmlns:xlink="http://www.w3.org/1999/xlink" x="0px" y="0px"
	 width="800px" height="800px" viewBox="0 0 800 800" enable-background="new 0 0 800 800" xml:space="preserve">
<g id="Header">
	<path fill="#BCC2C6" d="M33.1,34.5h736.2c8.5,0,16.1,3.5,21.7,9l0,0c5.6,5.6,9,13.2,9,21.7v654.6c0,8.4-3.5,16.1-9,21.7l0,0
		c-5.6,5.6-13.2,9-21.7,9H33.1c-8.5,0-16.1-3.5-21.7-9l0,0c-5.6-5.6-9-13.2-9-21.7V65.2c0-8.4,3.5-16.1,9-21.7l0,0
		C16.9,38,24.6,34.5,33.1,34.5"/>
	<path fill="#EBEFF0" d="M788.9,65.2v654.6c0,12.3-8.6,19.6-19.6,19.6H33.1c-11,0-19.6-7-19.6-19.6V65.2c0-12.8,8.6-19.6,19.6-19.6
		h736.2C780.2,45.6,788.9,52.7,788.9,65.2"/>
	<path fill="#94A4A5" d="M677.6,72.3c7.8,0,14.2,6.4,14.2,14.2s-6.3,14.2-14.2,14.2c-7.9,0-14.2-6.3-14.2-14.2
		C663.4,78.7,669.7,72.3,677.6,72.3 M722.1,72.3c7.8,0,14.2,6.4,14.2,14.2s-6.4,14.2-14.2,14.2c-7.8,0-14.2-6.3-14.2-14.2
		C707.9,78.7,714.3,72.3,722.1,72.3z M633,72.3c7.8,0,14.2,6.4,14.2,14.2s-6.3,14.2-14.2,14.2c-7.8,0-14.2-6.4-14.2-14.2
		S625.2,72.3,633,72.3z"/>
	<text transform="matrix(1 0 0 1 146.1479 85.2969)" fill="#93A2A3" font-family="'NexaBold'" font-size="44.0749">UPLOAD FILES</text>
</g>
<g id="Body">
	<path fill="#BCC2C6" d="M30,126.5h743.4c7.3,0,14,3,18.8,7.8c4.8,4.8,7.8,11.5,7.8,18.8v572c0,7.3-3,14-7.8,18.8
		c-4.8,4.8-11.5,7.8-18.8,7.8H30c-7.3,0-14-3-18.8-7.8c-4.8-4.8-7.8-11.5-7.8-18.8v-572c0-7.3,3-14,7.8-18.8
		C16,129.5,22.7,126.5,30,126.5"/>
	<path fill-rule="evenodd" clip-rule="evenodd" fill="#FFFFFF" d="M30,137.7c-4.1,0-8,1.6-10.9,4.6c-2.9,2.9-4.6,6.8-4.6,10.9v572
		c0,4.1,1.6,8,4.6,10.9c2.9,2.9,6.8,4.6,10.9,4.6h743.4c4.1,0,8-1.6,10.9-4.6c2.9-2.9,4.6-6.8,4.6-10.9v-572c0-4.1-1.6-8-4.6-10.9
		c-2.9-2.9-6.8-4.6-10.9-4.6H30z"/>
	<rect x="90.8" y="208.7" fill-rule="evenodd" clip-rule="evenodd" fill="#34495E" width="103.4" height="103.4"/>
	<rect x="102.2" y="220" fill-rule="evenodd" clip-rule="evenodd" fill="#22A6EF" width="80.8" height="80.7"/>
	<path fill-rule="evenodd" clip-rule="evenodd" fill="#BCC2C6" d="M256.2,234.3h332.1c4.1,0,7.4,3.3,7.4,7.4l0,0
		c0,4.1-3.3,7.4-7.4,7.4H256.2c-4.1,0-7.4-3.3-7.4-7.4l0,0C248.8,237.6,252.1,234.3,256.2,234.3"/>
	<path fill-rule="evenodd" clip-rule="evenodd" fill="#BCC2C6" d="M256.2,271.6h288.9c4.1,0,7.4,3.3,7.4,7.4l0,0
		c0,4.1-3.3,7.4-7.4,7.4H256.2c-4.1,0-7.4-3.3-7.4-7.4l0,0C248.8,275,252.1,271.6,256.2,271.6"/>
	<path fill-rule="evenodd" clip-rule="evenodd" fill="#BCC2C6" d="M676.3,238.1l11.8,11.8l11.8-11.8c2.9-2.9,7.6-2.9,10.5,0l0,0
		c2.9,2.9,2.9,7.6,0,10.5l-11.8,11.8l11.8,11.8c2.9,2.9,2.9,7.6,0,10.5h0c-2.9,2.9-7.6,2.9-10.5,0l-11.8-11.8l-11.8,11.8
		c-2.9,2.9-7.6,2.9-10.5,0c-2.9-2.9-2.9-7.6,0-10.5l11.8-11.8l-11.8-11.8c-2.9-2.9-2.9-7.6,0-10.5l0,0
		C668.7,235.2,673.4,235.2,676.3,238.1"/>
	<path fill-rule="evenodd" clip-rule="evenodd" fill="#BCC2C6" d="M154.2,365.6c3,0,5.4,2.4,5.4,5.4s-2.4,5.4-5.4,5.4h-5.2
		c-3,0-5.4-2.4-5.4-5.4s2.4-5.4,5.4-5.4H154.2z M175,365.6c3,0,5.4,2.4,5.4,5.4s-2.4,5.4-5.4,5.4h-5.2c-3,0-5.4-2.4-5.4-5.4
		s2.4-5.4,5.4-5.4H175z M195.8,365.6c3,0,5.4,2.4,5.4,5.4s-2.4,5.4-5.4,5.4h-5.2c-3,0-5.4-2.4-5.4-5.4s2.4-5.4,5.4-5.4H195.8z
		 M216.6,365.6c3,0,5.4,2.4,5.4,5.4s-2.4,5.4-5.4,5.4h-5.2c-3,0-5.4-2.4-5.4-5.4s2.4-5.4,5.4-5.4H216.6z M237.4,365.6
		c3,0,5.4,2.4,5.4,5.4s-2.4,5.4-5.4,5.4h-5.2c-3,0-5.4-2.4-5.4-5.4s2.4-5.4,5.4-5.4H237.4z M258.1,365.6c3,0,5.4,2.4,5.4,5.4
		s-2.4,5.4-5.4,5.4h-5.2c-3,0-5.4-2.4-5.4-5.4s2.4-5.4,5.4-5.4H258.1z M278.9,365.6c3,0,5.4,2.4,5.4,5.4s-2.4,5.4-5.4,5.4h-5.2
		c-3,0-5.4-2.4-5.4-5.4s2.4-5.4,5.4-5.4H278.9z M299.7,365.6c3,0,5.4,2.4,5.4,5.4s-2.4,5.4-5.4,5.4h-5.2c-3,0-5.4-2.4-5.4-5.4
		s2.4-5.4,5.4-5.4H299.7z M320.4,365.6c3,0,5.4,2.4,5.4,5.4s-2.4,5.4-5.4,5.4h-5.2c-3,0-5.4-2.4-5.4-5.4s2.4-5.4,5.4-5.4H320.4z
		 M341.2,365.6c3,0,5.4,2.4,5.4,5.4s-2.4,5.4-5.4,5.4H336c-3,0-5.4-2.4-5.4-5.4s2.4-5.4,5.4-5.4H341.2z M362,365.6
		c3,0,5.4,2.4,5.4,5.4s-2.4,5.4-5.4,5.4h-5.2c-3,0-5.4-2.4-5.4-5.4s2.4-5.4,5.4-5.4H362z M382.8,365.6c3,0,5.4,2.4,5.4,5.4
		s-2.4,5.4-5.4,5.4h-5.2c-3,0-5.4-2.4-5.4-5.4s2.4-5.4,5.4-5.4H382.8z M403.5,365.6c3,0,5.4,2.4,5.4,5.4s-2.4,5.4-5.4,5.4h-5.2
		c-3,0-5.4-2.4-5.4-5.4s2.4-5.4,5.4-5.4H403.5z M424.3,365.6c3,0,5.4,2.4,5.4,5.4s-2.4,5.4-5.4,5.4h-5.2c-3,0-5.4-2.4-5.4-5.4
		s2.4-5.4,5.4-5.4H424.3z M445.1,365.6c3,0,5.4,2.4,5.4,5.4s-2.4,5.4-5.4,5.4h-5.2c-3,0-5.4-2.4-5.4-5.4s2.4-5.4,5.4-5.4H445.1z
		 M465.8,365.6c3,0,5.4,2.4,5.4,5.4s-2.4,5.4-5.4,5.4h-5.2c-3,0-5.4-2.4-5.4-5.4s2.4-5.4,5.4-5.4H465.8z M486.6,365.6
		c3,0,5.4,2.4,5.4,5.4s-2.4,5.4-5.4,5.4h-5.2c-3,0-5.4-2.4-5.4-5.4s2.4-5.4,5.4-5.4H486.6z M507.4,365.6c3,0,5.4,2.4,5.4,5.4
		s-2.4,5.4-5.4,5.4h-5.2c-3,0-5.4-2.4-5.4-5.4s2.4-5.4,5.4-5.4H507.4z M528.2,365.6c3,0,5.4,2.4,5.4,5.4s-2.4,5.4-5.4,5.4H523
		c-3,0-5.4-2.4-5.4-5.4s2.4-5.4,5.4-5.4H528.2z M549,365.6c3,0,5.4,2.4,5.4,5.4s-2.4,5.4-5.4,5.4h-5.2c-3,0-5.4-2.4-5.4-5.4
		s2.4-5.4,5.4-5.4H549z M569.7,365.6c3,0,5.4,2.4,5.4,5.4s-2.4,5.4-5.4,5.4h-5.2c-3,0-5.4-2.4-5.4-5.4s2.4-5.4,5.4-5.4H569.7z
		 M590.5,365.6c3,0,5.4,2.4,5.4,5.4s-2.4,5.4-5.4,5.4h-5.2c-3,0-5.4-2.4-5.4-5.4s2.4-5.4,5.4-5.4H590.5z M611.3,365.6
		c3,0,5.4,2.4,5.4,5.4s-2.4,5.4-5.4,5.4h-5.2c-3,0-5.4-2.4-5.4-5.4s2.4-5.4,5.4-5.4H611.3z M632,365.6c3,0,5.4,2.4,5.4,5.4
		s-2.4,5.4-5.4,5.4h-5.2c-3,0-5.4-2.4-5.4-5.4s2.4-5.4,5.4-5.4H632z M652.8,365.6c3,0,5.4,2.4,5.4,5.4s-2.4,5.4-5.4,5.4h-5.2
		c-3,0-5.4-2.4-5.4-5.4s2.4-5.4,5.4-5.4H652.8z M673.6,365.6c3,0,5.4,2.4,5.4,5.4s-2.4,5.4-5.4,5.4h-5.2c-3,0-5.4-2.4-5.4-5.4
		s2.4-5.4,5.4-5.4H673.6z M696.1,375.5c1.9,2.3,1.6,5.7-0.8,7.6c-2.3,1.9-5.8,1.5-7.6-0.8l-1.2-1.3l-0.9-0.8l-0.7-0.6
		c-2.4-1.8-2.9-5.2-1.1-7.6c1.8-2.4,5.2-2.9,7.5-1.1l1.2,0.9l1.1,1l1.3,1.3l1,1.2L696.1,375.5z M702.4,398.6c0,3-2.4,5.4-5.4,5.4
		s-5.4-2.4-5.4-5.4v-5.2c0-3,2.4-5.4,5.4-5.4s5.4,2.4,5.4,5.4V398.6z M702.4,419.4c0,3-2.4,5.4-5.4,5.4s-5.4-2.4-5.4-5.4v-5.2
		c0-3,2.4-5.4,5.4-5.4s5.4,2.4,5.4,5.4V419.4z M702.4,440.1c0,3-2.4,5.4-5.4,5.4s-5.4-2.4-5.4-5.4v-5.2c0-3,2.4-5.4,5.4-5.4
		s5.4,2.4,5.4,5.4V440.1z M702.4,460.9c0,3-2.4,5.4-5.4,5.4s-5.4-2.4-5.4-5.4v-5.2c0-3,2.4-5.4,5.4-5.4s5.4,2.4,5.4,5.4V460.9z
		 M702.4,481.7c0,3-2.4,5.4-5.4,5.4s-5.4-2.4-5.4-5.4v-5.2c0-3,2.4-5.4,5.4-5.4s5.4,2.4,5.4,5.4V481.7z M702.4,502.4
		c0,3-2.4,5.4-5.4,5.4s-5.4-2.4-5.4-5.4v-5.2c0-3,2.4-5.4,5.4-5.4s5.4,2.4,5.4,5.4V502.4z M702.4,523.2c0,3-2.4,5.4-5.4,5.4
		s-5.4-2.4-5.4-5.4V518c0-3,2.4-5.4,5.4-5.4s5.4,2.4,5.4,5.4V523.2z M702.4,544c0,3-2.4,5.4-5.4,5.4s-5.4-2.4-5.4-5.4v-5.2
		c0-3,2.4-5.4,5.4-5.4s5.4,2.4,5.4,5.4V544z M702.4,564.8c0,3-2.4,5.4-5.4,5.4s-5.4-2.4-5.4-5.4v-5.2c0-3,2.4-5.4,5.4-5.4
		s5.4,2.4,5.4,5.4V564.8z M702.4,585.5c0,3-2.4,5.4-5.4,5.4s-5.4-2.4-5.4-5.4v-5.2c0-3,2.4-5.4,5.4-5.4s5.4,2.4,5.4,5.4V585.5z
		 M702.4,606.3c0,3-2.4,5.4-5.4,5.4s-5.4-2.4-5.4-5.4v-5.2c0-3,2.4-5.4,5.4-5.4s5.4,2.4,5.4,5.4V606.3z M702.4,627.1
		c0,3-2.4,5.4-5.4,5.4s-5.4-2.4-5.4-5.4v-5.2c0-3,2.4-5.4,5.4-5.4s5.4,2.4,5.4,5.4V627.1z M700.1,649.8c-1.2,2.7-4.4,4-7.2,2.8
		c-2.7-1.2-4-4.4-2.8-7.1l0.5-1.4l0.4-1.3l0.2-1c0.5-3,3.3-5,6.2-4.5c3,0.5,5,3.3,4.5,6.4l-0.5,2.1l-0.5,1.8l-0.5,1.5L700.1,649.8z
		 M680.8,665.6c-2.9,0.6-5.8-1.3-6.4-4.2c-0.6-2.9,1.3-5.8,4.3-6.5l0.9-0.2l1.4-0.5l1.3-0.6c2.7-1.3,5.9-0.2,7.2,2.5
		c1.3,2.7,0.2,5.9-2.6,7.3l-1.8,0.8l-1.8,0.6l-2,0.5L680.8,665.6z M658.9,666.2c-3,0-5.4-2.4-5.4-5.4c0-3,2.4-5.4,5.4-5.4h5.2
		c3,0,5.4,2.4,5.4,5.4c0,3-2.4,5.4-5.4,5.4H658.9z M638.1,666.2c-3,0-5.4-2.4-5.4-5.4c0-3,2.4-5.4,5.4-5.4h5.2c3,0,5.4,2.4,5.4,5.4
		c0,3-2.4,5.4-5.4,5.4H638.1z M617.4,666.2c-3,0-5.4-2.4-5.4-5.4c0-3,2.4-5.4,5.4-5.4h5.2c3,0,5.4,2.4,5.4,5.4c0,3-2.4,5.4-5.4,5.4
		H617.4z M596.6,666.2c-3,0-5.4-2.4-5.4-5.4c0-3,2.4-5.4,5.4-5.4h5.2c3,0,5.4,2.4,5.4,5.4c0,3-2.4,5.4-5.4,5.4H596.6z M575.8,666.2
		c-3,0-5.4-2.4-5.4-5.4c0-3,2.4-5.4,5.4-5.4h5.2c3,0,5.4,2.4,5.4,5.4c0,3-2.4,5.4-5.4,5.4H575.8z M555,666.2c-3,0-5.4-2.4-5.4-5.4
		c0-3,2.4-5.4,5.4-5.4h5.2c3,0,5.4,2.4,5.4,5.4c0,3-2.4,5.4-5.4,5.4H555z M534.3,666.2c-3,0-5.4-2.4-5.4-5.4c0-3,2.4-5.4,5.4-5.4
		h5.2c3,0,5.4,2.4,5.4,5.4c0,3-2.4,5.4-5.4,5.4H534.3z M513.5,666.2c-3,0-5.4-2.4-5.4-5.4c0-3,2.4-5.4,5.4-5.4h5.2
		c3,0,5.4,2.4,5.4,5.4c0,3-2.4,5.4-5.4,5.4H513.5z M492.7,666.2c-3,0-5.4-2.4-5.4-5.4c0-3,2.4-5.4,5.4-5.4h5.2c3,0,5.4,2.4,5.4,5.4
		c0,3-2.4,5.4-5.4,5.4H492.7z M472,666.2c-3,0-5.4-2.4-5.4-5.4c0-3,2.4-5.4,5.4-5.4h5.2c3,0,5.4,2.4,5.4,5.4c0,3-2.4,5.4-5.4,5.4
		H472z M451.2,666.2c-3,0-5.4-2.4-5.4-5.4c0-3,2.4-5.4,5.4-5.4h5.2c3,0,5.4,2.4,5.4,5.4c0,3-2.4,5.4-5.4,5.4H451.2z M430.4,666.2
		c-3,0-5.4-2.4-5.4-5.4c0-3,2.4-5.4,5.4-5.4h5.2c3,0,5.4,2.4,5.4,5.4c0,3-2.4,5.4-5.4,5.4H430.4z M409.6,666.2c-3,0-5.4-2.4-5.4-5.4
		c0-3,2.4-5.4,5.4-5.4h5.2c3,0,5.4,2.4,5.4,5.4c0,3-2.4,5.4-5.4,5.4H409.6z M388.9,666.2c-3,0-5.4-2.4-5.4-5.4c0-3,2.4-5.4,5.4-5.4
		h5.2c3,0,5.4,2.4,5.4,5.4c0,3-2.4,5.4-5.4,5.4H388.9z M368.1,666.2c-3,0-5.4-2.4-5.4-5.4c0-3,2.4-5.4,5.4-5.4h5.2
		c3,0,5.4,2.4,5.4,5.4c0,3-2.4,5.4-5.4,5.4H368.1z M347.3,666.2c-3,0-5.4-2.4-5.4-5.4c0-3,2.4-5.4,5.4-5.4h5.2c3,0,5.4,2.4,5.4,5.4
		c0,3-2.4,5.4-5.4,5.4H347.3z M326.5,666.2c-3,0-5.4-2.4-5.4-5.4c0-3,2.4-5.4,5.4-5.4h5.2c3,0,5.4,2.4,5.4,5.4c0,3-2.4,5.4-5.4,5.4
		H326.5z M305.8,666.2c-3,0-5.4-2.4-5.4-5.4c0-3,2.4-5.4,5.4-5.4h5.2c3,0,5.4,2.4,5.4,5.4c0,3-2.4,5.4-5.4,5.4H305.8z M285,666.2
		c-3,0-5.4-2.4-5.4-5.4c0-3,2.4-5.4,5.4-5.4h5.2c3,0,5.4,2.4,5.4,5.4c0,3-2.4,5.4-5.4,5.4H285z M264.2,666.2c-3,0-5.4-2.4-5.4-5.4
		c0-3,2.4-5.4,5.4-5.4h5.2c3,0,5.4,2.4,5.4,5.4c0,3-2.4,5.4-5.4,5.4H264.2z M243.4,666.2c-3,0-5.4-2.4-5.4-5.4c0-3,2.4-5.4,5.4-5.4
		h5.2c3,0,5.4,2.4,5.4,5.4c0,3-2.4,5.4-5.4,5.4H243.4z M222.7,666.2c-3,0-5.4-2.4-5.4-5.4c0-3,2.4-5.4,5.4-5.4h5.2
		c3,0,5.4,2.4,5.4,5.4c0,3-2.4,5.4-5.4,5.4H222.7z M201.9,666.2c-3,0-5.4-2.4-5.4-5.4c0-3,2.4-5.4,5.4-5.4h5.2c3,0,5.4,2.4,5.4,5.4
		c0,3-2.4,5.4-5.4,5.4H201.9z M181.1,666.2c-3,0-5.4-2.4-5.4-5.4c0-3,2.4-5.4,5.4-5.4h5.2c3,0,5.4,2.4,5.4,5.4c0,3-2.4,5.4-5.4,5.4
		H181.1z M160.4,666.2c-3,0-5.4-2.4-5.4-5.4c0-3,2.4-5.4,5.4-5.4h5.2c3,0,5.4,2.4,5.4,5.4c0,3-2.4,5.4-5.4,5.4H160.4z M139.6,666.2
		c-3,0-5.4-2.4-5.4-5.4c0-3,2.4-5.4,5.4-5.4h5.2c3,0,5.4,2.4,5.4,5.4c0,3-2.4,5.4-5.4,5.4H139.6z M116.8,663.6
		c-2.7-1.3-3.9-4.5-2.6-7.2c1.3-2.7,4.5-3.9,7.2-2.6l1.2,0.5l0.8,0.3l1.1,0.3l0.6,0.1c2.9,0.6,4.9,3.4,4.3,6.4
		c-0.6,2.9-3.5,4.8-6.4,4.2l-1.9-0.5l-2.1-0.7l-1.7-0.7L116.8,663.6z M101.5,643.9c-0.5-2.9,1.4-5.8,4.3-6.3
		c2.9-0.6,5.8,1.4,6.3,4.4l0.2,1l0.2,0.8l0.3,1l0.3,0.8c1.2,2.7,0.1,5.9-2.6,7.2c-2.7,1.2-5.9,0.1-7.2-2.6l-0.6-1.5l-0.6-1.5l-0.6-2
		L101.5,643.9z M101,622.2c0-3,2.4-5.4,5.4-5.4c3,0,5.4,2.4,5.4,5.4v5.2c0,3-2.4,5.4-5.4,5.4c-3,0-5.4-2.4-5.4-5.4V622.2z
		 M101,601.4c0-3,2.4-5.4,5.4-5.4c3,0,5.4,2.4,5.4,5.4v5.2c0,3-2.4,5.4-5.4,5.4c-3,0-5.4-2.4-5.4-5.4V601.4z M101,580.6
		c0-3,2.4-5.4,5.4-5.4c3,0,5.4,2.4,5.4,5.4v5.2c0,3-2.4,5.4-5.4,5.4c-3,0-5.4-2.4-5.4-5.4V580.6z M101,559.8c0-3,2.4-5.4,5.4-5.4
		c3,0,5.4,2.4,5.4,5.4v5.2c0,3-2.4,5.4-5.4,5.4c-3,0-5.4-2.4-5.4-5.4V559.8z M101,539.1c0-3,2.4-5.4,5.4-5.4c3,0,5.4,2.4,5.4,5.4
		v5.2c0,3-2.4,5.4-5.4,5.4c-3,0-5.4-2.4-5.4-5.4V539.1z M101,518.3c0-3,2.4-5.4,5.4-5.4c3,0,5.4,2.4,5.4,5.4v5.2
		c0,3-2.4,5.4-5.4,5.4c-3,0-5.4-2.4-5.4-5.4V518.3z M101,497.5c0-3,2.4-5.4,5.4-5.4c3,0,5.4,2.4,5.4,5.4v5.2c0,3-2.4,5.4-5.4,5.4
		c-3,0-5.4-2.4-5.4-5.4V497.5z M101,476.7c0-3,2.4-5.4,5.4-5.4c3,0,5.4,2.4,5.4,5.4v5.2c0,3-2.4,5.4-5.4,5.4c-3,0-5.4-2.4-5.4-5.4
		V476.7z M101,456c0-3,2.4-5.4,5.4-5.4c3,0,5.4,2.4,5.4,5.4v5.2c0,3-2.4,5.4-5.4,5.4c-3,0-5.4-2.4-5.4-5.4V456z M101,435.2
		c0-3,2.4-5.4,5.4-5.4c3,0,5.4,2.4,5.4,5.4v5.2c0,3-2.4,5.4-5.4,5.4c-3,0-5.4-2.4-5.4-5.4V435.2z M101,414.4c0-3,2.4-5.4,5.4-5.4
		c3,0,5.4,2.4,5.4,5.4v5.2c0,3-2.4,5.4-5.4,5.4c-3,0-5.4-2.4-5.4-5.4V414.4z M101,393.7c0-3,2.4-5.4,5.4-5.4c3,0,5.4,2.4,5.4,5.4
		v5.2c0,3-2.4,5.4-5.4,5.4c-3,0-5.4-2.4-5.4-5.4V393.7z M111.7,371.3c2.3-1.8,5.8-1.4,7.6,1c1.8,2.4,1.4,5.8-1,7.6l-0.7,0.6l-1,1
		l-0.8,0.8l-0.3,0.4c-1.9,2.3-5.3,2.7-7.6,0.8c-2.3-1.9-2.7-5.3-0.8-7.6l1.3-1.5l1.4-1.3l1.1-1L111.7,371.3z M128.3,376.4
		c-3,0-5.4-2.4-5.4-5.4s2.4-5.4,5.4-5.4h5.2c3,0,5.4,2.4,5.4,5.4s-2.4,5.4-5.4,5.4H128.3z"/>
	<path fill="#BCC2C6" d="M446.2,559.3h-84.3c-3.2,0-6.2,1.3-8.3,3.5c-2.1,2.1-3.5,5.1-3.5,8.3c0,3.3,1.3,6.2,3.5,8.3l0,0
		c2.1,2.1,5.1,3.4,8.3,3.4h84.3c3.2,0,6.2-1.3,8.3-3.5c2.1-2.1,3.5-5.1,3.5-8.3c0-3.2-1.3-6.2-3.5-8.3
		C452.4,560.7,449.4,559.3,446.2,559.3 M361.8,547.8h84.3c6.4,0,12.3,2.6,16.5,6.9l0,0c4.2,4.2,6.9,10.1,6.9,16.5
		c0,6.4-2.6,12.3-6.9,16.5c-4.2,4.2-10.1,6.9-16.5,6.9h-84.3c-6.4,0-12.3-2.6-16.5-6.9h0l0,0c-4.2-4.2-6.9-10.1-6.9-16.5
		c0-6.4,2.6-12.3,6.9-16.5C349.5,550.4,355.4,547.8,361.8,547.8z"/>
	<path fill="#34495E" d="M357.2,538.2h84.3c6.4,0,12.3,2.6,16.5,6.8l0,0c4.2,4.2,6.8,10.1,6.8,16.5v0c0,6.4-2.6,12.3-6.8,16.5
		c-4.2,4.2-10.1,6.9-16.5,6.9h-84.3c-6.4,0-12.2-2.6-16.5-6.9l0,0l0,0c-4.2-4.2-6.8-10.1-6.8-16.5v0c0-6.4,2.6-12.3,6.8-16.5
		C345,540.8,350.8,538.2,357.2,538.2"/>
	<path fill="#27CABF" d="M441.6,545.2c4.4,0,8.5,1.7,11.6,4.8c3.1,3.1,4.8,7.2,4.8,11.6c0,4.4-1.8,8.5-4.8,11.6
		c-3.1,3.1-7.2,4.8-11.6,4.8h-84.3c-4.4,0-8.5-1.7-11.6-4.8l0,0c-3.1-3.1-4.8-7.2-4.8-11.6c0-4.4,1.7-8.5,4.8-11.6
		c3.1-3.1,7.2-4.8,11.6-4.8H441.6z"/>
	<path fill="#51F4E9" d="M441.6,545.2c4.4,0,8.5,1.7,11.6,4.8c3.1,3.1,4.8,7.2,4.8,11.6c0,1.1-0.1,2.2-0.3,3.3
		c-0.6-3.1-2.2-6-4.5-8.3c-3.1-3.1-7.2-4.8-11.6-4.8h-84.3c-4.4,0-8.5,1.8-11.6,4.8c-2.3,2.3-3.8,5.2-4.5,8.3
		c-0.2-1.1-0.3-2.2-0.3-3.3c0-4.4,1.7-8.5,4.8-11.6c3.1-3.1,7.2-4.8,11.6-4.8H441.6z"/>
	<path fill-rule="evenodd" clip-rule="evenodd" fill="#BCC2C6" d="M401.7,437.3l7.9,7.9l14.4,14.4c2.2,2.2,2.2,5.7,0,7.9
		c-2.2,2.2-5.7,2.2-7.9,0l-8.8-8.8v35.8h-11.1v-35.8l-8.8,8.8c-2.2,2.2-5.7,2.2-7.9,0c-2.2-2.2-2.2-5.7,0-7.9l14.4-14.4L401.7,437.3
		z"/>
</g>
</svg>
