<?xml version="1.0" encoding="utf-8"?>
<!-- Generator: Adobe Illustrator 15.1.0, SVG Export Plug-In . SVG Version: 6.00 Build 0)  -->
<!DOCTYPE svg PUBLIC "-//W3C//DTD SVG 1.0//EN" "http://www.w3.org/TR/2001/REC-SVG-20010904/DTD/svg10.dtd">
<svg version="1.0" id="Layer_1" xmlns="http://www.w3.org/2000/svg" xmlns:xlink="http://www.w3.org/1999/xlink" x="0px" y="0px"
	 width="800px" height="800px" viewBox="0 0 800 800" enable-background="new 0 0 800 800" xml:space="preserve">
<g id="Header">
	<path fill="#BCC2C6" d="M33.1,34.5h736.2c8.5,0,16.1,3.5,21.7,9l0,0c5.6,5.6,9,13.2,9,21.7v654.6c0,8.4-3.5,16.1-9,21.7l0,0
		c-5.6,5.6-13.2,9-21.7,9H33.1c-8.5,0-16.1-3.5-21.7-9l0,0c-5.6-5.6-9-13.2-9-21.7V65.2c0-8.4,3.5-16.1,9-21.7l0,0
		C16.9,38,24.6,34.5,33.1,34.5"/>
	<path fill="#EBEFF0" d="M788.9,65.2v654.6c0,12.3-8.6,19.6-19.6,19.6H33.1c-11,0-19.6-7-19.6-19.6V65.2c0-12.8,8.6-19.6,19.6-19.6
		h736.2C780.2,45.6,788.9,52.7,788.9,65.2"/>
	<path fill="#94A4A5" d="M677.6,72.3c7.8,0,14.2,6.4,14.2,14.2s-6.3,14.2-14.2,14.2c-7.9,0-14.2-6.3-14.2-14.2
		C663.4,78.7,669.7,72.3,677.6,72.3 M722.1,72.3c7.8,0,14.2,6.4,14.2,14.2s-6.4,14.2-14.2,14.2c-7.8,0-14.2-6.3-14.2-14.2
		C707.9,78.7,714.3,72.3,722.1,72.3z M633,72.3c7.8,0,14.2,6.4,14.2,14.2s-6.3,14.2-14.2,14.2c-7.8,0-14.2-6.4-14.2-14.2
		S625.2,72.3,633,72.3z"/>
	<text transform="matrix(1 0 0 1 127.9233 85.2969)" fill="#93A2A3" font-family="'NexaBold'" font-size="44.0749">VIDEOS PLAYER</text>
</g>
<g id="Body">
	<path fill="#34495E" d="M29.7,126.5h743.7c7.3,0,14,3,18.8,7.8c4.8,4.8,7.8,11.5,7.8,18.8v572.2c0,7.3-3,14-7.8,18.8
		c-4.8,4.8-11.5,7.8-18.8,7.8H29.7c-7.3,0-14-3-18.8-7.8c-4.8-4.8-7.8-11.5-7.8-18.8V153.1c0-7.3,3-14,7.8-18.8
		C15.7,129.5,22.4,126.5,29.7,126.5"/>
	<path fill-rule="evenodd" clip-rule="evenodd" fill="#FFFFFF" d="M29.7,137.6c-4.1,0-8,1.7-11,4.6c-2.9,2.9-4.6,6.8-4.6,11v572.2
		c0,4.1,1.7,8,4.6,11c2.9,2.9,6.8,4.6,11,4.6h743.7c4.1,0,8-1.7,10.9-4.6c2.9-2.9,4.6-6.8,4.6-11V153.1c0-4.1-1.6-8-4.6-11
		c-2.9-2.9-6.8-4.6-10.9-4.6H29.7z"/>
	<path fill-rule="evenodd" clip-rule="evenodd" fill="#34495E" d="M95.2,217.1h267.6c8,0,14.6,6.6,14.6,14.6v160.5
		c0,8-6.6,14.6-14.6,14.6H95.2c-8,0-14.6-6.6-14.6-14.6V231.7C80.6,223.7,87.1,217.1,95.2,217.1"/>
	<path fill="#F65C4C" d="M95.2,228.2h267.6c1.9,0,3.5,1.5,3.5,3.5v160.5c0,1.9-1.6,3.5-3.5,3.5H95.2c-1.9,0-3.5-1.5-3.5-3.5V231.7
		C91.7,229.8,93.2,228.2,95.2,228.2"/>
	<path fill-rule="evenodd" clip-rule="evenodd" fill="#D63C2C" d="M255.7,332.1l-34.6,20c-2.4,1.4-5.1,2.3-7.8,2.3
		c-2.1,0-4.2-0.5-6-1.6c-1.8-1.1-3.2-2.6-4.3-4.4c-1.4-2.4-2-5.1-2-7.9v-40c0-2.7,0.6-5.5,2-7.9c1.1-1.8,2.6-3.4,4.4-4.4
		c1.8-1,3.8-1.5,5.9-1.5c2.8,0,5.5,0.9,7.8,2.3l34.6,20c2.4,1.4,4.5,3.3,5.9,5.7c1.1,1.8,1.6,3.9,1.6,6c0,2.1-0.6,4.1-1.6,5.9
		C260.1,328.9,258,330.8,255.7,332.1"/>
	<path fill-rule="evenodd" clip-rule="evenodd" fill="#34495E" d="M255.7,323.5l-34.6,20c-2.4,1.4-5.1,2.3-7.8,2.3
		c-2.1,0-4.2-0.6-6-1.6c-1.8-1.1-3.2-2.6-4.3-4.4c-1.4-2.4-2-5.1-2-7.9v-40c0-2.8,0.6-5.5,2-7.9c1.1-1.8,2.6-3.4,4.4-4.4
		c1.8-1,3.8-1.5,5.9-1.5c2.8,0,5.5,0.9,7.8,2.3l34.6,20c2.4,1.4,4.5,3.3,5.9,5.6c1.1,1.8,1.6,3.9,1.6,6c0,2.1-0.6,4.1-1.6,5.9
		C260.1,320.3,258,322.2,255.7,323.5"/>
	<path fill-rule="evenodd" clip-rule="evenodd" fill="#FFFFFF" d="M250.7,314.9c0.8-0.5,1.7-1.2,2.2-2c0.2-0.3,0.3-0.6,0.3-1
		c0-0.3-0.1-0.7-0.3-1c-0.5-0.8-1.4-1.5-2.3-2l-17.3-10l-17.3-10c-0.8-0.5-1.9-0.9-2.9-0.9c-0.4,0-0.7,0.1-1,0.3
		c-0.3,0.2-0.5,0.4-0.7,0.7c-0.5,0.9-0.6,2-0.6,3v40c0,1,0.2,2.1,0.6,2.9c0.2,0.3,0.4,0.6,0.7,0.8c0.3,0.2,0.6,0.3,1,0.3
		c0.9,0,2.1-0.5,2.9-1L250.7,314.9z"/>
	<path fill-rule="evenodd" clip-rule="evenodd" fill="#34495E" d="M229,258.9c-29.3,0-53,23.7-53,53c0,29.3,23.7,53,53,53
		c29.3,0,53-23.7,53-53C282,282.7,258.2,258.9,229,258.9 M229,247.8c35.4,0,64.1,28.7,64.1,64.1c0,35.4-28.7,64.1-64.1,64.1
		c-35.4,0-64.1-28.7-64.1-64.1C164.8,276.5,193.5,247.8,229,247.8z"/>
	<path fill-rule="evenodd" clip-rule="evenodd" fill="#34495E" d="M440.3,217.1h267.6c8,0,14.6,6.6,14.6,14.6v160.5
		c0,8-6.6,14.6-14.6,14.6H440.3c-8,0-14.6-6.6-14.6-14.6V231.7C425.7,223.7,432.3,217.1,440.3,217.1"/>
	<path fill="#F65C4C" d="M440.3,228.2h267.6c1.9,0,3.5,1.5,3.5,3.5v160.5c0,1.9-1.6,3.5-3.5,3.5H440.3c-1.9,0-3.5-1.5-3.5-3.5V231.7
		C436.9,229.8,438.4,228.2,440.3,228.2"/>
	<path fill-rule="evenodd" clip-rule="evenodd" fill="#D63C2C" d="M600.8,332.1l-34.6,20c-2.4,1.4-5.1,2.3-7.8,2.3
		c-2.1,0-4.2-0.5-6-1.6c-1.8-1.1-3.2-2.6-4.3-4.4c-1.4-2.4-2-5.1-2-7.9v-40c0-2.7,0.6-5.5,2-7.9c1.1-1.8,2.5-3.4,4.4-4.4
		c1.8-1,3.8-1.5,5.9-1.5c2.8,0,5.5,0.9,7.8,2.3l34.6,20c2.4,1.4,4.5,3.3,5.9,5.7c1.1,1.8,1.6,3.9,1.6,6c0,2.1-0.6,4.1-1.6,5.9
		C605.3,328.9,603.2,330.8,600.8,332.1"/>
	<path fill-rule="evenodd" clip-rule="evenodd" fill="#34495E" d="M600.8,323.5l-34.6,20c-2.4,1.4-5.1,2.3-7.8,2.3
		c-2.1,0-4.2-0.6-6-1.6c-1.8-1.1-3.2-2.6-4.3-4.4c-1.4-2.4-2-5.1-2-7.9v-40c0-2.8,0.6-5.5,2-7.9c1.1-1.8,2.5-3.4,4.4-4.4
		c1.8-1,3.8-1.5,5.9-1.5c2.8,0,5.5,0.9,7.8,2.3l34.6,20c2.4,1.4,4.5,3.3,5.9,5.6c1.1,1.8,1.6,3.9,1.6,6c0,2.1-0.6,4.1-1.6,5.9
		C605.3,320.3,603.2,322.2,600.8,323.5"/>
	<path fill-rule="evenodd" clip-rule="evenodd" fill="#FFFFFF" d="M595.9,314.9c0.8-0.5,1.7-1.2,2.2-2c0.2-0.3,0.3-0.6,0.3-1
		c0-0.3-0.1-0.7-0.3-1c-0.5-0.8-1.4-1.5-2.3-2l-17.3-10l-17.3-10c-0.8-0.5-1.9-0.9-2.9-0.9c-0.4,0-0.7,0.1-1,0.3
		c-0.3,0.2-0.5,0.4-0.7,0.7c-0.5,0.9-0.6,2-0.6,3v40c0,1,0.2,2.1,0.6,2.9c0.2,0.3,0.4,0.6,0.7,0.8c0.3,0.2,0.6,0.3,1,0.3
		c1,0,2.1-0.5,2.9-1L595.9,314.9z"/>
	<path fill-rule="evenodd" clip-rule="evenodd" fill="#34495E" d="M574.1,258.9c-29.3,0-53,23.7-53,53c0,29.3,23.7,53,53,53
		c29.3,0,53-23.7,53-53C627.1,282.7,603.4,258.9,574.1,258.9 M574.1,247.8c35.4,0,64.1,28.7,64.1,64.1c0,35.4-28.7,64.1-64.1,64.1
		c-35.4,0-64.1-28.7-64.1-64.1C510,276.5,538.7,247.8,574.1,247.8z"/>
	<path fill-rule="evenodd" clip-rule="evenodd" fill="#34495E" d="M95.2,471.7h267.6c8,0,14.6,6.6,14.6,14.6v160.5
		c0,8-6.6,14.6-14.6,14.6H95.2c-8,0-14.6-6.5-14.6-14.6V486.2C80.6,478.2,87.1,471.7,95.2,471.7"/>
	<path fill="#F65C4C" d="M95.2,482.8h267.6c1.9,0,3.5,1.5,3.5,3.5v160.5c0,1.9-1.6,3.5-3.5,3.5H95.2c-1.9,0-3.5-1.5-3.5-3.5V486.2
		C91.7,484.3,93.2,482.8,95.2,482.8"/>
	<path fill-rule="evenodd" clip-rule="evenodd" fill="#D63C2C" d="M255.7,586.7l-34.6,20c-2.4,1.4-5.1,2.3-7.8,2.3
		c-2.1,0-4.2-0.5-6-1.6c-1.8-1.1-3.2-2.6-4.3-4.4c-1.4-2.4-2-5.2-2-7.9v-40c0-2.7,0.6-5.5,2-7.9c1.1-1.8,2.6-3.4,4.4-4.4
		c1.8-1,3.8-1.5,5.9-1.5c2.8,0,5.5,0.9,7.8,2.3l34.6,20c2.4,1.4,4.5,3.3,5.9,5.7c1.1,1.8,1.6,3.9,1.6,6c0,2.1-0.6,4.1-1.6,5.9
		C260.1,583.4,258,585.3,255.7,586.7"/>
	<path fill-rule="evenodd" clip-rule="evenodd" fill="#34495E" d="M255.7,578.1l-34.6,20c-2.4,1.4-5.1,2.3-7.8,2.3
		c-2.1,0-4.2-0.5-6-1.6c-1.8-1.1-3.2-2.6-4.3-4.4c-1.4-2.4-2-5.1-2-7.9v-40c0-2.8,0.6-5.5,2-7.9c1.1-1.9,2.6-3.4,4.4-4.4
		c1.8-1,3.8-1.5,5.9-1.5c2.8,0,5.5,0.9,7.8,2.3l34.6,20c2.4,1.4,4.5,3.3,5.9,5.6c1.1,1.8,1.6,3.9,1.6,6c0,2.1-0.6,4.1-1.6,5.9
		C260.1,574.8,258,576.7,255.7,578.1"/>
	<path fill-rule="evenodd" clip-rule="evenodd" fill="#FFFFFF" d="M250.7,569.5c0.8-0.5,1.7-1.2,2.2-2c0.2-0.3,0.3-0.6,0.3-1
		c0-0.3-0.1-0.7-0.3-0.9c-0.5-0.9-1.4-1.5-2.3-2l-17.3-10l-17.3-10c-0.8-0.5-1.9-0.9-2.9-0.9c-0.4,0-0.7,0.1-1,0.3
		c-0.3,0.2-0.5,0.5-0.7,0.7c-0.5,0.9-0.6,2-0.6,3v40c0,1,0.2,2.1,0.6,2.9c0.2,0.3,0.4,0.6,0.7,0.8c0.3,0.2,0.6,0.3,1,0.3
		c0.9,0,2.1-0.5,2.9-1L250.7,569.5z"/>
	<path fill-rule="evenodd" clip-rule="evenodd" fill="#34495E" d="M229,513.5c-29.3,0-53,23.7-53,53c0,29.3,23.7,53,53,53
		c29.3,0,53-23.7,53-53C282,537.2,258.2,513.5,229,513.5 M229,502.4c35.4,0,64.1,28.7,64.1,64.1c0,35.4-28.7,64.1-64.1,64.1
		c-35.4,0-64.1-28.7-64.1-64.1C164.8,531.1,193.5,502.4,229,502.4z"/>
	<path fill-rule="evenodd" clip-rule="evenodd" fill="#34495E" d="M440.3,471.7h267.6c8,0,14.6,6.6,14.6,14.6v160.5
		c0,8-6.6,14.6-14.6,14.6H440.3c-8,0-14.6-6.5-14.6-14.6V486.2C425.7,478.2,432.3,471.7,440.3,471.7"/>
	<path fill="#F65C4C" d="M440.3,482.8h267.6c1.9,0,3.5,1.5,3.5,3.5v160.5c0,1.9-1.6,3.5-3.5,3.5H440.3c-1.9,0-3.5-1.5-3.5-3.5V486.2
		C436.9,484.3,438.4,482.8,440.3,482.8"/>
	<path fill-rule="evenodd" clip-rule="evenodd" fill="#D63C2C" d="M600.8,586.7l-34.6,20c-2.4,1.4-5.1,2.3-7.8,2.3
		c-2.1,0-4.2-0.5-6-1.6c-1.8-1.1-3.2-2.6-4.3-4.4c-1.4-2.4-2-5.2-2-7.9v-40c0-2.7,0.6-5.5,2-7.9c1.1-1.8,2.5-3.4,4.4-4.4
		c1.8-1,3.8-1.5,5.9-1.5c2.8,0,5.5,0.9,7.8,2.3l34.6,20c2.4,1.4,4.5,3.3,5.9,5.7c1.1,1.8,1.6,3.9,1.6,6c0,2.1-0.6,4.1-1.6,5.9
		C605.3,583.4,603.2,585.3,600.8,586.7"/>
	<path fill-rule="evenodd" clip-rule="evenodd" fill="#34495E" d="M600.8,578.1l-34.6,20c-2.4,1.4-5.1,2.3-7.8,2.3
		c-2.1,0-4.2-0.5-6-1.6c-1.8-1.1-3.2-2.6-4.3-4.4c-1.4-2.4-2-5.1-2-7.9v-40c0-2.8,0.6-5.5,2-7.9c1.1-1.9,2.5-3.4,4.4-4.4
		c1.8-1,3.8-1.5,5.9-1.5c2.8,0,5.5,0.9,7.8,2.3l34.6,20c2.4,1.4,4.5,3.3,5.9,5.6c1.1,1.8,1.6,3.9,1.6,6c0,2.1-0.6,4.1-1.6,5.9
		C605.3,574.8,603.2,576.7,600.8,578.1"/>
	<path fill-rule="evenodd" clip-rule="evenodd" fill="#FFFFFF" d="M595.9,569.5c0.8-0.5,1.7-1.2,2.2-2c0.2-0.3,0.3-0.6,0.3-1
		c0-0.3-0.1-0.7-0.3-0.9c-0.5-0.9-1.4-1.5-2.3-2l-17.3-10l-17.3-10c-0.8-0.5-1.9-0.9-2.9-0.9c-0.4,0-0.7,0.1-1,0.3
		c-0.3,0.2-0.5,0.5-0.7,0.7c-0.5,0.9-0.6,2-0.6,3v40c0,1,0.2,2.1,0.6,2.9c0.2,0.3,0.4,0.6,0.7,0.8c0.3,0.2,0.6,0.3,1,0.3
		c1,0,2.1-0.5,2.9-1L595.9,569.5z"/>
	<path fill-rule="evenodd" clip-rule="evenodd" fill="#34495E" d="M574.1,513.5c-29.3,0-53,23.7-53,53c0,29.3,23.7,53,53,53
		c29.3,0,53-23.7,53-53C627.1,537.2,603.4,513.5,574.1,513.5 M574.1,502.4c35.4,0,64.1,28.7,64.1,64.1c0,35.4-28.7,64.1-64.1,64.1
		c-35.4,0-64.1-28.7-64.1-64.1C510,531.1,538.7,502.4,574.1,502.4z"/>
	<path opacity="0.5" fill-rule="evenodd" clip-rule="evenodd" fill="#34495E" d="M29.7,137.6c-4.1,0-8,1.7-11,4.6
		c-2.9,2.9-4.6,6.8-4.6,11v572.2c0,4.1,1.7,8,4.6,11c2.9,2.9,6.8,4.6,11,4.6h743.7c4.1,0,8-1.7,10.9-4.6c2.9-2.9,4.6-6.8,4.6-11
		V153.1c0-4.1-1.6-8-4.6-11c-2.9-2.9-6.8-4.6-10.9-4.6H29.7z"/>
	<path fill-rule="evenodd" clip-rule="evenodd" fill="#FFFFFF" d="M711.6,175.3l11.8,11.8l11.8-11.8c2.9-2.9,7.6-2.9,10.5,0l0,0
		c2.9,2.9,2.9,7.6,0,10.5l-11.8,11.8l11.8,11.8c2.9,2.9,2.9,7.6,0,10.5l0,0c-2.9,2.9-7.6,2.9-10.5,0l-11.8-11.8l-11.8,11.8
		c-2.9,2.9-7.6,2.9-10.5,0l0,0c-2.9-2.9-2.9-7.6,0-10.5l11.8-11.8L701,185.8c-2.9-2.9-2.9-7.6,0-10.5h0
		C703.9,172.4,708.7,172.4,711.6,175.3"/>
	<path fill-rule="evenodd" clip-rule="evenodd" fill="#34495E" d="M168.7,246.3h465.7c8,0,14.6,6.6,14.6,14.6v356.6
		c0,8-6.6,14.6-14.6,14.6H168.7c-8,0-14.6-6.6-14.6-14.6V260.9C154.1,252.9,160.6,246.3,168.7,246.3"/>
	<path fill="#FFFFFF" d="M168.7,257.5h465.7c1.9,0,3.5,1.6,3.5,3.5v356.6c0,1.9-1.6,3.5-3.5,3.5H168.7c-1.9,0-3.5-1.6-3.5-3.5V260.9
		C165.2,259,166.8,257.5,168.7,257.5"/>
	<path fill-rule="evenodd" clip-rule="evenodd" fill="#34495E" d="M168.7,246.3h465.7c8,0,14.6,6.6,14.6,14.6v272.1
		c0,8-6.6,14.6-14.6,14.6H168.7c-8,0-14.6-6.6-14.6-14.6V260.9C154.1,252.9,160.6,246.3,168.7,246.3"/>
	<path fill="#F65C4C" d="M168.7,257.5h465.7c1.9,0,3.5,1.6,3.5,3.5v272.1c0,1.9-1.6,3.5-3.5,3.5H168.7c-1.9,0-3.5-1.5-3.5-3.5V260.9
		C165.2,259,166.8,257.5,168.7,257.5"/>
	<path fill="#D63C2C" d="M432,419.4l-24.6,14.2h0l-24.6,14.2c-3.4,2-6.8,2.9-9.8,2.9c-2.6,0-5.1-0.7-7.2-2c-2.1-1.2-3.9-3-5.2-5.3
		c-1.6-2.7-2.4-6.1-2.4-9.9v-28.4v-28.4c0-3.9,0.9-7.2,2.4-9.9c1.3-2.3,3.1-4.1,5.3-5.3c2.2-1.2,4.6-1.8,7.1-1.8
		c3.1,0,6.5,0.9,9.8,2.9l0,0l24.6,14.2L432,391h0c3.4,2,5.8,4.4,7.4,7.1c1.3,2.3,2,4.7,1.9,7.2c0,2.4-0.7,4.8-2,7.1
		C437.8,415,435.3,417.5,432,419.4"/>
	<path fill="#34495E" d="M432,411.2l-24.6,14.2h0l-24.6,14.2c-3.4,2-6.8,2.9-9.8,2.9c-2.6,0-5.1-0.7-7.2-1.9c-2.1-1.2-3.9-3-5.2-5.3
		c-1.6-2.7-2.4-6.1-2.4-9.9V397v-28.4c0-3.9,0.9-7.2,2.4-9.9c1.3-2.3,3.1-4.1,5.3-5.3c2.2-1.2,4.6-1.8,7.1-1.8
		c3.1,0,6.5,0.9,9.8,2.9l0,0l24.6,14.2l24.6,14.2h0c3.4,2,5.8,4.4,7.4,7.1c1.3,2.3,2,4.7,1.9,7.2c0,2.4-0.7,4.8-2,7.1
		C437.8,406.8,435.3,409.3,432,411.2"/>
	<path fill-rule="evenodd" clip-rule="evenodd" fill="#FFFFFF" d="M426.3,401.3c1.2-0.7,2.5-1.7,3.2-2.9c0.3-0.4,0.4-0.9,0.4-1.4
		c0-0.5-0.2-0.9-0.4-1.4c-0.7-1.2-2-2.2-3.2-2.9l-24.6-14.2l-24.5-14.2c-1.2-0.7-2.7-1.3-4.1-1.3c-0.5,0-1,0.1-1.5,0.4
		c-0.4,0.2-0.7,0.6-1,1.1c-0.7,1.2-0.9,2.8-0.9,4.2v56.7c0,1.4,0.2,3,0.9,4.2c0.3,0.4,0.6,0.8,1,1.1c0.4,0.3,0.9,0.4,1.4,0.4
		c1.3,0,2.9-0.7,4-1.4L426.3,401.3z"/>
	<path fill-rule="evenodd" clip-rule="evenodd" fill="#34495E" d="M399.8,319.7c-42.7,0-77.3,34.6-77.3,77.3
		c0,42.7,34.6,77.3,77.3,77.3c42.7,0,77.3-34.6,77.3-77.3C477.1,354.3,442.5,319.7,399.8,319.7 M399.8,308.2
		c-49,0-88.8,39.7-88.8,88.8c0,49,39.8,88.8,88.8,88.8c49.1,0,88.8-39.8,88.8-88.8C488.6,348,448.9,308.2,399.8,308.2z"/>
	<path fill-rule="evenodd" clip-rule="evenodd" fill="#34495E" d="M215.4,590.5h372.2c3.1,0,5.6-2.5,5.6-5.6c0-3.1-2.5-5.6-5.6-5.6
		H215.4c-3,0-5.6,2.5-5.6,5.6C209.9,588,212.4,590.5,215.4,590.5"/>
	<path fill-rule="evenodd" clip-rule="evenodd" fill="#34495E" d="M282.3,562.2c12.6,0,22.7,10.2,22.7,22.7
		c0,12.6-10.2,22.7-22.7,22.7c-12.5,0-22.7-10.2-22.7-22.7C259.6,572.4,269.8,562.2,282.3,562.2"/>
	<path fill-rule="evenodd" clip-rule="evenodd" fill="#FFFFFF" d="M282.3,573.4c6.4,0,11.6,5.2,11.6,11.6c0,6.4-5.2,11.6-11.6,11.6
		c-6.4,0-11.6-5.2-11.6-11.6C270.7,578.6,275.9,573.4,282.3,573.4"/>
</g>
</svg>
