<?xml version="1.0" encoding="utf-8"?>
<!-- Generator: Adobe Illustrator 15.1.0, SVG Export Plug-In . SVG Version: 6.00 Build 0)  -->
<!DOCTYPE svg PUBLIC "-//W3C//DTD SVG 1.0//EN" "http://www.w3.org/TR/2001/REC-SVG-20010904/DTD/svg10.dtd">
<svg version="1.0" id="Layer_1" xmlns="http://www.w3.org/2000/svg" xmlns:xlink="http://www.w3.org/1999/xlink" x="0px" y="0px"
	 width="800px" height="800px" viewBox="0 0 800 800" enable-background="new 0 0 800 800" xml:space="preserve">
<g id="Header">
	<path fill="#BCC2C6" d="M33.1,34.5h736.2c8.5,0,16.1,3.5,21.7,9l0,0c5.6,5.6,9,13.2,9,21.7v654.6c0,8.4-3.5,16.1-9,21.7l0,0
		c-5.6,5.6-13.2,9-21.7,9H33.1c-8.5,0-16.1-3.5-21.7-9l0,0c-5.6-5.6-9-13.2-9-21.7V65.2c0-8.4,3.5-16.1,9-21.7l0,0
		C16.9,38,24.6,34.5,33.1,34.5"/>
	<path fill="#EBEFF0" d="M788.9,65.2v654.6c0,12.3-8.6,19.6-19.6,19.6H33.1c-11,0-19.6-7-19.6-19.6V65.2c0-12.8,8.6-19.6,19.6-19.6
		h736.2C780.2,45.6,788.9,52.7,788.9,65.2"/>
	<path fill="#94A4A5" d="M677.6,72.3c7.8,0,14.2,6.4,14.2,14.2s-6.3,14.2-14.2,14.2c-7.9,0-14.2-6.3-14.2-14.2
		C663.4,78.7,669.7,72.3,677.6,72.3 M722.1,72.3c7.8,0,14.2,6.4,14.2,14.2s-6.4,14.2-14.2,14.2c-7.8,0-14.2-6.3-14.2-14.2
		C707.9,78.7,714.3,72.3,722.1,72.3z M633,72.3c7.8,0,14.2,6.4,14.2,14.2s-6.3,14.2-14.2,14.2c-7.8,0-14.2-6.4-14.2-14.2
		S625.2,72.3,633,72.3z"/>
	<text transform="matrix(1 0 0 1 220.6777 85.2969)" fill="#93A2A3" font-family="'NexaBold'" font-size="44.0749">VIDEOS</text>
</g>
<g id="Body">
	<path fill="#BCC2C6" d="M29.8,126.4h743.6c7.3,0,14,3,18.8,7.8c4.8,4.8,7.8,11.5,7.8,18.8v572.2c0,7.3-3,14-7.8,18.8
		c-4.8,4.8-11.5,7.8-18.8,7.8H29.8c-7.3,0-14-3-18.8-7.8c-4.8-4.8-7.8-11.5-7.8-18.8V153c0-7.3,3-14,7.8-18.8
		C15.8,129.3,22.5,126.4,29.8,126.4"/>
	<path fill-rule="evenodd" clip-rule="evenodd" fill="#FFFFFF" d="M29.8,137.5c-4.1,0-8,1.7-10.9,4.6c-2.9,2.9-4.6,6.8-4.6,10.9
		v572.2c0,4.1,1.6,8,4.6,11c2.9,2.9,6.8,4.6,10.9,4.6h743.6c4.1,0,8-1.7,10.9-4.6c2.9-2.9,4.5-6.8,4.5-11V153c0-4.1-1.6-8-4.5-10.9
		c-2.9-2.9-6.8-4.6-10.9-4.6H29.8z"/>
	<path fill-rule="evenodd" clip-rule="evenodd" fill="#34495E" d="M111.4,188.8h580.4c8,0,14.6,6.6,14.6,14.6V543
		c0,8-6.6,14.6-14.6,14.6H111.4c-8,0-14.6-6.6-14.6-14.6V203.4C96.8,195.4,103.3,188.8,111.4,188.8"/>
	<path fill="#FFFFFF" d="M111.4,200h580.4c1.9,0,3.5,1.6,3.5,3.5V543c0,1.9-1.6,3.5-3.5,3.5H111.4c-1.9,0-3.5-1.5-3.5-3.5V203.4
		C107.9,201.5,109.5,200,111.4,200"/>
	<path fill-rule="evenodd" clip-rule="evenodd" fill="#34495E" d="M111.4,188.8h580.4c8,0,14.6,6.6,14.6,14.6v255.2
		c0,8-6.6,14.6-14.6,14.6H111.4c-8,0-14.6-6.5-14.6-14.6V203.4C96.8,195.4,103.3,188.8,111.4,188.8"/>
	<path fill="#F65C4C" d="M111.4,200h580.4c1.9,0,3.5,1.6,3.5,3.5v255.2c0,1.9-1.6,3.5-3.5,3.5H111.4c-1.9,0-3.5-1.5-3.5-3.5V203.4
		C107.9,201.5,109.5,200,111.4,200"/>
	<path fill="#D63C2C" d="M433.8,353.4l-24.5,14.2h0l-24.6,14.2c-3.4,2-6.7,2.9-9.8,2.9c-2.6,0-5.1-0.7-7.2-1.9
		c-2.1-1.2-3.8-3-5.1-5.3c-1.6-2.7-2.5-6.1-2.5-9.9v-28.3v-28.4c0-3.9,0.9-7.2,2.4-9.9c1.3-2.3,3.1-4.1,5.3-5.3
		c2.2-1.2,4.6-1.8,7.1-1.8c3.1,0,6.5,0.9,9.8,2.9l0,0l24.5,14.2l24.6,14.2h0c3.4,2,5.8,4.4,7.4,7.1c1.3,2.3,2,4.7,1.9,7.2
		c0,2.4-0.7,4.8-2,7.1C439.6,349,437.1,351.5,433.8,353.4"/>
	<path fill="#34495E" d="M433.8,345.2l-24.5,14.2h0l-24.6,14.2c-3.4,2-6.7,2.9-9.8,2.9c-2.6,0-5.1-0.7-7.2-1.9
		c-2.1-1.2-3.8-3-5.1-5.3c-1.6-2.7-2.5-6.1-2.5-9.9V331v-28.4c0-3.9,0.9-7.2,2.4-9.9c1.3-2.3,3.1-4.1,5.3-5.3
		c2.2-1.2,4.6-1.8,7.1-1.8c3.1,0,6.5,0.9,9.8,2.9v0l24.5,14.2l24.6,14.2h0c3.4,2,5.8,4.4,7.4,7.1c1.3,2.3,2,4.7,1.9,7.2
		c0,2.4-0.7,4.8-2,7.1C439.6,340.9,437.1,343.3,433.8,345.2"/>
	<path fill-rule="evenodd" clip-rule="evenodd" fill="#FFFFFF" d="M428,335.3c1.2-0.7,2.5-1.7,3.2-2.9c0.3-0.4,0.4-0.9,0.4-1.4
		c0-0.5-0.2-0.9-0.4-1.4c-0.7-1.2-2-2.2-3.2-2.9l-24.6-14.2l-24.5-14.2c-1.2-0.7-2.7-1.3-4.1-1.3c-0.5,0-1,0.1-1.5,0.4
		c-0.4,0.2-0.7,0.6-1,1.1c-0.7,1.2-0.9,2.8-0.9,4.2v56.7c0,1.4,0.2,3,0.9,4.1c0.3,0.4,0.6,0.9,1,1.1c0.4,0.3,0.9,0.3,1.4,0.3
		c1.3,0,2.9-0.7,4.1-1.4L428,335.3z"/>
	<path fill-rule="evenodd" clip-rule="evenodd" fill="#34495E" d="M401.6,253.7c-42.7,0-77.3,34.6-77.3,77.3
		c0,42.7,34.6,77.3,77.3,77.3c42.7,0,77.3-34.6,77.3-77.3C478.9,288.3,444.3,253.7,401.6,253.7 M401.6,242.2
		c-49,0-88.8,39.7-88.8,88.8c0,49,39.7,88.8,88.8,88.8c49,0,88.8-39.8,88.8-88.8C490.4,282,450.6,242.2,401.6,242.2z"/>
	<path fill-rule="evenodd" clip-rule="evenodd" fill="#34495E" d="M158.1,516.1H645c3.1,0,5.6-2.5,5.6-5.6c0-3.1-2.5-5.6-5.6-5.6
		H158.1c-3.1,0-5.6,2.5-5.6,5.6C152.6,513.6,155.1,516.1,158.1,516.1"/>
	<path fill-rule="evenodd" clip-rule="evenodd" fill="#34495E" d="M225,487.8c12.5,0,22.7,10.2,22.7,22.7
		c0,12.6-10.2,22.7-22.7,22.7c-12.6,0-22.7-10.2-22.7-22.7C202.3,497.9,212.5,487.8,225,487.8"/>
	<path fill-rule="evenodd" clip-rule="evenodd" fill="#FFFFFF" d="M225,498.9c6.4,0,11.6,5.2,11.6,11.6s-5.2,11.6-11.6,11.6
		c-6.4,0-11.6-5.2-11.6-11.6S218.6,498.9,225,498.9"/>
	<rect x="96.8" y="594.4" fill-rule="evenodd" clip-rule="evenodd" fill="#34495E" width="94.9" height="94.9"/>
	<rect x="107.8" y="605.4" fill="#F65C4C" width="72.8" height="72.8"/>
	<rect x="268.4" y="594.4" fill-rule="evenodd" clip-rule="evenodd" fill="#34495E" width="94.9" height="94.9"/>
	<rect x="279.4" y="605.4" fill="#F65C4C" width="72.8" height="72.8"/>
	<rect x="439.9" y="594.4" fill-rule="evenodd" clip-rule="evenodd" fill="#34495E" width="94.9" height="94.9"/>
	<rect x="451" y="605.4" fill="#F65C4C" width="72.8" height="72.8"/>
	<rect x="611.5" y="594.4" fill-rule="evenodd" clip-rule="evenodd" fill="#34495E" width="94.9" height="94.9"/>
	<rect x="622.6" y="605.4" fill="#F65C4C" width="72.8" height="72.8"/>
</g>
</svg>
