<?xml version="1.0" encoding="utf-8"?>
<!-- Generator: Adobe Illustrator 15.1.0, SVG Export Plug-In . SVG Version: 6.00 Build 0)  -->
<!DOCTYPE svg PUBLIC "-//W3C//DTD SVG 1.0//EN" "http://www.w3.org/TR/2001/REC-SVG-20010904/DTD/svg10.dtd">
<svg version="1.0" id="Layer_1" xmlns="http://www.w3.org/2000/svg" xmlns:xlink="http://www.w3.org/1999/xlink" x="0px" y="0px"
	 width="800px" height="800px" viewBox="0 0 800 800" enable-background="new 0 0 800 800" xml:space="preserve">
<g id="Header">
	<path fill="#BCC2C6" d="M33.1,34.5h736.2c8.5,0,16.1,3.5,21.7,9l0,0c5.6,5.6,9,13.2,9,21.7v654.6c0,8.4-3.5,16.1-9,21.7l0,0
		c-5.6,5.6-13.2,9-21.7,9H33.1c-8.5,0-16.1-3.5-21.7-9l0,0c-5.6-5.6-9-13.2-9-21.7V65.2c0-8.4,3.5-16.1,9-21.7l0,0
		C16.9,38,24.6,34.5,33.1,34.5"/>
	<path fill="#EBEFF0" d="M788.9,65.2v654.6c0,12.3-8.6,19.6-19.6,19.6H33.1c-11,0-19.6-7-19.6-19.6V65.2c0-12.8,8.6-19.6,19.6-19.6
		h736.2C780.2,45.6,788.9,52.7,788.9,65.2"/>
	<path fill="#94A4A5" d="M677.6,72.3c7.8,0,14.2,6.4,14.2,14.2s-6.3,14.2-14.2,14.2c-7.9,0-14.2-6.3-14.2-14.2
		C663.4,78.7,669.7,72.3,677.6,72.3 M722.1,72.3c7.8,0,14.2,6.4,14.2,14.2s-6.4,14.2-14.2,14.2c-7.8,0-14.2-6.3-14.2-14.2
		C707.9,78.7,714.3,72.3,722.1,72.3z M633,72.3c7.8,0,14.2,6.4,14.2,14.2s-6.3,14.2-14.2,14.2c-7.8,0-14.2-6.4-14.2-14.2
		S625.2,72.3,633,72.3z"/>
	<text transform="matrix(1 0 0 1 220.6777 85.2969)" fill="#93A2A3" font-family="'NexaBold'" font-size="44.0749">VIDEOS</text>
</g>
<g id="Body">
	<path fill="#BCC2C6" d="M29.3,126.4h744c7.3,0,14,3,18.8,7.8c4.8,4.8,7.8,11.5,7.8,18.8v572.5c0,7.3-3,14-7.8,18.8
		c-4.8,4.8-11.5,7.8-18.8,7.8h-744c-7.3,0-14-3-18.8-7.8c-4.8-4.8-7.8-11.5-7.8-18.8V153c0-7.3,3-14,7.8-18.8
		C15.3,129.4,22,126.4,29.3,126.4"/>
	<path fill-rule="evenodd" clip-rule="evenodd" fill="#FFFFFF" d="M29.3,137.5c-4.1,0-8.1,1.7-11,4.6c-2.9,2.9-4.6,6.8-4.6,11v572.5
		c0,4.1,1.6,8,4.6,11c2.9,2.9,6.8,4.6,11,4.6h744c4.1,0,8-1.7,10.9-4.6c2.9-2.9,4.6-6.8,4.6-11V153c0-4.1-1.7-8-4.6-11
		c-2.9-2.9-6.8-4.6-10.9-4.6H29.3z"/>
	<path fill-rule="evenodd" clip-rule="evenodd" fill="#BCC2C6" d="M78.1,498.3h282c4.1,0,7.4-3.3,7.4-7.5l0,0c0-4.1-3.3-7.5-7.4-7.5
		h-282c-4.1,0-7.4,3.3-7.4,7.5l0,0C70.6,494.9,74,498.3,78.1,498.3"/>
	<path fill-rule="evenodd" clip-rule="evenodd" fill="#BCC2C6" d="M78.1,460.8h282c4.1,0,7.4-3.3,7.4-7.4v0c0-4.1-3.3-7.4-7.4-7.4
		h-282c-4.1,0-7.4,3.3-7.4,7.4v0C70.6,457.5,74,460.8,78.1,460.8"/>
	<path fill-rule="evenodd" clip-rule="evenodd" fill="#BCC2C6" d="M128.1,535.5H310c4.1,0,7.4-3.3,7.4-7.5c0-4.1-3.3-7.5-7.4-7.5
		H128.1c-4.1,0-7.5,3.4-7.5,7.5C120.7,532.2,124,535.5,128.1,535.5"/>
	<path fill-rule="evenodd" clip-rule="evenodd" fill="#BCC2C6" d="M442.5,498.3h282c4.1,0,7.4-3.3,7.4-7.5l0,0
		c0-4.1-3.3-7.5-7.4-7.5h-282c-4.1,0-7.4,3.3-7.4,7.5l0,0C435.1,494.9,438.5,498.3,442.5,498.3"/>
	<path fill-rule="evenodd" clip-rule="evenodd" fill="#BCC2C6" d="M442.5,460.8h282c4.1,0,7.4-3.3,7.4-7.4v0c0-4.1-3.3-7.4-7.4-7.4
		h-282c-4.1,0-7.4,3.3-7.4,7.4v0C435.1,457.5,438.5,460.8,442.5,460.8"/>
	<path fill-rule="evenodd" clip-rule="evenodd" fill="#BCC2C6" d="M492.6,535.5h181.9c4.1,0,7.5-3.3,7.5-7.5c0-4.1-3.4-7.5-7.5-7.5
		H492.6c-4.1,0-7.4,3.4-7.4,7.5C485.2,532.2,488.5,535.5,492.6,535.5"/>
	<path fill-rule="evenodd" clip-rule="evenodd" fill="#BCC2C6" d="M223,624.2h501.5c4.1,0,7.4,3.3,7.4,7.5l0,0
		c0,4.1-3.3,7.4-7.4,7.4H223c-4.1,0-7.5-3.3-7.5-7.4l0,0C215.6,627.6,218.9,624.2,223,624.2"/>
	<path fill-rule="evenodd" clip-rule="evenodd" fill="#BCC2C6" d="M223,661.6h501.5c4.1,0,7.4,3.3,7.4,7.4v0c0,4.1-3.3,7.4-7.4,7.4
		H223c-4.1,0-7.5-3.3-7.5-7.4v0C215.6,665,218.9,661.6,223,661.6"/>
	<path fill-rule="evenodd" clip-rule="evenodd" fill="#BCC2C6" d="M223,587h327.4c4.1,0,7.5,3.3,7.5,7.5c0,4.1-3.3,7.4-7.5,7.4H223
		c-4.1,0-7.5-3.3-7.5-7.4C215.6,590.3,218.9,587,223,587"/>
	<path fill-rule="evenodd" clip-rule="evenodd" fill="#34495E" d="M85.2,202.1h267.7c8,0,14.6,6.6,14.6,14.6v160.6
		c0,8-6.6,14.6-14.6,14.6H85.2c-8,0-14.6-6.6-14.6-14.6V216.7C70.6,208.7,77.2,202.1,85.2,202.1"/>
	<path fill="#F65C4C" d="M85.2,213.3h267.7c1.9,0,3.5,1.5,3.5,3.5v160.6c0,1.9-1.6,3.5-3.5,3.5H85.2c-1.9,0-3.5-1.5-3.5-3.5V216.7
		C81.8,214.8,83.3,213.3,85.2,213.3"/>
	<path fill-rule="evenodd" clip-rule="evenodd" fill="#D63C2C" d="M245.8,317.2l-34.7,20c-2.4,1.4-5.1,2.3-7.8,2.3
		c-2.1,0-4.2-0.5-6-1.6c-1.8-1.1-3.2-2.6-4.3-4.4c-1.4-2.4-2-5.1-2-7.9v-40c0-2.7,0.6-5.5,2-7.9c1.1-1.8,2.5-3.4,4.4-4.4
		c1.8-1,3.8-1.5,5.9-1.5c2.8,0,5.4,0.9,7.8,2.3l34.6,20c2.4,1.4,4.5,3.3,5.9,5.7c1.1,1.8,1.6,3.9,1.6,6c0,2.1-0.6,4.1-1.6,5.9
		C250.3,313.9,248.2,315.8,245.8,317.2"/>
	<path fill-rule="evenodd" clip-rule="evenodd" fill="#34495E" d="M245.8,308.6l-34.7,20c-2.4,1.4-5.1,2.3-7.8,2.3
		c-2.1,0-4.2-0.5-6-1.6c-1.8-1.1-3.2-2.6-4.3-4.4c-1.4-2.4-2-5.1-2-7.9v-40c0-2.8,0.6-5.5,2-7.9c1.1-1.9,2.5-3.4,4.4-4.5
		c1.8-1,3.8-1.5,5.9-1.5c2.8,0,5.4,0.9,7.8,2.3l34.6,20c2.4,1.4,4.5,3.3,5.9,5.7c1.1,1.8,1.6,3.9,1.6,6c0,2.1-0.6,4.1-1.6,5.9
		C250.3,305.3,248.2,307.2,245.8,308.6"/>
	<path fill-rule="evenodd" clip-rule="evenodd" fill="#FFFFFF" d="M240.9,300c0.8-0.5,1.7-1.2,2.2-2c0.2-0.3,0.3-0.6,0.3-1
		c0-0.3-0.1-0.7-0.3-1c-0.5-0.8-1.5-1.5-2.3-2l-17.3-10l-17.3-10c-0.8-0.5-1.9-0.9-2.9-0.9c-0.4,0-0.7,0.1-1,0.3
		c-0.3,0.2-0.5,0.5-0.7,0.7c-0.5,0.9-0.6,2-0.6,3v40c0,1,0.2,2.1,0.6,2.9c0.2,0.3,0.4,0.6,0.7,0.8s0.6,0.3,1,0.3c1,0,2.1-0.5,2.9-1
		L240.9,300z"/>
	<path fill-rule="evenodd" clip-rule="evenodd" fill="#34495E" d="M219.1,243.9c-29.3,0-53,23.7-53,53c0,29.3,23.7,53,53,53
		c29.3,0,53-23.7,53-53C272.1,267.7,248.4,243.9,219.1,243.9 M219.1,232.9c35.4,0,64.1,28.7,64.1,64.1c0,35.4-28.7,64.1-64.1,64.1
		c-35.4,0-64.1-28.7-64.1-64.1C154.9,261.6,183.7,232.9,219.1,232.9z"/>
	<path fill-rule="evenodd" clip-rule="evenodd" fill="#34495E" d="M449.7,202.1h267.7c8,0,14.6,6.6,14.6,14.6v160.6
		c0,8-6.6,14.6-14.6,14.6H449.7c-8,0-14.6-6.6-14.6-14.6V216.7C435.1,208.7,441.7,202.1,449.7,202.1"/>
	<path fill="#F65C4C" d="M449.7,213.3h267.7c1.9,0,3.5,1.5,3.5,3.5v160.6c0,1.9-1.5,3.5-3.5,3.5H449.7c-1.9,0-3.4-1.5-3.4-3.5V216.7
		C446.3,214.8,447.8,213.3,449.7,213.3"/>
	<path fill-rule="evenodd" clip-rule="evenodd" fill="#D63C2C" d="M610.3,317.2l-34.7,20c-2.4,1.4-5.1,2.3-7.8,2.3
		c-2.1,0-4.2-0.5-6-1.6c-1.8-1.1-3.3-2.6-4.3-4.4c-1.4-2.4-2-5.1-2-7.9v-40c0-2.7,0.6-5.5,2-7.9c1.1-1.8,2.6-3.4,4.4-4.4
		c1.8-1,3.8-1.5,5.9-1.5c2.8,0,5.5,0.9,7.8,2.3l34.6,20c2.4,1.4,4.5,3.3,5.9,5.7c1.1,1.8,1.6,3.9,1.6,6c0,2.1-0.6,4.1-1.6,5.9
		C614.8,313.9,612.7,315.8,610.3,317.2"/>
	<path fill-rule="evenodd" clip-rule="evenodd" fill="#34495E" d="M610.3,308.6l-34.7,20c-2.4,1.4-5.1,2.3-7.8,2.3
		c-2.1,0-4.2-0.5-6-1.6c-1.8-1.1-3.3-2.6-4.3-4.4c-1.4-2.4-2-5.1-2-7.9v-40c0-2.8,0.6-5.5,2-7.9c1.1-1.9,2.6-3.4,4.4-4.5
		c1.8-1,3.8-1.5,5.9-1.5c2.8,0,5.5,0.9,7.8,2.3l34.6,20c2.4,1.4,4.5,3.3,5.9,5.7c1.1,1.8,1.6,3.9,1.6,6c0,2.1-0.6,4.1-1.6,5.9
		C614.8,305.3,612.7,307.2,610.3,308.6"/>
	<path fill-rule="evenodd" clip-rule="evenodd" fill="#FFFFFF" d="M605.3,300c0.8-0.5,1.7-1.2,2.2-2c0.2-0.3,0.3-0.6,0.3-1
		c0-0.3-0.1-0.7-0.3-1c-0.5-0.8-1.4-1.5-2.3-2L588,284l-17.3-10c-0.8-0.5-1.9-0.9-2.9-0.9c-0.4,0-0.7,0.1-1,0.3
		c-0.3,0.2-0.5,0.5-0.7,0.7c-0.5,0.9-0.6,2-0.6,3v40c0,1,0.2,2.1,0.6,2.9c0.2,0.3,0.4,0.6,0.7,0.8c0.3,0.2,0.6,0.3,1,0.3
		c0.9,0,2.1-0.5,2.8-1L605.3,300z"/>
	<path fill-rule="evenodd" clip-rule="evenodd" fill="#34495E" d="M583.6,243.9c-29.3,0-53,23.7-53,53c0,29.3,23.7,53,53,53
		s53-23.7,53-53C636.6,267.7,612.9,243.9,583.6,243.9 M583.6,232.9c35.4,0,64.1,28.7,64.1,64.1c0,35.4-28.7,64.1-64.1,64.1
		c-35.4,0-64.1-28.7-64.1-64.1C519.4,261.6,548.2,232.9,583.6,232.9z"/>
	<rect x="70.6" y="584.3" fill-rule="evenodd" clip-rule="evenodd" fill="#34495E" width="94.9" height="94.9"/>
	<rect x="81.7" y="595.3" fill="#F65C4C" width="72.9" height="72.9"/>
</g>
</svg>
