<?xml version="1.0" encoding="utf-8"?>
<!-- Generator: Adobe Illustrator 15.1.0, SVG Export Plug-In . SVG Version: 6.00 Build 0)  -->
<!DOCTYPE svg PUBLIC "-//W3C//DTD SVG 1.0//EN" "http://www.w3.org/TR/2001/REC-SVG-20010904/DTD/svg10.dtd">
<svg version="1.0" id="Layer_1" xmlns="http://www.w3.org/2000/svg" xmlns:xlink="http://www.w3.org/1999/xlink" x="0px" y="0px"
	 width="800px" height="800px" viewBox="0 0 800 800" enable-background="new 0 0 800 800" xml:space="preserve">
<g id="Header">
	<path fill="#BCC2C6" d="M33.1,34.5h736.2c8.5,0,16.1,3.5,21.7,9l0,0c5.6,5.6,9,13.2,9,21.7v654.6c0,8.4-3.5,16.1-9,21.7l0,0
		c-5.6,5.6-13.2,9-21.7,9H33.1c-8.5,0-16.1-3.5-21.7-9l0,0c-5.6-5.6-9-13.2-9-21.7V65.2c0-8.4,3.5-16.1,9-21.7l0,0
		C16.9,38,24.6,34.5,33.1,34.5"/>
	<path fill="#EBEFF0" d="M788.9,65.2v654.6c0,12.3-8.6,19.6-19.6,19.6H33.1c-11,0-19.6-7-19.6-19.6V65.2c0-12.8,8.6-19.6,19.6-19.6
		h736.2C780.2,45.6,788.9,52.7,788.9,65.2"/>
	<path fill="#94A4A5" d="M677.6,72.3c7.8,0,14.2,6.4,14.2,14.2s-6.3,14.2-14.2,14.2c-7.9,0-14.2-6.3-14.2-14.2
		C663.4,78.7,669.7,72.3,677.6,72.3 M722.1,72.3c7.8,0,14.2,6.4,14.2,14.2s-6.4,14.2-14.2,14.2c-7.8,0-14.2-6.3-14.2-14.2
		C707.9,78.7,714.3,72.3,722.1,72.3z M633,72.3c7.8,0,14.2,6.4,14.2,14.2s-6.3,14.2-14.2,14.2c-7.8,0-14.2-6.4-14.2-14.2
		S625.2,72.3,633,72.3z"/>
	<text transform="matrix(1 0 0 1 211.3447 85.2969)" fill="#93A2A3" font-family="'NexaBold'" font-size="44.0749">VIDEOS</text>
</g>
<g id="Body">
	<path fill="#BCC2C6" d="M29.3,126.1h744c7.3,0,14,3,18.8,7.8c4.8,4.8,7.8,11.5,7.8,18.8v572.5c0,7.3-3,14-7.8,18.8
		c-4.8,4.8-11.5,7.8-18.8,7.8h-744c-7.3,0-14-3-18.8-7.8c-4.8-4.8-7.8-11.5-7.8-18.8V152.8c0-7.3,3-14,7.8-18.8
		C15.3,129.1,22,126.1,29.3,126.1"/>
	<path fill-rule="evenodd" clip-rule="evenodd" fill="#FFFFFF" d="M29.3,137.2c-4.1,0-8,1.7-10.9,4.6c-2.9,2.9-4.6,6.8-4.6,11v572.5
		c0,4.1,1.6,8,4.6,11c2.9,2.9,6.8,4.6,10.9,4.6h744c4.1,0,8-1.7,11-4.6c2.9-2.9,4.5-6.8,4.5-11V152.8c0-4.1-1.6-8-4.5-11
		c-2.9-2.9-6.9-4.6-11-4.6H29.3z"/>
	<path fill-rule="evenodd" clip-rule="evenodd" fill="#34495E" d="M94.8,216.8h267.7c8,0,14.6,6.6,14.6,14.6V392
		c0,8-6.6,14.6-14.6,14.6H94.8c-8,0-14.6-6.6-14.6-14.6V231.4C80.2,223.4,86.8,216.8,94.8,216.8"/>
	<path fill="#F65C4C" d="M94.8,227.9h267.7c1.9,0,3.5,1.5,3.5,3.5V392c0,1.9-1.6,3.5-3.5,3.5H94.8c-1.9,0-3.4-1.5-3.4-3.5V231.4
		C91.3,229.5,92.9,227.9,94.8,227.9"/>
	<path fill-rule="evenodd" clip-rule="evenodd" fill="#D63C2C" d="M255.4,331.9l-34.7,20c-2.4,1.4-5.1,2.3-7.8,2.3
		c-2.1,0-4.2-0.5-6-1.6c-1.8-1.1-3.2-2.6-4.3-4.4c-1.4-2.4-2-5.1-2-7.9v-40c0-2.7,0.6-5.5,2-7.9c1.1-1.8,2.5-3.4,4.4-4.4
		c1.8-1,3.8-1.5,5.9-1.5c2.8,0,5.5,0.9,7.8,2.3l34.6,20c2.4,1.4,4.5,3.3,5.9,5.7c1.1,1.8,1.6,3.9,1.6,6c0,2.1-0.6,4.1-1.6,5.9
		C259.9,328.6,257.8,330.5,255.4,331.9"/>
	<path fill-rule="evenodd" clip-rule="evenodd" fill="#34495E" d="M255.4,323.3l-34.7,20c-2.4,1.4-5.1,2.3-7.8,2.3
		c-2.1,0-4.2-0.6-6-1.6c-1.8-1.1-3.2-2.6-4.3-4.4c-1.4-2.4-2-5.1-2-7.9v-40c0-2.8,0.6-5.5,2-7.9c1.1-1.8,2.5-3.4,4.4-4.4
		c1.8-1,3.8-1.5,5.9-1.5c2.8,0,5.5,0.9,7.8,2.3l34.6,20c2.4,1.4,4.5,3.3,5.9,5.7c1.1,1.8,1.6,3.9,1.6,6c0,2.1-0.6,4.1-1.6,5.9
		C259.9,320,257.8,321.9,255.4,323.3"/>
	<path fill-rule="evenodd" clip-rule="evenodd" fill="#FFFFFF" d="M250.4,314.7c0.8-0.5,1.7-1.2,2.2-2c0.2-0.3,0.3-0.6,0.3-1
		c0-0.3-0.1-0.7-0.3-1c-0.5-0.8-1.4-1.5-2.3-2l-17.3-10l-17.3-10c-0.8-0.5-1.9-0.9-2.9-0.9c-0.4,0-0.7,0.1-1,0.3
		c-0.3,0.2-0.5,0.4-0.7,0.7c-0.5,0.9-0.6,2-0.6,3v40c0,1,0.2,2.1,0.7,2.9c0.2,0.3,0.4,0.6,0.7,0.8c0.3,0.2,0.6,0.3,1,0.3
		c0.9,0,2.1-0.5,2.9-1L250.4,314.7z"/>
	<path fill-rule="evenodd" clip-rule="evenodd" fill="#34495E" d="M228.7,258.6c-29.3,0-53,23.8-53,53c0,29.3,23.7,53,53,53
		c29.3,0,53-23.7,53-53C281.7,282.4,258,258.6,228.7,258.6 M228.7,247.5c35.4,0,64.1,28.7,64.1,64.1c0,35.4-28.7,64.1-64.1,64.1
		c-35.4,0-64.1-28.7-64.1-64.1C164.5,276.3,193.2,247.5,228.7,247.5z"/>
	<path fill-rule="evenodd" clip-rule="evenodd" fill="#34495E" d="M440.2,216.8h267.7c8,0,14.6,6.6,14.6,14.6V392
		c0,8-6.6,14.6-14.6,14.6H440.2c-8,0-14.6-6.6-14.6-14.6V231.4C425.5,223.4,432.1,216.8,440.2,216.8"/>
	<path fill="#F65C4C" d="M440.2,227.9h267.7c1.9,0,3.5,1.5,3.5,3.5V392c0,1.9-1.5,3.5-3.5,3.5H440.2c-1.9,0-3.5-1.5-3.5-3.5V231.4
		C436.7,229.5,438.3,227.9,440.2,227.9"/>
	<path fill-rule="evenodd" clip-rule="evenodd" fill="#D63C2C" d="M600.7,331.9l-34.7,20c-2.4,1.4-5.1,2.3-7.8,2.3
		c-2.1,0-4.2-0.5-6-1.6c-1.8-1.1-3.3-2.6-4.3-4.4c-1.4-2.4-2-5.1-2-7.9v-40c0-2.7,0.6-5.5,2-7.9c1.1-1.8,2.5-3.4,4.4-4.4
		c1.8-1,3.8-1.5,5.9-1.5c2.8,0,5.4,0.9,7.8,2.3l34.6,20c2.4,1.4,4.5,3.3,5.9,5.7c1.1,1.8,1.6,3.9,1.6,6c0,2.1-0.6,4.1-1.6,5.9
		C605.2,328.6,603.1,330.5,600.7,331.9"/>
	<path fill-rule="evenodd" clip-rule="evenodd" fill="#34495E" d="M600.7,323.3l-34.7,20c-2.4,1.4-5.1,2.3-7.8,2.3
		c-2.1,0-4.2-0.6-6-1.6c-1.8-1.1-3.3-2.6-4.3-4.4c-1.4-2.4-2-5.1-2-7.9v-40c0-2.8,0.6-5.5,2-7.9c1.1-1.8,2.5-3.4,4.4-4.4
		c1.8-1,3.8-1.5,5.9-1.5c2.8,0,5.4,0.9,7.8,2.3l34.6,20c2.4,1.4,4.5,3.3,5.9,5.7c1.1,1.8,1.6,3.9,1.6,6c0,2.1-0.6,4.1-1.6,5.9
		C605.2,320,603.1,321.9,600.7,323.3"/>
	<path fill-rule="evenodd" clip-rule="evenodd" fill="#FFFFFF" d="M595.8,314.7c0.8-0.5,1.7-1.2,2.2-2c0.2-0.3,0.3-0.6,0.3-1
		c0-0.3-0.1-0.7-0.3-1c-0.5-0.8-1.4-1.5-2.3-2l-17.3-10l-17.3-10c-0.8-0.5-1.9-0.9-2.9-0.9c-0.4,0-0.7,0.1-1,0.3
		c-0.3,0.2-0.5,0.4-0.7,0.7c-0.5,0.9-0.6,2-0.6,3v40c0,1,0.1,2.1,0.6,2.9c0.2,0.3,0.4,0.6,0.7,0.8c0.3,0.2,0.6,0.3,1,0.3
		c1,0,2.1-0.5,2.9-1L595.8,314.7z"/>
	<path fill-rule="evenodd" clip-rule="evenodd" fill="#34495E" d="M574,258.6c-29.3,0-53,23.8-53,53c0,29.3,23.7,53,53,53
		c29.3,0,53.1-23.7,53.1-53C627.1,282.4,603.3,258.6,574,258.6 M574,247.5c35.4,0,64.2,28.7,64.2,64.1c0,35.4-28.7,64.1-64.2,64.1
		c-35.4,0-64.1-28.7-64.1-64.1C509.9,276.3,538.6,247.5,574,247.5z"/>
	<path fill-rule="evenodd" clip-rule="evenodd" fill="#34495E" d="M94.8,471.5h267.7c8,0,14.6,6.6,14.6,14.6v160.6
		c0,8-6.6,14.6-14.6,14.6H94.8c-8,0-14.6-6.6-14.6-14.6V486.1C80.2,478,86.8,471.5,94.8,471.5"/>
	<path fill="#F65C4C" d="M94.8,482.6h267.7c1.9,0,3.5,1.5,3.5,3.5v160.6c0,1.9-1.6,3.5-3.5,3.5H94.8c-1.9,0-3.4-1.5-3.4-3.5V486.1
		C91.3,484.2,92.9,482.6,94.8,482.6"/>
	<path fill-rule="evenodd" clip-rule="evenodd" fill="#D63C2C" d="M255.4,586.6l-34.7,20c-2.4,1.4-5.1,2.3-7.8,2.3
		c-2.1,0-4.2-0.5-6-1.6c-1.8-1.1-3.2-2.6-4.3-4.4c-1.4-2.4-2-5.2-2-7.9v-40c0-2.7,0.6-5.5,2-7.9c1.1-1.8,2.5-3.4,4.4-4.4
		c1.8-1,3.8-1.5,5.9-1.5c2.8,0,5.5,0.9,7.8,2.3l34.6,20c2.4,1.4,4.5,3.3,5.9,5.7c1.1,1.8,1.6,3.9,1.6,6c0,2.1-0.6,4.1-1.6,5.9
		C259.9,583.3,257.8,585.2,255.4,586.6"/>
	<path fill-rule="evenodd" clip-rule="evenodd" fill="#34495E" d="M255.4,578l-34.7,20c-2.4,1.4-5.1,2.3-7.8,2.3
		c-2.1,0-4.2-0.5-6-1.6c-1.8-1.1-3.2-2.6-4.3-4.4c-1.4-2.4-2-5.1-2-7.9v-40c0-2.8,0.6-5.5,2-7.9c1.1-1.9,2.5-3.4,4.4-4.4
		c1.8-1,3.8-1.5,5.9-1.5c2.8,0,5.5,0.9,7.8,2.3l34.6,20c2.4,1.4,4.5,3.3,5.9,5.7c1.1,1.8,1.6,3.9,1.6,6c0,2.1-0.6,4.1-1.6,5.9
		C259.9,574.7,257.8,576.6,255.4,578"/>
	<path fill-rule="evenodd" clip-rule="evenodd" fill="#FFFFFF" d="M250.4,569.4c0.8-0.5,1.7-1.2,2.2-2c0.2-0.3,0.3-0.6,0.3-1
		c0-0.3-0.1-0.7-0.3-0.9c-0.5-0.9-1.4-1.5-2.3-2l-17.3-10l-17.3-10c-0.8-0.5-1.9-0.9-2.9-0.9c-0.4,0-0.7,0.1-1,0.3
		c-0.3,0.2-0.5,0.5-0.7,0.7c-0.5,0.9-0.6,2-0.6,3v40c0,1,0.2,2.1,0.7,2.9c0.2,0.3,0.4,0.6,0.7,0.8c0.3,0.2,0.6,0.3,1,0.3
		c0.9,0,2.1-0.5,2.9-1L250.4,569.4z"/>
	<path fill-rule="evenodd" clip-rule="evenodd" fill="#34495E" d="M228.7,513.3c-29.3,0-53,23.7-53,53c0,29.3,23.7,53.1,53,53.1
		c29.3,0,53-23.8,53-53.1C281.7,537.1,258,513.3,228.7,513.3 M228.7,502.2c35.4,0,64.1,28.7,64.1,64.1c0,35.4-28.7,64.2-64.1,64.2
		c-35.4,0-64.1-28.7-64.1-64.2C164.5,530.9,193.2,502.2,228.7,502.2z"/>
	<path fill-rule="evenodd" clip-rule="evenodd" fill="#34495E" d="M440.2,471.5h267.7c8,0,14.6,6.6,14.6,14.6v160.6
		c0,8-6.6,14.6-14.6,14.6H440.2c-8,0-14.6-6.6-14.6-14.6V486.1C425.5,478,432.1,471.5,440.2,471.5"/>
	<path fill="#F65C4C" d="M440.2,482.6h267.7c1.9,0,3.5,1.5,3.5,3.5v160.6c0,1.9-1.5,3.5-3.5,3.5H440.2c-1.9,0-3.5-1.5-3.5-3.5V486.1
		C436.7,484.2,438.3,482.6,440.2,482.6"/>
	<path fill-rule="evenodd" clip-rule="evenodd" fill="#D63C2C" d="M600.7,586.6l-34.7,20c-2.4,1.4-5.1,2.3-7.8,2.3
		c-2.1,0-4.2-0.5-6-1.6c-1.8-1.1-3.3-2.6-4.3-4.4c-1.4-2.4-2-5.2-2-7.9v-40c0-2.7,0.6-5.5,2-7.9c1.1-1.8,2.5-3.4,4.4-4.4
		c1.8-1,3.8-1.5,5.9-1.5c2.8,0,5.4,0.9,7.8,2.3l34.6,20c2.4,1.4,4.5,3.3,5.9,5.7c1.1,1.8,1.6,3.9,1.6,6c0,2.1-0.6,4.1-1.6,5.9
		C605.2,583.3,603.1,585.2,600.7,586.6"/>
	<path fill-rule="evenodd" clip-rule="evenodd" fill="#34495E" d="M600.7,578l-34.7,20c-2.4,1.4-5.1,2.3-7.8,2.3
		c-2.1,0-4.2-0.5-6-1.6c-1.8-1.1-3.3-2.6-4.3-4.4c-1.4-2.4-2-5.1-2-7.9v-40c0-2.8,0.6-5.5,2-7.9c1.1-1.9,2.5-3.4,4.4-4.4
		c1.8-1,3.8-1.5,5.9-1.5c2.8,0,5.4,0.9,7.8,2.3l34.6,20c2.4,1.4,4.5,3.3,5.9,5.7c1.1,1.8,1.6,3.9,1.6,6c0,2.1-0.6,4.1-1.6,5.9
		C605.2,574.7,603.1,576.6,600.7,578"/>
	<path fill-rule="evenodd" clip-rule="evenodd" fill="#FFFFFF" d="M595.8,569.4c0.8-0.5,1.7-1.2,2.2-2c0.2-0.3,0.3-0.6,0.3-1
		c0-0.3-0.1-0.7-0.3-0.9c-0.5-0.9-1.4-1.5-2.3-2l-17.3-10l-17.3-10c-0.8-0.5-1.9-0.9-2.9-0.9c-0.4,0-0.7,0.1-1,0.3
		c-0.3,0.2-0.5,0.5-0.7,0.7c-0.5,0.9-0.6,2-0.6,3v40c0,1,0.1,2.1,0.6,2.9c0.2,0.3,0.4,0.6,0.7,0.8c0.3,0.2,0.6,0.3,1,0.3
		c1,0,2.1-0.5,2.9-1L595.8,569.4z"/>
	<path fill-rule="evenodd" clip-rule="evenodd" fill="#34495E" d="M574,513.3c-29.3,0-53,23.7-53,53c0,29.3,23.7,53.1,53,53.1
		c29.3,0,53.1-23.8,53.1-53.1C627.1,537.1,603.3,513.3,574,513.3 M574,502.2c35.4,0,64.2,28.7,64.2,64.1c0,35.4-28.7,64.2-64.2,64.2
		c-35.4,0-64.1-28.7-64.1-64.2C509.9,530.9,538.6,502.2,574,502.2z"/>
</g>
</svg>
