<?xml version="1.0" encoding="utf-8"?>
<!-- Generator: Adobe Illustrator 18.0.0, SVG Export Plug-In . SVG Version: 6.00 Build 0)  -->
<!DOCTYPE svg PUBLIC "-//W3C//DTD SVG 1.1//EN" "http://www.w3.org/Graphics/SVG/1.1/DTD/svg11.dtd" [
	<!ENTITY ns_extend "http://ns.adobe.com/Extensibility/1.0/">
	<!ENTITY ns_ai "http://ns.adobe.com/AdobeIllustrator/10.0/">
	<!ENTITY ns_graphs "http://ns.adobe.com/Graphs/1.0/">
	<!ENTITY ns_vars "http://ns.adobe.com/Variables/1.0/">
	<!ENTITY ns_imrep "http://ns.adobe.com/ImageReplacement/1.0/">
	<!ENTITY ns_sfw "http://ns.adobe.com/SaveForWeb/1.0/">
	<!ENTITY ns_custom "http://ns.adobe.com/GenericCustomNamespace/1.0/">
	<!ENTITY ns_adobe_xpath "http://ns.adobe.com/XPath/1.0/">
]>
<svg version="1.1" id="Layer_1" xmlns:x="&ns_extend;" xmlns:i="&ns_ai;" xmlns:graph="&ns_graphs;"
	 xmlns="http://www.w3.org/2000/svg" xmlns:xlink="http://www.w3.org/1999/xlink" x="0px" y="0px" viewBox="0 0 455 400"
	 enable-background="new 0 0 455 400" xml:space="preserve">
<metadata>
	<sfw  xmlns="&ns_sfw;">
		<slices></slices>
		<sliceSourceBounds  width="444.1" height="393.6" y="3" x="5.3" bottomLeftOrigin="true"></sliceSourceBounds>
		<optimizationSettings></optimizationSettings>
	</sfw>
</metadata>
<g id="Header">
	<path fill="#FFFFFF" stroke="#010101" stroke-width="2" stroke-miterlimit="10" d="M18.7,4.4h417.5c6.8,0,12.2,5.4,12.2,12.2v36.6
		l0,0H6.5l0,0V16.7C6.5,9.9,12,4.4,18.7,4.4z"/>
	<g>
		<circle fill="#ECC85E" stroke="#010101" stroke-width="2" stroke-miterlimit="10" cx="402.6" cy="26.6" r="9.9"/>
		<circle fill="#E81D25" stroke="#010101" stroke-width="2" stroke-miterlimit="10" cx="346.2" cy="26.6" r="9.9"/>
		<circle fill="#83A28A" stroke="#010101" stroke-width="2" stroke-miterlimit="10" cx="374" cy="26.6" r="9.9"/>
	</g>
	<text transform="matrix(0.9822 0 0 1 47.2573 20)" fill="#414042" font-family="'ArialMT'" font-size="36">Feature</text>
</g>
<g id="Body">
	<path id="Placeholder" fill="#FFFFFF" stroke="#000000" stroke-width="2" stroke-miterlimit="10" d="M6.3,53.2h442.1l0,0v338.7
		c0,2.3-1.8,4.1-4.1,4.1H10.4c-2.3,0-4.1-1.8-4.1-4.1L6.3,53.2L6.3,53.2z"/>
	<g id="Feature_2_1_">
		<ellipse fill="#F1F2F2" stroke="#000000" stroke-width="2" stroke-miterlimit="10" cx="349.1" cy="301.6" rx="57.6" ry="57.7"/>
		<path fill="#FFFFFF" stroke="#000000" stroke-width="2" stroke-miterlimit="10" d="M389.9,322.5h-81.5c-0.4,0-0.7-0.3-0.7-0.7
			c0-0.2,0-0.3,0.1-0.4l15.1-22.4c0.5-0.6,1.3-0.7,1.9-0.3c0.1,0.1,0.2,0.2,0.3,0.3l15.1,16.9c0.2,0.3,0.7,0.4,1,0.1l0.1-0.1
			l22.9-34.2c0.4-0.7,1.3-0.9,1.9-0.5c0.2,0.1,0.3,0.3,0.5,0.5l24.2,39.9c0.1,0.4-0.1,0.7-0.5,0.8C390,322.5,390,322.5,389.9,322.5z
			"/>
		<line fill="none" stroke="#000000" stroke-width="2" stroke-miterlimit="10" x1="255.9" y1="283.8" x2="60.2" y2="283.8"/>
		<line fill="none" stroke="#000000" stroke-width="2" stroke-miterlimit="10" x1="255.9" y1="308.2" x2="76.6" y2="308.2"/>
		<line fill="none" stroke="#000000" stroke-width="2" stroke-miterlimit="10" x1="255.9" y1="332.7" x2="145.8" y2="332.7"/>
	</g>
	<g id="Feature_1_1_">
		<ellipse fill="#F1F2F2" stroke="#000000" stroke-width="2" stroke-miterlimit="10" cx="104.6" cy="147.6" rx="57.6" ry="57.7"/>
		<path fill="#FFFFFF" stroke="#000000" stroke-width="2" stroke-miterlimit="10" d="M145.4,168.4H63.9c-0.4,0-0.7-0.3-0.7-0.7
			c0-0.2,0-0.3,0.1-0.4l15.1-22.4c0.5-0.6,1.3-0.7,1.9-0.3c0.1,0.1,0.2,0.2,0.3,0.3l15.1,16.9c0.2,0.3,0.7,0.4,1,0.1l0.1-0.1
			l22.9-34.2c0.4-0.7,1.3-0.9,1.9-0.5c0.2,0.1,0.3,0.3,0.5,0.5l24,39.8C146,167.8,145.8,168.2,145.4,168.4L145.4,168.4z"/>
		<line fill="none" stroke="#000000" stroke-width="2" stroke-miterlimit="10" x1="198.8" y1="128.7" x2="394.4" y2="128.7"/>
		<line fill="none" stroke="#000000" stroke-width="2" stroke-miterlimit="10" x1="198.8" y1="153.2" x2="378.1" y2="153.2"/>
		<line fill="none" stroke="#000000" stroke-width="2" stroke-miterlimit="10" x1="198.8" y1="177.7" x2="308.8" y2="177.7"/>
	</g>
</g>
</svg>
