<?xml version="1.0" encoding="utf-8"?>
<!-- Generator: Adobe Illustrator 18.0.0, SVG Export Plug-In . SVG Version: 6.00 Build 0)  -->
<!DOCTYPE svg PUBLIC "-//W3C//DTD SVG 1.1//EN" "http://www.w3.org/Graphics/SVG/1.1/DTD/svg11.dtd" [
	<!ENTITY ns_extend "http://ns.adobe.com/Extensibility/1.0/">
	<!ENTITY ns_ai "http://ns.adobe.com/AdobeIllustrator/10.0/">
	<!ENTITY ns_graphs "http://ns.adobe.com/Graphs/1.0/">
	<!ENTITY ns_vars "http://ns.adobe.com/Variables/1.0/">
	<!ENTITY ns_imrep "http://ns.adobe.com/ImageReplacement/1.0/">
	<!ENTITY ns_sfw "http://ns.adobe.com/SaveForWeb/1.0/">
	<!ENTITY ns_custom "http://ns.adobe.com/GenericCustomNamespace/1.0/">
	<!ENTITY ns_adobe_xpath "http://ns.adobe.com/XPath/1.0/">
]>
<svg version="1.1" id="Layer_1" xmlns:x="&ns_extend;" xmlns:i="&ns_ai;" xmlns:graph="&ns_graphs;"
	 xmlns="http://www.w3.org/2000/svg" xmlns:xlink="http://www.w3.org/1999/xlink" x="0px" y="0px" viewBox="0 0 455 400"
	 enable-background="new 0 0 455 400" xml:space="preserve">
<metadata>
	<sfw  xmlns="&ns_sfw;">
		<slices></slices>
		<sliceSourceBounds  width="443.9" height="397.2" y="-0.6" x="5.5" bottomLeftOrigin="true"></sliceSourceBounds>
		<optimizationSettings></optimizationSettings>
	</sfw>
</metadata>
<g id="Header">
	<path fill="#FFFFFF" stroke="#010101" stroke-width="2" stroke-miterlimit="10" d="M18.7,4.4h417.5c6.8,0,12.2,5.4,12.2,12.2v36.6
		l0,0H6.5l0,0V16.7C6.5,9.9,12,4.4,18.7,4.4z"/>
	<g>
		<circle fill="#ECC85E" stroke="#010101" stroke-width="2" stroke-miterlimit="10" cx="402.6" cy="26.6" r="9.9"/>
		<circle fill="#E81D25" stroke="#010101" stroke-width="2" stroke-miterlimit="10" cx="346.2" cy="26.6" r="9.9"/>
		<circle fill="#83A28A" stroke="#010101" stroke-width="2" stroke-miterlimit="10" cx="374" cy="26.6" r="9.9"/>
	</g>
	<text transform="matrix(0.9822 0 0 1 47.2573 20)" fill="#414042" font-family="'ArialMT'" font-size="36">HomePage</text>
</g>
<g id="Body_1_">
	<g id="Placeholder-2">
		<path fill="#EFEFEF" stroke="#000000" stroke-width="2" stroke-miterlimit="10" d="M6.5,53.2h441.9l0,0v342.3
			c0,2.3-1.8,4.1-4.1,4.1H10.6c-2.2,0-4.1-1.8-4.1-4.1V53.2L6.5,53.2z"/>
	</g>
	<g id="Button">
		<path fill="#EA7171" stroke="#000000" stroke-width="2" stroke-miterlimit="10" d="M177.4,333.6h98.1c2.2,0,3.9,1.8,3.9,4v16.8
			c0,2.2-1.8,4-3.9,4h-98.1c-2.2,0-3.9-1.8-3.9-4v-16.8C173.5,335.4,175.2,333.6,177.4,333.6z"/>
	</g>
	<g id="Text">
		<line fill="#6E7682" stroke="#000000" stroke-width="2" stroke-miterlimit="10" x1="89.6" y1="290.8" x2="175.6" y2="290.8"/>
		<line fill="#6E7682" stroke="#000000" stroke-width="2" stroke-miterlimit="10" x1="187.2" y1="290.8" x2="363.4" y2="290.8"/>
		<line fill="#6E7682" stroke="#000000" stroke-width="2" stroke-miterlimit="10" x1="277.5" y1="308.3" x2="363.4" y2="308.3"/>
		<line fill="#6E7682" stroke="#000000" stroke-width="2" stroke-miterlimit="10" x1="89.6" y1="308.3" x2="265.9" y2="308.3"/>
	</g>
	<g id="Image">
		<path fill="#7FE5A1" stroke="#000000" stroke-width="2" stroke-miterlimit="10" d="M345,265.6H108.1c-1.1,0-2-0.9-2-2.1
			c0-0.4,0.1-0.8,0.3-1.1l43.8-65.6c1.2-1.9,3.8-2.4,5.6-1.1c0.3,0.2,0.6,0.4,0.8,0.7l43.6,49.5c0.7,0.9,2,0.9,2.9,0.2
			c0.1-0.1,0.2-0.2,0.3-0.4L269.7,145c1.2-1.9,3.7-2.5,5.6-1.3c0.5,0.3,0.9,0.8,1.3,1.3l70.1,117.1c0.7,0.8,0.7,2.2-0.2,2.9
			C346.1,265.5,345.6,265.6,345,265.6z"/>
	</g>
	<g id="Menu">
		<line fill="#EFEFEF" stroke="#000000" stroke-width="6" stroke-miterlimit="10" x1="246.8" y1="106.8" x2="295.7" y2="106.8"/>
		<line fill="#EFEFEF" stroke="#000000" stroke-width="6" stroke-miterlimit="10" x1="369" y1="106.8" x2="417.9" y2="106.8"/>
		<line fill="#EFEFEF" stroke="#000000" stroke-width="6" stroke-miterlimit="10" x1="303.8" y1="106.8" x2="360.8" y2="106.8"/>
	</g>
	<g id="Logo">
		<line fill="#EFEFEF" stroke="#000000" stroke-width="6" stroke-miterlimit="10" x1="35" y1="106.8" x2="83.9" y2="106.8"/>
	</g>
</g>
</svg>
