<?xml version="1.0" encoding="utf-8"?>
<!-- Generator: Adobe Illustrator 18.0.0, SVG Export Plug-In . SVG Version: 6.00 Build 0)  -->
<!DOCTYPE svg PUBLIC "-//W3C//DTD SVG 1.1//EN" "http://www.w3.org/Graphics/SVG/1.1/DTD/svg11.dtd" [
	<!ENTITY ns_extend "http://ns.adobe.com/Extensibility/1.0/">
	<!ENTITY ns_ai "http://ns.adobe.com/AdobeIllustrator/10.0/">
	<!ENTITY ns_graphs "http://ns.adobe.com/Graphs/1.0/">
	<!ENTITY ns_vars "http://ns.adobe.com/Variables/1.0/">
	<!ENTITY ns_imrep "http://ns.adobe.com/ImageReplacement/1.0/">
	<!ENTITY ns_sfw "http://ns.adobe.com/SaveForWeb/1.0/">
	<!ENTITY ns_custom "http://ns.adobe.com/GenericCustomNamespace/1.0/">
	<!ENTITY ns_adobe_xpath "http://ns.adobe.com/XPath/1.0/">
]>
<svg version="1.1" id="Layer_1" xmlns:x="&ns_extend;" xmlns:i="&ns_ai;" xmlns:graph="&ns_graphs;"
	 xmlns="http://www.w3.org/2000/svg" xmlns:xlink="http://www.w3.org/1999/xlink" x="0px" y="0px" viewBox="0 0 455 400"
	 enable-background="new 0 0 455 400" xml:space="preserve">
<metadata>
	<sfw  xmlns="&ns_sfw;">
		<slices></slices>
		<sliceSourceBounds  width="443.9" height="390.6" y="6" x="5.5" bottomLeftOrigin="true"></sliceSourceBounds>
	</sfw>
</metadata>
<g id="Header">
	<path fill="#FFFFFF" stroke="#010101" stroke-width="2" stroke-miterlimit="10" d="M18.7,4.4h417.5c6.8,0,12.2,5.4,12.2,12.2v36.6
		l0,0H6.5l0,0V16.7C6.5,9.9,12,4.4,18.7,4.4z"/>
	<g>
		<circle fill="#ECC85E" stroke="#010101" stroke-width="2" stroke-miterlimit="10" cx="402.6" cy="26.6" r="9.9"/>
		<circle fill="#E81D25" stroke="#010101" stroke-width="2" stroke-miterlimit="10" cx="346.2" cy="26.6" r="9.9"/>
		<circle fill="#83A28A" stroke="#010101" stroke-width="2" stroke-miterlimit="10" cx="374" cy="26.6" r="9.9"/>
	</g>
	<text transform="matrix(1 0 0 1 33.565 20)" fill="#414042" font-family="'ArialMT'" font-size="36">HomePage</text>
</g>
<g id="Body">
	<g id="Placeholder-2_1_">
		<path fill="#FFFFFF" stroke="#000000" stroke-width="2" stroke-miterlimit="10" d="M6.5,53.2h441.9l0,0V389c0,2.2-1.8,4-4.1,4
			H10.6c-2.2,0-4.1-1.8-4.1-4V53.2L6.5,53.2z"/>
	</g>
	<g id="Video">
		<path fill="#E56161" stroke="#000000" stroke-width="3" stroke-miterlimit="10" d="M88,198.7h277c2.2,0,4.1,1.8,4.1,4v153.6
			c0,2.2-1.8,4-4.1,4H88c-2.2,0-4.1-1.8-4.1-4V202.7C83.9,200.5,85.7,198.7,88,198.7z"/>
		<path fill="#FFFFFF" stroke="#000000" stroke-width="3" stroke-miterlimit="10" d="M202.4,279.5v-17.7c0.4-2.2,2.5-3.6,4.8-3.2
			c0.5,0.1,0.9,0.3,1.4,0.5l20,8.9l20,8.9c1.5,0.4,2.4,2,2,3.5c-0.3,1-1,1.7-2,2l-20,8.9l-20,8.9c-1.9,1.2-4.4,0.5-5.6-1.4
			c-0.3-0.4-0.4-0.9-0.5-1.3V279.5z"/>
	</g>
	<g id="Text">
		<line fill="#FFFFFF" stroke="#000000" stroke-width="2" stroke-miterlimit="10" x1="83.9" y1="152.2" x2="222.4" y2="152.2"/>
		<line fill="#FFFFFF" stroke="#000000" stroke-width="2" stroke-miterlimit="10" x1="246.8" y1="152.2" x2="369" y2="152.2"/>
		<line fill="#FFFFFF" stroke="#000000" stroke-width="2" stroke-miterlimit="10" x1="149" y1="172.4" x2="303.8" y2="172.4"/>
	</g>
	<g id="Menu_1_">
		<line fill="#FFFFFF" stroke="#000000" stroke-width="6" stroke-miterlimit="10" x1="246.8" y1="97.7" x2="295.7" y2="97.7"/>
		<line fill="#FFFFFF" stroke="#000000" stroke-width="6" stroke-miterlimit="10" x1="369" y1="97.7" x2="417.9" y2="97.7"/>
		<line fill="#FFFFFF" stroke="#000000" stroke-width="6" stroke-miterlimit="10" x1="303.8" y1="97.7" x2="360.8" y2="97.7"/>
	</g>
	<g id="Logo_1_">
		<line fill="#FFFFFF" stroke="#000000" stroke-width="6" stroke-miterlimit="10" x1="35" y1="97.7" x2="83.9" y2="97.7"/>
	</g>
</g>
</svg>
