<?xml version="1.0" encoding="utf-8"?>
<!-- Generator: Adobe Illustrator 18.0.0, SVG Export Plug-In . SVG Version: 6.00 Build 0)  -->
<!DOCTYPE svg PUBLIC "-//W3C//DTD SVG 1.1//EN" "http://www.w3.org/Graphics/SVG/1.1/DTD/svg11.dtd" [
	<!ENTITY ns_extend "http://ns.adobe.com/Extensibility/1.0/">
	<!ENTITY ns_ai "http://ns.adobe.com/AdobeIllustrator/10.0/">
	<!ENTITY ns_graphs "http://ns.adobe.com/Graphs/1.0/">
	<!ENTITY ns_vars "http://ns.adobe.com/Variables/1.0/">
	<!ENTITY ns_imrep "http://ns.adobe.com/ImageReplacement/1.0/">
	<!ENTITY ns_sfw "http://ns.adobe.com/SaveForWeb/1.0/">
	<!ENTITY ns_custom "http://ns.adobe.com/GenericCustomNamespace/1.0/">
	<!ENTITY ns_adobe_xpath "http://ns.adobe.com/XPath/1.0/">
]>
<svg version="1.1" id="Layer_1" xmlns:x="&ns_extend;" xmlns:i="&ns_ai;" xmlns:graph="&ns_graphs;"
	 xmlns="http://www.w3.org/2000/svg" xmlns:xlink="http://www.w3.org/1999/xlink" x="0px" y="0px" viewBox="0 0 455 400"
	 enable-background="new 0 0 455 400" xml:space="preserve">
<metadata>
	<sfw  xmlns="&ns_sfw;">
		<slices></slices>
		<sliceSourceBounds  width="443.9" height="392.7" y="3.9" x="5.5" bottomLeftOrigin="true"></sliceSourceBounds>
	</sfw>
</metadata>
<g id="Header">
	<path fill="#FFFFFF" stroke="#010101" stroke-width="2" stroke-miterlimit="10" d="M18.7,4.4h417.5c6.8,0,12.2,5.4,12.2,12.2v36.6
		l0,0H6.5l0,0V16.7C6.5,9.9,12,4.4,18.7,4.4z"/>
	<g>
		<circle fill="#ECC85E" stroke="#010101" stroke-width="2" stroke-miterlimit="10" cx="402.6" cy="26.6" r="9.9"/>
		<circle fill="#E81D25" stroke="#010101" stroke-width="2" stroke-miterlimit="10" cx="346.2" cy="26.6" r="9.9"/>
		<circle fill="#83A28A" stroke="#010101" stroke-width="2" stroke-miterlimit="10" cx="374" cy="26.6" r="9.9"/>
	</g>
	<text transform="matrix(1 0 0 1 33.565 20)" fill="#414042" font-family="'ArialMT'" font-size="36">HomePage</text>
</g>
<g id="Body_1_">
	<g id="Placeholder-2">
		<path fill="#FFFFFF" stroke="#000000" stroke-width="2" stroke-miterlimit="10" d="M6.5,53.2h441.9l0,0v337.9
			c0,2.2-1.8,4.1-4.1,4.1H10.6c-2.2,0-4.1-1.8-4.1-4.1V53.2L6.5,53.2z"/>
	</g>
	<g id="description">
		<line fill="#6E7682" stroke="#000000" stroke-width="2" stroke-miterlimit="10" x1="278.4" y1="350.1" x2="364.3" y2="350.1"/>
		<line fill="#6E7682" stroke="#000000" stroke-width="2" stroke-miterlimit="10" x1="90.5" y1="350.1" x2="266.7" y2="350.1"/>
	</g>
	<g id="Image">
		<path fill="#EFEFEF" stroke="#000000" stroke-width="2" stroke-miterlimit="10" d="M40,130.5h374.8c2.2,0,4.1,1.8,4.1,4.1v183
			c0,2.2-1.8,4.1-4.1,4.1H40c-2.2,0-4.1-1.8-4.1-4.1v-183C35.9,132.3,37.7,130.5,40,130.5z"/>
		<path fill="#7FE5A1" stroke="#000000" stroke-width="2" stroke-miterlimit="10" d="M346,283H109c-1.1,0-2-0.9-2-2.1
			c0-0.4,0.1-0.8,0.3-1.1l43.8-64.8c1.2-1.9,3.8-2.4,5.6-1.1c0.3,0.2,0.6,0.4,0.8,0.7l43.6,48.8c0.7,0.8,2,0.9,2.9,0.2
			c0.1-0.1,0.2-0.2,0.3-0.4l66.3-99.1c1.2-1.9,3.7-2.5,5.6-1.3c0.5,0.3,0.9,0.8,1.3,1.3l70.2,115.5c0.7,0.8,0.7,2.1-0.2,2.9
			C347.1,282.9,346.6,283.1,346,283z"/>
	</g>
	<g id="Menu">
		<line fill="#FFFFFF" stroke="#000000" stroke-width="6" stroke-miterlimit="10" x1="247.8" y1="102" x2="296.6" y2="102"/>
		<line fill="#FFFFFF" stroke="#000000" stroke-width="6" stroke-miterlimit="10" x1="304.8" y1="102" x2="361.8" y2="102"/>
		<line fill="#FFFFFF" stroke="#000000" stroke-width="6" stroke-miterlimit="10" x1="370" y1="102" x2="418.9" y2="102"/>
	</g>
	<g id="Logo">
		<line fill="#FFFFFF" stroke="#000000" stroke-width="6" stroke-miterlimit="10" x1="35.9" y1="102" x2="84.8" y2="102"/>
	</g>
</g>
</svg>
