<svg xmlns="http://www.w3.org/2000/svg" viewBox="0 0 240 440">
<rect x="2" y="2" width="236" height="436" rx="22" fill="#BCC2C6"/>
<rect x="7.88" y="7.88" width="224.24" height="424.24" rx="16.12" fill="#FFFFFF"/>
<rect x="102" y="18" width="36" height="5.9" rx="2.95" fill="#EBEFF0"/>
<g transform="translate(-80.42 -133.82) scale(0.4711)"><path fill-rule="evenodd" fill="#BCC2C6" d="M221.667,380.646l2.083-2.074l0,0l11.962-11.962l3.141-3.149 c1.143-1.141,3.008-1.141,4.157,0l0,0c1.142,1.15,1.142,3.016,0,4.157l-3.148,3.149l-9.88,9.879l10.971,10.971l2.058,2.066 c1.142,1.141,1.142,3.007,0,4.148l0,0c-1.149,1.149-3.015,1.149-4.157,0l-2.057-2.058L223.75,382.72l0,0L221.667,380.646z"/></g>
<rect x="84" y="41.6" width="72" height="7.9" rx="3.95" fill="#34495E"/>
<g transform="translate(-106.47 -198.09) scale(0.8113)"><path fill-rule="evenodd" fill="#34495E" d="M279.141,342.769c19.063,0,34.51,15.446,34.51,34.511 c0,19.057-15.446,34.503-34.51,34.503c-19.065,0-34.513-15.446-34.513-34.503C244.628,358.215,260.075,342.769,279.141,342.769"/><path fill="#22A6EF" d="M279.141,348.429c15.931,0,28.85,12.912,28.85,28.851c0,15.931-12.919,28.851-28.85,28.851 c-15.932,0-28.851-12.92-28.851-28.851C250.29,361.341,263.209,348.429,279.141,348.429"/><path fill-rule="evenodd" fill="#34495E" d="M279.141,380.19c10.145,0,18.898,5.943,22.975,14.538 c-5.271,6.928-13.597,11.403-22.975,11.403s-17.707-4.476-22.982-11.403C260.242,386.133,268.993,380.19,279.141,380.19"/><path fill-rule="evenodd" fill="#34495E" d="M279.141,357.857c7.91,0,14.329,6.411,14.329,14.331 c0,7.911-6.419,14.33-14.329,14.33c-7.911,0-14.331-6.419-14.331-14.33C264.81,364.268,271.229,357.857,279.141,357.857"/><path fill-rule="evenodd" fill="#39D4FF" d="M279.141,363.517c4.784,0,8.66,3.885,8.66,8.67 c0,4.785-3.876,8.661-8.66,8.661c-4.794,0-8.661-3.876-8.661-8.661C270.479,367.402,274.347,363.517,279.141,363.517"/><path fill-rule="evenodd" fill="#39D4FF" d="M279.141,385.858c8.678,0,16.055,5.594,18.705,13.379 c-5.036,4.293-11.563,6.894-18.705,6.894c-7.146,0-13.672-2.601-18.716-6.894C263.085,391.452,270.461,385.858,279.141,385.858"/></g>
<rect x="24" y="152" width="192" height="25.2" rx="4.97" fill="#BCC2C6"/><rect x="29.88" y="157.88" width="180.24" height="13.44" fill="#FFFFFF"/>
<rect x="24" y="190" width="192" height="25.2" rx="4.97" fill="#BCC2C6"/><rect x="29.88" y="195.88" width="180.24" height="13.44" fill="#FFFFFF"/>
<rect x="24" y="228" width="192" height="25.2" rx="4.97" fill="#BCC2C6"/><rect x="29.88" y="233.88" width="180.24" height="13.44" fill="#FFFFFF"/>
<rect x="24" y="266" width="192" height="25.2" rx="4.97" fill="#BCC2C6"/><rect x="29.88" y="271.88" width="180.24" height="13.44" fill="#FFFFFF"/>
<rect x="24" y="308" width="16" height="16" fill="#34495E"/><rect x="27.9" y="311.9" width="8.2" height="8.2" fill="#22A6EF"/>
<rect x="50" y="312" width="132" height="7.9" rx="3.95" fill="#BCC2C6"/>
<rect x="63.2" y="346.7" width="120" height="32.6" rx="16.3" fill="#BCC2C6"/><rect x="64.85" y="344.85" width="110.3" height="22.9" rx="11.45" fill="#51F4E9"/><rect x="64.85" y="349.43" width="110.3" height="22.9" rx="11.45" fill="#27CABF"/><path fill-rule="evenodd" fill="#34495E" d="M76.3,340h87.4a16.3,16.3 0 0 1 0,32.6h-87.4a16.3,16.3 0 0 1 0,-32.6zM76.3,344.85h87.4a11.45,11.45 0 0 1 0,22.9h-87.4a11.45,11.45 0 0 1 0,-22.9z"/>
<rect x="60" y="402" width="120" height="7.9" rx="3.95" fill="#BCC2C6"/>
</svg>
