<?xml version="1.0" encoding="utf-8"?>
<!-- Generator: Adobe Illustrator 19.2.1, SVG Export Plug-In . SVG Version: 6.00 Build 0)  -->
<svg version="1.1" id="Layer_1" xmlns="http://www.w3.org/2000/svg" xmlns:xlink="http://www.w3.org/1999/xlink" x="0px" y="0px"
	 viewBox="0 0 100 100" style="enable-background:new 0 0 100 100;" xml:space="preserve">
<style type="text/css">
	.st0{fill-rule:evenodd;clip-rule:evenodd;fill:#539EFB;}
</style>
<g>
	<path class="st0" d="M43,74.1L18.7,49.8l-9.8,9.8l18.8,18.8c3.5,3.5,6,5.3,8.1,5.3c2.1,0,4.6-1.8,8-5.2l34.3-34.3l1.9-1.9l1.9,1.9
		l13.6,13.6l1.9,1.9l-1.9,1.9L74.8,82.1c-4.6,4.6-8.2,6.8-12,6.8c-3.8,0-7.3-2.3-11.7-6.8l3.8-3.8c3.4,3.4,5.9,5.2,8,5.2
		c2.1,0,4.6-1.7,8.2-5.3l18.8-18.8L80,49.8L47.6,82.2c-4.5,4.5-8,6.7-11.8,6.8c-3.8,0-7.4-2.2-11.9-6.8L3.2,61.5l-1.9-1.9l1.9-1.9
		l13.6-13.6l1.9-1.9l1.9,1.9l26.2,26.2L43,74.1z"/>
	<polygon class="st0" points="57.4,60.3 49.4,52.2 41.3,60.3 37.5,56.5 47.5,46.5 49.4,44.6 51.2,46.5 61.2,56.5 	"/>
	
		<rect x="59.1" y="35.8" transform="matrix(0.7071 -0.7071 0.7071 0.7071 -13.1265 56.6362)" class="st0" width="5.4" height="16.7"/>
	<polygon class="st0" points="74,43.8 49.4,19.2 24.9,43.6 21.1,39.8 47.5,13.5 49.4,11.6 51.2,13.5 77.8,40 	"/>
</g>
</svg>
