<?xml version="1.0" standalone="no"?>
<!DOCTYPE svg PUBLIC "-//W3C//DTD SVG 20010904//EN"
 "http://www.w3.org/TR/2001/REC-SVG-20010904/DTD/svg10.dtd">
<svg version="1.0" xmlns="http://www.w3.org/2000/svg"
 width="99.000000pt" height="99.000000pt" viewBox="0 0 99.000000 99.000000"
 preserveAspectRatio="xMidYMid meet">
<metadata>
Created by potrace 1.11, written by Peter Selinger 2001-2013
</metadata>
<g transform="translate(0.000000,99.000000) scale(0.100000,-0.100000)"
fill="#000000" stroke="none">
<path d="M340 745 l-145 -145 23 -22 22 -23 125 125 125 125 125 -125 125
-125 22 23 23 22 -145 145 c-80 80 -147 145 -150 145 -3 0 -70 -65 -150 -145z"/>
<path d="M555 620 c-19 -21 -18 -21 43 -83 l62 -62 20 20 20 21 -63 62 -63 63
-19 -21z"/>
<path d="M85 490 l-90 -90 120 -121 c66 -67 138 -134 159 -150 42 -31 90 -38
129 -18 12 6 106 95 209 197 l188 187 47 -48 48 -47 -121 -120 c-77 -77 -128
-120 -142 -120 -11 0 -35 12 -52 26 l-31 27 -22 -21 c-21 -21 -21 -22 -1 -43
51 -56 121 -64 180 -20 21 16 93 83 159 150 l120 121 -90 90 -89 90 -201 -199
c-110 -109 -211 -204 -223 -210 -13 -7 -34 -10 -45 -7 -12 3 -74 57 -137 121
l-115 115 48 47 47 48 123 -123 123 -123 22 24 22 23 -143 142 c-78 78 -145
142 -147 142 -3 0 -46 -41 -95 -90z"/>
<path d="M425 490 l-59 -60 21 -22 22 -22 40 45 39 44 44 -43 44 -43 19 21
c18 20 18 21 -40 80 -33 33 -62 60 -65 60 -3 0 -32 -27 -65 -60z"/>
</g>
</svg>
