<?xml version="1.0" encoding="utf-8"?>
<!-- Generator: Adobe Illustrator 15.1.0, SVG Export Plug-In . SVG Version: 6.00 Build 0)  -->
<!DOCTYPE svg PUBLIC "-//W3C//DTD SVG 1.0//EN" "http://www.w3.org/TR/2001/REC-SVG-20010904/DTD/svg10.dtd">
<svg version="1.0" id="Layer_1" xmlns="http://www.w3.org/2000/svg" xmlns:xlink="http://www.w3.org/1999/xlink" x="0px" y="0px"
	 width="800px" height="800px" viewBox="203.67799377441406 222.13299560546875 421.0250244140625 377.9329833984375" enable-background="new 0 0 800 800" xml:space="preserve">
<g>
	<!-- <path fill="#BCC2C6" d="M219.892,222.133h388.6c4.459,0,8.52,1.826,11.452,4.751v0.025c2.934,2.935,4.759,6.977,4.759,11.428
		v345.521c0,4.452-1.825,8.487-4.759,11.42v0.018c-2.933,2.95-6.993,4.769-11.452,4.769h-388.6c-4.468,0-8.518-1.818-11.451-4.769
		v-0.018c-2.936-2.933-4.762-6.968-4.762-11.42V238.338c0-4.452,1.826-8.494,4.762-11.428v-0.025
		C211.374,223.959,215.424,222.133,219.892,222.133"/> -->
	<!-- <path fill="#EBEFF0" d="M618.817,238.338v345.521c0,6.504-4.534,10.321-10.326,10.321h-388.6c-5.785,0-10.325-3.719-10.325-10.321
		V238.338c0-6.735,4.559-10.319,10.325-10.319h388.6C614.274,228.019,618.817,231.719,618.817,238.338"/> -->
	<path fill="#BCC2C6" d="M217.75,269.597h392.882c3.878,0,7.393,1.584,9.937,4.134c2.55,2.543,4.134,6.07,4.134,9.936v302.327
		c0,3.866-1.584,7.402-4.134,9.938c-2.544,2.551-6.059,4.134-9.937,4.134H217.75c-3.866,0-7.393-1.583-9.936-4.134
		c-2.55-2.535-4.136-6.071-4.136-9.938V283.667c0-3.866,1.586-7.393,4.136-9.936C210.357,271.181,213.884,269.597,217.75,269.597"/>
	<path fill-rule="evenodd" clip-rule="evenodd" fill="#FFFFFF" d="M217.75,275.482c-2.175,0-4.243,0.867-5.783,2.402
		c-1.535,1.541-2.411,3.617-2.411,5.784v302.327c0,2.168,0.876,4.252,2.411,5.785c1.54,1.535,3.608,2.401,5.783,2.401h392.882
		c2.177,0,4.242-0.866,5.779-2.401c1.538-1.533,2.406-3.603,2.406-5.785V283.667c0-2.183-0.868-4.243-2.406-5.784
		c-1.537-1.535-3.611-2.402-5.779-2.402H217.75z"/>
	<!-- <path fill-rule="evenodd" clip-rule="evenodd" fill="#94A4A5" d="M560.066,242.098c4.136,0,7.494,3.36,7.494,7.493
		c0,4.135-3.349,7.485-7.494,7.485c-4.134,0-7.485-3.35-7.485-7.485C552.581,245.458,555.933,242.098,560.066,242.098
		 M583.591,242.098c4.135,0,7.485,3.36,7.485,7.493c0,4.135-3.351,7.485-7.485,7.485c-4.136,0-7.494-3.35-7.494-7.485
		C576.097,245.458,579.455,242.098,583.591,242.098z M536.551,242.098c4.137,0,7.488,3.36,7.488,7.493
		c0,4.135-3.352,7.485-7.488,7.485c-4.133,0-7.492-3.35-7.492-7.485C529.059,245.458,532.418,242.098,536.551,242.098z"/> -->
	<rect x="248.144" y="303.207" fill-rule="evenodd" clip-rule="evenodd" fill="#364A5E" width="54.675" height="54.675"/>
	<rect x="254.145" y="309.209" fill-rule="evenodd" clip-rule="evenodd" fill="#F19C1F" width="42.679" height="42.679"/>
	<path fill-rule="evenodd" clip-rule="evenodd" fill="#BCC2C6" d="M335.56,316.735h175.52c2.166,0,3.933,1.769,3.933,3.927l0,0
		c0,2.169-1.767,3.935-3.933,3.935H335.56c-2.158,0-3.925-1.766-3.925-3.935l0,0C331.635,318.504,333.401,316.735,335.56,316.735"/>
	<path fill-rule="evenodd" clip-rule="evenodd" fill="#BCC2C6" d="M335.56,336.5h152.67c2.167,0,3.935,1.767,3.935,3.925v0.01
		c0,2.151-1.768,3.919-3.935,3.919H335.56c-2.158,0-3.925-1.768-3.925-3.919v-0.01C331.635,338.267,333.401,336.5,335.56,336.5"/>
	<path fill-rule="evenodd" clip-rule="evenodd" fill="#BCC2C6" d="M557.583,318.761l6.219,6.229l6.218-6.229
		c1.533-1.524,4.036-1.524,5.563,0v0.01c1.53,1.526,1.53,4.026,0,5.559l-6.221,6.218l6.221,6.218c1.53,1.534,1.53,4.035,0,5.56l0,0
		c-1.526,1.524-4.029,1.524-5.563,0l-6.218-6.218l-6.219,6.218c-1.534,1.524-4.035,1.524-5.561,0l0,0
		c-1.533-1.525-1.533-4.026,0-5.56l6.219-6.218l-6.219-6.218c-1.533-1.533-1.533-4.033,0-5.559v-0.01
		C553.548,317.236,556.049,317.236,557.583,318.761"/>
	<rect x="248.144" y="379.371" fill-rule="evenodd" clip-rule="evenodd" fill="#364A5E" width="54.675" height="54.675"/>
	<rect x="254.145" y="385.366" fill-rule="evenodd" clip-rule="evenodd" fill="#F19C1F" width="42.679" height="42.678"/>
	<path fill-rule="evenodd" clip-rule="evenodd" fill="#BCC2C6" d="M335.56,392.899h175.52c2.166,0,3.933,1.767,3.933,3.925
		c0,2.161-1.767,3.936-3.933,3.936H335.56c-2.158,0-3.925-1.775-3.925-3.936C331.635,394.666,333.401,392.899,335.56,392.899"/>
	<path fill-rule="evenodd" clip-rule="evenodd" fill="#BCC2C6" d="M335.56,412.657h152.67c2.167,0,3.935,1.766,3.935,3.932
		c0,2.159-1.768,3.936-3.935,3.936H335.56c-2.158,0-3.925-1.776-3.925-3.936C331.635,414.423,333.401,412.657,335.56,412.657"/>
	<path fill-rule="evenodd" clip-rule="evenodd" fill="#BCC2C6" d="M557.583,394.934l6.219,6.219l6.218-6.219
		c1.533-1.535,4.036-1.535,5.563,0c1.53,1.526,1.53,4.018,0,5.552l-6.221,6.217l6.221,6.229c1.53,1.525,1.53,4.025,0,5.559l0,0
		c-1.526,1.534-4.029,1.534-5.563,0l-6.218-6.218l-6.219,6.218c-1.534,1.534-4.035,1.534-5.561,0l0,0
		c-1.533-1.533-1.533-4.033,0-5.559l6.219-6.229l-6.219-6.217c-1.533-1.534-1.533-4.025,0-5.552
		C553.548,393.399,556.049,393.399,557.583,394.934"/>
	<rect x="248.144" y="455.536" fill-rule="evenodd" clip-rule="evenodd" fill="#364A5E" width="54.675" height="54.666"/>
	<rect x="254.145" y="461.527" fill-rule="evenodd" clip-rule="evenodd" fill="#F19C1F" width="42.679" height="42.681"/>
	<path fill-rule="evenodd" clip-rule="evenodd" fill="#BCC2C6" d="M335.56,469.057h175.52c2.166,0,3.933,1.766,3.933,3.934l0,0
		c0,2.167-1.767,3.934-3.933,3.934H335.56c-2.158,0-3.925-1.767-3.925-3.934l0,0C331.635,470.822,333.401,469.057,335.56,469.057"/>
	<path fill-rule="evenodd" clip-rule="evenodd" fill="#BCC2C6" d="M335.56,488.821h152.67c2.167,0,3.935,1.766,3.935,3.924l0,0
		c0,2.169-1.768,3.936-3.935,3.936H335.56c-2.158,0-3.925-1.767-3.925-3.936l0,0C331.635,490.587,333.401,488.821,335.56,488.821"/>
	<path fill-rule="evenodd" clip-rule="evenodd" fill="#BCC2C6" d="M557.583,471.09l6.219,6.22l6.218-6.22
		c1.533-1.535,4.036-1.535,5.563,0l0,0c1.53,1.532,1.53,4.033,0,5.558l-6.221,6.219l6.221,6.229c1.53,1.525,1.53,4.018,0,5.551l0,0
		c-1.526,1.535-4.029,1.535-5.563,0l-6.218-6.218l-6.219,6.218c-1.534,1.535-4.035,1.535-5.561,0l0,0
		c-1.533-1.533-1.533-4.025,0-5.551l6.219-6.229l-6.219-6.219c-1.533-1.524-1.533-4.025,0-5.558l0,0
		C553.548,469.555,556.049,469.555,557.583,471.09"/>
	<path fill="#BCC2C6" d="M567.896,547.867h-44.582c-1.715,0-3.267,0.699-4.4,1.832c-1.134,1.135-1.834,2.701-1.834,4.403l0,0
		c0,1.733,0.692,3.282,1.816,4.4l0.018,0.017c1.117,1.133,2.686,1.833,4.4,1.833h44.582c1.708,0,3.269-0.717,4.402-1.85
		c1.124-1.118,1.833-2.685,1.833-4.4l0,0c0-1.719-0.701-3.269-1.827-4.403C571.171,548.566,569.604,547.867,567.896,547.867
		 M523.313,541.766h44.582c3.385,0,6.468,1.381,8.7,3.617l0.019,0.016c2.234,2.235,3.625,5.318,3.625,8.704l0,0
		c0,3.4-1.391,6.484-3.625,8.719c-2.234,2.251-5.328,3.633-8.719,3.633h-44.582c-3.382,0-6.467-1.382-8.708-3.633l0,0h-0.01
		c-2.242-2.251-3.627-5.336-3.627-8.719l0,0c0-3.386,1.385-6.487,3.627-8.72C516.829,543.146,519.915,541.766,523.313,541.766z"/>
	<path fill="#364A5E" d="M520.89,536.714h44.58c3.383,0,6.469,1.399,8.711,3.634h0.007c2.233,2.234,3.628,5.334,3.628,8.718l0,0
		c0,3.402-1.395,6.487-3.628,8.721c-2.233,2.232-5.325,3.617-8.718,3.617h-44.58c-3.385,0-6.47-1.385-8.703-3.617h-0.009
		l-0.006-0.017c-2.235-2.234-3.628-5.318-3.628-8.704l0,0c0-3.399,1.393-6.483,3.628-8.718
		C514.403,538.113,517.487,536.714,520.89,536.714"/>
	<path fill="#43C0B9" d="M565.47,540.398c2.299,0,4.502,0.9,6.127,2.533c1.631,1.635,2.542,3.834,2.542,6.134
		c0,2.303-0.917,4.503-2.552,6.119c-1.626,1.634-3.818,2.552-6.117,2.552h-44.58c-2.301,0-4.494-0.918-6.125-2.535l-0.01-0.017
		c-1.626-1.616-2.535-3.816-2.535-6.119c0-2.3,0.918-4.499,2.545-6.134c1.631-1.618,3.824-2.533,6.125-2.533H565.47z"/>
	<path fill="#7CCED2" d="M565.47,540.398c2.299,0,4.502,0.9,6.127,2.533c1.631,1.635,2.542,3.834,2.542,6.134
		c0,0.585-0.06,1.168-0.176,1.735c-0.342-1.635-1.157-3.167-2.366-4.385c-1.625-1.617-3.828-2.533-6.127-2.533h-44.58
		c-2.301,0-4.494,0.916-6.125,2.55c-1.213,1.201-2.028,2.733-2.37,4.386c-0.115-0.567-0.175-1.168-0.175-1.753
		c0-2.3,0.918-4.499,2.545-6.134c1.631-1.618,3.824-2.533,6.125-2.533H565.47z"/>
	<path fill-rule="evenodd" clip-rule="evenodd" fill="#BCC2C6" d="M252.077,547.649h225.892c2.167,0,3.934,1.768,3.934,3.933
		c0,2.168-1.767,3.937-3.934,3.937H252.077c-2.167,0-3.934-1.769-3.934-3.937C248.144,549.417,249.91,547.649,252.077,547.649"/>
	<!-- <path fill-rule="evenodd" clip-rule="evenodd" fill="#94A4A5" d="M440.116,256.394h2.574v-11.337h4.328v-2.334
		c-3.959,0-7.295,0-11.237,0v2.334h4.335V256.394z M424.87,245.123c1.617,0,2.34,1.093,2.34,2.193c0,1.1-0.706,2.192-2.34,2.192
		h-3.928v-4.385H424.87z M430.464,256.218l-4.135-4.66c2.593-0.525,3.449-2.418,3.449-4.301c0-2.367-1.691-4.519-4.908-4.535
		c-2.169,0.016-4.337,0-6.496,0v13.671h2.568v-4.568h2.484l3.976,4.568h3.062V256.218z M407.748,251.426h-5.066l2.532-5.835
		L407.748,251.426z M409.933,256.394h2.809l-6.129-13.671h-2.809l-6.125,13.671h2.793l1.166-2.567h7.144L409.933,256.394z
		 M392.035,252.91c-0.902,0.892-2.241,1.383-3.433,1.383c-3.378,0-4.688-2.367-4.703-4.627c-0.025-2.283,1.399-4.742,4.703-4.742
		c1.191,0,2.389,0.417,3.291,1.292l1.717-1.66c-1.399-1.384-3.159-2.083-5.008-2.083c-4.938,0-7.263,3.626-7.238,7.192
		c0.018,3.552,2.158,7.045,7.238,7.045c1.965,0,3.783-0.65,5.182-2.035L392.035,252.91z"/> -->
</g>
</svg>
