<?xml version="1.0" encoding="utf-8"?>
<!-- Generator: Adobe Illustrator 15.1.0, SVG Export Plug-In . SVG Version: 6.00 Build 0)  -->
<!DOCTYPE svg PUBLIC "-//W3C//DTD SVG 1.0//EN" "http://www.w3.org/TR/2001/REC-SVG-20010904/DTD/svg10.dtd">
<svg version="1.0" id="Layer_1" xmlns="http://www.w3.org/2000/svg" xmlns:xlink="http://www.w3.org/1999/xlink" x="0px" y="0px"
	 width="800px" height="800px" viewBox="194.4290008544922 199.8300018310547 421.0269775390625 377.9339599609375" enable-background="new 0 0 800 800" xml:space="preserve">
<g>
	<!-- <path fill="#BCC2C6" d="M210.646,199.83H599.25c4.449,0,8.51,1.818,11.446,4.752v0.025c2.932,2.934,4.758,6.977,4.758,11.428
		v345.521c0,4.436-1.826,8.487-4.758,11.42v0.019c-2.938,2.95-6.997,4.769-11.446,4.769H210.646c-4.461,0-8.521-1.817-11.443-4.769
		v-0.019c-2.938-2.933-4.771-6.984-4.771-11.42V216.035c0-4.451,1.834-8.494,4.771-11.428v-0.025
		C202.124,201.648,206.185,199.83,210.646,199.83"/> -->
	<!-- <path fill="#EBEFF0" d="M609.569,216.035v345.521c0,6.505-4.533,10.321-10.319,10.321H210.646c-5.787,0-10.328-3.719-10.328-10.321
		V216.035c0-6.735,4.565-10.319,10.328-10.319H599.25C605.036,205.716,609.569,209.416,609.569,216.035"/> -->
	<path fill="#364A5E" d="M208.5,247.295h392.884c3.875,0,7.395,1.584,9.936,4.134c2.552,2.543,4.136,6.069,4.136,9.937v302.326
		c0,3.865-1.584,7.385-4.136,9.938c-2.541,2.551-6.061,4.134-9.936,4.134H208.5c-3.868,0-7.384-1.583-9.935-4.134
		c-2.552-2.553-4.136-6.071-4.136-9.938V261.365c0-3.867,1.584-7.394,4.136-9.938C201.116,248.879,204.632,247.295,208.5,247.295"/>
	<path fill="#FFFFFF" d="M208.5,253.18c-2.175,0-4.232,0.866-5.774,2.401c-1.543,1.55-2.408,3.616-2.408,5.784v302.326
		c0,2.168,0.865,4.252,2.408,5.784c1.542,1.535,3.601,2.401,5.774,2.401h392.884c2.187,0,4.242-0.866,5.785-2.401
		c1.534-1.532,2.4-3.603,2.4-5.784V261.365c0-2.184-0.866-4.234-2.4-5.784c-1.543-1.535-3.619-2.401-5.785-2.401H208.5z"/>
	<!-- <path fill="#94A4A5" d="M550.819,219.795c4.135,0,7.491,3.359,7.491,7.493c0,4.135-3.356,7.485-7.491,7.485
		c-4.138,0-7.486-3.351-7.486-7.485C543.333,223.154,546.683,219.795,550.819,219.795 M574.343,219.795
		c4.135,0,7.484,3.359,7.484,7.493c0,4.135-3.35,7.485-7.484,7.485c-4.134,0-7.485-3.351-7.485-7.485
		C566.856,223.154,570.208,219.795,574.343,219.795z M527.302,219.795c4.135,0,7.495,3.359,7.495,7.493
		c0,4.135-3.36,7.485-7.495,7.485c-4.131,0-7.494-3.351-7.494-7.485C519.808,223.154,523.177,219.795,527.302,219.795z"/> -->
	<rect x="233.76" y="279.52" fill="#364A5E" width="342.365" height="119.37"/>
	<rect x="239.638" y="285.398" fill="#F19C1F" width="330.621" height="107.622"/>
	<path fill="#BCC2C6" d="M237.685,412.65h334.517c2.168,0,3.925,1.769,3.925,3.928v0.01c0,2.158-1.757,3.925-3.925,3.925H237.685
		c-2.166,0-3.936-1.767-3.936-3.925v-0.01C233.749,414.419,235.519,412.65,237.685,412.65"/>
	<path fill="#BCC2C6" d="M237.677,432.417h163.332c2.166,0,3.933,1.765,3.933,3.923v0.01c0,2.152-1.767,3.93-3.933,3.93H237.677
		c-2.149,0-3.928-1.776-3.928-3.93v-0.01C233.749,434.182,235.526,432.417,237.677,432.417"/>
	<rect x="233.826" y="462.999" fill="#364A5E" width="54.665" height="54.678"/>
	<rect x="239.818" y="469" fill="#F19C1F" width="42.671" height="42.676"/>
	<rect x="329.681" y="462.999" fill="#364A5E" width="54.672" height="54.678"/>
	<rect x="335.671" y="469" fill="#F19C1F" width="42.678" height="42.676"/>
	<rect x="425.54" y="462.999" fill="#364A5E" width="54.666" height="54.678"/>
	<rect x="431.532" y="469" fill="#F19C1F" width="42.68" height="42.676"/>
	<rect x="521.394" y="462.999" fill="#364A5E" width="54.664" height="54.678"/>
	<rect x="527.396" y="469" fill="#F19C1F" width="42.678" height="42.676"/>
	<polygon fill="#D38528" points="404.94,316.104 417.229,323.201 429.507,330.285 429.507,344.473 429.507,358.646 417.229,365.744
		404.94,372.832 392.655,365.744 380.386,358.646 380.386,344.473 380.386,330.285 392.655,323.201 	"/>
	<polygon fill="#364A5E" points="404.94,310.096 417.229,317.189 429.507,324.282 429.507,338.462 429.507,352.641 417.229,359.736
		404.94,366.83 392.655,359.736 380.386,352.641 380.386,338.462 380.386,324.282 392.655,317.189 	"/>
	<path fill="#F6F5BB" d="M402.493,359.744l-7.379-4.26l-9.827-5.678v-11.345v-8.825l17.206,9.934V359.744z M424.599,329.637v8.825
		v11.345l-9.819,5.678l-7.386,4.26V339.57L424.599,329.637z M404.94,315.765l9.838,5.677l7.104,4.102l-16.94,9.777l-16.938-9.777
		l7.111-4.102L404.94,315.765z"/>
	<path fill="#BCC2C6" d="M237.751,533.967h46.806c2.167,0,3.936,1.767,3.936,3.935c0,2.149-1.769,3.92-3.936,3.92h-46.806
		c-2.158,0-3.925-1.771-3.925-3.92C233.826,535.732,235.593,533.967,237.751,533.967"/>
	<path fill="#BCC2C6" d="M333.604,533.967h46.813c2.168,0,3.934,1.767,3.934,3.935c0,2.149-1.766,3.92-3.934,3.92h-46.813
		c-2.158,0-3.925-1.771-3.925-3.92C329.681,535.732,331.446,533.967,333.604,533.967"/>
	<path fill="#BCC2C6" d="M429.466,533.967h46.814c2.159,0,3.926,1.767,3.926,3.935c0,2.149-1.767,3.92-3.926,3.92h-46.814
		c-2.168,0-3.936-1.771-3.936-3.92C425.53,535.732,427.298,533.967,429.466,533.967"/>
	<path fill="#BCC2C6" d="M525.328,533.967h46.804c2.159,0,3.926,1.767,3.926,3.935c0,2.149-1.767,3.92-3.926,3.92h-46.804
		c-2.168,0-3.936-1.771-3.936-3.92C521.394,535.732,523.16,533.967,525.328,533.967"/>
	<path opacity="0.5" fill="#364A5E" enable-background="new    " d="M208.5,253.18c-2.175,0-4.232,0.866-5.774,2.401
		c-1.543,1.55-2.408,3.616-2.408,5.784v302.326c0,2.168,0.865,4.252,2.408,5.784c1.542,1.535,3.601,2.401,5.774,2.401h392.884
		c2.187,0,4.242-0.866,5.785-2.401c1.534-1.532,2.4-3.603,2.4-5.784V261.365c0-2.184-0.866-4.234-2.4-5.784
		c-1.543-1.535-3.619-2.401-5.785-2.401H208.5z"/>
	<path fill="#364A5E" d="M283.798,310.631h242.287c2.395,0,4.561,0.983,6.127,2.551c1.57,1.566,2.552,3.733,2.552,6.125V505.76
		c0,2.383-0.98,4.55-2.552,6.118c-1.566,1.584-3.732,2.549-6.127,2.549H283.798c-2.393,0-4.559-0.965-6.126-2.549
		c-1.567-1.568-2.551-3.735-2.551-6.118V319.307c0-2.392,0.983-4.559,2.551-6.125C279.239,311.614,281.405,310.631,283.798,310.631"
		/>
	<path fill="#FFFFFF" d="M283.807,316.514c-0.749,0-1.449,0.293-1.983,0.818c-0.517,0.533-0.816,1.234-0.816,1.975V505.76
		c0,0.732,0.301,1.433,0.816,1.965c0.534,0.534,1.234,0.816,1.983,0.816h242.278c0.744,0,1.442-0.282,1.979-0.816
		c0.517-0.532,0.816-1.231,0.816-1.965V319.307c0-0.74-0.301-1.441-0.816-1.975c-0.535-0.525-1.233-0.818-1.979-0.818H283.807z"/>
	<path fill="#BCC2C6" d="M428.441,473.778H383.87c-1.719,0-3.275,0.698-4.402,1.833c-1.133,1.127-1.835,2.685-1.835,4.4
		c0,1.717,0.692,3.276,1.819,4.401l0.016,0.018c1.117,1.116,2.685,1.815,4.402,1.815h44.571c1.708,0,3.273-0.699,4.409-1.833
		c1.125-1.133,1.834-2.685,1.834-4.401c0-1.716-0.701-3.283-1.834-4.418C431.716,474.478,430.159,473.778,428.441,473.778
		 M383.87,467.66h44.571c3.391,0,6.477,1.39,8.71,3.634l0.018,0.01c2.234,2.231,3.617,5.316,3.617,8.709
		c0,3.401-1.383,6.485-3.617,8.721c-2.241,2.232-5.326,3.625-8.729,3.625h-44.57c-3.385,0-6.471-1.393-8.715-3.625h-0.006v-0.011
		c-2.242-2.24-3.636-5.325-3.636-8.71c0-3.399,1.394-6.485,3.636-8.719C377.386,469.05,380.469,467.66,383.87,467.66z"/>
	<path fill="#364A5E" d="M381.446,462.623h44.568c3.393,0,6.479,1.384,8.721,3.619v0.017c2.239,2.234,3.633,5.316,3.633,8.702
		c0,3.401-1.393,6.485-3.633,8.727c-2.235,2.243-5.319,3.628-8.721,3.628h-44.568c-3.387,0-6.471-1.385-8.715-3.628v-0.007h-0.017
		c-2.233-2.25-3.619-5.336-3.619-8.72c0-3.393,1.386-6.484,3.619-8.719C374.95,464.007,378.043,462.623,381.446,462.623"/>
	<path fill="#43C0B9" d="M426.016,466.293c2.301,0,4.501,0.917,6.135,2.541c1.627,1.624,2.545,3.826,2.545,6.127
		c0,2.311-0.929,4.502-2.554,6.135c-1.625,1.618-3.817,2.544-6.125,2.544h-44.569c-2.306,0-4.494-0.909-6.129-2.533l-0.009-0.011
		c-1.625-1.633-2.545-3.834-2.545-6.135s0.929-4.494,2.554-6.12c1.635-1.631,3.815-2.548,6.129-2.548H426.016z"/>
	<path fill="#7CCED2" d="M426.016,466.293c2.301,0,4.501,0.917,6.135,2.541c1.627,1.624,2.545,3.826,2.545,6.127
		c0,0.604-0.06,1.184-0.177,1.751c-0.352-1.652-1.159-3.177-2.368-4.386c-1.634-1.625-3.834-2.541-6.135-2.541h-44.568
		c-2.313,0-4.494,0.926-6.129,2.552c-1.212,1.208-2.034,2.723-2.367,4.375c-0.117-0.566-0.187-1.147-0.187-1.751
		c0-2.301,0.929-4.494,2.554-6.12c1.635-1.631,3.815-2.548,6.129-2.548H426.016L426.016,466.293z"/>
	<rect x="302.821" y="347.082" fill="#364A5E" width="54.664" height="54.676"/>
	<rect x="308.812" y="353.075" fill="#F19C1F" width="42.682" height="42.68"/>
	<rect x="377.608" y="347.082" fill="#364A5E" width="54.674" height="54.676"/>
	<rect x="383.603" y="353.075" fill="#F19C1F" width="42.679" height="42.68"/>
	<rect x="452.397" y="347.082" fill="#364A5E" width="54.676" height="54.676"/>
	<rect x="458.39" y="353.075" fill="#F19C1F" width="42.683" height="42.68"/>
	<path fill="#BCC2C6" d="M325.502,410.325l4.651,4.65l4.651-4.65c1.15-1.15,3.017-1.15,4.167,0l0,0c1.143,1.144,1.143,3.018,0,4.159
		l-4.65,4.659l4.65,4.653c1.143,1.147,1.143,3.018,0,4.166c-1.15,1.133-3.017,1.133-4.167,0l-4.651-4.659l-4.651,4.659
		c-1.151,1.133-3.018,1.133-4.167,0l0,0c-1.143-1.148-1.143-3.019,0-4.166l4.66-4.653l-4.66-4.659c-1.143-1.143-1.143-3.017,0-4.159
		C322.484,409.175,324.351,409.175,325.502,410.325"/>
	<path fill="#BCC2C6" d="M400.29,410.325l4.65,4.65l4.651-4.65c1.151-1.15,3.021-1.15,4.17,0c1.142,1.144,1.142,3.018,0,4.159
		l-4.661,4.659l4.661,4.653c1.142,1.147,1.142,3.018,0,4.166l0,0c-1.149,1.133-3.019,1.133-4.17,0l-4.651-4.659l-4.65,4.659
		c-1.148,1.133-3.018,1.133-4.168,0c-1.142-1.148-1.142-3.019,0-4.166l4.66-4.653l-4.66-4.659c-1.142-1.143-1.142-3.017,0-4.159l0,0
		C397.272,409.175,399.142,409.175,400.29,410.325"/>
	<path fill="#BCC2C6" d="M475.079,410.325l4.65,4.65l4.651-4.65c1.15-1.15,3.019-1.15,4.168,0l0,0c1.144,1.144,1.144,3.018,0,4.159
		l-4.651,4.659l4.651,4.653c1.144,1.147,1.144,3.018,0,4.166c-1.149,1.133-3.018,1.133-4.168,0l-4.651-4.659l-4.65,4.659
		c-1.15,1.133-3.018,1.133-4.167,0l0,0c-1.142-1.148-1.142-3.019,0-4.166l4.66-4.653l-4.66-4.659c-1.142-1.143-1.142-3.017,0-4.159
		C472.062,409.175,473.929,409.175,475.079,410.325"/>
	<path fill="#BCC2C6" d="M323.275,443.361h163.333c2.157,0,3.926,1.767,3.926,3.925v0.008c0,2.159-1.768,3.929-3.926,3.929H323.275
		c-2.157,0-3.926-1.77-3.926-3.929v-0.008C319.351,445.128,321.118,443.361,323.275,443.361"/>
	<!-- <path fill="#94A4A5" d="M471.16,220.104c-2.249-0.018-4.481,0-6.735,0V234.4h2.704v-4.194h4.031
		C478.147,230.206,478.128,220.104,471.16,220.104 M467.129,222.679h4.031c3.42,0,3.444,5.061,0,5.061h-4.031V222.679z
		 M457.649,220.153v8.169c0,2.451-1.259,3.935-3.484,3.935c-2.225,0-3.693-1.367-3.693-3.935v-8.169h-2.667v8.169
		c0,4.301,2.917,6.386,6.337,6.386c3.591,0,6.185-2.167,6.185-6.386v-8.169H457.649z M439.271,220.104c-2.243-0.018-4.487,0-6.729,0
		V234.4h2.693v-4.194h4.033C446.261,230.206,446.239,220.104,439.271,220.104z M435.235,222.679h4.033c3.426,0,3.45,5.061,0,5.061
		h-4.033V222.679z M421.765,222.287c3.367,0,4.718,2.693,4.667,5.103c-0.032,2.341-1.3,4.867-4.667,4.867
		c-3.36,0-4.628-2.501-4.686-4.852C417.013,225.004,418.403,222.287,421.765,222.287z M421.765,219.846
		c-4.934,0-7.338,3.774-7.338,7.526c0,3.751,2.328,7.353,7.338,7.353c5.02,0,7.285-3.686,7.316-7.377
		C429.122,223.62,426.683,219.846,421.765,219.846z M406.524,220.104c-2.24-0.018-4.482,0-6.726,0V234.4h2.693v-4.194h4.031
		C413.521,230.206,413.493,220.104,406.524,220.104z M402.493,222.679h4.031c3.428,0,3.453,5.061,0,5.061h-4.031V222.679z
		 M385.353,234.4h2.686v-11.847h4.533v-2.45c-4.144,0-7.627,0-11.744,0v2.45h4.525V234.4z M372.601,222.621
		c1.691,0,2.449,1.141,2.449,2.283c0,1.15-0.731,2.301-2.449,2.301h-4.104v-4.584H372.601z M378.452,234.224l-4.318-4.884
		c2.709-0.551,3.601-2.519,3.601-4.485c0-2.483-1.769-4.726-5.134-4.751c-2.268,0.025-4.524,0-6.787,0V234.4h2.685v-4.77h2.594
		l4.159,4.77h3.202L378.452,234.224L378.452,234.224z M357.896,229.206h-5.304l2.652-6.094L357.896,229.206z M360.18,234.4h2.935
		l-6.402-14.297h-2.933l-6.402,14.297h2.908l1.226-2.693h7.46L360.18,234.4z M344.651,230.757c-0.943,0.933-2.347,1.44-3.595,1.44
		c-3.526,0-4.888-2.467-4.911-4.825c-0.022-2.392,1.467-4.96,4.911-4.96c1.248,0,2.509,0.426,3.451,1.344l1.791-1.736
		c-1.467-1.441-3.308-2.174-5.241-2.174c-5.152,0-7.587,3.791-7.563,7.526c0.025,3.702,2.261,7.353,7.563,7.353
		c2.065,0,3.957-0.668,5.424-2.117L344.651,230.757z"/> -->
</g>
</svg>
