<?xml version="1.0" encoding="utf-8"?>
<!-- Generator: Adobe Illustrator 15.1.0, SVG Export Plug-In . SVG Version: 6.00 Build 0)  -->
<!DOCTYPE svg PUBLIC "-//W3C//DTD SVG 1.0//EN" "http://www.w3.org/TR/2001/REC-SVG-20010904/DTD/svg10.dtd">
<svg version="1.0" id="Layer_1" xmlns="http://www.w3.org/2000/svg" xmlns:xlink="http://www.w3.org/1999/xlink" x="0px" y="0px"
	 width="800px" height="800px" viewBox="197.3199920654297 199.8300018310547 421.01397705078125 377.9339599609375" enable-background="new 0 0 800 800" xml:space="preserve">
<g>
	<!-- <path fill="#BCC2C6" d="M213.525,199.83h388.597c4.469,0,8.521,1.818,11.455,4.752v0.025c2.933,2.934,4.757,6.977,4.757,11.428
		v345.521c0,4.436-1.824,8.487-4.757,11.42v0.019c-2.936,2.95-6.986,4.769-11.455,4.769H213.525c-4.47,0-8.521-1.817-11.455-4.769
		v-0.019c-2.935-2.933-4.75-6.984-4.75-11.42V216.035c0-4.451,1.815-8.494,4.75-11.428v-0.025
		C205.005,201.648,209.057,199.83,213.525,199.83"/>
	<path fill="#EBEFF0" d="M612.459,216.035v345.521c0,6.505-4.535,10.321-10.337,10.321H213.525c-5.785,0-10.329-3.719-10.329-10.321
		V216.035c0-6.735,4.56-10.319,10.329-10.319h388.597C607.906,205.716,612.459,209.416,612.459,216.035"/> -->
	<path fill="#BCC2C6" d="M211.391,247.295h392.873c3.877,0,7.396,1.584,9.945,4.134c2.543,2.543,4.125,6.069,4.125,9.937v302.326
		c0,3.865-1.582,7.385-4.125,9.938c-2.551,2.551-6.068,4.134-9.945,4.134H211.391c-3.875,0-7.392-1.583-9.942-4.134
		c-2.545-2.553-4.127-6.071-4.127-9.938V261.365c0-3.867,1.582-7.394,4.127-9.938C203.999,248.879,207.515,247.295,211.391,247.295"
		/>
	<path fill="#FFFFFF" d="M211.391,253.18c-2.182,0-4.252,0.866-5.783,2.401c-1.541,1.55-2.41,3.616-2.41,5.784v302.326
		c0,2.168,0.869,4.252,2.41,5.784c1.531,1.535,3.603,2.401,5.783,2.401h392.873c2.177,0,4.244-0.866,5.777-2.401
		c1.543-1.532,2.418-3.603,2.418-5.784V261.365c0-2.184-0.875-4.234-2.418-5.784c-1.533-1.535-3.602-2.401-5.777-2.401H211.391z"/>
	<!-- <path fill="#94A4A5" d="M553.709,219.795c4.133,0,7.485,3.359,7.485,7.493c0,4.135-3.354,7.485-7.485,7.485
		c-4.136,0-7.484-3.351-7.484-7.485C546.225,223.154,549.573,219.795,553.709,219.795 M577.225,219.795
		c4.135,0,7.49,3.359,7.49,7.493c0,4.135-3.355,7.485-7.49,7.485c-4.144,0-7.494-3.351-7.494-7.485
		C569.729,223.154,573.088,219.795,577.225,219.795z M530.186,219.795c4.134,0,7.484,3.359,7.484,7.493
		c0,4.135-3.352,7.485-7.484,7.485c-4.134,0-7.485-3.351-7.485-7.485C522.699,223.154,526.051,219.795,530.186,219.795z"/> -->
	<path fill="#364A5E" d="M245.801,286.914h179.752c6.045,0,10.988,4.943,10.988,10.979v99.479c0,6.043-4.951,10.986-10.988,10.986
		H245.801c-6.041,0-10.983-4.943-10.983-10.986v-99.479C234.816,291.857,239.76,286.914,245.801,286.914"/>
	<path fill="#EBEFF0" d="M245.801,292.791h179.752c2.812,0,5.104,2.3,5.104,5.102v99.479c0,2.81-2.304,5.103-5.104,5.103H245.801
		c-2.809,0-5.101-2.293-5.101-5.103v-99.479C240.7,295.091,242.992,292.791,245.801,292.791"/>
	<rect x="240.7" y="306.461" fill="#BCC2C6" width="189.957" height="24.016"/>
	<path fill="#BCC2C6" d="M254.455,346.607h157.878c1.417,0,2.585,1.166,2.585,2.602v10.076c0,1.426-1.168,2.594-2.585,2.594H254.455
		c-1.427,0-2.592-1.168-2.592-2.594v-10.076C251.863,347.773,253.02,346.607,254.455,346.607"/>
	<rect x="256.305" y="351.174" fill="#FFFFFF" width="154.18" height="6.136"/>
	<path fill="#BCC2C6" d="M254.455,369.947h71.594c1.426,0,2.594,1.158,2.594,2.584v10.085c0,1.419-1.168,2.585-2.594,2.585h-71.594
		c-1.427,0-2.592-1.166-2.592-2.585v-10.085C251.863,371.105,253.02,369.947,254.455,369.947"/>
	<rect x="256.305" y="374.508" fill="#FFFFFF" width="67.887" height="6.125"/>
	<path fill="#BCC2C6" d="M392.193,369.947h20.408c1.416,0,2.58,1.158,2.58,2.584v10.085c0,1.419-1.164,2.585-2.58,2.585h-20.408
		c-1.416,0-2.583-1.166-2.583-2.585v-10.085C389.61,371.105,390.777,369.947,392.193,369.947"/>
	<rect x="394.053" y="374.508" fill="#FFFFFF" width="16.688" height="6.125"/>
	<path fill="#BCC2C6" d="M459.396,297.441h65.428c2.16,0,3.927,1.768,3.927,3.936l0,0c0,2.16-1.767,3.927-3.927,3.927h-65.428
		c-2.166,0-3.936-1.767-3.936-3.927l0,0C455.462,299.209,457.23,297.441,459.396,297.441"/>
	<path fill="#BCC2C6" d="M459.396,330.377h65.428c2.16,0,3.927,1.768,3.927,3.926c0,2.168-1.767,3.935-3.927,3.935h-65.428
		c-2.166,0-3.936-1.767-3.936-3.935C455.462,332.145,457.23,330.377,459.396,330.377"/>
	<path fill="#BCC2C6" d="M459.396,363.311h65.428c2.16,0,3.927,1.769,3.927,3.936l0,0c0,2.16-1.767,3.926-3.927,3.926h-65.428
		c-2.166,0-3.936-1.766-3.936-3.926l0,0C455.462,365.079,457.23,363.311,459.396,363.311"/>
	<path fill="#BCC2C6" d="M548.338,297.877l5.037,5.043l11.436-11.437c1.537-1.526,4.035-1.526,5.568,0v0.007
		c1.526,1.518,1.526,4.026,0,5.553l-14.221,14.221l-0.066,0.064l0,0l-0.082,0.069l-0.066,0.065l-0.083,0.066l-0.075,0.059
		l-0.076,0.059l0,0l-0.082,0.059l-0.084,0.059l-0.082,0.051l-0.084,0.049l0,0l-0.084,0.051l0,0l-0.082,0.049l0,0l-0.084,0.034l0,0
		l-0.084,0.048l0,0l-0.092,0.034l0,0l-0.091,0.042l0,0l-0.086,0.034l-0.09,0.034h-0.011l-0.082,0.024l0,0l-0.094,0.034l-0.089,0.023
		l0,0l-0.095,0.025l-0.088,0.018l0,0l-0.102,0.016l0,0l-0.085,0.018l0,0l-0.1,0.016l-0.084,0.016h-0.009l-0.091,0.01v0.008h-0.103
		l0,0l-0.081,0.01h-0.009h-0.091v0.008h-0.093l-0.191-0.008l0,0l-0.093-0.01l0,0l-0.19-0.018l-0.094-0.016
		c-0.123-0.016-0.248-0.043-0.373-0.066l0,0c-0.116-0.034-0.243-0.065-0.367-0.107l0,0l-0.084-0.034l0,0l-0.182-0.076l-0.168-0.082
		l-0.084-0.034h-0.011l-0.248-0.148l-0.157-0.109h-0.009l-0.157-0.117l0,0l-0.075-0.059l0,0l-0.075-0.066l-0.076-0.065h-0.008
		l-0.066-0.069l-0.065-0.064l0,0l-7.838-7.826c-1.524-1.525-1.524-4.027,0-5.561l0,0
		C544.307,296.342,546.805,296.352,548.338,297.877"/>
	<path fill="#BCC2C6" d="M548.338,330.811l5.037,5.044l11.436-11.438c1.537-1.532,4.035-1.525,5.568,0l0,0
		c1.526,1.534,1.526,4.034,0,5.56l-14.221,14.213l-0.066,0.074l0,0l-0.082,0.075l-0.066,0.058l-0.083,0.068l-0.075,0.057
		l-0.076,0.068l0,0l-0.082,0.049l-0.084,0.052v0.007l-0.082,0.051l-0.084,0.049v0.01l-0.084,0.043l-0.082,0.04l0,0l-0.084,0.049l0,0
		l-0.084,0.034v0.01l-0.092,0.042l0,0l-0.091,0.032l0,0l-0.086,0.032l-0.09,0.034h-0.011l-0.082,0.033l0,0l-0.094,0.018v0.008
		l-0.089,0.025l-0.095,0.025l-0.088,0.016v0.008l-0.102,0.017l0,0l-0.085,0.017l0,0l-0.1,0.018l-0.084,0.008h-0.009l-0.091,0.01l0,0
		l-0.103,0.006l0,0l-0.081,0.01h-0.009h-0.091l0,0h-0.093h-0.191l0,0l-0.093-0.01l-0.19-0.016l-0.094-0.008
		c-0.123-0.018-0.248-0.051-0.373-0.074l0,0c-0.116-0.025-0.243-0.076-0.367-0.109l0,0l-0.084-0.034l0,0l-0.182-0.064l-0.168-0.086
		l-0.084-0.049h-0.011l-0.248-0.142l-0.157-0.109h-0.009l-0.157-0.117l0,0l-0.075-0.057l0,0l-0.075-0.068l-0.076-0.058h-0.008
		l-0.066-0.075l-0.065-0.074l-7.838-7.818c-1.524-1.535-1.524-4.027,0-5.561l0,0C544.307,329.285,546.805,329.285,548.338,330.811"
		/>
	<path fill="#BCC2C6" d="M548.338,363.745l5.037,5.043l11.436-11.428c1.537-1.535,4.035-1.535,5.568,0l0,0
		c1.526,1.526,1.526,4.025,0,5.552l-14.221,14.221l-0.066,0.068l0,0l-0.082,0.064l-0.066,0.066l-0.083,0.068l-0.075,0.059
		l-0.076,0.058v0.009l-0.082,0.059l-0.084,0.047l0,0l-0.082,0.051l-0.084,0.051l0,0l-0.084,0.051l-0.082,0.049l0,0l-0.084,0.043l0,0
		l-0.084,0.042l0,0l-0.092,0.031l0,0l-0.091,0.044l0,0l-0.086,0.033l-0.09,0.033h-0.011l-0.082,0.024l0,0l-0.094,0.033l0,0
		l-0.089,0.024l0,0l-0.095,0.023l-0.088,0.02l0,0l-0.102,0.016l-0.085,0.018v0.008l-0.1,0.01l-0.084,0.018h-0.009l-0.091,0.006
		v0.008h-0.103l0,0l-0.081,0.01h-0.009h-0.091l0,0h-0.093h-0.191l0,0l-0.093-0.01l-0.19-0.014l-0.094-0.018
		c-0.123-0.018-0.248-0.043-0.373-0.07l0,0c-0.116-0.031-0.243-0.063-0.367-0.105l0,0l-0.084-0.033l0,0l-0.182-0.077l-0.168-0.073
		l-0.084-0.043h-0.011l-0.248-0.15l-0.157-0.098h-0.009l-0.157-0.125l0,0l-0.075-0.059l0,0l-0.075-0.068l-0.076-0.066h-0.008
		l-0.066-0.064l-0.065-0.068l0,0l-7.838-7.828c-1.524-1.525-1.524-4.025,0-5.56l0,0
		C544.307,362.213,546.805,362.221,548.338,363.745"/>
	<path fill="#BCC2C6" d="M242.383,439.519H576.9c2.164,0,3.932,1.768,3.932,3.934c0,2.159-1.769,3.936-3.932,3.936H242.382
		c-2.166,0-3.926-1.775-3.926-3.936C238.457,441.285,240.217,439.519,242.383,439.519"/>
	<path fill="#BCC2C6" d="M242.383,459.273h163.331c2.169,0,3.927,1.776,3.927,3.935c0,2.167-1.758,3.936-3.927,3.936H242.383
		c-2.158,0-3.926-1.769-3.926-3.936C238.457,461.051,240.225,459.273,242.383,459.273"/>
	<path fill="#BCC2C6" d="M440.658,513.627h-58.832c-2.26,0-4.318,0.917-5.813,2.418c-1.489,1.482-2.424,3.55-2.424,5.801l0,0
		c0,2.284,0.935,4.336,2.416,5.818l0.008,0.017c1.484,1.484,3.543,2.4,5.813,2.4h58.832c2.258,0,4.318-0.916,5.815-2.417
		c1.484-1.501,2.418-3.551,2.418-5.818l0,0c0-2.269-0.934-4.317-2.418-5.817C444.984,514.544,442.927,513.627,440.658,513.627
		 M381.826,505.558h58.832c4.477,0,8.544,1.835,11.494,4.784l0.018,0.019c2.951,2.95,4.785,7.017,4.785,11.485l0,0
		c0,4.485-1.834,8.569-4.785,11.521c-2.951,2.949-7.025,4.782-11.512,4.782h-58.832c-4.469,0-8.536-1.833-11.498-4.782l-0.006-0.02
		l0,0c-2.95-2.967-4.785-7.033-4.785-11.503l0,0c0-4.484,1.835-8.553,4.785-11.504C373.271,507.393,377.339,505.558,381.826,505.558
		z"/>
	<path fill="#364A5E" d="M378.625,498.901h58.834c4.475,0,8.551,1.839,11.503,4.771l0.006,0.019
		c2.952,2.949,4.786,7.034,4.786,11.503l0,0c0,4.485-1.834,8.568-4.786,11.503c-2.939,2.95-7.022,4.784-11.509,4.784h-58.834
		c-4.469,0-8.538-1.834-11.488-4.784h-0.018l0,0c-2.951-2.968-4.784-7.033-4.784-11.503l0,0c0-4.483,1.833-8.554,4.784-11.521
		C370.07,500.74,374.141,498.901,378.625,498.901"/>
	<path fill="#43C0B9" d="M437.459,503.741c3.044,0,5.95,1.217,8.093,3.367c2.149,2.133,3.358,5.051,3.358,8.085
		c0,3.032-1.217,5.937-3.368,8.086c-2.149,2.15-5.039,3.367-8.083,3.367h-58.834c-3.035,0-5.938-1.2-8.078-3.351l-0.018-0.018
		c-2.143-2.149-3.344-5.054-3.344-8.086c0-3.034,1.211-5.938,3.36-8.085c2.143-2.15,5.043-3.367,8.078-3.367L437.459,503.741
		L437.459,503.741z"/>
	<path fill="#7CCED2" d="M437.459,503.741c3.044,0,5.95,1.217,8.093,3.367c2.149,2.133,3.358,5.051,3.358,8.085
		c0,0.784-0.084,1.549-0.24,2.302c-0.441-2.167-1.527-4.186-3.118-5.786c-2.143-2.152-5.049-3.352-8.093-3.352h-58.834
		c-3.035,0-5.938,1.218-8.078,3.352c-1.602,1.602-2.678,3.619-3.127,5.803c-0.158-0.77-0.232-1.533-0.232-2.317
		c0-3.034,1.211-5.938,3.359-8.085c2.143-2.15,5.043-3.367,8.078-3.367L437.459,503.741L437.459,503.741z"/>
	<!-- <path fill="#94A4A5" d="M459.29,234.4h2.692v-11.847h4.524v-2.45c-4.144,0-7.627,0-11.744,0v2.45h4.526L459.29,234.4L459.29,234.4z
		 M449.301,220.153v8.169c0,2.451-1.258,3.935-3.483,3.935c-2.224,0-3.69-1.367-3.69-3.935v-8.169h-2.669v8.169
		c0,4.301,2.918,6.386,6.335,6.386c3.594,0,6.188-2.167,6.188-6.386v-8.169H449.301z M429.172,222.287
		c3.357,0,4.702,2.693,4.666,5.103c-0.049,2.341-1.309,4.867-4.666,4.867c-3.369,0-4.637-2.501-4.701-4.852
		C424.412,225.004,425.803,222.287,429.172,222.287z M429.172,219.846c-4.943,0-7.353,3.774-7.353,7.526
		c0,3.751,2.335,7.353,7.353,7.353c5.01,0,7.269-3.686,7.319-7.377C436.523,223.62,434.073,219.846,429.172,219.846z
		 M420.837,220.104h-3.353l-5.418,6.051v-6.051h-2.691V234.4h2.691v-6.328l5.967,6.328h3.328v-0.159l-6.869-7.211l6.345-6.845
		V220.104z M405.016,230.757c-0.934,0.933-2.345,1.44-3.584,1.44c-3.536,0-4.903-2.467-4.92-4.825
		c-0.018-2.392,1.468-4.96,4.92-4.96c1.239,0,2.5,0.426,3.443,1.344l1.79-1.736c-1.466-1.441-3.302-2.174-5.233-2.174
		c-5.161,0-7.586,3.791-7.567,7.526c0.015,3.702,2.267,7.353,7.567,7.353c2.05,0,3.947-0.668,5.417-2.117L405.016,230.757z
		 M391.193,231.748h-8.002v-3.217h7.719v-2.509h-7.719v-3.302h8.002v-2.617h-10.678c0,4.768,0,9.545,0,14.297h10.678V231.748z
		 M377.033,234.4v-14.247h-2.67v6.01h-7.01v-6.01h-2.701V234.4h2.701v-5.744h7.01v5.744H377.033z M360.303,230.757
		c-0.935,0.933-2.345,1.44-3.585,1.44c-3.536,0-4.903-2.467-4.921-4.825c-0.016-2.392,1.471-4.96,4.921-4.96
		c1.24,0,2.501,0.426,3.443,1.344l1.791-1.736c-1.468-1.441-3.302-2.174-5.233-2.174c-5.17,0-7.584,3.791-7.569,7.526
		c0.016,3.702,2.266,7.353,7.569,7.353c2.049,0,3.949-0.668,5.416-2.117L360.303,230.757z"/> -->
</g>
</svg>
