<?xml version="1.0" encoding="UTF-8" standalone="no"?>
<svg
   xmlns:dc="http://purl.org/dc/elements/1.1/"
   xmlns:cc="http://creativecommons.org/ns#"
   xmlns:rdf="http://www.w3.org/1999/02/22-rdf-syntax-ns#"
   xmlns:svg="http://www.w3.org/2000/svg"
   xmlns="http://www.w3.org/2000/svg"
   xmlns:sodipodi="http://sodipodi.sourceforge.net/DTD/sodipodi-0.dtd"
   xmlns:inkscape="http://www.inkscape.org/namespaces/inkscape"
   inkscape:version="1.0 (6e3e5246a0, 2020-05-07)"
   sodipodi:docname="Complete.svg"
   xml:space="preserve"
   enable-background="new 0 0 800 800"
   viewBox="0 0 800 800"
   height="800px"
   width="800px"
   y="0px"
   x="0px"
   id="Layer_1"
   version="1.0"><metadata
   id="metadata2488"><rdf:RDF><cc:Work
       rdf:about=""><dc:format>image/svg+xml</dc:format><dc:type
         rdf:resource="http://purl.org/dc/dcmitype/StillImage" /></cc:Work></rdf:RDF></metadata><defs
   id="defs2486" /><sodipodi:namedview
   inkscape:current-layer="Layer_1"
   inkscape:window-maximized="1"
   inkscape:window-y="28"
   inkscape:window-x="0"
   inkscape:cy="474.33217"
   inkscape:cx="400"
   inkscape:zoom="1.07625"
   showgrid="false"
   id="namedview2484"
   inkscape:window-height="1026"
   inkscape:window-width="1920"
   inkscape:pageshadow="2"
   inkscape:pageopacity="0"
   guidetolerance="10"
   gridtolerance="10"
   objecttolerance="10"
   borderopacity="1"
   bordercolor="#666666"
   pagecolor="#ffffff" />
<g
   transform="matrix(1.903914,0,0,1.9038364,-377.72121,-351.8582)"
   id="g2425">
	<g
   id="g2423">
		<!-- <path fill="#BCC2C6" d="M214.575,206.331h387.831c4.45,0,8.502,1.813,11.431,4.742v0.025c2.927,2.929,4.742,6.963,4.742,11.406
			v344.837c0,4.436-1.815,8.478-4.742,11.406v0.017c-2.929,2.937-6.98,4.75-11.431,4.75H214.575c-4.46,0-8.504-1.813-11.433-4.75
			v-0.017c-2.927-2.929-4.75-6.971-4.75-11.406V222.503c0-4.443,1.823-8.478,4.75-11.406v-0.025
			C206.071,208.144,210.115,206.331,214.575,206.331"/>
		<path fill="#EBEFF0" d="M612.714,222.503v344.837c0,6.49-4.526,10.308-10.308,10.308H214.575c-5.773,0-10.308-3.71-10.308-10.308
			V222.503c0-6.721,4.549-10.298,10.308-10.298h387.831C608.18,212.205,612.714,215.898,612.714,222.503"/> -->
		<path
   id="path2401"
   d="m 212.436,253.701 h 392.108 c 3.868,0 7.379,1.581 9.917,4.128 2.545,2.536 4.118,6.056 4.118,9.915 v 301.727 c 0,3.869 -1.573,7.379 -4.118,9.917 -2.538,2.545 -6.049,4.126 -9.917,4.126 H 212.436 c -3.868,0 -7.379,-1.581 -9.916,-4.126 -2.546,-2.538 -4.127,-6.048 -4.127,-9.917 V 267.744 c 0,-3.859 1.581,-7.379 4.127,-9.915 2.537,-2.548 6.047,-4.128 9.916,-4.128"
   fill="#bcc2c6" />
		<path
   id="path2403"
   d="m 212.436,259.575 c -2.17,0 -4.234,0.866 -5.766,2.395 -1.539,1.548 -2.402,3.611 -2.402,5.773 V 569.47 c 0,2.172 0.863,4.244 2.402,5.773 1.531,1.531 3.596,2.404 5.766,2.404 h 392.108 c 2.171,0 4.234,-0.873 5.766,-2.404 1.538,-1.529 2.404,-3.594 2.404,-5.773 V 267.744 c 0,-2.179 -0.866,-4.225 -2.404,-5.773 -1.531,-1.529 -3.595,-2.395 -5.766,-2.395 H 212.436 Z"
   fill="#ffffff"
   clip-rule="evenodd"
   fill-rule="evenodd" />
		<path
   id="path2405"
   d="m 374.738,359.248 20.665,20.657 46.838,-46.838 c 6.264,-6.256 16.507,-6.256 22.77,0 v 0.017 c 6.266,6.256 6.266,16.506 0,22.762 l -58.217,58.22 -0.302,0.29 v 0 l -0.299,0.274 -0.308,0.284 -0.316,0.258 -0.316,0.25 -0.324,0.24 v 0.009 l -0.324,0.224 -0.331,0.225 v 0.01 l -0.344,0.208 -0.332,0.208 h -0.007 l -0.342,0.2 v 0 l -0.349,0.183 h -0.01 l -0.342,0.184 h -0.007 l -0.35,0.165 h -0.009 l -0.35,0.166 v 0 l -0.356,0.142 -0.009,0.009 -0.357,0.142 h -0.009 l -0.366,0.134 v 0 l -0.366,0.124 h -0.008 l -0.366,0.116 v 0 l -0.366,0.099 h -0.009 l -0.382,0.102 -0.376,0.082 v 0 l -0.381,0.076 v 0.008 l -0.376,0.066 H 398.1 l -0.374,0.059 -0.393,0.05 v 0 l -0.374,0.042 h -0.008 l -0.383,0.032 h -0.008 l -0.376,0.018 h -0.008 l -0.383,0.016 -0.008,0.009 h -0.376 l -0.771,-0.024 h -0.01 l -0.381,-0.018 v 0 l -0.767,-0.074 h -0.008 l -0.384,-0.05 v 0 c -0.515,-0.066 -1.023,-0.175 -1.521,-0.291 h -0.01 c -0.489,-0.116 -0.997,-0.274 -1.479,-0.44 h -0.007 l -0.359,-0.134 h -0.007 l -0.725,-0.292 v 0 l -0.708,-0.331 h -0.009 l -0.35,-0.184 v 0 l -1.031,-0.591 h -0.008 l -0.665,-0.442 h -0.01 l -0.641,-0.473 h -0.008 l -0.316,-0.25 v 0 l -0.307,-0.258 h -0.01 l -0.297,-0.284 v 0 l -0.302,-0.274 v 0 l -0.298,-0.29 v 0 0 l -32.055,-32.046 c -6.266,-6.266 -6.273,-16.499 0,-22.762 v -0.01 c 6.268,-6.267 16.508,-6.25 22.773,-0.004"
   fill="#bcc2c6"
   clip-rule="evenodd"
   fill-rule="evenodd" />
		<!-- <path fill-rule="evenodd" clip-rule="evenodd" fill="#94A4A5" d="M554.079,226.256c4.134,0,7.478,3.354,7.478,7.479
			c0,4.126-3.344,7.471-7.478,7.471c-4.126,0-7.471-3.344-7.471-7.471C546.608,229.609,549.953,226.256,554.079,226.256
			 M577.557,226.256c4.125,0,7.47,3.354,7.47,7.479c0,4.126-3.345,7.471-7.47,7.471c-4.137,0-7.48-3.344-7.48-7.471
			C570.076,229.609,573.428,226.256,577.557,226.256z M530.609,226.256c4.126,0,7.471,3.354,7.471,7.479
			c0,4.126-3.345,7.471-7.471,7.471s-7.471-3.344-7.471-7.471C523.139,229.609,526.483,226.256,530.609,226.256z"/> -->
		<path
   id="path2407"
   d="m 439.446,519.506 h -58.718 c -2.255,0 -4.309,0.915 -5.8,2.412 -1.487,1.488 -2.419,3.544 -2.419,5.798 v 0 c 0,2.272 0.922,4.318 2.404,5.8 l 0.015,0.016 c 1.481,1.481 3.537,2.396 5.8,2.396 h 58.718 c 2.255,0 4.309,-0.915 5.798,-2.412 1.489,-1.488 2.414,-3.544 2.414,-5.8 v 0 c 0,-2.262 -0.925,-4.316 -2.406,-5.806 -1.487,-1.489 -3.543,-2.404 -5.806,-2.404 m -58.717,-8.054 h 58.718 c 4.467,0 8.526,1.83 11.473,4.775 l 0.017,0.016 c 2.944,2.946 4.774,7.005 4.774,11.473 v 0 c 0,4.477 -1.83,8.544 -4.774,11.49 -2.945,2.945 -7.015,4.774 -11.489,4.774 H 380.73 c -4.459,0 -8.519,-1.829 -11.472,-4.774 l -0.01,-0.008 -0.008,-0.01 c -2.944,-2.953 -4.774,-7.013 -4.774,-11.473 v 0 c 0,-4.475 1.83,-8.544 4.774,-11.488 2.944,-2.945 7.012,-4.775 11.489,-4.775 z"
   fill="#bcc2c6" />
		<path
   id="path2409"
   d="m 377.533,504.813 h 58.719 c 4.468,0 8.527,1.83 11.471,4.769 l 0.018,0.016 c 2.945,2.945 4.776,7.013 4.776,11.473 v 0 c 0,4.477 -1.831,8.554 -4.776,11.489 -2.946,2.944 -7.013,4.774 -11.488,4.774 h -58.719 c -4.458,0 -8.519,-1.83 -11.473,-4.774 l -0.008,-0.009 h -0.009 c -2.944,-2.962 -4.767,-7.021 -4.767,-11.48 v 0 c 0,-4.476 1.822,-8.534 4.767,-11.488 2.945,-2.94 7.015,-4.77 11.489,-4.77"
   fill="#34495e" />
		<path
   id="path2411"
   d="m 436.252,509.646 c 3.036,0 5.93,1.206 8.077,3.354 2.14,2.138 3.345,5.041 3.345,8.069 0,3.037 -1.215,5.924 -3.353,8.069 -2.146,2.146 -5.033,3.361 -8.069,3.361 h -58.719 c -3.027,0 -5.922,-1.197 -8.069,-3.345 l -0.007,-0.017 c -2.147,-2.146 -3.345,-5.042 -3.345,-8.069 0,-3.028 1.213,-5.923 3.352,-8.069 2.147,-2.147 5.034,-3.354 8.069,-3.354 h 58.719 z"
   fill="#27cabf" />
		<path
   id="path2413"
   d="m 436.252,509.646 c 3.036,0 5.93,1.206 8.077,3.354 2.14,2.138 3.345,5.041 3.345,8.069 0,0.781 -0.082,1.548 -0.233,2.296 -0.449,-2.163 -1.521,-4.176 -3.111,-5.774 -2.147,-2.137 -5.041,-3.344 -8.077,-3.344 h -58.719 c -3.035,0 -5.922,1.215 -8.069,3.354 -1.59,1.596 -2.671,3.602 -3.111,5.781 -0.158,-0.757 -0.24,-1.531 -0.24,-2.313 0,-3.028 1.213,-5.923 3.352,-8.069 2.147,-2.147 5.034,-3.354 8.069,-3.354 z"
   fill="#51f4e9" />
		<path
   id="path2415"
   d="m 287.777,458.159 h 241.427 c 2.154,0 3.918,1.771 3.918,3.926 0,2.162 -1.764,3.926 -3.918,3.926 H 287.777 c -2.156,0 -3.92,-1.764 -3.92,-3.926 0,-2.154 1.764,-3.926 3.92,-3.926"
   fill="#bcc2c6"
   clip-rule="evenodd"
   fill-rule="evenodd" />
		<path
   id="path2417"
   d="m 350.096,477.884 h 116.788 c 2.162,0 3.926,1.771 3.926,3.927 0,2.154 -1.764,3.918 -3.926,3.918 H 350.096 c -2.162,0 -3.926,-1.764 -3.926,-3.918 0,-2.156 1.764,-3.927 3.926,-3.927"
   fill="#bcc2c6"
   clip-rule="evenodd"
   fill-rule="evenodd" />
		<path
   id="path2419"
   d="m 374.738,347.436 20.665,20.665 46.838,-46.846 c 6.264,-6.256 16.507,-6.256 22.77,0 v 0.015 c 6.266,6.256 6.266,16.506 0,22.762 l -58.217,58.219 -0.302,0.292 v 0 l -0.299,0.282 -0.308,0.274 -0.316,0.257 -0.316,0.25 -0.324,0.242 v 0.008 l -0.324,0.225 -0.331,0.226 v 0.008 l -0.344,0.207 -0.332,0.208 h -0.007 l -0.342,0.2 v 0 l -0.349,0.184 h -0.01 l -0.342,0.183 h -0.007 l -0.35,0.166 h -0.009 l -0.35,0.166 v 0 l -0.356,0.15 h -0.009 l -0.357,0.143 h -0.009 l -0.366,0.133 v 0 l -0.366,0.124 h -0.008 l -0.366,0.116 v 0 l -0.366,0.102 h -0.009 l -0.382,0.099 -0.376,0.084 v 0.008 l -0.381,0.066 v 0.008 l -0.376,0.066 H 398.1 l -0.374,0.06 -0.393,0.057 v 0 l -0.374,0.035 -0.008,0.007 -0.383,0.025 h -0.008 l -0.376,0.024 h -0.008 l -0.383,0.01 -0.008,0.008 h -0.376 l -0.771,-0.018 h -0.01 l -0.381,-0.024 v 0 l -0.767,-0.067 h -0.008 l -0.384,-0.057 v 0 c -0.515,-0.066 -1.023,-0.176 -1.521,-0.292 h -0.01 c -0.489,-0.116 -0.997,-0.274 -1.479,-0.44 h -0.007 l -0.359,-0.133 h -0.007 l -0.725,-0.293 v 0 l -0.708,-0.332 h -0.009 l -0.35,-0.183 v 0 l -1.031,-0.592 h -0.008 l -0.665,-0.44 h -0.01 l -0.641,-0.475 h -0.008 l -0.316,-0.25 v 0 l -0.307,-0.257 h -0.01 l -0.297,-0.274 v 0 l -0.302,-0.282 v 0 l -0.298,-0.292 v 0 0 l -32.055,-32.046 c -6.266,-6.266 -6.273,-16.497 0,-22.762 v -0.008 c 6.268,-6.266 16.508,-6.249 22.773,-0.001"
   fill="#34495e"
   clip-rule="evenodd"
   fill-rule="evenodd" />
		<path
   id="path2421"
   d="m 388.773,398.666 0.265,0.217 0.524,0.381 0.392,0.259 0.799,0.448 0.565,0.267 0.5,0.2 0.174,0.067 c 0.291,0.099 0.591,0.198 0.883,0.265 0.332,0.084 0.673,0.15 1.007,0.2 l 0.282,0.032 0.615,0.066 0.631,0.018 0.492,-0.018 0.482,-0.032 0.268,-0.024 0.383,-0.06 0.557,-0.099 0.268,-0.067 0.423,-0.108 0.465,-0.141 0.268,-0.1 0.499,-0.2 0.408,-0.183 0.381,-0.2 0.45,-0.265 0.508,-0.334 0.557,-0.408 0.232,-0.198 0.341,-0.309 0.25,-0.232 58.228,-58.227 c 3.97,-3.978 3.97,-10.508 -0.008,-14.468 -3.978,-3.975 -10.499,-3.975 -14.468,-0.007 l -50.989,50.989 -24.816,-24.808 c -3.978,-3.977 -10.5,-3.96 -14.476,0.008 -3.968,3.97 -3.968,10.491 0,14.468 l 31.972,31.947 0.466,0.448 z"
   fill="#27cabf" />
	</g>
	<!-- <g>
		<path fill="#94A4A5" d="M351.328,237.827c-1.482,1.465-3.387,2.147-5.457,2.147c-5.326,0-7.58-3.676-7.604-7.413
			c-0.024-3.75,2.422-7.57,7.604-7.57c1.954,0,3.792,0.74,5.273,2.205l-1.806,1.739c-0.94-0.923-2.214-1.355-3.468-1.355
			c-3.463,0-4.96,2.58-4.942,4.982c0.017,2.379,1.405,4.868,4.942,4.868c1.254,0,2.669-0.517,3.609-1.464L351.328,237.827z"/>
		<path fill="#94A4A5" d="M369.021,232.536c-0.049,3.72-2.32,7.438-7.361,7.438c-5.051,0-7.389-3.636-7.389-7.413
			c0-3.768,2.422-7.57,7.389-7.57C366.603,224.991,369.057,228.793,369.021,232.536z M356.936,232.603
			c0.066,2.362,1.331,4.883,4.725,4.883c3.387,0,4.65-2.546,4.692-4.898c0.042-2.429-1.306-5.125-4.692-5.125
			C358.267,227.462,356.876,230.191,356.936,232.603z"/>
		<path fill="#94A4A5" d="M385.587,229.243l-4.675,6.239h-0.541l-4.576-6.256v10.432h-2.704v-14.359h3.119l4.492,6.174l4.492-6.174
			h3.097v14.359h-2.704V229.243z"/>
		<path fill="#94A4A5" d="M399.662,235.416h-4.059v4.227h-2.704v-14.359c2.254,0,4.51-0.017,6.763-0.017
			C406.686,225.266,406.702,235.416,399.662,235.416z M395.604,232.937h4.059c3.461,0,3.453-5.091,0-5.091h-4.059V232.937z"/>
		<path fill="#94A4A5" d="M411.526,225.283v11.854h7.388v2.505h-10.092v-14.359H411.526z"/>
		<path fill="#94A4A5" d="M433.589,239.643h-10.756c0-4.776,0-9.585,0-14.359h10.756v2.627h-8.069v3.295h7.779v2.53h-7.779v3.236
			h8.069V239.643z"/>
		<path fill="#94A4A5" d="M442.291,227.745h-4.552v-2.461c4.146,0,7.655,0,11.814,0v2.461h-4.56v11.898h-2.703V227.745z"/>
		<path fill="#94A4A5" d="M463.964,239.643h-10.75c0-4.776,0-9.585,0-14.359h10.75v2.627h-8.07v3.295h7.779v2.53h-7.779v3.236h8.07
			V239.643z"/>
		<path fill="#94A4A5" d="M480.743,232.338c0.067,3.626-2.146,7.305-7.171,7.305c-1.771,0-3.886,0-5.641,0v-14.359
			c1.755,0,3.869,0,5.641,0C478.489,225.283,480.686,228.793,480.743,232.338z M470.611,237.03h2.961
			c3.253,0,4.551-2.379,4.484-4.709c-0.059-2.238-1.373-4.475-4.484-4.475h-2.961V237.03z"/>
	</g> -->
</g>
<g
   id="g2481">
	<g
   id="g2469">
		<path
   id="path2427"
   d="M2670.724,298.331h198.637c2.28,0,4.354,0.929,5.854,2.429v0.013c1.5,1.5,2.434,3.566,2.434,5.842V483.23    c0,2.271-0.934,4.342-2.434,5.842v0.009c-1.5,1.504-3.574,2.433-5.854,2.433h-198.637c-2.284,0-4.354-0.929-5.854-2.433v-0.009    c-1.5-1.5-2.433-3.57-2.433-5.842V306.614c0-2.275,0.933-4.342,2.433-5.842v-0.013    C2666.369,299.259,2668.439,298.331,2670.724,298.331"
   fill="#BCC2C6" />
		<path
   id="path2429"
   d="M2874.64,306.614V483.23c0,3.324-2.317,5.279-5.279,5.279h-198.637c-2.957,0-5.279-1.9-5.279-5.279    V306.614c0-3.442,2.331-5.274,5.279-5.274h198.637C2872.317,301.339,2874.64,303.231,2874.64,306.614"
   fill="#EBEFF0" />
		<path
   id="path2431"
   d="M2669.629,322.592h200.826c1.982,0,3.78,0.81,5.08,2.114c1.304,1.299,2.113,3.102,2.113,5.078v154.537    c0,1.981-0.81,3.779-2.113,5.079c-1.3,1.304-3.098,2.113-5.08,2.113h-200.826c-1.978,0-3.779-0.81-5.079-2.113    c-1.304-1.3-2.113-3.098-2.113-5.079V329.785c0-1.977,0.81-3.779,2.113-5.078C2665.85,323.402,2667.651,322.592,2669.629,322.592"
   fill="#BCC2C6" />
		<path
   id="path2433"
   d="M2669.629,325.601c-1.112,0-2.169,0.443-2.957,1.227    c-0.784,0.793-1.231,1.85-1.231,2.957v154.537c0,1.112,0.447,2.174,1.231,2.957c0.788,0.784,1.845,1.231,2.957,1.231h200.826    c1.112,0,2.17-0.447,2.953-1.231c0.789-0.783,1.231-1.841,1.231-2.957V329.785c0-1.116-0.442-2.164-1.231-2.957    c-0.783-0.783-1.845-1.227-2.953-1.227H2669.629z"
   fill="#FFFFFF"
   clip-rule="evenodd"
   fill-rule="evenodd" />
		<path
   id="path2435"
   d="M2844.608,308.536c2.114,0,3.831,1.718,3.831,3.831    s-1.713,3.826-3.831,3.826c-2.113,0-3.826-1.713-3.826-3.826S2842.495,308.536,2844.608,308.536 M2856.633,308.536    c2.113,0,3.826,1.718,3.826,3.831s-1.713,3.826-3.826,3.826s-3.83-1.713-3.83-3.826S2854.52,308.536,2856.633,308.536z     M2832.589,308.536c2.113,0,3.826,1.718,3.826,3.831s-1.713,3.826-3.826,3.826c-2.114,0-3.831-1.713-3.831-3.826    S2830.475,308.536,2832.589,308.536z"
   fill="#94A4A5"
   clip-rule="evenodd"
   fill-rule="evenodd" />
		<path
   id="path2437"
   d="M2714.786,369.761l2.207,5.079l5.591,0.571    c1.615,0.162,2.131,1.841,0.941,2.889l-4.146,3.673l1.185,5.492c0.341,1.59-1.091,2.595-2.463,1.79l-4.769-2.809l-4.861,2.821    c-1.406,0.818-2.804-0.23-2.463-1.785l1.197-5.407l-4.185-3.75c-1.21-1.082-0.643-2.735,0.938-2.889l5.514-0.537l2.271-5.139    C2712.4,368.279,2714.151,368.304,2714.786,369.761"
   fill="#34495E"
   clip-rule="evenodd"
   fill-rule="evenodd" />
		<polygon
   id="polygon2439"
   points="2713.257,372.037 2711.037,377.069 2705.655,377.588    2709.754,381.257 2708.582,386.537 2713.342,383.771 2717.999,386.515 2716.84,381.138 2720.888,377.554 2715.417,376.997   "
   fill="#F29B12"
   clip-rule="evenodd"
   fill-rule="evenodd" />
		<path
   id="path2441"
   d="M2743.168,369.761l2.207,5.079l5.591,0.571    c1.619,0.162,2.135,1.841,0.942,2.889l-4.143,3.673l1.181,5.492c0.341,1.59-1.091,2.595-2.458,1.79l-4.773-2.809l-4.857,2.821    c-1.405,0.818-2.808-0.23-2.463-1.785l1.198-5.407l-4.185-3.75c-1.215-1.082-0.647-2.735,0.938-2.889l5.51-0.537l2.271-5.139    C2740.782,368.279,2742.533,368.304,2743.168,369.761"
   fill="#34495E"
   clip-rule="evenodd"
   fill-rule="evenodd" />
		<polygon
   id="polygon2443"
   points="2741.643,372.037 2739.419,377.069 2734.037,377.588    2738.137,381.257 2736.969,386.537 2741.724,383.771 2746.381,386.515 2745.227,381.138 2749.27,377.554 2743.799,376.997   "
   fill="#F29B12"
   clip-rule="evenodd"
   fill-rule="evenodd" />
		<path
   id="path2445"
   d="M2771.555,369.761l2.207,5.079l5.591,0.571    c1.614,0.162,2.135,1.841,0.941,2.889l-4.146,3.673l1.185,5.492c0.341,1.59-1.091,2.595-2.463,1.79l-4.769-2.809l-4.861,2.821    c-1.402,0.818-2.804-0.23-2.459-1.785l1.193-5.407l-4.185-3.75c-1.21-1.082-0.644-2.735,0.942-2.889l5.509-0.537l2.271-5.139    C2769.169,368.279,2770.92,368.304,2771.555,369.761"
   fill="#34495E"
   clip-rule="evenodd"
   fill-rule="evenodd" />
		<polygon
   id="polygon2447"
   points="2770.029,372.037 2767.805,377.069 2762.424,377.588    2766.522,381.257 2765.351,386.537 2770.11,383.771 2774.768,386.515 2773.608,381.138 2777.656,377.554 2772.186,376.997   "
   fill="#F29B12"
   clip-rule="evenodd"
   fill-rule="evenodd" />
		<path
   id="path2449"
   d="M2799.938,369.761l2.211,5.079l5.59,0.571    c1.615,0.162,2.131,1.841,0.942,2.889l-4.146,3.673l1.181,5.492c0.346,1.59-1.091,2.595-2.459,1.79l-4.771-2.809l-4.857,2.821    c-1.406,0.818-2.809-0.23-2.463-1.785l1.197-5.407l-4.185-3.75c-1.21-1.082-0.647-2.735,0.938-2.889l5.509-0.537l2.271-5.139    C2797.551,368.279,2799.302,368.304,2799.938,369.761"
   fill="#34495E"
   clip-rule="evenodd"
   fill-rule="evenodd" />
		<polygon
   id="polygon2451"
   points="2798.412,372.037 2796.188,377.069 2790.806,377.588    2794.904,381.257 2793.737,386.537 2798.492,383.771 2803.149,386.515 2801.995,381.138 2806.043,377.554 2800.567,376.997   "
   fill="#F29B12"
   clip-rule="evenodd"
   fill-rule="evenodd" />
		<path
   id="path2453"
   d="M2828.323,369.761l2.207,5.079l5.591,0.571    c1.615,0.162,2.131,1.841,0.941,2.889l-4.146,3.673l1.185,5.492c0.341,1.59-1.091,2.595-2.463,1.79l-4.769-2.809l-4.861,2.821    c-1.401,0.818-2.804-0.23-2.459-1.785l1.193-5.407l-4.185-3.75c-1.21-1.082-0.643-2.735,0.941-2.889l5.51-0.537l2.271-5.139    C2825.938,368.279,2827.688,368.304,2828.323,369.761"
   fill="#34495E"
   clip-rule="evenodd"
   fill-rule="evenodd" />
		<polygon
   id="polygon2455"
   points="2826.798,372.037 2824.574,377.069 2819.192,377.588    2823.291,381.257 2822.124,386.537 2826.879,383.771 2831.536,386.515 2830.377,381.138 2834.425,377.554 2828.954,376.997   "
   fill="#FFFFFF"
   clip-rule="evenodd"
   fill-rule="evenodd" />
		<path
   id="path2457"
   d="M2785.897,458.73h-30.074c-1.154,0-2.207,0.469-2.97,1.235c-0.763,0.763-1.24,1.815-1.24,2.97l0,0    c0,1.164,0.474,2.212,1.231,2.971l0.009,0.008c0.759,0.759,1.811,1.228,2.97,1.228h30.074c1.154,0,2.207-0.469,2.97-1.235    c0.763-0.763,1.235-1.815,1.235-2.971l0,0c0-1.158-0.469-2.211-1.231-2.974S2787.057,458.73,2785.897,458.73 M2755.823,454.605    h30.074c2.288,0,4.367,0.938,5.876,2.446l0.008,0.008c1.509,1.509,2.446,3.588,2.446,5.876l0,0c0,2.293-0.938,4.376-2.446,5.885    c-1.508,1.509-3.592,2.445-5.884,2.445h-30.074c-2.284,0-4.363-0.937-5.876-2.445l-0.004-0.004l-0.004-0.005    c-1.509-1.513-2.446-3.592-2.446-5.876l0,0c0-2.292,0.938-4.376,2.446-5.884C2751.447,455.543,2753.531,454.605,2755.823,454.605z    "
   fill="#BCC2C6" />
		<path
   id="path2459"
   d="M2754.188,451.205h30.073c2.288,0,4.368,0.938,5.876,2.442l0.009,0.008    c1.509,1.509,2.445,3.592,2.445,5.876l0,0c0,2.293-0.937,4.381-2.445,5.885c-1.509,1.508-3.592,2.445-5.885,2.445h-30.073    c-2.284,0-4.363-0.938-5.876-2.445l-0.005-0.005h-0.004c-1.508-1.517-2.441-3.596-2.441-5.88l0,0c0-2.292,0.934-4.371,2.441-5.884    C2749.812,452.143,2751.895,451.205,2754.188,451.205"
   fill="#34495E" />
		<path
   id="path2461"
   d="M2784.261,453.681c1.556,0,3.038,0.618,4.138,1.718c1.1,1.095,1.713,2.582,1.713,4.133    c0,1.556-0.622,3.034-1.717,4.133c-1.1,1.1-2.578,1.722-4.134,1.722h-30.073c-1.551,0-3.034-0.613-4.129-1.713l-0.009-0.009    c-1.1-1.099-1.713-2.582-1.713-4.133s0.622-3.033,1.722-4.133c1.095-1.1,2.573-1.718,4.129-1.718H2784.261z"
   fill="#27CABF" />
		<path
   id="path2463"
   d="M2784.261,453.681c1.556,0,3.038,0.618,4.138,1.718c1.1,1.095,1.713,2.582,1.713,4.133    c0,0.4-0.038,0.793-0.119,1.176c-0.23-1.107-0.78-2.139-1.594-2.957c-1.1-1.095-2.582-1.713-4.138-1.713h-30.073    c-1.556,0-3.034,0.622-4.129,1.718c-0.818,0.817-1.372,1.845-1.603,2.961c-0.076-0.388-0.119-0.784-0.119-1.185    c0-1.551,0.622-3.033,1.722-4.133c1.095-1.1,2.573-1.718,4.129-1.718H2784.261z"
   fill="#51F4E9" />
		<path
   id="path2465"
   d="M2708.216,427.311h123.652c1.104,0,2.007,0.907,2.007,2.011    c0,1.107-0.902,2.011-2.007,2.011h-123.652c-1.104,0-2.007-0.903-2.007-2.011C2706.209,428.218,2707.112,427.311,2708.216,427.311    "
   fill="#BCC2C6"
   clip-rule="evenodd"
   fill-rule="evenodd" />
		<path
   id="path2467"
   d="M2740.135,437.413h59.814c1.104,0,2.012,0.907,2.012,2.011    s-0.907,2.007-2.012,2.007h-59.814c-1.107,0-2.012-0.903-2.012-2.007S2739.027,437.413,2740.135,437.413"
   fill="#BCC2C6"
   clip-rule="evenodd"
   fill-rule="evenodd" />
	</g>
	<g
   id="g2479">
		<path
   id="path2471"
   d="M2760.852,315.158h-1.803l-2.339-2.685h-1.458v2.685h-1.517v-8.041c1.274,0,2.548,0.009,3.818,0.009    c1.896,0.009,2.897,1.274,2.897,2.663c0,1.104-0.508,2.211-2.033,2.526l2.434,2.74V315.158z M2755.252,308.536v2.569h2.302    c0.967,0,1.38-0.639,1.38-1.287c0-0.639-0.426-1.282-1.38-1.282H2755.252z"
   fill="#94A4A5" />
		<path
   id="path2473"
   d="M2768.329,313.645h-4.201l-0.687,1.513h-1.645l3.605-8.032h1.648l3.605,8.032h-1.654L2768.329,313.645z     M2766.229,308.813l-1.491,3.417h2.982L2766.229,308.813z"
   fill="#94A4A5" />
		<path
   id="path2475"
   d="M2773.255,308.506h-2.548v-1.381c2.318,0,4.277,0,6.608,0v1.381h-2.548v6.651h-1.513V308.506z"
   fill="#94A4A5" />
		<path
   id="path2477"
   d="M2785.377,315.158h-6.012c0-2.672,0-5.356,0-8.032h6.012v1.466h-4.508v1.85h4.351v1.414h-4.351v1.811    h4.508V315.158z"
   fill="#94A4A5" />
	</g>
</g>
</svg>
