<?xml version="1.0" encoding="utf-8"?>
<!-- Generator: Adobe Illustrator 15.1.0, SVG Export Plug-In . SVG Version: 6.00 Build 0)  -->
<!DOCTYPE svg PUBLIC "-//W3C//DTD SVG 1.0//EN" "http://www.w3.org/TR/2001/REC-SVG-20010904/DTD/svg10.dtd">
<svg version="1.0" id="Layer_1" xmlns="http://www.w3.org/2000/svg" xmlns:xlink="http://www.w3.org/1999/xlink" x="0px" y="0px"
	 width="800px" height="800px" viewBox="187.16000366210938 222.13299560546875 421.0220031738281 377.9329833984375" enable-background="new 0 0 800 800" xml:space="preserve">
<g>
	<!-- <path fill="#BCC2C6" d="M203.371,222.133h388.598c4.46,0,8.519,1.826,11.453,4.751v0.025c2.935,2.935,4.76,6.977,4.76,11.428
		v345.521c0,4.452-1.825,8.487-4.76,11.42v0.018c-2.935,2.95-6.993,4.769-11.453,4.769H203.371c-4.458,0-8.519-1.818-11.454-4.769
		v-0.018c-2.933-2.933-4.756-6.968-4.756-11.42V238.338c0-4.452,1.823-8.494,4.756-11.428v-0.025
		C194.853,223.959,198.913,222.133,203.371,222.133"/>
	<path fill="#EBEFF0" d="M602.298,238.338v345.521c0,6.504-4.537,10.321-10.329,10.321H203.371c-5.784,0-10.328-3.719-10.328-10.321
		V238.338c0-6.735,4.561-10.319,10.328-10.319h388.598C597.754,228.019,602.298,231.719,602.298,238.338"/> -->
	<path fill="#BCC2C6" d="M201.229,269.597h392.882c3.876,0,7.396,1.584,9.936,4.134c2.55,2.543,4.135,6.07,4.135,9.936v302.327
		c0,3.866-1.585,7.402-4.135,9.938c-2.54,2.551-6.06,4.134-9.936,4.134H201.229c-3.875,0-7.396-1.583-9.938-4.134
		c-2.548-2.535-4.131-6.071-4.131-9.938V283.667c0-3.866,1.583-7.393,4.131-9.936C193.834,271.181,197.354,269.597,201.229,269.597"
		/>
	<path fill-rule="evenodd" clip-rule="evenodd" fill="#FFFFFF" d="M201.229,275.482c-2.175,0-4.242,0.867-5.776,2.402
		c-1.542,1.541-2.41,3.617-2.41,5.784v302.327c0,2.168,0.868,4.252,2.41,5.785c1.534,1.535,3.602,2.401,5.776,2.401h392.882
		c2.175,0,4.242-0.866,5.785-2.401c1.532-1.533,2.401-3.603,2.401-5.785V283.667c0-2.183-0.869-4.243-2.401-5.784
		c-1.543-1.535-3.61-2.402-5.785-2.402H201.229z"/>
	<!-- <path fill-rule="evenodd" clip-rule="evenodd" fill="#94A4A5" d="M543.547,242.098c4.136,0,7.492,3.36,7.492,7.493
		c0,4.135-3.356,7.485-7.492,7.485s-7.488-3.35-7.488-7.485C536.059,245.458,539.411,242.098,543.547,242.098 M567.068,242.098
		c4.138,0,7.486,3.36,7.486,7.493c0,4.135-3.349,7.485-7.486,7.485c-4.132,0-7.491-3.35-7.491-7.485
		C559.577,245.458,562.937,242.098,567.068,242.098z M520.03,242.098c4.135,0,7.485,3.36,7.485,7.493
		c0,4.135-3.351,7.485-7.485,7.485s-7.483-3.35-7.483-7.485C512.547,245.458,515.896,242.098,520.03,242.098z"/> -->
	<polygon fill="#364A5E" points="242.25,300.897 370.587,300.897 374.813,300.897 374.813,305.125 374.813,371.358 374.813,375.587
		370.587,375.587 242.25,375.587 238.03,375.587 238.03,371.358 238.03,305.125 238.03,300.897 	"/>
	<rect x="243.201" y="306.065" fill="#F19C1F" width="126.435" height="64.344"/>
	<path fill="#BCC2C6" d="M330.101,405.103h-44.571c-1.711,0-3.274,0.702-4.401,1.834c-1.133,1.134-1.835,2.694-1.835,4.401
		c0,1.725,0.692,3.287,1.818,4.41l0.017,0.008c1.117,1.125,2.685,1.826,4.401,1.826h44.571c1.717,0,3.277-0.707,4.409-1.834
		c1.135-1.133,1.835-2.691,1.835-4.41c0-1.715-0.7-3.274-1.835-4.401C333.386,405.805,331.826,405.103,330.101,405.103
		 M285.529,399.001h44.571c3.392,0,6.477,1.384,8.711,3.619l0.017,0.017c2.235,2.234,3.626,5.316,3.626,8.701
		c0,3.402-1.391,6.486-3.626,8.729c-2.241,2.234-5.326,3.627-8.728,3.627h-44.571c-3.385,0-6.47-1.393-8.711-3.627v-0.008h-0.01
		c-2.24-2.244-3.625-5.336-3.625-8.721c0-3.392,1.385-6.483,3.625-8.718C279.044,400.386,282.13,399.001,285.529,399.001z"/>
	<path fill="#364A5E" d="M283.103,393.95h44.582c3.381,0,6.467,1.384,8.711,3.625l0.007,0.01c2.233,2.243,3.627,5.317,3.627,8.713
		c0,3.397-1.394,6.493-3.627,8.726c-2.231,2.234-5.327,3.617-8.718,3.617h-44.582c-3.384,0-6.467-1.383-8.711-3.617v-0.008
		l-0.009-0.009c-2.231-2.244-3.625-5.317-3.625-8.709c0-3.396,1.394-6.479,3.625-8.723
		C276.618,395.334,279.701,393.95,283.103,393.95"/>
	<path fill="#43C0B9" d="M327.685,397.627c2.3,0,4.501,0.909,6.125,2.542c1.634,1.625,2.543,3.825,2.543,6.129
		c0,2.307-0.917,4.5-2.543,6.126c-1.634,1.634-3.825,2.549-6.125,2.549h-44.582c-2.3,0-4.491-0.908-6.126-2.533l-0.01-0.016
		c-1.626-1.626-2.531-3.819-2.531-6.126c0-2.304,0.915-4.494,2.541-6.129c1.635-1.626,3.826-2.542,6.126-2.542H327.685z"/>
	<path fill="#7CCED2" d="M327.685,397.627c2.3,0,4.501,0.909,6.125,2.542c1.634,1.625,2.543,3.825,2.543,6.129
		c0,0.591-0.06,1.173-0.176,1.742c-0.342-1.653-1.158-3.169-2.367-4.378c-1.624-1.627-3.825-2.544-6.125-2.544h-44.582
		c-2.3,0-4.491,0.917-6.126,2.552c-1.21,1.201-2.024,2.734-2.366,4.376c-0.117-0.575-0.175-1.157-0.175-1.748
		c0-2.304,0.915-4.494,2.541-6.129c1.635-1.626,3.826-2.542,6.126-2.542H327.685z"/>
	<polygon fill="#364A5E" points="424.754,300.897 553.089,300.897 557.31,300.897 557.31,305.125 557.31,371.358 557.31,375.587
		553.089,375.587 424.754,375.587 420.527,375.587 420.527,371.358 420.527,305.125 420.527,300.897 	"/>
	<rect x="425.704" y="306.065" fill="#F19C1F" width="126.436" height="64.344"/>
	<path fill="#BCC2C6" d="M512.604,405.103h-44.572c-1.718,0-3.274,0.702-4.399,1.834c-1.135,1.134-1.835,2.694-1.835,4.401
		c0,1.725,0.694,3.287,1.816,4.41l0.019,0.008c1.118,1.125,2.676,1.826,4.399,1.826h44.572c1.717,0,3.278-0.707,4.4-1.834
		c1.137-1.133,1.834-2.691,1.834-4.41c0-1.715-0.69-3.274-1.826-4.401C515.882,405.805,514.32,405.103,512.604,405.103
		 M468.031,399.001h44.572c3.394,0,6.478,1.384,8.712,3.619l0.018,0.017c2.233,2.234,3.617,5.316,3.617,8.701
		c0,3.402-1.384,6.486-3.617,8.729c-2.244,2.234-5.327,3.627-8.729,3.627h-44.572c-3.383,0-6.47-1.393-8.708-3.627l-0.01-0.008
		h-0.008c-2.233-2.244-3.618-5.336-3.618-8.721c0-3.392,1.385-6.483,3.618-8.718C461.548,400.386,464.633,399.001,468.031,399.001z"
		/>
	<path fill="#364A5E" d="M465.605,393.95h44.58c3.386,0,6.47,1.384,8.71,3.625l0.01,0.01c2.234,2.243,3.629,5.317,3.629,8.713
		c0,3.397-1.395,6.493-3.629,8.726c-2.24,2.234-5.324,3.617-8.72,3.617h-44.58c-3.383,0-6.468-1.383-8.709-3.617v-0.008l-0.01-0.009
		c-2.241-2.244-3.623-5.317-3.623-8.709c0-3.396,1.382-6.479,3.623-8.723C459.122,395.334,462.205,393.95,465.605,393.95"/>
	<path fill="#43C0B9" d="M510.186,397.627c2.302,0,4.495,0.909,6.13,2.542c1.625,1.625,2.54,3.825,2.54,6.129
		c0,2.307-0.915,4.5-2.549,6.126c-1.626,1.634-3.819,2.549-6.121,2.549h-44.58c-2.302,0-4.498-0.908-6.124-2.533l-0.01-0.016
		c-1.625-1.626-2.534-3.819-2.534-6.126c0-2.304,0.917-4.494,2.544-6.129c1.626-1.626,3.822-2.542,6.124-2.542H510.186z"/>
	<path fill="#7CCED2" d="M510.186,397.627c2.302,0,4.495,0.909,6.13,2.542c1.625,1.625,2.54,3.825,2.54,6.129
		c0,0.591-0.058,1.173-0.183,1.742c-0.334-1.653-1.151-3.169-2.357-4.378c-1.635-1.627-3.828-2.544-6.13-2.544h-44.58
		c-2.302,0-4.498,0.917-6.124,2.552c-1.211,1.201-2.027,2.734-2.368,4.376c-0.116-0.575-0.176-1.157-0.176-1.748
		c0-2.304,0.917-4.494,2.544-6.129c1.626-1.626,3.822-2.542,6.124-2.542H510.186z"/>
	<polygon fill="#364A5E" points="242.25,445.975 370.587,445.975 374.813,445.975 374.813,450.2 374.813,516.437 374.813,520.662
		370.587,520.662 242.25,520.662 238.03,520.662 238.03,516.437 238.03,450.2 238.03,445.975 	"/>
	<rect x="243.201" y="451.152" fill="#F19C1F" width="126.435" height="64.341"/>
	<path fill="#BCC2C6" d="M330.101,550.184h-44.571c-1.711,0-3.274,0.701-4.401,1.832c-1.133,1.136-1.835,2.687-1.835,4.404
		c0,1.717,0.692,3.281,1.818,4.4l0.017,0.017c1.117,1.117,2.685,1.816,4.401,1.816h44.571c1.717,0,3.277-0.699,4.409-1.833
		c1.135-1.133,1.835-2.684,1.835-4.4c0-1.718-0.7-3.269-1.835-4.404C333.386,550.885,331.826,550.184,330.101,550.184
		 M285.529,544.082h44.571c3.392,0,6.477,1.385,8.711,3.617l0.017,0.017c2.235,2.234,3.626,5.319,3.626,8.704
		c0,3.398-1.391,6.484-3.626,8.719c-2.241,2.233-5.326,3.634-8.728,3.634h-44.571c-3.385,0-6.47-1.4-8.711-3.634l0,0h-0.01
		c-2.24-2.252-3.625-5.335-3.625-8.719c0-3.402,1.385-6.487,3.625-8.721C279.044,545.467,282.13,544.082,285.529,544.082z"/>
	<path fill="#364A5E" d="M283.103,539.031h44.582c3.381,0,6.467,1.382,8.711,3.617l0.007,0.016c2.233,2.234,3.627,5.318,3.627,8.704
		v0.015c0,3.386-1.394,6.486-3.627,8.722c-2.231,2.234-5.327,3.616-8.718,3.616h-44.582c-3.384,0-6.467-1.382-8.711-3.616v-0.017
		h-0.009c-2.231-2.234-3.625-5.338-3.625-8.705v-0.015c0-3.386,1.394-6.487,3.625-8.72
		C276.618,540.413,279.701,539.031,283.103,539.031"/>
	<path fill="#43C0B9" d="M327.685,542.697c2.3,0,4.501,0.918,6.125,2.552c1.634,1.634,2.543,3.816,2.543,6.134
		c0,2.304-0.917,4.486-2.543,6.12c-1.634,1.634-3.825,2.551-6.125,2.551h-44.582c-2.3,0-4.491-0.917-6.126-2.534l-0.01-0.017
		c-1.626-1.634-2.531-3.834-2.531-6.135c0-2.303,0.915-4.485,2.541-6.119c1.635-1.634,3.826-2.552,6.126-2.552H327.685z"/>
	<path fill="#7CCED2" d="M327.685,542.697c2.3,0,4.501,0.918,6.125,2.552c1.634,1.634,2.543,3.816,2.543,6.134
		c0,0.585-0.06,1.166-0.176,1.736c-0.342-1.651-1.158-3.169-2.367-4.388c-1.624-1.616-3.825-2.53-6.125-2.53h-44.582
		c-2.3,0-4.491,0.914-6.126,2.548c-1.21,1.201-2.024,2.734-2.366,4.386c-0.117-0.586-0.175-1.167-0.175-1.767
		c0-2.303,0.915-4.485,2.541-6.119c1.635-1.634,3.826-2.552,6.126-2.552H327.685z"/>
	<polygon fill="#364A5E" points="424.754,445.975 553.089,445.975 557.31,445.975 557.31,450.2 557.31,516.437 557.31,520.662
		553.089,520.662 424.754,520.662 420.527,520.662 420.527,516.437 420.527,450.2 420.527,445.975 	"/>
	<rect x="425.704" y="451.152" fill="#F19C1F" width="126.436" height="64.341"/>
	<path fill="#BCC2C6" d="M512.604,550.184h-44.572c-1.718,0-3.274,0.701-4.399,1.832c-1.135,1.136-1.835,2.687-1.835,4.404
		c0,1.717,0.694,3.281,1.816,4.4l0.019,0.017c1.118,1.117,2.676,1.816,4.399,1.816h44.572c1.717,0,3.278-0.699,4.4-1.833
		c1.137-1.133,1.834-2.684,1.834-4.4c0-1.718-0.69-3.269-1.826-4.404C515.882,550.885,514.32,550.184,512.604,550.184
		 M468.031,544.082h44.572c3.394,0,6.478,1.385,8.712,3.617l0.018,0.017c2.233,2.234,3.617,5.319,3.617,8.704
		c0,3.398-1.384,6.484-3.617,8.719c-2.244,2.233-5.327,3.634-8.729,3.634h-44.572c-3.383,0-6.47-1.4-8.708-3.634h-0.01h-0.008
		c-2.233-2.252-3.618-5.335-3.618-8.719c0-3.402,1.385-6.487,3.618-8.721C461.548,545.467,464.633,544.082,468.031,544.082z"/>
	<path fill="#364A5E" d="M465.605,539.031h44.58c3.386,0,6.47,1.382,8.71,3.617l0.01,0.016c2.234,2.234,3.629,5.318,3.629,8.704
		v0.015c0,3.386-1.395,6.486-3.629,8.722c-2.24,2.234-5.324,3.616-8.72,3.616h-44.58c-3.383,0-6.468-1.382-8.709-3.616v-0.017h-0.01
		c-2.241-2.234-3.623-5.338-3.623-8.705v-0.015c0-3.386,1.382-6.487,3.623-8.72C459.122,540.413,462.205,539.031,465.605,539.031"/>
	<path fill="#43C0B9" d="M510.186,542.697c2.302,0,4.495,0.918,6.13,2.552c1.625,1.634,2.54,3.816,2.54,6.134
		c0,2.304-0.915,4.486-2.549,6.12c-1.626,1.634-3.819,2.551-6.121,2.551h-44.58c-2.302,0-4.498-0.917-6.124-2.534l-0.01-0.017
		c-1.625-1.634-2.534-3.834-2.534-6.135c0-2.303,0.917-4.485,2.544-6.119c1.626-1.634,3.822-2.552,6.124-2.552H510.186z"/>
	<path fill="#7CCED2" d="M510.186,542.697c2.302,0,4.495,0.918,6.13,2.552c1.625,1.634,2.54,3.816,2.54,6.134
		c0,0.585-0.058,1.166-0.183,1.736c-0.334-1.651-1.151-3.169-2.357-4.388c-1.635-1.616-3.828-2.53-6.13-2.53h-44.58
		c-2.302,0-4.498,0.914-6.124,2.548c-1.211,1.201-2.027,2.734-2.368,4.386c-0.116-0.586-0.176-1.167-0.176-1.767
		c0-2.303,0.917-4.485,2.544-6.119c1.626-1.634,3.822-2.552,6.124-2.552H510.186z"/>
	<polygon fill="#D38528" points="306.419,318.621 316.146,324.229 325.866,329.848 325.866,341.077 325.866,352.304
		316.146,357.923 306.419,363.533 296.688,357.923 286.971,352.304 286.971,341.077 286.971,329.848 296.688,324.229 	"/>
	<polygon fill="#364A5E" points="306.419,313.861 316.146,319.478 325.866,325.096 325.866,336.325 325.866,347.553
		316.146,353.163 306.419,358.782 296.688,353.163 286.971,347.553 286.971,336.325 286.971,325.096 296.688,319.478 	"/>
	<path fill-rule="evenodd" clip-rule="evenodd" fill="#F6F5BB" d="M304.478,353.171l-5.837-3.365l-7.786-4.494v-8.986v-6.995
		l13.623,7.87V353.171z M321.98,329.331v6.995v8.986l-7.776,4.494l-5.844,3.365V337.2L321.98,329.331z M306.419,318.354l7.785,4.493
		l5.619,3.251l-13.404,7.735l-13.404-7.735l5.626-3.251L306.419,318.354z"/>
	<polygon fill="#D38528" points="488.923,318.621 498.65,324.229 508.369,329.848 508.369,341.077 508.369,352.304 498.65,357.923
		488.923,363.533 479.194,357.923 469.475,352.304 469.475,341.077 469.475,329.848 479.194,324.229 	"/>
	<polygon fill="#364A5E" points="488.923,313.861 498.65,319.478 508.369,325.096 508.369,336.325 508.369,347.553 498.65,353.163
		488.923,358.782 479.194,353.163 469.475,347.553 469.475,336.325 469.475,325.096 479.194,319.478 	"/>
	<path fill-rule="evenodd" clip-rule="evenodd" fill="#F6F5BB" d="M486.979,353.171l-5.843-3.365l-7.778-4.494v-8.986v-6.995
		l13.621,7.87V353.171z M504.484,329.331v6.995v8.986l-7.774,4.494l-5.846,3.365V337.2L504.484,329.331z M488.923,318.354
		l7.787,4.493l5.617,3.251l-13.404,7.735l-13.413-7.735l5.627-3.251L488.923,318.354z"/>
	<polygon fill="#D38528" points="488.923,464.238 498.65,469.854 508.369,475.474 508.369,486.694 508.369,497.931 498.65,503.54
		488.923,509.15 479.194,503.54 469.475,497.931 469.475,486.694 469.475,475.474 479.194,469.854 	"/>
	<polygon fill="#364A5E" points="488.923,459.486 498.65,465.103 508.369,470.724 508.369,481.943 508.369,493.179 498.65,498.788
		488.923,504.4 479.194,498.788 469.475,493.179 469.475,481.943 469.475,470.724 479.194,465.103 	"/>
	<path fill-rule="evenodd" clip-rule="evenodd" fill="#F6F5BB" d="M486.979,498.798l-5.843-3.367l-7.778-4.504v-8.983v-6.985
		l13.621,7.868V498.798z M504.484,474.958v6.985v8.983l-7.774,4.504l-5.846,3.367v-15.972L504.484,474.958z M488.923,463.97
		l7.787,4.501l5.617,3.245l-13.404,7.742l-13.413-7.742l5.627-3.245L488.923,463.97z"/>
	<polygon fill="#D38528" points="306.419,464.238 316.146,469.854 325.866,475.474 325.866,486.694 325.866,497.931 316.146,503.54
		306.419,509.15 296.688,503.54 286.971,497.931 286.971,486.694 286.971,475.474 296.688,469.854 	"/>
	<polygon fill="#364A5E" points="306.419,459.486 316.146,465.103 325.866,470.724 325.866,481.943 325.866,493.179
		316.146,498.788 306.419,504.4 296.688,498.788 286.971,493.179 286.971,481.943 286.971,470.724 296.688,465.103 	"/>
	<path fill-rule="evenodd" clip-rule="evenodd" fill="#F6F5BB" d="M304.478,498.798l-5.837-3.367l-7.786-4.504v-8.983v-6.985
		l13.623,7.868V498.798z M321.98,474.958v6.985v8.983l-7.776,4.504l-5.844,3.367v-15.972L321.98,474.958z M306.419,463.97
		l7.785,4.501l5.619,3.245l-13.404,7.742l-13.404-7.742l5.626-3.245L306.419,463.97z"/>
	<!-- <path fill-rule="evenodd" clip-rule="evenodd" fill="#94A4A5" d="M421.37,256.71h2.682v-14.205h-3.066l-4.453,6.102l-4.441-6.102
		h-3.093v14.205h2.687v-10.32l4.523,6.185h0.525l4.637-6.168V256.71z M404.675,254.068h-7.979v-3.21h7.693v-2.5h-7.693v-3.284h7.979
		v-2.601h-10.641c0,4.744,0,9.502,0,14.237h10.641V254.068z M383.024,256.71h2.684v-11.804h4.512v-2.433c-4.127,0-7.604,0-11.705,0
		v2.433h4.51V256.71z M373.947,256.71v-14.237h-2.66v14.237H373.947z"/> -->
</g>
</svg>
