<?xml version="1.0" encoding="utf-8"?>
<!-- Generator: Adobe Illustrator 15.1.0, SVG Export Plug-In . SVG Version: 6.00 Build 0)  -->
<!DOCTYPE svg PUBLIC "-//W3C//DTD SVG 1.0//EN" "http://www.w3.org/TR/2001/REC-SVG-20010904/DTD/svg10.dtd">
<svg version="1.0" id="Layer_1" xmlns="http://www.w3.org/2000/svg" xmlns:xlink="http://www.w3.org/1999/xlink" x="0px" y="0px"
	 width="800px" height="800px" viewBox="190.10400390625 222.13299560546875 421.0169677734375 377.9329833984375" enable-background="new 0 0 800 800" xml:space="preserve">
<g>
	<!-- <path fill="#BCC2C6" d="M206.316,222.133h388.6c4.459,0,8.517,1.826,11.452,4.751v0.025c2.933,2.935,4.752,6.977,4.752,11.428
		v345.521c0,4.452-1.819,8.487-4.752,11.42v0.018c-2.936,2.95-6.993,4.769-11.452,4.769h-388.6c-4.468,0-8.519-1.818-11.452-4.769
		v-0.018c-2.934-2.933-4.76-6.968-4.76-11.42V238.338c0-4.452,1.826-8.494,4.76-11.428v-0.025
		C197.798,223.959,201.849,222.133,206.316,222.133"/>
	<path fill="#EBEFF0" d="M605.241,238.338v345.521c0,6.504-4.533,10.321-10.325,10.321h-388.6c-5.783,0-10.327-3.719-10.327-10.321
		V238.338c0-6.735,4.561-10.319,10.327-10.319h388.6C600.699,228.019,605.241,231.719,605.241,238.338"/> -->
	<path fill="#BCC2C6" d="M204.175,269.597h392.883c3.877,0,7.394,1.584,9.936,4.134c2.551,2.543,4.127,6.07,4.127,9.936v302.327
		c0,3.866-1.576,7.402-4.127,9.938c-2.542,2.551-6.059,4.134-9.936,4.134H204.175c-3.876,0-7.395-1.583-9.937-4.134
		c-2.548-2.535-4.134-6.071-4.134-9.938V283.667c0-3.866,1.586-7.393,4.134-9.936C196.78,271.181,200.299,269.597,204.175,269.597"
		/>
	<path fill-rule="evenodd" clip-rule="evenodd" fill="#FFFFFF" d="M204.175,275.482c-2.176,0-4.241,0.867-5.776,2.402
		c-1.542,1.541-2.409,3.617-2.409,5.784v302.327c0,2.168,0.867,4.252,2.409,5.785c1.535,1.535,3.601,2.401,5.776,2.401h392.883
		c2.176,0,4.241-0.866,5.776-2.401c1.543-1.533,2.407-3.603,2.407-5.785V283.667c0-2.183-0.864-4.243-2.407-5.784
		c-1.535-1.535-3.601-2.402-5.776-2.402H204.175z"/>
	<!-- <path fill-rule="evenodd" clip-rule="evenodd" fill="#94A4A5" d="M546.491,242.098c4.143,0,7.495,3.36,7.495,7.493
		c0,4.135-3.353,7.485-7.495,7.485c-4.134,0-7.482-3.35-7.482-7.485C539.009,245.458,542.357,242.098,546.491,242.098
		 M570.015,242.098c4.135,0,7.488,3.36,7.488,7.493c0,4.135-3.354,7.485-7.488,7.485c-4.143,0-7.493-3.35-7.493-7.485
		C562.521,245.458,565.882,242.098,570.015,242.098z M522.978,242.098c4.135,0,7.483,3.36,7.483,7.493
		c0,4.135-3.349,7.485-7.483,7.485c-4.137,0-7.486-3.35-7.486-7.485C515.491,245.458,518.841,242.098,522.978,242.098z"/> -->
	<rect x="235.034" y="309.276" fill-rule="evenodd" clip-rule="evenodd" fill="#364A5E" width="54.677" height="54.666"/>
	<rect x="241.036" y="315.269" fill-rule="evenodd" clip-rule="evenodd" fill="#F19C1F" width="42.67" height="42.671"/>
	<path fill-rule="evenodd" clip-rule="evenodd" fill="#BCC2C6" d="M305.697,322.796h88.659c2.167,0,3.936,1.767,3.936,3.935
		c0,2.159-1.769,3.933-3.936,3.933h-88.659c-2.159,0-3.928-1.774-3.928-3.933C301.77,324.563,303.538,322.796,305.697,322.796"/>
	<path fill-rule="evenodd" clip-rule="evenodd" fill="#BCC2C6" d="M305.697,342.553h76.63c2.168,0,3.935,1.766,3.935,3.933
		c0,2.168-1.767,3.935-3.935,3.935h-76.63c-2.159,0-3.928-1.767-3.928-3.935C301.77,344.319,303.538,342.553,305.697,342.553"/>
	<rect x="421.38" y="309.276" fill-rule="evenodd" clip-rule="evenodd" fill="#364A5E" width="54.676" height="54.666"/>
	<rect x="427.383" y="315.269" fill-rule="evenodd" clip-rule="evenodd" fill="#F19C1F" width="42.671" height="42.671"/>
	<path fill-rule="evenodd" clip-rule="evenodd" fill="#BCC2C6" d="M492.043,322.796h88.661c2.167,0,3.935,1.767,3.935,3.935
		c0,2.159-1.768,3.933-3.935,3.933h-88.661c-2.159,0-3.926-1.774-3.926-3.933C488.117,324.563,489.884,322.796,492.043,322.796"/>
	<path fill-rule="evenodd" clip-rule="evenodd" fill="#BCC2C6" d="M492.043,342.553h76.64c2.156,0,3.923,1.766,3.923,3.933
		c0,2.168-1.767,3.935-3.923,3.935h-76.64c-2.159,0-3.926-1.767-3.926-3.935C488.117,344.319,489.884,342.553,492.043,342.553"/>
	<rect x="235.034" y="393.668" fill-rule="evenodd" clip-rule="evenodd" fill="#364A5E" width="54.677" height="54.673"/>
	<rect x="241.036" y="399.669" fill-rule="evenodd" clip-rule="evenodd" fill="#F19C1F" width="42.67" height="42.677"/>
	<path fill-rule="evenodd" clip-rule="evenodd" fill="#BCC2C6" d="M305.697,407.189h88.659c2.167,0,3.936,1.772,3.936,3.932
		c0,2.168-1.769,3.936-3.936,3.936h-88.659c-2.159,0-3.928-1.768-3.928-3.936C301.77,408.962,303.538,407.189,305.697,407.189"/>
	<path fill-rule="evenodd" clip-rule="evenodd" fill="#BCC2C6" d="M305.697,426.96h76.63c2.168,0,3.935,1.767,3.935,3.926
		s-1.767,3.928-3.935,3.928h-76.63c-2.159,0-3.928-1.769-3.928-3.928S303.538,426.96,305.697,426.96"/>
	<rect x="421.38" y="393.668" fill-rule="evenodd" clip-rule="evenodd" fill="#364A5E" width="54.676" height="54.673"/>
	<rect x="427.383" y="399.669" fill-rule="evenodd" clip-rule="evenodd" fill="#F19C1F" width="42.671" height="42.677"/>
	<path fill-rule="evenodd" clip-rule="evenodd" fill="#BCC2C6" d="M492.043,407.189h88.661c2.167,0,3.935,1.772,3.935,3.932
		c0,2.168-1.768,3.936-3.935,3.936h-88.661c-2.159,0-3.926-1.768-3.926-3.936C488.117,408.962,489.884,407.189,492.043,407.189"/>
	<path fill-rule="evenodd" clip-rule="evenodd" fill="#BCC2C6" d="M492.043,426.96h76.64c2.156,0,3.923,1.767,3.923,3.926
		s-1.767,3.928-3.923,3.928h-76.64c-2.159,0-3.926-1.769-3.926-3.928S489.884,426.96,492.043,426.96"/>
	<path fill-rule="evenodd" clip-rule="evenodd" fill="#BCC2C6" d="M238.969,504.549h190.63c2.168,0,3.936,1.77,3.936,3.936
		c0,2.159-1.768,3.936-3.936,3.936h-190.63c-2.167,0-3.935-1.776-3.935-3.936C235.034,506.318,236.802,504.549,238.969,504.549"/>
	<path fill-rule="evenodd" clip-rule="evenodd" fill="#BCC2C6" d="M238.969,524.31h190.63c2.168,0,3.936,1.767,3.936,3.935
		c0,2.167-1.768,3.934-3.936,3.934h-190.63c-2.167,0-3.935-1.767-3.935-3.934C235.034,526.076,236.802,524.31,238.969,524.31"/>
	<path fill-rule="evenodd" clip-rule="evenodd" fill="#BCC2C6" d="M238.969,544.066h91.385c2.169,0,3.933,1.782,3.933,3.936l0,0
		c0,2.166-1.764,3.933-3.933,3.933h-91.385c-2.167,0-3.935-1.767-3.935-3.933l0,0C235.034,545.849,236.802,544.066,238.969,544.066"
		/>
	<path fill-rule="evenodd" clip-rule="evenodd" fill="#BCC2C6" d="M238.969,484.795h190.63c2.168,0,3.936,1.767,3.936,3.925
		c0,2.159-1.768,3.926-3.936,3.926h-190.63c-2.167,0-3.935-1.767-3.935-3.926C235.034,486.562,236.802,484.795,238.969,484.795"/>
	<path fill="#BCC2C6" d="M554.402,503.092h-44.579c-1.708,0-3.268,0.7-4.399,1.832c-1.137,1.126-1.835,2.692-1.835,4.4
		c0,1.728,0.698,3.278,1.825,4.412l0.01,0.01c1.122,1.122,2.682,1.823,4.399,1.823h44.579c1.718,0,3.27-0.709,4.402-1.833
		c1.133-1.134,1.835-2.701,1.835-4.412c0-1.715-0.702-3.274-1.827-4.407C557.68,503.792,556.12,503.092,554.402,503.092
		 M509.823,496.979h44.579c3.393,0,6.47,1.384,8.711,3.627l0.008,0.008c2.234,2.233,3.628,5.318,3.628,8.71
		c0,3.395-1.394,6.495-3.628,8.729c-2.231,2.234-5.316,3.622-8.719,3.622h-44.579c-3.386,0-6.459-1.388-8.705-3.622l-0.005-0.007
		l-0.009-0.01c-2.234-2.242-3.629-5.327-3.629-8.712c0-3.392,1.395-6.484,3.629-8.718
		C503.339,498.363,506.432,496.979,509.823,496.979z"/>
	<path fill="#364A5E" d="M507.407,491.937h44.571c3.393,0,6.478,1.394,8.708,3.627l0.018,0.008c2.233,2.234,3.618,5.327,3.618,8.712
		c0,3.4-1.385,6.485-3.618,8.718c-2.241,2.235-5.326,3.627-8.726,3.627h-44.571c-3.386,0-6.469-1.392-8.713-3.627h-0.01
		l-0.006-0.007c-2.235-2.244-3.619-5.327-3.619-8.711c0-3.402,1.384-6.487,3.619-8.72
		C500.919,493.33,504.004,491.937,507.407,491.937"/>
	<path fill="#43C0B9" d="M551.979,495.615c2.307,0,4.5,0.905,6.133,2.531c1.627,1.634,2.535,3.837,2.535,6.137
		c0,2.301-0.918,4.501-2.543,6.118c-1.625,1.633-3.818,2.552-6.125,2.552h-44.571c-2.303,0-4.504-0.901-6.13-2.535l-0.006-0.017
		c-1.635-1.617-2.542-3.817-2.542-6.118c0-2.3,0.923-4.503,2.548-6.129c1.626-1.625,3.819-2.539,6.13-2.539H551.979z"/>
	<path fill="#7CCED2" d="M551.979,495.615c2.307,0,4.5,0.905,6.133,2.531c1.627,1.634,2.535,3.837,2.535,6.137
		c0,0.592-0.058,1.174-0.175,1.741c-0.343-1.642-1.151-3.177-2.36-4.376c-1.633-1.636-3.826-2.55-6.133-2.55h-44.571
		c-2.311,0-4.504,0.925-6.13,2.55c-1.209,1.209-2.025,2.734-2.364,4.385c-0.117-0.566-0.184-1.158-0.184-1.75
		c0-2.3,0.923-4.503,2.548-6.129c1.626-1.625,3.819-2.539,6.13-2.539H551.979z"/>
	<!-- <path fill-rule="evenodd" clip-rule="evenodd" fill="#94A4A5" d="M424.315,256.71h2.684v-14.205h-3.068l-4.45,6.102l-4.452-6.102
		h-3.082v14.205h2.683v-10.32l4.526,6.185h0.533l4.627-6.168V256.71z M407.626,254.068h-7.984v-3.21h7.692v-2.5h-7.692v-3.284h7.984
		v-2.601h-10.652c0,4.744,0,9.502,0,14.237h10.652V254.068z M385.971,256.71h2.683v-11.804h4.51v-2.433c-4.127,0-7.593,0-11.705,0
		v2.433h4.513V256.71z M376.893,256.71v-14.237h-2.659v14.237H376.893z"/> -->
</g>
</svg>
