<?xml version="1.0" encoding="utf-8"?>
<!-- Generator: Adobe Illustrator 15.1.0, SVG Export Plug-In . SVG Version: 6.00 Build 0)  -->
<!DOCTYPE svg PUBLIC "-//W3C//DTD SVG 1.0//EN" "http://www.w3.org/TR/2001/REC-SVG-20010904/DTD/svg10.dtd">
<svg version="1.0" id="Layer_1" xmlns="http://www.w3.org/2000/svg" xmlns:xlink="http://www.w3.org/1999/xlink" x="0px" y="0px"
	 width="800px" height="800px" viewBox="191.6929931640625 199.8300018310547 421.0140380859375 377.9339599609375" enable-background="new 0 0 800 800" xml:space="preserve">
<g>
	<!-- <path fill="#BCC2C6" d="M207.896,199.83h388.599c4.467,0,8.518,1.818,11.452,4.752v0.025c2.935,2.934,4.76,6.977,4.76,11.428
		v345.521c0,4.436-1.825,8.487-4.76,11.42v0.019c-2.936,2.95-6.985,4.769-11.452,4.769H207.896c-4.467,0-8.521-1.817-11.452-4.769
		v-0.019c-2.935-2.933-4.751-6.984-4.751-11.42V216.035c0-4.451,1.816-8.494,4.751-11.428v-0.025
		C199.376,201.648,203.43,199.83,207.896,199.83"/>
	<path fill="#EBEFF0" d="M606.82,216.035v345.521c0,6.505-4.524,10.321-10.326,10.321H207.896c-5.783,0-10.328-3.719-10.328-10.321
		V216.035c0-6.735,4.56-10.319,10.328-10.319h388.598C602.277,205.716,606.82,209.416,606.82,216.035"/> -->
	<path fill="#BCC2C6" d="M205.763,247.295h392.863c3.888,0,7.403,1.584,9.954,4.134c2.543,2.543,4.126,6.069,4.126,9.937v302.326
		c0,3.865-1.583,7.385-4.126,9.938c-2.551,2.551-6.066,4.134-9.954,4.134H205.763c-3.886,0-7.4-1.583-9.944-4.134
		c-2.551-2.553-4.125-6.071-4.125-9.938V261.365c0-3.867,1.574-7.394,4.125-9.938C198.361,248.879,201.877,247.295,205.763,247.295"
		/>
	<path fill="#FFFFFF" d="M205.763,253.18c-2.185,0-4.249,0.866-5.787,2.401c-1.54,1.55-2.415,3.616-2.415,5.784v302.326
		c0,2.168,0.875,4.252,2.415,5.784c1.538,1.535,3.604,2.401,5.787,2.401h392.863c2.187,0,4.252-0.866,5.786-2.401
		c1.541-1.532,2.408-3.603,2.408-5.784V261.365c0-2.184-0.867-4.234-2.408-5.784c-1.534-1.535-3.601-2.401-5.786-2.401H205.763z"/>
	<!-- <path fill="#94A4A5" d="M548.078,219.795c4.137,0,7.486,3.359,7.486,7.493c0,4.135-3.351,7.485-7.486,7.485
		c-4.133,0-7.49-3.351-7.49-7.485C540.588,223.154,543.945,219.795,548.078,219.795 M571.595,219.795
		c4.128,0,7.495,3.359,7.495,7.493c0,4.135-3.367,7.485-7.495,7.485c-4.144,0-7.493-3.351-7.493-7.485
		C564.102,223.154,567.46,219.795,571.595,219.795z M524.557,219.795c4.135,0,7.484,3.359,7.484,7.493
		c0,4.135-3.351,7.485-7.484,7.485c-4.137,0-7.486-3.351-7.486-7.485C517.07,223.154,520.42,219.795,524.557,219.795z"/> -->
	<path fill="#BCC2C6" d="M334.775,354.809c5.91,0,11.369,3.203,10.629,11.205c-0.893,9.477-6.002,14.753-14.039,14.778h-7
		c-1.018,0-1.502,0.827-1.769,2.511l-1.351,8.626c-0.199,1.308-0.865,1.941-1.866,1.941h-6.521c-1.048,0-1.407-0.657-1.176-2.148
		l5.396-34.577c0.265-1.701,0.916-2.336,2.066-2.336H334.775z M324.148,373.323h5.315c3.319-0.127,5.528-2.427,5.755-6.577
		c0.131-2.566-1.602-4.403-4.352-4.394l-5.012,0.025L324.148,373.323z M363.143,391.221c0.602-0.533,1.201-0.818,1.115-0.151
		l-0.217,1.601c-0.107,0.833,0.227,1.285,1,1.285h5.803c0.985,0,1.451-0.401,1.691-1.902l3.577-22.439
		c0.185-1.116-0.092-1.668-0.95-1.668h-6.377c-0.575,0-0.851,0.318-1.002,1.194l-0.24,1.381c-0.117,0.726-0.451,0.845-0.758,0.127
		c-1.077-2.567-3.844-3.718-7.711-3.635c-8.937,0.183-14.974,6.97-15.623,15.673c-0.5,6.734,4.336,12.019,10.688,12.019
		C358.756,394.704,360.814,393.339,363.143,391.221z M358.291,387.778c-3.854,0-6.535-3.067-5.977-6.836
		c0.557-3.76,4.158-6.837,8.008-6.837c3.853,0,6.537,3.077,5.973,6.837C365.742,384.711,362.142,387.778,358.291,387.778z
		 M387.465,367.863h-5.85c-1.22,0-1.72,0.891-1.327,2.018l7.294,21.388l-7.187,10.172c-0.602,0.851-0.142,1.614,0.709,1.614h6.611
		c0.981,0,1.467-0.247,1.965-0.958l22.45-32.217c0.691-0.984,0.365-2.026-0.768-2.026l-6.243-0.008
		c-1.085,0-1.509,0.425-2.126,1.317l-9.36,13.587l-4.17-13.611C389.209,368.304,388.598,367.863,387.465,367.863z"/>
	<path fill="#BCC2C6" d="M435.497,354.809c5.917,0,11.37,3.203,10.626,11.205c-0.892,9.477-5.992,14.753-14.027,14.778h-7.01
		c-1.01,0-1.491,0.827-1.762,2.511l-1.349,8.626c-0.21,1.308-0.875,1.941-1.866,1.941h-6.521c-1.051,0-1.416-0.657-1.18-2.148
		l5.399-34.577c0.267-1.701,0.918-2.336,2.068-2.336H435.497z M424.867,373.323h5.316c3.327-0.127,5.53-2.427,5.764-6.577
		c0.131-2.566-1.604-4.403-4.359-4.394l-5.012,0.025L424.867,373.323z M463.873,391.221c0.589-0.533,1.197-0.818,1.117-0.151
		l-0.22,1.601c-0.116,0.833,0.22,1.285,1.002,1.285h5.8c0.976,0,1.452-0.401,1.686-1.902l3.582-22.439
		c0.178-1.116-0.097-1.668-0.949-1.668h-6.377c-0.57,0-0.856,0.318-1.007,1.194l-0.231,1.381c-0.125,0.726-0.452,0.845-0.76,0.127
		c-1.086-2.567-3.845-3.718-7.713-3.635c-8.943,0.183-14.979,6.97-15.619,15.673c-0.5,6.734,4.326,12.019,10.687,12.019
		C459.479,394.704,461.539,393.339,463.873,391.221z M459.018,387.778c-3.848,0-6.533-3.067-5.983-6.836
		c0.566-3.76,4.17-6.837,8.013-6.837c3.852,0,6.536,3.077,5.979,6.837C466.464,384.711,462.864,387.778,459.018,387.778z
		 M485.762,393.997h-6.693c-0.525,0-0.898-0.416-0.825-0.926l5.895-37.263c0.074-0.499,0.574-0.916,1.107-0.916h6.7
		c0.527,0,0.902,0.417,0.816,0.916l-5.884,37.263C486.794,393.581,486.295,393.997,485.762,393.997z"/>
	<path fill="#BCC2C6" d="M433.213,513.627h-58.836c-2.266,0-4.316,0.917-5.809,2.418c-1.49,1.482-2.428,3.55-2.428,5.801l0,0
		c0,2.284,0.928,4.336,2.412,5.818l0.017,0.017c1.485,1.484,3.542,2.4,5.808,2.4h58.836c2.258,0,4.318-0.916,5.81-2.417
		c1.493-1.501,2.426-3.551,2.426-5.818l0,0c0-2.269-0.933-4.317-2.418-5.817C437.531,514.544,435.48,513.627,433.213,513.627
		 M374.377,505.558h58.836c4.467,0,8.535,1.835,11.487,4.784l0.023,0.019c2.941,2.95,4.777,7.017,4.777,11.485l0,0
		c0,4.485-1.836,8.569-4.777,11.521c-2.961,2.949-7.026,4.782-11.512,4.782h-58.836c-4.467,0-8.533-1.833-11.493-4.782l-0.011-0.02
		h-0.006c-2.951-2.967-4.784-7.033-4.784-11.503l0,0c0-4.484,1.833-8.553,4.784-11.504
		C365.816,507.393,369.895,505.558,374.377,505.558z"/>
	<path fill="#364A5E" d="M371.178,498.901h58.833c4.468,0,8.544,1.839,11.496,4.771l0.017,0.019
		c2.951,2.949,4.774,7.034,4.774,11.503l0,0c0,4.485-1.823,8.568-4.774,11.503c-2.95,2.95-7.027,4.784-11.512,4.784h-58.834
		c-4.467,0-8.534-1.834-11.496-4.784h-0.007l0,0c-2.961-2.968-4.784-7.033-4.784-11.503l0,0c0-4.483,1.823-8.554,4.784-11.521
		C362.617,500.74,366.693,498.901,371.178,498.901"/>
	<path fill="#43C0B9" d="M430.011,503.741c3.035,0,5.946,1.217,8.087,3.367c2.151,2.133,3.359,5.051,3.359,8.085
		c0,3.032-1.208,5.937-3.359,8.086c-2.149,2.15-5.044,3.367-8.087,3.367h-58.833c-3.035,0-5.936-1.2-8.087-3.351l-0.013-0.018
		c-2.146-2.149-3.345-5.054-3.345-8.086c0-3.034,1.209-5.938,3.356-8.085c2.151-2.15,5.053-3.367,8.087-3.367L430.011,503.741
		L430.011,503.741z"/>
	<path fill="#7CCED2" d="M430.011,503.741c3.035,0,5.946,1.217,8.087,3.367c2.151,2.133,3.359,5.051,3.359,8.085
		c0,0.784-0.074,1.549-0.234,2.302c-0.449-2.167-1.523-4.186-3.125-5.786c-2.141-2.152-5.052-3.352-8.087-3.352h-58.833
		c-3.035,0-5.936,1.218-8.087,3.352c-1.591,1.602-2.675,3.619-3.124,5.803c-0.16-0.77-0.232-1.533-0.232-2.317
		c0-3.034,1.209-5.938,3.356-8.085c2.151-2.15,5.052-3.367,8.087-3.367L430.011,503.741L430.011,503.741z"/>
	<path fill="#BCC2C6" d="M281.242,452.155h241.904c2.158,0,3.926,1.772,3.926,3.932c0,2.17-1.768,3.938-3.926,3.938H281.242
		c-2.158,0-3.926-1.769-3.926-3.938C277.316,453.929,279.084,452.155,281.242,452.155"/>
	<path fill="#BCC2C6" d="M343.688,471.919h117.019c2.165,0,3.932,1.774,3.932,3.933c0,2.159-1.767,3.93-3.932,3.93H343.688
		c-2.168,0-3.936-1.771-3.936-3.93C339.752,473.693,341.52,471.919,343.688,471.919"/>
	<!-- <path fill="#94A4A5" d="M440.064,219.854v14.871h10.437v-2.584h-7.633v-12.287H440.064z M430.609,229.314h-5.517l2.76-6.336
		L430.609,229.314z M432.986,234.725h3.061l-6.669-14.871h-3.05l-6.668,14.871h3.033l1.272-2.801h7.771L432.986,234.725z
		 M411.316,219.854c-2.336-0.018-4.67,0-7.004,0v14.871h2.802v-4.369h4.202C418.592,230.355,418.573,219.854,411.316,219.854z
		 M407.113,222.529h4.201c3.56,0,3.582,5.26,0,5.26h-4.201V222.529z M389.447,219.854h-3.332v0.125l5.709,8.602v6.145h2.801v-6.145
		l5.922-8.602v-0.125h-3.378l-3.941,6.143L389.447,219.854z M380.18,229.314h-5.51l2.759-6.336L380.18,229.314z M382.564,234.725
		h3.054l-6.664-14.871h-3.058l-6.651,14.871h3.024l1.275-2.801h7.769L382.564,234.725z M360.89,219.854
		c-2.333-0.018-4.665,0-7.001,0v14.871h2.801v-4.369h4.2C368.169,230.355,368.143,219.854,360.89,219.854z M356.689,222.529h4.2
		c3.569,0,3.585,5.26,0,5.26h-4.2V222.529z"/> -->
</g>
</svg>
