<?xml version="1.0" encoding="utf-8"?>
<!-- Generator: Adobe Illustrator 15.1.0, SVG Export Plug-In . SVG Version: 6.00 Build 0)  -->
<!DOCTYPE svg PUBLIC "-//W3C//DTD SVG 1.0//EN" "http://www.w3.org/TR/2001/REC-SVG-20010904/DTD/svg10.dtd">
<svg version="1.0" id="Layer_1" xmlns="http://www.w3.org/2000/svg" xmlns:xlink="http://www.w3.org/1999/xlink" x="0px" y="0px"
	 width="800px" height="800px" viewBox="185.3929901123047 222.13299560546875 421.01495361328125 377.9329833984375" enable-background="new 0 0 800 800" xml:space="preserve">
<g>
	<!-- <path fill="#BCC2C6" d="M201.597,222.133h388.597c4.468,0,8.519,1.826,11.455,4.751v0.025c2.934,2.935,4.759,6.977,4.759,11.428
		v345.521c0,4.452-1.825,8.487-4.759,11.42v0.018c-2.937,2.95-6.987,4.769-11.455,4.769H201.597c-4.468,0-8.52-1.818-11.453-4.769
		v-0.018c-2.936-2.933-4.751-6.968-4.751-11.42V238.338c0-4.452,1.815-8.494,4.751-11.428v-0.025
		C193.077,223.959,197.129,222.133,201.597,222.133"/>
	<path fill="#EBEFF0" d="M600.521,238.338v345.521c0,6.504-4.525,10.321-10.327,10.321H201.597c-5.786,0-10.328-3.719-10.328-10.321
		V238.338c0-6.735,4.56-10.319,10.328-10.319h388.597C595.979,228.019,600.521,231.719,600.521,238.338"/> -->
	<path fill="#BCC2C6" d="M199.464,269.597h392.862c3.886,0,7.402,1.584,9.955,4.134c2.543,2.543,4.126,6.07,4.126,9.936v302.327
		c0,3.866-1.583,7.402-4.126,9.938c-2.553,2.551-6.069,4.134-9.955,4.134H199.464c-3.885,0-7.402-1.583-9.946-4.134
		c-2.552-2.535-4.125-6.071-4.125-9.938V283.667c0-3.866,1.573-7.393,4.125-9.936C192.062,271.181,195.579,269.597,199.464,269.597"
		/>
	<path fill-rule="evenodd" clip-rule="evenodd" fill="#FFFFFF" d="M199.464,275.482c-2.187,0-4.253,0.867-5.785,2.402
		c-1.543,1.541-2.416,3.617-2.416,5.784v302.327c0,2.168,0.873,4.252,2.416,5.785c1.532,1.535,3.599,2.401,5.785,2.401h392.862
		c2.186,0,4.254-0.866,5.787-2.401c1.539-1.533,2.407-3.603,2.407-5.785V283.667c0-2.183-0.868-4.243-2.407-5.784
		c-1.533-1.535-3.602-2.402-5.787-2.402H199.464z"/>
	<!-- <path fill-rule="evenodd" clip-rule="evenodd" fill="#94A4A5" d="M541.779,242.098c4.134,0,7.486,3.36,7.486,7.493
		c0,4.135-3.353,7.485-7.486,7.485c-4.135,0-7.493-3.35-7.493-7.485C534.286,245.458,537.645,242.098,541.779,242.098
		 M565.296,242.098c4.124,0,7.492,3.36,7.492,7.493c0,4.135-3.368,7.485-7.492,7.485c-4.145,0-7.495-3.35-7.495-7.485
		C557.801,245.458,561.161,242.098,565.296,242.098z M518.255,242.098c4.136,0,7.485,3.36,7.485,7.493
		c0,4.135-3.35,7.485-7.485,7.485c-4.133,0-7.485-3.35-7.485-7.485C510.77,245.458,514.122,242.098,518.255,242.098z"/> -->
	<rect x="224.702" y="301.823" fill-rule="evenodd" clip-rule="evenodd" fill="#364A5E" width="342.385" height="119.376"/>
	<rect x="230.591" y="307.701" fill="#F19C1F" width="330.611" height="107.622"/>
	<path fill-rule="evenodd" clip-rule="evenodd" fill="#BCC2C6" d="M228.637,434.953h334.517c2.166,0,3.934,1.769,3.934,3.928
		c0,2.168-1.768,3.935-3.934,3.935H228.637c-2.167,0-3.935-1.767-3.935-3.935C224.702,436.722,226.47,434.953,228.637,434.953"/>
	<path fill-rule="evenodd" clip-rule="evenodd" fill="#BCC2C6" d="M228.637,454.72H391.97c2.159,0,3.916,1.765,3.916,3.923
		c0,2.17-1.757,3.938-3.916,3.938H228.637c-2.167,0-3.935-1.769-3.935-3.938C224.702,456.484,226.47,454.72,228.637,454.72"/>
	<rect x="224.771" y="485.311" fill-rule="evenodd" clip-rule="evenodd" fill="#364A5E" width="54.674" height="54.669"/>
	<rect x="230.771" y="491.295" fill-rule="evenodd" clip-rule="evenodd" fill="#F19C1F" width="42.681" height="42.684"/>
	<rect x="320.63" y="485.311" fill-rule="evenodd" clip-rule="evenodd" fill="#364A5E" width="54.667" height="54.669"/>
	<rect x="326.625" y="491.295" fill-rule="evenodd" clip-rule="evenodd" fill="#F19C1F" width="42.679" height="42.684"/>
	<rect x="416.492" y="485.311" fill-rule="evenodd" clip-rule="evenodd" fill="#364A5E" width="54.667" height="54.669"/>
	<rect x="422.487" y="491.295" fill-rule="evenodd" clip-rule="evenodd" fill="#F19C1F" width="42.678" height="42.684"/>
	<rect x="512.348" y="485.311" fill-rule="evenodd" clip-rule="evenodd" fill="#364A5E" width="54.672" height="54.669"/>
	<rect x="518.338" y="491.295" fill-rule="evenodd" clip-rule="evenodd" fill="#F19C1F" width="42.682" height="42.684"/>
	<polygon fill="#D38528" points="395.896,338.401 408.175,345.504 420.462,352.587 420.462,366.776 420.462,380.955
		408.175,388.047 395.896,395.135 383.615,388.047 371.329,380.955 371.329,366.776 371.329,352.587 383.615,345.504 	"/>
	<polygon fill="#364A5E" points="395.896,332.399 408.175,339.492 420.462,346.585 420.462,360.765 420.462,374.943
		408.175,382.039 395.896,389.132 383.615,382.039 371.329,374.943 371.329,360.765 371.329,346.585 383.615,339.492 	"/>
	<path fill-rule="evenodd" clip-rule="evenodd" fill="#F6F5BB" d="M393.436,382.046l-7.367-4.252l-9.838-5.685v-11.345v-8.825
		l17.205,9.934V382.046z M415.559,351.939v8.825v11.345l-9.835,5.685l-7.369,4.252v-20.173L415.559,351.939z M395.896,338.067
		l9.828,5.677l7.102,4.102l-16.93,9.776l-16.932-9.776l7.104-4.102L395.896,338.067z"/>
	<path fill-rule="evenodd" clip-rule="evenodd" fill="#BCC2C6" d="M228.704,556.27h46.814c2.158,0,3.926,1.766,3.926,3.934
		c0,2.15-1.768,3.92-3.926,3.92h-46.814c-2.169,0-3.934-1.77-3.934-3.92C224.771,558.035,226.535,556.27,228.704,556.27"/>
	<path fill-rule="evenodd" clip-rule="evenodd" fill="#BCC2C6" d="M324.565,556.27h46.805c2.16,0,3.927,1.766,3.927,3.934
		c0,2.15-1.767,3.92-3.927,3.92h-46.805c-2.166,0-3.936-1.77-3.936-3.92C320.63,558.035,322.399,556.27,324.565,556.27"/>
	<path fill-rule="evenodd" clip-rule="evenodd" fill="#BCC2C6" d="M420.419,556.27h46.806c2.165,0,3.935,1.766,3.935,3.934
		c0,2.15-1.77,3.92-3.935,3.92h-46.806c-2.16,0-3.935-1.77-3.935-3.92C416.484,558.035,418.259,556.27,420.419,556.27"/>
	<path fill-rule="evenodd" clip-rule="evenodd" fill="#BCC2C6" d="M516.272,556.27h46.813c2.159,0,3.935,1.766,3.935,3.934
		c0,2.15-1.775,3.92-3.935,3.92h-46.813c-2.17,0-3.934-1.77-3.934-3.92C512.339,558.035,514.103,556.27,516.272,556.27"/>
	<!-- <path fill-rule="evenodd" clip-rule="evenodd" fill="#94A4A5" d="M459.205,244.906c-1.075-2.174-3.351-2.801-5.552-2.801
		c-2.603,0.017-5.468,1.21-5.468,4.118c0,3.168,2.666,3.935,5.552,4.268c1.866,0.209,3.267,0.75,3.267,2.084
		c0,1.534-1.573,2.118-3.249,2.118c-1.719,0-3.352-0.683-3.971-2.243l-2.217,1.15c1.043,2.584,3.26,3.475,6.145,3.475
		c3.145,0,5.928-1.357,5.928-4.5c0-3.367-2.734-4.135-5.686-4.501c-1.692-0.199-3.15-0.541-3.15-1.767
		c0-1.049,0.949-1.884,2.934-1.884c1.534,0,2.858,0.767,3.351,1.575L459.205,244.906z M437.065,256.71h2.668v-11.72h4.476v-2.418
		c-4.094,0-7.543,0-11.619,0v2.418h4.476V256.71z M427.763,253.093c-0.935,0.933-2.317,1.434-3.551,1.434
		c-3.485,0-4.835-2.435-4.859-4.777c-0.018-2.359,1.458-4.9,4.859-4.9c1.233,0,2.481,0.424,3.419,1.333l1.767-1.716
		c-1.45-1.434-3.269-2.16-5.186-2.16c-5.101,0-7.502,3.752-7.485,7.443c0.023,3.676,2.248,7.278,7.485,7.278
		c2.041,0,3.918-0.667,5.368-2.093L427.763,253.093z M409.34,242.605v8.095c0,2.418-1.25,3.893-3.449,3.893
		c-2.192,0-3.651-1.351-3.651-3.893v-8.095h-2.635v8.095c0,4.259,2.884,6.311,6.269,6.311c3.551,0,6.118-2.134,6.118-6.311v-8.095
		H409.34z M385.333,245.09h2.902c3.067,0,4.357,2.2,4.418,4.409c0.063,2.31-1.21,4.644-4.418,4.644h-2.902V245.09z M388.235,242.573
		c-1.736,0-3.803,0-5.537,0v14.138c1.734,0,3.801,0,5.537,0c4.95,0,7.118-3.618,7.068-7.194
		C395.237,246.024,393.079,242.573,388.235,242.573z M371.13,244.723c3.325,0,4.66,2.667,4.617,5.051
		c-0.034,2.317-1.292,4.819-4.617,4.819c-3.334,0-4.576-2.484-4.636-4.801C366.428,247.408,367.796,244.723,371.13,244.723z
		 M371.13,242.306c-4.886,0-7.262,3.734-7.262,7.443c0,3.709,2.302,7.278,7.262,7.278c4.959,0,7.201-3.651,7.236-7.302
		C378.414,246.041,375.99,242.306,371.13,242.306z M355.075,245.049c1.667,0,2.417,1.133,2.417,2.275
		c0,1.133-0.734,2.267-2.417,2.267h-4.061v-4.542H355.075z M360.86,256.526l-4.276-4.817c2.675-0.55,3.567-2.5,3.567-4.452
		c0-2.451-1.76-4.669-5.076-4.685c-2.244,0.016-4.485,0-6.721,0v14.138h2.66v-4.718h2.561l4.118,4.718h3.167V256.526z
		 M338.804,242.573c-2.218-0.025-4.435,0-6.652,0v14.138h2.659v-4.152h3.993C345.724,252.559,345.703,242.573,338.804,242.573z
		 M334.811,245.107h3.993c3.393,0,3.409,5.001,0,5.001h-3.993V245.107z"/> -->
</g>
</svg>
