<?xml version="1.0" encoding="utf-8"?>
<!-- Generator: Adobe Illustrator 15.1.0, SVG Export Plug-In . SVG Version: 6.00 Build 0)  -->
<!DOCTYPE svg PUBLIC "-//W3C//DTD SVG 1.0//EN" "http://www.w3.org/TR/2001/REC-SVG-20010904/DTD/svg10.dtd">
<svg version="1.0" id="Layer_1" xmlns="http://www.w3.org/2000/svg" xmlns:xlink="http://www.w3.org/1999/xlink" x="0px" y="0px"
	 width="800px" height="800px" viewBox="194.3979949951172 222.13299560546875 421.0159912109375 377.9329833984375" enable-background="new 0 0 800 800" xml:space="preserve">
<g>
	<!-- <path fill="#BCC2C6" d="M210.604,222.133H599.2c4.468,0,8.52,1.826,11.455,4.751v0.025c2.935,2.935,4.759,6.977,4.759,11.428
		v345.521c0,4.452-1.824,8.487-4.759,11.42v0.018c-2.936,2.95-6.987,4.769-11.455,4.769H210.604c-4.468,0-8.52-1.818-11.453-4.769
		v-0.018c-2.935-2.933-4.753-6.968-4.753-11.42V238.338c0-4.452,1.818-8.494,4.753-11.428v-0.025
		C202.084,223.959,206.136,222.133,210.604,222.133"/>
	<path fill="#EBEFF0" d="M609.536,238.338v345.521c0,6.504-4.533,10.321-10.336,10.321H210.604c-5.783,0-10.325-3.719-10.325-10.321
		V238.338c0-6.735,4.557-10.319,10.325-10.319H599.2C604.983,228.019,609.536,231.719,609.536,238.338"/> -->
	<path fill="#BCC2C6" d="M208.469,269.597h392.873c3.878,0,7.396,1.584,9.947,4.134c2.54,2.543,4.125,6.07,4.125,9.936v302.327
		c0,3.866-1.585,7.402-4.125,9.938c-2.552,2.551-6.069,4.134-9.947,4.134H208.469c-3.874,0-7.394-1.583-9.942-4.134
		c-2.544-2.535-4.129-6.071-4.129-9.938V283.667c0-3.866,1.585-7.393,4.129-9.936C201.075,271.181,204.595,269.597,208.469,269.597"
		/>
	<path fill-rule="evenodd" clip-rule="evenodd" fill="#FFFFFF" d="M208.469,275.482c-2.183,0-4.251,0.867-5.784,2.402
		c-1.542,1.541-2.406,3.617-2.406,5.784v302.327c0,2.168,0.864,4.252,2.406,5.785c1.533,1.535,3.602,2.401,5.784,2.401h392.873
		c2.175,0,4.245-0.866,5.778-2.401c1.542-1.533,2.416-3.603,2.416-5.785V283.667c0-2.183-0.874-4.243-2.416-5.784
		c-1.533-1.535-3.604-2.402-5.778-2.402H208.469z"/>
	<!-- <path fill-rule="evenodd" clip-rule="evenodd" fill="#94A4A5" d="M550.788,242.098c4.134,0,7.484,3.36,7.484,7.493
		c0,4.135-3.351,7.485-7.484,7.485c-4.135,0-7.486-3.35-7.486-7.485C543.302,245.458,546.653,242.098,550.788,242.098
		 M574.302,242.098c4.136,0,7.495,3.36,7.495,7.493c0,4.135-3.359,7.485-7.495,7.485c-4.143,0-7.495-3.35-7.495-7.485
		C566.807,245.458,570.167,242.098,574.302,242.098z M527.265,242.098c4.131,0,7.485,3.36,7.485,7.493
		c0,4.135-3.354,7.485-7.485,7.485c-4.136,0-7.486-3.35-7.486-7.485C519.778,245.458,523.129,242.098,527.265,242.098z"/> -->
	<rect x="242.629" y="301.073" fill-rule="evenodd" clip-rule="evenodd" fill="#364A5E" width="139.974" height="119.384"/>
	<rect x="248.518" y="306.958" fill="#F19C1F" width="128.202" height="107.615"/>
	<path fill-rule="evenodd" clip-rule="evenodd" fill="#BCC2C6" d="M246.563,462.338h132.105c2.169,0,3.934,1.768,3.934,3.935
		c0,2.168-1.765,3.935-3.934,3.935H246.563c-2.166,0-3.935-1.767-3.935-3.935C242.629,464.105,244.397,462.338,246.563,462.338"/>
	<path fill-rule="evenodd" clip-rule="evenodd" fill="#BCC2C6" d="M246.563,482.102h132.105c2.169,0,3.934,1.766,3.934,3.925
		c0,2.167-1.765,3.937-3.934,3.937H246.563c-2.166,0-3.935-1.77-3.935-3.937C242.629,483.867,244.397,482.102,246.563,482.102"/>
	<path fill-rule="evenodd" clip-rule="evenodd" fill="#BCC2C6" d="M246.563,501.866h62.12c2.166,0,3.933,1.767,3.933,3.925l0,0
		c0,2.159-1.767,3.926-3.933,3.926h-62.12c-2.166,0-3.935-1.767-3.935-3.926l0,0C242.629,503.633,244.397,501.866,246.563,501.866"
		/>
	<path fill-rule="evenodd" clip-rule="evenodd" fill="#BCC2C6" d="M246.563,442.582h132.105c2.169,0,3.934,1.767,3.934,3.926
		c0,2.168-1.765,3.934-3.934,3.934H246.563c-2.166,0-3.935-1.766-3.935-3.934C242.629,444.349,244.397,442.582,246.563,442.582"/>
	<path fill="#BCC2C6" d="M343.626,540.43h-58.824c-2.258,0-4.318,0.92-5.812,2.418c-1.491,1.5-2.417,3.553-2.417,5.817
		c0,2.27,0.916,4.318,2.4,5.804l0.017,0.017c1.483,1.484,3.535,2.4,5.812,2.4h58.824c2.269,0,4.326-0.916,5.818-2.417
		c1.494-1.485,2.417-3.551,2.417-5.804c0-2.265-0.917-4.334-2.41-5.817C347.962,541.35,345.895,540.43,343.626,540.43
		 M284.802,532.362h58.824c4.485,0,8.553,1.833,11.502,4.784l0.019,0.016c2.951,2.951,4.786,7.021,4.786,11.503
		c0,4.486-1.835,8.554-4.786,11.505c-2.952,2.952-7.028,4.786-11.521,4.786h-58.824c-4.461,0-8.538-1.834-11.496-4.786h-0.009
		l-0.01-0.018c-2.947-2.95-4.782-7.018-4.782-11.487c0-4.482,1.835-8.57,4.782-11.519
		C276.241,534.195,280.316,532.362,284.802,532.362z"/>
	<path fill="#364A5E" d="M281.608,525.71h58.834c4.466,0,8.535,1.833,11.487,4.786l0.015,0.014
		c2.953,2.951,4.786,7.021,4.786,11.487c0,4.485-1.833,8.569-4.786,11.521c-2.949,2.951-7.025,4.786-11.502,4.786h-58.834
		c-4.468,0-8.544-1.835-11.504-4.786v-0.017h-0.018c-2.949-2.969-4.774-7.034-4.774-11.504c0-4.485,1.825-8.552,4.774-11.501
		C273.04,527.543,277.124,525.71,281.608,525.71"/>
	<path fill="#43C0B9" d="M340.442,530.562c3.033,0,5.934,1.201,8.086,3.351c2.148,2.151,3.35,5.052,3.35,8.085
		c0,3.035-1.216,5.936-3.358,8.087c-2.144,2.15-5.044,3.367-8.077,3.367h-58.834c-3.043,0-5.944-1.2-8.086-3.35l-0.016-0.018
		c-2.152-2.151-3.353-5.052-3.353-8.087c0-3.033,1.218-5.934,3.368-8.085c2.142-2.149,5.033-3.351,8.086-3.351H340.442z"/>
	<path fill="#7CCED2" d="M340.442,530.562c3.033,0,5.934,1.201,8.086,3.351c2.148,2.151,3.35,5.052,3.35,8.085
		c0,0.784-0.082,1.552-0.233,2.303c-0.449-2.17-1.525-4.187-3.116-5.788c-2.152-2.148-5.053-3.349-8.086-3.349h-58.834
		c-3.053,0-5.944,1.217-8.086,3.367c-1.6,1.599-2.685,3.6-3.135,5.783c-0.149-0.765-0.233-1.532-0.233-2.316
		c0-3.033,1.218-5.934,3.368-8.085c2.142-2.149,5.033-3.351,8.086-3.351H340.442z"/>
	<rect x="427.2" y="301.073" fill-rule="evenodd" clip-rule="evenodd" fill="#364A5E" width="139.975" height="119.384"/>
	<rect x="433.086" y="306.958" fill="#F19C1F" width="128.204" height="107.615"/>
	<path fill-rule="evenodd" clip-rule="evenodd" fill="#BCC2C6" d="M431.136,462.338h132.104c2.169,0,3.936,1.768,3.936,3.935
		c0,2.168-1.767,3.935-3.936,3.935H431.136c-2.168,0-3.936-1.767-3.936-3.935C427.2,464.105,428.968,462.338,431.136,462.338"/>
	<path fill-rule="evenodd" clip-rule="evenodd" fill="#BCC2C6" d="M431.136,482.102h132.104c2.169,0,3.936,1.766,3.936,3.925
		c0,2.167-1.767,3.937-3.936,3.937H431.136c-2.168,0-3.936-1.77-3.936-3.937C427.2,483.867,428.968,482.102,431.136,482.102"/>
	<path fill-rule="evenodd" clip-rule="evenodd" fill="#BCC2C6" d="M431.136,501.866h62.118c2.167,0,3.934,1.767,3.934,3.925l0,0
		c0,2.159-1.767,3.926-3.934,3.926h-62.118c-2.159,0-3.936-1.767-3.936-3.926l0,0C427.2,503.633,428.977,501.866,431.136,501.866"/>
	<path fill-rule="evenodd" clip-rule="evenodd" fill="#BCC2C6" d="M431.136,442.582h132.104c2.169,0,3.936,1.767,3.936,3.926
		c0,2.168-1.767,3.934-3.936,3.934H431.136c-2.168,0-3.936-1.766-3.936-3.934C427.2,444.349,428.968,442.582,431.136,442.582"/>
	<path fill="#BCC2C6" d="M528.208,540.43H469.37c-2.259,0-4.317,0.92-5.808,2.418c-1.501,1.5-2.419,3.553-2.419,5.817
		c0,2.27,0.918,4.318,2.4,5.804l0.019,0.017c1.482,1.484,3.542,2.4,5.808,2.4h58.838c2.258,0,4.317-0.916,5.806-2.417
		c1.495-1.485,2.42-3.551,2.42-5.804c0-2.265-0.919-4.334-2.41-5.817C532.532,541.35,530.466,540.43,528.208,540.43 M469.37,532.362
		h58.838c4.475,0,8.542,1.833,11.492,4.784l0.017,0.016c2.953,2.951,4.783,7.021,4.783,11.503c0,4.486-1.83,8.554-4.783,11.505
		c-2.949,2.952-7.026,4.786-11.509,4.786H469.37c-4.468,0-8.535-1.834-11.493-4.786h-0.008l-0.01-0.018
		c-2.952-2.95-4.782-7.018-4.782-11.487c0-4.482,1.83-8.57,4.782-11.519C460.811,534.195,464.888,532.362,469.37,532.362z"/>
	<path fill="#364A5E" d="M466.179,525.71h58.826c4.477,0,8.544,1.833,11.495,4.786l0.017,0.014
		c2.951,2.951,4.783,7.021,4.783,11.487c0,4.485-1.832,8.569-4.783,11.521s-7.027,4.786-11.512,4.786h-58.826
		c-4.468,0-8.543-1.835-11.505-4.786v-0.017h-0.014c-2.952-2.969-4.786-7.034-4.786-11.504c0-4.485,1.834-8.552,4.786-11.501
		C457.61,527.543,461.687,525.71,466.179,525.71"/>
	<path fill="#43C0B9" d="M525.005,530.562c3.043,0,5.942,1.201,8.094,3.351c2.15,2.151,3.351,5.052,3.351,8.085
		c0,3.035-1.217,5.936-3.36,8.087c-2.146,2.15-5.041,3.367-8.084,3.367h-58.826c-3.041,0-5.943-1.2-8.084-3.35l-0.019-0.018
		c-2.149-2.151-3.353-5.052-3.353-8.087c0-3.033,1.219-5.934,3.371-8.085c2.141-2.149,5.033-3.351,8.084-3.351H525.005z"/>
	<path fill="#7CCED2" d="M525.005,530.562c3.043,0,5.942,1.201,8.094,3.351c2.15,2.151,3.351,5.052,3.351,8.085
		c0,0.784-0.082,1.552-0.232,2.303c-0.451-2.17-1.524-4.187-3.118-5.788c-2.151-2.148-5.051-3.349-8.094-3.349h-58.826
		c-3.051,0-5.943,1.217-8.084,3.367c-1.602,1.599-2.686,3.6-3.136,5.783c-0.149-0.765-0.235-1.532-0.235-2.316
		c0-3.033,1.219-5.934,3.371-8.085c2.141-2.149,5.033-3.351,8.084-3.351H525.005z"/>
	<polygon fill="#D38528" points="312.616,338.401 324.904,345.504 337.183,352.587 337.183,366.776 337.183,380.955
		324.904,388.047 312.616,395.135 300.33,388.047 288.052,380.955 288.052,366.776 288.052,352.587 300.33,345.504 	"/>
	<polygon fill="#364A5E" points="312.616,332.399 324.904,339.492 337.183,346.585 337.183,360.765 337.183,374.943
		324.904,382.039 312.616,389.132 300.33,382.039 288.052,374.943 288.052,360.765 288.052,346.585 300.33,339.492 	"/>
	<path fill-rule="evenodd" clip-rule="evenodd" fill="#F6F5BB" d="M310.166,382.046l-7.378-4.252l-9.826-5.685v-11.345v-8.825
		l17.204,9.934V382.046z M332.272,351.939v8.825v11.345l-9.829,5.685l-7.375,4.252v-20.173L332.272,351.939z M312.616,338.067
		l9.827,5.677l7.112,4.102l-16.939,9.776l-16.927-9.776l7.099-4.102L312.616,338.067z"/>
	<polygon fill="#D38528" points="497.188,338.401 509.477,345.504 521.755,352.587 521.755,366.776 521.755,380.955
		509.477,388.047 497.188,395.135 484.9,388.047 472.631,380.955 472.631,366.776 472.631,352.587 484.9,345.504 	"/>
	<polygon fill="#364A5E" points="497.188,332.399 509.477,339.492 521.755,346.585 521.755,360.765 521.755,374.943
		509.477,382.039 497.188,389.132 484.9,382.039 472.631,374.943 472.631,360.765 472.631,346.585 484.9,339.492 	"/>
	<path fill-rule="evenodd" clip-rule="evenodd" fill="#F6F5BB" d="M494.737,382.046l-7.379-4.252l-9.826-5.685v-11.345v-8.825
		l17.205,9.934V382.046z M516.845,351.939v8.825v11.345l-9.82,5.685l-7.389,4.252v-20.173L516.845,351.939z M497.188,338.067
		l9.837,5.677l7.101,4.102l-16.938,9.776l-16.938-9.776l7.108-4.102L497.188,338.067z"/>
	<!-- <path fill-rule="evenodd" clip-rule="evenodd" fill="#94A4A5" d="M468.214,244.906c-1.075-2.174-3.354-2.801-5.551-2.801
		c-2.603,0.017-5.468,1.21-5.468,4.118c0,3.168,2.666,3.935,5.551,4.268c1.867,0.209,3.265,0.75,3.265,2.084
		c0,1.534-1.573,2.118-3.251,2.118c-1.717,0-3.35-0.683-3.967-2.243l-2.225,1.15c1.05,2.584,3.275,3.475,6.158,3.475
		c3.146,0,5.921-1.357,5.921-4.5c0-3.367-2.735-4.135-5.688-4.501c-1.69-0.199-3.141-0.541-3.141-1.767
		c0-1.049,0.944-1.884,2.928-1.884c1.533,0,2.864,0.767,3.349,1.575L468.214,244.906z M446.073,256.71h2.667v-11.72h4.476v-2.418
		c-4.091,0-7.542,0-11.611,0v2.418h4.469V256.71z M436.77,253.093c-0.925,0.933-2.316,1.434-3.551,1.434
		c-3.485,0-4.834-2.435-4.85-4.777c-0.026-2.359,1.449-4.9,4.85-4.9c1.234,0,2.484,0.424,3.409,1.333l1.775-1.716
		c-1.449-1.434-3.267-2.16-5.185-2.16c-5.101,0-7.501,3.752-7.485,7.443c0.033,3.676,2.242,7.278,7.485,7.278
		c2.043,0,3.918-0.667,5.369-2.093L436.77,253.093z M418.35,242.605v8.095c0,2.418-1.253,3.893-3.451,3.893
		c-2.195,0-3.642-1.351-3.642-3.893v-8.095h-2.646v8.095c0,4.259,2.885,6.311,6.269,6.311c3.552,0,6.119-2.134,6.119-6.311v-8.095
		H418.35z M394.343,245.09h2.906c3.062,0,4.353,2.2,4.412,4.409c0.064,2.31-1.201,4.644-4.412,4.644h-2.906V245.09z
		 M397.249,242.573c-1.742,0-3.809,0-5.542,0v14.138c1.733,0,3.8,0,5.542,0c4.944,0,7.119-3.618,7.062-7.194
		C404.245,246.024,402.084,242.573,397.249,242.573z M380.137,244.723c3.334,0,4.661,2.667,4.617,5.051
		c-0.031,2.317-1.283,4.819-4.617,4.819c-3.325,0-4.575-2.484-4.634-4.801C375.435,247.408,376.812,244.723,380.137,244.723z
		 M380.137,242.306c-4.884,0-7.26,3.734-7.26,7.443c0,3.709,2.302,7.278,7.26,7.278c4.968,0,7.203-3.651,7.245-7.302
		C387.422,246.041,384.997,242.306,380.137,242.306z M364.085,245.049c1.665,0,2.416,1.133,2.416,2.275
		c0,1.133-0.736,2.267-2.416,2.267h-4.062v-4.542H364.085z M369.868,256.526l-4.277-4.817c2.685-0.55,3.569-2.5,3.569-4.452
		c0-2.451-1.761-4.669-5.075-4.685c-2.245,0.016-4.486,0-6.721,0v14.138h2.659v-4.718h2.56l4.117,4.718h3.168V256.526z
		 M347.812,242.573c-2.218-0.025-4.435,0-6.652,0v14.138h2.666v-4.152h3.986C354.729,252.559,354.713,242.573,347.812,242.573z
		 M343.825,245.107h3.986c3.393,0,3.408,5.001,0,5.001h-3.986V245.107z"/> -->
</g>
</svg>
