<?xml version="1.0" encoding="utf-8"?>
<!-- Generator: Adobe Illustrator 15.1.0, SVG Export Plug-In . SVG Version: 6.00 Build 0)  -->
<!DOCTYPE svg PUBLIC "-//W3C//DTD SVG 1.0//EN" "http://www.w3.org/TR/2001/REC-SVG-20010904/DTD/svg10.dtd">
<svg version="1.0" id="Layer_1" xmlns="http://www.w3.org/2000/svg" xmlns:xlink="http://www.w3.org/1999/xlink" x="0px" y="0px"
	 width="800px" height="800px" viewBox="182.50900268554688 222.13299560546875 421.0260314941406 377.9329833984375" enable-background="new 0 0 800 800" xml:space="preserve">
<g>
	<!-- <path fill="#BCC2C6" d="M198.725,222.133h388.606c4.448,0,8.511,1.826,11.442,4.751v0.025c2.935,2.935,4.761,6.977,4.761,11.428
		v345.521c0,4.452-1.826,8.487-4.761,11.42v0.018c-2.932,2.95-6.994,4.769-11.442,4.769H198.725c-4.463,0-8.52-1.818-11.445-4.769
		v-0.018c-2.934-2.933-4.77-6.968-4.77-11.42V238.338c0-4.452,1.836-8.494,4.77-11.428v-0.025
		C190.205,223.959,194.262,222.133,198.725,222.133"/>
	<path fill="#EBEFF0" d="M597.648,238.338v345.521c0,6.504-4.535,10.321-10.317,10.321H198.725c-5.785,0-10.329-3.719-10.329-10.321
		V238.338c0-6.735,4.569-10.319,10.329-10.319h388.606C593.113,228.019,597.648,231.719,597.648,238.338"/> -->
	<path fill="#BCC2C6" d="M196.582,269.597h392.882c3.875,0,7.395,1.584,9.934,4.134c2.552,2.543,4.137,6.07,4.137,9.936v302.327
		c0,3.866-1.585,7.402-4.137,9.938c-2.539,2.551-6.059,4.134-9.934,4.134H196.582c-3.869,0-7.388-1.583-9.937-4.134
		c-2.551-2.535-4.136-6.071-4.136-9.938V283.667c0-3.866,1.585-7.393,4.136-9.936C189.194,271.181,192.713,269.597,196.582,269.597"
		/>
	<path fill-rule="evenodd" clip-rule="evenodd" fill="#FFFFFF" d="M196.582,275.482c-2.177,0-4.234,0.867-5.776,2.402
		c-1.543,1.541-2.41,3.617-2.41,5.784v302.327c0,2.168,0.867,4.252,2.41,5.785c1.542,1.535,3.6,2.401,5.776,2.401h392.882
		c2.184,0,4.243-0.866,5.785-2.401c1.532-1.533,2.399-3.603,2.399-5.785V283.667c0-2.183-0.867-4.243-2.399-5.784
		c-1.542-1.535-3.618-2.402-5.785-2.402H196.582z"/>
	<!-- <path fill-rule="evenodd" clip-rule="evenodd" fill="#94A4A5" d="M538.899,242.098c4.134,0,7.491,3.36,7.491,7.493
		c0,4.135-3.357,7.485-7.491,7.485c-4.135,0-7.488-3.35-7.488-7.485C531.411,245.458,534.765,242.098,538.899,242.098
		 M562.422,242.098c4.135,0,7.484,3.36,7.484,7.493c0,4.135-3.35,7.485-7.484,7.485c-4.134,0-7.486-3.35-7.486-7.485
		C554.936,245.458,558.288,242.098,562.422,242.098z M515.382,242.098c4.137,0,7.494,3.36,7.494,7.493
		c0,4.135-3.357,7.485-7.494,7.485c-4.134,0-7.493-3.35-7.493-7.485C507.889,245.458,511.257,242.098,515.382,242.098z"/> -->
	<polygon fill="#364A5E" points="227.923,307.226 323.319,307.226 327.543,307.226 327.543,311.451 327.543,406.845
		327.543,411.073 323.319,411.073 227.923,411.073 223.688,411.073 223.688,406.845 223.688,311.451 223.688,307.226 	"/>
	<rect x="228.866" y="312.394" fill="#F19C1F" width="93.503" height="93.51"/>
	<polygon fill="#D38528" points="275.622,337.042 287.909,344.136 300.178,351.22 300.178,365.41 300.178,379.596 287.909,386.682
		275.622,393.767 263.334,386.682 251.054,379.596 251.054,365.41 251.054,351.22 263.334,344.136 	"/>
	<path fill-rule="evenodd" clip-rule="evenodd" fill="#BCC2C6" d="M367.782,307.226H558.42c2.17,0,3.925,1.766,3.925,3.933l0,0
		c0,2.158-1.755,3.926-3.925,3.926H367.782c-2.167,0-3.936-1.768-3.936-3.926l0,0C363.847,308.992,365.615,307.226,367.782,307.226"
		/>
	<path fill-rule="evenodd" clip-rule="evenodd" fill="#BCC2C6" d="M367.782,326.981H558.42c2.17,0,3.925,1.768,3.925,3.935l0,0
		c0,2.167-1.755,3.935-3.925,3.935H367.782c-2.167,0-3.936-1.769-3.936-3.935l0,0C363.847,328.749,365.615,326.981,367.782,326.981"
		/>
	<path fill-rule="evenodd" clip-rule="evenodd" fill="#BCC2C6" d="M367.782,346.744h91.392c2.159,0,3.919,1.77,3.919,3.928
		c0,2.167-1.76,3.933-3.919,3.933h-91.392c-2.167,0-3.936-1.766-3.936-3.933C363.847,348.514,365.615,346.744,367.782,346.744"/>
	<path fill="#BCC2C6" d="M442.18,386.265h-58.833c-2.264,0-4.32,0.926-5.811,2.417c-1.501,1.494-2.419,3.55-2.419,5.811
		c0,2.274,0.918,4.326,2.398,5.81l0.021,0.017c1.48,1.485,3.533,2.408,5.811,2.408h58.833c2.257,0,4.315-0.923,5.808-2.424
		c1.493-1.49,2.417-3.551,2.417-5.81c0-2.261-0.917-4.327-2.407-5.818C446.505,387.18,444.437,386.265,442.18,386.265
		 M383.347,378.196h58.833c4.476,0,8.542,1.833,11.493,4.785l0.018,0.016c2.949,2.951,4.785,7.021,4.785,11.496
		c0,4.485-1.836,8.56-4.785,11.512c-2.95,2.949-7.028,4.782-11.511,4.782h-58.833c-4.471,0-8.538-1.833-11.497-4.782l-0.008-0.01
		l-0.009-0.007c-2.952-2.952-4.785-7.029-4.785-11.496c0-4.485,1.833-8.562,4.785-11.512
		C374.782,380.029,378.853,378.196,383.347,378.196z"/>
	<path fill="#364A5E" d="M380.143,371.544h58.834c4.477,0,8.547,1.833,11.496,4.784l0.017,0.009
		c2.95,2.958,4.784,7.027,4.784,11.494c0,4.487-1.834,8.562-4.784,11.52c-2.952,2.95-7.028,4.776-11.513,4.776h-58.834
		c-4.459,0-8.535-1.826-11.496-4.776v-0.016h-0.014c-2.951-2.967-4.786-7.036-4.786-11.504c0-4.483,1.835-8.553,4.786-11.503
		C371.583,373.377,375.658,371.544,380.143,371.544"/>
	<path fill="#43C0B9" d="M438.977,376.386c3.043,0,5.943,1.208,8.095,3.361c2.15,2.15,3.351,5.052,3.351,8.084
		c0,3.042-1.217,5.936-3.36,8.086c-2.148,2.15-5.042,3.368-8.085,3.368h-58.834c-3.032,0-5.934-1.2-8.075-3.353l-0.019-0.016
		c-2.15-2.151-3.35-5.053-3.35-8.086c0-3.033,1.215-5.934,3.368-8.084c2.142-2.143,5.034-3.361,8.075-3.361H438.977z"/>
	<path fill="#7CCED2" d="M438.977,376.386c3.043,0,5.943,1.208,8.095,3.361c2.15,2.15,3.351,5.052,3.351,8.084
		c0,0.785-0.083,1.551-0.234,2.3c-0.448-2.167-1.522-4.185-3.116-5.784c-2.151-2.143-5.052-3.352-8.095-3.352h-58.834
		c-3.041,0-5.934,1.219-8.075,3.368c-1.603,1.591-2.685,3.601-3.137,5.785c-0.148-0.759-0.231-1.533-0.231-2.318
		c0-3.033,1.215-5.934,3.368-8.084c2.142-2.143,5.034-3.361,8.075-3.361H438.977z"/>
	<polygon fill="#364A5E" points="227.923,458.585 323.319,458.585 327.543,458.585 327.543,462.82 327.543,558.221 327.543,562.438
		323.319,562.438 227.923,562.438 223.688,562.438 223.688,558.221 223.688,462.82 223.688,458.585 	"/>
	<rect x="228.866" y="463.763" fill="#F19C1F" width="93.503" height="93.508"/>
	<path fill-rule="evenodd" clip-rule="evenodd" fill="#BCC2C6" d="M367.782,458.585H558.42c2.17,0,3.925,1.767,3.925,3.935l0,0
		c0,2.167-1.755,3.937-3.925,3.937H367.782c-2.167,0-3.936-1.77-3.936-3.937l0,0C363.847,460.352,365.615,458.585,367.782,458.585"
		/>
	<path fill-rule="evenodd" clip-rule="evenodd" fill="#BCC2C6" d="M367.782,478.35H558.42c2.17,0,3.925,1.769,3.925,3.927
		c0,2.167-1.755,3.934-3.925,3.934H367.782c-2.167,0-3.936-1.767-3.936-3.934C363.847,480.118,365.615,478.35,367.782,478.35"/>
	<path fill-rule="evenodd" clip-rule="evenodd" fill="#BCC2C6" d="M367.782,498.113h91.392c2.159,0,3.919,1.77,3.919,3.928
		c0,2.167-1.76,3.933-3.919,3.933h-91.392c-2.167,0-3.936-1.766-3.936-3.933C363.847,499.883,365.615,498.113,367.782,498.113"/>
	<path fill="#BCC2C6" d="M442.18,537.631h-58.833c-2.264,0-4.32,0.935-5.811,2.416c-1.501,1.502-2.419,3.551-2.419,5.819
		c0,2.266,0.918,4.317,2.398,5.802l0.021,0.017c1.48,1.482,3.533,2.418,5.811,2.418h58.833c2.257,0,4.315-0.936,5.808-2.435
		c1.493-1.484,2.417-3.552,2.417-5.802c0-2.269-0.917-4.335-2.407-5.819C446.505,538.547,444.437,537.631,442.18,537.631
		 M383.347,529.561h58.833c4.476,0,8.542,1.834,11.493,4.786l0.018,0.015c2.949,2.951,4.785,7.02,4.785,11.505
		c0,4.484-1.836,8.552-4.785,11.503c-2.95,2.952-7.028,4.785-11.511,4.785h-58.833c-4.471,0-8.538-1.833-11.497-4.785h-0.008
		l-0.009-0.016c-2.952-2.952-4.785-7.021-4.785-11.487c0-4.485,1.833-8.569,4.785-11.52
		C374.782,531.395,378.853,529.561,383.347,529.561z"/>
	<path fill="#364A5E" d="M380.143,522.908h58.834c4.477,0,8.547,1.834,11.496,4.786l0.017,0.018
		c2.95,2.948,4.784,7.017,4.784,11.485c0,4.482-1.834,8.569-4.784,11.52c-2.952,2.952-7.028,4.784-11.513,4.784h-58.834
		c-4.459,0-8.535-1.832-11.496-4.784v-0.016h-0.014c-2.951-2.968-4.786-7.035-4.786-11.504c0-4.485,1.835-8.553,4.786-11.503
		C371.583,524.742,375.658,522.908,380.143,522.908"/>
	<path fill="#43C0B9" d="M438.977,527.76c3.043,0,5.943,1.201,8.095,3.352c2.15,2.149,3.351,5.053,3.351,8.086
		c0,3.051-1.217,5.936-3.36,8.084c-2.148,2.152-5.042,3.368-8.085,3.368h-58.834c-3.032,0-5.934-1.199-8.075-3.35l-0.019-0.019
		c-2.15-2.148-3.35-5.05-3.35-8.084c0-3.033,1.215-5.937,3.368-8.086c2.142-2.15,5.034-3.352,8.075-3.352H438.977z"/>
	<path fill="#7CCED2" d="M438.977,527.76c3.043,0,5.943,1.201,8.095,3.352c2.15,2.149,3.351,5.053,3.351,8.086
		c0,0.782-0.083,1.55-0.234,2.301c-0.448-2.166-1.522-4.186-3.116-5.786c-2.151-2.134-5.052-3.35-8.095-3.35h-58.834
		c-3.041,0-5.934,1.216-8.075,3.368c-1.603,1.601-2.685,3.602-3.137,5.782c-0.148-0.749-0.231-1.533-0.231-2.315
		c0-3.033,1.215-5.937,3.368-8.086c2.142-2.15,5.034-3.352,8.075-3.352H438.977z"/>
	<polygon fill="#364A5E" points="275.622,330.781 287.909,337.874 300.178,344.97 300.178,359.149 300.178,373.328 287.909,380.422
		275.622,387.514 263.334,380.422 251.054,373.328 251.054,359.149 251.054,344.97 263.334,337.874 	"/>
	<path fill-rule="evenodd" clip-rule="evenodd" fill="#F6F5BB" d="M273.17,380.43l-7.38-4.261l-9.825-5.675v-11.344v-8.829
		l17.205,9.937V380.43z M295.277,350.321v8.829v11.344l-9.828,5.675l-7.379,4.261v-20.172L295.277,350.321z M275.622,336.45
		l9.827,5.677l7.108,4.1l-16.936,9.779l-16.939-9.779l7.107-4.1L275.622,336.45z"/>
	<polygon fill="#D38528" points="275.622,490.471 287.909,497.565 300.178,504.648 300.178,518.837 300.178,533.013
		287.909,540.113 275.622,547.199 263.334,540.113 251.054,533.013 251.054,518.837 251.054,504.648 263.334,497.565 	"/>
	<polygon fill="#364A5E" points="275.622,482.15 287.909,489.243 300.178,496.33 300.178,510.52 300.178,524.691 287.909,531.795
		275.622,538.88 263.334,531.795 251.054,524.691 251.054,510.52 251.054,496.33 263.334,489.243 	"/>
	<path fill-rule="evenodd" clip-rule="evenodd" fill="#F6F5BB" d="M273.17,532.512l-7.38-4.268l-9.825-5.669v-11.356v-8.819
		l17.205,9.929V532.512z M295.277,502.399v8.819v11.356l-9.828,5.669l-7.379,4.268v-20.184L295.277,502.399z M275.622,488.527
		l9.827,5.668l7.108,4.103l-16.936,9.787l-16.939-9.787l7.107-4.103L275.622,488.527z"/>
	<!-- <path fill-rule="evenodd" clip-rule="evenodd" fill="#94A4A5" d="M456.323,244.906c-1.067-2.174-3.341-2.801-5.544-2.801
		c-2.6,0.017-5.459,1.21-5.459,4.118c0,3.168,2.66,3.935,5.544,4.268c1.874,0.209,3.258,0.75,3.258,2.084
		c0,1.534-1.565,2.118-3.242,2.118c-1.708,0-3.343-0.683-3.977-2.243l-2.217,1.15c1.052,2.584,3.268,3.475,6.151,3.475
		c3.152,0,5.937-1.357,5.937-4.5c0-3.367-2.75-4.135-5.685-4.501c-1.701-0.199-3.152-0.541-3.152-1.767
		c0-1.049,0.949-1.884,2.927-1.884c1.526,0,2.859,0.767,3.342,1.575L456.323,244.906z M434.2,256.71h2.659v-11.72h4.479v-2.418
		c-4.103,0-7.547,0-11.622,0v2.418h4.484V256.71z M424.891,253.093c-0.927,0.933-2.317,1.434-3.543,1.434
		c-3.491,0-4.842-2.435-4.869-4.777c-0.018-2.359,1.45-4.9,4.869-4.9c1.226,0,2.476,0.424,3.399,1.333l1.776-1.716
		c-1.452-1.434-3.268-2.16-5.176-2.16c-5.111,0-7.503,3.752-7.487,7.443c0.018,3.676,2.233,7.278,7.487,7.278
		c2.033,0,3.901-0.667,5.357-2.093L424.891,253.093z M406.467,242.605v8.095c0,2.418-1.248,3.893-3.442,3.893
		c-2.199,0-3.651-1.351-3.651-3.893v-8.095h-2.652v8.095c0,4.259,2.887,6.311,6.281,6.311c3.547,0,6.107-2.134,6.107-6.311v-8.095
		H406.467z M382.461,245.09h2.908c3.068,0,4.352,2.2,4.418,4.409c0.058,2.31-1.216,4.644-4.418,4.644h-2.908V245.09z
		 M385.369,242.573c-1.732,0-3.818,0-5.552,0v14.138c1.733,0,3.819,0,5.552,0c4.936,0,7.118-3.618,7.052-7.194
		C392.37,246.024,390.204,242.573,385.369,242.573z M368.257,244.723c3.326,0,4.658,2.667,4.618,5.051
		c-0.041,2.317-1.292,4.819-4.618,4.819s-4.576-2.484-4.645-4.801C363.563,247.408,364.931,244.723,368.257,244.723z
		 M368.257,242.306c-4.879,0-7.261,3.734-7.261,7.443c0,3.709,2.3,7.278,7.261,7.278c4.96,0,7.202-3.651,7.241-7.302
		C375.533,246.041,373.115,242.306,368.257,242.306z M352.195,245.049c1.673,0,2.424,1.133,2.424,2.275
		c0,1.133-0.725,2.267-2.424,2.267h-4.054v-4.542H352.195z M357.987,256.526l-4.276-4.817c2.684-0.55,3.567-2.5,3.567-4.452
		c0-2.451-1.75-4.669-5.083-4.685c-2.236,0.016-4.471,0-6.712,0v14.138h2.658v-4.718h2.569l4.107,4.718h3.169V256.526z
		 M335.939,242.573c-2.228-0.025-4.443,0-6.661,0v14.138h2.66v-4.152h4.001C342.856,252.559,342.832,242.573,335.939,242.573z
		 M331.938,245.107h4.001c3.384,0,3.4,5.001,0,5.001h-4.001V245.107z"/> -->
</g>
</svg>
