<?xml version="1.0" encoding="utf-8"?>
<!-- Generator: Adobe Illustrator 15.1.0, SVG Export Plug-In . SVG Version: 6.00 Build 0)  -->
<!DOCTYPE svg PUBLIC "-//W3C//DTD SVG 1.0//EN" "http://www.w3.org/TR/2001/REC-SVG-20010904/DTD/svg10.dtd">
<svg version="1.0" id="Layer_1" xmlns="http://www.w3.org/2000/svg" xmlns:xlink="http://www.w3.org/1999/xlink" x="0px" y="0px"
	 width="800px" height="800px" viewBox="206.55899047851562 206.2310028076172 420.4170227050781 377.38299560546875" enable-background="new 0 0 800 800" xml:space="preserve">
<g>
	<g>
		<!-- <path fill="#BCC2C6" d="M222.748,206.231h388.036c4.455,0,8.507,1.814,11.437,4.745V211c2.93,2.93,4.755,6.967,4.755,11.412
			v345.02c0,4.438-1.825,8.481-4.755,11.413v0.016c-2.93,2.939-6.981,4.753-11.437,4.753H222.748c-4.462,0-8.507-1.813-11.437-4.753
			v-0.016c-2.93-2.932-4.752-6.976-4.752-11.413v-345.02c0-4.445,1.822-8.482,4.752-11.412v-0.025
			C214.241,208.045,218.286,206.231,222.748,206.231"/>
		<path fill="#EBEFF0" d="M621.097,222.412v345.02c0,6.494-4.526,10.314-10.313,10.314H222.748c-5.776,0-10.313-3.713-10.313-10.314
			v-345.02c0-6.725,4.554-10.303,10.313-10.303h388.036C616.561,212.109,621.097,215.804,621.097,222.412"/> -->
		<path fill="#BCC2C6" d="M220.61,253.626h392.313c3.872,0,7.385,1.581,9.924,4.13c2.547,2.538,4.129,6.059,4.129,9.92v301.887
			c0,3.87-1.582,7.383-4.129,9.921c-2.539,2.548-6.052,4.129-9.924,4.129H220.61c-3.863,0-7.383-1.581-9.923-4.129
			c-2.546-2.538-4.128-6.051-4.128-9.921V267.676c0-3.861,1.582-7.382,4.128-9.92C213.228,255.208,216.747,253.626,220.61,253.626"
			/>
		<path fill-rule="evenodd" clip-rule="evenodd" fill="#FFFFFF" d="M220.61,259.503c-2.174,0-4.237,0.866-5.776,2.396
			c-1.532,1.549-2.406,3.613-2.406,5.776v301.887c0,2.172,0.874,4.246,2.406,5.776c1.539,1.532,3.603,2.406,5.776,2.406h392.313
			c2.173,0,4.238-0.874,5.77-2.406c1.541-1.53,2.404-3.597,2.404-5.776V267.676c0-2.181-0.863-4.228-2.404-5.776
			c-1.531-1.53-3.604-2.396-5.77-2.396H220.61z"/>
		<!-- <path fill-rule="evenodd" clip-rule="evenodd" fill="#94A4A5" d="M562.432,226.167c4.13,0,7.484,3.356,7.484,7.484
			c0,4.128-3.347,7.475-7.484,7.475c-4.128,0-7.475-3.346-7.475-7.475C554.957,229.522,558.304,226.167,562.432,226.167
			 M585.921,226.167c4.128,0,7.475,3.356,7.475,7.484c0,4.128-3.347,7.475-7.475,7.475c-4.129,0-7.481-3.346-7.481-7.475
			C578.439,229.522,581.792,226.167,585.921,226.167z M538.951,226.167c4.129,0,7.475,3.356,7.475,7.484
			c0,4.128-3.346,7.475-7.475,7.475c-4.13,0-7.483-3.346-7.483-7.475C531.468,229.522,534.821,226.167,538.951,226.167z"/> -->
		<path fill-rule="evenodd" clip-rule="evenodd" fill="#34495E" d="M308.824,345.77l4.312,9.922l10.921,1.116
			c3.156,0.317,4.163,3.596,1.839,5.643l-8.098,7.175l2.314,10.729c0.666,3.106-2.132,5.069-4.812,3.497l-9.315-5.486l-9.497,5.511
			c-2.746,1.599-5.477-0.45-4.811-3.487l2.339-10.563l-8.174-7.326c-2.364-2.113-1.256-5.343,1.831-5.643l10.771-1.049l4.438-10.039
			C304.163,342.875,307.585,342.924,308.824,345.77"/>
		<polygon fill-rule="evenodd" clip-rule="evenodd" fill="#F29B12" points="305.837,350.215 301.501,360.046 290.987,361.061
			298.993,368.228 296.705,378.541 306.002,373.138 315.101,378.499 312.836,367.996 320.743,360.994 310.057,359.905 		"/>
		<path fill-rule="evenodd" clip-rule="evenodd" fill="#34495E" d="M364.269,345.77l4.312,9.922l10.921,1.116
			c3.163,0.317,4.171,3.596,1.841,5.643l-8.093,7.175l2.307,10.729c0.666,3.106-2.131,5.069-4.802,3.497l-9.324-5.486l-9.49,5.511
			c-2.744,1.599-5.483-0.45-4.811-3.487l2.341-10.563l-8.174-7.326c-2.374-2.113-1.266-5.343,1.831-5.643l10.764-1.049l4.435-10.039
			C359.607,342.875,363.028,342.924,364.269,345.77"/>
		<polygon fill-rule="evenodd" clip-rule="evenodd" fill="#F29B12" points="361.288,350.215 356.944,360.046 346.431,361.061
			354.439,368.228 352.158,378.541 361.446,373.138 370.545,378.499 368.289,367.996 376.188,360.994 365.501,359.905 		"/>
		<path fill-rule="evenodd" clip-rule="evenodd" fill="#34495E" d="M419.722,345.77l4.312,9.922l10.921,1.116
			c3.154,0.317,4.171,3.596,1.839,5.643l-8.098,7.175l2.313,10.729c0.666,3.106-2.13,5.069-4.811,3.497l-9.315-5.486l-9.496,5.511
			c-2.74,1.599-5.478-0.45-4.805-3.487l2.332-10.563l-8.175-7.326c-2.363-2.113-1.257-5.343,1.841-5.643l10.762-1.049l4.438-10.039
			C415.061,342.875,418.481,342.924,419.722,345.77"/>
		<polygon fill-rule="evenodd" clip-rule="evenodd" fill="#F29B12" points="416.741,350.215 412.396,360.046 401.884,361.061
			409.891,368.228 407.602,378.541 416.899,373.138 425.998,378.499 423.733,367.996 431.641,360.994 420.954,359.905 		"/>
		<path fill-rule="evenodd" clip-rule="evenodd" fill="#34495E" d="M475.167,345.77l4.319,9.922l10.919,1.116
			c3.156,0.317,4.163,3.596,1.841,5.643l-8.1,7.175l2.306,10.729c0.676,3.106-2.13,5.069-4.803,3.497l-9.321-5.486l-9.489,5.511
			c-2.746,1.599-5.486-0.45-4.811-3.487l2.339-10.563l-8.175-7.326c-2.363-2.113-1.265-5.343,1.832-5.643l10.761-1.049l4.438-10.039
			C470.504,342.875,473.925,342.924,475.167,345.77"/>
		<polygon fill-rule="evenodd" clip-rule="evenodd" fill="#F29B12" points="472.188,350.215 467.841,360.046 457.328,361.061
			465.334,368.228 463.055,378.541 472.344,373.138 481.441,378.499 479.187,367.996 487.094,360.994 476.397,359.905 		"/>
		<path fill-rule="evenodd" clip-rule="evenodd" fill="#34495E" d="M530.618,345.77l4.312,9.922l10.921,1.116
			c3.156,0.317,4.164,3.596,1.84,5.643l-8.099,7.175l2.314,10.729c0.666,3.106-2.131,5.069-4.812,3.497l-9.314-5.486l-9.497,5.511
			c-2.737,1.599-5.478-0.45-4.804-3.487l2.332-10.563l-8.175-7.326c-2.364-2.113-1.256-5.343,1.839-5.643l10.763-1.049l4.438-10.039
			C525.958,342.875,529.379,342.924,530.618,345.77"/>
		<polygon fill-rule="evenodd" clip-rule="evenodd" fill="#FFFFFF" points="527.639,350.215 523.295,360.046 512.781,361.061
			520.788,368.228 518.509,378.541 527.797,373.138 536.895,378.499 534.63,367.996 542.537,360.994 531.851,359.905 		"/>
		<path fill="#BCC2C6" d="M447.74,519.572h-58.751c-2.254,0-4.312,0.915-5.801,2.412c-1.489,1.49-2.423,3.547-2.423,5.802l0,0
			c0,2.274,0.926,4.321,2.406,5.803l0.017,0.016c1.482,1.482,3.537,2.398,5.801,2.398h58.751c2.254,0,4.312-0.916,5.801-2.414
			c1.49-1.489,2.413-3.546,2.413-5.803l0,0c0-2.263-0.915-4.319-2.405-5.81C452.059,520.487,450.004,519.572,447.74,519.572
			 M388.989,511.514h58.751c4.47,0,8.531,1.831,11.479,4.778l0.016,0.016c2.947,2.947,4.778,7.009,4.778,11.479l0,0
			c0,4.479-1.831,8.549-4.778,11.496c-2.945,2.947-7.018,4.776-11.494,4.776h-58.751c-4.461,0-8.523-1.829-11.479-4.776
			l-0.008-0.008l-0.007-0.01c-2.948-2.955-4.779-7.017-4.779-11.479l0,0c0-4.478,1.831-8.549,4.779-11.494
			C380.441,513.345,384.513,511.514,388.989,511.514z"/>
		<path fill="#34495E" d="M385.794,504.871h58.749c4.469,0,8.533,1.831,11.479,4.771l0.018,0.016
			c2.947,2.947,4.776,7.017,4.776,11.479l0,0c0,4.479-1.829,8.559-4.776,11.496c-2.948,2.945-7.018,4.776-11.496,4.776h-58.749
			c-4.462,0-8.523-1.831-11.479-4.776l-0.01-0.01h-0.008c-2.945-2.963-4.769-7.023-4.769-11.486l0,0
			c0-4.478,1.823-8.539,4.769-11.494C377.246,506.702,381.315,504.871,385.794,504.871"/>
		<path fill="#27CABF" d="M444.543,509.706c3.038,0,5.935,1.209,8.082,3.356c2.148,2.139,3.347,5.043,3.347,8.073
			c0,3.039-1.215,5.928-3.354,8.073c-2.147,2.148-5.036,3.363-8.074,3.363h-58.749c-3.028,0-5.927-1.197-8.064-3.347l-0.018-0.017
			c-2.148-2.146-3.347-5.044-3.347-8.073c0-3.03,1.216-5.925,3.364-8.073c2.138-2.147,5.026-3.356,8.064-3.356H444.543z"/>
		<path fill="#51F4E9" d="M444.543,509.706c3.038,0,5.935,1.209,8.082,3.356c2.148,2.139,3.347,5.043,3.347,8.073
			c0,0.782-0.074,1.549-0.232,2.297c-0.45-2.163-1.525-4.178-3.114-5.776c-2.147-2.139-5.044-3.347-8.082-3.347h-58.749
			c-3.038,0-5.927,1.216-8.064,3.356c-1.599,1.597-2.682,3.604-3.131,5.783c-0.149-0.757-0.233-1.531-0.233-2.313
			c0-3.03,1.216-5.925,3.364-8.073c2.138-2.147,5.026-3.356,8.064-3.356H444.543z"/>
		<path fill-rule="evenodd" clip-rule="evenodd" fill="#BCC2C6" d="M295.988,458.192h241.556c2.157,0,3.92,1.772,3.92,3.929
			c0,2.163-1.763,3.928-3.92,3.928H295.988c-2.155,0-3.92-1.765-3.92-3.928C292.068,459.965,293.833,458.192,295.988,458.192"/>
		<path fill-rule="evenodd" clip-rule="evenodd" fill="#BCC2C6" d="M358.343,477.929h116.847c2.158,0,3.931,1.771,3.931,3.928
			c0,2.155-1.772,3.92-3.931,3.92H358.343c-2.164,0-3.931-1.765-3.931-3.92C354.412,479.7,356.179,477.929,358.343,477.929"/>
	</g>
	<!-- <g>
		<path fill="#94A4A5" d="M398.813,239.103h-3.521l-4.569-5.245h-2.848v5.245h-2.962v-15.708c2.488,0,4.977,0.018,7.458,0.018
			c3.703,0.017,5.66,2.489,5.66,5.202c0,2.156-0.992,4.319-3.972,4.936l4.754,5.353V239.103z M387.874,226.167v5.019h4.496
			c1.889,0,2.695-1.248,2.695-2.514c0-1.248-0.831-2.505-2.695-2.505H387.874z"/>
		<path fill="#94A4A5" d="M413.421,236.148h-8.208l-1.341,2.955h-3.213l7.044-15.691h3.22l7.043,15.691h-3.231L413.421,236.148z
			 M409.316,226.708l-2.913,6.675h5.826L409.316,226.708z"/>
		<path fill="#94A4A5" d="M423.043,226.109h-4.978v-2.697c4.528,0,8.355,0,12.909,0v2.697h-4.977v12.994h-2.955V226.109z"/>
		<path fill="#94A4A5" d="M446.723,239.103h-11.743c0-5.22,0-10.464,0-15.691h11.743v2.863h-8.806v3.614h8.499v2.762h-8.499v3.537
			h8.806V239.103z"/>
	</g> -->
</g>
</svg>
