<?xml version="1.0" encoding="utf-8"?>
<!-- Generator: Adobe Illustrator 15.1.0, SVG Export Plug-In . SVG Version: 6.00 Build 0)  -->
<!DOCTYPE svg PUBLIC "-//W3C//DTD SVG 1.0//EN" "http://www.w3.org/TR/2001/REC-SVG-20010904/DTD/svg10.dtd">
<svg version="1.0" id="Layer_1" xmlns="http://www.w3.org/2000/svg" xmlns:xlink="http://www.w3.org/1999/xlink" x="0px" y="0px"
	 width="800px" height="800px" viewBox="196.45599365234375 206.56199645996094 419.5130615234375 376.57000732421875" enable-background="new 0 0 800 800" xml:space="preserve">
<g>
	<!-- <path fill="#BCC2C6" d="M212.611,206.562h387.203c4.443,0,8.488,1.819,11.412,4.743v0.017c2.924,2.923,4.742,6.96,4.742,11.396
		v344.267c0,4.436-1.818,8.472-4.742,11.396v0.017c-2.924,2.924-6.969,4.734-11.412,4.734H212.611c-4.443,0-8.49-1.811-11.412-4.734
		v-0.017c-2.926-2.924-4.743-6.96-4.743-11.396V222.717c0-4.436,1.817-8.472,4.743-11.396v-0.017
		C204.121,208.381,208.168,206.562,212.611,206.562"/>
	<path fill="#EBEFF0" d="M610.105,222.717v344.267c0,6.495-4.518,10.299-10.291,10.299H212.611c-5.765,0-10.291-3.704-10.291-10.299
		V222.717c0-6.719,4.543-10.291,10.291-10.291h387.203C605.578,212.426,610.105,216.113,610.105,222.717"/> -->
	<path fill="#BCC2C6" d="M210.475,253.864h391.475c3.862,0,7.367,1.57,9.9,4.112c2.541,2.533,4.119,6.046,4.119,9.9v301.25
		c0,3.854-1.578,7.359-4.119,9.9c-2.533,2.543-6.038,4.104-9.9,4.104H210.475c-3.861,0-7.367-1.561-9.9-4.104
		c-2.541-2.541-4.118-6.047-4.118-9.9v-301.25c0-3.854,1.577-7.367,4.118-9.9C203.107,255.434,206.613,253.864,210.475,253.864"/>
	<path fill-rule="evenodd" clip-rule="evenodd" fill="#FFFFFF" d="M210.475,259.719c-2.166,0-4.227,0.864-5.756,2.401
		c-1.535,1.528-2.398,3.596-2.398,5.756v301.25c0,2.16,0.863,4.22,2.398,5.748c1.529,1.544,3.59,2.408,5.756,2.408h391.475
		c2.168,0,4.227-0.864,5.764-2.408c1.529-1.528,2.393-3.588,2.393-5.748v-301.25c0-2.168-0.863-4.228-2.393-5.756
		c-1.537-1.537-3.596-2.401-5.764-2.401H210.475z"/>
	<!-- <path fill-rule="evenodd" clip-rule="evenodd" fill="#94A4A5" d="M551.566,226.455c4.118,0,7.467,3.347,7.467,7.467
		c0,4.119-3.349,7.458-7.467,7.458c-4.121,0-7.459-3.339-7.459-7.458C544.107,229.802,547.445,226.455,551.566,226.455
		 M575.004,226.455c4.12,0,7.459,3.347,7.459,7.467c0,4.119-3.339,7.458-7.459,7.458c-4.119,0-7.467-3.339-7.467-7.458
		C567.537,229.802,570.885,226.455,575.004,226.455z M528.135,226.455c4.119,0,7.458,3.347,7.458,7.467
		c0,4.119-3.339,7.458-7.458,7.458s-7.459-3.339-7.459-7.458C520.676,229.802,524.016,226.455,528.135,226.455z"/> -->
	<rect x="240.602" y="287.354" fill-rule="evenodd" clip-rule="evenodd" fill="#34495E" width="54.479" height="54.47"/>
	<rect x="246.572" y="293.325" fill-rule="evenodd" clip-rule="evenodd" fill="#22A6EF" width="42.527" height="42.526"/>
	<path fill-rule="evenodd" clip-rule="evenodd" fill="#BCC2C6" d="M327.705,300.826h126.706c2.152,0,3.913,1.761,3.913,3.92l0,0
		c0,2.151-1.761,3.912-3.913,3.912H327.705c-2.159,0-3.912-1.761-3.912-3.912l0,0C323.793,302.586,325.546,300.826,327.705,300.826"
		/>
	<path fill-rule="evenodd" clip-rule="evenodd" fill="#BCC2C6" d="M327.705,320.519H437.65c2.15,0,3.911,1.76,3.911,3.912v0.008
		c0,2.151-1.761,3.912-3.911,3.912H327.705c-2.15,0-3.912-1.761-3.912-3.912v-0.008
		C323.793,322.279,325.555,320.519,327.705,320.519"/>
	<rect x="240.602" y="363.236" fill-rule="evenodd" clip-rule="evenodd" fill="#34495E" width="54.479" height="54.478"/>
	<rect x="246.572" y="369.216" fill-rule="evenodd" clip-rule="evenodd" fill="#22A6EF" width="42.527" height="42.517"/>
	<path fill-rule="evenodd" clip-rule="evenodd" fill="#BCC2C6" d="M327.705,376.716h126.706c2.152,0,3.913,1.761,3.913,3.913
		c0,2.16-1.761,3.92-3.913,3.92H327.705c-2.159,0-3.912-1.761-3.912-3.92C323.793,378.477,325.546,376.716,327.705,376.716"/>
	<path fill-rule="evenodd" clip-rule="evenodd" fill="#BCC2C6" d="M327.705,396.401H437.65c2.15,0,3.911,1.769,3.911,3.92
		c0,2.152-1.761,3.92-3.911,3.92H327.705c-2.15,0-3.912-1.769-3.912-3.92C323.793,398.17,325.555,396.401,327.705,396.401"/>
	<rect x="240.602" y="439.126" fill-rule="evenodd" clip-rule="evenodd" fill="#34495E" width="54.479" height="54.475"/>
	<rect x="246.572" y="445.095" fill-rule="evenodd" clip-rule="evenodd" fill="#22A6EF" width="42.527" height="42.526"/>
	<path fill-rule="evenodd" clip-rule="evenodd" fill="#BCC2C6" d="M327.705,452.603h126.706c2.152,0,3.913,1.762,3.913,3.921l0,0
		c0,2.16-1.761,3.92-3.913,3.92H327.705c-2.159,0-3.912-1.76-3.912-3.92l0,0C323.793,454.364,325.546,452.603,327.705,452.603"/>
	<path fill-rule="evenodd" clip-rule="evenodd" fill="#BCC2C6" d="M327.705,472.288H437.65c2.15,0,3.911,1.761,3.911,3.921l0,0
		c0,2.159-1.761,3.919-3.911,3.919H327.705c-2.15,0-3.912-1.76-3.912-3.919l0,0C323.793,474.049,325.555,472.288,327.705,472.288"/>
	<path fill="#BCC2C6" d="M429.469,531.127h-44.42c-1.703,0-3.256,0.697-4.387,1.827c-1.129,1.13-1.826,2.691-1.826,4.386
		c0,1.728,0.697,3.271,1.82,4.402h0.006c1.123,1.13,2.676,1.827,4.387,1.827h44.42c1.702,0,3.256-0.714,4.385-1.827
		c1.13-1.131,1.828-2.691,1.828-4.402s-0.698-3.256-1.819-4.386C432.732,531.824,431.18,531.127,429.469,531.127 M385.049,525.047
		h44.42c3.372,0,6.445,1.379,8.68,3.605l0.009,0.016c2.226,2.227,3.612,5.299,3.612,8.672c0,3.388-1.387,6.462-3.612,8.688
		c-2.226,2.242-5.308,3.622-8.688,3.622h-44.42c-3.373,0-6.445-1.38-8.68-3.622l0,0h-0.008c-2.227-2.242-3.613-5.316-3.613-8.688
		c0-3.39,1.387-6.462,3.613-8.688C378.587,526.426,381.669,525.047,385.049,525.047z"/>
	<path fill="#34495E" d="M382.632,520.014h44.421c3.379,0,6.453,1.396,8.68,3.621h0.008c2.234,2.227,3.613,5.299,3.613,8.688l0,0
		c0,3.39-1.379,6.462-3.613,8.688c-2.227,2.226-5.3,3.604-8.688,3.604h-44.421c-3.363,0-6.445-1.379-8.671-3.604h-0.009
		l-0.008-0.017c-2.226-2.226-3.613-5.299-3.613-8.672l0,0c0-3.389,1.388-6.461,3.613-8.688
		C376.17,521.409,379.251,520.014,382.632,520.014"/>
	<path fill="#27CABF" d="M427.053,523.685c2.291,0,4.484,0.896,6.104,2.524c1.628,1.629,2.533,3.821,2.533,6.113
		c0,2.293-0.914,4.469-2.533,6.098c-1.619,1.628-3.803,2.541-6.104,2.541h-44.421c-2.292,0-4.477-0.896-6.097-2.524l-0.018-0.017
		c-1.617-1.611-2.523-3.805-2.523-6.098c0-2.309,0.912-4.484,2.541-6.113c1.62-1.611,3.805-2.524,6.097-2.524H427.053z"/>
	<path fill="#51F4E9" d="M427.053,523.685c2.291,0,4.484,0.896,6.104,2.524c1.628,1.629,2.533,3.821,2.533,6.113
		c0,0.582-0.058,1.164-0.175,1.728c-0.34-1.644-1.146-3.155-2.358-4.368c-1.619-1.611-3.813-2.524-6.104-2.524h-44.421
		c-2.292,0-4.477,0.913-6.097,2.541c-1.203,1.196-2.027,2.725-2.367,4.368c-0.116-0.58-0.174-1.162-0.174-1.744
		c0-2.309,0.912-4.484,2.541-6.113c1.62-1.611,3.805-2.524,6.097-2.524H427.053z"/>
	<path fill="#BCC2C6" d="M559.521,313.4h-44.419c-1.703,0-3.256,0.698-4.386,1.828c-1.13,1.129-1.828,2.683-1.828,4.386
		c0,1.719,0.698,3.272,1.82,4.394l0.008,0.008c1.122,1.121,2.675,1.819,4.386,1.819h44.419c1.703,0,3.257-0.706,4.387-1.827
		c1.129-1.13,1.826-2.683,1.826-4.394c0-1.711-0.697-3.265-1.818-4.395C562.787,314.098,561.234,313.4,559.521,313.4
		 M515.103,307.313h44.419c3.373,0,6.455,1.387,8.681,3.613l0.009,0.008c2.226,2.234,3.613,5.308,3.613,8.68
		c0,3.389-1.388,6.461-3.613,8.696c-2.227,2.226-5.301,3.605-8.689,3.605h-44.419c-3.373,0-6.445-1.379-8.68-3.605v-0.008
		l-0.009-0.008c-2.225-2.234-3.613-5.308-3.613-8.679c0-3.381,1.389-6.462,3.613-8.688
		C508.641,308.699,511.723,307.313,515.103,307.313z"/>
	<path fill="#34495E" d="M512.693,302.287h44.412c3.372,0,6.454,1.387,8.68,3.613l0.008,0.008c2.227,2.234,3.613,5.299,3.613,8.68
		c0,3.389-1.387,6.462-3.613,8.696c-2.226,2.226-5.299,3.605-8.688,3.605h-44.412c-3.379,0-6.445-1.379-8.68-3.605l-0.008-0.008
		l-0.008-0.008c-2.227-2.234-3.605-5.308-3.605-8.68c0-3.38,1.379-6.462,3.605-8.688
		C506.224,303.674,509.305,302.287,512.693,302.287"/>
	<path fill="#27CABF" d="M557.105,305.95c2.292,0,4.484,0.905,6.104,2.534c1.628,1.62,2.533,3.812,2.533,6.105
		c0,2.292-0.913,4.485-2.533,6.105c-1.62,1.619-3.813,2.541-6.104,2.541h-44.412c-2.301,0-4.484-0.914-6.105-2.533l-0.016-0.008
		c-1.62-1.62-2.525-3.813-2.525-6.105c0-2.293,0.923-4.485,2.541-6.105c1.621-1.619,3.805-2.534,6.105-2.534H557.105z"/>
	<path fill="#51F4E9" d="M557.105,305.95c2.292,0,4.484,0.905,6.104,2.534c1.628,1.62,2.533,3.812,2.533,6.105
		c0,0.59-0.058,1.171-0.175,1.736c-0.34-1.636-1.154-3.156-2.358-4.36c-1.62-1.628-3.813-2.533-6.104-2.533h-44.412
		c-2.301,0-4.484,0.914-6.105,2.533c-1.213,1.204-2.026,2.724-2.366,4.368c-0.116-0.564-0.175-1.154-0.175-1.744
		c0-2.293,0.923-4.485,2.541-6.105c1.621-1.619,3.805-2.534,6.105-2.534H557.105z"/>
	<path fill="#BCC2C6" d="M559.521,389.292h-44.419c-1.703,0-3.256,0.698-4.386,1.827s-1.828,2.683-1.828,4.385
		c0,1.711,0.698,3.265,1.82,4.386l0.008,0.017c1.122,1.112,2.675,1.811,4.386,1.811h44.419c1.703,0,3.257-0.698,4.387-1.827
		c1.129-1.121,1.826-2.674,1.826-4.386c0-1.711-0.697-3.264-1.818-4.394C562.787,389.989,561.234,389.292,559.521,389.292
		 M515.103,383.203h44.419c3.373,0,6.455,1.378,8.681,3.613l0.009,0.008c2.226,2.226,3.613,5.299,3.613,8.679
		c0,3.389-1.388,6.463-3.613,8.688c-2.227,2.234-5.301,3.613-8.689,3.613h-44.419c-3.373,0-6.445-1.379-8.68-3.613l0,0l-0.009-0.008
		c-2.225-2.235-3.613-5.308-3.613-8.681c0-3.389,1.389-6.461,3.613-8.688C508.641,384.582,511.723,383.203,515.103,383.203z"/>
	<path fill="#34495E" d="M512.693,378.178h44.412c3.372,0,6.454,1.379,8.68,3.605l0.008,0.016c2.227,2.226,3.613,5.299,3.613,8.68
		c0,3.389-1.387,6.462-3.613,8.688c-2.226,2.227-5.299,3.613-8.688,3.613h-44.412c-3.379,0-6.445-1.387-8.68-3.613l-0.008-0.008
		h-0.008c-2.227-2.235-3.605-5.308-3.605-8.68c0-3.389,1.379-6.462,3.605-8.696C506.224,379.557,509.305,378.178,512.693,378.178"/>
	<path fill="#27CABF" d="M557.105,381.841c2.292,0,4.484,0.906,6.104,2.525c1.628,1.628,2.533,3.821,2.533,6.113
		s-0.913,4.477-2.533,6.104c-1.62,1.62-3.813,2.534-6.104,2.534h-44.412c-2.301,0-4.484-0.905-6.105-2.525l-0.016-0.009
		c-1.62-1.627-2.525-3.812-2.525-6.104s0.923-4.485,2.541-6.105c1.621-1.62,3.805-2.533,6.105-2.533H557.105z"/>
	<path fill="#51F4E9" d="M557.105,381.841c2.292,0,4.484,0.906,6.104,2.525c1.628,1.628,2.533,3.821,2.533,6.113
		c0,0.59-0.058,1.171-0.175,1.736c-0.34-1.645-1.154-3.165-2.358-4.369c-1.62-1.62-3.813-2.533-6.104-2.533h-44.412
		c-2.301,0-4.484,0.922-6.105,2.542c-1.213,1.204-2.026,2.724-2.366,4.369c-0.116-0.573-0.175-1.155-0.175-1.745
		c0-2.292,0.923-4.485,2.541-6.105c1.621-1.62,3.805-2.533,6.105-2.533H557.105z"/>
	<path fill="#BCC2C6" d="M559.521,465.178h-44.419c-1.703,0-3.256,0.698-4.386,1.827c-1.13,1.13-1.828,2.675-1.828,4.387
		c0,1.711,0.698,3.271,1.82,4.385l0.008,0.017c1.122,1.112,2.675,1.811,4.386,1.811h44.419c1.703,0,3.257-0.698,4.387-1.827
		c1.129-1.13,1.826-2.674,1.826-4.385c0-1.712-0.697-3.257-1.818-4.387C562.787,465.876,561.234,465.178,559.521,465.178
		 M515.103,459.099h44.419c3.373,0,6.455,1.378,8.681,3.604l0.009,0.017c2.226,2.226,3.613,5.299,3.613,8.672
		c0,3.388-1.388,6.462-3.613,8.688c-2.227,2.226-5.301,3.621-8.689,3.621h-44.419c-3.373,0-6.445-1.396-8.68-3.621l0,0l-0.009-0.017
		c-2.225-2.226-3.613-5.3-3.613-8.671c0-3.39,1.389-6.462,3.613-8.688C508.641,460.477,511.723,459.099,515.103,459.099z"/>
	<path fill="#34495E" d="M512.693,454.065h44.412c3.372,0,6.454,1.379,8.68,3.604l0.008,0.017c2.227,2.226,3.613,5.299,3.613,8.671
		v0.017c0,3.372-1.387,6.445-3.613,8.688c-2.226,2.227-5.299,3.605-8.688,3.605h-44.412c-3.379,0-6.445-1.379-8.68-3.605
		l-0.008-0.016h-0.008c-2.227-2.243-3.605-5.316-3.605-8.672v-0.017c0-3.372,1.379-6.462,3.605-8.688
		C506.224,455.444,509.305,454.065,512.693,454.065"/>
	<path fill="#27CABF" d="M557.105,457.72c2.292,0,4.484,0.913,6.104,2.541c1.628,1.611,2.533,3.805,2.533,6.113
		c0,2.293-0.913,4.469-2.533,6.096c-1.62,1.629-3.813,2.543-6.104,2.543h-44.412c-2.301,0-4.484-0.914-6.105-2.525l-0.016-0.018
		c-1.62-1.627-2.525-3.819-2.525-6.112c0-2.292,0.923-4.469,2.541-6.097c1.621-1.628,3.805-2.541,6.105-2.541H557.105z"/>
	<path fill="#51F4E9" d="M557.105,457.72c2.292,0,4.484,0.913,6.104,2.541c1.628,1.611,2.533,3.805,2.533,6.113
		c0,0.582-0.058,1.163-0.175,1.728c-0.34-1.645-1.154-3.156-2.358-4.368c-1.62-1.611-3.813-2.525-6.104-2.525h-44.412
		c-2.301,0-4.484,0.914-6.105,2.525c-1.213,1.212-2.026,2.724-2.366,4.368c-0.116-0.564-0.175-1.146-0.175-1.744
		c0-2.292,0.923-4.469,2.541-6.097c1.621-1.628,3.805-2.541,6.105-2.541H557.105z"/>
	<!-- <path fill-rule="evenodd" clip-rule="evenodd" fill="#94A4A5" d="M439.178,228.971c-1.129-2.3-3.546-2.964-5.871-2.964
		c-2.75,0.024-5.781,1.279-5.781,4.352c0,3.347,2.815,4.162,5.871,4.527c1.978,0.208,3.457,0.789,3.457,2.192
		c0,1.62-1.67,2.243-3.439,2.243c-1.811,0-3.538-0.731-4.203-2.367l-2.342,1.213c1.105,2.732,3.455,3.671,6.503,3.671
		c3.332,0,6.271-1.429,6.271-4.76c0-3.563-2.897-4.377-6.012-4.759c-1.795-0.216-3.332-0.573-3.332-1.877
		c0-1.104,1.006-1.985,3.098-1.985c1.621,0,3.023,0.814,3.539,1.669L439.178,228.971z M422.509,238.672h-8.39v-3.364h8.091v-2.625
		h-8.091v-3.456h8.39v-2.732h-11.18c0,4.983,0,9.983,0,14.959h11.18V238.672z M396.304,226.496v14.959h10.49v-2.608h-7.675v-12.351
		H396.304z M391.063,241.455v-14.959h-2.791v14.959H391.063z M375.588,241.455v-5.532h7.493v-2.599h-7.493v-4.079h7.916v-2.708
		h-10.731v14.917H375.588z"/> -->
</g>
</svg>
