<?xml version="1.0" encoding="utf-8"?>
<!-- Generator: Adobe Illustrator 15.1.0, SVG Export Plug-In . SVG Version: 6.00 Build 0)  -->
<!DOCTYPE svg PUBLIC "-//W3C//DTD SVG 1.0//EN" "http://www.w3.org/TR/2001/REC-SVG-20010904/DTD/svg10.dtd">
<svg version="1.0" id="Layer_1" xmlns="http://www.w3.org/2000/svg" xmlns:xlink="http://www.w3.org/1999/xlink" x="0px" y="0px"
	 width="800px" height="800px" viewBox="200.24600219726562 206.56199645996094 419.5049743652344 376.57000732421875" enable-background="new 0 0 800 800" xml:space="preserve">
<g>
	<!-- <path fill="#BCC2C6" d="M216.392,206.562h387.203c4.452,0,8.488,1.819,11.414,4.743v0.017c2.922,2.923,4.742,6.96,4.742,11.396
		v344.267c0,4.436-1.82,8.472-4.742,11.396v0.017c-2.926,2.924-6.962,4.734-11.414,4.734H216.392c-4.451,0-8.488-1.811-11.412-4.734
		v-0.017c-2.923-2.924-4.734-6.96-4.734-11.396V222.717c0-4.436,1.812-8.472,4.734-11.396v-0.017
		C207.903,208.381,211.94,206.562,216.392,206.562"/>
	<path fill="#EBEFF0" d="M613.895,222.717v344.267c0,6.495-4.518,10.299-10.3,10.299H216.392c-5.765,0-10.291-3.704-10.291-10.299
		V222.717c0-6.719,4.544-10.291,10.291-10.291h387.203C609.36,212.426,613.895,216.113,613.895,222.717"/> -->
	<path fill="#BCC2C6" d="M214.265,253.864h391.465c3.863,0,7.367,1.57,9.91,4.112c2.533,2.533,4.111,6.046,4.111,9.9v301.25
		c0,3.854-1.578,7.359-4.111,9.9c-2.543,2.543-6.047,4.104-9.91,4.104H214.265c-3.861,0-7.367-1.561-9.908-4.104
		c-2.533-2.541-4.111-6.047-4.111-9.9v-301.25c0-3.854,1.578-7.367,4.111-9.9C206.897,255.434,210.403,253.864,214.265,253.864"/>
	<path fill-rule="evenodd" clip-rule="evenodd" fill="#FFFFFF" d="M214.265,259.719c-2.176,0-4.236,0.864-5.763,2.401
		c-1.538,1.528-2.401,3.596-2.401,5.756v301.25c0,2.16,0.863,4.22,2.401,5.748c1.526,1.544,3.587,2.408,5.763,2.408h391.465
		c2.168,0,4.229-0.864,5.756-2.408c1.537-1.528,2.409-3.588,2.409-5.748v-301.25c0-2.168-0.872-4.228-2.409-5.756
		c-1.527-1.537-3.588-2.401-5.756-2.401H214.265z"/>
	<!-- <path fill-rule="evenodd" clip-rule="evenodd" fill="#94A4A5" d="M555.354,226.455c4.121,0,7.459,3.347,7.459,7.467
		c0,4.119-3.338,7.458-7.459,7.458c-4.119,0-7.458-3.339-7.458-7.458C547.896,229.802,551.235,226.455,555.354,226.455
		 M578.786,226.455c4.119,0,7.467,3.347,7.467,7.467c0,4.119-3.348,7.458-7.467,7.458c-4.129,0-7.467-3.339-7.467-7.458
		C571.319,229.802,574.665,226.455,578.786,226.455z M531.915,226.455c4.12,0,7.459,3.347,7.459,7.467
		c0,4.119-3.339,7.458-7.459,7.458c-4.119,0-7.459-3.339-7.459-7.458C524.456,229.802,527.796,226.455,531.915,226.455z"/> -->
	<path fill-rule="evenodd" clip-rule="evenodd" fill="#34495E" d="M244.175,293.491h85.136c4.228,0,7.683,3.456,7.683,7.675v75.667
		c0,4.219-3.471,7.683-7.683,7.683h-85.136c-4.22,0-7.683-3.456-7.683-7.683v-75.667
		C236.492,296.938,239.946,293.491,244.175,293.491"/>
	<path fill="#22A6EF" d="M244.175,299.347h85.136c1.005,0,1.819,0.831,1.819,1.819v75.667c0,0.996-0.83,1.819-1.819,1.819h-85.136
		c-0.997,0-1.818-0.814-1.818-1.819v-75.667C242.356,300.169,243.169,299.347,244.175,299.347"/>
	<path fill-rule="evenodd" clip-rule="evenodd" fill="#34495E" d="M279.011,356.209c0.805-0.424,1.644-1.064,2.051-1.579
		c1.52-1.96,1.18-3.198,1.18-6.071l0.033-14.494l18.04-3.58l-0.009,15.765c-0.299-0.05-0.49-0.175-0.789-0.241
		c-0.905-0.216-1.803-0.241-2.716-0.091c-2.899,0.482-6.354,3.132-5.356,6.313c0.572,1.835,2.939,2.898,5.281,2.541
		c2.244-0.333,4.111-1.512,5.018-2.89c0.682-1.055,0.805-1.687,0.805-3.156v-19.843l-0.008-7.948l-22.525,4.551l-0.018,23.016
		c-0.314-0.034-0.68-0.225-1.078-0.299c-4.785-0.947-9.453,3.604-7.543,6.853C272.872,357.604,276.709,357.413,279.011,356.209"/>
	<path fill-rule="evenodd" clip-rule="evenodd" fill="#BCC2C6" d="M358.082,293.491h219.882c3.039,0,5.531,2.492,5.531,5.532v32.21
		c0,3.04-2.492,5.532-5.531,5.532H358.082c-3.04,0-5.54-2.492-5.54-5.532v-32.21C352.542,295.975,355.034,293.491,358.082,293.491"
		/>
	<rect x="358.405" y="299.347" fill-rule="evenodd" clip-rule="evenodd" fill="#FFFFFF" width="219.227" height="31.563"/>
	<path fill-rule="evenodd" clip-rule="evenodd" fill="#34495E" d="M380.5,318.06h175.038c1.611,0,2.922-1.32,2.922-2.932
		s-1.311-2.933-2.922-2.933H380.5c-1.611,0-2.925,1.321-2.925,2.933S378.889,318.06,380.5,318.06"/>
	<path fill-rule="evenodd" clip-rule="evenodd" fill="#34495E" d="M415.726,303.167c6.602,0,11.969,5.349,11.969,11.961
		c0,6.603-5.367,11.96-11.969,11.96c-6.613,0-11.97-5.357-11.97-11.96C403.756,308.517,409.112,303.167,415.726,303.167"/>
	<path fill-rule="evenodd" clip-rule="evenodd" fill="#FFFFFF" d="M415.726,309.023c3.363,0,6.104,2.733,6.104,6.105
		c0,3.372-2.741,6.097-6.104,6.097c-3.373,0-6.105-2.725-6.105-6.097C409.62,311.756,412.353,309.023,415.726,309.023"/>
	<path fill-rule="evenodd" clip-rule="evenodd" fill="#BCC2C6" d="M358.082,362.405h219.882c3.039,0,5.531,2.492,5.531,5.532v32.21
		c0,3.041-2.492,5.532-5.531,5.532H358.082c-3.04,0-5.54-2.491-5.54-5.532v-32.21C352.542,364.897,355.034,362.405,358.082,362.405"
		/>
	<rect x="358.405" y="368.261" fill-rule="evenodd" clip-rule="evenodd" fill="#FFFFFF" width="219.227" height="31.562"/>
	<path fill-rule="evenodd" clip-rule="evenodd" fill="#34495E" d="M380.5,386.974h175.038c1.611,0,2.922-1.32,2.922-2.932
		c0-1.612-1.311-2.932-2.922-2.932H380.5c-1.611,0-2.925,1.32-2.925,2.932C377.575,385.654,378.889,386.974,380.5,386.974"/>
	<path fill-rule="evenodd" clip-rule="evenodd" fill="#BCC2C6" d="M358.082,431.319h219.882c3.039,0,5.531,2.491,5.531,5.532v32.214
		c0,3.04-2.492,5.532-5.531,5.532H358.082c-3.04,0-5.54-2.492-5.54-5.532v-32.214C352.542,433.802,355.034,431.319,358.082,431.319"
		/>
	<rect x="358.405" y="437.175" fill-rule="evenodd" clip-rule="evenodd" fill="#FFFFFF" width="219.227" height="31.558"/>
	<path fill-rule="evenodd" clip-rule="evenodd" fill="#34495E" d="M380.5,455.893h175.038c1.611,0,2.922-1.329,2.922-2.94
		s-1.311-2.924-2.922-2.924H380.5c-1.611,0-2.925,1.313-2.925,2.924S378.889,455.893,380.5,455.893"/>
	<path fill-rule="evenodd" clip-rule="evenodd" fill="#BCC2C6" d="M358.082,500.229h219.882c3.039,0,5.531,2.49,5.531,5.531v32.21
		c0,3.04-2.492,5.532-5.531,5.532H358.082c-3.04,0-5.54-2.492-5.54-5.532v-32.21C352.542,502.72,355.034,500.229,358.082,500.229"/>
	<rect x="358.405" y="506.093" fill-rule="evenodd" clip-rule="evenodd" fill="#FFFFFF" width="219.227" height="31.563"/>
	<path fill-rule="evenodd" clip-rule="evenodd" fill="#34495E" d="M380.5,524.797h175.038c1.611,0,2.922-1.313,2.922-2.924
		s-1.311-2.939-2.922-2.939H380.5c-1.611,0-2.925,1.328-2.925,2.939S378.889,524.797,380.5,524.797"/>
	<!-- <path fill-rule="evenodd" clip-rule="evenodd" fill="#94A4A5" d="M454.256,228.921c-1.138-2.325-3.571-2.998-5.923-2.998
		c-2.781,0.025-5.839,1.296-5.839,4.402c0,3.381,2.841,4.203,5.923,4.569c2.002,0.216,3.496,0.797,3.496,2.217
		c0,1.636-1.686,2.259-3.472,2.259c-1.827,0-3.571-0.731-4.244-2.392l-2.366,1.229c1.112,2.757,3.487,3.704,6.569,3.704
		c3.363,0,6.337-1.445,6.337-4.801c0-3.596-2.932-4.419-6.079-4.809c-1.811-0.216-3.364-0.582-3.364-1.894
		c0-1.121,1.013-2.002,3.123-2.002c1.636,0,3.064,0.814,3.578,1.678L454.256,228.921z M436.365,228.315
		c-1.546-1.528-3.572-2.3-5.599-2.3c-5.324,0-7.974,3.92-7.974,8.165c0,3.961,2.31,7.691,7.974,7.691
		c2.649,0,4.519-1.013,6.014-2.716V232.8h-6.471v2.542h3.863v2.675c-1.188,0.947-2.227,1.204-3.406,1.204
		c-3.754,0-5.199-2.566-5.199-5.042c0-3.099,1.96-5.557,5.199-5.557c1.313,0,2.824,0.532,3.838,1.503L436.365,228.315z
		 M414.362,235.791l-7.393-9.369h-2.301v15.1h2.841v-10.183l7.925,10.183h1.768v-15.1h-2.84V235.791z M391.04,228.73
		c3.555,0,4.975,2.84,4.934,5.382c-0.043,2.484-1.379,5.15-4.934,5.15c-3.563,0-4.893-2.65-4.959-5.125
		C386.015,231.596,387.478,228.73,391.04,228.73z M391.04,226.139c-5.217,0-7.758,3.987-7.758,7.957
		c0,3.962,2.449,7.774,7.758,7.774c5.299,0,7.69-3.896,7.732-7.799C398.822,230.125,396.231,226.139,391.04,226.139z
		 M377.692,228.921c-1.146-2.325-3.572-2.998-5.93-2.998c-2.775,0.025-5.832,1.296-5.832,4.402c0,3.381,2.841,4.203,5.923,4.569
		c2.002,0.216,3.496,0.797,3.496,2.217c0,1.636-1.686,2.259-3.472,2.259c-1.836,0-3.579-0.731-4.252-2.392l-2.368,1.229
		c1.122,2.757,3.497,3.704,6.571,3.704c3.363,0,6.344-1.445,6.344-4.801c0-3.596-2.939-4.419-6.079-4.809
		c-1.811-0.216-3.363-0.582-3.363-1.894c0-1.121,1.013-2.002,3.123-2.002c1.636,0,3.064,0.814,3.579,1.678L377.692,228.921z"/> -->
</g>
</svg>
