<?xml version="1.0" encoding="utf-8"?>
<!-- Generator: Adobe Illustrator 15.1.0, SVG Export Plug-In . SVG Version: 6.00 Build 0)  -->
<!DOCTYPE svg PUBLIC "-//W3C//DTD SVG 1.0//EN" "http://www.w3.org/TR/2001/REC-SVG-20010904/DTD/svg10.dtd">
<svg version="1.0" id="Layer_1" xmlns="http://www.w3.org/2000/svg" xmlns:xlink="http://www.w3.org/1999/xlink" x="0px" y="0px"
	 width="800px" height="800px" viewBox="202.3629913330078 206.56199645996094 419.5130615234375 376.57000732421875" enable-background="new 0 0 800 800" xml:space="preserve">
<g>
	<!-- <path fill="#BCC2C6" d="M218.517,206.562h387.213c4.436,0,8.48,1.819,11.404,4.743v0.017c2.924,2.923,4.742,6.96,4.742,11.396
		v344.267c0,4.436-1.818,8.472-4.742,11.396v0.017c-2.924,2.924-6.969,4.734-11.404,4.734H218.517
		c-4.441,0-8.488-1.811-11.403-4.734v-0.017c-2.923-2.924-4.751-6.96-4.751-11.396V222.717c0-4.436,1.828-8.472,4.751-11.396v-0.017
		C210.028,208.381,214.075,206.562,218.517,206.562"/>
	<path fill="#EBEFF0" d="M616.013,222.717v344.267c0,6.495-4.518,10.299-10.283,10.299H218.517c-5.762,0-10.289-3.704-10.289-10.299
		V222.717c0-6.719,4.551-10.291,10.289-10.291h387.213C611.495,212.426,616.013,216.113,616.013,222.717"/> -->
	<path fill="#BCC2C6" d="M216.383,253.864h391.474c3.861,0,7.367,1.57,9.9,4.112c2.542,2.533,4.119,6.046,4.119,9.9v301.25
		c0,3.854-1.577,7.359-4.119,9.9c-2.533,2.543-6.039,4.104-9.9,4.104H216.383c-3.854,0-7.358-1.561-9.9-4.104
		c-2.541-2.541-4.12-6.047-4.12-9.9v-301.25c0-3.854,1.579-7.367,4.12-9.9C209.024,255.434,212.529,253.864,216.383,253.864"/>
	<path fill-rule="evenodd" clip-rule="evenodd" fill="#FFFFFF" d="M216.383,259.719c-2.167,0-4.22,0.864-5.756,2.401
		c-1.536,1.528-2.399,3.596-2.399,5.756v301.25c0,2.16,0.863,4.22,2.399,5.748c1.536,1.544,3.589,2.408,5.756,2.408h391.474
		c2.176,0,4.227-0.864,5.764-2.408c1.529-1.528,2.393-3.588,2.393-5.748v-301.25c0-2.168-0.863-4.228-2.393-5.756
		c-1.537-1.537-3.604-2.401-5.764-2.401H216.383z"/>
	<!-- <path fill-rule="evenodd" clip-rule="evenodd" fill="#94A4A5" d="M557.474,226.455c4.118,0,7.467,3.347,7.467,7.467
		c0,4.119-3.349,7.458-7.467,7.458c-4.12,0-7.459-3.339-7.459-7.458C550.015,229.802,553.354,226.455,557.474,226.455
		 M580.911,226.455c4.121,0,7.459,3.347,7.459,7.467c0,4.119-3.338,7.458-7.459,7.458c-4.119,0-7.458-3.339-7.458-7.458
		C573.453,229.802,576.792,226.455,580.911,226.455z M534.042,226.455c4.119,0,7.467,3.347,7.467,7.467
		c0,4.119-3.348,7.458-7.467,7.458c-4.12,0-7.467-3.339-7.467-7.458C526.575,229.802,529.93,226.455,534.042,226.455z"/> -->
	<path fill-rule="evenodd" clip-rule="evenodd" fill="#34495E" d="M248.427,288.076h85.137c4.218,0,7.674,3.455,7.674,7.683v56.796
		c0,4.219-3.456,7.674-7.674,7.674h-85.137c-4.219,0-7.683-3.455-7.683-7.674v-56.796
		C240.744,291.531,244.199,288.076,248.427,288.076"/>
	<path fill="#22A6EF" d="M248.427,293.932h85.137c0.995,0,1.818,0.831,1.818,1.827v56.788c0,0.997-0.823,1.819-1.818,1.819h-85.137
		c-0.996,0-1.827-0.814-1.827-1.819v-56.788C246.6,294.753,247.422,293.932,248.427,293.932"/>
	<path fill-rule="evenodd" clip-rule="evenodd" fill="#34495E" d="M283.263,341.342c0.797-0.416,1.645-1.063,2.043-1.579
		c1.527-1.96,1.188-3.197,1.188-6.071l0.025-14.502l18.04-3.571v15.765c-0.299-0.05-0.499-0.174-0.798-0.241
		c-0.896-0.216-1.794-0.249-2.707-0.091c-2.906,0.474-6.354,3.14-5.366,6.313c0.582,1.835,2.94,2.898,5.29,2.541
		c2.244-0.332,4.112-1.511,5.01-2.89c0.689-1.055,0.813-1.686,0.813-3.156v-19.843l-0.008-7.948l-22.534,4.552l-0.009,23.016
		c-0.323-0.033-0.688-0.225-1.079-0.299c-4.793-0.947-9.452,3.604-7.55,6.852C277.116,342.737,280.953,342.545,283.263,341.342"/>
	<path fill-rule="evenodd" clip-rule="evenodd" fill="#BCC2C6" d="M375.923,330.037h203.66c2.159,0,3.92,1.752,3.92,3.912l0,0
		c0,2.16-1.761,3.92-3.92,3.92h-203.66c-2.159,0-3.92-1.761-3.92-3.92l0,0C372.003,331.79,373.764,330.037,375.923,330.037"/>
	<path fill-rule="evenodd" clip-rule="evenodd" fill="#BCC2C6" d="M375.923,310.436h132.328c2.152,0,3.913,1.76,3.913,3.92l0,0
		c0,2.151-1.761,3.913-3.913,3.913H375.923c-2.159,0-3.92-1.761-3.92-3.913l0,0C372.003,312.196,373.764,310.436,375.923,310.436"/>
	<path fill-rule="evenodd" clip-rule="evenodd" fill="#34495E" d="M248.427,382.423h85.137c4.218,0,7.674,3.455,7.674,7.683v56.8
		c0,4.22-3.456,7.675-7.674,7.675h-85.137c-4.219,0-7.683-3.455-7.683-7.675v-56.8C240.744,385.877,244.199,382.423,248.427,382.423
		"/>
	<path fill="#22A6EF" d="M248.427,388.278h85.137c0.995,0,1.818,0.83,1.818,1.827v56.783c0,0.997-0.823,1.827-1.818,1.827h-85.137
		c-0.996,0-1.827-0.813-1.827-1.827v-56.783C246.6,389.101,247.422,388.278,248.427,388.278"/>
	<path fill-rule="evenodd" clip-rule="evenodd" fill="#34495E" d="M283.263,435.688c0.797-0.415,1.645-1.063,2.043-1.578
		c1.527-1.96,1.188-3.197,1.188-6.071l0.025-14.502l18.04-3.571v15.764c-0.299-0.049-0.499-0.165-0.798-0.24
		c-0.896-0.216-1.794-0.24-2.707-0.091c-2.906,0.481-6.354,3.139-5.366,6.313c0.582,1.835,2.94,2.897,5.29,2.55
		c2.244-0.34,4.112-1.521,5.01-2.899c0.689-1.054,0.813-1.677,0.813-3.155v-19.844l-0.008-7.949l-22.534,4.551l-0.009,23.017
		c-0.323-0.034-0.688-0.225-1.079-0.299c-4.793-0.947-9.452,3.604-7.55,6.853C277.116,437.084,280.953,436.893,283.263,435.688"/>
	<path fill-rule="evenodd" clip-rule="evenodd" fill="#BCC2C6" d="M375.923,424.384h203.66c2.159,0,3.92,1.752,3.92,3.912l0,0
		c0,2.159-1.761,3.921-3.92,3.921h-203.66c-2.159,0-3.92-1.762-3.92-3.921l0,0C372.003,426.136,373.764,424.384,375.923,424.384"/>
	<path fill-rule="evenodd" clip-rule="evenodd" fill="#BCC2C6" d="M375.923,404.782h132.328c2.152,0,3.913,1.761,3.913,3.92l0,0
		c0,2.151-1.761,3.912-3.913,3.912H375.923c-2.159,0-3.92-1.761-3.92-3.912l0,0C372.003,406.543,373.764,404.782,375.923,404.782"/>
	<path fill-rule="evenodd" clip-rule="evenodd" fill="#34495E" d="M248.427,476.773h85.137c4.218,0,7.674,3.454,7.674,7.674v56.797
		c0,4.218-3.456,7.674-7.674,7.674h-85.137c-4.219,0-7.683-3.438-7.683-7.674v-56.797
		C240.744,480.228,244.199,476.773,248.427,476.773"/>
	<path fill="#22A6EF" d="M248.427,482.62h85.137c0.995,0,1.818,0.83,1.818,1.827v56.797c0,0.995-0.823,1.811-1.818,1.811h-85.137
		c-0.996,0-1.827-0.815-1.827-1.811v-56.797C246.6,483.45,247.422,482.62,248.427,482.62"/>
	<path fill-rule="evenodd" clip-rule="evenodd" fill="#34495E" d="M283.263,530.03c0.797-0.415,1.645-1.063,2.043-1.577
		c1.527-1.961,1.188-3.19,1.188-6.063l0.025-14.502l18.04-3.572v15.765c-0.299-0.05-0.499-0.166-0.798-0.25
		c-0.896-0.215-1.794-0.231-2.707-0.083c-2.906,0.482-6.354,3.14-5.366,6.313c0.582,1.827,2.94,2.891,5.29,2.541
		c2.244-0.332,4.112-1.512,5.01-2.891c0.689-1.063,0.813-1.677,0.813-3.156v-19.851l-0.008-7.94l-22.534,4.552l-0.009,23.007
		c-0.323-0.032-0.688-0.216-1.079-0.299c-4.793-0.946-9.452,3.605-7.55,6.86C277.116,531.426,280.953,531.242,283.263,530.03"/>
	<path fill-rule="evenodd" clip-rule="evenodd" fill="#BCC2C6" d="M375.923,518.734h203.66c2.159,0,3.92,1.745,3.92,3.903l0,0
		c0,2.159-1.761,3.921-3.92,3.921h-203.66c-2.159,0-3.92-1.762-3.92-3.921l0,0C372.003,520.479,373.764,518.734,375.923,518.734"/>
	<path fill-rule="evenodd" clip-rule="evenodd" fill="#BCC2C6" d="M375.923,499.133h132.328c2.152,0,3.913,1.76,3.913,3.92l0,0
		c0,2.159-1.761,3.903-3.913,3.903H375.923c-2.159,0-3.92-1.744-3.92-3.903l0,0C372.003,500.893,373.764,499.133,375.923,499.133"/>
	<!-- <path fill-rule="evenodd" clip-rule="evenodd" fill="#94A4A5" d="M456.382,228.921c-1.138-2.325-3.58-2.998-5.922-2.998
		c-2.782,0.025-5.84,1.296-5.84,4.402c0,3.381,2.849,4.203,5.923,4.569c2.01,0.216,3.489,0.797,3.489,2.217
		c0,1.636-1.679,2.259-3.465,2.259c-1.836,0-3.579-0.731-4.244-2.392l-2.375,1.229c1.129,2.757,3.488,3.704,6.578,3.704
		c3.355,0,6.329-1.445,6.329-4.801c0-3.596-2.925-4.419-6.081-4.809c-1.802-0.216-3.354-0.582-3.354-1.894
		c0-1.121,1.013-2.002,3.123-2.002c1.644,0,3.056,0.814,3.58,1.678L456.382,228.921z M438.49,228.315
		c-1.553-1.528-3.579-2.3-5.605-2.3c-5.316,0-7.966,3.92-7.966,8.165c0,3.961,2.301,7.691,7.966,7.691
		c2.657,0,4.534-1.013,6.014-2.716V232.8h-6.463v2.542h3.862v2.675c-1.188,0.947-2.217,1.204-3.413,1.204
		c-3.737,0-5.184-2.566-5.184-5.042c0-3.099,1.961-5.557,5.184-5.557c1.32,0,2.823,0.532,3.837,1.503L438.49,228.315z
		 M416.488,235.791l-7.392-9.369h-2.31v15.1h2.841v-10.183l7.94,10.183h1.761v-15.1h-2.841V235.791z M393.166,228.73
		c3.555,0,4.975,2.84,4.934,5.382c-0.041,2.484-1.379,5.15-4.934,5.15c-3.556,0-4.893-2.65-4.958-5.125
		C388.149,231.596,389.61,228.73,393.166,228.73z M393.166,226.139c-5.217,0-7.758,3.987-7.758,7.957
		c0,3.962,2.458,7.774,7.758,7.774c5.298,0,7.69-3.896,7.733-7.799C400.94,230.125,398.356,226.139,393.166,226.139z
		 M379.827,228.921c-1.147-2.325-3.589-2.998-5.931-2.998c-2.783,0.025-5.839,1.296-5.839,4.402c0,3.381,2.84,4.203,5.922,4.569
		c2.01,0.216,3.488,0.797,3.488,2.217c0,1.636-1.678,2.259-3.472,2.259c-1.827,0-3.572-0.731-4.236-2.392l-2.376,1.229
		c1.121,2.757,3.489,3.704,6.579,3.704c3.355,0,6.328-1.445,6.328-4.801c0-3.596-2.923-4.419-6.079-4.809
		c-1.811-0.216-3.356-0.582-3.356-1.894c0-1.121,1.013-2.002,3.124-2.002c1.645,0,3.057,0.814,3.571,1.678L379.827,228.921z"/> -->
</g>
</svg>
