<?xml version="1.0" encoding="utf-8"?>
<!-- Generator: Adobe Illustrator 15.1.0, SVG Export Plug-In . SVG Version: 6.00 Build 0)  -->
<!DOCTYPE svg PUBLIC "-//W3C//DTD SVG 1.0//EN" "http://www.w3.org/TR/2001/REC-SVG-20010904/DTD/svg10.dtd">
<svg version="1.0" id="Layer_1" xmlns="http://www.w3.org/2000/svg" xmlns:xlink="http://www.w3.org/1999/xlink" x="0px" y="0px"
	 width="800px" height="800px" viewBox="199.89999389648438 206.56199645996094 419.5050354003906 376.57000732421875" enable-background="new 0 0 800 800" xml:space="preserve">
<g>
	<!-- <path fill="#BCC2C6" d="M216.046,206.562h387.205c4.451,0,8.488,1.819,11.412,4.743v0.017c2.923,2.923,4.742,6.96,4.742,11.396
		v344.267c0,4.436-1.819,8.472-4.742,11.396v0.017c-2.924,2.924-6.961,4.734-11.412,4.734H216.046
		c-4.451,0-8.488-1.811-11.412-4.734v-0.017c-2.924-2.924-4.734-6.96-4.734-11.396V222.717c0-4.436,1.811-8.472,4.734-11.396v-0.017
		C207.558,208.381,211.595,206.562,216.046,206.562"/>
	<path fill="#EBEFF0" d="M613.542,222.717v344.267c0,6.495-4.512,10.299-10.291,10.299H216.046c-5.764,0-10.291-3.704-10.291-10.299
		V222.717c0-6.719,4.543-10.291,10.291-10.291h387.205C609.015,212.426,613.542,216.113,613.542,222.717"/> -->
	<path fill="#BCC2C6" d="M213.92,253.864h391.456c3.871,0,7.376,1.57,9.918,4.112c2.533,2.533,4.111,6.046,4.111,9.9v301.25
		c0,3.854-1.578,7.359-4.111,9.9c-2.542,2.543-6.047,4.104-9.918,4.104H213.92c-3.87,0-7.376-1.561-9.909-4.104
		c-2.542-2.541-4.111-6.047-4.111-9.9v-301.25c0-3.854,1.569-7.367,4.111-9.9C206.544,255.434,210.05,253.864,213.92,253.864"/>
	<path fill-rule="evenodd" clip-rule="evenodd" fill="#FFFFFF" d="M213.92,259.719c-2.175,0-4.235,0.864-5.765,2.401
		c-1.535,1.528-2.408,3.596-2.408,5.756v301.25c0,2.16,0.873,4.22,2.408,5.748c1.529,1.544,3.59,2.408,5.765,2.408h391.456
		c2.178,0,4.236-0.864,5.765-2.408c1.536-1.528,2.401-3.588,2.401-5.748v-301.25c0-2.168-0.865-4.228-2.401-5.756
		c-1.528-1.537-3.587-2.401-5.765-2.401H213.92z"/>
	<!-- <path fill-rule="evenodd" clip-rule="evenodd" fill="#94A4A5" d="M555.009,226.455c4.12,0,7.459,3.347,7.459,7.467
		c0,4.119-3.339,7.458-7.459,7.458c-4.118,0-7.467-3.339-7.467-7.458C547.542,229.802,550.891,226.455,555.009,226.455
		 M578.44,226.455c4.112,0,7.467,3.347,7.467,7.467c0,4.119-3.354,7.458-7.467,7.458c-4.128,0-7.467-3.339-7.467-7.458
		C570.974,229.802,574.321,226.455,578.44,226.455z M531.571,226.455c4.119,0,7.458,3.347,7.458,7.467
		c0,4.119-3.339,7.458-7.458,7.458c-4.121,0-7.459-3.339-7.459-7.458C524.112,229.802,527.45,226.455,531.571,226.455z"/> -->
	<path fill-rule="evenodd" clip-rule="evenodd" fill="#34495E" d="M256.845,296.639h305.607c4.219,0,7.674,3.463,7.674,7.675
		v228.375c0,4.202-3.471,7.675-7.674,7.675H256.845c-4.203,0-7.674-3.455-7.674-7.675V304.314
		C249.171,300.086,252.626,296.639,256.845,296.639"/>
	<path fill="#FFFFFF" d="M256.845,302.495h305.607c0.996,0,1.811,0.839,1.811,1.819v228.375c0,0.979-0.83,1.811-1.811,1.811H256.845
		c-0.98,0-1.811-0.813-1.811-1.811V304.314C255.034,303.317,255.849,302.495,256.845,302.495"/>
	<path fill-rule="evenodd" clip-rule="evenodd" fill="#34495E" d="M256.845,296.639h305.607c4.219,0,7.674,3.463,7.674,7.675
		v183.921c0,4.22-3.463,7.691-7.674,7.691H256.845c-4.211,0-7.674-3.455-7.674-7.691V304.314
		C249.171,300.086,252.626,296.639,256.845,296.639"/>
	<path fill="#22A6EF" d="M256.845,302.495h305.607c0.996,0,1.811,0.83,1.811,1.819v183.921c0,0.997-0.83,1.827-1.811,1.827H256.845
		c-0.988,0-1.811-0.813-1.811-1.827V304.314C255.034,303.317,255.849,302.495,256.845,302.495"/>
	<path fill-rule="evenodd" clip-rule="evenodd" fill="#34495E" d="M281.464,518.485h256.369c1.611,0,2.924-1.313,2.924-2.924
		c0-1.628-1.313-2.939-2.924-2.939H281.464c-1.611,0-2.924,1.312-2.924,2.939C278.54,517.173,279.853,518.485,281.464,518.485"/>
	<path fill-rule="evenodd" clip-rule="evenodd" fill="#34495E" d="M316.681,503.584c6.611,0,11.969,5.366,11.969,11.978
		c0,6.595-5.357,11.96-11.969,11.96c-6.604,0-11.961-5.365-11.961-11.96C304.72,508.95,310.077,503.584,316.681,503.584"/>
	<path fill-rule="evenodd" clip-rule="evenodd" fill="#FFFFFF" d="M316.681,509.448c3.372,0,6.113,2.74,6.113,6.113
		c0,3.355-2.741,6.097-6.113,6.097c-3.363,0-6.097-2.741-6.097-6.097C310.584,512.188,313.317,509.448,316.681,509.448"/>
	<path fill-rule="evenodd" clip-rule="evenodd" fill="#34495E" d="M396.5,425.521c1.362-0.706,2.808-1.803,3.489-2.683
		c2.59-3.322,2.009-5.432,2.009-10.324l0.05-24.627l30.657-6.08l-0.009,26.794c-0.498-0.082-0.83-0.289-1.344-0.415
		c-1.529-0.364-3.057-0.406-4.611-0.157c-4.934,0.814-10.789,5.333-9.11,10.731c0.979,3.131,4.991,4.925,8.987,4.327
		c3.813-0.573,6.992-2.574,8.512-4.917c1.172-1.794,1.38-2.857,1.38-5.357v-33.73l-0.009-13.497l-38.29,7.725l-0.017,39.112
		c-0.547-0.058-1.172-0.373-1.844-0.507c-8.14-1.611-16.056,6.122-12.824,11.646C386.077,427.897,392.596,427.573,396.5,425.521"/>
	<!-- <path fill-rule="evenodd" clip-rule="evenodd" fill="#94A4A5" d="M453.911,228.921c-1.139-2.325-3.572-2.998-5.922-2.998
		c-2.783,0.025-5.84,1.296-5.84,4.402c0,3.381,2.84,4.203,5.931,4.569c1.993,0.216,3.487,0.797,3.487,2.217
		c0,1.636-1.686,2.259-3.471,2.259c-1.828,0-3.58-0.731-4.244-2.392l-2.368,1.229c1.112,2.757,3.489,3.704,6.562,3.704
		c3.373,0,6.338-1.445,6.338-4.801c0-3.596-2.932-4.419-6.072-4.809c-1.811-0.216-3.363-0.582-3.363-1.894
		c0-1.121,1.014-2.002,3.132-2.002c1.628,0,3.056,0.814,3.571,1.678L453.911,228.921z M436.02,228.315
		c-1.544-1.528-3.571-2.3-5.599-2.3c-5.323,0-7.973,3.92-7.973,8.165c0,3.961,2.3,7.691,7.973,7.691
		c2.643,0,4.519-1.013,6.006-2.716V232.8h-6.463v2.542h3.862v2.675c-1.187,0.947-2.226,1.204-3.405,1.204
		c-3.754,0-5.199-2.566-5.199-5.042c0-3.099,1.96-5.557,5.199-5.557c1.313,0,2.824,0.532,3.837,1.503L436.02,228.315z
		 M414.009,235.791l-7.383-9.369h-2.311v15.1h2.85v-10.183l7.923,10.183h1.771v-15.1h-2.85V235.791z M390.686,228.73
		c3.563,0,4.984,2.84,4.942,5.382c-0.041,2.484-1.379,5.15-4.942,5.15c-3.555,0-4.884-2.65-4.95-5.125
		C385.669,231.596,387.131,228.73,390.686,228.73z M390.686,226.139c-5.207,0-7.749,3.987-7.749,7.957
		c0,3.962,2.451,7.774,7.749,7.774c5.308,0,7.7-3.896,7.741-7.799C398.478,230.125,395.886,226.139,390.686,226.139z
		 M377.347,228.921c-1.146-2.325-3.579-2.998-5.931-2.998c-2.773,0.025-5.829,1.296-5.829,4.402c0,3.381,2.84,4.203,5.92,4.569
		c2.002,0.216,3.498,0.797,3.498,2.217c0,1.636-1.687,2.259-3.473,2.259c-1.836,0-3.58-0.731-4.252-2.392l-2.367,1.229
		c1.121,2.757,3.497,3.704,6.57,3.704c3.363,0,6.337-1.445,6.337-4.801c0-3.596-2.932-4.419-6.072-4.809
		c-1.812-0.216-3.364-0.582-3.364-1.894c0-1.121,1.006-2.002,3.123-2.002c1.637,0,3.064,0.814,3.581,1.678L377.347,228.921z"/> -->
</g>
</svg>
