<?xml version="1.0" encoding="utf-8"?>
<!-- Generator: Adobe Illustrator 15.1.0, SVG Export Plug-In . SVG Version: 6.00 Build 0)  -->
<!DOCTYPE svg PUBLIC "-//W3C//DTD SVG 1.0//EN" "http://www.w3.org/TR/2001/REC-SVG-20010904/DTD/svg10.dtd">
<svg version="1.0" id="Layer_1" xmlns="http://www.w3.org/2000/svg" xmlns:xlink="http://www.w3.org/1999/xlink" x="0px" y="0px"
	 width="800px" height="800px" viewBox="196.99301147460938 206.56199645996094 419.5050354003906 376.57000732421875" enable-background="new 0 0 800 800" xml:space="preserve">
<g>
	<!-- <path fill="#BCC2C6" d="M213.149,206.562h387.202c4.444,0,8.489,1.819,11.412,4.743v0.017c2.924,2.923,4.734,6.96,4.734,11.396
		v344.267c0,4.436-1.811,8.472-4.734,11.396v0.017c-2.923,2.924-6.968,4.734-11.412,4.734H213.149
		c-4.453,0-8.489-1.811-11.413-4.734v-0.017c-2.924-2.924-4.743-6.96-4.743-11.396V222.717c0-4.436,1.819-8.472,4.743-11.396v-0.017
		C204.66,208.381,208.696,206.562,213.149,206.562"/>
	<path fill="#EBEFF0" d="M610.643,222.717v344.267c0,6.495-4.518,10.299-10.291,10.299H213.149c-5.766,0-10.292-3.704-10.292-10.299
		V222.717c0-6.719,4.543-10.291,10.292-10.291h387.202C606.116,212.426,610.643,216.113,610.643,222.717"/> -->
	<path fill="#BCC2C6" d="M211.014,253.864h391.473c3.863,0,7.367,1.57,9.9,4.112c2.543,2.533,4.111,6.046,4.111,9.9v301.25
		c0,3.854-1.568,7.359-4.111,9.9c-2.533,2.543-6.037,4.104-9.9,4.104H211.014c-3.861,0-7.367-1.561-9.9-4.104
		c-2.541-2.541-4.12-6.047-4.12-9.9v-301.25c0-3.854,1.579-7.367,4.12-9.9C203.646,255.434,207.152,253.864,211.014,253.864"/>
	<path fill-rule="evenodd" clip-rule="evenodd" fill="#FFFFFF" d="M211.014,259.719c-2.168,0-4.229,0.864-5.756,2.401
		c-1.536,1.528-2.4,3.596-2.4,5.756v301.25c0,2.16,0.864,4.22,2.4,5.748c1.527,1.544,3.588,2.408,5.756,2.408h391.473
		c2.168,0,4.229-0.864,5.756-2.408c1.537-1.528,2.4-3.588,2.4-5.748v-301.25c0-2.168-0.863-4.228-2.4-5.756
		c-1.527-1.537-3.588-2.401-5.756-2.401H211.014z"/>
	<!-- <path fill-rule="evenodd" clip-rule="evenodd" fill="#94A4A5" d="M552.104,226.455c4.127,0,7.467,3.347,7.467,7.467
		c0,4.119-3.34,7.458-7.467,7.458c-4.119,0-7.459-3.339-7.459-7.458C544.645,229.802,547.984,226.455,552.104,226.455
		 M575.543,226.455c4.119,0,7.459,3.347,7.459,7.467c0,4.119-3.34,7.458-7.459,7.458c-4.129,0-7.467-3.339-7.467-7.458
		C568.076,229.802,571.423,226.455,575.543,226.455z M528.672,226.455c4.121,0,7.459,3.347,7.459,7.467
		c0,4.119-3.338,7.458-7.459,7.458c-4.119,0-7.458-3.339-7.458-7.458C521.214,229.802,524.553,226.455,528.672,226.455z"/> -->
	<rect x="243.05" y="297.113" fill-rule="evenodd" clip-rule="evenodd" fill="#34495E" width="54.47" height="54.47"/>
	<rect x="249.021" y="303.093" fill-rule="evenodd" clip-rule="evenodd" fill="#22A6EF" width="42.526" height="42.518"/>
	<path fill-rule="evenodd" clip-rule="evenodd" fill="#BCC2C6" d="M330.154,310.593h174.889c2.15,0,3.912,1.761,3.912,3.912l0,0
		c0,2.16-1.762,3.921-3.912,3.921H330.154c-2.16,0-3.922-1.761-3.922-3.921l0,0C326.232,312.354,327.994,310.593,330.154,310.593"/>
	<path fill-rule="evenodd" clip-rule="evenodd" fill="#BCC2C6" d="M330.154,330.278h152.113c2.159,0,3.92,1.761,3.92,3.921l0,0
		c0,2.151-1.761,3.912-3.92,3.912H330.154c-2.16,0-3.922-1.76-3.922-3.912l0,0C326.232,332.039,327.994,330.278,330.154,330.278"/>
	<path fill-rule="evenodd" clip-rule="evenodd" fill="#BCC2C6" d="M551.372,312.612l6.196,6.196l6.205-6.196
		c1.52-1.521,4.012-1.521,5.539,0l0,0c1.521,1.528,1.521,4.02,0,5.54l-6.205,6.205l6.205,6.196c1.521,1.52,1.521,4.012,0,5.54
		h-0.008c-1.52,1.521-4.012,1.521-5.531,0l-6.205-6.204l-6.196,6.204c-1.52,1.521-4.012,1.521-5.54,0
		c-1.527-1.528-1.527-4.02,0-5.54l6.195-6.196l-6.195-6.205c-1.527-1.521-1.527-4.012,0-5.54l0,0
		C547.36,311.091,549.853,311.091,551.372,312.612"/>
	<path fill-rule="evenodd" clip-rule="evenodd" fill="#BCC2C6" d="M276.439,379.739c1.577,0,2.857,1.28,2.857,2.857
		c0,1.578-1.28,2.857-2.857,2.857h-2.732c-1.578,0-2.858-1.279-2.858-2.857c0-1.578,1.28-2.857,2.858-2.857H276.439z
		 M287.377,379.739c1.579,0,2.858,1.28,2.858,2.857c0,1.578-1.279,2.857-2.858,2.857h-2.732c-1.577,0-2.856-1.279-2.856-2.857
		c0-1.578,1.279-2.857,2.856-2.857H287.377z M298.316,379.739c1.579,0,2.857,1.28,2.857,2.857c0,1.578-1.278,2.857-2.857,2.857
		h-2.732c-1.578,0-2.856-1.279-2.856-2.857c0-1.578,1.278-2.857,2.856-2.857H298.316z M309.264,379.739
		c1.57,0,2.857,1.28,2.857,2.857c0,1.578-1.287,2.857-2.857,2.857h-2.74c-1.578,0-2.857-1.279-2.857-2.857
		c0-1.578,1.279-2.857,2.857-2.857H309.264z M320.203,379.739c1.568,0,2.856,1.28,2.856,2.857c0,1.578-1.288,2.857-2.856,2.857
		h-2.741c-1.57,0-2.858-1.279-2.858-2.857c0-1.578,1.288-2.857,2.858-2.857H320.203z M331.143,379.739
		c1.568,0,2.856,1.28,2.856,2.857c0,1.578-1.288,2.857-2.856,2.857H328.4c-1.569,0-2.857-1.279-2.857-2.857
		c0-1.578,1.288-2.857,2.857-2.857H331.143z M342.08,379.739c1.579,0,2.858,1.28,2.858,2.857c0,1.578-1.279,2.857-2.858,2.857
		h-2.732c-1.577,0-2.865-1.279-2.865-2.857c0-1.578,1.288-2.857,2.865-2.857H342.08z M353.019,379.739
		c1.579,0,2.858,1.28,2.858,2.857c0,1.578-1.279,2.857-2.858,2.857h-2.732c-1.577,0-2.856-1.279-2.856-2.857
		c0-1.578,1.279-2.857,2.856-2.857H353.019z M363.958,379.739c1.579,0,2.856,1.28,2.856,2.857c0,1.578-1.277,2.857-2.856,2.857
		h-2.732c-1.579,0-2.856-1.279-2.856-2.857c0-1.578,1.277-2.857,2.856-2.857H363.958z M374.897,379.739
		c1.579,0,2.856,1.28,2.856,2.857c0,1.578-1.277,2.857-2.856,2.857h-2.732c-1.579,0-2.858-1.279-2.858-2.857
		c0-1.578,1.279-2.857,2.858-2.857H374.897z M385.836,379.739c1.578,0,2.857,1.28,2.857,2.857c0,1.578-1.279,2.857-2.857,2.857
		h-2.732c-1.578,0-2.858-1.279-2.858-2.857c0-1.578,1.28-2.857,2.858-2.857H385.836z M396.773,379.739
		c1.579,0,2.859,1.28,2.859,2.857c0,1.578-1.28,2.857-2.859,2.857h-2.732c-1.576,0-2.856-1.279-2.856-2.857
		c0-1.578,1.28-2.857,2.856-2.857H396.773z M407.713,379.739c1.579,0,2.857,1.28,2.857,2.857c0,1.578-1.278,2.857-2.857,2.857
		h-2.732c-1.578,0-2.856-1.279-2.856-2.857c0-1.578,1.278-2.857,2.856-2.857H407.713z M418.652,379.739
		c1.579,0,2.857,1.28,2.857,2.857c0,1.578-1.278,2.857-2.857,2.857h-2.732c-1.578,0-2.857-1.279-2.857-2.857
		c0-1.578,1.279-2.857,2.857-2.857H418.652z M429.592,379.739c1.578,0,2.857,1.28,2.857,2.857c0,1.578-1.279,2.857-2.857,2.857
		h-2.732c-1.578,0-2.858-1.279-2.858-2.857c0-1.578,1.28-2.857,2.858-2.857H429.592z M440.529,379.739
		c1.578,0,2.858,1.28,2.858,2.857c0,1.578-1.28,2.857-2.858,2.857h-2.732c-1.577,0-2.857-1.279-2.857-2.857
		c0-1.578,1.28-2.857,2.857-2.857H440.529z M451.469,379.739c1.578,0,2.866,1.28,2.866,2.857c0,1.578-1.288,2.857-2.866,2.857
		h-2.732c-1.578,0-2.857-1.279-2.857-2.857c0-1.578,1.279-2.857,2.857-2.857H451.469z M462.416,379.739
		c1.57,0,2.857,1.28,2.857,2.857c0,1.578-1.287,2.857-2.857,2.857h-2.74c-1.57,0-2.857-1.279-2.857-2.857
		c0-1.578,1.287-2.857,2.857-2.857H462.416z M473.355,379.739c1.57,0,2.856,1.28,2.856,2.857c0,1.578-1.286,2.857-2.856,2.857
		h-2.741c-1.57,0-2.858-1.279-2.858-2.857c0-1.578,1.288-2.857,2.858-2.857H473.355z M484.295,379.739
		c1.578,0,2.855,1.28,2.855,2.857c0,1.578-1.277,2.857-2.855,2.857h-2.742c-1.569,0-2.857-1.279-2.857-2.857
		c0-1.578,1.288-2.857,2.857-2.857H484.295z M495.232,379.739c1.578,0,2.857,1.28,2.857,2.857c0,1.578-1.279,2.857-2.857,2.857
		H492.5c-1.577,0-2.857-1.279-2.857-2.857c0-1.578,1.28-2.857,2.857-2.857H495.232z M506.171,379.739
		c1.579,0,2.858,1.28,2.858,2.857c0,1.578-1.279,2.857-2.858,2.857h-2.732c-1.577,0-2.856-1.279-2.856-2.857
		c0-1.578,1.279-2.857,2.856-2.857H506.171z M517.11,379.739c1.579,0,2.856,1.28,2.856,2.857c0,1.578-1.277,2.857-2.856,2.857
		h-2.732c-1.579,0-2.856-1.279-2.856-2.857c0-1.578,1.277-2.857,2.856-2.857H517.11z M528.05,379.739
		c1.579,0,2.856,1.28,2.856,2.857c0,1.578-1.277,2.857-2.856,2.857h-2.732c-1.579,0-2.866-1.279-2.866-2.857
		c0-1.578,1.287-2.857,2.866-2.857H528.05z M538.988,379.739c1.578,0,2.857,1.28,2.857,2.857c0,1.578-1.279,2.857-2.857,2.857
		h-2.732c-1.578,0-2.857-1.279-2.857-2.857c0-1.578,1.279-2.857,2.857-2.857H538.988z M549.926,379.739
		c1.579,0,2.858,1.28,2.858,2.857c0,1.578-1.279,2.857-2.858,2.857h-2.732c-1.577,0-2.856-1.279-2.856-2.857
		c0-1.578,1.279-2.857,2.856-2.857H549.926z M561.804,384.989c0.997,1.221,0.823,3.023-0.405,4.028
		c-1.229,0.997-3.04,0.806-4.029-0.432l-0.64-0.689l-0.448-0.407l-0.365-0.291c-1.264-0.938-1.521-2.732-0.581-4.003
		c0.946-1.262,2.724-1.529,3.962-0.598l0.631,0.49l0.598,0.531l0.706,0.706l0.531,0.606L561.804,384.989z M565.077,397.124
		c0,1.57-1.28,2.857-2.858,2.857c-1.577,0-2.856-1.288-2.856-2.857v-2.741c0-1.578,1.279-2.857,2.856-2.857
		c1.578,0,2.858,1.28,2.858,2.857V397.124z M565.077,408.063c0,1.578-1.28,2.856-2.858,2.856c-1.577,0-2.856-1.278-2.856-2.856
		v-2.74c0-1.579,1.279-2.857,2.856-2.857c1.578,0,2.858,1.278,2.858,2.857V408.063z M565.077,419.002
		c0,1.577-1.28,2.856-2.858,2.856c-1.577,0-2.856-1.279-2.856-2.856v-2.742c0-1.568,1.279-2.849,2.856-2.849
		c1.578,0,2.858,1.28,2.858,2.849V419.002z M565.077,429.94c0,1.578-1.28,2.856-2.858,2.856c-1.577,0-2.856-1.278-2.856-2.856
		v-2.741c0-1.57,1.279-2.849,2.856-2.849c1.578,0,2.858,1.278,2.858,2.849V429.94z M565.077,440.88c0,1.577-1.28,2.852-2.858,2.852
		c-1.577,0-2.856-1.274-2.856-2.852v-2.733c0-1.578,1.279-2.857,2.856-2.857c1.578,0,2.858,1.279,2.858,2.857V440.88z
		 M565.077,451.822c0,1.578-1.28,2.857-2.858,2.857c-1.577,0-2.856-1.279-2.856-2.857v-2.741c0-1.577,1.279-2.857,2.856-2.857
		c1.578,0,2.858,1.28,2.858,2.857V451.822z M565.077,462.753c0,1.578-1.28,2.856-2.858,2.856c-1.577,0-2.856-1.278-2.856-2.856
		v-2.725c0-1.578,1.279-2.856,2.856-2.856c1.578,0,2.858,1.278,2.858,2.856V462.753z M565.077,473.7c0,1.577-1.28,2.857-2.858,2.857
		c-1.577,0-2.856-1.28-2.856-2.857v-2.742c0-1.577,1.279-2.856,2.856-2.856c1.578,0,2.858,1.279,2.858,2.856V473.7z
		 M565.077,484.631c0,1.578-1.28,2.856-2.858,2.856c-1.577,0-2.856-1.278-2.856-2.856v-2.725c0-1.579,1.279-2.857,2.856-2.857
		c1.578,0,2.858,1.278,2.858,2.857V484.631z M565.077,495.578c0,1.577-1.28,2.856-2.858,2.856c-1.577,0-2.856-1.279-2.856-2.856
		v-2.742c0-1.577,1.279-2.856,2.856-2.856c1.578,0,2.858,1.279,2.858,2.856V495.578z M565.077,506.508
		c0,1.579-1.28,2.857-2.858,2.857c-1.577,0-2.856-1.278-2.856-2.857v-2.724c0-1.579,1.279-2.857,2.856-2.857
		c1.578,0,2.858,1.278,2.858,2.857V506.508z M565.077,517.456c0,1.577-1.28,2.856-2.858,2.856c-1.577,0-2.856-1.279-2.856-2.856
		v-2.742c0-1.577,1.279-2.856,2.856-2.856c1.578,0,2.858,1.279,2.858,2.856V517.456z M563.889,529.415
		c-0.631,1.429-2.325,2.094-3.77,1.463c-1.438-0.631-2.094-2.325-1.479-3.721l0.282-0.731l0.199-0.697l0.117-0.549
		c0.258-1.545,1.719-2.608,3.271-2.358c1.563,0.265,2.617,1.728,2.352,3.355l-0.24,1.112l-0.284,0.948L564.056,529L563.889,529.415z
		 M553.706,537.738c-1.536,0.315-3.056-0.665-3.382-2.209c-0.322-1.545,0.667-3.057,2.244-3.39l0.498-0.133l0.73-0.231l0.666-0.3
		c1.42-0.681,3.131-0.083,3.811,1.346c0.689,1.412,0.092,3.123-1.361,3.82l-0.922,0.399l-0.923,0.332l-1.029,0.282L553.706,537.738z
		 M542.203,538.054c-1.579,0-2.857-1.279-2.857-2.856c0-1.579,1.278-2.858,2.857-2.858h2.732c1.578,0,2.856,1.279,2.856,2.858
		c0,1.577-1.278,2.856-2.856,2.856H542.203z M531.264,538.054c-1.578,0-2.857-1.279-2.857-2.856c0-1.579,1.279-2.858,2.857-2.858
		h2.732c1.578,0,2.857,1.279,2.857,2.858c0,1.577-1.279,2.856-2.857,2.856H531.264z M520.324,538.054
		c-1.576,0-2.856-1.279-2.856-2.856c0-1.579,1.28-2.858,2.856-2.858h2.732c1.579,0,2.858,1.279,2.858,2.858
		c0,1.577-1.279,2.856-2.858,2.856H520.324z M509.377,538.054c-1.577,0-2.856-1.279-2.856-2.856c0-1.579,1.279-2.858,2.856-2.858
		h2.742c1.578,0,2.857,1.279,2.857,2.858c0,1.577-1.279,2.856-2.857,2.856H509.377z M498.439,538.054
		c-1.578,0-2.858-1.279-2.858-2.856c0-1.579,1.28-2.858,2.858-2.858h2.74c1.57,0,2.857,1.279,2.857,2.858
		c0,1.577-1.287,2.856-2.857,2.856H498.439z M487.5,538.054c-1.57,0-2.857-1.279-2.857-2.856c0-1.579,1.287-2.858,2.857-2.858h2.74
		c1.571,0,2.857,1.279,2.857,2.858c0,1.577-1.286,2.856-2.857,2.856H487.5z M476.561,538.054c-1.578,0-2.856-1.279-2.856-2.856
		c0-1.579,1.278-2.858,2.856-2.858h2.732c1.579,0,2.867,1.279,2.867,2.858c0,1.577-1.288,2.856-2.867,2.856H476.561z
		 M465.621,538.054c-1.576,0-2.855-1.279-2.855-2.856c0-1.579,1.279-2.858,2.855-2.858h2.732c1.579,0,2.859,1.279,2.859,2.858
		c0,1.577-1.28,2.856-2.859,2.856H465.621z M454.684,538.054c-1.578,0-2.857-1.279-2.857-2.856c0-1.579,1.279-2.858,2.857-2.858
		h2.74c1.57,0,2.85,1.279,2.85,2.858c0,1.577-1.279,2.856-2.85,2.856H454.684z M443.745,538.054c-1.579,0-2.858-1.279-2.858-2.856
		c0-1.579,1.279-2.858,2.858-2.858h2.732c1.579,0,2.856,1.279,2.856,2.858c0,1.577-1.277,2.856-2.856,2.856H443.745z
		 M432.806,538.054c-1.579,0-2.856-1.279-2.856-2.856c0-1.579,1.277-2.858,2.856-2.858h2.732c1.579,0,2.856,1.279,2.856,2.858
		c0,1.577-1.277,2.856-2.856,2.856H432.806z M421.866,538.054c-1.577,0-2.856-1.279-2.856-2.856c0-1.579,1.279-2.858,2.856-2.858
		h2.732c1.579,0,2.858,1.279,2.858,2.858c0,1.577-1.279,2.856-2.858,2.856H421.866z M410.928,538.054
		c-1.577,0-2.857-1.279-2.857-2.856c0-1.579,1.28-2.858,2.857-2.858h2.732c1.579,0,2.858,1.279,2.858,2.858
		c0,1.577-1.279,2.856-2.858,2.856H410.928z M399.99,538.054c-1.579,0-2.858-1.279-2.858-2.856c0-1.579,1.279-2.858,2.858-2.858
		h2.732c1.578,0,2.856,1.279,2.856,2.858c0,1.577-1.278,2.856-2.856,2.856H399.99z M389.042,538.054
		c-1.57,0-2.849-1.279-2.849-2.856c0-1.579,1.278-2.858,2.849-2.858h2.741c1.578,0,2.856,1.279,2.856,2.858
		c0,1.577-1.278,2.856-2.856,2.856H389.042z M378.104,538.054c-1.57,0-2.85-1.279-2.85-2.856c0-1.579,1.279-2.858,2.85-2.858h2.74
		c1.578,0,2.857,1.279,2.857,2.858c0,1.577-1.279,2.856-2.857,2.856H378.104z M367.173,538.054c-1.577,0-2.865-1.279-2.865-2.856
		c0-1.579,1.288-2.858,2.865-2.858h2.732c1.579,0,2.858,1.279,2.858,2.858c0,1.577-1.279,2.856-2.858,2.856H367.173z
		 M356.225,538.054c-1.577,0-2.856-1.279-2.856-2.856c0-1.579,1.279-2.858,2.856-2.858h2.742c1.569,0,2.857,1.279,2.857,2.858
		c0,1.577-1.288,2.856-2.857,2.856H356.225z M345.287,538.054c-1.57,0-2.858-1.279-2.858-2.856c0-1.579,1.288-2.858,2.858-2.858
		h2.74c1.569,0,2.857,1.279,2.857,2.858c0,1.577-1.288,2.856-2.857,2.856H345.287z M334.349,538.054
		c-1.579,0-2.858-1.279-2.858-2.856c0-1.579,1.279-2.858,2.858-2.858h2.739c1.57,0,2.858,1.279,2.858,2.858
		c0,1.577-1.288,2.856-2.858,2.856H334.349z M323.409,538.054c-1.579,0-2.856-1.279-2.856-2.856c0-1.579,1.277-2.858,2.856-2.858
		h2.732c1.579,0,2.856,1.279,2.856,2.858c0,1.577-1.277,2.856-2.856,2.856H323.409z M312.47,538.054
		c-1.577,0-2.856-1.279-2.856-2.856c0-1.579,1.279-2.858,2.856-2.858h2.741c1.57,0,2.85,1.279,2.85,2.858
		c0,1.577-1.279,2.856-2.85,2.856H312.47z M301.531,538.054c-1.577,0-2.857-1.279-2.857-2.856c0-1.579,1.28-2.858,2.857-2.858h2.732
		c1.578,0,2.858,1.279,2.858,2.858c0,1.577-1.28,2.856-2.858,2.856H301.531z M290.594,538.054c-1.579,0-2.858-1.279-2.858-2.856
		c0-1.579,1.279-2.858,2.858-2.858h2.732c1.576,0,2.856,1.279,2.856,2.858c0,1.577-1.28,2.856-2.856,2.856H290.594z
		 M279.654,538.054c-1.579,0-2.857-1.279-2.857-2.856c0-1.579,1.278-2.858,2.857-2.858h2.732c1.578,0,2.856,1.279,2.856,2.858
		c0,1.577-1.278,2.856-2.856,2.856H279.654z M268.715,538.054c-1.578,0-2.857-1.279-2.857-2.856c0-1.579,1.279-2.858,2.857-2.858
		h2.732c1.578,0,2.857,1.279,2.857,2.858c0,1.577-1.279,2.856-2.857,2.856H268.715z M256.713,536.709
		c-1.42-0.682-2.035-2.376-1.371-3.805c0.674-1.429,2.384-2.043,3.805-1.379l0.631,0.266l0.416,0.149l0.556,0.15l0.323,0.083
		c1.555,0.299,2.559,1.811,2.252,3.355c-0.307,1.544-1.818,2.558-3.373,2.242l-1.014-0.249l-1.121-0.35l-0.896-0.382
		L256.713,536.709z M248.665,526.309c-0.274-1.544,0.739-3.039,2.283-3.321c1.554-0.299,3.058,0.731,3.339,2.292l0.117,0.549
		l0.115,0.398l0.183,0.548l0.183,0.415c0.657,1.429,0.033,3.14-1.395,3.805c-1.43,0.647-3.132,0.033-3.779-1.363l-0.324-0.779
		l-0.29-0.814l-0.291-1.03L248.665,526.309z M248.424,514.864c0-1.579,1.279-2.857,2.856-2.857c1.578,0,2.858,1.278,2.858,2.857
		v2.74c0,1.579-1.28,2.857-2.858,2.857c-1.577,0-2.856-1.278-2.856-2.857V514.864z M248.424,503.933
		c0-1.577,1.279-2.856,2.856-2.856c1.578,0,2.858,1.279,2.858,2.856v2.726c0,1.577-1.28,2.856-2.858,2.856
		c-1.577,0-2.856-1.279-2.856-2.856V503.933z M248.424,492.986c0-1.578,1.279-2.856,2.856-2.856c1.578,0,2.858,1.278,2.858,2.856
		v2.74c0,1.579-1.28,2.857-2.858,2.857c-1.577,0-2.856-1.278-2.856-2.857V492.986z M248.424,482.039
		c0-1.562,1.279-2.841,2.856-2.841c1.578,0,2.858,1.279,2.858,2.841v2.741c0,1.577-1.28,2.857-2.858,2.857
		c-1.577,0-2.856-1.28-2.856-2.857V482.039z M248.424,471.108c0-1.578,1.279-2.856,2.856-2.856c1.578,0,2.858,1.278,2.858,2.856
		v2.741c0,1.562-1.28,2.856-2.858,2.856c-1.577,0-2.856-1.295-2.856-2.856V471.108z M248.424,460.161
		c0-1.562,1.279-2.857,2.856-2.857c1.578,0,2.858,1.296,2.858,2.857v2.741c0,1.578-1.28,2.857-2.858,2.857
		c-1.577,0-2.856-1.279-2.856-2.857V460.161z M248.424,449.23c0-1.578,1.279-2.856,2.856-2.856c1.578,0,2.858,1.278,2.858,2.856
		v2.741c0,1.562-1.28,2.841-2.858,2.841c-1.577,0-2.856-1.279-2.856-2.841V449.23z M248.424,438.288
		c0-1.579,1.279-2.857,2.856-2.857c1.578,0,2.858,1.278,2.858,2.857v2.74c0,1.57-1.28,2.854-2.858,2.854
		c-1.577,0-2.856-1.283-2.856-2.854V438.288z M248.424,427.349c0-1.577,1.279-2.857,2.856-2.857c1.578,0,2.858,1.28,2.858,2.857
		v2.732c0,1.578-1.28,2.858-2.858,2.858c-1.577,0-2.856-1.28-2.856-2.858V427.349z M248.424,416.41c0-1.578,1.279-2.856,2.856-2.856
		c1.578,0,2.858,1.278,2.858,2.856v2.732c0,1.579-1.28,2.857-2.858,2.857c-1.577,0-2.856-1.278-2.856-2.857V416.41z
		 M248.424,405.471c0-1.577,1.279-2.856,2.856-2.856c1.578,0,2.858,1.279,2.858,2.856v2.732c0,1.579-1.28,2.858-2.858,2.858
		c-1.577,0-2.856-1.279-2.856-2.858V405.471z M248.424,394.533c0-1.579,1.279-2.857,2.856-2.857c1.578,0,2.858,1.279,2.858,2.857
		v2.732c0,1.578-1.28,2.857-2.858,2.857c-1.577,0-2.856-1.28-2.856-2.857V394.533z M254.013,382.738
		c1.238-0.963,3.041-0.74,4.004,0.506c0.964,1.246,0.739,3.04-0.523,4.021l-0.382,0.315l-0.531,0.506l-0.398,0.44l-0.158,0.19
		c-0.998,1.213-2.791,1.404-4.012,0.407c-1.222-0.988-1.412-2.799-0.415-4.02l0.706-0.814l0.715-0.706l0.596-0.532L254.013,382.738z
		 M262.769,385.454c-1.579,0-2.858-1.279-2.858-2.857c0-1.578,1.279-2.857,2.858-2.857h2.732c1.577,0,2.856,1.28,2.856,2.857
		c0,1.578-1.279,2.857-2.856,2.857H262.769z"/>
	<path fill="#BCC2C6" d="M430.164,481.773h-44.412c-1.709,0-3.264,0.698-4.393,1.827c-1.121,1.13-1.827,2.674-1.827,4.385
		s0.696,3.273,1.817,4.387l0.01,0.016c1.121,1.113,2.674,1.812,4.393,1.812h44.412c1.712,0,3.265-0.698,4.387-1.827
		c1.129-1.13,1.834-2.676,1.834-4.387s-0.705-3.255-1.827-4.385C433.429,482.472,431.876,481.773,430.164,481.773 M385.752,475.693
		h44.412c3.381,0,6.454,1.379,8.68,3.604l0.009,0.017c2.233,2.226,3.613,5.3,3.613,8.671c0,3.39-1.38,6.462-3.613,8.688
		c-2.226,2.243-5.298,3.621-8.688,3.621h-44.412c-3.371,0-6.451-1.378-8.679-3.621h-0.009h-0.008
		c-2.227-2.243-3.613-5.315-3.613-8.688c0-3.388,1.387-6.462,3.613-8.688S382.363,475.693,385.752,475.693z"/>
	<path fill="#34495E" d="M383.337,470.659h44.411c3.381,0,6.453,1.38,8.68,3.605l0.016,0.017c2.227,2.226,3.605,5.299,3.605,8.671
		v0.018c0,3.372-1.379,6.462-3.605,8.688c-2.234,2.227-5.308,3.604-8.695,3.604h-44.411c-3.373,0-6.446-1.378-8.681-3.604
		l-0.008-0.017h-0.009c-2.226-2.227-3.604-5.299-3.604-8.671v-0.018c0-3.372,1.379-6.445,3.604-8.688
		C376.875,472.039,379.947,470.659,383.337,470.659"/>
	<path fill="#27CABF" d="M427.748,474.314c2.299,0,4.492,0.914,6.113,2.542c1.618,1.611,2.533,3.804,2.533,6.113
		c0,2.292-0.922,4.468-2.543,6.096c-1.618,1.628-3.805,2.542-6.104,2.542h-44.411c-2.294,0-4.485-0.914-6.105-2.525l-0.009-0.017
		c-1.629-1.628-2.524-3.804-2.524-6.113c0-2.292,0.913-4.468,2.533-6.096s3.804-2.542,6.105-2.542H427.748z"/>
	<path fill="#51F4E9" d="M427.748,474.314c2.299,0,4.492,0.914,6.113,2.542c1.618,1.611,2.533,3.804,2.533,6.113
		c0,0.581-0.066,1.162-0.184,1.728c-0.332-1.646-1.146-3.157-2.35-4.37c-1.621-1.611-3.814-2.524-6.113-2.524h-44.411
		c-2.302,0-4.485,0.913-6.105,2.542c-1.204,1.195-2.019,2.725-2.36,4.369c-0.114-0.582-0.173-1.163-0.173-1.762
		c0-2.292,0.913-4.468,2.533-6.096s3.804-2.542,6.105-2.542H427.748z"/>
	<path fill-rule="evenodd" clip-rule="evenodd" fill="#BCC2C6" d="M406.75,417.498l4.145,4.145l7.559,7.559
		c1.139,1.138,1.139,3.007,0,4.145c-1.137,1.138-3.006,1.138-4.145,0l-4.627-4.626v18.833h-5.863v-18.842l-4.635,4.635
		c-1.139,1.138-2.998,1.138-4.136,0c-1.147-1.138-1.147-3.007,0-4.145l7.558-7.559L406.75,417.498z"/>
	<!-- <path fill-rule="evenodd" clip-rule="evenodd" fill="#94A4A5" d="M492.211,228.838c-1.164-2.359-3.64-3.041-6.023-3.041
		c-2.824,0.017-5.93,1.313-5.93,4.469c0,3.439,2.883,4.27,6.014,4.635c2.043,0.225,3.547,0.814,3.547,2.26
		c0,1.661-1.703,2.301-3.523,2.301c-1.859,0-3.629-0.748-4.31-2.434l-2.409,1.254c1.138,2.799,3.547,3.763,6.678,3.763
		c3.414,0,6.438-1.47,6.438-4.884c0-3.655-2.981-4.485-6.181-4.884c-1.834-0.216-3.413-0.59-3.413-1.927
		c0-1.138,1.03-2.035,3.174-2.035c1.669,0,3.113,0.831,3.639,1.711L492.211,228.838z M476.12,238.805h-8.603v-3.463h8.295v-2.691
		h-8.295v-3.546h8.603v-2.808h-11.47c0,5.117,0,10.25,0,15.35h11.47V238.805z M450.248,226.296v15.35h10.773v-2.666h-7.883v-12.684
		H450.248z M445.896,241.646v-15.35h-2.867v15.35H445.896z M431.037,241.646v-5.665h7.682v-2.674h-7.682v-4.186h8.123v-2.774
		h-11.014v15.3H431.037z M409.367,229.038h3.156c3.322,0,4.725,2.392,4.793,4.785c0.065,2.5-1.314,5.05-4.793,5.05h-3.156V229.038z
		 M412.523,226.296c-1.887,0-4.145,0-6.022,0v15.35c1.878,0,4.136,0,6.022,0c5.357,0,7.725-3.912,7.658-7.799
		C420.114,230.043,417.772,226.296,412.523,226.296z M397.68,236.064h-5.689l2.842-6.537L397.68,236.064z M400.131,241.646h3.156
		l-6.878-15.35h-3.147l-6.879,15.35h3.132l1.313-2.882h8.015L400.131,241.646z M376.342,228.647c3.613,0,5.051,2.882,5.008,5.465
		c-0.039,2.525-1.395,5.241-5.008,5.241s-4.975-2.699-5.041-5.216C371.234,231.555,372.729,228.647,376.342,228.647z
		 M376.342,226.015c-5.307,0-7.881,4.053-7.881,8.081s2.492,7.907,7.881,7.907c5.384,0,7.816-3.97,7.857-7.932
		C384.242,230.067,381.617,226.015,376.342,226.015z M355.154,226.296v15.35h10.771v-2.666h-7.881v-12.684H355.154z
		 M345.942,226.296c-2.409-0.016-4.817,0-7.226,0v15.35h2.891v-4.51h4.335C353.451,237.136,353.427,226.296,345.942,226.296z
		 M341.607,229.063h4.335c3.672,0,3.696,5.432,0,5.432h-4.335V229.063z M331.383,226.346v8.78c0,2.625-1.354,4.228-3.746,4.228
		c-2.385,0-3.953-1.47-3.953-4.228v-8.78h-2.875v8.78c0,4.618,3.132,6.853,6.811,6.853c3.855,0,6.638-2.317,6.638-6.853v-8.78
		H331.383z"/> -->
</g>
</svg>
