<?xml version="1.0" encoding="utf-8"?>
<!-- Generator: Adobe Illustrator 15.1.0, SVG Export Plug-In . SVG Version: 6.00 Build 0)  -->
<!DOCTYPE svg PUBLIC "-//W3C//DTD SVG 1.0//EN" "http://www.w3.org/TR/2001/REC-SVG-20010904/DTD/svg10.dtd">
<svg version="1.0" id="Layer_1" xmlns="http://www.w3.org/2000/svg" xmlns:xlink="http://www.w3.org/1999/xlink" x="0px" y="0px"
	 width="800px" height="800px" viewBox="184.94400024414062 206.56199645996094 419.5149841308594 376.57000732421875" enable-background="new 0 0 800 800" xml:space="preserve">
<g>
	<!-- <path fill="#BCC2C6" d="M201.1,206.562h387.203c4.443,0,8.488,1.819,11.413,4.743v0.017c2.923,2.923,4.743,6.96,4.743,11.396
		v344.267c0,4.436-1.82,8.472-4.743,11.396v0.017c-2.925,2.924-6.97,4.734-11.413,4.734H201.1c-4.451,0-8.488-1.811-11.413-4.734
		v-0.017c-2.923-2.924-4.743-6.96-4.743-11.396V222.717c0-4.436,1.82-8.472,4.743-11.396v-0.017
		C192.611,208.381,196.648,206.562,201.1,206.562"/>
	<path fill="#EBEFF0" d="M598.594,222.717v344.267c0,6.495-4.52,10.299-10.291,10.299H201.1c-5.766,0-10.292-3.704-10.292-10.299
		V222.717c0-6.719,4.543-10.291,10.292-10.291h387.203C594.068,212.426,598.594,216.113,598.594,222.717"/> -->
	<path fill="#BCC2C6" d="M198.965,253.864h391.473c3.863,0,7.367,1.57,9.9,4.112c2.542,2.533,4.121,6.046,4.121,9.9v301.25
		c0,3.854-1.579,7.359-4.121,9.9c-2.533,2.543-6.037,4.104-9.9,4.104H198.965c-3.854,0-7.367-1.561-9.901-4.104
		c-2.541-2.541-4.12-6.047-4.12-9.9v-301.25c0-3.854,1.579-7.367,4.12-9.9C191.598,255.434,195.11,253.864,198.965,253.864"/>
	<path fill-rule="evenodd" clip-rule="evenodd" fill="#FFFFFF" d="M198.965,259.719c-2.168,0-4.229,0.864-5.765,2.401
		c-1.528,1.528-2.399,3.596-2.399,5.756v301.25c0,2.16,0.871,4.22,2.399,5.748c1.536,1.544,3.597,2.408,5.765,2.408h391.473
		c2.168,0,4.228-0.864,5.756-2.408c1.535-1.528,2.4-3.588,2.4-5.748v-301.25c0-2.168-0.865-4.228-2.4-5.756
		c-1.528-1.537-3.596-2.401-5.756-2.401H198.965z"/>
	<!-- <path fill-rule="evenodd" clip-rule="evenodd" fill="#94A4A5" d="M540.053,226.455c4.121,0,7.469,3.347,7.469,7.467
		c0,4.119-3.34,7.458-7.469,7.458c-4.118,0-7.458-3.339-7.458-7.458C532.595,229.802,535.935,226.455,540.053,226.455
		 M563.493,226.455c4.12,0,7.458,3.347,7.458,7.467c0,4.119-3.338,7.458-7.458,7.458s-7.467-3.339-7.467-7.458
		C556.026,229.802,559.373,226.455,563.493,226.455z M516.623,226.455c4.119,0,7.459,3.347,7.459,7.467
		c0,4.119-3.34,7.458-7.459,7.458c-4.12,0-7.467-3.339-7.467-7.458C509.156,229.802,512.503,226.455,516.623,226.455z"/> -->
	<path fill-rule="evenodd" clip-rule="evenodd" fill="#34495E" d="M233.417,301.573h140.859c4.22,0,7.676,3.455,7.676,7.683v84.487
		c0,4.228-3.456,7.675-7.676,7.675H233.417c-4.228,0-7.683-3.447-7.683-7.675v-84.487
		C225.734,305.028,229.189,301.573,233.417,301.573"/>
	<path fill="#22A6EF" d="M233.417,307.437h140.859c0.997,0,1.819,0.814,1.819,1.819v84.487c0,0.997-0.822,1.819-1.819,1.819H233.417
		c-1.005,0-1.819-0.822-1.819-1.819v-84.487C231.598,308.251,232.412,307.437,233.417,307.437"/>
	<path fill-rule="evenodd" clip-rule="evenodd" fill="#BCC2C6" d="M550.637,400.438c-1.139,0-2.078-0.939-2.078-2.084
		c0-1.138,0.939-2.077,2.078-2.077h1.187c1.146,0,2.077,0.939,2.077,2.077c0,1.146-0.931,2.084-2.077,2.084H550.637z
		 M543.551,400.438c-1.146,0-2.076-0.939-2.076-2.084c0-1.138,0.93-2.077,2.076-2.077h1.18c1.146,0,2.076,0.939,2.076,2.077
		c0,1.146-0.93,2.084-2.076,2.084H543.551z M536.466,400.438c-1.146,0-2.084-0.939-2.084-2.084c0-1.138,0.938-2.077,2.084-2.077
		h1.179c1.146,0,2.078,0.939,2.078,2.077c0,1.146-0.932,2.084-2.078,2.084H536.466z M529.372,400.438
		c-1.146,0-2.076-0.939-2.076-2.084c0-1.138,0.931-2.077,2.076-2.077h1.18c1.147,0,2.077,0.939,2.077,2.077
		c0,1.146-0.93,2.084-2.077,2.084H529.372z M522.289,400.438c-1.147,0-2.078-0.939-2.078-2.084c0-1.138,0.931-2.077,2.078-2.077
		h1.178c1.146,0,2.077,0.939,2.077,2.077c0,1.146-0.931,2.084-2.077,2.084H522.289z M515.194,400.438
		c-1.146,0-2.077-0.939-2.077-2.084c0-1.138,0.932-2.077,2.077-2.077h1.179c1.155,0,2.085,0.939,2.085,2.077
		c0,1.146-0.93,2.084-2.085,2.084H515.194z M508.109,400.438c-1.146,0-2.076-0.939-2.076-2.084c0-1.138,0.93-2.077,2.076-2.077h1.18
		c1.146,0,2.076,0.939,2.076,2.077c0,1.146-0.93,2.084-2.076,2.084H508.109z M501.018,400.438c-1.139,0-2.078-0.939-2.078-2.084
		c0-1.138,0.939-2.077,2.078-2.077h1.186c1.147,0,2.076,0.939,2.076,2.077c0,1.146-0.929,2.084-2.076,2.084H501.018z
		 M493.932,400.438c-1.147,0-2.076-0.939-2.076-2.084c0-1.138,0.929-2.077,2.076-2.077h1.18c1.146,0,2.076,0.939,2.076,2.077
		c0,1.146-0.931,2.084-2.076,2.084H493.932z M486.847,400.438c-1.146,0-2.077-0.939-2.077-2.084c0-1.138,0.932-2.077,2.077-2.077
		h1.179c1.146,0,2.076,0.939,2.076,2.077c0,1.146-0.93,2.084-2.076,2.084H486.847z M479.752,400.438
		c-1.145,0-2.075-0.939-2.075-2.084c0-1.138,0.931-2.077,2.075-2.077h1.181c1.147,0,2.085,0.939,2.085,2.077
		c0,1.146-0.938,2.084-2.085,2.084H479.752z M472.668,400.438c-1.146,0-2.076-0.939-2.076-2.084c0-1.138,0.931-2.077,2.076-2.077
		h1.18c1.146,0,2.077,0.939,2.077,2.077c0,1.146-0.931,2.084-2.077,2.084H472.668z M465.575,400.438
		c-1.146,0-2.077-0.939-2.077-2.084c0-1.138,0.932-2.077,2.077-2.077h1.188c1.146,0,2.075,0.939,2.075,2.077
		c0,1.146-0.93,2.084-2.075,2.084H465.575z M458.49,400.438c-1.146,0-2.076-0.939-2.076-2.084c0-1.138,0.93-2.077,2.076-2.077h1.18
		c1.145,0,2.076,0.939,2.076,2.077c0,1.146-0.932,2.084-2.076,2.084H458.49z M451.404,400.438c-1.145,0-2.084-0.939-2.084-2.084
		c0-1.138,0.939-2.077,2.084-2.077h1.18c1.147,0,2.076,0.939,2.076,2.077c0,1.146-0.929,2.084-2.076,2.084H451.404z
		 M444.313,400.438c-1.147,0-2.076-0.939-2.076-2.084c0-1.138,0.929-2.077,2.076-2.077h1.18c1.146,0,2.076,0.939,2.076,2.077
		c0,1.146-0.931,2.084-2.076,2.084H444.313z M437.227,400.438c-1.145,0-2.076-0.939-2.076-2.084c0-1.138,0.932-2.077,2.076-2.077
		h1.18c1.146,0,2.076,0.939,2.076,2.077c0,1.146-0.93,2.084-2.076,2.084H437.227z M430.133,400.438
		c-1.145,0-2.075-0.939-2.075-2.084c0-1.138,0.931-2.077,2.075-2.077h1.181c1.153,0,2.085,0.939,2.085,2.077
		c0,1.146-0.932,2.084-2.085,2.084H430.133z M423.049,400.438c-1.146,0-2.076-0.939-2.076-2.084c0-1.138,0.931-2.077,2.076-2.077
		h1.179c1.147,0,2.078,0.939,2.078,2.077c0,1.146-0.931,2.084-2.078,2.084H423.049z M417.301,396.168l0.242,0.058
		c1.128,0.225,1.859,1.304,1.645,2.426c-0.217,1.129-1.305,1.869-2.484,1.644l-1.104-0.332l-0.474-0.2
		c-1.03-0.498-1.461-1.744-0.963-2.774c0.488-1.038,1.744-1.47,2.748-0.98L417.301,396.168z M411.354,391.816
		c0-1.154,0.931-2.085,2.078-2.085c1.146,0,2.075,0.931,2.075,2.085v1.179c0,1.146-0.93,2.076-2.075,2.076
		c-1.147,0-2.078-0.93-2.078-2.076V391.816z M411.354,384.723c0-1.146,0.931-2.077,2.078-2.077c1.146,0,2.075,0.93,2.075,2.077v1.18
		c0,1.146-0.93,2.076-2.075,2.076c-1.147,0-2.078-0.93-2.078-2.076V384.723z M411.354,377.639c0-1.146,0.931-2.077,2.078-2.077
		c1.146,0,2.075,0.931,2.075,2.077v1.179c0,1.146-0.93,2.076-2.075,2.076c-1.147,0-2.078-0.93-2.078-2.076V377.639z
		 M411.354,370.545c0-1.146,0.931-2.076,2.078-2.076c1.146,0,2.075,0.93,2.075,2.076v1.179c0,1.155-0.93,2.085-2.075,2.085
		c-1.147,0-2.078-0.931-2.078-2.085V370.545z M411.354,363.46c0-1.146,0.931-2.077,2.078-2.077c1.146,0,2.075,0.931,2.075,2.077
		v1.18c0,1.146-0.93,2.076-2.075,2.076c-1.147,0-2.078-0.93-2.078-2.076V363.46z M411.354,356.367c0-1.138,0.931-2.077,2.078-2.077
		c1.146,0,2.075,0.939,2.075,2.077v1.188c0,1.146-0.93,2.076-2.075,2.076c-1.147,0-2.078-0.93-2.078-2.076V356.367z
		 M411.354,349.282c0-1.146,0.931-2.076,2.078-2.076c1.146,0,2.075,0.93,2.075,2.076v1.18c0,1.146-0.93,2.076-2.075,2.076
		c-1.147,0-2.078-0.931-2.078-2.076V349.282z M411.354,342.197c0-1.146,0.931-2.085,2.078-2.085c1.146,0,2.075,0.938,2.075,2.085
		v1.179c0,1.146-0.93,2.076-2.075,2.076c-1.147,0-2.078-0.93-2.078-2.076V342.197z M411.354,335.104
		c0-1.146,0.931-2.077,2.078-2.077c1.146,0,2.075,0.93,2.075,2.077v1.188c0,1.138-0.93,2.077-2.075,2.077
		c-1.147,0-2.078-0.938-2.078-2.077V335.104z M411.354,328.019c0-1.146,0.931-2.076,2.078-2.076c1.146,0,2.075,0.931,2.075,2.076
		v1.18c0,1.146-0.93,2.077-2.075,2.077c-1.147,0-2.078-0.931-2.078-2.077V328.019z M411.354,320.926
		c0-1.146,0.931-2.077,2.078-2.077c1.146,0,2.075,0.93,2.075,2.077v1.188c0,1.146-0.93,2.076-2.075,2.076
		c-1.147,0-2.078-0.93-2.078-2.076V320.926z M411.354,313.841c0-1.146,0.931-2.077,2.078-2.077c1.146,0,2.075,0.93,2.075,2.077
		v1.179c0,1.146-0.93,2.077-2.075,2.077c-1.147,0-2.078-0.93-2.078-2.077V313.841z M412.316,305.801
		c0.592-0.98,1.879-1.296,2.859-0.698c0.972,0.589,1.285,1.869,0.697,2.84l-0.157,0.299l-0.109,0.324
		c-0.34,1.088-1.495,1.703-2.591,1.371c-1.098-0.333-1.719-1.495-1.389-2.566l0.376-0.98L412.316,305.801z M420.383,302.553
		c1.146,0,2.076,0.939,2.076,2.085c0,1.138-0.93,2.077-2.076,2.077h-1.18c-1.146,0-2.075-0.938-2.075-2.077
		c0-1.146,0.929-2.085,2.075-2.085H420.383z M427.477,302.553c1.146,0,2.075,0.939,2.075,2.085c0,1.138-0.929,2.077-2.075,2.077
		h-1.188c-1.146,0-2.077-0.938-2.077-2.077c0-1.146,0.932-2.085,2.077-2.085H427.477z M434.561,302.553
		c1.146,0,2.077,0.939,2.077,2.085c0,1.138-0.931,2.077-2.077,2.077h-1.179c-1.147,0-2.077-0.938-2.077-2.077
		c0-1.146,0.93-2.085,2.077-2.085H434.561z M441.654,302.553c1.138,0,2.068,0.939,2.068,2.085c0,1.138-0.931,2.077-2.068,2.077
		h-1.188c-1.146,0-2.077-0.938-2.077-2.077c0-1.146,0.931-2.085,2.077-2.085H441.654z M448.739,302.553
		c1.146,0,2.077,0.939,2.077,2.085c0,1.138-0.932,2.077-2.077,2.077h-1.18c-1.146,0-2.077-0.938-2.077-2.077
		c0-1.146,0.932-2.085,2.077-2.085H448.739z M455.824,302.553c1.146,0,2.085,0.939,2.085,2.085c0,1.138-0.938,2.077-2.085,2.077
		h-1.18c-1.146,0-2.076-0.938-2.076-2.077c0-1.146,0.93-2.085,2.076-2.085H455.824z M462.916,302.553
		c1.147,0,2.078,0.939,2.078,2.085c0,1.138-0.931,2.077-2.078,2.077h-1.178c-1.146,0-2.086-0.938-2.086-2.077
		c0-1.146,0.939-2.085,2.086-2.085H462.916z M470.002,302.553c1.146,0,2.076,0.939,2.076,2.085c0,1.138-0.93,2.077-2.076,2.077
		h-1.18c-1.146,0-2.075-0.938-2.075-2.077c0-1.146,0.929-2.085,2.075-2.085H470.002z M477.096,302.553
		c1.137,0,2.075,0.939,2.075,2.085c0,1.138-0.938,2.077-2.075,2.077h-1.188c-1.146,0-2.078-0.938-2.078-2.077
		c0-1.146,0.932-2.085,2.078-2.085H477.096z M484.182,302.553c1.145,0,2.075,0.939,2.075,2.085c0,1.138-0.931,2.077-2.075,2.077
		h-1.181c-1.147,0-2.085-0.938-2.085-2.077c0-1.146,0.938-2.085,2.085-2.085H484.182z M491.265,302.553
		c1.146,0,2.085,0.939,2.085,2.085c0,1.138-0.938,2.077-2.085,2.077h-1.179c-1.146,0-2.077-0.938-2.077-2.077
		c0-1.146,0.931-2.085,2.077-2.085H491.265z M498.358,302.553c1.146,0,2.077,0.939,2.077,2.085c0,1.138-0.932,2.077-2.077,2.077
		h-1.188c-1.137,0-2.068-0.938-2.068-2.077c0-1.146,0.932-2.085,2.068-2.085H498.358z M505.443,302.553
		c1.146,0,2.076,0.939,2.076,2.085c0,1.138-0.93,2.077-2.076,2.077h-1.18c-1.146,0-2.076-0.938-2.076-2.077
		c0-1.146,0.93-2.085,2.076-2.085H505.443z M512.535,302.553c1.147,0,2.078,0.939,2.078,2.085c0,1.138-0.931,2.077-2.078,2.077
		h-1.178c-1.155,0-2.086-0.938-2.086-2.077c0-1.146,0.931-2.085,2.086-2.085H512.535z M519.621,302.553
		c1.147,0,2.076,0.939,2.076,2.085c0,1.138-0.929,2.077-2.076,2.077h-1.18c-1.146,0-2.075-0.938-2.075-2.077
		c0-1.146,0.93-2.085,2.075-2.085H519.621z M526.715,302.553c1.137,0,2.068,0.939,2.068,2.085c0,1.138-0.932,2.077-2.068,2.077
		h-1.188c-1.146,0-2.076-0.938-2.076-2.077c0-1.146,0.93-2.085,2.076-2.085H526.715z M533.801,302.553
		c1.145,0,2.075,0.939,2.075,2.085c0,1.138-0.931,2.077-2.075,2.077h-1.181c-1.146,0-2.085-0.938-2.085-2.077
		c0-1.146,0.938-2.085,2.085-2.085H533.801z M540.885,302.553c1.146,0,2.084,0.939,2.084,2.085c0,1.138-0.938,2.077-2.084,2.077
		h-1.18c-1.146,0-2.077-0.938-2.077-2.077c0-1.146,0.931-2.085,2.077-2.085H540.885z M547.978,302.553
		c1.146,0,2.077,0.939,2.077,2.085c0,1.138-0.932,2.077-2.077,2.077h-1.188c-1.137,0-2.075-0.938-2.075-2.077
		c0-1.146,0.938-2.085,2.075-2.085H547.978z M555.063,302.553c1.146,0,2.076,0.939,2.076,2.085c0,1.138-0.93,2.077-2.076,2.077
		h-1.18c-1.145,0-2.076-0.938-2.076-2.077c0-1.146,0.932-2.085,2.076-2.085H555.063z M560.486,307.262l-0.166-0.116l-0.15-0.1
		l-0.166-0.083c-1.029-0.499-1.469-1.745-0.971-2.774c0.49-1.03,1.735-1.462,2.766-0.972l0.723,0.407l0.715,0.524
		c0.871,0.739,0.971,2.06,0.232,2.932c-0.739,0.872-2.06,0.972-2.916,0.241L560.486,307.262z M565.604,312.337
		c0,1.146-0.932,2.076-2.076,2.076c-1.147,0-2.077-0.93-2.077-2.076v-1.179c0-1.155,0.93-2.085,2.077-2.085
		c1.145,0,2.076,0.931,2.076,2.085V312.337z M565.604,319.422c0,1.146-0.932,2.077-2.076,2.077c-1.147,0-2.077-0.931-2.077-2.077
		v-1.18c0-1.146,0.93-2.076,2.077-2.076c1.145,0,2.076,0.93,2.076,2.076V319.422z M565.604,326.507c0,1.146-0.932,2.077-2.076,2.077
		c-1.147,0-2.077-0.931-2.077-2.077v-1.179c0-1.146,0.93-2.076,2.077-2.076c1.145,0,2.076,0.93,2.076,2.076V326.507z
		 M565.604,333.601c0,1.146-0.932,2.076-2.076,2.076c-1.147,0-2.077-0.93-2.077-2.076v-1.179c0-1.146,0.93-2.085,2.077-2.085
		c1.145,0,2.076,0.939,2.076,2.085V333.601z M565.604,340.686c0,1.146-0.932,2.076-2.076,2.076c-1.147,0-2.077-0.93-2.077-2.076
		v-1.18c0-1.146,0.93-2.076,2.077-2.076c1.145,0,2.076,0.93,2.076,2.076V340.686z M565.604,347.778c0,1.138-0.932,2.077-2.076,2.077
		c-1.147,0-2.077-0.938-2.077-2.077v-1.188c0-1.146,0.93-2.076,2.077-2.076c1.145,0,2.076,0.93,2.076,2.076V347.778z
		 M565.604,354.864c0,1.146-0.932,2.076-2.076,2.076c-1.147,0-2.077-0.93-2.077-2.076v-1.18c0-1.146,0.93-2.076,2.077-2.076
		c1.145,0,2.076,0.931,2.076,2.076V354.864z M565.604,361.948c0,1.146-0.932,2.085-2.076,2.085c-1.147,0-2.077-0.938-2.077-2.085
		v-1.179c0-1.146,0.93-2.077,2.077-2.077c1.145,0,2.076,0.93,2.076,2.077V361.948z M565.604,369.042
		c0,1.146-0.932,2.077-2.076,2.077c-1.147,0-2.077-0.93-2.077-2.077v-1.188c0-1.138,0.93-2.067,2.077-2.067
		c1.145,0,2.076,0.93,2.076,2.067V369.042z M565.604,376.127c0,1.146-0.932,2.076-2.076,2.076c-1.147,0-2.077-0.931-2.077-2.076
		v-1.18c0-1.146,0.93-2.076,2.077-2.076c1.145,0,2.076,0.93,2.076,2.076V376.127z M565.604,383.22c0,1.146-0.932,2.076-2.076,2.076
		c-1.147,0-2.077-0.93-2.077-2.076v-1.188c0-1.146,0.93-2.076,2.077-2.076c1.145,0,2.076,0.93,2.076,2.076V383.22z M565.604,390.305
		c0,1.146-0.932,2.076-2.076,2.076c-1.147,0-2.077-0.93-2.077-2.076v-1.18c0-1.146,0.93-2.076,2.077-2.076
		c1.145,0,2.076,0.93,2.076,2.076V390.305z M560.105,396.659c0.064-0.407,0.265-0.789,0.572-1.104l0.232-0.258l0.107-0.149
		l0.084-0.124c0.572-0.989,1.828-1.296,2.814-0.723c0.989,0.573,1.33,1.844,0.766,2.816l-0.458,0.689l-0.548,0.623l-0.057,0.058
		c-0.725,0.723-1.854,0.797-2.668,0.233c-0.166,0.972-1.021,1.719-2.043,1.719h-1.18c-1.146,0-2.084-0.939-2.084-2.084
		c0-1.138,0.938-2.077,2.084-2.077h1.18C559.357,396.276,559.764,396.418,560.105,396.659z"/>
	<path fill-rule="evenodd" clip-rule="evenodd" fill="#BCC2C6" d="M488.475,336.466l4.152,4.145l7.559,7.559
		c1.139,1.146,1.139,3.007,0,4.145c-1.138,1.138-3.006,1.138-4.145,0l-4.635-4.635v18.846h-5.855v-18.846l-4.635,4.635
		c-1.138,1.138-3.007,1.138-4.145,0c-1.138-1.138-1.138-2.998,0-4.145l7.566-7.559L488.475,336.466z"/>
	<path fill-rule="evenodd" clip-rule="evenodd" fill="#BCC2C6" d="M366.012,536.227c-1.154,0-2.085-0.93-2.085-2.077
		c0-1.146,0.931-2.075,2.085-2.075h1.18c1.147,0,2.076,0.93,2.076,2.075c0,1.147-0.929,2.077-2.076,2.077H366.012z M358.92,536.227
		c-1.147,0-2.076-0.93-2.076-2.077c0-1.146,0.929-2.075,2.076-2.075h1.18c1.145,0,2.075,0.93,2.075,2.075
		c0,1.147-0.931,2.077-2.075,2.077H358.92z M351.826,536.227c-1.137,0-2.076-0.93-2.076-2.077c0-1.146,0.939-2.075,2.076-2.075
		h1.188c1.146,0,2.076,0.93,2.076,2.075c0,1.147-0.93,2.077-2.076,2.077H351.826z M344.74,536.227c-1.146,0-2.075-0.93-2.075-2.077
		c0-1.146,0.93-2.075,2.075-2.075h1.18c1.147,0,2.086,0.93,2.086,2.075c0,1.147-0.938,2.077-2.086,2.077H344.74z M337.656,536.227
		c-1.146,0-2.077-0.93-2.077-2.077c0-1.146,0.931-2.075,2.077-2.075h1.179c1.146,0,2.078,0.93,2.078,2.075
		c0,1.147-0.932,2.077-2.078,2.077H337.656z M330.563,536.227c-1.145,0-2.076-0.93-2.076-2.077c0-1.146,0.932-2.075,2.076-2.075
		h1.18c1.146,0,2.085,0.93,2.085,2.075c0,1.147-0.938,2.077-2.085,2.077H330.563z M323.479,536.227c-1.146,0-2.076-0.93-2.076-2.077
		c0-1.146,0.93-2.075,2.076-2.075h1.179c1.146,0,2.077,0.93,2.077,2.075c0,1.147-0.932,2.077-2.077,2.077H323.479z M316.393,536.227
		c-1.146,0-2.085-0.93-2.085-2.077c0-1.146,0.938-2.075,2.085-2.075h1.18c1.146,0,2.076,0.93,2.076,2.075
		c0,1.147-0.93,2.077-2.076,2.077H316.393z M309.301,536.227c-1.147,0-2.078-0.93-2.078-2.077c0-1.146,0.931-2.075,2.078-2.075h1.18
		c1.145,0,2.075,0.93,2.075,2.075c0,1.147-0.931,2.077-2.075,2.077H309.301z M302.215,536.227c-1.146,0-2.076-0.93-2.076-2.077
		c0-1.146,0.93-2.075,2.076-2.075h1.18c1.146,0,2.076,0.93,2.076,2.075c0,1.147-0.93,2.077-2.076,2.077H302.215z M295.121,536.227
		c-1.146,0-2.075-0.93-2.075-2.077c0-1.146,0.93-2.075,2.075-2.075h1.188c1.138,0,2.067,0.93,2.067,2.075
		c0,1.147-0.93,2.077-2.067,2.077H295.121z M288.037,536.227c-1.146,0-2.077-0.93-2.077-2.077c0-1.146,0.931-2.075,2.077-2.075
		h1.179c1.146,0,2.077,0.93,2.077,2.075c0,1.147-0.931,2.077-2.077,2.077H288.037z M280.943,536.227
		c-1.146,0-2.076-0.93-2.076-2.077c0-1.146,0.93-2.075,2.076-2.075h1.189c1.145,0,2.075,0.93,2.075,2.075
		c0,1.147-0.931,2.077-2.075,2.077H280.943z M273.858,536.227c-1.146,0-2.077-0.93-2.077-2.077c0-1.146,0.932-2.075,2.077-2.075
		h1.18c1.146,0,2.077,0.93,2.077,2.075c0,1.147-0.932,2.077-2.077,2.077H273.858z M266.766,536.227c-1.139,0-2.067-0.93-2.067-2.077
		c0-1.146,0.929-2.075,2.067-2.075h1.188c1.146,0,2.076,0.93,2.076,2.075c0,1.147-0.93,2.077-2.076,2.077H266.766z M259.682,536.227
		c-1.147,0-2.078-0.93-2.078-2.077c0-1.146,0.931-2.075,2.078-2.075h1.18c1.145,0,2.075,0.93,2.075,2.075
		c0,1.147-0.931,2.077-2.075,2.077H259.682z M252.596,536.227c-1.146,0-2.076-0.93-2.076-2.077c0-1.146,0.93-2.075,2.076-2.075h1.18
		c1.146,0,2.075,0.93,2.075,2.075c0,1.147-0.929,2.077-2.075,2.077H252.596z M245.502,536.227c-1.146,0-2.075-0.93-2.075-2.077
		c0-1.146,0.929-2.075,2.075-2.075h1.188c1.139,0,2.078,0.93,2.078,2.075c0,1.147-0.939,2.077-2.078,2.077H245.502z
		 M238.416,536.227c-1.145,0-2.075-0.93-2.075-2.077c0-1.146,0.931-2.075,2.075-2.075h1.18c1.147,0,2.078,0.93,2.078,2.075
		c0,1.147-0.931,2.077-2.078,2.077H238.416z M232.67,531.957l0.24,0.066c1.121,0.216,1.861,1.296,1.646,2.426
		c-0.218,1.129-1.305,1.861-2.484,1.646l-1.105-0.333l-0.473-0.2c-1.03-0.498-1.462-1.743-0.965-2.773
		c0.5-1.047,1.745-1.479,2.75-0.98L232.67,531.957z M226.723,527.604c0-1.146,0.931-2.075,2.078-2.075
		c1.145,0,2.075,0.93,2.075,2.075v1.18c0,1.146-0.931,2.077-2.075,2.077c-1.147,0-2.078-0.931-2.078-2.077V527.604z
		 M226.723,520.512c0-1.146,0.931-2.077,2.078-2.077c1.145,0,2.075,0.932,2.075,2.077v1.18c0,1.146-0.931,2.076-2.075,2.076
		c-1.147,0-2.078-0.93-2.078-2.076V520.512z M226.723,513.436c0-1.146,0.931-2.077,2.078-2.077c1.145,0,2.075,0.931,2.075,2.077
		v1.179c0,1.146-0.931,2.077-2.075,2.077c-1.147,0-2.078-0.931-2.078-2.077V513.436z M226.723,506.342
		c0-1.146,0.931-2.076,2.078-2.076c1.145,0,2.075,0.93,2.075,2.076v1.18c0,1.146-0.931,2.077-2.075,2.077
		c-1.147,0-2.078-0.932-2.078-2.077V506.342z M226.723,499.249c0-1.146,0.931-2.077,2.078-2.077c1.145,0,2.075,0.931,2.075,2.077
		v1.18c0,1.146-0.931,2.075-2.075,2.075c-1.147,0-2.078-0.93-2.078-2.075V499.249z M226.723,492.156
		c0-1.131,0.931-2.077,2.078-2.077c1.145,0,2.075,0.946,2.075,2.077v1.196c0,1.146-0.931,2.075-2.075,2.075
		c-1.147,0-2.078-0.93-2.078-2.075V492.156z M226.723,485.079c0-1.146,0.931-2.076,2.078-2.076c1.145,0,2.075,0.93,2.075,2.076
		v1.179c0,1.147-0.931,2.077-2.075,2.077c-1.147,0-2.078-0.93-2.078-2.077V485.079z M226.723,477.985
		c0-1.146,0.931-2.075,2.078-2.075c1.145,0,2.075,0.93,2.075,2.075v1.18c0,1.146-0.931,2.076-2.075,2.076
		c-1.147,0-2.078-0.93-2.078-2.076V477.985z M226.723,470.893c0-1.146,0.931-2.077,2.078-2.077c1.145,0,2.075,0.931,2.075,2.077
		v1.179c0,1.147-0.931,2.094-2.075,2.094c-1.147,0-2.078-0.946-2.078-2.094V470.893z M226.723,463.816
		c0-1.146,0.931-2.077,2.078-2.077c1.145,0,2.075,0.931,2.075,2.077v1.179c0,1.146-0.931,2.077-2.075,2.077
		c-1.147,0-2.078-0.931-2.078-2.077V463.816z M226.723,456.723c0-1.146,0.931-2.076,2.078-2.076c1.145,0,2.075,0.93,2.075,2.076
		v1.18c0,1.146-0.931,2.077-2.075,2.077c-1.147,0-2.078-0.932-2.078-2.077V456.723z M226.723,449.63
		c0-1.147,0.931-2.077,2.078-2.077c1.145,0,2.075,0.93,2.075,2.077v1.18c0,1.146-0.931,2.075-2.075,2.075
		c-1.147,0-2.078-0.93-2.078-2.075V449.63z M227.686,441.594c0.59-0.98,1.878-1.296,2.857-0.697c0.973,0.59,1.28,1.868,0.699,2.835
		l-0.15,0.3l-0.125,0.333c-0.332,1.079-1.486,1.693-2.583,1.361s-1.72-1.495-1.388-2.558l0.375-0.985L227.686,441.594z
		 M235.751,438.346c1.146,0,2.077,0.939,2.077,2.085c0,1.146-0.932,2.077-2.077,2.077h-1.179c-1.146,0-2.076-0.931-2.076-2.077
		c0-1.146,0.93-2.085,2.076-2.085H235.751z M242.845,438.346c1.146,0,2.076,0.939,2.076,2.085c0,1.146-0.931,2.077-2.076,2.077
		h-1.188c-1.145,0-2.076-0.931-2.076-2.077c0-1.146,0.932-2.085,2.076-2.085H242.845z M249.93,438.346
		c1.146,0,2.076,0.939,2.076,2.085c0,1.146-0.931,2.077-2.076,2.077h-1.18c-1.146,0-2.077-0.931-2.077-2.077
		c0-1.146,0.931-2.085,2.077-2.085H249.93z M257.022,438.346c1.146,0,2.077,0.939,2.077,2.085c0,1.146-0.932,2.077-2.077,2.077
		h-1.188c-1.146,0-2.075-0.931-2.075-2.077c0-1.146,0.93-2.085,2.075-2.085H257.022z M264.107,438.346
		c1.146,0,2.076,0.939,2.076,2.085c0,1.146-0.93,2.077-2.076,2.077h-1.18c-1.145,0-2.076-0.931-2.076-2.077
		c0-1.146,0.932-2.085,2.076-2.085H264.107z M271.193,438.346c1.145,0,2.075,0.939,2.075,2.085c0,1.146-0.931,2.077-2.075,2.077
		h-1.181c-1.146,0-2.075-0.931-2.075-2.077c0-1.146,0.929-2.085,2.075-2.085H271.193z M278.285,438.346
		c1.147,0,2.076,0.939,2.076,2.085c0,1.146-0.929,2.077-2.076,2.077h-1.18c-1.146,0-2.084-0.931-2.084-2.077
		c0-1.146,0.938-2.085,2.084-2.085H278.285z M285.371,438.346c1.146,0,2.076,0.939,2.076,2.085c0,1.146-0.93,2.077-2.076,2.077
		h-1.18c-1.146,0-2.076-0.931-2.076-2.077c0-1.146,0.93-2.085,2.076-2.085H285.371z M292.464,438.346
		c1.138,0,2.076,0.939,2.076,2.085c0,1.146-0.938,2.077-2.076,2.077h-1.188c-1.145,0-2.076-0.931-2.076-2.077
		c0-1.146,0.932-2.085,2.076-2.085H292.464z M299.549,438.346c1.146,0,2.076,0.939,2.076,2.085c0,1.146-0.931,2.077-2.076,2.077
		h-1.179c-1.147,0-2.085-0.931-2.085-2.077c0-1.146,0.938-2.085,2.085-2.085H299.549z M306.633,438.346
		c1.147,0,2.086,0.939,2.086,2.085c0,1.146-0.938,2.077-2.086,2.077h-1.18c-1.146,0-2.075-0.931-2.075-2.077
		c0-1.146,0.93-2.085,2.075-2.085H306.633z M313.727,438.346c1.146,0,2.078,0.939,2.078,2.085c0,1.146-0.932,2.077-2.078,2.077
		h-1.188c-1.137,0-2.076-0.931-2.076-2.077c0-1.146,0.939-2.085,2.076-2.085H313.727z M320.813,438.346
		c1.146,0,2.075,0.939,2.075,2.085c0,1.146-0.929,2.077-2.075,2.077h-1.18c-1.146,0-2.076-0.931-2.076-2.077
		c0-1.146,0.93-2.085,2.076-2.085H320.813z M327.896,438.346c1.155,0,2.085,0.939,2.085,2.085c0,1.146-0.93,2.077-2.085,2.077
		h-1.179c-1.147,0-2.077-0.931-2.077-2.077c0-1.146,0.93-2.085,2.077-2.085H327.896z M334.99,438.346
		c1.146,0,2.076,0.939,2.076,2.085c0,1.146-0.93,2.077-2.076,2.077h-1.18c-1.146,0-2.076-0.931-2.076-2.077
		c0-1.146,0.93-2.085,2.076-2.085H334.99z M342.084,438.346c1.137,0,2.068,0.939,2.068,2.085c0,1.146-0.932,2.077-2.068,2.077
		h-1.189c-1.145,0-2.076-0.931-2.076-2.077c0-1.146,0.932-2.085,2.076-2.085H342.084z M349.168,438.346
		c1.146,0,2.076,0.939,2.076,2.085c0,1.146-0.931,2.077-2.076,2.077h-1.179c-1.147,0-2.077-0.931-2.077-2.077
		c0-1.146,0.93-2.085,2.077-2.085H349.168z M356.252,438.346c1.147,0,2.078,0.939,2.078,2.085c0,1.146-0.931,2.077-2.078,2.077
		h-1.178c-1.146,0-2.077-0.931-2.077-2.077c0-1.146,0.931-2.085,2.077-2.085H356.252z M363.346,438.346
		c1.146,0,2.078,0.939,2.078,2.085c0,1.146-0.932,2.077-2.078,2.077h-1.188c-1.137,0-2.076-0.931-2.076-2.077
		c0-1.146,0.939-2.085,2.076-2.085H363.346z M370.432,438.346c1.146,0,2.075,0.939,2.075,2.085c0,1.146-0.929,2.077-2.075,2.077
		h-1.18c-1.146,0-2.076-0.931-2.076-2.077c0-1.146,0.93-2.085,2.076-2.085H370.432z M375.855,443.052l-0.166-0.117l-0.15-0.095
		l-0.166-0.084c-1.038-0.498-1.478-1.743-0.971-2.773c0.49-1.03,1.735-1.462,2.766-0.972l0.722,0.406l0.714,0.523
		c0.873,0.74,0.973,2.061,0.234,2.932c-0.74,0.877-2.061,0.978-2.916,0.245L375.855,443.052z M380.972,448.135
		c0,1.146-0.931,2.076-2.077,2.076c-1.146,0-2.076-0.931-2.076-2.076v-1.196c0-1.146,0.931-2.076,2.076-2.076
		c1.146,0,2.077,0.93,2.077,2.076V448.135z M380.972,455.211c0,1.146-0.931,2.077-2.077,2.077c-1.146,0-2.076-0.931-2.076-2.077
		v-1.179c0-1.147,0.931-2.077,2.076-2.077c1.146,0,2.077,0.93,2.077,2.077V455.211z M380.972,462.305
		c0,1.146-0.931,2.076-2.077,2.076c-1.146,0-2.076-0.931-2.076-2.076v-1.18c0-1.146,0.931-2.077,2.076-2.077
		c1.146,0,2.077,0.932,2.077,2.077V462.305z M380.972,469.397c0,1.146-0.931,2.077-2.077,2.077c-1.146,0-2.076-0.932-2.076-2.077
		v-1.18c0-1.146,0.931-2.092,2.076-2.092c1.146,0,2.077,0.946,2.077,2.092V469.397z M380.972,476.474
		c0,1.147-0.931,2.077-2.077,2.077c-1.146,0-2.076-0.93-2.076-2.077v-1.18c0-1.146,0.931-2.075,2.076-2.075
		c1.146,0,2.077,0.93,2.077,2.075V476.474z M380.972,483.566c0,1.147-0.931,2.077-2.077,2.077c-1.146,0-2.076-0.93-2.076-2.077
		v-1.179c0-1.146,0.931-2.076,2.076-2.076c1.146,0,2.077,0.93,2.077,2.076V483.566z M380.972,490.661
		c0,1.146-0.931,2.075-2.077,2.075c-1.146,0-2.076-0.93-2.076-2.075v-1.181c0-1.146,0.931-2.075,2.076-2.075
		c1.146,0,2.077,0.93,2.077,2.075V490.661z M380.972,497.737c0,1.146-0.931,2.093-2.077,2.093c-1.146,0-2.076-0.947-2.076-2.093
		v-1.18c0-1.146,0.931-2.076,2.076-2.076c1.146,0,2.077,0.93,2.077,2.076V497.737z M380.972,504.83c0,1.146-0.931,2.077-2.077,2.077
		c-1.146,0-2.076-0.931-2.076-2.077v-1.179c0-1.147,0.931-2.077,2.076-2.077c1.146,0,2.077,0.93,2.077,2.077V504.83z
		 M380.972,511.924c0,1.146-0.931,2.076-2.077,2.076c-1.146,0-2.076-0.931-2.076-2.076v-1.18c0-1.146,0.931-2.077,2.076-2.077
		c1.146,0,2.077,0.932,2.077,2.077V511.924z M380.972,519.017c0,1.146-0.931,2.077-2.077,2.077c-1.146,0-2.076-0.932-2.076-2.077
		v-1.196c0-1.146,0.931-2.075,2.076-2.075c1.146,0,2.077,0.93,2.077,2.075V519.017z M380.972,526.093
		c0,1.147-0.931,2.077-2.077,2.077c-1.146,0-2.076-0.93-2.076-2.077v-1.179c0-1.146,0.931-2.076,2.076-2.076
		c1.146,0,2.077,0.93,2.077,2.076V526.093z M375.473,532.455c0.075-0.415,0.266-0.796,0.574-1.112l0.231-0.266l0.108-0.134
		l0.083-0.132c0.573-0.98,1.827-1.296,2.815-0.715c0.988,0.565,1.329,1.844,0.765,2.808l-0.457,0.698l-0.549,0.614l-0.058,0.066
		c-0.723,0.731-1.852,0.797-2.666,0.232c-0.166,0.963-1.022,1.711-2.044,1.711h-1.179c-1.146,0-2.085-0.93-2.085-2.077
		c0-1.146,0.938-2.075,2.085-2.075h1.179C374.717,532.074,375.131,532.207,375.473,532.455z"/>
	<path fill-rule="evenodd" clip-rule="evenodd" fill="#BCC2C6" d="M303.852,472.254l4.135,4.153l7.568,7.559
		c1.137,1.146,1.137,3.007,0,4.136c-1.139,1.147-3.008,1.147-4.146,0l-4.635-4.634v18.854h-5.854v-18.854l-4.635,4.634
		c-1.138,1.147-2.999,1.147-4.145,0c-1.138-1.129-1.138-2.989,0-4.136l7.557-7.559L303.852,472.254z"/>
	<path fill-rule="evenodd" clip-rule="evenodd" fill="#BCC2C6" d="M550.637,536.227c-1.139,0-2.078-0.93-2.078-2.077
		c0-1.146,0.939-2.075,2.078-2.075h1.187c1.146,0,2.077,0.93,2.077,2.075c0,1.147-0.931,2.077-2.077,2.077H550.637z
		 M543.551,536.227c-1.146,0-2.076-0.93-2.076-2.077c0-1.146,0.93-2.075,2.076-2.075h1.18c1.146,0,2.076,0.93,2.076,2.075
		c0,1.147-0.93,2.077-2.076,2.077H543.551z M536.466,536.227c-1.146,0-2.084-0.93-2.084-2.077c0-1.146,0.938-2.075,2.084-2.075
		h1.179c1.146,0,2.078,0.93,2.078,2.075c0,1.147-0.932,2.077-2.078,2.077H536.466z M529.372,536.227
		c-1.146,0-2.076-0.93-2.076-2.077c0-1.146,0.931-2.075,2.076-2.075h1.18c1.147,0,2.077,0.93,2.077,2.075
		c0,1.147-0.93,2.077-2.077,2.077H529.372z M522.289,536.227c-1.147,0-2.078-0.93-2.078-2.077c0-1.146,0.931-2.075,2.078-2.075
		h1.178c1.146,0,2.077,0.93,2.077,2.075c0,1.147-0.931,2.077-2.077,2.077H522.289z M515.194,536.227
		c-1.146,0-2.077-0.93-2.077-2.077c0-1.146,0.932-2.075,2.077-2.075h1.179c1.155,0,2.085,0.93,2.085,2.075
		c0,1.147-0.93,2.077-2.085,2.077H515.194z M508.109,536.227c-1.146,0-2.076-0.93-2.076-2.077c0-1.146,0.93-2.075,2.076-2.075h1.18
		c1.146,0,2.076,0.93,2.076,2.075c0,1.147-0.93,2.077-2.076,2.077H508.109z M501.018,536.227c-1.139,0-2.078-0.93-2.078-2.077
		c0-1.146,0.939-2.075,2.078-2.075h1.186c1.147,0,2.076,0.93,2.076,2.075c0,1.147-0.929,2.077-2.076,2.077H501.018z
		 M493.932,536.227c-1.147,0-2.076-0.93-2.076-2.077c0-1.146,0.929-2.075,2.076-2.075h1.18c1.146,0,2.076,0.93,2.076,2.075
		c0,1.147-0.931,2.077-2.076,2.077H493.932z M486.847,536.227c-1.146,0-2.077-0.93-2.077-2.077c0-1.146,0.932-2.075,2.077-2.075
		h1.179c1.146,0,2.076,0.93,2.076,2.075c0,1.147-0.93,2.077-2.076,2.077H486.847z M479.752,536.227c-1.145,0-2.075-0.93-2.075-2.077
		c0-1.146,0.931-2.075,2.075-2.075h1.181c1.147,0,2.085,0.93,2.085,2.075c0,1.147-0.938,2.077-2.085,2.077H479.752z
		 M472.668,536.227c-1.146,0-2.076-0.93-2.076-2.077c0-1.146,0.931-2.075,2.076-2.075h1.18c1.146,0,2.077,0.93,2.077,2.075
		c0,1.147-0.931,2.077-2.077,2.077H472.668z M465.575,536.227c-1.146,0-2.077-0.93-2.077-2.077c0-1.146,0.932-2.075,2.077-2.075
		h1.188c1.146,0,2.075,0.93,2.075,2.075c0,1.147-0.93,2.077-2.075,2.077H465.575z M458.49,536.227c-1.146,0-2.076-0.93-2.076-2.077
		c0-1.146,0.93-2.075,2.076-2.075h1.18c1.145,0,2.076,0.93,2.076,2.075c0,1.147-0.932,2.077-2.076,2.077H458.49z M451.404,536.227
		c-1.145,0-2.084-0.93-2.084-2.077c0-1.146,0.939-2.075,2.084-2.075h1.18c1.147,0,2.076,0.93,2.076,2.075
		c0,1.147-0.929,2.077-2.076,2.077H451.404z M444.313,536.227c-1.147,0-2.076-0.93-2.076-2.077c0-1.146,0.929-2.075,2.076-2.075
		h1.18c1.146,0,2.076,0.93,2.076,2.075c0,1.147-0.931,2.077-2.076,2.077H444.313z M437.227,536.227c-1.145,0-2.076-0.93-2.076-2.077
		c0-1.146,0.932-2.075,2.076-2.075h1.18c1.146,0,2.076,0.93,2.076,2.075c0,1.147-0.93,2.077-2.076,2.077H437.227z M430.133,536.227
		c-1.145,0-2.075-0.93-2.075-2.077c0-1.146,0.931-2.075,2.075-2.075h1.181c1.153,0,2.085,0.93,2.085,2.075
		c0,1.147-0.932,2.077-2.085,2.077H430.133z M423.049,536.227c-1.146,0-2.076-0.93-2.076-2.077c0-1.146,0.931-2.075,2.076-2.075
		h1.179c1.147,0,2.078,0.93,2.078,2.075c0,1.147-0.931,2.077-2.078,2.077H423.049z M417.301,531.957l0.242,0.066
		c1.128,0.216,1.859,1.296,1.645,2.426c-0.217,1.129-1.305,1.861-2.484,1.646l-1.104-0.333l-0.474-0.2
		c-1.03-0.498-1.461-1.743-0.963-2.773c0.488-1.047,1.744-1.479,2.748-0.98L417.301,531.957z M411.354,527.604
		c0-1.146,0.931-2.075,2.078-2.075c1.146,0,2.075,0.93,2.075,2.075v1.18c0,1.146-0.93,2.077-2.075,2.077
		c-1.147,0-2.078-0.931-2.078-2.077V527.604z M411.354,520.512c0-1.146,0.931-2.077,2.078-2.077c1.146,0,2.075,0.932,2.075,2.077
		v1.18c0,1.146-0.93,2.076-2.075,2.076c-1.147,0-2.078-0.93-2.078-2.076V520.512z M411.354,513.436c0-1.146,0.931-2.077,2.078-2.077
		c1.146,0,2.075,0.931,2.075,2.077v1.179c0,1.146-0.93,2.077-2.075,2.077c-1.147,0-2.078-0.931-2.078-2.077V513.436z
		 M411.354,506.342c0-1.146,0.931-2.076,2.078-2.076c1.146,0,2.075,0.93,2.075,2.076v1.18c0,1.146-0.93,2.077-2.075,2.077
		c-1.147,0-2.078-0.932-2.078-2.077V506.342z M411.354,499.249c0-1.146,0.931-2.077,2.078-2.077c1.146,0,2.075,0.931,2.075,2.077
		v1.18c0,1.146-0.93,2.075-2.075,2.075c-1.147,0-2.078-0.93-2.078-2.075V499.249z M411.354,492.156c0-1.131,0.931-2.077,2.078-2.077
		c1.146,0,2.075,0.946,2.075,2.077v1.196c0,1.146-0.93,2.075-2.075,2.075c-1.147,0-2.078-0.93-2.078-2.075V492.156z
		 M411.354,485.079c0-1.146,0.931-2.076,2.078-2.076c1.146,0,2.075,0.93,2.075,2.076v1.179c0,1.147-0.93,2.077-2.075,2.077
		c-1.147,0-2.078-0.93-2.078-2.077V485.079z M411.354,477.985c0-1.146,0.931-2.075,2.078-2.075c1.146,0,2.075,0.93,2.075,2.075v1.18
		c0,1.146-0.93,2.076-2.075,2.076c-1.147,0-2.078-0.93-2.078-2.076V477.985z M411.354,470.893c0-1.146,0.931-2.077,2.078-2.077
		c1.146,0,2.075,0.931,2.075,2.077v1.179c0,1.147-0.93,2.094-2.075,2.094c-1.147,0-2.078-0.946-2.078-2.094V470.893z
		 M411.354,463.816c0-1.146,0.931-2.077,2.078-2.077c1.146,0,2.075,0.931,2.075,2.077v1.179c0,1.146-0.93,2.077-2.075,2.077
		c-1.147,0-2.078-0.931-2.078-2.077V463.816z M411.354,456.723c0-1.146,0.931-2.076,2.078-2.076c1.146,0,2.075,0.93,2.075,2.076
		v1.18c0,1.146-0.93,2.077-2.075,2.077c-1.147,0-2.078-0.932-2.078-2.077V456.723z M411.354,449.63c0-1.147,0.931-2.077,2.078-2.077
		c1.146,0,2.075,0.93,2.075,2.077v1.18c0,1.146-0.93,2.075-2.075,2.075c-1.147,0-2.078-0.93-2.078-2.075V449.63z M412.316,441.594
		c0.592-0.98,1.879-1.296,2.859-0.697c0.972,0.59,1.285,1.868,0.697,2.835l-0.157,0.3l-0.109,0.333
		c-0.34,1.079-1.495,1.693-2.591,1.361c-1.098-0.332-1.719-1.495-1.389-2.558l0.376-0.985L412.316,441.594z M420.383,438.346
		c1.146,0,2.076,0.939,2.076,2.085c0,1.146-0.93,2.077-2.076,2.077h-1.18c-1.146,0-2.075-0.931-2.075-2.077
		c0-1.146,0.929-2.085,2.075-2.085H420.383z M427.477,438.346c1.146,0,2.075,0.939,2.075,2.085c0,1.146-0.929,2.077-2.075,2.077
		h-1.188c-1.146,0-2.077-0.931-2.077-2.077c0-1.146,0.932-2.085,2.077-2.085H427.477z M434.561,438.346
		c1.146,0,2.077,0.939,2.077,2.085c0,1.146-0.931,2.077-2.077,2.077h-1.179c-1.147,0-2.077-0.931-2.077-2.077
		c0-1.146,0.93-2.085,2.077-2.085H434.561z M441.654,438.346c1.138,0,2.068,0.939,2.068,2.085c0,1.146-0.931,2.077-2.068,2.077
		h-1.188c-1.146,0-2.077-0.931-2.077-2.077c0-1.146,0.931-2.085,2.077-2.085H441.654z M448.739,438.346
		c1.146,0,2.077,0.939,2.077,2.085c0,1.146-0.932,2.077-2.077,2.077h-1.18c-1.146,0-2.077-0.931-2.077-2.077
		c0-1.146,0.932-2.085,2.077-2.085H448.739z M455.824,438.346c1.146,0,2.085,0.939,2.085,2.085c0,1.146-0.938,2.077-2.085,2.077
		h-1.18c-1.146,0-2.076-0.931-2.076-2.077c0-1.146,0.93-2.085,2.076-2.085H455.824z M462.916,438.346
		c1.147,0,2.078,0.939,2.078,2.085c0,1.146-0.931,2.077-2.078,2.077h-1.178c-1.146,0-2.086-0.931-2.086-2.077
		c0-1.146,0.939-2.085,2.086-2.085H462.916z M470.002,438.346c1.146,0,2.076,0.939,2.076,2.085c0,1.146-0.93,2.077-2.076,2.077
		h-1.18c-1.146,0-2.075-0.931-2.075-2.077c0-1.146,0.929-2.085,2.075-2.085H470.002z M477.096,438.346
		c1.137,0,2.075,0.939,2.075,2.085c0,1.146-0.938,2.077-2.075,2.077h-1.188c-1.146,0-2.078-0.931-2.078-2.077
		c0-1.146,0.932-2.085,2.078-2.085H477.096z M484.182,438.346c1.145,0,2.075,0.939,2.075,2.085c0,1.146-0.931,2.077-2.075,2.077
		h-1.181c-1.147,0-2.085-0.931-2.085-2.077c0-1.146,0.938-2.085,2.085-2.085H484.182z M491.265,438.346
		c1.146,0,2.085,0.939,2.085,2.085c0,1.146-0.938,2.077-2.085,2.077h-1.179c-1.146,0-2.077-0.931-2.077-2.077
		c0-1.146,0.931-2.085,2.077-2.085H491.265z M498.358,438.346c1.146,0,2.077,0.939,2.077,2.085c0,1.146-0.932,2.077-2.077,2.077
		h-1.188c-1.137,0-2.068-0.931-2.068-2.077c0-1.146,0.932-2.085,2.068-2.085H498.358z M505.443,438.346
		c1.146,0,2.076,0.939,2.076,2.085c0,1.146-0.93,2.077-2.076,2.077h-1.18c-1.146,0-2.076-0.931-2.076-2.077
		c0-1.146,0.93-2.085,2.076-2.085H505.443z M512.535,438.346c1.147,0,2.078,0.939,2.078,2.085c0,1.146-0.931,2.077-2.078,2.077
		h-1.178c-1.155,0-2.086-0.931-2.086-2.077c0-1.146,0.931-2.085,2.086-2.085H512.535z M519.621,438.346
		c1.147,0,2.076,0.939,2.076,2.085c0,1.146-0.929,2.077-2.076,2.077h-1.18c-1.146,0-2.075-0.931-2.075-2.077
		c0-1.146,0.93-2.085,2.075-2.085H519.621z M526.715,438.346c1.137,0,2.068,0.939,2.068,2.085c0,1.146-0.932,2.077-2.068,2.077
		h-1.188c-1.146,0-2.076-0.931-2.076-2.077c0-1.146,0.93-2.085,2.076-2.085H526.715z M533.801,438.346
		c1.145,0,2.075,0.939,2.075,2.085c0,1.146-0.931,2.077-2.075,2.077h-1.181c-1.146,0-2.085-0.931-2.085-2.077
		c0-1.146,0.938-2.085,2.085-2.085H533.801z M540.885,438.346c1.146,0,2.084,0.939,2.084,2.085c0,1.146-0.938,2.077-2.084,2.077
		h-1.18c-1.146,0-2.077-0.931-2.077-2.077c0-1.146,0.931-2.085,2.077-2.085H540.885z M547.978,438.346
		c1.146,0,2.077,0.939,2.077,2.085c0,1.146-0.932,2.077-2.077,2.077h-1.188c-1.137,0-2.075-0.931-2.075-2.077
		c0-1.146,0.938-2.085,2.075-2.085H547.978z M555.063,438.346c1.146,0,2.076,0.939,2.076,2.085c0,1.146-0.93,2.077-2.076,2.077
		h-1.18c-1.145,0-2.076-0.931-2.076-2.077c0-1.146,0.932-2.085,2.076-2.085H555.063z M560.486,443.052l-0.166-0.117l-0.15-0.095
		l-0.166-0.084c-1.029-0.498-1.469-1.743-0.971-2.773c0.49-1.03,1.735-1.462,2.766-0.972l0.723,0.406l0.715,0.523
		c0.871,0.74,0.971,2.061,0.232,2.932c-0.739,0.877-2.06,0.978-2.916,0.245L560.486,443.052z M565.604,448.135
		c0,1.146-0.932,2.076-2.076,2.076c-1.147,0-2.077-0.931-2.077-2.076v-1.196c0-1.146,0.93-2.076,2.077-2.076
		c1.145,0,2.076,0.93,2.076,2.076V448.135z M565.604,455.211c0,1.146-0.932,2.077-2.076,2.077c-1.147,0-2.077-0.931-2.077-2.077
		v-1.179c0-1.147,0.93-2.077,2.077-2.077c1.145,0,2.076,0.93,2.076,2.077V455.211z M565.604,462.305
		c0,1.146-0.932,2.076-2.076,2.076c-1.147,0-2.077-0.931-2.077-2.076v-1.18c0-1.146,0.93-2.077,2.077-2.077
		c1.145,0,2.076,0.932,2.076,2.077V462.305z M565.604,469.397c0,1.146-0.932,2.077-2.076,2.077c-1.147,0-2.077-0.932-2.077-2.077
		v-1.18c0-1.146,0.93-2.092,2.077-2.092c1.145,0,2.076,0.946,2.076,2.092V469.397z M565.604,476.474
		c0,1.147-0.932,2.077-2.076,2.077c-1.147,0-2.077-0.93-2.077-2.077v-1.18c0-1.146,0.93-2.075,2.077-2.075
		c1.145,0,2.076,0.93,2.076,2.075V476.474z M565.604,483.566c0,1.147-0.932,2.077-2.076,2.077c-1.147,0-2.077-0.93-2.077-2.077
		v-1.179c0-1.146,0.93-2.076,2.077-2.076c1.145,0,2.076,0.93,2.076,2.076V483.566z M565.604,490.661
		c0,1.146-0.932,2.075-2.076,2.075c-1.147,0-2.077-0.93-2.077-2.075v-1.181c0-1.146,0.93-2.075,2.077-2.075
		c1.145,0,2.076,0.93,2.076,2.075V490.661z M565.604,497.737c0,1.146-0.932,2.093-2.076,2.093c-1.147,0-2.077-0.947-2.077-2.093
		v-1.18c0-1.146,0.93-2.076,2.077-2.076c1.145,0,2.076,0.93,2.076,2.076V497.737z M565.604,504.83c0,1.146-0.932,2.077-2.076,2.077
		c-1.147,0-2.077-0.931-2.077-2.077v-1.179c0-1.147,0.93-2.077,2.077-2.077c1.145,0,2.076,0.93,2.076,2.077V504.83z
		 M565.604,511.924c0,1.146-0.932,2.076-2.076,2.076c-1.147,0-2.077-0.931-2.077-2.076v-1.18c0-1.146,0.93-2.077,2.077-2.077
		c1.145,0,2.076,0.932,2.076,2.077V511.924z M565.604,519.017c0,1.146-0.932,2.077-2.076,2.077c-1.147,0-2.077-0.932-2.077-2.077
		v-1.196c0-1.146,0.93-2.075,2.077-2.075c1.145,0,2.076,0.93,2.076,2.075V519.017z M565.604,526.093
		c0,1.147-0.932,2.077-2.076,2.077c-1.147,0-2.077-0.93-2.077-2.077v-1.179c0-1.146,0.93-2.076,2.077-2.076
		c1.145,0,2.076,0.93,2.076,2.076V526.093z M560.105,532.455c0.064-0.415,0.265-0.796,0.572-1.112l0.232-0.266l0.107-0.134
		l0.084-0.132c0.572-0.98,1.828-1.296,2.814-0.715c0.989,0.565,1.33,1.844,0.766,2.808l-0.458,0.698l-0.548,0.614l-0.057,0.066
		c-0.725,0.731-1.854,0.797-2.668,0.232c-0.166,0.963-1.021,1.711-2.043,1.711h-1.18c-1.146,0-2.084-0.93-2.084-2.077
		c0-1.146,0.938-2.075,2.084-2.075h1.18C559.357,532.074,559.764,532.207,560.105,532.455z"/>
	<path fill-rule="evenodd" clip-rule="evenodd" fill="#BCC2C6" d="M488.475,472.254l4.152,4.153l7.559,7.559
		c1.139,1.146,1.139,3.007,0,4.136c-1.138,1.147-3.006,1.147-4.145,0l-4.635-4.634v18.854h-5.855v-18.854l-4.635,4.634
		c-1.138,1.147-3.007,1.147-4.145,0c-1.138-1.129-1.138-2.989,0-4.136l7.566-7.559L488.475,472.254z"/>
	<path opacity="0.15" d="M338.08,336.258c-1.197-1.188-2.85-1.927-4.668-1.927c-1.827,0-3.472,0.739-4.668,1.927
		c-1.188,1.188-1.918,2.84-1.918,4.667c0,1.819,0.73,3.464,1.926,4.66c1.188,1.188,2.841,1.927,4.66,1.927
		c1.818,0,3.471-0.739,4.668-1.927c1.188-1.188,1.918-2.841,1.918-4.66C339.998,339.099,339.268,337.446,338.08,336.258
		 M333.412,328.899c3.314,0,6.312,1.345,8.488,3.522l0.008,0.016c2.177,2.168,3.521,5.175,3.521,8.488
		c0,3.314-1.345,6.313-3.521,8.489l-0.008,0.008c-2.177,2.176-5.174,3.521-8.488,3.521c-3.322,0-6.33-1.346-8.498-3.521
		c-2.176-2.176-3.521-5.183-3.521-8.498c0-3.313,1.345-6.32,3.521-8.488l0.01-0.016C327.1,330.245,330.098,328.899,333.412,328.899z
		 M327.656,358.368L327.656,358.368l0.082,0.117l1.529,2.027l-0.025,0.016l9.12,12.401c0.655,0.889,0.93,1.777,0.93,2.625h-0.009
		c0,0.665-0.164,1.271-0.455,1.794c-0.275,0.499-0.657,0.922-1.105,1.254c-0.756,0.556-1.719,0.864-2.691,0.864v-0.017
		l-22.934,0.008l-43.912-0.008c-1.055,0-1.968-0.299-2.684-0.814c-0.48-0.365-0.872-0.822-1.145-1.362h-0.009
		c-0.249-0.515-0.391-1.088-0.382-1.711h-0.018c0-0.905,0.316-1.877,0.998-2.791l9.601-13.065v-0.017l0.872-1.171l0.108-0.142l0,0
		l0.017-0.024l11.886-15.79c0.415-0.557,0.872-1.022,1.354-1.387c0.938-0.698,1.951-1.038,2.999-1.03
		c1.054,0,2.061,0.349,2.965,1.03c0.49,0.374,0.947,0.831,1.362,1.387l11.337,15.075l5.49-7.293
		c0.416-0.556,0.873-1.013,1.363-1.378c0.905-0.689,1.918-1.039,2.973-1.039c1.047-0.008,2.061,0.341,2.982,1.03
		c0.48,0.366,0.947,0.831,1.361,1.387l6.022,7.999L327.656,358.368z M332.457,374.042l-9.17-12.467l-0.391-0.523l-5.606-7.459
		l-0.009-0.025l-0.016,0.025l-6.338,8.431l-1.313,1.735l-2.168,2.882l-2.159-2.882l-1.312-1.735l-12.193-16.213l-0.018-0.025
		l-0.008,0.025l-11.521,15.308l-0.34,0.457l-9.17,12.467l41.371,0.008L332.457,374.042z"/>
	<path fill="#34495E" d="M331.726,323.534c3.306,0,6.313,1.346,8.488,3.521l0.009,0.008c2.176,2.176,3.521,5.183,3.521,8.489
		c0,3.314-1.346,6.313-3.521,8.497l-0.009,0.008c-2.175,2.177-5.183,3.522-8.488,3.522c-3.322,0-6.328-1.345-8.505-3.522
		c-2.177-2.176-3.521-5.182-3.521-8.505c0-3.306,1.345-6.313,3.521-8.489l0.008-0.008
		C325.404,324.879,328.411,323.534,331.726,323.534 M325.961,353.003L325.961,353.003l0.084,0.108l1.527,2.026l-0.023,0.017
		l9.128,12.401c0.647,0.888,0.929,1.786,0.929,2.625h-0.016c0,0.665-0.158,1.271-0.449,1.802c-0.273,0.499-0.656,0.923-1.112,1.254
		c-0.747,0.557-1.711,0.855-2.683,0.855v-0.008l-22.933,0.008l-43.913-0.008c-1.055,0-1.979-0.299-2.684-0.822
		c-0.489-0.357-0.88-0.814-1.145-1.362h-0.01c-0.258-0.515-0.389-1.088-0.389-1.711h-0.01c0-0.905,0.307-1.869,0.988-2.791
		l9.611-13.065l-0.01-0.016l0.881-1.163l0.107-0.149l0,0l0.017-0.016l11.878-15.79c0.415-0.565,0.881-1.021,1.361-1.387
		c0.932-0.698,1.944-1.039,3-1.039c1.046,0.008,2.05,0.357,2.965,1.039c0.48,0.365,0.938,0.83,1.354,1.387l11.345,15.075
		l5.482-7.292c0.415-0.556,0.872-1.022,1.362-1.387c0.914-0.681,1.918-1.03,2.974-1.038c1.046,0,2.06,0.34,2.99,1.038
		c0.481,0.365,0.938,0.823,1.362,1.387l6.014,7.999L325.961,353.003z"/>
	<path fill-rule="evenodd" clip-rule="evenodd" fill="#39D4FF" d="M331.717,327.919c-2.025,0-3.945,0.797-5.432,2.276l0.024-0.025
		c-1.437,1.446-2.226,3.347-2.226,5.382s0.797,3.962,2.235,5.407c1.437,1.437,3.363,2.234,5.397,2.234
		c2.035,0,3.963-0.797,5.441-2.284l-0.025,0.024c1.438-1.437,2.227-3.347,2.227-5.382s-0.789-3.937-2.201-5.357l-0.043-0.041
		C335.68,328.716,333.752,327.919,331.717,327.919 M266.998,369.698l43.406,0.008l22.401-0.008l-10.282-13.979l-6.098-8.107
		c-0.141-0.191-0.307-0.374-0.49-0.515c-0.092-0.067-0.223-0.158-0.34-0.158c-0.133,0-0.258,0.083-0.357,0.158
		c-0.19,0.141-0.349,0.332-0.49,0.515l-8.987,11.944l-14.843-19.726c-0.141-0.183-0.307-0.374-0.49-0.516
		c-0.098-0.066-0.223-0.158-0.355-0.158c-0.125,0-0.249,0.083-0.341,0.158c-0.19,0.142-0.357,0.324-0.499,0.516l-11.943,15.881
		L266.998,369.698z"/>
	<!-- <path fill-rule="evenodd" clip-rule="evenodd" fill="#94A4A5" d="M474.486,238.315h-7.781v-3.131h7.508v-2.434h-7.508v-3.206h7.781
		v-2.534h-10.373c0,4.626,0,9.27,0,13.879h10.373V238.315z M460.642,228.747c-1.429-1.404-3.288-2.11-5.149-2.11
		c-4.892,0-7.326,3.596-7.326,7.5c0,3.646,2.117,7.068,7.326,7.068c2.434,0,4.16-0.93,5.522-2.491v-5.848h-5.938v2.342h3.547v2.458
		c-1.088,0.864-2.044,1.105-3.131,1.105c-3.447,0-4.768-2.359-4.768-4.635c0-2.85,1.795-5.108,4.768-5.108
		c1.204,0,2.59,0.498,3.521,1.387L460.642,228.747z M442.103,235.84h-5.149l2.574-5.914L442.103,235.84z M444.32,240.89h2.849
		l-6.22-13.879h-2.851l-6.22,13.879h2.83l1.189-2.616h7.25L444.32,240.89z M427.244,240.89h2.607v-13.846h-2.99L422.525,233
		l-4.335-5.956h-3.015v13.846h2.615v-10.059l4.42,6.03h0.514l4.52-6.013V240.89z M411.703,240.89v-13.879h-2.592v13.879H411.703z
		 M392.592,229.486h2.848c3.016,0,4.277,2.159,4.344,4.328c0.051,2.259-1.194,4.56-4.344,4.56h-2.848V229.486z M395.439,227.011
		c-1.701,0-3.736,0-5.439,0v13.879c1.703,0,3.738,0,5.439,0c4.852,0,6.994-3.546,6.936-7.06
		C402.318,230.392,400.191,227.011,395.439,227.011z M382.5,235.84h-5.142l2.574-5.914L382.5,235.84z M384.717,240.89h2.857
		l-6.221-13.879h-2.85l-6.22,13.879h2.831l1.189-2.616h7.25L384.717,240.89z M363.687,229.129c3.264,0,4.577,2.616,4.535,4.951
		c-0.041,2.275-1.271,4.734-4.535,4.734c-3.272,0-4.493-2.442-4.56-4.718C359.069,231.762,360.414,229.129,363.687,229.129z
		 M363.687,226.753c-4.793,0-7.134,3.663-7.134,7.309c0,3.639,2.259,7.143,7.134,7.143c4.868,0,7.068-3.58,7.11-7.167
		C370.838,230.417,368.453,226.753,363.687,226.753z M345.007,227.011v13.879h9.742v-2.417h-7.134v-11.462H345.007z
		 M337.158,227.011c-2.184-0.024-4.361,0-6.537,0v13.879h2.616v-4.078h3.921C343.953,236.812,343.927,227.011,337.158,227.011z
		 M333.237,229.503h3.921c3.322,0,3.347,4.917,0,4.917h-3.921V229.503z M324.476,227.044v7.949c0,2.375-1.23,3.821-3.39,3.821
		c-2.16,0-3.58-1.33-3.58-3.821v-7.949h-2.591v7.949c0,4.178,2.824,6.196,6.155,6.196c3.487,0,5.996-2.102,5.996-6.196v-7.949
		H324.476z"/> -->
</g>
</svg>
