<?xml version="1.0" encoding="utf-8"?>
<!-- Generator: Adobe Illustrator 15.1.0, SVG Export Plug-In . SVG Version: 6.00 Build 0)  -->
<!DOCTYPE svg PUBLIC "-//W3C//DTD SVG 1.0//EN" "http://www.w3.org/TR/2001/REC-SVG-20010904/DTD/svg10.dtd">
<svg version="1.0" id="Layer_1" xmlns="http://www.w3.org/2000/svg" xmlns:xlink="http://www.w3.org/1999/xlink" x="0px" y="0px"
	 width="800px" height="800px" viewBox="195.0330047607422 206.56199645996094 419.511962890625 376.5679931640625" enable-background="new 0 0 800 800" xml:space="preserve">
<g>
	<!-- <path fill="#BCC2C6" d="M211.188,206.562h387.203c4.443,0,8.488,1.811,11.412,4.734v0.025c2.924,2.923,4.742,6.952,4.742,11.387
		v344.275c0,4.436-1.818,8.472-4.742,11.396v0.017c-2.924,2.924-6.969,4.734-11.412,4.734H211.188
		c-4.443,0-8.489-1.811-11.413-4.734v-0.017c-2.924-2.924-4.742-6.96-4.742-11.396V222.708c0-4.436,1.818-8.464,4.742-11.387v-0.025
		C202.698,208.373,206.744,206.562,211.188,206.562"/>
	<path fill="#EBEFF0" d="M608.682,222.708v344.275c0,6.479-4.519,10.299-10.291,10.299H211.188c-5.765,0-10.291-3.704-10.291-10.299
		V222.708c0-6.719,4.544-10.291,10.291-10.291h387.203C604.154,212.417,608.682,216.113,608.682,222.708"/> -->
	<path fill="#BCC2C6" d="M209.052,253.855h391.473c3.863,0,7.367,1.578,9.902,4.112c2.541,2.542,4.118,6.047,4.118,9.909v301.233
		c0,3.87-1.577,7.376-4.118,9.9c-2.535,2.542-6.039,4.12-9.902,4.12H209.052c-3.861,0-7.367-1.578-9.9-4.12
		c-2.541-2.524-4.119-6.03-4.119-9.9V267.876c0-3.862,1.578-7.367,4.119-9.909C201.685,255.434,205.19,253.855,209.052,253.855"/>
	<path fill-rule="evenodd" clip-rule="evenodd" fill="#FFFFFF" d="M209.052,259.711c-2.167,0-4.228,0.872-5.756,2.401
		c-1.536,1.536-2.399,3.596-2.399,5.764v301.233c0,2.177,0.863,4.236,2.399,5.765c1.528,1.527,3.589,2.408,5.756,2.408h391.473
		c2.169,0,4.229-0.881,5.765-2.408c1.529-1.528,2.393-3.588,2.393-5.765V267.876c0-2.176-0.863-4.228-2.393-5.764
		c-1.536-1.529-3.596-2.401-5.765-2.401H209.052z"/>
	<!-- <path fill-rule="evenodd" clip-rule="evenodd" fill="#94A4A5" d="M550.143,226.455c4.118,0,7.467,3.338,7.467,7.458
		c0,4.119-3.349,7.467-7.467,7.467c-4.12,0-7.459-3.348-7.459-7.467C542.684,229.793,546.022,226.455,550.143,226.455
		 M573.581,226.455c4.12,0,7.459,3.347,7.459,7.458c0,4.119-3.339,7.467-7.459,7.467s-7.467-3.348-7.467-7.467
		C566.114,229.793,569.461,226.455,573.581,226.455z M526.711,226.455c4.12,0,7.458,3.338,7.458,7.458
		c0,4.119-3.338,7.467-7.458,7.467s-7.459-3.348-7.459-7.467C519.252,229.802,522.591,226.455,526.711,226.455z"/> -->
	<path fill-rule="evenodd" clip-rule="evenodd" fill="#34495E" d="M251.985,286.755h305.598c4.229,0,7.685,3.463,7.685,7.674
		v178.805c0,4.203-3.473,7.675-7.685,7.675H251.985c-4.202,0-7.675-3.455-7.675-7.675V294.43
		C244.311,290.202,247.766,286.755,251.985,286.755"/>
	<path fill="#FFFFFF" d="M251.985,292.611h305.598c1.006,0,1.819,0.838,1.819,1.819v178.805c0,0.98-0.83,1.812-1.819,1.812H251.985
		c-0.979,0-1.819-0.814-1.819-1.812V294.43C250.166,293.433,250.988,292.611,251.985,292.611"/>
	<path fill-rule="evenodd" clip-rule="evenodd" fill="#34495E" d="M251.985,286.755h305.598c4.229,0,7.685,3.463,7.685,7.674
		v134.365c0,4.21-3.465,7.674-7.685,7.674H251.985c-4.211,0-7.675-3.446-7.675-7.674V294.43
		C244.311,290.202,247.766,286.755,251.985,286.755"/>
	<path fill="#F65C4C" d="M251.985,292.611h305.598c1.006,0,1.819,0.831,1.819,1.819v134.365c0,0.987-0.83,1.818-1.819,1.818H251.985
		c-0.979,0-1.819-0.813-1.819-1.818V294.43C250.166,293.433,250.988,292.611,251.985,292.611"/>
	<path fill="#D63C2C" d="M421.741,373.385l-12.924,7.467h-0.017l-12.933,7.467c-1.803,1.039-3.547,1.521-5.15,1.521
		c-1.377,0-2.665-0.349-3.795-1.022c-1.112-0.656-2.026-1.595-2.707-2.774c-0.832-1.437-1.297-3.206-1.297-5.208V365.91v-14.925
		c0-2.052,0.465-3.813,1.28-5.216c0.706-1.221,1.652-2.159,2.773-2.799c1.138-0.64,2.409-0.972,3.745-0.972
		c1.638,0,3.414,0.489,5.168,1.512l0,0l12.915,7.458l12.933,7.467h0.008c1.786,1.03,3.074,2.309,3.888,3.721
		c0.696,1.204,1.029,2.492,1.021,3.788c-0.009,1.287-0.366,2.549-1.039,3.72C424.789,371.102,423.477,372.38,421.741,373.385"/>
	<path fill="#34495E" d="M421.741,369.083l-12.924,7.467h-0.017l-12.933,7.458c-1.803,1.047-3.547,1.528-5.15,1.528
		c-1.377,0-2.665-0.357-3.795-1.021c-1.112-0.656-2.026-1.595-2.707-2.774c-0.832-1.437-1.297-3.214-1.297-5.208v-14.926v-14.934
		c0-2.051,0.465-3.804,1.28-5.216c0.706-1.221,1.652-2.16,2.773-2.799c1.138-0.639,2.409-0.963,3.745-0.963
		c1.638,0,3.414,0.49,5.168,1.503v0.008l12.915,7.459l12.933,7.467h0.008c1.786,1.03,3.074,2.309,3.888,3.713
		c0.696,1.213,1.029,2.5,1.021,3.796c-0.009,1.288-0.366,2.542-1.039,3.713C424.789,366.791,423.477,368.078,421.741,369.083"/>
	<path fill-rule="evenodd" clip-rule="evenodd" fill="#FFFFFF" d="M418.718,363.851c0.623-0.366,1.296-0.88,1.662-1.512
		c0.133-0.233,0.224-0.481,0.232-0.756c0-0.257-0.092-0.49-0.217-0.714c-0.365-0.631-1.071-1.155-1.686-1.512l-12.933-7.458
		l-12.915-7.467c-0.607-0.357-1.422-0.698-2.145-0.698c-0.272,0-0.531,0.05-0.771,0.191c-0.225,0.124-0.391,0.332-0.516,0.557
		c-0.365,0.631-0.465,1.478-0.465,2.192v29.86c0,0.723,0.108,1.553,0.482,2.184c0.133,0.233,0.299,0.449,0.539,0.59
		c0.225,0.133,0.466,0.183,0.73,0.183c0.707,0,1.537-0.374,2.135-0.714L418.718,363.851z"/>
	<path fill-rule="evenodd" clip-rule="evenodd" fill="#34495E" d="M404.789,320.901c-22.484,0-40.716,18.223-40.716,40.715
		c0,22.484,18.231,40.707,40.716,40.707c22.483,0,40.707-18.223,40.707-40.707C445.496,339.124,427.272,320.901,404.789,320.901
		 M404.789,314.871c-25.823,0-46.746,20.922-46.746,46.746c0,25.815,20.923,46.745,46.746,46.745
		c25.814,0,46.746-20.93,46.746-46.745C451.535,335.793,430.604,314.871,404.789,314.871z"/>
	<path fill-rule="evenodd" clip-rule="evenodd" fill="#34495E" d="M276.604,459.031h256.361c1.611,0,2.933-1.312,2.933-2.924
		c0-1.611-1.321-2.939-2.933-2.939H276.604c-1.611,0-2.924,1.328-2.924,2.939C273.68,457.72,274.992,459.031,276.604,459.031"/>
	<path fill-rule="evenodd" clip-rule="evenodd" fill="#34495E" d="M311.829,444.131c6.604,0,11.96,5.366,11.96,11.977
		c0,6.612-5.356,11.961-11.96,11.961c-6.611,0-11.969-5.349-11.969-11.961C299.86,449.497,305.218,444.131,311.829,444.131"/>
	<path fill-rule="evenodd" clip-rule="evenodd" fill="#FFFFFF" d="M311.829,449.995c3.364,0,6.097,2.741,6.097,6.112
		c0,3.373-2.732,6.098-6.097,6.098c-3.372,0-6.104-2.725-6.104-6.098C305.725,452.736,308.457,449.995,311.829,449.995"/>
	<rect x="244.311" y="500.295" fill-rule="evenodd" clip-rule="evenodd" fill="#34495E" width="49.944" height="49.936"/>
	<rect x="250.108" y="506.093" fill="#F65C4C" width="38.349" height="38.34"/>
	<rect x="334.646" y="500.295" fill-rule="evenodd" clip-rule="evenodd" fill="#34495E" width="49.952" height="49.936"/>
	<rect x="340.452" y="506.093" fill="#F65C4C" width="38.34" height="38.34"/>
	<rect x="424.98" y="500.295" fill-rule="evenodd" clip-rule="evenodd" fill="#34495E" width="49.952" height="49.936"/>
	<rect x="430.786" y="506.093" fill="#F65C4C" width="38.34" height="38.34"/>
	<rect x="515.323" y="500.295" fill-rule="evenodd" clip-rule="evenodd" fill="#34495E" width="49.944" height="49.936"/>
	<rect x="521.121" y="506.093" fill="#F65C4C" width="38.349" height="38.34"/>
	<!-- <path fill-rule="evenodd" clip-rule="evenodd" fill="#94A4A5" d="M458.677,228.298c-1.278-2.616-4.02-3.364-6.661-3.364
		c-3.123,0.025-6.562,1.453-6.562,4.934c0,3.804,3.198,4.726,6.661,5.133c2.252,0.25,3.921,0.897,3.921,2.5
		c0,1.835-1.886,2.542-3.896,2.542c-2.059,0-4.019-0.822-4.767-2.691l-2.666,1.387c1.262,3.09,3.921,4.162,7.384,4.162
		c3.778,0,7.119-1.628,7.119-5.399c0-4.045-3.29-4.967-6.828-5.399c-2.035-0.241-3.78-0.656-3.78-2.135
		c0-1.254,1.14-2.251,3.514-2.251c1.845,0,3.438,0.922,4.021,1.894L458.677,228.298z M430.528,228.083
		c3.996,0,5.591,3.198,5.54,6.055c-0.041,2.782-1.544,5.781-5.54,5.781c-3.994,0-5.498-2.973-5.572-5.756
		C424.881,231.305,426.534,228.083,430.528,228.083z M430.528,225.175c-5.863,0-8.721,4.477-8.721,8.937
		c0,4.452,2.758,8.738,8.721,8.738c5.955,0,8.639-4.386,8.688-8.763C439.267,229.652,436.359,225.175,430.528,225.175z
		 M416.468,239.312h-9.52v-3.82h9.178v-2.981h-9.178v-3.92h9.52v-3.099h-12.684c0,5.657,0,11.33,0,16.978h12.684V239.312z
		 M386.134,228.514h3.488c3.68,0,5.232,2.642,5.299,5.291c0.076,2.766-1.444,5.582-5.299,5.582h-3.488V228.514z M389.622,225.491
		c-2.084,0-4.576,0-6.661,0v16.978c2.085,0,4.577,0,6.661,0c5.931,0,8.547-4.336,8.473-8.638
		C398.028,229.627,395.437,225.491,389.622,225.491z M376.558,242.468v-16.978h-3.174v16.978H376.558z M367.778,225.491h-3.589
		l-5.133,13.207l-5.107-13.207h-3.581l7.044,17.043h3.314L367.778,225.491z"/> -->
</g>
</svg>
