<?xml version="1.0" encoding="utf-8"?>
<!-- Generator: Adobe Illustrator 15.1.0, SVG Export Plug-In . SVG Version: 6.00 Build 0)  -->
<!DOCTYPE svg PUBLIC "-//W3C//DTD SVG 1.0//EN" "http://www.w3.org/TR/2001/REC-SVG-20010904/DTD/svg10.dtd">
<svg version="1.0" id="Layer_1" xmlns="http://www.w3.org/2000/svg" xmlns:xlink="http://www.w3.org/1999/xlink" x="0px" y="0px"
	 width="800px" height="800px" viewBox="206.16299438476562 206.56199645996094 419.5039978027344 376.5679931640625" enable-background="new 0 0 800 800" xml:space="preserve">
<g>
	<!-- <path fill="#BCC2C6" d="M222.309,206.562h387.204c4.453,0,8.489,1.811,11.412,4.734v0.025c2.925,2.923,4.742,6.952,4.742,11.387
		v344.275c0,4.436-1.817,8.472-4.742,11.396v0.017c-2.923,2.924-6.959,4.734-11.412,4.734H222.309
		c-4.452,0-8.488-1.811-11.411-4.734v-0.017c-2.925-2.924-4.735-6.96-4.735-11.396V222.708c0-4.436,1.811-8.464,4.735-11.387v-0.025
		C213.82,208.373,217.856,206.562,222.309,206.562"/>
	<path fill="#EBEFF0" d="M619.813,222.708v344.275c0,6.479-4.521,10.299-10.301,10.299H222.309c-5.763,0-10.29-3.704-10.29-10.299
		V222.708c0-6.719,4.543-10.291,10.29-10.291h387.204C615.276,212.417,619.813,216.113,619.813,222.708"/> -->
	<path fill="#BCC2C6" d="M220.184,253.855h391.465c3.86,0,7.367,1.578,9.907,4.112c2.534,2.542,4.111,6.047,4.111,9.909v301.233
		c0,3.87-1.577,7.376-4.111,9.9c-2.54,2.542-6.047,4.12-9.907,4.12H220.184c-3.863,0-7.367-1.578-9.91-4.12
		c-2.533-2.524-4.111-6.03-4.111-9.9V267.876c0-3.862,1.578-7.367,4.111-9.909C212.816,255.434,216.32,253.855,220.184,253.855"/>
	<path fill-rule="evenodd" clip-rule="evenodd" fill="#FFFFFF" d="M220.184,259.711c-2.177,0-4.236,0.872-5.766,2.401
		c-1.536,1.536-2.399,3.596-2.399,5.764v301.233c0,2.177,0.863,4.236,2.399,5.765c1.529,1.527,3.589,2.408,5.766,2.408h391.465
		c2.167,0,4.227-0.881,5.756-2.408c1.536-1.528,2.409-3.588,2.409-5.765V267.876c0-2.176-0.873-4.228-2.409-5.764
		c-1.529-1.529-3.589-2.401-5.756-2.401H220.184z"/>
	<!-- <path fill-rule="evenodd" clip-rule="evenodd" fill="#94A4A5" d="M561.271,226.455c4.121,0,7.459,3.338,7.459,7.458
		c0,4.119-3.338,7.467-7.459,7.467c-4.118,0-7.459-3.348-7.459-7.467C553.813,229.793,557.153,226.455,561.271,226.455
		 M584.703,226.455c4.12,0,7.467,3.347,7.467,7.458c0,4.119-3.347,7.467-7.467,7.467c-4.128,0-7.467-3.348-7.467-7.467
		C577.236,229.793,580.583,226.455,584.703,226.455z M537.833,226.455c4.12,0,7.459,3.338,7.459,7.458
		c0,4.119-3.339,7.467-7.459,7.467c-4.119,0-7.459-3.348-7.459-7.467C530.374,229.802,533.714,226.455,537.833,226.455z"/> -->
	<path fill-rule="evenodd" clip-rule="evenodd" fill="#BCC2C6" d="M245.831,449.514h148.394c2.143,0,3.903-1.762,3.903-3.921l0,0
		c0-2.16-1.761-3.925-3.903-3.925H245.831c-2.15,0-3.912,1.765-3.912,3.925l0,0C241.919,447.752,243.681,449.514,245.831,449.514"/>
	<path fill-rule="evenodd" clip-rule="evenodd" fill="#BCC2C6" d="M245.831,429.816h148.394c2.143,0,3.903-1.762,3.903-3.913v-0.008
		c0-2.151-1.761-3.912-3.903-3.912H245.831c-2.15,0-3.912,1.761-3.912,3.912v0.008C241.919,428.055,243.681,429.816,245.831,429.816
		"/>
	<path fill-rule="evenodd" clip-rule="evenodd" fill="#BCC2C6" d="M272.178,469.099h95.7c2.151,0,3.903-1.761,3.903-3.921
		c0-2.143-1.752-3.92-3.903-3.92h-95.7c-2.159,0-3.921,1.777-3.921,3.92C268.257,467.338,270.019,469.099,272.178,469.099"/>
	<path fill-rule="evenodd" clip-rule="evenodd" fill="#BCC2C6" d="M437.598,449.514h148.394c2.16,0,3.912-1.762,3.912-3.921l0,0
		c0-2.16-1.752-3.925-3.912-3.925H437.598c-2.144,0-3.903,1.765-3.903,3.925l0,0C433.694,447.752,435.454,449.514,437.598,449.514"
		/>
	<path fill-rule="evenodd" clip-rule="evenodd" fill="#BCC2C6" d="M437.598,429.816h148.394c2.16,0,3.912-1.762,3.912-3.913v-0.008
		c0-2.151-1.752-3.912-3.912-3.912H437.598c-2.144,0-3.903,1.761-3.903,3.912v0.008
		C433.694,428.055,435.454,429.816,437.598,429.816"/>
	<path fill-rule="evenodd" clip-rule="evenodd" fill="#BCC2C6" d="M463.944,469.099h95.699c2.152,0,3.922-1.761,3.922-3.921
		c0-2.143-1.77-3.92-3.922-3.92h-95.699c-2.151,0-3.912,1.777-3.912,3.92C460.032,467.338,461.793,469.099,463.944,469.099"/>
	<path fill-rule="evenodd" clip-rule="evenodd" fill="#BCC2C6" d="M322.112,515.777h263.879c2.16,0,3.912,1.761,3.912,3.921l0,0
		c0,2.159-1.752,3.904-3.912,3.904H322.112c-2.159,0-3.92-1.745-3.92-3.904l0,0C318.192,517.538,319.953,515.777,322.112,515.777"/>
	<path fill-rule="evenodd" clip-rule="evenodd" fill="#BCC2C6" d="M322.112,535.462h263.879c2.16,0,3.912,1.762,3.912,3.921l0,0
		c0,2.16-1.752,3.92-3.912,3.92H322.112c-2.159,0-3.92-1.76-3.92-3.92l0,0C318.192,537.224,319.953,535.462,322.112,535.462"/>
	<path fill-rule="evenodd" clip-rule="evenodd" fill="#BCC2C6" d="M322.112,496.176h172.231c2.159,0,3.921,1.761,3.921,3.92
		c0,2.16-1.762,3.92-3.921,3.92H322.112c-2.159,0-3.92-1.76-3.92-3.92C318.192,497.937,319.953,496.176,322.112,496.176"/>
	<path fill-rule="evenodd" clip-rule="evenodd" fill="#34495E" d="M249.604,293.69h140.85c4.229,0,7.675,3.456,7.675,7.683v84.479
		c0,4.227-3.446,7.683-7.675,7.683h-140.85c-4.229,0-7.685-3.456-7.685-7.683v-84.479
		C241.919,297.146,245.374,293.69,249.604,293.69"/>
	<path fill="#F65C4C" d="M249.604,299.555h140.85c0.997,0,1.82,0.814,1.82,1.819v84.479c0,1.005-0.823,1.819-1.82,1.819h-140.85
		c-1.007,0-1.829-0.814-1.829-1.819v-84.479C247.774,300.369,248.597,299.555,249.604,299.555"/>
	<path fill-rule="evenodd" clip-rule="evenodd" fill="#D63C2C" d="M334.091,354.249l-18.241,10.523
		c-1.245,0.723-2.657,1.205-4.119,1.205c-1.114,0-2.192-0.282-3.173-0.855c-0.947-0.557-1.703-1.354-2.252-2.309
		c-0.723-1.254-1.037-2.708-1.037-4.153v-21.047c0-1.445,0.299-2.899,1.03-4.162c0.565-0.971,1.337-1.777,2.317-2.333
		c0.954-0.54,2.017-0.814,3.122-0.814c1.454,0,2.866,0.473,4.128,1.196l18.215,10.523c1.255,0.731,2.367,1.711,3.099,2.982
		c0.565,0.972,0.863,2.043,0.863,3.165c-0.017,1.097-0.314,2.151-0.863,3.099C336.448,352.529,335.353,353.526,334.091,354.249"/>
	<path fill-rule="evenodd" clip-rule="evenodd" fill="#34495E" d="M334.091,349.722l-18.241,10.524
		c-1.245,0.722-2.657,1.204-4.119,1.204c-1.114,0-2.192-0.282-3.173-0.856c-0.947-0.564-1.703-1.354-2.252-2.309
		c-0.723-1.254-1.037-2.708-1.037-4.153v-21.047c0-1.454,0.299-2.899,1.03-4.162c0.565-0.979,1.337-1.785,2.317-2.342
		c0.954-0.532,2.017-0.806,3.122-0.806c1.454,0,2.866,0.473,4.128,1.196l18.215,10.523c1.255,0.723,2.367,1.711,3.099,2.974
		c0.565,0.972,0.863,2.052,0.863,3.165c-0.017,1.105-0.314,2.151-0.863,3.099C336.448,347.995,335.353,348.991,334.091,349.722"/>
	<path fill-rule="evenodd" clip-rule="evenodd" fill="#FFFFFF" d="M331.482,345.187c0.432-0.257,0.905-0.623,1.162-1.063
		c0.1-0.167,0.165-0.341,0.165-0.532c0-0.182-0.065-0.349-0.148-0.507c-0.267-0.44-0.764-0.806-1.195-1.063l-9.12-5.257
		l-9.104-5.266c-0.422-0.25-0.997-0.49-1.503-0.49c-0.2,0-0.373,0.033-0.548,0.132c-0.158,0.092-0.273,0.241-0.365,0.391
		c-0.258,0.449-0.323,1.047-0.323,1.553v21.047c0,0.507,0.082,1.088,0.331,1.537c0.101,0.166,0.217,0.315,0.382,0.415
		c0.167,0.1,0.333,0.133,0.516,0.133c0.507,0,1.089-0.267,1.511-0.507L331.482,345.187z"/>
	<path fill-rule="evenodd" clip-rule="evenodd" fill="#34495E" d="M320.028,315.701c-15.416,0-27.908,12.492-27.908,27.908
		c0,15.415,12.492,27.907,27.908,27.907c15.406,0,27.908-12.492,27.908-27.907C347.937,328.193,335.435,315.701,320.028,315.701
		 M320.028,309.87c18.629,0,33.746,15.101,33.746,33.739c0,18.638-15.117,33.747-33.746,33.747
		c-18.639,0-33.747-15.109-33.747-33.747C286.281,324.971,301.39,309.87,320.028,309.87z"/>
	<path fill-rule="evenodd" clip-rule="evenodd" fill="#34495E" d="M441.369,293.69H582.22c4.235,0,7.684,3.456,7.684,7.683v84.479
		c0,4.227-3.448,7.683-7.684,7.683H441.369c-4.22,0-7.675-3.456-7.675-7.683v-84.479C433.694,297.146,437.149,293.69,441.369,293.69
		"/>
	<path fill="#F65C4C" d="M441.369,299.555H582.22c1.013,0,1.826,0.814,1.826,1.819v84.479c0,1.005-0.813,1.819-1.826,1.819H441.369
		c-0.997,0-1.811-0.814-1.811-1.819v-84.479C439.559,300.369,440.372,299.555,441.369,299.555"/>
	<path fill-rule="evenodd" clip-rule="evenodd" fill="#D63C2C" d="M525.864,354.249l-18.239,10.523
		c-1.255,0.723-2.667,1.205-4.121,1.205c-1.121,0-2.2-0.282-3.164-0.855c-0.954-0.557-1.71-1.354-2.259-2.309
		c-0.731-1.254-1.046-2.708-1.046-4.153v-21.047c0-1.445,0.298-2.899,1.029-4.162c0.565-0.971,1.346-1.777,2.326-2.333
		c0.956-0.54,2.019-0.814,3.123-0.814c1.453,0,2.873,0.473,4.118,1.196l18.225,10.523c1.262,0.731,2.367,1.711,3.098,2.982
		c0.557,0.972,0.864,2.043,0.854,3.165c-0.007,1.097-0.313,2.151-0.863,3.099C528.215,352.529,527.118,353.526,525.864,354.249"/>
	<path fill-rule="evenodd" clip-rule="evenodd" fill="#34495E" d="M525.864,349.722l-18.239,10.524
		c-1.255,0.722-2.667,1.204-4.121,1.204c-1.121,0-2.2-0.282-3.164-0.856c-0.954-0.564-1.71-1.354-2.259-2.309
		c-0.731-1.254-1.046-2.708-1.046-4.153v-21.047c0-1.454,0.298-2.899,1.029-4.162c0.565-0.979,1.346-1.785,2.326-2.342
		c0.956-0.532,2.019-0.806,3.123-0.806c1.453,0,2.873,0.473,4.118,1.196l18.225,10.523c1.262,0.723,2.367,1.711,3.098,2.974
		c0.557,0.972,0.864,2.052,0.854,3.165c-0.007,1.105-0.313,2.151-0.863,3.099C528.215,347.995,527.118,348.991,525.864,349.722"/>
	<path fill-rule="evenodd" clip-rule="evenodd" fill="#FFFFFF" d="M523.249,345.187c0.431-0.257,0.912-0.623,1.162-1.063
		c0.1-0.167,0.165-0.341,0.165-0.532c0-0.182-0.058-0.349-0.149-0.507c-0.257-0.44-0.756-0.806-1.194-1.063l-9.112-5.257
		l-9.104-5.266c-0.432-0.25-1.006-0.49-1.503-0.49c-0.199,0-0.383,0.033-0.549,0.132c-0.167,0.092-0.282,0.241-0.366,0.391
		c-0.257,0.449-0.331,1.047-0.331,1.553v21.047c0,0.507,0.083,1.088,0.341,1.537c0.091,0.166,0.216,0.315,0.382,0.415
		c0.157,0.1,0.324,0.133,0.523,0.133c0.497,0,1.079-0.267,1.494-0.507L523.249,345.187z"/>
	<path fill-rule="evenodd" clip-rule="evenodd" fill="#34495E" d="M511.803,315.701c-15.416,0-27.908,12.492-27.908,27.908
		c0,15.415,12.492,27.907,27.908,27.907c15.415,0,27.907-12.492,27.907-27.907C539.71,328.193,527.218,315.701,511.803,315.701
		 M511.803,309.87c18.639,0,33.737,15.101,33.737,33.739c0,18.638-15.099,33.747-33.737,33.747s-33.747-15.109-33.747-33.747
		C478.056,324.971,493.164,309.87,511.803,309.87z"/>
	<rect x="241.919" y="494.764" fill-rule="evenodd" clip-rule="evenodd" fill="#34495E" width="49.943" height="49.951"/>
	<rect x="247.725" y="500.577" fill="#F65C4C" width="38.341" height="38.341"/>
	<!-- <path fill-rule="evenodd" clip-rule="evenodd" fill="#94A4A5" d="M469.809,228.298c-1.288-2.616-4.021-3.364-6.661-3.364
		c-3.124,0.025-6.563,1.453-6.563,4.934c0,3.804,3.189,4.726,6.661,5.133c2.242,0.25,3.921,0.897,3.921,2.5
		c0,1.835-1.895,2.542-3.904,2.542c-2.06,0-4.021-0.822-4.768-2.691l-2.657,1.387c1.253,3.09,3.92,4.162,7.375,4.162
		c3.788,0,7.127-1.628,7.127-5.399c0-4.045-3.298-4.967-6.828-5.399c-2.043-0.241-3.779-0.656-3.779-2.135
		c0-1.254,1.139-2.251,3.514-2.251c1.836,0,3.438,0.922,4.02,1.894L469.809,228.298z M441.65,228.083
		c3.996,0,5.599,3.198,5.549,6.055c-0.051,2.782-1.553,5.781-5.549,5.781c-3.994,0-5.497-2.973-5.564-5.756
		C436.011,231.305,437.656,228.083,441.65,228.083z M441.65,225.175c-5.863,0-8.72,4.477-8.72,8.937c0,4.452,2.765,8.738,8.72,8.738
		c5.965,0,8.647-4.386,8.688-8.763C450.389,229.652,447.49,225.175,441.65,225.175z M427.598,239.312h-9.52v-3.82h9.171v-2.981
		h-9.171v-3.92h9.52v-3.099h-12.691c0,5.657,0,11.33,0,16.978h12.691V239.312z M397.265,228.514h3.487
		c3.672,0,5.226,2.642,5.3,5.291c0.066,2.766-1.453,5.582-5.3,5.582h-3.487V228.514z M400.752,225.491c-2.084,0-4.584,0-6.661,0
		v16.978c2.077,0,4.577,0,6.661,0c5.932,0,8.539-4.336,8.472-8.638C409.15,229.627,406.559,225.491,400.752,225.491z
		 M387.68,242.468v-16.978h-3.173v16.978H387.68z M378.9,225.491h-3.581l-5.132,13.207l-5.117-13.207h-3.579l7.051,17.043h3.314
		L378.9,225.491z"/> -->
</g>
</svg>
