<?xml version="1.0" encoding="utf-8"?>
<!-- Generator: Adobe Illustrator 15.1.0, SVG Export Plug-In . SVG Version: 6.00 Build 0)  -->
<!DOCTYPE svg PUBLIC "-//W3C//DTD SVG 1.0//EN" "http://www.w3.org/TR/2001/REC-SVG-20010904/DTD/svg10.dtd">
<svg version="1.0" id="Layer_1" xmlns="http://www.w3.org/2000/svg" xmlns:xlink="http://www.w3.org/1999/xlink" x="0px" y="0px"
	 width="800px" height="800px" viewBox="205.6439971923828 206.56199645996094 419.5040283203125 376.5679931640625" enable-background="new 0 0 800 800" xml:space="preserve">
<g>
	<!-- <path fill="#BCC2C6" d="M221.79,206.562h387.204c4.452,0,8.488,1.811,11.412,4.734v0.025c2.924,2.923,4.742,6.952,4.742,11.387
		v344.275c0,4.436-1.818,8.472-4.742,11.396v0.017c-2.924,2.924-6.96,4.734-11.412,4.734H221.79c-4.452,0-8.488-1.811-11.412-4.734
		v-0.017c-2.924-2.924-4.734-6.96-4.734-11.396V222.708c0-4.436,1.811-8.464,4.734-11.387v-0.025
		C213.302,208.373,217.338,206.562,221.79,206.562"/>
	<path fill="#EBEFF0" d="M619.285,222.708v344.275c0,6.479-4.511,10.299-10.291,10.299H221.79c-5.765,0-10.291-3.704-10.291-10.299
		V222.708c0-6.719,4.543-10.291,10.291-10.291h387.204C614.758,212.417,619.285,216.113,619.285,222.708"/> -->
	<path fill="#BCC2C6" d="M219.664,253.855H611.12c3.87,0,7.375,1.578,9.917,4.112c2.533,2.542,4.111,6.047,4.111,9.909v301.233
		c0,3.87-1.578,7.376-4.111,9.9c-2.542,2.542-6.047,4.12-9.917,4.12H219.664c-3.87,0-7.376-1.578-9.909-4.12
		c-2.542-2.524-4.111-6.03-4.111-9.9V267.876c0-3.862,1.569-7.367,4.111-9.909C212.288,255.434,215.794,253.855,219.664,253.855"/>
	<path fill-rule="evenodd" clip-rule="evenodd" fill="#FFFFFF" d="M219.664,259.711c-2.177,0-4.236,0.872-5.765,2.401
		c-1.536,1.536-2.408,3.596-2.408,5.764v301.233c0,2.177,0.872,4.236,2.408,5.765c1.528,1.527,3.588,2.408,5.765,2.408H611.12
		c2.176,0,4.236-0.881,5.764-2.408c1.537-1.528,2.401-3.588,2.401-5.765V267.876c0-2.176-0.864-4.228-2.401-5.764
		c-1.527-1.529-3.588-2.401-5.764-2.401H219.664z"/>
	<!-- <path fill-rule="evenodd" clip-rule="evenodd" fill="#94A4A5" d="M560.753,226.455c4.12,0,7.459,3.338,7.459,7.458
		c0,4.119-3.339,7.467-7.459,7.467s-7.467-3.348-7.467-7.467C553.286,229.793,556.633,226.455,560.753,226.455 M584.185,226.455
		c4.11,0,7.467,3.347,7.467,7.458c0,4.119-3.356,7.467-7.467,7.467c-4.128,0-7.469-3.348-7.469-7.467
		C576.716,229.793,580.064,226.455,584.185,226.455z M537.314,226.455c4.12,0,7.458,3.338,7.458,7.458
		c0,4.119-3.338,7.467-7.458,7.467s-7.459-3.348-7.459-7.467C529.855,229.802,533.194,226.455,537.314,226.455z"/> -->
	<path fill-rule="evenodd" clip-rule="evenodd" fill="#34495E" d="M253.269,302.204h140.859c4.229,0,7.684,3.456,7.684,7.683v84.479
		c0,4.228-3.455,7.683-7.684,7.683H253.269c-4.219,0-7.674-3.455-7.674-7.683v-84.479
		C245.595,305.66,249.05,302.204,253.269,302.204"/>
	<path fill="#F65C4C" d="M253.269,308.06h140.859c1.006,0,1.82,0.823,1.82,1.828v84.479c0,1.005-0.814,1.819-1.82,1.819H253.269
		c-0.996,0-1.818-0.814-1.818-1.819v-84.479C251.45,308.882,252.272,308.06,253.269,308.06"/>
	<path fill-rule="evenodd" clip-rule="evenodd" fill="#D63C2C" d="M337.757,362.763l-18.232,10.523
		c-1.254,0.723-2.665,1.205-4.11,1.205c-1.129,0-2.209-0.282-3.173-0.855c-0.955-0.557-1.712-1.354-2.259-2.309
		c-0.731-1.254-1.048-2.708-1.048-4.153v-21.047c0-1.454,0.299-2.899,1.031-4.162c0.563-0.972,1.345-1.777,2.325-2.333
		c0.955-0.54,2.019-0.814,3.123-0.814c1.445,0,2.873,0.474,4.12,1.196l18.223,10.523c1.263,0.731,2.367,1.711,3.106,2.974
		c0.557,0.979,0.855,2.052,0.848,3.173c-0.01,1.097-0.316,2.151-0.864,3.098C340.116,361.043,339.02,362.04,337.757,362.763"/>
	<path fill-rule="evenodd" clip-rule="evenodd" fill="#34495E" d="M337.757,358.236l-18.232,10.523
		c-1.254,0.715-2.665,1.205-4.11,1.205c-1.129,0-2.209-0.291-3.173-0.855c-0.955-0.565-1.712-1.354-2.259-2.309
		c-0.731-1.263-1.048-2.708-1.048-4.162v-21.039c0-1.454,0.299-2.899,1.031-4.169c0.563-0.972,1.345-1.777,2.325-2.334
		c0.955-0.54,2.019-0.806,3.123-0.806c1.445,0,2.873,0.473,4.12,1.196l18.223,10.523c1.263,0.723,2.367,1.703,3.106,2.974
		c0.557,0.972,0.855,2.052,0.848,3.173c-0.01,1.097-0.316,2.143-0.864,3.089C340.116,356.508,339.02,357.505,337.757,358.236"/>
	<path fill-rule="evenodd" clip-rule="evenodd" fill="#FFFFFF" d="M335.148,353.701c0.433-0.257,0.914-0.614,1.171-1.063
		c0.092-0.167,0.158-0.341,0.158-0.532c0-0.183-0.059-0.349-0.149-0.507c-0.257-0.44-0.756-0.814-1.196-1.063l-9.111-5.266
		l-9.103-5.257c-0.425-0.25-1.005-0.49-1.504-0.49c-0.199,0-0.382,0.033-0.549,0.133c-0.165,0.091-0.282,0.241-0.364,0.391
		c-0.258,0.449-0.333,1.047-0.333,1.545v21.047c0,0.515,0.083,1.105,0.341,1.545c0.092,0.166,0.216,0.316,0.383,0.416
		c0.156,0.1,0.323,0.133,0.522,0.133c0.499,0,1.079-0.266,1.495-0.507L335.148,353.701z"/>
	<path fill-rule="evenodd" clip-rule="evenodd" fill="#34495E" d="M323.703,324.215c-15.416,0-27.908,12.492-27.908,27.907
		c0,15.416,12.492,27.908,27.908,27.908c15.407,0,27.908-12.492,27.908-27.908C351.611,336.707,339.11,324.215,323.703,324.215
		 M323.703,318.376c18.639,0,33.739,15.108,33.739,33.746c0,18.639-15.101,33.748-33.739,33.748s-33.755-15.109-33.755-33.748
		C289.948,333.484,305.064,318.376,323.703,318.376z"/>
	<path fill-rule="evenodd" clip-rule="evenodd" fill="#34495E" d="M253.269,434.94h140.859c4.229,0,7.684,3.455,7.684,7.684v84.482
		c0,4.236-3.455,7.675-7.684,7.675H253.269c-4.219,0-7.674-3.438-7.674-7.675v-84.482C245.595,438.396,249.05,434.94,253.269,434.94
		"/>
	<path fill="#F65C4C" d="M253.269,440.805H394.12c1.014,0,1.828,0.813,1.828,1.819v84.482c0,0.997-0.814,1.827-1.828,1.827H253.269
		c-0.996,0-1.818-0.83-1.818-1.827v-84.482C251.45,441.618,252.272,440.805,253.269,440.805"/>
	<path fill-rule="evenodd" clip-rule="evenodd" fill="#D63C2C" d="M337.757,495.495l-18.232,10.531
		c-1.254,0.714-2.665,1.196-4.118,1.196c-1.121,0-2.201-0.283-3.165-0.847c-0.963-0.565-1.712-1.347-2.259-2.31
		c-0.731-1.263-1.048-2.708-1.048-4.152v-21.048c0-1.444,0.299-2.907,1.031-4.17c0.563-0.963,1.345-1.777,2.325-2.326
		c0.955-0.547,2.011-0.813,3.123-0.813c1.445,0,2.873,0.466,4.12,1.196l18.223,10.516c1.263,0.73,2.367,1.71,3.098,2.989
		c0.558,0.965,0.864,2.043,0.856,3.156c-0.018,1.097-0.316,2.16-0.864,3.106C340.116,493.784,339.02,494.78,337.757,495.495"/>
	<path fill-rule="evenodd" clip-rule="evenodd" fill="#34495E" d="M337.757,490.977l-18.232,10.515
		c-1.254,0.731-2.665,1.213-4.118,1.213c-1.121,0-2.201-0.282-3.165-0.863c-0.963-0.549-1.712-1.347-2.259-2.31
		c-0.731-1.246-1.048-2.708-1.048-4.152v-21.048c0-1.444,0.299-2.891,1.031-4.152c0.563-0.98,1.345-1.778,2.325-2.344
		c0.955-0.531,2.011-0.813,3.123-0.813c1.445,0,2.873,0.482,4.12,1.196l18.223,10.532c1.263,0.73,2.367,1.711,3.098,2.973
		c0.558,0.965,0.864,2.043,0.856,3.174c-0.018,1.097-0.316,2.143-0.864,3.089C340.116,489.249,339.02,490.245,337.757,490.977"/>
	<path fill-rule="evenodd" clip-rule="evenodd" fill="#FFFFFF" d="M335.148,486.441c0.433-0.249,0.914-0.615,1.163-1.064
		c0.1-0.165,0.166-0.348,0.166-0.531c0-0.183-0.059-0.348-0.149-0.498c-0.257-0.448-0.756-0.813-1.196-1.063l-9.111-5.267
		l-9.103-5.266c-0.433-0.249-1.005-0.499-1.504-0.499c-0.199,0-0.382,0.034-0.549,0.134c-0.165,0.1-0.282,0.249-0.364,0.399
		c-0.258,0.447-0.333,1.046-0.333,1.544v21.048c0,0.515,0.083,1.097,0.341,1.544c0.092,0.167,0.216,0.315,0.373,0.415
		c0.166,0.101,0.333,0.133,0.524,0.133c0.507,0,1.087-0.265,1.503-0.515L335.148,486.441z"/>
	<path fill-rule="evenodd" clip-rule="evenodd" fill="#34495E" d="M323.695,456.956c-15.408,0-27.9,12.491-27.9,27.906
		c0,15.416,12.492,27.908,27.9,27.908c15.415,0,27.916-12.492,27.916-27.908C351.611,469.447,339.11,456.956,323.695,456.956
		 M323.695,451.125c18.646,0,33.747,15.099,33.747,33.737s-15.101,33.739-33.747,33.739c-18.631,0-33.747-15.101-33.747-33.739
		S305.064,451.125,323.695,451.125z"/>
	<path fill-rule="evenodd" clip-rule="evenodd" fill="#BCC2C6" d="M433.573,348.161h147.704c2.15,0,3.912,1.761,3.912,3.92l0,0
		c0,2.151-1.762,3.912-3.912,3.912H433.573c-2.151,0-3.912-1.761-3.912-3.912l0,0C429.661,349.921,431.422,348.161,433.573,348.161"
		/>
	<path fill-rule="evenodd" clip-rule="evenodd" fill="#BCC2C6" d="M433.573,367.854h147.704c2.15,0,3.912,1.761,3.912,3.912l0,0
		c0,2.16-1.762,3.921-3.912,3.921H433.573c-2.151,0-3.912-1.761-3.912-3.921l0,0C429.661,369.614,431.422,367.854,433.573,367.854"
		/>
	<path fill-rule="evenodd" clip-rule="evenodd" fill="#BCC2C6" d="M433.573,328.567h95.243c2.152,0,3.912,1.761,3.912,3.92
		c0,2.151-1.76,3.913-3.912,3.913h-95.243c-2.151,0-3.912-1.761-3.912-3.913C429.661,330.328,431.422,328.567,433.573,328.567"/>
	<path fill-rule="evenodd" clip-rule="evenodd" fill="#BCC2C6" d="M433.573,480.893h147.704c2.15,0,3.912,1.761,3.912,3.921
		c0,2.159-1.762,3.92-3.912,3.92H433.573c-2.151,0-3.912-1.761-3.912-3.92C429.661,482.653,431.422,480.893,433.573,480.893"/>
	<path fill-rule="evenodd" clip-rule="evenodd" fill="#BCC2C6" d="M433.573,500.594h147.704c2.15,0,3.912,1.762,3.912,3.904
		c0,2.16-1.762,3.921-3.912,3.921H433.573c-2.151,0-3.912-1.761-3.912-3.921C429.661,502.355,431.422,500.594,433.573,500.594"/>
	<path fill-rule="evenodd" clip-rule="evenodd" fill="#BCC2C6" d="M433.573,461.308h95.243c2.152,0,3.912,1.761,3.912,3.921l0,0
		c0,2.143-1.76,3.902-3.912,3.902h-95.243c-2.151,0-3.912-1.76-3.912-3.902l0,0C429.661,463.068,431.422,461.308,433.573,461.308"/>
	<!-- <path fill-rule="evenodd" clip-rule="evenodd" fill="#94A4A5" d="M469.289,228.298c-1.288-2.616-4.021-3.364-6.661-3.364
		c-3.123,0.025-6.563,1.453-6.563,4.934c0,3.804,3.189,4.726,6.653,5.133c2.251,0.25,3.929,0.897,3.929,2.5
		c0,1.835-1.894,2.542-3.904,2.542c-2.059,0-4.02-0.822-4.767-2.691l-2.667,1.387c1.263,3.09,3.929,4.162,7.385,4.162
		c3.778,0,7.126-1.628,7.126-5.399c0-4.045-3.297-4.967-6.828-5.399c-2.043-0.241-3.787-0.656-3.787-2.135
		c0-1.254,1.146-2.251,3.514-2.251c1.844,0,3.447,0.922,4.028,1.894L469.289,228.298z M441.132,228.083
		c3.994,0,5.598,3.198,5.549,6.055c-0.051,2.782-1.555,5.781-5.549,5.781c-3.995,0-5.499-2.973-5.565-5.756
		C435.484,231.305,437.137,228.083,441.132,228.083z M441.132,225.175c-5.863,0-8.722,4.477-8.722,8.937
		c0,4.452,2.767,8.738,8.722,8.738s8.646-4.386,8.688-8.763C449.869,229.652,446.963,225.175,441.132,225.175z M427.078,239.312
		h-9.519v-3.82h9.17v-2.981h-9.17v-3.92h9.519v-3.099h-12.691c0,5.657,0,11.33,0,16.978h12.691V239.312z M396.745,228.514h3.48
		c3.679,0,5.232,2.642,5.308,5.291c0.065,2.766-1.454,5.582-5.308,5.582h-3.48V228.514z M400.226,225.491c-2.086,0-4.576,0-6.653,0
		v16.978c2.077,0,4.567,0,6.653,0c5.938,0,8.547-4.336,8.479-8.638C408.631,229.627,406.04,225.491,400.226,225.491z
		 M387.159,242.468v-16.978h-3.172v16.978H387.159z M378.381,225.491h-3.579l-5.134,13.207l-5.116-13.207h-3.58l7.043,17.043h3.314
		L378.381,225.491z"/> -->
</g>
</svg>
