<?xml version="1.0" encoding="utf-8"?>
<!-- Generator: Adobe Illustrator 15.1.0, SVG Export Plug-In . SVG Version: 6.00 Build 0)  -->
<!DOCTYPE svg PUBLIC "-//W3C//DTD SVG 1.0//EN" "http://www.w3.org/TR/2001/REC-SVG-20010904/DTD/svg10.dtd">
<svg version="1.0" id="Layer_1" xmlns="http://www.w3.org/2000/svg" xmlns:xlink="http://www.w3.org/1999/xlink" x="0px" y="0px"
	 width="800px" height="800px" viewBox="195.98899841308594 206.56199645996094 419.5040283203125 376.5679931640625" enable-background="new 0 0 800 800" xml:space="preserve">
<g>
	<!-- <path fill="#BCC2C6" d="M212.143,206.562h387.204c4.443,0,8.488,1.811,11.412,4.734v0.025c2.924,2.923,4.734,6.952,4.734,11.387
		v344.275c0,4.436-1.811,8.472-4.734,11.396v0.017c-2.924,2.924-6.969,4.734-11.412,4.734H212.143
		c-4.452,0-8.488-1.811-11.412-4.734v-0.017c-2.924-2.924-4.742-6.96-4.742-11.396V222.708c0-4.436,1.818-8.464,4.742-11.387v-0.025
		C203.654,208.373,207.69,206.562,212.143,206.562"/>
	<path fill="#EBEFF0" d="M609.638,222.708v344.275c0,6.479-4.519,10.299-10.291,10.299H212.143c-5.764,0-10.291-3.704-10.291-10.299
		V222.708c0-6.719,4.544-10.291,10.291-10.291h387.204C605.11,212.417,609.638,216.113,609.638,222.708"/> -->
	<path fill="#BCC2C6" d="M210.009,253.855h391.473c3.861,0,7.367,1.578,9.9,4.112c2.541,2.542,4.111,6.047,4.111,9.909v301.233
		c0,3.87-1.57,7.376-4.111,9.9c-2.533,2.542-6.039,4.12-9.9,4.12H210.009c-3.862,0-7.367-1.578-9.9-4.12
		c-2.542-2.524-4.12-6.03-4.12-9.9V267.876c0-3.862,1.578-7.367,4.12-9.909C202.642,255.434,206.146,253.855,210.009,253.855"/>
	<path fill-rule="evenodd" clip-rule="evenodd" fill="#FFFFFF" d="M210.009,259.711c-2.169,0-4.229,0.872-5.756,2.401
		c-1.537,1.536-2.401,3.596-2.401,5.764v301.233c0,2.177,0.864,4.236,2.401,5.765c1.527,1.527,3.587,2.408,5.756,2.408h391.473
		c2.167,0,4.228-0.881,5.756-2.408c1.536-1.528,2.4-3.588,2.4-5.765V267.876c0-2.176-0.864-4.228-2.4-5.764
		c-1.528-1.529-3.589-2.401-5.756-2.401H210.009z"/>
	<!-- <path fill-rule="evenodd" clip-rule="evenodd" fill="#94A4A5" d="M551.098,226.455c4.128,0,7.467,3.338,7.467,7.458
		c0,4.119-3.339,7.467-7.467,7.467c-4.12,0-7.459-3.348-7.459-7.467C543.639,229.793,546.978,226.455,551.098,226.455
		 M574.537,226.455c4.12,0,7.459,3.347,7.459,7.458c0,4.119-3.339,7.467-7.459,7.467c-4.128,0-7.467-3.348-7.467-7.467
		C567.07,229.793,570.417,226.455,574.537,226.455z M527.667,226.455c4.12,0,7.459,3.338,7.459,7.458
		c0,4.119-3.339,7.467-7.459,7.467s-7.459-3.348-7.459-7.467C520.208,229.802,523.547,226.455,527.667,226.455z"/> -->
	<path fill-rule="evenodd" clip-rule="evenodd" fill="#34495E" d="M252.941,296.631H558.54c4.228,0,7.683,3.463,7.683,7.683v228.358
		c0,4.219-3.472,7.691-7.683,7.691H252.941c-4.203,0-7.675-3.455-7.675-7.691V304.314
		C245.267,300.086,248.722,296.631,252.941,296.631"/>
	<path fill="#FFFFFF" d="M252.941,302.495H558.54c1.005,0,1.818,0.83,1.818,1.819v228.358c0,0.996-0.83,1.827-1.818,1.827H252.941
		c-0.98,0-1.811-0.813-1.811-1.827V304.314C251.131,303.309,251.944,302.495,252.941,302.495"/>
	<path fill-rule="evenodd" clip-rule="evenodd" fill="#34495E" d="M252.941,296.631H558.54c4.228,0,7.683,3.463,7.683,7.683v183.921
		c0,4.22-3.464,7.691-7.683,7.691H252.941c-4.211,0-7.675-3.455-7.675-7.691V304.314
		C245.267,300.086,248.722,296.631,252.941,296.631"/>
	<path fill="#F65C4C" d="M252.941,302.495H558.54c1.005,0,1.818,0.822,1.818,1.819v183.921c0,0.997-0.83,1.827-1.818,1.827H252.941
		c-0.988,0-1.811-0.813-1.811-1.827V304.314C251.131,303.309,251.944,302.495,252.941,302.495"/>
	<path fill="#D63C2C" d="M422.697,408.055l-12.924,7.458h-0.018l-12.923,7.468c-1.812,1.037-3.555,1.527-5.15,1.527
		c-1.387,0-2.674-0.356-3.805-1.029c-1.112-0.647-2.025-1.587-2.707-2.766c-0.83-1.438-1.295-3.215-1.295-5.208v-14.926v-14.934
		c0-2.051,0.473-3.804,1.278-5.216c0.706-1.221,1.653-2.16,2.774-2.799c1.138-0.639,2.409-0.972,3.754-0.972
		c1.637,0,3.406,0.498,5.158,1.512v0.008l12.915,7.459l12.933,7.458h0.009c1.785,1.03,3.073,2.317,3.887,3.721
		c0.698,1.213,1.039,2.492,1.021,3.796c-0.009,1.287-0.356,2.541-1.03,3.713C425.745,405.762,424.433,407.049,422.697,408.055"/>
	<path fill="#34495E" d="M422.697,403.743l-12.924,7.467h-0.018l-12.923,7.459c-1.812,1.047-3.555,1.528-5.15,1.528
		c-1.387,0-2.674-0.356-3.805-1.021c-1.112-0.656-2.025-1.595-2.707-2.773c-0.83-1.437-1.295-3.207-1.295-5.209v-14.925v-14.934
		c0-2.043,0.473-3.805,1.278-5.216c0.706-1.213,1.653-2.151,2.774-2.791c1.138-0.647,2.409-0.971,3.754-0.971
		c1.637,0,3.406,0.49,5.158,1.503v0.008l12.915,7.458l12.933,7.467h0.009c1.785,1.03,3.073,2.309,3.887,3.721
		c0.698,1.205,1.039,2.492,1.021,3.788c-0.009,1.287-0.356,2.549-1.03,3.721C425.745,401.451,424.433,402.746,422.697,403.743"/>
	<path fill-rule="evenodd" clip-rule="evenodd" fill="#FFFFFF" d="M419.683,398.511c0.623-0.357,1.286-0.881,1.652-1.512
		c0.134-0.233,0.232-0.482,0.232-0.748s-0.082-0.499-0.217-0.714c-0.364-0.631-1.07-1.155-1.685-1.512l-12.933-7.467l-12.916-7.468
		c-0.606-0.349-1.42-0.697-2.135-0.697c-0.282,0-0.531,0.05-0.781,0.19c-0.224,0.125-0.382,0.341-0.515,0.556
		c-0.364,0.632-0.466,1.479-0.466,2.193v29.859c0,0.723,0.117,1.555,0.482,2.193c0.134,0.232,0.299,0.439,0.541,0.582
		c0.224,0.141,0.464,0.191,0.73,0.191c0.706,0,1.536-0.375,2.135-0.724L419.683,398.511z"/>
	<path fill-rule="evenodd" clip-rule="evenodd" fill="#34495E" d="M405.744,355.569c-22.483,0-40.714,18.223-40.714,40.707
		c0,22.484,18.23,40.707,40.714,40.707c22.484,0,40.708-18.223,40.708-40.707C446.452,373.792,428.229,355.569,405.744,355.569
		 M405.744,349.531c-25.814,0-46.745,20.922-46.745,46.745c0,25.814,20.931,46.741,46.745,46.741s46.746-20.927,46.746-46.741
		C452.49,370.454,431.559,349.531,405.744,349.531z"/>
	<path fill-rule="evenodd" clip-rule="evenodd" fill="#34495E" d="M277.56,518.485h256.361c1.611,0,2.933-1.329,2.933-2.94
		s-1.321-2.923-2.933-2.923H277.56c-1.611,0-2.924,1.312-2.924,2.923S275.948,518.485,277.56,518.485"/>
	<path fill-rule="evenodd" clip-rule="evenodd" fill="#34495E" d="M312.776,503.584c6.612,0,11.969,5.35,11.969,11.961
		s-5.356,11.977-11.969,11.977c-6.603,0-11.959-5.365-11.959-11.977S306.174,503.584,312.776,503.584"/>
	<path fill-rule="evenodd" clip-rule="evenodd" fill="#FFFFFF" d="M312.776,509.448c3.373,0,6.105,2.725,6.105,6.097
		s-2.732,6.113-6.105,6.113c-3.363,0-6.096-2.741-6.096-6.113S309.413,509.448,312.776,509.448"/>
	<!-- <path fill-rule="evenodd" clip-rule="evenodd" fill="#94A4A5" d="M492.591,229.312c1.703,0,2.459,1.146,2.459,2.301
		c0,1.154-0.739,2.301-2.459,2.301h-4.111v-4.602H492.591z M498.463,240.957l-4.335-4.892c2.724-0.557,3.621-2.542,3.621-4.51
		c0-2.484-1.778-4.743-5.158-4.76c-2.268,0.017-4.543,0-6.811,0v14.345h2.699v-4.792h2.6l4.17,4.792h3.214V240.957z
		 M481.503,238.481h-8.041v-3.239h7.758v-2.517h-7.758v-3.314h8.041v-2.616H470.78c0,4.784,0,9.577,0,14.345h10.723V238.481z
		 M456.769,226.795h-3.207v0.125l5.498,8.297v5.923h2.708v-5.923l5.707-8.297v-0.125h-3.257l-3.804,5.922L456.769,226.795z
		 M448.122,235.923h-5.324l2.657-6.113L448.122,235.923z M450.414,241.14h2.94l-6.421-14.345h-2.948l-6.421,14.345h2.924l1.229-2.7
		h7.492L450.414,241.14z M424.897,226.795v14.345h10.066v-2.5h-7.367v-11.844H424.897z M415.653,226.795
		c-2.251-0.024-4.502,0-6.752,0v14.345h2.708v-4.211h4.044C422.672,236.928,422.655,226.795,415.653,226.795z M411.609,229.37h4.044
		c3.439,0,3.455,5.075,0,5.075h-4.044V229.37z M400.071,229.17c-1.088-2.209-3.397-2.84-5.631-2.84
		c-2.642,0.016-5.541,1.221-5.541,4.169c0,3.215,2.7,3.987,5.624,4.336c1.902,0.208,3.313,0.756,3.313,2.11
		c0,1.553-1.595,2.143-3.297,2.143c-1.736,0-3.396-0.69-4.029-2.268l-2.25,1.171c1.063,2.616,3.314,3.514,6.238,3.514
		c3.197,0,6.021-1.371,6.021-4.56c0-3.422-2.783-4.195-5.773-4.561c-1.719-0.208-3.188-0.557-3.188-1.802
		c0-1.063,0.954-1.902,2.965-1.902c1.554,0,2.907,0.772,3.397,1.594L400.071,229.17z M377.173,228.988
		c3.381,0,4.726,2.699,4.693,5.116c-0.043,2.351-1.313,4.884-4.693,4.884c-3.372,0-4.644-2.517-4.702-4.867
		C372.405,231.704,373.801,228.988,377.173,228.988z M377.173,226.529c-4.951,0-7.367,3.788-7.367,7.55
		c0,3.762,2.342,7.383,7.367,7.383c5.033,0,7.31-3.704,7.351-7.4C384.564,230.317,382.106,226.529,377.173,226.529z
		 M366.192,238.481h-8.041v-3.239h7.75v-2.517h-7.75v-3.314h8.041v-2.616H355.47c0,4.784,0,9.577,0,14.345h10.723V238.481z
		 M341.457,229.354h2.948c3.107,0,4.42,2.234,4.477,4.469c0.067,2.342-1.221,4.717-4.477,4.717h-2.948V229.354z M344.405,226.795
		c-1.76,0-3.869,0-5.631,0v14.345c1.762,0,3.871,0,5.631,0c5.01,0,7.219-3.663,7.16-7.293
		C351.5,230.292,349.315,226.795,344.405,226.795z M334.256,241.14v-14.345h-2.675v14.345H334.256z M327.736,226.795h-3.032
		l-4.335,11.164l-4.319-11.164h-3.023l5.947,14.402h2.808L327.736,226.795z"/> -->
</g>
</svg>
