<?xml version="1.0" encoding="utf-8"?>
<!-- Generator: Adobe Illustrator 15.1.0, SVG Export Plug-In . SVG Version: 6.00 Build 0)  -->
<!DOCTYPE svg PUBLIC "-//W3C//DTD SVG 1.0//EN" "http://www.w3.org/TR/2001/REC-SVG-20010904/DTD/svg10.dtd">
<svg version="1.0" id="Layer_1" xmlns="http://www.w3.org/2000/svg" xmlns:xlink="http://www.w3.org/1999/xlink" x="0px" y="0px"
	 width="800px" height="800px" viewBox="197.718994140625 206.56199645996094 419.51300048828125 376.5679931640625" enable-background="new 0 0 800 800" xml:space="preserve">
<g>
	<!-- <path fill="#BCC2C6" d="M213.873,206.562h387.205c4.443,0,8.488,1.811,11.411,4.734v0.025c2.924,2.923,4.743,6.952,4.743,11.387
		v344.275c0,4.436-1.819,8.472-4.743,11.396v0.017c-2.923,2.924-6.968,4.734-11.411,4.734H213.873
		c-4.451,0-8.488-1.811-11.412-4.734v-0.017c-2.924-2.924-4.742-6.96-4.742-11.396V222.708c0-4.436,1.818-8.464,4.742-11.387v-0.025
		C205.385,208.373,209.422,206.562,213.873,206.562"/>
	<path fill="#EBEFF0" d="M611.368,222.708v344.275c0,6.479-4.519,10.299-10.29,10.299H213.873c-5.764,0-10.291-3.704-10.291-10.299
		V222.708c0-6.719,4.544-10.291,10.291-10.291h387.205C606.842,212.417,611.368,216.113,611.368,222.708"/> -->
	<path fill="#34495E" d="M211.739,253.855h391.473c3.863,0,7.367,1.578,9.9,4.112c2.542,2.542,4.12,6.047,4.12,9.909v301.233
		c0,3.87-1.578,7.376-4.12,9.9c-2.533,2.542-6.037,4.12-9.9,4.12H211.739c-3.854,0-7.367-1.578-9.9-4.12
		c-2.542-2.524-4.12-6.03-4.12-9.9V267.876c0-3.862,1.578-7.367,4.12-9.909C204.372,255.434,207.885,253.855,211.739,253.855"/>
	<path fill-rule="evenodd" clip-rule="evenodd" fill="#FFFFFF" d="M211.739,259.711c-2.167,0-4.228,0.872-5.765,2.401
		c-1.527,1.536-2.4,3.596-2.4,5.764v301.233c0,2.177,0.873,4.236,2.4,5.765c1.537,1.527,3.598,2.408,5.765,2.408h391.473
		c2.169,0,4.228-0.881,5.756-2.408c1.536-1.528,2.4-3.588,2.4-5.765V267.876c0-2.176-0.864-4.228-2.4-5.764
		c-1.528-1.529-3.596-2.401-5.756-2.401H211.739z"/>
	<!-- <path fill-rule="evenodd" clip-rule="evenodd" fill="#94A4A5" d="M552.828,226.455c4.12,0,7.468,3.338,7.468,7.458
		c0,4.119-3.34,7.467-7.468,7.467c-4.119,0-7.459-3.348-7.459-7.467C545.369,229.793,548.709,226.455,552.828,226.455
		 M576.268,226.455c4.12,0,7.459,3.347,7.459,7.458c0,4.119-3.339,7.467-7.459,7.467c-4.119,0-7.467-3.348-7.467-7.467
		C568.801,229.793,572.148,226.455,576.268,226.455z M529.397,226.455c4.12,0,7.459,3.338,7.459,7.458
		c0,4.119-3.339,7.467-7.459,7.467s-7.467-3.348-7.467-7.467C521.931,229.802,525.277,226.455,529.397,226.455z"/> -->
	<path fill-rule="evenodd" clip-rule="evenodd" fill="#34495E" d="M246.192,301.573h140.858c4.221,0,7.675,3.455,7.675,7.683v84.479
		c0,4.228-3.454,7.683-7.675,7.683H246.192c-4.228,0-7.683-3.455-7.683-7.683v-84.479
		C238.51,305.028,241.965,301.573,246.192,301.573"/>
	<path fill="#F65C4C" d="M246.192,307.437h140.858c0.997,0,1.819,0.814,1.819,1.819v84.479c0,1.005-0.822,1.819-1.819,1.819H246.192
		c-1.005,0-1.819-0.814-1.819-1.819v-84.479C244.373,308.251,245.188,307.437,246.192,307.437"/>
	<path fill-rule="evenodd" clip-rule="evenodd" fill="#D63C2C" d="M330.688,362.131l-18.239,10.523
		c-1.254,0.723-2.666,1.205-4.12,1.205c-1.121,0-2.2-0.283-3.172-0.855c-0.948-0.557-1.703-1.354-2.251-2.31
		c-0.731-1.254-1.048-2.708-1.048-4.153v-21.046c0-1.446,0.3-2.899,1.03-4.162c0.565-0.972,1.347-1.777,2.325-2.334
		c0.956-0.54,2.019-0.813,3.115-0.813c1.463,0,2.874,0.473,4.128,1.196l18.216,10.523c1.262,0.731,2.375,1.711,3.105,2.982
		c0.564,0.964,0.863,2.043,0.855,3.164c-0.008,1.097-0.315,2.144-0.863,3.099C333.047,360.412,331.942,361.409,330.688,362.131"/>
	<path fill-rule="evenodd" clip-rule="evenodd" fill="#34495E" d="M330.688,357.604l-18.239,10.523
		c-1.254,0.714-2.666,1.205-4.12,1.205c-1.121,0-2.2-0.291-3.172-0.855c-0.948-0.565-1.703-1.354-2.251-2.309
		c-0.731-1.263-1.048-2.708-1.048-4.162v-21.039c0-1.454,0.3-2.907,1.03-4.17c0.565-0.972,1.347-1.769,2.325-2.333
		c0.956-0.54,2.019-0.806,3.115-0.806c1.463,0,2.874,0.465,4.128,1.196l18.216,10.524c1.262,0.722,2.375,1.711,3.105,2.974
		c0.564,0.972,0.863,2.051,0.855,3.164c-0.008,1.104-0.315,2.151-0.863,3.106C333.047,355.877,331.942,356.882,330.688,357.604"/>
	<path fill-rule="evenodd" clip-rule="evenodd" fill="#FFFFFF" d="M328.071,353.069c0.439-0.249,0.905-0.623,1.163-1.063
		c0.1-0.166,0.166-0.341,0.166-0.531c0-0.183-0.058-0.349-0.149-0.507c-0.258-0.44-0.757-0.806-1.196-1.063l-9.111-5.258
		l-9.104-5.266c-0.432-0.249-0.997-0.49-1.512-0.49c-0.191,0-0.373,0.034-0.539,0.133c-0.159,0.091-0.275,0.232-0.366,0.39
		c-0.257,0.448-0.332,1.046-0.332,1.553v21.047c0,0.506,0.083,1.096,0.34,1.544c0.092,0.158,0.217,0.307,0.383,0.407
		c0.158,0.092,0.323,0.133,0.515,0.133c0.498,0,1.08-0.266,1.504-0.507L328.071,353.069z"/>
	<path fill-rule="evenodd" clip-rule="evenodd" fill="#34495E" d="M316.627,323.583c-15.416,0-27.917,12.5-27.917,27.908
		c0,15.416,12.501,27.908,27.917,27.908c15.406,0,27.898-12.492,27.898-27.908C344.525,336.083,332.033,323.583,316.627,323.583
		 M316.627,317.744c18.629,0,33.737,15.117,33.737,33.747c0,18.639-15.108,33.747-33.737,33.747
		c-18.647,0-33.748-15.108-33.748-33.747C282.879,332.861,297.979,317.744,316.627,317.744z"/>
	<path fill-rule="evenodd" clip-rule="evenodd" fill="#34495E" d="M427.899,301.573h140.859c4.22,0,7.675,3.455,7.675,7.683v84.479
		c0,4.228-3.455,7.683-7.675,7.683H427.899c-4.228,0-7.683-3.455-7.683-7.683v-84.479
		C420.217,305.028,423.672,301.573,427.899,301.573"/>
	<path fill="#F65C4C" d="M427.899,307.437h140.859c0.997,0,1.82,0.814,1.82,1.819v84.479c0,1.005-0.823,1.819-1.82,1.819H427.899
		c-0.997,0-1.819-0.814-1.819-1.819v-84.479C426.08,308.251,426.902,307.437,427.899,307.437"/>
	<path fill-rule="evenodd" clip-rule="evenodd" fill="#D63C2C" d="M512.396,362.131l-18.241,10.523
		c-1.254,0.723-2.665,1.205-4.118,1.205c-1.121,0-2.201-0.283-3.174-0.855c-0.946-0.557-1.703-1.354-2.259-2.31
		c-0.723-1.254-1.039-2.708-1.039-4.153v-21.046c0-1.446,0.308-2.899,1.039-4.162c0.556-0.972,1.337-1.777,2.317-2.334
		c0.955-0.54,2.019-0.813,3.115-0.813c1.461,0,2.873,0.473,4.128,1.196l18.222,10.523c1.255,0.731,2.368,1.711,3.099,2.982
		c0.565,0.964,0.863,2.043,0.856,3.164c-0.01,1.097-0.316,2.144-0.865,3.099C514.755,360.412,513.65,361.409,512.396,362.131"/>
	<path fill-rule="evenodd" clip-rule="evenodd" fill="#34495E" d="M512.396,357.604l-18.241,10.523
		c-1.254,0.714-2.665,1.205-4.118,1.205c-1.121,0-2.201-0.291-3.174-0.855c-0.946-0.565-1.703-1.354-2.259-2.309
		c-0.723-1.263-1.039-2.708-1.039-4.162v-21.039c0-1.454,0.308-2.907,1.039-4.17c0.556-0.972,1.337-1.769,2.317-2.333
		c0.955-0.54,2.019-0.806,3.115-0.806c1.461,0,2.873,0.465,4.128,1.196l18.222,10.524c1.255,0.722,2.368,1.711,3.099,2.974
		c0.565,0.972,0.863,2.051,0.856,3.164c-0.01,1.104-0.316,2.151-0.865,3.106C514.755,355.877,513.65,356.882,512.396,357.604"/>
	<path fill-rule="evenodd" clip-rule="evenodd" fill="#FFFFFF" d="M509.779,353.069c0.44-0.249,0.914-0.623,1.171-1.063
		c0.092-0.166,0.158-0.341,0.158-0.531c0-0.183-0.059-0.349-0.149-0.507c-0.259-0.44-0.756-0.806-1.188-1.063l-9.119-5.258
		l-9.104-5.266c-0.432-0.249-0.995-0.49-1.51-0.49c-0.191,0-0.375,0.034-0.541,0.133c-0.157,0.091-0.273,0.232-0.365,0.39
		c-0.258,0.448-0.333,1.046-0.333,1.553v21.047c0,0.506,0.083,1.096,0.342,1.544c0.091,0.158,0.216,0.307,0.381,0.407
		c0.158,0.092,0.333,0.133,0.517,0.133c0.506,0,1.078-0.266,1.503-0.507L509.779,353.069z"/>
	<path fill-rule="evenodd" clip-rule="evenodd" fill="#34495E" d="M498.334,323.583c-15.416,0-27.916,12.5-27.916,27.908
		c0,15.416,12.5,27.908,27.916,27.908c15.407,0,27.899-12.492,27.899-27.908C526.233,336.083,513.741,323.583,498.334,323.583
		 M498.334,317.744c18.63,0,33.738,15.117,33.738,33.747c0,18.639-15.108,33.747-33.738,33.747
		c-18.639,0-33.747-15.108-33.747-33.747C464.587,332.861,479.695,317.744,498.334,317.744z"/>
	<path fill-rule="evenodd" clip-rule="evenodd" fill="#34495E" d="M246.192,435.572h140.858c4.221,0,7.675,3.454,7.675,7.679v84.487
		c0,4.236-3.454,7.675-7.675,7.675H246.192c-4.228,0-7.683-3.438-7.683-7.675v-84.487
		C238.51,439.026,241.965,435.572,246.192,435.572"/>
	<path fill="#F65C4C" d="M246.192,441.436h140.858c0.997,0,1.819,0.813,1.819,1.815v84.487c0,0.996-0.822,1.811-1.819,1.811H246.192
		c-1.005,0-1.819-0.814-1.819-1.811v-84.487C244.373,442.249,245.188,441.436,246.192,441.436"/>
	<path fill-rule="evenodd" clip-rule="evenodd" fill="#D63C2C" d="M330.688,496.126l-18.239,10.532
		c-1.254,0.714-2.666,1.195-4.12,1.195c-1.121,0-2.2-0.281-3.172-0.847c-0.948-0.565-1.703-1.346-2.251-2.31
		c-0.731-1.262-1.048-2.708-1.048-4.152v-21.048c0-1.444,0.3-2.907,1.03-4.169c0.565-0.964,1.347-1.778,2.325-2.325
		c0.956-0.549,2.019-0.814,3.115-0.814c1.463,0,2.874,0.465,4.128,1.196l18.216,10.515c1.262,0.731,2.375,1.712,3.105,2.989
		c0.564,0.965,0.863,2.045,0.855,3.157c-0.008,1.097-0.315,2.159-0.863,3.106C333.047,494.415,331.942,495.411,330.688,496.126"/>
	<path fill-rule="evenodd" clip-rule="evenodd" fill="#34495E" d="M330.688,491.607l-18.239,10.516
		c-1.254,0.73-2.666,1.213-4.12,1.213c-1.121,0-2.2-0.283-3.172-0.864c-0.948-0.548-1.703-1.346-2.251-2.31
		c-0.731-1.245-1.048-2.708-1.048-4.152v-21.048c0-1.444,0.3-2.891,1.03-4.152c0.565-0.98,1.347-1.778,2.325-2.342
		c0.956-0.532,2.019-0.814,3.115-0.814c1.463,0,2.874,0.481,4.128,1.195l18.216,10.532c1.262,0.73,2.375,1.711,3.105,2.974
		c0.564,0.964,0.863,2.044,0.855,3.173c-0.008,1.097-0.315,2.143-0.863,3.091C333.047,489.88,331.942,490.877,330.688,491.607"/>
	<path fill-rule="evenodd" clip-rule="evenodd" fill="#FFFFFF" d="M328.071,487.072c0.439-0.249,0.905-0.614,1.163-1.063
		c0.1-0.167,0.166-0.35,0.166-0.532s-0.058-0.349-0.149-0.499c-0.258-0.448-0.757-0.813-1.196-1.079l-9.111-5.249l-9.104-5.266
		c-0.432-0.25-0.997-0.498-1.512-0.498c-0.191,0-0.373,0.032-0.539,0.132c-0.159,0.101-0.275,0.249-0.366,0.399
		c-0.257,0.447-0.332,1.046-0.332,1.544v21.048c0,0.515,0.083,1.097,0.34,1.544c0.092,0.167,0.217,0.315,0.383,0.416
		c0.158,0.1,0.323,0.133,0.515,0.133c0.498,0,1.08-0.266,1.504-0.515L328.071,487.072z"/>
	<path fill-rule="evenodd" clip-rule="evenodd" fill="#34495E" d="M316.627,457.587c-15.416,0-27.917,12.492-27.917,27.908
		c0,15.414,12.501,27.906,27.917,27.906c15.406,0,27.898-12.492,27.898-27.906C344.525,470.079,332.033,457.587,316.627,457.587
		 M316.627,451.756c18.629,0,33.737,15.101,33.737,33.739c0,18.637-15.108,33.754-33.737,33.754
		c-18.647,0-33.748-15.117-33.748-33.754C282.879,466.856,297.979,451.756,316.627,451.756z"/>
	<path fill-rule="evenodd" clip-rule="evenodd" fill="#34495E" d="M427.899,435.572h140.859c4.22,0,7.675,3.454,7.675,7.679v84.487
		c0,4.236-3.455,7.675-7.675,7.675H427.899c-4.228,0-7.683-3.438-7.683-7.675v-84.487
		C420.217,439.026,423.672,435.572,427.899,435.572"/>
	<path fill="#F65C4C" d="M427.899,441.436h140.859c0.997,0,1.82,0.813,1.82,1.815v84.487c0,0.996-0.823,1.811-1.82,1.811H427.899
		c-0.997,0-1.819-0.814-1.819-1.811v-84.487C426.08,442.249,426.902,441.436,427.899,441.436"/>
	<path fill-rule="evenodd" clip-rule="evenodd" fill="#D63C2C" d="M512.396,496.126l-18.241,10.532
		c-1.254,0.714-2.665,1.195-4.118,1.195c-1.121,0-2.201-0.281-3.174-0.847c-0.946-0.565-1.703-1.346-2.259-2.31
		c-0.723-1.262-1.039-2.708-1.039-4.152v-21.048c0-1.444,0.308-2.907,1.039-4.169c0.556-0.964,1.337-1.778,2.317-2.325
		c0.955-0.549,2.019-0.814,3.115-0.814c1.461,0,2.873,0.465,4.128,1.196l18.222,10.515c1.255,0.731,2.368,1.712,3.099,2.989
		c0.565,0.965,0.863,2.045,0.856,3.157c-0.01,1.097-0.316,2.159-0.865,3.106C514.755,494.415,513.65,495.411,512.396,496.126"/>
	<path fill-rule="evenodd" clip-rule="evenodd" fill="#34495E" d="M512.396,491.607l-18.241,10.516
		c-1.254,0.73-2.665,1.213-4.118,1.213c-1.121,0-2.201-0.283-3.174-0.864c-0.946-0.548-1.703-1.346-2.259-2.31
		c-0.723-1.245-1.039-2.708-1.039-4.152v-21.048c0-1.444,0.308-2.891,1.039-4.152c0.556-0.98,1.337-1.778,2.317-2.342
		c0.955-0.532,2.019-0.814,3.115-0.814c1.461,0,2.873,0.481,4.128,1.195l18.222,10.532c1.255,0.73,2.368,1.711,3.099,2.974
		c0.565,0.964,0.863,2.044,0.856,3.173c-0.01,1.097-0.316,2.143-0.865,3.091C514.755,489.88,513.65,490.877,512.396,491.607"/>
	<path fill-rule="evenodd" clip-rule="evenodd" fill="#FFFFFF" d="M509.779,487.072c0.44-0.249,0.914-0.614,1.171-1.063
		c0.092-0.167,0.158-0.35,0.158-0.532s-0.059-0.349-0.149-0.499c-0.259-0.448-0.756-0.813-1.188-1.079l-9.119-5.249l-9.104-5.266
		c-0.432-0.25-0.995-0.498-1.51-0.498c-0.191,0-0.375,0.032-0.541,0.132c-0.157,0.101-0.273,0.249-0.365,0.399
		c-0.258,0.447-0.333,1.046-0.333,1.544v21.048c0,0.515,0.083,1.097,0.342,1.544c0.091,0.167,0.216,0.315,0.381,0.416
		c0.158,0.1,0.333,0.133,0.517,0.133c0.506,0,1.078-0.266,1.503-0.515L509.779,487.072z"/>
	<path fill-rule="evenodd" clip-rule="evenodd" fill="#34495E" d="M498.334,457.587c-15.416,0-27.916,12.492-27.916,27.908
		c0,15.414,12.5,27.906,27.916,27.906c15.407,0,27.899-12.492,27.899-27.906C526.233,470.079,513.741,457.587,498.334,457.587
		 M498.334,451.756c18.63,0,33.738,15.101,33.738,33.739c0,18.637-15.108,33.754-33.738,33.754
		c-18.639,0-33.747-15.117-33.747-33.754C464.587,466.856,479.695,451.756,498.334,451.756z"/>
	<path opacity="0.5" fill-rule="evenodd" clip-rule="evenodd" fill="#34495E" d="M211.739,259.711c-2.167,0-4.228,0.872-5.765,2.401
		c-1.527,1.536-2.4,3.596-2.4,5.764v301.233c0,2.177,0.873,4.236,2.4,5.765c1.537,1.527,3.598,2.408,5.765,2.408h391.473
		c2.169,0,4.228-0.881,5.756-2.408c1.536-1.528,2.4-3.588,2.4-5.765V267.876c0-2.176-0.864-4.228-2.4-5.764
		c-1.528-1.529-3.596-2.401-5.756-2.401H211.739z"/>
	<path fill-rule="evenodd" clip-rule="evenodd" fill="#FFFFFF" d="M570.678,279.579l6.205,6.196l6.195-6.196
		c1.52-1.52,4.012-1.52,5.54,0l0,0c1.521,1.529,1.521,4.021,0,5.54l-6.195,6.196l6.195,6.205c1.521,1.52,1.521,4.012,0,5.54l0,0
		c-1.528,1.52-4.021,1.52-5.54,0l-6.195-6.196l-6.205,6.196c-1.521,1.52-4.012,1.52-5.531,0l0,0c-1.529-1.528-1.529-4.02,0-5.54
		l6.195-6.205l-6.204-6.196c-1.521-1.52-1.521-4.011,0-5.54h0.009C566.666,278.059,569.157,278.059,570.678,279.579"/>
	<path fill-rule="evenodd" clip-rule="evenodd" fill="#34495E" d="M284.89,316.964h245.173c4.22,0,7.675,3.472,7.675,7.683v187.692
		c0,4.22-3.473,7.691-7.675,7.691H284.89c-4.203,0-7.675-3.455-7.675-7.691V324.646C277.215,320.419,280.662,316.964,284.89,316.964
		"/>
	<path fill="#FFFFFF" d="M284.89,322.828h245.173c0.997,0,1.819,0.839,1.819,1.819v187.692c0,0.98-0.849,1.827-1.819,1.827H284.89
		c-0.98,0-1.819-0.813-1.819-1.827V324.646C283.07,323.642,283.893,322.828,284.89,322.828"/>
	<path fill-rule="evenodd" clip-rule="evenodd" fill="#34495E" d="M284.89,316.964h245.173c4.22,0,7.675,3.472,7.675,7.683v143.256
		c0,4.22-3.473,7.69-7.675,7.69H284.89c-4.203,0-7.675-3.454-7.675-7.69V324.646C277.215,320.419,280.662,316.964,284.89,316.964"/>
	<path fill="#F65C4C" d="M284.89,322.828h245.173c0.997,0,1.819,0.831,1.819,1.819v143.256c0,0.98-0.84,1.827-1.819,1.827H284.89
		c-0.98,0-1.819-0.813-1.819-1.827V324.646C283.07,323.642,283.893,322.828,284.89,322.828"/>
	<path fill="#D63C2C" d="M423.522,408.055l-12.933,7.458h-0.007l-12.934,7.468c-1.811,1.037-3.555,1.527-5.149,1.527
		c-1.388,0-2.666-0.356-3.796-1.029c-1.112-0.647-2.035-1.587-2.716-2.766c-0.822-1.438-1.287-3.215-1.287-5.208v-14.926v-14.934
		c0-2.051,0.465-3.804,1.279-5.216c0.706-1.221,1.645-2.16,2.773-2.799c1.138-0.639,2.4-0.972,3.746-0.972
		c1.636,0,3.406,0.498,5.166,1.512l-0.008,0.008l12.925,7.459l12.923,7.458h0.017c1.778,1.03,3.073,2.317,3.887,3.721
		c0.698,1.213,1.031,2.492,1.022,3.796c-0.016,1.287-0.365,2.541-1.039,3.713C426.563,405.762,425.259,407.049,423.522,408.055"/>
	<path fill="#34495E" d="M423.522,403.743l-12.933,7.467h-0.007l-12.934,7.459c-1.811,1.047-3.555,1.528-5.149,1.528
		c-1.388,0-2.666-0.356-3.796-1.021c-1.112-0.656-2.035-1.595-2.716-2.773c-0.822-1.437-1.287-3.207-1.287-5.209v-14.925v-14.934
		c0-2.043,0.465-3.805,1.279-5.216c0.706-1.213,1.645-2.151,2.773-2.791c1.138-0.647,2.4-0.971,3.746-0.971
		c1.636,0,3.406,0.49,5.166,1.503l-0.008,0.008l12.925,7.458l12.923,7.467h0.017c1.778,1.03,3.073,2.309,3.887,3.721
		c0.698,1.205,1.031,2.492,1.022,3.788c-0.016,1.287-0.365,2.549-1.039,3.721C426.563,401.451,425.259,402.746,423.522,403.743"/>
	<path fill-rule="evenodd" clip-rule="evenodd" fill="#FFFFFF" d="M420.5,398.511c0.622-0.357,1.295-0.881,1.66-1.512
		c0.134-0.233,0.225-0.482,0.225-0.748c0.009-0.266-0.083-0.499-0.215-0.714c-0.358-0.631-1.064-1.155-1.688-1.512l-12.923-7.467
		l-12.917-7.468c-0.614-0.349-1.42-0.697-2.143-0.697c-0.283,0-0.531,0.05-0.773,0.19c-0.224,0.125-0.389,0.341-0.522,0.556
		c-0.356,0.632-0.464,1.479-0.464,2.193v29.859c0,0.723,0.115,1.555,0.48,2.193c0.142,0.232,0.307,0.439,0.541,0.582
		c0.231,0.141,0.472,0.191,0.738,0.191c0.706,0,1.528-0.375,2.126-0.724L420.5,398.511z"/>
	<path fill-rule="evenodd" clip-rule="evenodd" fill="#34495E" d="M406.563,355.569c-22.484,0-40.707,18.223-40.707,40.707
		c0,22.484,18.223,40.707,40.707,40.707c22.492,0,40.716-18.223,40.716-40.707C447.278,373.792,429.055,355.569,406.563,355.569
		 M406.563,349.531c-25.814,0-46.746,20.922-46.746,46.745c0,25.814,20.932,46.741,46.746,46.741
		c25.822,0,46.744-20.927,46.744-46.741C453.307,370.454,432.385,349.531,406.563,349.531z"/>
	<path fill-rule="evenodd" clip-rule="evenodd" fill="#34495E" d="M309.508,498.152h195.937c1.611,0,2.923-1.313,2.923-2.94
		c0-1.611-1.321-2.924-2.923-2.924H309.508c-1.604,0-2.932,1.313-2.932,2.924C306.576,496.84,307.896,498.152,309.508,498.152"/>
	<path fill-rule="evenodd" clip-rule="evenodd" fill="#34495E" d="M344.725,483.251c6.611,0,11.969,5.367,11.969,11.961
		c0,6.612-5.357,11.978-11.969,11.978c-6.603,0-11.96-5.365-11.96-11.978C332.765,488.618,338.122,483.251,344.725,483.251"/>
	<path fill-rule="evenodd" clip-rule="evenodd" fill="#FFFFFF" d="M344.725,489.116c3.373,0,6.105,2.74,6.105,6.096
		c0,3.372-2.732,6.114-6.105,6.114c-3.363,0-6.096-2.742-6.096-6.114C338.629,491.856,341.361,489.116,344.725,489.116"/>
	<!-- <path fill-rule="evenodd" clip-rule="evenodd" fill="#94A4A5" d="M494.322,229.312c1.702,0,2.458,1.146,2.458,2.301
		c0,1.154-0.739,2.301-2.458,2.301h-4.112v-4.602H494.322z M500.193,240.957l-4.335-4.892c2.726-0.557,3.621-2.542,3.621-4.51
		c0-2.484-1.776-4.743-5.157-4.76c-2.268,0.017-4.544,0-6.812,0v14.345h2.699v-4.792h2.601l4.169,4.792h3.214V240.957z
		 M483.233,238.481h-8.039v-3.239h7.757v-2.517h-7.757v-3.314h8.039v-2.616h-10.723c0,4.784,0,9.577,0,14.345h10.723V238.481z
		 M458.499,226.795h-3.206v0.125l5.507,8.297v5.923h2.7v-5.923l5.705-8.297v-0.125h-3.256l-3.805,5.922L458.499,226.795z
		 M449.853,235.923h-5.324l2.667-6.113L449.853,235.923z M452.145,241.14h2.94l-6.421-14.345h-2.948l-6.421,14.345h2.924l1.229-2.7
		h7.485L452.145,241.14z M426.629,226.795v14.345h10.066v-2.5h-7.357v-11.844H426.629z M417.385,226.795
		c-2.251-0.024-4.502,0-6.753,0v14.345h2.708v-4.211h4.045C424.402,236.928,424.386,226.795,417.385,226.795z M413.34,229.37h4.045
		c3.438,0,3.463,5.075,0,5.075h-4.045V229.37z M401.794,229.17c-1.079-2.209-3.388-2.84-5.622-2.84
		c-2.643,0.016-5.54,1.221-5.54,4.169c0,3.215,2.698,3.987,5.622,4.336c1.902,0.208,3.314,0.756,3.314,2.11
		c0,1.553-1.596,2.143-3.297,2.143c-1.736,0-3.397-0.69-4.028-2.268l-2.252,1.171c1.063,2.616,3.314,3.514,6.238,3.514
		c3.198,0,6.022-1.371,6.022-4.56c0-3.422-2.783-4.195-5.773-4.561c-1.719-0.208-3.189-0.557-3.189-1.802
		c0-1.063,0.964-1.902,2.965-1.902c1.554,0,2.907,0.772,3.397,1.594L401.794,229.17z M378.903,228.988
		c3.381,0,4.734,2.699,4.693,5.116c-0.041,2.351-1.313,4.884-4.693,4.884c-3.372,0-4.644-2.517-4.7-4.867
		C374.136,231.704,375.531,228.988,378.903,228.988z M378.903,226.529c-4.95,0-7.367,3.788-7.367,7.55
		c0,3.762,2.333,7.383,7.367,7.383c5.033,0,7.31-3.704,7.351-7.4C386.296,230.317,383.837,226.529,378.903,226.529z
		 M367.923,238.481h-8.04v-3.239h7.749v-2.517h-7.749v-3.314h8.04v-2.616H357.2c0,4.784,0,9.577,0,14.345h10.723V238.481z
		 M343.188,229.354h2.949c3.106,0,4.419,2.234,4.478,4.469c0.065,2.342-1.222,4.717-4.478,4.717h-2.949V229.354z M346.137,226.795
		c-1.761,0-3.87,0-5.624,0v14.345c1.754,0,3.863,0,5.624,0c5.009,0,7.218-3.663,7.159-7.293
		C353.238,230.292,351.045,226.795,346.137,226.795z M335.987,241.14v-14.345h-2.683v14.345H335.987z M329.467,226.795h-3.031
		l-4.336,11.164l-4.319-11.164h-3.023l5.955,14.402h2.8L329.467,226.795z"/> -->
</g>
</svg>
