<?xml version="1.0" encoding="UTF-8" standalone="no"?>
<svg
   xmlns:dc="http://purl.org/dc/elements/1.1/"
   xmlns:cc="http://creativecommons.org/ns#"
   xmlns:rdf="http://www.w3.org/1999/02/22-rdf-syntax-ns#"
   xmlns:svg="http://www.w3.org/2000/svg"
   xmlns="http://www.w3.org/2000/svg"
   xmlns:sodipodi="http://sodipodi.sourceforge.net/DTD/sodipodi-0.dtd"
   xmlns:inkscape="http://www.inkscape.org/namespaces/inkscape"
   inkscape:version="1.0 (6e3e5246a0, 2020-05-07)"
   sodipodi:docname="Videos 1.svg"
   xml:space="preserve"
   enable-background="new 0 0 800 800"
   viewBox="0 0 800 800"
   height="800px"
   width="800px"
   y="0px"
   x="0px"
   id="Layer_1"
   version="1.0"><metadata
   id="metadata2981"><rdf:RDF><cc:Work
       rdf:about=""><dc:format>image/svg+xml</dc:format><dc:type
         rdf:resource="http://purl.org/dc/dcmitype/StillImage" /></cc:Work></rdf:RDF></metadata><defs
   id="defs2979" /><sodipodi:namedview
   inkscape:current-layer="Layer_1"
   inkscape:window-maximized="1"
   inkscape:window-y="28"
   inkscape:window-x="0"
   inkscape:cy="437.16609"
   inkscape:cx="400"
   inkscape:zoom="1.07625"
   showgrid="false"
   id="namedview2977"
   inkscape:window-height="1026"
   inkscape:window-width="1920"
   inkscape:pageshadow="2"
   inkscape:pageopacity="0"
   guidetolerance="10"
   gridtolerance="10"
   objecttolerance="10"
   borderopacity="1"
   bordercolor="#666666"
   pagecolor="#ffffff" />
<g
   transform="matrix(1.9069638,0,0,1.9069529,-382.1192,-352.94252)"
   id="g2938">
	<!-- <path fill="#BCC2C6" d="M216.537,206.562h387.212c4.435,0,8.479,1.811,11.403,4.734v0.025c2.924,2.923,4.744,6.952,4.744,11.387
		v344.275c0,4.436-1.82,8.472-4.744,11.396v0.017c-2.924,2.924-6.969,4.734-11.403,4.734H216.537c-4.444,0-8.489-1.811-11.403-4.734
		v-0.017c-2.925-2.924-4.752-6.96-4.752-11.396V222.708c0-4.436,1.827-8.464,4.752-11.387v-0.025
		C208.048,208.373,212.093,206.562,216.537,206.562"/>
	<path fill="#EBEFF0" d="M614.031,222.708v344.275c0,6.479-4.519,10.299-10.282,10.299H216.537c-5.765,0-10.292-3.704-10.292-10.299
		V222.708c0-6.719,4.553-10.291,10.292-10.291h387.212C609.513,212.417,614.031,216.113,614.031,222.708"/> -->
	<path
   id="path2886"
   d="m 214.403,253.855 h 391.472 c 3.863,0 7.367,1.578 9.9,4.112 2.542,2.542 4.121,6.047 4.121,9.909 v 301.233 c 0,3.87 -1.579,7.376 -4.121,9.9 -2.533,2.542 -6.037,4.12 -9.9,4.12 H 214.403 c -3.855,0 -7.36,-1.578 -9.902,-4.12 -2.541,-2.524 -4.119,-6.03 -4.119,-9.9 V 267.876 c 0,-3.862 1.578,-7.367 4.119,-9.909 2.542,-2.533 6.047,-4.112 9.902,-4.112"
   fill="#bcc2c6" />
	<path
   id="path2888"
   d="m 214.403,259.711 c -2.169,0 -4.22,0.872 -5.758,2.401 -1.536,1.536 -2.4,3.596 -2.4,5.764 v 301.233 c 0,2.177 0.864,4.236 2.4,5.765 1.538,1.527 3.589,2.408 5.758,2.408 h 391.472 c 2.177,0 4.228,-0.881 5.765,-2.408 1.527,-1.528 2.392,-3.588 2.392,-5.765 V 267.876 c 0,-2.176 -0.864,-4.228 -2.392,-5.764 -1.537,-1.529 -3.604,-2.401 -5.765,-2.401 z"
   fill="#ffffff"
   clip-rule="evenodd"
   fill-rule="evenodd" />
	<!-- <path fill-rule="evenodd" clip-rule="evenodd" fill="#94A4A5" d="M555.491,226.455c4.121,0,7.468,3.338,7.468,7.458
		c0,4.119-3.347,7.467-7.468,7.467c-4.119,0-7.459-3.348-7.459-7.467C548.032,229.793,551.372,226.455,555.491,226.455
		 M578.931,226.455c4.12,0,7.459,3.347,7.459,7.458c0,4.119-3.339,7.467-7.459,7.467s-7.459-3.348-7.459-7.467
		C571.472,229.793,574.811,226.455,578.931,226.455z M532.061,226.455c4.12,0,7.467,3.338,7.467,7.458
		c0,4.119-3.347,7.467-7.467,7.467s-7.467-3.348-7.467-7.467C524.594,229.802,527.95,226.455,532.061,226.455z"/> -->
	<path
   id="path2890"
   d="m 248.854,301.573 h 140.859 c 4.229,0 7.683,3.455 7.683,7.683 v 84.479 c 0,4.228 -3.454,7.683 -7.683,7.683 H 248.854 c -4.219,0 -7.674,-3.455 -7.674,-7.683 v -84.479 c 0.001,-4.228 3.456,-7.683 7.674,-7.683"
   fill="#34495e"
   clip-rule="evenodd"
   fill-rule="evenodd" />
	<path
   id="path2892"
   d="m 248.854,307.437 h 140.859 c 1.006,0 1.819,0.814 1.819,1.819 v 84.479 c 0,1.005 -0.813,1.819 -1.819,1.819 H 248.854 c -0.996,0 -1.811,-0.814 -1.811,-1.819 v -84.479 c 0.001,-1.005 0.815,-1.819 1.811,-1.819"
   fill="#f65c4c" />
	<path
   id="path2894"
   d="m 333.351,362.131 -18.24,10.523 c -1.253,0.723 -2.665,1.205 -4.11,1.205 -1.13,0 -2.209,-0.283 -3.173,-0.855 -0.955,-0.557 -1.711,-1.354 -2.259,-2.31 -0.732,-1.254 -1.048,-2.708 -1.048,-4.153 v -21.046 c 0,-1.446 0.308,-2.899 1.031,-4.162 0.564,-0.972 1.344,-1.777 2.324,-2.334 0.956,-0.54 2.02,-0.813 3.124,-0.813 1.453,0 2.874,0.473 4.119,1.196 l 18.224,10.523 c 1.263,0.731 2.367,1.711 3.106,2.982 0.549,0.964 0.863,2.043 0.847,3.164 -0.009,1.097 -0.315,2.144 -0.863,3.099 -0.723,1.262 -1.828,2.259 -3.082,2.981"
   fill="#d63c2c"
   clip-rule="evenodd"
   fill-rule="evenodd" />
	<path
   id="path2896"
   d="m 333.351,357.604 -18.24,10.523 c -1.253,0.714 -2.665,1.205 -4.11,1.205 -1.13,0 -2.209,-0.291 -3.173,-0.855 -0.955,-0.565 -1.711,-1.354 -2.259,-2.309 -0.732,-1.263 -1.048,-2.708 -1.048,-4.162 v -21.039 c 0,-1.454 0.308,-2.907 1.031,-4.17 0.564,-0.972 1.344,-1.769 2.324,-2.333 0.956,-0.54 2.02,-0.806 3.124,-0.806 1.453,0 2.874,0.465 4.119,1.196 l 18.224,10.524 c 1.263,0.722 2.367,1.711 3.106,2.974 0.549,0.972 0.863,2.051 0.847,3.164 -0.009,1.104 -0.315,2.151 -0.863,3.106 -0.723,1.255 -1.828,2.26 -3.082,2.982"
   fill="#34495e"
   clip-rule="evenodd"
   fill-rule="evenodd" />
	<path
   id="path2898"
   d="m 330.734,353.069 c 0.439,-0.249 0.913,-0.623 1.171,-1.063 0.092,-0.166 0.157,-0.341 0.157,-0.531 0,-0.183 -0.057,-0.349 -0.148,-0.507 -0.257,-0.44 -0.757,-0.806 -1.188,-1.063 l -9.112,-5.258 -9.103,-5.266 c -0.432,-0.249 -1.004,-0.49 -1.511,-0.49 -0.199,0 -0.382,0.034 -0.549,0.133 -0.166,0.091 -0.274,0.232 -0.365,0.39 -0.257,0.448 -0.332,1.046 -0.332,1.553 v 21.047 c 0,0.506 0.083,1.096 0.348,1.544 0.085,0.158 0.209,0.307 0.374,0.407 0.159,0.092 0.325,0.133 0.524,0.133 0.497,0 1.079,-0.266 1.494,-0.507 z"
   fill="#ffffff"
   clip-rule="evenodd"
   fill-rule="evenodd" />
	<path
   id="path2900"
   d="m 319.289,323.583 c -15.417,0 -27.908,12.5 -27.908,27.908 0,15.416 12.491,27.908 27.908,27.908 15.415,0 27.907,-12.492 27.907,-27.908 0,-15.408 -12.492,-27.908 -27.907,-27.908 m 0,-5.839 c 18.638,0 33.738,15.117 33.738,33.747 0,18.639 -15.101,33.747 -33.738,33.747 -18.639,0 -33.747,-15.108 -33.747,-33.747 0,-18.63 15.108,-33.747 33.747,-33.747 z"
   fill="#34495e"
   clip-rule="evenodd"
   fill-rule="evenodd" />
	<path
   id="path2902"
   d="m 430.563,301.573 h 140.859 c 4.229,0 7.675,3.455 7.675,7.683 v 84.479 c 0,4.228 -3.446,7.683 -7.675,7.683 H 430.563 c -4.227,0 -7.683,-3.455 -7.683,-7.683 v -84.479 c 0,-4.228 3.456,-7.683 7.683,-7.683"
   fill="#34495e"
   clip-rule="evenodd"
   fill-rule="evenodd" />
	<path
   id="path2904"
   d="m 430.571,307.437 h 140.851 c 1.006,0 1.82,0.814 1.82,1.819 v 84.479 c 0,1.005 -0.814,1.819 -1.82,1.819 H 430.571 c -1.006,0 -1.826,-0.814 -1.826,-1.819 v -84.479 c 0,-1.005 0.82,-1.819 1.826,-1.819"
   fill="#f65c4c" />
	<path
   id="path2906"
   d="m 515.06,362.131 -18.241,10.523 c -1.245,0.723 -2.657,1.205 -4.119,1.205 -1.121,0 -2.201,-0.283 -3.165,-0.855 -0.955,-0.557 -1.711,-1.354 -2.259,-2.31 -0.724,-1.254 -1.038,-2.708 -1.038,-4.153 v -21.046 c 0,-1.446 0.298,-2.899 1.03,-4.162 0.556,-0.972 1.337,-1.777 2.317,-2.334 0.954,-0.54 2.018,-0.813 3.121,-0.813 1.455,0 2.867,0.473 4.129,1.196 l 18.215,10.523 c 1.263,0.731 2.368,1.711 3.099,2.982 0.565,0.964 0.863,2.043 0.863,3.164 -0.017,1.097 -0.324,2.144 -0.863,3.099 -0.731,1.262 -1.836,2.259 -3.089,2.981"
   fill="#d63c2c"
   clip-rule="evenodd"
   fill-rule="evenodd" />
	<path
   id="path2908"
   d="m 515.06,357.604 -18.241,10.523 c -1.245,0.714 -2.657,1.205 -4.119,1.205 -1.121,0 -2.201,-0.291 -3.165,-0.855 -0.955,-0.565 -1.711,-1.354 -2.259,-2.309 -0.724,-1.263 -1.038,-2.708 -1.038,-4.162 v -21.039 c 0,-1.454 0.298,-2.907 1.03,-4.17 0.556,-0.972 1.337,-1.769 2.317,-2.333 0.954,-0.54 2.018,-0.806 3.121,-0.806 1.455,0 2.867,0.465 4.129,1.196 l 18.215,10.524 c 1.263,0.722 2.368,1.711 3.099,2.974 0.565,0.972 0.863,2.051 0.863,3.164 -0.017,1.104 -0.324,2.151 -0.863,3.106 -0.731,1.255 -1.836,2.26 -3.089,2.982"
   fill="#34495e"
   clip-rule="evenodd"
   fill-rule="evenodd" />
	<path
   id="path2910"
   d="m 512.441,353.069 c 0.441,-0.249 0.915,-0.623 1.172,-1.063 0.1,-0.166 0.158,-0.341 0.165,-0.531 0,-0.183 -0.065,-0.349 -0.157,-0.507 -0.258,-0.44 -0.755,-0.806 -1.187,-1.063 l -9.12,-5.258 -9.104,-5.266 c -0.432,-0.249 -0.996,-0.49 -1.504,-0.49 -0.189,0 -0.372,0.034 -0.546,0.133 -0.159,0.091 -0.274,0.232 -0.357,0.39 -0.267,0.448 -0.332,1.046 -0.332,1.553 v 21.047 c 0,0.506 0.073,1.096 0.332,1.544 0.1,0.158 0.216,0.307 0.381,0.407 0.166,0.092 0.333,0.133 0.516,0.133 0.507,0 1.089,-0.266 1.511,-0.507 z"
   fill="#ffffff"
   clip-rule="evenodd"
   fill-rule="evenodd" />
	<path
   id="path2912"
   d="m 500.988,323.583 c -15.407,0 -27.899,12.5 -27.899,27.908 0,15.416 12.492,27.908 27.899,27.908 15.416,0 27.916,-12.492 27.916,-27.908 0,-15.408 -12.5,-27.908 -27.916,-27.908 m 0,-5.839 c 18.647,0 33.755,15.117 33.755,33.747 0,18.639 -15.107,33.747 -33.755,33.747 -18.63,0 -33.738,-15.108 -33.738,-33.747 0,-18.63 15.108,-33.747 33.738,-33.747 z"
   fill="#34495e"
   clip-rule="evenodd"
   fill-rule="evenodd" />
	<path
   id="path2914"
   d="m 248.854,435.572 h 140.859 c 4.229,0 7.683,3.454 7.683,7.679 v 84.487 c 0,4.236 -3.454,7.675 -7.683,7.675 H 248.854 c -4.219,0 -7.674,-3.438 -7.674,-7.675 v -84.487 c 0.001,-4.225 3.456,-7.679 7.674,-7.679"
   fill="#34495e"
   clip-rule="evenodd"
   fill-rule="evenodd" />
	<path
   id="path2916"
   d="m 248.854,441.436 h 140.859 c 1.006,0 1.819,0.813 1.819,1.815 v 84.487 c 0,0.996 -0.813,1.811 -1.819,1.811 H 248.854 c -0.996,0 -1.811,-0.814 -1.811,-1.811 v -84.487 c 0.001,-1.002 0.815,-1.815 1.811,-1.815"
   fill="#f65c4c" />
	<path
   id="path2918"
   d="m 333.351,496.126 -18.24,10.532 c -1.253,0.714 -2.665,1.195 -4.11,1.195 -1.13,0 -2.209,-0.281 -3.173,-0.847 -0.955,-0.565 -1.711,-1.346 -2.259,-2.31 -0.732,-1.262 -1.048,-2.708 -1.048,-4.152 v -21.048 c 0,-1.444 0.308,-2.907 1.031,-4.169 0.564,-0.964 1.344,-1.778 2.324,-2.325 0.956,-0.549 2.02,-0.814 3.124,-0.814 1.453,0 2.874,0.465 4.119,1.196 l 18.224,10.515 c 1.263,0.731 2.367,1.712 3.106,2.989 0.549,0.965 0.863,2.045 0.847,3.157 -0.009,1.097 -0.315,2.159 -0.863,3.106 -0.723,1.264 -1.828,2.26 -3.082,2.975"
   fill="#d63c2c"
   clip-rule="evenodd"
   fill-rule="evenodd" />
	<path
   id="path2920"
   d="m 333.351,491.607 -18.24,10.516 c -1.253,0.73 -2.665,1.213 -4.11,1.213 -1.13,0 -2.209,-0.283 -3.173,-0.864 -0.955,-0.548 -1.711,-1.346 -2.259,-2.31 -0.732,-1.245 -1.048,-2.708 -1.048,-4.152 v -21.048 c 0,-1.444 0.308,-2.891 1.031,-4.152 0.564,-0.98 1.344,-1.778 2.324,-2.342 0.956,-0.532 2.02,-0.814 3.124,-0.814 1.453,0 2.874,0.481 4.119,1.195 l 18.224,10.532 c 1.263,0.73 2.367,1.711 3.106,2.974 0.549,0.964 0.863,2.044 0.847,3.173 -0.009,1.097 -0.315,2.143 -0.863,3.091 -0.723,1.261 -1.828,2.258 -3.082,2.988"
   fill="#34495e"
   clip-rule="evenodd"
   fill-rule="evenodd" />
	<path
   id="path2922"
   d="m 330.734,487.072 c 0.439,-0.249 0.913,-0.614 1.171,-1.063 0.092,-0.167 0.157,-0.35 0.157,-0.532 0,-0.182 -0.057,-0.349 -0.148,-0.499 -0.257,-0.448 -0.757,-0.813 -1.188,-1.079 l -9.112,-5.249 -9.103,-5.266 c -0.432,-0.25 -1.004,-0.498 -1.511,-0.498 -0.199,0 -0.382,0.032 -0.549,0.132 -0.166,0.101 -0.274,0.249 -0.365,0.399 -0.257,0.447 -0.332,1.046 -0.332,1.544 v 21.048 c 0,0.515 0.083,1.097 0.348,1.544 0.085,0.167 0.209,0.315 0.374,0.416 0.159,0.1 0.325,0.133 0.524,0.133 0.497,0 1.079,-0.266 1.494,-0.515 z"
   fill="#ffffff"
   clip-rule="evenodd"
   fill-rule="evenodd" />
	<path
   id="path2924"
   d="m 319.289,457.587 c -15.417,0 -27.908,12.492 -27.908,27.908 0,15.414 12.491,27.906 27.908,27.906 15.415,0 27.907,-12.492 27.907,-27.906 0,-15.416 -12.492,-27.908 -27.907,-27.908 m 0,-5.831 c 18.638,0 33.738,15.101 33.738,33.739 0,18.637 -15.101,33.754 -33.738,33.754 -18.639,0 -33.747,-15.117 -33.747,-33.754 0,-18.639 15.108,-33.739 33.747,-33.739 z"
   fill="#34495e"
   clip-rule="evenodd"
   fill-rule="evenodd" />
	<path
   id="path2926"
   d="m 430.563,435.572 h 140.859 c 4.229,0 7.675,3.454 7.675,7.679 v 84.487 c 0,4.236 -3.446,7.675 -7.675,7.675 H 430.563 c -4.227,0 -7.683,-3.438 -7.683,-7.675 v -84.487 c 0,-4.225 3.456,-7.679 7.683,-7.679"
   fill="#34495e"
   clip-rule="evenodd"
   fill-rule="evenodd" />
	<path
   id="path2928"
   d="m 430.571,441.436 h 140.851 c 1.006,0 1.82,0.813 1.82,1.815 v 84.487 c 0,0.996 -0.814,1.811 -1.82,1.811 H 430.571 c -1.006,0 -1.826,-0.814 -1.826,-1.811 v -84.487 c 0,-1.002 0.82,-1.815 1.826,-1.815"
   fill="#f65c4c" />
	<path
   id="path2930"
   d="m 515.06,496.126 -18.241,10.532 c -1.245,0.714 -2.657,1.195 -4.119,1.195 -1.121,0 -2.201,-0.281 -3.165,-0.847 -0.955,-0.565 -1.711,-1.346 -2.259,-2.31 -0.724,-1.262 -1.038,-2.708 -1.038,-4.152 v -21.048 c 0,-1.444 0.298,-2.907 1.03,-4.169 0.556,-0.964 1.337,-1.778 2.317,-2.325 0.954,-0.549 2.018,-0.814 3.121,-0.814 1.455,0 2.867,0.465 4.129,1.196 l 18.215,10.515 c 1.263,0.731 2.368,1.712 3.099,2.989 0.565,0.965 0.863,2.045 0.863,3.157 -0.017,1.097 -0.324,2.159 -0.863,3.106 -0.731,1.264 -1.836,2.26 -3.089,2.975"
   fill="#d63c2c"
   clip-rule="evenodd"
   fill-rule="evenodd" />
	<path
   id="path2932"
   d="m 515.06,491.607 -18.241,10.516 c -1.245,0.73 -2.657,1.213 -4.119,1.213 -1.121,0 -2.201,-0.283 -3.165,-0.864 -0.955,-0.548 -1.711,-1.346 -2.259,-2.31 -0.724,-1.245 -1.038,-2.708 -1.038,-4.152 v -21.048 c 0,-1.444 0.298,-2.891 1.03,-4.152 0.556,-0.98 1.337,-1.778 2.317,-2.342 0.954,-0.532 2.018,-0.814 3.121,-0.814 1.455,0 2.867,0.481 4.129,1.195 l 18.215,10.532 c 1.263,0.73 2.368,1.711 3.099,2.974 0.565,0.964 0.863,2.044 0.863,3.173 -0.017,1.097 -0.324,2.143 -0.863,3.091 -0.731,1.261 -1.836,2.258 -3.089,2.988"
   fill="#34495e"
   clip-rule="evenodd"
   fill-rule="evenodd" />
	<path
   id="path2934"
   d="m 512.441,487.072 c 0.441,-0.249 0.915,-0.614 1.172,-1.063 0.1,-0.167 0.158,-0.35 0.165,-0.532 0,-0.183 -0.065,-0.349 -0.157,-0.499 -0.258,-0.448 -0.755,-0.813 -1.187,-1.079 l -9.12,-5.249 -9.104,-5.266 c -0.432,-0.25 -0.996,-0.498 -1.504,-0.498 -0.189,0 -0.372,0.032 -0.546,0.132 -0.159,0.101 -0.274,0.249 -0.357,0.399 -0.267,0.447 -0.332,1.046 -0.332,1.544 v 21.048 c 0,0.515 0.073,1.097 0.332,1.544 0.1,0.167 0.216,0.315 0.381,0.416 0.166,0.1 0.333,0.133 0.516,0.133 0.507,0 1.089,-0.266 1.511,-0.515 z"
   fill="#ffffff"
   clip-rule="evenodd"
   fill-rule="evenodd" />
	<path
   id="path2936"
   d="m 500.988,457.587 c -15.407,0 -27.899,12.492 -27.899,27.908 0,15.414 12.492,27.906 27.899,27.906 15.416,0 27.916,-12.492 27.916,-27.906 0,-15.416 -12.5,-27.908 -27.916,-27.908 m 0,-5.831 c 18.647,0 33.755,15.101 33.755,33.739 0,18.637 -15.107,33.754 -33.755,33.754 -18.63,0 -33.738,-15.117 -33.738,-33.754 0,-18.639 15.108,-33.739 33.738,-33.739 z"
   fill="#34495e"
   clip-rule="evenodd"
   fill-rule="evenodd" />
	<!-- <path fill-rule="evenodd" clip-rule="evenodd" fill="#94A4A5" d="M464.026,228.298c-1.279-2.616-4.019-3.364-6.652-3.364
		c-3.132,0.025-6.562,1.453-6.562,4.934c0,3.804,3.198,4.726,6.653,5.133c2.258,0.25,3.928,0.897,3.928,2.5
		c0,1.835-1.886,2.542-3.896,2.542c-2.06,0-4.021-0.822-4.775-2.691l-2.667,1.387c1.264,3.09,3.929,4.162,7.394,4.162
		c3.771,0,7.118-1.628,7.118-5.399c0-4.045-3.298-4.967-6.836-5.399c-2.027-0.241-3.771-0.656-3.771-2.135
		c0-1.254,1.138-2.251,3.505-2.251c1.843,0,3.438,0.922,4.02,1.894L464.026,228.298z M435.879,228.083
		c3.995,0,5.59,3.198,5.548,6.055c-0.049,2.782-1.553,5.781-5.548,5.781c-3.996,0-5.49-2.973-5.573-5.756
		C430.238,231.305,431.883,228.083,435.879,228.083z M435.879,225.175c-5.856,0-8.713,4.477-8.713,8.937
		c0,4.452,2.757,8.738,8.713,8.738c5.955,0,8.646-4.386,8.695-8.763C444.625,229.652,441.718,225.175,435.879,225.175z
		 M421.816,239.312h-9.519v-3.82h9.188v-2.981h-9.188v-3.92h9.519v-3.099h-12.683c0,5.657,0,11.33,0,16.978h12.683V239.312z
		 M391.484,228.514h3.487c3.688,0,5.232,2.642,5.308,5.291c0.075,2.766-1.454,5.582-5.308,5.582h-3.487V228.514z M394.972,225.491
		c-2.076,0-4.568,0-6.652,0v16.978c2.084,0,4.576,0,6.652,0c5.931,0,8.556-4.336,8.481-8.638
		C403.378,229.627,400.786,225.491,394.972,225.491z M381.915,242.468v-16.978h-3.182v16.978H381.915z M373.128,225.491h-3.589
		l-5.133,13.207l-5.101-13.207h-3.587l7.043,17.043h3.323L373.128,225.491z"/> -->
</g>
<g
   id="g2974">
	<path
   id="path2940"
   d="M6624.622,206.562h387.203c4.443,0,8.488,1.819,11.413,4.743v0.017c2.923,2.923,4.743,6.96,4.743,11.396   v344.267c0,4.436-1.82,8.472-4.743,11.396v0.017c-2.925,2.924-6.97,4.734-11.413,4.734h-387.203c-4.451,0-8.488-1.811-11.413-4.734   v-0.017c-2.923-2.924-4.743-6.96-4.743-11.396V222.717c0-4.436,1.82-8.472,4.743-11.396v-0.017   C6616.134,208.381,6620.171,206.562,6624.622,206.562"
   fill="#BCC2C6" />
	<path
   id="path2942"
   d="M7022.116,222.717v344.267c0,6.495-4.52,10.299-10.291,10.299h-387.203   c-5.766,0-10.292-3.704-10.292-10.299V222.717c0-6.719,4.543-10.291,10.292-10.291h387.203   C7017.591,212.426,7022.116,216.113,7022.116,222.717"
   fill="#EBEFF0" />
	<path
   id="path2944"
   d="M6622.487,253.864h391.473c3.863,0,7.367,1.57,9.9,4.112c2.542,2.533,4.121,6.046,4.121,9.9v301.25   c0,3.854-1.579,7.359-4.121,9.9c-2.533,2.543-6.037,4.104-9.9,4.104h-391.473c-3.854,0-7.367-1.561-9.901-4.104   c-2.541-2.541-4.12-6.047-4.12-9.9v-301.25c0-3.854,1.579-7.367,4.12-9.9C6615.12,255.434,6618.633,253.864,6622.487,253.864"
   fill="#BCC2C6" />
	<path
   id="path2946"
   d="M6622.487,259.719c-2.168,0-4.229,0.864-5.765,2.401   c-1.528,1.528-2.399,3.596-2.399,5.756v301.25c0,2.16,0.871,4.22,2.399,5.748c1.536,1.544,3.597,2.408,5.765,2.408h391.473   c2.168,0,4.228-0.864,5.756-2.408c1.535-1.528,2.4-3.588,2.4-5.748v-301.25c0-2.168-0.865-4.228-2.4-5.756   c-1.528-1.537-3.596-2.401-5.756-2.401H6622.487z"
   fill="#FFFFFF"
   clip-rule="evenodd"
   fill-rule="evenodd" />
	<path
   id="path2948"
   d="M6963.575,226.455c4.121,0,7.469,3.347,7.469,7.467   c0,4.119-3.34,7.458-7.469,7.458c-4.118,0-7.458-3.339-7.458-7.458C6956.117,229.802,6959.457,226.455,6963.575,226.455    M6987.016,226.455c4.12,0,7.458,3.347,7.458,7.467c0,4.119-3.338,7.458-7.458,7.458s-7.467-3.339-7.467-7.458   C6979.549,229.802,6982.896,226.455,6987.016,226.455z M6940.146,226.455c4.119,0,7.459,3.347,7.459,7.467   c0,4.119-3.34,7.458-7.459,7.458c-4.12,0-7.467-3.339-7.467-7.458C6932.679,229.802,6936.025,226.455,6940.146,226.455z"
   fill="#94A4A5"
   clip-rule="evenodd"
   fill-rule="evenodd" />
	<path
   id="path2950"
   d="M6656.939,301.573h140.859c4.22,0,7.676,3.455,7.676,7.683v84.487   c0,4.228-3.456,7.675-7.676,7.675h-140.859c-4.228,0-7.683-3.447-7.683-7.675v-84.487   C6649.257,305.028,6652.712,301.573,6656.939,301.573"
   fill="#34495E"
   clip-rule="evenodd"
   fill-rule="evenodd" />
	<path
   id="path2952"
   d="M6656.939,307.437h140.859c0.997,0,1.819,0.814,1.819,1.819v84.487c0,0.997-0.822,1.819-1.819,1.819   h-140.859c-1.005,0-1.819-0.822-1.819-1.819v-84.487C6655.12,308.251,6655.935,307.437,6656.939,307.437"
   fill="#22A6EF" />
	<path
   id="path2954"
   d="M6974.159,400.438c-1.139,0-2.078-0.939-2.078-2.084   c0-1.138,0.939-2.077,2.078-2.077h1.187c1.146,0,2.077,0.939,2.077,2.077c0,1.146-0.931,2.084-2.077,2.084H6974.159z    M6967.073,400.438c-1.146,0-2.076-0.939-2.076-2.084c0-1.138,0.93-2.077,2.076-2.077h1.18c1.146,0,2.076,0.939,2.076,2.077   c0,1.146-0.93,2.084-2.076,2.084H6967.073z M6959.988,400.438c-1.146,0-2.084-0.939-2.084-2.084c0-1.138,0.938-2.077,2.084-2.077   h1.179c1.146,0,2.078,0.939,2.078,2.077c0,1.146-0.932,2.084-2.078,2.084H6959.988z M6952.895,400.438   c-1.146,0-2.076-0.939-2.076-2.084c0-1.138,0.931-2.077,2.076-2.077h1.18c1.147,0,2.077,0.939,2.077,2.077   c0,1.146-0.93,2.084-2.077,2.084H6952.895z M6945.812,400.438c-1.147,0-2.078-0.939-2.078-2.084c0-1.138,0.931-2.077,2.078-2.077   h1.178c1.146,0,2.077,0.939,2.077,2.077c0,1.146-0.931,2.084-2.077,2.084H6945.812z M6938.717,400.438   c-1.146,0-2.077-0.939-2.077-2.084c0-1.138,0.932-2.077,2.077-2.077h1.179c1.155,0,2.085,0.939,2.085,2.077   c0,1.146-0.93,2.084-2.085,2.084H6938.717z M6931.632,400.438c-1.146,0-2.076-0.939-2.076-2.084c0-1.138,0.93-2.077,2.076-2.077   h1.18c1.146,0,2.076,0.939,2.076,2.077c0,1.146-0.93,2.084-2.076,2.084H6931.632z M6924.54,400.438   c-1.139,0-2.078-0.939-2.078-2.084c0-1.138,0.939-2.077,2.078-2.077h1.186c1.147,0,2.076,0.939,2.076,2.077   c0,1.146-0.929,2.084-2.076,2.084H6924.54z M6917.454,400.438c-1.147,0-2.076-0.939-2.076-2.084c0-1.138,0.929-2.077,2.076-2.077   h1.18c1.146,0,2.076,0.939,2.076,2.077c0,1.146-0.931,2.084-2.076,2.084H6917.454z M6910.369,400.438   c-1.146,0-2.077-0.939-2.077-2.084c0-1.138,0.932-2.077,2.077-2.077h1.179c1.146,0,2.076,0.939,2.076,2.077   c0,1.146-0.93,2.084-2.076,2.084H6910.369z M6903.274,400.438c-1.145,0-2.075-0.939-2.075-2.084c0-1.138,0.931-2.077,2.075-2.077   h1.181c1.147,0,2.085,0.939,2.085,2.077c0,1.146-0.938,2.084-2.085,2.084H6903.274z M6896.19,400.438   c-1.146,0-2.076-0.939-2.076-2.084c0-1.138,0.931-2.077,2.076-2.077h1.18c1.146,0,2.077,0.939,2.077,2.077   c0,1.146-0.931,2.084-2.077,2.084H6896.19z M6889.098,400.438c-1.146,0-2.077-0.939-2.077-2.084c0-1.138,0.932-2.077,2.077-2.077   h1.188c1.146,0,2.075,0.939,2.075,2.077c0,1.146-0.93,2.084-2.075,2.084H6889.098z M6882.013,400.438   c-1.146,0-2.076-0.939-2.076-2.084c0-1.138,0.93-2.077,2.076-2.077h1.18c1.145,0,2.076,0.939,2.076,2.077   c0,1.146-0.932,2.084-2.076,2.084H6882.013z M6874.927,400.438c-1.145,0-2.084-0.939-2.084-2.084c0-1.138,0.939-2.077,2.084-2.077   h1.18c1.147,0,2.076,0.939,2.076,2.077c0,1.146-0.929,2.084-2.076,2.084H6874.927z M6867.835,400.438   c-1.147,0-2.076-0.939-2.076-2.084c0-1.138,0.929-2.077,2.076-2.077h1.18c1.146,0,2.076,0.939,2.076,2.077   c0,1.146-0.931,2.084-2.076,2.084H6867.835z M6860.749,400.438c-1.145,0-2.076-0.939-2.076-2.084c0-1.138,0.932-2.077,2.076-2.077   h1.18c1.146,0,2.076,0.939,2.076,2.077c0,1.146-0.93,2.084-2.076,2.084H6860.749z M6853.655,400.438   c-1.145,0-2.075-0.939-2.075-2.084c0-1.138,0.931-2.077,2.075-2.077h1.181c1.153,0,2.085,0.939,2.085,2.077   c0,1.146-0.932,2.084-2.085,2.084H6853.655z M6846.571,400.438c-1.146,0-2.076-0.939-2.076-2.084c0-1.138,0.931-2.077,2.076-2.077   h1.179c1.147,0,2.078,0.939,2.078,2.077c0,1.146-0.931,2.084-2.078,2.084H6846.571z M6840.823,396.168l0.242,0.058   c1.128,0.225,1.859,1.304,1.645,2.426c-0.217,1.129-1.305,1.869-2.484,1.644l-1.104-0.332l-0.474-0.2   c-1.03-0.498-1.461-1.744-0.963-2.774c0.488-1.038,1.744-1.47,2.748-0.98L6840.823,396.168z M6834.876,391.816   c0-1.154,0.931-2.085,2.078-2.085c1.146,0,2.075,0.931,2.075,2.085v1.179c0,1.146-0.93,2.076-2.075,2.076   c-1.147,0-2.078-0.93-2.078-2.076V391.816z M6834.876,384.723c0-1.146,0.931-2.077,2.078-2.077c1.146,0,2.075,0.93,2.075,2.077   v1.18c0,1.146-0.93,2.076-2.075,2.076c-1.147,0-2.078-0.93-2.078-2.076V384.723z M6834.876,377.639   c0-1.146,0.931-2.077,2.078-2.077c1.146,0,2.075,0.931,2.075,2.077v1.179c0,1.146-0.93,2.076-2.075,2.076   c-1.147,0-2.078-0.93-2.078-2.076V377.639z M6834.876,370.545c0-1.146,0.931-2.076,2.078-2.076c1.146,0,2.075,0.93,2.075,2.076   v1.179c0,1.155-0.93,2.085-2.075,2.085c-1.147,0-2.078-0.931-2.078-2.085V370.545z M6834.876,363.46   c0-1.146,0.931-2.077,2.078-2.077c1.146,0,2.075,0.931,2.075,2.077v1.18c0,1.146-0.93,2.076-2.075,2.076   c-1.147,0-2.078-0.93-2.078-2.076V363.46z M6834.876,356.367c0-1.138,0.931-2.077,2.078-2.077c1.146,0,2.075,0.939,2.075,2.077   v1.188c0,1.146-0.93,2.076-2.075,2.076c-1.147,0-2.078-0.93-2.078-2.076V356.367z M6834.876,349.282   c0-1.146,0.931-2.076,2.078-2.076c1.146,0,2.075,0.93,2.075,2.076v1.18c0,1.146-0.93,2.076-2.075,2.076   c-1.147,0-2.078-0.931-2.078-2.076V349.282z M6834.876,342.197c0-1.146,0.931-2.085,2.078-2.085c1.146,0,2.075,0.938,2.075,2.085   v1.179c0,1.146-0.93,2.076-2.075,2.076c-1.147,0-2.078-0.93-2.078-2.076V342.197z M6834.876,335.104   c0-1.146,0.931-2.077,2.078-2.077c1.146,0,2.075,0.93,2.075,2.077v1.188c0,1.138-0.93,2.077-2.075,2.077   c-1.147,0-2.078-0.938-2.078-2.077V335.104z M6834.876,328.019c0-1.146,0.931-2.076,2.078-2.076c1.146,0,2.075,0.931,2.075,2.076   v1.18c0,1.146-0.93,2.077-2.075,2.077c-1.147,0-2.078-0.931-2.078-2.077V328.019z M6834.876,320.926   c0-1.146,0.931-2.077,2.078-2.077c1.146,0,2.075,0.93,2.075,2.077v1.188c0,1.146-0.93,2.076-2.075,2.076   c-1.147,0-2.078-0.93-2.078-2.076V320.926z M6834.876,313.841c0-1.146,0.931-2.077,2.078-2.077c1.146,0,2.075,0.93,2.075,2.077   v1.179c0,1.146-0.93,2.077-2.075,2.077c-1.147,0-2.078-0.93-2.078-2.077V313.841z M6835.839,305.801   c0.592-0.98,1.879-1.296,2.859-0.698c0.972,0.589,1.285,1.869,0.697,2.84l-0.157,0.299l-0.109,0.324   c-0.34,1.088-1.495,1.703-2.591,1.371c-1.098-0.333-1.719-1.495-1.389-2.566l0.376-0.98L6835.839,305.801z M6843.905,302.553   c1.146,0,2.076,0.939,2.076,2.085c0,1.138-0.93,2.077-2.076,2.077h-1.18c-1.146,0-2.075-0.938-2.075-2.077   c0-1.146,0.929-2.085,2.075-2.085H6843.905z M6850.999,302.553c1.146,0,2.075,0.939,2.075,2.085c0,1.138-0.929,2.077-2.075,2.077   h-1.188c-1.146,0-2.077-0.938-2.077-2.077c0-1.146,0.932-2.085,2.077-2.085H6850.999z M6858.083,302.553   c1.146,0,2.077,0.939,2.077,2.085c0,1.138-0.931,2.077-2.077,2.077h-1.179c-1.147,0-2.077-0.938-2.077-2.077   c0-1.146,0.93-2.085,2.077-2.085H6858.083z M6865.177,302.553c1.138,0,2.068,0.939,2.068,2.085c0,1.138-0.931,2.077-2.068,2.077   h-1.188c-1.146,0-2.077-0.938-2.077-2.077c0-1.146,0.931-2.085,2.077-2.085H6865.177z M6872.262,302.553   c1.146,0,2.077,0.939,2.077,2.085c0,1.138-0.932,2.077-2.077,2.077h-1.18c-1.146,0-2.077-0.938-2.077-2.077   c0-1.146,0.932-2.085,2.077-2.085H6872.262z M6879.347,302.553c1.146,0,2.085,0.939,2.085,2.085c0,1.138-0.938,2.077-2.085,2.077   h-1.18c-1.146,0-2.076-0.938-2.076-2.077c0-1.146,0.93-2.085,2.076-2.085H6879.347z M6886.438,302.553   c1.147,0,2.078,0.939,2.078,2.085c0,1.138-0.931,2.077-2.078,2.077h-1.178c-1.146,0-2.086-0.938-2.086-2.077   c0-1.146,0.939-2.085,2.086-2.085H6886.438z M6893.524,302.553c1.146,0,2.076,0.939,2.076,2.085c0,1.138-0.93,2.077-2.076,2.077   h-1.18c-1.146,0-2.075-0.938-2.075-2.077c0-1.146,0.929-2.085,2.075-2.085H6893.524z M6900.618,302.553   c1.137,0,2.075,0.939,2.075,2.085c0,1.138-0.938,2.077-2.075,2.077h-1.188c-1.146,0-2.078-0.938-2.078-2.077   c0-1.146,0.932-2.085,2.078-2.085H6900.618z M6907.704,302.553c1.145,0,2.075,0.939,2.075,2.085c0,1.138-0.931,2.077-2.075,2.077   h-1.181c-1.147,0-2.085-0.938-2.085-2.077c0-1.146,0.938-2.085,2.085-2.085H6907.704z M6914.787,302.553   c1.146,0,2.085,0.939,2.085,2.085c0,1.138-0.938,2.077-2.085,2.077h-1.179c-1.146,0-2.077-0.938-2.077-2.077   c0-1.146,0.931-2.085,2.077-2.085H6914.787z M6921.881,302.553c1.146,0,2.077,0.939,2.077,2.085c0,1.138-0.932,2.077-2.077,2.077   h-1.188c-1.137,0-2.068-0.938-2.068-2.077c0-1.146,0.932-2.085,2.068-2.085H6921.881z M6928.966,302.553   c1.146,0,2.076,0.939,2.076,2.085c0,1.138-0.93,2.077-2.076,2.077h-1.18c-1.146,0-2.076-0.938-2.076-2.077   c0-1.146,0.93-2.085,2.076-2.085H6928.966z M6936.058,302.553c1.147,0,2.078,0.939,2.078,2.085c0,1.138-0.931,2.077-2.078,2.077   h-1.178c-1.155,0-2.086-0.938-2.086-2.077c0-1.146,0.931-2.085,2.086-2.085H6936.058z M6943.144,302.553   c1.147,0,2.076,0.939,2.076,2.085c0,1.138-0.929,2.077-2.076,2.077h-1.18c-1.146,0-2.075-0.938-2.075-2.077   c0-1.146,0.93-2.085,2.075-2.085H6943.144z M6950.237,302.553c1.137,0,2.068,0.939,2.068,2.085c0,1.138-0.932,2.077-2.068,2.077   h-1.188c-1.146,0-2.076-0.938-2.076-2.077c0-1.146,0.93-2.085,2.076-2.085H6950.237z M6957.323,302.553   c1.145,0,2.075,0.939,2.075,2.085c0,1.138-0.931,2.077-2.075,2.077h-1.181c-1.146,0-2.085-0.938-2.085-2.077   c0-1.146,0.938-2.085,2.085-2.085H6957.323z M6964.407,302.553c1.146,0,2.084,0.939,2.084,2.085c0,1.138-0.938,2.077-2.084,2.077   h-1.18c-1.146,0-2.077-0.938-2.077-2.077c0-1.146,0.931-2.085,2.077-2.085H6964.407z M6971.5,302.553   c1.146,0,2.077,0.939,2.077,2.085c0,1.138-0.932,2.077-2.077,2.077h-1.188c-1.137,0-2.075-0.938-2.075-2.077   c0-1.146,0.938-2.085,2.075-2.085H6971.5z M6978.585,302.553c1.146,0,2.076,0.939,2.076,2.085c0,1.138-0.93,2.077-2.076,2.077   h-1.18c-1.145,0-2.076-0.938-2.076-2.077c0-1.146,0.932-2.085,2.076-2.085H6978.585z M6984.009,307.262l-0.166-0.116l-0.15-0.1   l-0.166-0.083c-1.029-0.499-1.469-1.745-0.971-2.774c0.49-1.03,1.735-1.462,2.766-0.972l0.723,0.407l0.715,0.524   c0.871,0.739,0.971,2.06,0.232,2.932c-0.739,0.872-2.06,0.972-2.916,0.241L6984.009,307.262z M6989.126,312.337   c0,1.146-0.932,2.076-2.076,2.076c-1.147,0-2.077-0.93-2.077-2.076v-1.179c0-1.155,0.93-2.085,2.077-2.085   c1.145,0,2.076,0.931,2.076,2.085V312.337z M6989.126,319.422c0,1.146-0.932,2.077-2.076,2.077c-1.147,0-2.077-0.931-2.077-2.077   v-1.18c0-1.146,0.93-2.076,2.077-2.076c1.145,0,2.076,0.93,2.076,2.076V319.422z M6989.126,326.507   c0,1.146-0.932,2.077-2.076,2.077c-1.147,0-2.077-0.931-2.077-2.077v-1.179c0-1.146,0.93-2.076,2.077-2.076   c1.145,0,2.076,0.93,2.076,2.076V326.507z M6989.126,333.601c0,1.146-0.932,2.076-2.076,2.076c-1.147,0-2.077-0.93-2.077-2.076   v-1.179c0-1.146,0.93-2.085,2.077-2.085c1.145,0,2.076,0.939,2.076,2.085V333.601z M6989.126,340.686   c0,1.146-0.932,2.076-2.076,2.076c-1.147,0-2.077-0.93-2.077-2.076v-1.18c0-1.146,0.93-2.076,2.077-2.076   c1.145,0,2.076,0.93,2.076,2.076V340.686z M6989.126,347.778c0,1.138-0.932,2.077-2.076,2.077c-1.147,0-2.077-0.938-2.077-2.077   v-1.188c0-1.146,0.93-2.076,2.077-2.076c1.145,0,2.076,0.93,2.076,2.076V347.778z M6989.126,354.864   c0,1.146-0.932,2.076-2.076,2.076c-1.147,0-2.077-0.93-2.077-2.076v-1.18c0-1.146,0.93-2.076,2.077-2.076   c1.145,0,2.076,0.931,2.076,2.076V354.864z M6989.126,361.948c0,1.146-0.932,2.085-2.076,2.085c-1.147,0-2.077-0.938-2.077-2.085   v-1.179c0-1.146,0.93-2.077,2.077-2.077c1.145,0,2.076,0.93,2.076,2.077V361.948z M6989.126,369.042   c0,1.146-0.932,2.077-2.076,2.077c-1.147,0-2.077-0.93-2.077-2.077v-1.188c0-1.138,0.93-2.067,2.077-2.067   c1.145,0,2.076,0.93,2.076,2.067V369.042z M6989.126,376.127c0,1.146-0.932,2.076-2.076,2.076c-1.147,0-2.077-0.931-2.077-2.076   v-1.18c0-1.146,0.93-2.076,2.077-2.076c1.145,0,2.076,0.93,2.076,2.076V376.127z M6989.126,383.22c0,1.146-0.932,2.076-2.076,2.076   c-1.147,0-2.077-0.93-2.077-2.076v-1.188c0-1.146,0.93-2.076,2.077-2.076c1.145,0,2.076,0.93,2.076,2.076V383.22z    M6989.126,390.305c0,1.146-0.932,2.076-2.076,2.076c-1.147,0-2.077-0.93-2.077-2.076v-1.18c0-1.146,0.93-2.076,2.077-2.076   c1.145,0,2.076,0.93,2.076,2.076V390.305z M6983.628,396.659c0.064-0.407,0.265-0.789,0.572-1.104l0.232-0.258l0.107-0.149   l0.084-0.124c0.572-0.989,1.828-1.296,2.814-0.723c0.989,0.573,1.33,1.844,0.766,2.816l-0.458,0.689l-0.548,0.623l-0.057,0.058   c-0.725,0.723-1.854,0.797-2.668,0.233c-0.166,0.972-1.021,1.719-2.043,1.719h-1.18c-1.146,0-2.084-0.939-2.084-2.084   c0-1.138,0.938-2.077,2.084-2.077h1.18C6982.88,396.276,6983.286,396.418,6983.628,396.659z"
   fill="#BCC2C6"
   clip-rule="evenodd"
   fill-rule="evenodd" />
	<path
   id="path2956"
   d="M6911.997,336.466l4.152,4.145l7.559,7.559   c1.139,1.146,1.139,3.007,0,4.145c-1.138,1.138-3.006,1.138-4.145,0l-4.635-4.635v18.846h-5.855v-18.846l-4.635,4.635   c-1.138,1.138-3.007,1.138-4.145,0c-1.138-1.138-1.138-2.998,0-4.145l7.566-7.559L6911.997,336.466z"
   fill="#BCC2C6"
   clip-rule="evenodd"
   fill-rule="evenodd" />
	<path
   id="path2958"
   d="M6789.534,536.227c-1.154,0-2.085-0.93-2.085-2.077   c0-1.146,0.931-2.075,2.085-2.075h1.18c1.147,0,2.076,0.93,2.076,2.075c0,1.147-0.929,2.077-2.076,2.077H6789.534z    M6782.442,536.227c-1.147,0-2.076-0.93-2.076-2.077c0-1.146,0.929-2.075,2.076-2.075h1.18c1.145,0,2.075,0.93,2.075,2.075   c0,1.147-0.931,2.077-2.075,2.077H6782.442z M6775.349,536.227c-1.137,0-2.076-0.93-2.076-2.077c0-1.146,0.939-2.075,2.076-2.075   h1.188c1.146,0,2.076,0.93,2.076,2.075c0,1.147-0.93,2.077-2.076,2.077H6775.349z M6768.263,536.227   c-1.146,0-2.075-0.93-2.075-2.077c0-1.146,0.93-2.075,2.075-2.075h1.18c1.147,0,2.086,0.93,2.086,2.075   c0,1.147-0.938,2.077-2.086,2.077H6768.263z M6761.179,536.227c-1.146,0-2.077-0.93-2.077-2.077c0-1.146,0.931-2.075,2.077-2.075   h1.179c1.146,0,2.078,0.93,2.078,2.075c0,1.147-0.932,2.077-2.078,2.077H6761.179z M6754.085,536.227   c-1.145,0-2.076-0.93-2.076-2.077c0-1.146,0.932-2.075,2.076-2.075h1.18c1.146,0,2.085,0.93,2.085,2.075   c0,1.147-0.938,2.077-2.085,2.077H6754.085z M6747.001,536.227c-1.146,0-2.076-0.93-2.076-2.077c0-1.146,0.93-2.075,2.076-2.075   h1.179c1.146,0,2.077,0.93,2.077,2.075c0,1.147-0.932,2.077-2.077,2.077H6747.001z M6739.915,536.227   c-1.146,0-2.085-0.93-2.085-2.077c0-1.146,0.938-2.075,2.085-2.075h1.18c1.146,0,2.076,0.93,2.076,2.075   c0,1.147-0.93,2.077-2.076,2.077H6739.915z M6732.823,536.227c-1.147,0-2.078-0.93-2.078-2.077c0-1.146,0.931-2.075,2.078-2.075   h1.18c1.145,0,2.075,0.93,2.075,2.075c0,1.147-0.931,2.077-2.075,2.077H6732.823z M6725.737,536.227   c-1.146,0-2.076-0.93-2.076-2.077c0-1.146,0.93-2.075,2.076-2.075h1.18c1.146,0,2.076,0.93,2.076,2.075   c0,1.147-0.93,2.077-2.076,2.077H6725.737z M6718.644,536.227c-1.146,0-2.075-0.93-2.075-2.077c0-1.146,0.93-2.075,2.075-2.075   h1.188c1.138,0,2.067,0.93,2.067,2.075c0,1.147-0.93,2.077-2.067,2.077H6718.644z M6711.56,536.227   c-1.146,0-2.077-0.93-2.077-2.077c0-1.146,0.931-2.075,2.077-2.075h1.179c1.146,0,2.077,0.93,2.077,2.075   c0,1.147-0.931,2.077-2.077,2.077H6711.56z M6704.466,536.227c-1.146,0-2.076-0.93-2.076-2.077c0-1.146,0.93-2.075,2.076-2.075   h1.189c1.145,0,2.075,0.93,2.075,2.075c0,1.147-0.931,2.077-2.075,2.077H6704.466z M6697.381,536.227   c-1.146,0-2.077-0.93-2.077-2.077c0-1.146,0.932-2.075,2.077-2.075h1.18c1.146,0,2.077,0.93,2.077,2.075   c0,1.147-0.932,2.077-2.077,2.077H6697.381z M6690.288,536.227c-1.139,0-2.067-0.93-2.067-2.077c0-1.146,0.929-2.075,2.067-2.075   h1.188c1.146,0,2.076,0.93,2.076,2.075c0,1.147-0.93,2.077-2.076,2.077H6690.288z M6683.204,536.227   c-1.147,0-2.078-0.93-2.078-2.077c0-1.146,0.931-2.075,2.078-2.075h1.18c1.145,0,2.075,0.93,2.075,2.075   c0,1.147-0.931,2.077-2.075,2.077H6683.204z M6676.118,536.227c-1.146,0-2.076-0.93-2.076-2.077c0-1.146,0.93-2.075,2.076-2.075   h1.18c1.146,0,2.075,0.93,2.075,2.075c0,1.147-0.929,2.077-2.075,2.077H6676.118z M6669.024,536.227   c-1.146,0-2.075-0.93-2.075-2.077c0-1.146,0.929-2.075,2.075-2.075h1.188c1.139,0,2.078,0.93,2.078,2.075   c0,1.147-0.939,2.077-2.078,2.077H6669.024z M6661.938,536.227c-1.145,0-2.075-0.93-2.075-2.077c0-1.146,0.931-2.075,2.075-2.075   h1.18c1.147,0,2.078,0.93,2.078,2.075c0,1.147-0.931,2.077-2.078,2.077H6661.938z M6656.192,531.957l0.24,0.066   c1.121,0.216,1.861,1.296,1.646,2.426c-0.218,1.129-1.305,1.861-2.484,1.646l-1.105-0.333l-0.473-0.2   c-1.03-0.498-1.462-1.743-0.965-2.773c0.5-1.047,1.745-1.479,2.75-0.98L6656.192,531.957z M6650.245,527.604   c0-1.146,0.931-2.075,2.078-2.075c1.145,0,2.075,0.93,2.075,2.075v1.18c0,1.146-0.931,2.077-2.075,2.077   c-1.147,0-2.078-0.931-2.078-2.077V527.604z M6650.245,520.512c0-1.146,0.931-2.077,2.078-2.077c1.145,0,2.075,0.932,2.075,2.077   v1.18c0,1.146-0.931,2.076-2.075,2.076c-1.147,0-2.078-0.93-2.078-2.076V520.512z M6650.245,513.436   c0-1.146,0.931-2.077,2.078-2.077c1.145,0,2.075,0.931,2.075,2.077v1.179c0,1.146-0.931,2.077-2.075,2.077   c-1.147,0-2.078-0.931-2.078-2.077V513.436z M6650.245,506.342c0-1.146,0.931-2.076,2.078-2.076c1.145,0,2.075,0.93,2.075,2.076   v1.18c0,1.146-0.931,2.077-2.075,2.077c-1.147,0-2.078-0.932-2.078-2.077V506.342z M6650.245,499.249   c0-1.146,0.931-2.077,2.078-2.077c1.145,0,2.075,0.931,2.075,2.077v1.18c0,1.146-0.931,2.075-2.075,2.075   c-1.147,0-2.078-0.93-2.078-2.075V499.249z M6650.245,492.156c0-1.131,0.931-2.077,2.078-2.077c1.145,0,2.075,0.946,2.075,2.077   v1.196c0,1.146-0.931,2.075-2.075,2.075c-1.147,0-2.078-0.93-2.078-2.075V492.156z M6650.245,485.079   c0-1.146,0.931-2.076,2.078-2.076c1.145,0,2.075,0.93,2.075,2.076v1.179c0,1.147-0.931,2.077-2.075,2.077   c-1.147,0-2.078-0.93-2.078-2.077V485.079z M6650.245,477.985c0-1.146,0.931-2.075,2.078-2.075c1.145,0,2.075,0.93,2.075,2.075   v1.18c0,1.146-0.931,2.076-2.075,2.076c-1.147,0-2.078-0.93-2.078-2.076V477.985z M6650.245,470.893   c0-1.146,0.931-2.077,2.078-2.077c1.145,0,2.075,0.931,2.075,2.077v1.179c0,1.147-0.931,2.094-2.075,2.094   c-1.147,0-2.078-0.946-2.078-2.094V470.893z M6650.245,463.816c0-1.146,0.931-2.077,2.078-2.077c1.145,0,2.075,0.931,2.075,2.077   v1.179c0,1.146-0.931,2.077-2.075,2.077c-1.147,0-2.078-0.931-2.078-2.077V463.816z M6650.245,456.723   c0-1.146,0.931-2.076,2.078-2.076c1.145,0,2.075,0.93,2.075,2.076v1.18c0,1.146-0.931,2.077-2.075,2.077   c-1.147,0-2.078-0.932-2.078-2.077V456.723z M6650.245,449.63c0-1.147,0.931-2.077,2.078-2.077c1.145,0,2.075,0.93,2.075,2.077   v1.18c0,1.146-0.931,2.075-2.075,2.075c-1.147,0-2.078-0.93-2.078-2.075V449.63z M6651.208,441.594   c0.59-0.98,1.878-1.296,2.857-0.697c0.973,0.59,1.28,1.868,0.699,2.835l-0.15,0.3l-0.125,0.333   c-0.332,1.079-1.486,1.693-2.583,1.361s-1.72-1.495-1.388-2.558l0.375-0.985L6651.208,441.594z M6659.273,438.346   c1.146,0,2.077,0.939,2.077,2.085c0,1.146-0.932,2.077-2.077,2.077h-1.179c-1.146,0-2.076-0.931-2.076-2.077   c0-1.146,0.93-2.085,2.076-2.085H6659.273z M6666.367,438.346c1.146,0,2.076,0.939,2.076,2.085c0,1.146-0.931,2.077-2.076,2.077   h-1.188c-1.145,0-2.076-0.931-2.076-2.077c0-1.146,0.932-2.085,2.076-2.085H6666.367z M6673.452,438.346   c1.146,0,2.076,0.939,2.076,2.085c0,1.146-0.931,2.077-2.076,2.077h-1.18c-1.146,0-2.077-0.931-2.077-2.077   c0-1.146,0.931-2.085,2.077-2.085H6673.452z M6680.545,438.346c1.146,0,2.077,0.939,2.077,2.085c0,1.146-0.932,2.077-2.077,2.077   h-1.188c-1.146,0-2.075-0.931-2.075-2.077c0-1.146,0.93-2.085,2.075-2.085H6680.545z M6687.63,438.346   c1.146,0,2.076,0.939,2.076,2.085c0,1.146-0.93,2.077-2.076,2.077h-1.18c-1.145,0-2.076-0.931-2.076-2.077   c0-1.146,0.932-2.085,2.076-2.085H6687.63z M6694.716,438.346c1.145,0,2.075,0.939,2.075,2.085c0,1.146-0.931,2.077-2.075,2.077   h-1.181c-1.146,0-2.075-0.931-2.075-2.077c0-1.146,0.929-2.085,2.075-2.085H6694.716z M6701.808,438.346   c1.147,0,2.076,0.939,2.076,2.085c0,1.146-0.929,2.077-2.076,2.077h-1.18c-1.146,0-2.084-0.931-2.084-2.077   c0-1.146,0.938-2.085,2.084-2.085H6701.808z M6708.894,438.346c1.146,0,2.076,0.939,2.076,2.085c0,1.146-0.93,2.077-2.076,2.077   h-1.18c-1.146,0-2.076-0.931-2.076-2.077c0-1.146,0.93-2.085,2.076-2.085H6708.894z M6715.986,438.346   c1.138,0,2.076,0.939,2.076,2.085c0,1.146-0.938,2.077-2.076,2.077h-1.188c-1.145,0-2.076-0.931-2.076-2.077   c0-1.146,0.932-2.085,2.076-2.085H6715.986z M6723.071,438.346c1.146,0,2.076,0.939,2.076,2.085c0,1.146-0.931,2.077-2.076,2.077   h-1.179c-1.147,0-2.085-0.931-2.085-2.077c0-1.146,0.938-2.085,2.085-2.085H6723.071z M6730.155,438.346   c1.147,0,2.086,0.939,2.086,2.085c0,1.146-0.938,2.077-2.086,2.077h-1.18c-1.146,0-2.075-0.931-2.075-2.077   c0-1.146,0.93-2.085,2.075-2.085H6730.155z M6737.249,438.346c1.146,0,2.078,0.939,2.078,2.085c0,1.146-0.932,2.077-2.078,2.077   h-1.188c-1.137,0-2.076-0.931-2.076-2.077c0-1.146,0.939-2.085,2.076-2.085H6737.249z M6744.335,438.346   c1.146,0,2.075,0.939,2.075,2.085c0,1.146-0.929,2.077-2.075,2.077h-1.18c-1.146,0-2.076-0.931-2.076-2.077   c0-1.146,0.93-2.085,2.076-2.085H6744.335z M6751.419,438.346c1.155,0,2.085,0.939,2.085,2.085c0,1.146-0.93,2.077-2.085,2.077   h-1.179c-1.147,0-2.077-0.931-2.077-2.077c0-1.146,0.93-2.085,2.077-2.085H6751.419z M6758.513,438.346   c1.146,0,2.076,0.939,2.076,2.085c0,1.146-0.93,2.077-2.076,2.077h-1.18c-1.146,0-2.076-0.931-2.076-2.077   c0-1.146,0.93-2.085,2.076-2.085H6758.513z M6765.606,438.346c1.137,0,2.068,0.939,2.068,2.085c0,1.146-0.932,2.077-2.068,2.077   h-1.189c-1.145,0-2.076-0.931-2.076-2.077c0-1.146,0.932-2.085,2.076-2.085H6765.606z M6772.69,438.346   c1.146,0,2.076,0.939,2.076,2.085c0,1.146-0.931,2.077-2.076,2.077h-1.179c-1.147,0-2.077-0.931-2.077-2.077   c0-1.146,0.93-2.085,2.077-2.085H6772.69z M6779.774,438.346c1.147,0,2.078,0.939,2.078,2.085c0,1.146-0.931,2.077-2.078,2.077   h-1.178c-1.146,0-2.077-0.931-2.077-2.077c0-1.146,0.931-2.085,2.077-2.085H6779.774z M6786.868,438.346   c1.146,0,2.078,0.939,2.078,2.085c0,1.146-0.932,2.077-2.078,2.077h-1.188c-1.137,0-2.076-0.931-2.076-2.077   c0-1.146,0.939-2.085,2.076-2.085H6786.868z M6793.954,438.346c1.146,0,2.075,0.939,2.075,2.085c0,1.146-0.929,2.077-2.075,2.077   h-1.18c-1.146,0-2.076-0.931-2.076-2.077c0-1.146,0.93-2.085,2.076-2.085H6793.954z M6799.378,443.052l-0.166-0.117l-0.15-0.095   l-0.166-0.084c-1.038-0.498-1.478-1.743-0.971-2.773c0.49-1.03,1.735-1.462,2.766-0.972l0.722,0.406l0.714,0.523   c0.873,0.74,0.973,2.061,0.234,2.932c-0.74,0.877-2.061,0.978-2.916,0.245L6799.378,443.052z M6804.494,448.135   c0,1.146-0.931,2.076-2.077,2.076c-1.146,0-2.076-0.931-2.076-2.076v-1.196c0-1.146,0.931-2.076,2.076-2.076   c1.146,0,2.077,0.93,2.077,2.076V448.135z M6804.494,455.211c0,1.146-0.931,2.077-2.077,2.077c-1.146,0-2.076-0.931-2.076-2.077   v-1.179c0-1.147,0.931-2.077,2.076-2.077c1.146,0,2.077,0.93,2.077,2.077V455.211z M6804.494,462.305   c0,1.146-0.931,2.076-2.077,2.076c-1.146,0-2.076-0.931-2.076-2.076v-1.18c0-1.146,0.931-2.077,2.076-2.077   c1.146,0,2.077,0.932,2.077,2.077V462.305z M6804.494,469.397c0,1.146-0.931,2.077-2.077,2.077c-1.146,0-2.076-0.932-2.076-2.077   v-1.18c0-1.146,0.931-2.092,2.076-2.092c1.146,0,2.077,0.946,2.077,2.092V469.397z M6804.494,476.474   c0,1.147-0.931,2.077-2.077,2.077c-1.146,0-2.076-0.93-2.076-2.077v-1.18c0-1.146,0.931-2.075,2.076-2.075   c1.146,0,2.077,0.93,2.077,2.075V476.474z M6804.494,483.566c0,1.147-0.931,2.077-2.077,2.077c-1.146,0-2.076-0.93-2.076-2.077   v-1.179c0-1.146,0.931-2.076,2.076-2.076c1.146,0,2.077,0.93,2.077,2.076V483.566z M6804.494,490.661   c0,1.146-0.931,2.075-2.077,2.075c-1.146,0-2.076-0.93-2.076-2.075v-1.181c0-1.146,0.931-2.075,2.076-2.075   c1.146,0,2.077,0.93,2.077,2.075V490.661z M6804.494,497.737c0,1.146-0.931,2.093-2.077,2.093c-1.146,0-2.076-0.947-2.076-2.093   v-1.18c0-1.146,0.931-2.076,2.076-2.076c1.146,0,2.077,0.93,2.077,2.076V497.737z M6804.494,504.83   c0,1.146-0.931,2.077-2.077,2.077c-1.146,0-2.076-0.931-2.076-2.077v-1.179c0-1.147,0.931-2.077,2.076-2.077   c1.146,0,2.077,0.93,2.077,2.077V504.83z M6804.494,511.924c0,1.146-0.931,2.076-2.077,2.076c-1.146,0-2.076-0.931-2.076-2.076   v-1.18c0-1.146,0.931-2.077,2.076-2.077c1.146,0,2.077,0.932,2.077,2.077V511.924z M6804.494,519.017   c0,1.146-0.931,2.077-2.077,2.077c-1.146,0-2.076-0.932-2.076-2.077v-1.196c0-1.146,0.931-2.075,2.076-2.075   c1.146,0,2.077,0.93,2.077,2.075V519.017z M6804.494,526.093c0,1.147-0.931,2.077-2.077,2.077c-1.146,0-2.076-0.93-2.076-2.077   v-1.179c0-1.146,0.931-2.076,2.076-2.076c1.146,0,2.077,0.93,2.077,2.076V526.093z M6798.995,532.455   c0.075-0.415,0.266-0.796,0.574-1.112l0.231-0.266l0.108-0.134l0.083-0.132c0.573-0.98,1.827-1.296,2.815-0.715   c0.988,0.565,1.329,1.844,0.765,2.808l-0.457,0.698l-0.549,0.614l-0.058,0.066c-0.723,0.731-1.852,0.797-2.666,0.232   c-0.166,0.963-1.022,1.711-2.044,1.711h-1.179c-1.146,0-2.085-0.93-2.085-2.077c0-1.146,0.938-2.075,2.085-2.075h1.179   C6798.239,532.074,6798.653,532.207,6798.995,532.455z"
   fill="#BCC2C6"
   clip-rule="evenodd"
   fill-rule="evenodd" />
	<path
   id="path2960"
   d="M6727.374,472.254l4.135,4.153l7.568,7.559   c1.137,1.146,1.137,3.007,0,4.136c-1.139,1.147-3.008,1.147-4.146,0l-4.635-4.634v18.854h-5.854v-18.854l-4.635,4.634   c-1.138,1.147-2.999,1.147-4.145,0c-1.138-1.129-1.138-2.989,0-4.136l7.557-7.559L6727.374,472.254z"
   fill="#BCC2C6"
   clip-rule="evenodd"
   fill-rule="evenodd" />
	<path
   id="path2962"
   d="M6974.159,536.227c-1.139,0-2.078-0.93-2.078-2.077   c0-1.146,0.939-2.075,2.078-2.075h1.187c1.146,0,2.077,0.93,2.077,2.075c0,1.147-0.931,2.077-2.077,2.077H6974.159z    M6967.073,536.227c-1.146,0-2.076-0.93-2.076-2.077c0-1.146,0.93-2.075,2.076-2.075h1.18c1.146,0,2.076,0.93,2.076,2.075   c0,1.147-0.93,2.077-2.076,2.077H6967.073z M6959.988,536.227c-1.146,0-2.084-0.93-2.084-2.077c0-1.146,0.938-2.075,2.084-2.075   h1.179c1.146,0,2.078,0.93,2.078,2.075c0,1.147-0.932,2.077-2.078,2.077H6959.988z M6952.895,536.227   c-1.146,0-2.076-0.93-2.076-2.077c0-1.146,0.931-2.075,2.076-2.075h1.18c1.147,0,2.077,0.93,2.077,2.075   c0,1.147-0.93,2.077-2.077,2.077H6952.895z M6945.812,536.227c-1.147,0-2.078-0.93-2.078-2.077c0-1.146,0.931-2.075,2.078-2.075   h1.178c1.146,0,2.077,0.93,2.077,2.075c0,1.147-0.931,2.077-2.077,2.077H6945.812z M6938.717,536.227   c-1.146,0-2.077-0.93-2.077-2.077c0-1.146,0.932-2.075,2.077-2.075h1.179c1.155,0,2.085,0.93,2.085,2.075   c0,1.147-0.93,2.077-2.085,2.077H6938.717z M6931.632,536.227c-1.146,0-2.076-0.93-2.076-2.077c0-1.146,0.93-2.075,2.076-2.075   h1.18c1.146,0,2.076,0.93,2.076,2.075c0,1.147-0.93,2.077-2.076,2.077H6931.632z M6924.54,536.227c-1.139,0-2.078-0.93-2.078-2.077   c0-1.146,0.939-2.075,2.078-2.075h1.186c1.147,0,2.076,0.93,2.076,2.075c0,1.147-0.929,2.077-2.076,2.077H6924.54z    M6917.454,536.227c-1.147,0-2.076-0.93-2.076-2.077c0-1.146,0.929-2.075,2.076-2.075h1.18c1.146,0,2.076,0.93,2.076,2.075   c0,1.147-0.931,2.077-2.076,2.077H6917.454z M6910.369,536.227c-1.146,0-2.077-0.93-2.077-2.077c0-1.146,0.932-2.075,2.077-2.075   h1.179c1.146,0,2.076,0.93,2.076,2.075c0,1.147-0.93,2.077-2.076,2.077H6910.369z M6903.274,536.227   c-1.145,0-2.075-0.93-2.075-2.077c0-1.146,0.931-2.075,2.075-2.075h1.181c1.147,0,2.085,0.93,2.085,2.075   c0,1.147-0.938,2.077-2.085,2.077H6903.274z M6896.19,536.227c-1.146,0-2.076-0.93-2.076-2.077c0-1.146,0.931-2.075,2.076-2.075   h1.18c1.146,0,2.077,0.93,2.077,2.075c0,1.147-0.931,2.077-2.077,2.077H6896.19z M6889.098,536.227   c-1.146,0-2.077-0.93-2.077-2.077c0-1.146,0.932-2.075,2.077-2.075h1.188c1.146,0,2.075,0.93,2.075,2.075   c0,1.147-0.93,2.077-2.075,2.077H6889.098z M6882.013,536.227c-1.146,0-2.076-0.93-2.076-2.077c0-1.146,0.93-2.075,2.076-2.075   h1.18c1.145,0,2.076,0.93,2.076,2.075c0,1.147-0.932,2.077-2.076,2.077H6882.013z M6874.927,536.227   c-1.145,0-2.084-0.93-2.084-2.077c0-1.146,0.939-2.075,2.084-2.075h1.18c1.147,0,2.076,0.93,2.076,2.075   c0,1.147-0.929,2.077-2.076,2.077H6874.927z M6867.835,536.227c-1.147,0-2.076-0.93-2.076-2.077c0-1.146,0.929-2.075,2.076-2.075   h1.18c1.146,0,2.076,0.93,2.076,2.075c0,1.147-0.931,2.077-2.076,2.077H6867.835z M6860.749,536.227   c-1.145,0-2.076-0.93-2.076-2.077c0-1.146,0.932-2.075,2.076-2.075h1.18c1.146,0,2.076,0.93,2.076,2.075   c0,1.147-0.93,2.077-2.076,2.077H6860.749z M6853.655,536.227c-1.145,0-2.075-0.93-2.075-2.077c0-1.146,0.931-2.075,2.075-2.075   h1.181c1.153,0,2.085,0.93,2.085,2.075c0,1.147-0.932,2.077-2.085,2.077H6853.655z M6846.571,536.227   c-1.146,0-2.076-0.93-2.076-2.077c0-1.146,0.931-2.075,2.076-2.075h1.179c1.147,0,2.078,0.93,2.078,2.075   c0,1.147-0.931,2.077-2.078,2.077H6846.571z M6840.823,531.957l0.242,0.066c1.128,0.216,1.859,1.296,1.645,2.426   c-0.217,1.129-1.305,1.861-2.484,1.646l-1.104-0.333l-0.474-0.2c-1.03-0.498-1.461-1.743-0.963-2.773   c0.488-1.047,1.744-1.479,2.748-0.98L6840.823,531.957z M6834.876,527.604c0-1.146,0.931-2.075,2.078-2.075   c1.146,0,2.075,0.93,2.075,2.075v1.18c0,1.146-0.93,2.077-2.075,2.077c-1.147,0-2.078-0.931-2.078-2.077V527.604z    M6834.876,520.512c0-1.146,0.931-2.077,2.078-2.077c1.146,0,2.075,0.932,2.075,2.077v1.18c0,1.146-0.93,2.076-2.075,2.076   c-1.147,0-2.078-0.93-2.078-2.076V520.512z M6834.876,513.436c0-1.146,0.931-2.077,2.078-2.077c1.146,0,2.075,0.931,2.075,2.077   v1.179c0,1.146-0.93,2.077-2.075,2.077c-1.147,0-2.078-0.931-2.078-2.077V513.436z M6834.876,506.342   c0-1.146,0.931-2.076,2.078-2.076c1.146,0,2.075,0.93,2.075,2.076v1.18c0,1.146-0.93,2.077-2.075,2.077   c-1.147,0-2.078-0.932-2.078-2.077V506.342z M6834.876,499.249c0-1.146,0.931-2.077,2.078-2.077c1.146,0,2.075,0.931,2.075,2.077   v1.18c0,1.146-0.93,2.075-2.075,2.075c-1.147,0-2.078-0.93-2.078-2.075V499.249z M6834.876,492.156   c0-1.131,0.931-2.077,2.078-2.077c1.146,0,2.075,0.946,2.075,2.077v1.196c0,1.146-0.93,2.075-2.075,2.075   c-1.147,0-2.078-0.93-2.078-2.075V492.156z M6834.876,485.079c0-1.146,0.931-2.076,2.078-2.076c1.146,0,2.075,0.93,2.075,2.076   v1.179c0,1.147-0.93,2.077-2.075,2.077c-1.147,0-2.078-0.93-2.078-2.077V485.079z M6834.876,477.985   c0-1.146,0.931-2.075,2.078-2.075c1.146,0,2.075,0.93,2.075,2.075v1.18c0,1.146-0.93,2.076-2.075,2.076   c-1.147,0-2.078-0.93-2.078-2.076V477.985z M6834.876,470.893c0-1.146,0.931-2.077,2.078-2.077c1.146,0,2.075,0.931,2.075,2.077   v1.179c0,1.147-0.93,2.094-2.075,2.094c-1.147,0-2.078-0.946-2.078-2.094V470.893z M6834.876,463.816   c0-1.146,0.931-2.077,2.078-2.077c1.146,0,2.075,0.931,2.075,2.077v1.179c0,1.146-0.93,2.077-2.075,2.077   c-1.147,0-2.078-0.931-2.078-2.077V463.816z M6834.876,456.723c0-1.146,0.931-2.076,2.078-2.076c1.146,0,2.075,0.93,2.075,2.076   v1.18c0,1.146-0.93,2.077-2.075,2.077c-1.147,0-2.078-0.932-2.078-2.077V456.723z M6834.876,449.63   c0-1.147,0.931-2.077,2.078-2.077c1.146,0,2.075,0.93,2.075,2.077v1.18c0,1.146-0.93,2.075-2.075,2.075   c-1.147,0-2.078-0.93-2.078-2.075V449.63z M6835.839,441.594c0.592-0.98,1.879-1.296,2.859-0.697   c0.972,0.59,1.285,1.868,0.697,2.835l-0.157,0.3l-0.109,0.333c-0.34,1.079-1.495,1.693-2.591,1.361   c-1.098-0.332-1.719-1.495-1.389-2.558l0.376-0.985L6835.839,441.594z M6843.905,438.346c1.146,0,2.076,0.939,2.076,2.085   c0,1.146-0.93,2.077-2.076,2.077h-1.18c-1.146,0-2.075-0.931-2.075-2.077c0-1.146,0.929-2.085,2.075-2.085H6843.905z    M6850.999,438.346c1.146,0,2.075,0.939,2.075,2.085c0,1.146-0.929,2.077-2.075,2.077h-1.188c-1.146,0-2.077-0.931-2.077-2.077   c0-1.146,0.932-2.085,2.077-2.085H6850.999z M6858.083,438.346c1.146,0,2.077,0.939,2.077,2.085c0,1.146-0.931,2.077-2.077,2.077   h-1.179c-1.147,0-2.077-0.931-2.077-2.077c0-1.146,0.93-2.085,2.077-2.085H6858.083z M6865.177,438.346   c1.138,0,2.068,0.939,2.068,2.085c0,1.146-0.931,2.077-2.068,2.077h-1.188c-1.146,0-2.077-0.931-2.077-2.077   c0-1.146,0.931-2.085,2.077-2.085H6865.177z M6872.262,438.346c1.146,0,2.077,0.939,2.077,2.085c0,1.146-0.932,2.077-2.077,2.077   h-1.18c-1.146,0-2.077-0.931-2.077-2.077c0-1.146,0.932-2.085,2.077-2.085H6872.262z M6879.347,438.346   c1.146,0,2.085,0.939,2.085,2.085c0,1.146-0.938,2.077-2.085,2.077h-1.18c-1.146,0-2.076-0.931-2.076-2.077   c0-1.146,0.93-2.085,2.076-2.085H6879.347z M6886.438,438.346c1.147,0,2.078,0.939,2.078,2.085c0,1.146-0.931,2.077-2.078,2.077   h-1.178c-1.146,0-2.086-0.931-2.086-2.077c0-1.146,0.939-2.085,2.086-2.085H6886.438z M6893.524,438.346   c1.146,0,2.076,0.939,2.076,2.085c0,1.146-0.93,2.077-2.076,2.077h-1.18c-1.146,0-2.075-0.931-2.075-2.077   c0-1.146,0.929-2.085,2.075-2.085H6893.524z M6900.618,438.346c1.137,0,2.075,0.939,2.075,2.085c0,1.146-0.938,2.077-2.075,2.077   h-1.188c-1.146,0-2.078-0.931-2.078-2.077c0-1.146,0.932-2.085,2.078-2.085H6900.618z M6907.704,438.346   c1.145,0,2.075,0.939,2.075,2.085c0,1.146-0.931,2.077-2.075,2.077h-1.181c-1.147,0-2.085-0.931-2.085-2.077   c0-1.146,0.938-2.085,2.085-2.085H6907.704z M6914.787,438.346c1.146,0,2.085,0.939,2.085,2.085c0,1.146-0.938,2.077-2.085,2.077   h-1.179c-1.146,0-2.077-0.931-2.077-2.077c0-1.146,0.931-2.085,2.077-2.085H6914.787z M6921.881,438.346   c1.146,0,2.077,0.939,2.077,2.085c0,1.146-0.932,2.077-2.077,2.077h-1.188c-1.137,0-2.068-0.931-2.068-2.077   c0-1.146,0.932-2.085,2.068-2.085H6921.881z M6928.966,438.346c1.146,0,2.076,0.939,2.076,2.085c0,1.146-0.93,2.077-2.076,2.077   h-1.18c-1.146,0-2.076-0.931-2.076-2.077c0-1.146,0.93-2.085,2.076-2.085H6928.966z M6936.058,438.346   c1.147,0,2.078,0.939,2.078,2.085c0,1.146-0.931,2.077-2.078,2.077h-1.178c-1.155,0-2.086-0.931-2.086-2.077   c0-1.146,0.931-2.085,2.086-2.085H6936.058z M6943.144,438.346c1.147,0,2.076,0.939,2.076,2.085c0,1.146-0.929,2.077-2.076,2.077   h-1.18c-1.146,0-2.075-0.931-2.075-2.077c0-1.146,0.93-2.085,2.075-2.085H6943.144z M6950.237,438.346   c1.137,0,2.068,0.939,2.068,2.085c0,1.146-0.932,2.077-2.068,2.077h-1.188c-1.146,0-2.076-0.931-2.076-2.077   c0-1.146,0.93-2.085,2.076-2.085H6950.237z M6957.323,438.346c1.145,0,2.075,0.939,2.075,2.085c0,1.146-0.931,2.077-2.075,2.077   h-1.181c-1.146,0-2.085-0.931-2.085-2.077c0-1.146,0.938-2.085,2.085-2.085H6957.323z M6964.407,438.346   c1.146,0,2.084,0.939,2.084,2.085c0,1.146-0.938,2.077-2.084,2.077h-1.18c-1.146,0-2.077-0.931-2.077-2.077   c0-1.146,0.931-2.085,2.077-2.085H6964.407z M6971.5,438.346c1.146,0,2.077,0.939,2.077,2.085c0,1.146-0.932,2.077-2.077,2.077   h-1.188c-1.137,0-2.075-0.931-2.075-2.077c0-1.146,0.938-2.085,2.075-2.085H6971.5z M6978.585,438.346   c1.146,0,2.076,0.939,2.076,2.085c0,1.146-0.93,2.077-2.076,2.077h-1.18c-1.145,0-2.076-0.931-2.076-2.077   c0-1.146,0.932-2.085,2.076-2.085H6978.585z M6984.009,443.052l-0.166-0.117l-0.15-0.095l-0.166-0.084   c-1.029-0.498-1.469-1.743-0.971-2.773c0.49-1.03,1.735-1.462,2.766-0.972l0.723,0.406l0.715,0.523   c0.871,0.74,0.971,2.061,0.232,2.932c-0.739,0.877-2.06,0.978-2.916,0.245L6984.009,443.052z M6989.126,448.135   c0,1.146-0.932,2.076-2.076,2.076c-1.147,0-2.077-0.931-2.077-2.076v-1.196c0-1.146,0.93-2.076,2.077-2.076   c1.145,0,2.076,0.93,2.076,2.076V448.135z M6989.126,455.211c0,1.146-0.932,2.077-2.076,2.077c-1.147,0-2.077-0.931-2.077-2.077   v-1.179c0-1.147,0.93-2.077,2.077-2.077c1.145,0,2.076,0.93,2.076,2.077V455.211z M6989.126,462.305   c0,1.146-0.932,2.076-2.076,2.076c-1.147,0-2.077-0.931-2.077-2.076v-1.18c0-1.146,0.93-2.077,2.077-2.077   c1.145,0,2.076,0.932,2.076,2.077V462.305z M6989.126,469.397c0,1.146-0.932,2.077-2.076,2.077c-1.147,0-2.077-0.932-2.077-2.077   v-1.18c0-1.146,0.93-2.092,2.077-2.092c1.145,0,2.076,0.946,2.076,2.092V469.397z M6989.126,476.474   c0,1.147-0.932,2.077-2.076,2.077c-1.147,0-2.077-0.93-2.077-2.077v-1.18c0-1.146,0.93-2.075,2.077-2.075   c1.145,0,2.076,0.93,2.076,2.075V476.474z M6989.126,483.566c0,1.147-0.932,2.077-2.076,2.077c-1.147,0-2.077-0.93-2.077-2.077   v-1.179c0-1.146,0.93-2.076,2.077-2.076c1.145,0,2.076,0.93,2.076,2.076V483.566z M6989.126,490.661   c0,1.146-0.932,2.075-2.076,2.075c-1.147,0-2.077-0.93-2.077-2.075v-1.181c0-1.146,0.93-2.075,2.077-2.075   c1.145,0,2.076,0.93,2.076,2.075V490.661z M6989.126,497.737c0,1.146-0.932,2.093-2.076,2.093c-1.147,0-2.077-0.947-2.077-2.093   v-1.18c0-1.146,0.93-2.076,2.077-2.076c1.145,0,2.076,0.93,2.076,2.076V497.737z M6989.126,504.83c0,1.146-0.932,2.077-2.076,2.077   c-1.147,0-2.077-0.931-2.077-2.077v-1.179c0-1.147,0.93-2.077,2.077-2.077c1.145,0,2.076,0.93,2.076,2.077V504.83z    M6989.126,511.924c0,1.146-0.932,2.076-2.076,2.076c-1.147,0-2.077-0.931-2.077-2.076v-1.18c0-1.146,0.93-2.077,2.077-2.077   c1.145,0,2.076,0.932,2.076,2.077V511.924z M6989.126,519.017c0,1.146-0.932,2.077-2.076,2.077c-1.147,0-2.077-0.932-2.077-2.077   v-1.196c0-1.146,0.93-2.075,2.077-2.075c1.145,0,2.076,0.93,2.076,2.075V519.017z M6989.126,526.093   c0,1.147-0.932,2.077-2.076,2.077c-1.147,0-2.077-0.93-2.077-2.077v-1.179c0-1.146,0.93-2.076,2.077-2.076   c1.145,0,2.076,0.93,2.076,2.076V526.093z M6983.628,532.455c0.064-0.415,0.265-0.796,0.572-1.112l0.232-0.266l0.107-0.134   l0.084-0.132c0.572-0.98,1.828-1.296,2.814-0.715c0.989,0.565,1.33,1.844,0.766,2.808l-0.458,0.698l-0.548,0.614l-0.057,0.066   c-0.725,0.731-1.854,0.797-2.668,0.232c-0.166,0.963-1.021,1.711-2.043,1.711h-1.18c-1.146,0-2.084-0.93-2.084-2.077   c0-1.146,0.938-2.075,2.084-2.075h1.18C6982.88,532.074,6983.286,532.207,6983.628,532.455z"
   fill="#BCC2C6"
   clip-rule="evenodd"
   fill-rule="evenodd" />
	<path
   id="path2964"
   d="M6911.997,472.254l4.152,4.153l7.559,7.559   c1.139,1.146,1.139,3.007,0,4.136c-1.138,1.147-3.006,1.147-4.145,0l-4.635-4.634v18.854h-5.855v-18.854l-4.635,4.634   c-1.138,1.147-3.007,1.147-4.145,0c-1.138-1.129-1.138-2.989,0-4.136l7.566-7.559L6911.997,472.254z"
   fill="#BCC2C6"
   clip-rule="evenodd"
   fill-rule="evenodd" />
	<path
   id="path2966"
   d="M6761.603,336.258c-1.197-1.188-2.85-1.927-4.668-1.927c-1.827,0-3.472,0.739-4.668,1.927   c-1.188,1.188-1.918,2.84-1.918,4.667c0,1.819,0.73,3.464,1.926,4.66c1.188,1.188,2.841,1.927,4.66,1.927   c1.818,0,3.471-0.739,4.668-1.927c1.188-1.188,1.918-2.841,1.918-4.66C6763.521,339.099,6762.79,337.446,6761.603,336.258    M6756.935,328.899c3.314,0,6.312,1.345,8.488,3.522l0.008,0.016c2.177,2.168,3.521,5.175,3.521,8.488   c0,3.314-1.345,6.313-3.521,8.489l-0.008,0.008c-2.177,2.176-5.174,3.521-8.488,3.521c-3.322,0-6.33-1.346-8.498-3.521   c-2.176-2.176-3.521-5.183-3.521-8.498c0-3.313,1.345-6.32,3.521-8.488l0.01-0.016   C6750.622,330.245,6753.62,328.899,6756.935,328.899z M6751.179,358.368L6751.179,358.368l0.082,0.117l1.529,2.027l-0.025,0.016   l9.12,12.401c0.655,0.889,0.93,1.777,0.93,2.625h-0.009c0,0.665-0.164,1.271-0.455,1.794c-0.275,0.499-0.657,0.922-1.105,1.254   c-0.756,0.556-1.719,0.864-2.691,0.864v-0.017l-22.934,0.008l-43.912-0.008c-1.055,0-1.968-0.299-2.684-0.814   c-0.48-0.365-0.872-0.822-1.145-1.362h-0.009c-0.249-0.515-0.391-1.088-0.382-1.711h-0.018c0-0.905,0.316-1.877,0.998-2.791   l9.601-13.065v-0.017l0.872-1.171l0.108-0.142l0,0l0.017-0.024l11.886-15.79c0.415-0.557,0.872-1.022,1.354-1.387   c0.938-0.698,1.951-1.038,2.999-1.03c1.054,0,2.061,0.349,2.965,1.03c0.49,0.374,0.947,0.831,1.362,1.387l11.337,15.075l5.49-7.293   c0.416-0.556,0.873-1.013,1.363-1.378c0.905-0.689,1.918-1.039,2.973-1.039c1.047-0.008,2.061,0.341,2.982,1.03   c0.48,0.366,0.947,0.831,1.361,1.387l6.022,7.999L6751.179,358.368z M6755.979,374.042l-9.17-12.467l-0.391-0.523l-5.606-7.459   l-0.009-0.025l-0.016,0.025l-6.338,8.431l-1.313,1.735l-2.168,2.882l-2.159-2.882l-1.312-1.735l-12.193-16.213l-0.018-0.025   l-0.008,0.025l-11.521,15.308l-0.34,0.457l-9.17,12.467l41.371,0.008L6755.979,374.042z"
   opacity="0.15" />
	<path
   id="path2968"
   d="M6755.248,323.534c3.306,0,6.313,1.346,8.488,3.521l0.009,0.008c2.176,2.176,3.521,5.183,3.521,8.489   c0,3.314-1.346,6.313-3.521,8.497l-0.009,0.008c-2.175,2.177-5.183,3.522-8.488,3.522c-3.322,0-6.328-1.345-8.505-3.522   c-2.177-2.176-3.521-5.182-3.521-8.505c0-3.306,1.345-6.313,3.521-8.489l0.008-0.008   C6748.927,324.879,6751.934,323.534,6755.248,323.534 M6749.483,353.003L6749.483,353.003l0.084,0.108l1.527,2.026l-0.023,0.017   l9.128,12.401c0.647,0.888,0.929,1.786,0.929,2.625h-0.016c0,0.665-0.158,1.271-0.449,1.802c-0.273,0.499-0.656,0.923-1.112,1.254   c-0.747,0.557-1.711,0.855-2.683,0.855v-0.008l-22.933,0.008l-43.913-0.008c-1.055,0-1.979-0.299-2.684-0.822   c-0.489-0.357-0.88-0.814-1.145-1.362h-0.01c-0.258-0.515-0.389-1.088-0.389-1.711h-0.01c0-0.905,0.307-1.869,0.988-2.791   l9.611-13.065l-0.01-0.016l0.881-1.163l0.107-0.149l0,0l0.017-0.016l11.878-15.79c0.415-0.565,0.881-1.021,1.361-1.387   c0.932-0.698,1.944-1.039,3-1.039c1.046,0.008,2.05,0.357,2.965,1.039c0.48,0.365,0.938,0.83,1.354,1.387l11.345,15.075   l5.482-7.292c0.415-0.556,0.872-1.022,1.362-1.387c0.914-0.681,1.918-1.03,2.974-1.038c1.046,0,2.06,0.34,2.99,1.038   c0.481,0.365,0.938,0.823,1.362,1.387l6.014,7.999L6749.483,353.003z"
   fill="#34495E" />
	<path
   id="path2970"
   d="M6755.239,327.919c-2.025,0-3.945,0.797-5.432,2.276l0.024-0.025   c-1.437,1.446-2.226,3.347-2.226,5.382s0.797,3.962,2.235,5.407c1.437,1.437,3.363,2.234,5.397,2.234   c2.035,0,3.963-0.797,5.441-2.284l-0.025,0.024c1.438-1.437,2.227-3.347,2.227-5.382s-0.789-3.937-2.201-5.357l-0.043-0.041   C6759.202,328.716,6757.274,327.919,6755.239,327.919 M6690.521,369.698l43.406,0.008l22.401-0.008l-10.282-13.979l-6.098-8.107   c-0.141-0.191-0.307-0.374-0.49-0.515c-0.092-0.067-0.223-0.158-0.34-0.158c-0.133,0-0.258,0.083-0.357,0.158   c-0.19,0.141-0.349,0.332-0.49,0.515l-8.987,11.944l-14.843-19.726c-0.141-0.183-0.307-0.374-0.49-0.516   c-0.098-0.066-0.223-0.158-0.355-0.158c-0.125,0-0.249,0.083-0.341,0.158c-0.19,0.142-0.357,0.324-0.499,0.516l-11.943,15.881   L6690.521,369.698z"
   fill="#39D4FF"
   clip-rule="evenodd"
   fill-rule="evenodd" />
	<path
   id="path2972"
   d="M6898.009,238.315h-7.781v-3.131h7.508v-2.434h-7.508v-3.206   h7.781v-2.534h-10.373c0,4.626,0,9.27,0,13.879h10.373V238.315z M6884.164,228.747c-1.429-1.404-3.288-2.11-5.149-2.11   c-4.892,0-7.326,3.596-7.326,7.5c0,3.646,2.117,7.068,7.326,7.068c2.434,0,4.16-0.93,5.522-2.491v-5.848h-5.938v2.342h3.547v2.458   c-1.088,0.864-2.044,1.105-3.131,1.105c-3.447,0-4.768-2.359-4.768-4.635c0-2.85,1.795-5.108,4.768-5.108   c1.204,0,2.59,0.498,3.521,1.387L6884.164,228.747z M6865.625,235.84h-5.149l2.574-5.914L6865.625,235.84z M6867.843,240.89h2.849   l-6.22-13.879h-2.851l-6.22,13.879h2.83l1.189-2.616h7.25L6867.843,240.89z M6850.767,240.89h2.607v-13.846h-2.99l-4.336,5.956   l-4.335-5.956h-3.015v13.846h2.615v-10.059l4.42,6.03h0.514l4.52-6.013V240.89z M6835.226,240.89v-13.879h-2.592v13.879H6835.226z    M6816.114,229.486h2.848c3.016,0,4.277,2.159,4.344,4.328c0.051,2.259-1.194,4.56-4.344,4.56h-2.848V229.486z M6818.962,227.011   c-1.701,0-3.736,0-5.439,0v13.879c1.703,0,3.738,0,5.439,0c4.852,0,6.994-3.546,6.936-7.06   C6825.841,230.392,6823.714,227.011,6818.962,227.011z M6806.022,235.84h-5.142l2.574-5.914L6806.022,235.84z M6808.239,240.89   h2.857l-6.221-13.879h-2.85l-6.22,13.879h2.831l1.189-2.616h7.25L6808.239,240.89z M6787.209,229.129   c3.264,0,4.577,2.616,4.535,4.951c-0.041,2.275-1.271,4.734-4.535,4.734c-3.272,0-4.493-2.442-4.56-4.718   C6782.592,231.762,6783.937,229.129,6787.209,229.129z M6787.209,226.753c-4.793,0-7.134,3.663-7.134,7.309   c0,3.639,2.259,7.143,7.134,7.143c4.868,0,7.068-3.58,7.11-7.167C6794.36,230.417,6791.976,226.753,6787.209,226.753z    M6768.529,227.011v13.879h9.742v-2.417h-7.134v-11.462H6768.529z M6760.681,227.011c-2.184-0.024-4.361,0-6.537,0v13.879h2.616   v-4.078h3.921C6767.476,236.812,6767.449,227.011,6760.681,227.011z M6756.76,229.503h3.921c3.322,0,3.347,4.917,0,4.917h-3.921   V229.503z M6747.998,227.044v7.949c0,2.375-1.23,3.821-3.39,3.821c-2.16,0-3.58-1.33-3.58-3.821v-7.949h-2.591v7.949   c0,4.178,2.824,6.196,6.155,6.196c3.487,0,5.996-2.102,5.996-6.196v-7.949H6747.998z"
   fill="#94A4A5"
   clip-rule="evenodd"
   fill-rule="evenodd" />
</g>
</svg>
