<?xml version="1.0" encoding="utf-8"?>
<!-- Generator: Adobe Illustrator 15.1.0, SVG Export Plug-In . SVG Version: 6.00 Build 0)  -->
<!DOCTYPE svg PUBLIC "-//W3C//DTD SVG 1.0//EN" "http://www.w3.org/TR/2001/REC-SVG-20010904/DTD/svg10.dtd">
<svg version="1.0" id="Layer_1" xmlns="http://www.w3.org/2000/svg" xmlns:xlink="http://www.w3.org/1999/xlink" x="0px" y="0px"
	 width="800px" height="800px" viewBox="0 0 800 800" enable-background="new 0 0 800 800" xml:space="preserve">
<g id="Header">
	<path fill="#BCC2C6" d="M33.1,34.5h736.2c8.5,0,16.1,3.5,21.7,9l0,0c5.6,5.6,9,13.2,9,21.7v654.6c0,8.4-3.5,16.1-9,21.7l0,0
		c-5.6,5.6-13.2,9-21.7,9H33.1c-8.5,0-16.1-3.5-21.7-9l0,0c-5.6-5.6-9-13.2-9-21.7V65.2c0-8.4,3.5-16.1,9-21.7l0,0
		C16.9,38,24.6,34.5,33.1,34.5"/>
	<path fill="#EBEFF0" d="M788.9,65.2v654.6c0,12.3-8.6,19.6-19.6,19.6H33.1c-11,0-19.6-7-19.6-19.6V65.2c0-12.8,8.6-19.6,19.6-19.6
		h736.2C780.2,45.6,788.9,52.7,788.9,65.2"/>
	<path fill="#94A4A5" d="M677.6,72.3c7.8,0,14.2,6.4,14.2,14.2s-6.3,14.2-14.2,14.2c-7.9,0-14.2-6.3-14.2-14.2
		C663.4,78.7,669.7,72.3,677.6,72.3 M722.1,72.3c7.8,0,14.2,6.4,14.2,14.2s-6.4,14.2-14.2,14.2c-7.8,0-14.2-6.3-14.2-14.2
		C707.9,78.7,714.3,72.3,722.1,72.3z M633,72.3c7.8,0,14.2,6.4,14.2,14.2s-6.3,14.2-14.2,14.2c-7.8,0-14.2-6.4-14.2-14.2
		S625.2,72.3,633,72.3z"/>
	<text transform="matrix(1 0 0 1 180.6675 85.2969)" fill="#93A2A3" font-family="'NexaBold'" font-size="44.0749">GALLERY</text>
</g>
<g id="Body">
	<path fill="#BCC2C6" d="M30,126.4h744.1c7.3,0,14,3,18.8,7.8c4.8,4.8,7.8,11.5,7.8,18.8v572.6c0,7.3-3,14-7.8,18.8
		c-4.8,4.8-11.5,7.8-18.8,7.8H30c-7.3,0-14-3-18.8-7.8c-4.8-4.8-7.8-11.5-7.8-18.8V153.1c0-7.3,3-14,7.8-18.8
		C16,129.4,22.6,126.4,30,126.4"/>
	<path fill="#FFFFFF" d="M30,137.5c-4.1,0-8,1.6-10.9,4.6c-2.9,2.9-4.6,6.8-4.6,10.9v572.6c0,4.1,1.6,8,4.6,11
		c2.9,2.9,6.8,4.6,10.9,4.6h744.1c4.1,0,8-1.7,10.9-4.6c2.9-2.9,4.6-6.8,4.6-11V153.1c0-4.1-1.6-8-4.6-10.9
		c-2.9-2.9-6.8-4.6-10.9-4.6H30V137.5z"/>
	<rect x="96.6" y="205.1" fill="#34495E" width="216.2" height="185"/>
	<rect x="107.7" y="216.2" fill="#22A6EF" width="193.9" height="162.8"/>
	<path opacity="0.15" enable-background="new    " d="M269.8,268.6c-2.3-2.3-5.4-3.7-8.9-3.7s-6.6,1.4-8.9,3.7
		c-2.3,2.3-3.7,5.4-3.7,8.9s1.4,6.6,3.7,8.9c2.3,2.3,5.4,3.7,8.9,3.7s6.6-1.4,8.9-3.7c2.3-2.3,3.6-5.4,3.6-8.9
		S272,270.9,269.8,268.6 M260.9,254.6c6.3,0,12,2.6,16.1,6.7l0,0c4.1,4.1,6.7,9.8,6.7,16.1c0,6.3-2.6,12-6.7,16.1l0,0
		c-4.1,4.1-9.8,6.7-16.1,6.7c-6.3,0-12-2.6-16.2-6.7c-4.1-4.1-6.7-9.8-6.7-16.2c0-6.3,2.6-12,6.7-16.1l0,0
		C248.9,257.2,254.6,254.6,260.9,254.6z M250,310.6L250,310.6l0.2,0.2l2.9,3.8l0,0l17.4,23.6c1.2,1.7,1.8,3.4,1.8,5l0,0
		c0,1.3-0.3,2.4-0.9,3.4c-0.5,0.9-1.2,1.8-2.1,2.4c-1.4,1-3.3,1.6-5.1,1.6l0,0h-43.6h-83.5c-2,0-3.8-0.6-5.1-1.6
		c-0.9-0.7-1.7-1.6-2.2-2.6l0,0c-0.5-1-0.7-2.1-0.7-3.3l0,0c0-1.7,0.6-3.6,1.9-5.3l18.3-24.8l0,0l1.7-2.2l0.2-0.3l0,0l0,0l22.6-30
		c0.8-1.1,1.7-1.9,2.6-2.6c1.8-1.3,3.7-2,5.7-2s3.9,0.7,5.6,2c0.9,0.7,1.8,1.6,2.6,2.6l21.6,28.7l10.4-13.9c0.8-1,1.7-1.9,2.6-2.6
		c1.7-1.3,3.6-2,5.7-2c2,0,3.9,0.6,5.7,2c0.9,0.7,1.8,1.6,2.6,2.6L250,310.6L250,310.6z M259.1,340.4l-17.4-23.7l-0.7-1l-10.7-14.2
		l0,0l0,0l-12.1,16l-2.5,3.3l-4.1,5.5l-4.1-5.5l-2.5-3.3l-23.2-30.8l0,0l0,0l-21.9,29.1l-0.6,0.9l-17.4,23.7h78.6H259.1z"/>
	<path fill="#34495E" d="M257.7,244.4c6.3,0,12,2.6,16.2,6.7l0,0c4.1,4.1,6.7,9.8,6.7,16.1c0,6.3-2.6,12-6.7,16.1l0,0
		c-4.2,4.1-9.9,6.7-16.2,6.7c-6.3,0-12-2.5-16.2-6.7c-4.1-4.1-6.7-9.9-6.7-16.2c0-6.3,2.6-12,6.7-16.1l0,0
		C245.7,247,251.4,244.4,257.7,244.4 M246.7,300.4L246.7,300.4l0.2,0.2l2.9,3.9l0,0l17.3,23.6c1.2,1.7,1.8,3.4,1.8,5l0,0
		c0,1.3-0.3,2.4-0.9,3.4c-0.5,0.9-1.2,1.8-2.1,2.4c-1.4,1-3.3,1.6-5.1,1.6l0,0h-43.6h-83.5c-2,0-3.8-0.6-5.1-1.6
		c-0.9-0.7-1.7-1.6-2.2-2.6l0,0c-0.5-1-0.7-2.1-0.7-3.3l0,0c0-1.7,0.6-3.6,1.9-5.3l18.3-24.8l0,0l1.7-2.2l0.2-0.3l0,0l0,0l22.6-30
		c0.8-1.1,1.7-1.9,2.6-2.6c1.8-1.3,3.7-2,5.7-2s3.9,0.7,5.6,2c0.9,0.7,1.8,1.6,2.6,2.6l21.6,28.7l10.4-13.9c0.8-1,1.7-1.9,2.6-2.6
		c1.7-1.3,3.6-2,5.7-2c2,0,3.9,0.6,5.7,2c0.9,0.7,1.8,1.6,2.6,2.6L246.7,300.4L246.7,300.4z"/>
	<path fill="#39D4FF" d="M257.7,252.8c-3.9,0-7.5,1.5-10.3,4.3l0,0c-2.7,2.7-4.2,6.4-4.2,10.2c0,3.9,1.5,7.5,4.2,10.3
		c2.7,2.7,6.4,4.3,10.3,4.3c3.9,0,7.5-1.5,10.3-4.3l0,0c2.7-2.7,4.2-6.4,4.2-10.2c0-3.8-1.5-7.5-4.2-10.2l-0.1-0.1
		C265.2,254.3,261.6,252.8,257.7,252.8 M134.7,332.2h82.5h42.6l-19.5-26.6l-11.6-15.4c-0.3-0.4-0.6-0.7-0.9-1
		c-0.2-0.1-0.4-0.3-0.7-0.3c-0.2,0-0.5,0.2-0.7,0.3c-0.4,0.3-0.7,0.6-0.9,1l-17.1,22.7l-28.2-37.5c-0.3-0.4-0.6-0.7-0.9-1
		c-0.2-0.1-0.4-0.3-0.7-0.3c-0.2,0-0.5,0.2-0.6,0.3c-0.4,0.3-0.7,0.6-0.9,1l-22.7,30.2L134.7,332.2z"/>
	<rect x="355.9" y="205.1" fill="#34495E" width="359.1" height="185"/>
	<rect x="367" y="216.2" fill="#22A6EF" width="336.9" height="162.8"/>
	<path opacity="0.15" enable-background="new    " d="M600.5,268.6c-2.3-2.3-5.4-3.7-8.9-3.7s-6.6,1.4-8.9,3.7
		c-2.3,2.3-3.7,5.4-3.7,8.9s1.4,6.6,3.7,8.9c2.3,2.3,5.4,3.7,8.9,3.7s6.6-1.4,8.9-3.7c2.3-2.3,3.7-5.4,3.7-8.9
		S602.8,270.9,600.5,268.6 M591.6,254.6c6.3,0,12,2.6,16.1,6.7l0,0c4.1,4.1,6.7,9.8,6.7,16.1c0,6.3-2.6,12-6.7,16.1l0,0
		c-4.1,4.1-9.8,6.7-16.1,6.7c-6.3,0-12-2.6-16.2-6.7c-4.1-4.1-6.7-9.8-6.7-16.2c0-6.3,2.6-12,6.7-16.1l0,0
		C579.6,257.2,585.3,254.6,591.6,254.6z M580.7,310.6L580.7,310.6l0.2,0.2l2.9,3.8l0,0l17.3,23.6c1.2,1.7,1.8,3.4,1.8,5l0,0
		c0,1.3-0.3,2.4-0.9,3.4c-0.5,0.9-1.3,1.8-2.1,2.4c-1.4,1-3.3,1.6-5.1,1.6l0,0h-43.6h-83.5c-2,0-3.8-0.6-5.1-1.6
		c-0.9-0.7-1.7-1.6-2.2-2.6l0,0c-0.5-1-0.7-2.1-0.7-3.3l0,0c0-1.7,0.6-3.6,1.9-5.3l18.3-24.8l0,0l1.7-2.2l0.2-0.3l0,0l0,0l22.6-30
		c0.8-1.1,1.7-1.9,2.6-2.6c1.8-1.3,3.7-2,5.7-2s3.9,0.7,5.6,2c0.9,0.7,1.8,1.6,2.6,2.6l21.5,28.7l10.4-13.9c0.8-1,1.7-1.9,2.6-2.6
		c1.7-1.3,3.6-2,5.7-2c2,0,3.9,0.6,5.7,2c0.9,0.7,1.8,1.6,2.6,2.6L580.7,310.6L580.7,310.6z M589.8,340.4l-17.4-23.7l-0.7-1
		L561,301.6l0,0l0,0l-12,16l-2.5,3.3l-4.1,5.5l-4.1-5.5l-2.5-3.3l-23.2-30.8l0,0l0,0l-21.9,29.1l-0.6,0.9l-17.4,23.7h78.6
		L589.8,340.4z"/>
	<path fill="#34495E" d="M588.4,244.4c6.3,0,12,2.6,16.2,6.7l0,0c4.1,4.1,6.7,9.8,6.7,16.1c0,6.3-2.6,12-6.7,16.1l0,0
		c-4.1,4.1-9.9,6.7-16.2,6.7c-6.3,0-12-2.5-16.2-6.7c-4.1-4.1-6.7-9.9-6.7-16.2c0-6.3,2.6-12,6.7-16.1l0,0
		C576.4,247,582.1,244.4,588.4,244.4 M577.5,300.4L577.5,300.4l0.2,0.2l2.9,3.9l0,0l17.4,23.6c1.2,1.7,1.8,3.4,1.8,5l0,0
		c0,1.3-0.3,2.4-0.9,3.4c-0.5,0.9-1.2,1.8-2.1,2.4c-1.4,1-3.3,1.6-5.1,1.6l0,0h-43.6h-83.5c-2,0-3.8-0.6-5.1-1.6
		c-0.9-0.7-1.7-1.6-2.2-2.6l0,0c-0.5-1-0.7-2.1-0.7-3.3l0,0c0-1.7,0.6-3.6,1.9-5.3l18.3-24.8l0,0l1.7-2.2l0.2-0.3l0,0l0,0l22.6-30
		c0.8-1.1,1.7-1.9,2.6-2.6c1.8-1.3,3.7-2,5.7-2s3.9,0.7,5.6,2c0.9,0.7,1.8,1.6,2.6,2.6l21.6,28.7l10.4-13.9c0.8-1,1.7-1.9,2.6-2.6
		c1.7-1.3,3.6-2,5.7-2c2,0,3.9,0.6,5.7,2c0.9,0.7,1.8,1.6,2.6,2.6L577.5,300.4L577.5,300.4z"/>
	<path fill="#39D4FF" d="M588.4,252.8c-3.9,0-7.5,1.5-10.3,4.3l0,0c-2.7,2.7-4.2,6.4-4.2,10.2c0,3.9,1.5,7.5,4.2,10.3
		c2.7,2.7,6.4,4.3,10.3,4.3c3.9,0,7.5-1.5,10.3-4.3l0,0c2.7-2.7,4.2-6.4,4.2-10.2c0-3.8-1.5-7.5-4.2-10.2l-0.1-0.1
		C595.9,254.3,592.3,252.8,588.4,252.8 M465.4,332.2h82.5h42.6l-19.6-26.6l-11.6-15.4c-0.3-0.4-0.6-0.7-0.9-1
		c-0.2-0.1-0.4-0.3-0.6-0.3c-0.3,0-0.5,0.2-0.7,0.3c-0.3,0.3-0.7,0.6-0.9,1l-17.1,22.7l-28.2-37.5c-0.3-0.4-0.6-0.7-0.9-1
		c-0.2-0.1-0.4-0.3-0.7-0.3c-0.2,0-0.5,0.2-0.6,0.3c-0.3,0.3-0.7,0.6-0.9,1l-22.7,30.2L465.4,332.2z"/>
	<rect x="498.8" y="458.5" fill="#34495E" width="216.2" height="185"/>
	<rect x="510" y="469.7" fill="#22A6EF" width="193.9" height="162.8"/>
	<path opacity="0.15" enable-background="new    " d="M672,522.1c-2.3-2.3-5.4-3.7-8.9-3.7s-6.6,1.4-8.9,3.7
		c-2.3,2.3-3.7,5.4-3.7,8.9s1.4,6.6,3.7,8.9c2.3,2.3,5.4,3.7,8.9,3.7s6.6-1.4,8.9-3.7c2.3-2.3,3.7-5.4,3.7-8.9
		C675.6,527.5,674.2,524.3,672,522.1 M663.1,508.1c6.3,0,12,2.6,16.1,6.7l0,0c4.1,4.1,6.7,9.8,6.7,16.1c0,6.3-2.6,12-6.7,16.1l0,0
		c-4.1,4.1-9.8,6.7-16.1,6.7c-6.3,0-12-2.6-16.2-6.7c-4.1-4.1-6.7-9.8-6.7-16.2c0-6.3,2.6-12,6.7-16.1l0,0
		C651.1,510.6,656.8,508.1,663.1,508.1z M652.2,564.1L652.2,564.1l0.2,0.2l2.9,3.8l0,0l17.4,23.6c1.2,1.7,1.8,3.4,1.8,5l0,0
		c0,1.3-0.3,2.4-0.9,3.4c-0.5,1-1.2,1.7-2.1,2.4c-1.4,1-3.3,1.6-5.1,1.6l0,0h-43.6h-83.5c-2,0-3.8-0.6-5.1-1.6
		c-0.9-0.7-1.7-1.6-2.2-2.6l0,0c-0.5-1-0.7-2.1-0.7-3.3l0,0c0-1.7,0.6-3.6,1.9-5.3l18.3-24.8l0,0l1.7-2.2l0.2-0.3l0,0l0,0l22.6-30
		c0.8-1.1,1.7-1.9,2.6-2.6c1.8-1.3,3.7-2,5.7-2s3.9,0.7,5.6,2c0.9,0.7,1.8,1.6,2.6,2.6l21.5,28.7l10.4-13.9c0.8-1,1.7-1.9,2.6-2.6
		c1.7-1.3,3.6-2,5.7-2c2,0,3.9,0.7,5.7,2c0.9,0.7,1.8,1.6,2.6,2.6L652.2,564.1L652.2,564.1z M661.3,593.9l-17.4-23.7l-0.7-1
		L632.5,555l0,0l0,0l-12,16l-2.5,3.3l-4.1,5.5l-4.1-5.5l-2.5-3.3L584,540.2l0,0l0,0l-22,29.1l-0.6,0.9L544,593.9h78.6H661.3z"/>
	<path fill="#34495E" d="M659.9,497.9c6.3,0,12,2.6,16.1,6.7l0,0c4.1,4.1,6.7,9.8,6.7,16.1s-2.6,12-6.7,16.1l0,0
		c-4.1,4.1-9.9,6.7-16.1,6.7c-6.3,0-12-2.6-16.2-6.7c-4.1-4.1-6.7-9.9-6.7-16.2c0-6.3,2.6-12,6.7-16.1l0,0
		C647.9,500.4,653.6,497.9,659.9,497.9 M649,553.9L649,553.9l0.2,0.2l2.9,3.9l0,0l17.3,23.6c1.2,1.7,1.8,3.4,1.8,5l0,0
		c0,1.3-0.3,2.4-0.9,3.4c-0.5,1-1.2,1.8-2.1,2.4c-1.4,1-3.3,1.6-5.1,1.6l0,0h-43.6H536c-2,0-3.8-0.6-5.1-1.6
		c-0.9-0.7-1.7-1.6-2.2-2.6l0,0c-0.5-1-0.7-2.1-0.7-3.3l0,0c0-1.7,0.6-3.6,1.9-5.3l18.3-24.8l0,0l1.7-2.2l0.2-0.3l0,0l22.6-30
		c0.8-1.1,1.7-1.9,2.6-2.6c1.8-1.3,3.7-2,5.7-2s3.9,0.7,5.6,2c0.9,0.7,1.8,1.6,2.6,2.6l21.6,28.7l10.4-13.9c0.8-1,1.7-1.9,2.6-2.6
		c1.7-1.3,3.6-2,5.7-2c2,0,3.9,0.7,5.7,2c0.9,0.7,1.8,1.6,2.6,2.6L649,553.9L649,553.9z"/>
	<path fill="#39D4FF" d="M659.9,506.2c-3.9,0-7.5,1.5-10.3,4.3l0,0c-2.7,2.7-4.2,6.4-4.2,10.2s1.5,7.5,4.2,10.3
		c2.7,2.7,6.4,4.2,10.3,4.2c3.9,0,7.5-1.5,10.3-4.3l0,0c2.7-2.7,4.2-6.4,4.2-10.2c0-3.9-1.5-7.5-4.2-10.2l-0.1-0.1
		C667.4,507.7,663.8,506.2,659.9,506.2 M536.9,585.6h82.5H662L642.4,559l-11.6-15.4c-0.3-0.3-0.6-0.7-0.9-1
		c-0.2-0.1-0.4-0.3-0.6-0.3c-0.3,0-0.5,0.2-0.7,0.3c-0.3,0.3-0.7,0.6-0.9,1l-17.1,22.7l-28.2-37.5c-0.3-0.4-0.6-0.7-0.9-1
		c-0.2-0.1-0.4-0.3-0.7-0.3c-0.2,0-0.5,0.2-0.6,0.3c-0.3,0.3-0.7,0.6-0.9,1L556.4,559L536.9,585.6z"/>
	<rect x="96.6" y="458.5" fill="#34495E" width="359.1" height="185"/>
	<rect x="107.7" y="469.7" fill="#22A6EF" width="336.9" height="162.8"/>
	<path opacity="0.15" enable-background="new    " d="M341.2,522.1c-2.3-2.3-5.4-3.7-8.9-3.7s-6.6,1.4-8.9,3.7
		c-2.3,2.3-3.6,5.4-3.6,8.9s1.4,6.6,3.7,8.9c2.3,2.3,5.4,3.7,8.9,3.7s6.6-1.4,8.9-3.7c2.3-2.3,3.7-5.4,3.7-8.9
		C344.9,527.5,343.5,524.3,341.2,522.1 M332.4,508.1c6.3,0,12,2.6,16.1,6.7l0,0c4.1,4.1,6.7,9.8,6.7,16.1c0,6.3-2.6,12-6.7,16.1l0,0
		c-4.1,4.1-9.8,6.7-16.1,6.7c-6.3,0-12-2.6-16.2-6.7c-4.1-4.1-6.7-9.8-6.7-16.2c0-6.3,2.6-12,6.7-16.1l0,0
		C320.4,510.6,326.1,508.1,332.4,508.1z M321.4,564.1L321.4,564.1l0.2,0.2l2.9,3.8l0,0l17.3,23.6c1.2,1.7,1.8,3.4,1.8,5l0,0
		c0,1.3-0.3,2.4-0.9,3.4c-0.5,1-1.2,1.7-2.1,2.4c-1.4,1-3.3,1.6-5.1,1.6l0,0h-43.6h-83.5c-2,0-3.8-0.6-5.1-1.6
		c-0.9-0.7-1.7-1.6-2.2-2.6l0,0c-0.5-1-0.7-2.1-0.7-3.3l0,0c0-1.7,0.6-3.6,1.9-5.3l18.3-24.8l0,0l1.7-2.2l0.2-0.3l0,0l22.6-30
		c0.8-1.1,1.7-1.9,2.6-2.6c1.8-1.3,3.7-2,5.7-2s3.9,0.7,5.6,2c0.9,0.7,1.8,1.6,2.6,2.6l21.6,28.7l10.4-13.9c0.8-1,1.7-1.9,2.6-2.6
		c1.7-1.3,3.7-2,5.7-2s3.9,0.7,5.7,2c0.9,0.7,1.8,1.6,2.6,2.6L321.4,564.1L321.4,564.1z M330.6,593.9l-17.4-23.7l-0.7-1L301.7,555
		l0,0l0,0l-12,16l-2.5,3.3l-4.1,5.5l-4.1-5.5l-2.5-3.3l-23.2-30.8l0,0l0,0l-21.9,29.1l-0.6,0.9l-17.4,23.7H292H330.6z"/>
	<path fill="#34495E" d="M329.2,497.9c6.3,0,12,2.6,16.1,6.7l0,0c4.1,4.1,6.7,9.8,6.7,16.1s-2.6,12-6.7,16.1l0,0
		c-4.1,4.1-9.9,6.7-16.1,6.7c-6.3,0-12-2.6-16.2-6.7c-4.1-4.1-6.7-9.9-6.7-16.2c0-6.3,2.6-12,6.7-16.1l0,0
		C317.2,500.4,322.9,497.9,329.2,497.9 M318.2,553.9L318.2,553.9l0.2,0.2l2.9,3.9l0,0l17.4,23.6c1.2,1.7,1.8,3.4,1.8,5l0,0
		c0,1.3-0.3,2.4-0.9,3.4c-0.5,1-1.2,1.8-2.1,2.4c-1.4,1-3.3,1.6-5.1,1.6l0,0h-43.6h-83.5c-2,0-3.8-0.6-5.1-1.6
		c-0.9-0.7-1.7-1.6-2.2-2.6l0,0c-0.5-1-0.7-2.1-0.7-3.3l0,0c0-1.7,0.6-3.6,1.9-5.3l18.3-24.8l0,0l1.7-2.2l0.2-0.3l0,0l0,0l22.6-30
		c0.8-1.1,1.7-1.9,2.6-2.6c1.8-1.3,3.7-2,5.7-2s3.9,0.7,5.6,2c0.9,0.7,1.8,1.6,2.6,2.6l21.6,28.7l10.4-13.9c0.8-1,1.7-1.9,2.6-2.6
		c1.7-1.3,3.6-2,5.7-2c2,0,3.9,0.7,5.7,2c0.9,0.7,1.8,1.6,2.6,2.6L318.2,553.9L318.2,553.9z"/>
	<path fill="#39D4FF" d="M329.2,506.2c-3.9,0-7.5,1.5-10.3,4.3l0,0c-2.7,2.7-4.2,6.4-4.2,10.2s1.5,7.5,4.2,10.3
		c2.7,2.7,6.4,4.2,10.3,4.2c3.9,0,7.5-1.5,10.3-4.3l0,0c2.7-2.7,4.2-6.4,4.2-10.2c0-3.9-1.5-7.5-4.2-10.2l-0.1-0.1
		C336.7,507.7,333,506.2,329.2,506.2 M206.1,585.6h82.5h42.6L311.6,559L300,543.6c-0.3-0.3-0.6-0.7-0.9-1c-0.2-0.1-0.4-0.3-0.6-0.3
		c-0.3,0-0.5,0.2-0.7,0.3c-0.3,0.3-0.7,0.6-0.9,1l-17.1,22.7l-28.2-37.5c-0.3-0.4-0.6-0.7-0.9-1c-0.2-0.1-0.4-0.3-0.7-0.3
		c-0.2,0-0.5,0.2-0.6,0.3c-0.3,0.3-0.7,0.6-0.9,1L225.7,559L206.1,585.6z"/>
</g>
</svg>
