<?xml version="1.0" encoding="utf-8"?>
<!-- Generator: Adobe Illustrator 15.1.0, SVG Export Plug-In . SVG Version: 6.00 Build 0)  -->
<!DOCTYPE svg PUBLIC "-//W3C//DTD SVG 1.0//EN" "http://www.w3.org/TR/2001/REC-SVG-20010904/DTD/svg10.dtd">
<svg version="1.0" id="Layer_1" xmlns="http://www.w3.org/2000/svg" xmlns:xlink="http://www.w3.org/1999/xlink" x="0px" y="0px"
	 width="800px" height="800px" viewBox="0 0 800 800" enable-background="new 0 0 800 800" xml:space="preserve">
<g id="Header">
	<path fill="#BCC2C6" d="M33.1,34.5h736.2c8.5,0,16.1,3.5,21.7,9l0,0c5.6,5.6,9,13.2,9,21.7v654.6c0,8.4-3.5,16.1-9,21.7l0,0
		c-5.6,5.6-13.2,9-21.7,9H33.1c-8.5,0-16.1-3.5-21.7-9l0,0c-5.6-5.6-9-13.2-9-21.7V65.2c0-8.4,3.5-16.1,9-21.7l0,0
		C16.9,38,24.6,34.5,33.1,34.5"/>
	<path fill="#EBEFF0" d="M788.9,65.2v654.6c0,12.3-8.6,19.6-19.6,19.6H33.1c-11,0-19.6-7-19.6-19.6V65.2c0-12.8,8.6-19.6,19.6-19.6
		h736.2C780.2,45.6,788.9,52.7,788.9,65.2"/>
	<path fill="#94A4A5" d="M677.6,72.3c7.8,0,14.2,6.4,14.2,14.2s-6.3,14.2-14.2,14.2c-7.9,0-14.2-6.3-14.2-14.2
		C663.4,78.7,669.7,72.3,677.6,72.3 M722.1,72.3c7.8,0,14.2,6.4,14.2,14.2s-6.4,14.2-14.2,14.2c-7.8,0-14.2-6.3-14.2-14.2
		C707.9,78.7,714.3,72.3,722.1,72.3z M633,72.3c7.8,0,14.2,6.4,14.2,14.2s-6.3,14.2-14.2,14.2c-7.8,0-14.2-6.4-14.2-14.2
		S625.2,72.3,633,72.3z"/>
	<text transform="matrix(1 0 0 1 192.3047 85.2969)" fill="#93A2A3" font-family="'NexaBold'" font-size="44.0749">GALLERY</text>
</g>
<g id="Body">
	<path fill="#BCC2C6" d="M29,126h744.3c7.3,0,14,3,18.8,7.8c4.8,4.8,7.8,11.5,7.8,18.8v572.7c0,7.3-3,14-7.8,18.8
		c-4.8,4.8-11.5,7.8-18.8,7.8H29c-7.3,0-14-3-18.8-7.8c-4.8-4.8-7.8-11.5-7.8-18.8V152.6c0-7.3,3-14,7.8-18.8
		C15.1,129,21.7,126,29,126"/>
	<path fill="#FFFFFF" d="M29,137.1c-4.1,0-8,1.6-10.9,4.5s-4.6,6.8-4.6,11v572.7c0,4.1,1.6,8,4.6,11c2.9,2.9,6.8,4.6,10.9,4.6h744.3
		c4.1,0,8-1.7,11-4.6c2.9-2.9,4.5-6.8,4.5-11V152.6c0-4.1-1.6-8-4.5-11c-2.9-2.9-6.9-4.5-11-4.5H29z"/>
	<rect x="158.4" y="209.1" fill="#34495E" width="485.5" height="304.1"/>
	<rect x="168.4" y="219.1" fill="#22A6EF" width="465.6" height="284.2"/>
	<path opacity="0.15" enable-background="new    " d="M517.5,314.8c-4-3.9-9.4-6.4-15.5-6.4s-11.5,2.4-15.5,6.4
		c-3.9,3.9-6.4,9.4-6.4,15.5c0,6,2.4,11.5,6.4,15.4c3.9,3.9,9.4,6.4,15.5,6.4c6,0,11.5-2.4,15.5-6.4c3.9-4,6.4-9.4,6.4-15.5
		C523.9,324.3,521.4,318.8,517.5,314.8 M502,290.4c11,0,20.9,4.5,28.1,11.7l0,0c7.2,7.2,11.7,17.2,11.7,28.2s-4.5,20.9-11.7,28.1
		l0,0c-7.2,7.2-17.2,11.7-28.1,11.7c-11,0-21-4.5-28.2-11.7c-7.2-7.2-11.7-17.2-11.7-28.2s4.5-20.9,11.7-28.2l0,0
		C481.1,294.9,491,290.4,502,290.4z M482.9,388.1L482.9,388.1l0.3,0.4l5.1,6.7h-0.1l30.2,41.1c2.2,2.9,3.1,5.9,3.1,8.7l0,0
		c0,2.2-0.5,4.2-1.5,6c-0.9,1.7-2.2,3.1-3.7,4.2c-2.5,1.8-5.7,2.8-8.9,2.8l0,0h-76H285.8c-3.5,0-6.6-1-8.9-2.7
		c-1.6-1.2-2.9-2.7-3.8-4.5l0,0c-0.8-1.7-1.3-3.6-1.3-5.7l0,0c0-3,1-6.2,3.3-9.3l31.9-43.3l0,0l2.9-3.9l0.3-0.5l0,0l0.1-0.1
		l39.4-52.3c1.4-1.9,2.9-3.4,4.5-4.6c3.1-2.3,6.4-3.4,9.9-3.4s6.8,1.2,9.8,3.4c1.6,1.2,3.1,2.7,4.5,4.6l37.6,50l18.2-24.2
		c1.4-1.8,2.9-3.4,4.5-4.6c3-2.3,6.3-3.4,9.9-3.4c3.5,0,6.8,1.1,9.9,3.4c1.6,1.2,3.1,2.7,4.5,4.6L482.9,388.1L482.9,388.1z
		 M498.9,440.1l-30.4-41.3l-1.3-1.8l-18.6-24.7l0,0h-0.1l-21,27.9l-4.4,5.8l-7.2,9.6l-7.2-9.6l-4.4-5.8L364,346.5l0,0l0,0
		l-38.2,50.8l-1.1,1.5l-30.4,41.3h137.2H498.9L498.9,440.1z"/>
	<path fill="#34495E" d="M496.4,277.3c11,0,20.9,4.5,28.2,11.7l0,0c7.2,7.2,11.7,17.2,11.7,28.1c0,11-4.5,20.9-11.7,28.2l0,0
		c-7.2,7.2-17.2,11.7-28.2,11.7s-21-4.5-28.2-11.7c-7.2-7.2-11.7-17.2-11.7-28.2s4.5-20.9,11.7-28.1l0,0
		C475.5,281.8,485.4,277.3,496.4,277.3 M477.3,375.1L477.3,375.1l0.3,0.4l5.1,6.7l-0.1,0.1l30.3,41.1c2.2,2.9,3.1,5.9,3.1,8.7l0,0
		c0,2.2-0.6,4.2-1.5,6c-0.9,1.7-2.2,3-3.7,4.2c-2.5,1.8-5.7,2.8-8.9,2.8l0,0h-76H280.3c-3.5,0-6.5-1-8.9-2.7
		c-1.6-1.2-2.9-2.7-3.8-4.5l0,0c-0.9-1.7-1.3-3.6-1.3-5.7l0,0c0-3,1-6.2,3.3-9.3l31.9-43.3l0,0l2.9-3.9l0.4-0.5l0,0v-0.1l39.4-52.4
		c1.4-1.8,2.9-3.4,4.5-4.6c3.1-2.3,6.4-3.4,9.9-3.4s6.8,1.2,9.8,3.4c1.6,1.2,3.1,2.7,4.5,4.6l37.6,50l18.2-24.2
		c1.4-1.8,2.9-3.4,4.5-4.6c3-2.3,6.4-3.4,9.9-3.4s6.8,1.1,9.9,3.4c1.6,1.2,3.1,2.7,4.5,4.6L477.3,375.1L477.3,375.1z"/>
	<path fill="#39D4FF" d="M496.4,287.6c7.9,0,15.4,3.1,20.9,8.7l0,0c5.6,5.6,8.7,13,8.7,20.9c0,7.9-3.1,15.3-8.7,20.9l0,0
		c-5.6,5.6-13,8.7-20.9,8.7c-7.9,0-15.4-3.1-20.9-8.7c-5.6-5.6-8.7-13.1-8.7-21s3.1-15.3,8.7-20.9l0,0
		C481.1,290.7,488.5,287.6,496.4,287.6"/>
	<path fill="#39D4FF" d="M410.3,389.6l26.4-35.1c0.7-0.9,1.5-1.8,2.5-2.6c1.1-0.8,2.3-1.4,3.8-1.4c1.4,0,2.6,0.6,3.7,1.4
		c0.9,0.7,1.8,1.6,2.5,2.6l20.2,26.9l35.2,47.9c0.4,0.5,0.8,1.2,1,1.9l0.1,0.3v0.8l-0.1,0.3c-0.2,0.6-0.5,1-0.9,1.3
		c-0.6,0.4-1.4,0.7-2.1,0.8h-0.1h-76.7H280.2c-0.9,0-2.1-0.2-2.8-0.7l-0.4-0.3l-0.6-1.2v-1v-0.2c0.2-0.9,0.7-1.8,1.2-2.5l34.8-47.4
		l39.6-52.7c0.7-0.9,1.5-1.8,2.5-2.6c1.1-0.9,2.3-1.4,3.7-1.4c1.4,0,2.6,0.6,3.7,1.4c0.9,0.7,1.8,1.6,2.5,2.6L410.3,389.6z"/>
	<path fill="#BCC2C6" d="M60.1,361.2l3.9-3.9l0,0l22.7-22.7l6-6c2.2-2.2,5.7-2.2,7.9,0l0,0c2.2,2.2,2.2,5.7,0,7.9l-6,6l-18.7,18.7
		L96.6,382l3.9,3.9c2.2,2.2,2.2,5.7,0,7.9l0,0c-2.2,2.2-5.7,2.2-7.9,0l-3.9-3.9L64,365.1l0,0L60.1,361.2z"/>
	<path fill="#BCC2C6" d="M742.3,361.2l-3.9-3.9l-22.7-22.7l-6-6c-2.2-2.2-5.7-2.2-7.9,0l0,0c-2.2,2.2-2.2,5.7,0,7.9l6,6l18.7,18.7
		L705.8,382l-3.9,3.9c-2.2,2.2-2.2,5.7,0,7.9l0,0c2.2,2.2,5.7,2.2,7.9,0l3.9-3.9l24.7-24.7L742.3,361.2z"/>
	<path fill="#BCC2C6" d="M172.1,616.5h458.3c4.1,0,7.5,3.3,7.5,7.5l0,0c0,4.1-3.3,7.4-7.5,7.4H172.1c-4.1,0-7.5-3.3-7.5-7.4l0,0
		C164.6,619.8,168,616.5,172.1,616.5"/>
	<path fill="#BCC2C6" d="M290.4,653.9H512c4.1,0,7.5,3.3,7.5,7.5l0,0c0,4.1-3.4,7.5-7.5,7.5H290.4c-4.1,0-7.4-3.3-7.4-7.5l0,0
		C282.9,657.3,286.3,653.9,290.4,653.9"/>
	<path fill="#BCC2C6" d="M350.1,542.1c5.8,0,10.5,4.7,10.5,10.5c0,5.8-4.7,10.5-10.5,10.5c-5.8,0-10.5-4.7-10.5-10.5
		C339.6,546.9,344.3,542.1,350.1,542.1"/>
	<path fill="#BCC2C6" d="M401.2,542.1c5.8,0,10.5,4.7,10.5,10.5c0,5.8-4.7,10.5-10.5,10.5s-10.5-4.7-10.5-10.5
		C390.7,546.9,395.4,542.1,401.2,542.1"/>
	<path fill="#BCC2C6" d="M452.3,542.1c5.8,0,10.5,4.7,10.5,10.5c0,5.8-4.7,10.5-10.5,10.5s-10.5-4.7-10.5-10.5
		C441.7,546.9,446.5,542.1,452.3,542.1"/>
</g>
</svg>
