<?xml version="1.0" encoding="utf-8"?>
<!-- Generator: Adobe Illustrator 15.1.0, SVG Export Plug-In . SVG Version: 6.00 Build 0)  -->
<!DOCTYPE svg PUBLIC "-//W3C//DTD SVG 1.0//EN" "http://www.w3.org/TR/2001/REC-SVG-20010904/DTD/svg10.dtd">
<svg version="1.0" id="Layer_1" xmlns="http://www.w3.org/2000/svg" xmlns:xlink="http://www.w3.org/1999/xlink" x="0px" y="0px"
	 width="800px" height="800px" viewBox="0 0 800 800" enable-background="new 0 0 800 800" xml:space="preserve">
<g id="Header">
	<path fill="#BCC2C6" d="M33.1,34.5h736.2c8.5,0,16.1,3.5,21.7,9l0,0c5.6,5.6,9,13.2,9,21.7v654.6c0,8.4-3.5,16.1-9,21.7l0,0
		c-5.6,5.6-13.2,9-21.7,9H33.1c-8.5,0-16.1-3.5-21.7-9l0,0c-5.6-5.6-9-13.2-9-21.7V65.2c0-8.4,3.5-16.1,9-21.7l0,0
		C16.9,38,24.6,34.5,33.1,34.5"/>
	<path fill="#EBEFF0" d="M788.9,65.2v654.6c0,12.3-8.6,19.6-19.6,19.6H33.1c-11,0-19.6-7-19.6-19.6V65.2c0-12.8,8.6-19.6,19.6-19.6
		h736.2C780.2,45.6,788.9,52.7,788.9,65.2"/>
	<path fill="#94A4A5" d="M677.6,72.3c7.8,0,14.2,6.4,14.2,14.2s-6.3,14.2-14.2,14.2c-7.9,0-14.2-6.3-14.2-14.2
		C663.4,78.7,669.7,72.3,677.6,72.3 M722.1,72.3c7.8,0,14.2,6.4,14.2,14.2s-6.4,14.2-14.2,14.2c-7.8,0-14.2-6.3-14.2-14.2
		C707.9,78.7,714.3,72.3,722.1,72.3z M633,72.3c7.8,0,14.2,6.4,14.2,14.2s-6.3,14.2-14.2,14.2c-7.8,0-14.2-6.4-14.2-14.2
		S625.2,72.3,633,72.3z"/>
	<text transform="matrix(1 0 0 1 188.6675 83.2969)" fill="#93A2A3" font-family="'NexaBold'" font-size="44.0749">GALLERY</text>
</g>
<g id="Body">
	<path fill="#34495E" d="M29.4,126.6h744.5c7.3,0,14,3,18.8,7.8c4.8,4.8,7.8,11.5,7.8,18.8v572.9c0,7.3-3,14-7.8,18.8
		c-4.8,4.8-11.5,7.8-18.8,7.8H29.4c-7.3,0-14-3-18.8-7.8c-4.8-4.8-7.8-11.5-7.8-18.8V153.3c0-7.3,3-14,7.8-18.8
		C15.4,129.6,22.1,126.6,29.4,126.6"/>
	<path fill="#FFFFFF" d="M29.4,137.8c-4.1,0-8,1.6-11,4.5c-2.9,2.9-4.6,6.8-4.6,11v572.9c0,4.1,1.7,8,4.6,11c2.9,2.9,6.8,4.6,11,4.6
		h744.5c4.1,0,8-1.7,10.9-4.6c2.9-2.9,4.6-6.8,4.6-11V153.3c0-4.1-1.6-8-4.6-11c-2.9-2.9-6.8-4.5-10.9-4.5H29.4z"/>
	<rect x="101.7" y="192.3" fill="#34495E" width="265.2" height="226.2"/>
	<rect x="112.8" y="203.5" fill="#22A6EF" width="243" height="203.9"/>
	<path opacity="0.15" enable-background="new    " d="M299.4,276.4c-2.3-2.3-5.4-3.7-8.9-3.7s-6.6,1.4-8.9,3.7
		c-2.3,2.3-3.6,5.4-3.6,8.9c0,3.4,1.4,6.6,3.7,8.8c2.3,2.3,5.4,3.7,8.9,3.7s6.6-1.4,8.9-3.7c2.3-2.3,3.6-5.4,3.6-8.9
		C303.1,281.8,301.7,278.7,299.4,276.4 M290.5,262.4c6.3,0,12,2.6,16.1,6.7l0,0c4.1,4.1,6.7,9.8,6.7,16.2c0,6.3-2.6,12-6.7,16.1l0,0
		c-4.1,4.2-9.8,6.7-16.1,6.7s-12-2.6-16.2-6.7c-4.1-4.1-6.7-9.8-6.7-16.1c0-6.3,2.6-12,6.7-16.2l0,0
		C278.5,265,284.2,262.4,290.5,262.4z M279.6,318.5L279.6,318.5l0.2,0.2l2.9,3.9l0,0l17.3,23.6c1.2,1.7,1.8,3.4,1.8,5l0,0
		c0,1.3-0.3,2.4-0.9,3.4c-0.5,0.9-1.2,1.8-2.1,2.4c-1.4,1-3.3,1.6-5.1,1.6l0,0h-43.6h-83.5c-2,0-3.7-0.6-5.1-1.6
		c-0.9-0.7-1.7-1.6-2.2-2.6l0,0c-0.5-1-0.7-2.1-0.7-3.2l0,0c0-1.7,0.6-3.6,1.9-5.3l18.3-24.8l0,0l1.7-2.2l0.2-0.3l0,0l0,0l22.6-30
		c0.8-1,1.7-1.9,2.6-2.6c1.8-1.3,3.7-2,5.7-2s3.9,0.7,5.6,2c0.9,0.7,1.8,1.6,2.6,2.6l21.6,28.7l10.4-13.9c0.8-1.1,1.7-1.9,2.6-2.6
		c1.7-1.3,3.7-2,5.7-2s3.9,0.7,5.7,2c0.9,0.7,1.8,1.6,2.6,2.6L279.6,318.5L279.6,318.5z M288.7,348.3l-17.4-23.7l-0.7-1l-10.7-14.2
		l0,0l0,0l-12.1,16l-2.5,3.3l-4.1,5.5l-4.1-5.5l-2.5-3.3l-23.2-30.8l0,0l0,0l-21.9,29.1l-0.6,0.9l-17.4,23.7h78.7H288.7z"/>
	<path fill="#34495E" d="M287.3,252.2c6.3,0,12,2.6,16.2,6.7l0,0c4.1,4.1,6.7,9.8,6.7,16.1s-2.6,12-6.7,16.1l0,0
		c-4.1,4.1-9.9,6.7-16.2,6.7c-6.3,0-12-2.6-16.2-6.7c-4.1-4.1-6.7-9.9-6.7-16.2c0-6.3,2.6-12,6.7-16.1l0,0
		C275.3,254.8,281,252.2,287.3,252.2 M276.4,308.3L276.4,308.3l0.2,0.2l2.9,3.9l0,0l17.4,23.6c1.2,1.7,1.8,3.4,1.8,5l0,0
		c0,1.3-0.3,2.4-0.9,3.4c-0.5,0.9-1.2,1.8-2.1,2.4c-1.4,1-3.3,1.6-5.1,1.6l0,0H247h-83.5c-2,0-3.8-0.6-5.1-1.6
		c-0.9-0.7-1.7-1.5-2.2-2.6l0,0c-0.5-1-0.7-2.1-0.7-3.3l0,0c0-1.7,0.6-3.6,1.9-5.3l18.3-24.8l0,0l1.7-2.2l0.2-0.3l0,0l0,0l22.6-30
		c0.8-1.1,1.7-1.9,2.6-2.6c1.8-1.3,3.7-2,5.7-2s3.9,0.7,5.6,2c0.9,0.7,1.8,1.6,2.6,2.6l21.6,28.7l10.4-13.9c0.8-1.1,1.7-1.9,2.6-2.6
		c1.7-1.3,3.6-2,5.7-2c2,0,3.9,0.6,5.7,2c0.9,0.7,1.8,1.6,2.6,2.6L276.4,308.3L276.4,308.3z"/>
	<path fill="#39D4FF" d="M287.3,260.6c-3.9,0-7.5,1.5-10.3,4.3l0,0c-2.7,2.7-4.2,6.4-4.2,10.2c0,3.9,1.5,7.5,4.2,10.3
		c2.7,2.7,6.4,4.2,10.3,4.2c3.9,0,7.5-1.5,10.3-4.3l0,0c2.7-2.7,4.2-6.4,4.2-10.2c0-3.9-1.5-7.5-4.2-10.2l-0.1-0.1
		C294.8,262.1,291.2,260.6,287.3,260.6 M164.2,340h82.5h42.6l-19.6-26.6L258.2,298c-0.3-0.3-0.6-0.7-0.9-1c-0.2-0.1-0.4-0.3-0.7-0.3
		c-0.2,0-0.5,0.2-0.7,0.3c-0.4,0.3-0.7,0.6-0.9,1l-17.1,22.7l-28.2-37.5c-0.3-0.4-0.6-0.7-0.9-1c-0.2-0.1-0.4-0.3-0.7-0.3
		c-0.2,0-0.5,0.2-0.6,0.3c-0.4,0.3-0.7,0.6-0.9,1l-22.7,30.2L164.2,340z"/>
	<rect x="436.4" y="192.3" fill="#34495E" width="265.2" height="226.2"/>
	<rect x="447.6" y="203.5" fill="#22A6EF" width="243" height="203.9"/>
	<path opacity="0.15" enable-background="new    " d="M634.1,276.4c-2.3-2.3-5.4-3.7-8.9-3.7s-6.6,1.4-8.9,3.7
		c-2.3,2.3-3.7,5.4-3.7,8.9c0,3.4,1.4,6.6,3.7,8.8c2.3,2.3,5.4,3.7,8.9,3.7s6.6-1.4,8.9-3.7c2.3-2.3,3.7-5.4,3.7-8.9
		C637.8,281.8,636.4,278.7,634.1,276.4 M625.3,262.4c6.3,0,12,2.6,16.1,6.7l0,0c4.1,4.1,6.7,9.8,6.7,16.2c0,6.3-2.6,12-6.7,16.1l0,0
		c-4.1,4.2-9.8,6.7-16.1,6.7s-12-2.6-16.2-6.7c-4.1-4.1-6.7-9.8-6.7-16.1c0-6.3,2.6-12,6.7-16.2l0,0
		C613.3,265,619,262.4,625.3,262.4z M614.3,318.5L614.3,318.5l0.2,0.2l2.9,3.9l0,0l17.3,23.6c1.2,1.7,1.8,3.4,1.8,5l0,0
		c0,1.3-0.3,2.4-0.9,3.4c-0.5,0.9-1.2,1.8-2.1,2.4c-1.4,1-3.3,1.6-5.1,1.6l0,0h-43.6h-83.5c-2,0-3.8-0.6-5.1-1.6
		c-0.9-0.7-1.7-1.6-2.2-2.6l0,0c-0.5-1-0.7-2.1-0.7-3.2l0,0c0-1.7,0.6-3.6,1.9-5.3l18.3-24.8l0,0l1.7-2.2l0.2-0.3l0,0l0,0l22.6-30
		c0.8-1,1.7-1.9,2.6-2.6c1.8-1.3,3.7-2,5.7-2s3.9,0.7,5.6,2c0.9,0.7,1.8,1.6,2.6,2.6l21.6,28.7l10.4-13.9c0.8-1.1,1.7-1.9,2.6-2.6
		c1.7-1.3,3.7-2,5.7-2s3.9,0.7,5.7,2c0.9,0.7,1.8,1.6,2.6,2.6L614.3,318.5L614.3,318.5z M623.4,348.3L606,324.6l-0.7-1l-10.7-14.2
		l0,0l0,0l-12.1,16l-2.5,3.3l-4.1,5.5l-4.1-5.5l-2.5-3.3l-23.2-30.8l0,0l0,0l-21.9,29.1l-0.6,0.9L506,348.3h78.7H623.4z"/>
	<path fill="#34495E" d="M622,252.2c6.3,0,12,2.6,16.2,6.7l0,0c4.1,4.1,6.7,9.8,6.7,16.1s-2.6,12-6.7,16.1l0,0
		c-4.1,4.1-9.9,6.7-16.2,6.7s-12-2.6-16.2-6.7c-4.1-4.1-6.7-9.9-6.7-16.2c0-6.3,2.6-12,6.7-16.1l0,0
		C610,254.8,615.7,252.2,622,252.2 M611.1,308.3L611.1,308.3l0.2,0.2l2.9,3.9l0,0l17.4,23.6c1.2,1.7,1.8,3.4,1.8,5l0,0
		c0,1.3-0.3,2.4-0.9,3.4c-0.5,0.9-1.2,1.8-2.1,2.4c-1.4,1-3.3,1.6-5.1,1.6l0,0h-43.6H498c-2,0-3.8-0.6-5.1-1.6
		c-0.9-0.7-1.7-1.5-2.2-2.6l0,0c-0.5-1-0.7-2.1-0.7-3.3l0,0c0-1.7,0.6-3.6,1.9-5.3l18.3-24.8l0,0l1.7-2.2l0.2-0.3l0,0l0,0l22.6-30
		c0.8-1.1,1.7-1.9,2.6-2.6c1.8-1.3,3.7-2,5.7-2s3.9,0.7,5.6,2c0.9,0.7,1.8,1.6,2.6,2.6l21.6,28.7l10.4-13.9c0.8-1.1,1.7-1.9,2.6-2.6
		c1.7-1.3,3.7-2,5.7-2s3.9,0.6,5.7,2c0.9,0.7,1.8,1.6,2.6,2.6L611.1,308.3L611.1,308.3z"/>
	<path fill="#39D4FF" d="M622,260.6c-3.9,0-7.5,1.5-10.3,4.3l0,0c-2.7,2.7-4.2,6.4-4.2,10.2c0,3.9,1.5,7.5,4.2,10.3
		c2.7,2.7,6.4,4.2,10.3,4.2s7.5-1.5,10.3-4.3l0,0c2.7-2.7,4.2-6.4,4.2-10.2c0-3.9-1.5-7.5-4.2-10.2l-0.1-0.1
		C629.6,262.1,625.9,260.6,622,260.6 M499,340h82.5h42.6l-19.6-26.6L593,298c-0.3-0.3-0.6-0.7-0.9-1c-0.2-0.1-0.4-0.3-0.7-0.3
		c-0.2,0-0.5,0.2-0.7,0.3c-0.4,0.3-0.7,0.6-0.9,1l-17.1,22.7l-28.2-37.5c-0.3-0.4-0.6-0.7-0.9-1c-0.2-0.1-0.4-0.3-0.7-0.3
		c-0.2,0-0.5,0.2-0.6,0.3c-0.4,0.3-0.7,0.6-0.9,1l-22.7,30.2L499,340z"/>
	<rect x="101.7" y="460.9" fill="#34495E" width="265.2" height="226.2"/>
	<rect x="112.8" y="472.1" fill="#22A6EF" width="243" height="203.9"/>
	<path opacity="0.15" enable-background="new    " d="M299.4,545.1c-2.3-2.3-5.4-3.7-8.9-3.7s-6.6,1.4-8.9,3.7
		c-2.3,2.3-3.6,5.4-3.6,8.9s1.4,6.6,3.7,8.9c2.3,2.3,5.4,3.7,8.9,3.7s6.6-1.4,8.9-3.7c2.3-2.3,3.6-5.4,3.6-8.9
		S301.7,547.3,299.4,545.1 M290.5,531.1c6.3,0,12,2.5,16.1,6.7l0,0c4.1,4.1,6.7,9.8,6.7,16.1c0,6.3-2.6,12-6.7,16.1l0,0
		c-4.1,4.1-9.8,6.7-16.1,6.7s-12-2.6-16.2-6.7c-4.1-4.1-6.7-9.9-6.7-16.2s2.6-12,6.7-16.1l0,0C278.5,533.6,284.2,531.1,290.5,531.1z
		 M279.6,587.1L279.6,587.1l0.2,0.2l2.9,3.9l0,0l17.3,23.6c1.2,1.7,1.8,3.4,1.8,5l0,0c0,1.3-0.3,2.4-0.9,3.4
		c-0.5,0.9-1.2,1.7-2.1,2.4c-1.4,1.1-3.3,1.6-5.1,1.6l0,0h-43.6h-83.5c-2,0-3.7-0.6-5.1-1.6c-0.9-0.7-1.7-1.5-2.2-2.6l0,0
		c-0.5-1-0.7-2.1-0.7-3.3l0,0c0-1.7,0.6-3.6,1.9-5.3l18.3-24.8l0,0l1.7-2.2l0.2-0.3l0,0l0,0l22.6-30c0.8-1.1,1.7-2,2.6-2.6
		c1.8-1.3,3.7-2,5.7-2s3.9,0.7,5.6,2c0.9,0.7,1.8,1.6,2.6,2.6l21.6,28.7l10.4-13.9c0.8-1,1.7-1.9,2.6-2.6c1.7-1.3,3.7-2,5.7-2
		s3.9,0.6,5.7,2c0.9,0.7,1.8,1.6,2.6,2.6L279.6,587.1L279.6,587.1z M288.7,616.9l-17.4-23.7l-0.7-1L259.9,578l0,0l0,0l-12.1,16
		l-2.5,3.3l-4.1,5.5l-4.1-5.5l-2.5-3.3l-23.2-30.8l0,0l0,0l-21.9,29.1l-0.6,0.9l-17.4,23.7H250H288.7z"/>
	<path fill="#34495E" d="M287.3,520.9c6.3,0,12,2.6,16.2,6.7l0,0c4.1,4.1,6.7,9.8,6.7,16.1s-2.6,12-6.7,16.1l0,0
		c-4.1,4.1-9.9,6.7-16.2,6.7c-6.3,0-12-2.6-16.2-6.7c-4.1-4.1-6.7-9.8-6.7-16.2c0-6.3,2.6-12,6.7-16.1l0,0
		C275.3,523.4,281,520.9,287.3,520.9 M276.4,576.9L276.4,576.9l0.2,0.2l2.9,3.9l0,0l17.4,23.6c1.2,1.7,1.8,3.4,1.8,5l0,0
		c0,1.3-0.3,2.4-0.9,3.4c-0.5,1-1.2,1.8-2.1,2.4c-1.4,1.1-3.3,1.6-5.1,1.6l0,0H247h-83.5c-2,0-3.8-0.6-5.1-1.5
		c-0.9-0.7-1.7-1.6-2.2-2.6l0,0c-0.5-1-0.7-2.1-0.7-3.3l0,0c0-1.7,0.6-3.6,1.9-5.3l18.3-24.9l0,0l1.7-2.2l0.2-0.3l0,0l0,0l22.6-30
		c0.8-1.1,1.7-1.9,2.6-2.6c1.8-1.3,3.7-2,5.7-2s3.9,0.7,5.6,2c0.9,0.7,1.8,1.6,2.6,2.6l21.6,28.7l10.4-13.9c0.8-1.1,1.7-1.9,2.6-2.6
		c1.7-1.3,3.6-2,5.7-2c2,0,3.9,0.7,5.7,2c0.9,0.7,1.8,1.5,2.6,2.6L276.4,576.9L276.4,576.9z"/>
	<path fill="#39D4FF" d="M287.3,529.2c-3.9,0-7.5,1.5-10.3,4.3l0,0c-2.7,2.7-4.2,6.4-4.2,10.2s1.5,7.5,4.2,10.3
		c2.7,2.7,6.4,4.3,10.3,4.3c3.9,0,7.5-1.5,10.3-4.3l0,0c2.7-2.7,4.2-6.4,4.2-10.2c0-3.9-1.5-7.5-4.2-10.2l-0.1-0.1
		C294.8,530.7,291.2,529.2,287.3,529.2 M164.2,608.7h82.5h42.6l-19.6-26.6l-11.6-15.4c-0.3-0.4-0.6-0.7-0.9-1
		c-0.2-0.1-0.4-0.3-0.7-0.3c-0.2,0-0.5,0.2-0.7,0.3c-0.4,0.3-0.7,0.6-0.9,1l-17.1,22.7l-28.2-37.5c-0.3-0.3-0.6-0.7-0.9-1
		c-0.2-0.1-0.4-0.3-0.7-0.3c-0.2,0-0.5,0.2-0.6,0.3c-0.4,0.3-0.7,0.6-0.9,1l-22.7,30.2L164.2,608.7z"/>
	<rect x="436.4" y="460.9" fill="#34495E" width="265.2" height="226.2"/>
	<rect x="447.6" y="472.1" fill="#22A6EF" width="243" height="203.9"/>
	<path opacity="0.15" enable-background="new    " d="M634.1,545.1c-2.3-2.3-5.4-3.7-8.9-3.7s-6.6,1.4-8.9,3.7
		c-2.3,2.3-3.7,5.4-3.7,8.9s1.4,6.6,3.7,8.9c2.3,2.3,5.4,3.7,8.9,3.7s6.6-1.4,8.9-3.7c2.3-2.3,3.7-5.4,3.7-8.9
		S636.4,547.3,634.1,545.1 M625.3,531.1c6.3,0,12,2.5,16.1,6.7l0,0c4.1,4.1,6.7,9.8,6.7,16.1c0,6.3-2.6,12-6.7,16.1l0,0
		c-4.1,4.1-9.8,6.7-16.1,6.7s-12-2.6-16.2-6.7c-4.1-4.1-6.7-9.9-6.7-16.2s2.6-12,6.7-16.1l0,0C613.3,533.6,619,531.1,625.3,531.1z
		 M614.3,587.1L614.3,587.1l0.2,0.2l2.9,3.9l0,0l17.3,23.6c1.2,1.7,1.8,3.4,1.8,5l0,0c0,1.3-0.3,2.4-0.9,3.4
		c-0.5,0.9-1.2,1.7-2.1,2.4c-1.4,1.1-3.3,1.6-5.1,1.6l0,0h-43.6h-83.5c-2,0-3.8-0.6-5.1-1.6c-0.9-0.7-1.7-1.5-2.2-2.6l0,0
		c-0.5-1-0.7-2.1-0.7-3.3l0,0c0-1.7,0.6-3.6,1.9-5.3l18.3-24.8l0,0l1.7-2.2l0.2-0.3l0,0l0,0l22.6-30c0.8-1.1,1.7-2,2.6-2.6
		c1.8-1.3,3.7-2,5.7-2s3.9,0.7,5.6,2c0.9,0.7,1.8,1.6,2.6,2.6l21.6,28.7l10.4-13.9c0.8-1,1.7-1.9,2.6-2.6c1.7-1.3,3.7-2,5.7-2
		s3.9,0.6,5.7,2c0.9,0.7,1.8,1.6,2.6,2.6L614.3,587.1L614.3,587.1z M623.4,616.9L606,593.2l-0.7-1L594.6,578l0,0l0,0l-12.1,16
		l-2.5,3.3l-4.1,5.5l-4.1-5.5l-2.5-3.3l-23.2-30.8l0,0l0,0l-21.9,29.1l-0.6,0.9L506,616.9h78.7H623.4z"/>
	<path fill="#34495E" d="M622,520.9c6.3,0,12,2.6,16.2,6.7l0,0c4.1,4.1,6.7,9.8,6.7,16.1s-2.6,12-6.7,16.1l0,0
		c-4.1,4.1-9.9,6.7-16.2,6.7s-12-2.6-16.2-6.7c-4.1-4.1-6.7-9.8-6.7-16.2c0-6.3,2.6-12,6.7-16.1l0,0
		C610,523.4,615.7,520.9,622,520.9 M611.1,576.9L611.1,576.9l0.2,0.2l2.9,3.9l0,0l17.4,23.6c1.2,1.7,1.8,3.4,1.8,5l0,0
		c0,1.3-0.3,2.4-0.9,3.4c-0.5,1-1.2,1.8-2.1,2.4c-1.4,1.1-3.3,1.6-5.1,1.6l0,0h-43.6h-83.5c-2,0-3.8-0.6-5.1-1.5
		c-0.9-0.7-1.7-1.6-2.2-2.6l0,0c-0.5-1-0.7-2.1-0.7-3.3l0,0c0-1.7,0.6-3.6,1.9-5.3l18.3-24.9l0,0l1.7-2.2l0.2-0.3l0,0l0,0l22.6-30
		c0.8-1.1,1.7-1.9,2.6-2.6c1.8-1.3,3.7-2,5.7-2s3.9,0.7,5.6,2c0.9,0.7,1.8,1.6,2.6,2.6l21.6,28.7l10.4-13.9c0.8-1.1,1.7-1.9,2.6-2.6
		c1.7-1.3,3.7-2,5.7-2s3.9,0.7,5.7,2c0.9,0.7,1.8,1.5,2.6,2.6L611.1,576.9L611.1,576.9z"/>
	<path fill="#39D4FF" d="M622,529.2c-3.9,0-7.5,1.5-10.3,4.3l0,0c-2.7,2.7-4.2,6.4-4.2,10.2s1.5,7.5,4.2,10.3
		c2.7,2.7,6.4,4.3,10.3,4.3s7.5-1.5,10.3-4.3l0,0c2.7-2.7,4.2-6.4,4.2-10.2c0-3.9-1.5-7.5-4.2-10.2l-0.1-0.1
		C629.6,530.7,625.9,529.2,622,529.2 M499,608.7h82.5h42.6l-19.6-26.6L593,566.7c-0.3-0.4-0.6-0.7-0.9-1c-0.2-0.1-0.4-0.3-0.7-0.3
		c-0.2,0-0.5,0.2-0.7,0.3c-0.4,0.3-0.7,0.6-0.9,1l-17.1,22.7l-28.2-37.5c-0.3-0.3-0.6-0.7-0.9-1c-0.2-0.1-0.4-0.3-0.7-0.3
		c-0.2,0-0.5,0.2-0.6,0.3c-0.4,0.3-0.7,0.6-0.9,1l-22.7,30.2L499,608.7z"/>
	<path opacity="0.5" fill="#34495E" enable-background="new    " d="M29.4,137.8c-4.1,0-8,1.6-11,4.5c-2.9,2.9-4.6,6.8-4.6,11v572.9
		c0,4.1,1.7,8,4.6,11c2.9,2.9,6.8,4.6,11,4.6h744.5c4.1,0,8-1.7,10.9-4.6c2.9-2.9,4.6-6.8,4.6-11V153.3c0-4.1-1.6-8-4.6-11
		c-2.9-2.9-6.8-4.5-10.9-4.5H29.4z"/>
	<path fill="#34495E" d="M172.1,246.6h459.1c4.5,0,8.6,1.8,11.6,4.8s4.8,7.1,4.8,11.6v353.3c0,4.5-1.8,8.6-4.8,11.6
		s-7.1,4.8-11.6,4.8H172.1c-4.5,0-8.6-1.8-11.6-4.8s-4.8-7.1-4.8-11.6V263.1c0-4.5,1.8-8.6,4.8-11.6S167.6,246.6,172.1,246.6"/>
	<path fill="#22A6EF" d="M172.1,257.8c-1.4,0-2.7,0.5-3.7,1.5s-1.5,2.3-1.5,3.7v353.3c0,1.4,0.6,2.7,1.5,3.7c1,1,2.3,1.5,3.7,1.5
		h459.1c1.4,0,2.7-0.6,3.7-1.5c1-1,1.6-2.3,1.6-3.7V263.1c0-1.4-0.6-2.7-1.6-3.7s-2.3-1.5-3.7-1.5H172.1V257.8z"/>
	<path opacity="0.15" enable-background="new    " d="M515.2,386.8c-3.9-3.9-9.4-6.4-15.5-6.4c-6.1,0-11.5,2.4-15.5,6.4
		c-3.9,3.9-6.4,9.4-6.4,15.5c0,6,2.4,11.5,6.4,15.5c3.9,4,9.4,6.4,15.4,6.4c6.1,0,11.5-2.4,15.5-6.4c4-3.9,6.4-9.4,6.4-15.5
		C521.6,396.3,519.1,390.8,515.2,386.8 M499.7,362.4c11,0,20.9,4.5,28.2,11.7l0,0c7.2,7.2,11.7,17.2,11.7,28.2s-4.5,20.9-11.7,28.2
		l0,0c-7.2,7.2-17.2,11.7-28.2,11.7s-21-4.5-28.2-11.7s-11.7-17.2-11.7-28.2s4.5-20.9,11.7-28.2l0,0
		C478.8,366.9,488.7,362.4,499.7,362.4z M480.6,460.2L480.6,460.2l0.3,0.4l5.1,6.7h-0.1l30.2,41.1c2.2,2.9,3.1,5.9,3.1,8.7l0,0
		c0,2.2-0.5,4.2-1.5,6c-0.9,1.7-2.2,3-3.7,4.2c-2.5,1.8-5.7,2.8-8.9,2.8l0,0H429H283.4c-3.5,0-6.5-1-8.9-2.7
		c-1.6-1.2-2.9-2.7-3.8-4.5l0,0c-0.8-1.7-1.3-3.6-1.3-5.7l0,0c0-3,1-6.2,3.3-9.3l31.9-43.3v-0.1l2.9-3.9l0.3-0.5l0,0l0.1-0.1
		l39.4-52.4c1.4-1.8,2.9-3.4,4.5-4.6c3.1-2.3,6.4-3.4,10-3.4c3.5,0,6.8,1.2,9.8,3.4c1.6,1.2,3.1,2.7,4.5,4.6l37.6,50l18.2-24.2
		c1.4-1.8,2.9-3.4,4.5-4.6c3-2.3,6.4-3.4,9.9-3.4s6.8,1.1,9.9,3.4c1.6,1.2,3.1,2.7,4.5,4.6L480.6,460.2L480.6,460.2z M496.6,512.1
		l-30.4-41.4l-1.3-1.7l-18.6-24.7v-0.1v0.1l-21,28l-4.3,5.8l-7.2,9.5l-7.2-9.5l-4.3-5.8l-40.4-53.8v-0.1v0.1l-38.2,50.8l-1.1,1.5
		l-30.4,41.3h137.2H496.6z"/>
	<path fill="#34495E" d="M494.1,349.3c11,0,20.9,4.5,28.2,11.7l0,0c7.2,7.2,11.7,17.2,11.7,28.2s-4.5,20.9-11.7,28.1l0,0
		c-7.2,7.2-17.2,11.7-28.2,11.7s-21-4.5-28.2-11.7c-7.2-7.2-11.7-17.2-11.7-28.2c0-11,4.5-20.9,11.7-28.2l0,0
		C473.2,353.8,483.1,349.3,494.1,349.3 M475,447.1L475,447.1l0.3,0.4l5.1,6.7h-0.1l30.3,41.1c2.2,3,3.1,5.9,3.1,8.7l0,0
		c0,2.2-0.5,4.2-1.5,6c-0.9,1.7-2.2,3.1-3.7,4.2c-2.5,1.8-5.7,2.8-8.9,2.8l0,0h-76H278c-3.5,0-6.5-1-8.9-2.7
		c-1.6-1.2-2.9-2.7-3.8-4.5l0,0c-0.8-1.7-1.3-3.6-1.3-5.7l0,0c0-3,1.1-6.2,3.3-9.3l31.9-43.3l0,0l2.9-3.9l0.3-0.5l0,0l0.1-0.1
		l39.4-52.4c1.4-1.9,2.9-3.4,4.5-4.6c3.1-2.3,6.4-3.5,10-3.4c3.5,0,6.8,1.2,9.8,3.4c1.6,1.2,3.1,2.7,4.5,4.6l37.6,50l18.2-24.2
		c1.4-1.8,2.9-3.4,4.5-4.6c3-2.3,6.4-3.4,9.9-3.4s6.8,1.1,9.9,3.4c1.6,1.2,3.1,2.7,4.5,4.6L475,447.1L475,447.1z"/>
	<path fill="#39D4FF" d="M494.1,359.6c7.9,0,15.4,3.1,20.9,8.7l0,0c5.6,5.6,8.7,13,8.7,20.9c0,7.9-3.1,15.4-8.7,20.9l0,0
		c-5.6,5.6-13,8.7-20.9,8.7c-7.9,0-15.4-3.1-20.9-8.7c-5.6-5.6-8.7-13-8.7-20.9c0-7.9,3.1-15.4,8.7-20.9l0,0
		C478.8,362.7,486.2,359.6,494.1,359.6"/>
	<path fill="#39D4FF" d="M408,461.7l26.4-35.1c0.7-0.9,1.5-1.8,2.5-2.6c1.1-0.8,2.3-1.4,3.7-1.4c1.4,0,2.6,0.6,3.7,1.4
		c0.9,0.7,1.8,1.6,2.5,2.5l20.2,26.9l35.2,47.9c0.4,0.5,0.8,1.2,1,1.9l0.1,0.3v0.8l-0.1,0.3c-0.1,0.5-0.5,1-0.9,1.3
		c-0.6,0.4-1.4,0.7-2.1,0.8h-0.1h-76.7H277.8c-0.9,0-2.1-0.2-2.8-0.7l-0.4-0.3l-0.6-1.1v-1v-0.2c0.2-0.9,0.7-1.7,1.2-2.4l34.8-47.4
		l39.7-52.7c0.7-0.9,1.5-1.8,2.5-2.6c1.1-0.8,2.3-1.4,3.7-1.4c1.4,0,2.6,0.6,3.7,1.4c0.9,0.7,1.8,1.6,2.5,2.5L408,461.7z"/>
	<path fill="#FFFFFF" d="M712,175.5l11.8,11.8l11.8-11.8c2.9-2.9,7.6-2.9,10.5,0l0,0c2.9,2.9,2.9,7.6,0,10.5l-11.8,11.8l11.8,11.8
		c2.9,2.9,2.9,7.6,0,10.5l0,0c-2.9,2.9-7.6,2.9-10.5,0l-11.8-11.8L712,220.2c-2.9,2.9-7.6,2.9-10.5,0c-2.9-2.9-2.9-7.6,0-10.5
		l11.8-11.8l-11.8-11.8c-2.9-2.9-2.9-7.6,0-10.5l0,0C704.4,172.7,709.2,172.7,712,175.5"/>
</g>
</svg>
