<?xml version="1.0" encoding="utf-8"?>
<!-- Generator: Adobe Illustrator 15.1.0, SVG Export Plug-In . SVG Version: 6.00 Build 0)  -->
<!DOCTYPE svg PUBLIC "-//W3C//DTD SVG 1.0//EN" "http://www.w3.org/TR/2001/REC-SVG-20010904/DTD/svg10.dtd">
<svg version="1.0" id="Layer_1" xmlns="http://www.w3.org/2000/svg" xmlns:xlink="http://www.w3.org/1999/xlink" x="0px" y="0px"
	 width="800px" height="800px" viewBox="0 0 800 800" enable-background="new 0 0 800 800" xml:space="preserve">
<g id="Header">
	<path fill="#BCC2C6" d="M33.1,34.5h736.2c8.5,0,16.1,3.5,21.7,9l0,0c5.6,5.6,9,13.2,9,21.7v654.6c0,8.4-3.5,16.1-9,21.7l0,0
		c-5.6,5.6-13.2,9-21.7,9H33.1c-8.5,0-16.1-3.5-21.7-9l0,0c-5.6-5.6-9-13.2-9-21.7V65.2c0-8.4,3.5-16.1,9-21.7l0,0
		C16.9,38,24.6,34.5,33.1,34.5"/>
	<path fill="#EBEFF0" d="M788.9,65.2v654.6c0,12.3-8.6,19.6-19.6,19.6H33.1c-11,0-19.6-7-19.6-19.6V65.2c0-12.8,8.6-19.6,19.6-19.6
		h736.2C780.2,45.6,788.9,52.7,788.9,65.2"/>
	<path fill="#94A4A5" d="M677.6,72.3c7.8,0,14.2,6.4,14.2,14.2s-6.3,14.2-14.2,14.2c-7.9,0-14.2-6.3-14.2-14.2
		C663.4,78.7,669.7,72.3,677.6,72.3 M722.1,72.3c7.8,0,14.2,6.4,14.2,14.2s-6.4,14.2-14.2,14.2c-7.8,0-14.2-6.3-14.2-14.2
		C707.9,78.7,714.3,72.3,722.1,72.3z M633,72.3c7.8,0,14.2,6.4,14.2,14.2s-6.3,14.2-14.2,14.2c-7.8,0-14.2-6.4-14.2-14.2
		S625.2,72.3,633,72.3z"/>
	<text transform="matrix(1 0 0 1 172.6675 83.2969)" fill="#93A2A3" font-family="'NexaBold'" font-size="44.0749">GALLERY</text>
</g>
<g id="Body">
	<path fill="#BCC2C6" d="M28.8,125.4h744.5c7.3,0,14,3,18.8,7.8c4.8,4.8,7.8,11.5,7.8,18.8v573c0,7.3-3,14-7.8,18.8
		c-4.8,4.8-11.5,7.8-18.8,7.8H28.8c-7.3,0-14-3-18.8-7.8S2.2,732.3,2.2,725V152.1c0-7.3,3-14,7.8-18.8
		C14.8,128.4,21.5,125.4,28.8,125.4"/>
	<path fill="#FFFFFF" d="M28.8,136.6c-4.1,0-8.1,1.7-11,4.6c-2.9,2.9-4.6,6.8-4.6,11V725c0,4.1,1.6,8,4.6,11c2.9,2.9,6.8,4.6,11,4.6
		h744.5c4.1,0,8-1.7,10.9-4.6c2.9-2.9,4.6-6.8,4.6-11V152.1c0-4.1-1.7-8-4.6-11c-2.9-2.9-6.8-4.6-10.9-4.6H28.8V136.6z"/>
	<rect x="82" y="206.4" fill="#34495E" width="638" height="305.7"/>
	<rect x="92.7" y="217.1" fill="#22A6EF" width="616.6" height="284.3"/>
	<path opacity="0.15" enable-background="new    " d="M517.4,312.9c-3.9-3.9-9.4-6.4-15.5-6.4c-6,0-11.5,2.4-15.5,6.4
		c-3.9,3.9-6.4,9.4-6.4,15.5c0,6,2.5,11.5,6.4,15.5c3.9,4,9.4,6.4,15.4,6.4s11.5-2.4,15.5-6.4c4-3.9,6.4-9.4,6.4-15.5
		C523.8,322.3,521.4,316.8,517.4,312.9 M501.9,288.5c11,0,20.9,4.5,28.2,11.7l0,0c7.2,7.2,11.7,17.2,11.7,28.2s-4.5,20.9-11.7,28.2
		l0,0c-7.2,7.2-17.2,11.7-28.2,11.7s-21-4.5-28.2-11.7c-7.2-7.2-11.7-17.2-11.7-28.2s4.5-20.9,11.7-28.2l0,0
		C481,293,490.9,288.5,501.9,288.5z M482.8,386.2L482.8,386.2l0.3,0.4l5.1,6.7l-0.1,0.1l30.3,41.1c2.2,2.9,3.1,5.9,3.1,8.7l0,0
		c0,2.2-0.5,4.2-1.5,6c-0.9,1.7-2.2,3.1-3.7,4.2c-2.5,1.8-5.7,2.8-8.9,2.8l0,0h-76H285.7c-3.5,0-6.6-1-8.9-2.7
		c-1.6-1.2-2.9-2.7-3.8-4.5l0,0c-0.9-1.7-1.3-3.6-1.3-5.7l0,0c0-3,1-6.2,3.3-9.3l31.9-43.3v-0.1l2.9-3.9l0.4-0.5l0,0l0.1-0.1
		l39.4-52.4c1.4-1.8,2.9-3.4,4.5-4.6c3.1-2.3,6.5-3.5,9.9-3.4c3.5,0,6.8,1.2,9.8,3.4c1.6,1.2,3.1,2.7,4.5,4.6l37.6,50l18.2-24.2
		c1.4-1.8,2.9-3.4,4.5-4.6c3-2.3,6.4-3.4,9.9-3.4s6.8,1.1,9.9,3.4c1.6,1.2,3.1,2.7,4.5,4.6L482.8,386.2L482.8,386.2z M498.8,438.2
		l-30.4-41.4l-1.3-1.7l-18.6-24.7l-0.1-0.1v0.1l-21,28l-4.3,5.8l-7.2,9.5l-7.2-9.5l-4.3-5.8L364,344.6l-0.1-0.1v0.1l-38.2,50.8
		l-1.1,1.5L294,438.2h137.2H498.8z"/>
	<path fill="#34495E" d="M496.3,275.4c11,0,20.9,4.5,28.2,11.7l0,0c7.2,7.2,11.7,17.2,11.7,28.2s-4.5,20.9-11.7,28.2l0,0
		c-7.2,7.2-17.2,11.7-28.2,11.7s-21-4.5-28.2-11.7c-7.2-7.2-11.7-17.2-11.7-28.2s4.5-20.9,11.7-28.2l0,0
		C475.4,279.9,485.3,275.4,496.3,275.4 M477.2,373.1L477.2,373.1l0.3,0.4l5.1,6.7l-0.1,0.1l30.3,41.1c2.2,2.9,3.1,5.9,3.1,8.7l0,0
		c0,2.2-0.5,4.2-1.5,6c-0.9,1.7-2.2,3.1-3.7,4.2c-2.5,1.8-5.7,2.8-8.9,2.8l0,0h-76.1H280.1c-3.5,0-6.6-1-8.9-2.7
		c-1.6-1.2-2.9-2.7-3.8-4.5l0,0c-0.8-1.7-1.3-3.6-1.3-5.7l0,0c0-3,1-6.2,3.3-9.3l31.9-43.3v-0.1l2.9-3.9l0.3-0.5l0,0l0.1-0.1
		l39.4-52.4c1.4-1.9,2.9-3.4,4.5-4.6c3.1-2.3,6.4-3.5,9.9-3.4c3.5,0,6.8,1.2,9.8,3.4c1.6,1.2,3.1,2.7,4.5,4.6l37.6,50l18.2-24.2
		c1.4-1.8,2.9-3.4,4.5-4.6c3-2.3,6.4-3.4,9.9-3.4s6.8,1.1,9.9,3.4c1.6,1.2,3.1,2.7,4.5,4.6L477.2,373.1L477.2,373.1z"/>
	<path fill="#39D4FF" d="M496.3,285.6c7.9,0,15.4,3.1,20.9,8.7l0,0c5.6,5.6,8.7,13,8.7,20.9c0,7.9-3.1,15.3-8.7,20.9l0,0
		c-5.6,5.6-13,8.7-20.9,8.7c-7.9,0-15.4-3.1-21-8.7c-5.6-5.6-8.7-13.1-8.7-21s3.1-15.4,8.7-20.9l0,0
		C481,288.7,488.4,285.6,496.3,285.6"/>
	<path fill="#39D4FF" d="M410.2,387.7l26.4-35.1c0.7-0.9,1.5-1.8,2.5-2.6c1.1-0.8,2.3-1.4,3.8-1.4c1.4,0,2.6,0.6,3.7,1.4
		c0.9,0.7,1.8,1.6,2.5,2.6l20.2,26.9l35.3,47.9c0.4,0.5,0.8,1.2,1,1.9l0.1,0.3v0.8l-0.1,0.3c-0.2,0.5-0.5,1-0.9,1.3
		c-0.6,0.4-1.4,0.7-2.1,0.8h-0.1h-76.7H280.2c-0.9,0-2.1-0.2-2.8-0.7l-0.4-0.3l-0.6-1.2v-1v-0.2c0.2-0.9,0.7-1.8,1.2-2.5l34.8-47.4
		l39.7-52.7c0.7-0.9,1.5-1.8,2.5-2.6c1.1-0.8,2.3-1.4,3.7-1.4c1.4,0,2.6,0.6,3.7,1.4c0.9,0.7,1.8,1.6,2.5,2.6L410.2,387.7z"/>
	<path fill="#34495E" d="M619.1,581.1h98.7v98.7h-98.7V581.1z M440.9,581.1h98.7v98.7h-98.7V581.1L440.9,581.1z M262.6,581.1h98.7
		v98.7h-98.7V581.1L262.6,581.1z M84.3,581.1H183v98.7H84.3V581.1z"/>
	<rect x="93.9" y="590.7" fill="#22A6EF" width="79.4" height="79.4"/>
	<rect x="272.2" y="590.7" fill="#22A6EF" width="79.4" height="79.4"/>
	<rect x="450.5" y="590.7" fill="#22A6EF" width="79.4" height="79.4"/>
	<rect x="628.8" y="590.7" fill="#22A6EF" width="79.4" height="79.4"/>
</g>
</svg>
