<?xml version="1.0" encoding="utf-8"?>
<!-- Generator: Adobe Illustrator 15.1.0, SVG Export Plug-In . SVG Version: 6.00 Build 0)  -->
<!DOCTYPE svg PUBLIC "-//W3C//DTD SVG 1.0//EN" "http://www.w3.org/TR/2001/REC-SVG-20010904/DTD/svg10.dtd">
<svg version="1.0" id="Layer_1" xmlns="http://www.w3.org/2000/svg" xmlns:xlink="http://www.w3.org/1999/xlink" x="0px" y="0px"
	 width="800px" height="800px" viewBox="0 0 800 800" enable-background="new 0 0 800 800" xml:space="preserve">
<g id="Header">
	<path fill="#BCC2C6" d="M33.1,34.5h736.2c8.5,0,16.1,3.5,21.7,9l0,0c5.6,5.6,9,13.2,9,21.7v654.6c0,8.4-3.5,16.1-9,21.7l0,0
		c-5.6,5.6-13.2,9-21.7,9H33.1c-8.5,0-16.1-3.5-21.7-9l0,0c-5.6-5.6-9-13.2-9-21.7V65.2c0-8.4,3.5-16.1,9-21.7l0,0
		C16.9,38,24.6,34.5,33.1,34.5"/>
	<path fill="#EBEFF0" d="M788.9,65.2v654.6c0,12.3-8.6,19.6-19.6,19.6H33.1c-11,0-19.6-7-19.6-19.6V65.2c0-12.8,8.6-19.6,19.6-19.6
		h736.2C780.2,45.6,788.9,52.7,788.9,65.2"/>
	<path fill="#94A4A5" d="M677.6,72.3c7.8,0,14.2,6.4,14.2,14.2s-6.3,14.2-14.2,14.2c-7.9,0-14.2-6.3-14.2-14.2
		C663.4,78.7,669.7,72.3,677.6,72.3 M722.1,72.3c7.8,0,14.2,6.4,14.2,14.2s-6.4,14.2-14.2,14.2c-7.8,0-14.2-6.3-14.2-14.2
		C707.9,78.7,714.3,72.3,722.1,72.3z M633,72.3c7.8,0,14.2,6.4,14.2,14.2s-6.3,14.2-14.2,14.2c-7.8,0-14.2-6.4-14.2-14.2
		S625.2,72.3,633,72.3z"/>
	<text transform="matrix(1 0 0 1 175.6675 84.2969)" fill="#93A2A3" font-family="'NexaBold'" font-size="44.0749">GALLERY</text>
</g>
<g id="Body">
	<path fill="#BCC2C6" d="M29.2,125.7h744.1c7.3,0,14,3,18.8,7.8c4.8,4.8,7.8,11.5,7.8,18.8V725c0,7.3-3,14-7.8,18.8
		c-4.8,4.8-11.5,7.8-18.8,7.8H29.2c-7.3,0-14-3-18.8-7.8C5.5,739,2.5,732.3,2.5,725V152.4c0-7.3,3-14,7.8-18.8
		C15.2,128.7,21.9,125.7,29.2,125.7"/>
	<path fill="#FFFFFF" d="M29.2,136.9c-4.1,0-8,1.6-10.9,4.5c-2.9,2.9-4.6,6.8-4.6,11V725c0,4.1,1.6,8,4.6,11
		c2.9,2.9,6.8,4.6,10.9,4.6h744.1c4.1,0,8-1.7,11-4.6c2.9-2.9,4.5-6.8,4.5-11V152.4c0-4.1-1.6-8-4.5-11c-2.9-2.9-6.8-4.5-11-4.5
		H29.2z"/>
	<rect x="101.4" y="191.4" fill="#34495E" width="265.1" height="226.1"/>
	<rect x="112.6" y="202.5" fill="#22A6EF" width="242.8" height="203.8"/>
	<path opacity="0.15" enable-background="new    " d="M299.1,275.5c-2.3-2.3-5.4-3.7-8.9-3.7s-6.6,1.4-8.9,3.7
		c-2.3,2.3-3.7,5.4-3.7,8.9c0,3.4,1.4,6.6,3.7,8.8c2.3,2.3,5.4,3.7,8.9,3.7s6.6-1.4,8.9-3.7c2.3-2.3,3.6-5.4,3.6-8.9
		C302.7,280.9,301.3,277.7,299.1,275.5 M290.2,261.5c6.3,0,12,2.6,16.1,6.7l0,0c4.1,4.1,6.7,9.8,6.7,16.2c0,6.3-2.6,12-6.7,16.1l0,0
		c-4.1,4.2-9.8,6.7-16.1,6.7c-6.3,0-12-2.6-16.2-6.7c-4.1-4.1-6.7-9.8-6.7-16.1c0-6.3,2.6-12,6.7-16.2l0,0
		C278.2,264,283.9,261.5,290.2,261.5z M279.2,317.5L279.2,317.5l0.2,0.2l2.9,3.9l0,0l17.3,23.6c1.2,1.7,1.8,3.4,1.8,5l0,0
		c0,1.3-0.3,2.4-0.9,3.4c-0.5,0.9-1.2,1.8-2.1,2.4c-1.4,1-3.3,1.6-5.1,1.6l0,0h-43.6h-83.5c-2,0-3.8-0.6-5.1-1.6
		c-0.9-0.7-1.7-1.6-2.2-2.6l0,0c-0.5-1-0.7-2.1-0.7-3.2l0,0c0-1.7,0.6-3.6,1.9-5.3l18.3-24.8l0,0l1.7-2.2l0.2-0.3l0,0l0,0l22.6-30
		c0.8-1,1.7-1.9,2.6-2.6c1.8-1.3,3.7-2,5.7-2s3.9,0.7,5.6,2c0.9,0.7,1.8,1.6,2.6,2.6l21.6,28.7l10.4-13.9c0.8-1.1,1.7-1.9,2.6-2.6
		c1.7-1.3,3.6-2,5.7-2c2,0,3.9,0.7,5.7,2c0.9,0.7,1.8,1.6,2.6,2.6L279.2,317.5L279.2,317.5z M288.4,347.3L271,323.6l-0.7-1
		l-10.7-14.2l0,0l0,0l-12.1,16l-2.5,3.3l-4.1,5.5l-4.1-5.5l-2.5-3.3l-23.2-30.8l0,0l0,0l-21.9,29.1l-0.6,0.9L171,347.3h78.6H288.4z"
		/>
	<path fill="#34495E" d="M287,251.3c6.3,0,12,2.6,16.2,6.7l0,0c4.1,4.1,6.7,9.8,6.7,16.1c0,6.3-2.6,12-6.7,16.1l0,0
		c-4.1,4.1-9.9,6.7-16.2,6.7s-12-2.6-16.2-6.7c-4.1-4.1-6.7-9.9-6.7-16.2s2.6-12,6.7-16.1l0,0C275,253.8,280.7,251.3,287,251.3
		 M276,307.3L276,307.3l0.2,0.2l2.9,3.9l0,0l17.3,23.6c1.2,1.7,1.8,3.4,1.8,5l0,0c0,1.3-0.3,2.4-0.9,3.4c-0.5,0.9-1.2,1.8-2.1,2.4
		c-1.4,1-3.3,1.6-5.1,1.6l0,0h-43.6H163c-2,0-3.8-0.6-5.1-1.6c-0.9-0.7-1.7-1.5-2.2-2.6l0,0c-0.5-1-0.7-2.1-0.7-3.3l0,0
		c0-1.7,0.6-3.6,1.9-5.3l18.3-24.8l0,0l1.7-2.2l0.2-0.3l0,0l0,0l22.6-30c0.8-1.1,1.7-1.9,2.6-2.6c1.8-1.3,3.7-2,5.7-2s3.9,0.7,5.6,2
		c0.9,0.7,1.8,1.6,2.6,2.6l21.6,28.7l10.2-14c0.8-1.1,1.7-1.9,2.6-2.6c1.7-1.3,3.6-2,5.7-2c2,0,3.9,0.6,5.7,2
		c0.9,0.7,1.8,1.6,2.6,2.6L276,307.3L276,307.3z"/>
	<path fill="#39D4FF" d="M287,259.6c-3.9,0-7.5,1.5-10.3,4.3l0,0c-2.7,2.7-4.2,6.4-4.2,10.2c0,3.9,1.5,7.5,4.2,10.3
		c2.7,2.7,6.4,4.2,10.3,4.2s7.5-1.5,10.3-4.3l0,0c2.7-2.7,4.2-6.4,4.2-10.2c0-3.9-1.5-7.5-4.2-10.2l-0.1-0.1
		C294.5,261.1,290.8,259.6,287,259.6 M163.9,339h82.5H289l-19.5-26.6L257.9,297c-0.3-0.3-0.6-0.7-0.9-1c-0.2-0.1-0.4-0.3-0.7-0.3
		c-0.2,0-0.5,0.2-0.7,0.3c-0.4,0.3-0.7,0.6-0.9,1l-17.1,22.7l-28.2-37.5c-0.3-0.4-0.6-0.7-0.9-1c-0.2-0.1-0.4-0.3-0.7-0.3
		c-0.2,0-0.5,0.2-0.6,0.3c-0.4,0.3-0.7,0.6-0.9,1l-22.7,30.2L163.9,339z"/>
	<rect x="436" y="191.4" fill="#34495E" width="265.1" height="226.1"/>
	<rect x="447.1" y="202.5" fill="#22A6EF" width="242.8" height="203.8"/>
	<path opacity="0.15" enable-background="new    " d="M633.6,275.5c-2.3-2.3-5.4-3.7-8.9-3.7s-6.6,1.4-8.9,3.7s-3.7,5.4-3.7,8.9
		c0,3.4,1.4,6.6,3.7,8.8c2.3,2.3,5.4,3.7,8.9,3.7s6.6-1.4,8.9-3.7c2.3-2.3,3.6-5.4,3.6-8.9C637.3,280.9,635.9,277.7,633.6,275.5
		 M624.8,261.5c6.3,0,12,2.6,16.1,6.7l0,0c4.1,4.1,6.7,9.8,6.7,16.2c0,6.3-2.6,12-6.7,16.1l0,0c-4.1,4.2-9.8,6.7-16.1,6.7
		s-12-2.6-16.2-6.7c-4.1-4.1-6.7-9.8-6.7-16.1c0-6.3,2.6-12,6.7-16.2l0,0C612.8,264,618.5,261.5,624.8,261.5z M613.8,317.5
		L613.8,317.5l0.2,0.2l2.9,3.9l0,0l17.3,23.6c1.2,1.7,1.8,3.4,1.8,5l0,0c0,1.3-0.3,2.4-0.9,3.4c-0.5,0.9-1.2,1.8-2.1,2.4
		c-1.4,1-3.3,1.6-5.1,1.6l0,0h-43.6h-83.5c-2,0-3.8-0.6-5.1-1.6c-0.9-0.7-1.7-1.6-2.2-2.6l0,0c-0.5-1-0.7-2.1-0.7-3.2l0,0
		c0-1.7,0.6-3.6,1.9-5.3l18.3-24.8l0,0l1.7-2.2l0.2-0.3l0,0l0,0l22.6-30c0.8-1,1.7-1.9,2.6-2.6c1.8-1.3,3.7-2,5.7-2s3.9,0.7,5.6,2
		c0.9,0.7,1.8,1.6,2.6,2.6l21.6,28.7l10.4-13.9c0.8-1.1,1.7-1.9,2.6-2.6c1.7-1.3,3.7-2,5.7-2s3.9,0.7,5.7,2c0.9,0.7,1.8,1.6,2.6,2.6
		L613.8,317.5L613.8,317.5z M622.9,347.3l-17.4-23.7l-0.7-1l-10.7-14.2l0,0l0,0l-12.1,16l-2.5,3.3l-4.1,5.5l-4.1-5.5l-2.5-3.3
		l-23.2-30.8l0,0l0,0l-21.9,29.1l-0.6,0.9l-17.4,23.7h78.6H622.9z"/>
	<path fill="#34495E" d="M621.5,251.3c6.3,0,12,2.6,16.2,6.7l0,0c4.1,4.1,6.7,9.8,6.7,16.1c0,6.3-2.6,12-6.7,16.1l0,0
		c-4.1,4.1-9.9,6.7-16.2,6.7s-12-2.6-16.2-6.7c-4.1-4.1-6.7-9.9-6.7-16.2s2.6-12,6.7-16.1l0,0C609.5,253.8,615.3,251.3,621.5,251.3
		 M610.6,307.3L610.6,307.3l0.2,0.2l2.9,3.9l0,0L631,335c1.2,1.7,1.8,3.4,1.8,5l0,0c0,1.3-0.3,2.4-0.9,3.4c-0.5,0.9-1.2,1.8-2.1,2.4
		c-1.4,1-3.3,1.6-5.1,1.6l0,0H581h-83.5c-2,0-3.8-0.6-5.1-1.6c-0.9-0.7-1.7-1.5-2.2-2.6l0,0c-0.5-1-0.7-2.1-0.7-3.3l0,0
		c0-1.7,0.6-3.6,1.9-5.3l18.3-24.8l0,0l1.7-2.2l0.2-0.3l0,0l0,0l22.6-30c0.8-1.1,1.7-1.9,2.6-2.6c1.8-1.3,3.7-2,5.7-2s3.9,0.7,5.6,2
		c0.9,0.7,1.8,1.6,2.6,2.6l21.6,28.7l10.4-13.9c0.8-1.1,1.7-1.9,2.6-2.6c1.7-1.3,3.6-2,5.7-2c2,0,3.9,0.6,5.7,2
		c0.9,0.7,1.8,1.6,2.6,2.6L610.6,307.3L610.6,307.3z"/>
	<path fill="#39D4FF" d="M621.5,259.6c-3.9,0-7.5,1.5-10.3,4.3l0,0c-2.7,2.7-4.2,6.4-4.2,10.2c0,3.9,1.5,7.5,4.2,10.3
		c2.7,2.7,6.4,4.2,10.3,4.2s7.5-1.5,10.3-4.3l0,0c2.7-2.7,4.2-6.4,4.2-10.2c0-3.9-1.5-7.5-4.2-10.2l-0.1-0.1
		C629.1,261.1,625.4,259.6,621.5,259.6 M498.5,339H581h42.6l-19.5-26.6L592.5,297c-0.3-0.3-0.6-0.7-0.9-1c-0.2-0.1-0.4-0.3-0.6-0.3
		c-0.3,0-0.5,0.2-0.7,0.3c-0.4,0.3-0.7,0.6-0.9,1l-17.1,22.7L544,282.2c-0.3-0.4-0.6-0.7-0.9-1c-0.2-0.1-0.4-0.3-0.7-0.3
		c-0.3,0-0.5,0.2-0.6,0.3c-0.4,0.3-0.7,0.6-0.9,1l-22.7,30.2L498.5,339z"/>
	<rect x="101.4" y="459.9" fill="#34495E" width="265.1" height="226.1"/>
	<rect x="112.6" y="471" fill="#22A6EF" width="242.8" height="203.8"/>
	<path opacity="0.15" enable-background="new    " d="M299.1,544c-2.3-2.3-5.4-3.7-8.9-3.7s-6.6,1.4-8.9,3.7
		c-2.3,2.3-3.7,5.4-3.7,8.9s1.4,6.6,3.7,8.9c2.3,2.3,5.4,3.7,8.9,3.7s6.6-1.4,8.9-3.7c2.3-2.3,3.6-5.4,3.6-8.9
		S301.3,546.2,299.1,544 M290.2,530c6.3,0,12,2.5,16.1,6.7l0,0c4.1,4.1,6.7,9.8,6.7,16.1s-2.6,12-6.7,16.1l0,0
		c-4.1,4.1-9.8,6.7-16.1,6.7c-6.3,0-12-2.6-16.2-6.7c-4.1-4.1-6.7-9.9-6.7-16.2s2.6-12,6.7-16.1l0,0
		C278.2,532.5,283.9,530,290.2,530z M279.2,586L279.2,586l0.2,0.2l2.9,3.9l0,0l17.3,23.6c1.2,1.7,1.8,3.4,1.8,5l0,0
		c0,1.3-0.3,2.4-0.9,3.4c-0.5,0.9-1.2,1.7-2.1,2.4c-1.4,1.1-3.3,1.6-5.1,1.6l0,0h-43.6h-83.5c-2,0-3.8-0.6-5.1-1.6
		c-0.9-0.7-1.7-1.5-2.2-2.6l0,0c-0.5-1-0.7-2.1-0.7-3.3l0,0c0-1.7,0.6-3.6,1.9-5.3l18.3-24.8l0,0l1.7-2.2l0.2-0.3l0,0l0,0l22.6-30
		c0.8-1.1,1.7-2,2.6-2.6c1.8-1.3,3.7-2,5.7-2s3.9,0.7,5.6,2c0.9,0.7,1.8,1.6,2.6,2.6l21.6,28.6l10.4-13.9c0.8-1,1.7-1.9,2.6-2.6
		c1.7-1.3,3.6-2,5.7-2c2,0,3.9,0.6,5.7,2c0.9,0.7,1.8,1.6,2.6,2.6L279.2,586L279.2,586z M288.4,615.8L271,592.1l-0.7-1l-10.7-14.2
		l0,0l0,0l-12.1,16l-2.5,3.3l-4.1,5.5l-4.1-5.5l-2.5-3.3l-23.2-30.8l0,0l0,0l-21.9,29.1l-0.6,0.9L171,615.8h78.6H288.4z"/>
	<path fill="#34495E" d="M287,519.8c6.3,0,12,2.6,16.2,6.7l0,0c4.1,4.1,6.7,9.8,6.7,16.1c0,6.3-2.6,12-6.7,16.1l0,0
		c-4.1,4.1-9.9,6.7-16.2,6.7s-12-2.6-16.2-6.7c-4.1-4.1-6.7-9.8-6.7-16.2c0-6.3,2.6-12,6.7-16.1l0,0
		C275,522.3,280.7,519.8,287,519.8 M276,575.8L276,575.8l0.2,0.2l2.9,3.9l0,0l17.3,23.6c1.2,1.7,1.8,3.4,1.8,5l0,0
		c0,1.3-0.3,2.4-0.9,3.4c-0.5,1-1.2,1.8-2.1,2.4c-1.4,1.1-3.3,1.6-5.1,1.6l0,0h-43.6H163c-2,0-3.8-0.6-5.1-1.5
		c-0.9-0.7-1.7-1.6-2.2-2.6l0,0c-0.5-1-0.7-2.1-0.7-3.3l0,0c0-1.7,0.6-3.6,1.9-5.3l18.3-24.9l0,0l1.7-2.2l0.2-0.3l0,0l22.6-30
		c0.8-1.1,1.7-1.9,2.6-2.6c1.8-1.3,3.7-2,5.7-2s3.9,0.7,5.6,2c0.9,0.7,1.8,1.6,2.6,2.6l21.6,28.7l10.4-13.9c0.8-1.1,1.7-1.9,2.6-2.6
		c1.7-1.3,3.6-2,5.7-2c2,0,3.9,0.7,5.7,2c0.9,0.7,1.8,1.5,2.6,2.6L276,575.8L276,575.8z"/>
	<path fill="#39D4FF" d="M287,528.1c-3.9,0-7.5,1.5-10.3,4.3l0,0c-2.7,2.7-4.2,6.4-4.2,10.2c0,3.9,1.5,7.5,4.2,10.3
		c2.7,2.7,6.4,4.3,10.3,4.3s7.5-1.5,10.3-4.3l0,0c2.7-2.7,4.2-6.4,4.2-10.2c0-3.9-1.5-7.5-4.2-10.2l-0.1-0.1
		C294.5,529.6,290.8,528.1,287,528.1 M163.9,607.5h82.5H289L269.5,581l-11.6-15.4c-0.3-0.4-0.6-0.7-0.9-1c-0.2-0.1-0.4-0.3-0.7-0.3
		c-0.2,0-0.5,0.2-0.7,0.3c-0.4,0.3-0.7,0.6-0.9,1l-17.1,22.7l-28.2-37.5c-0.3-0.3-0.6-0.7-0.9-1c-0.2-0.1-0.4-0.3-0.7-0.3
		c-0.2,0-0.5,0.2-0.6,0.3c-0.4,0.3-0.7,0.6-0.9,1L183.6,581L163.9,607.5z"/>
	<rect x="436" y="459.9" fill="#34495E" width="265.1" height="226.1"/>
	<rect x="447.1" y="471" fill="#22A6EF" width="242.8" height="203.8"/>
	<path opacity="0.15" enable-background="new    " d="M633.6,544c-2.3-2.3-5.4-3.7-8.9-3.7s-6.6,1.4-8.9,3.7s-3.7,5.4-3.7,8.9
		s1.4,6.6,3.7,8.9s5.4,3.7,8.9,3.7s6.6-1.4,8.9-3.7c2.3-2.3,3.6-5.4,3.6-8.9C637.3,549.4,635.9,546.2,633.6,544 M624.8,530
		c6.3,0,12,2.5,16.1,6.7l0,0c4.1,4.1,6.7,9.8,6.7,16.1s-2.6,12-6.7,16.1l0,0c-4.1,4.1-9.8,6.7-16.1,6.7s-12-2.6-16.2-6.7
		c-4.1-4.1-6.7-9.9-6.7-16.2s2.6-12,6.7-16.1l0,0C612.8,532.5,618.5,530,624.8,530z M613.8,586L613.8,586l0.2,0.2l2.9,3.9l0,0
		l17.3,23.6c1.2,1.7,1.8,3.4,1.8,5l0,0c0,1.3-0.3,2.4-0.9,3.4c-0.5,0.9-1.2,1.7-2.1,2.4c-1.4,1.1-3.3,1.6-5.1,1.6l0,0h-43.6h-83.5
		c-2,0-3.8-0.6-5.1-1.6c-0.9-0.7-1.7-1.5-2.2-2.6l0,0c-0.5-1-0.7-2.1-0.7-3.3l0,0c0-1.7,0.6-3.6,1.9-5.3l18.3-24.8l0,0l1.7-2.2
		l0.2-0.3l0,0l0,0l22.6-30c0.8-1.1,1.7-2,2.6-2.6c1.8-1.3,3.7-2,5.7-2s3.9,0.7,5.6,2c0.9,0.7,1.8,1.6,2.6,2.6l21.6,28.6l10.4-13.9
		c0.8-1,1.7-1.9,2.6-2.6c1.7-1.3,3.7-2,5.7-2s3.9,0.6,5.7,2c0.9,0.7,1.8,1.6,2.6,2.6L613.8,586L613.8,586z M622.9,615.8l-17.4-23.7
		l-0.7-1l-10.7-14.2l0,0l0,0l-12.1,16l-2.5,3.3l-4.1,5.5l-4.1-5.5l-2.5-3.3l-23.2-30.8l0,0l0,0l-21.9,29.1l-0.6,0.9l-17.4,23.7h78.6
		H622.9z"/>
	<path fill="#34495E" d="M621.5,519.8c6.3,0,12,2.6,16.2,6.7l0,0c4.1,4.1,6.7,9.8,6.7,16.1c0,6.3-2.6,12-6.7,16.1l0,0
		c-4.1,4.1-9.9,6.7-16.2,6.7s-12-2.6-16.2-6.7c-4.1-4.1-6.7-9.8-6.7-16.2c0-6.3,2.6-12,6.7-16.1l0,0
		C609.5,522.3,615.3,519.8,621.5,519.8 M610.6,575.8L610.6,575.8l0.2,0.2l2.9,3.9l0,0l17.4,23.6c1.2,1.7,1.8,3.4,1.8,5l0,0
		c0,1.3-0.3,2.4-0.9,3.4c-0.5,1-1.2,1.8-2.1,2.4c-1.4,1.1-3.3,1.6-5.1,1.6l0,0h-43.6h-83.5c-2,0-3.8-0.6-5.1-1.5
		c-0.9-0.7-1.7-1.6-2.2-2.6l0,0c-0.5-1-0.7-2.1-0.7-3.3l0,0c0-1.7,0.6-3.6,1.9-5.3l18.3-24.9l0,0l1.7-2.2l0.2-0.3l0,0l22.6-30
		c0.8-1.1,1.7-1.9,2.6-2.6c1.8-1.3,3.7-2,5.7-2s3.9,0.7,5.6,2c0.9,0.7,1.8,1.6,2.6,2.6l21.6,28.7l10.4-13.9c0.8-1.1,1.7-1.9,2.6-2.6
		c1.7-1.3,3.6-2,5.7-2c2,0,3.9,0.7,5.7,2c0.9,0.7,1.8,1.5,2.6,2.6L610.6,575.8L610.6,575.8z"/>
	<path fill="#39D4FF" d="M621.5,528.1c-3.9,0-7.5,1.5-10.3,4.3l0,0c-2.7,2.7-4.2,6.4-4.2,10.2c0,3.9,1.5,7.5,4.2,10.3
		c2.7,2.7,6.4,4.3,10.3,4.3s7.5-1.5,10.3-4.3l0,0c2.7-2.7,4.2-6.4,4.2-10.2c0-3.9-1.5-7.5-4.2-10.2l-0.1-0.1
		C629.1,529.6,625.4,528.1,621.5,528.1 M498.5,607.5H581h42.6L604.1,581l-11.6-15.4c-0.3-0.4-0.6-0.7-0.9-1
		c-0.2-0.1-0.4-0.3-0.6-0.3c-0.3,0-0.5,0.2-0.7,0.3c-0.4,0.3-0.7,0.6-0.9,1l-17.1,22.7L544,550.8c-0.3-0.3-0.6-0.7-0.9-1
		c-0.2-0.1-0.4-0.3-0.7-0.3c-0.3,0-0.5,0.2-0.6,0.3c-0.4,0.3-0.7,0.6-0.9,1L518.2,581L498.5,607.5z"/>
</g>
</svg>
