<?xml version="1.0" encoding="utf-8"?>
<!-- Generator: Adobe Illustrator 15.1.0, SVG Export Plug-In . SVG Version: 6.00 Build 0)  -->
<!DOCTYPE svg PUBLIC "-//W3C//DTD SVG 1.0//EN" "http://www.w3.org/TR/2001/REC-SVG-20010904/DTD/svg10.dtd">
<svg version="1.0" id="Layer_1" xmlns="http://www.w3.org/2000/svg" xmlns:xlink="http://www.w3.org/1999/xlink" x="0px" y="0px"
	 width="800px" height="800px" viewBox="0 0 800 800" enable-background="new 0 0 800 800" xml:space="preserve">
<g id="Header">
	<path fill="#BCC2C6" d="M33.1,34.5h736.2c8.5,0,16.1,3.5,21.7,9l0,0c5.6,5.6,9,13.2,9,21.7v654.6c0,8.4-3.5,16.1-9,21.7l0,0
		c-5.6,5.6-13.2,9-21.7,9H33.1c-8.5,0-16.1-3.5-21.7-9l0,0c-5.6-5.6-9-13.2-9-21.7V65.2c0-8.4,3.5-16.1,9-21.7l0,0
		C16.9,38,24.6,34.5,33.1,34.5"/>
	<path fill="#EBEFF0" d="M788.9,65.2v654.6c0,12.3-8.6,19.6-19.6,19.6H33.1c-11,0-19.6-7-19.6-19.6V65.2c0-12.8,8.6-19.6,19.6-19.6
		h736.2C780.2,45.6,788.9,52.7,788.9,65.2"/>
	<path fill="#94A4A5" d="M677.6,72.3c7.8,0,14.2,6.4,14.2,14.2s-6.3,14.2-14.2,14.2c-7.9,0-14.2-6.3-14.2-14.2
		C663.4,78.7,669.7,72.3,677.6,72.3 M722.1,72.3c7.8,0,14.2,6.4,14.2,14.2s-6.4,14.2-14.2,14.2c-7.8,0-14.2-6.3-14.2-14.2
		C707.9,78.7,714.3,72.3,722.1,72.3z M633,72.3c7.8,0,14.2,6.4,14.2,14.2s-6.3,14.2-14.2,14.2c-7.8,0-14.2-6.4-14.2-14.2
		S625.2,72.3,633,72.3z"/>
	<text transform="matrix(1 0 0 1 182.6675 86.2969)" fill="#93A2A3" font-family="'NexaBold'" font-size="44.0749">GALLERY</text>
</g>
<g id="Body">
	<path fill="#BCC2C6" d="M29.3,125.6h744c7.3,0,14,3,18.8,7.8c4.8,4.8,7.8,11.5,7.8,18.8v572.6c0,7.3-3,14-7.8,18.8
		c-4.8,4.8-11.5,7.8-18.8,7.8h-744c-7.3,0-14-3-18.8-7.8c-4.8-4.8-7.8-11.5-7.8-18.8V152.2c0-7.3,3-14,7.8-18.8
		C15.3,128.6,22,125.6,29.3,125.6"/>
	<path fill="#FFFFFF" d="M29.3,136.7c-4.1,0-8,1.6-11,4.5c-2.9,2.9-4.6,6.8-4.6,11v572.6c0,4.1,1.6,8,4.6,11c2.9,2.9,6.8,4.6,11,4.6
		h744c4.1,0,8-1.7,11-4.6c2.9-2.9,4.6-6.8,4.6-11V152.2c0-4.1-1.6-8-4.6-11c-2.9-2.9-6.8-4.5-11-4.5H29.3z"/>
	<rect x="78.9" y="245.7" fill="#BCC2C6" width="644.9" height="241.9"/>
	<rect x="90" y="256.8" fill="#EBEFF0" width="622.7" height="219.6"/>
	<rect x="182" y="214.6" fill="#34495E" width="438.6" height="304"/>
	<rect x="192" y="224.6" fill="#22A6EF" width="418.7" height="284.1"/>
	<path opacity="0.15" enable-background="new    " d="M514.8,320.3c-3.9-3.9-9.4-6.4-15.5-6.4c-6,0-11.5,2.4-15.5,6.4
		c-3.9,3.9-6.4,9.4-6.4,15.5c0,6.1,2.4,11.5,6.4,15.5c3.9,3.9,9.4,6.4,15.4,6.4s11.5-2.4,15.5-6.4c3.9-4,6.4-9.4,6.4-15.5
		C521.1,329.7,518.7,324.2,514.8,320.3 M499.3,295.9c11,0,20.9,4.5,28.1,11.7l0,0c7.2,7.2,11.7,17.2,11.7,28.1
		c0,10.9-4.5,20.9-11.7,28.1l0,0c-7.2,7.2-17.2,11.7-28.1,11.7c-11,0-21-4.5-28.2-11.7c-7.2-7.2-11.7-17.2-11.7-28.2
		s4.5-20.9,11.7-28.1l0,0C478.4,300.4,488.3,295.9,499.3,295.9z M480.2,393.6L480.2,393.6l0.3,0.4l5.1,6.7h-0.1l30.2,41.1
		c2.2,2.9,3.1,5.9,3.1,8.7l0,0c0,2.2-0.5,4.2-1.5,6c-0.9,1.6-2.2,3-3.7,4.1c-2.5,1.8-5.7,2.8-8.9,2.8l0,0h-76H283.2
		c-3.5,0-6.5-1-8.9-2.7c-1.6-1.2-2.9-2.7-3.8-4.5l0,0c-0.8-1.7-1.3-3.6-1.3-5.7l0,0c0-3,1-6.2,3.3-9.3l31.8-43.3v-0.1l2.9-3.9
		l0.3-0.5l0,0l0.1-0.1L347,341c1.4-1.8,2.9-3.4,4.5-4.6c3.1-2.3,6.4-3.4,9.9-3.4s6.8,1.2,9.8,3.4c1.6,1.2,3.1,2.7,4.5,4.6l37.6,50
		l18.2-24.2c1.4-1.8,2.9-3.4,4.5-4.6c3-2.3,6.4-3.4,9.9-3.4s6.8,1.1,9.9,3.4c1.6,1.2,3.1,2.7,4.5,4.6L480.2,393.6L480.2,393.6z
		 M496.2,445.5l-30.4-41.3l-1.3-1.8l-18.6-24.7l0,0l0,0l-21,27.9l-4.3,5.8l-7.2,9.5l-7.2-9.5l-4.3-5.8l-40.4-53.7l0,0l0,0
		l-38.2,50.7l-1.1,1.5l-30.4,41.3h137.1L496.2,445.5z"/>
	<path fill="#34495E" d="M493.7,282.8c11,0,20.9,4.5,28.1,11.7l0,0c7.2,7.2,11.7,17.1,11.7,28.1s-4.5,20.9-11.7,28.1l0,0
		c-7.2,7.2-17.2,11.7-28.1,11.7c-11,0-21-4.5-28.2-11.7c-7.2-7.2-11.7-17.2-11.7-28.2s4.5-20.9,11.7-28.1l0,0
		C472.8,287.3,482.7,282.8,493.7,282.8 M474.6,380.5L474.6,380.5l0.3,0.4l5.1,6.7l-0.1,0.1l30.2,41.1c2.2,2.9,3.1,5.9,3.1,8.7l0,0
		c0,2.2-0.5,4.2-1.5,6c-0.9,1.7-2.2,3.1-3.7,4.2c-2.5,1.8-5.7,2.8-8.9,2.8l0,0h-76H277.6c-3.5,0-6.5-1-8.9-2.7
		c-1.6-1.2-2.9-2.7-3.8-4.5l0,0c-0.8-1.7-1.3-3.6-1.3-5.7l0,0c0-3,1-6.2,3.3-9.3l31.8-43.3l0,0l2.9-3.9l0.3-0.5l0,0l0.1-0.1
		l39.4-52.3c1.4-1.8,2.9-3.4,4.5-4.6c3.1-2.3,6.4-3.4,9.9-3.4s6.8,1.2,9.8,3.4c1.6,1.2,3.1,2.7,4.5,4.6l37.6,50l18.2-24.2
		c1.4-1.8,2.9-3.4,4.5-4.6c3-2.3,6.4-3.4,9.9-3.4s6.8,1.1,9.9,3.4c1.6,1.2,3.1,2.7,4.5,4.6L474.6,380.5L474.6,380.5z"/>
	<path fill="#39D4FF" d="M493.7,293c7.9,0,15.3,3.1,20.9,8.7l0,0c5.6,5.6,8.7,13,8.7,20.9s-3.1,15.3-8.7,20.9l0,0
		c-5.6,5.6-13,8.7-20.9,8.7c-7.9,0-15.4-3.1-20.9-8.7c-5.6-5.6-8.7-13.1-8.7-21s3.1-15.3,8.7-20.9l0,0
		C478.4,296.1,485.8,293,493.7,293"/>
	<path fill="#39D4FF" d="M407.7,395.1l26.4-35c0.7-0.9,1.5-1.8,2.5-2.6c1.1-0.8,2.3-1.4,3.7-1.4c1.4,0,2.6,0.5,3.7,1.4
		c0.9,0.7,1.8,1.6,2.5,2.6l20.2,26.9l35.2,47.9c0.4,0.6,0.8,1.2,1,1.9l0.1,0.3v0.8l-0.1,0.3c-0.2,0.5-0.5,1-0.9,1.3
		c-0.6,0.4-1.4,0.7-2.1,0.8h-0.1h-76.6H277.7c-0.9,0-2.1-0.2-2.8-0.7l-0.4-0.3l-0.6-1.1v-1V437c0.2-0.9,0.7-1.8,1.2-2.5l34.8-47.3
		l39.6-52.7c0.7-0.9,1.5-1.8,2.5-2.6c1.1-0.8,2.3-1.4,3.7-1.4c1.4,0,2.6,0.5,3.7,1.4c0.9,0.7,1.8,1.6,2.5,2.5L407.7,395.1z"/>
	<path fill="#BCC2C6" d="M172.3,632.8h458.1c4.1,0,7.4,3.3,7.4,7.4l0,0c0,4.1-3.3,7.4-7.4,7.4H172.3c-4.1,0-7.4-3.3-7.4-7.4l0,0
		C164.8,636.1,168.2,632.8,172.3,632.8"/>
	<path fill="#BCC2C6" d="M290.5,670.2h221.6c4.1,0,7.4,3.3,7.4,7.5l0,0c0,4.1-3.3,7.4-7.4,7.4H290.5c-4.1,0-7.4-3.3-7.4-7.4l0,0
		C283.1,673.6,286.4,670.2,290.5,670.2"/>
	<rect x="300.3" y="554" fill="#BCC2C6" width="32.5" height="32.5"/>
	<rect x="356.8" y="554" fill="#BCC2C6" width="32.5" height="32.5"/>
	<rect x="413.3" y="554" fill="#BCC2C6" width="32.5" height="32.5"/>
	<rect x="469.9" y="554" fill="#BCC2C6" width="32.5" height="32.5"/>
</g>
</svg>
