<?xml version="1.0" encoding="utf-8"?>
<!-- Generator: Adobe Illustrator 15.1.0, SVG Export Plug-In . SVG Version: 6.00 Build 0)  -->
<!DOCTYPE svg PUBLIC "-//W3C//DTD SVG 1.0//EN" "http://www.w3.org/TR/2001/REC-SVG-20010904/DTD/svg10.dtd">
<svg version="1.0" id="Layer_1" xmlns="http://www.w3.org/2000/svg" xmlns:xlink="http://www.w3.org/1999/xlink" x="0px" y="0px"
	 width="800px" height="800px" viewBox="198.9459991455078 203.88400268554688 420.7239990234375 377.6579895019531" enable-background="new 0 0 800 800" xml:space="preserve">
<g>
	<!-- <path fill="#BCC2C6" d="M215.148,203.884h388.318c4.458,0,8.514,1.816,11.446,4.748v0.025c2.933,2.932,4.756,6.98,4.756,11.42
		v345.271c0,4.439-1.823,8.488-4.756,11.42v0.018c-2.933,2.932-6.988,4.756-11.446,4.756H215.148c-4.466,0-8.514-1.824-11.446-4.756
		v-0.018c-2.932-2.932-4.756-6.98-4.756-11.42V220.077c0-4.44,1.824-8.488,4.756-11.42v-0.025
		C206.635,205.7,210.683,203.884,215.148,203.884"/>
	<path fill="#EBEFF0" d="M613.788,220.077v345.271c0,6.497-4.531,10.32-10.321,10.32H215.148c-5.781,0-10.322-3.715-10.322-10.32
		V220.077c0-6.73,4.557-10.313,10.322-10.313h388.318C609.248,209.765,613.788,213.463,613.788,220.077"/> -->
	<path fill="#34495E" d="M213.007,251.314h392.602c3.873,0,7.389,1.583,9.93,4.132c2.549,2.54,4.131,6.055,4.131,9.929V567.48
		c0,3.874-1.582,7.39-4.131,9.938c-2.541,2.54-6.057,4.123-9.93,4.123H213.007c-3.865,0-7.389-1.583-9.929-4.123
		c-2.549-2.549-4.132-6.064-4.132-9.938V265.375c0-3.874,1.583-7.389,4.132-9.929C205.618,252.896,209.142,251.314,213.007,251.314"
		/>
	<path fill-rule="evenodd" clip-rule="evenodd" fill="#FFFFFF" d="M213.007,257.195c-2.174,0-4.239,0.867-5.78,2.399
		c-1.533,1.541-2.408,3.607-2.408,5.781V567.48c0,2.174,0.875,4.24,2.408,5.781c1.541,1.541,3.606,2.407,5.78,2.407h392.602
		c2.175,0,4.24-0.866,5.772-2.407c1.541-1.541,2.407-3.598,2.407-5.781V265.375c0-2.182-0.866-4.24-2.407-5.781
		c-1.532-1.532-3.607-2.399-5.772-2.399H213.007z"/>
	<path fill="#34495E" d="M539.902,275.487h38.367c2.24,0,4.065,1.833,4.065,4.064v0.009c0,2.232-1.825,4.065-4.065,4.065h-38.367
		c-2.24,0-4.065-1.833-4.065-4.065v-0.009C535.837,277.32,537.662,275.487,539.902,275.487"/>
	<path fill="#34495E" d="M473.364,275.487h51.569c2.241,0,4.064,1.833,4.064,4.064v0.009c0,2.232-1.823,4.065-4.064,4.065h-51.569
		c-2.24,0-4.073-1.833-4.073-4.065v-0.009C469.291,277.32,471.124,275.487,473.364,275.487"/>
	<path fill="#34495E" d="M419.762,275.487h38.367c2.24,0,4.073,1.833,4.073,4.064v0.009c0,2.232-1.833,4.065-4.073,4.065h-38.367
		c-2.232,0-4.065-1.833-4.065-4.065v-0.009C415.696,277.32,417.529,275.487,419.762,275.487"/>
	<path fill="#34495E" d="M240.338,275.487h51.577c2.233,0,4.065,1.833,4.065,4.064v0.009c0,2.232-1.832,4.065-4.065,4.065h-51.577
		c-2.233,0-4.065-1.833-4.065-4.065v-0.009C236.272,277.32,238.104,275.487,240.338,275.487"/>
	<!-- <path fill-rule="evenodd" clip-rule="evenodd" fill="#94A4A5" d="M555.08,223.833c4.131,0,7.488,3.357,7.488,7.489
		s-3.35,7.48-7.488,7.48c-4.132,0-7.48-3.349-7.48-7.48S550.948,223.833,555.08,223.833 M578.587,223.833
		c4.131,0,7.479,3.357,7.479,7.489s-3.349,7.48-7.479,7.48c-4.132,0-7.489-3.349-7.489-7.48S574.455,223.833,578.587,223.833z
		 M531.581,223.833c4.132,0,7.479,3.357,7.479,7.489s-3.348,7.48-7.479,7.48s-7.488-3.349-7.488-7.48
		S527.449,223.833,531.581,223.833z"/> -->
	<polygon fill="#34495E" points="305.227,326.974 513.389,326.974 518.137,326.974 518.137,331.722 518.137,459.693
		518.137,464.449 513.389,464.449 305.227,464.449 300.479,464.449 300.479,459.693 300.479,331.722 300.479,326.974 	"/>
	<rect x="306.417" y="332.913" fill="#22A6EF" width="205.78" height="125.588"/>
	<path opacity="0.15" d="M470.656,371.264c-2.09-2.083-4.973-3.366-8.163-3.366c-3.189,0-6.072,1.283-8.154,3.366
		c-2.083,2.083-3.365,4.964-3.365,8.155s1.291,6.072,3.373,8.155c2.083,2.083,4.965,3.374,8.146,3.374
		c3.19,0,6.073-1.283,8.163-3.365c2.074-2.083,3.365-4.973,3.365-8.163S472.73,373.346,470.656,371.264 M462.493,358.394
		c5.79,0,11.046,2.357,14.853,6.164l0.017,0.017c3.808,3.807,6.155,9.054,6.155,14.844c0,5.797-2.348,11.045-6.155,14.852
		l-0.017,0.017c-3.807,3.807-9.063,6.165-14.853,6.165c-5.806,0-11.062-2.357-14.868-6.165c-3.799-3.798-6.156-9.063-6.156-14.869
		c0-5.79,2.357-11.037,6.156-14.844l0.025-0.017C451.448,360.751,456.704,358.394,462.493,358.394z M452.423,409.938l0.009-0.008
		l0.142,0.2l2.665,3.54l-0.042,0.033l15.96,21.683c1.141,1.557,1.624,3.123,1.624,4.599h-0.016c0,1.165-0.284,2.224-0.801,3.147
		c-0.474,0.875-1.141,1.608-1.933,2.191c-1.314,0.966-3.006,1.5-4.705,1.5v-0.018l-40.108,0.008l-76.793-0.008
		c-1.85,0-3.456-0.533-4.69-1.441c-0.857-0.624-1.531-1.432-2.007-2.373h-0.017c-0.449-0.9-0.684-1.908-0.684-2.991h-0.016
		c0-1.582,0.549-3.273,1.74-4.89l16.803-22.848l-0.018-0.025l1.532-2.041l0.191-0.259v0.009l0.034-0.051l20.773-27.612
		c0.734-0.975,1.533-1.783,2.383-2.416c1.624-1.224,3.398-1.824,5.24-1.815c1.84,0.008,3.59,0.624,5.181,1.815
		c0.85,0.642,1.657,1.45,2.383,2.416l19.833,26.372l9.596-12.762c0.725-0.966,1.524-1.774,2.374-2.415
		c1.6-1.191,3.365-1.808,5.206-1.808c1.832-0.008,3.607,0.591,5.223,1.808c0.851,0.633,1.648,1.44,2.383,2.415l10.521,14.002
		L452.423,409.938z M460.827,437.344l-16.043-21.807l-0.675-0.916l-9.813-13.045l-0.017-0.033l-0.024,0.033l-11.096,14.735
		l-2.291,3.048l-3.781,5.031l-3.782-5.031l-2.29-3.048l-21.333-28.347l-0.017-0.033l-0.025,0.033l-20.142,26.771l-0.599,0.809
		l-16.035,21.799l72.353,0.018L460.827,437.344z"/>
	<path fill="#34495E" d="M459.536,351.489c5.79,0,11.046,2.357,14.853,6.164l0.017,0.008c3.807,3.807,6.156,9.063,6.156,14.853
		c0,5.797-2.35,11.045-6.156,14.852l-0.017,0.017c-3.807,3.798-9.063,6.155-14.853,6.155c-5.805,0-11.062-2.357-14.868-6.155
		c-3.798-3.807-6.155-9.063-6.155-14.869c0-5.79,2.357-11.046,6.155-14.853l0.024-0.008
		C448.491,353.846,453.747,351.489,459.536,351.489 M449.465,403.025h0.01l0.142,0.199l2.665,3.54l-0.041,0.025l15.959,21.691
		c1.142,1.549,1.625,3.114,1.625,4.598h-0.018c0,1.158-0.291,2.216-0.791,3.14c-0.482,0.876-1.149,1.616-1.94,2.2
		c-1.316,0.966-3.007,1.499-4.707,1.499v-0.017l-40.107,0.009l-76.794-0.009c-1.848-0.008-3.456-0.533-4.688-1.441
		c-0.858-0.633-1.533-1.433-2.008-2.383h-0.017c-0.45-0.891-0.683-1.898-0.683-2.99h-0.017c0-1.582,0.55-3.273,1.732-4.88
		l16.809-22.85l-0.016-0.033l1.533-2.041l0.191-0.25l0,0l0.033-0.041l20.774-27.613c0.733-0.975,1.532-1.783,2.382-2.424
		c1.625-1.216,3.399-1.816,5.24-1.808c1.84,0.008,3.59,0.625,5.181,1.816c0.857,0.641,1.657,1.449,2.382,2.416l19.834,26.372
		l9.596-12.761c0.725-0.966,1.524-1.775,2.374-2.416c1.6-1.199,3.365-1.808,5.206-1.816c1.832,0,3.606,0.6,5.223,1.816
		c0.851,0.633,1.649,1.441,2.383,2.416l10.521,13.994L449.465,403.025z"/>
	<path fill-rule="evenodd" clip-rule="evenodd" fill="#39D4FF" d="M459.536,356.886c4.157,0,8.097,1.641,11.038,4.573l0.017,0.025
		c2.94,2.932,4.581,6.872,4.581,11.029s-1.641,8.097-4.581,11.037l-0.017,0.017c-2.941,2.941-6.881,4.582-11.038,4.582
		c-4.164,0-8.104-1.641-11.053-4.582c-2.94-2.94-4.573-6.889-4.573-11.053c0-4.157,1.633-8.097,4.573-11.029l0.016-0.025
		C451.439,358.519,455.38,356.886,459.536,356.886"/>
	<path fill-rule="evenodd" clip-rule="evenodd" fill="#39D4FF" d="M414.131,410.723l13.901-18.493
		c0.384-0.5,0.816-0.975,1.316-1.342c0.584-0.449,1.226-0.732,1.975-0.732c0.741,0,1.382,0.292,1.966,0.732
		c0.5,0.367,0.941,0.842,1.308,1.342l10.671,14.186l18.584,25.264c0.208,0.284,0.426,0.641,0.516,0.991l0.043,0.134v0.434
		l-0.033,0.133c-0.084,0.291-0.259,0.524-0.5,0.699c-0.316,0.233-0.717,0.366-1.101,0.416l-0.074,0.018l-40.441,0.017l-76.794-0.017
		c-0.498,0-1.09-0.092-1.49-0.392l-0.216-0.149l-0.292-0.609v-0.541l0.024-0.116c0.101-0.45,0.375-0.925,0.642-1.292l18.376-24.98
		l20.915-27.805c0.376-0.5,0.809-0.975,1.309-1.35c0.592-0.441,1.225-0.733,1.975-0.725c0.741,0,1.383,0.292,1.975,0.733
		c0.5,0.375,0.933,0.842,1.307,1.35L414.131,410.723z"/>
	<path fill="#D7D7D7" d="M440.303,523.957h-58.792c-2.257,0-4.314,0.926-5.806,2.425c-1.491,1.491-2.424,3.548-2.424,5.806
		c0,2.266,0.925,4.323,2.407,5.806l0.017,0.018c1.483,1.481,3.54,2.407,5.806,2.407h58.792c2.258,0,4.314-0.934,5.806-2.425
		s2.417-3.548,2.417-5.806c0-2.266-0.918-4.323-2.408-5.814C444.627,524.883,442.568,523.957,440.303,523.957 M381.511,515.903
		h58.792c4.474,0,8.538,1.832,11.487,4.78l0.017,0.018c2.948,2.948,4.781,7.013,4.781,11.486c0,4.481-1.833,8.555-4.781,11.503
		c-2.949,2.949-7.022,4.782-11.504,4.782h-58.792c-4.464,0-8.529-1.833-11.486-4.782l-0.009-0.008l-0.008-0.008
		c-2.949-2.957-4.781-7.022-4.781-11.487c0-4.481,1.832-8.555,4.781-11.504C372.956,517.735,377.029,515.903,381.511,515.903z"/>
	<path fill="#34495E" d="M378.313,509.247h58.791c4.474,0,8.539,1.832,11.487,4.781l0.017,0.018
		c2.949,2.948,4.781,7.014,4.781,11.485c0,4.482-1.832,8.556-4.781,11.504c-2.949,2.949-7.021,4.782-11.504,4.782h-58.791
		c-4.465,0-8.53-1.833-11.487-4.782l-0.008-0.008l-0.009-0.009c-2.949-2.956-4.773-7.021-4.773-11.487
		c0-4.481,1.824-8.555,4.773-11.503C369.758,511.079,373.831,509.247,378.313,509.247"/>
	<path fill="#27CABF" d="M437.104,514.096c3.042,0,5.94,1.198,8.089,3.349c2.149,2.148,3.349,5.047,3.349,8.087
		c0,3.041-1.216,5.932-3.356,8.081c-2.149,2.141-5.039,3.356-8.081,3.356h-58.791c-3.032,0-5.931-1.199-8.072-3.34l-0.017-0.017
		c-2.149-2.149-3.348-5.049-3.348-8.081c0-3.04,1.216-5.931,3.364-8.079c2.142-2.149,5.031-3.356,8.072-3.356H437.104z"/>
	<path fill="#51F4E9" d="M437.104,514.096c3.042,0,5.94,1.198,8.089,3.349c2.149,2.148,3.349,5.047,3.349,8.087
		c0,0.784-0.074,1.55-0.233,2.3c-0.449-2.174-1.524-4.182-3.115-5.781c-2.148-2.148-5.047-3.349-8.089-3.349h-58.791
		c-3.041,0-5.931,1.208-8.072,3.357c-1.599,1.6-2.682,3.606-3.132,5.78c-0.149-0.749-0.232-1.523-0.232-2.308
		c0-3.04,1.216-5.931,3.364-8.079c2.142-2.149,5.031-3.356,8.072-3.356H437.104z"/>
	<path fill-rule="evenodd" clip-rule="evenodd" fill="#BCC2C6" d="M355.738,483.608h107.139c2.157,0,3.931,1.766,3.931,3.931l0,0
		c0,2.158-1.773,3.924-3.931,3.924H355.738c-2.156,0-3.923-1.766-3.923-3.924l0,0C351.815,485.374,353.582,483.608,355.738,483.608"
		/>
	<path opacity="0.5" fill-rule="evenodd" clip-rule="evenodd" fill="#34495E" d="M213.007,257.195c-2.174,0-4.239,0.867-5.78,2.399
		c-1.533,1.541-2.408,3.607-2.408,5.781V567.48c0,2.174,0.875,4.24,2.408,5.781c1.541,1.541,3.606,2.407,5.78,2.407h392.602
		c2.175,0,4.24-0.866,5.772-2.407c1.541-1.541,2.407-3.598,2.407-5.781V265.375c0-2.182-0.866-4.24-2.407-5.781
		c-1.532-1.532-3.607-2.399-5.772-2.399H213.007z"/>
	<path fill-rule="evenodd" clip-rule="evenodd" fill="#FFFFFF" d="M572.98,277.12l6.223,6.214l6.214-6.214
		c1.524-1.533,4.023-1.533,5.556,0l0,0c1.524,1.524,1.524,4.023,0,5.548l-6.213,6.223l6.213,6.214c1.524,1.524,1.524,4.023,0,5.556
		l0,0c-1.532,1.533-4.031,1.533-5.556,0l-6.214-6.214l-6.223,6.214c-1.523,1.533-4.023,1.533-5.548,0l0,0
		c-1.532-1.532-1.532-4.032,0-5.556l6.214-6.214l-6.222-6.223c-1.524-1.524-1.524-4.023,0-5.548h0.008
		C568.957,275.587,571.457,275.587,572.98,277.12"/>
	<path fill="#34495E" d="M288.25,314.604h242.115c2.39,0,4.556,0.975,6.123,2.549c1.574,1.566,2.548,3.74,2.548,6.122v186.313
		c0,2.382-0.974,4.548-2.548,6.122c-1.567,1.574-3.733,2.541-6.123,2.541H288.25c-2.382,0-4.556-0.967-6.122-2.541
		c-1.575-1.574-2.549-3.74-2.549-6.122V323.275c0-2.382,0.974-4.556,2.549-6.122C283.694,315.579,285.868,314.604,288.25,314.604"/>
	<path fill-rule="evenodd" clip-rule="evenodd" fill="#FFFFFF" d="M288.25,320.485c-0.749,0-1.441,0.292-1.974,0.816
		c-0.525,0.533-0.816,1.232-0.816,1.974v186.313c0,0.741,0.291,1.44,0.816,1.966c0.532,0.524,1.225,0.824,1.974,0.824h242.115
		c0.741,0,1.44-0.292,1.966-0.824c0.533-0.525,0.824-1.225,0.824-1.966V323.275c0-0.742-0.291-1.441-0.824-1.974
		c-0.525-0.525-1.225-0.816-1.966-0.816H288.25z"/>
	<rect x="325.852" y="422.476" fill-rule="evenodd" clip-rule="evenodd" fill="#FFFFFF" width="166.904" height="13.444"/>
	<path fill="#BCC2C6" d="M493.456,455.395h-58.792c-2.258,0-4.314,0.925-5.807,2.416c-1.49,1.491-2.416,3.549-2.416,5.806
		c0,2.274,0.916,4.332,2.399,5.807l0.017,0.017c1.482,1.482,3.541,2.407,5.807,2.407h58.792c2.257,0,4.314-0.925,5.806-2.424
		c1.491-1.491,2.423-3.549,2.423-5.807c0-2.266-0.924-4.323-2.415-5.814C497.778,456.319,495.722,455.395,493.456,455.395
		 M434.664,447.332h58.792c4.472,0,8.537,1.832,11.486,4.78l0.017,0.018c2.949,2.948,4.781,7.021,4.781,11.486
		c0,4.481-1.832,8.555-4.781,11.503c-2.949,2.949-7.021,4.782-11.503,4.782h-58.792c-4.466,0-8.529-1.833-11.487-4.782l-0.009-0.008
		l-0.008-0.008c-2.948-2.957-4.773-7.022-4.773-11.487c0-4.481,1.825-8.554,4.773-11.504
		C426.109,449.164,430.183,447.332,434.664,447.332z"/>
	<path fill="#34495E" d="M431.474,440.685h58.783c4.474,0,8.538,1.833,11.487,4.772l0.017,0.018c2.948,2.956,4.78,7.021,4.78,11.495
		c0,4.481-1.832,8.554-4.78,11.494c-2.949,2.95-7.015,4.782-11.504,4.782h-58.783c-4.465,0-8.538-1.832-11.487-4.782l-0.008-0.008
		h-0.009c-2.948-2.957-4.781-7.03-4.781-11.486c0-4.491,1.833-8.555,4.781-11.513C422.918,442.518,426.983,440.685,431.474,440.685"
		/>
	<path fill="#27CABF" d="M490.257,445.524c3.04,0,5.939,1.208,8.089,3.356c2.148,2.148,3.348,5.048,3.348,8.089
		c0,3.032-1.207,5.922-3.355,8.071c-2.15,2.148-5.041,3.365-8.081,3.365h-58.783c-3.041,0-5.932-1.199-8.08-3.349l-0.017-0.017
		c-2.149-2.141-3.341-5.039-3.341-8.071c0-3.041,1.208-5.94,3.357-8.089c2.148-2.141,5.039-3.356,8.08-3.356H490.257z"/>
	<path fill="#51F4E9" d="M490.257,445.524c3.04,0,5.939,1.208,8.089,3.356c2.148,2.148,3.348,5.048,3.348,8.089
		c0,0.774-0.074,1.541-0.232,2.29c-0.441-2.166-1.517-4.182-3.115-5.772c-2.149-2.149-5.049-3.356-8.089-3.356h-58.783
		c-3.041,0-5.932,1.215-8.08,3.365c-1.599,1.591-2.674,3.598-3.124,5.781c-0.158-0.759-0.233-1.533-0.233-2.308
		c0-3.041,1.208-5.94,3.357-8.089c2.148-2.141,5.039-3.356,8.08-3.356H490.257z"/>
	<path fill-rule="evenodd" clip-rule="evenodd" fill="#BCC2C6" d="M315.006,394.246h188.604c2.732,0,4.973,2.249,4.973,4.973v15.251
		c0,2.724-2.248,4.974-4.973,4.974H315.006c-2.724,0-4.974-2.24-4.974-4.974v-15.251
		C310.032,396.486,312.273,394.246,315.006,394.246"/>
	<rect x="315.914" y="400.118" fill-rule="evenodd" clip-rule="evenodd" fill="#FFFFFF" width="186.788" height="13.444"/>
	<path fill-rule="evenodd" clip-rule="evenodd" fill="#BCC2C6" d="M342.52,352.963h129.203c2.291,0,4.157,1.866,4.157,4.156l0,0
		c0,2.292-1.866,4.165-4.157,4.165H342.52c-2.291,0-4.156-1.874-4.156-4.165l0,0C338.363,354.829,340.229,352.963,342.52,352.963"/>
	<path fill-rule="evenodd" clip-rule="evenodd" fill="#BCC2C6" d="M314.197,464.55h81.457c2.283,0,4.157,1.865,4.157,4.156l0,0
		c0,2.29-1.874,4.165-4.157,4.165h-81.457c-2.291,0-4.165-1.875-4.165-4.165l0,0C310.032,466.415,311.906,464.55,314.197,464.55"/>
	<path fill-rule="evenodd" clip-rule="evenodd" fill="#BCC2C6" d="M314.197,443.732h51.171c2.29,0,4.165,1.875,4.165,4.157v0.008
		c0,2.291-1.875,4.157-4.165,4.157h-51.171c-2.291,0-4.165-1.866-4.165-4.157v-0.008
		C310.032,445.607,311.906,443.732,314.197,443.732"/>
	<!-- <path fill-rule="evenodd" clip-rule="evenodd" fill="#94A4A5" d="M493.889,227.507h2.457c2.6,0,3.69,1.866,3.74,3.732
		c0.05,1.958-1.023,3.94-3.74,3.94h-2.457V227.507z M496.346,225.375c-1.466,0-3.224,0-4.689,0v11.97c1.466,0,3.224,0,4.689,0
		c4.182,0,6.031-3.057,5.98-6.089C502.269,228.298,500.444,225.375,496.346,225.375z M485.168,227.474
		c1.424,0,2.057,0.966,2.057,1.924c0,0.958-0.617,1.924-2.057,1.924h-3.433v-3.848H485.168z M490.073,237.195l-3.623-4.082
		c2.273-0.458,3.024-2.116,3.024-3.765c0-2.074-1.483-3.957-4.307-3.974c-1.892,0.017-3.782,0-5.682,0v11.97h2.249v-3.99h2.174
		l3.482,3.99h2.682V237.195z M470.865,227.199c2.823,0,3.948,2.258,3.915,4.273c-0.034,1.965-1.092,4.082-3.915,4.082
		c-2.815,0-3.873-2.099-3.924-4.065C466.892,229.473,468.05,227.199,470.865,227.199z M470.865,225.158
		c-4.131,0-6.139,3.157-6.139,6.298c0,3.14,1.94,6.164,6.139,6.164c4.207,0,6.105-3.09,6.139-6.181
		C477.037,228.315,474.98,225.158,470.865,225.158z M463.061,225.375h-2.532l-2.733,8.639l-2.99-8.639h-1.466l-2.898,8.639
		l-2.823-8.639h-2.524l4.39,11.97h1.916l1.449-3.724l1.25-3.815l1.258,3.782l1.49,3.757h1.908L463.061,225.375z M442.918,227.357
		c-0.907-1.841-2.84-2.374-4.697-2.374c-2.199,0.017-4.632,1.024-4.632,3.482c0,2.682,2.258,3.332,4.698,3.624
		c1.591,0.167,2.766,0.633,2.766,1.757c0,1.3-1.324,1.791-2.749,1.791c-1.449,0-2.831-0.575-3.365-1.891l-1.874,0.975
		c0.891,2.182,2.766,2.932,5.206,2.932c2.665,0,5.022-1.141,5.022-3.807c0-2.849-2.323-3.498-4.814-3.807
		c-1.433-0.175-2.665-0.466-2.665-1.507c0-0.883,0.8-1.583,2.474-1.583c1.299,0,2.424,0.649,2.84,1.333L442.918,227.357z
		 M430.815,227.357c-0.899-1.841-2.833-2.374-4.698-2.374c-2.199,0.017-4.623,1.024-4.623,3.482c0,2.682,2.258,3.332,4.698,3.624
		c1.583,0.167,2.766,0.633,2.766,1.757c0,1.3-1.333,1.791-2.749,1.791c-1.458,0-2.841-0.575-3.365-1.891l-1.875,0.975
		c0.884,2.182,2.766,2.932,5.207,2.932c2.657,0,5.015-1.141,5.015-3.807c0-2.849-2.324-3.498-4.814-3.807
		c-1.434-0.175-2.657-0.466-2.657-1.507c0-0.883,0.8-1.583,2.474-1.583c1.291,0,2.424,0.649,2.832,1.333L430.815,227.357z
		 M415.631,232.988h-4.441l2.217-5.098L415.631,232.988z M417.537,237.345h2.458l-5.356-11.97h-2.458l-5.363,11.97h2.44l1.025-2.249
		h6.254L417.537,237.345z M401.328,225.375c-1.875-0.016-3.757,0-5.64,0v11.97h2.258v-3.515h3.382
		C407.184,233.83,407.167,225.375,401.328,225.375z M397.946,227.524h3.382c2.865,0,2.882,4.24,0,4.24h-3.382V227.524z
		 M384.018,237.345h2.258v-9.92h3.79v-2.05c-3.466,0-6.389,0-9.837,0v2.05h3.789V237.345z M373.031,227.199
		c2.815,0,3.939,2.258,3.906,4.273c-0.033,1.965-1.091,4.082-3.906,4.082s-3.873-2.099-3.924-4.065
		C369.058,229.473,370.216,227.199,373.031,227.199z M373.031,225.158c-4.131,0-6.147,3.157-6.147,6.298
		c0,3.14,1.949,6.164,6.147,6.164s6.098-3.09,6.131-6.181C379.195,228.315,377.146,225.158,373.031,225.158z M364.435,226.883
		c-1.232-1.216-2.832-1.833-4.439-1.833c-4.224,0-6.322,3.107-6.322,6.472c0,3.14,1.832,6.097,6.322,6.097
		c2.099,0,3.581-0.799,4.765-2.149v-5.04h-5.123v2.017h3.058v2.116c-0.941,0.75-1.758,0.958-2.699,0.958
		c-2.974,0-4.115-2.032-4.115-3.998c0-2.458,1.55-4.407,4.115-4.407c1.041,0,2.231,0.425,3.04,1.2L364.435,226.883z
		 M347.518,227.474c1.415,0,2.049,0.966,2.049,1.924c0,0.958-0.607,1.924-2.049,1.924h-3.433v-3.848H347.518z M352.423,237.195
		l-3.623-4.082c2.273-0.458,3.023-2.116,3.023-3.765c0-2.074-1.482-3.957-4.306-3.974c-1.892,0.017-3.791,0-5.682,0v11.97h2.249
		v-3.99h2.175l3.481,3.99h2.682V237.195z M333.215,227.199c2.823,0,3.948,2.258,3.914,4.273c-0.032,1.965-1.091,4.082-3.914,4.082
		c-2.815,0-3.873-2.099-3.924-4.065C329.241,229.473,330.399,227.199,333.215,227.199z M333.215,225.158
		c-4.132,0-6.148,3.157-6.148,6.298c0,3.14,1.95,6.164,6.148,6.164c4.206,0,6.098-3.09,6.13-6.181
		C339.379,228.315,337.338,225.158,333.215,225.158z M318.546,237.345v-4.423h5.989v-2.083h-5.989v-3.256h6.331v-2.174h-8.589
		v11.937H318.546z"/> -->
</g>
</svg>
