<?xml version="1.0" encoding="utf-8"?>
<!-- Generator: Adobe Illustrator 15.1.0, SVG Export Plug-In . SVG Version: 6.00 Build 0)  -->
<!DOCTYPE svg PUBLIC "-//W3C//DTD SVG 1.0//EN" "http://www.w3.org/TR/2001/REC-SVG-20010904/DTD/svg10.dtd">
<svg version="1.0" id="Layer_1" xmlns="http://www.w3.org/2000/svg" xmlns:xlink="http://www.w3.org/1999/xlink" x="0px" y="0px"
	 width="800px" height="800px" viewBox="200.40899658203125 203.88400268554688 420.7139892578125 377.6579895019531" enable-background="new 0 0 800 800" xml:space="preserve">
<g>
	<!-- <path fill="#BCC2C6" d="M216.602,203.884h388.32c4.465,0,8.513,1.816,11.445,4.748v0.025c2.933,2.932,4.756,6.98,4.756,11.42
		v345.271c0,4.439-1.823,8.488-4.756,11.42v0.018c-2.933,2.932-6.98,4.756-11.445,4.756h-388.32c-4.464,0-8.514-1.824-11.444-4.756
		v-0.018c-2.933-2.932-4.748-6.98-4.748-11.42V220.077c0-4.44,1.815-8.488,4.748-11.42v-0.025
		C208.088,205.7,212.138,203.884,216.602,203.884"/>
	<path fill="#EBEFF0" d="M615.242,220.077v345.271c0,6.497-4.523,10.32-10.32,10.32h-388.32c-5.78,0-10.32-3.715-10.32-10.32
		V220.077c0-6.73,4.557-10.313,10.32-10.313h388.32C610.703,209.765,615.242,213.463,615.242,220.077"/> -->
	<path fill="#BCC2C6" d="M214.47,251.314h392.585c3.881,0,7.396,1.583,9.945,4.132c2.541,2.54,4.123,6.055,4.123,9.929V567.48
		c0,3.874-1.582,7.39-4.123,9.938c-2.549,2.54-6.064,4.123-9.945,4.123H214.47c-3.882,0-7.397-1.583-9.938-4.123
		c-2.549-2.549-4.123-6.064-4.123-9.938V265.375c0-3.874,1.574-7.389,4.123-9.929C207.072,252.896,210.588,251.314,214.47,251.314"
		/>
	<path fill-rule="evenodd" clip-rule="evenodd" fill="#FFFFFF" d="M214.47,257.195c-2.183,0-4.249,0.867-5.781,2.399
		c-1.54,1.541-2.416,3.607-2.416,5.781V567.48c0,2.174,0.876,4.24,2.416,5.781c1.532,1.541,3.599,2.407,5.781,2.407h392.585
		c2.183,0,4.248-0.866,5.78-2.407c1.541-1.541,2.407-3.598,2.407-5.781V265.375c0-2.182-0.866-4.24-2.407-5.781
		c-1.532-1.532-3.598-2.399-5.78-2.399H214.47z"/>
	<!-- <path fill-rule="evenodd" clip-rule="evenodd" fill="#94A4A5" d="M556.542,223.833c4.132,0,7.481,3.357,7.481,7.489
		s-3.35,7.48-7.481,7.48s-7.488-3.349-7.488-7.48S552.41,223.833,556.542,223.833 M580.041,223.833c4.123,0,7.487,3.357,7.487,7.489
		s-3.364,7.48-7.487,7.48c-4.14,0-7.488-3.349-7.488-7.48S575.909,223.833,580.041,223.833z M533.035,223.833
		c4.133,0,7.48,3.357,7.48,7.489s-3.348,7.48-7.48,7.48c-4.132,0-7.479-3.349-7.479-7.48S528.903,223.833,533.035,223.833z"/> -->
	<path fill="#BCC2C6" d="M516.642,443.274H457.85c-2.256,0-4.314,0.926-5.806,2.425c-1.49,1.491-2.423,3.548-2.423,5.806
		c0,2.266,0.924,4.322,2.407,5.806l0.016,0.018c1.483,1.481,3.54,2.397,5.806,2.397h58.792c2.258,0,4.315-0.924,5.807-2.415
		s2.424-3.548,2.424-5.806c0-2.266-0.933-4.323-2.415-5.813C520.966,444.2,518.908,443.274,516.642,443.274 M457.85,435.22h58.792
		c4.466,0,8.539,1.833,11.487,4.781l0.017,0.017c2.948,2.948,4.773,7.014,4.773,11.487c0,4.481-1.825,8.555-4.773,11.504
		c-2.948,2.948-7.021,4.78-11.504,4.78H457.85c-4.464,0-8.529-1.832-11.485-4.78L446.355,463l-0.008-0.008
		c-2.95-2.958-4.782-7.022-4.782-11.487c0-4.481,1.832-8.555,4.782-11.504C449.296,437.053,453.369,435.22,457.85,435.22z"/>
	<path fill="#34495E" d="M454.652,428.564h58.792c4.473,0,8.537,1.833,11.486,4.781l0.017,0.017
		c2.949,2.949,4.772,7.021,4.772,11.487l0,0c0,4.481-1.823,8.555-4.772,11.503c-2.948,2.949-7.021,4.782-11.503,4.782h-58.792
		c-4.466,0-8.529-1.833-11.479-4.782l-0.018-0.008v-0.008c-2.948-2.958-4.781-7.022-4.781-11.487l0,0
		c0-4.481,1.833-8.556,4.781-11.504C446.105,430.397,450.171,428.564,454.652,428.564"/>
	<path fill="#27CABF" d="M513.444,433.413c3.031,0,5.938,1.207,8.087,3.348c2.142,2.149,3.349,5.057,3.349,8.089
		c0,3.04-1.207,5.931-3.356,8.079c-2.148,2.149-5.039,3.358-8.079,3.358h-58.792c-3.032,0-5.932-1.192-8.08-3.341l-0.018-0.018
		c-2.141-2.141-3.332-5.047-3.332-8.079c0-3.041,1.2-5.932,3.35-8.08c2.148-2.142,5.048-3.356,8.08-3.356H513.444z"/>
	<path fill="#51F4E9" d="M513.444,433.413c3.031,0,5.938,1.207,8.087,3.348c2.142,2.149,3.349,5.057,3.349,8.089
		c0,0.782-0.074,1.549-0.232,2.299c-0.45-2.174-1.524-4.183-3.116-5.781c-2.148-2.141-5.056-3.349-8.087-3.349h-58.792
		c-3.032,0-5.932,1.217-8.08,3.356c-1.592,1.601-2.665,3.607-3.115,5.781c-0.159-0.75-0.234-1.524-0.234-2.307
		c0-3.041,1.2-5.932,3.35-8.08c2.148-2.142,5.048-3.356,8.08-3.356H513.444z"/>
	<path fill-rule="evenodd" clip-rule="evenodd" fill="#BCC2C6" d="M297.951,382.134h225.621c2.733,0,4.974,2.241,4.974,4.972v15.252
		c0,2.725-2.24,4.974-4.974,4.974H297.951c-2.732,0-4.973-2.241-4.973-4.974v-15.252
		C292.979,384.366,295.219,382.134,297.951,382.134"/>
	<rect x="298.851" y="388.006" fill-rule="evenodd" clip-rule="evenodd" fill="#FFFFFF" width="223.823" height="13.445"/>
	<path fill-rule="evenodd" clip-rule="evenodd" fill="#BCC2C6" d="M346.164,340.843h129.195c2.3,0,4.165,1.874,4.165,4.165l0,0
		c0,2.291-1.865,4.165-4.165,4.165H346.164c-2.291,0-4.165-1.874-4.165-4.165l0,0C341.999,342.717,343.873,340.843,346.164,340.843"
		/>
	<path fill-rule="evenodd" clip-rule="evenodd" fill="#BCC2C6" d="M297.135,452.429h103.623c2.291,0,4.165,1.875,4.165,4.165l0,0
		c0,2.291-1.874,4.157-4.165,4.157H297.135c-2.282,0-4.156-1.866-4.156-4.157l0,0C292.979,454.304,294.853,452.429,297.135,452.429"
		/>
	<path fill-rule="evenodd" clip-rule="evenodd" fill="#BCC2C6" d="M297.135,431.621h65.873c2.281,0,4.155,1.874,4.155,4.157v0.008
		c0,2.282-1.874,4.157-4.155,4.157h-65.873c-2.282,0-4.156-1.875-4.156-4.157v-0.008
		C292.979,433.495,294.853,431.621,297.135,431.621"/>
	<!-- <path fill-rule="evenodd" clip-rule="evenodd" fill="#94A4A5" d="M495.343,227.507h2.458c2.599,0,3.689,1.866,3.748,3.732
		c0.05,1.958-1.033,3.94-3.748,3.94h-2.458V227.507z M497.801,225.375c-1.467,0-3.225,0-4.698,0v11.97c1.474,0,3.231,0,4.698,0
		c4.182,0,6.031-3.057,5.98-6.089C503.73,228.298,501.898,225.375,497.801,225.375z M486.63,227.474
		c1.416,0,2.041,0.966,2.041,1.924c0,0.958-0.608,1.924-2.041,1.924h-3.44v-3.848H486.63z M491.528,237.195l-3.624-4.082
		c2.274-0.458,3.024-2.116,3.024-3.765c0-2.074-1.483-3.957-4.299-3.974c-1.899,0.017-3.79,0-5.689,0v11.97h2.249v-3.99h2.175
		l3.481,3.99h2.683V237.195z M472.328,227.199c2.814,0,3.939,2.258,3.906,4.273c-0.033,1.965-1.092,4.082-3.906,4.082
		c-2.815,0-3.883-2.099-3.933-4.065C468.346,229.473,469.513,227.199,472.328,227.199z M472.328,225.158
		c-4.132,0-6.148,3.157-6.148,6.298c0,3.14,1.949,6.164,6.148,6.164c4.198,0,6.098-3.09,6.131-6.181
		C478.491,228.315,476.442,225.158,472.328,225.158z M464.515,225.375h-2.532l-2.733,8.639l-2.981-8.639h-1.466l-2.907,8.639
		l-2.823-8.639h-2.517l4.382,11.97h1.916l1.449-3.724l1.25-3.815l1.267,3.782l1.481,3.757h1.917L464.515,225.375z M444.373,227.357
		c-0.908-1.841-2.833-2.374-4.698-2.374c-2.199,0.017-4.631,1.024-4.631,3.482c0,2.682,2.257,3.332,4.697,3.624
		c1.592,0.167,2.766,0.633,2.766,1.757c0,1.3-1.333,1.791-2.749,1.791c-1.449,0-2.832-0.575-3.364-1.891l-1.875,0.975
		c0.892,2.182,2.765,2.932,5.206,2.932c2.665,0,5.022-1.141,5.022-3.807c0-2.849-2.323-3.498-4.814-3.807
		c-1.44-0.175-2.665-0.466-2.665-1.507c0-0.883,0.808-1.583,2.474-1.583c1.299,0,2.433,0.649,2.832,1.333L444.373,227.357z
		 M432.278,227.357c-0.916-1.841-2.841-2.374-4.698-2.374c-2.199,0.017-4.632,1.024-4.632,3.482c0,2.682,2.258,3.332,4.698,3.624
		c1.583,0.167,2.766,0.633,2.766,1.757c0,1.3-1.333,1.791-2.749,1.791c-1.449,0-2.831-0.575-3.365-1.891l-1.883,0.975
		c0.892,2.182,2.773,2.932,5.215,2.932c2.665,0,5.015-1.141,5.015-3.807c0-2.849-2.315-3.498-4.814-3.807
		c-1.434-0.175-2.666-0.466-2.666-1.507c0-0.883,0.809-1.583,2.482-1.583c1.299,0,2.424,0.649,2.832,1.333L432.278,227.357z
		 M417.084,232.988h-4.439l2.225-5.098L417.084,232.988z M419,237.345h2.457l-5.363-11.97h-2.458l-5.364,11.97h2.44l1.024-2.249
		h6.247L419,237.345z M402.782,225.375c-1.875-0.016-3.757,0-5.64,0v11.97h2.266v-3.515h3.374
		C408.638,233.83,408.621,225.375,402.782,225.375z M399.408,227.524h3.374c2.873,0,2.89,4.24,0,4.24h-3.374V227.524z
		 M385.481,237.345h2.248v-9.92h3.79v-2.05c-3.465,0-6.389,0-9.837,0v2.05h3.799V237.345z M374.485,227.199
		c2.815,0,3.948,2.258,3.915,4.273c-0.033,1.965-1.1,4.082-3.915,4.082s-3.874-2.099-3.924-4.065
		C370.504,229.473,371.67,227.199,374.485,227.199z M374.485,225.158c-4.131,0-6.147,3.157-6.147,6.298
		c0,3.14,1.949,6.164,6.147,6.164c4.199,0,6.098-3.09,6.131-6.181C380.649,228.315,378.601,225.158,374.485,225.158z
		 M365.889,226.883c-1.232-1.216-2.831-1.833-4.439-1.833c-4.215,0-6.322,3.107-6.322,6.472c0,3.14,1.833,6.097,6.322,6.097
		c2.1,0,3.59-0.799,4.765-2.149v-5.04h-5.123v2.017h3.058v2.116c-0.941,0.75-1.758,0.958-2.699,0.958
		c-2.975,0-4.115-2.032-4.115-3.998c0-2.458,1.559-4.407,4.115-4.407c1.041,0,2.241,0.425,3.04,1.2L365.889,226.883z
		 M348.979,227.474c1.416,0,2.049,0.966,2.049,1.924c0,0.958-0.616,1.924-2.049,1.924h-3.432v-3.848H348.979z M353.878,237.195
		l-3.615-4.082c2.266-0.458,3.016-2.116,3.016-3.765c0-2.074-1.483-3.957-4.299-3.974c-1.899,0.017-3.799,0-5.689,0v11.97h2.258
		v-3.99h2.166l3.481,3.99h2.683V237.195z M334.669,227.199c2.815,0,3.948,2.258,3.914,4.273c-0.032,1.965-1.099,4.082-3.914,4.082
		s-3.864-2.099-3.924-4.065C330.695,229.473,331.854,227.199,334.669,227.199z M334.669,225.158c-4.132,0-6.147,3.157-6.147,6.298
		c0,3.14,1.949,6.164,6.147,6.164c4.207,0,6.098-3.09,6.13-6.181C340.841,228.315,338.784,225.158,334.669,225.158z
		 M319.992,237.345v-4.423h5.997v-2.083h-5.997v-3.256h6.339v-2.174h-8.589v11.937H319.992z"/> -->
</g>
</svg>
