<?xml version="1.0" encoding="utf-8"?>
<!-- Generator: Adobe Illustrator 15.1.0, SVG Export Plug-In . SVG Version: 6.00 Build 0)  -->
<!DOCTYPE svg PUBLIC "-//W3C//DTD SVG 1.0//EN" "http://www.w3.org/TR/2001/REC-SVG-20010904/DTD/svg10.dtd">
<svg version="1.0" id="Layer_1" xmlns="http://www.w3.org/2000/svg" xmlns:xlink="http://www.w3.org/1999/xlink" x="0px" y="0px"
	 width="800px" height="800px" viewBox="188.35499572753906 203.88400268554688 420.7239990234375 377.6579895019531" enable-background="new 0 0 800 800" xml:space="preserve">
<g>
	<!-- <path fill="#BCC2C6" d="M204.558,203.884h388.327c4.449,0,8.506,1.816,11.438,4.748v0.025c2.932,2.932,4.756,6.98,4.756,11.42
		v345.271c0,4.439-1.824,8.488-4.756,11.42v0.018c-2.932,2.932-6.988,4.756-11.438,4.756H204.558c-4.458,0-8.515-1.824-11.438-4.756
		v-0.018c-2.933-2.932-4.765-6.98-4.765-11.42V220.077c0-4.44,1.832-8.488,4.765-11.42v-0.025
		C196.043,205.7,200.1,203.884,204.558,203.884"/>
	<path fill="#EBEFF0" d="M603.197,220.077v345.271c0,6.497-4.532,10.32-10.313,10.32H204.558c-5.781,0-10.321-3.715-10.321-10.32
		V220.077c0-6.73,4.564-10.313,10.321-10.313h388.327C598.665,209.765,603.197,213.463,603.197,220.077"/> -->
	<path fill="#BCC2C6" d="M202.415,251.314h392.603c3.873,0,7.389,1.583,9.93,4.132c2.549,2.54,4.131,6.055,4.131,9.929V567.48
		c0,3.874-1.582,7.39-4.131,9.938c-2.541,2.54-6.057,4.123-9.93,4.123H202.415c-3.864,0-7.38-1.583-9.929-4.123
		c-2.549-2.549-4.131-6.064-4.131-9.938V265.375c0-3.874,1.582-7.389,4.131-9.929C195.035,252.896,198.551,251.314,202.415,251.314"
		/>
	<path fill-rule="evenodd" clip-rule="evenodd" fill="#FFFFFF" d="M202.415,257.195c-2.174,0-4.23,0.867-5.771,2.399
		c-1.541,1.541-2.407,3.607-2.407,5.781V567.48c0,2.174,0.866,4.24,2.407,5.781s3.598,2.407,5.771,2.407h392.603
		c2.183,0,4.24-0.866,5.781-2.407c1.532-1.541,2.398-3.598,2.398-5.781V265.375c0-2.182-0.866-4.24-2.398-5.781
		c-1.541-1.532-3.615-2.399-5.781-2.399H202.415z"/>
	<!-- <path fill-rule="evenodd" clip-rule="evenodd" fill="#94A4A5" d="M544.489,223.833c4.132,0,7.488,3.357,7.488,7.489
		s-3.356,7.48-7.488,7.48s-7.481-3.349-7.481-7.48S540.357,223.833,544.489,223.833 M567.996,223.833c4.132,0,7.48,3.357,7.48,7.489
		s-3.349,7.48-7.48,7.48s-7.481-3.349-7.481-7.48S563.864,223.833,567.996,223.833z M520.991,223.833
		c4.131,0,7.487,3.357,7.487,7.489s-3.356,7.48-7.487,7.48c-4.133,0-7.489-3.349-7.489-7.48S516.867,223.833,520.991,223.833z"/> -->
	<path fill-rule="evenodd" clip-rule="evenodd" fill="#BCC2C6" d="M314.36,348.831h168.722c2.731,0,4.964,2.241,4.964,4.973v15.252
		c0,2.732-2.232,4.973-4.964,4.973H314.36c-2.732,0-4.973-2.232-4.973-4.973v-15.252C309.388,351.072,311.62,348.831,314.36,348.831
		"/>
	<rect x="315.269" y="354.704" fill-rule="evenodd" clip-rule="evenodd" fill="#FFFFFF" width="166.905" height="13.444"/>
	<path fill-rule="evenodd" clip-rule="evenodd" fill="#BCC2C6" d="M314.36,391.03h168.722c2.731,0,4.964,2.241,4.964,4.973v15.252
		c0,2.732-2.232,4.973-4.964,4.973H314.36c-2.732,0-4.973-2.24-4.973-4.973v-15.252C309.388,393.271,311.62,391.03,314.36,391.03"/>
	<rect x="315.269" y="396.903" fill-rule="evenodd" clip-rule="evenodd" fill="#FFFFFF" width="166.905" height="13.444"/>
	<path fill-rule="evenodd" clip-rule="evenodd" fill="#BCC2C6" d="M314.36,433.229h168.722c2.731,0,4.964,2.241,4.964,4.974v15.252
		c0,2.731-2.232,4.973-4.964,4.973H314.36c-2.732,0-4.973-2.241-4.973-4.973v-15.252C309.388,435.462,311.62,433.229,314.36,433.229
		"/>
	<rect x="315.269" y="439.102" fill-rule="evenodd" clip-rule="evenodd" fill="#FFFFFF" width="166.905" height="13.444"/>
	<path fill="#BCC2C6" d="M429.712,493.771H370.92c-2.257,0-4.314,0.924-5.806,2.415c-1.491,1.5-2.415,3.549-2.415,5.807v0.009
		c0,2.266,0.916,4.322,2.398,5.806l0.017,0.016c1.483,1.483,3.54,2.399,5.806,2.399h58.792c2.258,0,4.315-0.925,5.807-2.415
		c1.499-1.491,2.415-3.549,2.415-5.806v-0.009c0-2.258-0.916-4.323-2.406-5.814C434.036,494.694,431.97,493.771,429.712,493.771
		 M370.92,485.715h58.792c4.474,0,8.538,1.824,11.487,4.782l0.017,0.008c2.948,2.957,4.781,7.022,4.781,11.487v0.009
		c0,4.481-1.833,8.555-4.781,11.503c-2.949,2.949-7.022,4.772-11.504,4.772H370.92c-4.456,0-8.53-1.823-11.486-4.772l-0.008-0.008
		l-0.008-0.01c-2.95-2.956-4.782-7.021-4.782-11.485v-0.009c0-4.474,1.832-8.547,4.782-11.495
		C362.366,487.539,366.439,485.715,370.92,485.715z"/>
	<path fill="#34495E" d="M367.729,479.06h58.784c4.474,0,8.538,1.833,11.486,4.782l0.017,0.016
		c2.949,2.949,4.781,7.014,4.781,11.487l0,0c0,4.481-1.832,8.555-4.781,11.504c-2.948,2.948-7.021,4.78-11.503,4.78h-58.784
		c-4.465,0-8.538-1.832-11.495-4.78v-0.009l-0.017-0.009c-2.948-2.957-4.781-7.021-4.781-11.486l0,0
		c0-4.481,1.833-8.555,4.781-11.503C359.167,480.893,363.24,479.06,367.729,479.06"/>
	<path fill="#27CABF" d="M426.514,483.907c3.041,0,5.939,1.2,8.088,3.349c2.149,2.15,3.349,5.049,3.349,8.089
		c0,3.032-1.216,5.931-3.357,8.071c-2.147,2.149-5.038,3.365-8.079,3.365h-58.784c-3.04,0-5.931-1.199-8.079-3.349l-0.018-0.008
		c-2.148-2.149-3.349-5.048-3.349-8.08c0-3.04,1.217-5.931,3.366-8.08c2.148-2.149,5.031-3.357,8.079-3.357H426.514z"/>
	<path fill="#51F4E9" d="M426.514,483.907c3.041,0,5.939,1.2,8.088,3.349c2.149,2.15,3.349,5.049,3.349,8.089
		c0,0.774-0.084,1.55-0.233,2.3c-0.449-2.175-1.523-4.183-3.115-5.781c-2.148-2.15-5.047-3.349-8.088-3.349h-58.784
		c-3.048,0-5.931,1.208-8.079,3.356c-1.601,1.599-2.683,3.607-3.133,5.781c-0.15-0.75-0.233-1.524-0.233-2.308
		c0-3.04,1.217-5.931,3.366-8.08c2.148-2.149,5.031-3.357,8.079-3.357H426.514z"/>
	<path fill-rule="evenodd" clip-rule="evenodd" fill="#BCC2C6" d="M365.781,314.579h65.871c2.283,0,4.166,1.875,4.166,4.157v0.008
		c0,2.291-1.883,4.156-4.166,4.156h-65.871c-2.283,0-4.148-1.866-4.148-4.156v-0.008
		C361.633,316.454,363.498,314.579,365.781,314.579"/>
	<!-- <path fill-rule="evenodd" clip-rule="evenodd" fill="#94A4A5" d="M438.334,224.083c-2.292-0.025-4.581,0-6.864,0v14.578h2.749
		v-4.29h4.115C445.464,234.371,445.447,224.083,438.334,224.083 M434.219,226.699h4.115c3.489,0,3.515,5.165,0,5.165h-4.115V226.699
		z M424.423,224.125v8.338c0,2.491-1.283,4.015-3.549,4.015s-3.766-1.391-3.766-4.015v-8.338h-2.723v8.338
		c0,4.382,2.974,6.505,6.472,6.505c3.657,0,6.298-2.199,6.298-6.505v-8.338H424.423z M403.29,233.122l-7.13-9.038h-2.225v14.578
		h2.748v-9.829l7.647,9.829h1.699v-14.578h-2.74V233.122z M389.454,225.908c-1.499-1.475-3.448-2.224-5.414-2.224
		c-5.132,0-7.681,3.79-7.681,7.879c0,3.833,2.215,7.422,7.681,7.422c2.565,0,4.373-0.975,5.805-2.615v-6.131h-6.237v2.449h3.723
		v2.582c-1.141,0.917-2.141,1.158-3.29,1.158c-3.615,0-5.006-2.474-5.006-4.865c0-2.99,1.89-5.355,5.006-5.355
		c1.273,0,2.731,0.517,3.707,1.449L389.454,225.908z M372.728,238.661v-14.578h-2.732v14.578H372.728z M365.765,226.491
		c-1.101-2.241-3.448-2.882-5.714-2.882c-2.684,0.017-5.64,1.241-5.64,4.24c0,3.266,2.739,4.048,5.722,4.407
		c1.933,0.208,3.365,0.767,3.365,2.141c0,1.582-1.623,2.182-3.348,2.182c-1.767,0-3.449-0.708-4.099-2.308l-2.282,1.183
		c1.083,2.666,3.364,3.582,6.339,3.582c3.239,0,6.114-1.399,6.114-4.64c0-3.474-2.825-4.265-5.865-4.64
		c-1.74-0.208-3.239-0.558-3.239-1.824c0-1.083,0.974-1.933,3.015-1.933c1.574,0,2.949,0.792,3.448,1.616L365.765,226.491z"/> -->
</g>
</svg>
