<?xml version="1.0" encoding="utf-8"?>
<!-- Generator: Adobe Illustrator 15.1.0, SVG Export Plug-In . SVG Version: 6.00 Build 0)  -->
<!DOCTYPE svg PUBLIC "-//W3C//DTD SVG 1.0//EN" "http://www.w3.org/TR/2001/REC-SVG-20010904/DTD/svg10.dtd">
<svg version="1.0" id="Layer_1" xmlns="http://www.w3.org/2000/svg" xmlns:xlink="http://www.w3.org/1999/xlink" x="0px" y="0px"
	 width="800px" height="800px" viewBox="192.22801208496094 203.88400268554688 420.71600341796875 377.6579895019531" enable-background="new 0 0 800 800" xml:space="preserve">
<g>
	<!-- <path fill="#BCC2C6" d="M208.43,203.884h388.32c4.456,0,8.513,1.816,11.445,4.748v0.025c2.932,2.932,4.748,6.98,4.748,11.42
		v345.271c0,4.439-1.816,8.488-4.748,11.42v0.018c-2.933,2.932-6.989,4.756-11.445,4.756H208.43c-4.465,0-8.513-1.824-11.445-4.756
		v-0.018c-2.932-2.932-4.756-6.98-4.756-11.42V220.077c0-4.44,1.824-8.488,4.756-11.42v-0.025
		C199.917,205.7,203.965,203.884,208.43,203.884"/>
	<path fill="#EBEFF0" d="M607.07,220.077v345.271c0,6.497-4.531,10.32-10.32,10.32H208.43c-5.781,0-10.32-3.715-10.32-10.32V220.077
		c0-6.73,4.557-10.313,10.32-10.313h388.32C602.53,209.765,607.07,213.463,607.07,220.077"/> -->
	<path fill="#34495E" d="M206.289,251.314h392.602c3.873,0,7.389,1.583,9.929,4.132c2.55,2.54,4.124,6.055,4.124,9.929V567.48
		c0,3.874-1.574,7.39-4.124,9.938c-2.54,2.54-6.056,4.123-9.929,4.123H206.289c-3.873,0-7.389-1.583-9.93-4.123
		c-2.548-2.549-4.131-6.064-4.131-9.938V265.375c0-3.874,1.583-7.389,4.131-9.929C198.9,252.896,202.416,251.314,206.289,251.314"/>
	<path fill-rule="evenodd" clip-rule="evenodd" fill="#FFFFFF" d="M206.289,257.195c-2.174,0-4.239,0.867-5.772,2.399
		c-1.541,1.541-2.407,3.607-2.407,5.781V567.48c0,2.174,0.866,4.24,2.407,5.781c1.533,1.541,3.599,2.407,5.772,2.407h392.602
		c2.174,0,4.24-0.866,5.773-2.407c1.541-1.541,2.406-3.598,2.406-5.781V265.375c0-2.182-0.865-4.24-2.406-5.781
		c-1.533-1.532-3.6-2.399-5.773-2.399H206.289z"/>
	<path fill="#34495E" d="M533.186,275.487h38.367c2.24,0,4.064,1.833,4.064,4.064v0.009c0,2.232-1.824,4.065-4.064,4.065h-38.367
		c-2.241,0-4.065-1.833-4.065-4.065v-0.009C529.12,277.32,530.944,275.487,533.186,275.487"/>
	<path fill="#34495E" d="M466.646,275.487h51.569c2.241,0,4.065,1.833,4.065,4.064v0.009c0,2.232-1.824,4.065-4.065,4.065h-51.569
		c-2.241,0-4.065-1.833-4.065-4.065v-0.009C462.581,277.32,464.405,275.487,466.646,275.487"/>
	<path fill="#34495E" d="M413.044,275.487h38.367c2.241,0,4.073,1.833,4.073,4.064v0.009c0,2.232-1.832,4.065-4.073,4.065h-38.367
		c-2.232,0-4.065-1.833-4.065-4.065v-0.009C408.979,277.32,410.812,275.487,413.044,275.487"/>
	<path fill="#34495E" d="M233.619,275.487h51.578c2.232,0,4.064,1.833,4.064,4.064v0.009c0,2.232-1.832,4.065-4.064,4.065h-51.578
		c-2.232,0-4.064-1.833-4.064-4.065v-0.009C229.555,277.32,231.387,275.487,233.619,275.487"/>
	<!-- <path fill-rule="evenodd" clip-rule="evenodd" fill="#94A4A5" d="M548.361,223.833c4.141,0,7.489,3.357,7.489,7.489
		s-3.349,7.48-7.489,7.48c-4.132,0-7.479-3.349-7.479-7.48S544.229,223.833,548.361,223.833 M571.869,223.833
		c4.132,0,7.479,3.357,7.479,7.489s-3.347,7.48-7.479,7.48c-4.141,0-7.489-3.349-7.489-7.48S567.736,223.833,571.869,223.833z
		 M524.863,223.833c4.132,0,7.48,3.357,7.48,7.489s-3.349,7.48-7.48,7.48c-4.131,0-7.48-3.349-7.48-7.48
		S520.732,223.833,524.863,223.833z"/> -->
	<polygon fill="#34495E" points="298.508,326.974 506.671,326.974 511.419,326.974 511.419,331.722 511.419,459.693
		511.419,464.449 506.671,464.449 298.508,464.449 293.76,464.449 293.76,459.693 293.76,331.722 293.76,326.974 	"/>
	<rect x="299.7" y="332.913" fill="#22A6EF" width="205.78" height="125.588"/>
	<path opacity="0.15" d="M463.939,371.264c-2.092-2.083-4.974-3.366-8.164-3.366c-3.189,0-6.072,1.283-8.154,3.366
		s-3.365,4.964-3.365,8.155s1.291,6.072,3.373,8.155s4.965,3.374,8.146,3.374c3.19,0,6.072-1.283,8.164-3.365
		c2.074-2.083,3.365-4.973,3.365-8.163S466.014,373.346,463.939,371.264 M455.775,358.394c5.789,0,11.045,2.357,14.852,6.164
		l0.018,0.017c3.807,3.807,6.156,9.054,6.156,14.844c0,5.797-2.35,11.045-6.156,14.852l-0.018,0.017
		c-3.807,3.807-9.063,6.165-14.852,6.165c-5.806,0-11.062-2.357-14.868-6.165c-3.799-3.798-6.156-9.063-6.156-14.869
		c0-5.79,2.357-11.037,6.156-14.844l0.025-0.017C444.739,360.751,449.986,358.394,455.775,358.394z M445.713,409.938v-0.008
		l0.143,0.2l2.665,3.54l-0.042,0.033l15.961,21.683c1.141,1.557,1.623,3.123,1.623,4.599h-0.017c0,1.165-0.291,2.224-0.79,3.147
		c-0.483,0.875-1.15,1.608-1.941,2.191c-1.316,0.966-3.008,1.5-4.706,1.5v-0.018l-40.108,0.008l-76.793-0.008
		c-1.85,0-3.457-0.533-4.689-1.441c-0.857-0.624-1.532-1.432-2.008-2.373h-0.017c-0.45-0.9-0.683-1.908-0.683-2.991h-0.018
		c0-1.582,0.551-3.273,1.741-4.89l16.802-22.848l-0.018-0.025l1.541-2.041l0.184-0.259v0.009l0.033-0.051l20.775-27.612
		c0.732-0.975,1.532-1.783,2.383-2.416c1.623-1.224,3.398-1.824,5.238-1.815c1.842,0.008,3.59,0.624,5.182,1.815
		c0.85,0.642,1.657,1.45,2.382,2.416l19.834,26.372l9.596-12.762c0.725-0.966,1.524-1.774,2.374-2.415
		c1.6-1.191,3.365-1.808,5.206-1.808c1.833-0.008,3.607,0.591,5.224,1.808c0.849,0.633,1.648,1.44,2.382,2.415l10.528,14.002
		L445.713,409.938z M454.11,437.344l-16.044-21.807l-0.674-0.916l-9.813-13.045l-0.025-0.033l-0.016,0.033l-11.088,14.735
		l-2.298,3.048l-3.782,5.031l-3.782-5.031l-2.29-3.048l-21.333-28.347l-0.018-0.033l-0.024,0.033l-20.142,26.771l-0.6,0.809
		l-16.026,21.799l72.345,0.018L454.11,437.344z"/>
	<path fill="#34495E" d="M452.818,351.489c5.79,0,11.046,2.357,14.853,6.164l0.017,0.008c3.807,3.807,6.155,9.063,6.155,14.853
		c0,5.797-2.349,11.045-6.155,14.852l-0.017,0.017c-3.807,3.798-9.063,6.155-14.853,6.155c-5.806,0-11.062-2.357-14.868-6.155
		c-3.799-3.807-6.156-9.063-6.156-14.869c0-5.79,2.357-11.046,6.156-14.853l0.024-0.008
		C441.781,353.846,447.029,351.489,452.818,351.489 M442.748,403.025L442.748,403.025l0.149,0.199l2.666,3.54l-0.034,0.025
		l15.953,21.691c1.141,1.549,1.623,3.114,1.623,4.598h-0.016c0,1.158-0.291,2.216-0.801,3.14c-0.474,0.876-1.141,1.616-1.932,2.2
		c-1.316,0.966-3.008,1.499-4.706,1.499v-0.017l-40.108,0.009l-76.793-0.009c-1.85-0.008-3.457-0.533-4.69-1.441
		c-0.857-0.633-1.532-1.433-2.007-2.383h-0.018c-0.44-0.891-0.682-1.898-0.682-2.99h-0.018c0-1.582,0.55-3.273,1.742-4.88
		l16.801-22.85l-0.018-0.033l1.541-2.041l0.184-0.25l0,0l0.034-0.041l20.774-27.613c0.732-0.975,1.533-1.783,2.382-2.424
		c1.624-1.216,3.398-1.816,5.239-1.808c1.842,0.008,3.591,0.625,5.182,1.816c0.85,0.641,1.657,1.449,2.382,2.416l19.834,26.372
		l9.595-12.761c0.725-0.966,1.525-1.775,2.375-2.416c1.599-1.199,3.365-1.808,5.206-1.816c1.832,0,3.606,0.6,5.223,1.816
		c0.85,0.633,1.649,1.441,2.383,2.416l10.528,13.994L442.748,403.025z"/>
	<path fill-rule="evenodd" clip-rule="evenodd" fill="#39D4FF" d="M452.818,356.886c4.157,0,8.097,1.641,11.038,4.573l0.016,0.025
		c2.94,2.932,4.581,6.872,4.581,11.029s-1.641,8.097-4.581,11.037l-0.016,0.017c-2.941,2.941-6.881,4.582-11.038,4.582
		c-4.165,0-8.104-1.641-11.054-4.582c-2.94-2.94-4.573-6.889-4.573-11.053c0-4.157,1.633-8.097,4.573-11.029l0.017-0.025
		C444.723,358.519,448.661,356.886,452.818,356.886"/>
	<path fill-rule="evenodd" clip-rule="evenodd" fill="#39D4FF" d="M407.413,410.723l13.911-18.493
		c0.374-0.5,0.808-0.975,1.308-1.342c0.583-0.449,1.225-0.732,1.974-0.732c0.74,0,1.383,0.292,1.967,0.732
		c0.499,0.367,0.932,0.842,1.307,1.342l10.671,14.186l18.583,25.264c0.217,0.284,0.426,0.641,0.518,0.991l0.042,0.134v0.434
		l-0.034,0.133c-0.083,0.291-0.258,0.524-0.499,0.699c-0.317,0.233-0.717,0.366-1.1,0.416l-0.076,0.018l-40.44,0.017l-76.793-0.017
		c-0.491,0-1.091-0.092-1.491-0.392l-0.217-0.149l-0.291-0.609v-0.541l0.024-0.116c0.1-0.45,0.375-0.925,0.643-1.292l18.375-24.98
		l20.916-27.805c0.375-0.5,0.809-0.975,1.309-1.35c0.591-0.441,1.224-0.733,1.974-0.725c0.749,0,1.383,0.292,1.975,0.733
		c0.499,0.375,0.933,0.842,1.308,1.35L407.413,410.723z"/>
	<path fill="#D7D7D7" d="M433.586,523.957h-58.793c-2.257,0-4.315,0.926-5.807,2.425c-1.49,1.491-2.415,3.548-2.415,5.806
		c0,2.266,0.916,4.323,2.399,5.806l0.016,0.018c1.483,1.481,3.541,2.407,5.807,2.407h58.793c2.256,0,4.314-0.934,5.806-2.425
		s2.415-3.548,2.415-5.806c0-2.266-0.924-4.323-2.407-5.814C437.908,524.883,435.852,523.957,433.586,523.957 M374.793,515.903
		h58.793c4.472,0,8.537,1.832,11.486,4.78l0.016,0.018c2.949,2.948,4.782,7.013,4.782,11.486c0,4.481-1.833,8.555-4.782,11.503
		c-2.947,2.949-7.021,4.782-11.502,4.782h-58.793c-4.465,0-8.529-1.833-11.486-4.782l-0.009-0.008l-0.009-0.008
		c-2.947-2.957-4.78-7.022-4.78-11.487c0-4.481,1.833-8.555,4.78-11.504C366.238,517.735,370.313,515.903,374.793,515.903z"/>
	<path fill="#34495E" d="M371.595,509.247h58.792c4.474,0,8.537,1.832,11.486,4.781l0.018,0.018
		c2.948,2.948,4.781,7.014,4.781,11.485c0,4.482-1.833,8.556-4.781,11.504c-2.949,2.949-7.022,4.782-11.504,4.782h-58.792
		c-4.465,0-8.53-1.833-11.487-4.782l-0.008-0.008l-0.009-0.009c-2.948-2.956-4.772-7.021-4.772-11.487
		c0-4.481,1.824-8.555,4.772-11.503C363.04,511.079,367.113,509.247,371.595,509.247"/>
	<path fill="#27CABF" d="M430.387,514.096c3.04,0,5.938,1.198,8.088,3.349c2.141,2.148,3.35,5.047,3.35,8.087
		c0,3.041-1.209,5.932-3.358,8.081c-2.148,2.141-5.039,3.356-8.079,3.356h-58.792c-3.032,0-5.932-1.199-8.081-3.34l-0.008-0.017
		c-2.148-2.149-3.348-5.049-3.348-8.081c0-3.04,1.215-5.931,3.355-8.079c2.149-2.149,5.04-3.356,8.081-3.356H430.387z"/>
	<path fill="#51F4E9" d="M430.387,514.096c3.04,0,5.938,1.198,8.088,3.349c2.141,2.148,3.35,5.047,3.35,8.087
		c0,0.784-0.084,1.55-0.234,2.3c-0.45-2.174-1.523-4.182-3.115-5.781c-2.149-2.148-5.048-3.349-8.088-3.349h-58.792
		c-3.041,0-5.932,1.208-8.081,3.357c-1.59,1.6-2.674,3.606-3.114,5.78c-0.158-0.749-0.241-1.523-0.241-2.308
		c0-3.04,1.215-5.931,3.355-8.079c2.149-2.149,5.04-3.356,8.081-3.356H430.387z"/>
	<path fill-rule="evenodd" clip-rule="evenodd" fill="#BCC2C6" d="M349.021,483.608h107.138c2.157,0,3.932,1.766,3.932,3.931l0,0
		c0,2.158-1.774,3.924-3.932,3.924H349.021c-2.158,0-3.924-1.766-3.924-3.924l0,0C345.098,485.374,346.863,483.608,349.021,483.608"
		/>
	<path opacity="0.5" fill-rule="evenodd" clip-rule="evenodd" fill="#34495E" d="M206.289,257.195c-2.174,0-4.239,0.867-5.772,2.399
		c-1.541,1.541-2.407,3.607-2.407,5.781V567.48c0,2.174,0.866,4.24,2.407,5.781c1.533,1.541,3.599,2.407,5.772,2.407h392.602
		c2.174,0,4.24-0.866,5.773-2.407c1.541-1.541,2.406-3.598,2.406-5.781V265.375c0-2.182-0.865-4.24-2.406-5.781
		c-1.533-1.532-3.6-2.399-5.773-2.399H206.289z"/>
	<path fill-rule="evenodd" clip-rule="evenodd" fill="#FFFFFF" d="M566.271,277.12l6.214,6.214l6.214-6.214
		c1.532-1.533,4.023-1.533,5.556,0l0,0c1.524,1.524,1.524,4.023,0,5.548l-6.214,6.223l6.214,6.214c1.524,1.524,1.524,4.023,0,5.556
		l0,0c-1.532,1.533-4.023,1.533-5.556,0l-6.214-6.214l-6.214,6.214c-1.533,1.533-4.032,1.533-5.557,0l0,0
		c-1.533-1.532-1.533-4.032,0-5.556l6.215-6.214l-6.224-6.223c-1.524-1.524-1.524-4.023,0-5.548h0.009
		C562.239,275.587,564.738,275.587,566.271,277.12"/>
	<path fill="#34495E" d="M281.533,314.604h242.114c2.39,0,4.556,0.975,6.122,2.549c1.575,1.566,2.549,3.74,2.549,6.122v186.313
		c0,2.382-0.974,4.548-2.549,6.122c-1.566,1.574-3.732,2.541-6.122,2.541H281.533c-2.383,0-4.558-0.967-6.123-2.541
		c-1.574-1.574-2.549-3.74-2.549-6.122V323.275c0-2.382,0.975-4.556,2.549-6.122C276.976,315.579,279.15,314.604,281.533,314.604"/>
	<path fill-rule="evenodd" clip-rule="evenodd" fill="#FFFFFF" d="M281.533,320.485c-0.751,0-1.441,0.292-1.967,0.816
		c-0.533,0.533-0.824,1.232-0.824,1.974v186.313c0,0.741,0.291,1.44,0.824,1.966c0.525,0.524,1.216,0.824,1.967,0.824h242.114
		c0.741,0,1.441-0.292,1.966-0.824c0.533-0.525,0.824-1.225,0.824-1.966V323.275c0-0.742-0.291-1.441-0.824-1.974
		c-0.524-0.525-1.225-0.816-1.966-0.816H281.533z"/>
	<path fill-rule="evenodd" clip-rule="evenodd" fill="#BCC2C6" d="M318.233,374.404h168.712c2.741,0,4.973,2.24,4.973,4.973v15.252
		c0,2.732-2.239,4.973-4.973,4.973H318.233c-2.731,0-4.973-2.241-4.973-4.973v-15.252
		C313.261,376.645,315.493,374.404,318.233,374.404"/>
	<rect x="319.134" y="380.276" fill-rule="evenodd" clip-rule="evenodd" fill="#FFFFFF" width="166.913" height="13.444"/>
	<path fill-rule="evenodd" clip-rule="evenodd" fill="#BCC2C6" d="M318.233,416.603h168.712c2.741,0,4.973,2.241,4.973,4.973v15.253
		c0,2.731-2.239,4.973-4.973,4.973H318.233c-2.731,0-4.973-2.241-4.973-4.973v-15.253
		C313.261,418.836,315.493,416.603,318.233,416.603"/>
	<rect x="319.134" y="422.476" fill-rule="evenodd" clip-rule="evenodd" fill="#FFFFFF" width="166.913" height="13.444"/>
	<path fill="#BCC2C6" d="M478.832,472.963h-58.791c-2.258,0-4.315,0.924-5.807,2.415c-1.49,1.499-2.415,3.558-2.415,5.814
		c0,2.266,0.916,4.323,2.398,5.807l0.017,0.016c1.483,1.483,3.541,2.399,5.807,2.399h58.791c2.258,0,4.315-0.925,5.807-2.415
		c1.49-1.491,2.424-3.55,2.424-5.807c0-2.266-0.925-4.323-2.415-5.814C483.156,473.887,481.098,472.963,478.832,472.963
		 M420.041,464.907h58.791c4.474,0,8.539,1.833,11.487,4.781l0.017,0.018c2.949,2.948,4.782,7.014,4.782,11.486
		c0,4.481-1.833,8.555-4.782,11.495c-2.949,2.957-7.021,4.781-11.504,4.781h-58.791c-4.465,0-8.53-1.824-11.487-4.781h-0.008
		l-0.009-0.009c-2.949-2.956-4.781-7.021-4.781-11.486c0-4.49,1.832-8.556,4.781-11.504S415.559,464.907,420.041,464.907z"/>
	<path fill="#34495E" d="M416.843,458.252h58.791c4.474,0,8.538,1.832,11.487,4.781l0.017,0.017c2.948,2.949,4.78,7.015,4.78,11.486
		c0,4.481-1.832,8.555-4.78,11.504c-2.948,2.948-7.022,4.773-11.504,4.773h-58.791c-4.466,0-8.53-1.825-11.479-4.773l-0.009-0.009
		l-0.008-0.008c-2.956-2.957-4.78-7.021-4.78-11.487c0-4.481,1.824-8.554,4.78-11.503
		C408.287,460.084,412.361,458.252,416.843,458.252"/>
	<path fill="#27CABF" d="M475.634,463.1c3.041,0,5.939,1.199,8.089,3.349s3.348,5.048,3.348,8.088c0,3.041-1.207,5.931-3.356,8.081
		c-2.141,2.141-5.039,3.356-8.08,3.356h-58.791c-3.032,0-5.932-1.2-8.072-3.341l-0.017-0.016c-2.149-2.15-3.348-5.049-3.348-8.081
		c0-3.04,1.215-5.931,3.364-8.079c2.141-2.148,5.04-3.357,8.072-3.357H475.634z"/>
	<path fill="#51F4E9" d="M475.634,463.1c3.041,0,5.939,1.199,8.089,3.349s3.348,5.048,3.348,8.088c0,0.775-0.074,1.551-0.232,2.3
		c-0.45-2.175-1.525-4.189-3.115-5.78c-2.149-2.15-5.048-3.349-8.089-3.349h-58.791c-3.032,0-5.932,1.207-8.072,3.356
		c-1.6,1.599-2.683,3.606-3.123,5.78c-0.159-0.749-0.241-1.523-0.241-2.308c0-3.04,1.215-5.931,3.364-8.079
		c2.141-2.148,5.04-3.357,8.072-3.357H475.634z"/>
	<path fill-rule="evenodd" clip-rule="evenodd" fill="#BCC2C6" d="M317.418,470.371h65.863c2.291,0,4.165,1.875,4.165,4.165l0,0
		c0,2.291-1.874,4.157-4.165,4.157h-65.863c-2.292,0-4.157-1.866-4.157-4.157l0,0C313.261,472.246,315.126,470.371,317.418,470.371"
		/>
	<path fill-rule="evenodd" clip-rule="evenodd" fill="#BCC2C6" d="M369.653,346.491h65.872c2.283,0,4.157,1.874,4.157,4.157v0.008
		c0,2.282-1.874,4.157-4.157,4.157h-65.872c-2.281,0-4.156-1.875-4.156-4.157v-0.008
		C365.497,348.365,367.372,346.491,369.653,346.491"/>
	<!-- <path fill-rule="evenodd" clip-rule="evenodd" fill="#94A4A5" d="M439.374,233.571l-6.855-8.68h-2.132v14.011h2.641v-9.446
		l7.346,9.446h1.643v-14.011h-2.642V233.571z M425.722,238.903v-14.011h-2.615v14.011H425.722z M412.002,233.571l-6.854-8.68h-2.132
		v14.011h2.632v-9.446l7.354,9.446h1.641v-14.011h-2.641V233.571z M398.283,226.649c-1.432-1.424-3.315-2.141-5.189-2.141
		c-4.939,0-7.397,3.64-7.397,7.571c0,3.682,2.142,7.139,7.397,7.139c2.458,0,4.198-0.941,5.572-2.524v-5.889h-5.997v2.357h3.581
		v2.474c-1.099,0.883-2.057,1.125-3.156,1.125c-3.481,0-4.814-2.382-4.814-4.682c0-2.873,1.815-5.156,4.814-5.156
		c1.217,0,2.615,0.5,3.557,1.399L398.283,226.649z M381.798,238.903v-14.011h-2.623v14.011H381.798z M374.693,227.208
		c-1.058-2.157-3.315-2.782-5.498-2.782c-2.574,0.025-5.414,1.199-5.414,4.082c0,3.132,2.641,3.898,5.498,4.24
		c1.857,0.191,3.239,0.733,3.239,2.058c0,1.516-1.565,2.09-3.223,2.09c-1.699,0-3.315-0.675-3.933-2.216l-2.198,1.141
		c1.041,2.557,3.231,3.432,6.097,3.432c3.115,0,5.873-1.333,5.873-4.448c0-3.341-2.716-4.099-5.639-4.457
		c-1.676-0.208-3.116-0.542-3.116-1.758c0-1.042,0.942-1.866,2.899-1.866c1.516,0,2.84,0.758,3.314,1.566L374.693,227.208z"/> -->
</g>
</svg>
