<?xml version="1.0" encoding="utf-8"?>
<!-- Generator: Adobe Illustrator 15.1.0, SVG Export Plug-In . SVG Version: 6.00 Build 0)  -->
<!DOCTYPE svg PUBLIC "-//W3C//DTD SVG 1.0//EN" "http://www.w3.org/TR/2001/REC-SVG-20010904/DTD/svg10.dtd">
<svg version="1.0" id="Layer_1" xmlns="http://www.w3.org/2000/svg" xmlns:xlink="http://www.w3.org/1999/xlink" x="0px" y="0px"
	 width="800px" height="800px" viewBox="204.51100158691406 203.88400268554688 420.7239990234375 377.6579895019531" enable-background="new 0 0 800 800" xml:space="preserve">
<g>
	<!-- <path fill="#BCC2C6" d="M220.714,203.884h388.32c4.456,0,8.513,1.816,11.444,4.748v0.025c2.933,2.932,4.756,6.98,4.756,11.42
		v345.271c0,4.439-1.823,8.488-4.756,11.42v0.018c-2.932,2.932-6.988,4.756-11.444,4.756h-388.32c-4.457,0-8.514-1.824-11.445-4.756
		v-0.018c-2.933-2.932-4.757-6.98-4.757-11.42V220.077c0-4.44,1.824-8.488,4.757-11.42v-0.025
		C212.2,205.7,216.257,203.884,220.714,203.884"/>
	<path fill="#EBEFF0" d="M619.354,220.077v345.271c0,6.497-4.532,10.32-10.32,10.32h-388.32c-5.781,0-10.32-3.715-10.32-10.32
		V220.077c0-6.73,4.556-10.313,10.32-10.313h388.32C614.814,209.765,619.354,213.463,619.354,220.077"/> -->
	<path fill="#34495E" d="M218.572,251.314h392.603c3.872,0,7.388,1.583,9.929,4.132c2.549,2.54,4.131,6.055,4.131,9.929V567.48
		c0,3.874-1.582,7.39-4.131,9.938c-2.541,2.54-6.057,4.123-9.929,4.123H218.572c-3.873,0-7.389-1.583-9.929-4.123
		c-2.549-2.549-4.132-6.064-4.132-9.938V265.375c0-3.874,1.583-7.389,4.132-9.929C211.184,252.896,214.699,251.314,218.572,251.314"
		/>
	<path fill-rule="evenodd" clip-rule="evenodd" fill="#FFFFFF" d="M218.572,257.195c-2.174,0-4.239,0.867-5.772,2.399
		c-1.541,1.541-2.406,3.607-2.406,5.781V567.48c0,2.174,0.865,4.24,2.406,5.781c1.533,1.541,3.599,2.407,5.772,2.407h392.603
		c2.174,0,4.24-0.866,5.781-2.407c1.532-1.541,2.398-3.598,2.398-5.781V265.375c0-2.182-0.866-4.24-2.398-5.781
		c-1.541-1.532-3.607-2.399-5.781-2.399H218.572z"/>
	<path fill="#34495E" d="M545.469,275.487h38.367c2.241,0,4.074,1.833,4.074,4.064v0.009c0,2.232-1.833,4.065-4.074,4.065h-38.367
		c-2.232,0-4.064-1.833-4.064-4.065v-0.009C541.404,277.32,543.236,275.487,545.469,275.487"/>
	<path fill="#34495E" d="M478.93,275.487h51.57c2.24,0,4.073,1.833,4.073,4.064v0.009c0,2.232-1.833,4.065-4.073,4.065h-51.57
		c-2.24,0-4.064-1.833-4.064-4.065v-0.009C474.865,277.32,476.689,275.487,478.93,275.487"/>
	<path fill="#34495E" d="M425.327,275.487h38.376c2.232,0,4.065,1.833,4.065,4.064v0.009c0,2.232-1.833,4.065-4.065,4.065h-38.376
		c-2.231,0-4.064-1.833-4.064-4.065v-0.009C421.263,277.32,423.096,275.487,425.327,275.487"/>
	<path fill="#34495E" d="M245.903,275.487h51.569c2.241,0,4.073,1.833,4.073,4.064v0.009c0,2.232-1.832,4.065-4.073,4.065h-51.569
		c-2.233,0-4.065-1.833-4.065-4.065v-0.009C241.838,277.32,243.67,275.487,245.903,275.487"/>
	<!-- <path fill-rule="evenodd" clip-rule="evenodd" fill="#94A4A5" d="M560.646,223.833c4.131,0,7.487,3.357,7.487,7.489
		s-3.356,7.48-7.487,7.48c-4.133,0-7.48-3.349-7.48-7.48S556.514,223.833,560.646,223.833 M584.152,223.833
		c4.132,0,7.48,3.357,7.48,7.489s-3.349,7.48-7.48,7.48s-7.488-3.349-7.488-7.48S580.021,223.833,584.152,223.833z M537.147,223.833
		c4.132,0,7.48,3.357,7.48,7.489s-3.349,7.48-7.48,7.48s-7.481-3.349-7.481-7.48S533.016,223.833,537.147,223.833z"/> -->
	<polygon fill="#34495E" points="310.793,326.974 518.955,326.974 523.703,326.974 523.703,331.722 523.703,459.693
		523.703,464.449 518.955,464.449 310.793,464.449 306.045,464.449 306.045,459.693 306.045,331.722 306.045,326.974 	"/>
	<rect x="311.983" y="332.913" fill="#22A6EF" width="205.789" height="125.588"/>
	<path opacity="0.15" d="M476.223,371.264c-2.082-2.083-4.973-3.366-8.162-3.366c-3.191,0-6.074,1.283-8.164,3.366
		c-2.074,2.083-3.365,4.964-3.365,8.155s1.291,6.072,3.381,8.155c2.084,2.083,4.965,3.374,8.148,3.374
		c3.189,0,6.08-1.283,8.162-3.365c2.074-2.083,3.365-4.973,3.365-8.163S478.297,373.346,476.223,371.264 M468.061,358.394
		c5.797,0,11.044,2.357,14.851,6.164l0.018,0.017c3.807,3.807,6.155,9.054,6.155,14.844c0,5.797-2.349,11.045-6.155,14.852
		l-0.018,0.017c-3.807,3.807-9.054,6.165-14.851,6.165c-5.808,0-11.063-2.357-14.861-6.165c-3.808-3.798-6.164-9.063-6.164-14.869
		c0-5.79,2.356-11.037,6.164-14.844l0.017-0.017C457.014,360.751,462.271,358.394,468.061,358.394z M457.997,409.938v-0.008
		l0.142,0.2l2.665,3.54l-0.04,0.033l15.959,21.683c1.142,1.557,1.625,3.123,1.625,4.599h-0.018c0,1.165-0.291,2.224-0.791,3.147
		c-0.483,0.875-1.15,1.608-1.941,2.191c-1.315,0.966-3.006,1.5-4.706,1.5v-0.018l-40.108,0.008l-76.792-0.008
		c-1.85,0-3.457-0.533-4.698-1.441c-0.85-0.624-1.524-1.432-1.999-2.373h-0.017c-0.45-0.9-0.684-1.908-0.675-2.991h-0.024
		c0-1.582,0.549-3.273,1.74-4.89l16.802-22.848l-0.017-0.025l1.541-2.041l0.182-0.259v0.009l0.034-0.051l20.774-27.612
		c0.733-0.975,1.533-1.783,2.383-2.416c1.625-1.224,3.398-1.824,5.239-1.815c1.841,0.008,3.599,0.624,5.181,1.815
		c0.859,0.642,1.658,1.45,2.383,2.416l19.833,26.372l9.597-12.762c0.725-0.966,1.523-1.774,2.373-2.415
		c1.6-1.191,3.365-1.808,5.207-1.808c1.841-0.008,3.606,0.591,5.223,1.808c0.85,0.633,1.649,1.44,2.382,2.415l10.528,14.002
		L457.997,409.938z M466.394,437.344l-16.044-21.807l-0.674-0.916l-9.813-13.045l-0.025-0.033l-0.017,0.033l-11.087,14.735
		l-2.29,3.048l-3.791,5.031l-3.782-5.031l-2.298-3.048l-21.325-28.347l-0.016-0.033l-0.025,0.033l-20.143,26.771l-0.599,0.809
		l-16.027,21.799l72.345,0.018L466.394,437.344z"/>
	<path fill="#34495E" d="M465.103,351.489c5.798,0,11.045,2.357,14.852,6.164l0.017,0.008c3.807,3.807,6.156,9.063,6.156,14.853
		c0,5.797-2.35,11.045-6.156,14.852l-0.017,0.017c-3.807,3.798-9.054,6.155-14.852,6.155c-5.806,0-11.062-2.357-14.86-6.155
		c-3.807-3.807-6.164-9.063-6.164-14.869c0-5.79,2.357-11.046,6.164-14.853l0.016-0.008
		C454.064,353.846,459.313,351.489,465.103,351.489 M455.032,403.025h0.008l0.142,0.199l2.666,3.54l-0.042,0.025l15.96,21.691
		c1.142,1.549,1.624,3.114,1.624,4.598h-0.017c0,1.158-0.291,2.216-0.791,3.14c-0.483,0.876-1.149,1.616-1.941,2.2
		c-1.316,0.966-3.007,1.499-4.706,1.499v-0.017l-40.108,0.009l-76.792-0.009c-1.85-0.008-3.458-0.533-4.69-1.441
		c-0.857-0.633-1.533-1.433-2.007-2.383h-0.017c-0.45-0.891-0.684-1.898-0.675-2.99h-0.025c0-1.582,0.55-3.273,1.741-4.88
		l16.801-22.85l-0.017-0.033l1.541-2.041l0.184-0.25l0,0l0.033-0.041l20.775-27.613c0.732-0.975,1.541-1.783,2.381-2.424
		c1.633-1.216,3.399-1.816,5.24-1.808c1.841,0.008,3.599,0.625,5.181,1.816c0.858,0.641,1.658,1.449,2.383,2.416l19.834,26.372
		l9.596-12.761c0.725-0.966,1.523-1.775,2.373-2.416c1.6-1.199,3.365-1.808,5.215-1.816c1.832,0,3.598,0.6,5.215,1.816
		c0.85,0.633,1.649,1.441,2.382,2.416l10.529,13.994L455.032,403.025z"/>
	<path fill-rule="evenodd" clip-rule="evenodd" fill="#39D4FF" d="M465.103,356.886c4.156,0,8.097,1.641,11.037,4.573l0.017,0.025
		c2.94,2.932,4.581,6.872,4.581,11.029s-1.641,8.097-4.581,11.037l-0.017,0.017c-2.94,2.941-6.881,4.582-11.037,4.582
		c-4.165,0-8.105-1.641-11.054-4.582c-2.94-2.94-4.573-6.889-4.573-11.053c0-4.157,1.633-8.097,4.573-11.029l0.016-0.025
		C457.006,358.519,460.945,356.886,465.103,356.886"/>
	<path fill-rule="evenodd" clip-rule="evenodd" fill="#39D4FF" d="M419.697,410.723l13.91-18.493c0.375-0.5,0.809-0.975,1.308-1.342
		c0.583-0.449,1.225-0.732,1.974-0.732c0.742,0,1.384,0.292,1.967,0.732c0.5,0.367,0.933,0.842,1.307,1.342l10.671,14.186
		l18.585,25.264c0.216,0.284,0.425,0.641,0.524,0.991l0.033,0.134v0.434l-0.033,0.133c-0.084,0.291-0.259,0.524-0.5,0.699
		c-0.316,0.233-0.717,0.366-1.1,0.416l-0.075,0.018l-40.441,0.017l-76.792-0.017c-0.5,0-1.092-0.092-1.491-0.392l-0.217-0.149
		l-0.291-0.609v-0.541l0.024-0.116c0.101-0.45,0.366-0.925,0.642-1.292l18.367-24.98l20.925-27.805
		c0.374-0.5,0.808-0.975,1.308-1.35c0.592-0.441,1.225-0.733,1.974-0.725c0.75,0,1.383,0.292,1.975,0.733
		c0.5,0.375,0.933,0.842,1.308,1.35L419.697,410.723z"/>
	<path fill="#D7D7D7" d="M445.869,523.957h-58.793c-2.256,0-4.314,0.926-5.805,2.425c-1.492,1.491-2.424,3.548-2.424,5.806
		c0,2.266,0.924,4.323,2.407,5.806l0.017,0.018c1.482,1.481,3.539,2.407,5.805,2.407h58.793c2.258,0,4.314-0.934,5.806-2.425
		s2.424-3.548,2.424-5.806c0-2.266-0.933-4.323-2.415-5.814C450.192,524.883,448.135,523.957,445.869,523.957 M387.076,515.903
		h58.793c4.465,0,8.538,1.832,11.486,4.78l0.018,0.018c2.947,2.948,4.772,7.013,4.772,11.486c0,4.481-1.825,8.555-4.772,11.503
		c-2.949,2.949-7.023,4.782-11.504,4.782h-58.793c-4.464,0-8.529-1.833-11.486-4.782l-0.008-0.008l-0.008-0.008
		c-2.949-2.957-4.782-7.022-4.782-11.487c0-4.481,1.833-8.555,4.782-11.504C378.522,517.735,382.596,515.903,387.076,515.903z"/>
	<path fill="#34495E" d="M383.878,509.247h58.792c4.474,0,8.539,1.832,11.486,4.781l0.018,0.018
		c2.949,2.948,4.781,7.014,4.781,11.485c0,4.482-1.832,8.556-4.781,11.504c-2.948,2.949-7.021,4.782-11.504,4.782h-58.792
		c-4.464,0-8.529-1.833-11.485-4.782v-0.008l-0.018-0.009c-2.949-2.956-4.772-7.021-4.772-11.487c0-4.481,1.823-8.555,4.772-11.503
		C375.323,511.079,379.396,509.247,383.878,509.247"/>
	<path fill="#27CABF" d="M442.67,514.096c3.041,0,5.939,1.198,8.088,3.349c2.142,2.148,3.35,5.047,3.35,8.087
		c0,3.041-1.208,5.932-3.357,8.081c-2.148,2.141-5.039,3.356-8.08,3.356h-58.792c-3.032,0-5.931-1.199-8.079-3.34l-0.008-0.017
		c-2.15-2.149-3.35-5.049-3.35-8.081c0-3.04,1.216-5.931,3.357-8.079c2.148-2.149,5.047-3.356,8.079-3.356H442.67z"/>
	<path fill="#51F4E9" d="M442.67,514.096c3.041,0,5.939,1.198,8.088,3.349c2.142,2.148,3.35,5.047,3.35,8.087
		c0,0.784-0.075,1.55-0.233,2.3c-0.45-2.174-1.524-4.182-3.116-5.781c-2.148-2.148-5.047-3.349-8.088-3.349h-58.792
		c-3.032,0-5.931,1.208-8.079,3.357c-1.592,1.6-2.674,3.606-3.124,5.78c-0.15-0.749-0.233-1.523-0.233-2.308
		c0-3.04,1.216-5.931,3.357-8.079c2.148-2.149,5.047-3.356,8.079-3.356H442.67z"/>
	<path fill-rule="evenodd" clip-rule="evenodd" fill="#BCC2C6" d="M361.305,483.608h107.139c2.165,0,3.922,1.766,3.922,3.931l0,0
		c0,2.158-1.757,3.924-3.922,3.924H361.305c-2.157,0-3.924-1.766-3.924-3.924l0,0C357.381,485.374,359.147,483.608,361.305,483.608"
		/>
	<path opacity="0.5" fill-rule="evenodd" clip-rule="evenodd" fill="#34495E" d="M218.572,257.195c-2.174,0-4.239,0.867-5.772,2.399
		c-1.541,1.541-2.406,3.607-2.406,5.781V567.48c0,2.174,0.865,4.24,2.406,5.781c1.533,1.541,3.599,2.407,5.772,2.407h392.603
		c2.174,0,4.24-0.866,5.781-2.407c1.532-1.541,2.398-3.598,2.398-5.781V265.375c0-2.182-0.866-4.24-2.398-5.781
		c-1.541-1.532-3.607-2.399-5.781-2.399H218.572z"/>
	<path fill-rule="evenodd" clip-rule="evenodd" fill="#FFFFFF" d="M578.555,277.12l6.214,6.214l6.214-6.214
		c1.524-1.533,4.023-1.533,5.557,0l0,0c1.533,1.524,1.533,4.023,0,5.548l-6.214,6.223l6.214,6.214c1.533,1.524,1.533,4.023,0,5.556
		l0,0c-1.533,1.533-4.032,1.533-5.557,0l-6.214-6.214l-6.214,6.214c-1.532,1.533-4.031,1.533-5.557,0l0,0
		c-1.531-1.532-1.531-4.032,0-5.556l6.215-6.214l-6.215-6.223c-1.531-1.524-1.531-4.023,0-5.548l0,0
		C574.523,275.587,577.022,275.587,578.555,277.12"/>
	<path fill="#34495E" d="M293.816,314.604h242.115c2.381,0,4.557,0.975,6.122,2.549c1.574,1.566,2.549,3.74,2.549,6.122v186.313
		c0,2.382-0.975,4.548-2.549,6.122c-1.565,1.574-3.741,2.541-6.122,2.541H293.816c-2.383,0-4.557-0.967-6.123-2.541
		c-1.573-1.574-2.549-3.74-2.549-6.122V323.275c0-2.382,0.976-4.556,2.549-6.122C289.26,315.579,291.434,314.604,293.816,314.604"/>
	<path fill-rule="evenodd" clip-rule="evenodd" fill="#FFFFFF" d="M293.816,320.485c-0.742,0-1.441,0.292-1.975,0.816
		c-0.525,0.533-0.816,1.232-0.816,1.974v186.313c0,0.741,0.291,1.44,0.825,1.966c0.524,0.524,1.224,0.824,1.966,0.824h242.115
		c0.74,0,1.44-0.292,1.965-0.824c0.533-0.525,0.824-1.225,0.824-1.966V323.275c0-0.742-0.291-1.441-0.814-1.974
		c-0.534-0.525-1.234-0.816-1.975-0.816H293.816z"/>
	<path fill-rule="evenodd" clip-rule="evenodd" fill="#BCC2C6" d="M330.518,374.404H499.23c2.74,0,4.973,2.24,4.973,4.973v15.252
		c0,2.732-2.241,4.973-4.973,4.973H330.518c-2.732,0-4.974-2.241-4.974-4.973v-15.252
		C325.544,376.645,327.777,374.404,330.518,374.404"/>
	<rect x="331.426" y="380.276" fill-rule="evenodd" clip-rule="evenodd" fill="#FFFFFF" width="166.904" height="13.444"/>
	<path fill-rule="evenodd" clip-rule="evenodd" fill="#BCC2C6" d="M330.518,416.603H499.23c2.74,0,4.973,2.241,4.973,4.973v15.253
		c0,2.731-2.241,4.973-4.973,4.973H330.518c-2.732,0-4.974-2.241-4.974-4.973v-15.253
		C325.544,418.836,327.777,416.603,330.518,416.603"/>
	<rect x="331.426" y="422.476" fill-rule="evenodd" clip-rule="evenodd" fill="#FFFFFF" width="166.904" height="13.444"/>
	<path fill="#BCC2C6" d="M445.861,471.88h-58.785c-2.266,0-4.314,0.933-5.805,2.424c-1.492,1.49-2.424,3.549-2.424,5.806
		c0,2.266,0.924,4.331,2.407,5.807l0.017,0.016c1.482,1.483,3.531,2.407,5.805,2.407h58.785c2.266,0,4.322-0.924,5.813-2.423
		c1.491-1.491,2.416-3.55,2.416-5.807c0-2.266-0.925-4.323-2.407-5.814C450.192,472.813,448.127,471.88,445.861,471.88
		 M387.076,463.824h58.785c4.473,0,8.546,1.833,11.494,4.781l0.018,0.018c2.939,2.948,4.772,7.014,4.772,11.486
		c0,4.481-1.833,8.555-4.772,11.503c-2.958,2.95-7.023,4.782-11.512,4.782h-58.785c-4.464,0-8.529-1.832-11.486-4.782l-0.008-0.008
		l-0.008-0.008c-2.949-2.957-4.782-7.022-4.782-11.487c0-4.48,1.833-8.555,4.782-11.504
		C378.522,465.657,382.596,463.824,387.076,463.824z"/>
	<path fill="#34495E" d="M383.878,457.169h58.792c4.465,0,8.539,1.832,11.486,4.782l0.018,0.016
		c2.949,2.957,4.781,7.022,4.781,11.487c0,4.49-1.832,8.554-4.781,11.503c-2.948,2.949-7.021,4.781-11.504,4.781h-58.792
		c-4.464,0-8.529-1.832-11.485-4.781l-0.01-0.008l-0.008-0.009c-2.949-2.957-4.781-7.021-4.781-11.486
		c0-4.481,1.832-8.555,4.781-11.503C375.323,459.001,379.396,457.169,383.878,457.169"/>
	<path fill="#27CABF" d="M442.67,462.017c3.032,0,5.939,1.209,8.08,3.349c2.149,2.158,3.357,5.057,3.357,8.089
		c0,3.04-1.217,5.931-3.357,8.08c-2.148,2.148-5.039,3.364-8.08,3.364h-58.792c-3.032,0-5.931-1.198-8.079-3.349l-0.018-0.016
		c-2.141-2.141-3.34-5.04-3.34-8.08c0-3.032,1.216-5.931,3.357-8.08c2.148-2.141,5.039-3.357,8.079-3.357H442.67z"/>
	<path fill="#51F4E9" d="M442.67,462.017c3.032,0,5.939,1.209,8.08,3.349c2.149,2.158,3.357,5.057,3.357,8.089
		c0,0.783-0.084,1.55-0.233,2.299c-0.45-2.175-1.524-4.182-3.124-5.772c-2.141-2.149-5.048-3.356-8.08-3.356h-58.792
		c-3.04,0-5.931,1.216-8.079,3.364c-1.592,1.591-2.674,3.599-3.124,5.781c-0.158-0.758-0.233-1.532-0.233-2.315
		c0-3.032,1.216-5.931,3.357-8.08c2.148-2.141,5.039-3.357,8.079-3.357H442.67z"/>
	<path fill-rule="evenodd" clip-rule="evenodd" fill="#BCC2C6" d="M381.938,346.491h65.873c2.29,0,4.155,1.874,4.155,4.157v0.008
		c0,2.282-1.865,4.157-4.155,4.157h-65.873c-2.291,0-4.157-1.875-4.157-4.157v-0.008
		C377.78,348.365,379.646,346.491,381.938,346.491"/>
	<!-- <path fill-rule="evenodd" clip-rule="evenodd" fill="#94A4A5" d="M454.482,224.608c-2.283-0.025-4.573,0-6.856,0v14.569h2.741
		v-4.282h4.115C461.612,234.896,461.596,224.608,454.482,224.608 M450.367,227.224h4.115c3.498,0,3.515,5.156,0,5.156h-4.115
		V227.224z M440.58,224.65v8.338c0,2.491-1.283,4.006-3.549,4.006s-3.766-1.391-3.766-4.006v-8.338h-2.724v8.338
		c0,4.381,2.974,6.506,6.464,6.506c3.657,0,6.298-2.208,6.298-6.506v-8.338H440.58z M419.446,233.646l-7.13-9.038h-2.224v14.569
		h2.74v-9.821l7.654,9.821h1.7v-14.569h-2.741V233.646z M405.602,226.441c-1.49-1.482-3.447-2.232-5.405-2.232
		c-5.131,0-7.688,3.79-7.688,7.88c0,3.832,2.225,7.43,7.688,7.43c2.558,0,4.364-0.983,5.806-2.624v-6.131h-6.238v2.449h3.723v2.583
		c-1.148,0.908-2.148,1.158-3.29,1.158c-3.614,0-5.006-2.465-5.006-4.864c0-2.99,1.892-5.356,5.006-5.356
		c1.274,0,2.724,0.517,3.707,1.45L405.602,226.441z M388.876,239.178v-14.569h-2.724v14.569H388.876z M381.921,227.016
		c-1.108-2.241-3.456-2.882-5.722-2.882c-2.684,0.017-5.632,1.241-5.632,4.24c0,3.265,2.741,4.048,5.714,4.406
		c1.933,0.208,3.365,0.767,3.365,2.141c0,1.583-1.615,2.182-3.348,2.182c-1.758,0-3.449-0.708-4.091-2.307l-2.29,1.183
		c1.083,2.666,3.373,3.574,6.347,3.574c3.241,0,6.106-1.391,6.106-4.631c0-3.474-2.824-4.265-5.865-4.64
		c-1.74-0.208-3.239-0.558-3.239-1.825c0-1.083,0.974-1.932,3.015-1.932c1.583,0,2.957,0.783,3.449,1.616L381.921,227.016z"/> -->
</g>
</svg>
