<?xml version="1.0" encoding="utf-8"?>
<!-- Generator: Adobe Illustrator 15.1.0, SVG Export Plug-In . SVG Version: 6.00 Build 0)  -->
<!DOCTYPE svg PUBLIC "-//W3C//DTD SVG 1.0//EN" "http://www.w3.org/TR/2001/REC-SVG-20010904/DTD/svg10.dtd">
<svg version="1.0" id="Layer_1" xmlns="http://www.w3.org/2000/svg" xmlns:xlink="http://www.w3.org/1999/xlink" x="0px" y="0px"
	 width="800px" height="800px" viewBox="0 0 800 800" enable-background="new 0 0 800 800" xml:space="preserve">
<g id="Header">
	<path fill="#BCC2C6" d="M33.1,34.5h736.2c8.5,0,16.1,3.5,21.7,9l0,0c5.6,5.6,9,13.2,9,21.7v654.6c0,8.4-3.5,16.1-9,21.7l0,0
		c-5.6,5.6-13.2,9-21.7,9H33.1c-8.5,0-16.1-3.5-21.7-9l0,0c-5.6-5.6-9-13.2-9-21.7V65.2c0-8.4,3.5-16.1,9-21.7l0,0
		C16.9,38,24.6,34.5,33.1,34.5"/>
	<path fill="#EBEFF0" d="M788.9,65.2v654.6c0,12.3-8.6,19.6-19.6,19.6H33.1c-11,0-19.6-7-19.6-19.6V65.2c0-12.8,8.6-19.6,19.6-19.6
		h736.2C780.2,45.6,788.9,52.7,788.9,65.2"/>
	<path fill="#94A4A5" d="M677.6,72.3c7.8,0,14.2,6.4,14.2,14.2s-6.3,14.2-14.2,14.2c-7.9,0-14.2-6.3-14.2-14.2
		C663.4,78.7,669.7,72.3,677.6,72.3 M722.1,72.3c7.8,0,14.2,6.4,14.2,14.2s-6.4,14.2-14.2,14.2c-7.8,0-14.2-6.3-14.2-14.2
		C707.9,78.7,714.3,72.3,722.1,72.3z M633,72.3c7.8,0,14.2,6.4,14.2,14.2s-6.3,14.2-14.2,14.2c-7.8,0-14.2-6.4-14.2-14.2
		S625.2,72.3,633,72.3z"/>
	
		<text transform="matrix(1 0 0 1 138.0015 85.2969)" fill="#93A2A3" font-family="'NexaBold'" font-size="44.0749" letter-spacing="2">FEATURES</text>
</g>
<g id="Body">
	<path fill="#BCC2C6" d="M26.7,125.4h746.1c7.4,0,14,3,18.9,7.8c4.8,4.8,7.8,11.5,7.8,18.9v574.2c0,7.4-3,14-7.8,18.9
		c-4.8,4.8-11.5,7.8-18.9,7.8H26.7c-7.4,0-14-3-18.9-7.8C3,740.3,0,733.6,0,726.2V152.1c0-7.4,3-14,7.8-18.9
		C12.7,128.4,19.4,125.4,26.7,125.4"/>
	<path fill="#FFFFFF" d="M26.7,136.5c-4.1,0-8.1,1.7-11,4.6c-2.9,2.9-4.6,6.9-4.6,11v574.2c0,4.1,1.6,8.1,4.6,11
		c2.9,2.9,6.8,4.6,11,4.6h746.1c4.1,0,8.1-1.7,11-4.6c2.9-2.9,4.6-6.8,4.6-11V152.1c0-4.1-1.7-8.1-4.6-11c-2.9-2.9-6.8-4.6-11-4.6
		H26.7z"/>
	<path fill="#BCC2C6" d="M84.5,328.3h230.8c4.1,0,7.5,3.4,7.5,7.5c0,4.1-3.4,7.5-7.5,7.5H84.5c-4.1,0-7.5-3.4-7.5-7.5
		C77.1,331.7,80.4,328.3,84.5,328.3"/>
	<path fill="#BCC2C6" d="M84.5,365.8h230.8c4.1,0,7.5,3.4,7.5,7.5c0,4.1-3.4,7.5-7.5,7.5H84.5c-4.1,0-7.5-3.4-7.5-7.5
		C77.1,369.2,80.4,365.8,84.5,365.8"/>
	<path fill="#BCC2C6" d="M84.5,403.4h107.9c4.1,0,7.5,3.4,7.5,7.5c0,4.1-3.4,7.5-7.5,7.5H84.5c-4.1,0-7.5-3.4-7.5-7.5
		C77,406.8,80.4,403.4,84.5,403.4"/>
	<path fill="#34495E" d="M199.9,177.3c34.9,0,63.2,28.3,63.2,63.2s-28.3,63.2-63.2,63.2s-63.2-28.3-63.2-63.2
		C136.7,205.5,165,177.3,199.9,177.3"/>
	<path fill="#22A6EF" d="M199.9,188.4c28.7,0,52,23.3,52,52c0,28.7-23.3,52-52,52c-28.7,0-52-23.3-52-52
		C147.9,211.7,171.2,188.4,199.9,188.4"/>
	<path fill="#BCC2C6" d="M484.3,328.3H715c4.1,0,7.5,3.4,7.5,7.5c0,4.1-3.4,7.5-7.5,7.5H484.3c-4.1,0-7.5-3.4-7.5-7.5
		C476.8,331.7,480.2,328.3,484.3,328.3"/>
	<path fill="#BCC2C6" d="M484.3,365.8H715c4.1,0,7.5,3.4,7.5,7.5c0,4.1-3.4,7.5-7.5,7.5H484.3c-4.1,0-7.5-3.4-7.5-7.5
		C476.8,369.2,480.2,365.8,484.3,365.8"/>
	<path fill="#BCC2C6" d="M484.3,403.4h107.9c4.1,0,7.5,3.4,7.5,7.5c0,4.1-3.4,7.5-7.5,7.5H484.3c-4.1,0-7.5-3.4-7.5-7.5
		C476.8,406.8,480.2,403.4,484.3,403.4"/>
	<path fill="#34495E" d="M599.7,177.3c34.9,0,63.2,28.3,63.2,63.2s-28.3,63.2-63.2,63.2c-34.9,0-63.2-28.3-63.2-63.2
		C536.5,205.5,564.8,177.3,599.7,177.3"/>
	<path fill="#22A6EF" d="M599.7,188.4c28.7,0,52,23.3,52,52c0,28.7-23.3,52-52,52s-52-23.3-52-52
		C547.6,211.7,570.9,188.4,599.7,188.4"/>
	<path fill="#BCC2C6" d="M84.5,611.1h230.8c4.1,0,7.5,3.4,7.5,7.5l0,0c0,4.1-3.4,7.5-7.5,7.5H84.5c-4.1,0-7.5-3.4-7.5-7.5l0,0
		C77.1,614.4,80.4,611.1,84.5,611.1"/>
	<path fill="#BCC2C6" d="M84.5,648.6h230.8c4.1,0,7.5,3.4,7.5,7.5l0,0c0,4.1-3.4,7.5-7.5,7.5H84.5c-4.1,0-7.5-3.3-7.5-7.5l0,0
		C77.1,652,80.4,648.6,84.5,648.6"/>
	<path fill="#BCC2C6" d="M84.5,686.1h107.9c4.1,0,7.5,3.4,7.5,7.5l0,0c0,4.1-3.4,7.5-7.5,7.5H84.5c-4.1,0-7.5-3.4-7.5-7.5l0,0
		C77.1,689.5,80.4,686.1,84.5,686.1"/>
	<path fill="#34495E" d="M199.9,460c34.9,0,63.2,28.3,63.2,63.2c0,34.9-28.3,63.2-63.2,63.2s-63.2-28.3-63.2-63.2
		C136.7,488.3,165,460,199.9,460"/>
	<path fill="#22A6EF" d="M199.9,471.2c28.7,0,52,23.3,52,52s-23.3,52-52,52c-28.7,0-52-23.3-52-52S171.2,471.2,199.9,471.2"/>
	<path fill="#BCC2C6" d="M484.3,611.1H715c4.1,0,7.5,3.4,7.5,7.5l0,0c0,4.1-3.4,7.5-7.5,7.5H484.3c-4.1,0-7.5-3.4-7.5-7.5l0,0
		C476.8,614.4,480.2,611.1,484.3,611.1"/>
	<path fill="#BCC2C6" d="M484.3,648.6H715c4.1,0,7.5,3.4,7.5,7.5l0,0c0,4.1-3.4,7.5-7.5,7.5H484.3c-4.1,0-7.5-3.3-7.5-7.5l0,0
		C476.8,652,480.2,648.6,484.3,648.6"/>
	<path fill="#BCC2C6" d="M484.3,686.1h107.9c4.1,0,7.5,3.4,7.5,7.5l0,0c0,4.1-3.4,7.5-7.5,7.5H484.3c-4.1,0-7.5-3.4-7.5-7.5l0,0
		C476.8,689.5,480.2,686.1,484.3,686.1"/>
	<path fill="#34495E" d="M599.7,460c34.9,0,63.2,28.3,63.2,63.2c0,34.9-28.3,63.2-63.2,63.2c-34.9,0-63.2-28.3-63.2-63.2
		C536.5,488.3,564.8,460,599.7,460"/>
	<path fill="#22A6EF" d="M599.7,471.2c28.7,0,52,23.3,52,52s-23.3,52-52,52s-52-23.3-52-52C547.6,494.5,570.9,471.2,599.7,471.2"/>
</g>
</svg>
