<?xml version="1.0" encoding="utf-8"?>
<!-- Generator: Adobe Illustrator 15.1.0, SVG Export Plug-In . SVG Version: 6.00 Build 0)  -->
<!DOCTYPE svg PUBLIC "-//W3C//DTD SVG 1.0//EN" "http://www.w3.org/TR/2001/REC-SVG-20010904/DTD/svg10.dtd">
<svg version="1.0" id="Layer_1" xmlns="http://www.w3.org/2000/svg" xmlns:xlink="http://www.w3.org/1999/xlink" x="0px" y="0px"
	 width="800px" height="800px" viewBox="0 0 800 800" enable-background="new 0 0 800 800" xml:space="preserve">
<g id="Header">
	<path fill="#BCC2C6" d="M33.1,34.5h736.2c8.5,0,16.1,3.5,21.7,9v0c5.6,5.6,9,13.2,9,21.7v654.6c0,8.4-3.5,16.1-9,21.7v0
		c-5.6,5.6-13.2,9-21.7,9H33.1c-8.5,0-16.1-3.5-21.7-9v0c-5.6-5.6-9-13.2-9-21.7V65.2c0-8.4,3.5-16.1,9-21.7v0
		C16.9,38,24.6,34.5,33.1,34.5"/>
	<path fill="#EBEFF0" d="M788.9,65.2v654.6c0,12.3-8.6,19.6-19.6,19.6H33.1c-11,0-19.6-7-19.6-19.6V65.2c0-12.8,8.6-19.6,19.6-19.6
		h736.2C780.2,45.6,788.9,52.7,788.9,65.2"/>
	<path fill-rule="evenodd" clip-rule="evenodd" fill="#94A4A5" d="M677.6,72.3c7.8,0,14.2,6.4,14.2,14.2c0,7.8-6.3,14.2-14.2,14.2
		s-14.2-6.3-14.2-14.2C663.4,78.7,669.7,72.3,677.6,72.3 M722.1,72.3c7.8,0,14.2,6.4,14.2,14.2c0,7.8-6.4,14.2-14.2,14.2
		c-7.8,0-14.2-6.3-14.2-14.2C707.9,78.7,714.3,72.3,722.1,72.3z M633,72.3c7.8,0,14.2,6.4,14.2,14.2c0,7.8-6.3,14.2-14.2,14.2
		c-7.8,0-14.2-6.4-14.2-14.2C618.8,78.7,625.2,72.3,633,72.3z"/>
	
		<text transform="matrix(1 0 0 1 275.0015 99.2964)" fill="#93A2A3" font-family="'NexaBold'" font-size="44.0749" letter-spacing="3">FEATURES</text>
</g>
<g id="Body">
	<path fill="#BCC2C6" d="M29.1,122.7h744.2c7.3,0,14,3,18.8,7.8c4.8,4.8,7.8,11.5,7.8,18.8v572.7c0,7.3-3,14-7.8,18.8
		c-4.8,4.8-11.5,7.8-18.8,7.8H29.1c-7.3,0-14-3-18.8-7.8c-4.8-4.8-7.8-11.5-7.8-18.8V149.4c0-7.3,3-14,7.8-18.8
		C15.1,125.7,21.8,122.7,29.1,122.7"/>
	<path fill="#FFFFFF" d="M29.1,133.9c-4.1,0-8,1.6-10.9,4.6c-2.9,2.9-4.6,6.8-4.6,11v572.7c0,4.1,1.6,8,4.6,10.9
		c2.9,2.9,6.8,4.6,10.9,4.6h744.2c4.1,0,8-1.6,11-4.6c2.9-2.9,4.5-6.8,4.5-10.9V149.4c0-4.1-1.6-8-4.5-11c-2.9-2.9-6.8-4.6-11-4.6
		H29.1z"/>
	<path fill="#34495E" d="M156.5,233.9h168.1c13.5,0,25.7,5.5,34.6,14.4l0,0c8.9,8.9,14.4,21.1,14.4,34.6v305.7
		c0,13.5-5.5,25.7-14.4,34.6c-8.9,8.9-21.1,14.4-34.6,14.4H156.5c-13.5,0-25.7-5.5-34.6-14.4l0,0c-8.9-8.9-14.4-21.1-14.4-34.6
		V282.9c0-13.4,5.5-25.7,14.4-34.6l0,0v0C130.8,239.4,143,233.9,156.5,233.9"/>
	<path fill-rule="evenodd" clip-rule="evenodd" fill="#FFFFFF" d="M348.9,253.8h0.3l2.3,2.3c7.1,7.1,11.1,16.8,11.1,26.9v305.7
		c0,10.1-4,19.7-11.2,26.9c-7.2,7.1-16.8,11.2-26.9,11.2H156.5c-10.1,0-19.7-4-26.9-11.1l-2.3-2.3V613c-5.7-6.8-8.9-15.4-8.9-24.4
		V282.9c0-10.1,4-19.7,11.1-26.9l0,0c7.1-7.1,16.8-11.1,26.9-11.1h168.1C333.5,244.9,342.1,248.1,348.9,253.8"/>
	<path fill="#34495E" d="M155.1,300.2h170.7c5,0,9.5,2,12.7,5.3c3.3,3.3,5.3,7.8,5.3,12.7v223.1c0,5-2,9.5-5.3,12.7
		c-3.3,3.3-7.8,5.3-12.7,5.3H155.1c-5,0-9.5-2-12.7-5.3c-3.3-3.3-5.3-7.8-5.3-12.7V318.2c0-5,2-9.5,5.3-12.7
		C145.7,302.2,150.2,300.2,155.1,300.2"/>
	<path fill="#22A6EF" d="M155.1,311.1h170.7c1.9,0,3.7,0.8,5,2.1c1.3,1.3,2.1,3.1,2.1,5v223.1c0,1.9-0.7,3.7-2.1,5
		c-1.3,1.3-3.1,2.1-5,2.1H155.1c-1.9,0-3.7-0.8-5-2.1c-1.3-1.3-2.1-3.1-2.1-5V318.2c0-1.9,0.7-3.7,2.1-5
		C151.5,311.8,153.2,311.1,155.1,311.1"/>
	<path fill-rule="evenodd" clip-rule="evenodd" fill="#34495E" d="M240.5,568.3c10.7,0,19.4,8.7,19.4,19.4s-8.7,19.4-19.4,19.4
		c-10.7,0-19.4-8.7-19.4-19.4S229.8,568.3,240.5,568.3"/>
	<path fill="#34495E" d="M203.8,279.3h73.3c3,0,5.5-2.5,5.5-5.5v0c0-3-2.5-5.5-5.5-5.5h-73.3c-3,0-5.5,2.5-5.5,5.5v0
		C198.4,276.9,200.8,279.3,203.8,279.3"/>
	<path opacity="0.15" d="M305.6,402.1c-2.3-2.3-5.4-3.7-8.9-3.7c-3.5,0-6.6,1.4-8.9,3.7c-2.3,2.3-3.6,5.4-3.6,8.9
		c0,3.5,1.4,6.6,3.7,8.9c2.3,2.3,5.4,3.7,8.9,3.7c3.5,0,6.6-1.4,8.9-3.7c2.3-2.3,3.7-5.4,3.7-8.9
		C309.2,407.5,307.8,404.4,305.6,402.1 M296.7,388.1c6.3,0,12,2.6,16.1,6.7l0,0c4.1,4.1,6.7,9.8,6.7,16.1c0,6.3-2.6,12-6.7,16.1l0,0
		c-4.1,4.2-9.8,6.7-16.1,6.7c-6.3,0-12-2.6-16.2-6.7c-4.1-4.1-6.7-9.8-6.7-16.2c0-6.3,2.6-12,6.7-16.1l0,0
		C284.7,390.7,290.4,388.1,296.7,388.1z M285.8,444.2L285.8,444.2l0.2,0.2l2.9,3.9l0,0l17.3,23.6c1.2,1.7,1.8,3.4,1.8,5h0
		c0,1.3-0.3,2.4-0.9,3.4c-0.5,0.9-1.2,1.7-2.1,2.4c-1.4,1.1-3.3,1.6-5.1,1.6v0l-43.6,0l-83.5,0c-2,0-3.8-0.6-5.1-1.5
		c-0.9-0.7-1.7-1.6-2.2-2.6h0c-0.5-1-0.7-2.1-0.7-3.3h0c0-1.7,0.6-3.6,1.9-5.3l18.3-24.9l0,0l1.7-2.2l0.2-0.3l0,0l0,0l22.6-30
		c0.8-1.1,1.7-1.9,2.6-2.6c1.8-1.3,3.7-2,5.7-2c2,0,3.9,0.7,5.6,2c0.9,0.7,1.8,1.6,2.6,2.6l21.6,28.7l10.4-13.9
		c0.8-1,1.7-1.9,2.6-2.6c1.7-1.3,3.6-2,5.7-2c2,0,3.9,0.6,5.7,2c0.9,0.7,1.8,1.6,2.6,2.6L285.8,444.2L285.8,444.2z M294.9,474
		l-17.4-23.7l-0.7-1l-10.7-14.2l0,0l0,0l-12,16l-2.5,3.3l-4.1,5.5l-4.1-5.5l-2.5-3.3l-23.2-30.8l0,0l0,0l-21.9,29.1l-0.6,0.9
		L177.5,474h78.7H294.9z"/>
	<path fill="#34495E" d="M293.5,377.9c6.3,0,12,2.6,16.1,6.7l0,0c4.1,4.2,6.7,9.9,6.7,16.2c0,6.3-2.6,12-6.7,16.1l0,0
		c-4.1,4.1-9.9,6.7-16.1,6.7c-6.3,0-12-2.6-16.2-6.7c-4.1-4.1-6.7-9.9-6.7-16.2c0-6.3,2.6-12,6.7-16.2l0,0
		C281.5,380.5,287.2,377.9,293.5,377.9 M282.6,434L282.6,434l0.1,0.2l2.9,3.9l0,0l17.4,23.6c1.2,1.7,1.8,3.4,1.8,5h0
		c0,1.2-0.3,2.4-0.9,3.4c-0.5,0.9-1.2,1.8-2.1,2.4c-1.4,1-3.3,1.6-5.1,1.6v0l-43.6,0l-83.5,0c-2,0-3.8-0.6-5.1-1.6
		c-0.9-0.7-1.7-1.6-2.2-2.6h0c-0.5-1-0.7-2.1-0.7-3.3h0c0-1.7,0.6-3.6,1.9-5.3l18.3-24.8l0,0l1.7-2.2l0.2-0.3v0l0,0l22.6-30
		c0.8-1.1,1.7-1.9,2.6-2.6c1.8-1.3,3.7-2,5.7-2c2,0,3.9,0.7,5.6,2c0.9,0.7,1.8,1.6,2.6,2.6l21.6,28.7l10.4-13.9
		c0.8-1.1,1.7-1.9,2.6-2.6c1.7-1.3,3.6-2,5.7-2c2,0,3.9,0.7,5.7,2c0.9,0.7,1.8,1.6,2.6,2.6L282.6,434L282.6,434z"/>
	<path fill-rule="evenodd" clip-rule="evenodd" fill="#39D4FF" d="M293.5,386.3c-3.9,0-7.5,1.5-10.3,4.3l0,0
		c-2.7,2.7-4.2,6.3-4.2,10.2c0,3.9,1.5,7.5,4.2,10.3c2.7,2.7,6.4,4.2,10.3,4.2c3.9,0,7.5-1.5,10.3-4.3l0,0c2.7-2.7,4.2-6.4,4.2-10.2
		c0-3.9-1.5-7.5-4.2-10.2l-0.1-0.1C301,387.8,297.4,386.3,293.5,386.3 M170.4,465.7l82.5,0l42.6,0L276,439.1l-11.6-15.4
		c-0.3-0.3-0.6-0.7-0.9-1c-0.2-0.1-0.4-0.3-0.6-0.3c-0.3,0-0.5,0.2-0.7,0.3c-0.3,0.3-0.7,0.6-0.9,1l-17.1,22.7l-28.2-37.5
		c-0.3-0.3-0.6-0.7-0.9-1c-0.2-0.1-0.4-0.3-0.7-0.3c-0.2,0-0.5,0.2-0.6,0.3c-0.4,0.3-0.7,0.6-0.9,1L190,439.1L170.4,465.7z"/>
	<path fill-rule="evenodd" clip-rule="evenodd" fill="#BCC2C6" d="M460.8,353.4H723c4.1,0,7.4,3.4,7.4,7.4v0c0,4.1-3.3,7.4-7.4,7.4
		H460.8c-4.1,0-7.4-3.3-7.4-7.4v0C453.3,356.8,456.7,353.4,460.8,353.4"/>
	<path fill-rule="evenodd" clip-rule="evenodd" fill="#BCC2C6" d="M460.8,390.9H723c4.1,0,7.4,3.3,7.4,7.4l0,0
		c0,4.1-3.3,7.5-7.4,7.5H460.8c-4.1,0-7.4-3.3-7.4-7.5l0,0C453.3,394.2,456.7,390.9,460.8,390.9"/>
	<path fill-rule="evenodd" clip-rule="evenodd" fill="#BCC2C6" d="M460.8,428.3H723c4.1,0,7.4,3.3,7.4,7.4l0,0
		c0,4.1-3.3,7.4-7.4,7.4H460.8c-4.1,0-7.4-3.3-7.4-7.4l0,0C453.3,431.6,456.7,428.3,460.8,428.3"/>
	<path fill-rule="evenodd" clip-rule="evenodd" fill="#BCC2C6" d="M460.8,465.7H723c4.1,0,7.4,3.3,7.4,7.5l0,0
		c0,4.1-3.3,7.4-7.4,7.4H460.8c-4.1,0-7.4-3.3-7.4-7.4l0,0C453.3,469.1,456.7,465.7,460.8,465.7"/>
	<path fill-rule="evenodd" clip-rule="evenodd" fill="#BCC2C6" d="M460.8,503.2h123.7c4.1,0,7.5,3.3,7.5,7.4l0,0
		c0,4.1-3.3,7.5-7.5,7.5H460.8c-4.1,0-7.4-3.3-7.4-7.5l0,0C453.3,506.5,456.7,503.2,460.8,503.2"/>
</g>
</svg>
