<?xml version="1.0" encoding="utf-8"?>
<!-- Generator: Adobe Illustrator 15.1.0, SVG Export Plug-In . SVG Version: 6.00 Build 0)  -->
<!DOCTYPE svg PUBLIC "-//W3C//DTD SVG 1.0//EN" "http://www.w3.org/TR/2001/REC-SVG-20010904/DTD/svg10.dtd">
<svg version="1.0" id="Layer_1" xmlns="http://www.w3.org/2000/svg" xmlns:xlink="http://www.w3.org/1999/xlink" x="0px" y="0px"
	 width="800px" height="800px" viewBox="0 0 800 800" enable-background="new 0 0 800 800" xml:space="preserve">
<g id="Header">
	<path fill="#BCC2C6" d="M33.1,34.5h736.2c8.5,0,16.1,3.5,21.7,9l0,0c5.6,5.6,9,13.2,9,21.7v654.6c0,8.4-3.5,16.1-9,21.7l0,0
		c-5.6,5.6-13.2,9-21.7,9H33.1c-8.5,0-16.1-3.5-21.7-9l0,0c-5.6-5.6-9-13.2-9-21.7V65.2c0-8.4,3.5-16.1,9-21.7l0,0
		C16.9,38,24.6,34.5,33.1,34.5"/>
	<path fill="#EBEFF0" d="M788.9,65.2v654.6c0,12.3-8.6,19.6-19.6,19.6H33.1c-11,0-19.6-7-19.6-19.6V65.2c0-12.8,8.6-19.6,19.6-19.6
		h736.2C780.2,45.6,788.9,52.7,788.9,65.2"/>
	<path fill="#94A4A5" d="M677.6,72.3c7.8,0,14.2,6.4,14.2,14.2s-6.3,14.2-14.2,14.2c-7.9,0-14.2-6.3-14.2-14.2
		C663.4,78.7,669.7,72.3,677.6,72.3 M722.1,72.3c7.8,0,14.2,6.4,14.2,14.2s-6.4,14.2-14.2,14.2c-7.8,0-14.2-6.3-14.2-14.2
		C707.9,78.7,714.3,72.3,722.1,72.3z M633,72.3c7.8,0,14.2,6.4,14.2,14.2s-6.3,14.2-14.2,14.2c-7.8,0-14.2-6.4-14.2-14.2
		S625.2,72.3,633,72.3z"/>
	
		<text transform="matrix(1 0 0 1 135.0015 83.2969)" fill="#93A2A3" font-family="'NexaBold'" font-size="44.0749" letter-spacing="2">FEATURES</text>
</g>
<g id="Body">
	<path fill="#BCC2C6" d="M28.8,121.4h743.7c7.3,0,14,3,18.8,7.8c4.8,4.8,7.8,11.5,7.8,18.8v572.3c0,7.3-3,14-7.8,18.8
		c-4.8,4.8-11.5,7.8-18.8,7.8H28.8c-7.3,0-14-3-18.8-7.8c-4.8-4.8-7.8-11.5-7.8-18.8V148c0-7.3,3-14,7.8-18.8
		C14.8,124.3,21.5,121.4,28.8,121.4"/>
	<path fill="#FFFFFF" d="M28.8,132.5c-4.1,0-8,1.7-10.9,4.6s-4.6,6.8-4.6,10.9v572.3c0,4.1,1.6,8,4.6,10.9c2.9,2.9,6.8,4.6,10.9,4.6
		h743.7c4.1,0,8-1.6,10.9-4.6c2.9-2.9,4.6-6.8,4.6-10.9V148c0-4.1-1.6-8-4.6-10.9c-2.9-2.9-6.8-4.6-10.9-4.6H28.8z"/>
	<path fill="#34495E" d="M339,472.7h123.3c3.1,0,5.6,2.5,5.6,5.6l0,0c0,3.1-2.5,5.6-5.6,5.6H339c-3.1,0-5.6-2.5-5.6-5.6l0,0
		C333.5,475.2,336,472.7,339,472.7"/>
	<rect x="378.2" y="430.5" fill="#34495E" width="45" height="53.3"/>
	<rect x="389.3" y="441.6" fill="#FFFFFF" width="22.7" height="31.1"/>
	<path fill="#34495E" d="M254.3,229.3h292.8c5,0,9.2,4.1,9.2,9.2v194c0,5-4.1,9.2-9.2,9.2H254.3c-5,0-9.2-4.1-9.2-9.2v-194
		C245.1,233.4,249.2,229.3,254.3,229.3"/>
	<rect x="256.3" y="240.4" fill="#22A6EF" width="288.8" height="190.1"/>
	<path opacity="0.15" enable-background="new    " d="M469,292.4c-2.4-2.4-5.7-3.8-9.3-3.8c-3.6,0-6.9,1.5-9.3,3.8
		c-2.4,2.4-3.8,5.7-3.8,9.3c0,3.6,1.5,6.9,3.8,9.3c2.4,2.4,5.7,3.9,9.3,3.9c3.6,0,6.9-1.5,9.3-3.8c2.4-2.4,3.8-5.7,3.8-9.3
		C472.8,298,471.4,294.8,469,292.4 M459.7,277.7c6.6,0,12.6,2.7,16.9,7l0,0c4.3,4.3,7,10.3,7,16.9s-2.7,12.6-7,16.9l0,0
		c-4.4,4.3-10.3,7-16.9,7c-6.6,0-12.6-2.7-17-7c-4.4-4.3-7-10.3-7-17c0-6.6,2.7-12.6,7-16.9l0,0
		C447.1,280.4,453.1,277.7,459.7,277.7z M448.2,336.5L448.2,336.5l0.2,0.2l3,4l0,0l18.2,24.7c1.3,1.8,1.9,3.6,1.9,5.2l0,0
		c0,1.3-0.3,2.5-0.9,3.6c-0.6,1-1.3,1.8-2.2,2.5c-1.5,1.1-3.4,1.7-5.4,1.7l0,0h-45.8h-87.6c-2.1,0-3.9-0.6-5.4-1.6
		c-1-0.7-1.7-1.6-2.3-2.7l0,0c-0.5-1-0.8-2.2-0.8-3.4l0,0c0-1.8,0.6-3.7,2-5.6l19.2-26.1l0,0l1.8-2.3l0.2-0.3l0,0l0,0l23.7-31.5
		c0.8-1.1,1.8-2,2.7-2.8c1.9-1.4,3.9-2.1,6-2.1c2.1,0,4.1,0.7,5.9,2.1c1,0.7,1.9,1.6,2.7,2.8l22.6,30.1l11-14.6
		c0.8-1.1,1.7-2,2.7-2.8c1.8-1.4,3.8-2.1,5.9-2.1s4.1,0.7,6,2.1c1,0.7,1.9,1.6,2.7,2.8L448.2,336.5L448.2,336.5z M457.8,367.8
		l-18.3-24.9l-0.8-1L427.5,327l0,0l0,0l-12.7,16.8l-2.6,3.5l-4.3,5.7l-4.3-5.7l-2.6-3.5l-24.3-32.4l0,0l0,0l-23,30.6l-0.7,0.9
		l-18.3,24.9h82.6H457.8z"/>
	<path fill="#34495E" d="M456.3,267c6.6,0,12.6,2.7,16.9,7l0,0c4.3,4.3,7,10.3,7,16.9s-2.7,12.6-7,16.9l0,0c-4.3,4.3-10.3,7-16.9,7
		c-6.6,0-12.6-2.7-17-7c-4.4-4.3-7-10.4-7-17c0-6.6,2.7-12.6,7-16.9l0,0C443.7,269.7,449.7,267,456.3,267 M444.8,325.8L444.8,325.8
		l0.2,0.2l3,4l0,0l18.2,24.7c1.3,1.8,1.9,3.6,1.9,5.2l0,0c0,1.3-0.3,2.5-0.9,3.6c-0.6,1-1.3,1.8-2.2,2.5c-1.5,1.1-3.4,1.7-5.4,1.7
		l0,0h-45.8h-87.6c-2.1,0-3.9-0.6-5.3-1.6c-1-0.7-1.8-1.6-2.3-2.7l0,0c-0.5-1-0.8-2.2-0.8-3.4l0,0c0-1.8,0.6-3.7,2-5.6l19.2-26.1
		l0,0l1.8-2.3l0.2-0.3l0,0l0,0l23.7-31.5c0.8-1.1,1.8-2,2.7-2.8c1.8-1.4,3.9-2.1,6-2.1c2.1,0,4.1,0.7,5.9,2.1c1,0.7,1.9,1.6,2.7,2.8
		l22.6,30.1l11-14.6c0.8-1.1,1.7-2,2.7-2.8c1.8-1.4,3.8-2.1,5.9-2.1c2.1,0,4.1,0.7,6,2.1c1,0.7,1.9,1.7,2.7,2.8L444.8,325.8
		L444.8,325.8z"/>
	<path fill="#39D4FF" d="M456.3,275.7c-4.1,0-7.9,1.6-10.9,4.6l0,0c-2.9,2.9-4.5,6.7-4.5,10.7c0,4.1,1.6,7.9,4.5,10.8
		c2.9,2.9,6.7,4.5,10.8,4.5c4.1,0,7.9-1.6,10.8-4.6l0,0c2.9-2.9,4.4-6.7,4.4-10.7c0-4.1-1.6-7.9-4.4-10.7l-0.1-0.1
		C464.2,277.3,460.4,275.7,456.3,275.7 M327.1,359.1h86.6h44.7L438,331.2L425.8,315c-0.3-0.4-0.6-0.7-1-1c-0.2-0.1-0.4-0.3-0.7-0.3
		c-0.3,0-0.5,0.2-0.7,0.3c-0.4,0.3-0.7,0.7-1,1l-17.9,23.8l-29.6-39.4c-0.3-0.4-0.6-0.7-1-1c-0.2-0.1-0.5-0.3-0.7-0.3
		c-0.3,0-0.5,0.2-0.7,0.3c-0.4,0.3-0.7,0.6-1,1l-23.8,31.7L327.1,359.1z"/>
	<path fill="#34495E" d="M254.3,403.5h292.8c5,0,9.2,4.1,9.2,9.2v19.8c0,5-4.1,9.2-9.2,9.2H254.3c-5,0-9.2-4.1-9.2-9.2v-19.8
		C245.1,407.6,249.2,403.5,254.3,403.5"/>
	<rect x="256.3" y="414.6" fill="#FFFFFF" width="288.8" height="15.9"/>
	<path fill="#BCC2C6" d="M185.8,540.2h429.7c4.1,0,7.4,3.4,7.4,7.4l0,0c0,4.1-3.3,7.4-7.4,7.4H185.8c-4.1,0-7.4-3.3-7.4-7.4l0,0
		C178.4,543.6,181.7,540.2,185.8,540.2"/>
	<path fill="#BCC2C6" d="M185.8,577.6h429.7c4.1,0,7.4,3.4,7.4,7.4l0,0c0,4.1-3.3,7.4-7.4,7.4H185.8c-4.1,0-7.4-3.3-7.4-7.4l0,0
		C178.4,581,181.7,577.6,185.8,577.6"/>
	<path fill="#BCC2C6" d="M297,615h207.4c4.1,0,7.4,3.3,7.4,7.4l0,0c0,4.1-3.4,7.4-7.4,7.4H297c-4.1,0-7.4-3.3-7.4-7.4l0,0
		C289.5,618.4,292.9,615,297,615"/>
</g>
</svg>
