<?xml version="1.0" encoding="utf-8"?>
<!-- Generator: Adobe Illustrator 15.1.0, SVG Export Plug-In . SVG Version: 6.00 Build 0)  -->
<!DOCTYPE svg PUBLIC "-//W3C//DTD SVG 1.0//EN" "http://www.w3.org/TR/2001/REC-SVG-20010904/DTD/svg10.dtd">
<svg version="1.0" id="Layer_1" xmlns="http://www.w3.org/2000/svg" xmlns:xlink="http://www.w3.org/1999/xlink" x="0px" y="0px"
	 width="800px" height="800px" viewBox="0 0 800 800" enable-background="new 0 0 800 800" xml:space="preserve">
<g id="Header">
	<path fill="#BCC2C6" d="M33.1,34.5h736.2c8.5,0,16.1,3.5,21.7,9l0,0c5.6,5.6,9,13.2,9,21.7v654.6c0,8.4-3.5,16.1-9,21.7l0,0
		c-5.6,5.6-13.2,9-21.7,9H33.1c-8.5,0-16.1-3.5-21.7-9l0,0c-5.6-5.6-9-13.2-9-21.7V65.2c0-8.4,3.5-16.1,9-21.7l0,0
		C16.9,38,24.6,34.5,33.1,34.5"/>
	<path fill="#EBEFF0" d="M788.9,65.2v654.6c0,12.3-8.6,19.6-19.6,19.6H33.1c-11,0-19.6-7-19.6-19.6V65.2c0-12.8,8.6-19.6,19.6-19.6
		h736.2C780.2,45.6,788.9,52.7,788.9,65.2"/>
	<path fill="#94A4A5" d="M677.6,72.3c7.8,0,14.2,6.4,14.2,14.2s-6.3,14.2-14.2,14.2c-7.9,0-14.2-6.3-14.2-14.2
		C663.4,78.7,669.7,72.3,677.6,72.3 M722.1,72.3c7.8,0,14.2,6.4,14.2,14.2s-6.4,14.2-14.2,14.2c-7.8,0-14.2-6.3-14.2-14.2
		C707.9,78.7,714.3,72.3,722.1,72.3z M633,72.3c7.8,0,14.2,6.4,14.2,14.2s-6.3,14.2-14.2,14.2c-7.8,0-14.2-6.4-14.2-14.2
		S625.2,72.3,633,72.3z"/>
	
		<text transform="matrix(1 0 0 1 136.0015 81.2969)" fill="#93A2A3" font-family="'NexaBold'" font-size="44.0749" letter-spacing="2">FEATURES</text>
</g>
<g id="Body">
	<path fill="#BCC2C6" d="M26.5,125.8h746.7c7.4,0,14.1,3,18.9,7.8c4.8,4.8,7.8,11.5,7.8,18.9v574.6c0,7.4-3,14-7.8,18.9
		c-4.8,4.8-11.5,7.8-18.9,7.8H26.5c-7.4,0-14.1-3-18.9-7.8c-4.8-4.8-7.9-11.5-7.9-18.9V152.6c0-7.4,3-14.1,7.9-18.9
		C12.5,128.8,19.1,125.8,26.5,125.8"/>
	<path fill="#FFFFFF" d="M26.5,137c-4.1,0-8.1,1.7-11,4.6s-4.6,6.8-4.6,11v574.6c0,4.1,1.7,8,4.6,11s6.9,4.6,11,4.6h746.7
		c4.1,0,8.1-1.6,11-4.6c2.9-2.9,4.6-6.9,4.6-11V152.6c0-4.1-1.6-8.1-4.6-11c-2.9-2.9-6.8-4.6-11-4.6H26.5z"/>
	<path fill="#BCC2C6" d="M286.5,218.8H718c4.1,0,7.5,3.4,7.5,7.5l0,0c0,4.1-3.4,7.5-7.5,7.5H286.5c-4.1,0-7.5-3.4-7.5-7.5l0,0
		C279.1,222.2,282.4,218.8,286.5,218.8"/>
	<path fill="#BCC2C6" d="M286.5,256.4H718c4.1,0,7.5,3.4,7.5,7.5l0,0c0,4.1-3.4,7.5-7.5,7.5H286.5c-4.1,0-7.5-3.4-7.5-7.5l0,0
		C279.1,259.7,282.4,256.4,286.5,256.4"/>
	<path fill="#BCC2C6" d="M286.5,293.9h208.3c4.1,0,7.4,3.4,7.4,7.5l0,0c0,4.1-3.4,7.5-7.4,7.5H286.5c-4.1,0-7.5-3.4-7.5-7.5l0,0
		C279.1,297.3,282.4,293.9,286.5,293.9"/>
	<path fill="#34495E" d="M137.5,200.6c34.9,0,63.2,28.3,63.2,63.2c0,34.9-28.3,63.2-63.2,63.2s-63.3-28.3-63.3-63.2
		C74.3,228.9,102.6,200.6,137.5,200.6"/>
	<path fill="#22A6EF" d="M137.5,211.8c28.8,0,52.1,23.3,52.1,52.1c0,28.8-23.3,52.1-52.1,52.1s-52.1-23.3-52.1-52.1
		C85.4,235.1,108.8,211.8,137.5,211.8"/>
	<path fill="#BCC2C6" d="M286.5,394.9H718c4.1,0,7.5,3.4,7.5,7.5l0,0c0,4.1-3.4,7.5-7.5,7.5H286.5c-4.1,0-7.5-3.4-7.5-7.5l0,0
		C279.1,398.2,282.4,394.9,286.5,394.9"/>
	<path fill="#BCC2C6" d="M286.5,432.4H718c4.1,0,7.5,3.4,7.5,7.5l0,0c0,4.1-3.4,7.5-7.5,7.5H286.5c-4.1,0-7.5-3.4-7.5-7.5l0,0
		C279.1,435.8,282.4,432.4,286.5,432.4"/>
	<path fill="#BCC2C6" d="M286.5,470h208.3c4.1,0,7.4,3.4,7.4,7.5l0,0c0,4.1-3.4,7.5-7.4,7.5H286.5c-4.1,0-7.5-3.4-7.5-7.5l0,0
		C279.1,473.3,282.4,470,286.5,470"/>
	<path fill="#34495E" d="M137.5,376.6c34.9,0,63.2,28.3,63.2,63.2c0,34.9-28.3,63.3-63.2,63.3s-63.3-28.3-63.3-63.3
		S102.6,376.6,137.5,376.6"/>
	<path fill="#22A6EF" d="M137.5,387.8c28.8,0,52.1,23.3,52.1,52.1c0,28.8-23.3,52.1-52.1,52.1s-52.1-23.3-52.1-52.1
		C85.5,411.1,108.8,387.8,137.5,387.8"/>
	<path fill="#BCC2C6" d="M286.5,570.9H718c4.1,0,7.5,3.4,7.5,7.5c0,4.1-3.4,7.5-7.5,7.5H286.5c-4.1,0-7.5-3.4-7.5-7.5
		C279.1,574.3,282.4,570.9,286.5,570.9"/>
	<path fill="#BCC2C6" d="M286.5,608.5H718c4.1,0,7.5,3.4,7.5,7.5s-3.4,7.5-7.5,7.5H286.5c-4.1,0-7.5-3.4-7.5-7.5
		S282.4,608.5,286.5,608.5"/>
	<path fill="#BCC2C6" d="M286.5,646h208.3c4.1,0,7.4,3.4,7.4,7.5l0,0c0,4.1-3.4,7.5-7.4,7.5H286.5c-4.1,0-7.5-3.3-7.5-7.5l0,0
		C279.1,649.4,282.4,646,286.5,646"/>
	<path fill="#34495E" d="M137.5,552.7c34.9,0,63.2,28.3,63.2,63.2c0,34.9-28.3,63.3-63.2,63.3s-63.3-28.3-63.3-63.3
		S102.6,552.7,137.5,552.7"/>
	<path fill="#22A6EF" d="M137.5,563.9c28.8,0,52.1,23.3,52.1,52.1s-23.3,52-52.1,52s-52.1-23.3-52.1-52.1
		C85.4,587.1,108.8,563.9,137.5,563.9"/>
</g>
</svg>
