<?xml version="1.0" encoding="utf-8"?>
<!-- Generator: Adobe Illustrator 15.1.0, SVG Export Plug-In . SVG Version: 6.00 Build 0)  -->
<!DOCTYPE svg PUBLIC "-//W3C//DTD SVG 1.0//EN" "http://www.w3.org/TR/2001/REC-SVG-20010904/DTD/svg10.dtd">
<svg version="1.0" id="Layer_1" xmlns="http://www.w3.org/2000/svg" xmlns:xlink="http://www.w3.org/1999/xlink" x="0px" y="0px"
	 width="800px" height="800px" viewBox="0 0 800 800" enable-background="new 0 0 800 800" xml:space="preserve">
<g id="Header">
	<path fill="#BCC2C6" d="M33.1,34.5h736.2c8.5,0,16.1,3.5,21.7,9l0,0c5.6,5.6,9,13.2,9,21.7v654.6c0,8.4-3.5,16.1-9,21.7l0,0
		c-5.6,5.6-13.2,9-21.7,9H33.1c-8.5,0-16.1-3.5-21.7-9l0,0c-5.6-5.6-9-13.2-9-21.7V65.2c0-8.4,3.5-16.1,9-21.7l0,0
		C16.9,38,24.6,34.5,33.1,34.5"/>
	<path fill="#EBEFF0" d="M788.9,65.2v654.6c0,12.3-8.6,19.6-19.6,19.6H33.1c-11,0-19.6-7-19.6-19.6V65.2c0-12.8,8.6-19.6,19.6-19.6
		h736.2C780.2,45.6,788.9,52.7,788.9,65.2"/>
	<path fill="#94A4A5" d="M677.6,72.3c7.8,0,14.2,6.4,14.2,14.2s-6.3,14.2-14.2,14.2c-7.9,0-14.2-6.3-14.2-14.2
		C663.4,78.7,669.7,72.3,677.6,72.3 M722.1,72.3c7.8,0,14.2,6.4,14.2,14.2s-6.4,14.2-14.2,14.2c-7.8,0-14.2-6.3-14.2-14.2
		C707.9,78.7,714.3,72.3,722.1,72.3z M633,72.3c7.8,0,14.2,6.4,14.2,14.2s-6.3,14.2-14.2,14.2c-7.8,0-14.2-6.4-14.2-14.2
		S625.2,72.3,633,72.3z"/>
	
		<text transform="matrix(1 0 0 1 139.0015 81.2969)" fill="#93A2A3" font-family="'NexaBold'" font-size="44.0749" letter-spacing="2">FEATURES</text>
</g>
<g id="Body">
	<path fill="#BCC2C6" d="M28.9,121.7h744.3c7.3,0,14,3,18.8,7.8s7.8,11.5,7.8,18.8v572.8c0,7.3-3,14-7.8,18.8
		c-4.8,4.8-11.5,7.8-18.8,7.8H28.9c-7.3,0-14-3-18.8-7.8c-4.8-4.8-7.8-11.5-7.8-18.8V148.3c0-7.3,3-14,7.8-18.8
		C14.9,124.7,21.6,121.7,28.9,121.7"/>
	<path fill="#FFFFFF" d="M28.9,132.8c-4.1,0-8,1.7-11,4.6c-2.9,2.9-4.6,6.8-4.6,10.9v572.8c0,4.1,1.7,8,4.6,10.9s6.8,4.6,11,4.6
		h744.3c4.1,0,8-1.6,10.9-4.6c2.9-2.9,4.6-6.8,4.6-10.9V148.3c0-4.1-1.6-8-4.6-10.9c-2.9-2.9-6.8-4.6-10.9-4.6H28.9z"/>
	<path fill="#34495E" d="M261.8,623.2h123.3c3.1,0,5.6,2.5,5.6,5.6l0,0c0,3-2.5,5.6-5.6,5.6H261.8c-3.1,0-5.6-2.5-5.6-5.6l0,0
		C256.2,625.7,258.7,623.2,261.8,623.2"/>
	<rect x="301" y="580.9" fill="#34495E" width="45" height="53.4"/>
	<rect x="312.1" y="592" fill="#FFFFFF" width="22.7" height="31.1"/>
	<path fill="#34495E" d="M177,379.5h293c5,0,9.2,4.1,9.2,9.2v194.2c0,5.1-4.1,9.2-9.2,9.2H177c-5.1,0-9.2-4.1-9.2-9.2V388.7
		C167.8,383.6,171.9,379.5,177,379.5"/>
	<rect x="178.9" y="390.7" fill="#22A6EF" width="289.1" height="190.2"/>
	<path opacity="0.15" enable-background="new    " d="M391.8,442.7c-2.4-2.4-5.7-3.8-9.3-3.8s-6.9,1.5-9.3,3.8
		c-2.4,2.4-3.8,5.7-3.8,9.3s1.5,6.9,3.9,9.3c2.4,2.4,5.7,3.9,9.3,3.9c3.6,0,6.9-1.5,9.3-3.8c2.4-2.4,3.9-5.7,3.9-9.3
		C395.7,448.4,394.2,445.1,391.8,442.7 M382.5,428c6.6,0,12.6,2.7,17,7l0,0c4.3,4.3,7,10.3,7,16.9c0,6.6-2.7,12.6-7,17l0,0
		c-4.3,4.4-10.3,7-17,7c-6.6,0-12.6-2.7-17-7c-4.3-4.3-7-10.3-7-17c0-6.6,2.7-12.6,7-16.9l0,0C369.9,430.7,375.9,428,382.5,428z
		 M371,486.8L371,486.8l0.2,0.2l3,4l0,0l18.2,24.8c1.3,1.8,1.8,3.6,1.8,5.3l0,0c0,1.3-0.3,2.5-0.9,3.6c-0.6,1-1.3,1.8-2.2,2.5
		c-1.5,1.1-3.4,1.7-5.4,1.7l0,0h-45.8h-87.7c-2.1,0-3.9-0.6-5.4-1.7c-1-0.7-1.8-1.6-2.3-2.7l0,0c-0.5-1-0.8-2.2-0.8-3.4l0,0
		c0-1.8,0.6-3.7,2-5.6l19.2-26.1l0,0l1.8-2.3l0.2-0.3l0,0l0,0l23.7-31.6c0.8-1.1,1.8-2,2.7-2.7c1.9-1.4,3.9-2.1,6-2.1
		c2.1,0,4.1,0.7,5.9,2.1c1,0.7,1.9,1.6,2.7,2.7l22.6,30.1l11-14.6c0.8-1.1,1.8-2,2.7-2.8c1.8-1.4,3.8-2.1,6-2.1c2.1,0,4.1,0.7,6,2.1
		c1,0.7,1.9,1.6,2.7,2.8L371,486.8L371,486.8z M380.6,518.1l-18.3-24.9l-0.8-1.1l-11.2-14.9l0,0l0,0L337.6,494l-2.6,3.5l-4.3,5.8
		l-4.3-5.8l-2.6-3.5l-24.3-32.4l0,0l0,0l-23,30.6l-0.7,0.9L257.5,518h82.6L380.6,518.1z"/>
	<path fill="#34495E" d="M379.1,417.3c6.6,0,12.6,2.7,17,7l0,0c4.3,4.4,7,10.4,7,17c0,6.6-2.7,12.6-7,17l0,0c-4.3,4.3-10.3,7-17,7
		c-6.6,0-12.6-2.7-17-7c-4.3-4.4-7-10.4-7-17c0-6.6,2.7-12.6,7-17l0,0C366.5,419.9,372.5,417.3,379.1,417.3 M367.6,476.1
		L367.6,476.1l0.2,0.2l3,4.1l0,0l18.2,24.8c1.3,1.8,1.8,3.6,1.8,5.2l0,0c0,1.3-0.3,2.5-0.9,3.6c-0.6,1-1.3,1.8-2.2,2.5
		c-1.5,1.1-3.4,1.7-5.4,1.7l0,0h-45.8h-87.7c-2.1,0-3.9-0.6-5.4-1.6c-1-0.7-1.7-1.6-2.3-2.7l0,0c-0.5-1-0.8-2.2-0.8-3.4l0,0
		c0-1.8,0.6-3.7,2-5.6l19.2-26.1l0,0l1.7-2.3l0.2-0.3l0,0v-0.1l23.7-31.5c0.8-1.1,1.8-2.1,2.7-2.8c1.9-1.4,3.9-2.1,6-2.1
		c2.1,0,4.1,0.7,5.9,2.1c1,0.7,1.9,1.6,2.7,2.8l22.7,30.1l11-14.6c0.8-1.1,1.7-2,2.7-2.8c1.8-1.4,3.8-2.1,6-2.1c2.1,0,4.1,0.7,6,2.1
		c1,0.7,1.9,1.6,2.7,2.8L367.6,476.1L367.6,476.1z"/>
	<path fill="#39D4FF" d="M379.1,426c-4.1,0-7.9,1.6-10.8,4.5l0,0c-2.9,2.9-4.5,6.7-4.5,10.7c0,4.1,1.6,7.9,4.5,10.8
		c2.9,2.9,6.7,4.5,10.8,4.5c4.1,0,7.9-1.6,10.9-4.5l0,0c2.9-2.9,4.5-6.7,4.5-10.8c0-4.1-1.6-7.9-4.4-10.7l-0.1-0.1
		C387,427.6,383.2,426,379.1,426 M249.9,509.5h86.7h44.8l-20.5-27.9l-12.2-16.2c-0.3-0.4-0.6-0.7-1-1c-0.2-0.1-0.4-0.3-0.7-0.3
		s-0.5,0.2-0.7,0.3c-0.4,0.3-0.7,0.7-1,1l-18,23.9l-29.6-39.4c-0.3-0.4-0.6-0.7-1-1c-0.2-0.1-0.4-0.3-0.7-0.3
		c-0.3,0-0.5,0.2-0.7,0.3c-0.4,0.3-0.7,0.6-1,1l-23.9,31.7L249.9,509.5z"/>
	<path fill="#34495E" d="M177,553.9h293c5,0,9.2,4.1,9.2,9.2v19.8c0,5-4.1,9.2-9.2,9.2H177c-5,0-9.2-4.1-9.2-9.2v-19.8
		C167.8,558,171.9,553.9,177,553.9"/>
	<rect x="178.9" y="565" fill="#FFFFFF" width="289.1" height="15.9"/>
	<path fill="#34495E" d="M397,465h210.3c4.2,0,7.7,3.5,7.7,7.7v135.6c0,4.3-3.5,7.7-7.7,7.7H397c-4.2,0-7.7-3.5-7.7-7.7V472.7
		C389.3,468.5,392.8,465,397,465"/>
	<rect x="400.4" y="476.1" fill="#22A6EF" width="203.5" height="128.8"/>
	<path fill="#34495E" d="M370.1,600.4h264.2v16.9c0,9.3-7.6,17-16.9,17H387c-9.3,0-16.9-7.6-16.9-17V600.4z"/>
	<path fill="#FFFFFF" d="M381.2,611.5v5.8c0,3.2,2.6,5.8,5.8,5.8h230.4c3.2,0,5.8-2.6,5.8-5.8v-5.8H381.2z"/>
	<path opacity="0.15" enable-background="new    " d="M549.2,519.8c-1.6-1.6-3.9-2.6-6.4-2.6s-4.8,1-6.4,2.6
		c-1.6,1.6-2.6,3.9-2.6,6.4s1,4.8,2.6,6.4c1.6,1.6,3.9,2.7,6.4,2.7s4.8-1,6.4-2.7c1.6-1.6,2.6-3.9,2.6-6.4
		C551.9,523.8,550.8,521.5,549.2,519.8 M542.8,509.7c4.5,0,8.7,1.9,11.7,4.8l0,0c3,3,4.8,7.1,4.8,11.7c0,4.5-1.8,8.7-4.8,11.7l0,0
		c-3,3-7.1,4.8-11.7,4.8c-4.6,0-8.7-1.8-11.7-4.8s-4.8-7.1-4.8-11.7c0-4.5,1.8-8.7,4.8-11.7l0,0
		C534.1,511.6,538.3,509.7,542.8,509.7z M534.9,550.2L534.9,550.2l0.1,0.2l2.1,2.8l0,0l12.5,17c0.9,1.2,1.3,2.5,1.3,3.6l0,0
		c0,0.9-0.2,1.8-0.6,2.5c-0.4,0.7-0.9,1.3-1.5,1.7c-1,0.8-2.4,1.2-3.7,1.2l0,0h-31.5h-60.3c-1.5,0-2.7-0.4-3.7-1.1
		c-0.7-0.5-1.2-1.1-1.6-1.9l0,0c-0.4-0.7-0.5-1.5-0.5-2.3l0,0c0-1.2,0.4-2.6,1.4-3.9l13.2-17.9l0,0l1.2-1.6l0.1-0.2l0,0l16.3-21.7
		c0.6-0.8,1.2-1.4,1.9-1.9c1.3-0.9,2.7-1.4,4.1-1.4c1.5,0,2.8,0.5,4.1,1.4c0.7,0.5,1.3,1.1,1.9,1.9l15.6,20.7l7.5-10
		c0.6-0.8,1.2-1.4,1.9-1.9c1.3-0.9,2.7-1.4,4.1-1.4c1.4,0,2.8,0.5,4.1,1.4c0.7,0.5,1.3,1.1,1.9,1.9L534.9,550.2L534.9,550.2z
		 M541.5,571.8l-12.6-17.1l-0.5-0.7l-7.7-10.2l0,0l0,0l-8.7,11.6l-1.8,2.4l-3,4l-3-4l-1.8-2.4L485.6,533l0,0l0,0l-15.8,21l-0.5,0.6
		l-12.6,17.1h56.8L541.5,571.8L541.5,571.8z"/>
	<path fill="#34495E" d="M540.5,502.4c4.5,0,8.7,1.8,11.7,4.8l0,0c3,3,4.8,7.1,4.8,11.7c0,4.5-1.9,8.7-4.8,11.7l0,0
		c-3,3-7.1,4.8-11.7,4.8s-8.7-1.8-11.7-4.8s-4.8-7.1-4.8-11.7c0-4.6,1.8-8.7,4.8-11.7l0,0C531.8,504.2,535.9,502.4,540.5,502.4
		 M532.6,542.9L532.6,542.9l0.1,0.1l2.1,2.8l0,0l12.5,17.1c0.9,1.2,1.3,2.4,1.3,3.6l0,0c0,0.9-0.2,1.7-0.6,2.5
		c-0.4,0.7-0.9,1.3-1.5,1.7c-1,0.8-2.4,1.2-3.7,1.2l0,0h-31.5H451c-1.5,0-2.7-0.4-3.7-1.1c-0.7-0.5-1.2-1.1-1.6-1.9l0,0
		c-0.3-0.7-0.5-1.5-0.5-2.4l0,0c0-1.2,0.4-2.6,1.4-3.8l13.2-18l0,0l1.2-1.6l0.2-0.2l0,0l0,0l16.3-21.7c0.6-0.8,1.2-1.4,1.9-1.9
		c1.3-1,2.7-1.4,4.1-1.4c1.5,0,2.8,0.5,4.1,1.4c0.7,0.5,1.3,1.1,1.9,1.9l15.6,20.7l7.5-10c0.6-0.8,1.2-1.4,1.9-1.9
		c1.2-0.9,2.6-1.4,4.1-1.4c1.4,0,2.8,0.5,4.1,1.4c0.7,0.5,1.3,1.1,1.9,1.9L532.6,542.9L532.6,542.9z"/>
	<path fill="#39D4FF" d="M540.5,509.9c-2.4,0-4.6,1-6.3,2.7c-1.7,1.7-2.6,3.9-2.6,6.3c0,2.4,0.9,4.6,2.6,6.3s3.9,2.6,6.3,2.6
		s4.6-0.9,6.3-2.6s2.6-3.9,2.6-6.3c0-2.4-0.9-4.6-2.6-6.3C545.1,510.9,542.9,509.9,540.5,509.9 M518.3,536.5l-13.5,17.9l-21.5-28.6
		l-16.4,21.8l-12.2,16.6H539l-12.2-16.7L518.3,536.5z"/>
	<path fill="#BCC2C6" d="M186,225.8h430c4.1,0,7.4,3.3,7.4,7.5c0,4.1-3.4,7.5-7.4,7.5H186c-4.1,0-7.5-3.3-7.5-7.5
		C178.6,229.2,181.9,225.8,186,225.8"/>
	<path fill="#BCC2C6" d="M186,263.3h430c4.1,0,7.4,3.3,7.4,7.4c0,4.1-3.4,7.5-7.4,7.5H186c-4.1,0-7.5-3.3-7.5-7.5
		C178.6,266.6,181.9,263.3,186,263.3"/>
	<path fill="#BCC2C6" d="M297.3,300.7h207.6c4.1,0,7.5,3.3,7.5,7.4s-3.4,7.5-7.5,7.5H297.3c-4.1,0-7.5-3.4-7.5-7.5
		C289.8,304.1,293.2,300.7,297.3,300.7"/>
</g>
</svg>
