<?xml version="1.0" encoding="utf-8"?>
<!-- Generator: Adobe Illustrator 15.1.0, SVG Export Plug-In . SVG Version: 6.00 Build 0)  -->
<!DOCTYPE svg PUBLIC "-//W3C//DTD SVG 1.0//EN" "http://www.w3.org/TR/2001/REC-SVG-20010904/DTD/svg10.dtd">
<svg version="1.0" id="Layer_1" xmlns="http://www.w3.org/2000/svg" xmlns:xlink="http://www.w3.org/1999/xlink" x="0px" y="0px"
	 width="800px" height="800px" viewBox="0 0 800 800" enable-background="new 0 0 800 800" xml:space="preserve">
<g id="Header">
	<path fill="#BCC2C6" d="M33.1,34.5h736.2c8.5,0,16.1,3.5,21.7,9l0,0c5.6,5.6,9,13.2,9,21.7v654.6c0,8.4-3.5,16.1-9,21.7l0,0
		c-5.6,5.6-13.2,9-21.7,9H33.1c-8.5,0-16.1-3.5-21.7-9l0,0c-5.6-5.6-9-13.2-9-21.7V65.2c0-8.4,3.5-16.1,9-21.7l0,0
		C16.9,38,24.6,34.5,33.1,34.5"/>
	<path fill="#EBEFF0" d="M788.9,65.2v654.6c0,12.3-8.6,19.6-19.6,19.6H33.1c-11,0-19.6-7-19.6-19.6V65.2c0-12.8,8.6-19.6,19.6-19.6
		h736.2C780.2,45.6,788.9,52.7,788.9,65.2"/>
	<path fill="#94A4A5" d="M677.6,72.3c7.8,0,14.2,6.4,14.2,14.2s-6.3,14.2-14.2,14.2c-7.9,0-14.2-6.3-14.2-14.2
		C663.4,78.7,669.7,72.3,677.6,72.3 M722.1,72.3c7.8,0,14.2,6.4,14.2,14.2s-6.4,14.2-14.2,14.2c-7.8,0-14.2-6.3-14.2-14.2
		C707.9,78.7,714.3,72.3,722.1,72.3z M633,72.3c7.8,0,14.2,6.4,14.2,14.2s-6.3,14.2-14.2,14.2c-7.8,0-14.2-6.4-14.2-14.2
		S625.2,72.3,633,72.3z"/>
	
		<text transform="matrix(1 0 0 1 136.0015 85.2969)" fill="#93A2A3" font-family="'NexaBold'" font-size="44.0749" letter-spacing="2">FEATURES</text>
</g>
<g id="Body">
	<path fill="#BCC2C6" d="M26.3,125.3h746.9c7.4,0,14.1,3,18.9,7.8c4.8,4.8,7.9,11.5,7.9,18.9v574.8c0,7.4-3,14-7.9,18.9
		c-4.8,4.8-11.5,7.9-18.9,7.9H26.3c-7.4,0-14-3-18.9-7.9c-4.9-4.9-7.9-11.5-7.9-18.9V152c0-7.4,3-14.1,7.9-18.9
		C12.3,128.3,19,125.3,26.3,125.3"/>
	<path fill="#FFFFFF" d="M26.3,136.4c-4.1,0-8.1,1.7-11,4.6c-2.9,2.9-4.6,6.9-4.6,11v574.8c0,4.1,1.6,8.1,4.6,11
		c2.9,2.9,6.8,4.6,11,4.6h746.9c4.2,0,8.1-1.6,11-4.6c2.9-2.9,4.6-6.9,4.6-11V152c0-4.2-1.6-8.1-4.6-11c-2.9-2.9-6.9-4.6-11-4.6
		H26.3z"/>
	<path fill="#D7D7D7" d="M458.8,644H346.9c-4.3,0-8.2,1.8-11,4.6c-2.8,2.8-4.6,6.7-4.6,11c0,4.3,1.7,8.2,4.6,11.1l0,0
		c2.8,2.8,6.7,4.6,11,4.6h111.9c4.3,0,8.2-1.8,11-4.6c2.9-2.9,4.6-6.7,4.6-11.1c0-4.3-1.7-8.2-4.6-11.1C467,645.7,463,644,458.8,644
		 M346.9,628.7h111.9c8.5,0,16.2,3.5,21.9,9.1l0,0c5.6,5.6,9.1,13.4,9.1,21.9s-3.5,16.3-9.1,21.9c-5.6,5.6-13.4,9.1-21.9,9.1H346.9
		c-8.5,0-16.2-3.5-21.9-9.1l0,0l0,0c-5.6-5.6-9.1-13.4-9.1-21.9s3.5-16.3,9.1-21.9C330.6,632.1,338.4,628.7,346.9,628.7z"/>
	<path fill="#34495E" d="M340.8,616h111.8c8.5,0,16.2,3.5,21.9,9.1l0,0c5.6,5.6,9.1,13.3,9.1,21.9c0,8.5-3.5,16.3-9.1,21.9
		c-5.6,5.6-13.4,9.1-21.9,9.1H340.8c-8.5,0-16.2-3.5-21.9-9.1l0,0l0,0c-5.6-5.6-9.1-13.3-9.1-21.8s3.5-16.3,9.1-21.9
		C324.5,619.5,332.3,616,340.8,616"/>
	<path fill="#27CABF" d="M452.7,625.2c5.8,0,11.3,2.3,15.4,6.4c4.1,4.1,6.4,9.6,6.4,15.4s-2.3,11.3-6.4,15.4
		c-4.1,4.1-9.6,6.4-15.4,6.4H340.8c-5.8,0-11.3-2.3-15.4-6.4l0,0c-4.1-4.1-6.4-9.6-6.4-15.4s2.3-11.3,6.4-15.4
		c4.1-4.1,9.6-6.4,15.4-6.4H452.7z"/>
	<path fill="#51F4E9" d="M452.7,625.2c5.8,0,11.3,2.3,15.4,6.4c4.1,4.1,6.4,9.6,6.4,15.4c0,1.5-0.2,2.9-0.4,4.4
		c-0.9-4.2-2.9-8-5.9-11c-4.1-4.1-9.6-6.4-15.4-6.4h-112c-5.8,0-11.3,2.3-15.4,6.4c-3,3-5.1,6.9-6,11c-0.3-1.4-0.4-2.9-0.4-4.4
		c0-5.8,2.3-11.3,6.4-15.4c4.1-4.1,9.6-6.4,15.4-6.4H452.7z"/>
	<path fill="#34495E" d="M199.7,187.6c35,0,63.3,28.3,63.3,63.3c0,34.9-28.3,63.3-63.3,63.3c-34.9,0-63.3-28.3-63.3-63.3
		C136.4,216,164.8,187.6,199.7,187.6"/>
	<path fill="#22A6EF" d="M199.7,198.8c28.8,0,52.1,23.3,52.1,52.1c0,28.8-23.3,52.1-52.1,52.1c-28.8,0-52.1-23.3-52.1-52.1
		C147.6,222.1,170.9,198.8,199.7,198.8"/>
	<path fill="#BCC2C6" d="M83.6,351.6h232.3c4.1,0,7.5,3.4,7.5,7.5l0,0c0,4.1-3.4,7.5-7.5,7.5H83.6c-4.1,0-7.5-3.4-7.5-7.5l0,0
		C76.1,355,79.4,351.6,83.6,351.6"/>
	<path fill="#BCC2C6" d="M83.6,389.2h232.3c4.1,0,7.5,3.4,7.5,7.5l0,0c0,4.1-3.4,7.4-7.5,7.4H83.6c-4.1,0-7.5-3.3-7.5-7.4l0,0
		C76.1,392.6,79.4,389.2,83.6,389.2"/>
	<path fill="#BCC2C6" d="M83.6,426.8h232.3c4.1,0,7.5,3.4,7.5,7.5l0,0c0,4.1-3.4,7.5-7.5,7.5H83.6c-4.1,0-7.5-3.4-7.5-7.5l0,0
		C76.1,430.1,79.4,426.8,83.6,426.8"/>
	<path fill="#BCC2C6" d="M83.6,464.3h232.3c4.1,0,7.5,3.3,7.5,7.5l0,0c0,4.1-3.4,7.5-7.5,7.5H83.6c-4.1,0-7.5-3.4-7.5-7.5l0,0
		C76.1,467.7,79.4,464.3,83.6,464.3"/>
	<path fill="#BCC2C6" d="M145.4,501.9H254c4.1,0,7.5,3.4,7.5,7.5l0,0c0,4.1-3.4,7.4-7.5,7.4H145.4c-4.1,0-7.5-3.4-7.5-7.4l0,0
		C137.9,505.3,141.2,501.9,145.4,501.9"/>
	<path fill="#34495E" d="M575.4,187.6c34.9,0,63.3,28.3,63.3,63.3c0,34.9-28.3,63.3-63.3,63.3c-34.9,0-63.3-28.3-63.3-63.3
		C512.1,216,540.4,187.6,575.4,187.6"/>
	<path fill="#22A6EF" d="M575.4,198.8c28.8,0,52.1,23.3,52.1,52.1c0,28.8-23.3,52.1-52.1,52.1c-28.8,0-52.1-23.3-52.1-52.1
		C523.3,222.1,546.6,198.8,575.4,198.8"/>
	<path fill="#BCC2C6" d="M459.2,351.6h232.3c4.1,0,7.5,3.4,7.5,7.5l0,0c0,4.1-3.4,7.5-7.5,7.5H459.2c-4.1,0-7.5-3.4-7.5-7.5l0,0
		C451.8,355,455.1,351.6,459.2,351.6"/>
	<path fill="#BCC2C6" d="M459.2,389.2h232.3c4.1,0,7.5,3.4,7.5,7.5l0,0c0,4.1-3.4,7.4-7.5,7.4H459.2c-4.1,0-7.5-3.3-7.5-7.4l0,0
		C451.8,392.6,455.1,389.2,459.2,389.2"/>
	<path fill="#BCC2C6" d="M459.2,426.8h232.3c4.1,0,7.5,3.4,7.5,7.5l0,0c0,4.1-3.4,7.5-7.5,7.5H459.2c-4.1,0-7.5-3.4-7.5-7.5l0,0
		C451.8,430.1,455.1,426.8,459.2,426.8"/>
	<path fill="#BCC2C6" d="M459.2,464.3h232.3c4.1,0,7.5,3.3,7.5,7.5l0,0c0,4.1-3.4,7.5-7.5,7.5H459.2c-4.1,0-7.5-3.4-7.5-7.5l0,0
		C451.8,467.7,455.1,464.3,459.2,464.3"/>
	<path fill="#BCC2C6" d="M521.1,501.9h108.7c4.1,0,7.5,3.4,7.5,7.5l0,0c0,4.1-3.4,7.4-7.5,7.4H521.1c-4.1,0-7.5-3.4-7.5-7.4l0,0
		C513.6,505.3,516.9,501.9,521.1,501.9"/>
</g>
</svg>
