<?xml version="1.0" encoding="utf-8"?>
<!-- Generator: Adobe Illustrator 15.1.0, SVG Export Plug-In . SVG Version: 6.00 Build 0)  -->
<!DOCTYPE svg PUBLIC "-//W3C//DTD SVG 1.0//EN" "http://www.w3.org/TR/2001/REC-SVG-20010904/DTD/svg10.dtd">
<svg version="1.0" id="Layer_1" xmlns="http://www.w3.org/2000/svg" xmlns:xlink="http://www.w3.org/1999/xlink" x="0px" y="0px"
	 width="800px" height="800px" viewBox="198.65599060058594 214.9770050048828 422.0009765625 378.8060302734375" enable-background="new 0 0 800 800" xml:space="preserve">
<g>
	<!-- <path fill="#BCC2C6" d="M214.907,214.977h389.507c4.461,0,8.53,1.83,11.472,4.771v0.025c2.941,2.933,4.771,6.993,4.771,11.455
		v346.311c0,4.462-1.829,8.523-4.771,11.464v0.017c-2.941,2.941-7.011,4.763-11.472,4.763H214.907c-4.47,0-8.539-1.821-11.472-4.763
		v-0.017c-2.941-2.94-4.779-7.002-4.779-11.464V231.228c0-4.461,1.838-8.522,4.779-11.455v-0.025
		C206.368,216.807,210.438,214.977,214.907,214.977"/> -->
	<!-- <path fill="#EBEFF0" d="M614.758,231.228v346.311c0,6.526-4.545,10.353-10.344,10.353H214.907c-5.799,0-10.353-3.718-10.353-10.353
		V231.228c0-6.759,4.578-10.352,10.353-10.352h389.507C610.204,220.875,614.758,224.594,614.758,231.228"/> -->
	<path fill="#BCC2C6" d="M212.76,262.559h393.793c3.886,0,7.411,1.58,9.959,4.136c2.558,2.557,4.145,6.083,4.145,9.968v303.024
		c0,3.885-1.587,7.41-4.145,9.967c-2.548,2.549-6.073,4.128-9.959,4.128H212.76c-3.877,0-7.402-1.579-9.959-4.128
		c-2.558-2.557-4.145-6.082-4.145-9.967V276.663c0-3.885,1.587-7.411,4.145-9.968C205.357,264.139,208.883,262.559,212.76,262.559"
		/>
	<path fill-rule="evenodd" clip-rule="evenodd" fill="#FFFFFF" d="M212.76,268.45c-2.181,0-4.244,0.869-5.79,2.415
		c-1.546,1.546-2.415,3.618-2.415,5.798v303.024c0,2.181,0.869,4.252,2.415,5.798s3.609,2.414,5.79,2.414h393.793
		c2.189,0,4.253-0.868,5.798-2.414c1.538-1.546,2.407-3.617,2.407-5.798V276.663c0-2.189-0.869-4.252-2.407-5.798
		c-1.545-1.545-3.616-2.415-5.798-2.415H212.76z"/>
	<!-- <path fill-rule="evenodd" clip-rule="evenodd" fill="#94A4A5" d="M555.87,234.996c4.153,0,7.512,3.359,7.512,7.503
		c0,4.145-3.358,7.503-7.512,7.503c-4.144,0-7.502-3.358-7.502-7.503C548.368,238.354,551.727,234.996,555.87,234.996
		 M579.449,234.996c4.145,0,7.502,3.359,7.502,7.503c0,4.145-3.357,7.503-7.502,7.503s-7.504-3.358-7.504-7.503
		C571.945,238.354,575.305,234.996,579.449,234.996z M532.31,234.996c4.145,0,7.503,3.359,7.503,7.503
		c0,4.145-3.358,7.503-7.503,7.503c-4.152,0-7.512-3.358-7.512-7.503C524.798,238.354,528.157,234.996,532.31,234.996z"/> -->
	<rect x="238.076" y="297.508" fill-rule="evenodd" clip-rule="evenodd" fill="#364A5E" width="343.169" height="119.654"/>
	<rect x="243.967" y="303.399" fill="#3EA3DB" width="331.388" height="107.873"/>
	<path opacity="0.15" fill="#010101" d="M444.096,342.008c-1.203-1.194-2.865-1.938-4.695-1.938c-1.838,0-3.492,0.744-4.695,1.938
		c-1.195,1.195-1.938,2.857-1.938,4.696c0,1.821,0.743,3.484,1.938,4.679c1.203,1.203,2.857,1.947,4.695,1.947
		c1.83,0,3.492-0.744,4.695-1.938c1.187-1.194,1.931-2.857,1.931-4.687C446.026,344.865,445.282,343.203,444.096,342.008
		 M439.4,334.605c3.326,0,6.351,1.354,8.539,3.542l0.009,0.008c2.189,2.189,3.542,5.205,3.542,8.547c0,3.325-1.353,6.35-3.542,8.539
		l-0.009,0.009c-2.188,2.189-5.213,3.542-8.539,3.542c-3.342,0-6.367-1.354-8.556-3.551c-2.188-2.18-3.542-5.205-3.542-8.539
		c0-3.342,1.354-6.358,3.542-8.547l0.017-0.008C433.05,335.959,436.067,334.605,439.4,334.605z M433.603,364.25L433.603,364.25
		l0.083,0.117l1.537,2.039l-0.017,0.017l9.174,12.466c0.652,0.894,0.936,1.797,0.936,2.641h-0.017c0,0.668-0.158,1.287-0.451,1.813
		c-0.275,0.501-0.66,0.928-1.119,1.262c-0.752,0.551-1.721,0.869-2.698,0.869v-0.018l-23.069,0.009l-44.173-0.009
		c-1.062,0-1.989-0.3-2.699-0.827c-0.484-0.359-0.886-0.827-1.153-1.362h-0.017c-0.251-0.518-0.384-1.103-0.384-1.721h-0.008
		c0-0.919,0.309-1.888,0.994-2.807l9.666-13.151l-0.008-0.017l0.885-1.169l0.101-0.15l0.009,0.008l0.017-0.025l11.948-15.892
		c0.426-0.551,0.885-1.019,1.37-1.387c0.936-0.702,1.955-1.044,3.016-1.036c1.054,0,2.064,0.351,2.975,1.036
		c0.501,0.368,0.952,0.835,1.37,1.387l11.413,15.173l5.515-7.336c0.417-0.56,0.886-1.019,1.37-1.395
		c0.919-0.686,1.938-1.037,2.991-1.045c1.053,0,2.072,0.351,3.007,1.045c0.485,0.368,0.945,0.827,1.371,1.395l6.05,8.046
		L433.603,364.25z M438.439,380.015l-9.232-12.541l-0.385-0.535l-5.647-7.503l-0.009-0.017l-0.008,0.017l-6.384,8.48l-1.319,1.755
		l-2.173,2.899l-2.173-2.899l-1.319-1.755l-12.266-16.301l-0.017-0.025l-0.017,0.025l-11.58,15.39l-0.351,0.468l-9.217,12.541
		l41.617,0.008L438.439,380.015z"/>
	<path fill="#364A5E" d="M437.696,329.208c3.334,0,6.35,1.354,8.539,3.542l0.017,0.008c2.181,2.189,3.542,5.205,3.542,8.539
		c0,3.333-1.361,6.35-3.542,8.547h-0.017c-2.189,2.189-5.205,3.542-8.539,3.542c-3.342,0-6.367-1.354-8.556-3.542
		c-2.181-2.181-3.543-5.206-3.543-8.547c0-3.334,1.362-6.35,3.543-8.539l0.016-0.008
		C431.346,330.562,434.371,329.208,437.696,329.208 M431.906,358.852L431.906,358.852l0.083,0.109l1.529,2.038l-0.017,0.017
		l9.174,12.475c0.66,0.894,0.936,1.788,0.936,2.64h-0.008c0,0.668-0.158,1.278-0.46,1.813c-0.268,0.501-0.651,0.927-1.119,1.262
		c-0.752,0.551-1.722,0.86-2.699,0.86v-0.008h-23.068h-44.165c-1.069,0-1.988-0.301-2.707-0.835
		c-0.485-0.351-0.877-0.819-1.152-1.362h-0.01c-0.259-0.51-0.392-1.095-0.392-1.721l0,0c0-0.911,0.309-1.88,0.985-2.808
		l9.675-13.142l-0.017-0.017l0.887-1.169l0.107-0.15l0,0l0.025-0.017l11.948-15.892c0.417-0.56,0.885-1.019,1.37-1.387
		c0.936-0.702,1.955-1.053,3.008-1.044s2.072,0.359,2.982,1.044c0.494,0.368,0.952,0.835,1.37,1.387l11.405,15.173l5.522-7.344
		c0.417-0.56,0.877-1.019,1.362-1.387c0.919-0.694,1.938-1.045,2.999-1.045c1.053,0,2.072,0.343,2.999,1.045
		c0.484,0.359,0.953,0.827,1.371,1.387l6.049,8.055L431.906,358.852z"/>
	<path fill-rule="evenodd" clip-rule="evenodd" fill="#54CAF2" d="M437.696,333.611c-2.039,0-3.978,0.811-5.465,2.297l0.017-0.025
		c-1.437,1.445-2.239,3.367-2.239,5.414s0.803,3.985,2.256,5.431c1.446,1.454,3.385,2.256,5.432,2.256
		c2.038,0,3.977-0.811,5.464-2.298l-0.017,0.025c1.445-1.445,2.239-3.367,2.239-5.414s-0.794-3.969-2.223-5.389l-0.042-0.042
		C441.673,334.422,439.734,333.611,437.696,333.611 M372.593,375.646l43.664,0.008l22.534-0.008l-10.344-14.07l-6.141-8.154
		c-0.135-0.184-0.301-0.368-0.485-0.518c-0.101-0.067-0.233-0.151-0.352-0.151c-0.133,0-0.25,0.084-0.351,0.151
		c-0.192,0.15-0.35,0.334-0.501,0.518l-9.04,12.022l-14.922-19.843c-0.151-0.192-0.311-0.376-0.502-0.518
		c-0.092-0.075-0.226-0.167-0.352-0.167c-0.124,0-0.25,0.092-0.351,0.167c-0.184,0.134-0.351,0.326-0.492,0.518l-12.023,15.975
		L372.593,375.646z"/>
	<!-- <path fill-rule="evenodd" clip-rule="evenodd" fill="#94A4A5" d="M471.283,237.519c-1.136-2.323-3.567-2.991-5.915-2.991
		c-2.774,0.017-5.814,1.287-5.814,4.386c0,3.367,2.831,4.186,5.906,4.554c1.997,0.217,3.484,0.793,3.484,2.214
		c0,1.629-1.68,2.255-3.459,2.255c-1.839,0-3.576-0.727-4.244-2.381l-2.356,1.22c1.12,2.749,3.476,3.693,6.551,3.693
		c3.357,0,6.315-1.437,6.315-4.787c0-3.584-2.924-4.403-6.057-4.788c-1.806-0.218-3.351-0.585-3.351-1.896
		c0-1.12,1.002-1.997,3.116-1.997c1.629,0,3.05,0.819,3.567,1.671L471.283,237.519z M454.773,247.294h-8.438v-3.401h8.138v-2.64
		h-8.138v-3.484h8.438v-2.749h-11.262c0,5.021,0,10.059,0,15.064h11.262V247.294z M428.656,235.021v15.064h10.577v-2.624h-7.737
		v-12.44H428.656z M423.024,246.242c-0.985,0.986-2.473,1.521-3.777,1.521c-3.726,0-5.163-2.598-5.18-5.088
		c-0.017-2.515,1.547-5.222,5.18-5.222c1.305,0,2.641,0.451,3.627,1.42l1.889-1.83c-1.538-1.529-3.476-2.298-5.516-2.298
		c-5.438,0-7.995,3.994-7.97,7.929c0.017,3.91,2.382,7.762,7.97,7.762c2.173,0,4.161-0.718,5.716-2.239L423.024,246.242z
		 M406.715,250.085v-15.064h-2.823v15.064H406.715z M392.228,250.085h2.832v-12.483h4.771v-2.581c-4.361,0-8.038,0-12.383,0v2.581
		h4.779V250.085z M378.007,237.669c1.788,0,2.591,1.203,2.591,2.415s-0.777,2.415-2.591,2.415h-4.311v-4.829H378.007z
		 M384.182,249.893l-4.554-5.138c2.857-0.584,3.802-2.657,3.802-4.737c0-2.615-1.871-4.971-5.423-4.996
		c-2.372,0.025-4.762,0-7.152,0v15.064h2.842v-5.03h2.724l4.387,5.03h3.375V249.893z M361.748,244.604h-5.589l2.79-6.417
		L361.748,244.604z M364.154,250.085h3.092l-6.751-15.064h-3.092l-6.751,15.064h3.075l1.286-2.84h7.871L364.154,250.085z"/> -->
	<path fill-rule="evenodd" clip-rule="evenodd" fill="#BCC2C6" d="M243.874,442.262h331.564c2.155,0,3.936,1.771,3.936,3.935v0.009
		c0,2.163-1.78,3.936-3.936,3.936H243.874c-2.155,0-3.927-1.772-3.927-3.936v-0.009
		C239.947,444.032,241.719,442.262,243.874,442.262"/>
	<path fill-rule="evenodd" clip-rule="evenodd" fill="#BCC2C6" d="M243.874,462.071h331.564c2.155,0,3.936,1.771,3.936,3.935v0.009
		c0,2.164-1.78,3.936-3.936,3.936H243.874c-2.155,0-3.927-1.771-3.927-3.936v-0.009
		C239.947,463.842,241.719,462.071,243.874,462.071"/>
	<path fill-rule="evenodd" clip-rule="evenodd" fill="#BCC2C6" d="M328.745,481.872h161.831c2.163,0,3.934,1.771,3.934,3.944l0,0
		c0,2.164-1.771,3.943-3.934,3.943H328.745c-2.172,0-3.943-1.779-3.943-3.943l0,0C324.802,483.644,326.573,481.872,328.745,481.872"
		/>
	<path fill="#BCC2C6" d="M438.874,534.435h-58.97c-2.265,0-4.32,0.928-5.824,2.432c-1.496,1.495-2.423,3.56-2.423,5.815v0.008
		c0,2.272,0.919,4.336,2.406,5.823l0.017,0.017c1.487,1.488,3.552,2.406,5.824,2.406h58.97c2.265,0,4.327-0.928,5.824-2.423
		c1.504-1.496,2.431-3.559,2.431-5.823v-0.008c0-2.265-0.927-4.329-2.423-5.833C443.211,535.362,441.146,534.435,438.874,534.435
		 M379.904,526.355h58.97c4.486,0,8.564,1.838,11.522,4.796l0.017,0.017c2.957,2.957,4.795,7.035,4.795,11.514v0.008
		c0,4.495-1.838,8.581-4.795,11.539c-2.958,2.957-7.044,4.795-11.539,4.795h-58.97c-4.471,0-8.557-1.838-11.522-4.795v-0.009
		l-0.017-0.008c-2.958-2.966-4.795-7.044-4.795-11.522v-0.008c0-4.487,1.837-8.573,4.795-11.53
		C371.323,528.193,375.417,526.355,379.904,526.355z"/>
	<path fill="#364A5E" d="M376.704,519.68h58.962c4.486,0,8.564,1.838,11.521,4.796l0.017,0.017
		c2.958,2.958,4.796,7.044,4.796,11.521l0,0c0,4.495-1.838,8.581-4.796,11.539c-2.957,2.958-7.035,4.795-11.538,4.795h-58.962
		c-4.479,0-8.557-1.837-11.53-4.795v-0.01l-0.017-0.008c-2.958-2.966-4.787-7.043-4.787-11.521l0,0
		c0-4.494,1.829-8.581,4.787-11.538C368.114,521.518,372.209,519.68,376.704,519.68"/>
	<path fill="#43C0B9" d="M435.666,524.542c3.049,0,5.957,1.212,8.112,3.359c2.156,2.155,3.358,5.063,3.358,8.112
		c0,3.041-1.211,5.949-3.366,8.104c-2.147,2.146-5.056,3.367-8.104,3.367h-58.962c-3.05,0-5.949-1.195-8.104-3.351l-0.017-0.017
		c-2.156-2.155-3.359-5.063-3.359-8.104c0-3.05,1.22-5.948,3.376-8.104c2.155-2.155,5.055-3.367,8.104-3.367H435.666z"/>
	<path fill="#7CCED2" d="M435.666,524.542c3.049,0,5.957,1.212,8.112,3.359c2.156,2.155,3.358,5.063,3.358,8.112
		c0,0.785-0.083,1.554-0.232,2.306c-0.452-2.181-1.521-4.194-3.126-5.798c-2.155-2.155-5.063-3.359-8.112-3.359h-58.962
		c-3.05,0-5.949,1.221-8.104,3.368c-1.605,1.604-2.69,3.617-3.143,5.798c-0.149-0.752-0.233-1.529-0.233-2.314
		c0-3.05,1.22-5.948,3.376-8.104c2.155-2.155,5.055-3.367,8.104-3.367H435.666z"/>
</g>
</svg>
