<?xml version="1.0" encoding="utf-8"?>
<!-- Generator: Adobe Illustrator 15.1.0, SVG Export Plug-In . SVG Version: 6.00 Build 0)  -->
<!DOCTYPE svg PUBLIC "-//W3C//DTD SVG 1.0//EN" "http://www.w3.org/TR/2001/REC-SVG-20010904/DTD/svg10.dtd">
<svg version="1.0" id="Layer_1" xmlns="http://www.w3.org/2000/svg" xmlns:xlink="http://www.w3.org/1999/xlink" x="0px" y="0px"
	 width="800px" height="800px" viewBox="188.9980010986328 218.6790008544922 422.97503662109375 379.68096923828125" enable-background="new 0 0 800 800" xml:space="preserve">
<g>
	<!-- <path fill="#BCC2C6" d="M205.286,218.679h390.407c4.471,0,8.551,1.834,11.498,4.782v0.026c2.947,2.947,4.782,7.009,4.782,11.481
		v347.111c0,4.473-1.835,8.542-4.782,11.489v0.018c-2.947,2.947-7.027,4.773-11.498,4.773H205.286
		c-4.481,0-8.559-1.826-11.499-4.773v-0.018c-2.947-2.947-4.789-7.017-4.789-11.489V234.968c0-4.472,1.842-8.534,4.789-11.481
		v-0.026C196.728,220.514,200.805,218.679,205.286,218.679"/> -->
	<!-- <path fill="#EBEFF0" d="M606.062,234.968v347.111c0,6.541-4.557,10.376-10.368,10.376H205.286c-5.812,0-10.376-3.726-10.376-10.376
		V234.968c0-6.774,4.59-10.375,10.376-10.375h390.407C601.497,224.592,606.062,228.318,606.062,234.968"/> -->
	<path fill="#BCC2C6" d="M203.134,266.372h394.703c3.894,0,7.429,1.583,9.982,4.146c2.563,2.562,4.154,6.097,4.154,9.99v303.724
		c0,3.895-1.591,7.429-4.154,9.99c-2.554,2.556-6.089,4.138-9.982,4.138H203.134c-3.886,0-7.421-1.582-9.981-4.138
		c-2.563-2.562-4.154-6.096-4.154-9.99V280.508c0-3.894,1.591-7.428,4.154-9.99C195.713,267.955,199.248,266.372,203.134,266.372"/>
	<path fill-rule="evenodd" clip-rule="evenodd" fill="#FFFFFF" d="M203.134,272.276c-2.187,0-4.255,0.872-5.805,2.42
		c-1.549,1.549-2.419,3.626-2.419,5.812v303.724c0,2.187,0.87,4.263,2.419,5.804c1.55,1.549,3.618,2.429,5.805,2.429h394.703
		c2.194,0,4.263-0.88,5.813-2.429c1.539-1.541,2.411-3.617,2.411-5.804V280.508c0-2.194-0.872-4.262-2.411-5.812
		c-1.551-1.549-3.627-2.42-5.813-2.42H203.134z"/>
	<!-- <path fill-rule="evenodd" clip-rule="evenodd" fill="#94A4A5" d="M547.037,238.745c4.163,0,7.529,3.366,7.529,7.521
		c0,4.153-3.366,7.52-7.529,7.52c-4.153,0-7.521-3.367-7.521-7.52C539.517,242.111,542.884,238.745,547.037,238.745 M570.67,238.745
		c4.154,0,7.52,3.366,7.52,7.521c0,4.153-3.365,7.52-7.52,7.52s-7.52-3.367-7.52-7.52
		C563.15,242.111,566.516,238.745,570.67,238.745z M523.421,238.745c4.155,0,7.521,3.366,7.521,7.521c0,4.153-3.365,7.52-7.521,7.52
		c-4.161,0-7.528-3.367-7.528-7.52C515.893,242.111,519.26,238.745,523.421,238.745z"/> -->
	<rect x="230.509" y="301.402" fill-rule="evenodd" clip-rule="evenodd" fill="#364A5E" width="140.616" height="119.939"/>
	<rect x="236.413" y="307.315" fill="#3EA3DB" width="128.8" height="108.113"/>
	<path fill-rule="evenodd" clip-rule="evenodd" fill="#BCC2C6" d="M234.453,465.842h132.72c2.176,0,3.952,1.775,3.952,3.945v0.008
		c0,2.168-1.776,3.944-3.952,3.944h-132.72c-2.168,0-3.944-1.776-3.944-3.944v-0.008
		C230.509,467.617,232.285,465.842,234.453,465.842"/>
	<path fill-rule="evenodd" clip-rule="evenodd" fill="#BCC2C6" d="M234.453,485.69h132.72c2.176,0,3.952,1.774,3.952,3.952l0,0
		c0,2.178-1.776,3.952-3.952,3.952h-132.72c-2.168,0-3.944-1.774-3.944-3.952l0,0C230.509,487.465,232.285,485.69,234.453,485.69"/>
	<path fill-rule="evenodd" clip-rule="evenodd" fill="#BCC2C6" d="M234.453,505.545h62.416c2.169,0,3.943,1.776,3.943,3.944v0.008
		c0,2.171-1.774,3.945-3.943,3.945h-62.416c-2.168,0-3.944-1.774-3.944-3.945v-0.008
		C230.509,507.321,232.285,505.545,234.453,505.545"/>
	<path fill-rule="evenodd" clip-rule="evenodd" fill="#BCC2C6" d="M234.453,445.987h132.72c2.176,0,3.952,1.784,3.952,3.943v0.01
		c0,2.168-1.776,3.944-3.952,3.944h-132.72c-2.168,0-3.944-1.776-3.944-3.944v-0.01
		C230.509,447.771,232.285,445.987,234.453,445.987"/>
	<path opacity="0.15" fill="#010101" d="M335.331,346.004c-1.205-1.206-2.863-1.942-4.704-1.942c-1.843,0-3.502,0.736-4.707,1.942
		c-1.197,1.197-1.944,2.864-1.944,4.707c0,1.833,0.755,3.492,1.952,4.69c1.197,1.206,2.856,1.951,4.699,1.951
		c1.841,0,3.499-0.745,4.704-1.943c1.198-1.198,1.944-2.864,1.944-4.698C337.275,348.869,336.529,347.202,335.331,346.004
		 M330.627,338.585c3.331,0,6.363,1.356,8.558,3.551l0.018,0.008c2.185,2.203,3.55,5.226,3.55,8.567c0,3.333-1.365,6.364-3.55,8.559
		l-0.018,0.008c-2.194,2.194-5.227,3.55-8.558,3.55c-3.352,0-6.383-1.365-8.577-3.55c-2.185-2.194-3.55-5.226-3.55-8.567
		c0-3.341,1.355-6.364,3.55-8.567l0.018-0.008C324.262,339.941,327.293,338.585,330.627,338.585z M324.814,368.297h0.008
		l0.084,0.117l1.531,2.043l-0.016,0.017l9.195,12.495c0.662,0.897,0.938,1.8,0.938,2.647h-0.016c0.008,0.67-0.152,1.289-0.453,1.817
		c-0.268,0.503-0.662,0.93-1.122,1.265c-0.753,0.553-1.725,0.862-2.705,0.862v-0.009l-23.122,0.009l-44.267-0.009
		c-1.073,0-1.993-0.3-2.714-0.828c-0.485-0.36-0.879-0.822-1.155-1.365h-0.01c-0.258-0.519-0.392-1.105-0.392-1.726h-0.008
		c0-0.921,0.318-1.892,0.996-2.822l9.696-13.173l-0.016-0.017l0.887-1.173l0.11-0.151l0.025-0.017l11.975-15.919
		c0.418-0.562,0.887-1.03,1.373-1.399c0.938-0.703,1.96-1.046,3.015-1.039c1.056,0,2.077,0.352,2.99,1.039
		c0.494,0.369,0.944,0.837,1.373,1.399l11.431,15.2l5.535-7.354c0.419-0.561,0.879-1.021,1.366-1.39
		c0.92-0.695,1.942-1.046,3.005-1.055c1.055,0,2.069,0.352,3.007,1.047c0.486,0.369,0.956,0.829,1.373,1.398l6.063,8.065
		L324.814,368.297z M329.672,384.1l-9.254-12.571l-0.395-0.535l-5.652-7.521l-0.008-0.017l-0.018,0.017l-6.398,8.5l-1.322,1.759
		l-2.178,2.905l-2.178-2.905l-1.323-1.759l-12.293-16.338l-0.018-0.017l-0.016,0.017l-11.607,15.425l-0.344,0.469l-9.236,12.571
		l41.704,0.008L329.672,384.1z"/>
	<path fill="#364A5E" d="M328.917,333.175c3.342,0,6.366,1.356,8.56,3.551l0.017,0.009c2.193,2.194,3.552,5.216,3.552,8.559
		c0,3.341-1.358,6.373-3.552,8.559l-0.017,0.008c-2.193,2.194-5.218,3.551-8.56,3.551c-3.349,0-6.372-1.357-8.567-3.551
		c-2.193-2.194-3.55-5.226-3.55-8.566c0-3.342,1.356-6.364,3.55-8.559l0.01-0.009C322.553,334.531,325.584,333.175,328.917,333.175
		 M323.114,362.887h0.008l0.084,0.109l1.532,2.043l-0.025,0.017l9.196,12.503c0.671,0.896,0.938,1.792,0.938,2.646h-0.009
		c0.009,0.67-0.159,1.281-0.46,1.818c-0.268,0.502-0.653,0.929-1.113,1.264c-0.755,0.553-1.735,0.863-2.706,0.863v-0.009
		l-23.13,0.009l-44.267-0.009c-1.072,0-1.995-0.301-2.714-0.837c-0.486-0.352-0.871-0.821-1.146-1.364h-0.01
		c-0.261-0.511-0.401-1.098-0.394-1.726h-0.008c0-0.913,0.318-1.884,0.997-2.813l9.688-13.173l-0.008-0.017l0.88-1.172l0.116-0.151
		l0,0l0.017-0.024l11.976-15.92c0.419-0.561,0.889-1.021,1.373-1.39c0.938-0.703,1.96-1.055,3.015-1.046
		c1.063,0.008,2.078,0.36,2.998,1.046c0.487,0.369,0.946,0.838,1.374,1.39l11.422,15.208l5.537-7.361
		c0.426-0.553,0.879-1.021,1.373-1.39c0.913-0.696,1.935-1.047,3.005-1.047c1.056,0,2.069,0.344,2.999,1.039
		c0.485,0.368,0.955,0.838,1.374,1.398l6.07,8.073L323.114,362.887z"/>
	<path fill-rule="evenodd" clip-rule="evenodd" fill="#54CAF2" d="M328.917,337.588c-2.043,0-3.985,0.813-5.477,2.303l0.016-0.025
		c-1.44,1.449-2.235,3.374-2.235,5.427c0,2.051,0.805,3.995,2.253,5.451c1.458,1.441,3.393,2.253,5.443,2.253
		c2.052,0,3.986-0.812,5.485-2.302l-0.024,0.025c1.457-1.449,2.243-3.375,2.243-5.427c0-2.053-0.786-3.978-2.219-5.402l-0.042-0.042
		C332.903,338.401,330.969,337.588,328.917,337.588 M263.664,379.72l43.765,0.009l22.595-0.009l-10.377-14.103l-6.146-8.174
		c-0.143-0.184-0.31-0.368-0.494-0.511c-0.1-0.075-0.225-0.159-0.353-0.159c-0.124,0-0.249,0.083-0.352,0.159
		c-0.184,0.143-0.352,0.327-0.494,0.511l-9.069,12.06l-14.956-19.898c-0.15-0.193-0.302-0.376-0.502-0.519
		c-0.093-0.075-0.219-0.159-0.352-0.167c-0.118,0-0.253,0.092-0.344,0.167c-0.192,0.134-0.359,0.326-0.495,0.519l-12.058,16.012
		L263.664,379.72z"/>
	<path fill-rule="evenodd" clip-rule="evenodd" fill="#BCC2C6" d="M433.799,327.865h132.717c2.179,0,3.953,1.784,3.953,3.953
		c0,2.177-1.774,3.953-3.953,3.953H433.799c-2.177,0-3.953-1.776-3.953-3.953C429.846,329.649,431.622,327.865,433.799,327.865"/>
	<path fill-rule="evenodd" clip-rule="evenodd" fill="#BCC2C6" d="M433.799,347.721h132.717c2.179,0,3.953,1.784,3.953,3.953
		c0,2.168-1.774,3.944-3.953,3.944H433.799c-2.177,0-3.953-1.775-3.953-3.944C429.846,349.505,431.622,347.721,433.799,347.721"/>
	<path fill-rule="evenodd" clip-rule="evenodd" fill="#BCC2C6" d="M433.799,308.019h132.717c2.179,0,3.953,1.775,3.953,3.953
		c0,2.168-1.774,3.952-3.953,3.952H433.799c-2.177,0-3.953-1.784-3.953-3.952C429.846,309.793,431.622,308.019,433.799,308.019"/>
	<path fill-rule="evenodd" clip-rule="evenodd" fill="#BCC2C6" d="M433.799,367.577h132.717c2.179,0,3.953,1.775,3.953,3.945v0.008
		c0,2.169-1.774,3.945-3.953,3.945H433.799c-2.177,0-3.953-1.775-3.953-3.945v-0.008
		C429.846,369.352,431.622,367.577,433.799,367.577"/>
	<path fill-rule="evenodd" clip-rule="evenodd" fill="#BCC2C6" d="M433.799,387.424h132.717c2.179,0,3.953,1.775,3.953,3.953l0,0
		c0,2.178-1.774,3.953-3.953,3.953H433.799c-2.177,0-3.953-1.775-3.953-3.953l0,0C429.846,389.199,431.622,387.424,433.799,387.424"
		/>
	<path fill-rule="evenodd" clip-rule="evenodd" fill="#BCC2C6" d="M433.799,407.28h132.717c2.179,0,3.953,1.774,3.953,3.944l0,0
		c0,2.178-1.774,3.952-3.953,3.952H433.799c-2.177,0-3.953-1.774-3.953-3.952l0,0C429.846,409.055,431.622,407.28,433.799,407.28"/>
	<rect x="429.846" y="443.398" fill-rule="evenodd" clip-rule="evenodd" fill="#364A5E" width="140.623" height="119.939"/>
	<rect x="435.759" y="449.311" fill="#3EA3DB" width="128.798" height="108.115"/>
	<path opacity="0.15" fill="#010101" d="M534.677,488.002c-1.205-1.198-2.864-1.943-4.706-1.943c-1.843,0-3.5,0.745-4.707,1.943
		c-1.197,1.206-1.942,2.864-1.942,4.707c0,1.832,0.745,3.49,1.942,4.688c1.207,1.206,2.864,1.95,4.707,1.95
		c1.842,0,3.501-0.744,4.706-1.934c1.19-1.207,1.935-2.863,1.935-4.705C536.611,490.866,535.867,489.208,534.677,488.002
		 M529.971,480.581c3.333,0,6.364,1.356,8.56,3.551l0.008,0.018c2.193,2.193,3.55,5.217,3.55,8.56c0,3.33-1.356,6.363-3.55,8.557
		l-0.008,0.008c-2.195,2.195-5.227,3.553-8.56,3.553c-3.35,0-6.382-1.357-8.575-3.553c-2.194-2.193-3.551-5.225-3.551-8.564
		c0-3.343,1.356-6.366,3.551-8.56l0.018-0.018C523.606,481.938,526.63,480.581,529.971,480.581z M524.158,510.295L524.158,510.295
		l0.084,0.117l1.541,2.041l-0.018,0.018l9.196,12.495c0.652,0.904,0.938,1.801,0.938,2.654h-0.018c0,0.671-0.158,1.282-0.451,1.817
		c-0.277,0.502-0.663,0.921-1.124,1.257c-0.752,0.561-1.725,0.871-2.712,0.871v-0.018l-23.113,0.008l-44.276-0.008
		c-1.063,0-1.993-0.301-2.704-0.82c-0.486-0.369-0.88-0.829-1.156-1.374h-0.009c-0.26-0.52-0.393-1.096-0.393-1.726h-0.01
		c0-0.911,0.311-1.893,0.996-2.813l9.699-13.182l-0.018-0.016l0.889-1.172l0.107-0.143l0.018-0.025l11.983-15.92
		c0.419-0.562,0.88-1.029,1.375-1.398c0.928-0.704,1.949-1.048,3.013-1.038c1.057,0,2.068,0.352,2.981,1.038
		c0.504,0.369,0.956,0.837,1.373,1.398l11.44,15.199l5.526-7.353c0.421-0.562,0.89-1.021,1.374-1.39
		c0.922-0.695,1.943-1.047,2.999-1.047c1.063-0.008,2.076,0.344,3.015,1.047c0.484,0.359,0.953,0.828,1.374,1.39l6.062,8.073
		L524.158,510.295z M529.007,526.097l-9.253-12.57l-0.385-0.528l-5.652-7.528l-0.018-0.017l-0.008,0.017l-6.398,8.51l-1.323,1.749
		l-2.178,2.907l-2.177-2.907l-1.323-1.749l-12.295-16.348l-0.017-0.018l-0.016,0.018l-11.606,15.426l-0.344,0.469l-9.245,12.57
		l41.713,0.008L529.007,526.097z"/>
	<path fill="#364A5E" d="M528.262,475.171c3.342,0,6.364,1.357,8.559,3.551l0.018,0.01c2.194,2.193,3.55,5.217,3.55,8.567
		c0,3.332-1.355,6.363-3.55,8.557h-0.018c-2.194,2.203-5.217,3.553-8.559,3.553c-3.35,0-6.38-1.358-8.574-3.553
		c-2.187-2.186-3.542-5.217-3.542-8.557c0-3.351,1.355-6.374,3.542-8.567l0.017-0.01
		C521.897,476.528,524.922,475.171,528.262,475.171 M522.458,504.885L522.458,504.885l0.084,0.107l1.534,2.053l-0.018,0.016
		l9.194,12.495c0.662,0.897,0.938,1.801,0.938,2.647h-0.008c0,0.67-0.168,1.279-0.462,1.816c-0.268,0.502-0.652,0.931-1.113,1.265
		c-0.763,0.553-1.733,0.862-2.713,0.862v-0.009l-23.122,0.009l-44.268-0.009c-1.07,0-1.992-0.301-2.714-0.828
		c-0.484-0.359-0.869-0.831-1.155-1.373l0,0c-0.268-0.513-0.401-1.099-0.401-1.718h-0.008c0-0.92,0.318-1.892,1.004-2.821
		l9.689-13.175l-0.017-0.016l0.888-1.172l0.109-0.15h0.008l0.018-0.018l11.975-15.928c0.418-0.553,0.887-1.021,1.373-1.391
		c0.938-0.704,1.96-1.048,3.015-1.038c1.064,0,2.077,0.352,2.99,1.038c0.494,0.369,0.955,0.838,1.373,1.391l11.432,15.208
		l5.535-7.354c0.418-0.562,0.879-1.021,1.365-1.399c0.921-0.686,1.942-1.037,3.007-1.045c1.056,0,2.077,0.342,3.005,1.045
		c0.487,0.37,0.956,0.83,1.374,1.399l6.072,8.065L522.458,504.885z"/>
	<path fill-rule="evenodd" clip-rule="evenodd" fill="#54CAF2" d="M528.262,479.593c-2.043,0-3.986,0.805-5.476,2.296l0.016-0.018
		c-1.439,1.439-2.244,3.366-2.244,5.428c0,2.042,0.805,3.985,2.262,5.442c1.447,1.448,3.392,2.253,5.442,2.253
		c2.053,0,3.987-0.813,5.478-2.303l-0.018,0.024c1.45-1.449,2.244-3.375,2.244-5.417c0-2.062-0.794-3.988-2.227-5.41l-0.042-0.043
		C532.249,480.397,530.314,479.593,528.262,479.593 M463.008,521.716l43.766,0.018l22.585-0.018l-10.374-14.102l-6.146-8.173
		c-0.135-0.186-0.303-0.369-0.486-0.512c-0.103-0.067-0.235-0.158-0.352-0.158c-0.125,0-0.261,0.083-0.353,0.158
		c-0.193,0.143-0.352,0.326-0.502,0.52l-9.062,12.051l-14.957-19.897c-0.15-0.186-0.31-0.377-0.502-0.52
		c-0.093-0.066-0.227-0.158-0.352-0.158c-0.126,0-0.251,0.082-0.352,0.158c-0.186,0.135-0.352,0.334-0.486,0.52l-12.059,16.012
		L463.008,521.716z"/>
	<!-- <path fill-rule="evenodd" clip-rule="evenodd" fill="#94A4A5" d="M462.256,241.274c-1.14-2.328-3.578-2.999-5.93-2.999
		c-2.78,0.026-5.829,1.29-5.829,4.389c0,3.383,2.84,4.204,5.921,4.573c2.003,0.217,3.491,0.795,3.491,2.219
		c0,1.633-1.682,2.261-3.466,2.261c-1.842,0-3.585-0.729-4.254-2.386l-2.362,1.222c1.123,2.755,3.484,3.701,6.565,3.701
		c3.366,0,6.332-1.44,6.332-4.798c0-3.592-2.933-4.413-6.072-4.799c-1.81-0.217-3.358-0.586-3.358-1.901
		c0-1.122,1.006-2.001,3.124-2.001c1.633,0,3.058,0.821,3.575,1.675L462.256,241.274z M445.708,251.072h-8.459v-3.4h8.157v-2.655
		h-8.157v-3.492h8.459v-2.747h-11.29c0,5.025,0,10.074,0,15.091h11.29V251.072z M419.528,238.778v15.091h10.604v-2.63h-7.755
		v-12.461H419.528z M413.884,250.017c-0.986,0.988-2.478,1.524-3.784,1.524c-3.736,0-5.176-2.604-5.193-5.1
		c-0.016-2.521,1.55-5.234,5.193-5.234c1.307,0,2.646,0.453,3.634,1.424l1.893-1.834c-1.541-1.532-3.483-2.302-5.526-2.302
		c-5.451,0-8.015,4.002-7.99,7.947c0.017,3.919,2.387,7.771,7.99,7.771c2.176,0,4.169-0.711,5.729-2.235L413.884,250.017z
		 M397.538,253.869v-15.091h-2.831v15.091H397.538z M383.016,253.869h2.84v-12.511h4.781v-2.58c-4.372,0-8.057,0-12.412,0v2.58
		h4.791V253.869z M368.764,241.424c1.791,0,2.596,1.206,2.596,2.421c0,1.214-0.779,2.42-2.596,2.42h-4.323v-4.841H368.764z
		 M374.952,253.677l-4.564-5.15c2.863-0.578,3.81-2.663,3.81-4.74c0-2.621-1.875-4.991-5.434-5.008c-2.379,0.017-4.774,0-7.169,0
		v15.091h2.846v-5.042h2.732l4.396,5.042h3.384V253.677z M352.466,248.375h-5.602l2.797-6.431L352.466,248.375z M354.877,253.869
		h3.1l-6.767-15.091h-3.099l-6.766,15.091h3.081l1.29-2.848h7.889L354.877,253.869z"/> -->
</g>
</svg>
