<?xml version="1.0" encoding="UTF-8" standalone="no"?>
<svg
   xmlns:dc="http://purl.org/dc/elements/1.1/"
   xmlns:cc="http://creativecommons.org/ns#"
   xmlns:rdf="http://www.w3.org/1999/02/22-rdf-syntax-ns#"
   xmlns:svg="http://www.w3.org/2000/svg"
   xmlns="http://www.w3.org/2000/svg"
   xmlns:sodipodi="http://sodipodi.sourceforge.net/DTD/sodipodi-0.dtd"
   xmlns:inkscape="http://www.inkscape.org/namespaces/inkscape"
   inkscape:version="1.0 (6e3e5246a0, 2020-05-07)"
   sodipodi:docname="Articles 33.svg"
   xml:space="preserve"
   enable-background="new 0 0 800 800"
   viewBox="0 0 800 800"
   height="800px"
   width="800px"
   y="0px"
   x="0px"
   id="Layer_1"
   version="1.0"><metadata
   id="metadata665"><rdf:RDF><cc:Work
       rdf:about=""><dc:format>image/svg+xml</dc:format><dc:type
         rdf:resource="http://purl.org/dc/dcmitype/StillImage" /><dc:title></dc:title></cc:Work></rdf:RDF></metadata><defs
   id="defs663" /><sodipodi:namedview
   inkscape:current-layer="Layer_1"
   inkscape:window-maximized="1"
   inkscape:window-y="28"
   inkscape:window-x="0"
   inkscape:cy="330.82135"
   inkscape:cx="400"
   inkscape:zoom="1.04375"
   showgrid="false"
   id="namedview661"
   inkscape:window-height="1026"
   inkscape:window-width="1920"
   inkscape:pageshadow="2"
   inkscape:pageopacity="0"
   guidetolerance="10"
   gridtolerance="10"
   objecttolerance="10"
   borderopacity="1"
   bordercolor="#666666"
   pagecolor="#ffffff" />
<g
   transform="matrix(1.89136,0,0,1.8913635,-377.21463,-372.65929)"
   id="g608">
	<!-- <path fill="#BCC2C6" d="M215.729,218.679h390.399c4.487,0,8.558,1.834,11.506,4.782v0.026c2.948,2.947,4.782,7.009,4.782,11.481
		v347.111c0,4.473-1.834,8.542-4.782,11.489v0.018c-2.948,2.947-7.019,4.773-11.506,4.773H215.729
		c-4.479,0-8.559-1.826-11.506-4.773v-0.018c-2.94-2.947-4.782-7.017-4.782-11.489V234.968c0-4.472,1.842-8.534,4.782-11.481v-0.026
		C207.171,220.514,211.25,218.679,215.729,218.679"/> -->
	<!-- <path fill="#EBEFF0" d="M616.505,234.968v347.111c0,6.541-4.549,10.376-10.376,10.376H215.729c-5.812,0-10.376-3.726-10.376-10.376
		V234.968c0-6.774,4.589-10.375,10.376-10.375h390.399C611.939,224.592,616.505,228.318,616.505,234.968"/> -->
	<path
   id="path568"
   d="m 213.576,266.372 h 394.695 c 3.902,0 7.437,1.583 10,4.146 2.553,2.562 4.146,6.097 4.146,9.99 v 303.724 c 0,3.895 -1.593,7.429 -4.146,9.99 -2.563,2.556 -6.098,4.138 -10,4.138 H 213.576 c -3.884,0 -7.419,-1.582 -9.981,-4.138 -2.563,-2.562 -4.153,-6.096 -4.153,-9.99 V 280.508 c 0,-3.894 1.591,-7.428 4.153,-9.99 2.562,-2.563 6.097,-4.146 9.981,-4.146"
   fill="#bcc2c6" />
	<path
   id="path570"
   d="m 213.576,272.276 c -2.185,0 -4.261,0.872 -5.811,2.42 -1.541,1.549 -2.412,3.626 -2.412,5.812 v 303.724 c 0,2.187 0.871,4.263 2.412,5.804 1.55,1.549 3.626,2.429 5.811,2.429 h 394.695 c 2.194,0 4.271,-0.88 5.813,-2.429 1.55,-1.541 2.421,-3.617 2.421,-5.804 V 280.508 c 0,-2.194 -0.871,-4.262 -2.421,-5.812 -1.541,-1.549 -3.618,-2.42 -5.813,-2.42 z"
   fill="#ffffff"
   clip-rule="evenodd"
   fill-rule="evenodd" />
	<!-- <path fill-rule="evenodd" clip-rule="evenodd" fill="#94A4A5" d="M557.488,238.745c4.154,0,7.521,3.366,7.521,7.521
		c0,4.153-3.366,7.52-7.521,7.52c-4.153,0-7.527-3.367-7.527-7.52C549.961,242.111,553.335,238.745,557.488,238.745
		 M581.114,238.745c4.146,0,7.528,3.366,7.528,7.521c0,4.153-3.383,7.52-7.528,7.52c-4.162,0-7.528-3.367-7.528-7.52
		C573.586,242.111,576.961,238.745,581.114,238.745z M533.857,238.745c4.153,0,7.521,3.366,7.521,7.521
		c0,4.153-3.367,7.52-7.521,7.52s-7.52-3.367-7.52-7.52C526.338,242.111,529.704,238.745,533.857,238.745z"/> -->
	<path
   id="path572"
   d="m 249.319,470.516 h 132.709 c 2.178,0 3.952,1.776 3.952,3.952 v 0 c 0,2.179 -1.774,3.952 -3.952,3.952 H 249.319 c -2.177,0 -3.953,-1.773 -3.953,-3.952 v 0 c 0,-2.176 1.777,-3.952 3.953,-3.952"
   fill="#bcc2c6"
   clip-rule="evenodd"
   fill-rule="evenodd" />
	<path
   id="path574"
   d="m 249.319,490.372 h 132.709 c 2.178,0 3.952,1.774 3.952,3.942 v 0.01 c 0,2.169 -1.774,3.945 -3.952,3.945 H 249.319 c -2.177,0 -3.953,-1.776 -3.953,-3.945 v -0.01 c 0,-2.168 1.777,-3.942 3.953,-3.942"
   fill="#bcc2c6"
   clip-rule="evenodd"
   fill-rule="evenodd" />
	<path
   id="path576"
   d="m 249.319,510.227 h 62.406 c 2.169,0 3.943,1.775 3.943,3.945 0,2.178 -1.774,3.952 -3.943,3.952 h -62.406 c -2.177,0 -3.953,-1.774 -3.953,-3.952 0,-2.17 1.777,-3.945 3.953,-3.945"
   fill="#bcc2c6"
   clip-rule="evenodd"
   fill-rule="evenodd" />
	<path
   id="path578"
   d="m 249.319,450.668 h 132.709 c 2.178,0 3.952,1.774 3.952,3.953 v 0 c 0,2.168 -1.774,3.944 -3.952,3.944 H 249.319 c -2.177,0 -3.953,-1.776 -3.953,-3.944 v 0 c 0,-2.179 1.777,-3.953 3.953,-3.953"
   fill="#bcc2c6"
   clip-rule="evenodd"
   fill-rule="evenodd" />
	<rect
   id="rect580"
   height="119.931"
   width="140.614"
   fill="#364a5e"
   clip-rule="evenodd"
   fill-rule="evenodd"
   y="306.08301"
   x="245.366" />
	<rect
   id="rect582"
   height="108.114"
   width="128.797"
   fill="#3ea3db"
   y="311.987"
   x="251.271" />
	<path
   id="path584"
   d="m 350.181,350.677 c -1.196,-1.197 -2.863,-1.934 -4.698,-1.934 -1.842,0 -3.509,0.737 -4.707,1.934 -1.197,1.206 -1.941,2.864 -1.941,4.707 0,1.833 0.744,3.5 1.949,4.698 1.199,1.206 2.865,1.951 4.699,1.951 1.835,0 3.502,-0.746 4.698,-1.943 1.207,-1.206 1.942,-2.863 1.942,-4.706 0,-1.842 -0.735,-3.501 -1.942,-4.707 m -4.699,-7.411 c 3.341,0 6.364,1.357 8.561,3.551 l 0.007,0.008 c 2.194,2.194 3.551,5.226 3.551,8.56 0,3.341 -1.356,6.364 -3.551,8.559 l -0.007,0.017 c -2.196,2.194 -5.22,3.542 -8.561,3.542 -3.35,0 -6.381,-1.348 -8.566,-3.542 -2.195,-2.194 -3.551,-5.226 -3.551,-8.575 0,-3.333 1.355,-6.366 3.551,-8.56 v -0.008 c 2.193,-2.195 5.226,-3.552 8.566,-3.552 z m -5.802,29.712 v 0 l 0.082,0.109 1.541,2.043 -0.032,0.017 9.204,12.502 c 0.66,0.897 0.938,1.801 0.938,2.646 h -0.009 c 0,0.67 -0.167,1.282 -0.46,1.817 -0.277,0.502 -0.662,0.921 -1.115,1.265 -0.76,0.561 -1.732,0.862 -2.712,0.862 v -0.009 l -23.123,0.009 -44.275,-0.009 c -1.063,-0.008 -1.992,-0.31 -2.704,-0.829 -0.494,-0.369 -0.879,-0.821 -1.148,-1.374 h -0.016 c -0.252,-0.52 -0.393,-1.097 -0.393,-1.725 h -0.01 c 0,-0.913 0.318,-1.884 1.004,-2.814 l 9.682,-13.172 v -0.017 l 0.879,-1.172 0.109,-0.143 v 0 l 0.018,-0.033 11.975,-15.912 c 0.418,-0.569 0.887,-1.039 1.373,-1.399 0.938,-0.711 1.96,-1.046 3.023,-1.046 1.064,0 2.068,0.352 2.991,1.046 0.484,0.369 0.954,0.83 1.371,1.399 l 11.433,15.191 5.534,-7.353 c 0.42,-0.553 0.872,-1.021 1.374,-1.39 0.914,-0.687 1.926,-1.038 2.999,-1.047 1.055,0 2.077,0.344 3.007,1.047 0.484,0.369 0.945,0.829 1.372,1.39 l 6.071,8.073 z m 4.84,15.803 -9.245,-12.579 -0.394,-0.528 -5.653,-7.52 -0.016,-0.018 -0.018,0.018 -6.382,8.5 -1.322,1.759 -2.186,2.897 -2.187,-2.897 -1.323,-1.759 -12.293,-16.347 -0.009,-0.017 -0.009,0.017 -11.615,15.434 -0.342,0.469 -9.246,12.571 h 41.712 z"
   fill="#010101"
   opacity="0.15" />
	<path
   id="path586"
   d="m 343.774,337.848 c 3.342,0 6.372,1.357 8.566,3.551 v 0.017 c 2.194,2.194 3.552,5.216 3.552,8.559 0,3.333 -1.357,6.364 -3.552,8.559 v 0.008 c -2.194,2.194 -5.225,3.551 -8.566,3.551 -3.343,0 -6.372,-1.356 -8.567,-3.551 -2.193,-2.194 -3.551,-5.225 -3.551,-8.566 0,-3.342 1.357,-6.365 3.551,-8.559 l 0.008,-0.017 c 2.195,-2.195 5.217,-3.552 8.559,-3.552 m -5.803,29.713 v 0 l 0.084,0.117 1.541,2.044 -0.025,0.017 9.203,12.494 c 0.654,0.905 0.938,1.801 0.938,2.655 h -0.017 c 0,0.67 -0.168,1.281 -0.452,1.818 -0.283,0.502 -0.669,0.921 -1.122,1.255 -0.754,0.562 -1.733,0.872 -2.713,0.872 v -0.017 l -23.122,0.008 -44.275,-0.008 c -1.064,0 -1.992,-0.302 -2.695,-0.821 -0.494,-0.368 -0.889,-0.829 -1.157,-1.373 h -0.016 c -0.252,-0.52 -0.386,-1.097 -0.386,-1.725 h -0.016 c 0,-0.913 0.317,-1.885 1.004,-2.814 l 9.688,-13.181 -0.009,-0.018 0.888,-1.172 0.102,-0.143 0.017,-0.024 11.984,-15.921 c 0.428,-0.561 0.879,-1.029 1.373,-1.398 0.938,-0.704 1.952,-1.047 3.022,-1.039 1.056,0 2.069,0.352 2.981,1.039 0.494,0.369 0.955,0.837 1.374,1.398 l 11.438,15.201 5.528,-7.354 c 0.418,-0.561 0.879,-1.021 1.373,-1.39 0.921,-0.695 1.935,-1.047 2.998,-1.047 1.056,-0.008 2.076,0.344 3.014,1.047 0.487,0.36 0.947,0.821 1.373,1.39 l 6.065,8.074 z"
   fill="#364a5e" />
	<path
   id="path588"
   d="m 343.774,342.269 c -2.051,0 -3.987,0.804 -5.478,2.303 l 0.025,-0.024 c -1.457,1.449 -2.245,3.375 -2.245,5.427 0,2.052 0.806,3.994 2.253,5.443 1.449,1.457 3.394,2.261 5.444,2.261 2.052,0 3.994,-0.812 5.485,-2.303 l -0.025,0.025 c 1.449,-1.458 2.244,-3.384 2.244,-5.427 0,-2.052 -0.795,-3.978 -2.219,-5.41 l -0.051,-0.033 c -1.438,-1.458 -3.381,-2.262 -5.433,-2.262 m -65.253,42.132 43.765,0.009 22.586,-0.009 -10.367,-14.103 -6.146,-8.173 c -0.144,-0.192 -0.319,-0.376 -0.503,-0.519 -0.084,-0.067 -0.219,-0.159 -0.336,-0.159 -0.135,0 -0.268,0.083 -0.369,0.167 -0.184,0.134 -0.352,0.327 -0.485,0.511 l -9.062,12.051 -14.974,-19.897 c -0.133,-0.185 -0.301,-0.368 -0.484,-0.511 -0.101,-0.076 -0.234,-0.167 -0.361,-0.167 -0.125,0 -0.251,0.091 -0.342,0.158 -0.193,0.143 -0.361,0.335 -0.502,0.52 l -12.043,16.012 z"
   fill="#54caf2"
   clip-rule="evenodd"
   fill-rule="evenodd" />
	<rect
   id="rect590"
   height="119.931"
   width="140.61501"
   fill="#364a5e"
   clip-rule="evenodd"
   fill-rule="evenodd"
   y="306.08301"
   x="435.87701" />
	<rect
   id="rect592"
   height="108.114"
   width="128.798"
   fill="#3ea3db"
   y="311.987"
   x="441.789" />
	<path
   id="path594"
   d="m 439.83,470.516 h 132.717 c 2.177,0 3.945,1.776 3.945,3.952 v 0 c 0,2.179 -1.769,3.952 -3.945,3.952 H 439.83 c -2.18,0 -3.953,-1.773 -3.953,-3.952 v 0 c 0,-2.176 1.773,-3.952 3.953,-3.952"
   fill="#bcc2c6"
   clip-rule="evenodd"
   fill-rule="evenodd" />
	<path
   id="path596"
   d="m 439.83,490.372 h 132.717 c 2.177,0 3.945,1.774 3.945,3.942 v 0.01 c 0,2.169 -1.769,3.945 -3.945,3.945 H 439.83 c -2.18,0 -3.953,-1.776 -3.953,-3.945 v -0.01 c 0,-2.168 1.773,-3.942 3.953,-3.942"
   fill="#bcc2c6"
   clip-rule="evenodd"
   fill-rule="evenodd" />
	<path
   id="path598"
   d="m 439.83,510.227 h 62.405 c 2.177,0 3.952,1.775 3.952,3.945 0,2.178 -1.775,3.952 -3.952,3.952 H 439.83 c -2.18,0 -3.953,-1.774 -3.953,-3.952 0,-2.17 1.773,-3.945 3.953,-3.945"
   fill="#bcc2c6"
   clip-rule="evenodd"
   fill-rule="evenodd" />
	<path
   id="path600"
   d="m 439.83,450.668 h 132.717 c 2.177,0 3.945,1.774 3.945,3.953 v 0 c 0,2.168 -1.769,3.944 -3.945,3.944 H 439.83 c -2.18,0 -3.953,-1.776 -3.953,-3.944 v 0 c 0,-2.179 1.773,-3.953 3.953,-3.953"
   fill="#bcc2c6"
   clip-rule="evenodd"
   fill-rule="evenodd" />
	<path
   id="path602"
   d="m 540.698,350.677 c -1.195,-1.197 -2.863,-1.934 -4.697,-1.934 -1.843,0 -3.509,0.737 -4.706,1.934 -1.207,1.206 -1.942,2.864 -1.942,4.707 0,1.833 0.735,3.5 1.942,4.698 1.205,1.206 2.863,1.951 4.706,1.951 1.834,0 3.502,-0.746 4.697,-1.943 1.197,-1.206 1.937,-2.863 1.937,-4.706 0,-1.842 -0.739,-3.501 -1.937,-4.707 m -4.697,-7.411 c 3.333,0 6.363,1.357 8.56,3.551 l 0.008,0.008 c 2.185,2.194 3.542,5.226 3.542,8.56 0,3.341 -1.357,6.364 -3.542,8.559 l -0.008,0.017 c -2.196,2.194 -5.227,3.542 -8.56,3.542 -3.351,0 -6.381,-1.348 -8.575,-3.542 -2.194,-2.194 -3.552,-5.226 -3.552,-8.575 0,-3.333 1.357,-6.366 3.552,-8.56 l 0.008,-0.008 c 2.194,-2.195 5.216,-3.552 8.567,-3.552 z m -5.813,29.712 v 0 l 0.085,0.109 1.541,2.043 -0.025,0.017 9.194,12.502 c 0.662,0.897 0.938,1.801 0.938,2.646 h -0.008 c 0,0.67 -0.167,1.282 -0.451,1.817 -0.285,0.502 -0.671,0.921 -1.123,1.265 -0.755,0.561 -1.726,0.862 -2.715,0.862 v -0.009 l -23.112,0.009 -44.283,-0.009 c -1.055,-0.008 -1.993,-0.31 -2.696,-0.829 -0.494,-0.369 -0.889,-0.821 -1.156,-1.374 h -0.018 c -0.251,-0.52 -0.385,-1.097 -0.385,-1.725 h -0.017 c 0,-0.913 0.318,-1.884 1.005,-2.814 l 9.682,-13.172 v -0.017 l 0.887,-1.172 0.101,-0.143 v 0 l 0.017,-0.033 11.983,-15.912 c 0.419,-0.569 0.88,-1.039 1.367,-1.399 0.937,-0.711 1.958,-1.046 3.029,-1.046 1.056,0 2.069,0.352 2.981,1.046 0.494,0.369 0.956,0.83 1.374,1.399 l 11.439,15.191 5.527,-7.353 c 0.419,-0.553 0.879,-1.021 1.373,-1.39 0.923,-0.687 1.935,-1.038 2.998,-1.047 1.055,0 2.078,0.344 3.017,1.047 0.484,0.369 0.945,0.829 1.371,1.39 l 6.064,8.073 z m 4.841,15.803 -9.245,-12.579 -0.387,-0.528 -5.659,-7.52 -0.009,-0.018 -0.018,0.018 -6.389,8.5 -1.324,1.759 -2.177,2.897 -2.187,-2.897 -1.322,-1.759 -12.294,-16.347 -0.008,-0.017 -0.018,0.017 -11.607,15.434 -0.352,0.469 -9.245,12.571 h 41.722 z"
   fill="#010101"
   opacity="0.15" />
	<path
   id="path604"
   d="m 534.291,337.848 c 3.333,0 6.366,1.357 8.56,3.551 l 0.008,0.017 c 2.195,2.194 3.553,5.216 3.553,8.559 0,3.333 -1.357,6.364 -3.553,8.559 l -0.008,0.008 c -2.193,2.194 -5.227,3.551 -8.56,3.551 -3.348,0 -6.381,-1.356 -8.574,-3.551 -2.194,-2.194 -3.551,-5.225 -3.551,-8.566 0,-3.342 1.356,-6.365 3.551,-8.559 l 0.018,-0.017 c 2.193,-2.195 5.216,-3.552 8.556,-3.552 m -5.81,29.713 v 0 l 0.083,0.117 1.541,2.044 -0.018,0.017 9.195,12.494 c 0.654,0.905 0.938,1.801 0.938,2.655 h -0.016 c 0,0.67 -0.16,1.281 -0.453,1.818 -0.275,0.502 -0.66,0.921 -1.121,1.255 -0.754,0.562 -1.725,0.872 -2.714,0.872 v -0.017 l -23.113,0.008 -44.275,-0.008 c -1.063,0 -1.992,-0.302 -2.705,-0.821 -0.485,-0.368 -0.88,-0.829 -1.155,-1.373 h -0.008 c -0.26,-0.52 -0.395,-1.097 -0.395,-1.725 h -0.008 c 0,-0.913 0.309,-1.885 0.996,-2.814 l 9.689,-13.181 -0.008,-0.018 0.887,-1.172 0.109,-0.143 0.016,-0.024 11.984,-15.921 c 0.419,-0.561 0.879,-1.029 1.365,-1.398 0.938,-0.704 1.958,-1.047 3.023,-1.039 1.055,0 2.076,0.352 2.989,1.039 0.494,0.369 0.945,0.837 1.365,1.398 l 11.44,15.201 5.526,-7.354 c 0.418,-0.561 0.888,-1.021 1.374,-1.39 0.92,-0.695 1.942,-1.047 2.997,-1.047 1.063,-0.008 2.077,0.344 3.015,1.047 0.486,0.36 0.955,0.821 1.374,1.39 l 6.063,8.074 z"
   fill="#364a5e" />
	<path
   id="path606"
   d="m 534.291,342.269 c -2.051,0 -3.985,0.804 -5.476,2.303 l 0.018,-0.024 c -1.45,1.449 -2.245,3.375 -2.245,5.427 0,2.052 0.805,3.994 2.261,5.443 1.441,1.457 3.384,2.261 5.442,2.261 2.045,0 3.988,-0.812 5.479,-2.303 l -0.018,0.025 c 1.44,-1.458 2.245,-3.384 2.245,-5.427 0,-2.052 -0.805,-3.978 -2.228,-5.41 l -0.043,-0.033 c -1.447,-1.458 -3.39,-2.262 -5.435,-2.262 m -65.253,42.132 43.766,0.009 22.577,-0.009 -10.367,-14.103 -6.147,-8.173 c -0.142,-0.192 -0.309,-0.376 -0.494,-0.519 -0.092,-0.067 -0.225,-0.159 -0.342,-0.159 -0.136,0 -0.26,0.083 -0.361,0.167 -0.191,0.134 -0.352,0.327 -0.493,0.511 l -9.061,12.051 -14.967,-19.897 c -0.143,-0.185 -0.309,-0.368 -0.494,-0.511 -0.1,-0.076 -0.234,-0.167 -0.352,-0.167 -0.133,0 -0.258,0.091 -0.352,0.158 -0.185,0.143 -0.353,0.335 -0.494,0.52 l -12.052,16.012 z"
   fill="#54caf2"
   clip-rule="evenodd"
   fill-rule="evenodd" />
	<!-- <path fill-rule="evenodd" clip-rule="evenodd" fill="#94A4A5" d="M472.699,241.274c-1.148-2.328-3.576-2.999-5.922-2.999
		c-2.78,0.026-5.845,1.29-5.845,4.389c0,3.383,2.847,4.204,5.93,4.573c2,0.217,3.483,0.795,3.483,2.219
		c0,1.633-1.674,2.261-3.468,2.261c-1.825,0-3.568-0.729-4.236-2.386l-2.379,1.222c1.121,2.755,3.501,3.701,6.574,3.701
		c3.358,0,6.34-1.44,6.34-4.798c0-3.592-2.933-4.413-6.081-4.799c-1.809-0.217-3.357-0.586-3.357-1.901
		c0-1.122,1.014-2.001,3.124-2.001c1.632,0,3.056,0.821,3.567,1.675L472.699,241.274z M456.151,251.072h-8.468v-3.4h8.165v-2.655
		h-8.165v-3.492h8.468v-2.747h-11.289c0,5.025,0,10.074,0,15.091h11.289V251.072z M429.98,238.778v15.091h10.594v-2.63h-7.755
		v-12.461H429.98z M424.328,250.017c-0.989,0.988-2.479,1.524-3.795,1.524c-3.717,0-5.157-2.604-5.183-5.1
		c-0.025-2.521,1.549-5.234,5.183-5.234c1.315,0,2.655,0.453,3.645,1.424l1.901-1.834c-1.56-1.532-3.493-2.302-5.546-2.302
		c-5.442,0-8.005,4.002-7.988,7.947c0.025,3.919,2.395,7.771,7.988,7.771c2.179,0,4.188-0.711,5.729-2.235L424.328,250.017z
		 M407.973,253.869v-15.091h-2.813v15.091H407.973z M393.451,253.869h2.848v-12.511h4.781v-2.58c-4.379,0-8.056,0-12.402,0v2.58
		h4.773V253.869z M379.215,241.424c1.784,0,2.579,1.206,2.579,2.421c0,1.214-0.77,2.42-2.579,2.42h-4.329v-4.841H379.215z
		 M385.396,253.677l-4.572-5.15c2.864-0.578,3.817-2.663,3.817-4.74c0-2.621-1.875-4.991-5.426-5.008c-2.396,0.017-4.78,0-7.177,0
		v15.091h2.848v-5.042h2.738l4.389,5.042h3.383V253.677z M362.901,248.375H357.3l2.806-6.431L362.901,248.375z M365.321,253.869
		h3.099l-6.766-15.091h-3.099l-6.767,15.091h3.082l1.289-2.848h7.89L365.321,253.869z"/> -->
</g>
<g
   id="g658">
	<path
   id="path610"
   d="M2809.751,218.679h390.399c4.479,0,8.56,1.834,11.506,4.782v0.026c2.948,2.947,4.782,7.009,4.782,11.481   v347.111c0,4.473-1.834,8.542-4.782,11.489v0.018c-2.946,2.947-7.026,4.773-11.506,4.773h-390.399   c-4.487,0-8.558-1.826-11.506-4.773v-0.018c-2.948-2.947-4.78-7.017-4.78-11.489V234.968c0-4.472,1.832-8.534,4.78-11.481v-0.026   C2801.193,220.514,2805.264,218.679,2809.751,218.679"
   fill="#BCC2C6" />
	<path
   id="path612"
   d="M3210.526,234.968v347.111c0,6.541-4.557,10.376-10.376,10.376h-390.399   c-5.812,0-10.374-3.726-10.374-10.376V234.968c0-6.774,4.579-10.375,10.374-10.375h390.399   C3205.963,224.592,3210.526,228.318,3210.526,234.968"
   fill="#EBEFF0" />
	<path
   id="path614"
   d="M2807.6,266.372h394.703c3.895,0,7.429,1.583,9.982,4.146c2.561,2.562,4.153,6.097,4.153,9.99v303.724   c0,3.895-1.593,7.429-4.153,9.99c-2.554,2.556-6.088,4.138-9.982,4.138H2807.6c-3.886,0-7.429-1.582-9.981-4.138   c-2.563-2.562-4.153-6.096-4.153-9.99V280.508c0-3.894,1.59-7.428,4.153-9.99C2800.171,267.955,2803.714,266.372,2807.6,266.372"
   fill="#BCC2C6" />
	<path
   id="path616"
   d="M2807.6,272.276c-2.187,0-4.263,0.872-5.813,2.42   c-1.539,1.549-2.42,3.626-2.42,5.812v303.724c0,2.187,0.881,4.263,2.42,5.804c1.55,1.549,3.626,2.429,5.813,2.429h394.703   c2.187,0,4.262-0.88,5.803-2.429c1.55-1.541,2.421-3.617,2.421-5.804V280.508c0-2.194-0.871-4.262-2.421-5.812   c-1.541-1.549-3.626-2.42-5.803-2.42H2807.6z"
   fill="#FFFFFF"
   clip-rule="evenodd"
   fill-rule="evenodd" />
	<path
   id="path618"
   d="M3151.504,238.745c4.154,0,7.528,3.366,7.528,7.521   c0,4.153-3.366,7.52-7.528,7.52c-4.153,0-7.521-3.367-7.521-7.52C3143.983,242.111,3147.351,238.745,3151.504,238.745    M3175.136,238.745c4.153,0,7.52,3.366,7.52,7.521c0,4.153-3.366,7.52-7.52,7.52s-7.528-3.367-7.528-7.52   C3167.607,242.111,3170.982,238.745,3175.136,238.745z M3127.88,238.745c4.153,0,7.52,3.366,7.52,7.521   c0,4.153-3.366,7.52-7.52,7.52c-4.154,0-7.528-3.367-7.528-7.52C3120.352,242.111,3123.726,238.745,3127.88,238.745z"
   fill="#94A4A5"
   clip-rule="evenodd"
   fill-rule="evenodd" />
	<polygon
   id="polygon620"
   points="2841.582,304.4 2943.214,304.4 2947.721,304.4 2947.721,308.897 2947.721,410.529   2947.721,415.026 2943.214,415.026 2841.582,415.026 2837.086,415.026 2837.086,410.529 2837.086,308.897 2837.086,304.4  "
   fill="#364A5E" />
	<rect
   id="rect622"
   height="99.605"
   width="99.614"
   fill="#3EA3DB"
   y="309.911"
   x="2842.596" />
	<path
   id="path624"
   d="M2923.685,346.13c-1.087-1.089-2.595-1.758-4.261-1.758c-1.667,0-3.176,0.669-4.264,1.758   c-1.089,1.089-1.759,2.596-1.759,4.262c0,1.659,0.678,3.174,1.767,4.263c1.09,1.088,2.597,1.767,4.256,1.767   c1.666,0,3.174-0.678,4.261-1.767c1.09-1.089,1.76-2.597,1.76-4.263S2924.774,347.219,2923.685,346.13 M2919.424,339.405   c3.031,0,5.77,1.231,7.762,3.216l0.01,0.017c1.983,1.985,3.216,4.732,3.216,7.754c0,3.033-1.232,5.771-3.216,7.764l-0.01,0.008   c-1.992,1.993-4.73,3.215-7.762,3.215c-3.032,0-5.779-1.222-7.773-3.215c-1.982-1.994-3.215-4.739-3.215-7.772   c0-3.022,1.232-5.77,3.215-7.754l0.018-0.017C2913.653,340.636,2916.4,339.405,2919.424,339.405z M2914.164,366.337   L2914.164,366.337l0.075,0.101l1.39,1.859l-0.016,0.017l8.341,11.322c0.594,0.821,0.846,1.642,0.846,2.412h-0.01   c0,0.604-0.149,1.156-0.418,1.642c-0.242,0.452-0.594,0.838-1.014,1.148c-0.678,0.502-1.565,0.779-2.453,0.779v-0.008   l-20.962,0.008l-40.13-0.008c-0.971,0-1.808-0.276-2.453-0.754c-0.442-0.326-0.804-0.745-1.047-1.24h-0.008   c-0.234-0.468-0.36-0.996-0.36-1.566h-0.008c0-0.82,0.293-1.708,0.903-2.545l8.784-11.941l-0.008-0.017l0.804-1.072l0.102-0.126   l0.016-0.025l10.853-14.429c0.387-0.511,0.806-0.93,1.249-1.265c0.847-0.636,1.774-0.955,2.737-0.946   c0.955,0.008,1.878,0.327,2.706,0.946c0.452,0.335,0.871,0.754,1.248,1.265l10.368,13.776l5.007-6.666   c0.385-0.503,0.805-0.922,1.249-1.257c0.827-0.628,1.75-0.946,2.721-0.954c0.956,0,1.876,0.31,2.721,0.954   c0.444,0.327,0.863,0.746,1.248,1.257l5.504,7.319L2914.164,366.337z M2918.551,380.666l-8.381-11.397l-0.353-0.485l-5.124-6.816   l-0.018-0.018l-0.008,0.018l-5.795,7.704l-1.198,1.591l-1.976,2.638l-1.978-2.638l-1.206-1.591l-11.139-14.814l-0.016-0.018   l-0.008,0.018l-10.527,13.994l-0.311,0.418l-8.382,11.397l37.81,0.008L2918.551,380.666z"
   fill="#010101"
   opacity="0.15" />
	<path
   id="path626"
   d="M2917.881,334.799c3.024,0,5.771,1.231,7.756,3.225l0.018,0.008c1.984,1.985,3.215,4.732,3.215,7.755   c0,3.031-1.23,5.778-3.215,7.763l-0.018,0.008c-1.984,1.993-4.731,3.216-7.756,3.216c-3.039,0-5.787-1.223-7.77-3.216   c-1.985-1.985-3.215-4.74-3.215-7.771c0-3.023,1.223-5.771,3.215-7.755l0.008-0.008   C2912.104,336.031,2914.852,334.799,2917.881,334.799 M2912.614,361.74v-0.008l0.076,0.108l1.397,1.851l-0.024,0.018l8.341,11.33   c0.595,0.813,0.854,1.633,0.854,2.403h-0.007c0,0.604-0.161,1.156-0.419,1.642c-0.252,0.46-0.604,0.837-1.014,1.147   c-0.688,0.502-1.566,0.779-2.462,0.779l0,0h-20.952h-40.141c-0.963,0-1.799-0.277-2.452-0.753c-0.443-0.335-0.795-0.754-1.048-1.24   h-0.008c-0.234-0.468-0.352-0.996-0.352-1.566h-0.01c0-0.829,0.286-1.716,0.905-2.555l8.785-11.941l-0.009-0.017l0.805-1.063   l0.092-0.134v0.009l0.016-0.034l10.862-14.429c0.386-0.511,0.805-0.93,1.239-1.264c0.854-0.637,1.784-0.947,2.748-0.938   c0.953,0,1.875,0.318,2.704,0.938c0.444,0.334,0.863,0.762,1.24,1.264l10.366,13.784l5.017-6.674   c0.376-0.502,0.796-0.921,1.239-1.256c0.839-0.628,1.76-0.946,2.722-0.954c0.964,0,1.884,0.318,2.729,0.954   c0.444,0.335,0.863,0.754,1.249,1.256l5.494,7.319L2912.614,361.74z"
   fill="#364A5E" />
	<path
   id="path628"
   d="M2913.135,340.988l-0.042,0.042   c-1.266,1.273-1.97,2.965-1.97,4.757c0,1.808,0.704,3.5,1.978,4.781c1.282,1.265,2.981,1.977,4.78,1.977   c1.793,0,3.452-0.703,4.74-1.951l0.043-0.05c1.272-1.273,1.969-2.957,1.969-4.757c0-1.776-0.688-3.468-1.942-4.732l-0.043-0.042   c-1.272-1.273-2.974-1.977-4.767-1.977C2916.082,339.037,2914.423,339.74,2913.135,340.988 M2859.178,376.772l39.217,0.008   l20.032-0.008l-9.136-12.412l-5.578-7.419c-0.109-0.15-0.243-0.302-0.402-0.419c-0.025-0.025-0.135-0.101-0.176-0.101   c-0.052,0-0.143,0.067-0.184,0.101c-0.151,0.117-0.285,0.269-0.403,0.428l-8.399,11.163l-13.743-18.272   c-0.116-0.16-0.249-0.319-0.399-0.428c-0.043-0.024-0.144-0.1-0.193-0.1c-0.042,0-0.143,0.076-0.176,0.093   c-0.15,0.117-0.286,0.276-0.402,0.427l-10.92,14.513L2859.178,376.772z"
   fill="#54CAF2"
   clip-rule="evenodd"
   fill-rule="evenodd" />
	<polygon
   id="polygon630"
   points="3066.688,449.713 3168.311,449.713 3172.816,449.713 3172.816,454.211 3172.816,555.834   3172.816,560.339 3168.311,560.339 3066.688,560.339 3062.182,560.339 3062.182,555.834 3062.182,454.211 3062.182,449.713  "
   fill="#364A5E" />
	<rect
   id="rect632"
   height="99.615"
   width="99.612"
   fill="#3EA3DB"
   y="455.215"
   x="3067.692" />
	<path
   id="path634"
   d="M3148.782,491.435c-1.09-1.088-2.597-1.758-4.263-1.758c-1.667,0-3.175,0.67-4.263,1.758   c-1.089,1.089-1.759,2.597-1.759,4.271c0,1.659,0.67,3.166,1.759,4.254c1.088,1.091,2.596,1.769,4.263,1.769   c1.666,0,3.173-0.678,4.263-1.769c1.089-1.088,1.767-2.595,1.767-4.254C3150.549,494.031,3149.871,492.523,3148.782,491.435    M3144.52,484.718c3.03,0,5.77,1.223,7.763,3.216l0.008,0.01c1.985,1.984,3.216,4.73,3.216,7.762c0,3.023-1.23,5.762-3.216,7.755   l-0.008,0.009c-1.993,1.984-4.732,3.225-7.763,3.225c-3.032,0-5.778-1.24-7.772-3.225c-1.985-1.985-3.216-4.731-3.216-7.764   c0-3.031,1.23-5.777,3.216-7.762l0.009-0.01C3138.748,485.94,3141.495,484.718,3144.52,484.718z M3139.26,511.65L3139.26,511.65   l0.074,0.1l1.392,1.853l-0.017,0.016l8.332,11.332c0.604,0.811,0.854,1.631,0.854,2.403h-0.009c0,0.61-0.15,1.162-0.418,1.642   c-0.242,0.46-0.594,0.846-1.015,1.146c-0.686,0.502-1.564,0.786-2.453,0.786v-0.017l-20.961,0.017l-40.131-0.017   c-0.971,0-1.808-0.268-2.454-0.752c-0.443-0.318-0.803-0.739-1.045-1.241h-0.01c-0.233-0.469-0.36-0.988-0.36-1.557h-0.007   c0-0.828,0.285-1.708,0.904-2.554l8.785-11.943l-0.009-0.017l0.803-1.063l0.093-0.135h0.01l0.016-0.018l10.854-14.437   c0.385-0.502,0.803-0.93,1.247-1.256c0.847-0.645,1.776-0.956,2.737-0.956c0.964,0.01,1.878,0.329,2.707,0.956   c0.443,0.334,0.861,0.754,1.247,1.256l10.368,13.784l5.016-6.666c0.377-0.511,0.797-0.931,1.24-1.265   c0.829-0.627,1.749-0.945,2.722-0.945c0.954,0,1.875,0.309,2.722,0.938c0.443,0.334,0.861,0.754,1.246,1.272l5.503,7.311   L3139.26,511.65z M3143.648,525.97l-8.383-11.396l-0.352-0.477l-5.126-6.817l-0.016-0.018l-0.01,0.018l-5.795,7.704l-1.198,1.591   l-1.975,2.63l-1.985-2.63l-1.197-1.591l-11.146-14.823l-0.008-0.016l-0.008,0.016l-10.527,13.995l-0.311,0.426l-8.382,11.389   l37.81,0.01L3143.648,525.97z"
   fill="#010101"
   opacity="0.15" />
	<path
   id="path636"
   d="M3142.979,480.112c3.022,0,5.769,1.231,7.754,3.216l0.008,0.008c1.994,1.985,3.227,4.732,3.227,7.765   c0,3.03-1.232,5.77-3.227,7.754l-0.008,0.017c-1.985,1.985-4.731,3.216-7.754,3.216c-3.04,0-5.787-1.23-7.772-3.216   c-1.993-1.993-3.217-4.74-3.217-7.771c0-3.032,1.224-5.779,3.217-7.765l0.01-0.008   C3137.199,481.344,3139.946,480.112,3142.979,480.112 M3137.711,507.045h0.008l0.066,0.101l1.4,1.85l-0.025,0.018l8.34,11.33   c0.595,0.82,0.846,1.634,0.846,2.403h-0.008c0.008,0.611-0.141,1.165-0.41,1.651c-0.25,0.45-0.602,0.836-1.015,1.138   c-0.686,0.504-1.572,0.787-2.462,0.787v-0.009l-20.96,0.009l-40.131-0.009c-0.962,0-1.808-0.274-2.454-0.754   c-0.443-0.326-0.795-0.745-1.046-1.239h-0.009c-0.234-0.469-0.353-0.996-0.353-1.565h-0.016c0-0.829,0.294-1.709,0.913-2.545   l8.776-11.943v-0.017l0.795-1.071l0.101-0.134v0.008l0.018-0.025l10.86-14.429c0.377-0.512,0.797-0.93,1.248-1.265   c0.846-0.644,1.769-0.954,2.731-0.946c0.962,0,1.876,0.326,2.712,0.946c0.444,0.335,0.864,0.753,1.239,1.265l10.369,13.776   l5.016-6.667c0.377-0.502,0.796-0.929,1.24-1.263c0.836-0.63,1.758-0.948,2.721-0.948c0.955,0,1.884,0.311,2.729,0.948   c0.444,0.334,0.863,0.752,1.241,1.263l5.5,7.319L3137.711,507.045z"
   fill="#364A5E" />
	<path
   id="path638"
   d="M3138.238,486.292l-0.051,0.051   c-1.272,1.272-1.968,2.956-1.968,4.758c0,1.799,0.703,3.5,1.978,4.772c1.271,1.272,2.981,1.976,4.781,1.976   c1.791,0,3.449-0.703,4.731-1.942l0.049-0.051c1.274-1.271,1.97-2.964,1.97-4.755c0-1.784-0.688-3.476-1.944-4.74l-0.041-0.035   c-1.274-1.272-2.974-1.976-4.765-1.976C3141.179,484.35,3139.52,485.045,3138.238,486.292 M3084.274,522.085h39.217l20.021-0.009   l-9.127-12.411l-5.577-7.41c-0.109-0.15-0.251-0.311-0.402-0.428c-0.033-0.026-0.132-0.092-0.175-0.092   c-0.052,0-0.143,0.065-0.185,0.092c-0.15,0.117-0.285,0.277-0.402,0.428l-8.398,11.162l-13.752-18.271   c-0.108-0.161-0.242-0.312-0.402-0.429c-0.033-0.025-0.135-0.099-0.184-0.099c-0.042,0-0.143,0.073-0.176,0.099   c-0.15,0.117-0.285,0.268-0.402,0.421l-10.92,14.52L3084.274,522.085z"
   fill="#54CAF2"
   clip-rule="evenodd"
   fill-rule="evenodd" />
	<path
   id="path640"
   d="M2982.434,345.837h186.43c2.17,0,3.953,1.775,3.953,3.953   c0,2.177-1.783,3.953-3.953,3.953h-186.43c-2.171,0-3.945-1.775-3.945-3.953C2978.488,347.612,2980.263,345.837,2982.434,345.837"
   fill="#BCC2C6"
   clip-rule="evenodd"
   fill-rule="evenodd" />
	<path
   id="path642"
   d="M2982.434,365.692h186.43c2.17,0,3.953,1.776,3.953,3.945   c0,2.178-1.783,3.952-3.953,3.952h-186.43c-2.171,0-3.945-1.774-3.945-3.952C2978.488,367.469,2980.263,365.692,2982.434,365.692"
   fill="#BCC2C6"
   clip-rule="evenodd"
   fill-rule="evenodd" />
	<path
   id="path644"
   d="M2982.434,385.548h89.263c2.177,0,3.952,1.775,3.952,3.944l0,0   c0,2.169-1.775,3.944-3.952,3.944h-89.263c-2.171,0-3.945-1.775-3.945-3.944l0,0   C2978.488,387.324,2980.263,385.548,2982.434,385.548"
   fill="#BCC2C6"
   clip-rule="evenodd"
   fill-rule="evenodd" />
	<path
   id="path646"
   d="M2982.434,325.989h186.43c2.17,0,3.953,1.776,3.953,3.945   c0,2.178-1.783,3.953-3.953,3.953h-186.43c-2.171,0-3.945-1.775-3.945-3.953C2978.488,327.766,2980.263,325.989,2982.434,325.989"
   fill="#BCC2C6"
   clip-rule="evenodd"
   fill-rule="evenodd" />
	<path
   id="path648"
   d="M3027.47,491.149h-186.431c-2.179,0-3.953,1.775-3.953,3.944   v0.009c0,2.16,1.774,3.944,3.953,3.944h186.431c2.169,0,3.945-1.784,3.945-3.944v-0.009   C3031.415,492.925,3029.639,491.149,3027.47,491.149"
   fill="#BCC2C6"
   clip-rule="evenodd"
   fill-rule="evenodd" />
	<path
   id="path650"
   d="M3027.47,510.998h-186.431c-2.179,0-3.953,1.773-3.953,3.952   c0,2.178,1.774,3.952,3.953,3.952h186.431c2.169,0,3.945-1.774,3.945-3.952C3031.415,512.771,3029.639,510.998,3027.47,510.998"
   fill="#BCC2C6"
   clip-rule="evenodd"
   fill-rule="evenodd" />
	<path
   id="path652"
   d="M3027.47,530.853h-89.271c-2.17,0-3.945,1.776-3.945,3.944   c0,2.179,1.775,3.953,3.945,3.953h89.271c2.169,0,3.945-1.774,3.945-3.953C3031.415,532.629,3029.639,530.853,3027.47,530.853"
   fill="#BCC2C6"
   clip-rule="evenodd"
   fill-rule="evenodd" />
	<path
   id="path654"
   d="M3027.47,471.295h-186.431c-2.179,0-3.953,1.774-3.953,3.943v0.01   c0,2.168,1.774,3.944,3.953,3.944h186.431c2.169,0,3.945-1.776,3.945-3.944v-0.01   C3031.415,473.069,3029.639,471.295,3027.47,471.295"
   fill="#BCC2C6"
   clip-rule="evenodd"
   fill-rule="evenodd" />
	<path
   id="path656"
   d="M3066.713,241.274c-1.14-2.328-3.576-2.999-5.92-2.999   c-2.782,0.026-5.839,1.29-5.839,4.389c0,3.383,2.849,4.204,5.922,4.573c2.009,0.217,3.491,0.795,3.491,2.219   c0,1.633-1.682,2.261-3.466,2.261c-1.835,0-3.578-0.729-4.246-2.386l-2.369,1.222c1.12,2.755,3.491,3.701,6.572,3.701   c3.358,0,6.332-1.44,6.332-4.798c0-3.592-2.931-4.413-6.071-4.799c-1.811-0.217-3.367-0.586-3.367-1.901   c0-1.122,1.014-2.001,3.124-2.001c1.642,0,3.063,0.821,3.575,1.675L3066.713,241.274z M3050.173,251.072h-8.466v-3.4h8.155v-2.655   h-8.155v-3.492h8.466v-2.747h-11.289c0,5.025,0,10.074,0,15.091h11.289V251.072z M3023.994,238.778v15.091h10.594v-2.63h-7.747   v-12.461H3023.994z M3018.351,250.017c-0.989,0.988-2.479,1.524-3.794,1.524c-3.727,0-5.167-2.604-5.192-5.1   c-0.017-2.521,1.557-5.234,5.192-5.234c1.315,0,2.646,0.453,3.643,1.424l1.894-1.834c-1.55-1.532-3.483-2.302-5.536-2.302   c-5.452,0-8.014,4.002-7.99,7.947c0.025,3.919,2.387,7.771,7.99,7.771c2.178,0,4.18-0.711,5.729-2.235L3018.351,250.017z    M3001.994,253.869v-15.091h-2.822v15.091H3001.994z M2987.475,253.869h2.838v-12.511h4.791v-2.58c-4.381,0-8.058,0-12.411,0v2.58   h4.782V253.869z M2973.229,241.424c1.792,0,2.588,1.206,2.588,2.421c0,1.214-0.778,2.42-2.588,2.42h-4.321v-4.841H2973.229z    M2979.408,253.677l-4.563-5.15c2.864-0.578,3.812-2.663,3.812-4.74c0-2.621-1.868-4.991-5.428-5.008c-2.386,0.017-4.773,0-7.169,0   v15.091h2.848v-5.042h2.73l4.396,5.042h3.374V253.677z M2956.925,248.375h-5.604l2.806-6.431L2956.925,248.375z M2959.335,253.869   h3.107l-6.767-15.091h-3.098l-6.768,15.091h3.082l1.289-2.848h7.881L2959.335,253.869z"
   fill="#94A4A5"
   clip-rule="evenodd"
   fill-rule="evenodd" />
</g>
</svg>
