<?xml version="1.0" encoding="UTF-8" standalone="no"?>
<svg
   xmlns:dc="http://purl.org/dc/elements/1.1/"
   xmlns:cc="http://creativecommons.org/ns#"
   xmlns:rdf="http://www.w3.org/1999/02/22-rdf-syntax-ns#"
   xmlns:svg="http://www.w3.org/2000/svg"
   xmlns="http://www.w3.org/2000/svg"
   xmlns:sodipodi="http://sodipodi.sourceforge.net/DTD/sodipodi-0.dtd"
   xmlns:inkscape="http://www.inkscape.org/namespaces/inkscape"
   inkscape:version="1.0 (6e3e5246a0, 2020-05-07)"
   sodipodi:docname="Articles 4.svg"
   xml:space="preserve"
   enable-background="new 0 0 800 800"
   viewBox="0 0 800 800"
   height="800px"
   width="800px"
   y="0px"
   x="0px"
   id="Layer_1"
   version="1.0"><metadata
   id="metadata2029"><rdf:RDF><cc:Work
       rdf:about=""><dc:format>image/svg+xml</dc:format><dc:type
         rdf:resource="http://purl.org/dc/dcmitype/StillImage" /></cc:Work></rdf:RDF></metadata><defs
   id="defs2027" /><sodipodi:namedview
   inkscape:current-layer="Layer_1"
   inkscape:window-maximized="1"
   inkscape:window-y="28"
   inkscape:window-x="0"
   inkscape:cy="325.66783"
   inkscape:cx="400"
   inkscape:zoom="1.07625"
   showgrid="false"
   id="namedview2025"
   inkscape:window-height="1026"
   inkscape:window-width="1920"
   inkscape:pageshadow="2"
   inkscape:pageopacity="0"
   guidetolerance="10"
   gridtolerance="10"
   objecttolerance="10"
   borderopacity="1"
   bordercolor="#666666"
   pagecolor="#ffffff" />
<g
   transform="matrix(1.89136,0,0,1.8913635,-355.06112,-372.65929)"
   id="g1972">
	<!-- <path fill="#BCC2C6" d="M204.018,218.679h390.398c4.48,0,8.558,1.834,11.506,4.782v0.026c2.947,2.947,4.783,7.009,4.783,11.481
		v347.111c0,4.473-1.836,8.542-4.783,11.489v0.018c-2.948,2.947-7.025,4.773-11.506,4.773H204.018c-4.48,0-8.56-1.826-11.508-4.773
		v-0.018c-2.946-2.947-4.781-7.017-4.781-11.489V234.968c0-4.472,1.835-8.534,4.781-11.481v-0.026
		C195.458,220.514,199.537,218.679,204.018,218.679"/> -->
	<!-- <path fill="#EBEFF0" d="M604.791,234.968v347.111c0,6.541-4.555,10.376-10.375,10.376H204.018c-5.813,0-10.377-3.726-10.377-10.376
		V234.968c0-6.774,4.581-10.375,10.377-10.375h390.398C600.227,224.592,604.791,228.318,604.791,234.968"/> -->
	<path
   id="path1938"
   d="m 201.864,266.372 h 394.703 c 3.895,0 7.429,1.583 9.983,4.146 2.562,2.562 4.154,6.097 4.154,9.99 v 303.724 c 0,3.895 -1.593,7.429 -4.154,9.99 -2.555,2.556 -6.089,4.138 -9.983,4.138 H 201.864 c -3.894,0 -7.429,-1.582 -9.982,-4.138 -2.563,-2.562 -4.153,-6.096 -4.153,-9.99 V 280.508 c 0,-3.894 1.591,-7.428 4.153,-9.99 2.554,-2.563 6.089,-4.146 9.982,-4.146"
   fill="#bcc2c6" />
	<path
   id="path1940"
   d="m 201.864,272.276 c -2.185,0 -4.263,0.872 -5.804,2.42 -1.549,1.549 -2.42,3.626 -2.42,5.812 v 303.724 c 0,2.187 0.871,4.263 2.42,5.804 1.541,1.549 3.619,2.429 5.804,2.429 h 394.703 c 2.187,0 4.263,-0.88 5.813,-2.429 1.541,-1.541 2.411,-3.617 2.411,-5.804 V 280.508 c 0,-2.194 -0.87,-4.262 -2.411,-5.812 -1.55,-1.549 -3.626,-2.42 -5.813,-2.42 z"
   fill="#ffffff" />
	<!-- <path fill-rule="evenodd" clip-rule="evenodd" fill="#94A4A5" d="M545.769,238.745c4.153,0,7.528,3.366,7.528,7.521
		c0,4.153-3.375,7.52-7.528,7.52s-7.521-3.367-7.521-7.52C538.248,242.111,541.615,238.745,545.769,238.745 M569.401,238.745
		c4.154,0,7.521,3.366,7.521,7.521c0,4.153-3.366,7.52-7.521,7.52c-4.153,0-7.529-3.367-7.529-7.52
		C561.872,242.111,565.248,238.745,569.401,238.745z M522.145,238.745c4.154,0,7.52,3.366,7.52,7.521c0,4.153-3.365,7.52-7.52,7.52
		c-4.153,0-7.521-3.367-7.521-7.52C514.624,242.111,517.991,238.745,522.145,238.745z"/> -->
	<rect
   id="rect1942"
   height="119.922"
   width="140.616"
   fill="#364a5e"
   clip-rule="evenodd"
   fill-rule="evenodd"
   y="310.27899"
   x="232.237" />
	<rect
   id="rect1944"
   height="108.122"
   width="128.80901"
   fill="#3ea3db"
   y="316.17499"
   x="238.142" />
	<path
   id="path1946"
   d="m 236.191,474.711 h 326.058 c 2.168,0 3.944,1.775 3.944,3.944 v 0 c 0,2.179 -1.776,3.952 -3.944,3.952 H 236.191 c -2.178,0 -3.954,-1.773 -3.954,-3.952 v 0 c 0,-2.169 1.777,-3.944 3.954,-3.944"
   fill="#bcc2c6"
   clip-rule="evenodd"
   fill-rule="evenodd" />
	<path
   id="path1948"
   d="m 236.191,494.566 h 326.058 c 2.168,0 3.944,1.767 3.944,3.944 v 0 c 0,2.169 -1.776,3.945 -3.944,3.945 H 236.191 c -2.178,0 -3.954,-1.776 -3.954,-3.945 v 0 c 0,-2.177 1.777,-3.944 3.954,-3.944"
   fill="#bcc2c6"
   clip-rule="evenodd"
   fill-rule="evenodd" />
	<path
   id="path1950"
   d="m 236.182,514.413 h 159.083 c 2.176,0 3.952,1.776 3.952,3.954 v 0 c 0,2.169 -1.776,3.943 -3.952,3.943 H 236.182 c -2.168,0 -3.944,-1.774 -3.944,-3.943 v 0 c -0.001,-2.178 1.776,-3.954 3.944,-3.954"
   fill="#bcc2c6"
   clip-rule="evenodd"
   fill-rule="evenodd" />
	<path
   id="path1952"
   d="m 236.191,454.855 h 326.058 c 2.168,0 3.944,1.774 3.944,3.953 0,2.176 -1.776,3.952 -3.944,3.952 H 236.191 c -2.178,0 -3.954,-1.776 -3.954,-3.952 0,-2.178 1.777,-3.953 3.954,-3.953"
   fill="#bcc2c6"
   clip-rule="evenodd"
   fill-rule="evenodd" />
	<path
   id="path1954"
   d="m 337.053,354.873 c -1.198,-1.197 -2.864,-1.943 -4.699,-1.943 -1.842,0 -3.508,0.746 -4.705,1.943 -1.197,1.197 -1.943,2.863 -1.943,4.698 0,1.842 0.746,3.5 1.951,4.707 1.198,1.197 2.865,1.942 4.697,1.942 1.835,0 3.501,-0.746 4.699,-1.942 1.205,-1.207 1.942,-2.864 1.942,-4.707 0,-1.835 -0.737,-3.501 -1.942,-4.698 m -4.699,-7.42 c 3.343,0 6.366,1.357 8.56,3.551 l 0.008,0.008 c 2.194,2.194 3.553,5.226 3.553,8.559 0,3.341 -1.358,6.372 -3.553,8.559 l -0.008,0.017 c -2.193,2.194 -5.217,3.551 -8.56,3.551 -3.348,0 -6.381,-1.356 -8.574,-3.551 -2.194,-2.194 -3.55,-5.226 -3.55,-8.575 0,-3.333 1.355,-6.365 3.55,-8.559 l 0.017,-0.008 c 2.193,-2.195 5.217,-3.552 8.557,-3.552 z m -5.803,29.713 v 0 l 0.084,0.109 1.532,2.044 -0.016,0.017 9.195,12.503 c 0.662,0.896 0.937,1.801 0.937,2.654 h -0.008 c 0,0.67 -0.168,1.273 -0.461,1.809 -0.275,0.501 -0.662,0.929 -1.113,1.265 -0.762,0.561 -1.733,0.862 -2.714,0.862 v -0.008 l -23.122,0.008 -44.274,-0.008 c -1.064,0 -1.995,-0.311 -2.705,-0.831 -0.495,-0.359 -0.879,-0.82 -1.155,-1.373 h -0.01 c -0.26,-0.511 -0.393,-1.089 -0.393,-1.725 h -0.008 c 0,-0.905 0.318,-1.884 0.996,-2.813 l 9.689,-13.173 -0.008,-0.008 0.887,-1.181 0.109,-0.143 v 0 l 0.016,-0.033 11.977,-15.912 c 0.426,-0.569 0.887,-1.03 1.372,-1.398 0.938,-0.705 1.961,-1.047 3.024,-1.047 1.063,0.009 2.067,0.36 2.989,1.047 0.486,0.368 0.955,0.837 1.373,1.398 l 11.432,15.2 5.528,-7.361 c 0.425,-0.552 0.887,-1.021 1.371,-1.39 0.922,-0.687 1.937,-1.038 2.998,-1.038 1.064,-0.009 2.078,0.335 3.015,1.038 0.487,0.369 0.946,0.838 1.374,1.39 l 6.072,8.073 z m 4.842,15.802 -9.245,-12.57 -0.395,-0.528 -5.653,-7.528 -0.018,-0.017 -0.008,0.017 -6.398,8.5 -1.314,1.759 -2.185,2.897 -2.187,-2.897 -1.314,-1.759 -12.293,-16.347 -0.018,-0.017 -0.008,0.017 -11.615,15.442 -0.344,0.461 -9.246,12.57 41.713,0.008 z"
   fill="#010101"
   opacity="0.15" />
	<path
   id="path1956"
   d="m 330.646,342.043 c 3.341,0 6.373,1.356 8.56,3.542 l 0.016,0.017 c 2.193,2.194 3.542,5.217 3.542,8.559 0,3.333 -1.349,6.364 -3.542,8.559 l -0.016,0.017 c -2.187,2.194 -5.219,3.551 -8.56,3.551 -3.342,0 -6.373,-1.356 -8.567,-3.559 -2.193,-2.186 -3.55,-5.217 -3.55,-8.567 0,-3.341 1.356,-6.365 3.55,-8.559 l 0.008,-0.017 c 2.196,-2.187 5.218,-3.543 8.559,-3.543 m -5.803,29.713 v -0.009 l 0.083,0.117 1.542,2.044 -0.026,0.017 9.197,12.503 c 0.66,0.896 0.938,1.801 0.938,2.646 h -0.01 c 0,0.669 -0.166,1.281 -0.459,1.817 -0.278,0.502 -0.654,0.921 -1.114,1.264 -0.763,0.553 -1.734,0.863 -2.714,0.863 v -0.017 l -23.123,0.017 -44.265,-0.017 c -1.073,0 -1.995,-0.302 -2.706,-0.821 -0.494,-0.368 -0.887,-0.829 -1.156,-1.373 h -0.017 c -0.251,-0.519 -0.385,-1.097 -0.385,-1.725 h -0.017 c 0,-0.913 0.318,-1.885 1.006,-2.814 l 9.688,-13.173 -0.008,-0.017 0.877,-1.181 0.11,-0.142 0.008,0.008 0.018,-0.033 11.975,-15.92 c 0.419,-0.562 0.881,-1.03 1.373,-1.399 0.938,-0.704 1.96,-1.039 3.025,-1.039 1.055,0 2.066,0.352 2.98,1.047 0.494,0.368 0.954,0.829 1.371,1.39 l 11.433,15.2 5.535,-7.354 c 0.42,-0.552 0.88,-1.021 1.374,-1.39 0.921,-0.687 1.934,-1.039 2.998,-1.046 1.055,0 2.076,0.343 3.007,1.046 0.494,0.368 0.954,0.83 1.373,1.39 l 6.071,8.074 z"
   fill="#364a5e" />
	<path
   id="path1958"
   d="m 330.646,346.456 c -2.052,0 -3.986,0.804 -5.477,2.304 l 0.025,-0.025 c -1.449,1.449 -2.253,3.375 -2.253,5.427 0,2.052 0.804,3.995 2.261,5.443 1.449,1.458 3.392,2.261 5.443,2.261 2.051,0 3.985,-0.804 5.486,-2.303 l -0.025,0.025 c 1.447,-1.449 2.243,-3.375 2.243,-5.427 0,-2.051 -0.796,-3.978 -2.218,-5.401 l -0.051,-0.042 c -1.448,-1.458 -3.383,-2.262 -5.434,-2.262 m -65.252,42.132 43.763,0.009 22.588,-0.009 -10.369,-14.094 -6.146,-8.173 c -0.143,-0.193 -0.309,-0.385 -0.502,-0.519 -0.083,-0.067 -0.219,-0.168 -0.344,-0.168 -0.125,0 -0.26,0.093 -0.352,0.168 -0.191,0.134 -0.359,0.326 -0.502,0.519 l -9.062,12.042 -14.957,-19.897 c -0.142,-0.184 -0.31,-0.368 -0.493,-0.511 -0.101,-0.076 -0.235,-0.16 -0.36,-0.16 -0.126,0 -0.252,0.084 -0.352,0.152 -0.184,0.142 -0.352,0.335 -0.495,0.519 l -12.043,16.02 z"
   fill="#54caf2"
   clip-rule="evenodd"
   fill-rule="evenodd" />
	<path
   id="path1960"
   d="m 400.932,331.132 h 161.317 c 2.168,0 3.944,1.775 3.944,3.953 v 0 c 0,2.177 -1.776,3.952 -3.944,3.952 H 400.932 c -2.176,0 -3.952,-1.775 -3.952,-3.952 v 0 c -0.001,-2.178 1.776,-3.953 3.952,-3.953"
   fill="#bcc2c6"
   clip-rule="evenodd"
   fill-rule="evenodd" />
	<path
   id="path1962"
   d="m 400.932,350.987 h 161.317 c 2.168,0 3.944,1.775 3.944,3.945 v 0 c 0,2.177 -1.776,3.953 -3.944,3.953 H 400.932 c -2.176,0 -3.952,-1.776 -3.952,-3.953 v 0 c -0.001,-2.17 1.776,-3.945 3.952,-3.945"
   fill="#bcc2c6"
   clip-rule="evenodd"
   fill-rule="evenodd" />
	<path
   id="path1964"
   d="m 400.932,311.284 h 161.317 c 2.168,0 3.944,1.775 3.944,3.944 v 0.009 c 0,2.168 -1.776,3.944 -3.944,3.944 H 400.932 c -2.176,0 -3.952,-1.776 -3.952,-3.944 v -0.009 c -0.001,-2.169 1.776,-3.944 3.952,-3.944"
   fill="#bcc2c6"
   clip-rule="evenodd"
   fill-rule="evenodd" />
	<path
   id="path1966"
   d="m 400.932,370.843 h 161.317 c 2.168,0 3.944,1.775 3.944,3.945 v 0 c 0,2.177 -1.776,3.944 -3.944,3.944 H 400.932 c -2.176,0 -3.952,-1.767 -3.952,-3.944 v 0 c -0.001,-2.17 1.776,-3.945 3.952,-3.945"
   fill="#bcc2c6"
   clip-rule="evenodd"
   fill-rule="evenodd" />
	<path
   id="path1968"
   d="m 400.932,390.69 h 161.317 c 2.168,0 3.944,1.775 3.944,3.953 v 0 c 0,2.178 -1.776,3.944 -3.944,3.944 H 400.932 c -2.176,0 -3.952,-1.767 -3.952,-3.944 v 0 c -0.001,-2.178 1.776,-3.953 3.952,-3.953"
   fill="#bcc2c6"
   clip-rule="evenodd"
   fill-rule="evenodd" />
	<path
   id="path1970"
   d="m 400.932,410.545 h 161.317 c 2.168,0 3.944,1.776 3.944,3.945 v 0 c 0,2.177 -1.776,3.952 -3.944,3.952 H 400.932 c -2.176,0 -3.952,-1.775 -3.952,-3.952 v 0 c -0.001,-2.169 1.776,-3.945 3.952,-3.945"
   fill="#bcc2c6"
   clip-rule="evenodd"
   fill-rule="evenodd" />
	<!-- <path fill-rule="evenodd" clip-rule="evenodd" fill="#94A4A5" d="M460.986,241.274c-1.147-2.328-3.576-2.999-5.93-2.999
		c-2.781,0.026-5.836,1.29-5.836,4.389c0,3.383,2.846,4.204,5.93,4.573c2,0.217,3.482,0.795,3.482,2.219
		c0,1.633-1.676,2.261-3.467,2.261c-1.835,0-3.576-0.729-4.246-2.386l-2.362,1.222c1.114,2.755,3.483,3.701,6.567,3.701
		c3.357,0,6.33-1.44,6.33-4.798c0-3.592-2.932-4.413-6.071-4.799c-1.81-0.217-3.358-0.586-3.358-1.901
		c0-1.122,1.005-2.001,3.125-2.001c1.631,0,3.055,0.821,3.575,1.675L460.986,241.274z M444.438,251.072h-8.467v-3.4h8.166v-2.655
		h-8.166v-3.492h8.467v-2.747H433.15c0,5.025,0,10.074,0,15.091h11.287V251.072z M418.261,238.778v15.091h10.601v-2.63h-7.754
		v-12.461H418.261z M412.615,250.017c-0.988,0.988-2.479,1.524-3.794,1.524c-3.726,0-5.167-2.604-5.184-5.1
		c-0.025-2.521,1.55-5.234,5.184-5.234c1.315,0,2.655,0.453,3.644,1.424l1.892-1.834c-1.55-1.532-3.483-2.302-5.535-2.302
		c-5.443,0-8.006,4.002-7.988,7.947c0.025,3.919,2.395,7.771,7.988,7.771c2.177,0,4.18-0.711,5.729-2.235L412.615,250.017z
		 M396.261,253.869v-15.091h-2.823v15.091H396.261z M381.738,253.869h2.849v-12.511h4.78v-2.58c-4.379,0-8.055,0-12.402,0v2.58
		h4.773V253.869z M367.503,241.424c1.784,0,2.578,1.206,2.578,2.421c0,1.214-0.769,2.42-2.578,2.42h-4.33v-4.841H367.503z
		 M373.682,253.677l-4.572-5.15c2.873-0.578,3.819-2.663,3.819-4.74c0-2.621-1.876-4.991-5.426-5.008c-2.396,0.017-4.783,0-7.177,0
		v15.091h2.847v-5.042h2.729l4.396,5.042h3.383V253.677z M351.188,248.375h-5.593l2.796-6.431L351.188,248.375z M353.602,253.869
		h3.106l-6.769-15.091h-3.097l-6.768,15.091h3.083l1.289-2.848h7.881L353.602,253.869z"/> -->
</g>
<g
   id="g2022">
	<path
   id="path1974"
   d="M2809.751,218.679h390.399c4.479,0,8.56,1.834,11.506,4.782v0.026c2.948,2.947,4.782,7.009,4.782,11.481   v347.111c0,4.473-1.834,8.542-4.782,11.489v0.018c-2.946,2.947-7.026,4.773-11.506,4.773h-390.399   c-4.487,0-8.558-1.826-11.506-4.773v-0.018c-2.948-2.947-4.78-7.017-4.78-11.489V234.968c0-4.472,1.832-8.534,4.78-11.481v-0.026   C2801.193,220.514,2805.264,218.679,2809.751,218.679"
   fill="#BCC2C6" />
	<path
   id="path1976"
   d="M3210.526,234.968v347.111c0,6.541-4.557,10.376-10.376,10.376h-390.399   c-5.812,0-10.374-3.726-10.374-10.376V234.968c0-6.774,4.579-10.375,10.374-10.375h390.399   C3205.963,224.592,3210.526,228.318,3210.526,234.968"
   fill="#EBEFF0" />
	<path
   id="path1978"
   d="M2807.6,266.372h394.703c3.895,0,7.429,1.583,9.982,4.146c2.561,2.562,4.153,6.097,4.153,9.99v303.724   c0,3.895-1.593,7.429-4.153,9.99c-2.554,2.556-6.088,4.138-9.982,4.138H2807.6c-3.886,0-7.429-1.582-9.981-4.138   c-2.563-2.562-4.153-6.096-4.153-9.99V280.508c0-3.894,1.59-7.428,4.153-9.99C2800.171,267.955,2803.714,266.372,2807.6,266.372"
   fill="#BCC2C6" />
	<path
   id="path1980"
   d="M2807.6,272.276c-2.187,0-4.263,0.872-5.813,2.42   c-1.539,1.549-2.42,3.626-2.42,5.812v303.724c0,2.187,0.881,4.263,2.42,5.804c1.55,1.549,3.626,2.429,5.813,2.429h394.703   c2.187,0,4.262-0.88,5.803-2.429c1.55-1.541,2.421-3.617,2.421-5.804V280.508c0-2.194-0.871-4.262-2.421-5.812   c-1.541-1.549-3.626-2.42-5.803-2.42H2807.6z"
   fill="#FFFFFF"
   clip-rule="evenodd"
   fill-rule="evenodd" />
	<path
   id="path1982"
   d="M3151.504,238.745c4.154,0,7.528,3.366,7.528,7.521   c0,4.153-3.366,7.52-7.528,7.52c-4.153,0-7.521-3.367-7.521-7.52C3143.983,242.111,3147.351,238.745,3151.504,238.745    M3175.136,238.745c4.153,0,7.52,3.366,7.52,7.521c0,4.153-3.366,7.52-7.52,7.52s-7.528-3.367-7.528-7.52   C3167.607,242.111,3170.982,238.745,3175.136,238.745z M3127.88,238.745c4.153,0,7.52,3.366,7.52,7.521   c0,4.153-3.366,7.52-7.52,7.52c-4.154,0-7.528-3.367-7.528-7.52C3120.352,242.111,3123.726,238.745,3127.88,238.745z"
   fill="#94A4A5"
   clip-rule="evenodd"
   fill-rule="evenodd" />
	<polygon
   id="polygon1984"
   points="2841.582,304.4 2943.214,304.4 2947.721,304.4 2947.721,308.897 2947.721,410.529   2947.721,415.026 2943.214,415.026 2841.582,415.026 2837.086,415.026 2837.086,410.529 2837.086,308.897 2837.086,304.4  "
   fill="#364A5E" />
	<rect
   id="rect1986"
   height="99.605"
   width="99.614"
   fill="#3EA3DB"
   y="309.911"
   x="2842.596" />
	<path
   id="path1988"
   d="M2923.685,346.13c-1.087-1.089-2.595-1.758-4.261-1.758c-1.667,0-3.176,0.669-4.264,1.758   c-1.089,1.089-1.759,2.596-1.759,4.262c0,1.659,0.678,3.174,1.767,4.263c1.09,1.088,2.597,1.767,4.256,1.767   c1.666,0,3.174-0.678,4.261-1.767c1.09-1.089,1.76-2.597,1.76-4.263S2924.774,347.219,2923.685,346.13 M2919.424,339.405   c3.031,0,5.77,1.231,7.762,3.216l0.01,0.017c1.983,1.985,3.216,4.732,3.216,7.754c0,3.033-1.232,5.771-3.216,7.764l-0.01,0.008   c-1.992,1.993-4.73,3.215-7.762,3.215c-3.032,0-5.779-1.222-7.773-3.215c-1.982-1.994-3.215-4.739-3.215-7.772   c0-3.022,1.232-5.77,3.215-7.754l0.018-0.017C2913.653,340.636,2916.4,339.405,2919.424,339.405z M2914.164,366.337   L2914.164,366.337l0.075,0.101l1.39,1.859l-0.016,0.017l8.341,11.322c0.594,0.821,0.846,1.642,0.846,2.412h-0.01   c0,0.604-0.149,1.156-0.418,1.642c-0.242,0.452-0.594,0.838-1.014,1.148c-0.678,0.502-1.565,0.779-2.453,0.779v-0.008   l-20.962,0.008l-40.13-0.008c-0.971,0-1.808-0.276-2.453-0.754c-0.442-0.326-0.804-0.745-1.047-1.24h-0.008   c-0.234-0.468-0.36-0.996-0.36-1.566h-0.008c0-0.82,0.293-1.708,0.903-2.545l8.784-11.941l-0.008-0.017l0.804-1.072l0.102-0.126   l0.016-0.025l10.853-14.429c0.387-0.511,0.806-0.93,1.249-1.265c0.847-0.636,1.774-0.955,2.737-0.946   c0.955,0.008,1.878,0.327,2.706,0.946c0.452,0.335,0.871,0.754,1.248,1.265l10.368,13.776l5.007-6.666   c0.385-0.503,0.805-0.922,1.249-1.257c0.827-0.628,1.75-0.946,2.721-0.954c0.956,0,1.876,0.31,2.721,0.954   c0.444,0.327,0.863,0.746,1.248,1.257l5.504,7.319L2914.164,366.337z M2918.551,380.666l-8.381-11.397l-0.353-0.485l-5.124-6.816   l-0.018-0.018l-0.008,0.018l-5.795,7.704l-1.198,1.591l-1.976,2.638l-1.978-2.638l-1.206-1.591l-11.139-14.814l-0.016-0.018   l-0.008,0.018l-10.527,13.994l-0.311,0.418l-8.382,11.397l37.81,0.008L2918.551,380.666z"
   fill="#010101"
   opacity="0.15" />
	<path
   id="path1990"
   d="M2917.881,334.799c3.024,0,5.771,1.231,7.756,3.225l0.018,0.008c1.984,1.985,3.215,4.732,3.215,7.755   c0,3.031-1.23,5.778-3.215,7.763l-0.018,0.008c-1.984,1.993-4.731,3.216-7.756,3.216c-3.039,0-5.787-1.223-7.77-3.216   c-1.985-1.985-3.215-4.74-3.215-7.771c0-3.023,1.223-5.771,3.215-7.755l0.008-0.008   C2912.104,336.031,2914.852,334.799,2917.881,334.799 M2912.614,361.74v-0.008l0.076,0.108l1.397,1.851l-0.024,0.018l8.341,11.33   c0.595,0.813,0.854,1.633,0.854,2.403h-0.007c0,0.604-0.161,1.156-0.419,1.642c-0.252,0.46-0.604,0.837-1.014,1.147   c-0.688,0.502-1.566,0.779-2.462,0.779l0,0h-20.952h-40.141c-0.963,0-1.799-0.277-2.452-0.753c-0.443-0.335-0.795-0.754-1.048-1.24   h-0.008c-0.234-0.468-0.352-0.996-0.352-1.566h-0.01c0-0.829,0.286-1.716,0.905-2.555l8.785-11.941l-0.009-0.017l0.805-1.063   l0.092-0.134v0.009l0.016-0.034l10.862-14.429c0.386-0.511,0.805-0.93,1.239-1.264c0.854-0.637,1.784-0.947,2.748-0.938   c0.953,0,1.875,0.318,2.704,0.938c0.444,0.334,0.863,0.762,1.24,1.264l10.366,13.784l5.017-6.674   c0.376-0.502,0.796-0.921,1.239-1.256c0.839-0.628,1.76-0.946,2.722-0.954c0.964,0,1.884,0.318,2.729,0.954   c0.444,0.335,0.863,0.754,1.249,1.256l5.494,7.319L2912.614,361.74z"
   fill="#364A5E" />
	<path
   id="path1992"
   d="M2913.135,340.988l-0.042,0.042   c-1.266,1.273-1.97,2.965-1.97,4.757c0,1.808,0.704,3.5,1.978,4.781c1.282,1.265,2.981,1.977,4.78,1.977   c1.793,0,3.452-0.703,4.74-1.951l0.043-0.05c1.272-1.273,1.969-2.957,1.969-4.757c0-1.776-0.688-3.468-1.942-4.732l-0.043-0.042   c-1.272-1.273-2.974-1.977-4.767-1.977C2916.082,339.037,2914.423,339.74,2913.135,340.988 M2859.178,376.772l39.217,0.008   l20.032-0.008l-9.136-12.412l-5.578-7.419c-0.109-0.15-0.243-0.302-0.402-0.419c-0.025-0.025-0.135-0.101-0.176-0.101   c-0.052,0-0.143,0.067-0.184,0.101c-0.151,0.117-0.285,0.269-0.403,0.428l-8.399,11.163l-13.743-18.272   c-0.116-0.16-0.249-0.319-0.399-0.428c-0.043-0.024-0.144-0.1-0.193-0.1c-0.042,0-0.143,0.076-0.176,0.093   c-0.15,0.117-0.286,0.276-0.402,0.427l-10.92,14.513L2859.178,376.772z"
   fill="#54CAF2"
   clip-rule="evenodd"
   fill-rule="evenodd" />
	<polygon
   id="polygon1994"
   points="3066.688,449.713 3168.311,449.713 3172.816,449.713 3172.816,454.211 3172.816,555.834   3172.816,560.339 3168.311,560.339 3066.688,560.339 3062.182,560.339 3062.182,555.834 3062.182,454.211 3062.182,449.713  "
   fill="#364A5E" />
	<rect
   id="rect1996"
   height="99.615"
   width="99.612"
   fill="#3EA3DB"
   y="455.215"
   x="3067.692" />
	<path
   id="path1998"
   d="M3148.782,491.435c-1.09-1.088-2.597-1.758-4.263-1.758c-1.667,0-3.175,0.67-4.263,1.758   c-1.089,1.089-1.759,2.597-1.759,4.271c0,1.659,0.67,3.166,1.759,4.254c1.088,1.091,2.596,1.769,4.263,1.769   c1.666,0,3.173-0.678,4.263-1.769c1.089-1.088,1.767-2.595,1.767-4.254C3150.549,494.031,3149.871,492.523,3148.782,491.435    M3144.52,484.718c3.03,0,5.77,1.223,7.763,3.216l0.008,0.01c1.985,1.984,3.216,4.73,3.216,7.762c0,3.023-1.23,5.762-3.216,7.755   l-0.008,0.009c-1.993,1.984-4.732,3.225-7.763,3.225c-3.032,0-5.778-1.24-7.772-3.225c-1.985-1.985-3.216-4.731-3.216-7.764   c0-3.031,1.23-5.777,3.216-7.762l0.009-0.01C3138.748,485.94,3141.495,484.718,3144.52,484.718z M3139.26,511.65L3139.26,511.65   l0.074,0.1l1.392,1.853l-0.017,0.016l8.332,11.332c0.604,0.811,0.854,1.631,0.854,2.403h-0.009c0,0.61-0.15,1.162-0.418,1.642   c-0.242,0.46-0.594,0.846-1.015,1.146c-0.686,0.502-1.564,0.786-2.453,0.786v-0.017l-20.961,0.017l-40.131-0.017   c-0.971,0-1.808-0.268-2.454-0.752c-0.443-0.318-0.803-0.739-1.045-1.241h-0.01c-0.233-0.469-0.36-0.988-0.36-1.557h-0.007   c0-0.828,0.285-1.708,0.904-2.554l8.785-11.943l-0.009-0.017l0.803-1.063l0.093-0.135h0.01l0.016-0.018l10.854-14.437   c0.385-0.502,0.803-0.93,1.247-1.256c0.847-0.645,1.776-0.956,2.737-0.956c0.964,0.01,1.878,0.329,2.707,0.956   c0.443,0.334,0.861,0.754,1.247,1.256l10.368,13.784l5.016-6.666c0.377-0.511,0.797-0.931,1.24-1.265   c0.829-0.627,1.749-0.945,2.722-0.945c0.954,0,1.875,0.309,2.722,0.938c0.443,0.334,0.861,0.754,1.246,1.272l5.503,7.311   L3139.26,511.65z M3143.648,525.97l-8.383-11.396l-0.352-0.477l-5.126-6.817l-0.016-0.018l-0.01,0.018l-5.795,7.704l-1.198,1.591   l-1.975,2.63l-1.985-2.63l-1.197-1.591l-11.146-14.823l-0.008-0.016l-0.008,0.016l-10.527,13.995l-0.311,0.426l-8.382,11.389   l37.81,0.01L3143.648,525.97z"
   fill="#010101"
   opacity="0.15" />
	<path
   id="path2000"
   d="M3142.979,480.112c3.022,0,5.769,1.231,7.754,3.216l0.008,0.008c1.994,1.985,3.227,4.732,3.227,7.765   c0,3.03-1.232,5.77-3.227,7.754l-0.008,0.017c-1.985,1.985-4.731,3.216-7.754,3.216c-3.04,0-5.787-1.23-7.772-3.216   c-1.993-1.993-3.217-4.74-3.217-7.771c0-3.032,1.224-5.779,3.217-7.765l0.01-0.008   C3137.199,481.344,3139.946,480.112,3142.979,480.112 M3137.711,507.045h0.008l0.066,0.101l1.4,1.85l-0.025,0.018l8.34,11.33   c0.595,0.82,0.846,1.634,0.846,2.403h-0.008c0.008,0.611-0.141,1.165-0.41,1.651c-0.25,0.45-0.602,0.836-1.015,1.138   c-0.686,0.504-1.572,0.787-2.462,0.787v-0.009l-20.96,0.009l-40.131-0.009c-0.962,0-1.808-0.274-2.454-0.754   c-0.443-0.326-0.795-0.745-1.046-1.239h-0.009c-0.234-0.469-0.353-0.996-0.353-1.565h-0.016c0-0.829,0.294-1.709,0.913-2.545   l8.776-11.943v-0.017l0.795-1.071l0.101-0.134v0.008l0.018-0.025l10.86-14.429c0.377-0.512,0.797-0.93,1.248-1.265   c0.846-0.644,1.769-0.954,2.731-0.946c0.962,0,1.876,0.326,2.712,0.946c0.444,0.335,0.864,0.753,1.239,1.265l10.369,13.776   l5.016-6.667c0.377-0.502,0.796-0.929,1.24-1.263c0.836-0.63,1.758-0.948,2.721-0.948c0.955,0,1.884,0.311,2.729,0.948   c0.444,0.334,0.863,0.752,1.241,1.263l5.5,7.319L3137.711,507.045z"
   fill="#364A5E" />
	<path
   id="path2002"
   d="M3138.238,486.292l-0.051,0.051   c-1.272,1.272-1.968,2.956-1.968,4.758c0,1.799,0.703,3.5,1.978,4.772c1.271,1.272,2.981,1.976,4.781,1.976   c1.791,0,3.449-0.703,4.731-1.942l0.049-0.051c1.274-1.271,1.97-2.964,1.97-4.755c0-1.784-0.688-3.476-1.944-4.74l-0.041-0.035   c-1.274-1.272-2.974-1.976-4.765-1.976C3141.179,484.35,3139.52,485.045,3138.238,486.292 M3084.274,522.085h39.217l20.021-0.009   l-9.127-12.411l-5.577-7.41c-0.109-0.15-0.251-0.311-0.402-0.428c-0.033-0.026-0.132-0.092-0.175-0.092   c-0.052,0-0.143,0.065-0.185,0.092c-0.15,0.117-0.285,0.277-0.402,0.428l-8.398,11.162l-13.752-18.271   c-0.108-0.161-0.242-0.312-0.402-0.429c-0.033-0.025-0.135-0.099-0.184-0.099c-0.042,0-0.143,0.073-0.176,0.099   c-0.15,0.117-0.285,0.268-0.402,0.421l-10.92,14.52L3084.274,522.085z"
   fill="#54CAF2"
   clip-rule="evenodd"
   fill-rule="evenodd" />
	<path
   id="path2004"
   d="M2982.434,345.837h186.43c2.17,0,3.953,1.775,3.953,3.953   c0,2.177-1.783,3.953-3.953,3.953h-186.43c-2.171,0-3.945-1.775-3.945-3.953C2978.488,347.612,2980.263,345.837,2982.434,345.837"
   fill="#BCC2C6"
   clip-rule="evenodd"
   fill-rule="evenodd" />
	<path
   id="path2006"
   d="M2982.434,365.692h186.43c2.17,0,3.953,1.776,3.953,3.945   c0,2.178-1.783,3.952-3.953,3.952h-186.43c-2.171,0-3.945-1.774-3.945-3.952C2978.488,367.469,2980.263,365.692,2982.434,365.692"
   fill="#BCC2C6"
   clip-rule="evenodd"
   fill-rule="evenodd" />
	<path
   id="path2008"
   d="M2982.434,385.548h89.263c2.177,0,3.952,1.775,3.952,3.944l0,0   c0,2.169-1.775,3.944-3.952,3.944h-89.263c-2.171,0-3.945-1.775-3.945-3.944l0,0   C2978.488,387.324,2980.263,385.548,2982.434,385.548"
   fill="#BCC2C6"
   clip-rule="evenodd"
   fill-rule="evenodd" />
	<path
   id="path2010"
   d="M2982.434,325.989h186.43c2.17,0,3.953,1.776,3.953,3.945   c0,2.178-1.783,3.953-3.953,3.953h-186.43c-2.171,0-3.945-1.775-3.945-3.953C2978.488,327.766,2980.263,325.989,2982.434,325.989"
   fill="#BCC2C6"
   clip-rule="evenodd"
   fill-rule="evenodd" />
	<path
   id="path2012"
   d="M3027.47,491.149h-186.431c-2.179,0-3.953,1.775-3.953,3.944   v0.009c0,2.16,1.774,3.944,3.953,3.944h186.431c2.169,0,3.945-1.784,3.945-3.944v-0.009   C3031.415,492.925,3029.639,491.149,3027.47,491.149"
   fill="#BCC2C6"
   clip-rule="evenodd"
   fill-rule="evenodd" />
	<path
   id="path2014"
   d="M3027.47,510.998h-186.431c-2.179,0-3.953,1.773-3.953,3.952   c0,2.178,1.774,3.952,3.953,3.952h186.431c2.169,0,3.945-1.774,3.945-3.952C3031.415,512.771,3029.639,510.998,3027.47,510.998"
   fill="#BCC2C6"
   clip-rule="evenodd"
   fill-rule="evenodd" />
	<path
   id="path2016"
   d="M3027.47,530.853h-89.271c-2.17,0-3.945,1.776-3.945,3.944   c0,2.179,1.775,3.953,3.945,3.953h89.271c2.169,0,3.945-1.774,3.945-3.953C3031.415,532.629,3029.639,530.853,3027.47,530.853"
   fill="#BCC2C6"
   clip-rule="evenodd"
   fill-rule="evenodd" />
	<path
   id="path2018"
   d="M3027.47,471.295h-186.431c-2.179,0-3.953,1.774-3.953,3.943v0.01   c0,2.168,1.774,3.944,3.953,3.944h186.431c2.169,0,3.945-1.776,3.945-3.944v-0.01   C3031.415,473.069,3029.639,471.295,3027.47,471.295"
   fill="#BCC2C6"
   clip-rule="evenodd"
   fill-rule="evenodd" />
	<path
   id="path2020"
   d="M3066.713,241.274c-1.14-2.328-3.576-2.999-5.92-2.999   c-2.782,0.026-5.839,1.29-5.839,4.389c0,3.383,2.849,4.204,5.922,4.573c2.009,0.217,3.491,0.795,3.491,2.219   c0,1.633-1.682,2.261-3.466,2.261c-1.835,0-3.578-0.729-4.246-2.386l-2.369,1.222c1.12,2.755,3.491,3.701,6.572,3.701   c3.358,0,6.332-1.44,6.332-4.798c0-3.592-2.931-4.413-6.071-4.799c-1.811-0.217-3.367-0.586-3.367-1.901   c0-1.122,1.014-2.001,3.124-2.001c1.642,0,3.063,0.821,3.575,1.675L3066.713,241.274z M3050.173,251.072h-8.466v-3.4h8.155v-2.655   h-8.155v-3.492h8.466v-2.747h-11.289c0,5.025,0,10.074,0,15.091h11.289V251.072z M3023.994,238.778v15.091h10.594v-2.63h-7.747   v-12.461H3023.994z M3018.351,250.017c-0.989,0.988-2.479,1.524-3.794,1.524c-3.727,0-5.167-2.604-5.192-5.1   c-0.017-2.521,1.557-5.234,5.192-5.234c1.315,0,2.646,0.453,3.643,1.424l1.894-1.834c-1.55-1.532-3.483-2.302-5.536-2.302   c-5.452,0-8.014,4.002-7.99,7.947c0.025,3.919,2.387,7.771,7.99,7.771c2.178,0,4.18-0.711,5.729-2.235L3018.351,250.017z    M3001.994,253.869v-15.091h-2.822v15.091H3001.994z M2987.475,253.869h2.838v-12.511h4.791v-2.58c-4.381,0-8.058,0-12.411,0v2.58   h4.782V253.869z M2973.229,241.424c1.792,0,2.588,1.206,2.588,2.421c0,1.214-0.778,2.42-2.588,2.42h-4.321v-4.841H2973.229z    M2979.408,253.677l-4.563-5.15c2.864-0.578,3.812-2.663,3.812-4.74c0-2.621-1.868-4.991-5.428-5.008c-2.386,0.017-4.773,0-7.169,0   v15.091h2.848v-5.042h2.73l4.396,5.042h3.374V253.677z M2956.925,248.375h-5.604l2.806-6.431L2956.925,248.375z M2959.335,253.869   h3.107l-6.767-15.091h-3.098l-6.768,15.091h3.082l1.289-2.848h7.881L2959.335,253.869z"
   fill="#94A4A5"
   clip-rule="evenodd"
   fill-rule="evenodd" />
</g>
</svg>
