<?xml version="1.0" encoding="utf-8"?>
<!-- Generator: Adobe Illustrator 15.1.0, SVG Export Plug-In . SVG Version: 6.00 Build 0)  -->
<!DOCTYPE svg PUBLIC "-//W3C//DTD SVG 1.0//EN" "http://www.w3.org/TR/2001/REC-SVG-20010904/DTD/svg10.dtd">
<svg version="1.0" id="Layer_1" xmlns="http://www.w3.org/2000/svg" xmlns:xlink="http://www.w3.org/1999/xlink" x="0px" y="0px"
	 width="800px" height="800px" viewBox="181.33399963378906 218.6790008544922 422.966064453125 379.68096923828125" enable-background="new 0 0 800 800" xml:space="preserve">
<g>
	<!-- <path fill="#BCC2C6" d="M197.614,218.679h390.397c4.489,0,8.56,1.834,11.508,4.782v0.026c2.946,2.947,4.781,7.009,4.781,11.481
		v347.111c0,4.473-1.835,8.542-4.781,11.489v0.018c-2.948,2.947-7.019,4.773-11.508,4.773H197.614c-4.489,0-8.56-1.826-11.507-4.773
		v-0.018c-2.947-2.947-4.773-7.017-4.773-11.489V234.968c0-4.472,1.826-8.534,4.773-11.481v-0.026
		C189.055,220.514,193.125,218.679,197.614,218.679"/> -->
	<!-- <path fill="#EBEFF0" d="M598.396,234.968v347.111c0,6.541-4.554,10.376-10.384,10.376H197.614c-5.813,0-10.376-3.726-10.376-10.376
		V234.968c0-6.774,4.581-10.375,10.376-10.375h390.397C593.824,224.592,598.396,228.318,598.396,234.968"/> -->
	<path fill="#BCC2C6" d="M195.469,266.372h394.696c3.894,0,7.428,1.583,9.989,4.146c2.563,2.562,4.146,6.097,4.146,9.99v303.724
		c0,3.895-1.583,7.429-4.146,9.99c-2.562,2.556-6.096,4.138-9.989,4.138H195.469c-3.902,0-7.436-1.582-9.989-4.138
		c-2.563-2.562-4.146-6.096-4.146-9.99V280.508c0-3.894,1.582-7.428,4.146-9.99C188.033,267.955,191.566,266.372,195.469,266.372"/>
	<path fill-rule="evenodd" clip-rule="evenodd" fill="#FFFFFF" d="M195.469,272.276c-2.193,0-4.271,0.872-5.811,2.42
		c-1.549,1.549-2.42,3.626-2.42,5.812v303.724c0,2.187,0.871,4.263,2.42,5.804c1.54,1.549,3.617,2.429,5.811,2.429h394.696
		c2.184,0,4.263-0.88,5.802-2.429c1.551-1.541,2.429-3.617,2.429-5.804V280.508c0-2.194-0.878-4.262-2.429-5.812
		c-1.539-1.549-3.618-2.42-5.802-2.42H195.469z"/>
	<!-- <path fill-rule="evenodd" clip-rule="evenodd" fill="#94A4A5" d="M539.374,238.745c4.153,0,7.521,3.366,7.521,7.521
		c0,4.153-3.367,7.52-7.521,7.52s-7.529-3.367-7.529-7.52C531.845,242.111,535.221,238.745,539.374,238.745 M562.997,238.745
		c4.153,0,7.529,3.366,7.529,7.521c0,4.153-3.376,7.52-7.529,7.52s-7.528-3.367-7.528-7.52
		C555.469,242.111,558.844,238.745,562.997,238.745z M515.74,238.745c4.154,0,7.521,3.366,7.521,7.521
		c0,4.153-3.366,7.52-7.521,7.52c-4.153,0-7.52-3.367-7.52-7.52C508.221,242.111,511.587,238.745,515.74,238.745z"/> -->
	<polygon fill="#364A5E" points="288.174,322.372 497.451,322.372 502.225,322.372 502.225,327.145 502.225,455.802
		502.225,460.575 497.451,460.575 288.174,460.575 283.401,460.575 283.401,455.802 283.401,327.145 283.401,322.372 	"/>
	<rect x="289.365" y="328.334" fill="#3EA3DB" width="206.896" height="126.27"/>
	<path opacity="0.15" fill="#010101" d="M454.489,366.89c-2.093-2.094-4.998-3.383-8.206-3.383c-3.207,0-6.105,1.29-8.208,3.383
		c-2.084,2.093-3.381,5-3.381,8.207c0,3.199,1.305,6.097,3.398,8.19c2.095,2.094,4.992,3.4,8.19,3.4
		c3.208,0,6.113-1.297,8.206-3.383c2.095-2.102,3.385-5,3.385-8.207C457.874,371.89,456.584,368.983,454.489,366.89
		 M446.283,353.959c5.829,0,11.105,2.362,14.932,6.189l0.018,0.017c3.827,3.827,6.188,9.104,6.188,14.932
		c0,5.82-2.36,11.104-6.188,14.923l-0.018,0.017c-3.826,3.828-9.103,6.198-14.932,6.198c-5.828,0-11.121-2.37-14.94-6.198
		c-3.827-3.818-6.197-9.111-6.197-14.939s2.37-11.105,6.197-14.932l0.018-0.017C435.179,356.322,440.464,353.959,446.283,353.959z
		 M436.167,405.772L436.167,405.772l0.142,0.193l2.682,3.567l-0.043,0.023l16.046,21.809c1.147,1.557,1.632,3.132,1.632,4.615
		h-0.016c0,1.172-0.293,2.235-0.795,3.164c-0.487,0.88-1.157,1.624-1.952,2.211c-1.323,0.963-3.022,1.508-4.731,1.508v-0.025
		l-40.323,0.018l-77.204-0.018c-1.858,0-3.476-0.528-4.722-1.449c-0.854-0.628-1.534-1.433-2.011-2.379h-0.018
		c-0.451-0.904-0.687-1.926-0.687-3.014h-0.017c0-1.591,0.553-3.291,1.742-4.908l16.9-22.979l-0.018-0.024l1.542-2.052l0.19-0.252
		h0.01l0.024-0.041l20.896-27.761c0.736-0.989,1.54-1.792,2.394-2.437c1.626-1.232,3.417-1.834,5.26-1.818
		c1.85,0.009,3.618,0.62,5.209,1.826c0.854,0.637,1.658,1.449,2.395,2.429l19.94,26.513l9.646-12.829
		c0.729-0.972,1.533-1.792,2.388-2.429c1.607-1.206,3.384-1.826,5.242-1.826c1.842,0,3.617,0.603,5.242,1.817
		c0.854,0.645,1.658,1.457,2.395,2.438l10.585,14.069L436.167,405.772z M444.609,433.333L428.479,411.4l-0.678-0.921l-9.856-13.114
		l-0.033-0.025l-0.017,0.025l-11.146,14.821l-2.304,3.065l-3.811,5.059l-3.802-5.059l-2.304-3.065l-21.438-28.498l-0.025-0.033
		l-0.025,0.033l-20.249,26.908l-0.603,0.812l-16.112,21.925l72.731,0.008L444.609,433.333z"/>
	<path fill="#364A5E" d="M443.319,347.009c5.812,0,11.097,2.37,14.924,6.197l0.016,0.017c3.819,3.827,6.188,9.103,6.188,14.923
		c0,5.828-2.369,11.104-6.188,14.932l-0.016,0.024c-3.827,3.82-9.112,6.189-14.924,6.189c-5.846,0-11.122-2.37-14.958-6.197
		c-3.817-3.828-6.18-9.103-6.18-14.948c0-5.82,2.362-11.097,6.18-14.923l0.025-0.017
		C432.215,349.379,437.49,347.009,443.319,347.009 M433.185,398.831L433.185,398.831l0.151,0.192l2.681,3.56l-0.034,0.033
		l16.029,21.809c1.155,1.557,1.642,3.132,1.642,4.612h-0.018c0,1.165-0.283,2.237-0.803,3.165c-0.479,0.88-1.147,1.618-1.944,2.204
		c-1.323,0.971-3.022,1.507-4.723,1.507v-0.017l-40.332,0.017l-77.203-0.017c-1.867,0-3.476-0.527-4.715-1.441
		c-0.854-0.635-1.541-1.439-2.009-2.394h-0.025c-0.443-0.904-0.688-1.91-0.679-3.015h-0.025c0-1.585,0.562-3.284,1.751-4.907
		l16.891-22.972l-0.009-0.025l1.541-2.051l0.186-0.26v0.008l0.032-0.041l20.887-27.77c0.736-0.98,1.54-1.793,2.396-2.429
		c1.641-1.223,3.415-1.826,5.275-1.826c1.842,0.017,3.601,0.628,5.209,1.826c0.854,0.645,1.658,1.457,2.387,2.429l19.938,26.514
		l9.648-12.83c0.736-0.971,1.54-1.775,2.396-2.429c1.599-1.206,3.366-1.809,5.225-1.817c1.842-0.008,3.626,0.595,5.251,1.817
		c0.846,0.637,1.657,1.458,2.396,2.429l10.583,14.077L433.185,398.831z"/>
	<path fill-rule="evenodd" clip-rule="evenodd" fill="#54CAF2" d="M443.319,352.436c4.169,0,8.132,1.65,11.088,4.606l0.017,0.017
		c2.956,2.956,4.605,6.917,4.605,11.088c0,4.187-1.649,8.14-4.605,11.104l-0.017,0.016c-2.956,2.949-6.919,4.599-11.088,4.599
		c-4.188,0-8.157-1.643-11.122-4.599c-2.956-2.964-4.606-6.934-4.606-11.121c0-4.17,1.659-8.132,4.606-11.088l0.018-0.017
		C435.179,354.086,439.132,352.436,443.319,352.436"/>
	<path fill-rule="evenodd" clip-rule="evenodd" fill="#54CAF2" d="M397.661,406.567l13.985-18.59c0.37-0.503,0.805-0.98,1.307-1.357
		c0.603-0.444,1.239-0.738,1.993-0.738c0.755,0,1.39,0.294,1.976,0.738c0.504,0.377,0.938,0.854,1.324,1.357l10.719,14.253
		l18.684,25.398c0.21,0.294,0.427,0.646,0.527,0.997l0.034,0.135v0.437l-0.034,0.142c-0.083,0.293-0.259,0.528-0.503,0.694
		c-0.317,0.233-0.72,0.369-1.104,0.427l-0.085,0.009l-40.65,0.018l-77.194-0.018c-0.502,0-1.105-0.084-1.508-0.386l-0.218-0.158
		l-0.293-0.611v-0.545l0.025-0.108c0.1-0.452,0.368-0.938,0.645-1.307l18.466-25.105l21.037-27.955
		c0.377-0.502,0.813-0.979,1.314-1.357c0.594-0.451,1.23-0.737,1.985-0.737c0.754,0,1.389,0.302,1.976,0.737
		c0.512,0.386,0.938,0.855,1.322,1.357L397.661,406.567z"/>
	<path fill-rule="evenodd" clip-rule="evenodd" fill="#BCC2C6" d="M278.795,494.768h228.044c2.169,0,3.945,1.776,3.945,3.944v0.009
		c0,2.161-1.776,3.943-3.945,3.943H278.795c-2.178,0-3.953-1.782-3.953-3.943v-0.009
		C274.842,496.544,276.617,494.768,278.795,494.768"/>
	<path fill-rule="evenodd" clip-rule="evenodd" fill="#BCC2C6" d="M278.795,514.614h228.044c2.169,0,3.945,1.776,3.945,3.952
		c0,2.171-1.776,3.955-3.945,3.955H278.795c-2.178,0-3.953-1.784-3.953-3.955C274.842,516.391,276.617,514.614,278.795,514.614"/>
	<path fill-rule="evenodd" clip-rule="evenodd" fill="#BCC2C6" d="M337.775,534.471h110.083c2.169,0,3.945,1.776,3.945,3.945
		c0,2.176-1.776,3.952-3.945,3.952H337.775c-2.168,0-3.944-1.776-3.944-3.952C333.831,536.247,335.607,534.471,337.775,534.471"/>
	<!-- <path fill-rule="evenodd" clip-rule="evenodd" fill="#94A4A5" d="M454.574,241.274c-1.14-2.328-3.568-2.999-5.912-2.999
		c-2.781,0.026-5.847,1.29-5.847,4.389c0,3.383,2.849,4.204,5.93,4.573c2.003,0.217,3.483,0.795,3.483,2.219
		c0,1.633-1.674,2.261-3.466,2.261c-1.827,0-3.568-0.729-4.238-2.386l-2.369,1.222c1.114,2.755,3.491,3.701,6.564,3.701
		c3.358,0,6.332-1.44,6.332-4.798c0-3.592-2.922-4.413-6.072-4.799c-1.809-0.217-3.366-0.586-3.366-1.901
		c0-1.122,1.021-2.001,3.132-2.001c1.634,0,3.059,0.821,3.576,1.675L454.574,241.274z M438.035,251.072h-8.467v-3.4h8.165v-2.655
		h-8.165v-3.492h8.467v-2.747h-11.281c0,5.025,0,10.074,0,15.091h11.281V251.072z M411.865,238.778v15.091h10.594v-2.63h-7.755
		v-12.461H411.865z M406.211,250.017c-0.986,0.988-2.47,1.524-3.792,1.524c-3.718,0-5.16-2.604-5.193-5.1
		c-0.016-2.521,1.557-5.234,5.193-5.234c1.322,0,2.653,0.453,3.643,1.424l1.9-1.834c-1.557-1.532-3.491-2.302-5.543-2.302
		c-5.443,0-8.007,4.002-7.989,7.947c0.023,3.919,2.394,7.771,7.989,7.771c2.177,0,4.188-0.711,5.727-2.235L406.211,250.017z
		 M389.856,253.869v-15.091h-2.813v15.091H389.856z M375.336,253.869h2.846v-12.511h4.783v-2.58c-4.372,0-8.058,0-12.402,0v2.58
		h4.773V253.869z M361.098,241.424c1.784,0,2.58,1.206,2.58,2.421c0,1.214-0.771,2.42-2.58,2.42h-4.329v-4.841H361.098z
		 M367.279,253.677l-4.563-5.15c2.862-0.578,3.81-2.663,3.81-4.74c0-2.621-1.875-4.991-5.428-5.008c-2.395,0.017-4.78,0-7.168,0
		v15.091h2.839v-5.042h2.739l4.388,5.042h3.384V253.677z M344.786,248.375h-5.594l2.796-6.431L344.786,248.375z M347.197,253.869
		h3.106l-6.767-15.091h-3.099l-6.758,15.091h3.073l1.299-2.848h7.872L347.197,253.869z"/> -->
</g>
</svg>
