<?xml version="1.0" encoding="utf-8"?>
<!-- Generator: Adobe Illustrator 15.1.0, SVG Export Plug-In . SVG Version: 6.00 Build 0)  -->
<!DOCTYPE svg PUBLIC "-//W3C//DTD SVG 1.0//EN" "http://www.w3.org/TR/2001/REC-SVG-20010904/DTD/svg10.dtd">
<svg version="1.0" id="Layer_1" xmlns="http://www.w3.org/2000/svg" xmlns:xlink="http://www.w3.org/1999/xlink" x="0px" y="0px"
	 width="800px" height="800px" viewBox="198.49400329589844 214.9770050048828 422.0009765625 378.8060302734375" enable-background="new 0 0 800 800" xml:space="preserve">
<g>
	<!-- <path fill="#BCC2C6" d="M214.745,214.977h389.499c4.469,0,8.538,1.83,11.479,4.771v0.025c2.94,2.933,4.771,6.993,4.771,11.455
		v346.311c0,4.462-1.83,8.523-4.771,11.464v0.017c-2.941,2.941-7.011,4.763-11.479,4.763H214.745c-4.47,0-8.54-1.821-11.479-4.763
		v-0.017c-2.941-2.94-4.771-7.002-4.771-11.464V231.228c0-4.461,1.83-8.522,4.771-11.455v-0.025
		C206.205,216.807,210.275,214.977,214.745,214.977"/> -->
	<!-- <path fill="#EBEFF0" d="M614.596,231.228v346.311c0,6.526-4.546,10.353-10.352,10.353H214.745c-5.799,0-10.353-3.718-10.353-10.353
		V231.228c0-6.759,4.571-10.352,10.353-10.352h389.499C610.042,220.875,614.596,224.594,614.596,231.228"/> -->
	<path fill="#BCC2C6" d="M212.597,262.559h393.794c3.885,0,7.411,1.58,9.959,4.136c2.558,2.557,4.145,6.083,4.145,9.968v303.024
		c0,3.885-1.587,7.41-4.145,9.967c-2.548,2.549-6.074,4.128-9.959,4.128H212.597c-3.884,0-7.41-1.579-9.958-4.128
		c-2.557-2.557-4.145-6.082-4.145-9.967V276.663c0-3.885,1.588-7.411,4.145-9.968C205.187,264.139,208.713,262.559,212.597,262.559"
		/>
	<path fill-rule="evenodd" clip-rule="evenodd" fill="#FFFFFF" d="M212.597,268.45c-2.181,0-4.252,0.869-5.789,2.415
		c-1.546,1.546-2.415,3.618-2.415,5.798v303.024c0,2.181,0.869,4.252,2.415,5.798c1.537,1.546,3.608,2.414,5.789,2.414h393.794
		c2.181,0,4.254-0.868,5.799-2.414c1.537-1.546,2.406-3.617,2.406-5.798V276.663c0-2.189-0.869-4.252-2.406-5.798
		c-1.545-1.545-3.618-2.415-5.799-2.415H212.597z"/>
	<!-- <path fill-rule="evenodd" clip-rule="evenodd" fill="#94A4A5" d="M555.709,234.996c4.145,0,7.511,3.359,7.511,7.503
		c0,4.145-3.366,7.503-7.511,7.503s-7.504-3.358-7.504-7.503C548.205,238.354,551.564,234.996,555.709,234.996 M579.287,234.996
		c4.144,0,7.503,3.359,7.503,7.503c0,4.145-3.359,7.503-7.503,7.503c-4.145,0-7.512-3.358-7.512-7.503
		C571.775,238.354,575.143,234.996,579.287,234.996z M532.139,234.996c4.145,0,7.504,3.359,7.504,7.503
		c0,4.145-3.359,7.503-7.504,7.503s-7.503-3.358-7.503-7.503C524.636,238.354,527.994,234.996,532.139,234.996z"/> -->
	<rect x="237.905" y="297.508" fill-rule="evenodd" clip-rule="evenodd" fill="#364A5E" width="343.179" height="119.654"/>
	<rect x="243.804" y="303.399" fill="#3EA3DB" width="331.381" height="107.873"/>
	<path opacity="0.15" fill="#010101" d="M443.926,342.008c-1.195-1.194-2.857-1.938-4.696-1.938c-1.829,0-3.492,0.744-4.688,1.938
		c-1.194,1.195-1.937,2.857-1.937,4.696c0,1.821,0.742,3.484,1.937,4.679c1.204,1.203,2.858,1.947,4.688,1.947
		c1.839,0,3.501-0.744,4.696-1.938c1.194-1.194,1.938-2.857,1.938-4.687C445.864,344.865,445.12,343.203,443.926,342.008
		 M439.229,334.605c3.334,0,6.358,1.354,8.539,3.542l0.018,0.008c2.188,2.189,3.542,5.205,3.542,8.547
		c0,3.325-1.354,6.35-3.542,8.539l-0.018,0.009c-2.181,2.189-5.205,3.542-8.539,3.542c-3.333,0-6.358-1.354-8.546-3.551
		c-2.189-2.18-3.544-5.205-3.544-8.539c0-3.342,1.354-6.358,3.544-8.547l0.008-0.008
		C432.881,335.959,435.905,334.605,439.229,334.605z M433.44,364.25h0.008l0.075,0.117l1.537,2.039l-0.025,0.017l9.184,12.466
		c0.65,0.894,0.926,1.797,0.926,2.641h-0.008c0,0.668-0.158,1.287-0.451,1.813c-0.275,0.501-0.659,0.928-1.119,1.262
		c-0.752,0.551-1.729,0.869-2.707,0.869v-0.018l-23.068,0.009l-44.166-0.009c-1.068,0-1.988-0.3-2.697-0.827
		c-0.494-0.359-0.887-0.827-1.153-1.362h-0.009c-0.259-0.518-0.393-1.103-0.393-1.721h-0.009c0-0.919,0.317-1.888,0.994-2.807
		l9.667-13.151l-0.008-0.017l0.886-1.169l0.1-0.15l0.009,0.008l0.016-0.025l11.949-15.892c0.426-0.551,0.885-1.019,1.369-1.387
		c0.937-0.702,1.955-1.044,3.018-1.036c1.052,0,2.063,0.351,2.974,1.036c0.493,0.368,0.952,0.835,1.37,1.387l11.414,15.173
		l5.514-7.336c0.418-0.56,0.877-1.019,1.369-1.395c0.92-0.686,1.931-1.037,2.992-1.045c1.053,0,2.072,0.351,3,1.045
		c0.493,0.368,0.951,0.827,1.369,1.395l6.058,8.046L433.44,364.25z M438.277,380.015l-9.232-12.541l-0.385-0.535l-5.648-7.503
		l-0.008-0.017l-0.016,0.017l-6.375,8.48l-1.321,1.755l-2.171,2.899l-2.182-2.899l-1.32-1.755l-12.266-16.301l-0.008-0.025
		l-0.018,0.025l-11.578,15.39l-0.344,0.468l-9.224,12.541l41.608,0.008L438.277,380.015z"/>
	<path fill="#364A5E" d="M437.533,329.208c3.326,0,6.351,1.354,8.539,3.542l0.009,0.008c2.189,2.189,3.542,5.205,3.542,8.539
		c0,3.333-1.353,6.35-3.542,8.547h-0.009c-2.188,2.189-5.213,3.542-8.539,3.542c-3.342,0-6.365-1.354-8.555-3.542
		c-2.181-2.181-3.535-5.206-3.535-8.547c0-3.334,1.354-6.35,3.535-8.539l0.017-0.008C431.185,330.562,434.2,329.208,437.533,329.208
		 M431.744,358.852L431.744,358.852l0.083,0.109l1.528,2.038l-0.016,0.017l9.174,12.475c0.66,0.894,0.936,1.788,0.936,2.64h-0.008
		c0,0.668-0.167,1.278-0.459,1.813c-0.277,0.501-0.661,0.927-1.112,1.262c-0.761,0.551-1.729,0.86-2.707,0.86v-0.008h-23.069
		h-44.172c-1.062,0-1.988-0.301-2.699-0.835c-0.484-0.351-0.878-0.819-1.152-1.362h-0.009c-0.259-0.51-0.394-1.095-0.394-1.721
		h-0.008c0-0.911,0.318-1.88,1.002-2.808l9.66-13.142l-0.01-0.017l0.886-1.169l0.108-0.15l0,0l0.018-0.017l11.947-15.892
		c0.427-0.56,0.887-1.019,1.371-1.387c0.935-0.702,1.955-1.053,3.016-1.044s2.063,0.359,2.982,1.044
		c0.485,0.368,0.953,0.835,1.37,1.387l11.405,15.173l5.522-7.344c0.418-0.56,0.878-1.019,1.362-1.387
		c0.919-0.694,1.93-1.045,3-1.045c1.052,0,2.071,0.343,2.999,1.045c0.484,0.359,0.944,0.827,1.37,1.387l6.049,8.055L431.744,358.852
		z"/>
	<path fill-rule="evenodd" clip-rule="evenodd" fill="#54CAF2" d="M437.533,333.611c-2.046,0-3.977,0.811-5.472,2.297l0.024-0.025
		c-1.445,1.445-2.239,3.367-2.239,5.414s0.802,3.985,2.249,5.431c1.452,1.454,3.392,2.256,5.438,2.256
		c2.048,0,3.979-0.811,5.465-2.298l-0.016,0.025c1.445-1.445,2.238-3.367,2.238-5.414s-0.793-3.969-2.223-5.389l-0.041-0.042
		C441.512,334.422,439.581,333.611,437.533,333.611 M372.422,375.646l43.664,0.008l22.543-0.008l-10.344-14.07l-6.142-8.154
		c-0.142-0.184-0.3-0.368-0.492-0.518c-0.092-0.067-0.227-0.151-0.343-0.151c-0.134,0-0.259,0.084-0.359,0.151
		c-0.184,0.15-0.351,0.334-0.493,0.518l-9.04,12.022l-14.931-19.843c-0.142-0.192-0.301-0.376-0.493-0.518
		c-0.092-0.075-0.226-0.167-0.359-0.167c-0.117,0-0.25,0.092-0.343,0.167c-0.183,0.134-0.351,0.326-0.493,0.518l-12.021,15.975
		L372.422,375.646z"/>
	<!-- <path fill-rule="evenodd" clip-rule="evenodd" fill="#94A4A5" d="M471.122,237.519c-1.146-2.323-3.568-2.991-5.916-2.991
		c-2.774,0.017-5.823,1.287-5.823,4.386c0,3.367,2.84,4.186,5.915,4.554c1.997,0.217,3.476,0.793,3.476,2.214
		c0,1.629-1.67,2.255-3.459,2.255c-1.829,0-3.567-0.727-4.235-2.381l-2.356,1.22c1.111,2.749,3.477,3.693,6.551,3.693
		c3.35,0,6.316-1.437,6.316-4.787c0-3.584-2.925-4.403-6.058-4.788c-1.805-0.218-3.351-0.585-3.351-1.896
		c0-1.12,1.002-1.997,3.116-1.997c1.63,0,3.05,0.819,3.567,1.671L471.122,237.519z M454.612,247.294h-8.448v-3.401h8.146v-2.64
		h-8.146v-3.484h8.448v-2.749h-11.264c0,5.021,0,10.059,0,15.064h11.264V247.294z M428.494,235.021v15.064h10.577v-2.624h-7.737
		v-12.44H428.494z M422.862,246.242c-0.985,0.986-2.474,1.521-3.784,1.521c-3.719,0-5.155-2.598-5.172-5.088
		c-0.025-2.515,1.545-5.222,5.172-5.222c1.311,0,2.648,0.451,3.635,1.42l1.888-1.83c-1.546-1.529-3.477-2.298-5.522-2.298
		c-5.431,0-7.988,3.994-7.972,7.929c0.024,3.91,2.39,7.762,7.972,7.762c2.172,0,4.168-0.718,5.715-2.239L422.862,246.242z
		 M406.545,250.085v-15.064h-2.816v15.064H406.545z M392.057,250.085h2.842v-12.483h4.771v-2.581c-4.37,0-8.038,0-12.374,0v2.581
		h4.762V250.085z M377.854,237.669c1.78,0,2.573,1.203,2.573,2.415s-0.769,2.415-2.573,2.415h-4.32v-4.829H377.854z M384.02,249.893
		l-4.563-5.138c2.867-0.584,3.811-2.657,3.811-4.737c0-2.615-1.871-4.971-5.414-4.996c-2.39,0.025-4.771,0-7.16,0v15.064h2.84v-5.03
		h2.725l4.386,5.03h3.376V249.893z M361.578,244.604h-5.581l2.79-6.417L361.578,244.604z M363.983,250.085h3.101l-6.752-15.064
		h-3.091l-6.751,15.064h3.075l1.286-2.84h7.862L363.983,250.085z"/> -->
	<path fill-rule="evenodd" clip-rule="evenodd" fill="#BCC2C6" d="M245.592,464.929h191.073c2.173,0,3.943,1.771,3.943,3.935v0.008
		c0,2.165-1.771,3.936-3.943,3.936H245.592c-2.173,0-3.943-1.771-3.943-3.936v-0.008C241.648,466.7,243.419,464.929,245.592,464.929
		"/>
	<path fill-rule="evenodd" clip-rule="evenodd" fill="#BCC2C6" d="M245.592,484.73h191.073c2.173,0,3.943,1.771,3.943,3.943l0,0
		c0,2.173-1.771,3.943-3.943,3.943H245.592c-2.173,0-3.943-1.771-3.943-3.943l0,0C241.648,486.501,243.419,484.73,245.592,484.73"/>
	<path fill-rule="evenodd" clip-rule="evenodd" fill="#BCC2C6" d="M245.583,504.54h91.606c2.164,0,3.936,1.771,3.936,3.936v0.008
		c0,2.164-1.771,3.936-3.936,3.936h-91.606c-2.164,0-3.935-1.771-3.935-3.936v-0.008C241.648,506.311,243.419,504.54,245.583,504.54
		"/>
	<path fill-rule="evenodd" clip-rule="evenodd" fill="#BCC2C6" d="M245.592,445.118h191.073c2.173,0,3.943,1.771,3.943,3.936v0.008
		c0,2.165-1.771,3.936-3.943,3.936H245.592c-2.173,0-3.943-1.771-3.943-3.936v-0.008
		C241.648,446.89,243.419,445.118,245.592,445.118"/>
	<polygon fill="#364A5E" points="475.19,442.487 576.588,442.487 581.084,442.487 581.084,446.974 581.084,548.362 581.084,552.857
		576.588,552.857 475.19,552.857 470.704,552.857 470.704,548.362 470.704,446.974 470.704,442.487 	"/>
	<rect x="476.201" y="447.984" fill="#F15E4E" width="99.384" height="99.376"/>
	<path fill="#D63E2B" d="M543.168,506.537l-9.734,5.614h-0.008l-9.726,5.615c-1.362,0.785-2.682,1.152-3.885,1.152
		c-1.036,0-2.006-0.268-2.858-0.769c-0.835-0.493-1.528-1.203-2.038-2.089c-0.626-1.087-0.97-2.423-0.97-3.918v-11.238v-11.229
		c0-1.554,0.344-2.875,0.961-3.936c0.527-0.919,1.245-1.63,2.09-2.098c0.852-0.484,1.813-0.735,2.815-0.735
		c1.236,0,2.565,0.368,3.894,1.137H523.7l9.726,5.615l9.733,5.614h0.009c1.345,0.785,2.313,1.746,2.924,2.808
		c0.526,0.902,0.777,1.871,0.769,2.848c-0.008,0.97-0.275,1.914-0.776,2.8C545.457,504.808,544.471,505.776,543.168,506.537"/>
	<path fill="#364A5E" d="M541.237,503.295l-9.733,5.615h-0.008l-9.726,5.614c-1.362,0.785-2.683,1.152-3.886,1.152
		c-1.036,0-2.005-0.267-2.857-0.769c-0.836-0.501-1.529-1.203-2.039-2.088c-0.626-1.087-0.969-2.415-0.969-3.919v-11.238v-11.236
		c0-1.547,0.352-2.866,0.961-3.919c0.527-0.919,1.236-1.63,2.089-2.105c0.852-0.485,1.813-0.735,2.815-0.735
		c1.236,0,2.565,0.368,3.894,1.137h-0.008l9.726,5.614l9.733,5.614h0.008c1.345,0.777,2.315,1.747,2.925,2.808
		c0.526,0.901,0.776,1.871,0.769,2.849c-0.008,0.97-0.275,1.913-0.776,2.8C543.526,501.574,542.541,502.535,541.237,503.295"/>
	<path fill-rule="evenodd" clip-rule="evenodd" fill="#FFFFFF" d="M538.966,499.352c0.467-0.268,0.977-0.66,1.244-1.137
		c0.101-0.175,0.175-0.367,0.175-0.568c0-0.192-0.066-0.367-0.158-0.534c-0.275-0.477-0.811-0.868-1.278-1.137l-9.726-5.614
		l-9.725-5.623c-0.46-0.259-1.07-0.526-1.613-0.526c-0.209,0-0.393,0.042-0.576,0.142c-0.176,0.093-0.292,0.259-0.393,0.427
		c-0.276,0.468-0.352,1.111-0.352,1.646v22.475c0,0.543,0.084,1.17,0.359,1.646c0.109,0.176,0.234,0.335,0.409,0.443
		c0.177,0.101,0.351,0.134,0.552,0.134c0.535,0,1.162-0.275,1.613-0.534L538.966,499.352z"/>
	<path fill-rule="evenodd" clip-rule="evenodd" fill="#364A5E" d="M525.89,467.034c-16.92,0-30.638,13.711-30.638,30.638
		c0,16.919,13.718,30.639,30.638,30.639c16.927,0,30.646-13.72,30.646-30.639C556.536,480.745,542.816,467.034,525.89,467.034
		 M525.89,462.489c-19.426,0-35.184,15.749-35.184,35.183c0,19.426,15.758,35.184,35.184,35.184c19.433,0,35.19-15.758,35.19-35.184
		C561.08,478.238,545.322,462.489,525.89,462.489z"/>
</g>
</svg>
