<?xml version="1.0" encoding="utf-8"?>
<!-- Generator: Adobe Illustrator 15.1.0, SVG Export Plug-In . SVG Version: 6.00 Build 0)  -->
<!DOCTYPE svg PUBLIC "-//W3C//DTD SVG 1.0//EN" "http://www.w3.org/TR/2001/REC-SVG-20010904/DTD/svg10.dtd">
<svg version="1.0" id="Layer_1" xmlns="http://www.w3.org/2000/svg" xmlns:xlink="http://www.w3.org/1999/xlink" x="0px" y="0px"
	 width="800px" height="800px" viewBox="195.4029998779297 214.9770050048828 422.0009765625 378.8060302734375" enable-background="new 0 0 800 800" xml:space="preserve">
<g>
	<!-- <path fill="#BCC2C6" d="M211.654,214.977h389.499c4.47,0,8.538,1.83,11.479,4.771v0.025c2.941,2.933,4.771,6.993,4.771,11.455
		v346.311c0,4.462-1.829,8.523-4.771,11.464v0.017c-2.941,2.941-7.01,4.763-11.479,4.763H211.654c-4.479,0-8.538-1.821-11.479-4.763
		v-0.017c-2.94-2.94-4.771-7.002-4.771-11.464V231.228c0-4.461,1.831-8.522,4.771-11.455v-0.025
		C203.116,216.807,207.176,214.977,211.654,214.977"/> -->
	<!-- <path fill="#EBEFF0" d="M611.506,231.228v346.311c0,6.526-4.546,10.353-10.353,10.353H211.654c-5.798,0-10.352-3.718-10.352-10.353
		V231.228c0-6.759,4.57-10.352,10.352-10.352h389.499C606.951,220.875,611.506,224.594,611.506,231.228"/> -->
	<path fill="#BCC2C6" d="M209.507,262.559H603.3c3.886,0,7.412,1.58,9.96,4.136c2.557,2.557,4.144,6.083,4.144,9.968v303.024
		c0,3.885-1.587,7.41-4.144,9.967c-2.548,2.549-6.074,4.128-9.96,4.128H209.507c-3.876,0-7.41-1.579-9.959-4.128
		c-2.557-2.557-4.145-6.082-4.145-9.967V276.663c0-3.885,1.588-7.411,4.145-9.968C202.097,264.139,205.631,262.559,209.507,262.559"
		/>
	<path fill-rule="evenodd" clip-rule="evenodd" fill="#FFFFFF" d="M209.507,268.45c-2.18,0-4.253,0.869-5.798,2.415
		c-1.537,1.546-2.415,3.618-2.415,5.798v303.024c0,2.181,0.878,4.252,2.415,5.798c1.545,1.546,3.618,2.414,5.798,2.414H603.3
		c2.182,0,4.254-0.868,5.791-2.414c1.546-1.546,2.415-3.617,2.415-5.798V276.663c0-2.189-0.869-4.252-2.415-5.798
		c-1.537-1.545-3.618-2.415-5.791-2.415H209.507z"/>
	<!-- <path fill-rule="evenodd" clip-rule="evenodd" fill="#94A4A5" d="M552.618,234.996c4.145,0,7.512,3.359,7.512,7.503
		c0,4.145-3.358,7.503-7.512,7.503c-4.144,0-7.502-3.358-7.502-7.503C545.116,238.354,548.475,234.996,552.618,234.996
		 M576.196,234.996c4.145,0,7.503,3.359,7.503,7.503c0,4.145-3.358,7.503-7.503,7.503c-4.144,0-7.511-3.358-7.511-7.503
		C568.686,238.354,572.053,234.996,576.196,234.996z M529.048,234.996c4.145,0,7.504,3.359,7.504,7.503
		c0,4.145-3.359,7.503-7.504,7.503c-4.143,0-7.51-3.358-7.51-7.503C521.538,238.354,524.905,234.996,529.048,234.996z"/> -->
	<polygon fill="#364A5E" points="243.412,300.5 344.81,300.5 349.306,300.5 349.306,304.995 349.306,406.384 349.306,410.87
		344.81,410.87 243.412,410.87 238.926,410.87 238.926,406.384 238.926,304.995 238.926,300.5 	"/>
	<rect x="244.423" y="305.998" fill="#3EA3DB" width="99.384" height="99.375"/>
	<path opacity="0.15" fill="#010101" d="M325.325,342.133c-1.085-1.086-2.589-1.754-4.252-1.754s-3.167,0.668-4.253,1.754
		s-1.754,2.59-1.754,4.253c0,1.663,0.677,3.158,1.763,4.244c1.086,1.095,2.59,1.771,4.244,1.771c1.663,0,3.167-0.676,4.252-1.763
		c1.087-1.086,1.755-2.59,1.755-4.252C327.08,344.723,326.412,343.22,325.325,342.133 M321.073,335.424
		c3.024,0,5.756,1.228,7.744,3.208l0.01,0.017c1.98,1.98,3.209,4.712,3.209,7.737c0,3.024-1.229,5.756-3.209,7.736l-0.01,0.017
		c-1.988,1.98-4.72,3.208-7.744,3.208s-5.766-1.228-7.754-3.208c-1.98-1.989-3.209-4.729-3.209-7.753
		c0-3.025,1.229-5.757,3.209-7.737l0.018-0.017C315.317,336.652,318.057,335.424,321.073,335.424z M315.826,362.294L315.826,362.294
		l0.075,0.1l1.387,1.855l-0.016,0.017l8.32,11.304c0.594,0.811,0.845,1.621,0.845,2.398h-0.009c0,0.602-0.15,1.153-0.418,1.637
		c-0.242,0.451-0.594,0.835-1.011,1.136c-0.677,0.51-1.563,0.786-2.448,0.786v-0.008l-20.913,0.008l-40.037-0.008
		c-0.97,0-1.806-0.276-2.448-0.744c-0.443-0.334-0.802-0.752-1.044-1.245h-0.009c-0.233-0.468-0.359-0.995-0.359-1.563h-0.008
		c0-0.819,0.292-1.705,0.902-2.541l8.764-11.914l-0.009-0.017l0.804-1.069l0.1-0.125l0.017-0.025l10.828-14.396
		c0.384-0.51,0.802-0.928,1.245-1.262c0.844-0.635,1.771-0.953,2.731-0.944c0.953,0,1.873,0.326,2.699,0.944
		c0.451,0.334,0.868,0.752,1.245,1.262l10.344,13.744l4.996-6.65c0.385-0.501,0.803-0.927,1.244-1.253
		c0.828-0.635,1.748-0.953,2.716-0.953c0.953,0,1.872,0.318,2.716,0.944c0.442,0.334,0.861,0.76,1.246,1.262l5.488,7.303
		L315.826,362.294z M320.204,376.59l-8.363-11.372l-0.352-0.484l-5.113-6.802l-0.017-0.017l-0.008,0.017l-5.782,7.687l-1.194,1.587
		l-1.972,2.624l-1.972-2.624l-1.204-1.587l-11.112-14.78l-0.016-0.017l-0.009,0.017l-10.502,13.961l-0.31,0.417l-8.363,11.372
		l37.723,0.008L320.204,376.59z"/>
	<path fill="#364A5E" d="M319.536,330.829c3.016,0,5.756,1.236,7.736,3.217l0.017,0.008c1.98,1.98,3.209,4.72,3.209,7.736
		c0,3.025-1.229,5.765-3.209,7.745l-0.017,0.009c-1.98,1.988-4.721,3.208-7.736,3.208c-3.033,0-5.774-1.22-7.754-3.208
		c-1.98-1.98-3.209-4.729-3.209-7.754c0-3.016,1.22-5.756,3.209-7.736l0.008-0.008C313.771,332.065,316.511,330.829,319.536,330.829
		 M314.28,357.707L314.28,357.707l0.076,0.101l1.395,1.846l-0.025,0.017l8.322,11.305c0.594,0.811,0.852,1.629,0.852,2.398h-0.008
		c0,0.601-0.158,1.153-0.418,1.637c-0.25,0.451-0.602,0.844-1.011,1.145c-0.686,0.51-1.563,0.777-2.456,0.777l0,0h-20.905h-40.046
		c-0.961,0-1.797-0.284-2.447-0.752c-0.443-0.334-0.795-0.752-1.045-1.236h-0.008c-0.234-0.468-0.352-1.002-0.352-1.562h-0.008
		c0-0.828,0.283-1.713,0.902-2.549l8.764-11.915l-0.009-0.017l0.803-1.061l0.092-0.134v0.009l0.018-0.025l10.836-14.396
		c0.384-0.519,0.802-0.936,1.237-1.271c0.851-0.635,1.778-0.944,2.739-0.944c0.953,0.008,1.872,0.326,2.699,0.944
		c0.442,0.334,0.86,0.752,1.236,1.271l10.344,13.744l5.005-6.651c0.375-0.51,0.793-0.927,1.236-1.262
		c0.836-0.626,1.755-0.944,2.716-0.953c0.961,0,1.88,0.318,2.724,0.953c0.442,0.326,0.861,0.752,1.245,1.262l5.481,7.294
		L314.28,357.707z"/>
	<path fill-rule="evenodd" clip-rule="evenodd" fill="#54CAF2" d="M314.798,337.003l-0.041,0.042
		c-1.262,1.27-1.963,2.958-1.963,4.746c0,1.805,0.701,3.501,1.971,4.763c1.279,1.278,2.975,1.98,4.771,1.98
		c1.787,0,3.442-0.702,4.729-1.947l0.042-0.05c1.27-1.262,1.964-2.95,1.964-4.746c0-1.771-0.686-3.459-1.939-4.72l-0.041-0.042
		c-1.271-1.27-2.967-1.972-4.754-1.972C317.739,335.057,316.086,335.759,314.798,337.003 M260.966,372.705l39.128,0.008
		l19.985-0.008l-9.115-12.382l-5.564-7.403c-0.109-0.151-0.242-0.301-0.401-0.418c-0.024-0.025-0.134-0.101-0.176-0.101
		c-0.05,0-0.142,0.067-0.185,0.101c-0.149,0.117-0.283,0.267-0.399,0.418l-8.381,11.146l-13.711-18.231
		c-0.116-0.159-0.251-0.317-0.401-0.426c-0.042-0.025-0.142-0.101-0.191-0.101c-0.043,0-0.143,0.076-0.176,0.092
		c-0.15,0.117-0.284,0.275-0.4,0.426l-10.896,14.48L260.966,372.705z"/>
	<polygon fill="#364A5E" points="467.998,445.47 569.388,445.47 573.882,445.47 573.882,449.965 573.882,551.354 573.882,555.849
		569.388,555.849 467.998,555.849 463.503,555.849 463.503,551.354 463.503,449.965 463.503,445.47 	"/>
	<rect x="469" y="450.967" fill="#3EA3DB" width="99.385" height="99.385"/>
	<path opacity="0.15" fill="#010101" d="M549.903,487.103c-1.086-1.086-2.59-1.755-4.253-1.755s-3.166,0.669-4.253,1.755
		c-1.086,1.087-1.755,2.591-1.755,4.262c0,1.653,0.669,3.158,1.755,4.244c1.087,1.086,2.59,1.755,4.253,1.755
		s3.167-0.669,4.253-1.746c1.085-1.095,1.763-2.6,1.763-4.253C551.666,489.693,550.988,488.189,549.903,487.103 M545.65,480.402
		c3.024,0,5.757,1.22,7.745,3.208l0.009,0.008c1.979,1.98,3.208,4.721,3.208,7.746c0,3.016-1.229,5.757-3.208,7.736l-0.009,0.009
		c-1.988,1.979-4.721,3.217-7.745,3.217c-3.025,0-5.766-1.237-7.754-3.217c-1.98-1.98-3.208-4.721-3.208-7.745
		c0-3.025,1.228-5.766,3.208-7.746l0.009-0.008C539.894,481.622,542.634,480.402,545.65,480.402z M540.403,507.271L540.403,507.271
		l0.075,0.102l1.387,1.846l-0.017,0.009l8.313,11.313c0.601,0.811,0.853,1.621,0.853,2.39h-0.009c0,0.609-0.15,1.169-0.417,1.646
		c-0.243,0.46-0.595,0.845-1.012,1.146c-0.685,0.501-1.563,0.785-2.447,0.785v-0.017l-20.913,0.017l-40.038-0.017
		c-0.969,0-1.805-0.268-2.449-0.744c-0.441-0.325-0.802-0.743-1.044-1.245h-0.008c-0.234-0.468-0.359-0.985-0.359-1.554h-0.008
		c0-0.827,0.284-1.704,0.901-2.549l8.766-11.914l-0.009-0.017l0.802-1.061l0.092-0.135h0.008l0.018-0.017l10.828-14.403
		c0.384-0.51,0.802-0.928,1.245-1.262c0.844-0.636,1.771-0.944,2.732-0.944c0.96,0,1.871,0.326,2.699,0.953
		c0.442,0.325,0.859,0.752,1.244,1.253l10.344,13.752l5.005-6.65c0.375-0.51,0.793-0.928,1.236-1.262
		c0.826-0.627,1.746-0.943,2.715-0.943c0.953,0,1.871,0.309,2.716,0.935c0.443,0.335,0.86,0.761,1.245,1.271l5.488,7.294
		L540.403,507.271z M544.781,521.56l-8.363-11.371l-0.351-0.477l-5.113-6.801l-0.018-0.018l-0.008,0.018l-5.781,7.687l-1.195,1.587
		l-1.972,2.624l-1.979-2.624l-1.195-1.587l-11.121-14.788l-0.008-0.017l-0.01,0.017l-10.501,13.96l-0.31,0.427l-8.363,11.363
		l37.724,0.008L544.781,521.56z"/>
	<path fill="#364A5E" d="M544.112,475.808c3.018,0,5.758,1.228,7.737,3.208l0.009,0.017c1.988,1.98,3.217,4.712,3.217,7.736
		c0,3.016-1.229,5.757-3.217,7.736l-0.009,0.018c-1.979,1.98-4.72,3.209-7.737,3.209c-3.032,0-5.772-1.229-7.753-3.209
		c-1.988-1.989-3.208-4.729-3.208-7.754s1.22-5.756,3.208-7.736l0.009-0.017C538.348,477.035,541.088,475.808,544.112,475.808
		 M538.857,502.677h0.009l0.066,0.101l1.396,1.855l-0.025,0.008l8.322,11.304c0.593,0.812,0.844,1.63,0.844,2.398h-0.009
		c0.009,0.61-0.143,1.161-0.408,1.646c-0.252,0.451-0.603,0.835-1.013,1.136c-0.685,0.509-1.57,0.786-2.456,0.786v-0.009
		l-20.912,0.009l-40.038-0.009c-0.961,0-1.805-0.276-2.448-0.752c-0.443-0.326-0.794-0.744-1.044-1.246h-0.009
		c-0.233-0.458-0.352-0.985-0.352-1.554h-0.016c0-0.818,0.293-1.704,0.91-2.548l8.757-11.914v-0.009l0.793-1.069l0.101-0.134l0,0
		l0.018-0.017l10.835-14.404c0.377-0.501,0.794-0.928,1.245-1.253c0.845-0.636,1.764-0.953,2.725-0.953
		c0.96,0.009,1.871,0.327,2.707,0.953c0.442,0.334,0.86,0.752,1.236,1.253l10.344,13.753l5.005-6.651
		c0.375-0.501,0.794-0.927,1.236-1.253c0.835-0.635,1.755-0.952,2.716-0.952c0.951,0,1.879,0.309,2.724,0.944
		c0.442,0.325,0.86,0.752,1.236,1.261l5.489,7.303L538.857,502.677z"/>
	<path fill-rule="evenodd" clip-rule="evenodd" fill="#54CAF2" d="M539.384,481.974l-0.05,0.05c-1.27,1.27-1.964,2.949-1.964,4.745
		s0.702,3.492,1.972,4.762c1.27,1.271,2.975,1.973,4.771,1.973c1.789,0,3.442-0.701,4.721-1.938l0.051-0.052
		c1.27-1.27,1.964-2.957,1.964-4.745c0-1.779-0.686-3.467-1.938-4.729l-0.042-0.033c-1.271-1.271-2.966-1.98-4.755-1.98
		C542.316,480.026,540.663,480.736,539.384,481.974 M485.544,517.683h39.127l19.977-0.009l-9.106-12.391l-5.565-7.386
		c-0.107-0.149-0.25-0.309-0.4-0.427c-0.034-0.024-0.134-0.091-0.176-0.091c-0.051,0-0.142,0.066-0.184,0.101
		c-0.15,0.108-0.284,0.268-0.401,0.417l-8.38,11.146l-13.719-18.247c-0.109-0.15-0.242-0.301-0.401-0.418
		c-0.033-0.024-0.134-0.101-0.185-0.101c-0.041,0-0.142,0.076-0.175,0.101c-0.15,0.117-0.284,0.268-0.401,0.418l-10.895,14.487
		L485.544,517.683z"/>
	<path fill-rule="evenodd" clip-rule="evenodd" fill="#BCC2C6" d="M383.937,341.841h186.002c2.164,0,3.943,1.771,3.943,3.944l0,0
		c0,2.164-1.779,3.943-3.943,3.943H383.937c-2.163,0-3.935-1.78-3.935-3.943l0,0C380.002,343.612,381.773,341.841,383.937,341.841"
		/>
	<path fill-rule="evenodd" clip-rule="evenodd" fill="#BCC2C6" d="M383.937,361.651h186.002c2.164,0,3.943,1.771,3.943,3.935
		c0,2.172-1.779,3.944-3.943,3.944H383.937c-2.163,0-3.935-1.771-3.935-3.944C380.002,363.422,381.773,361.651,383.937,361.651"/>
	<path fill-rule="evenodd" clip-rule="evenodd" fill="#BCC2C6" d="M383.937,381.461h89.058c2.173,0,3.943,1.771,3.943,3.935
		c0,2.164-1.771,3.936-3.943,3.936h-89.058c-2.163,0-3.935-1.771-3.935-3.936C380.002,383.232,381.773,381.461,383.937,381.461"/>
	<path fill-rule="evenodd" clip-rule="evenodd" fill="#BCC2C6" d="M383.937,322.039h186.002c2.164,0,3.943,1.771,3.943,3.936v0.008
		c0,2.164-1.779,3.935-3.943,3.935H383.937c-2.163,0-3.935-1.771-3.935-3.935v-0.008
		C380.002,323.811,381.773,322.039,383.937,322.039"/>
	<path fill-rule="evenodd" clip-rule="evenodd" fill="#BCC2C6" d="M428.87,486.818H242.869c-2.172,0-3.943,1.771-3.943,3.936v0.008
		c0,2.165,1.771,3.936,3.943,3.936H428.87c2.165,0,3.936-1.771,3.936-3.936v-0.008C432.806,488.59,431.035,486.818,428.87,486.818"
		/>
	<path fill-rule="evenodd" clip-rule="evenodd" fill="#BCC2C6" d="M428.87,506.621H242.869c-2.172,0-3.943,1.771-3.943,3.943l0,0
		c0,2.172,1.771,3.943,3.943,3.943H428.87c2.165,0,3.936-1.771,3.936-3.943l0,0C432.806,508.392,431.035,506.621,428.87,506.621"/>
	<path fill-rule="evenodd" clip-rule="evenodd" fill="#BCC2C6" d="M428.87,526.431h-89.064c-2.164,0-3.936,1.771-3.936,3.936l0,0
		c0,2.172,1.771,3.943,3.936,3.943h89.064c2.165,0,3.936-1.771,3.936-3.943l0,0C432.806,528.201,431.035,526.431,428.87,526.431"/>
	<path fill-rule="evenodd" clip-rule="evenodd" fill="#BCC2C6" d="M428.87,467.009H242.869c-2.172,0-3.943,1.771-3.943,3.936v0.008
		c0,2.165,1.771,3.936,3.943,3.936H428.87c2.165,0,3.936-1.771,3.936-3.936v-0.008C432.806,468.78,431.035,467.009,428.87,467.009"
		/>
	<!-- <path fill-rule="evenodd" clip-rule="evenodd" fill="#94A4A5" d="M468.023,237.519c-1.138-2.323-3.567-2.991-5.907-2.991
		c-2.773,0.017-5.824,1.287-5.824,4.386c0,3.367,2.841,4.186,5.907,4.554c2.005,0.217,3.485,0.793,3.485,2.214
		c0,1.629-1.682,2.255-3.46,2.255c-1.83,0-3.567-0.727-4.236-2.381l-2.364,1.22c1.119,2.749,3.484,3.693,6.559,3.693
		c3.351,0,6.316-1.437,6.316-4.787c0-3.584-2.924-4.403-6.058-4.788c-1.805-0.218-3.358-0.585-3.358-1.896
		c0-1.12,1.011-1.997,3.116-1.997c1.638,0,3.059,0.819,3.568,1.671L468.023,237.519z M451.521,247.294h-8.446v-3.401h8.138v-2.64
		h-8.138v-3.484h8.446v-2.749h-11.263c0,5.021,0,10.059,0,15.064h11.263V247.294z M425.403,235.021v15.064h10.569v-2.624h-7.728
		v-12.44H425.403z M419.771,246.242c-0.985,0.986-2.473,1.521-3.784,1.521c-3.718,0-5.155-2.598-5.181-5.088
		c-0.016-2.515,1.555-5.222,5.181-5.222c1.312,0,2.641,0.451,3.635,1.42l1.888-1.83c-1.546-1.529-3.476-2.298-5.522-2.298
		c-5.439,0-7.996,3.994-7.971,7.929c0.025,3.91,2.381,7.762,7.971,7.762c2.173,0,4.169-0.718,5.715-2.239L419.771,246.242z
		 M403.455,250.085v-15.064h-2.815v15.064H403.455z M388.967,250.085h2.833v-12.483h4.778v-2.581c-4.37,0-8.038,0-12.382,0v2.581
		h4.771V250.085z M374.755,237.669c1.788,0,2.581,1.203,2.581,2.415s-0.776,2.415-2.581,2.415h-4.312v-4.829H374.755z
		 M380.921,249.893l-4.554-5.138c2.857-0.584,3.802-2.657,3.802-4.737c0-2.615-1.863-4.971-5.414-4.996
		c-2.382,0.025-4.763,0-7.152,0v15.064h2.841v-5.03h2.724l4.387,5.03h3.367V249.893z M358.487,244.604h-5.59l2.799-6.417
		L358.487,244.604z M360.894,250.085h3.1l-6.75-15.064h-3.093l-6.75,15.064h3.074l1.286-2.84h7.862L360.894,250.085z"/> -->
	<polygon fill="#364A5E" points="467.998,445.235 569.388,445.235 573.882,445.235 573.882,449.723 573.882,551.12 573.882,555.614
		569.388,555.614 467.998,555.614 463.503,555.614 463.503,551.12 463.503,449.723 463.503,445.235 	"/>
	<rect x="469" y="450.725" fill="#F15E4E" width="99.385" height="99.393"/>
	<path fill="#D63E2B" d="M535.966,509.285l-9.732,5.615h-0.009l-9.726,5.623c-1.361,0.785-2.682,1.145-3.876,1.145
		c-1.044,0-2.015-0.268-2.866-0.77c-0.835-0.492-1.529-1.193-2.039-2.088c-0.618-1.077-0.969-2.415-0.969-3.919v-11.229v-11.246
		c0-1.537,0.351-2.858,0.961-3.927c0.534-0.92,1.245-1.622,2.088-2.105c0.854-0.477,1.814-0.727,2.825-0.727
		c1.229,0,2.556,0.375,3.884,1.136v0.008l9.718,5.606l9.733,5.623h0.008c1.346,0.769,2.315,1.738,2.925,2.799
		c0.526,0.911,0.778,1.881,0.769,2.85c-0.009,0.97-0.275,1.921-0.777,2.799C538.257,507.556,537.271,508.525,535.966,509.285"/>
	<path fill="#364A5E" d="M534.036,506.035l-9.733,5.623h-0.008l-9.726,5.624c-1.362,0.785-2.682,1.144-3.885,1.144
		c-1.036,0-2.006-0.268-2.858-0.769c-0.835-0.493-1.528-1.194-2.038-2.088c-0.627-1.079-0.97-2.415-0.97-3.919v-11.238v-11.237
		c0-1.537,0.351-2.857,0.961-3.927c0.535-0.919,1.245-1.621,2.089-2.105c0.853-0.477,1.813-0.728,2.824-0.728
		c1.229,0,2.557,0.377,3.886,1.137l-0.009,0.009l9.726,5.614l9.733,5.615h0.008c1.346,0.769,2.314,1.737,2.924,2.799
		c0.527,0.911,0.777,1.88,0.77,2.849s-0.275,1.922-0.777,2.799C536.326,504.314,535.34,505.283,534.036,506.035"/>
	<path fill-rule="evenodd" clip-rule="evenodd" fill="#FFFFFF" d="M531.764,502.108c0.468-0.275,0.978-0.668,1.245-1.144
		c0.108-0.176,0.176-0.36,0.176-0.561s-0.067-0.376-0.158-0.543c-0.276-0.477-0.812-0.86-1.271-1.136l-9.733-5.623l-9.727-5.615
		c-0.459-0.268-1.068-0.518-1.604-0.518c-0.209,0-0.401,0.033-0.584,0.133c-0.168,0.101-0.293,0.259-0.394,0.427
		c-0.275,0.476-0.351,1.111-0.351,1.646v22.476c0,0.543,0.092,1.17,0.367,1.646c0.1,0.175,0.226,0.342,0.4,0.441
		c0.176,0.102,0.352,0.143,0.553,0.143c0.534,0,1.16-0.275,1.611-0.543L531.764,502.108z"/>
	<path fill-rule="evenodd" clip-rule="evenodd" fill="#364A5E" d="M518.688,469.782c-16.919,0-30.639,13.712-30.639,30.639
		c0,16.928,13.72,30.646,30.639,30.646c16.927,0,30.646-13.719,30.646-30.646C549.335,483.494,535.615,469.782,518.688,469.782
		 M518.688,465.237c-19.426,0-35.184,15.75-35.184,35.184s15.758,35.184,35.184,35.184c19.434,0,35.191-15.75,35.191-35.184
		S538.122,465.237,518.688,465.237z"/>
</g>
</svg>
