<?xml version="1.0" encoding="utf-8"?>
<!-- Generator: Adobe Illustrator 15.1.0, SVG Export Plug-In . SVG Version: 6.00 Build 0)  -->
<!DOCTYPE svg PUBLIC "-//W3C//DTD SVG 1.0//EN" "http://www.w3.org/TR/2001/REC-SVG-20010904/DTD/svg10.dtd">
<svg version="1.0" id="Layer_1" xmlns="http://www.w3.org/2000/svg" xmlns:xlink="http://www.w3.org/1999/xlink" x="0px" y="0px"
	 width="800px" height="800px" viewBox="186.2689971923828 214.9770050048828 422.00103759765625 378.8060302734375" enable-background="new 0 0 800 800" xml:space="preserve">
<g>
	<!-- <path fill="#BCC2C6" d="M202.529,214.977h389.498c4.461,0,8.539,1.83,11.48,4.771v0.025c2.94,2.933,4.762,6.993,4.762,11.455
		v346.311c0,4.462-1.821,8.523-4.762,11.464v0.017c-2.941,2.941-7.02,4.763-11.48,4.763H202.529c-4.479,0-8.539-1.821-11.48-4.763
		v-0.017c-2.94-2.94-4.779-7.002-4.779-11.464V231.228c0-4.461,1.839-8.522,4.779-11.455v-0.025
		C193.99,216.807,198.051,214.977,202.529,214.977"/> -->
	<!-- <path fill="#EBEFF0" d="M602.371,231.228v346.311c0,6.526-4.545,10.353-10.344,10.353H202.529c-5.799,0-10.36-3.718-10.36-10.353
		V231.228c0-6.759,4.579-10.352,10.36-10.352h389.498C597.826,220.875,602.371,224.594,602.371,231.228"/> -->
	<path fill="#BCC2C6" d="M200.373,262.559h393.794c3.894,0,7.419,1.58,9.96,4.136c2.556,2.557,4.143,6.083,4.143,9.968v303.024
		c0,3.885-1.587,7.41-4.143,9.967c-2.541,2.549-6.066,4.128-9.96,4.128H200.373c-3.876,0-7.402-1.579-9.959-4.128
		c-2.557-2.557-4.145-6.082-4.145-9.967V276.663c0-3.885,1.588-7.411,4.145-9.968C192.971,264.139,196.497,262.559,200.373,262.559"
		/>
	<path fill-rule="evenodd" clip-rule="evenodd" fill="#FFFFFF" d="M200.373,268.45c-2.172,0-4.244,0.869-5.781,2.415
		c-1.555,1.546-2.423,3.618-2.423,5.798v303.024c0,2.181,0.868,4.252,2.423,5.798c1.537,1.546,3.609,2.414,5.781,2.414h393.794
		c2.188,0,4.261-0.868,5.799-2.414c1.537-1.546,2.405-3.617,2.405-5.798V276.663c0-2.189-0.868-4.252-2.405-5.798
		c-1.538-1.545-3.61-2.415-5.799-2.415H200.373z"/>
	<!-- <path fill-rule="evenodd" clip-rule="evenodd" fill="#94A4A5" d="M543.484,234.996c4.16,0,7.52,3.359,7.52,7.503
		c0,4.145-3.359,7.503-7.52,7.503c-4.144,0-7.503-3.358-7.503-7.503C535.981,238.354,539.341,234.996,543.484,234.996
		 M567.063,234.996c4.145,0,7.504,3.359,7.504,7.503c0,4.145-3.359,7.503-7.504,7.503s-7.503-3.358-7.503-7.503
		C559.56,238.354,562.918,234.996,567.063,234.996z M519.923,234.996c4.145,0,7.503,3.359,7.503,7.503
		c0,4.145-3.358,7.503-7.503,7.503s-7.503-3.358-7.503-7.503C512.42,238.354,515.778,234.996,519.923,234.996z"/> -->
	<!-- <path fill-rule="evenodd" clip-rule="evenodd" fill="#94A4A5" d="M458.897,237.519c-1.137-2.323-3.576-2.991-5.915-2.991
		c-2.773,0.017-5.815,1.287-5.815,4.386c0,3.367,2.841,4.186,5.898,4.554c2.005,0.217,3.492,0.793,3.492,2.214
		c0,1.629-1.688,2.255-3.459,2.255c-1.838,0-3.575-0.727-4.244-2.381l-2.356,1.22c1.12,2.749,3.477,3.693,6.551,3.693
		c3.359,0,6.316-1.437,6.316-4.787c0-3.584-2.924-4.403-6.049-4.788c-1.805-0.218-3.359-0.585-3.359-1.896
		c0-1.12,1.002-1.997,3.108-1.997c1.638,0,3.058,0.819,3.575,1.671L458.897,237.519z M442.388,247.294h-8.438v-3.401h8.137v-2.64
		h-8.137v-3.484h8.438v-2.749h-11.263c0,5.021,0,10.059,0,15.064h11.263V247.294z M416.27,235.021v15.064h10.578v-2.624h-7.737
		v-12.44H416.27z M410.638,246.242c-0.985,0.986-2.473,1.521-3.775,1.521c-3.728,0-5.164-2.598-5.181-5.088
		c-0.018-2.515,1.554-5.222,5.181-5.222c1.303,0,2.64,0.451,3.625,1.42l1.889-1.83c-1.537-1.529-3.476-2.298-5.514-2.298
		c-5.431,0-8.005,3.994-7.972,7.929c0.018,3.91,2.39,7.762,7.972,7.762c2.171,0,4.159-0.718,5.715-2.239L410.638,246.242z
		 M394.329,250.085v-15.064h-2.823v15.064H394.329z M379.842,250.085h2.84v-12.483h4.763v-2.581c-4.361,0-8.038,0-12.382,0v2.581
		h4.779V250.085z M365.637,237.669c1.772,0,2.574,1.203,2.574,2.415s-0.769,2.415-2.574,2.415h-4.327v-4.829H365.637z
		 M371.805,249.893l-4.563-5.138c2.858-0.584,3.794-2.657,3.794-4.737c0-2.615-1.854-4.971-5.398-4.996
		c-2.389,0.025-4.778,0-7.168,0v15.064h2.841v-5.03h2.724l4.396,5.03h3.376V249.893z M349.361,244.604h-5.598l2.808-6.417
		L349.361,244.604z M351.768,250.085h3.092l-6.75-15.064h-3.092l-6.752,15.064h3.075l1.287-2.84h7.87L351.768,250.085z"/> -->
	<rect x="225.689" y="295.445" fill-rule="evenodd" clip-rule="evenodd" fill="#364A5E" width="343.16" height="119.652"/>
	<rect x="231.588" y="301.335" fill="#3EA3DB" width="331.381" height="107.874"/>
	<path opacity="0.15" fill="#010101" d="M331.147,339.944c-1.202-1.194-2.857-1.938-4.696-1.938c-1.838,0-3.492,0.744-4.695,1.938
		c-1.202,1.195-1.938,2.858-1.938,4.688c0,1.838,0.752,3.493,1.938,4.696c1.203,1.195,2.857,1.938,4.695,1.938
		c1.839,0,3.494-0.743,4.696-1.938c1.187-1.195,1.938-2.858,1.938-4.696C333.086,342.802,332.334,341.139,331.147,339.944
		 M326.451,332.542c3.326,0,6.351,1.354,8.539,3.542l0.018,0.008c2.188,2.189,3.525,5.214,3.525,8.539
		c0,3.342-1.337,6.358-3.525,8.547l-0.018,0.008c-2.188,2.189-5.213,3.543-8.539,3.543c-3.341,0-6.365-1.354-8.555-3.543
		c-2.189-2.189-3.543-5.213-3.543-8.556c0-3.325,1.354-6.35,3.543-8.539l0.017-0.008
		C320.103,333.895,323.127,332.542,326.451,332.542z M320.653,362.186L320.653,362.186l0.083,0.109l1.538,2.038l-0.017,0.017
		l9.174,12.483c0.652,0.885,0.936,1.788,0.936,2.64h-0.016c0,0.668-0.151,1.27-0.451,1.805c-0.268,0.501-0.669,0.927-1.12,1.261
		c-0.752,0.56-1.722,0.861-2.708,0.861v-0.008l-23.06,0.008l-44.165-0.008c-1.069,0-1.988-0.301-2.707-0.828
		c-0.484-0.359-0.886-0.819-1.152-1.37l0,0c-0.268-0.509-0.402-1.086-0.402-1.721h-0.016c0-0.902,0.316-1.879,1.002-2.807
		l9.676-13.134l-0.018-0.017l0.886-1.178l0.101-0.142h0.018l0.016-0.025l11.948-15.883c0.418-0.568,0.886-1.028,1.37-1.395
		c0.936-0.702,1.955-1.044,3.008-1.044c1.053,0.008,2.072,0.359,2.975,1.044c0.501,0.376,0.953,0.835,1.371,1.395l11.412,15.165
		l5.515-7.344c0.418-0.551,0.886-1.019,1.37-1.387c0.919-0.685,1.938-1.036,2.991-1.036c1.053-0.008,2.071,0.333,3.008,1.036
		c0.484,0.368,0.952,0.835,1.37,1.387l6.049,8.055L320.653,362.186z M325.5,377.952l-9.241-12.549l-0.384-0.518l-5.648-7.503v-0.025
		l-0.017,0.025l-6.384,8.472l-1.32,1.755l-2.172,2.891l-2.172-2.891l-1.32-1.755l-12.266-16.309l-0.017-0.017l-0.017,0.017
		l-11.58,15.407l-0.352,0.459l-9.207,12.541l41.608,0.008L325.5,377.952z"/>
	<path fill="#364A5E" d="M324.748,327.145c3.342,0,6.35,1.354,8.538,3.542l0.017,0.008c2.189,2.189,3.543,5.214,3.543,8.54
		c0,3.333-1.354,6.35-3.543,8.539l-0.017,0.017c-2.188,2.189-5.196,3.543-8.538,3.543c-3.343,0-6.367-1.354-8.556-3.543
		c-2.189-2.189-3.542-5.213-3.542-8.555c0-3.326,1.353-6.35,3.542-8.54l0.017-0.008
		C318.397,328.498,321.422,327.145,324.748,327.145 M318.966,356.788L318.966,356.788l0.083,0.109l1.521,2.038l-0.017,0.017
		l9.174,12.474c0.669,0.894,0.936,1.796,0.936,2.64l0,0c0,0.677-0.167,1.278-0.468,1.813c-0.268,0.501-0.652,0.918-1.12,1.261
		c-0.752,0.56-1.721,0.861-2.69,0.861v-0.008l-23.076,0.008l-44.165-0.008c-1.07-0.008-1.989-0.309-2.707-0.828
		c-0.484-0.368-0.869-0.818-1.153-1.37l0,0c-0.268-0.518-0.4-1.094-0.4-1.721l0,0c0-0.91,0.317-1.88,0.986-2.807l9.674-13.143
		l-0.016-0.017l0.885-1.178l0.117-0.142l0,0l0.017-0.025l11.947-15.875c0.418-0.568,0.887-1.036,1.371-1.395
		c0.935-0.71,1.954-1.044,3.008-1.044c1.069,0,2.071,0.351,2.991,1.044c0.484,0.368,0.952,0.835,1.369,1.395l11.397,15.156
		l5.53-7.335c0.419-0.552,0.87-1.02,1.354-1.387c0.919-0.685,1.938-1.036,3.008-1.044c1.053-0.008,2.071,0.343,2.99,1.044
		c0.485,0.368,0.953,0.827,1.37,1.387l6.066,8.054L318.966,356.788z"/>
	<path fill-rule="evenodd" clip-rule="evenodd" fill="#54CAF2" d="M324.748,331.547c-2.039,0-3.979,0.802-5.465,2.298l0.018-0.025
		c-1.438,1.454-2.24,3.375-2.24,5.414c0,2.046,0.803,3.985,2.257,5.431c1.452,1.454,3.392,2.256,5.431,2.256
		c2.038,0,3.977-0.802,5.464-2.29l-0.017,0.017c1.454-1.446,2.239-3.368,2.239-5.414c0-2.039-0.785-3.96-2.223-5.389l-0.033-0.042
		C328.725,332.358,326.786,331.547,324.748,331.547 M259.646,373.582l43.663,0.008l22.542-0.008l-10.36-14.062l-6.133-8.154
		c-0.133-0.192-0.301-0.384-0.484-0.518c-0.101-0.067-0.234-0.167-0.351-0.167c-0.118,0-0.251,0.092-0.351,0.167
		c-0.185,0.134-0.352,0.334-0.502,0.518l-9.04,12.015l-14.923-19.853c-0.149-0.184-0.301-0.367-0.501-0.51
		c-0.101-0.075-0.218-0.158-0.351-0.158c-0.117,0-0.251,0.083-0.352,0.15c-0.183,0.151-0.351,0.334-0.484,0.518l-12.031,15.983
		L259.646,373.582z"/>
	<path fill-rule="evenodd" clip-rule="evenodd" fill="#364A5E" d="M378.221,331.531h161.303c2.156,0,3.928,1.771,3.928,3.935
		c0,2.172-1.771,3.944-3.928,3.944H378.221c-2.173,0-3.943-1.771-3.943-3.944C374.277,333.302,376.048,331.531,378.221,331.531"/>
	<path fill-rule="evenodd" clip-rule="evenodd" fill="#364A5E" d="M378.221,351.333h161.303c2.156,0,3.928,1.771,3.928,3.943
		s-1.771,3.944-3.928,3.944H378.221c-2.173,0-3.943-1.771-3.943-3.944S376.048,351.333,378.221,351.333"/>
	<path fill-rule="evenodd" clip-rule="evenodd" fill="#364A5E" d="M378.221,371.142h76.699c2.173,0,3.943,1.771,3.943,3.935
		c0,2.173-1.771,3.944-3.943,3.944h-76.699c-2.173,0-3.943-1.771-3.943-3.944C374.277,372.914,376.048,371.142,378.221,371.142"/>
	<rect x="225.689" y="441.241" fill-rule="evenodd" clip-rule="evenodd" fill="#364A5E" width="343.16" height="119.654"/>
	<rect x="231.588" y="447.132" fill="#3EA3DB" width="331.381" height="107.873"/>
	<path opacity="0.15" fill="#010101" d="M331.147,485.741c-1.202-1.195-2.857-1.938-4.696-1.938c-1.838,0-3.492,0.743-4.695,1.938
		c-1.202,1.195-1.938,2.856-1.938,4.688c0,1.837,0.752,3.492,1.938,4.695c1.203,1.194,2.857,1.938,4.695,1.938
		c1.839,0,3.494-0.735,4.696-1.938c1.187-1.195,1.938-2.858,1.938-4.695C333.086,488.598,332.334,486.937,331.147,485.741
		 M326.451,478.339c3.326,0,6.351,1.361,8.539,3.542l0.018,0.008c2.188,2.189,3.525,5.214,3.525,8.54
		c0,3.333-1.337,6.358-3.525,8.547l-0.018,0.009c-2.188,2.189-5.213,3.542-8.539,3.542c-3.341,0-6.365-1.353-8.555-3.542
		s-3.543-5.215-3.543-8.556c0-3.326,1.354-6.351,3.543-8.54l0.017-0.008C320.103,479.7,323.127,478.339,326.451,478.339z
		 M320.653,507.982L320.653,507.982l0.083,0.109l1.538,2.038l-0.017,0.017l9.174,12.482c0.652,0.886,0.936,1.788,0.936,2.64h-0.016
		c0,0.669-0.151,1.271-0.451,1.806c-0.268,0.501-0.669,0.935-1.12,1.27c-0.752,0.552-1.722,0.853-2.708,0.853v-0.009l-23.06,0.009
		l-44.165-0.009c-1.069,0-1.988-0.301-2.707-0.827c-0.484-0.359-0.886-0.819-1.152-1.37l0,0c-0.268-0.51-0.402-1.086-0.402-1.713
		h-0.016c0-0.91,0.316-1.88,1.002-2.815l9.676-13.134l-0.018-0.018l0.886-1.178l0.101-0.143h0.018l0.016-0.024l11.948-15.883
		c0.418-0.561,0.886-1.028,1.37-1.396c0.936-0.702,1.955-1.044,3.008-1.036c1.053,0,2.072,0.359,2.975,1.044
		c0.501,0.367,0.953,0.827,1.371,1.388l11.412,15.164l5.515-7.336c0.418-0.56,0.886-1.027,1.37-1.395
		c0.919-0.686,1.938-1.036,2.991-1.036c1.053,0,2.071,0.334,3.008,1.036c0.484,0.367,0.952,0.835,1.37,1.395l6.049,8.046
		L320.653,507.982z M325.5,523.748l-9.241-12.549l-0.384-0.519l-5.648-7.502v-0.017l-0.017,0.017l-6.384,8.472l-1.32,1.754
		l-2.172,2.892l-2.172-2.892l-1.32-1.754l-12.266-16.31l-0.017-0.017l-0.017,0.017l-11.58,15.407l-0.352,0.468l-9.207,12.532
		l41.608,0.009L325.5,523.748z"/>
	<path fill="#364A5E" d="M324.748,472.941c3.342,0,6.35,1.354,8.538,3.542l0.017,0.008c2.189,2.189,3.543,5.215,3.543,8.54
		c0,3.334-1.354,6.35-3.543,8.539l-0.017,0.017c-2.188,2.189-5.196,3.542-8.538,3.542c-3.343,0-6.367-1.353-8.556-3.542
		c-2.189-2.189-3.542-5.214-3.542-8.556c0-3.325,1.353-6.351,3.542-8.54l0.017-0.008
		C318.397,474.295,321.422,472.941,324.748,472.941 M318.966,502.585L318.966,502.585l0.083,0.109l1.521,2.038l-0.017,0.017
		l9.174,12.475c0.669,0.894,0.936,1.796,0.936,2.647l0,0c0,0.661-0.167,1.271-0.468,1.806c-0.268,0.501-0.652,0.927-1.12,1.262
		c-0.752,0.56-1.721,0.86-2.69,0.86v-0.009l-23.076,0.009l-44.165-0.009c-1.07,0-1.989-0.309-2.707-0.827
		c-0.484-0.368-0.869-0.818-1.153-1.37l0,0c-0.268-0.519-0.4-1.095-0.4-1.722l0,0c0-0.91,0.317-1.879,0.986-2.807l9.674-13.143
		l-0.016-0.017l0.885-1.17l0.117-0.143l0,0l0.017-0.033l11.947-15.874c0.418-0.569,0.887-1.036,1.371-1.396
		c0.935-0.711,1.954-1.044,3.008-1.044c1.069,0.008,2.071,0.358,2.991,1.044c0.484,0.368,0.952,0.826,1.369,1.396l11.397,15.164
		l5.53-7.345c0.419-0.551,0.87-1.019,1.354-1.386c0.919-0.686,1.938-1.036,3.008-1.045c1.053,0,2.071,0.343,2.99,1.045
		c0.485,0.367,0.953,0.835,1.37,1.386l6.066,8.055L318.966,502.585z"/>
	<path fill-rule="evenodd" clip-rule="evenodd" fill="#54CAF2" d="M324.748,477.345c-2.039,0-3.979,0.81-5.465,2.297l0.018-0.025
		c-1.438,1.454-2.24,3.376-2.24,5.415c0,2.055,0.803,3.984,2.257,5.431c1.452,1.453,3.392,2.256,5.431,2.256
		c2.038,0,3.977-0.803,5.464-2.289l-0.017,0.017c1.454-1.446,2.239-3.368,2.239-5.414c0-2.039-0.785-3.961-2.223-5.39l-0.033-0.042
		C328.725,478.154,326.786,477.345,324.748,477.345 M259.646,519.387h43.663l22.542-0.008l-10.36-14.063l-6.133-8.154
		c-0.133-0.192-0.301-0.384-0.484-0.518c-0.101-0.066-0.234-0.159-0.351-0.159c-0.118,0-0.251,0.084-0.351,0.159
		c-0.185,0.134-0.352,0.325-0.502,0.518l-9.04,12.015l-14.923-19.852c-0.149-0.184-0.301-0.367-0.501-0.51
		c-0.101-0.075-0.218-0.158-0.351-0.158c-0.117,0-0.251,0.083-0.352,0.149c-0.183,0.151-0.351,0.335-0.484,0.519l-12.031,15.983
		L259.646,519.387z"/>
	<path fill-rule="evenodd" clip-rule="evenodd" fill="#364A5E" d="M378.221,477.328h161.303c2.156,0,3.928,1.771,3.928,3.935v0.009
		c0,2.164-1.771,3.936-3.928,3.936H378.221c-2.173,0-3.943-1.771-3.943-3.936v-0.009
		C374.277,479.099,376.048,477.328,378.221,477.328"/>
	<path fill-rule="evenodd" clip-rule="evenodd" fill="#364A5E" d="M378.221,497.129h161.303c2.156,0,3.928,1.771,3.928,3.943l0,0
		c0,2.173-1.771,3.944-3.928,3.944H378.221c-2.173,0-3.943-1.771-3.943-3.944l0,0C374.277,498.9,376.048,497.129,378.221,497.129"/>
	<path fill-rule="evenodd" clip-rule="evenodd" fill="#364A5E" d="M378.221,516.938h76.699c2.173,0,3.943,1.772,3.943,3.936v0.008
		c0,2.165-1.771,3.936-3.943,3.936h-76.699c-2.173,0-3.943-1.771-3.943-3.936v-0.008
		C374.277,518.711,376.048,516.938,378.221,516.938"/>
</g>
</svg>
