<?xml version="1.0" encoding="utf-8"?>
<!-- Generator: Adobe Illustrator 15.1.0, SVG Export Plug-In . SVG Version: 6.00 Build 0)  -->
<!DOCTYPE svg PUBLIC "-//W3C//DTD SVG 1.0//EN" "http://www.w3.org/TR/2001/REC-SVG-20010904/DTD/svg10.dtd">
<svg version="1.0" id="Layer_1" xmlns="http://www.w3.org/2000/svg" xmlns:xlink="http://www.w3.org/1999/xlink" x="0px" y="0px"
	 width="800px" height="800px" viewBox="192.947998046875 218.6790008544922 422.9730224609375 379.68096923828125" enable-background="new 0 0 800 800" xml:space="preserve">
<g>
	<!-- <path fill="#BCC2C6" d="M209.234,218.679h390.399c4.479,0,8.56,1.834,11.506,4.782v0.026c2.948,2.947,4.782,7.009,4.782,11.481
		v347.111c0,4.473-1.834,8.542-4.782,11.489v0.018c-2.946,2.947-7.026,4.773-11.506,4.773H209.234
		c-4.487,0-8.558-1.826-11.506-4.773v-0.018c-2.948-2.947-4.78-7.017-4.78-11.489V234.968c0-4.472,1.832-8.534,4.78-11.481v-0.026
		C200.677,220.514,204.747,218.679,209.234,218.679"/> -->
	<!-- <path fill="#EBEFF0" d="M610.01,234.968v347.111c0,6.541-4.557,10.376-10.376,10.376H209.234c-5.812,0-10.374-3.726-10.374-10.376
		V234.968c0-6.774,4.579-10.375,10.374-10.375h390.399C605.446,224.592,610.01,228.318,610.01,234.968"/> -->
	<path fill="#BCC2C6" d="M207.083,266.372h394.703c3.895,0,7.429,1.583,9.982,4.146c2.561,2.562,4.153,6.097,4.153,9.99v303.724
		c0,3.895-1.593,7.429-4.153,9.99c-2.554,2.556-6.088,4.138-9.982,4.138H207.083c-3.886,0-7.429-1.582-9.981-4.138
		c-2.563-2.562-4.153-6.096-4.153-9.99V280.508c0-3.894,1.59-7.428,4.153-9.99C199.654,267.955,203.197,266.372,207.083,266.372"/>
	<path fill-rule="evenodd" clip-rule="evenodd" fill="#FFFFFF" d="M207.083,272.276c-2.187,0-4.263,0.872-5.813,2.42
		c-1.539,1.549-2.42,3.626-2.42,5.812v303.724c0,2.187,0.881,4.263,2.42,5.804c1.55,1.549,3.626,2.429,5.813,2.429h394.703
		c2.187,0,4.262-0.88,5.803-2.429c1.55-1.541,2.421-3.617,2.421-5.804V280.508c0-2.194-0.871-4.262-2.421-5.812
		c-1.541-1.549-3.626-2.42-5.803-2.42H207.083z"/>
	<!-- <path fill-rule="evenodd" clip-rule="evenodd" fill="#94A4A5" d="M550.987,238.745c4.154,0,7.528,3.366,7.528,7.521
		c0,4.153-3.366,7.52-7.528,7.52c-4.153,0-7.521-3.367-7.521-7.52C543.467,242.111,546.834,238.745,550.987,238.745
		 M574.619,238.745c4.153,0,7.52,3.366,7.52,7.521c0,4.153-3.366,7.52-7.52,7.52s-7.528-3.367-7.528-7.52
		C567.091,242.111,570.466,238.745,574.619,238.745z M527.363,238.745c4.153,0,7.52,3.366,7.52,7.521c0,4.153-3.366,7.52-7.52,7.52
		c-4.154,0-7.528-3.367-7.528-7.52C519.835,242.111,523.209,238.745,527.363,238.745z"/> -->
	<polygon fill="#364A5E" points="241.065,304.4 342.697,304.4 347.204,304.4 347.204,308.897 347.204,410.529 347.204,415.026
		342.697,415.026 241.065,415.026 236.569,415.026 236.569,410.529 236.569,308.897 236.569,304.4 	"/>
	<rect x="242.079" y="309.911" fill="#3EA3DB" width="99.614" height="99.605"/>
	<path opacity="0.15" fill="#010101" d="M323.168,346.13c-1.087-1.089-2.595-1.758-4.261-1.758c-1.667,0-3.176,0.669-4.264,1.758
		c-1.089,1.089-1.759,2.596-1.759,4.262c0,1.659,0.678,3.174,1.767,4.263c1.09,1.088,2.597,1.767,4.256,1.767
		c1.666,0,3.174-0.678,4.261-1.767c1.09-1.089,1.76-2.597,1.76-4.263S324.258,347.219,323.168,346.13 M318.907,339.405
		c3.031,0,5.77,1.231,7.762,3.216l0.01,0.017c1.983,1.985,3.216,4.732,3.216,7.754c0,3.033-1.232,5.771-3.216,7.764l-0.01,0.008
		c-1.992,1.993-4.73,3.215-7.762,3.215c-3.032,0-5.779-1.222-7.773-3.215c-1.982-1.994-3.215-4.739-3.215-7.772
		c0-3.022,1.232-5.77,3.215-7.754l0.018-0.017C313.137,340.636,315.884,339.405,318.907,339.405z M313.647,366.337L313.647,366.337
		l0.075,0.101l1.39,1.859l-0.016,0.017l8.341,11.322c0.594,0.821,0.846,1.642,0.846,2.412h-0.01c0,0.604-0.149,1.156-0.418,1.642
		c-0.242,0.452-0.594,0.838-1.014,1.148c-0.678,0.502-1.565,0.779-2.453,0.779v-0.008l-20.962,0.008l-40.13-0.008
		c-0.971,0-1.808-0.276-2.453-0.754c-0.442-0.326-0.804-0.745-1.047-1.24h-0.008c-0.234-0.468-0.36-0.996-0.36-1.566h-0.008
		c0-0.82,0.293-1.708,0.903-2.545l8.784-11.941l-0.008-0.017l0.804-1.072l0.102-0.126l0.016-0.025l10.853-14.429
		c0.387-0.511,0.806-0.93,1.249-1.265c0.847-0.636,1.774-0.955,2.737-0.946c0.955,0.008,1.878,0.327,2.706,0.946
		c0.452,0.335,0.871,0.754,1.248,1.265l10.368,13.776l5.007-6.666c0.385-0.503,0.805-0.922,1.249-1.257
		c0.827-0.628,1.75-0.946,2.721-0.954c0.956,0,1.876,0.31,2.721,0.954c0.444,0.327,0.863,0.746,1.248,1.257l5.504,7.319
		L313.647,366.337z M318.034,380.666l-8.381-11.397l-0.353-0.485l-5.124-6.816l-0.018-0.018l-0.008,0.018l-5.795,7.704l-1.198,1.591
		l-1.976,2.638l-1.978-2.638l-1.206-1.591l-11.139-14.814l-0.016-0.018l-0.008,0.018L270.31,368.85l-0.311,0.418l-8.382,11.397
		l37.81,0.008L318.034,380.666z"/>
	<path fill="#364A5E" d="M317.364,334.799c3.024,0,5.771,1.231,7.756,3.225l0.018,0.008c1.984,1.985,3.215,4.732,3.215,7.755
		c0,3.031-1.23,5.778-3.215,7.763l-0.018,0.008c-1.984,1.993-4.731,3.216-7.756,3.216c-3.039,0-5.787-1.223-7.77-3.216
		c-1.985-1.985-3.215-4.74-3.215-7.771c0-3.023,1.223-5.771,3.215-7.755l0.008-0.008
		C311.587,336.031,314.335,334.799,317.364,334.799 M312.098,361.74v-0.008l0.076,0.108l1.397,1.851l-0.024,0.018l8.341,11.33
		c0.595,0.813,0.854,1.633,0.854,2.403h-0.007c0,0.604-0.161,1.156-0.419,1.642c-0.252,0.46-0.604,0.837-1.014,1.147
		c-0.688,0.502-1.566,0.779-2.462,0.779l0,0h-20.952h-40.141c-0.963,0-1.799-0.277-2.452-0.753c-0.443-0.335-0.795-0.754-1.048-1.24
		h-0.008c-0.234-0.468-0.352-0.996-0.352-1.566h-0.01c0-0.829,0.286-1.716,0.905-2.555l8.785-11.941l-0.009-0.017l0.805-1.063
		l0.092-0.134v0.009l0.016-0.034l10.862-14.429c0.386-0.511,0.805-0.93,1.239-1.264c0.854-0.637,1.784-0.947,2.748-0.938
		c0.953,0,1.875,0.318,2.704,0.938c0.444,0.334,0.863,0.762,1.24,1.264l10.366,13.784l5.017-6.674
		c0.376-0.502,0.796-0.921,1.239-1.256c0.839-0.628,1.76-0.946,2.722-0.954c0.964,0,1.884,0.318,2.729,0.954
		c0.444,0.335,0.863,0.754,1.249,1.256l5.494,7.319L312.098,361.74z"/>
	<path fill-rule="evenodd" clip-rule="evenodd" fill="#54CAF2" d="M312.618,340.988l-0.042,0.042
		c-1.266,1.273-1.97,2.965-1.97,4.757c0,1.808,0.704,3.5,1.978,4.781c1.282,1.265,2.981,1.977,4.78,1.977
		c1.793,0,3.452-0.703,4.74-1.951l0.043-0.05c1.272-1.273,1.969-2.957,1.969-4.757c0-1.776-0.688-3.468-1.942-4.732l-0.043-0.042
		c-1.272-1.273-2.974-1.977-4.767-1.977C315.565,339.037,313.906,339.74,312.618,340.988 M258.661,376.772l39.217,0.008
		l20.032-0.008l-9.136-12.412l-5.578-7.419c-0.109-0.15-0.243-0.302-0.402-0.419c-0.025-0.025-0.135-0.101-0.176-0.101
		c-0.052,0-0.143,0.067-0.184,0.101c-0.151,0.117-0.285,0.269-0.403,0.428l-8.399,11.163l-13.743-18.272
		c-0.116-0.16-0.249-0.319-0.399-0.428c-0.043-0.024-0.144-0.1-0.193-0.1c-0.042,0-0.143,0.076-0.176,0.093
		c-0.15,0.117-0.286,0.276-0.402,0.427l-10.92,14.513L258.661,376.772z"/>
	<polygon fill="#364A5E" points="466.171,449.713 567.794,449.713 572.3,449.713 572.3,454.211 572.3,555.834 572.3,560.339
		567.794,560.339 466.171,560.339 461.665,560.339 461.665,555.834 461.665,454.211 461.665,449.713 	"/>
	<rect x="467.176" y="455.215" fill="#3EA3DB" width="99.612" height="99.615"/>
	<path opacity="0.15" fill="#010101" d="M548.266,491.435c-1.09-1.088-2.597-1.758-4.263-1.758c-1.667,0-3.175,0.67-4.263,1.758
		c-1.089,1.089-1.759,2.597-1.759,4.271c0,1.659,0.67,3.166,1.759,4.254c1.088,1.091,2.596,1.769,4.263,1.769
		c1.666,0,3.173-0.678,4.263-1.769c1.089-1.088,1.767-2.595,1.767-4.254C550.032,494.031,549.354,492.523,548.266,491.435
		 M544.003,484.718c3.03,0,5.77,1.223,7.763,3.216l0.008,0.01c1.985,1.984,3.216,4.73,3.216,7.762c0,3.023-1.23,5.762-3.216,7.755
		l-0.008,0.009c-1.993,1.984-4.732,3.225-7.763,3.225c-3.032,0-5.778-1.24-7.772-3.225c-1.985-1.985-3.216-4.731-3.216-7.764
		c0-3.031,1.23-5.777,3.216-7.762l0.009-0.01C538.231,485.94,540.979,484.718,544.003,484.718z M538.743,511.65L538.743,511.65
		l0.074,0.1l1.392,1.853l-0.017,0.016l8.332,11.332c0.604,0.811,0.854,1.631,0.854,2.403h-0.009c0,0.61-0.15,1.162-0.418,1.642
		c-0.242,0.46-0.594,0.846-1.015,1.146c-0.686,0.502-1.564,0.786-2.453,0.786v-0.017l-20.961,0.017l-40.131-0.017
		c-0.971,0-1.808-0.268-2.454-0.752c-0.443-0.318-0.803-0.739-1.045-1.241h-0.01c-0.233-0.469-0.36-0.988-0.36-1.557h-0.007
		c0-0.828,0.285-1.708,0.904-2.554l8.785-11.943l-0.009-0.017l0.803-1.063l0.093-0.135h0.01l0.016-0.018l10.854-14.437
		c0.385-0.502,0.803-0.93,1.247-1.256c0.847-0.645,1.776-0.956,2.737-0.956c0.964,0.01,1.878,0.329,2.707,0.956
		c0.443,0.334,0.861,0.754,1.247,1.256l10.368,13.784l5.016-6.666c0.377-0.511,0.797-0.931,1.24-1.265
		c0.829-0.627,1.749-0.945,2.722-0.945c0.954,0,1.875,0.309,2.722,0.938c0.443,0.334,0.861,0.754,1.246,1.272l5.503,7.311
		L538.743,511.65z M543.132,525.97l-8.383-11.396l-0.352-0.477l-5.126-6.817l-0.016-0.018l-0.01,0.018l-5.795,7.704l-1.198,1.591
		l-1.975,2.63l-1.985-2.63l-1.197-1.591l-11.146-14.823l-0.008-0.016l-0.008,0.016l-10.527,13.995l-0.311,0.426l-8.382,11.389
		l37.81,0.01L543.132,525.97z"/>
	<path fill="#364A5E" d="M542.462,480.112c3.022,0,5.769,1.231,7.754,3.216l0.008,0.008c1.994,1.985,3.227,4.732,3.227,7.765
		c0,3.03-1.232,5.77-3.227,7.754l-0.008,0.017c-1.985,1.985-4.731,3.216-7.754,3.216c-3.04,0-5.787-1.23-7.772-3.216
		c-1.993-1.993-3.217-4.74-3.217-7.771c0-3.032,1.224-5.779,3.217-7.765l0.01-0.008C536.683,481.344,539.43,480.112,542.462,480.112
		 M537.194,507.045h0.008l0.066,0.101l1.4,1.85l-0.025,0.018l8.34,11.33c0.595,0.82,0.846,1.634,0.846,2.403h-0.008
		c0.008,0.611-0.141,1.165-0.41,1.651c-0.25,0.45-0.602,0.836-1.015,1.138c-0.686,0.504-1.572,0.787-2.462,0.787v-0.009
		l-20.96,0.009l-40.131-0.009c-0.962,0-1.808-0.274-2.454-0.754c-0.443-0.326-0.795-0.745-1.046-1.239h-0.009
		c-0.234-0.469-0.353-0.996-0.353-1.565h-0.016c0-0.829,0.294-1.709,0.913-2.545l8.776-11.943v-0.017l0.795-1.071l0.101-0.134v0.008
		l0.018-0.025l10.86-14.429c0.377-0.512,0.797-0.93,1.248-1.265c0.846-0.644,1.769-0.954,2.731-0.946
		c0.962,0,1.876,0.326,2.712,0.946c0.444,0.335,0.864,0.753,1.239,1.265l10.369,13.776l5.016-6.667
		c0.377-0.502,0.796-0.929,1.24-1.263c0.836-0.63,1.758-0.948,2.721-0.948c0.955,0,1.884,0.311,2.729,0.948
		c0.444,0.334,0.863,0.752,1.241,1.263l5.5,7.319L537.194,507.045z"/>
	<path fill-rule="evenodd" clip-rule="evenodd" fill="#54CAF2" d="M537.722,486.292l-0.051,0.051
		c-1.272,1.272-1.968,2.956-1.968,4.758c0,1.799,0.703,3.5,1.978,4.772c1.271,1.272,2.981,1.976,4.781,1.976
		c1.791,0,3.449-0.703,4.731-1.942l0.049-0.051c1.274-1.271,1.97-2.964,1.97-4.755c0-1.784-0.688-3.476-1.944-4.74l-0.041-0.035
		c-1.274-1.272-2.974-1.976-4.765-1.976C540.662,484.35,539.003,485.045,537.722,486.292 M483.758,522.085h39.217l20.021-0.009
		l-9.127-12.411l-5.577-7.41c-0.109-0.15-0.251-0.311-0.402-0.428c-0.033-0.026-0.132-0.092-0.175-0.092
		c-0.052,0-0.143,0.065-0.185,0.092c-0.15,0.117-0.285,0.277-0.402,0.428l-8.398,11.162l-13.752-18.271
		c-0.108-0.161-0.242-0.312-0.402-0.429c-0.033-0.025-0.135-0.099-0.184-0.099c-0.042,0-0.143,0.073-0.176,0.099
		c-0.15,0.117-0.285,0.268-0.402,0.421l-10.92,14.52L483.758,522.085z"/>
	<path fill-rule="evenodd" clip-rule="evenodd" fill="#BCC2C6" d="M381.917,345.837h186.43c2.17,0,3.953,1.775,3.953,3.953
		c0,2.177-1.783,3.953-3.953,3.953h-186.43c-2.171,0-3.945-1.775-3.945-3.953C377.972,347.612,379.746,345.837,381.917,345.837"/>
	<path fill-rule="evenodd" clip-rule="evenodd" fill="#BCC2C6" d="M381.917,365.692h186.43c2.17,0,3.953,1.776,3.953,3.945
		c0,2.178-1.783,3.952-3.953,3.952h-186.43c-2.171,0-3.945-1.774-3.945-3.952C377.972,367.469,379.746,365.692,381.917,365.692"/>
	<path fill-rule="evenodd" clip-rule="evenodd" fill="#BCC2C6" d="M381.917,385.548h89.263c2.177,0,3.952,1.775,3.952,3.944l0,0
		c0,2.169-1.775,3.944-3.952,3.944h-89.263c-2.171,0-3.945-1.775-3.945-3.944l0,0C377.972,387.324,379.746,385.548,381.917,385.548"
		/>
	<path fill-rule="evenodd" clip-rule="evenodd" fill="#BCC2C6" d="M381.917,325.989h186.43c2.17,0,3.953,1.776,3.953,3.945
		c0,2.178-1.783,3.953-3.953,3.953h-186.43c-2.171,0-3.945-1.775-3.945-3.953C377.972,327.766,379.746,325.989,381.917,325.989"/>
	<path fill-rule="evenodd" clip-rule="evenodd" fill="#BCC2C6" d="M426.953,491.149H240.522c-2.179,0-3.953,1.775-3.953,3.944v0.009
		c0,2.16,1.774,3.944,3.953,3.944h186.431c2.169,0,3.945-1.784,3.945-3.944v-0.009C430.898,492.925,429.122,491.149,426.953,491.149
		"/>
	<path fill-rule="evenodd" clip-rule="evenodd" fill="#BCC2C6" d="M426.953,510.998H240.522c-2.179,0-3.953,1.773-3.953,3.952
		c0,2.178,1.774,3.952,3.953,3.952h186.431c2.169,0,3.945-1.774,3.945-3.952C430.898,512.771,429.122,510.998,426.953,510.998"/>
	<path fill-rule="evenodd" clip-rule="evenodd" fill="#BCC2C6" d="M426.953,530.853h-89.271c-2.17,0-3.945,1.776-3.945,3.944
		c0,2.179,1.775,3.953,3.945,3.953h89.271c2.169,0,3.945-1.774,3.945-3.953C430.898,532.629,429.122,530.853,426.953,530.853"/>
	<path fill-rule="evenodd" clip-rule="evenodd" fill="#BCC2C6" d="M426.953,471.295H240.522c-2.179,0-3.953,1.774-3.953,3.943v0.01
		c0,2.168,1.774,3.944,3.953,3.944h186.431c2.169,0,3.945-1.776,3.945-3.944v-0.01C430.898,473.069,429.122,471.295,426.953,471.295
		"/>
	<!-- <path fill-rule="evenodd" clip-rule="evenodd" fill="#94A4A5" d="M466.196,241.274c-1.14-2.328-3.576-2.999-5.92-2.999
		c-2.782,0.026-5.839,1.29-5.839,4.389c0,3.383,2.849,4.204,5.922,4.573c2.009,0.217,3.491,0.795,3.491,2.219
		c0,1.633-1.682,2.261-3.466,2.261c-1.835,0-3.578-0.729-4.246-2.386l-2.369,1.222c1.12,2.755,3.491,3.701,6.572,3.701
		c3.358,0,6.332-1.44,6.332-4.798c0-3.592-2.931-4.413-6.071-4.799c-1.811-0.217-3.367-0.586-3.367-1.901
		c0-1.122,1.014-2.001,3.124-2.001c1.642,0,3.063,0.821,3.575,1.675L466.196,241.274z M449.656,251.072h-8.466v-3.4h8.155v-2.655
		h-8.155v-3.492h8.466v-2.747h-11.289c0,5.025,0,10.074,0,15.091h11.289V251.072z M423.478,238.778v15.091h10.594v-2.63h-7.747
		v-12.461H423.478z M417.834,250.017c-0.989,0.988-2.479,1.524-3.794,1.524c-3.727,0-5.167-2.604-5.192-5.1
		c-0.017-2.521,1.557-5.234,5.192-5.234c1.315,0,2.646,0.453,3.643,1.424l1.894-1.834c-1.55-1.532-3.483-2.302-5.536-2.302
		c-5.452,0-8.014,4.002-7.99,7.947c0.025,3.919,2.387,7.771,7.99,7.771c2.178,0,4.18-0.711,5.729-2.235L417.834,250.017z
		 M401.478,253.869v-15.091h-2.822v15.091H401.478z M386.958,253.869h2.838v-12.511h4.791v-2.58c-4.381,0-8.058,0-12.411,0v2.58
		h4.782V253.869z M372.712,241.424c1.792,0,2.588,1.206,2.588,2.421c0,1.214-0.778,2.42-2.588,2.42h-4.321v-4.841H372.712z
		 M378.892,253.677l-4.563-5.15c2.864-0.578,3.812-2.663,3.812-4.74c0-2.621-1.868-4.991-5.428-5.008c-2.386,0.017-4.773,0-7.169,0
		v15.091h2.848v-5.042h2.73l4.396,5.042h3.374V253.677z M356.408,248.375h-5.604l2.806-6.431L356.408,248.375z M358.818,253.869
		h3.107l-6.767-15.091h-3.098l-6.768,15.091h3.082l1.289-2.848h7.881L358.818,253.869z"/> -->
</g>
</svg>
