<?xml version="1.0" encoding="UTF-8" standalone="no"?>
<svg
   xmlns:dc="http://purl.org/dc/elements/1.1/"
   xmlns:cc="http://creativecommons.org/ns#"
   xmlns:rdf="http://www.w3.org/1999/02/22-rdf-syntax-ns#"
   xmlns:svg="http://www.w3.org/2000/svg"
   xmlns="http://www.w3.org/2000/svg"
   xmlns:sodipodi="http://sodipodi.sourceforge.net/DTD/sodipodi-0.dtd"
   xmlns:inkscape="http://www.inkscape.org/namespaces/inkscape"
   inkscape:version="1.0 (6e3e5246a0, 2020-05-07)"
   sodipodi:docname="Articles 5.svg"
   xml:space="preserve"
   enable-background="new 0 0 800 800"
   viewBox="0 0 800 800"
   height="800px"
   width="800px"
   y="0px"
   x="0px"
   id="Layer_1"
   version="1.0"><metadata
   id="metadata2292"><rdf:RDF><cc:Work
       rdf:about=""><dc:format>image/svg+xml</dc:format><dc:type
         rdf:resource="http://purl.org/dc/dcmitype/StillImage" /></cc:Work></rdf:RDF></metadata><defs
   id="defs2290" /><sodipodi:namedview
   inkscape:current-layer="Layer_1"
   inkscape:window-maximized="1"
   inkscape:window-y="28"
   inkscape:window-x="0"
   inkscape:cy="511.49826"
   inkscape:cx="400"
   inkscape:zoom="1.07625"
   showgrid="false"
   id="namedview2288"
   inkscape:window-height="1026"
   inkscape:window-width="1920"
   inkscape:pageshadow="2"
   inkscape:pageopacity="0"
   guidetolerance="10"
   gridtolerance="10"
   objecttolerance="10"
   borderopacity="1"
   bordercolor="#666666"
   pagecolor="#ffffff" />
<g
   transform="matrix(1.8914003,0,0,1.8913635,-365.50733,-372.65928)"
   id="g2235">
	<!-- <path fill="#BCC2C6" d="M209.535,218.679h390.399c4.479,0,8.558,1.834,11.506,4.782v0.026c2.948,2.947,4.773,7.009,4.773,11.481
		v347.111c0,4.473-1.825,8.542-4.773,11.489v0.018c-2.948,2.947-7.026,4.773-11.506,4.773H209.535
		c-4.489,0-8.559-1.826-11.506-4.773v-0.018c-2.947-2.947-4.782-7.017-4.782-11.489V234.968c0-4.472,1.835-8.534,4.782-11.481
		v-0.026C200.977,220.514,205.046,218.679,209.535,218.679"/> -->
	<!-- <path fill="#EBEFF0" d="M610.312,234.968v347.111c0,6.541-4.557,10.376-10.377,10.376H209.535c-5.812,0-10.376-3.726-10.376-10.376
		V234.968c0-6.774,4.582-10.375,10.376-10.375h390.399C605.746,224.592,610.312,228.318,610.312,234.968"/> -->
	<path
   id="path2195"
   d="m 207.383,266.372 h 394.703 c 3.895,0 7.429,1.583 9.984,4.146 2.561,2.562 4.144,6.097 4.144,9.99 v 303.724 c 0,3.895 -1.583,7.429 -4.144,9.99 -2.556,2.556 -6.09,4.138 -9.984,4.138 H 207.383 c -3.895,0 -7.428,-1.582 -9.982,-4.138 -2.563,-2.562 -4.153,-6.096 -4.153,-9.99 V 280.508 c 0,-3.894 1.591,-7.428 4.153,-9.99 2.554,-2.563 6.087,-4.146 9.982,-4.146"
   fill="#bcc2c6" />
	<path
   id="path2197"
   d="m 207.383,272.276 c -2.186,0 -4.262,0.872 -5.803,2.42 -1.55,1.549 -2.421,3.626 -2.421,5.812 v 303.724 c 0,2.187 0.871,4.263 2.421,5.804 1.541,1.549 3.617,2.429 5.803,2.429 h 394.703 c 2.187,0 4.264,-0.88 5.805,-2.429 1.55,-1.541 2.421,-3.617 2.421,-5.804 V 280.508 c 0,-2.194 -0.871,-4.262 -2.421,-5.812 -1.541,-1.549 -3.618,-2.42 -5.805,-2.42 z"
   fill="#ffffff"
   clip-rule="evenodd"
   fill-rule="evenodd" />
	<!-- <path fill-rule="evenodd" clip-rule="evenodd" fill="#94A4A5" d="M551.287,238.745c4.162,0,7.528,3.366,7.528,7.521
		c0,4.153-3.366,7.52-7.528,7.52c-4.153,0-7.52-3.367-7.52-7.52C543.768,242.111,547.134,238.745,551.287,238.745 M574.92,238.745
		c4.154,0,7.521,3.366,7.521,7.521c0,4.153-3.367,7.52-7.521,7.52c-4.162,0-7.527-3.367-7.527-7.52
		C567.393,242.111,570.767,238.745,574.92,238.745z M527.664,238.745c4.154,0,7.52,3.366,7.52,7.521c0,4.153-3.365,7.52-7.52,7.52
		s-7.521-3.367-7.521-7.52C520.143,242.111,523.51,238.745,527.664,238.745z"/> -->
	<polygon
   id="polygon2199"
   points="347.505,410.529 347.505,415.026 342.999,415.026 241.375,415.026 236.869,415.026 236.869,410.529 236.869,308.897 236.869,304.4 241.375,304.4 342.999,304.4 347.505,304.4 347.505,308.897 "
   fill="#364a5e" />
	<rect
   id="rect2201"
   height="99.605003"
   width="99.614998"
   fill="#3ea3db"
   y="309.91101"
   x="242.379" />
	<path
   id="path2203"
   d="m 323.477,346.13 c -1.096,-1.089 -2.604,-1.758 -4.271,-1.758 -1.667,0 -3.173,0.669 -4.261,1.758 -1.089,1.089 -1.76,2.596 -1.76,4.262 0,1.659 0.68,3.174 1.768,4.263 1.088,1.088 2.596,1.767 4.253,1.767 1.667,0 3.175,-0.678 4.271,-1.767 1.081,-1.089 1.752,-2.597 1.752,-4.263 0,-1.666 -0.671,-3.173 -1.752,-4.262 m -4.271,-6.725 c 3.032,0 5.779,1.231 7.765,3.216 l 0.008,0.017 c 1.984,1.985 3.216,4.732 3.216,7.754 0,3.033 -1.231,5.771 -3.216,7.764 l -0.008,0.008 c -1.985,1.993 -4.732,3.215 -7.765,3.215 -3.03,0 -5.777,-1.222 -7.771,-3.215 -1.984,-1.994 -3.216,-4.739 -3.216,-7.772 0,-3.022 1.231,-5.77 3.216,-7.754 l 0.016,-0.017 c 1.986,-1.985 4.733,-3.216 7.755,-3.216 z m -5.258,26.932 v 0 l 0.074,0.101 1.392,1.859 -0.018,0.017 8.341,11.322 c 0.596,0.821 0.846,1.642 0.846,2.412 h -0.009 c 0,0.604 -0.149,1.156 -0.417,1.642 -0.244,0.452 -0.597,0.838 -1.015,1.148 -0.678,0.502 -1.566,0.779 -2.453,0.779 v -0.008 l -20.96,0.008 -40.131,-0.008 c -0.972,0 -1.811,-0.276 -2.454,-0.754 -0.444,-0.326 -0.796,-0.745 -1.048,-1.24 h -0.008 c -0.234,-0.468 -0.359,-0.996 -0.359,-1.566 h -0.008 c 0,-0.82 0.283,-1.708 0.912,-2.545 l 8.776,-11.941 -0.01,-0.017 0.806,-1.072 0.099,-0.126 0.018,-0.025 10.854,-14.429 c 0.386,-0.511 0.804,-0.93 1.247,-1.265 0.855,-0.636 1.776,-0.955 2.739,-0.946 0.963,0.009 1.875,0.327 2.713,0.946 0.444,0.335 0.861,0.754 1.24,1.265 l 10.368,13.776 5.007,-6.666 c 0.385,-0.503 0.804,-0.922 1.247,-1.257 0.831,-0.628 1.75,-0.946 2.722,-0.954 0.955,0 1.878,0.31 2.724,0.954 0.444,0.327 0.861,0.746 1.246,1.257 l 5.502,7.319 z m 4.388,14.329 -8.383,-11.397 -0.352,-0.485 -5.125,-6.816 -0.018,-0.018 -0.008,0.018 -5.795,7.704 -1.197,1.591 -1.976,2.638 -1.978,-2.638 -1.206,-1.591 -11.138,-14.814 -0.018,-0.018 -0.009,0.018 -10.526,13.994 -0.31,0.418 -8.382,11.397 37.812,0.008 z"
   fill="#010101"
   opacity="0.15" />
	<path
   id="path2205"
   d="m 317.666,334.799 c 3.023,0 5.771,1.231 7.756,3.225 l 0.008,0.008 c 1.992,1.985 3.224,4.732 3.224,7.755 0,3.031 -1.231,5.778 -3.224,7.763 l -0.008,0.008 c -1.985,1.993 -4.732,3.216 -7.756,3.216 -3.032,0 -5.786,-1.223 -7.771,-3.216 -1.984,-1.985 -3.216,-4.74 -3.216,-7.771 0,-3.023 1.231,-5.771 3.216,-7.755 l 0.009,-0.008 c 1.984,-1.993 4.73,-3.225 7.762,-3.225 m -5.268,26.941 v -0.008 l 0.075,0.108 1.399,1.851 -0.025,0.018 8.34,11.33 c 0.596,0.813 0.855,1.633 0.855,2.403 h -0.018 c 0,0.604 -0.143,1.156 -0.41,1.642 -0.252,0.46 -0.604,0.837 -1.014,1.147 -0.687,0.502 -1.565,0.779 -2.452,0.779 v 0 h -20.962 -40.139 c -0.972,0 -1.802,-0.277 -2.455,-0.753 -0.443,-0.335 -0.795,-0.754 -1.047,-1.24 h -0.007 c -0.235,-0.468 -0.352,-0.996 -0.352,-1.566 h -0.009 c 0,-0.829 0.285,-1.716 0.904,-2.555 l 8.785,-11.941 -0.009,-0.017 0.796,-1.063 0.1,-0.134 v 0.009 l 0.018,-0.034 10.861,-14.429 c 0.385,-0.511 0.805,-0.93 1.239,-1.264 0.855,-0.637 1.784,-0.947 2.747,-0.938 0.955,0 1.875,0.318 2.705,0.938 0.443,0.334 0.861,0.762 1.238,1.264 l 10.369,13.784 5.016,-6.674 c 0.377,-0.502 0.795,-0.921 1.24,-1.256 0.837,-0.628 1.759,-0.946 2.723,-0.954 0.961,0 1.883,0.318 2.729,0.954 0.442,0.335 0.861,0.754 1.238,1.256 l 5.501,7.319 z"
   fill="#364a5e" />
	<path
   id="path2207"
   d="m 312.927,340.988 -0.051,0.042 c -1.272,1.273 -1.968,2.965 -1.968,4.757 0,1.808 0.703,3.5 1.976,4.781 1.282,1.265 2.981,1.977 4.782,1.977 1.793,0 3.459,-0.703 4.741,-1.951 l 0.04,-0.05 c 1.273,-1.273 1.968,-2.957 1.968,-4.757 0,-1.776 -0.686,-3.468 -1.942,-4.732 l -0.041,-0.042 c -1.273,-1.273 -2.973,-1.977 -4.766,-1.977 -1.801,10e-4 -3.457,0.704 -4.739,1.952 m -53.966,35.784 39.219,0.008 20.03,-0.008 -9.137,-12.412 -5.576,-7.419 c -0.108,-0.15 -0.251,-0.302 -0.401,-0.419 -0.033,-0.025 -0.136,-0.101 -0.176,-0.101 -0.051,0 -0.144,0.067 -0.186,0.101 -0.151,0.117 -0.294,0.269 -0.401,0.428 l -8.399,11.163 -13.751,-18.272 c -0.109,-0.16 -0.244,-0.319 -0.395,-0.428 -0.041,-0.024 -0.142,-0.1 -0.191,-0.1 -0.043,0 -0.143,0.076 -0.176,0.093 -0.152,0.117 -0.295,0.276 -0.402,0.427 l -10.92,14.513 z"
   fill="#54caf2"
   clip-rule="evenodd"
   fill-rule="evenodd" />
	<polygon
   id="polygon2209"
   points="347.505,555.834 347.505,560.339 342.999,560.339 241.375,560.339 236.869,560.339 236.869,555.834 236.869,454.211 236.869,449.713 241.375,449.713 342.999,449.713 347.505,449.713 347.505,454.211 "
   fill="#364a5e" />
	<rect
   id="rect2211"
   height="99.614998"
   width="99.614998"
   fill="#3ea3db"
   y="455.215"
   x="242.379" />
	<path
   id="path2213"
   d="m 323.477,491.435 c -1.096,-1.088 -2.604,-1.758 -4.271,-1.758 -1.667,0 -3.173,0.67 -4.261,1.758 -1.089,1.089 -1.76,2.597 -1.76,4.271 0,1.659 0.68,3.166 1.768,4.254 1.088,1.091 2.596,1.769 4.253,1.769 1.667,0 3.175,-0.678 4.271,-1.769 1.081,-1.088 1.752,-2.595 1.752,-4.254 0,-1.675 -0.671,-3.183 -1.752,-4.271 m -4.271,-6.717 c 3.032,0 5.779,1.223 7.765,3.216 l 0.008,0.01 c 1.984,1.984 3.216,4.73 3.216,7.762 0,3.023 -1.231,5.762 -3.216,7.755 l -0.008,0.009 c -1.985,1.984 -4.732,3.225 -7.765,3.225 -3.03,0 -5.777,-1.24 -7.771,-3.225 -1.984,-1.985 -3.216,-4.731 -3.216,-7.764 0,-3.031 1.231,-5.777 3.216,-7.762 l 0.016,-0.01 c 1.986,-1.994 4.733,-3.216 7.755,-3.216 z m -5.258,26.932 v 0 l 0.074,0.1 1.392,1.853 -0.018,0.016 8.341,11.332 c 0.596,0.811 0.846,1.631 0.846,2.403 h -0.009 c 0,0.61 -0.149,1.162 -0.417,1.642 -0.244,0.46 -0.597,0.846 -1.015,1.146 -0.678,0.502 -1.566,0.786 -2.453,0.786 v -0.017 l -20.96,0.017 -40.131,-0.017 c -0.972,0 -1.811,-0.268 -2.454,-0.752 -0.444,-0.318 -0.796,-0.739 -1.048,-1.241 h -0.008 c -0.234,-0.469 -0.359,-0.988 -0.359,-1.557 h -0.008 c 0,-0.828 0.283,-1.708 0.912,-2.554 l 8.776,-11.943 -0.01,-0.017 0.806,-1.063 0.099,-0.135 0.018,-0.018 10.854,-14.437 c 0.386,-0.502 0.804,-0.93 1.247,-1.256 0.855,-0.645 1.776,-0.956 2.739,-0.956 0.963,0.01 1.875,0.329 2.713,0.956 0.444,0.334 0.861,0.754 1.24,1.256 l 10.368,13.784 5.007,-6.666 c 0.385,-0.511 0.804,-0.931 1.247,-1.265 0.831,-0.627 1.75,-0.945 2.722,-0.945 0.955,0 1.878,0.309 2.724,0.938 0.444,0.334 0.861,0.754 1.246,1.272 l 5.502,7.311 z m 4.388,14.32 -8.383,-11.396 -0.352,-0.477 -5.125,-6.817 -0.018,-0.018 -0.008,0.018 -5.795,7.704 -1.197,1.591 -1.976,2.63 -1.978,-2.63 -1.206,-1.591 -11.138,-14.823 -0.018,-0.016 -0.009,0.016 -10.526,13.995 -0.31,0.426 -8.382,11.389 37.812,0.01 z"
   fill="#010101"
   opacity="0.15" />
	<path
   id="path2215"
   d="m 317.666,480.112 c 3.023,0 5.771,1.231 7.756,3.216 l 0.008,0.008 c 1.992,1.985 3.224,4.732 3.224,7.765 0,3.03 -1.231,5.77 -3.224,7.754 l -0.008,0.017 c -1.985,1.985 -4.732,3.216 -7.756,3.216 -3.032,0 -5.786,-1.23 -7.771,-3.216 -1.984,-1.993 -3.216,-4.74 -3.216,-7.771 0,-3.032 1.231,-5.779 3.216,-7.765 l 0.009,-0.008 c 1.984,-1.984 4.73,-3.216 7.762,-3.216 m -5.268,26.933 v 0 l 0.075,0.101 1.399,1.85 -0.025,0.018 8.34,11.33 c 0.596,0.82 0.855,1.634 0.855,2.403 h -0.018 c 0,0.611 -0.143,1.165 -0.41,1.651 -0.252,0.45 -0.604,0.836 -1.014,1.138 -0.687,0.504 -1.565,0.787 -2.452,0.787 v -0.009 l -20.962,0.009 -40.139,-0.009 c -0.972,0 -1.802,-0.274 -2.455,-0.754 -0.443,-0.326 -0.795,-0.745 -1.047,-1.239 h -0.007 c -0.235,-0.469 -0.352,-0.996 -0.352,-1.565 h -0.009 c 0,-0.829 0.285,-1.709 0.904,-2.545 l 8.785,-11.943 -0.009,-0.017 0.796,-1.071 0.1,-0.134 v 0.008 l 0.018,-0.025 10.861,-14.429 c 0.385,-0.512 0.805,-0.93 1.239,-1.265 0.855,-0.644 1.784,-0.954 2.747,-0.946 0.955,0 1.875,0.326 2.705,0.946 0.443,0.335 0.861,0.753 1.238,1.265 l 10.369,13.776 5.016,-6.667 c 0.377,-0.502 0.795,-0.929 1.24,-1.263 0.837,-0.63 1.759,-0.948 2.723,-0.948 0.961,0 1.883,0.311 2.729,0.948 0.442,0.334 0.861,0.752 1.238,1.263 l 5.501,7.319 z"
   fill="#364a5e" />
	<path
   id="path2217"
   d="m 312.927,486.292 -0.051,0.051 c -1.272,1.272 -1.968,2.956 -1.968,4.758 0,1.799 0.703,3.5 1.976,4.772 1.282,1.272 2.981,1.976 4.782,1.976 1.793,0 3.459,-0.703 4.741,-1.942 l 0.04,-0.051 c 1.273,-1.271 1.968,-2.964 1.968,-4.755 0,-1.784 -0.686,-3.476 -1.942,-4.74 l -0.041,-0.035 c -1.273,-1.272 -2.973,-1.976 -4.766,-1.976 -1.801,0 -3.457,0.695 -4.739,1.942 m -53.966,35.793 h 39.219 l 20.03,-0.009 -9.137,-12.411 -5.576,-7.41 c -0.108,-0.15 -0.251,-0.311 -0.401,-0.428 -0.033,-0.026 -0.136,-0.092 -0.176,-0.092 -0.051,0 -0.144,0.065 -0.186,0.092 -0.151,0.117 -0.294,0.277 -0.401,0.428 l -8.399,11.162 -13.751,-18.271 c -0.109,-0.161 -0.244,-0.312 -0.395,-0.429 -0.041,-0.025 -0.142,-0.099 -0.191,-0.099 -0.043,0 -0.143,0.073 -0.176,0.099 -0.152,0.117 -0.295,0.268 -0.402,0.421 l -10.92,14.52 z"
   fill="#54caf2"
   clip-rule="evenodd"
   fill-rule="evenodd" />
	<path
   id="path2219"
   d="m 382.216,345.837 h 186.431 c 2.171,0 3.955,1.775 3.955,3.953 0,2.177 -1.784,3.953 -3.955,3.953 H 382.216 c -2.169,0 -3.952,-1.775 -3.952,-3.953 0,-2.178 1.783,-3.953 3.952,-3.953"
   fill="#bcc2c6"
   clip-rule="evenodd"
   fill-rule="evenodd" />
	<path
   id="path2221"
   d="m 382.216,365.692 h 186.431 c 2.171,0 3.955,1.776 3.955,3.945 0,2.178 -1.784,3.952 -3.955,3.952 H 382.216 c -2.169,0 -3.952,-1.774 -3.952,-3.952 0,-2.168 1.783,-3.945 3.952,-3.945"
   fill="#bcc2c6"
   clip-rule="evenodd"
   fill-rule="evenodd" />
	<path
   id="path2223"
   d="m 382.216,385.548 h 89.263 c 2.179,0 3.953,1.775 3.953,3.944 v 0 c 0,2.169 -1.774,3.944 -3.953,3.944 h -89.263 c -2.169,0 -3.952,-1.775 -3.952,-3.944 v 0 c 0,-2.168 1.783,-3.944 3.952,-3.944"
   fill="#bcc2c6"
   clip-rule="evenodd"
   fill-rule="evenodd" />
	<path
   id="path2225"
   d="m 382.216,325.989 h 186.431 c 2.171,0 3.955,1.776 3.955,3.945 0,2.178 -1.784,3.953 -3.955,3.953 H 382.216 c -2.169,0 -3.952,-1.775 -3.952,-3.953 0,-2.168 1.783,-3.945 3.952,-3.945"
   fill="#bcc2c6"
   clip-rule="evenodd"
   fill-rule="evenodd" />
	<path
   id="path2227"
   d="m 382.216,491.149 h 186.431 c 2.171,0 3.955,1.775 3.955,3.944 v 0.009 c 0,2.16 -1.784,3.944 -3.955,3.944 H 382.216 c -2.169,0 -3.952,-1.784 -3.952,-3.944 v -0.009 c 0,-2.168 1.783,-3.944 3.952,-3.944"
   fill="#bcc2c6"
   clip-rule="evenodd"
   fill-rule="evenodd" />
	<path
   id="path2229"
   d="m 382.216,510.998 h 186.431 c 2.171,0 3.955,1.773 3.955,3.952 0,2.178 -1.784,3.952 -3.955,3.952 H 382.216 c -2.169,0 -3.952,-1.774 -3.952,-3.952 0,-2.179 1.783,-3.952 3.952,-3.952"
   fill="#bcc2c6"
   clip-rule="evenodd"
   fill-rule="evenodd" />
	<path
   id="path2231"
   d="m 382.216,530.853 h 89.263 c 2.179,0 3.953,1.776 3.953,3.944 0,2.179 -1.774,3.953 -3.953,3.953 h -89.263 c -2.169,0 -3.952,-1.774 -3.952,-3.953 0,-2.168 1.783,-3.944 3.952,-3.944"
   fill="#bcc2c6"
   clip-rule="evenodd"
   fill-rule="evenodd" />
	<path
   id="path2233"
   d="m 382.216,471.295 h 186.431 c 2.171,0 3.955,1.774 3.955,3.943 v 0.01 c 0,2.168 -1.784,3.944 -3.955,3.944 H 382.216 c -2.169,0 -3.952,-1.776 -3.952,-3.944 v -0.01 c 0,-2.169 1.783,-3.943 3.952,-3.943"
   fill="#bcc2c6"
   clip-rule="evenodd"
   fill-rule="evenodd" />
	<!-- <path fill-rule="evenodd" clip-rule="evenodd" fill="#94A4A5" d="M466.497,241.274c-1.14-2.328-3.575-2.999-5.92-2.999
		c-2.782,0.026-5.839,1.29-5.839,4.389c0,3.383,2.848,4.204,5.92,4.573c2.011,0.217,3.493,0.795,3.493,2.219
		c0,1.633-1.684,2.261-3.468,2.261c-1.833,0-3.575-0.729-4.246-2.386l-2.369,1.222c1.122,2.755,3.492,3.701,6.574,3.701
		c3.358,0,6.331-1.44,6.331-4.798c0-3.592-2.931-4.413-6.07-4.799c-1.811-0.217-3.367-0.586-3.367-1.901
		c0-1.122,1.013-2.001,3.122-2.001c1.642,0,3.066,0.821,3.578,1.675L466.497,241.274z M449.948,251.072h-8.458v-3.4h8.164v-2.655
		h-8.164v-3.492h8.458v-2.747h-11.28c0,5.025,0,10.074,0,15.091h11.28V251.072z M423.779,238.778v15.091h10.593v-2.63h-7.747
		v-12.461H423.779z M418.135,250.017c-0.996,0.988-2.48,1.524-3.795,1.524c-3.726,0-5.168-2.604-5.191-5.1
		c-0.017-2.521,1.558-5.234,5.191-5.234c1.314,0,2.647,0.453,3.644,1.424l1.892-1.834c-1.549-1.532-3.491-2.302-5.535-2.302
		c-5.442,0-8.014,4.002-7.988,7.947c0.025,3.919,2.395,7.771,7.988,7.771c2.179,0,4.18-0.711,5.729-2.235L418.135,250.017z
		 M401.779,253.869v-15.091h-2.823v15.091H401.779z M387.257,253.869h2.849v-12.511h4.772v-2.58c-4.37,0-8.056,0-12.401,0v2.58h4.78
		V253.869z M373.021,241.424c1.783,0,2.579,1.206,2.579,2.421c0,1.214-0.771,2.42-2.579,2.42h-4.33v-4.841H373.021z
		 M379.201,253.677l-4.572-5.15c2.864-0.578,3.811-2.663,3.811-4.74c0-2.621-1.868-4.991-5.418-5.008c-2.396,0.017-4.783,0-7.176,0
		v15.091h2.846v-5.042h2.73l4.396,5.042h3.383V253.677z M356.707,248.375h-5.602l2.806-6.431L356.707,248.375z M359.119,253.869h3.1
		l-6.759-15.091h-3.098l-6.769,15.091h3.083l1.29-2.848h7.879L359.119,253.869z"/> -->
</g>
<g
   id="g2285">
	<path
   id="path2237"
   d="M2809.751,218.679h390.399c4.479,0,8.56,1.834,11.506,4.782v0.026c2.948,2.947,4.782,7.009,4.782,11.481   v347.111c0,4.473-1.834,8.542-4.782,11.489v0.018c-2.946,2.947-7.026,4.773-11.506,4.773h-390.399   c-4.487,0-8.558-1.826-11.506-4.773v-0.018c-2.948-2.947-4.78-7.017-4.78-11.489V234.968c0-4.472,1.832-8.534,4.78-11.481v-0.026   C2801.193,220.514,2805.264,218.679,2809.751,218.679"
   fill="#BCC2C6" />
	<path
   id="path2239"
   d="M3210.526,234.968v347.111c0,6.541-4.557,10.376-10.376,10.376h-390.399   c-5.812,0-10.374-3.726-10.374-10.376V234.968c0-6.774,4.579-10.375,10.374-10.375h390.399   C3205.963,224.592,3210.526,228.318,3210.526,234.968"
   fill="#EBEFF0" />
	<path
   id="path2241"
   d="M2807.6,266.372h394.703c3.895,0,7.429,1.583,9.982,4.146c2.561,2.562,4.153,6.097,4.153,9.99v303.724   c0,3.895-1.593,7.429-4.153,9.99c-2.554,2.556-6.088,4.138-9.982,4.138H2807.6c-3.886,0-7.429-1.582-9.981-4.138   c-2.563-2.562-4.153-6.096-4.153-9.99V280.508c0-3.894,1.59-7.428,4.153-9.99C2800.171,267.955,2803.714,266.372,2807.6,266.372"
   fill="#BCC2C6" />
	<path
   id="path2243"
   d="M2807.6,272.276c-2.187,0-4.263,0.872-5.813,2.42   c-1.539,1.549-2.42,3.626-2.42,5.812v303.724c0,2.187,0.881,4.263,2.42,5.804c1.55,1.549,3.626,2.429,5.813,2.429h394.703   c2.187,0,4.262-0.88,5.803-2.429c1.55-1.541,2.421-3.617,2.421-5.804V280.508c0-2.194-0.871-4.262-2.421-5.812   c-1.541-1.549-3.626-2.42-5.803-2.42H2807.6z"
   fill="#FFFFFF"
   clip-rule="evenodd"
   fill-rule="evenodd" />
	<path
   id="path2245"
   d="M3151.504,238.745c4.154,0,7.528,3.366,7.528,7.521   c0,4.153-3.366,7.52-7.528,7.52c-4.153,0-7.521-3.367-7.521-7.52C3143.983,242.111,3147.351,238.745,3151.504,238.745    M3175.136,238.745c4.153,0,7.52,3.366,7.52,7.521c0,4.153-3.366,7.52-7.52,7.52s-7.528-3.367-7.528-7.52   C3167.607,242.111,3170.982,238.745,3175.136,238.745z M3127.88,238.745c4.153,0,7.52,3.366,7.52,7.521   c0,4.153-3.366,7.52-7.52,7.52c-4.154,0-7.528-3.367-7.528-7.52C3120.352,242.111,3123.726,238.745,3127.88,238.745z"
   fill="#94A4A5"
   clip-rule="evenodd"
   fill-rule="evenodd" />
	<polygon
   id="polygon2247"
   points="2841.582,304.4 2943.214,304.4 2947.721,304.4 2947.721,308.897 2947.721,410.529   2947.721,415.026 2943.214,415.026 2841.582,415.026 2837.086,415.026 2837.086,410.529 2837.086,308.897 2837.086,304.4  "
   fill="#364A5E" />
	<rect
   id="rect2249"
   height="99.605"
   width="99.614"
   fill="#3EA3DB"
   y="309.911"
   x="2842.596" />
	<path
   id="path2251"
   d="M2923.685,346.13c-1.087-1.089-2.595-1.758-4.261-1.758c-1.667,0-3.176,0.669-4.264,1.758   c-1.089,1.089-1.759,2.596-1.759,4.262c0,1.659,0.678,3.174,1.767,4.263c1.09,1.088,2.597,1.767,4.256,1.767   c1.666,0,3.174-0.678,4.261-1.767c1.09-1.089,1.76-2.597,1.76-4.263S2924.774,347.219,2923.685,346.13 M2919.424,339.405   c3.031,0,5.77,1.231,7.762,3.216l0.01,0.017c1.983,1.985,3.216,4.732,3.216,7.754c0,3.033-1.232,5.771-3.216,7.764l-0.01,0.008   c-1.992,1.993-4.73,3.215-7.762,3.215c-3.032,0-5.779-1.222-7.773-3.215c-1.982-1.994-3.215-4.739-3.215-7.772   c0-3.022,1.232-5.77,3.215-7.754l0.018-0.017C2913.653,340.636,2916.4,339.405,2919.424,339.405z M2914.164,366.337   L2914.164,366.337l0.075,0.101l1.39,1.859l-0.016,0.017l8.341,11.322c0.594,0.821,0.846,1.642,0.846,2.412h-0.01   c0,0.604-0.149,1.156-0.418,1.642c-0.242,0.452-0.594,0.838-1.014,1.148c-0.678,0.502-1.565,0.779-2.453,0.779v-0.008   l-20.962,0.008l-40.13-0.008c-0.971,0-1.808-0.276-2.453-0.754c-0.442-0.326-0.804-0.745-1.047-1.24h-0.008   c-0.234-0.468-0.36-0.996-0.36-1.566h-0.008c0-0.82,0.293-1.708,0.903-2.545l8.784-11.941l-0.008-0.017l0.804-1.072l0.102-0.126   l0.016-0.025l10.853-14.429c0.387-0.511,0.806-0.93,1.249-1.265c0.847-0.636,1.774-0.955,2.737-0.946   c0.955,0.008,1.878,0.327,2.706,0.946c0.452,0.335,0.871,0.754,1.248,1.265l10.368,13.776l5.007-6.666   c0.385-0.503,0.805-0.922,1.249-1.257c0.827-0.628,1.75-0.946,2.721-0.954c0.956,0,1.876,0.31,2.721,0.954   c0.444,0.327,0.863,0.746,1.248,1.257l5.504,7.319L2914.164,366.337z M2918.551,380.666l-8.381-11.397l-0.353-0.485l-5.124-6.816   l-0.018-0.018l-0.008,0.018l-5.795,7.704l-1.198,1.591l-1.976,2.638l-1.978-2.638l-1.206-1.591l-11.139-14.814l-0.016-0.018   l-0.008,0.018l-10.527,13.994l-0.311,0.418l-8.382,11.397l37.81,0.008L2918.551,380.666z"
   fill="#010101"
   opacity="0.15" />
	<path
   id="path2253"
   d="M2917.881,334.799c3.024,0,5.771,1.231,7.756,3.225l0.018,0.008c1.984,1.985,3.215,4.732,3.215,7.755   c0,3.031-1.23,5.778-3.215,7.763l-0.018,0.008c-1.984,1.993-4.731,3.216-7.756,3.216c-3.039,0-5.787-1.223-7.77-3.216   c-1.985-1.985-3.215-4.74-3.215-7.771c0-3.023,1.223-5.771,3.215-7.755l0.008-0.008   C2912.104,336.031,2914.852,334.799,2917.881,334.799 M2912.614,361.74v-0.008l0.076,0.108l1.397,1.851l-0.024,0.018l8.341,11.33   c0.595,0.813,0.854,1.633,0.854,2.403h-0.007c0,0.604-0.161,1.156-0.419,1.642c-0.252,0.46-0.604,0.837-1.014,1.147   c-0.688,0.502-1.566,0.779-2.462,0.779l0,0h-20.952h-40.141c-0.963,0-1.799-0.277-2.452-0.753c-0.443-0.335-0.795-0.754-1.048-1.24   h-0.008c-0.234-0.468-0.352-0.996-0.352-1.566h-0.01c0-0.829,0.286-1.716,0.905-2.555l8.785-11.941l-0.009-0.017l0.805-1.063   l0.092-0.134v0.009l0.016-0.034l10.862-14.429c0.386-0.511,0.805-0.93,1.239-1.264c0.854-0.637,1.784-0.947,2.748-0.938   c0.953,0,1.875,0.318,2.704,0.938c0.444,0.334,0.863,0.762,1.24,1.264l10.366,13.784l5.017-6.674   c0.376-0.502,0.796-0.921,1.239-1.256c0.839-0.628,1.76-0.946,2.722-0.954c0.964,0,1.884,0.318,2.729,0.954   c0.444,0.335,0.863,0.754,1.249,1.256l5.494,7.319L2912.614,361.74z"
   fill="#364A5E" />
	<path
   id="path2255"
   d="M2913.135,340.988l-0.042,0.042   c-1.266,1.273-1.97,2.965-1.97,4.757c0,1.808,0.704,3.5,1.978,4.781c1.282,1.265,2.981,1.977,4.78,1.977   c1.793,0,3.452-0.703,4.74-1.951l0.043-0.05c1.272-1.273,1.969-2.957,1.969-4.757c0-1.776-0.688-3.468-1.942-4.732l-0.043-0.042   c-1.272-1.273-2.974-1.977-4.767-1.977C2916.082,339.037,2914.423,339.74,2913.135,340.988 M2859.178,376.772l39.217,0.008   l20.032-0.008l-9.136-12.412l-5.578-7.419c-0.109-0.15-0.243-0.302-0.402-0.419c-0.025-0.025-0.135-0.101-0.176-0.101   c-0.052,0-0.143,0.067-0.184,0.101c-0.151,0.117-0.285,0.269-0.403,0.428l-8.399,11.163l-13.743-18.272   c-0.116-0.16-0.249-0.319-0.399-0.428c-0.043-0.024-0.144-0.1-0.193-0.1c-0.042,0-0.143,0.076-0.176,0.093   c-0.15,0.117-0.286,0.276-0.402,0.427l-10.92,14.513L2859.178,376.772z"
   fill="#54CAF2"
   clip-rule="evenodd"
   fill-rule="evenodd" />
	<polygon
   id="polygon2257"
   points="3066.688,449.713 3168.311,449.713 3172.816,449.713 3172.816,454.211 3172.816,555.834   3172.816,560.339 3168.311,560.339 3066.688,560.339 3062.182,560.339 3062.182,555.834 3062.182,454.211 3062.182,449.713  "
   fill="#364A5E" />
	<rect
   id="rect2259"
   height="99.615"
   width="99.612"
   fill="#3EA3DB"
   y="455.215"
   x="3067.692" />
	<path
   id="path2261"
   d="M3148.782,491.435c-1.09-1.088-2.597-1.758-4.263-1.758c-1.667,0-3.175,0.67-4.263,1.758   c-1.089,1.089-1.759,2.597-1.759,4.271c0,1.659,0.67,3.166,1.759,4.254c1.088,1.091,2.596,1.769,4.263,1.769   c1.666,0,3.173-0.678,4.263-1.769c1.089-1.088,1.767-2.595,1.767-4.254C3150.549,494.031,3149.871,492.523,3148.782,491.435    M3144.52,484.718c3.03,0,5.77,1.223,7.763,3.216l0.008,0.01c1.985,1.984,3.216,4.73,3.216,7.762c0,3.023-1.23,5.762-3.216,7.755   l-0.008,0.009c-1.993,1.984-4.732,3.225-7.763,3.225c-3.032,0-5.778-1.24-7.772-3.225c-1.985-1.985-3.216-4.731-3.216-7.764   c0-3.031,1.23-5.777,3.216-7.762l0.009-0.01C3138.748,485.94,3141.495,484.718,3144.52,484.718z M3139.26,511.65L3139.26,511.65   l0.074,0.1l1.392,1.853l-0.017,0.016l8.332,11.332c0.604,0.811,0.854,1.631,0.854,2.403h-0.009c0,0.61-0.15,1.162-0.418,1.642   c-0.242,0.46-0.594,0.846-1.015,1.146c-0.686,0.502-1.564,0.786-2.453,0.786v-0.017l-20.961,0.017l-40.131-0.017   c-0.971,0-1.808-0.268-2.454-0.752c-0.443-0.318-0.803-0.739-1.045-1.241h-0.01c-0.233-0.469-0.36-0.988-0.36-1.557h-0.007   c0-0.828,0.285-1.708,0.904-2.554l8.785-11.943l-0.009-0.017l0.803-1.063l0.093-0.135h0.01l0.016-0.018l10.854-14.437   c0.385-0.502,0.803-0.93,1.247-1.256c0.847-0.645,1.776-0.956,2.737-0.956c0.964,0.01,1.878,0.329,2.707,0.956   c0.443,0.334,0.861,0.754,1.247,1.256l10.368,13.784l5.016-6.666c0.377-0.511,0.797-0.931,1.24-1.265   c0.829-0.627,1.749-0.945,2.722-0.945c0.954,0,1.875,0.309,2.722,0.938c0.443,0.334,0.861,0.754,1.246,1.272l5.503,7.311   L3139.26,511.65z M3143.648,525.97l-8.383-11.396l-0.352-0.477l-5.126-6.817l-0.016-0.018l-0.01,0.018l-5.795,7.704l-1.198,1.591   l-1.975,2.63l-1.985-2.63l-1.197-1.591l-11.146-14.823l-0.008-0.016l-0.008,0.016l-10.527,13.995l-0.311,0.426l-8.382,11.389   l37.81,0.01L3143.648,525.97z"
   fill="#010101"
   opacity="0.15" />
	<path
   id="path2263"
   d="M3142.979,480.112c3.022,0,5.769,1.231,7.754,3.216l0.008,0.008c1.994,1.985,3.227,4.732,3.227,7.765   c0,3.03-1.232,5.77-3.227,7.754l-0.008,0.017c-1.985,1.985-4.731,3.216-7.754,3.216c-3.04,0-5.787-1.23-7.772-3.216   c-1.993-1.993-3.217-4.74-3.217-7.771c0-3.032,1.224-5.779,3.217-7.765l0.01-0.008   C3137.199,481.344,3139.946,480.112,3142.979,480.112 M3137.711,507.045h0.008l0.066,0.101l1.4,1.85l-0.025,0.018l8.34,11.33   c0.595,0.82,0.846,1.634,0.846,2.403h-0.008c0.008,0.611-0.141,1.165-0.41,1.651c-0.25,0.45-0.602,0.836-1.015,1.138   c-0.686,0.504-1.572,0.787-2.462,0.787v-0.009l-20.96,0.009l-40.131-0.009c-0.962,0-1.808-0.274-2.454-0.754   c-0.443-0.326-0.795-0.745-1.046-1.239h-0.009c-0.234-0.469-0.353-0.996-0.353-1.565h-0.016c0-0.829,0.294-1.709,0.913-2.545   l8.776-11.943v-0.017l0.795-1.071l0.101-0.134v0.008l0.018-0.025l10.86-14.429c0.377-0.512,0.797-0.93,1.248-1.265   c0.846-0.644,1.769-0.954,2.731-0.946c0.962,0,1.876,0.326,2.712,0.946c0.444,0.335,0.864,0.753,1.239,1.265l10.369,13.776   l5.016-6.667c0.377-0.502,0.796-0.929,1.24-1.263c0.836-0.63,1.758-0.948,2.721-0.948c0.955,0,1.884,0.311,2.729,0.948   c0.444,0.334,0.863,0.752,1.241,1.263l5.5,7.319L3137.711,507.045z"
   fill="#364A5E" />
	<path
   id="path2265"
   d="M3138.238,486.292l-0.051,0.051   c-1.272,1.272-1.968,2.956-1.968,4.758c0,1.799,0.703,3.5,1.978,4.772c1.271,1.272,2.981,1.976,4.781,1.976   c1.791,0,3.449-0.703,4.731-1.942l0.049-0.051c1.274-1.271,1.97-2.964,1.97-4.755c0-1.784-0.688-3.476-1.944-4.74l-0.041-0.035   c-1.274-1.272-2.974-1.976-4.765-1.976C3141.179,484.35,3139.52,485.045,3138.238,486.292 M3084.274,522.085h39.217l20.021-0.009   l-9.127-12.411l-5.577-7.41c-0.109-0.15-0.251-0.311-0.402-0.428c-0.033-0.026-0.132-0.092-0.175-0.092   c-0.052,0-0.143,0.065-0.185,0.092c-0.15,0.117-0.285,0.277-0.402,0.428l-8.398,11.162l-13.752-18.271   c-0.108-0.161-0.242-0.312-0.402-0.429c-0.033-0.025-0.135-0.099-0.184-0.099c-0.042,0-0.143,0.073-0.176,0.099   c-0.15,0.117-0.285,0.268-0.402,0.421l-10.92,14.52L3084.274,522.085z"
   fill="#54CAF2"
   clip-rule="evenodd"
   fill-rule="evenodd" />
	<path
   id="path2267"
   d="M2982.434,345.837h186.43c2.17,0,3.953,1.775,3.953,3.953   c0,2.177-1.783,3.953-3.953,3.953h-186.43c-2.171,0-3.945-1.775-3.945-3.953C2978.488,347.612,2980.263,345.837,2982.434,345.837"
   fill="#BCC2C6"
   clip-rule="evenodd"
   fill-rule="evenodd" />
	<path
   id="path2269"
   d="M2982.434,365.692h186.43c2.17,0,3.953,1.776,3.953,3.945   c0,2.178-1.783,3.952-3.953,3.952h-186.43c-2.171,0-3.945-1.774-3.945-3.952C2978.488,367.469,2980.263,365.692,2982.434,365.692"
   fill="#BCC2C6"
   clip-rule="evenodd"
   fill-rule="evenodd" />
	<path
   id="path2271"
   d="M2982.434,385.548h89.263c2.177,0,3.952,1.775,3.952,3.944l0,0   c0,2.169-1.775,3.944-3.952,3.944h-89.263c-2.171,0-3.945-1.775-3.945-3.944l0,0   C2978.488,387.324,2980.263,385.548,2982.434,385.548"
   fill="#BCC2C6"
   clip-rule="evenodd"
   fill-rule="evenodd" />
	<path
   id="path2273"
   d="M2982.434,325.989h186.43c2.17,0,3.953,1.776,3.953,3.945   c0,2.178-1.783,3.953-3.953,3.953h-186.43c-2.171,0-3.945-1.775-3.945-3.953C2978.488,327.766,2980.263,325.989,2982.434,325.989"
   fill="#BCC2C6"
   clip-rule="evenodd"
   fill-rule="evenodd" />
	<path
   id="path2275"
   d="M3027.47,491.149h-186.431c-2.179,0-3.953,1.775-3.953,3.944   v0.009c0,2.16,1.774,3.944,3.953,3.944h186.431c2.169,0,3.945-1.784,3.945-3.944v-0.009   C3031.415,492.925,3029.639,491.149,3027.47,491.149"
   fill="#BCC2C6"
   clip-rule="evenodd"
   fill-rule="evenodd" />
	<path
   id="path2277"
   d="M3027.47,510.998h-186.431c-2.179,0-3.953,1.773-3.953,3.952   c0,2.178,1.774,3.952,3.953,3.952h186.431c2.169,0,3.945-1.774,3.945-3.952C3031.415,512.771,3029.639,510.998,3027.47,510.998"
   fill="#BCC2C6"
   clip-rule="evenodd"
   fill-rule="evenodd" />
	<path
   id="path2279"
   d="M3027.47,530.853h-89.271c-2.17,0-3.945,1.776-3.945,3.944   c0,2.179,1.775,3.953,3.945,3.953h89.271c2.169,0,3.945-1.774,3.945-3.953C3031.415,532.629,3029.639,530.853,3027.47,530.853"
   fill="#BCC2C6"
   clip-rule="evenodd"
   fill-rule="evenodd" />
	<path
   id="path2281"
   d="M3027.47,471.295h-186.431c-2.179,0-3.953,1.774-3.953,3.943v0.01   c0,2.168,1.774,3.944,3.953,3.944h186.431c2.169,0,3.945-1.776,3.945-3.944v-0.01   C3031.415,473.069,3029.639,471.295,3027.47,471.295"
   fill="#BCC2C6"
   clip-rule="evenodd"
   fill-rule="evenodd" />
	<path
   id="path2283"
   d="M3066.713,241.274c-1.14-2.328-3.576-2.999-5.92-2.999   c-2.782,0.026-5.839,1.29-5.839,4.389c0,3.383,2.849,4.204,5.922,4.573c2.009,0.217,3.491,0.795,3.491,2.219   c0,1.633-1.682,2.261-3.466,2.261c-1.835,0-3.578-0.729-4.246-2.386l-2.369,1.222c1.12,2.755,3.491,3.701,6.572,3.701   c3.358,0,6.332-1.44,6.332-4.798c0-3.592-2.931-4.413-6.071-4.799c-1.811-0.217-3.367-0.586-3.367-1.901   c0-1.122,1.014-2.001,3.124-2.001c1.642,0,3.063,0.821,3.575,1.675L3066.713,241.274z M3050.173,251.072h-8.466v-3.4h8.155v-2.655   h-8.155v-3.492h8.466v-2.747h-11.289c0,5.025,0,10.074,0,15.091h11.289V251.072z M3023.994,238.778v15.091h10.594v-2.63h-7.747   v-12.461H3023.994z M3018.351,250.017c-0.989,0.988-2.479,1.524-3.794,1.524c-3.727,0-5.167-2.604-5.192-5.1   c-0.017-2.521,1.557-5.234,5.192-5.234c1.315,0,2.646,0.453,3.643,1.424l1.894-1.834c-1.55-1.532-3.483-2.302-5.536-2.302   c-5.452,0-8.014,4.002-7.99,7.947c0.025,3.919,2.387,7.771,7.99,7.771c2.178,0,4.18-0.711,5.729-2.235L3018.351,250.017z    M3001.994,253.869v-15.091h-2.822v15.091H3001.994z M2987.475,253.869h2.838v-12.511h4.791v-2.58c-4.381,0-8.058,0-12.411,0v2.58   h4.782V253.869z M2973.229,241.424c1.792,0,2.588,1.206,2.588,2.421c0,1.214-0.778,2.42-2.588,2.42h-4.321v-4.841H2973.229z    M2979.408,253.677l-4.563-5.15c2.864-0.578,3.812-2.663,3.812-4.74c0-2.621-1.868-4.991-5.428-5.008c-2.386,0.017-4.773,0-7.169,0   v15.091h2.848v-5.042h2.73l4.396,5.042h3.374V253.677z M2956.925,248.375h-5.604l2.806-6.431L2956.925,248.375z M2959.335,253.869   h3.107l-6.767-15.091h-3.098l-6.768,15.091h3.082l1.289-2.848h7.881L2959.335,253.869z"
   fill="#94A4A5"
   clip-rule="evenodd"
   fill-rule="evenodd" />
</g>
</svg>
