<?xml version="1.0" encoding="utf-8"?>
<!-- Generator: Adobe Illustrator 15.1.0, SVG Export Plug-In . SVG Version: 6.00 Build 0)  -->
<!DOCTYPE svg PUBLIC "-//W3C//DTD SVG 1.0//EN" "http://www.w3.org/TR/2001/REC-SVG-20010904/DTD/svg10.dtd">
<svg version="1.0" id="Layer_1" xmlns="http://www.w3.org/2000/svg" xmlns:xlink="http://www.w3.org/1999/xlink" x="0px" y="0px"
	 width="800px" height="800px" viewBox="194.31700134277344 214.9770050048828 422.00103759765625 378.8060302734375" enable-background="new 0 0 800 800" xml:space="preserve">
<g>
	<!-- <path fill="#BCC2C6" d="M210.56,214.977h389.499c4.478,0,8.538,1.83,11.479,4.771v0.025c2.94,2.933,4.779,6.993,4.779,11.455
		v346.311c0,4.462-1.839,8.523-4.779,11.464v0.017c-2.941,2.941-7.002,4.763-11.479,4.763H210.56c-4.479,0-8.539-1.821-11.48-4.763
		v-0.017c-2.941-2.94-4.762-7.002-4.762-11.464V231.228c0-4.461,1.82-8.522,4.762-11.455v-0.025
		C202.021,216.807,206.081,214.977,210.56,214.977"/> -->
	<!-- <path fill="#EBEFF0" d="M610.419,231.228v346.311c0,6.526-4.546,10.353-10.36,10.353H210.56c-5.799,0-10.344-3.718-10.344-10.353
		V231.228c0-6.759,4.562-10.352,10.344-10.352h389.499C605.856,220.875,610.419,224.594,610.419,231.228"/> -->
	<path fill="#BCC2C6" d="M208.421,262.559h393.792c3.877,0,7.403,1.58,9.96,4.136c2.557,2.557,4.145,6.083,4.145,9.968v303.024
		c0,3.885-1.588,7.41-4.145,9.967c-2.557,2.549-6.083,4.128-9.96,4.128H208.421c-3.895,0-7.42-1.579-9.96-4.128
		c-2.557-2.557-4.144-6.082-4.144-9.967V276.663c0-3.885,1.587-7.411,4.144-9.968C201.001,264.139,204.526,262.559,208.421,262.559"
		/>
	<path fill-rule="evenodd" clip-rule="evenodd" fill="#FFFFFF" d="M208.421,268.45c-2.189,0-4.262,0.869-5.799,2.415
		c-1.537,1.546-2.406,3.618-2.406,5.798v303.024c0,2.181,0.869,4.252,2.406,5.798s3.609,2.414,5.799,2.414h393.792
		c2.173,0,4.245-0.868,5.782-2.414c1.554-1.546,2.424-3.617,2.424-5.798V276.663c0-2.189-0.87-4.252-2.424-5.798
		c-1.537-1.545-3.609-2.415-5.782-2.415H208.421z"/>
	<!-- <path fill-rule="evenodd" clip-rule="evenodd" fill="#94A4A5" d="M551.531,234.996c4.145,0,7.503,3.359,7.503,7.503
		c0,4.145-3.358,7.503-7.503,7.503c-4.144,0-7.503-3.358-7.503-7.503C544.028,238.354,547.388,234.996,551.531,234.996
		 M575.109,234.996c4.144,0,7.503,3.359,7.503,7.503c0,4.145-3.359,7.503-7.503,7.503s-7.52-3.358-7.52-7.503
		C567.59,238.354,570.966,234.996,575.109,234.996z M527.953,234.996c4.145,0,7.504,3.359,7.504,7.503
		c0,4.145-3.359,7.503-7.504,7.503s-7.503-3.358-7.503-7.503C520.45,238.354,523.809,234.996,527.953,234.996z"/> -->
	<!-- <path fill-rule="evenodd" clip-rule="evenodd" fill="#94A4A5" d="M466.928,237.519c-1.137-2.323-3.56-2.991-5.898-2.991
		c-2.774,0.017-5.832,1.287-5.832,4.386c0,3.367,2.841,4.186,5.915,4.554c2.005,0.217,3.476,0.793,3.476,2.214
		c0,1.629-1.671,2.255-3.459,2.255c-1.821,0-3.559-0.727-4.228-2.381l-2.355,1.22c1.103,2.749,3.476,3.693,6.55,3.693
		c3.343,0,6.316-1.437,6.316-4.787c0-3.584-2.924-4.403-6.065-4.788c-1.805-0.218-3.359-0.585-3.359-1.896
		c0-1.12,1.02-1.997,3.125-1.997c1.638,0,3.059,0.819,3.576,1.671L466.928,237.519z M450.435,247.294h-8.455v-3.401h8.154v-2.64
		h-8.154v-3.484h8.455v-2.749h-11.263c0,5.021,0,10.059,0,15.064h11.263V247.294z M424.316,235.021v15.064h10.578v-2.624h-7.738
		v-12.44H424.316z M418.685,246.242c-0.985,0.986-2.473,1.521-3.793,1.521c-3.709,0-5.146-2.598-5.18-5.088
		c-0.017-2.515,1.554-5.222,5.18-5.222c1.32,0,2.656,0.451,3.643,1.42l1.889-1.83c-1.554-1.529-3.476-2.298-5.531-2.298
		c-5.431,0-7.987,3.994-7.971,7.929c0.033,3.91,2.39,7.762,7.971,7.762c2.172,0,4.178-0.718,5.715-2.239L418.685,246.242z
		 M402.359,250.085v-15.064h-2.808v15.064H402.359z M387.871,250.085h2.842v-12.483h4.778v-2.581c-4.361,0-8.038,0-12.382,0v2.581
		h4.762V250.085z M373.668,237.669c1.788,0,2.573,1.203,2.573,2.415s-0.769,2.415-2.573,2.415h-4.312v-4.829H373.668z
		 M379.834,249.893l-4.546-5.138c2.858-0.584,3.793-2.657,3.793-4.737c0-2.615-1.871-4.971-5.413-4.996c-2.39,0.025-4.763,0-7.151,0
		v15.064h2.84v-5.03h2.724l4.378,5.03h3.376V249.893z M357.393,244.604h-5.582l2.791-6.417L357.393,244.604z M359.798,250.085h3.108
		l-6.75-15.064h-3.092l-6.751,15.064h3.074l1.286-2.84h7.854L359.798,250.085z"/> -->
	<path fill-rule="evenodd" clip-rule="evenodd" fill="#364A5E" d="M237.513,318.831h137.542c2.841,0,5.146,2.314,5.146,5.146
		v208.394c0,2.832-2.306,5.146-5.146,5.146H237.513c-2.841,0-5.164-2.314-5.164-5.146V323.978
		C232.349,321.146,234.672,318.831,237.513,318.831"/>
	<rect x="238.248" y="324.713" fill="#3EA3DB" width="136.071" height="206.914"/>
	<path fill-rule="evenodd" clip-rule="evenodd" fill="#364A5E" d="M261.726,364.517h89.1c2.172,0,3.943,1.771,3.943,3.936l0,0
		c0,2.164-1.771,3.944-3.943,3.944h-89.1c-2.155,0-3.927-1.78-3.927-3.944l0,0C257.799,366.288,259.57,364.517,261.726,364.517"/>
	<path fill-rule="evenodd" clip-rule="evenodd" fill="#364A5E" d="M261.726,384.318h89.1c2.172,0,3.943,1.771,3.943,3.943l0,0
		c0,2.172-1.771,3.936-3.943,3.936h-89.1c-2.155,0-3.927-1.763-3.927-3.936l0,0C257.799,386.09,259.57,384.318,261.726,384.318"/>
	<path fill-rule="evenodd" clip-rule="evenodd" fill="#364A5E" d="M261.726,344.707h89.1c2.172,0,3.943,1.771,3.943,3.936
		c0,2.172-1.771,3.943-3.943,3.943h-89.1c-2.155,0-3.927-1.771-3.927-3.943C257.799,346.478,259.57,344.707,261.726,344.707"/>
	<path fill-rule="evenodd" clip-rule="evenodd" fill="#364A5E" d="M261.726,404.128h89.1c2.172,0,3.943,1.763,3.943,3.936l0,0
		c0,2.173-1.771,3.943-3.943,3.943h-89.1c-2.155,0-3.927-1.771-3.927-3.943l0,0C257.799,405.891,259.57,404.128,261.726,404.128"/>
	<path fill-rule="evenodd" clip-rule="evenodd" fill="#364A5E" d="M261.726,423.938h89.1c2.172,0,3.943,1.764,3.943,3.936l0,0
		c0,2.164-1.771,3.936-3.943,3.936h-89.1c-2.155,0-3.927-1.771-3.927-3.936l0,0C257.799,425.701,259.57,423.938,261.726,423.938"/>
	<path fill-rule="evenodd" clip-rule="evenodd" fill="#364A5E" d="M277.551,443.74h57.467c2.172,0,3.927,1.771,3.927,3.943l0,0
		c0,2.163-1.755,3.936-3.927,3.936h-57.467c-2.173,0-3.943-1.772-3.943-3.936l0,0C273.607,445.512,275.378,443.74,277.551,443.74"/>
	<path fill="#218DCA" d="M339.262,486.602h-58.971c-2.272,0-4.328,0.928-5.831,2.423c-1.488,1.504-2.424,3.56-2.424,5.832l0,0
		c0,2.272,0.936,4.336,2.424,5.823v0.009c1.486,1.487,3.559,2.414,5.831,2.414h58.971c2.255,0,4.328-0.927,5.832-2.423
		c1.487-1.496,2.423-3.559,2.423-5.823l0,0c0-2.272-0.936-4.345-2.423-5.841C343.59,487.529,341.534,486.602,339.262,486.602
		 M280.291,478.522h58.971c4.478,0,8.556,1.838,11.514,4.787l0.017,0.017c2.957,2.958,4.795,7.035,4.795,11.53l0,0
		c0,4.495-1.838,8.572-4.795,11.53c-2.958,2.958-7.036,4.796-11.53,4.796h-58.971c-4.479,0-8.556-1.838-11.53-4.796l0,0v-0.017
		c-2.957-2.958-4.796-7.035-4.796-11.514l0,0c0-4.495,1.839-8.581,4.796-11.547C271.702,480.36,275.796,478.522,280.291,478.522z"/>
	<path fill="#364A5E" d="M277.083,471.847h58.97c4.479,0,8.573,1.838,11.53,4.796v0.017c2.958,2.957,4.796,7.035,4.796,11.514v0.008
		c0,4.495-1.838,8.581-4.796,11.539c-2.957,2.957-7.035,4.795-11.53,4.795h-58.97c-4.479,0-8.557-1.838-11.514-4.795l-0.018-0.009
		v-0.008c-2.957-2.967-4.795-7.044-4.795-11.522v-0.008c0-4.486,1.838-8.573,4.795-11.53
		C268.511,473.685,272.587,471.847,277.083,471.847"/>
	<path fill="#43C0B9" d="M336.053,476.709c3.041,0,5.949,1.203,8.104,3.359c2.156,2.155,3.359,5.063,3.359,8.112
		s-1.203,5.949-3.359,8.097c-2.155,2.154-5.063,3.375-8.104,3.375h-58.97c-3.041,0-5.949-1.204-8.105-3.358l-0.016-0.017
		c-2.156-2.147-3.342-5.056-3.342-8.104c0-3.042,1.203-5.949,3.357-8.097c2.156-2.155,5.064-3.367,8.105-3.367H336.053z"/>
	<path fill="#7CCED2" d="M336.053,476.709c3.041,0,5.949,1.203,8.104,3.359c2.156,2.155,3.359,5.063,3.359,8.112
		c0,0.777-0.067,1.546-0.234,2.298c-0.435-2.173-1.521-4.194-3.125-5.79c-2.155-2.147-5.063-3.367-8.104-3.367h-58.97
		c-3.041,0-5.949,1.22-8.105,3.376c-1.604,1.604-2.674,3.617-3.124,5.798c-0.167-0.752-0.233-1.537-0.233-2.322
		c0-3.042,1.203-5.949,3.357-8.097c2.156-2.155,5.064-3.367,8.105-3.367H336.053z"/>
	<path fill="#BCC2C6" d="M435.563,318.831h137.559c2.841,0,5.163,2.314,5.163,5.146v208.394c0,2.832-2.322,5.146-5.163,5.146
		H435.563c-2.824,0-5.146-2.314-5.146-5.146V323.978C430.416,321.146,432.738,318.831,435.563,318.831"/>
	<rect x="436.314" y="324.713" fill="#FFFFFF" width="136.071" height="206.914"/>
	<path fill="#BCC2C6" d="M459.792,364.517h89.099c2.173,0,3.944,1.771,3.944,3.936l0,0c0,2.164-1.771,3.944-3.944,3.944h-89.099
		c-2.155,0-3.943-1.78-3.943-3.944l0,0C455.849,366.288,457.637,364.517,459.792,364.517"/>
	<path fill="#BCC2C6" d="M459.792,384.318h89.099c2.173,0,3.944,1.771,3.944,3.943l0,0c0,2.172-1.771,3.936-3.944,3.936h-89.099
		c-2.155,0-3.943-1.763-3.943-3.936l0,0C455.849,386.09,457.637,384.318,459.792,384.318"/>
	<path fill="#BCC2C6" d="M459.792,344.707h89.099c2.173,0,3.944,1.771,3.944,3.936c0,2.172-1.771,3.943-3.944,3.943h-89.099
		c-2.155,0-3.943-1.771-3.943-3.943C455.849,346.478,457.637,344.707,459.792,344.707"/>
	<path fill="#BCC2C6" d="M459.792,404.128h89.099c2.173,0,3.944,1.763,3.944,3.936l0,0c0,2.173-1.771,3.943-3.944,3.943h-89.099
		c-2.155,0-3.943-1.771-3.943-3.943l0,0C455.849,405.891,457.637,404.128,459.792,404.128"/>
	<path fill="#BCC2C6" d="M459.792,423.938h89.099c2.173,0,3.944,1.764,3.944,3.936l0,0c0,2.164-1.771,3.936-3.944,3.936h-89.099
		c-2.155,0-3.943-1.771-3.943-3.936l0,0C455.849,425.701,457.637,423.938,459.792,423.938"/>
	<path fill="#BCC2C6" d="M475.617,443.74h57.466c2.156,0,3.927,1.771,3.927,3.943l0,0c0,2.163-1.771,3.936-3.927,3.936h-57.466
		c-2.173,0-3.944-1.772-3.944-3.936l0,0C471.673,445.512,473.444,443.74,475.617,443.74"/>
	<path fill="#BCC2C6" d="M537.327,486.602h-58.97c-2.272,0-4.327,0.928-5.832,2.423c-1.487,1.504-2.423,3.56-2.423,5.832l0,0
		c0,2.272,0.919,4.336,2.423,5.823v0.009c1.486,1.487,3.56,2.414,5.832,2.414h58.97c2.272,0,4.329-0.927,5.833-2.423
		c1.486-1.496,2.423-3.559,2.423-5.823l0,0c0-2.272-0.937-4.345-2.423-5.841C541.656,487.529,539.6,486.602,537.327,486.602
		 M478.357,478.522h58.97c4.479,0,8.557,1.838,11.53,4.787v0.017c2.958,2.958,4.796,7.035,4.796,11.53l0,0
		c0,4.495-1.838,8.572-4.796,11.53c-2.957,2.958-7.035,4.796-11.53,4.796h-58.97c-4.479,0-8.556-1.838-11.514-4.796h-0.017v-0.017
		c-2.958-2.958-4.796-7.035-4.796-11.514l0,0c0-4.495,1.838-8.581,4.796-11.547C469.784,480.36,473.862,478.522,478.357,478.522z"/>
	<path fill="#364A5E" d="M475.148,471.847h58.971c4.479,0,8.572,1.838,11.53,4.796v0.017c2.958,2.957,4.796,7.035,4.796,11.514
		v0.008c0,4.495-1.838,8.581-4.796,11.539c-2.958,2.957-7.035,4.795-11.53,4.795h-58.971c-4.478,0-8.556-1.838-11.514-4.795
		l-0.017-0.009v-0.008c-2.957-2.967-4.795-7.044-4.795-11.522v-0.008c0-4.486,1.838-8.573,4.795-11.53
		C466.576,473.685,470.654,471.847,475.148,471.847"/>
	<path fill="#43C0B9" d="M534.119,476.709c3.042,0,5.949,1.203,8.104,3.359c2.156,2.155,3.376,5.063,3.376,8.112
		s-1.22,5.949-3.376,8.097c-2.155,2.154-5.063,3.375-8.104,3.375h-58.971c-3.04,0-5.948-1.204-8.104-3.358l-0.017-0.017
		c-2.139-2.147-3.341-5.056-3.341-8.104c0-3.042,1.202-5.949,3.357-8.097c2.156-2.155,5.064-3.367,8.104-3.367H534.119z"/>
	<path fill="#7CCED2" d="M534.119,476.709c3.042,0,5.949,1.203,8.104,3.359c2.156,2.155,3.376,5.063,3.376,8.112
		c0,0.777-0.084,1.546-0.234,2.298c-0.451-2.173-1.537-4.194-3.142-5.79c-2.155-2.147-5.063-3.367-8.104-3.367h-58.971
		c-3.04,0-5.948,1.22-8.104,3.376c-1.604,1.604-2.674,3.617-3.125,5.798c-0.166-0.752-0.232-1.537-0.232-2.322
		c0-3.042,1.202-5.949,3.357-8.097c2.156-2.155,5.064-3.367,8.104-3.367H534.119z"/>
</g>
</svg>
