<?xml version="1.0" encoding="utf-8"?>
<!-- Generator: Adobe Illustrator 15.1.0, SVG Export Plug-In . SVG Version: 6.00 Build 0)  -->
<!DOCTYPE svg PUBLIC "-//W3C//DTD SVG 1.0//EN" "http://www.w3.org/TR/2001/REC-SVG-20010904/DTD/svg10.dtd">
<svg version="1.0" id="Layer_1" xmlns="http://www.w3.org/2000/svg" xmlns:xlink="http://www.w3.org/1999/xlink" x="0px" y="0px"
	 width="800px" height="800px" viewBox="198.9879913330078 214.9770050048828 422.00103759765625 378.8060302734375" enable-background="new 0 0 800 800" xml:space="preserve">
<g>
	<!-- <path fill="#BCC2C6" d="M215.229,214.977h389.499c4.479,0,8.539,1.83,11.479,4.771v0.025c2.941,2.933,4.78,6.993,4.78,11.455
		v346.311c0,4.462-1.839,8.523-4.78,11.464v0.017c-2.94,2.941-7.001,4.763-11.479,4.763H215.229c-4.461,0-8.538-1.821-11.479-4.763
		v-0.017c-2.924-2.94-4.762-7.002-4.762-11.464V231.228c0-4.461,1.838-8.522,4.762-11.455v-0.025
		C206.691,216.807,210.769,214.977,215.229,214.977"/> -->
	<!-- <path fill="#EBEFF0" d="M615.09,231.228v346.311c0,6.526-4.546,10.353-10.361,10.353H215.229c-5.798,0-10.343-3.718-10.343-10.353
		V231.228c0-6.759,4.578-10.352,10.343-10.352h389.499C610.526,220.875,615.09,224.594,615.09,231.228"/> -->
	<path fill="#BCC2C6" d="M213.092,262.559h393.775c3.894,0,7.42,1.58,9.977,4.136c2.557,2.557,4.145,6.083,4.145,9.968v303.024
		c0,3.885-1.588,7.41-4.145,9.967c-2.557,2.549-6.083,4.128-9.977,4.128H213.092c-3.877,0-7.403-1.579-9.96-4.128
		c-2.557-2.557-4.144-6.082-4.144-9.967V276.663c0-3.885,1.587-7.411,4.144-9.968C205.688,264.139,209.215,262.559,213.092,262.559"
		/>
	<path fill-rule="evenodd" clip-rule="evenodd" fill="#FFFFFF" d="M213.092,268.45c-2.189,0-4.262,0.869-5.799,2.415
		c-1.537,1.546-2.406,3.618-2.406,5.798v303.024c0,2.181,0.869,4.252,2.406,5.798s3.609,2.414,5.799,2.414h393.775
		c2.189,0,4.262-0.868,5.799-2.414c1.554-1.546,2.424-3.617,2.424-5.798V276.663c0-2.189-0.87-4.252-2.424-5.798
		c-1.537-1.545-3.609-2.415-5.799-2.415H213.092z"/>
	<!-- <path fill-rule="evenodd" clip-rule="evenodd" fill="#94A4A5" d="M556.202,234.996c4.145,0,7.503,3.359,7.503,7.503
		c0,4.145-3.358,7.503-7.503,7.503s-7.502-3.358-7.502-7.503C548.7,238.354,552.058,234.996,556.202,234.996 M579.78,234.996
		c4.127,0,7.503,3.359,7.503,7.503c0,4.145-3.376,7.503-7.503,7.503c-4.16,0-7.52-3.358-7.52-7.503
		C572.261,238.354,575.637,234.996,579.78,234.996z M532.624,234.996c4.144,0,7.503,3.359,7.503,7.503
		c0,4.145-3.359,7.503-7.503,7.503s-7.503-3.358-7.503-7.503C525.121,238.354,528.48,234.996,532.624,234.996z"/> -->
	<rect x="238.406" y="297.508" fill-rule="evenodd" clip-rule="evenodd" fill="#364A5E" width="343.162" height="119.654"/>
	<rect x="244.289" y="303.399" fill="#F15E4E" width="331.381" height="107.873"/>
	<!-- <path fill-rule="evenodd" clip-rule="evenodd" fill="#94A4A5" d="M471.615,237.519c-1.153-2.323-3.576-2.991-5.916-2.991
		c-2.773,0.017-5.832,1.287-5.832,4.386c0,3.367,2.842,4.186,5.916,4.554c2.006,0.217,3.477,0.793,3.477,2.214
		c0,1.629-1.672,2.255-3.459,2.255c-1.822,0-3.561-0.727-4.229-2.381l-2.373,1.22c1.119,2.749,3.493,3.693,6.567,3.693
		c3.342,0,6.316-1.437,6.316-4.787c0-3.584-2.925-4.403-6.066-4.788c-1.804-0.218-3.341-0.585-3.341-1.896
		c0-1.12,1.002-1.997,3.107-1.997c1.638,0,3.059,0.819,3.56,1.671L471.615,237.519z M455.105,247.294h-8.455v-3.401h8.154v-2.64
		h-8.154v-3.484h8.455v-2.749h-11.263c0,5.021,0,10.059,0,15.064h11.263V247.294z M428.987,235.021v15.064h10.577v-2.624h-7.736
		v-12.44H428.987z M423.355,246.242c-0.985,0.986-2.473,1.521-3.793,1.521c-3.709,0-5.146-2.598-5.163-5.088
		c-0.033-2.515,1.537-5.222,5.163-5.222c1.32,0,2.657,0.451,3.644,1.42l1.888-1.83c-1.554-1.529-3.476-2.298-5.531-2.298
		c-5.431,0-7.987,3.994-7.97,7.929c0.033,3.91,2.389,7.762,7.97,7.762c2.173,0,4.178-0.718,5.715-2.239L423.355,246.242z
		 M407.03,250.085v-15.064h-2.808v15.064H407.03z M392.542,250.085h2.841v-12.483h4.779v-2.581c-4.379,0-8.037,0-12.383,0v2.581
		h4.763V250.085z M378.339,237.669c1.788,0,2.573,1.203,2.573,2.415s-0.769,2.415-2.573,2.415h-4.312v-4.829H378.339z
		 M384.505,249.893l-4.563-5.138c2.858-0.584,3.811-2.657,3.811-4.737c0-2.615-1.872-4.971-5.414-4.996c-2.39,0.025-4.763,0-7.152,0
		v15.064h2.841v-5.03h2.724l4.378,5.03h3.376V249.893z M362.063,244.604h-5.581l2.79-6.417L362.063,244.604z M364.486,250.085h3.091
		l-6.751-15.064h-3.092l-6.75,15.064h3.074l1.287-2.84h7.869L364.486,250.085z"/> -->
	<path fill-rule="evenodd" clip-rule="evenodd" fill="#BCC2C6" d="M246.078,442.262h331.547c2.173,0,3.943,1.771,3.943,3.935v0.009
		c0,2.163-1.771,3.936-3.943,3.936H246.078c-2.156,0-3.945-1.772-3.945-3.936v-0.009
		C242.133,444.032,243.922,442.262,246.078,442.262"/>
	<path fill-rule="evenodd" clip-rule="evenodd" fill="#BCC2C6" d="M246.078,462.071h331.547c2.173,0,3.943,1.771,3.943,3.935v0.009
		c0,2.164-1.771,3.936-3.943,3.936H246.078c-2.156,0-3.945-1.771-3.945-3.936v-0.009
		C242.133,463.842,243.922,462.071,246.078,462.071"/>
	<path fill-rule="evenodd" clip-rule="evenodd" fill="#BCC2C6" d="M330.932,481.872h161.839c2.173,0,3.943,1.771,3.943,3.944l0,0
		c0,2.164-1.771,3.943-3.943,3.943H330.932c-2.155,0-3.927-1.779-3.927-3.943l0,0C327.005,483.644,328.776,481.872,330.932,481.872"
		/>
	<path fill="#BCC2C6" d="M441.068,534.435h-58.97c-2.272,0-4.327,0.928-5.815,2.432c-1.504,1.495-2.439,3.56-2.439,5.815v0.008
		c0,2.272,0.936,4.336,2.423,5.823l0.017,0.017c1.488,1.488,3.543,2.406,5.815,2.406h58.97c2.272,0,4.328-0.928,5.832-2.423
		c1.487-1.496,2.424-3.559,2.424-5.823v-0.008c0-2.265-0.937-4.329-2.424-5.833C445.396,535.362,443.341,534.435,441.068,534.435
		 M382.099,526.355h58.97c4.479,0,8.557,1.838,11.514,4.796l0.033,0.017c2.941,2.957,4.779,7.035,4.779,11.514v0.008
		c0,4.495-1.838,8.581-4.779,11.539c-2.974,2.957-7.052,4.795-11.547,4.795h-58.97c-4.479,0-8.556-1.838-11.514-4.795l-0.017-0.009
		v-0.008c-2.958-2.966-4.796-7.044-4.796-11.522v-0.008c0-4.487,1.838-8.573,4.796-11.53
		C373.525,528.193,377.604,526.355,382.099,526.355z"/>
	<path fill="#364A5E" d="M378.89,519.68h58.971c4.479,0,8.572,1.838,11.53,4.796l0.017,0.017c2.958,2.958,4.779,7.044,4.779,11.521
		l0,0c0,4.495-1.821,8.581-4.779,11.539s-7.052,4.795-11.547,4.795H378.89c-4.478,0-8.556-1.837-11.514-4.795v-0.01l-0.017-0.008
		c-2.957-2.966-4.795-7.043-4.795-11.521l0,0c0-4.494,1.838-8.581,4.795-11.538C370.317,521.518,374.396,519.68,378.89,519.68"/>
	<path fill="#43C0B9" d="M437.86,524.542c3.042,0,5.965,1.212,8.104,3.359c2.156,2.155,3.376,5.063,3.376,8.112
		c0,3.041-1.22,5.949-3.376,8.104c-2.156,2.146-5.047,3.367-8.104,3.367H378.89c-3.04,0-5.948-1.195-8.104-3.351v-0.017
		c-2.155-2.155-3.357-5.063-3.357-8.104c0-3.05,1.219-5.948,3.357-8.104c2.156-2.155,5.064-3.367,8.104-3.367H437.86z"/>
	<path fill="#7CCED2" d="M437.86,524.542c3.042,0,5.965,1.212,8.104,3.359c2.156,2.155,3.376,5.063,3.376,8.112
		c0,0.785-0.084,1.554-0.234,2.306c-0.451-2.181-1.538-4.194-3.142-5.798c-2.14-2.155-5.063-3.359-8.104-3.359H378.89
		c-3.04,0-5.948,1.221-8.104,3.368c-1.587,1.604-2.674,3.617-3.125,5.798c-0.149-0.752-0.232-1.529-0.232-2.314
		c0-3.05,1.219-5.948,3.357-8.104c2.156-2.155,5.064-3.367,8.104-3.367H437.86z"/>
	<path fill="#D63E2B" d="M430.392,367.809l-11.497,6.642h-0.018l-11.496,6.643c-1.604,0.919-3.158,1.354-4.578,1.354
		c-1.237,0-2.374-0.317-3.376-0.911c-0.986-0.577-1.805-1.412-2.405-2.465c-0.735-1.278-1.153-2.857-1.153-4.629v-13.284v-13.276
		c0-1.83,0.418-3.384,1.136-4.637c0.618-1.086,1.471-1.921,2.473-2.49c1.004-0.568,2.139-0.869,3.326-0.869
		c1.453,0,3.024,0.443,4.596,1.345v0.008l11.479,6.634l11.515,6.634l0,0c1.587,0.919,2.74,2.055,3.459,3.309
		c0.617,1.078,0.919,2.222,0.919,3.375c-0.018,1.145-0.335,2.264-0.937,3.309C433.098,365.778,431.944,366.923,430.392,367.809"/>
	<path fill="#364A5E" d="M428.119,363.982l-11.497,6.634h-0.017l-11.497,6.643c-1.604,0.928-3.175,1.362-4.578,1.362
		c-1.236,0-2.374-0.317-3.393-0.919c-0.986-0.577-1.805-1.412-2.406-2.457c-0.735-1.287-1.152-2.857-1.152-4.637v-13.276v-13.284
		c0-1.822,0.417-3.376,1.136-4.637c0.635-1.086,1.47-1.913,2.473-2.481c1.02-0.577,2.14-0.869,3.343-0.869
		c1.454,0,3.024,0.435,4.595,1.337l-0.017,0.008l11.497,6.634l11.496,6.642h0.018c1.587,0.919,2.724,2.055,3.459,3.309
		c0.617,1.069,0.918,2.222,0.901,3.375c0,1.136-0.317,2.256-0.919,3.3C430.826,361.943,429.656,363.088,428.119,363.982"/>
	<path fill-rule="evenodd" clip-rule="evenodd" fill="#FFFFFF" d="M425.429,359.32c0.551-0.317,1.152-0.777,1.47-1.337
		c0.117-0.209,0.201-0.426,0.218-0.668c0-0.234-0.084-0.442-0.201-0.635c-0.317-0.568-0.952-1.028-1.504-1.345l-11.496-6.643
		l-11.479-6.634c-0.553-0.317-1.271-0.626-1.905-0.626c-0.251,0-0.485,0.05-0.686,0.175c-0.201,0.109-0.351,0.292-0.468,0.493
		c-0.317,0.56-0.418,1.312-0.418,1.947v26.561c0,0.643,0.101,1.378,0.435,1.947c0.117,0.209,0.267,0.393,0.468,0.518
		c0.217,0.125,0.418,0.167,0.669,0.167c0.617,0,1.353-0.326,1.888-0.635L425.429,359.32z"/>
	<path fill-rule="evenodd" clip-rule="evenodd" fill="#364A5E" d="M409.987,321.12c-20.002,0-36.211,16.217-36.211,36.211
		c0,20.002,16.209,36.211,36.211,36.211s36.212-16.209,36.212-36.211C446.199,337.337,429.989,321.12,409.987,321.12
		 M409.987,315.756c-22.977,0-41.575,18.615-41.575,41.575c0,22.969,18.599,41.584,41.575,41.584
		c22.96,0,41.576-18.615,41.576-41.584C451.563,334.371,432.947,315.756,409.987,315.756z"/>
</g>
</svg>
