<?xml version="1.0" encoding="utf-8"?>
<!-- Generator: Adobe Illustrator 15.1.0, SVG Export Plug-In . SVG Version: 6.00 Build 0)  -->
<!DOCTYPE svg PUBLIC "-//W3C//DTD SVG 1.0//EN" "http://www.w3.org/TR/2001/REC-SVG-20010904/DTD/svg10.dtd">
<svg version="1.0" id="Layer_1" xmlns="http://www.w3.org/2000/svg" xmlns:xlink="http://www.w3.org/1999/xlink" x="0px" y="0px"
	 width="800px" height="800px" viewBox="193.43800354003906 209.13099670410156 420.74505615234375 377.68804931640625" enable-background="new 0 0 800 800" xml:space="preserve">
<g>
	<!-- <path fill="#BCC2C6" d="M209.633,209.131H597.98c4.464,0,8.514,1.816,11.446,4.748v0.018c2.932,2.932,4.757,6.98,4.757,11.429
		v345.299c0,4.432-1.825,8.48-4.757,11.412v0.017c-2.933,2.933-6.982,4.765-11.446,4.765H209.633c-4.464,0-8.514-1.832-11.444-4.765
		v-0.017c-2.934-2.932-4.75-6.98-4.75-11.412V225.326c0-4.449,1.816-8.497,4.75-11.429v-0.018
		C201.119,210.947,205.169,209.131,209.633,209.131"/>
	<path fill="#EBEFF0" d="M608.302,225.326v345.299c0,6.497-4.523,10.313-10.321,10.313H209.633c-5.781,0-10.32-3.716-10.32-10.313
		V225.326c0-6.732,4.556-10.321,10.32-10.321H597.98C603.762,215.004,608.302,218.711,608.302,225.326"/> -->
	<path fill="#BCC2C6" d="M207.5,256.564h392.613c3.882,0,7.397,1.583,9.946,4.124c2.541,2.549,4.124,6.064,4.124,9.938v302.131
		c0,3.865-1.583,7.38-4.124,9.93c-2.549,2.549-6.064,4.131-9.946,4.131H207.5c-3.882,0-7.396-1.582-9.938-4.131
		c-2.55-2.55-4.124-6.064-4.124-9.93V270.626c0-3.874,1.574-7.389,4.124-9.938C200.104,258.147,203.618,256.564,207.5,256.564"/>
	<path fill-rule="evenodd" clip-rule="evenodd" fill="#FFFFFF" d="M207.5,262.446c-2.182,0-4.248,0.866-5.781,2.399
		c-1.541,1.541-2.415,3.607-2.415,5.782v302.131c0,2.165,0.874,4.232,2.415,5.78c1.533,1.533,3.6,2.4,5.781,2.4h392.613
		c2.183,0,4.248-0.867,5.781-2.4c1.541-1.548,2.407-3.6,2.407-5.78V270.626c0-2.183-0.866-4.241-2.407-5.782
		c-1.533-1.533-3.599-2.399-5.781-2.399H207.5z"/>
	<!-- <path fill-rule="evenodd" clip-rule="evenodd" fill="#94A4A5" d="M549.597,229.083c4.133,0,7.482,3.356,7.482,7.489
		c0,4.132-3.35,7.48-7.482,7.48c-4.131,0-7.488-3.349-7.488-7.48C542.108,232.439,545.466,229.083,549.597,229.083 M573.097,229.083
		c4.124,0,7.49,3.356,7.49,7.489c0,4.132-3.366,7.48-7.49,7.48c-4.141,0-7.489-3.349-7.489-7.48
		C565.607,232.439,568.966,229.083,573.097,229.083z M526.089,229.083c4.132,0,7.48,3.356,7.48,7.489c0,4.132-3.349,7.48-7.48,7.48
		s-7.48-3.349-7.48-7.48C518.608,232.439,521.957,229.083,526.089,229.083z"/> -->
	<rect x="233.643" y="319.942" fill-rule="evenodd" clip-rule="evenodd" fill="#BCC2C6" width="340.329" height="127.642"/>
	<rect x="239.522" y="325.815" fill-rule="evenodd" clip-rule="evenodd" fill="#EBEFF0" width="328.568" height="115.889"/>
	<rect x="288.089" y="303.565" fill-rule="evenodd" clip-rule="evenodd" fill="#34495E" width="231.436" height="160.397"/>
	<rect x="293.337" y="308.813" fill="#22A6EF" width="220.939" height="149.901"/>
	<path opacity="0.15" d="M463.678,359.312c-2.083-2.083-4.974-3.365-8.165-3.365c-3.182,0-6.064,1.283-8.162,3.365
		c-2.066,2.083-3.367,4.965-3.367,8.156s1.301,6.073,3.384,8.156c2.081,2.083,4.964,3.365,8.146,3.365
		c3.191,0,6.082-1.282,8.165-3.357c2.082-2.091,3.365-4.973,3.365-8.164S465.76,361.395,463.678,359.312 M455.513,346.441
		c5.799,0,11.047,2.357,14.854,6.156l0.017,0.016c3.807,3.815,6.156,9.063,6.156,14.854c0,5.79-2.35,11.046-6.156,14.853
		l-0.017,0.017c-3.808,3.799-9.056,6.156-14.854,6.156c-5.797,0-11.062-2.357-14.859-6.156c-3.808-3.798-6.166-9.063-6.166-14.87
		c0-5.79,2.358-11.038,6.166-14.854l0.017-0.016C444.468,348.799,449.723,346.441,455.513,346.441z M445.451,397.981
		L445.451,397.981l0.141,0.2l2.666,3.54l-0.042,0.026l15.962,21.696c1.142,1.549,1.623,3.115,1.623,4.598h-0.017
		c0,1.15-0.291,2.216-0.791,3.149c-0.482,0.866-1.149,1.6-1.941,2.183c-1.308,0.966-3.006,1.5-4.706,1.5v-0.017l-40.103,0.017
		l-76.807-0.017c-1.849,0-3.448-0.533-4.697-1.433c-0.85-0.634-1.517-1.434-2-2.384h-0.017c-0.449-0.898-0.683-1.899-0.675-2.981
		h-0.025c0-1.6,0.551-3.282,1.741-4.899l16.804-22.846l-0.017-0.033l1.54-2.033l0.184-0.258l0.009,0.008l0.024-0.049l20.784-27.615
		c0.733-0.975,1.532-1.783,2.383-2.425c1.615-1.216,3.399-1.815,5.231-1.807c1.841,0.008,3.598,0.625,5.181,1.816
		c0.858,0.642,1.659,1.441,2.384,2.416l19.842,26.365l9.589-12.753c0.726-0.966,1.524-1.775,2.374-2.417
		c1.6-1.199,3.366-1.807,5.215-1.815c1.833-0.009,3.599,0.591,5.215,1.808c0.85,0.642,1.649,1.449,2.384,2.424l10.528,14.003
		L445.451,397.981z M453.847,425.393l-16.044-21.805l-0.674-0.925l-9.806-13.045l-0.033-0.025l-0.017,0.025l-11.088,14.745
		l-2.291,3.048l-3.782,5.031l-3.789-5.031l-2.292-3.048l-21.325-28.358l-0.025-0.025l-0.025,0.025l-20.142,26.774l-0.591,0.816
		l-16.037,21.797l72.357,0.017L453.847,425.393z"/>
	<path fill="#34495E" d="M452.565,339.535c5.788,0,11.045,2.349,14.844,6.156l0.017,0.025c3.808,3.798,6.164,9.046,6.164,14.844
		c0,5.79-2.356,11.046-6.164,14.845l-0.017,0.017c-3.799,3.816-9.056,6.165-14.844,6.165c-5.814,0-11.063-2.357-14.87-6.165
		c-3.808-3.798-6.155-9.063-6.155-14.861c0-5.798,2.348-11.046,6.155-14.844l0.016-0.025
		C441.519,341.884,446.767,339.535,452.565,339.535 M442.485,391.075h0.008l0.143,0.192l2.665,3.549l-0.034,0.033l15.953,21.685
		c1.142,1.55,1.625,3.127,1.625,4.595h-0.018c0,1.166-0.283,2.216-0.79,3.148c-0.476,0.866-1.149,1.617-1.941,2.199
		c-1.315,0.966-2.999,1.499-4.698,1.499v-0.032l-40.12,0.016l-76.797-0.016c-1.851,0-3.458-0.518-4.691-1.434
		c-0.849-0.615-1.533-1.433-1.998-2.383h-0.025c-0.441-0.883-0.684-1.899-0.675-2.981h-0.017c0-1.583,0.55-3.27,1.732-4.887
		l16.802-22.858l-0.008-0.024l1.533-2.041l0.183-0.25l0,0l0.034-0.042l20.774-27.615c0.734-0.974,1.542-1.783,2.384-2.424
		c1.633-1.225,3.398-1.815,5.248-1.808c1.832,0.008,3.582,0.617,5.182,1.816c0.851,0.633,1.648,1.441,2.383,2.416l19.826,26.374
		l9.596-12.762c0.733-0.966,1.534-1.783,2.384-2.416c1.591-1.199,3.349-1.815,5.206-1.815c1.832,0,3.599,0.6,5.215,1.815
		c0.85,0.633,1.648,1.433,2.382,2.416l10.53,13.995L442.485,391.075z"/>
	<path fill-rule="evenodd" clip-rule="evenodd" fill="#39D4FF" d="M452.565,344.933c4.148,0,8.097,1.633,11.028,4.573l0.017,0.025
		c2.94,2.933,4.582,6.865,4.582,11.03c0,4.157-1.642,8.097-4.582,11.03l-0.017,0.025c-2.939,2.941-6.88,4.574-11.028,4.574
		c-4.166,0-8.114-1.633-11.063-4.574c-2.934-2.95-4.574-6.889-4.574-11.055c0-4.165,1.641-8.097,4.574-11.03l0.016-0.025
		C444.468,346.566,448.399,344.933,452.565,344.933"/>
	<path fill-rule="evenodd" clip-rule="evenodd" fill="#39D4FF" d="M407.147,398.765l13.911-18.486
		c0.375-0.5,0.801-0.974,1.308-1.349c0.592-0.442,1.226-0.725,1.976-0.725c0.749-0.008,1.383,0.283,1.965,0.725
		c0.501,0.375,0.934,0.849,1.317,1.349l10.662,14.187l18.593,25.262c0.21,0.284,0.418,0.65,0.518,0.999l0.033,0.135v0.433
		l-0.033,0.134c-0.083,0.282-0.259,0.515-0.5,0.699c-0.317,0.233-0.716,0.366-1.1,0.417l-0.074,0.017l-40.445,0.017l-76.789-0.017
		c-0.5,0-1.1-0.101-1.501-0.4l-0.215-0.149l-0.292-0.601v-0.549l0.025-0.117c0.1-0.449,0.366-0.916,0.649-1.296l18.36-24.974
		l20.926-27.807c0.375-0.5,0.809-0.975,1.316-1.35c0.583-0.441,1.216-0.732,1.967-0.725c0.749,0,1.382,0.284,1.974,0.733
		c0.5,0.367,0.933,0.85,1.307,1.342L407.147,398.765z"/>
	<path fill-rule="evenodd" clip-rule="evenodd" fill="#BCC2C6" d="M282.933,524.225h241.748c2.158,0,3.924,1.749,3.924,3.916l0,0
		c0,2.164-1.766,3.932-3.924,3.932H282.933c-2.157,0-3.925-1.768-3.925-3.932l0,0C279.008,525.974,280.775,524.225,282.933,524.225"
		/>
	<path fill-rule="evenodd" clip-rule="evenodd" fill="#BCC2C6" d="M345.337,543.968h116.941c2.165,0,3.932,1.766,3.932,3.932l0,0
		c0,2.15-1.767,3.915-3.932,3.915H345.337c-2.167,0-3.934-1.765-3.934-3.915l0,0C341.403,545.733,343.17,543.968,345.337,543.968"/>
	<rect x="350.492" y="482.622" fill-rule="evenodd" clip-rule="evenodd" fill="#BCC2C6" width="17.144" height="17.145"/>
	<rect x="380.324" y="482.622" fill-rule="evenodd" clip-rule="evenodd" fill="#BCC2C6" width="17.143" height="17.145"/>
	<rect x="410.147" y="482.622" fill-rule="evenodd" clip-rule="evenodd" fill="#BCC2C6" width="17.143" height="17.145"/>
	<rect x="439.978" y="482.622" fill-rule="evenodd" clip-rule="evenodd" fill="#BCC2C6" width="17.144" height="17.145"/>
	<!-- <path fill-rule="evenodd" clip-rule="evenodd" fill="#94A4A5" d="M447.832,229.541h-3.156v0.124l5.407,8.156v5.832h2.656v-5.832
		l5.614-8.156v-0.124h-3.198l-3.741,5.831L447.832,229.541z M435.987,232.022c1.666,0,2.406,1.125,2.406,2.258
		c0,1.133-0.724,2.266-2.406,2.266h-4.049v-4.524H435.987z M441.751,243.469l-4.265-4.815c2.683-0.542,3.565-2.491,3.565-4.432
		c0-2.44-1.748-4.656-5.064-4.681c-2.241,0.025-4.473,0-6.707,0v14.111h2.658v-4.715h2.549l4.107,4.715h3.156V243.469z
		 M424.575,241.036h-7.915v-3.182h7.632v-2.474h-7.632v-3.257h7.915v-2.582h-10.547c0,4.706,0,9.421,0,14.111h10.547V241.036z
		 M399.666,229.541v14.111h9.896v-2.466h-7.247v-11.646H399.666z M385.256,229.541v14.111h9.896v-2.466h-7.239v-11.646H385.256z
		 M376.058,238.521h-5.229l2.614-6.015L376.058,238.521z M378.316,243.652h2.89l-6.314-14.111h-2.898l-6.314,14.111h2.882
		l1.201-2.666h7.363L378.316,243.652z M361.938,231.315c-1.45-1.424-3.342-2.157-5.231-2.157c-4.974,0-7.439,3.665-7.439,7.63
		c0,3.698,2.149,7.181,7.439,7.181c2.475,0,4.224-0.95,5.614-2.533v-5.931h-6.039v2.367h3.598v2.499
		c-1.099,0.883-2.064,1.125-3.173,1.125c-3.499,0-4.849-2.391-4.849-4.707c0-2.899,1.825-5.19,4.849-5.19
		c1.224,0,2.64,0.508,3.581,1.408L361.938,231.315z"/> -->
</g>
</svg>
