<?xml version="1.0" encoding="utf-8"?>
<!-- Generator: Adobe Illustrator 15.1.0, SVG Export Plug-In . SVG Version: 6.00 Build 0)  -->
<!DOCTYPE svg PUBLIC "-//W3C//DTD SVG 1.0//EN" "http://www.w3.org/TR/2001/REC-SVG-20010904/DTD/svg10.dtd">
<svg version="1.0" id="Layer_1" xmlns="http://www.w3.org/2000/svg" xmlns:xlink="http://www.w3.org/1999/xlink" x="0px" y="0px"
	 width="800px" height="800px" viewBox="181.90699768066406 209.13099670410156 420.7520751953125 377.68804931640625" enable-background="new 0 0 800 800" xml:space="preserve">
<g>
	<!-- <path fill="#BCC2C6" d="M198.109,209.131h388.348c4.456,0,8.514,1.816,11.445,4.748v0.018c2.932,2.932,4.756,6.98,4.756,11.429
		v345.299c0,4.432-1.824,8.48-4.756,11.412v0.017c-2.932,2.933-6.989,4.765-11.445,4.765H198.109c-4.457,0-8.514-1.832-11.446-4.765
		v-0.017c-2.933-2.932-4.756-6.98-4.756-11.412V225.326c0-4.449,1.823-8.497,4.756-11.429v-0.018
		C189.596,210.947,193.652,209.131,198.109,209.131"/>
	<path fill="#EBEFF0" d="M596.778,225.326v345.299c0,6.497-4.532,10.313-10.321,10.313H198.109c-5.781,0-10.321-3.716-10.321-10.313
		V225.326c0-6.732,4.558-10.321,10.321-10.321h388.348C592.238,215.004,596.778,218.711,596.778,225.326"/> -->
	<path fill="#BCC2C6" d="M195.969,256.564h392.629c3.873,0,7.389,1.583,9.929,4.124c2.55,2.549,4.132,6.064,4.132,9.938v302.131
		c0,3.865-1.582,7.38-4.132,9.93c-2.54,2.549-6.056,4.131-9.929,4.131H195.969c-3.874,0-7.39-1.582-9.931-4.131
		c-2.548-2.55-4.131-6.064-4.131-9.93V270.626c0-3.874,1.583-7.389,4.131-9.938C188.579,258.147,192.095,256.564,195.969,256.564"/>
	<path fill-rule="evenodd" clip-rule="evenodd" fill="#FFFFFF" d="M195.969,262.446c-2.175,0-4.24,0.866-5.773,2.399
		c-1.541,1.541-2.407,3.607-2.407,5.782v302.131c0,2.165,0.866,4.232,2.407,5.78c1.533,1.533,3.599,2.4,5.773,2.4h392.629
		c2.174,0,4.24-0.867,5.78-2.4c1.533-1.548,2.4-3.6,2.4-5.78V270.626c0-2.183-0.867-4.241-2.4-5.782
		c-1.54-1.533-3.606-2.399-5.78-2.399H195.969z"/>
	<!-- <path fill-rule="evenodd" clip-rule="evenodd" fill="#94A4A5" d="M538.065,229.083c4.131,0,7.488,3.356,7.488,7.489
		c0,4.132-3.357,7.48-7.488,7.48c-4.132,0-7.481-3.349-7.481-7.48C530.584,232.439,533.934,229.083,538.065,229.083
		 M561.572,229.083c4.133,0,7.481,3.356,7.481,7.489c0,4.132-3.349,7.48-7.481,7.48c-4.131,0-7.487-3.349-7.487-7.48
		C554.085,232.439,557.441,229.083,561.572,229.083z M514.564,229.083c4.132,0,7.48,3.356,7.48,7.489c0,4.132-3.349,7.48-7.48,7.48
		c-4.131,0-7.48-3.349-7.48-7.48C507.084,232.439,510.434,229.083,514.564,229.083z"/> -->
	<rect x="234.08" y="291.202" fill-rule="evenodd" clip-rule="evenodd" fill="#34495E" width="139.875" height="119.3"/>
	<rect x="239.953" y="297.083" fill="#22A6EF" width="128.131" height="107.545"/>
	<path opacity="0.15" d="M338.352,335.57c-1.199-1.199-2.849-1.933-4.682-1.933s-3.481,0.733-4.681,1.933
		c-1.192,1.191-1.933,2.849-1.933,4.682c0,1.816,0.74,3.474,1.94,4.665c1.191,1.2,2.849,1.941,4.673,1.941
		c1.833,0,3.482-0.742,4.682-1.933c1.192-1.191,1.924-2.849,1.924-4.674C340.275,338.419,339.544,336.761,338.352,335.57
		 M333.67,328.189c3.324,0,6.332,1.35,8.514,3.533l0.018,0.008c2.173,2.183,3.523,5.19,3.523,8.522c0,3.315-1.351,6.331-3.523,8.514
		h-0.018c-2.182,2.191-5.189,3.54-8.514,3.54c-3.332,0-6.347-1.358-8.521-3.54c-2.183-2.174-3.533-5.19-3.533-8.514
		c0-3.332,1.351-6.339,3.533-8.522l0.008-0.008C327.339,329.539,330.346,328.189,333.67,328.189z M327.897,357.746L327.897,357.746
		l0.083,0.108l1.525,2.041l-0.018,0.017l9.146,12.429c0.658,0.891,0.933,1.791,0.933,2.633h-0.007c0,0.666-0.168,1.282-0.459,1.807
		c-0.275,0.5-0.658,0.925-1.108,1.258c-0.759,0.55-1.724,0.858-2.698,0.858v-0.008l-23,0.008l-44.043-0.008
		c-1.059,0-1.982-0.3-2.691-0.825c-0.482-0.357-0.874-0.825-1.141-1.366h-0.018c-0.249-0.507-0.391-1.091-0.391-1.708h-0.009
		c0-0.916,0.317-1.883,1-2.807l9.63-13.104v-0.017l0.874-1.166l0.108-0.15l0,0l0.017-0.017l11.912-15.845
		c0.426-0.55,0.884-1.016,1.366-1.383c0.941-0.7,1.95-1.041,3.009-1.033c1.058,0,2.065,0.35,2.974,1.033
		c0.49,0.367,0.948,0.833,1.366,1.383l11.37,15.128l5.508-7.314c0.415-0.558,0.874-1.016,1.365-1.391
		c0.908-0.683,1.924-1.033,2.982-1.042c1.05,0,2.066,0.351,2.991,1.042c0.482,0.366,0.94,0.824,1.366,1.391l6.039,8.022
		L327.897,357.746z M332.713,373.465l-9.197-12.504l-0.385-0.533l-5.631-7.48l-0.007-0.017l-0.018,0.017l-6.365,8.455l-1.306,1.75
		l-2.176,2.882l-2.165-2.882l-1.316-1.75l-12.229-16.261l-0.018-0.017l-0.008,0.017l-11.555,15.353l-0.341,0.467l-9.198,12.504
		l41.495,0.008L332.713,373.465z"/>
	<path fill="#34495E" d="M331.971,322.808c3.324,0,6.339,1.349,8.521,3.532l0.008,0.008c2.184,2.183,3.533,5.19,3.533,8.514
		s-1.35,6.331-3.533,8.514l-0.008,0.008c-2.183,2.183-5.197,3.532-8.521,3.532s-6.34-1.349-8.522-3.532
		c-2.182-2.183-3.531-5.198-3.531-8.522s1.35-6.331,3.531-8.514l0.009-0.008C325.641,324.157,328.656,322.808,331.971,322.808
		 M326.198,352.364L326.198,352.364l0.083,0.108l1.533,2.032l-0.025,0.017l9.146,12.437c0.658,0.883,0.942,1.783,0.942,2.633h-0.018
		c0,0.667-0.158,1.274-0.45,1.808c-0.275,0.5-0.657,0.925-1.115,1.258c-0.751,0.55-1.726,0.858-2.7,0.858v-0.008h-23.001h-44.033
		c-1.066,0-1.983-0.3-2.69-0.833c-0.492-0.35-0.876-0.816-1.149-1.357h-0.008c-0.259-0.508-0.393-1.092-0.393-1.716h-0.009
		c0-0.908,0.309-1.874,0.992-2.799l9.638-13.104l-0.008-0.017l0.883-1.166l0.107-0.15l0,0l0.018-0.017l11.911-15.844
		c0.425-0.558,0.884-1.016,1.368-1.383c0.932-0.699,1.948-1.049,3.007-1.041c1.049,0.008,2.057,0.357,2.966,1.041
		c0.491,0.367,0.949,0.833,1.365,1.383l11.379,15.128l5.498-7.322c0.417-0.559,0.875-1.017,1.366-1.383
		c0.917-0.691,1.925-1.042,2.982-1.042c1.059,0,2.065,0.342,3,1.033c0.482,0.366,0.94,0.833,1.366,1.392l6.029,8.03L326.198,352.364
		z"/>
	<path fill-rule="evenodd" clip-rule="evenodd" fill="#39D4FF" d="M331.971,327.198c-2.033,0-3.966,0.808-5.448,2.291l0.025-0.025
		c-1.44,1.441-2.232,3.357-2.232,5.398s0.799,3.974,2.241,5.423c1.44,1.433,3.373,2.232,5.414,2.232c2.042,0,3.974-0.8,5.456-2.283
		l-0.024,0.025c1.44-1.441,2.232-3.357,2.232-5.398s-0.792-3.957-2.208-5.373l-0.041-0.05
		C335.944,328.006,334.013,327.198,331.971,327.198 M267.061,369.108l43.533,0.008l22.469-0.008l-10.313-14.029l-6.114-8.13
		c-0.142-0.184-0.309-0.367-0.492-0.517c-0.091-0.066-0.225-0.15-0.35-0.15c-0.124,0-0.25,0.084-0.35,0.15
		c-0.192,0.15-0.35,0.333-0.492,0.517l-9.014,11.996l-14.886-19.792c-0.143-0.192-0.309-0.375-0.491-0.517
		c-0.1-0.075-0.233-0.167-0.358-0.167s-0.249,0.091-0.341,0.167c-0.192,0.133-0.359,0.324-0.492,0.517l-11.988,15.927
		L267.061,369.108z"/>
	<rect x="410.61" y="291.202" fill-rule="evenodd" clip-rule="evenodd" fill="#34495E" width="139.875" height="119.3"/>
	<rect x="416.482" y="297.083" fill="#22A6EF" width="128.131" height="107.545"/>
	<path opacity="0.15" d="M514.881,335.57c-1.199-1.199-2.849-1.933-4.682-1.933c-1.832,0-3.481,0.733-4.682,1.933
		c-1.191,1.191-1.932,2.849-1.932,4.682c0,1.816,0.75,3.474,1.94,4.665c1.191,1.2,2.85,1.941,4.673,1.941
		c1.833,0,3.482-0.742,4.682-1.933c1.192-1.191,1.926-2.849,1.926-4.674C516.807,338.419,516.073,336.761,514.881,335.57
		 M510.199,328.189c3.324,0,6.332,1.35,8.514,3.533l0.017,0.008c2.175,2.183,3.524,5.19,3.524,8.522c0,3.315-1.35,6.331-3.524,8.514
		h-0.017c-2.182,2.191-5.189,3.54-8.514,3.54c-3.332,0-6.348-1.358-8.521-3.54c-2.184-2.174-3.532-5.19-3.532-8.514
		c0-3.332,1.349-6.339,3.532-8.522l0.009-0.008C503.869,329.539,506.877,328.189,510.199,328.189z M504.428,357.746L504.428,357.746
		l0.082,0.108l1.533,2.041l-0.025,0.017l9.146,12.429c0.659,0.891,0.934,1.791,0.934,2.633h-0.009c0,0.666-0.167,1.282-0.458,1.807
		c-0.274,0.5-0.658,0.925-1.107,1.258c-0.758,0.55-1.725,0.858-2.699,0.858v-0.008l-23,0.008l-44.043-0.008
		c-1.058,0-1.983-0.3-2.69-0.825c-0.484-0.357-0.875-0.825-1.15-1.366h-0.009c-0.248-0.507-0.392-1.091-0.392-1.708h-0.007
		c0-0.916,0.315-1.883,0.999-2.807l9.63-13.104v-0.017l0.875-1.166l0.108-0.15l0,0l0.017-0.017l11.92-15.845
		c0.417-0.55,0.874-1.016,1.366-1.383c0.935-0.7,1.94-1.041,2.999-1.033c1.059,0,2.065,0.35,2.976,1.033
		c0.491,0.367,0.948,0.833,1.366,1.383l11.369,15.128l5.508-7.314c0.416-0.558,0.873-1.016,1.356-1.391
		c0.918-0.683,1.933-1.033,2.99-1.042c1.051,0,2.067,0.351,2.991,1.042c0.484,0.366,0.95,0.824,1.366,1.391l6.04,8.022
		L504.428,357.746z M509.241,373.465l-9.196-12.504l-0.393-0.533l-5.623-7.48l-0.008-0.017l-0.016,0.017l-6.365,8.455l-1.307,1.75
		l-2.176,2.882l-2.165-2.882l-1.316-1.75l-12.229-16.261l-0.016-0.017l-0.018,0.017l-11.545,15.353l-0.343,0.467l-9.196,12.504
		l41.494,0.008L509.241,373.465z"/>
	<path fill="#34495E" d="M508.5,322.808c3.324,0,6.34,1.349,8.522,3.532l0.008,0.008c2.183,2.183,3.533,5.19,3.533,8.514
		s-1.351,6.331-3.533,8.514l-0.008,0.008c-2.183,2.183-5.198,3.532-8.522,3.532s-6.34-1.349-8.521-3.532
		c-2.183-2.183-3.532-5.198-3.532-8.522s1.35-6.331,3.532-8.514l0.008-0.008C502.168,324.157,505.186,322.808,508.5,322.808
		 M502.727,352.364L502.727,352.364l0.084,0.108l1.533,2.032l-0.025,0.017l9.155,12.437c0.649,0.883,0.933,1.783,0.933,2.633h-0.016
		c0,0.667-0.159,1.274-0.45,1.808c-0.275,0.5-0.658,0.925-1.117,1.258c-0.75,0.55-1.724,0.858-2.698,0.858v-0.008h-23.001H443.09
		c-1.066,0-1.982-0.3-2.69-0.833c-0.491-0.35-0.874-0.816-1.149-1.357h-0.01c-0.258-0.508-0.39-1.092-0.39-1.716h-0.009
		c0-0.908,0.309-1.874,0.991-2.799l9.638-13.104l-0.008-0.017l0.883-1.166l0.108-0.15l0,0l0.017-0.017l11.912-15.844
		c0.418-0.558,0.884-1.016,1.366-1.383c0.933-0.699,1.95-1.049,3.008-1.041c1.05,0.008,2.058,0.357,2.974,1.041
		c0.482,0.367,0.941,0.833,1.357,1.383l11.379,15.128l5.499-7.322c0.416-0.559,0.874-1.017,1.366-1.383
		c0.916-0.691,1.924-1.042,2.982-1.042s2.066,0.342,2.999,1.033c0.483,0.366,0.94,0.833,1.366,1.392l6.031,8.03L502.727,352.364z"/>
	<path fill-rule="evenodd" clip-rule="evenodd" fill="#39D4FF" d="M508.5,327.198c-2.032,0-3.965,0.808-5.447,2.291l0.024-0.025
		c-1.441,1.441-2.232,3.357-2.232,5.398s0.8,3.974,2.24,5.423c1.441,1.433,3.375,2.232,5.415,2.232c2.041,0,3.975-0.8,5.456-2.283
		l-0.024,0.025c1.441-1.441,2.232-3.357,2.232-5.398s-0.791-3.957-2.208-5.373l-0.041-0.05
		C512.475,328.006,510.541,327.198,508.5,327.198 M443.59,369.108l43.534,0.008l22.468-0.008l-10.313-14.029l-6.114-8.13
		c-0.141-0.184-0.308-0.367-0.492-0.517c-0.091-0.066-0.225-0.15-0.341-0.15c-0.134,0-0.259,0.084-0.358,0.15
		c-0.191,0.15-0.35,0.333-0.491,0.517l-9.015,11.996l-14.886-19.792c-0.142-0.192-0.308-0.375-0.492-0.517
		c-0.099-0.075-0.231-0.167-0.356-0.167c-0.126,0-0.251,0.091-0.342,0.167c-0.192,0.133-0.359,0.324-0.491,0.517l-11.987,15.927
		L443.59,369.108z"/>
	<rect x="234.08" y="432.874" fill-rule="evenodd" clip-rule="evenodd" fill="#34495E" width="139.875" height="119.308"/>
	<rect x="239.953" y="438.754" fill="#22A6EF" width="128.131" height="107.546"/>
	<path opacity="0.15" d="M338.352,477.241c-1.199-1.2-2.849-1.933-4.682-1.933s-3.481,0.732-4.681,1.933
		c-1.192,1.199-1.933,2.849-1.933,4.682c0,1.815,0.74,3.481,1.94,4.665c1.191,1.199,2.849,1.949,4.673,1.949
		c1.833,0,3.482-0.75,4.682-1.932c1.192-1.201,1.924-2.85,1.924-4.683S339.544,478.44,338.352,477.241 M333.67,469.86
		c3.324,0,6.332,1.35,8.514,3.531l0.018,0.018c2.173,2.182,3.523,5.182,3.523,8.514c0,3.316-1.351,6.331-3.523,8.514l-0.018,0.017
		c-2.182,2.183-5.189,3.532-8.514,3.532c-3.332,0-6.347-1.35-8.521-3.532c-2.183-2.182-3.533-5.198-3.533-8.53
		s1.351-6.332,3.533-8.514l0.008-0.018C327.339,471.21,330.346,469.86,333.67,469.86z M327.897,499.416L327.897,499.416l0.083,0.117
		l1.525,2.033l-0.018,0.017l9.146,12.429c0.658,0.9,0.933,1.799,0.933,2.632h-0.007c0,0.667-0.168,1.283-0.459,1.816
		c-0.275,0.499-0.658,0.916-1.108,1.249c-0.759,0.566-1.724,0.866-2.698,0.866v-0.017l-23,0.017l-44.043-0.017
		c-1.059,0-1.982-0.3-2.691-0.816c-0.482-0.366-0.874-0.816-1.141-1.366h-0.018c-0.249-0.516-0.391-1.1-0.391-1.716h-0.009
		c0-0.915,0.317-1.883,1-2.799l9.63-13.111v-0.017l0.874-1.167l0.108-0.15l0,0l0.017-0.017l11.912-15.827
		c0.426-0.566,0.884-1.033,1.366-1.399c0.941-0.7,1.95-1.034,3.009-1.034c1.058,0,2.065,0.351,2.974,1.034
		c0.49,0.366,0.948,0.833,1.366,1.399l11.37,15.111l5.508-7.314c0.415-0.55,0.874-1.017,1.365-1.383
		c0.908-0.684,1.924-1.033,2.982-1.05c1.05,0,2.066,0.35,2.991,1.05c0.482,0.366,0.94,0.816,1.366,1.383l6.039,8.03L327.897,499.416
		z M332.713,515.145l-9.197-12.512l-0.385-0.533l-5.631-7.481l-0.007-0.017l-0.018,0.017l-6.365,8.464l-1.306,1.75l-2.176,2.882
		l-2.165-2.882l-1.316-1.75l-12.229-16.261l-0.018-0.017l-0.008,0.017l-11.555,15.345l-0.341,0.467l-9.198,12.512h41.495H332.713z"
		/>
	<path fill="#34495E" d="M331.971,464.479c3.324,0,6.339,1.351,8.521,3.532l0.008,0.018c2.184,2.182,3.533,5.181,3.533,8.513
		c0,3.315-1.35,6.331-3.533,8.514h-0.008c-2.183,2.183-5.197,3.533-8.521,3.533s-6.34-1.351-8.522-3.533
		c-2.182-2.183-3.531-5.182-3.531-8.514s1.35-6.331,3.531-8.513l0.009-0.018C325.641,465.829,328.656,464.479,331.971,464.479
		 M326.198,494.035L326.198,494.035l0.083,0.116l1.533,2.033l-0.025,0.016l9.146,12.43c0.658,0.899,0.942,1.783,0.942,2.632h-0.018
		c0,0.667-0.158,1.283-0.45,1.8c-0.275,0.517-0.657,0.934-1.115,1.267c-0.751,0.55-1.726,0.866-2.7,0.866v-0.017h-23.001h-44.033
		c-1.066,0-1.983-0.3-2.69-0.816c-0.492-0.366-0.876-0.833-1.149-1.366h-0.008c-0.259-0.518-0.393-1.1-0.393-1.716h-0.009
		c0-0.916,0.309-1.883,0.992-2.799l9.638-13.113l-0.008-0.016l0.883-1.167l0.107-0.149l0.018-0.017l11.911-15.846
		c0.425-0.549,0.884-1.015,1.368-1.382c0.932-0.699,1.948-1.05,3.007-1.032c1.049,0,2.057,0.35,2.966,1.032
		c0.491,0.367,0.949,0.833,1.365,1.382l11.379,15.13l5.498-7.314c0.417-0.566,0.875-1.017,1.366-1.383
		c0.917-0.7,1.925-1.05,2.982-1.05c1.059,0,2.065,0.35,3,1.05c0.482,0.35,0.94,0.816,1.366,1.383l6.029,8.03L326.198,494.035z"/>
	<path fill-rule="evenodd" clip-rule="evenodd" fill="#39D4FF" d="M331.971,468.878c-2.033,0-3.966,0.799-5.448,2.282l0.025-0.017
		c-1.44,1.433-2.232,3.349-2.232,5.397c0,2.033,0.799,3.966,2.241,5.415c1.44,1.449,3.373,2.249,5.414,2.249
		c2.042,0,3.974-0.816,5.456-2.299l-0.024,0.033c1.44-1.449,2.232-3.365,2.232-5.398c0-2.049-0.792-3.965-2.208-5.381l-0.041-0.033
		C335.944,469.677,334.013,468.878,331.971,468.878 M267.061,510.779l43.533,0.017l22.469-0.017l-10.313-14.029l-6.114-8.13
		c-0.142-0.184-0.309-0.366-0.492-0.517c-0.091-0.066-0.225-0.149-0.35-0.149c-0.124,0-0.25,0.083-0.35,0.167
		c-0.192,0.133-0.35,0.315-0.492,0.499l-9.014,11.995l-14.886-19.792c-0.143-0.184-0.309-0.367-0.491-0.518
		c-0.1-0.065-0.233-0.167-0.358-0.167s-0.249,0.102-0.341,0.167c-0.192,0.135-0.359,0.334-0.492,0.518l-11.988,15.927
		L267.061,510.779z"/>
	<rect x="410.61" y="432.874" fill-rule="evenodd" clip-rule="evenodd" fill="#34495E" width="139.875" height="119.308"/>
	<rect x="416.482" y="438.754" fill="#22A6EF" width="128.131" height="107.546"/>
	<path opacity="0.15" d="M514.881,477.241c-1.199-1.2-2.849-1.933-4.682-1.933c-1.832,0-3.481,0.732-4.682,1.933
		c-1.191,1.199-1.932,2.849-1.932,4.682c0,1.815,0.75,3.481,1.94,4.665c1.191,1.199,2.85,1.949,4.673,1.949
		c1.833,0,3.482-0.75,4.682-1.932c1.192-1.201,1.926-2.85,1.926-4.683S516.073,478.44,514.881,477.241 M510.199,469.86
		c3.324,0,6.332,1.35,8.514,3.531l0.017,0.018c2.175,2.182,3.524,5.182,3.524,8.514c0,3.316-1.35,6.331-3.524,8.514l-0.017,0.017
		c-2.182,2.183-5.189,3.532-8.514,3.532c-3.332,0-6.348-1.35-8.521-3.532c-2.184-2.182-3.532-5.198-3.532-8.53
		s1.349-6.332,3.532-8.514l0.009-0.018C503.869,471.21,506.877,469.86,510.199,469.86z M504.428,499.416L504.428,499.416
		l0.082,0.117l1.533,2.033l-0.025,0.017l9.146,12.429c0.659,0.9,0.934,1.799,0.934,2.632h-0.009c0,0.667-0.167,1.283-0.458,1.816
		c-0.274,0.499-0.658,0.916-1.107,1.249c-0.758,0.566-1.725,0.866-2.699,0.866v-0.017l-23,0.017l-44.043-0.017
		c-1.058,0-1.983-0.3-2.69-0.816c-0.484-0.366-0.875-0.816-1.15-1.366h-0.009c-0.248-0.516-0.392-1.1-0.392-1.716h-0.007
		c0-0.915,0.315-1.883,0.999-2.799l9.63-13.111v-0.017l0.875-1.167l0.108-0.15l0,0l0.017-0.017l11.92-15.827
		c0.417-0.566,0.874-1.033,1.366-1.399c0.935-0.7,1.94-1.034,2.999-1.034s2.065,0.351,2.976,1.034
		c0.491,0.366,0.948,0.833,1.366,1.399l11.369,15.111l5.508-7.314c0.416-0.55,0.873-1.017,1.356-1.383
		c0.918-0.684,1.933-1.033,2.99-1.05c1.051,0,2.067,0.35,2.991,1.05c0.484,0.366,0.95,0.816,1.366,1.383l6.04,8.03L504.428,499.416z
		 M509.241,515.145l-9.196-12.512l-0.393-0.533l-5.623-7.481l-0.008-0.017l-0.016,0.017l-6.365,8.464l-1.307,1.75l-2.176,2.882
		l-2.165-2.882l-1.316-1.75l-12.229-16.261l-0.016-0.017l-0.018,0.017l-11.545,15.345l-0.343,0.467l-9.196,12.512h41.494H509.241z"
		/>
	<path fill="#34495E" d="M508.5,464.479c3.324,0,6.34,1.351,8.522,3.532l0.008,0.018c2.183,2.182,3.533,5.181,3.533,8.513
		c0,3.315-1.351,6.331-3.533,8.514h-0.008c-2.183,2.183-5.198,3.533-8.522,3.533s-6.34-1.351-8.521-3.533
		c-2.183-2.183-3.532-5.182-3.532-8.514s1.35-6.331,3.532-8.513l0.008-0.018C502.168,465.829,505.186,464.479,508.5,464.479
		 M502.727,494.035L502.727,494.035l0.084,0.116l1.533,2.033l-0.025,0.016l9.155,12.43c0.649,0.899,0.933,1.783,0.933,2.632h-0.016
		c0,0.667-0.159,1.283-0.45,1.8c-0.275,0.517-0.658,0.934-1.117,1.267c-0.75,0.55-1.724,0.866-2.698,0.866v-0.017h-23.001H443.09
		c-1.066,0-1.982-0.3-2.69-0.816c-0.491-0.366-0.874-0.833-1.149-1.366h-0.01c-0.258-0.518-0.39-1.1-0.39-1.716h-0.009
		c0-0.916,0.309-1.883,0.991-2.799l9.638-13.113l-0.008-0.016l0.883-1.167l0.108-0.149l0.017-0.017l11.912-15.846
		c0.418-0.549,0.884-1.015,1.366-1.382c0.933-0.699,1.95-1.05,3.008-1.032c1.05,0,2.058,0.35,2.974,1.032
		c0.482,0.367,0.941,0.833,1.357,1.382l11.379,15.13l5.499-7.314c0.416-0.566,0.874-1.017,1.366-1.383
		c0.916-0.7,1.924-1.05,2.982-1.05s2.066,0.35,2.999,1.05c0.483,0.35,0.94,0.816,1.366,1.383l6.031,8.03L502.727,494.035z"/>
	<path fill-rule="evenodd" clip-rule="evenodd" fill="#39D4FF" d="M508.5,468.878c-2.032,0-3.965,0.799-5.447,2.282l0.024-0.017
		c-1.441,1.433-2.232,3.349-2.232,5.397c0,2.033,0.8,3.966,2.24,5.415c1.441,1.449,3.375,2.249,5.415,2.249
		c2.041,0,3.975-0.816,5.456-2.299l-0.024,0.033c1.441-1.449,2.232-3.365,2.232-5.398c0-2.049-0.791-3.965-2.208-5.381l-0.041-0.033
		C512.475,469.677,510.541,468.878,508.5,468.878 M443.59,510.779l43.534,0.017l22.468-0.017l-10.313-14.029l-6.114-8.13
		c-0.141-0.184-0.308-0.366-0.492-0.517c-0.091-0.066-0.225-0.149-0.341-0.149c-0.134,0-0.259,0.083-0.358,0.167
		c-0.191,0.133-0.35,0.315-0.491,0.499l-9.015,11.995l-14.886-19.792c-0.142-0.184-0.308-0.367-0.492-0.518
		c-0.099-0.065-0.231-0.167-0.356-0.167c-0.126,0-0.251,0.102-0.342,0.167c-0.192,0.135-0.359,0.334-0.491,0.518l-11.987,15.927
		L443.59,510.779z"/>
	<!-- <path fill-rule="evenodd" clip-rule="evenodd" fill="#94A4A5" d="M436.309,229.541h-3.158v0.124l5.407,8.156v5.832h2.658v-5.832
		l5.615-8.156v-0.124h-3.2l-3.739,5.831L436.309,229.541z M424.455,232.022c1.666,0,2.416,1.125,2.416,2.258
		c0,1.133-0.726,2.266-2.416,2.266h-4.041v-4.524H424.455z M430.229,243.469l-4.266-4.815c2.674-0.542,3.564-2.491,3.564-4.432
		c0-2.44-1.757-4.656-5.072-4.681c-2.233,0.025-4.465,0-6.698,0v14.111h2.657v-4.715h2.55l4.106,4.715h3.158V243.469z
		 M413.043,241.036h-7.906v-3.182h7.63v-2.474h-7.63v-3.257h7.906v-2.582h-10.539c0,4.706,0,9.421,0,14.111h10.539V241.036z
		 M388.134,229.541v14.111h9.905v-2.466h-7.247v-11.646H388.134z M373.731,229.541v14.111h9.896v-2.466h-7.238v-11.646H373.731z
		 M364.534,238.521h-5.231l2.615-6.015L364.534,238.521z M366.792,243.652h2.892l-6.315-14.111h-2.899l-6.314,14.111h2.874
		l1.208-2.666h7.364L366.792,243.652z M350.414,231.315c-1.449-1.424-3.34-2.157-5.231-2.157c-4.974,0-7.447,3.665-7.447,7.63
		c0,3.698,2.157,7.181,7.447,7.181c2.474,0,4.224-0.95,5.606-2.533v-5.931h-6.031v2.367h3.598v2.499
		c-1.098,0.883-2.073,1.125-3.173,1.125c-3.507,0-4.849-2.391-4.849-4.707c0-2.899,1.824-5.19,4.849-5.19
		c1.226,0,2.633,0.508,3.583,1.408L350.414,231.315z"/> -->
</g>
</svg>
