<?xml version="1.0" encoding="utf-8"?>
<!-- Generator: Adobe Illustrator 15.1.0, SVG Export Plug-In . SVG Version: 6.00 Build 0)  -->
<!DOCTYPE svg PUBLIC "-//W3C//DTD SVG 1.0//EN" "http://www.w3.org/TR/2001/REC-SVG-20010904/DTD/svg10.dtd">
<svg version="1.0" id="Layer_1" xmlns="http://www.w3.org/2000/svg" xmlns:xlink="http://www.w3.org/1999/xlink" x="0px" y="0px"
	 width="800px" height="800px" viewBox="187.21998596191406 209.13099670410156 420.7440185546875 377.68804931640625" enable-background="new 0 0 800 800" xml:space="preserve">
<g>
	<!-- <path fill="#BCC2C6" d="M203.415,209.131h388.346c4.466,0,8.515,1.816,11.447,4.748v0.018c2.932,2.932,4.756,6.98,4.756,11.429
		v345.299c0,4.432-1.824,8.48-4.756,11.412v0.017c-2.933,2.933-6.981,4.765-11.447,4.765H203.415c-4.466,0-8.514-1.832-11.446-4.765
		v-0.017c-2.934-2.932-4.748-6.98-4.748-11.412V225.326c0-4.449,1.814-8.497,4.748-11.429v-0.018
		C194.901,210.947,198.949,209.131,203.415,209.131"/>
	<path fill="#EBEFF0" d="M602.091,225.326v345.299c0,6.497-4.531,10.313-10.33,10.313H203.415c-5.781,0-10.32-3.716-10.32-10.313
		V225.326c0-6.732,4.556-10.321,10.32-10.321h388.346C597.543,215.004,602.091,218.711,602.091,225.326"/> -->
	<path fill="#BCC2C6" d="M201.282,256.564h392.62c3.874,0,7.39,1.583,9.938,4.124c2.54,2.549,4.123,6.064,4.123,9.938v302.131
		c0,3.865-1.583,7.38-4.123,9.93c-2.549,2.549-6.064,4.131-9.938,4.131h-392.62c-3.875,0-7.389-1.582-9.938-4.131
		c-2.541-2.55-4.124-6.064-4.124-9.93V270.626c0-3.874,1.583-7.389,4.124-9.938C193.894,258.147,197.407,256.564,201.282,256.564"/>
	<path fill-rule="evenodd" clip-rule="evenodd" fill="#FFFFFF" d="M201.282,262.446c-2.184,0-4.248,0.866-5.781,2.399
		c-1.541,1.541-2.406,3.607-2.406,5.782v302.131c0,2.165,0.865,4.232,2.406,5.78c1.533,1.533,3.598,2.4,5.781,2.4h392.62
		c2.175,0,4.239-0.867,5.773-2.4c1.54-1.548,2.415-3.6,2.415-5.78V270.626c0-2.183-0.875-4.241-2.415-5.782
		c-1.534-1.533-3.599-2.399-5.773-2.399H201.282z"/>
	<!-- <path fill-rule="evenodd" clip-rule="evenodd" fill="#94A4A5" d="M543.379,229.083c4.132,0,7.48,3.356,7.48,7.489
		c0,4.132-3.349,7.48-7.48,7.48c-4.133,0-7.481-3.349-7.481-7.48C535.897,232.439,539.246,229.083,543.379,229.083 M566.878,229.083
		c4.132,0,7.49,3.356,7.49,7.489c0,4.132-3.358,7.48-7.49,7.48c-4.139,0-7.488-3.349-7.488-7.48
		C559.39,232.439,562.747,229.083,566.878,229.083z M519.87,229.083c4.132,0,7.48,3.356,7.48,7.489c0,4.132-3.349,7.48-7.48,7.48
		c-4.131,0-7.48-3.349-7.48-7.48C512.39,232.439,515.739,229.083,519.87,229.083z"/> -->
	<rect x="229.355" y="299.258" fill-rule="evenodd" clip-rule="evenodd" fill="#34495E" width="336.465" height="161.223"/>
	<rect x="235.003" y="304.914" fill="#22A6EF" width="325.169" height="149.902"/>
	<path opacity="0.15" d="M458.941,355.413c-2.083-2.083-4.974-3.366-8.163-3.366c-3.183,0-6.073,1.283-8.156,3.366
		c-2.082,2.083-3.373,4.965-3.373,8.164c0,3.183,1.3,6.065,3.381,8.147c2.084,2.083,4.966,3.374,8.148,3.374
		c3.189,0,6.08-1.283,8.163-3.365s3.365-4.973,3.365-8.156C462.307,360.378,461.024,357.496,458.941,355.413 M450.778,342.551
		c5.797,0,11.045,2.349,14.844,6.156l0.025,0.018c3.808,3.807,6.156,9.055,6.156,14.853c0,5.79-2.349,11.046-6.156,14.845
		l-0.025,0.017c-3.799,3.807-9.047,6.165-14.844,6.165c-5.798,0-11.063-2.358-14.861-6.165c-3.808-3.798-6.164-9.063-6.164-14.861
		c0-5.797,2.348-11.046,6.164-14.853l0.016-0.018C439.731,344.9,444.988,342.551,450.778,342.551z M440.715,394.091v-0.008
		l0.142,0.2l2.665,3.549l-0.042,0.025l15.962,21.688c1.141,1.549,1.625,3.115,1.625,4.598h-0.025
		c0.008,1.167-0.283,2.216-0.782,3.149c-0.484,0.866-1.15,1.616-1.95,2.183c-1.3,0.966-2.999,1.499-4.698,1.499v-0.017
		l-40.104,0.017l-76.806-0.017c-1.85,0-3.458-0.517-4.689-1.433c-0.859-0.633-1.532-1.432-2.008-2.383h-0.017
		c-0.45-0.899-0.684-1.899-0.684-2.982h-0.017c0-1.582,0.55-3.282,1.733-4.894l16.811-22.85l-0.017-0.034l1.533-2.033l0.19-0.25
		h0.009l0.032-0.042l20.776-27.616c0.733-0.983,1.533-1.791,2.375-2.424c1.624-1.225,3.406-1.824,5.239-1.808
		c1.842,0,3.6,0.617,5.182,1.816c0.858,0.634,1.658,1.441,2.383,2.416l19.843,26.366l9.597-12.754
		c0.716-0.974,1.517-1.782,2.366-2.416c1.6-1.2,3.365-1.816,5.215-1.816c1.832-0.008,3.599,0.592,5.215,1.808
		c0.851,0.642,1.649,1.441,2.382,2.424l10.53,13.995L440.715,394.091z M449.112,421.511l-16.045-21.822l-0.667-0.916l-9.813-13.045
		l-0.033-0.034l-0.018,0.034l-11.096,14.736l-2.283,3.049l-3.781,5.032l-3.79-5.032l-2.291-3.049l-21.326-28.349l-0.032-0.033
		l-0.018,0.033l-20.144,26.774l-0.6,0.808l-16.027,21.813h72.357H449.112z"/>
	<path fill="#34495E" d="M447.82,335.637c5.79,0,11.047,2.357,14.853,6.165l0.019,0.017c3.798,3.798,6.164,9.055,6.164,14.845
		c0,5.798-2.366,11.046-6.164,14.853l-0.019,0.017c-3.806,3.807-9.063,6.156-14.853,6.156c-5.807,0-11.063-2.349-14.869-6.156
		c-3.798-3.807-6.148-9.063-6.148-14.87c0-5.79,2.351-11.046,6.148-14.845l0.016-0.017
		C436.782,337.994,442.03,335.637,447.82,335.637 M437.75,387.186h0.008l0.142,0.191l2.666,3.54l-0.034,0.034l15.952,21.684
		c1.142,1.557,1.625,3.124,1.625,4.598h-0.017c0,1.158-0.283,2.225-0.791,3.146c-0.476,0.882-1.149,1.616-1.941,2.199
		c-1.316,0.966-3,1.499-4.698,1.499v-0.017l-40.12,0.017l-76.798-0.017c-1.849-0.017-3.456-0.533-4.689-1.449
		c-0.849-0.616-1.533-1.416-2.008-2.366h-0.017c-0.442-0.903-0.674-1.912-0.674-3.004h-0.017c0-1.582,0.541-3.265,1.732-4.881
		l16.803-22.85l-0.01-0.025l1.533-2.049l0.185-0.25v0.008l0.033-0.042l20.775-27.623c0.732-0.975,1.532-1.783,2.382-2.417
		c1.634-1.225,3.399-1.824,5.24-1.816s3.591,0.616,5.182,1.816c0.858,0.642,1.657,1.45,2.383,2.417l19.834,26.374l9.598-12.762
		c0.731-0.966,1.532-1.775,2.382-2.416c1.592-1.199,3.356-1.808,5.197-1.816c1.834,0,3.608,0.6,5.225,1.816
		c0.849,0.633,1.649,1.441,2.382,2.416l10.529,13.995L437.75,387.186z"/>
	<path fill-rule="evenodd" clip-rule="evenodd" fill="#39D4FF" d="M447.82,341.035c4.157,0,8.105,1.633,11.038,4.582l0.017,0.017
		c2.948,2.933,4.582,6.873,4.582,11.03c0,4.165-1.634,8.097-4.582,11.038l-0.017,0.017c-2.94,2.941-6.881,4.582-11.038,4.582
		c-4.156,0-8.104-1.641-11.054-4.582c-2.941-2.94-4.574-6.889-4.574-11.054c0-4.157,1.641-8.097,4.574-11.03l0.016-0.017
		C439.731,342.667,443.664,341.035,447.82,341.035"/>
	<path fill-rule="evenodd" clip-rule="evenodd" fill="#39D4FF" d="M402.411,394.874l13.911-18.485
		c0.367-0.499,0.801-0.975,1.301-1.35c0.599-0.45,1.232-0.733,1.982-0.733s1.383,0.292,1.966,0.733
		c0.5,0.367,0.934,0.851,1.316,1.35l10.663,14.179l18.593,25.266c0.2,0.292,0.417,0.642,0.517,0.992l0.034,0.133v0.433l-0.034,0.143
		c-0.083,0.283-0.267,0.523-0.499,0.69c-0.317,0.233-0.717,0.367-1.1,0.426l-0.075,0.009l-40.445,0.016l-76.798-0.016
		c-0.49,0-1.091-0.084-1.49-0.384l-0.217-0.158l-0.291-0.608v-0.541l0.023-0.117c0.102-0.45,0.367-0.924,0.65-1.292l18.36-24.982
		l20.927-27.799c0.375-0.5,0.808-0.983,1.307-1.349c0.593-0.45,1.225-0.733,1.976-0.733c0.75,0,1.382,0.292,1.974,0.733
		c0.5,0.375,0.925,0.849,1.308,1.349L402.411,394.874z"/>
	<path fill-rule="evenodd" clip-rule="evenodd" fill="#34495E" d="M512.59,496.852h52.031v52.03H512.59V496.852z M418.58,496.852
		h52.033v52.03H418.58V496.852z M324.571,496.852h52.032v52.03h-52.032V496.852z M230.556,496.852h52.031v52.03h-52.031V496.852z"/>
	<rect x="235.637" y="501.932" fill="#22A6EF" width="41.868" height="41.853"/>
	<rect x="329.653" y="501.932" fill="#22A6EF" width="41.853" height="41.853"/>
	<rect x="423.671" y="501.932" fill="#22A6EF" width="41.853" height="41.853"/>
	<rect x="517.68" y="501.932" fill="#22A6EF" width="41.86" height="41.853"/>
	<!-- <path fill-rule="evenodd" clip-rule="evenodd" fill="#94A4A5" d="M441.614,229.541h-3.157v0.124l5.406,8.156v5.832h2.665v-5.832
		l5.607-8.156v-0.124h-3.198l-3.741,5.831L441.614,229.541z M429.769,232.022c1.667,0,2.408,1.125,2.408,2.258
		c0,1.133-0.726,2.266-2.408,2.266h-4.049v-4.524H429.769z M435.534,243.469l-4.267-4.815c2.683-0.542,3.565-2.491,3.565-4.432
		c0-2.44-1.749-4.656-5.064-4.681c-2.24,0.025-4.465,0-6.705,0v14.111h2.656v-4.715h2.549l4.106,4.715h3.159V243.469z
		 M418.355,241.036h-7.905v-3.182h7.623v-2.474h-7.623v-3.257h7.905v-2.582H407.81c0,4.706,0,9.421,0,14.111h10.546V241.036z
		 M393.448,229.541v14.111h9.896v-2.466h-7.248v-11.646H393.448z M379.036,229.541v14.111h9.896v-2.466h-7.239v-11.646H379.036z
		 M369.839,238.521h-5.222l2.607-6.015L369.839,238.521z M372.097,243.652h2.898l-6.322-14.111h-2.897l-6.316,14.111h2.882
		l1.21-2.666h7.354L372.097,243.652z M355.721,231.315c-1.451-1.424-3.341-2.157-5.233-2.157c-4.973,0-7.438,3.665-7.438,7.63
		c0,3.698,2.149,7.181,7.438,7.181c2.476,0,4.225-0.95,5.615-2.533v-5.931h-6.04v2.367h3.6v2.499
		c-1.101,0.883-2.065,1.125-3.175,1.125c-3.499,0-4.848-2.391-4.848-4.707c0-2.899,1.833-5.19,4.848-5.19
		c1.225,0,2.642,0.508,3.584,1.408L355.721,231.315z"/> -->
</g>
</svg>
