<?xml version="1.0" encoding="utf-8"?>
<!-- Generator: Adobe Illustrator 15.1.0, SVG Export Plug-In . SVG Version: 6.00 Build 0)  -->
<!DOCTYPE svg PUBLIC "-//W3C//DTD SVG 1.0//EN" "http://www.w3.org/TR/2001/REC-SVG-20010904/DTD/svg10.dtd">
<svg version="1.0" id="Layer_1" xmlns="http://www.w3.org/2000/svg" xmlns:xlink="http://www.w3.org/1999/xlink" x="0px" y="0px"
	 width="800px" height="800px" viewBox="189.37498474121094 209.13099670410156 420.75299072265625 377.68804931640625" enable-background="new 0 0 800 800" xml:space="preserve">
<g>
	<!-- <path fill="#BCC2C6" d="M205.576,209.131h388.347c4.457,0,8.514,1.816,11.447,4.748v0.018c2.932,2.932,4.757,6.98,4.757,11.429
		v345.299c0,4.432-1.825,8.48-4.757,11.412v0.017c-2.934,2.933-6.99,4.765-11.447,4.765H205.576c-4.464,0-8.513-1.832-11.445-4.765
		v-0.017c-2.933-2.932-4.756-6.98-4.756-11.412V225.326c0-4.449,1.823-8.497,4.756-11.429v-0.018
		C197.063,210.947,201.112,209.131,205.576,209.131"/>
	<path fill="#EBEFF0" d="M604.245,225.326v345.299c0,6.497-4.532,10.313-10.322,10.313H205.576c-5.78,0-10.321-3.716-10.321-10.313
		V225.326c0-6.732,4.557-10.321,10.321-10.321h388.347C599.704,215.004,604.245,218.711,604.245,225.326"/> -->
	<path fill="#34495E" d="M203.437,256.564h392.627c3.875,0,7.39,1.583,9.931,4.124c2.549,2.549,4.133,6.064,4.133,9.938v302.131
		c0,3.865-1.584,7.38-4.133,9.93c-2.541,2.549-6.056,4.131-9.931,4.131H203.437c-3.865,0-7.39-1.582-9.93-4.131
		c-2.551-2.55-4.132-6.064-4.132-9.93V270.626c0-3.874,1.581-7.389,4.132-9.938C196.047,258.147,199.571,256.564,203.437,256.564"/>
	<path fill-rule="evenodd" clip-rule="evenodd" fill="#FFFFFF" d="M203.437,262.446c-2.174,0-4.24,0.866-5.782,2.399
		c-1.533,1.541-2.408,3.607-2.408,5.782v302.131c0,2.165,0.875,4.232,2.408,5.78c1.542,1.533,3.608,2.4,5.782,2.4h392.627
		c2.176,0,4.24-0.867,5.773-2.4c1.541-1.548,2.408-3.6,2.408-5.78V270.626c0-2.183-0.867-4.241-2.408-5.782
		c-1.533-1.533-3.606-2.399-5.773-2.399H203.437z"/>
	<!-- <path fill-rule="evenodd" clip-rule="evenodd" fill="#94A4A5" d="M545.532,229.083c4.132,0,7.489,3.356,7.489,7.489
		c0,4.132-3.35,7.48-7.489,7.48c-4.132,0-7.48-3.349-7.48-7.48C538.052,232.439,541.4,229.083,545.532,229.083 M569.041,229.083
		c4.132,0,7.48,3.356,7.48,7.489c0,4.132-3.349,7.48-7.48,7.48s-7.489-3.349-7.489-7.48
		C561.552,232.439,564.909,229.083,569.041,229.083z M522.033,229.083c4.131,0,7.479,3.356,7.479,7.489
		c0,4.132-3.349,7.48-7.479,7.48c-4.133,0-7.49-3.349-7.49-7.48C514.543,232.439,517.9,229.083,522.033,229.083z"/> -->
	<rect x="241.547" y="291.202" fill-rule="evenodd" clip-rule="evenodd" fill="#34495E" width="139.877" height="119.3"/>
	<rect x="247.42" y="297.083" fill="#22A6EF" width="128.13" height="107.545"/>
	<path opacity="0.15" d="M345.819,335.57c-1.2-1.199-2.849-1.933-4.683-1.933c-1.832,0-3.481,0.733-4.681,1.933
		c-1.192,1.191-1.924,2.849-1.924,4.682c0,1.816,0.731,3.474,1.932,4.665c1.191,1.2,2.85,1.941,4.673,1.941
		c1.834,0,3.482-0.742,4.683-1.933c1.191-1.191,1.924-2.849,1.924-4.674C347.743,338.419,347.011,336.761,345.819,335.57
		 M341.137,328.189c3.323,0,6.332,1.35,8.514,3.533l0.009,0.008c2.183,2.183,3.533,5.19,3.533,8.522
		c0,3.315-1.351,6.331-3.533,8.514h-0.009c-2.182,2.191-5.19,3.54-8.514,3.54c-3.332,0-6.339-1.358-8.521-3.54
		c-2.183-2.174-3.532-5.19-3.532-8.514c0-3.332,1.35-6.339,3.532-8.522l0.008-0.008
		C334.806,329.539,337.813,328.189,341.137,328.189z M335.364,357.746L335.364,357.746l0.084,0.108l1.524,2.041l-0.018,0.017
		l9.147,12.429c0.658,0.891,0.934,1.791,0.934,2.633h-0.008c0,0.666-0.168,1.282-0.459,1.807c-0.275,0.5-0.658,0.925-1.108,1.258
		c-0.759,0.55-1.724,0.858-2.699,0.858v-0.008l-23,0.008l-44.043-0.008c-1.058,0-1.975-0.3-2.69-0.825
		c-0.483-0.357-0.875-0.825-1.143-1.366h-0.016c-0.258-0.507-0.392-1.091-0.392-1.708h-0.008c0-0.916,0.315-1.883,0.999-2.807
		l9.639-13.104l-0.018-0.017l0.885-1.166l0.107-0.15l0,0l0.017-0.017l11.921-15.845c0.416-0.55,0.875-1.016,1.366-1.383
		c0.924-0.7,1.949-1.041,2.999-1.033c1.059,0,2.058,0.35,2.975,1.033c0.481,0.367,0.948,0.833,1.365,1.383l11.371,15.128
		l5.506-7.314c0.418-0.558,0.875-1.016,1.358-1.391c0.917-0.683,1.933-1.033,2.991-1.042c1.049,0,2.066,0.351,2.989,1.042
		c0.483,0.366,0.941,0.824,1.366,1.391l6.041,8.022L335.364,357.746z M340.18,373.465l-9.197-12.504l-0.392-0.533l-5.622-7.48
		l-0.017-0.017l-0.009,0.017l-6.364,8.455l-1.309,1.75l-2.174,2.882l-2.166-2.882l-1.316-1.75l-12.229-16.261l-0.017-0.017
		l-0.009,0.017l-11.555,15.353l-0.341,0.467l-9.188,12.504l41.485,0.008L340.18,373.465z"/>
	<path fill="#34495E" d="M339.438,322.808c3.323,0,6.339,1.349,8.522,3.532l0.007,0.008c2.183,2.183,3.533,5.19,3.533,8.514
		s-1.351,6.331-3.533,8.514l-0.007,0.008c-2.184,2.183-5.199,3.532-8.522,3.532c-3.324,0-6.34-1.349-8.521-3.532
		c-2.184-2.183-3.532-5.198-3.532-8.522s1.349-6.331,3.532-8.514l0.008-0.008C333.106,324.157,336.122,322.808,339.438,322.808
		 M333.665,352.364L333.665,352.364l0.084,0.108l1.532,2.032l-0.025,0.017l9.155,12.437c0.65,0.883,0.926,1.783,0.926,2.633h-0.01
		c0,0.667-0.166,1.274-0.449,1.808c-0.274,0.5-0.658,0.925-1.117,1.258c-0.749,0.55-1.725,0.858-2.698,0.858v-0.008h-23.001h-44.034
		c-1.065,0-1.982-0.3-2.69-0.833c-0.491-0.35-0.884-0.816-1.148-1.357h-0.01c-0.258-0.508-0.392-1.092-0.392-1.716h-0.008
		c0-0.908,0.308-1.874,0.991-2.799l9.638-13.104l-0.008-0.017l0.884-1.166l0.099-0.15h0.009l0.017-0.017l11.913-15.844
		c0.424-0.558,0.883-1.016,1.366-1.383c0.933-0.699,1.949-1.049,3.007-1.041c1.049,0.008,2.058,0.357,2.965,1.041
		c0.492,0.367,0.95,0.833,1.366,1.383l11.372,15.128l5.506-7.322c0.417-0.559,0.875-1.017,1.366-1.383
		c0.917-0.691,1.925-1.042,2.982-1.042c1.05,0,2.065,0.342,2.991,1.033c0.49,0.366,0.949,0.833,1.365,1.392l6.04,8.03
		L333.665,352.364z"/>
	<path fill-rule="evenodd" clip-rule="evenodd" fill="#39D4FF" d="M339.438,327.198c-2.033,0-3.965,0.808-5.449,2.291l0.026-0.025
		c-1.44,1.441-2.233,3.357-2.233,5.398s0.801,3.974,2.241,5.423c1.441,1.433,3.373,2.232,5.415,2.232c2.039,0,3.965-0.8,5.456-2.283
		l-0.024,0.025c1.44-1.441,2.232-3.357,2.232-5.398s-0.792-3.957-2.208-5.373l-0.05-0.05
		C343.403,328.006,341.478,327.198,339.438,327.198 M274.526,369.108l43.535,0.008l22.476-0.008l-10.321-14.029l-6.114-8.13
		c-0.142-0.184-0.308-0.367-0.491-0.517c-0.091-0.066-0.226-0.15-0.35-0.15c-0.125,0-0.258,0.084-0.35,0.15
		c-0.192,0.15-0.359,0.333-0.492,0.517l-9.021,11.996l-14.879-19.792c-0.142-0.192-0.309-0.375-0.49-0.517
		c-0.102-0.075-0.233-0.167-0.359-0.167c-0.116,0-0.249,0.091-0.342,0.167c-0.189,0.133-0.357,0.324-0.492,0.517l-11.986,15.927
		L274.526,369.108z"/>
	<rect x="418.077" y="291.202" fill-rule="evenodd" clip-rule="evenodd" fill="#34495E" width="139.876" height="119.3"/>
	<rect x="423.949" y="297.083" fill="#22A6EF" width="128.13" height="107.545"/>
	<path opacity="0.15" d="M522.349,335.57c-1.199-1.199-2.849-1.933-4.682-1.933c-1.832,0-3.482,0.733-4.682,1.933
		c-1.191,1.191-1.924,2.849-1.924,4.682c0,1.816,0.732,3.474,1.932,4.665c1.191,1.2,2.85,1.941,4.674,1.941
		c1.833,0,3.482-0.742,4.682-1.933c1.191-1.191,1.925-2.849,1.925-4.674C524.273,338.419,523.54,336.761,522.349,335.57
		 M517.667,328.189c3.323,0,6.331,1.35,8.514,3.533l0.009,0.008c2.183,2.183,3.531,5.19,3.531,8.522
		c0,3.315-1.349,6.331-3.531,8.514h-0.009c-2.183,2.191-5.19,3.54-8.514,3.54c-3.333,0-6.348-1.358-8.521-3.54
		c-2.183-2.174-3.533-5.19-3.533-8.514c0-3.332,1.351-6.339,3.533-8.522l0.008-0.008
		C511.335,329.539,514.342,328.189,517.667,328.189z M511.894,357.746L511.894,357.746l0.085,0.108l1.523,2.041l-0.017,0.017
		l9.146,12.429c0.658,0.891,0.932,1.791,0.932,2.633h-0.006c0,0.666-0.167,1.282-0.458,1.807c-0.276,0.5-0.659,0.925-1.109,1.258
		c-0.758,0.55-1.724,0.858-2.698,0.858v-0.008l-23.001,0.008l-44.043-0.008c-1.058,0-1.982-0.3-2.69-0.825
		c-0.483-0.357-0.875-0.825-1.141-1.366h-0.018c-0.258-0.507-0.392-1.091-0.392-1.708h-0.009c0-0.916,0.317-1.883,1-2.807
		l9.639-13.104l-0.017-0.017l0.884-1.166l0.107-0.15l0,0l0.018-0.017l11.92-15.845c0.418-0.55,0.875-1.016,1.366-1.383
		c0.925-0.7,1.941-1.041,3-1.033c1.058,0,2.056,0.35,2.972,1.033c0.484,0.367,0.951,0.833,1.366,1.383l11.372,15.128l5.507-7.314
		c0.416-0.558,0.874-1.016,1.357-1.391c0.917-0.683,1.934-1.033,2.991-1.042c1.05,0,2.064,0.351,2.99,1.042
		c0.484,0.366,0.941,0.824,1.365,1.391l6.041,8.022L511.894,357.746z M516.71,373.465l-9.198-12.504l-0.391-0.533l-5.624-7.48
		l-0.016-0.017l-0.009,0.017l-6.364,8.455l-1.309,1.75l-2.174,2.882l-2.166-2.882l-1.315-1.75l-12.229-16.261l-0.019-0.017
		l-0.008,0.017l-11.554,15.353l-0.342,0.467l-9.196,12.504l41.493,0.008L516.71,373.465z"/>
	<path fill="#34495E" d="M515.967,322.808c3.325,0,6.341,1.349,8.522,3.532l0.009,0.008c2.183,2.183,3.531,5.19,3.531,8.514
		s-1.349,6.331-3.531,8.514l-0.009,0.008c-2.182,2.183-5.197,3.532-8.522,3.532c-3.323,0-6.339-1.349-8.521-3.532
		c-2.184-2.183-3.532-5.198-3.532-8.522s1.349-6.331,3.532-8.514l0.008-0.008C509.636,324.157,512.644,322.808,515.967,322.808
		 M510.194,352.364h0.008l0.076,0.108l1.532,2.032l-0.024,0.017l9.155,12.437c0.649,0.883,0.925,1.783,0.925,2.633h-0.01
		c0,0.667-0.166,1.274-0.448,1.808c-0.284,0.5-0.659,0.925-1.117,1.258c-0.75,0.55-1.724,0.858-2.699,0.858v-0.008h-23h-44.035
		c-1.066,0-1.981-0.3-2.69-0.833c-0.49-0.35-0.875-0.816-1.149-1.357h-0.008c-0.259-0.508-0.393-1.092-0.393-1.716h-0.016
		c0-0.908,0.316-1.874,0.999-2.799l9.639-13.104l-0.009-0.017l0.884-1.166l0.1-0.15h0.008l0.018-0.017l11.912-15.844
		c0.425-0.558,0.883-1.016,1.366-1.383c0.933-0.699,1.949-1.049,3.007-1.041c1.05,0.008,2.059,0.357,2.966,1.041
		c0.491,0.367,0.949,0.833,1.366,1.383l11.379,15.128l5.499-7.322c0.417-0.559,0.874-1.017,1.366-1.383
		c0.915-0.691,1.924-1.042,2.982-1.042c1.049,0,2.065,0.342,2.99,1.033c0.491,0.366,0.949,0.833,1.365,1.392l6.04,8.03
		L510.194,352.364z"/>
	<path fill-rule="evenodd" clip-rule="evenodd" fill="#39D4FF" d="M515.967,327.198c-2.031,0-3.965,0.808-5.446,2.291l0.023-0.025
		c-1.441,1.441-2.232,3.357-2.232,5.398s0.801,3.974,2.241,5.423c1.441,1.433,3.374,2.232,5.414,2.232
		c2.042,0,3.966-0.8,5.458-2.283l-0.025,0.025c1.441-1.441,2.231-3.357,2.231-5.398s-0.79-3.957-2.206-5.373l-0.051-0.05
		C519.933,328.006,518.009,327.198,515.967,327.198 M451.057,369.108l43.535,0.008l22.476-0.008l-10.322-14.029l-6.113-8.13
		c-0.144-0.184-0.309-0.367-0.492-0.517c-0.092-0.066-0.226-0.15-0.35-0.15c-0.125,0-0.258,0.084-0.35,0.15
		c-0.191,0.15-0.351,0.333-0.491,0.517l-9.015,11.996l-14.887-19.792c-0.141-0.192-0.307-0.375-0.49-0.517
		c-0.1-0.075-0.234-0.167-0.359-0.167c-0.124,0-0.248,0.091-0.342,0.167c-0.191,0.133-0.357,0.324-0.49,0.517l-11.987,15.927
		L451.057,369.108z"/>
	<rect x="241.547" y="432.874" fill-rule="evenodd" clip-rule="evenodd" fill="#34495E" width="139.877" height="119.308"/>
	<rect x="247.42" y="438.754" fill="#22A6EF" width="128.13" height="107.546"/>
	<path opacity="0.15" d="M345.819,477.241c-1.2-1.2-2.849-1.933-4.683-1.933c-1.832,0-3.481,0.732-4.681,1.933
		c-1.192,1.199-1.924,2.849-1.924,4.682c0,1.815,0.731,3.481,1.932,4.665c1.191,1.199,2.85,1.949,4.673,1.949
		c1.834,0,3.482-0.75,4.683-1.932c1.191-1.201,1.924-2.85,1.924-4.683S347.011,478.44,345.819,477.241 M341.137,469.86
		c3.323,0,6.332,1.35,8.514,3.531l0.009,0.018c2.183,2.182,3.533,5.182,3.533,8.514c0,3.316-1.351,6.331-3.533,8.514l-0.009,0.017
		c-2.182,2.183-5.19,3.532-8.514,3.532c-3.332,0-6.339-1.35-8.521-3.532c-2.183-2.182-3.532-5.198-3.532-8.53
		s1.35-6.332,3.532-8.514l0.008-0.018C334.806,471.21,337.813,469.86,341.137,469.86z M335.364,499.416L335.364,499.416l0.084,0.117
		l1.524,2.033l-0.018,0.017l9.147,12.429c0.658,0.9,0.934,1.799,0.934,2.632h-0.008c0,0.667-0.168,1.283-0.459,1.816
		c-0.275,0.499-0.658,0.916-1.108,1.249c-0.759,0.566-1.724,0.866-2.699,0.866v-0.017l-23,0.017l-44.043-0.017
		c-1.058,0-1.975-0.3-2.69-0.816c-0.483-0.366-0.875-0.816-1.143-1.366h-0.016c-0.258-0.516-0.392-1.1-0.392-1.716h-0.008
		c0-0.915,0.315-1.883,0.999-2.799l9.639-13.111l-0.018-0.017l0.885-1.167l0.107-0.15l0,0l0.017-0.017l11.921-15.827
		c0.416-0.566,0.875-1.033,1.366-1.399c0.924-0.7,1.949-1.034,2.999-1.034c1.059,0,2.058,0.351,2.975,1.034
		c0.481,0.366,0.948,0.833,1.365,1.399l11.371,15.111l5.506-7.314c0.418-0.55,0.875-1.017,1.358-1.383
		c0.917-0.684,1.933-1.033,2.991-1.05c1.049,0,2.066,0.35,2.989,1.05c0.483,0.366,0.941,0.816,1.366,1.383l6.041,8.03
		L335.364,499.416z M340.18,515.145l-9.197-12.512l-0.392-0.533l-5.622-7.481l-0.017-0.017l-0.009,0.017l-6.364,8.464l-1.309,1.75
		l-2.174,2.882l-2.166-2.882l-1.316-1.75l-12.229-16.261l-0.017-0.017l-0.009,0.017l-11.555,15.345l-0.341,0.467l-9.188,12.512
		h41.485H340.18z"/>
	<path fill="#34495E" d="M339.438,464.479c3.323,0,6.339,1.351,8.522,3.532l0.007,0.018c2.183,2.182,3.533,5.181,3.533,8.513
		c0,3.315-1.351,6.331-3.533,8.514h-0.007c-2.184,2.183-5.199,3.533-8.522,3.533c-3.324,0-6.34-1.351-8.521-3.533
		c-2.184-2.183-3.532-5.182-3.532-8.514s1.349-6.331,3.532-8.513l0.008-0.018C333.106,465.829,336.122,464.479,339.438,464.479
		 M333.665,494.035L333.665,494.035l0.084,0.116l1.532,2.033l-0.025,0.016l9.155,12.43c0.65,0.899,0.926,1.783,0.926,2.632h-0.01
		c0,0.667-0.166,1.283-0.449,1.8c-0.274,0.517-0.658,0.934-1.117,1.267c-0.749,0.55-1.725,0.866-2.698,0.866v-0.017h-23.001h-44.034
		c-1.065,0-1.982-0.3-2.69-0.816c-0.491-0.366-0.884-0.833-1.148-1.366h-0.01c-0.258-0.518-0.392-1.1-0.392-1.716h-0.008
		c0-0.916,0.308-1.883,0.991-2.799l9.638-13.113l-0.008-0.016l0.884-1.167l0.099-0.149h0.009l0.017-0.017l11.913-15.846
		c0.424-0.549,0.883-1.015,1.366-1.382c0.933-0.699,1.949-1.05,3.007-1.032c1.049,0,2.058,0.35,2.965,1.032
		c0.492,0.367,0.95,0.833,1.366,1.382l11.372,15.13l5.506-7.314c0.417-0.566,0.875-1.017,1.366-1.383
		c0.917-0.7,1.925-1.05,2.982-1.05c1.05,0,2.065,0.35,2.991,1.05c0.49,0.35,0.949,0.816,1.365,1.383l6.04,8.03L333.665,494.035z"/>
	<path fill-rule="evenodd" clip-rule="evenodd" fill="#39D4FF" d="M339.438,468.878c-2.033,0-3.965,0.799-5.449,2.282l0.026-0.017
		c-1.44,1.433-2.233,3.349-2.233,5.397c0,2.033,0.801,3.966,2.241,5.415c1.441,1.449,3.373,2.249,5.415,2.249
		c2.039,0,3.965-0.816,5.456-2.299l-0.024,0.033c1.44-1.449,2.232-3.365,2.232-5.398c0-2.049-0.792-3.965-2.208-5.381l-0.05-0.033
		C343.403,469.677,341.478,468.878,339.438,468.878 M274.526,510.779l43.535,0.017l22.476-0.017l-10.321-14.029l-6.114-8.13
		c-0.142-0.184-0.308-0.366-0.491-0.517c-0.091-0.066-0.226-0.149-0.35-0.149c-0.125,0-0.258,0.083-0.35,0.167
		c-0.192,0.133-0.359,0.315-0.492,0.499l-9.021,11.995l-14.879-19.792c-0.142-0.184-0.309-0.367-0.49-0.518
		c-0.102-0.065-0.233-0.167-0.359-0.167c-0.116,0-0.249,0.102-0.342,0.167c-0.189,0.135-0.357,0.334-0.492,0.518l-11.986,15.927
		L274.526,510.779z"/>
	<rect x="418.077" y="432.874" fill-rule="evenodd" clip-rule="evenodd" fill="#34495E" width="139.876" height="119.308"/>
	<rect x="423.949" y="438.754" fill="#22A6EF" width="128.13" height="107.546"/>
	<path opacity="0.15" d="M522.349,477.241c-1.199-1.2-2.849-1.933-4.682-1.933c-1.832,0-3.482,0.732-4.682,1.933
		c-1.191,1.199-1.924,2.849-1.924,4.682c0,1.815,0.732,3.481,1.932,4.665c1.191,1.199,2.85,1.949,4.674,1.949
		c1.833,0,3.482-0.75,4.682-1.932c1.191-1.201,1.925-2.85,1.925-4.683S523.54,478.44,522.349,477.241 M517.667,469.86
		c3.323,0,6.331,1.35,8.514,3.531l0.009,0.018c2.183,2.182,3.531,5.182,3.531,8.514c0,3.316-1.349,6.331-3.531,8.514l-0.009,0.017
		c-2.183,2.183-5.19,3.532-8.514,3.532c-3.333,0-6.348-1.35-8.521-3.532c-2.183-2.182-3.533-5.198-3.533-8.53
		s1.351-6.332,3.533-8.514l0.008-0.018C511.335,471.21,514.342,469.86,517.667,469.86z M511.894,499.416L511.894,499.416
		l0.085,0.117l1.523,2.033l-0.017,0.017l9.146,12.429c0.658,0.9,0.932,1.799,0.932,2.632h-0.006c0,0.667-0.167,1.283-0.458,1.816
		c-0.276,0.499-0.659,0.916-1.109,1.249c-0.758,0.566-1.724,0.866-2.698,0.866v-0.017l-23.001,0.017l-44.043-0.017
		c-1.058,0-1.982-0.3-2.69-0.816c-0.483-0.366-0.875-0.816-1.141-1.366h-0.018c-0.258-0.516-0.392-1.1-0.392-1.716h-0.009
		c0-0.915,0.317-1.883,1-2.799l9.639-13.111l-0.017-0.017l0.884-1.167l0.107-0.15l0,0l0.018-0.017l11.92-15.827
		c0.418-0.566,0.875-1.033,1.366-1.399c0.925-0.7,1.941-1.034,3-1.034c1.058,0,2.056,0.351,2.972,1.034
		c0.484,0.366,0.951,0.833,1.366,1.399l11.372,15.111l5.507-7.314c0.416-0.55,0.874-1.017,1.357-1.383
		c0.917-0.684,1.934-1.033,2.991-1.05c1.05,0,2.064,0.35,2.99,1.05c0.484,0.366,0.941,0.816,1.365,1.383l6.041,8.03L511.894,499.416
		z M516.71,515.145l-9.198-12.512l-0.391-0.533l-5.624-7.481l-0.016-0.017l-0.009,0.017l-6.364,8.464l-1.309,1.75l-2.174,2.882
		l-2.166-2.882l-1.315-1.75l-12.229-16.261l-0.019-0.017l-0.008,0.017l-11.554,15.345l-0.342,0.467l-9.196,12.512h41.493H516.71z"/>
	<path fill="#34495E" d="M515.967,464.479c3.325,0,6.341,1.351,8.522,3.532l0.009,0.018c2.183,2.182,3.531,5.181,3.531,8.513
		c0,3.315-1.349,6.331-3.531,8.514h-0.009c-2.182,2.183-5.197,3.533-8.522,3.533c-3.323,0-6.339-1.351-8.521-3.533
		c-2.184-2.183-3.532-5.182-3.532-8.514s1.349-6.331,3.532-8.513l0.008-0.018C509.636,465.829,512.644,464.479,515.967,464.479
		 M510.194,494.035h0.008l0.076,0.116l1.532,2.033l-0.024,0.016l9.155,12.43c0.649,0.899,0.925,1.783,0.925,2.632h-0.01
		c0,0.667-0.166,1.283-0.448,1.8c-0.284,0.517-0.659,0.934-1.117,1.267c-0.75,0.55-1.724,0.866-2.699,0.866v-0.017h-23h-44.035
		c-1.066,0-1.981-0.3-2.69-0.816c-0.49-0.366-0.875-0.833-1.149-1.366h-0.008c-0.259-0.518-0.393-1.1-0.393-1.716h-0.016
		c0-0.916,0.316-1.883,0.999-2.799l9.639-13.113l-0.009-0.016l0.884-1.167l0.1-0.149h0.008l0.018-0.017l11.912-15.846
		c0.425-0.549,0.883-1.015,1.366-1.382c0.933-0.699,1.949-1.05,3.007-1.032c1.05,0,2.059,0.35,2.966,1.032
		c0.491,0.367,0.949,0.833,1.366,1.382l11.379,15.13l5.499-7.314c0.417-0.566,0.874-1.017,1.366-1.383
		c0.915-0.7,1.924-1.05,2.982-1.05c1.049,0,2.065,0.35,2.99,1.05c0.491,0.35,0.949,0.816,1.365,1.383l6.04,8.03L510.194,494.035z"/>
	<path fill-rule="evenodd" clip-rule="evenodd" fill="#39D4FF" d="M515.967,468.878c-2.031,0-3.965,0.799-5.446,2.282l0.023-0.017
		c-1.441,1.433-2.232,3.349-2.232,5.397c0,2.033,0.801,3.966,2.241,5.415c1.441,1.449,3.374,2.249,5.414,2.249
		c2.042,0,3.966-0.816,5.458-2.299l-0.025,0.033c1.441-1.449,2.231-3.365,2.231-5.398c0-2.049-0.79-3.965-2.206-5.381l-0.051-0.033
		C519.933,469.677,518.009,468.878,515.967,468.878 M451.057,510.779l43.535,0.017l22.476-0.017l-10.322-14.029l-6.113-8.13
		c-0.144-0.184-0.309-0.366-0.492-0.517c-0.092-0.066-0.226-0.149-0.35-0.149c-0.125,0-0.258,0.083-0.35,0.167
		c-0.191,0.133-0.351,0.315-0.491,0.499l-9.015,11.995l-14.887-19.792c-0.141-0.184-0.307-0.367-0.49-0.518
		c-0.1-0.065-0.234-0.167-0.359-0.167c-0.124,0-0.248,0.102-0.342,0.167c-0.191,0.135-0.357,0.334-0.49,0.518l-11.987,15.927
		L451.057,510.779z"/>
	<path opacity="0.5" fill-rule="evenodd" clip-rule="evenodd" fill="#34495E" d="M203.437,262.446c-2.174,0-4.24,0.866-5.782,2.399
		c-1.533,1.541-2.408,3.607-2.408,5.782v302.131c0,2.165,0.875,4.232,2.408,5.78c1.542,1.533,3.608,2.4,5.782,2.4h392.627
		c2.176,0,4.24-0.867,5.773-2.4c1.541-1.548,2.408-3.6,2.408-5.78V270.626c0-2.183-0.867-4.241-2.408-5.782
		c-1.533-1.533-3.606-2.399-5.773-2.399H203.437z"/>
	<path fill="#34495E" d="M278.685,319.858h242.132c2.391,0,4.557,0.975,6.123,2.549c1.573,1.566,2.549,3.732,2.549,6.123v186.314
		c0,2.398-0.976,4.564-2.549,6.131c-1.566,1.565-3.732,2.549-6.123,2.549H278.685c-2.383,0-4.557-0.983-6.124-2.549
		c-1.574-1.566-2.548-3.732-2.548-6.131V328.531c0-2.391,0.974-4.557,2.548-6.123C274.128,320.833,276.302,319.858,278.685,319.858"
		/>
	<path fill="#22A6EF" d="M278.685,325.74c-0.75,0-1.441,0.283-1.975,0.816c-0.524,0.533-0.817,1.224-0.817,1.974v186.314
		c0,0.748,0.293,1.449,0.817,1.982c0.533,0.518,1.225,0.817,1.975,0.817h242.132c0.741,0,1.44-0.3,1.966-0.817
		c0.532-0.533,0.825-1.234,0.825-1.982V328.531c0-0.75-0.293-1.441-0.825-1.974c-0.525-0.533-1.225-0.816-1.966-0.816H278.685z"/>
	<path opacity="0.15" d="M459.621,393.8c-2.083-2.083-4.974-3.374-8.165-3.374c-3.189,0-6.072,1.291-8.155,3.374
		c-2.081,2.083-3.365,4.965-3.365,8.154c0,3.183,1.292,6.064,3.374,8.156c2.082,2.083,4.966,3.366,8.146,3.366
		c3.191,0,6.082-1.283,8.165-3.366s3.366-4.965,3.366-8.156C462.987,398.765,461.704,395.882,459.621,393.8 M451.456,380.929
		c5.799,0,11.047,2.357,14.854,6.156l0.017,0.017c3.807,3.808,6.163,9.063,6.163,14.853c0,5.79-2.356,11.047-6.163,14.854
		l-0.017,0.017c-3.808,3.803-9.056,6.151-14.854,6.151c-5.797,0-11.063-2.349-14.86-6.151c-3.808-3.808-6.165-9.064-6.165-14.871
		c0-5.789,2.357-11.045,6.165-14.853l0.017-0.017C440.419,383.287,445.667,380.929,451.456,380.929z M441.394,432.473
		L441.394,432.473l0.143,0.2l2.664,3.532l-0.032,0.034l15.952,21.691c1.142,1.55,1.625,3.116,1.625,4.599h-0.018
		c0,1.149-0.283,2.216-0.791,3.133c-0.482,0.882-1.148,1.616-1.941,2.199c-1.315,0.966-2.998,1.499-4.696,1.499v-0.017
		l-40.112,0.017l-76.807-0.017c-1.849,0-3.448-0.533-4.689-1.434c-0.85-0.632-1.533-1.433-1.999-2.381h-0.024
		c-0.442-0.901-0.684-1.899-0.676-3h-0.025c0-1.583,0.551-3.266,1.741-4.882l16.803-22.842l-0.017-0.032l1.541-2.033l0.184-0.268
		l0,0l0.032-0.033l20.776-27.619c0.741-0.975,1.542-1.791,2.384-2.424c1.633-1.216,3.397-1.816,5.248-1.809
		c1.832,0.009,3.59,0.626,5.173,1.809c0.857,0.642,1.658,1.449,2.382,2.424l19.835,26.37l9.597-12.757
		c0.733-0.977,1.533-1.775,2.382-2.417c1.592-1.199,3.357-1.808,5.207-1.815c1.833-0.01,3.6,0.591,5.215,1.807
		c0.85,0.642,1.649,1.449,2.383,2.426l10.529,13.99L441.394,432.473z M449.79,459.88l-16.043-21.809l-0.675-0.916l-9.805-13.046
		l-0.026-0.033l-0.025,0.033l-11.086,14.744l-2.292,3.049l-3.79,5.033l-3.781-5.033l-2.291-3.049l-21.326-28.36l-0.025-0.033
		l-0.023,0.033l-20.144,26.778l-0.592,0.816l-16.036,21.792l72.357,0.018L449.79,459.88z"/>
	<path fill="#34495E" d="M448.5,374.023c5.799,0,11.046,2.349,14.853,6.156l0.016,0.016c3.808,3.807,6.158,9.055,6.158,14.854
		c0,5.79-2.351,11.045-6.158,14.844l-0.016,0.018c-3.807,3.807-9.054,6.164-14.853,6.164s-11.063-2.357-14.862-6.164
		c-3.807-3.799-6.164-9.064-6.164-14.862c0-5.798,2.357-11.046,6.164-14.854l0.017-0.016
		C437.462,376.372,442.71,374.023,448.5,374.023 M438.437,425.559L438.437,425.559l0.142,0.2l2.665,3.55l-0.031,0.016l15.951,21.692
		c1.142,1.55,1.625,3.116,1.625,4.599h-0.017c0,1.167-0.283,2.216-0.792,3.148c-0.482,0.866-1.149,1.616-1.94,2.183
		c-1.317,0.967-3,1.5-4.707,1.5v-0.017l-40.103,0.017l-76.807-0.017c-1.848,0-3.448-0.517-4.69-1.434
		c-0.85-0.633-1.532-1.433-1.999-2.382h-0.024c-0.442-0.883-0.685-1.899-0.675-2.982h-0.025c0-1.583,0.559-3.282,1.742-4.898
		l16.801-22.842l-0.017-0.033l1.542-2.033l0.182-0.249l0,0l0.043-0.051l20.768-27.61c0.741-0.984,1.542-1.783,2.383-2.425
		c1.633-1.225,3.398-1.824,5.248-1.807c1.833,0.008,3.591,0.616,5.182,1.816c0.851,0.633,1.649,1.44,2.374,2.416l19.835,26.361
		l9.596-12.75c0.733-0.967,1.533-1.782,2.383-2.416c1.591-1.199,3.357-1.815,5.207-1.815c1.832-0.008,3.599,0.591,5.215,1.807
		c0.85,0.643,1.649,1.441,2.382,2.425l10.529,13.999L438.437,425.559z"/>
	<path fill-rule="evenodd" clip-rule="evenodd" fill="#39D4FF" d="M448.5,379.421c4.165,0,8.098,1.633,11.038,4.573l0.016,0.017
		c2.941,2.94,4.582,6.873,4.582,11.038c0,4.157-1.641,8.096-4.582,11.029l-0.016,0.017c-2.94,2.949-6.873,4.583-11.038,4.583
		c-4.157,0-8.106-1.634-11.046-4.583c-2.95-2.94-4.583-6.881-4.583-11.045c0-4.166,1.642-8.098,4.583-11.038l0.017-0.017
		C440.411,381.054,444.343,379.421,448.5,379.421"/>
	<path fill-rule="evenodd" clip-rule="evenodd" fill="#39D4FF" d="M403.091,433.257l13.912-18.489c0.375-0.5,0.808-0.975,1.308-1.35
		c0.592-0.442,1.224-0.726,1.975-0.733c0.75,0,1.382,0.291,1.974,0.733c0.5,0.375,0.932,0.85,1.309,1.342l10.662,14.182
		l18.585,25.274c0.217,0.284,0.434,0.649,0.524,0.982l0.034,0.15v0.434l-0.034,0.133c-0.074,0.283-0.258,0.517-0.498,0.7
		c-0.318,0.232-0.718,0.366-1.102,0.416l-0.074,0.017h-40.444h-76.798c-0.491,0-1.091-0.1-1.49-0.399l-0.209-0.15l-0.3-0.6v-0.55
		l0.024-0.116c0.102-0.45,0.375-0.917,0.642-1.3l18.377-24.975l20.918-27.803c0.376-0.5,0.809-0.975,1.308-1.35
		c0.592-0.442,1.232-0.741,1.975-0.733c0.75,0.008,1.391,0.291,1.974,0.741c0.501,0.367,0.935,0.841,1.309,1.341L403.091,433.257z"
		/>
	<path fill-rule="evenodd" clip-rule="evenodd" fill="#FFFFFF" d="M563.435,282.364l6.224,6.223l6.213-6.223
		c1.525-1.524,4.024-1.524,5.557,0v0.008c1.525,1.524,1.525,4.015,0,5.548l-6.215,6.215l6.215,6.223
		c1.525,1.524,1.525,4.023,0,5.557l0,0c-1.532,1.524-4.031,1.524-5.557,0l-6.213-6.215l-6.224,6.215
		c-1.525,1.524-4.023,1.524-5.549,0c-1.532-1.533-1.532-4.032,0-5.557l6.215-6.223l-6.223-6.215c-1.524-1.533-1.524-4.023,0-5.548
		l0.008-0.008C559.411,280.839,561.909,280.839,563.435,282.364"/>
	<!-- <path fill-rule="evenodd" clip-rule="evenodd" fill="#94A4A5" d="M443.776,229.541h-3.165v0.124l5.414,8.156v5.832h2.657v-5.832
		l5.616-8.156v-0.124h-3.2l-3.748,5.831L443.776,229.541z M431.923,232.022c1.666,0,2.415,1.125,2.415,2.258
		c0,1.133-0.725,2.266-2.415,2.266h-4.041v-4.524H431.923z M437.695,243.469l-4.266-4.815c2.675-0.542,3.557-2.491,3.557-4.432
		c0-2.44-1.74-4.656-5.063-4.681c-2.233,0.025-4.466,0-6.698,0v14.111h2.657v-4.715h2.549l4.107,4.715h3.157V243.469z
		 M420.51,241.036h-7.905v-3.182h7.623v-2.474h-7.623v-3.257h7.905v-2.582h-10.538c0,4.706,0,9.421,0,14.111h10.538V241.036z
		 M395.602,229.541v14.111h9.896v-2.466h-7.238v-11.646H395.602z M381.197,229.541v14.111h9.897v-2.466h-7.238v-11.646H381.197z
		 M372.003,238.521h-5.233l2.616-6.015L372.003,238.521z M374.26,243.652h2.89l-6.314-14.111h-2.898l-6.314,14.111h2.874
		l1.207-2.666h7.364L374.26,243.652z M357.873,231.315c-1.44-1.424-3.34-2.157-5.223-2.157c-4.974,0-7.447,3.665-7.447,7.63
		c0,3.698,2.149,7.181,7.447,7.181c2.474,0,4.223-0.95,5.614-2.533v-5.931h-6.039v2.367h3.598v2.499
		c-1.108,0.883-2.074,1.125-3.173,1.125c-3.499,0-4.849-2.391-4.849-4.707c0-2.899,1.833-5.19,4.849-5.19
		c1.225,0,2.632,0.508,3.574,1.408L357.873,231.315z"/> -->
</g>
</svg>
