<?xml version="1.0" encoding="utf-8"?>
<!-- Generator: Adobe Illustrator 15.1.0, SVG Export Plug-In . SVG Version: 6.00 Build 0)  -->
<!DOCTYPE svg PUBLIC "-//W3C//DTD SVG 1.0//EN" "http://www.w3.org/TR/2001/REC-SVG-20010904/DTD/svg10.dtd">
<svg version="1.0" id="Layer_1" xmlns="http://www.w3.org/2000/svg" xmlns:xlink="http://www.w3.org/1999/xlink" x="0px" y="0px"
	 width="800px" height="800px" viewBox="191.22698974609375 209.13099670410156 420.75299072265625 377.68804931640625" enable-background="new 0 0 800 800" xml:space="preserve">
<g>
	<!-- <path fill="#BCC2C6" d="M207.431,209.131h388.355c4.448,0,8.505,1.816,11.438,4.748v0.018c2.932,2.932,4.756,6.98,4.756,11.429
		v345.299c0,4.432-1.824,8.48-4.756,11.412v0.017c-2.933,2.933-6.989,4.765-11.438,4.765H207.431c-4.457,0-8.513-1.832-11.438-4.765
		v-0.017c-2.934-2.932-4.766-6.98-4.766-11.412V225.326c0-4.449,1.832-8.497,4.766-11.429v-0.018
		C198.918,210.947,202.974,209.131,207.431,209.131"/>
	<path fill="#EBEFF0" d="M606.1,225.326v345.299c0,6.497-4.533,10.313-10.313,10.313H207.431c-5.781,0-10.32-3.716-10.32-10.313
		V225.326c0-6.732,4.565-10.321,10.32-10.321h388.355C601.566,215.004,606.1,218.711,606.1,225.326"/> -->
	<path fill="#BCC2C6" d="M205.29,256.564h392.628c3.874,0,7.39,1.583,9.93,4.124c2.549,2.549,4.132,6.064,4.132,9.938v302.131
		c0,3.865-1.583,7.38-4.132,9.93c-2.54,2.549-6.056,4.131-9.93,4.131H205.29c-3.866,0-7.381-1.582-9.93-4.131
		c-2.549-2.55-4.133-6.064-4.133-9.93V270.626c0-3.874,1.584-7.389,4.133-9.938C197.909,258.147,201.424,256.564,205.29,256.564"/>
	<path fill-rule="evenodd" clip-rule="evenodd" fill="#FFFFFF" d="M205.29,262.446c-2.175,0-4.231,0.866-5.772,2.399
		c-1.542,1.541-2.407,3.607-2.407,5.782v302.131c0,2.165,0.865,4.232,2.407,5.78c1.541,1.533,3.598,2.4,5.772,2.4h392.628
		c2.183,0,4.241-0.867,5.781-2.4c1.533-1.548,2.4-3.6,2.4-5.78V270.626c0-2.183-0.867-4.241-2.4-5.782
		c-1.54-1.533-3.616-2.399-5.781-2.399H205.29z"/>
	<!-- <path fill-rule="evenodd" clip-rule="evenodd" fill="#94A4A5" d="M547.387,229.083c4.132,0,7.488,3.356,7.488,7.489
		c0,4.132-3.356,7.48-7.488,7.48s-7.48-3.349-7.48-7.48C539.906,232.439,543.255,229.083,547.387,229.083 M570.895,229.083
		c4.132,0,7.481,3.356,7.481,7.489c0,4.132-3.35,7.48-7.481,7.48c-4.133,0-7.481-3.349-7.481-7.48
		C563.413,232.439,566.762,229.083,570.895,229.083z M523.886,229.083c4.132,0,7.489,3.356,7.489,7.489
		c0,4.132-3.357,7.48-7.489,7.48c-4.133,0-7.489-3.349-7.489-7.48C516.396,232.439,519.762,229.083,523.886,229.083z"/> -->
	<rect x="273.549" y="300.449" fill-rule="evenodd" clip-rule="evenodd" fill="#34495E" width="256.11" height="160.397"/>
	<rect x="278.798" y="305.697" fill="#22A6EF" width="245.613" height="149.901"/>
	<path opacity="0.15" d="M462.957,356.196c-2.091-2.074-4.974-3.366-8.155-3.366c-3.199,0-6.081,1.292-8.163,3.366
		c-2.083,2.082-3.366,4.973-3.366,8.164c0,3.182,1.283,6.064,3.374,8.147c2.083,2.083,4.965,3.383,8.155,3.383
		c3.182,0,6.064-1.292,8.155-3.366c2.075-2.091,3.365-4.981,3.365-8.164C466.322,361.169,465.032,358.278,462.957,356.196
		 M454.802,343.334c5.781,0,11.038,2.35,14.845,6.156l0.017,0.016c3.799,3.808,6.157,9.056,6.157,14.854
		c0,5.789-2.358,11.046-6.157,14.844l-0.017,0.018c-3.807,3.807-9.063,6.164-14.845,6.164c-5.815,0-11.063-2.357-14.878-6.164
		c-3.798-3.799-6.157-9.064-6.157-14.862s2.359-11.046,6.157-14.854l0.017-0.016C443.757,345.684,449.004,343.334,454.802,343.334z
		 M444.722,394.874L444.722,394.874l0.149,0.191l2.667,3.549l-0.033,0.025l15.952,21.688c1.142,1.549,1.625,3.115,1.625,4.598
		h-0.017c0,1.166-0.283,2.216-0.8,3.149c-0.476,0.866-1.142,1.616-1.934,2.182c-1.316,0.983-3.007,1.5-4.706,1.5v-0.016
		l-40.111,0.016l-76.798-0.016c-1.858,0-3.457-0.518-4.689-1.433c-0.851-0.635-1.532-1.435-1.999-2.384h-0.025
		c-0.441-0.883-0.683-1.899-0.674-2.982h-0.025c0-1.582,0.549-3.282,1.74-4.881l16.803-22.864l-0.009-0.024l1.534-2.041l0.183-0.25
		l0,0l0.032-0.042l20.777-27.615c0.732-0.982,1.532-1.783,2.382-2.423c1.632-1.225,3.399-1.816,5.248-1.808
		c1.833,0.008,3.582,0.616,5.182,1.816c0.85,0.632,1.65,1.449,2.374,2.415l19.835,26.375l9.597-12.763
		c0.733-0.966,1.532-1.783,2.383-2.416c1.591-1.2,3.349-1.815,5.198-1.815c1.833,0,3.598,0.599,5.223,1.815
		c0.842,0.633,1.649,1.433,2.383,2.416l10.529,13.996L444.722,394.874z M453.136,422.294l-16.044-21.813l-0.683-0.925l-9.814-13.045
		l-0.017-0.025l-0.032,0.025l-11.08,14.736l-2.298,3.05l-3.783,5.04l-3.782-5.04l-2.299-3.05l-21.325-28.348l-0.018-0.025
		l-0.025,0.025l-20.144,26.773l-0.591,0.809l-16.035,21.813h72.349H453.136z"/>
	<path fill="#34495E" d="M451.836,336.42c5.798,0,11.047,2.357,14.854,6.164l0.018,0.017c3.807,3.807,6.155,9.063,6.155,14.845
		c0,5.798-2.349,11.046-6.155,14.854l-0.018,0.025c-3.807,3.798-9.056,6.148-14.854,6.148c-5.797,0-11.063-2.35-14.862-6.148
		c-3.806-3.808-6.163-9.063-6.163-14.878c0-5.781,2.357-11.038,6.163-14.845l0.018-0.017
		C440.789,338.777,446.047,336.42,451.836,336.42 M441.774,387.968L441.774,387.968l0.141,0.191l2.665,3.541l-0.041,0.033
		l15.961,21.692c1.142,1.549,1.624,3.115,1.624,4.59h-0.017c0,1.158-0.291,2.229-0.792,3.146c-0.481,0.883-1.148,1.614-1.94,2.199
		c-1.314,0.966-3.007,1.499-4.707,1.499v-0.017l-40.11,0.017l-76.798-0.017c-1.849,0-3.449-0.533-4.698-1.449
		c-0.849-0.618-1.525-1.416-2-2.367h-0.017c-0.448-0.898-0.683-1.903-0.683-2.994h-0.017c0-1.59,0.551-3.272,1.733-4.89
		l16.811-22.85l-0.018-0.025l1.532-2.041l0.193-0.25h0.008l0.025-0.042l20.783-27.615c0.733-0.975,1.534-1.791,2.384-2.423
		c1.615-1.217,3.398-1.816,5.23-1.816c1.841,0.017,3.599,0.625,5.182,1.816c0.85,0.641,1.649,1.449,2.383,2.423l19.834,26.366
		l9.598-12.763c0.725-0.966,1.523-1.774,2.373-2.416c1.601-1.2,3.366-1.808,5.215-1.816c1.833,0,3.6,0.6,5.216,1.816
		c0.849,0.633,1.649,1.449,2.382,2.416l10.53,14.003L441.774,387.968z"/>
	<path fill-rule="evenodd" clip-rule="evenodd" fill="#39D4FF" d="M451.836,341.818c4.165,0,8.098,1.641,11.038,4.582l0.017,0.016
		c2.94,2.941,4.583,6.873,4.583,11.029c0,4.166-1.643,8.098-4.583,11.038l-0.017,0.025c-2.94,2.932-6.873,4.573-11.038,4.573
		s-8.104-1.632-11.047-4.573c-2.947-2.949-4.581-6.897-4.581-11.063c0-4.156,1.634-8.088,4.581-11.029l0.018-0.016
		C443.739,343.459,447.68,341.818,451.836,341.818"/>
	<path fill-rule="evenodd" clip-rule="evenodd" fill="#39D4FF" d="M406.427,395.666l13.904-18.493c0.383-0.5,0.815-0.975,1.315-1.35
		c0.583-0.441,1.234-0.732,1.982-0.732c0.733,0,1.375,0.291,1.966,0.732c0.492,0.375,0.935,0.85,1.3,1.35l10.673,14.178
		l18.584,25.274c0.217,0.284,0.425,0.643,0.518,0.983l0.041,0.142v0.426l-0.033,0.141c-0.085,0.291-0.258,0.524-0.5,0.692
		c-0.309,0.233-0.717,0.365-1.101,0.424l-0.073,0.008l-40.445,0.018l-76.798-0.018c-0.5,0-1.082-0.083-1.5-0.383l-0.199-0.15
		l-0.3-0.616v-0.533l0.023-0.115c0.109-0.45,0.377-0.934,0.643-1.301l18.376-24.982l20.911-27.798c0.382-0.5,0.815-0.975,1.314-1.35
		c0.592-0.45,1.226-0.733,1.975-0.733c0.742,0,1.392,0.3,1.975,0.733c0.5,0.375,0.934,0.85,1.309,1.35L406.427,395.666z"/>
	<path fill-rule="evenodd" clip-rule="evenodd" fill="#BCC2C6" d="M221.667,380.646l2.083-2.074l0,0l11.962-11.962l3.141-3.149
		c1.143-1.141,3.008-1.141,4.157,0l0,0c1.142,1.15,1.142,3.016,0,4.157l-3.148,3.149l-9.88,9.879l10.971,10.971l2.058,2.066
		c1.142,1.141,1.142,3.007,0,4.148l0,0c-1.149,1.149-3.015,1.149-4.157,0l-2.057-2.058L223.75,382.72l0,0L221.667,380.646z"/>
	<path fill-rule="evenodd" clip-rule="evenodd" fill="#BCC2C6" d="M581.54,380.646l-2.073-2.074l-11.962-11.962l-3.15-3.149
		c-1.14-1.141-3.007-1.141-4.156,0l0,0c-1.142,1.15-1.142,3.016,0,4.157l3.15,3.149l9.879,9.879l-10.963,10.971l-2.066,2.066
		c-1.142,1.141-1.142,3.007,0,4.148l0,0c1.149,1.149,3.017,1.149,4.156,0l2.059-2.058l13.054-13.054L581.54,380.646z"/>
	<path fill-rule="evenodd" clip-rule="evenodd" fill="#BCC2C6" d="M280.729,515.327h241.748c2.166,0,3.933,1.767,3.933,3.933l0,0
		c0,2.148-1.767,3.915-3.933,3.915H280.729c-2.158,0-3.931-1.767-3.931-3.915l0,0C276.799,517.094,278.571,515.327,280.729,515.327"
		/>
	<path fill-rule="evenodd" clip-rule="evenodd" fill="#BCC2C6" d="M343.133,535.071h116.942c2.157,0,3.932,1.765,3.932,3.932l0,0
		c0,2.165-1.774,3.932-3.932,3.932H343.133c-2.158,0-3.923-1.767-3.923-3.932l0,0C339.21,536.836,340.975,535.071,343.133,535.071"
		/>
	<path fill-rule="evenodd" clip-rule="evenodd" fill="#BCC2C6" d="M374.656,476.108c3.065,0,5.555,2.482,5.555,5.548
		c0,3.082-2.489,5.564-5.555,5.564c-3.066,0-5.558-2.482-5.558-5.564C369.099,478.591,371.59,476.108,374.656,476.108"/>
	<path fill-rule="evenodd" clip-rule="evenodd" fill="#BCC2C6" d="M401.604,476.108c3.065,0,5.556,2.482,5.556,5.548
		c0,3.082-2.49,5.564-5.556,5.564s-5.549-2.482-5.549-5.564C396.056,478.591,398.539,476.108,401.604,476.108"/>
	<path fill-rule="evenodd" clip-rule="evenodd" fill="#BCC2C6" d="M428.561,476.108c3.066,0,5.549,2.482,5.549,5.548
		c0,3.082-2.482,5.564-5.549,5.564c-3.073,0-5.564-2.482-5.564-5.564C422.996,478.591,425.487,476.108,428.561,476.108"/>
	<!-- <path fill-rule="evenodd" clip-rule="evenodd" fill="#94A4A5" d="M445.631,229.541h-3.158v0.124l5.415,8.156v5.832h2.648v-5.832
		l5.615-8.156v-0.124h-3.199l-3.739,5.831L445.631,229.541z M433.775,232.022c1.675,0,2.417,1.125,2.417,2.258
		c0,1.133-0.726,2.266-2.417,2.266h-4.04v-4.524H433.775z M439.557,243.469l-4.266-4.815c2.667-0.542,3.558-2.491,3.558-4.432
		c0-2.44-1.749-4.656-5.073-4.681c-2.231,0.025-4.464,0-6.697,0v14.111h2.657v-4.715h2.559l4.098,4.715h3.165V243.469z
		 M422.371,241.036h-7.905v-3.182h7.623v-2.474h-7.623v-3.257h7.905v-2.582h-10.537c0,4.706,0,9.421,0,14.111h10.537V241.036z
		 M397.464,229.541v14.111h9.897v-2.466h-7.239v-11.646H397.464z M383.061,229.541v14.111h9.896v-2.466h-7.247v-11.646H383.061z
		 M373.864,238.521h-5.231l2.614-6.015L373.864,238.521z M376.112,243.652h2.898l-6.313-14.111h-2.899l-6.315,14.111h2.874
		l1.209-2.666h7.364L376.112,243.652z M359.736,231.315c-1.45-1.424-3.341-2.157-5.233-2.157c-4.964,0-7.447,3.665-7.447,7.63
		c0,3.698,2.158,7.181,7.447,7.181c2.476,0,4.225-0.95,5.615-2.533v-5.931h-6.031v2.367h3.598v2.499
		c-1.107,0.883-2.072,1.125-3.182,1.125c-3.499,0-4.848-2.391-4.848-4.707c0-2.899,1.833-5.19,4.848-5.19
		c1.233,0,2.633,0.508,3.584,1.408L359.736,231.315z"/> -->
</g>
</svg>
