<?xml version="1.0" encoding="utf-8"?>
<!-- Generator: Adobe Illustrator 15.1.0, SVG Export Plug-In . SVG Version: 6.00 Build 0)  -->
<!DOCTYPE svg PUBLIC "-//W3C//DTD SVG 1.0//EN" "http://www.w3.org/TR/2001/REC-SVG-20010904/DTD/svg10.dtd">
<svg version="1.0" id="Layer_1" xmlns="http://www.w3.org/2000/svg" xmlns:xlink="http://www.w3.org/1999/xlink" x="0px" y="0px"
	 width="800px" height="800px" viewBox="191.00099182128906 209.13099670410156 420.7440185546875 377.68804931640625" enable-background="new 0 0 800 800" xml:space="preserve">
<g>
	<!-- <path fill="#BCC2C6" d="M207.203,209.131h388.348c4.457,0,8.514,1.816,11.446,4.748v0.018c2.931,2.932,4.747,6.98,4.747,11.429
		v345.299c0,4.432-1.816,8.48-4.747,11.412v0.017c-2.933,2.933-6.989,4.765-11.446,4.765H207.203c-4.465,0-8.514-1.832-11.445-4.765
		v-0.017c-2.934-2.932-4.757-6.98-4.757-11.412V225.326c0-4.449,1.823-8.497,4.757-11.429v-0.018
		C198.689,210.947,202.738,209.131,207.203,209.131"/>
	<path fill="#EBEFF0" d="M605.871,225.326v345.299c0,6.497-4.531,10.313-10.32,10.313H207.203c-5.781,0-10.321-3.716-10.321-10.313
		V225.326c0-6.732,4.557-10.321,10.321-10.321h388.348C601.332,215.004,605.871,218.711,605.871,225.326"/> -->
	<path fill="#BCC2C6" d="M205.063,256.564h392.629c3.873,0,7.39,1.583,9.93,4.124c2.549,2.549,4.123,6.064,4.123,9.938v302.131
		c0,3.865-1.574,7.38-4.123,9.93c-2.54,2.549-6.057,4.131-9.93,4.131H205.063c-3.873,0-7.389-1.582-9.93-4.131
		c-2.548-2.55-4.132-6.064-4.132-9.93V270.626c0-3.874,1.584-7.389,4.132-9.938C197.674,258.147,201.189,256.564,205.063,256.564"/>
	<path fill-rule="evenodd" clip-rule="evenodd" fill="#FFFFFF" d="M205.063,262.446c-2.174,0-4.24,0.866-5.773,2.399
		c-1.539,1.541-2.407,3.607-2.407,5.782v302.131c0,2.165,0.868,4.232,2.407,5.78c1.533,1.533,3.6,2.4,5.773,2.4h392.629
		c2.174,0,4.24-0.867,5.772-2.4c1.542-1.548,2.407-3.6,2.407-5.78V270.626c0-2.183-0.865-4.241-2.407-5.782
		c-1.532-1.533-3.599-2.399-5.772-2.399H205.063z"/>
	<!-- <path fill-rule="evenodd" clip-rule="evenodd" fill="#94A4A5" d="M547.159,229.083c4.141,0,7.489,3.356,7.489,7.489
		c0,4.132-3.349,7.48-7.489,7.48c-4.133,0-7.481-3.349-7.481-7.48C539.678,232.439,543.026,229.083,547.159,229.083
		 M570.667,229.083c4.133,0,7.481,3.356,7.481,7.489c0,4.132-3.349,7.48-7.481,7.48c-4.14,0-7.488-3.349-7.488-7.48
		C563.179,232.439,566.536,229.083,570.667,229.083z M523.659,229.083c4.132,0,7.48,3.356,7.48,7.489c0,4.132-3.349,7.48-7.48,7.48
		s-7.481-3.349-7.481-7.48C516.178,232.439,519.527,229.083,523.659,229.083z"/> -->
	<rect x="240.217" y="298.066" fill-rule="evenodd" clip-rule="evenodd" fill="#34495E" width="114.068" height="97.633"/>
	<rect x="246.09" y="303.939" fill="#22A6EF" width="102.322" height="85.886"/>
	<path opacity="0.15" d="M331.585,331.596c-1.2-1.191-2.857-1.924-4.683-1.924c-1.832,0-3.481,0.733-4.68,1.924
		c-1.193,1.192-1.934,2.85-1.934,4.682c0,1.824,0.74,3.474,1.939,4.673c1.192,1.2,2.851,1.933,4.674,1.933
		c1.825,0,3.482-0.733,4.683-1.933c1.19-1.191,1.924-2.849,1.924-4.673C333.509,334.446,332.775,332.788,331.585,331.596
		 M326.902,324.224c3.324,0,6.332,1.349,8.514,3.532l0.009,0.008c2.183,2.174,3.533,5.19,3.533,8.514
		c0,3.323-1.351,6.331-3.533,8.513l-0.009,0.008c-2.182,2.183-5.189,3.532-8.514,3.532c-3.331,0-6.348-1.35-8.521-3.532
		c-2.183-2.183-3.54-5.198-3.54-8.521c0-3.324,1.357-6.34,3.54-8.514l0.008-0.008C320.572,325.573,323.58,324.224,326.902,324.224z
		 M321.131,353.78v-0.008l0.083,0.117l1.524,2.024l-0.025,0.025l9.155,12.437c0.658,0.883,0.934,1.783,0.934,2.632h-0.017
		c0.009,0.667-0.159,1.275-0.45,1.8c-0.275,0.5-0.659,0.933-1.108,1.266c-0.759,0.549-1.724,0.858-2.699,0.858v-0.009h-23h-44.043
		c-1.057,0-1.982-0.3-2.69-0.833c-0.483-0.358-0.874-0.816-1.149-1.357h-0.008c-0.26-0.517-0.393-1.092-0.393-1.717h-0.008
		c0-0.908,0.316-1.874,1-2.799l9.629-13.104l-0.009-0.017l0.884-1.175l0.108-0.142l0,0l0.017-0.025l11.912-15.835
		c0.426-0.559,0.884-1.025,1.366-1.383c0.933-0.7,1.95-1.05,3.008-1.042c1.05,0.008,2.058,0.359,2.974,1.042
		c0.491,0.366,0.949,0.824,1.367,1.383l11.369,15.128l5.507-7.323c0.418-0.558,0.876-1.016,1.358-1.391
		c0.916-0.683,1.925-1.033,2.991-1.033c1.049,0,2.065,0.342,2.989,1.033c0.484,0.367,0.941,0.833,1.368,1.391l6.03,8.022
		L321.131,353.78z M325.945,369.491l-9.196-12.504l-0.393-0.525l-5.622-7.48l-0.017-0.017l-0.009,0.017l-6.364,8.447l-1.316,1.75
		l-2.167,2.891l-2.174-2.891l-1.308-1.75l-12.229-16.252l-0.017-0.025l-0.018,0.025l-11.546,15.353l-0.341,0.467l-9.197,12.496
		l41.494,0.009L325.945,369.491z"/>
	<path fill="#34495E" d="M325.204,318.834c3.323,0,6.33,1.35,8.521,3.532l0.008,0.008c2.184,2.183,3.533,5.199,3.533,8.514
		c0,3.333-1.35,6.332-3.533,8.521l-0.008,0.009c-2.191,2.183-5.198,3.532-8.521,3.532c-3.324,0-6.339-1.35-8.522-3.532
		c-2.183-2.182-3.531-5.198-3.531-8.53c0-3.315,1.349-6.331,3.531-8.514l0.008-0.008
		C318.873,320.184,321.888,318.834,325.204,318.834 M319.43,348.39L319.43,348.39l0.085,0.109l1.532,2.032l-0.025,0.017
		l9.146,12.445c0.66,0.883,0.934,1.783,0.934,2.632h-0.008c0,0.667-0.167,1.267-0.458,1.8c-0.267,0.5-0.659,0.924-1.107,1.258
		c-0.751,0.558-1.726,0.857-2.7,0.857v-0.008l-23.001,0.008l-44.034-0.008c-1.066,0-1.982-0.3-2.691-0.825
		c-0.49-0.358-0.883-0.816-1.148-1.366h-0.017c-0.251-0.517-0.392-1.083-0.383-1.716h-0.009c0-0.899,0.308-1.874,0.992-2.799
		l9.637-13.096l-0.008-0.016l0.875-1.175l0.107-0.142l0,0l0.025-0.024l11.913-15.836c0.416-0.566,0.883-1.033,1.366-1.391
		c0.933-0.7,1.949-1.042,3.007-1.042c1.05,0.008,2.058,0.359,2.965,1.042c0.492,0.375,0.951,0.833,1.366,1.391l11.38,15.12
		l5.498-7.323c0.417-0.55,0.875-1.016,1.366-1.383c0.908-0.683,1.925-1.032,2.982-1.032c1.05-0.008,2.066,0.333,3,1.032
		c0.482,0.367,0.94,0.833,1.357,1.383l6.039,8.03L319.43,348.39z"/>
	<path fill-rule="evenodd" clip-rule="evenodd" fill="#39D4FF" d="M325.204,323.225c-2.042,0-3.965,0.808-5.448,2.291l0.025-0.025
		c-1.441,1.45-2.232,3.366-2.232,5.398c0,2.05,0.799,3.982,2.24,5.415c1.441,1.449,3.373,2.249,5.415,2.249
		c2.04,0,3.964-0.8,5.456-2.282l-0.024,0.017c1.44-1.433,2.232-3.349,2.232-5.398c0-2.033-0.792-3.949-2.208-5.373l-0.05-0.042
		C329.168,324.04,327.244,323.225,325.204,323.225 M260.294,365.143h43.533h22.468l-10.313-14.028l-6.115-8.13
		c-0.141-0.184-0.308-0.375-0.49-0.517c-0.092-0.066-0.227-0.158-0.351-0.158s-0.251,0.083-0.351,0.158
		c-0.191,0.142-0.358,0.333-0.491,0.517l-9.021,11.979l-14.878-19.785c-0.142-0.192-0.309-0.375-0.491-0.509
		c-0.101-0.083-0.233-0.167-0.36-0.167c-0.123,0-0.248,0.083-0.341,0.158c-0.189,0.142-0.357,0.325-0.499,0.517l-11.979,15.936
		L260.294,365.143z"/>
	<rect x="377.01" y="298.066" fill-rule="evenodd" clip-rule="evenodd" fill="#34495E" width="189.501" height="97.633"/>
	<rect x="382.883" y="303.939" fill="#22A6EF" width="177.747" height="85.886"/>
	<path opacity="0.15" d="M506.09,331.596c-1.199-1.191-2.849-1.924-4.682-1.924c-1.824,0-3.482,0.733-4.673,1.924
		c-1.199,1.192-1.934,2.85-1.934,4.682c0,1.824,0.741,3.474,1.934,4.673c1.198,1.2,2.849,1.933,4.673,1.933
		c1.833,0,3.482-0.733,4.682-1.933c1.191-1.191,1.933-2.849,1.933-4.673C508.022,334.446,507.281,332.788,506.09,331.596
		 M501.408,324.224c3.324,0,6.331,1.349,8.515,3.532l0.016,0.008c2.184,2.174,3.532,5.19,3.532,8.514
		c0,3.323-1.349,6.331-3.532,8.513l-0.016,0.008c-2.184,2.183-5.19,3.532-8.515,3.532c-3.323,0-6.339-1.35-8.521-3.532
		c-2.184-2.183-3.531-5.198-3.531-8.521c0-3.324,1.348-6.34,3.531-8.514l0.008-0.008
		C495.078,325.573,498.085,324.224,501.408,324.224z M495.635,353.78v-0.008l0.084,0.117l1.533,2.024l-0.025,0.025l9.146,12.437
		c0.659,0.883,0.934,1.783,0.934,2.632h-0.009c0,0.667-0.166,1.275-0.449,1.8c-0.284,0.5-0.667,0.933-1.116,1.266
		c-0.758,0.549-1.725,0.858-2.699,0.858v-0.009h-23.001h-44.034c-1.066,0-1.982-0.3-2.691-0.833
		c-0.49-0.358-0.883-0.816-1.148-1.357h-0.017c-0.251-0.517-0.384-1.092-0.384-1.717h-0.017c0-0.908,0.316-1.874,1-2.799
		l9.638-13.104l-0.009-0.017l0.884-1.175l0.1-0.142l0,0l0.025-0.025l11.913-15.835c0.415-0.559,0.874-1.025,1.366-1.383
		c0.932-0.7,1.949-1.05,3.006-1.042c1.05,0.008,2.059,0.359,2.966,1.042c0.492,0.366,0.95,0.824,1.366,1.383l11.372,15.128
		l5.506-7.323c0.417-0.558,0.875-1.016,1.366-1.391c0.916-0.683,1.925-1.033,2.982-1.033c1.049,0,2.065,0.342,2.99,1.033
		c0.491,0.367,0.95,0.833,1.366,1.391l6.04,8.022L495.635,353.78z M500.451,369.491l-9.197-12.504l-0.384-0.525l-5.631-7.48
		l-0.008-0.017l-0.019,0.017l-6.354,8.447l-1.316,1.75l-2.174,2.891l-2.167-2.891l-1.314-1.75l-12.23-16.252l-0.009-0.025
		l-0.017,0.025l-11.555,15.353l-0.341,0.467l-9.188,12.496l41.485,0.009L500.451,369.491z"/>
	<path fill="#34495E" d="M499.71,318.834c3.323,0,6.339,1.35,8.521,3.532l0.009,0.008c2.182,2.183,3.531,5.199,3.531,8.514
		c0,3.333-1.35,6.332-3.531,8.521l-0.009,0.009c-2.183,2.183-5.198,3.532-8.521,3.532c-3.324,0-6.341-1.35-8.522-3.532
		c-2.184-2.182-3.533-5.198-3.533-8.53c0-3.315,1.35-6.331,3.533-8.514l0.017-0.008C493.378,320.184,496.394,318.834,499.71,318.834
		 M493.945,348.39L493.945,348.39l0.082,0.109l1.524,2.032l-0.024,0.017l9.155,12.445c0.649,0.883,0.933,1.783,0.933,2.632h-0.018
		c0.009,0.667-0.158,1.267-0.449,1.8c-0.273,0.5-0.658,0.924-1.115,1.258c-0.75,0.558-1.717,0.857-2.691,0.857v-0.008l-23,0.008
		l-44.042-0.008c-1.066,0-1.983-0.3-2.691-0.825c-0.483-0.358-0.876-0.816-1.15-1.366h-0.008c-0.258-0.517-0.392-1.083-0.392-1.716
		h-0.008c0-0.899,0.316-1.874,0.99-2.799l9.639-13.096l-0.008-0.016l0.882-1.175l0.11-0.142l0,0l0.016-0.024l11.912-15.836
		c0.425-0.566,0.883-1.033,1.367-1.391c0.933-0.7,1.947-1.042,3.006-1.042c1.051,0.008,2.059,0.359,2.967,1.042
		c0.491,0.375,0.949,0.833,1.373,1.391l11.372,15.12l5.507-7.323c0.407-0.55,0.874-1.016,1.357-1.383
		c0.917-0.683,1.924-1.032,2.98-1.032c1.06-0.008,2.067,0.333,3,1.032c0.483,0.367,0.942,0.833,1.366,1.383l6.032,8.03
		L493.945,348.39z"/>
	<path fill-rule="evenodd" clip-rule="evenodd" fill="#39D4FF" d="M499.71,323.225c-2.034,0-3.958,0.808-5.449,2.291l0.025-0.025
		c-1.441,1.45-2.233,3.366-2.233,5.398c0,2.05,0.801,3.982,2.241,5.415c1.45,1.449,3.382,2.249,5.416,2.249
		c2.04,0,3.973-0.8,5.456-2.282l-0.025,0.017c1.441-1.433,2.232-3.349,2.232-5.398c0-2.033-0.791-3.949-2.207-5.373l-0.041-0.042
		C503.683,324.04,501.75,323.225,499.71,323.225 M434.799,365.143h43.535h22.475l-10.32-14.028l-6.115-8.13
		c-0.142-0.184-0.309-0.375-0.491-0.517c-0.093-0.066-0.225-0.158-0.343-0.158c-0.133,0-0.258,0.083-0.358,0.158
		c-0.183,0.142-0.349,0.333-0.489,0.517l-9.015,11.979l-14.887-19.785c-0.141-0.192-0.308-0.375-0.491-0.509
		c-0.101-0.083-0.233-0.167-0.358-0.167c-0.116,0-0.25,0.083-0.342,0.158c-0.183,0.142-0.349,0.325-0.491,0.517l-11.988,15.936
		L434.799,365.143z"/>
	<rect x="452.434" y="431.807" fill-rule="evenodd" clip-rule="evenodd" fill="#34495E" width="114.077" height="97.633"/>
	<rect x="458.316" y="437.672" fill="#22A6EF" width="102.313" height="85.886"/>
	<path opacity="0.15" d="M543.802,465.328c-1.19-1.182-2.849-1.916-4.682-1.916c-1.823,0-3.481,0.734-4.674,1.916
		c-1.19,1.199-1.934,2.85-1.934,4.683s0.743,3.481,1.934,4.682c1.2,1.198,2.851,1.933,4.674,1.933c1.833,0,3.491-0.734,4.682-1.933
		c1.19-1.2,1.934-2.849,1.934-4.682S544.992,466.527,543.802,465.328 M539.12,457.964c3.324,0,6.331,1.35,8.515,3.533h0.017
		c2.182,2.182,3.53,5.197,3.53,8.514c0,3.332-1.349,6.33-3.53,8.514l-0.017,0.017c-2.184,2.183-5.19,3.531-8.515,3.531
		c-3.323,0-6.34-1.349-8.522-3.531c-2.184-2.184-3.531-5.198-3.531-8.53c0-3.316,1.348-6.332,3.531-8.514h0.009
		C532.789,459.313,535.804,457.964,539.12,457.964z M533.348,487.521L533.348,487.521l0.082,0.099l1.533,2.033l-0.024,0.017
		l9.154,12.446c0.651,0.883,0.925,1.781,0.925,2.632h-0.009c0,0.666-0.166,1.266-0.449,1.799c-0.282,0.501-0.658,0.916-1.115,1.267
		c-0.75,0.55-1.726,0.85-2.7,0.85v-0.017l-23,0.017H473.71c-1.066-0.017-1.982-0.316-2.691-0.833
		c-0.491-0.367-0.883-0.817-1.149-1.366h-0.009c-0.257-0.517-0.391-1.082-0.391-1.716h-0.016c0-0.899,0.315-1.865,0.998-2.799
		l9.64-13.096l-0.009-0.017l0.883-1.165l0.101-0.15h0.008l0.016-0.034l11.913-15.827c0.416-0.567,0.874-1.018,1.366-1.384
		c0.934-0.7,1.949-1.049,3.006-1.049c1.051,0.017,2.059,0.365,2.968,1.049c0.491,0.366,0.948,0.833,1.366,1.384l11.37,15.11
		l5.507-7.313c0.416-0.55,0.874-1.017,1.366-1.383c0.908-0.683,1.924-1.034,2.982-1.034c1.05,0,2.065,0.334,2.989,1.034
		c0.492,0.366,0.951,0.833,1.367,1.383l6.039,8.03L533.348,487.521z M538.171,503.232l-9.206-12.513l-0.383-0.517l-5.632-7.48
		l-0.008-0.017l-0.017,0.017l-6.355,8.447l-1.316,1.75l-2.175,2.882l-2.166-2.882l-1.315-1.75l-12.23-16.262l-0.008-0.016
		l-0.017,0.016L485.79,490.27l-0.335,0.467l-9.196,12.496h41.485H538.171z"/>
	<path fill="#34495E" d="M537.429,452.566c3.315,0,6.332,1.366,8.515,3.531l0.008,0.018c2.182,2.184,3.533,5.197,3.533,8.513
		c0,3.316-1.352,6.331-3.533,8.514l-0.008,0.017c-2.183,2.184-5.199,3.533-8.515,3.533c-3.332,0-6.347-1.35-8.53-3.533
		c-2.174-2.182-3.523-5.197-3.523-8.53c0-3.315,1.35-6.329,3.523-8.513l0.017-0.018
		C531.098,453.933,534.105,452.566,537.429,452.566 M531.656,482.122L531.656,482.122l0.084,0.117l1.523,2.032l-0.017,0.017
		l9.147,12.445c0.649,0.884,0.932,1.783,0.932,2.634h-0.016c0.008,0.665-0.158,1.265-0.451,1.798
		c-0.273,0.501-0.657,0.917-1.107,1.251c-0.758,0.565-1.724,0.865-2.698,0.865v-0.016l-23,0.016l-44.043-0.016
		c-1.059,0-1.982-0.301-2.691-0.817c-0.491-0.366-0.874-0.815-1.149-1.366h-0.009c-0.258-0.517-0.39-1.083-0.39-1.715h-0.01
		c0-0.899,0.317-1.867,0.999-2.799l9.631-13.113l-0.009-0.017l0.883-1.167l0.109-0.132l0.016-0.033l11.912-15.828
		c0.426-0.567,0.885-1.033,1.367-1.4c0.933-0.699,1.949-1.031,3.007-1.031c1.059,0,2.059,0.349,2.975,1.048
		c0.482,0.351,0.948,0.816,1.366,1.384l11.37,15.111l5.507-7.314c0.407-0.55,0.874-1.016,1.358-1.383
		c0.916-0.684,1.924-1.032,2.981-1.05c1.059,0,2.066,0.351,3,1.05c0.482,0.367,0.94,0.833,1.365,1.383l6.031,8.031L531.656,482.122z
		"/>
	<path fill-rule="evenodd" clip-rule="evenodd" fill="#39D4FF" d="M537.429,456.965c-2.04,0-3.965,0.801-5.456,2.299l0.025-0.033
		c-1.442,1.449-2.233,3.365-2.233,5.397c0,2.05,0.8,3.982,2.241,5.415c1.45,1.449,3.383,2.25,5.423,2.25
		c2.041,0,3.966-0.801,5.448-2.282l-0.025,0.016c1.451-1.449,2.232-3.364,2.232-5.398c0-2.032-0.781-3.948-2.207-5.381l-0.041-0.032
		C541.395,457.766,539.47,456.965,537.429,456.965 M472.511,498.883h43.534h22.476l-10.321-14.028l-6.115-8.131
		c-0.141-0.183-0.307-0.383-0.491-0.517c-0.091-0.065-0.225-0.166-0.343-0.166c-0.133,0-0.257,0.083-0.357,0.166
		c-0.182,0.134-0.35,0.334-0.49,0.517l-9.015,11.979l-14.886-19.793c-0.142-0.183-0.3-0.365-0.492-0.499
		c-0.091-0.083-0.225-0.166-0.357-0.166c-0.116,0-0.251,0.083-0.341,0.149c-0.185,0.15-0.351,0.333-0.492,0.516l-11.987,15.928
		L472.511,498.883z"/>
	<rect x="240.217" y="431.807" fill-rule="evenodd" clip-rule="evenodd" fill="#34495E" width="189.5" height="97.633"/>
	<rect x="246.09" y="437.672" fill="#22A6EF" width="177.745" height="85.886"/>
	<path opacity="0.15" d="M369.297,465.328c-1.199-1.182-2.85-1.916-4.682-1.916c-1.825,0-3.482,0.734-4.682,1.916
		c-1.191,1.199-1.926,2.85-1.926,4.683s0.734,3.481,1.934,4.682c1.2,1.198,2.849,1.933,4.674,1.933c1.832,0,3.482-0.734,4.682-1.933
		c1.191-1.2,1.932-2.849,1.932-4.682S370.488,466.527,369.297,465.328 M364.615,457.964c3.324,0,6.33,1.35,8.514,3.533h0.008
		c2.183,2.182,3.541,5.197,3.541,8.514c0,3.332-1.358,6.33-3.541,8.514l-0.008,0.017c-2.184,2.183-5.189,3.531-8.514,3.531
		s-6.34-1.349-8.522-3.531c-2.183-2.184-3.532-5.198-3.532-8.53c0-3.316,1.35-6.332,3.532-8.514h0.008
		C358.283,459.313,361.291,457.964,364.615,457.964z M358.842,487.521L358.842,487.521l0.083,0.099l1.524,2.033l-0.017,0.017
		l9.146,12.446c0.659,0.883,0.934,1.781,0.934,2.632h-0.008c0,0.666-0.167,1.266-0.459,1.799c-0.274,0.501-0.657,0.916-1.107,1.267
		c-0.758,0.55-1.725,0.85-2.699,0.85v-0.017l-23.001,0.017h-44.033c-1.066-0.017-1.983-0.316-2.691-0.833
		c-0.491-0.367-0.883-0.817-1.148-1.366h-0.018c-0.26-0.517-0.392-1.082-0.392-1.716h-0.009c0-0.899,0.317-1.865,1-2.799
		l9.639-13.096l-0.016-0.017l0.881-1.165l0.108-0.15l0.025-0.034l11.913-15.827c0.416-0.567,0.874-1.018,1.366-1.384
		c0.932-0.7,1.949-1.049,3.007-1.049c1.05,0.017,2.058,0.365,2.965,1.049c0.492,0.366,0.951,0.833,1.367,1.384l11.371,15.11
		l5.506-7.313c0.417-0.55,0.875-1.017,1.358-1.383c0.915-0.683,1.932-1.034,2.99-1.034c1.05,0,2.065,0.334,2.991,1.034
		c0.49,0.366,0.948,0.833,1.366,1.383l6.04,8.03L358.842,487.521z M363.657,503.232l-9.197-12.513l-0.392-0.517l-5.623-7.48
		l-0.009-0.017l-0.017,0.017l-6.355,8.447l-1.316,1.75l-2.174,2.882l-2.166-2.882l-1.315-1.75l-12.23-16.262l-0.017-0.016
		l-0.008,0.016l-11.555,15.361l-0.341,0.467l-9.188,12.496h41.483H363.657z"/>
	<path fill="#34495E" d="M362.915,452.566c3.324,0,6.339,1.366,8.522,3.531l0.009,0.018c2.183,2.184,3.531,5.197,3.531,8.513
		c0,3.316-1.349,6.331-3.531,8.514l-0.009,0.017c-2.184,2.184-5.198,3.533-8.522,3.533c-3.323,0-6.339-1.35-8.522-3.533
		c-2.173-2.182-3.531-5.197-3.531-8.53c0-3.315,1.35-6.329,3.531-8.513l0.01-0.018C356.584,453.933,359.6,452.566,362.915,452.566
		 M357.143,482.122h0.008l0.083,0.117l1.524,2.032l-0.024,0.017l9.154,12.445c0.651,0.884,0.935,1.783,0.935,2.634h-0.018
		c0.008,0.665-0.158,1.265-0.45,1.798c-0.274,0.501-0.657,0.917-1.115,1.251c-0.75,0.565-1.716,0.865-2.691,0.865v-0.016l-23,0.016
		l-44.043-0.016c-1.065,0-1.982-0.301-2.69-0.817c-0.492-0.366-0.875-0.815-1.15-1.366h-0.008c-0.258-0.517-0.392-1.083-0.392-1.715
		h-0.009c0-0.899,0.317-1.867,0.992-2.799l9.639-13.113l-0.009-0.017l0.884-1.167l0.1-0.132h0.008l0.017-0.033l11.913-15.828
		c0.424-0.567,0.882-1.033,1.366-1.4c0.933-0.699,1.948-1.031,3.007-1.031c1.051,0,2.057,0.349,2.975,1.048
		c0.482,0.351,0.94,0.816,1.357,1.384l11.379,15.111l5.498-7.314c0.425-0.55,0.875-1.016,1.366-1.383
		c0.917-0.684,1.924-1.032,2.982-1.05c1.051,0,2.065,0.351,2.999,1.05c0.484,0.367,0.941,0.833,1.366,1.383l6.03,8.031
		L357.143,482.122z"/>
	<path fill-rule="evenodd" clip-rule="evenodd" fill="#39D4FF" d="M362.915,456.965c-2.032,0-3.965,0.801-5.448,2.299l0.025-0.033
		c-1.441,1.449-2.232,3.365-2.232,5.397c0,2.05,0.799,3.982,2.241,5.415c1.449,1.449,3.374,2.25,5.414,2.25
		c2.042,0,3.975-0.801,5.457-2.282l-0.025,0.016c1.44-1.449,2.232-3.364,2.232-5.398c0-2.032-0.792-3.948-2.207-5.381l-0.041-0.032
		C366.89,457.766,364.957,456.965,362.915,456.965 M298.005,498.883h43.535h22.475l-10.321-14.028l-6.114-8.131
		c-0.142-0.183-0.309-0.383-0.491-0.517c-0.092-0.065-0.225-0.166-0.342-0.166c-0.133,0-0.258,0.083-0.357,0.166
		c-0.185,0.134-0.35,0.334-0.491,0.517l-9.015,11.979l-14.886-19.793c-0.142-0.183-0.308-0.365-0.492-0.499
		c-0.101-0.083-0.225-0.166-0.358-0.166c-0.117,0-0.249,0.083-0.342,0.149c-0.183,0.15-0.35,0.333-0.49,0.516l-11.988,15.928
		L298.005,498.883z"/>
	<!-- <path fill-rule="evenodd" clip-rule="evenodd" fill="#94A4A5" d="M445.403,229.541h-3.165v0.124l5.414,8.156v5.832h2.657v-5.832
		l5.615-8.156v-0.124h-3.2l-3.747,5.831L445.403,229.541z M433.549,232.022c1.674,0,2.417,1.125,2.417,2.258
		c0,1.133-0.727,2.266-2.417,2.266h-4.041v-4.524H433.549z M439.322,243.469l-4.266-4.815c2.674-0.542,3.566-2.491,3.566-4.432
		c0-2.44-1.759-4.656-5.074-4.681c-2.232,0.025-4.465,0-6.698,0v14.111h2.657v-4.715h2.55l4.106,4.715h3.158V243.469z
		 M422.136,241.036h-7.905v-3.182h7.631v-2.474h-7.631v-3.257h7.905v-2.582h-10.537c0,4.706,0,9.421,0,14.111h10.537V241.036z
		 M397.229,229.541v14.111h9.905v-2.466h-7.248v-11.646H397.229z M382.825,229.541v14.111h9.896v-2.466h-7.239v-11.646H382.825z
		 M373.629,238.521h-5.231l2.614-6.015L373.629,238.521z M375.886,243.652h2.89l-6.313-14.111h-2.899l-6.314,14.111h2.875
		l1.208-2.666h7.364L375.886,243.652z M359.508,231.315c-1.448-1.424-3.341-2.157-5.231-2.157c-4.973,0-7.447,3.665-7.447,7.63
		c0,3.698,2.158,7.181,7.447,7.181c2.475,0,4.224-0.95,5.606-2.533v-5.931h-6.031v2.367h3.6v2.499
		c-1.109,0.883-2.074,1.125-3.175,1.125c-3.507,0-4.848-2.391-4.848-4.707c0-2.899,1.824-5.19,4.848-5.19
		c1.226,0,2.634,0.508,3.582,1.408L359.508,231.315z"/> -->
</g>
</svg>
