<?xml version="1.0" encoding="utf-8"?>
<!-- Generator: Adobe Illustrator 15.1.0, SVG Export Plug-In . SVG Version: 6.00 Build 0)  -->
<!DOCTYPE svg PUBLIC "-//W3C//DTD SVG 1.0//EN" "http://www.w3.org/TR/2001/REC-SVG-20010904/DTD/svg10.dtd">
<svg version="1.0" id="Layer_1" xmlns="http://www.w3.org/2000/svg" xmlns:xlink="http://www.w3.org/1999/xlink" x="0px" y="0px"
	 width="800px" height="800px" viewBox="0 0 800 800" enable-background="new 0 0 800 800" xml:space="preserve">
<g id="Header">
	<path fill="#BCC2C6" d="M33.1,34.5h736.2c8.5,0,16.1,3.5,21.7,9l0,0c5.6,5.6,9,13.2,9,21.7v654.6c0,8.4-3.5,16.1-9,21.7l0,0
		c-5.6,5.6-13.2,9-21.7,9H33.1c-8.5,0-16.1-3.5-21.7-9l0,0c-5.6-5.6-9-13.2-9-21.7V65.2c0-8.4,3.5-16.1,9-21.7l0,0
		C16.9,38,24.6,34.5,33.1,34.5"/>
	<path fill="#EBEFF0" d="M788.9,65.2v654.6c0,12.3-8.6,19.6-19.6,19.6H33.1c-11,0-19.6-7-19.6-19.6V65.2c0-12.8,8.6-19.6,19.6-19.6
		h736.2C780.2,45.6,788.9,52.7,788.9,65.2"/>
	<path fill="#94A4A5" d="M677.6,72.3c7.8,0,14.2,6.4,14.2,14.2s-6.3,14.2-14.2,14.2c-7.9,0-14.2-6.3-14.2-14.2
		C663.4,78.7,669.7,72.3,677.6,72.3 M722.1,72.3c7.8,0,14.2,6.4,14.2,14.2s-6.4,14.2-14.2,14.2c-7.8,0-14.2-6.3-14.2-14.2
		C707.9,78.7,714.3,72.3,722.1,72.3z M633,72.3c7.8,0,14.2,6.4,14.2,14.2s-6.3,14.2-14.2,14.2c-7.8,0-14.2-6.4-14.2-14.2
		S625.2,72.3,633,72.3z"/>
	
		<text transform="matrix(1 0 0 1 170.0015 83.2969)" fill="#93A2A3" font-family="'NexaBold'" font-size="44.0749" letter-spacing="2">ARTICLE</text>
</g>
<g id="Body">
	<path fill="#BCC2C6" d="M28.8,121.9H773c7.3,0,14,3,18.8,7.8c4.8,4.8,7.8,11.5,7.8,18.8v572.7c0,7.3-3,14-7.8,18.8
		s-11.5,7.8-18.8,7.8H28.8c-7.3,0-14-3-18.8-7.8s-7.8-11.5-7.8-18.8V148.6c0-7.3,3-14,7.8-18.8C14.8,124.9,21.5,121.9,28.8,121.9"/>
	<path fill="#FFFFFF" d="M28.8,133.1c-4.1,0-8,1.6-10.9,4.6c-2.9,2.9-4.6,6.8-4.6,11v572.7c0,4.1,1.6,8,4.6,10.9
		c2.9,2.9,6.8,4.6,10.9,4.6H773c4.1,0,8-1.7,11-4.6c2.9-2.9,4.5-6.8,4.5-10.9V148.6c0-4.1-1.6-8-4.5-11c-2.9-2.9-6.9-4.6-11-4.6
		H28.8V133.1z"/>
	<polygon fill="#34495E" points="203.7,227.5 598.3,227.5 607.3,227.5 607.3,236.5 607.3,479.1 607.3,488.1 598.3,488.1 
		203.7,488.1 194.6,488.1 194.6,479.1 194.6,236.5 194.6,227.5 	"/>
	<rect x="205.9" y="238.8" fill="#22A6EF" width="390.1" height="238.1"/>
	<path opacity="0.15" enable-background="new    " d="M517.3,311.5c-4-3.9-9.4-6.4-15.5-6.4c-6.1,0-11.5,2.4-15.5,6.4
		c-3.9,3.9-6.4,9.4-6.4,15.5c0,6,2.4,11.5,6.4,15.4c3.9,3.9,9.4,6.4,15.5,6.4c6,0,11.5-2.4,15.5-6.4c3.9-4,6.4-9.4,6.4-15.5
		C523.6,320.9,521.2,315.4,517.3,311.5 M501.8,287.1c11,0,20.9,4.5,28.1,11.7l0,0c7.2,7.2,11.7,17.2,11.7,28.2s-4.5,20.9-11.7,28.1
		l0,0c-7.2,7.2-17.2,11.7-28.1,11.7c-11,0-21-4.5-28.2-11.7c-7.2-7.2-11.7-17.2-11.7-28.2s4.5-20.9,11.7-28.2l0,0
		C480.9,291.5,490.8,287.1,501.8,287.1z M482.7,384.8L482.7,384.8l0.3,0.4l5.1,6.7H488l30.2,41.1c2.2,2.9,3.1,5.9,3.1,8.7l0,0
		c0,2.2-0.5,4.2-1.5,6c-0.9,1.7-2.2,3.1-3.7,4.2c-2.5,1.8-5.7,2.8-8.9,2.8l0,0h-76H285.6c-3.5,0-6.6-1-8.9-2.7
		c-1.6-1.2-2.9-2.7-3.8-4.5l0,0c-0.8-1.7-1.3-3.6-1.3-5.7l0,0c0-3,1-6.2,3.3-9.3l31.9-43.3l0,0l2.9-3.9l0.3-0.5l0,0l0.1-0.1
		l39.4-52.3c1.4-1.9,2.9-3.4,4.5-4.6c3.1-2.3,6.4-3.5,9.9-3.4c3.5,0,6.8,1.2,9.8,3.4c1.6,1.2,3.1,2.7,4.5,4.6l37.6,50l18.2-24.2
		c1.4-1.8,2.9-3.4,4.5-4.6c3-2.3,6.3-3.4,9.9-3.4c3.5,0,6.8,1.1,9.9,3.4c1.6,1.2,3.1,2.7,4.5,4.6L482.7,384.8L482.7,384.8z
		 M498.6,436.8l-30.4-41.4l-1.3-1.7L448.3,369l0,0h-0.1l-21,28l-4.4,5.8l-7.2,9.5l-7.2-9.5L404,397l-40.4-53.7v-0.1v0.1L325.4,394
		l-1.1,1.5L294,436.8h137.1H498.6z"/>
	<path fill="#34495E" d="M496.2,274c11,0,20.9,4.5,28.2,11.7l0,0c7.2,7.2,11.7,17.2,11.7,28.1c0,11-4.5,20.9-11.7,28.2l0,0
		c-7.2,7.2-17.2,11.7-28.2,11.7s-21-4.5-28.2-11.7s-11.7-17.2-11.7-28.2s4.5-20.9,11.7-28.1l0,0C475.2,278.5,485.2,274,496.2,274
		 M477.1,371.7L477.1,371.7l0.3,0.4l5.1,6.7l-0.1,0.1l30.3,41.1c2.2,2.9,3.1,5.9,3.1,8.7l0,0c0,2.2-0.6,4.2-1.5,6
		c-0.9,1.7-2.2,3-3.7,4.2c-2.5,1.8-5.7,2.8-8.9,2.8l0,0h-76H280.1c-3.5,0-6.5-1-8.9-2.7c-1.6-1.2-2.9-2.7-3.8-4.5l0,0
		c-0.9-1.7-1.3-3.6-1.3-5.7l0,0c0-3,1-6.2,3.3-9.3l31.9-43.3l0,0l2.9-3.9l0.4-0.5l0,0v-0.1l39.4-52.4c1.4-1.8,2.9-3.4,4.5-4.6
		c3.1-2.3,6.4-3.4,9.9-3.4s6.8,1.2,9.8,3.4c1.6,1.2,3.1,2.7,4.5,4.6l37.6,50l18.2-24.2c1.4-1.8,2.9-3.3,4.5-4.6
		c3-2.3,6.4-3.4,9.9-3.4s6.8,1.1,9.9,3.4c1.6,1.2,3.1,2.7,4.5,4.6L477.1,371.7L477.1,371.7z"/>
	<path fill="#39D4FF" d="M496.2,284.2c7.9,0,15.3,3.1,20.9,8.7l0,0c5.6,5.6,8.7,13,8.7,20.9c0,7.9-3.1,15.3-8.7,20.9l0,0
		c-5.6,5.6-13,8.7-20.9,8.7c-7.9,0-15.4-3.1-20.9-8.7c-5.6-5.6-8.7-13.1-8.7-21c0-7.9,3.1-15.3,8.7-20.9l0,0
		C480.8,287.3,488.3,284.2,496.2,284.2"/>
	<path fill="#39D4FF" d="M410.1,386.3l26.4-35.1c0.7-0.9,1.5-1.8,2.5-2.6c1.1-0.8,2.3-1.4,3.8-1.4c1.4,0,2.6,0.6,3.7,1.4
		c0.9,0.7,1.8,1.6,2.5,2.6l20.2,26.9l35.2,47.9c0.4,0.6,0.8,1.2,1,1.9l0.1,0.3v0.8l-0.1,0.3c-0.2,0.6-0.5,1-0.9,1.3
		c-0.6,0.4-1.4,0.7-2.1,0.8h-0.1h-76.7H280c-0.9,0-2.1-0.2-2.8-0.7l-0.4-0.3l-0.6-1.2v-1V428c0.2-0.9,0.7-1.8,1.2-2.5l34.8-47.3
		l39.6-52.7c0.7-0.9,1.5-1.8,2.5-2.6c1.1-0.9,2.3-1.4,3.7-1.4s2.6,0.6,3.7,1.4c0.9,0.7,1.8,1.6,2.5,2.6L410.1,386.3z"/>
	<path fill="#BCC2C6" d="M186,552.6h430c4.1,0,7.5,3.3,7.5,7.4l0,0c0,4.1-3.3,7.4-7.5,7.4H186c-4.1,0-7.5-3.4-7.5-7.4l0,0
		C178.5,555.9,181.9,552.6,186,552.6"/>
	<path fill="#BCC2C6" d="M186,590h430c4.1,0,7.5,3.3,7.5,7.5c0,4.1-3.3,7.5-7.5,7.5H186c-4.1,0-7.5-3.4-7.5-7.5S181.9,590,186,590"
		/>
	<path fill="#BCC2C6" d="M297.2,627.5h207.6c4.1,0,7.5,3.3,7.5,7.4c0,4.1-3.3,7.5-7.5,7.5H297.2c-4.1,0-7.5-3.3-7.5-7.5
		C289.7,630.8,293.1,627.5,297.2,627.5"/>
</g>
</svg>
