<?xml version="1.0" encoding="utf-8"?>
<!-- Generator: Adobe Illustrator 15.1.0, SVG Export Plug-In . SVG Version: 6.00 Build 0)  -->
<!DOCTYPE svg PUBLIC "-//W3C//DTD SVG 1.0//EN" "http://www.w3.org/TR/2001/REC-SVG-20010904/DTD/svg10.dtd">
<svg version="1.0" id="Layer_1" xmlns="http://www.w3.org/2000/svg" xmlns:xlink="http://www.w3.org/1999/xlink" x="0px" y="0px"
	 width="800px" height="800px" viewBox="0 0 800 800" enable-background="new 0 0 800 800" xml:space="preserve">
<g id="Header">
	<path fill="#BCC2C6" d="M33.1,34.5h736.2c8.5,0,16.1,3.5,21.7,9l0,0c5.6,5.6,9,13.2,9,21.7v654.6c0,8.4-3.5,16.1-9,21.7l0,0
		c-5.6,5.6-13.2,9-21.7,9H33.1c-8.5,0-16.1-3.5-21.7-9l0,0c-5.6-5.6-9-13.2-9-21.7V65.2c0-8.4,3.5-16.1,9-21.7l0,0
		C16.9,38,24.6,34.5,33.1,34.5"/>
	<path fill="#EBEFF0" d="M788.9,65.2v654.6c0,12.3-8.6,19.6-19.6,19.6H33.1c-11,0-19.6-7-19.6-19.6V65.2c0-12.8,8.6-19.6,19.6-19.6
		h736.2C780.2,45.6,788.9,52.7,788.9,65.2"/>
	<path fill="#94A4A5" d="M677.6,72.3c7.8,0,14.2,6.4,14.2,14.2s-6.3,14.2-14.2,14.2c-7.9,0-14.2-6.3-14.2-14.2
		C663.4,78.7,669.7,72.3,677.6,72.3 M722.1,72.3c7.8,0,14.2,6.4,14.2,14.2s-6.4,14.2-14.2,14.2c-7.8,0-14.2-6.3-14.2-14.2
		C707.9,78.7,714.3,72.3,722.1,72.3z M633,72.3c7.8,0,14.2,6.4,14.2,14.2s-6.3,14.2-14.2,14.2c-7.8,0-14.2-6.4-14.2-14.2
		S625.2,72.3,633,72.3z"/>
	
		<text transform="matrix(1 0 0 1 167.0015 81.2969)" fill="#93A2A3" font-family="'NexaBold'" font-size="44.0749" letter-spacing="2">ARTICLE</text>
</g>
<g id="Body">
	<path fill="#BCC2C6" d="M29.2,124.6h744.1c7.3,0,14,3,18.8,7.8c4.8,4.8,7.8,11.5,7.8,18.8v572.6c0,7.3-3,14-7.8,18.8
		c-4.8,4.8-11.5,7.8-18.8,7.8H29.2c-7.3,0-14-3-18.8-7.8c-4.8-4.8-7.8-11.5-7.8-18.8V151.2c0-7.3,3-14,7.8-18.8
		C15.2,127.6,21.9,124.6,29.2,124.6"/>
	<path fill="#FFFFFF" d="M29.2,135.7c-4.1,0-8,1.6-10.9,4.6c-2.9,2.9-4.6,6.8-4.6,11v572.6c0,4.1,1.6,8,4.6,11
		c2.9,2.9,6.8,4.6,10.9,4.6h744.1c4.1,0,8-1.6,11-4.6c2.9-2.9,4.5-6.8,4.5-11V151.2c0-4.1-1.6-8-4.5-11c-2.9-2.9-6.8-4.6-11-4.6
		H29.2V135.7z"/>
	<rect x="77.1" y="190.6" fill="#34495E" width="648.5" height="226.1"/>
	<rect x="88.2" y="201.8" fill="#22A6EF" width="626.2" height="203.8"/>
	<path opacity="0.15" enable-background="new    " d="M466.4,274.7c-2.3-2.3-5.4-3.7-8.9-3.7s-6.6,1.4-8.9,3.7
		c-2.3,2.3-3.7,5.4-3.7,8.9c0,3.4,1.4,6.6,3.7,8.8c2.3,2.3,5.4,3.7,8.9,3.7s6.6-1.4,8.9-3.7c2.3-2.3,3.7-5.4,3.7-8.9
		C470,280.1,468.6,277,466.4,274.7 M457.5,260.7c6.3,0,12,2.6,16.1,6.7l0,0c4.1,4.1,6.7,9.8,6.7,16.2c0,6.3-2.6,12-6.7,16.1l0,0
		c-4.1,4.1-9.8,6.7-16.1,6.7s-12-2.6-16.2-6.7c-4.1-4.1-6.7-9.8-6.7-16.1c0-6.3,2.6-12,6.7-16.2l0,0
		C445.5,263.3,451.2,260.7,457.5,260.7z M446.5,316.7L446.5,316.7l0.2,0.2l2.9,3.9l0,0l17.3,23.6c1.2,1.7,1.8,3.4,1.8,5l0,0
		c0,1.3-0.3,2.4-0.9,3.4c-0.5,0.9-1.2,1.8-2.1,2.4c-1.4,1-3.3,1.6-5.1,1.6l0,0H417h-83.5c-2,0-3.8-0.6-5.1-1.6
		c-0.9-0.7-1.7-1.6-2.2-2.6l0,0c-0.5-1-0.7-2.1-0.7-3.3l0,0c0-1.7,0.6-3.6,1.9-5.3l18.3-24.8l0,0l1.7-2.2l0.2-0.3l0,0l0,0l22.6-30
		c0.8-1,1.7-1.9,2.6-2.6c1.8-1.3,3.7-2,5.7-2s3.9,0.7,5.6,2c0.9,0.7,1.8,1.6,2.6,2.6l21.6,28.7l10.4-13.9c0.8-1.1,1.7-1.9,2.6-2.6
		c1.7-1.3,3.6-2,5.7-2c2,0,3.9,0.7,5.7,2c0.9,0.7,1.8,1.6,2.6,2.6L446.5,316.7L446.5,316.7z M455.7,346.5l-17.4-23.7l-0.7-1
		l-10.7-14.2l0,0l0,0l-12,16l-2.5,3.3l-4.1,5.5L404,327l-2.5-3.3l-23.2-30.8l0,0l0,0L356.4,322l-0.6,0.9l-17.4,23.7H417L455.7,346.5
		z"/>
	<path fill="#34495E" d="M454.3,250.5c6.3,0,12,2.6,16.1,6.7l0,0c4.1,4.1,6.7,9.8,6.7,16.1c0,6.3-2.6,12-6.7,16.1l0,0
		c-4.1,4.1-9.9,6.7-16.1,6.7c-6.3,0-12-2.6-16.2-6.7c-4.1-4.1-6.7-9.8-6.7-16.1c0-6.3,2.6-12,6.7-16.1l0,0
		C442.3,253.1,448,250.5,454.3,250.5 M443.3,306.5L443.3,306.5l0.2,0.2l2.9,3.9l0,0l17.3,23.6c1.2,1.7,1.8,3.4,1.8,5l0,0
		c0,1.3-0.3,2.4-0.9,3.4c-0.5,0.9-1.2,1.8-2.1,2.4c-1.4,1-3.3,1.6-5.1,1.6l0,0h-43.6h-83.5c-2,0-3.8-0.6-5.1-1.6
		c-0.9-0.7-1.7-1.5-2.2-2.6l0,0c-0.5-1-0.7-2.1-0.7-3.3l0,0c0-1.7,0.6-3.6,1.9-5.3l18.3-24.8l0,0l1.7-2.2l0.2-0.3l0,0l0,0l22.6-30
		c0.8-1.1,1.7-1.9,2.6-2.6c1.8-1.3,3.7-2,5.7-2s3.9,0.7,5.6,2c0.9,0.7,1.8,1.6,2.6,2.6l21.6,28.7l10.4-13.9c0.8-1.1,1.7-1.9,2.6-2.6
		c1.7-1.3,3.6-2,5.7-2c2,0,3.9,0.6,5.7,2c0.9,0.7,1.8,1.6,2.6,2.6L443.3,306.5L443.3,306.5z"/>
	<path fill="#39D4FF" d="M454.3,258.9c-3.9,0-7.5,1.5-10.3,4.3l0,0c-2.7,2.7-4.2,6.4-4.2,10.2c0,3.9,1.5,7.5,4.2,10.3
		c2.7,2.7,6.4,4.3,10.3,4.3c3.9,0,7.5-1.5,10.3-4.3l0,0c2.7-2.7,4.2-6.4,4.2-10.2c0-3.9-1.5-7.5-4.2-10.2l-0.1-0.1
		C461.8,260.4,458.1,258.9,454.3,258.9 M331.2,338.3h82.5h42.6l-19.5-26.6l-11.6-15.4c-0.3-0.3-0.6-0.7-0.9-1
		c-0.2-0.1-0.4-0.3-0.6-0.3c-0.3,0-0.5,0.2-0.7,0.3c-0.3,0.3-0.7,0.6-0.9,1L404.9,319l-28.2-37.5c-0.3-0.4-0.6-0.7-0.9-1
		c-0.2-0.1-0.4-0.3-0.7-0.3c-0.2,0-0.5,0.2-0.6,0.3c-0.3,0.3-0.7,0.6-0.9,1l-22.7,30.2L331.2,338.3z"/>
	<path fill="#BCC2C6" d="M91.6,507h361.1c4.1,0,7.5,3.3,7.5,7.4l0,0c0,4.1-3.3,7.4-7.5,7.4H91.6c-4.1,0-7.5-3.3-7.5-7.4l0,0
		C84.1,510.3,87.5,507,91.6,507"/>
	<path fill="#BCC2C6" d="M91.6,544.4h361.1c4.1,0,7.5,3.3,7.5,7.5l0,0c0,4.1-3.3,7.5-7.5,7.5H91.6c-4.1,0-7.5-3.3-7.5-7.5l0,0
		C84.1,547.8,87.5,544.4,91.6,544.4"/>
	<path fill="#BCC2C6" d="M91.6,581.8h173.1c4.1,0,7.4,3.3,7.4,7.4l0,0c0,4.1-3.3,7.4-7.4,7.4H91.6c-4.1,0-7.4-3.3-7.4-7.4l0,0
		C84.1,585.2,87.5,581.8,91.6,581.8"/>
	<path fill="#BCC2C6" d="M91.6,469.6h361.1c4.1,0,7.5,3.3,7.5,7.4l0,0c0,4.1-3.3,7.4-7.5,7.4H91.6c-4.1,0-7.5-3.3-7.5-7.4l0,0
		C84.1,472.9,87.5,469.6,91.6,469.6"/>
	<polygon fill="#34495E" points="525.4,464.6 717,464.6 725.5,464.6 725.5,473.1 725.5,664.6 725.5,673.1 717,673.1 525.4,673.1 
		517,673.1 517,664.6 517,473.1 517,464.6 	"/>
	<rect x="527.3" y="475" fill="#F65C4C" width="187.8" height="187.8"/>
	<path fill="#D63C2C" d="M653.9,585.6l-18.4,10.6l0,0l-18.4,10.6c-2.6,1.5-5.1,2.2-7.3,2.2c-2,0-3.8-0.5-5.4-1.5
		c-1.6-0.9-2.9-2.3-3.9-3.9c-1.2-2.1-1.8-4.6-1.8-7.4V575v-21.2c0-2.9,0.6-5.4,1.8-7.4c1-1.7,2.4-3.1,3.9-4c1.6-0.9,3.4-1.4,5.3-1.4
		c2.3,0,4.8,0.7,7.4,2.1l0,0l18.4,10.6l18.4,10.6l0,0c2.5,1.5,4.4,3.3,5.5,5.3c1,1.7,1.5,3.5,1.5,5.4c0,1.8-0.5,3.6-1.5,5.3
		C658.2,582.3,656.3,584.2,653.9,585.6"/>
	<path fill="#34495E" d="M650.2,579.5l-18.4,10.6l0,0l-18.4,10.6c-2.6,1.5-5.1,2.2-7.3,2.2c-2,0-3.8-0.5-5.4-1.5
		c-1.6-0.9-2.9-2.3-3.9-3.9c-1.2-2.1-1.8-4.6-1.8-7.4v-21.2v-21.2c0-2.9,0.7-5.4,1.8-7.4c1-1.7,2.3-3.1,3.9-4
		c1.6-0.9,3.4-1.4,5.3-1.4c2.3,0,4.8,0.7,7.4,2.1l0,0l18.4,10.6l18.4,10.6l0,0c2.5,1.5,4.4,3.3,5.5,5.3c1,1.7,1.5,3.5,1.5,5.4
		c0,1.8-0.5,3.6-1.5,5.3C654.6,576.2,652.7,578,650.2,579.5"/>
	<path fill="#FFFFFF" d="M645.9,572c0.9-0.5,1.8-1.2,2.4-2.1c0.2-0.3,0.3-0.7,0.3-1.1c0-0.4-0.1-0.7-0.3-1c-0.5-0.9-1.5-1.6-2.4-2.1
		L627.5,555l-18.4-10.6c-0.9-0.5-2-1-3-1c-0.4,0-0.7,0.1-1.1,0.3c-0.3,0.2-0.6,0.5-0.7,0.8c-0.5,0.9-0.7,2.1-0.7,3.1v42.5
		c0,1,0.2,2.2,0.7,3.1c0.2,0.3,0.4,0.6,0.8,0.8c0.3,0.2,0.7,0.3,1,0.3c1,0,2.2-0.5,3-1L645.9,572z"/>
	<path fill="#34495E" d="M621.2,502.4c-36.7,0-66.5,29.8-66.5,66.5c0,36.7,29.8,66.5,66.5,66.5s66.5-29.8,66.5-66.5
		C687.7,532.1,658,502.4,621.2,502.4z M621.2,626.8c-32,0-57.9-25.9-57.9-57.9s25.9-57.9,57.9-57.9s57.9,25.9,57.9,57.9
		S653.2,626.8,621.2,626.8z"/>
</g>
</svg>
