<?xml version="1.0" encoding="utf-8"?>
<!-- Generator: Adobe Illustrator 15.1.0, SVG Export Plug-In . SVG Version: 6.00 Build 0)  -->
<!DOCTYPE svg PUBLIC "-//W3C//DTD SVG 1.0//EN" "http://www.w3.org/TR/2001/REC-SVG-20010904/DTD/svg10.dtd">
<svg version="1.0" id="Layer_1" xmlns="http://www.w3.org/2000/svg" xmlns:xlink="http://www.w3.org/1999/xlink" x="0px" y="0px"
	 width="800px" height="800px" viewBox="0 0 800 800" enable-background="new 0 0 800 800" xml:space="preserve">
<g id="Header">
	<path fill="#BCC2C6" d="M33.1,34.5h736.2c8.5,0,16.1,3.5,21.7,9l0,0c5.6,5.6,9,13.2,9,21.7v654.6c0,8.4-3.5,16.1-9,21.7l0,0
		c-5.6,5.6-13.2,9-21.7,9H33.1c-8.5,0-16.1-3.5-21.7-9l0,0c-5.6-5.6-9-13.2-9-21.7V65.2c0-8.4,3.5-16.1,9-21.7l0,0
		C16.9,38,24.6,34.5,33.1,34.5"/>
	<path fill="#EBEFF0" d="M788.9,65.2v654.6c0,12.3-8.6,19.6-19.6,19.6H33.1c-11,0-19.6-7-19.6-19.6V65.2c0-12.8,8.6-19.6,19.6-19.6
		h736.2C780.2,45.6,788.9,52.7,788.9,65.2"/>
	<path fill="#94A4A5" d="M677.6,72.3c7.8,0,14.2,6.4,14.2,14.2s-6.3,14.2-14.2,14.2c-7.9,0-14.2-6.3-14.2-14.2
		C663.4,78.7,669.7,72.3,677.6,72.3 M722.1,72.3c7.8,0,14.2,6.4,14.2,14.2s-6.4,14.2-14.2,14.2c-7.8,0-14.2-6.3-14.2-14.2
		C707.9,78.7,714.3,72.3,722.1,72.3z M633,72.3c7.8,0,14.2,6.4,14.2,14.2s-6.3,14.2-14.2,14.2c-7.8,0-14.2-6.4-14.2-14.2
		S625.2,72.3,633,72.3z"/>
	
		<text transform="matrix(1 0 0 1 175.0015 82.2969)" fill="#93A2A3" font-family="'NexaBold'" font-size="44.0749" letter-spacing="2">ARTICLE</text>
</g>
<g id="Body">
	<path fill="#BCC2C6" d="M29.1,125.5h744.2c7.3,0,14,3,18.8,7.8c4.8,4.8,7.8,11.5,7.8,18.8v572.7c0,7.3-3,14-7.8,18.8
		c-4.8,4.8-11.5,7.8-18.8,7.8H29.1c-7.3,0-14-3-18.8-7.8c-4.8-4.8-7.8-11.5-7.8-18.8V152.2c0-7.3,3-14,7.8-18.8
		C15.1,128.5,21.8,125.5,29.1,125.5"/>
	<path fill="#FFFFFF" d="M29.1,136.6c-4.1,0-8,1.6-10.9,4.6c-2.9,2.9-4.6,6.8-4.6,11v572.7c0,4.1,1.6,8,4.6,11
		c2.9,2.9,6.8,4.6,10.9,4.6h744.2c4.1,0,8-1.6,10.9-4.6c2.9-2.9,4.6-6.8,4.6-11V152.2c0-4.1-1.6-8-4.6-11c-2.9-2.9-6.8-4.6-10.9-4.6
		H29.1z"/>
	<rect x="77" y="187.7" fill="#34495E" width="648.6" height="226.1"/>
	<rect x="88.1" y="198.8" fill="#22A6EF" width="626.3" height="203.9"/>
	<path opacity="0.15" enable-background="new    " d="M276.3,271.8c-2.3-2.3-5.4-3.7-8.9-3.7s-6.6,1.4-8.9,3.7
		c-2.3,2.3-3.7,5.4-3.7,8.9s1.4,6.6,3.7,8.9c2.3,2.3,5.4,3.7,8.9,3.7s6.6-1.4,8.9-3.7c2.3-2.3,3.7-5.4,3.7-8.9
		C279.9,277.2,278.5,274,276.3,271.8 M267.4,257.8c6.3,0,12,2.6,16.2,6.7l0,0c4.1,4.1,6.7,9.9,6.7,16.1c0,6.3-2.5,12-6.7,16.2l0,0
		c-4.2,4.1-9.9,6.7-16.2,6.7c-6.3,0-12-2.6-16.2-6.7c-4.1-4.1-6.7-9.9-6.7-16.2c0-6.3,2.6-12,6.7-16.1l0,0
		C255.4,260.3,261.1,257.8,267.4,257.8z M256.4,313.8L256.4,313.8l0.2,0.2l2.9,3.9l0,0l17.3,23.6c1.2,1.7,1.8,3.4,1.8,5l0,0
		c0,1.3-0.3,2.4-0.9,3.4c-0.5,0.9-1.2,1.8-2.1,2.4c-1.4,1.1-3.3,1.6-5.1,1.6l0,0h-43.6h-83.5c-2,0-3.8-0.6-5.1-1.6
		c-0.9-0.7-1.7-1.5-2.2-2.6l0,0c-0.5-1-0.8-2.1-0.7-3.3l0,0c0-1.7,0.6-3.6,1.9-5.3l18.3-24.8l0,0l1.7-2.2l0.2-0.3l0,0l0,0l22.6-30
		c0.8-1.1,1.7-1.9,2.6-2.6c1.8-1.3,3.7-2,5.7-2s3.9,0.7,5.6,2c0.9,0.7,1.8,1.6,2.6,2.6l21.6,28.7l10.4-13.9c0.8-1,1.7-1.9,2.6-2.6
		c1.7-1.3,3.6-2,5.7-2c2,0,3.9,0.6,5.7,2c0.9,0.7,1.8,1.6,2.6,2.6L256.4,313.8L256.4,313.8z M265.6,343.6l-17.4-23.7l-0.7-1
		l-10.7-14.2l0,0l0,0l-12,16l-2.5,3.3l-4.1,5.5l-4.1-5.5l-2.5-3.3l-23.2-30.8l0,0l0,0L166.3,319l-0.6,0.9l-17.4,23.7h78.6H265.6z"/>
	<path fill="#34495E" d="M264.2,247.6c6.3,0,12,2.6,16.1,6.7l0,0c4.1,4.1,6.7,9.9,6.7,16.1c0,6.3-2.6,12-6.7,16.1l0,0
		c-4.1,4.1-9.8,6.7-16.1,6.7c-6.3,0-12-2.6-16.2-6.7c-4.1-4.1-6.7-9.9-6.7-16.2c0-6.3,2.6-12,6.7-16.1l0,0
		C252.2,250.1,257.9,247.6,264.2,247.6 M253.2,303.6L253.2,303.6l0.2,0.2l2.9,3.9l0,0l17.3,23.6c1.2,1.7,1.8,3.4,1.8,5l0,0
		c0,1.3-0.3,2.4-0.9,3.4c-0.5,0.9-1.2,1.7-2.1,2.4c-1.4,1.1-3.3,1.6-5.1,1.6l0,0h-43.6h-83.5c-2,0-3.8-0.6-5.1-1.6
		c-0.9-0.7-1.7-1.5-2.2-2.6l0,0c-0.5-1-0.7-2.1-0.7-3.3l0,0c0-1.7,0.6-3.6,1.9-5.3l18.3-24.8l0,0l1.7-2.2l0.2-0.3l0,0l0,0l22.6-30
		c0.8-1.1,1.7-2,2.6-2.6c1.8-1.3,3.7-2,5.7-2s3.9,0.7,5.6,2c0.9,0.7,1.8,1.6,2.6,2.6l21.6,28.6l10.4-13.9c0.8-1,1.7-1.9,2.6-2.6
		c1.7-1.3,3.6-2,5.7-2c2,0,3.9,0.6,5.7,2c0.9,0.7,1.8,1.6,2.6,2.6L253.2,303.6L253.2,303.6z"/>
	<path fill="#39D4FF" d="M264.2,255.9c-3.9,0-7.5,1.5-10.3,4.3l0,0c-2.7,2.7-4.2,6.4-4.2,10.2c0,3.9,1.5,7.5,4.2,10.3
		c2.7,2.7,6.4,4.3,10.3,4.3c3.9,0,7.5-1.5,10.3-4.3l0,0c2.7-2.7,4.2-6.4,4.2-10.2c0-3.9-1.5-7.5-4.2-10.2l-0.1-0.1
		C271.7,257.4,268,255.9,264.2,255.9 M141.1,335.3h82.5h42.6l-19.6-26.6L235,293.3c-0.3-0.4-0.6-0.7-0.9-1c-0.2-0.1-0.4-0.3-0.6-0.3
		s-0.5,0.2-0.7,0.3c-0.3,0.3-0.7,0.6-0.9,1L214.8,316l-28.2-37.5c-0.3-0.3-0.6-0.7-0.9-1c-0.2-0.1-0.4-0.3-0.7-0.3
		c-0.2,0-0.5,0.2-0.7,0.3c-0.3,0.3-0.7,0.6-0.9,1l-22.7,30.2L141.1,335.3z"/>
	<path fill="#34495E" d="M365.2,255.9h304.9c4.1,0,7.4,3.3,7.4,7.4c0,4.1-3.3,7.5-7.4,7.5H365.2c-4.1,0-7.4-3.3-7.4-7.5
		C357.8,259.2,361.1,255.9,365.2,255.9"/>
	<path fill="#34495E" d="M365.2,293.3h304.9c4.1,0,7.4,3.3,7.4,7.5c0,4.1-3.3,7.5-7.4,7.5H365.2c-4.1,0-7.4-3.3-7.4-7.5
		C357.8,296.6,361.1,293.3,365.2,293.3"/>
	<path fill="#34495E" d="M365.2,330.7h145c4.1,0,7.5,3.3,7.5,7.4s-3.3,7.5-7.5,7.5h-145c-4.1,0-7.4-3.3-7.4-7.5
		C357.8,334.1,361.1,330.7,365.2,330.7"/>
	<rect x="77" y="463.2" fill="#34495E" width="648.6" height="226.1"/>
	<rect x="88.1" y="474.3" fill="#22A6EF" width="626.3" height="203.9"/>
	<path opacity="0.15" enable-background="new    " d="M276.3,547.3c-2.3-2.3-5.4-3.7-8.9-3.7s-6.6,1.4-8.9,3.7s-3.7,5.4-3.7,8.9
		s1.4,6.6,3.7,8.9c2.3,2.3,5.4,3.7,8.9,3.7s6.6-1.4,8.9-3.7c2.3-2.3,3.7-5.4,3.7-8.9C279.9,552.7,278.5,549.6,276.3,547.3
		 M267.4,533.3c6.3,0,12,2.6,16.2,6.7l0,0c4.1,4.1,6.7,9.9,6.7,16.1c0,6.3-2.5,12-6.7,16.2l0,0c-4.2,4.1-9.9,6.7-16.2,6.7
		c-6.3,0-12-2.6-16.2-6.7c-4.1-4.1-6.7-9.9-6.7-16.2c0-6.3,2.6-12,6.7-16.1l0,0C255.4,535.9,261.1,533.3,267.4,533.3z M256.4,589.3
		L256.4,589.3l0.2,0.2l2.9,3.9l0,0l17.3,23.6c1.2,1.7,1.8,3.4,1.8,5l0,0c0,1.3-0.3,2.4-0.9,3.4c-0.5,0.9-1.2,1.8-2.1,2.4
		c-1.4,1-3.3,1.6-5.1,1.6l0,0h-43.6h-83.5c-2,0-3.8-0.6-5.1-1.6c-0.9-0.7-1.7-1.5-2.2-2.6l0,0c-0.5-1-0.8-2.1-0.7-3.2l0,0
		c0-1.7,0.6-3.6,1.9-5.3l18.3-24.8l0,0l1.7-2.2l0.2-0.3l0,0l0,0l22.6-30c0.8-1.1,1.7-1.9,2.6-2.6c1.8-1.3,3.7-2,5.7-2s3.9,0.7,5.6,2
		c0.9,0.7,1.8,1.6,2.6,2.6l21.6,28.7l10.4-13.9c0.8-1.1,1.7-1.9,2.6-2.6c1.7-1.3,3.6-2,5.7-2c2,0,3.9,0.6,5.7,2
		c0.9,0.7,1.8,1.6,2.6,2.6L256.4,589.3L256.4,589.3z M265.6,619.1l-17.4-23.7l-0.7-1l-10.7-14.2l0,0l0,0l-12,16l-2.5,3.3L218,605
		l-4.1-5.5l-2.5-3.3l-23.2-30.8l0,0l0,0l-21.9,29.1l-0.6,0.9l-17.4,23.7h78.6H265.6z"/>
	<path fill="#34495E" d="M264.2,523.1c6.3,0,12,2.6,16.1,6.7l0,0c4.1,4.1,6.7,9.9,6.7,16.1c0,6.3-2.6,12-6.7,16.1l0,0
		c-4.1,4.1-9.8,6.7-16.1,6.7c-6.3,0-12-2.6-16.2-6.7c-4.1-4.1-6.7-9.9-6.7-16.2s2.6-12,6.7-16.1l0,0
		C252.2,525.7,257.9,523.1,264.2,523.1 M253.2,579.1L253.2,579.1l0.2,0.2l2.9,3.9l0,0l17.3,23.6c1.2,1.7,1.8,3.4,1.8,5l0,0
		c0,1.2-0.3,2.4-0.9,3.4c-0.5,0.9-1.2,1.8-2.1,2.4c-1.4,1.1-3.3,1.6-5.1,1.6l0,0h-43.6h-83.5c-2,0-3.8-0.6-5.1-1.6
		c-0.9-0.7-1.7-1.5-2.2-2.6l0,0c-0.5-1-0.7-2.1-0.7-3.3l0,0c0-1.7,0.6-3.6,1.9-5.3l18.3-24.8l0,0l1.7-2.2l0.2-0.3l0,0V579l22.6-30
		c0.8-1.1,1.7-2,2.6-2.6c1.8-1.3,3.7-2,5.7-2s3.9,0.7,5.6,2c0.9,0.7,1.8,1.6,2.6,2.6l21.6,28.7l10.4-13.9c0.8-1,1.7-1.9,2.6-2.6
		c1.7-1.3,3.6-2,5.7-2c2,0,3.9,0.6,5.7,2c0.9,0.7,1.8,1.6,2.6,2.6L253.2,579.1L253.2,579.1z"/>
	<path fill="#39D4FF" d="M264.2,531.4c-3.9,0-7.5,1.5-10.3,4.3l0,0c-2.7,2.7-4.2,6.4-4.2,10.2c0,3.9,1.5,7.5,4.2,10.3
		c2.7,2.7,6.4,4.3,10.3,4.3c3.9,0,7.5-1.5,10.3-4.3l0,0c2.7-2.7,4.2-6.4,4.2-10.2c0-3.9-1.5-7.5-4.2-10.2l-0.1-0.1
		C271.7,533,268,531.4,264.2,531.4 M141.1,610.9h82.5h42.6l-19.6-26.6L235,568.9c-0.3-0.4-0.6-0.7-0.9-1c-0.2-0.1-0.4-0.3-0.6-0.3
		s-0.5,0.2-0.7,0.3c-0.3,0.3-0.7,0.6-0.9,1l-17.1,22.7l-28.2-37.5c-0.3-0.3-0.6-0.7-0.9-1c-0.2-0.1-0.4-0.3-0.7-0.3
		c-0.2,0-0.5,0.2-0.7,0.3c-0.3,0.3-0.7,0.6-0.9,1l-22.7,30.2L141.1,610.9z"/>
	<path fill="#34495E" d="M365.2,531.4h304.9c4.1,0,7.4,3.3,7.4,7.4l0,0c0,4.1-3.3,7.4-7.4,7.4H365.2c-4.1,0-7.4-3.3-7.4-7.4l0,0
		C357.8,534.7,361.1,531.4,365.2,531.4"/>
	<path fill="#34495E" d="M365.2,568.8h304.9c4.1,0,7.4,3.3,7.4,7.5l0,0c0,4.1-3.3,7.5-7.4,7.5H365.2c-4.1,0-7.4-3.3-7.4-7.5l0,0
		C357.8,572.2,361.1,568.8,365.2,568.8"/>
	<path fill="#34495E" d="M365.2,606.3h145c4.1,0,7.5,3.3,7.5,7.4l0,0c0,4.1-3.3,7.4-7.5,7.4h-145c-4.1,0-7.4-3.3-7.4-7.4l0,0
		C357.8,609.6,361.1,606.3,365.2,606.3"/>
</g>
</svg>
