<?xml version="1.0" encoding="utf-8"?>
<!-- Generator: Adobe Illustrator 15.1.0, SVG Export Plug-In . SVG Version: 6.00 Build 0)  -->
<!DOCTYPE svg PUBLIC "-//W3C//DTD SVG 1.0//EN" "http://www.w3.org/TR/2001/REC-SVG-20010904/DTD/svg10.dtd">
<svg version="1.0" id="Layer_1" xmlns="http://www.w3.org/2000/svg" xmlns:xlink="http://www.w3.org/1999/xlink" x="0px" y="0px"
	 width="800px" height="800px" viewBox="0 0 800 800" enable-background="new 0 0 800 800" xml:space="preserve">
<g id="Header">
	<path fill="#BCC2C6" d="M33.1,34.5h736.2c8.5,0,16.1,3.5,21.7,9l0,0c5.6,5.6,9,13.2,9,21.7v654.6c0,8.4-3.5,16.1-9,21.7l0,0
		c-5.6,5.6-13.2,9-21.7,9H33.1c-8.5,0-16.1-3.5-21.7-9l0,0c-5.6-5.6-9-13.2-9-21.7V65.2c0-8.4,3.5-16.1,9-21.7l0,0
		C16.9,38,24.6,34.5,33.1,34.5"/>
	<path fill="#EBEFF0" d="M788.9,65.2v654.6c0,12.3-8.6,19.6-19.6,19.6H33.1c-11,0-19.6-7-19.6-19.6V65.2c0-12.8,8.6-19.6,19.6-19.6
		h736.2C780.2,45.6,788.9,52.7,788.9,65.2"/>
	<path fill="#94A4A5" d="M677.6,72.3c7.8,0,14.2,6.4,14.2,14.2s-6.3,14.2-14.2,14.2c-7.9,0-14.2-6.3-14.2-14.2
		C663.4,78.7,669.7,72.3,677.6,72.3 M722.1,72.3c7.8,0,14.2,6.4,14.2,14.2s-6.4,14.2-14.2,14.2c-7.8,0-14.2-6.3-14.2-14.2
		C707.9,78.7,714.3,72.3,722.1,72.3z M633,72.3c7.8,0,14.2,6.4,14.2,14.2s-6.3,14.2-14.2,14.2c-7.8,0-14.2-6.4-14.2-14.2
		S625.2,72.3,633,72.3z"/>
	
		<text transform="matrix(1 0 0 1 186.0015 82.2969)" fill="#93A2A3" font-family="'NexaBold'" font-size="44.0749" letter-spacing="2">ARTICLE</text>
</g>
<g id="Body">
	<path fill="#BCC2C6" d="M28.4,125.6h744.9c7.3,0,14,3,18.8,7.8c4.8,4.8,7.8,11.5,7.8,18.9v573.2c0,7.3-3,14-7.8,18.8
		c-4.8,4.8-11.5,7.8-18.8,7.8H28.4c-7.3,0-14-3-18.8-7.8c-4.8-4.8-7.8-11.5-7.8-18.8V152.3c0-7.3,3-14,7.8-18.9
		C14.4,128.6,21.1,125.6,28.4,125.6"/>
	<path fill="#FFFFFF" d="M28.4,136.7c-4.1,0-8,1.7-11,4.6c-2.9,2.9-4.6,6.8-4.6,11v573.2c0,4.1,1.7,8,4.6,11c2.9,2.9,6.8,4.6,11,4.6
		h744.9c4.1,0,8-1.6,11-4.6c2.9-2.9,4.6-6.8,4.6-11V152.3c0-4.1-1.6-8-4.6-11c-2.9-2.9-6.8-4.6-11-4.6H28.4z"/>
	<polygon fill="#34495E" points="92.6,197.4 284.4,197.4 292.9,197.4 292.9,205.9 292.9,397.6 292.9,406.1 284.4,406.1 92.6,406.1 
		84.1,406.1 84.1,397.6 84.1,205.9 84.1,197.4 	"/>
	<rect x="94.5" y="207.7" fill="#22A6EF" width="188" height="188"/>
	<path opacity="0.15" enable-background="new    " d="M247.5,276.1c-2.1-2.1-4.9-3.3-8-3.3s-6,1.3-8,3.3c-2.1,2.1-3.3,4.9-3.3,8
		s1.3,6,3.3,8c2.1,2.1,4.9,3.3,8,3.3s6-1.3,8-3.3c2.1-2.1,3.3-4.9,3.3-8S249.6,278.2,247.5,276.1 M239.5,263.4
		c5.7,0,10.9,2.3,14.7,6.1l0,0c3.7,3.8,6.1,8.9,6.1,14.6c0,5.7-2.3,10.9-6.1,14.6l0,0c-3.8,3.7-8.9,6.1-14.7,6.1
		c-5.7,0-10.9-2.3-14.7-6.1c-3.7-3.8-6.1-8.9-6.1-14.7c0-5.7,2.3-10.9,6.1-14.6l0,0C228.6,265.7,233.8,263.4,239.5,263.4z
		 M229.5,314.2L229.5,314.2l0.1,0.2l2.6,3.5l0,0l15.7,21.4c1.1,1.5,1.6,3.1,1.6,4.5l0,0c0,1.1-0.3,2.2-0.8,3.1s-1.1,1.6-1.9,2.2
		c-1.3,1-3,1.5-4.6,1.5l0,0h-39.6h-75.7c-1.8,0-3.4-0.5-4.6-1.4c-0.8-0.6-1.5-1.4-2-2.3l0,0c-0.4-0.9-0.7-1.9-0.7-3l0,0
		c0-1.6,0.6-3.2,1.7-4.8l16.6-22.5l0,0l1.5-2l0.2-0.2l0,0l20.5-27.2c0.7-1,1.5-1.8,2.4-2.4c1.6-1.2,3.4-1.8,5.2-1.8
		c1.8,0,3.5,0.6,5.1,1.8c0.9,0.6,1.6,1.4,2.4,2.4l19.6,26l9.5-12.6c0.7-0.9,1.5-1.8,2.4-2.4c1.6-1.2,3.3-1.8,5.1-1.8
		c1.8,0,3.5,0.6,5.1,1.8c0.8,0.6,1.6,1.4,2.4,2.4L229.5,314.2L229.5,314.2z M237.8,341.3L222,319.8l-0.7-0.9l-9.7-12.9l0,0l0,0
		l-10.9,14.5l-2.3,3l-3.7,5l-3.7-5l-2.3-3l-21-28l0,0l0,0L147.8,319l-0.6,0.8l-15.8,21.5h71.4H237.8z"/>
	<path fill="#34495E" d="M236.6,254.7c5.7,0,10.9,2.3,14.6,6.1l0,0c3.7,3.7,6.1,8.9,6.1,14.6c0,5.7-2.3,10.9-6.1,14.6l0,0
		c-3.7,3.8-8.9,6.1-14.6,6.1c-5.7,0-10.9-2.3-14.7-6.1c-3.7-3.7-6.1-8.9-6.1-14.7c0-5.7,2.3-10.9,6.1-14.6l0,0
		C225.7,257.1,230.8,254.7,236.6,254.7 M226.6,305.6L226.6,305.6l0.1,0.2l2.6,3.5l0,0l15.7,21.4c1.1,1.5,1.6,3.1,1.6,4.5l0,0
		c0,1.1-0.3,2.2-0.8,3.1c-0.5,0.9-1.1,1.6-1.9,2.2c-1.3,1-3,1.5-4.6,1.5l0,0h-39.5H124c-1.8,0-3.4-0.5-4.6-1.4
		c-0.8-0.6-1.5-1.4-2-2.3l0,0c-0.4-0.9-0.7-1.9-0.7-2.9l0,0c0-1.6,0.5-3.2,1.7-4.8l16.6-22.5l0,0l1.5-2l0.2-0.3l0,0l0,0l20.5-27.2
		c0.7-1,1.5-1.8,2.3-2.4c1.6-1.2,3.4-1.8,5.2-1.8c1.8,0,3.5,0.6,5.1,1.8c0.8,0.6,1.6,1.4,2.3,2.4l19.6,26l9.5-12.6
		c0.7-1,1.5-1.8,2.3-2.4c1.6-1.2,3.3-1.8,5.1-1.8c1.8,0,3.6,0.6,5.2,1.8c0.8,0.6,1.6,1.4,2.4,2.4L226.6,305.6L226.6,305.6z"/>
	<path fill="#39D4FF" d="M227.6,266.4L227.6,266.4c-2.5,2.5-3.8,5.7-3.8,9.1s1.3,6.6,3.7,9s5.6,3.7,9,3.7s6.5-1.3,8.9-3.7l0.1-0.1
		c2.4-2.4,3.7-5.6,3.7-9s-1.3-6.6-3.7-8.9l-0.1-0.1c-2.4-2.4-5.6-3.7-9-3.7C233.2,262.7,230,264,227.6,266.4 M125.8,333.9h74h37.8
		l-17.2-23.4l-10.5-14c-0.2-0.3-0.5-0.6-0.8-0.8l-0.3-0.2c-0.1,0-0.3,0.1-0.3,0.2c-0.3,0.2-0.5,0.5-0.8,0.8l-15.9,21.1l-25.9-34.5
		c-0.2-0.3-0.5-0.6-0.8-0.8c-0.1-0.1-0.3-0.2-0.4-0.2c-0.1,0-0.3,0.1-0.3,0.2c-0.3,0.2-0.5,0.5-0.8,0.8L143,310.5L125.8,333.9z"/>
	<polygon fill="#34495E" points="517.4,471.6 709.2,471.6 717.7,471.6 717.7,480.1 717.7,671.9 717.7,680.4 709.2,680.4 
		517.4,680.4 508.9,680.4 508.9,671.9 508.9,480.1 508.9,471.6 	"/>
	<rect x="519.3" y="482" fill="#22A6EF" width="188" height="188"/>
	<path opacity="0.15" enable-background="new    " d="M672.3,550.3c-2.1-2-4.9-3.3-8-3.3c-3.1,0-6,1.3-8,3.3
		c-2.1,2.1-3.3,4.9-3.3,8.1c0,3.1,1.3,6,3.3,8c2.1,2.1,4.9,3.3,8,3.3c3.1,0,6-1.3,8-3.3c2.1-2.1,3.3-4.9,3.3-8.1
		C675.7,555.2,674.4,552.4,672.3,550.3 M664.3,537.6c5.7,0,10.9,2.3,14.7,6.1l0,0c3.7,3.7,6.1,8.9,6.1,14.6s-2.3,10.9-6.1,14.6l0,0
		c-3.8,3.8-8.9,6.1-14.7,6.1c-5.7,0-10.9-2.3-14.7-6.1c-3.7-3.7-6.1-8.9-6.1-14.7c0-5.7,2.3-10.9,6.1-14.6l0,0
		C653.4,540,658.6,537.6,664.3,537.6z M654.3,588.5L654.3,588.5l0.1,0.2l2.6,3.5l0,0l15.7,21.4c1.1,1.5,1.6,3.1,1.6,4.5l0,0
		c0,1.1-0.3,2.2-0.8,3.1c-0.5,0.9-1.1,1.6-1.9,2.2c-1.3,0.9-3,1.5-4.6,1.5l0,0h-39.6h-75.7c-1.8,0-3.4-0.5-4.6-1.4
		c-0.8-0.6-1.5-1.4-2-2.3l0,0c-0.4-0.9-0.7-1.9-0.7-2.9l0,0c0-1.6,0.5-3.2,1.7-4.8l16.6-22.5l0,0l1.5-2l0.2-0.3l0,0l0,0l20.5-27.2
		c0.7-1,1.5-1.8,2.4-2.4c1.6-1.2,3.4-1.8,5.2-1.8s3.5,0.6,5.1,1.8c0.8,0.6,1.6,1.4,2.4,2.4l19.6,26l9.5-12.6c0.7-1,1.5-1.7,2.3-2.4
		c1.6-1.2,3.3-1.8,5.1-1.8s3.5,0.6,5.1,1.8c0.8,0.6,1.6,1.4,2.4,2.4L654.3,588.5L654.3,588.5z M662.6,615.5L646.8,594l-0.7-0.9
		l-9.7-12.9l0,0l0,0l-10.9,14.5l-2.3,3l-3.7,5l-3.7-5l-2.3-3l-21-28l0,0l0,0l-19.9,26.4L572,594l-15.8,21.5h71.4H662.6z"/>
	<path fill="#34495E" d="M661.4,529c5.7,0,10.9,2.3,14.6,6.1l0,0c3.8,3.8,6.1,8.9,6.1,14.6s-2.3,10.9-6.1,14.6l0,0
		c-3.7,3.8-8.9,6.1-14.6,6.1c-5.7,0-10.9-2.3-14.7-6.1s-6.1-8.9-6.1-14.7c0-5.8,2.3-10.9,6.1-14.6l0,0
		C650.5,531.3,655.6,529,661.4,529 M651.4,579.8L651.4,579.8l0.1,0.2l2.6,3.5l0,0l15.7,21.4c1.1,1.5,1.6,3.1,1.6,4.5l0,0
		c0,1.2-0.3,2.2-0.8,3.1s-1.1,1.6-1.9,2.2c-1.3,1-3,1.5-4.6,1.5l0,0h-39.6h-75.7c-1.8,0-3.4-0.5-4.6-1.4c-0.8-0.6-1.5-1.4-2-2.3l0,0
		c-0.4-0.9-0.7-1.9-0.7-2.9l0,0c0-1.6,0.6-3.2,1.7-4.8l16.6-22.5l0,0l1.5-2l0.2-0.2l0,0l0,0l20.5-27.2c0.7-1,1.5-1.8,2.4-2.4
		c1.6-1.2,3.3-1.8,5.2-1.8c1.9,0,3.5,0.6,5.1,1.8c0.8,0.6,1.6,1.4,2.3,2.4l19.6,26l9.5-12.6c0.7-1,1.5-1.8,2.3-2.4
		c1.6-1.2,3.3-1.8,5.1-1.8s3.6,0.6,5.2,1.8c0.8,0.6,1.6,1.4,2.3,2.4L651.4,579.8L651.4,579.8z"/>
	<path fill="#39D4FF" d="M652.4,540.6L652.4,540.6c-2.5,2.5-3.8,5.7-3.8,9.1c0,3.4,1.3,6.6,3.7,9c2.4,2.4,5.6,3.7,9,3.7
		c3.4,0,6.5-1.3,8.9-3.7l0.1-0.1c2.4-2.4,3.7-5.6,3.7-9c0-3.4-1.3-6.6-3.7-8.9l-0.1-0.1c-2.4-2.4-5.6-3.7-9-3.7
		C658,536.9,654.8,538.3,652.4,540.6 M550.6,608.2h74h37.8l-17.2-23.4l-10.5-14c-0.2-0.3-0.5-0.6-0.8-0.8c-0.1,0-0.3-0.2-0.3-0.2
		c-0.1,0-0.3,0.1-0.3,0.2c-0.3,0.2-0.5,0.5-0.8,0.8l-15.9,21.1l-25.9-34.5c-0.2-0.3-0.5-0.6-0.8-0.8c-0.1,0-0.3-0.2-0.3-0.2
		c-0.1,0-0.3,0.1-0.3,0.2c-0.3,0.2-0.5,0.5-0.8,0.8l-20.6,27.4L550.6,608.2z"/>
	<path fill="#BCC2C6" d="M358.4,275.6h351.8c4.1,0,7.5,3.3,7.5,7.5l0,0c0,4.1-3.4,7.5-7.5,7.5H358.4c-4.1,0-7.4-3.4-7.4-7.5l0,0
		C350.9,278.9,354.3,275.6,358.4,275.6"/>
	<path fill="#BCC2C6" d="M358.4,313h351.8c4.1,0,7.5,3.4,7.5,7.5s-3.4,7.5-7.5,7.5H358.4c-4.1,0-7.4-3.4-7.4-7.5
		C350.9,316.4,354.3,313,358.4,313"/>
	<path fill="#BCC2C6" d="M358.4,350.5h168.5c4.1,0,7.5,3.3,7.5,7.5c0,4.1-3.4,7.5-7.5,7.5H358.4c-4.1,0-7.4-3.4-7.4-7.5
		C350.9,353.8,354.3,350.5,358.4,350.5"/>
	<path fill="#BCC2C6" d="M358.4,238.1h351.8c4.1,0,7.5,3.3,7.5,7.4l0,0c0,4.1-3.4,7.5-7.5,7.5H358.4c-4.1,0-7.4-3.4-7.4-7.5l0,0
		C350.9,241.4,354.3,238.1,358.4,238.1"/>
	<path fill="#BCC2C6" d="M443.4,549.8H91.5c-4.1,0-7.5,3.3-7.5,7.4l0,0c0,4.1,3.4,7.5,7.5,7.5h351.8c4.1,0,7.4-3.3,7.4-7.5l0,0
		C450.8,553.1,447.5,549.8,443.4,549.8"/>
	<path fill="#BCC2C6" d="M443.4,587.2H91.5c-4.1,0-7.5,3.4-7.5,7.5l0,0c0,4.1,3.4,7.5,7.5,7.5h351.8c4.1,0,7.4-3.3,7.4-7.5l0,0
		C450.8,590.6,447.5,587.2,443.4,587.2"/>
	<path fill="#BCC2C6" d="M443.4,624.7H274.9c-4.1,0-7.4,3.3-7.4,7.4l0,0c0,4.1,3.4,7.5,7.4,7.5h168.5c4.1,0,7.4-3.3,7.4-7.5l0,0
		C450.8,628.1,447.5,624.7,443.4,624.7"/>
	<path fill="#BCC2C6" d="M443.4,512.3H91.5c-4.1,0-7.5,3.3-7.5,7.5l0,0c0,4.1,3.4,7.4,7.5,7.4h351.8c4.1,0,7.4-3.4,7.4-7.4l0,0
		C450.8,515.7,447.5,512.3,443.4,512.3"/>
	<polygon fill="#34495E" points="517.4,471.1 709.2,471.1 717.7,471.1 717.7,479.6 717.7,671.4 717.7,679.9 709.2,679.9 
		517.4,679.9 508.9,679.9 508.9,671.4 508.9,479.6 508.9,471.1 	"/>
	<rect x="519.3" y="481.5" fill="#F65C4C" width="188" height="188"/>
	<path fill="#D63C2C" d="M646,592.3l-18.4,10.6l0,0l-18.4,10.6c-2.6,1.5-5.1,2.2-7.3,2.2c-2,0-3.8-0.5-5.4-1.5
		c-1.6-0.9-2.9-2.3-3.9-4c-1.2-2-1.8-4.6-1.8-7.4v-21.2v-21.3c0-2.9,0.7-5.4,1.8-7.4c1-1.7,2.4-3.1,4-4c1.6-0.9,3.4-1.4,5.3-1.4
		c2.3,0,4.8,0.7,7.3,2.1l0,0l18.4,10.6l18.4,10.6l0,0c2.5,1.5,4.4,3.3,5.5,5.3c1,1.7,1.5,3.5,1.5,5.4c0,1.8-0.5,3.6-1.5,5.3
		C650.3,589,648.4,590.9,646,592.3"/>
	<path fill="#34495E" d="M642.3,586.1l-18.4,10.6l0,0l-18.4,10.6c-2.6,1.5-5.1,2.2-7.3,2.2c-2,0-3.8-0.5-5.4-1.5
		c-1.6-0.9-2.9-2.3-3.9-3.9c-1.2-2-1.8-4.6-1.8-7.4v-21.3v-21.3c0-2.9,0.7-5.4,1.8-7.4c1-1.7,2.4-3.1,4-4c1.6-0.9,3.4-1.4,5.3-1.4
		c2.3,0,4.8,0.7,7.3,2.2l0,0l18.4,10.6l18.4,10.6l0,0c2.5,1.5,4.4,3.3,5.5,5.3c1,1.7,1.5,3.6,1.5,5.4c0,1.8-0.5,3.6-1.5,5.3
		C646.6,582.9,644.8,584.7,642.3,586.1"/>
	<path fill="#FFFFFF" d="M638,578.7c0.9-0.5,1.9-1.2,2.4-2.2c0.2-0.3,0.3-0.7,0.3-1.1c0-0.4-0.1-0.7-0.3-1c-0.5-0.9-1.5-1.6-2.4-2.2
		l-18.4-10.6L601.2,551c-0.9-0.5-2-1-3-1c-0.4,0-0.8,0.1-1.1,0.3c-0.3,0.2-0.6,0.5-0.7,0.8c-0.5,0.9-0.7,2.1-0.7,3.1v42.5
		c0,1,0.2,2.2,0.7,3.1c0.2,0.3,0.4,0.6,0.8,0.8c0.3,0.2,0.7,0.3,1,0.3c1,0,2.2-0.5,3.1-1L638,578.7z"/>
	<path fill="#34495E" d="M613.3,509c-36.7,0-66.6,29.8-66.6,66.6c0,36.8,29.8,66.6,66.6,66.6s66.6-29.8,66.6-66.6
		C679.8,538.8,650,509,613.3,509z M613.3,633.6c-32,0-58-25.9-58-58c0-32.1,26-58,58-58s58,26,58,58S645.3,633.6,613.3,633.6z"/>
</g>
</svg>
