<?xml version="1.0" encoding="utf-8"?>
<!-- Generator: Adobe Illustrator 15.1.0, SVG Export Plug-In . SVG Version: 6.00 Build 0)  -->
<!DOCTYPE svg PUBLIC "-//W3C//DTD SVG 1.0//EN" "http://www.w3.org/TR/2001/REC-SVG-20010904/DTD/svg10.dtd">
<svg version="1.0" id="Layer_1" xmlns="http://www.w3.org/2000/svg" xmlns:xlink="http://www.w3.org/1999/xlink" x="0px" y="0px"
	 width="800px" height="800px" viewBox="0 0 800 800" enable-background="new 0 0 800 800" xml:space="preserve">
<g id="Header">
	<path fill="#BCC2C6" d="M33.1,34.5h736.2c8.5,0,16.1,3.5,21.7,9l0,0c5.6,5.6,9,13.2,9,21.7v654.6c0,8.4-3.5,16.1-9,21.7l0,0
		c-5.6,5.6-13.2,9-21.7,9H33.1c-8.5,0-16.1-3.5-21.7-9l0,0c-5.6-5.6-9-13.2-9-21.7V65.2c0-8.4,3.5-16.1,9-21.7l0,0
		C16.9,38,24.6,34.5,33.1,34.5"/>
	<path fill="#EBEFF0" d="M788.9,65.2v654.6c0,12.3-8.6,19.6-19.6,19.6H33.1c-11,0-19.6-7-19.6-19.6V65.2c0-12.8,8.6-19.6,19.6-19.6
		h736.2C780.2,45.6,788.9,52.7,788.9,65.2"/>
	<path fill="#94A4A5" d="M677.6,72.3c7.8,0,14.2,6.4,14.2,14.2s-6.3,14.2-14.2,14.2c-7.9,0-14.2-6.3-14.2-14.2
		C663.4,78.7,669.7,72.3,677.6,72.3 M722.1,72.3c7.8,0,14.2,6.4,14.2,14.2s-6.4,14.2-14.2,14.2c-7.8,0-14.2-6.3-14.2-14.2
		C707.9,78.7,714.3,72.3,722.1,72.3z M633,72.3c7.8,0,14.2,6.4,14.2,14.2s-6.3,14.2-14.2,14.2c-7.8,0-14.2-6.4-14.2-14.2
		S625.2,72.3,633,72.3z"/>
	
		<text transform="matrix(1 0 0 1 174.0015 84.2969)" fill="#93A2A3" font-family="'NexaBold'" font-size="44.0749" letter-spacing="2">ARTICLE</text>
</g>
<g id="Body">
	<path fill="#BCC2C6" d="M28.9,121.6H773c7.3,0,14,3,18.8,7.8c4.8,4.8,7.8,11.5,7.8,18.8v572.6c0,7.3-3,14-7.8,18.8
		c-4.8,4.8-11.5,7.8-18.8,7.8H28.9c-7.3,0-14-3-18.8-7.8c-4.8-4.8-7.8-11.5-7.8-18.8V148.2c0-7.3,3-14,7.8-18.8
		C14.9,124.5,21.6,121.6,28.9,121.6"/>
	<path fill="#FFFFFF" d="M28.9,132.7c-4.1,0-8,1.6-10.9,4.6c-2.9,2.9-4.6,6.8-4.6,11v572.6c0,4.1,1.6,8,4.6,10.9
		c2.9,2.9,6.8,4.6,10.9,4.6H773c4.1,0,8-1.6,10.9-4.6c2.9-2.9,4.6-6.8,4.6-10.9V148.2c0-4.1-1.7-8-4.6-11c-2.9-2.9-6.8-4.6-10.9-4.6
		H28.9V132.7z"/>
	<rect x="80.5" y="187.6" fill="#34495E" width="265.1" height="226.1"/>
	<rect x="91.7" y="198.7" fill="#22A6EF" width="242.8" height="203.8"/>
	<path fill="#BCC2C6" d="M88,497.6h250.2c4.1,0,7.4,3.3,7.4,7.4l0,0c0,4.1-3.3,7.4-7.4,7.4H88c-4.1,0-7.4-3.3-7.4-7.4l0,0
		C80.5,501,83.9,497.6,88,497.6"/>
	<path fill="#BCC2C6" d="M88,535h250.2c4.1,0,7.4,3.3,7.4,7.4l0,0c0,4.1-3.3,7.4-7.4,7.4H88c-4.1,0-7.4-3.3-7.4-7.4l0,0
		C80.5,538.4,83.9,535,88,535"/>
	<path fill="#BCC2C6" d="M88,572.5h117.7c4.1,0,7.5,3.3,7.5,7.4l0,0c0,4.1-3.4,7.4-7.5,7.4H88c-4.1,0-7.4-3.3-7.4-7.4l0,0
		C80.5,575.8,83.9,572.5,88,572.5"/>
	<path fill="#BCC2C6" d="M88,460.2h250.2c4.1,0,7.4,3.4,7.4,7.4l0,0c0,4.1-3.3,7.4-7.4,7.4H88c-4.1,0-7.4-3.3-7.4-7.4l0,0
		C80.5,463.5,83.9,460.2,88,460.2"/>
	<path opacity="0.15" enable-background="new    " d="M278.1,271.7c-2.3-2.3-5.4-3.7-8.9-3.7s-6.6,1.4-8.9,3.7
		c-2.3,2.3-3.6,5.4-3.6,8.9s1.4,6.6,3.7,8.9c2.3,2.3,5.4,3.7,8.9,3.7s6.6-1.4,8.9-3.7c2.3-2.3,3.6-5.4,3.6-8.9
		S280.4,273.9,278.1,271.7 M269.3,257.7c6.3,0,12,2.6,16.1,6.7l0,0c4.1,4.1,6.7,9.9,6.7,16.1s-2.6,12-6.7,16.1l0,0
		c-4.1,4.1-9.8,6.7-16.1,6.7c-6.3,0-12-2.6-16.2-6.7c-4.1-4.1-6.7-9.9-6.7-16.2c0-6.3,2.6-12,6.7-16.1l0,0
		C257.3,260.3,263,257.7,269.3,257.7z M258.3,313.7L258.3,313.7l0.2,0.2l2.9,3.9h-0.1l17.4,23.6c1.2,1.7,1.8,3.4,1.8,5l0,0
		c0,1.3-0.3,2.4-0.9,3.4c-0.5,0.9-1.2,1.8-2.1,2.4c-1.4,1.1-3.3,1.6-5.1,1.6l0,0h-43.6h-83.5c-2,0-3.8-0.6-5.1-1.6
		c-0.9-0.7-1.7-1.5-2.2-2.6l0,0c-0.5-1-0.7-2.1-0.7-3.3l0,0c0-1.7,0.6-3.6,1.9-5.3l18.3-24.8l0,0l1.7-2.2l0.2-0.3l0,0l22.6-30
		c0.8-1.1,1.7-1.9,2.6-2.6c1.8-1.3,3.7-2,5.7-2s3.9,0.7,5.6,2c0.9,0.7,1.8,1.6,2.6,2.6l21.6,28.7l10.4-13.9c0.8-1,1.7-1.9,2.6-2.6
		c1.7-1.3,3.6-2,5.7-2c2,0,3.9,0.6,5.7,2c0.9,0.7,1.8,1.6,2.6,2.6L258.3,313.7L258.3,313.7z M267.5,343.5L250,319.8l-0.7-1
		l-10.7-14.2l0,0l0,0l-12,16L224,324l-4.1,5.5l-4.1-5.5l-2.5-3.3l-23.2-30.8l0,0l0,0L168.2,319l-0.6,0.9l-17.4,23.7h78.6
		L267.5,343.5z"/>
	<path fill="#34495E" d="M266.1,247.5c6.3,0,12,2.6,16.1,6.7l0,0c4.1,4.1,6.7,9.8,6.7,16.1c0,6.3-2.6,12-6.7,16.1l0,0
		c-4.1,4.1-9.9,6.7-16.1,6.7c-6.3,0-12-2.6-16.2-6.7c-4.1-4.1-6.7-9.9-6.7-16.2c0-6.3,2.6-12,6.7-16.1l0,0
		C254.1,250.1,259.8,247.5,266.1,247.5 M255.1,303.5L255.1,303.5l0.2,0.2l2.9,3.9l0,0l17.3,23.6c1.2,1.7,1.8,3.4,1.8,5l0,0
		c0,1.3-0.3,2.4-0.9,3.4c-0.5,0.9-1.3,1.8-2.1,2.4c-1.4,1-3.3,1.6-5.1,1.6l0,0h-43.6h-83.5c-2,0-3.7-0.6-5.1-1.6
		c-0.9-0.7-1.7-1.6-2.2-2.6l0,0c-0.5-1-0.7-2.1-0.7-3.3l0,0c0-1.7,0.6-3.6,1.9-5.3l18.3-24.8l0,0l1.7-2.2l0.2-0.3l0,0v-0.1l22.6-30
		c0.8-1.1,1.7-1.9,2.6-2.6c1.8-1.3,3.7-2,5.7-2s3.9,0.7,5.6,2c0.9,0.7,1.8,1.6,2.6,2.6l21.6,28.7l10.4-13.9c0.8-1,1.7-1.9,2.6-2.6
		c1.7-1.3,3.6-2,5.7-2c2,0,3.9,0.6,5.7,2c0.9,0.7,1.8,1.6,2.6,2.6L255.1,303.5L255.1,303.5z"/>
	<path fill="#39D4FF" d="M266.1,255.8c-3.9,0-7.5,1.5-10.3,4.3l0,0c-2.7,2.7-4.2,6.4-4.2,10.2c0,3.9,1.5,7.5,4.2,10.3
		c2.7,2.7,6.4,4.3,10.3,4.3s7.5-1.5,10.3-4.3l0,0c2.7-2.7,4.2-6.4,4.2-10.2c0-3.9-1.5-7.5-4.2-10.2l-0.1-0.1
		C273.6,257.3,269.9,255.8,266.1,255.8 M143,335.3h82.5h42.6l-19.5-26.6L237,293.3c-0.3-0.3-0.6-0.7-0.9-1c-0.2-0.1-0.4-0.3-0.6-0.3
		c-0.3,0-0.5,0.2-0.7,0.3c-0.4,0.3-0.7,0.6-0.9,1L216.7,316l-28.2-37.5c-0.3-0.4-0.6-0.7-0.9-1c-0.2-0.1-0.4-0.3-0.7-0.3
		c-0.3,0-0.5,0.2-0.7,0.3c-0.3,0.3-0.7,0.6-0.9,1l-22.7,30.2L143,335.3z"/>
	<path fill="#BCC2C6" d="M463.8,237.5H714c4.1,0,7.4,3.4,7.4,7.4c0,4.1-3.3,7.5-7.4,7.5H463.8c-4.1,0-7.4-3.3-7.4-7.5
		C456.3,240.9,459.7,237.5,463.8,237.5"/>
	<path fill="#BCC2C6" d="M463.8,274.9H714c4.1,0,7.4,3.4,7.4,7.5s-3.3,7.4-7.4,7.4H463.8c-4.1,0-7.4-3.3-7.4-7.4
		C456.3,278.3,459.7,274.9,463.8,274.9"/>
	<path fill="#BCC2C6" d="M463.8,200.1H714c4.1,0,7.4,3.3,7.4,7.4s-3.3,7.5-7.4,7.5H463.8c-4.1,0-7.4-3.4-7.4-7.5
		C456.3,203.4,459.7,200.1,463.8,200.1"/>
	<path fill="#BCC2C6" d="M463.8,312.4H714c4.1,0,7.4,3.3,7.4,7.4l0,0c0,4.1-3.3,7.4-7.4,7.4H463.8c-4.1,0-7.4-3.3-7.4-7.4l0,0
		C456.3,315.7,459.7,312.4,463.8,312.4"/>
	<path fill="#BCC2C6" d="M463.8,349.8H714c4.1,0,7.4,3.3,7.4,7.4l0,0c0,4.1-3.3,7.4-7.4,7.4H463.8c-4.1,0-7.4-3.3-7.4-7.4l0,0
		C456.3,353.1,459.7,349.8,463.8,349.8"/>
	<path fill="#BCC2C6" d="M463.8,387.2H714c4.1,0,7.4,3.3,7.4,7.4l0,0c0,4.1-3.3,7.4-7.4,7.4H463.8c-4.1,0-7.4-3.3-7.4-7.4l0,0
		C456.3,390.6,459.7,387.2,463.8,387.2"/>
	<rect x="456.3" y="455.3" fill="#34495E" width="265.1" height="226.1"/>
	<rect x="467.5" y="466.5" fill="#22A6EF" width="242.8" height="203.8"/>
	<path opacity="0.15" enable-background="new    " d="M654,539.4c-2.3-2.3-5.4-3.7-8.9-3.7s-6.6,1.4-8.9,3.7
		c-2.3,2.3-3.7,5.4-3.7,8.9s1.4,6.6,3.7,8.9s5.4,3.7,8.8,3.7c3.5,0,6.6-1.4,8.9-3.7c2.3-2.3,3.7-5.4,3.7-8.9S656.2,541.7,654,539.4
		 M645.1,525.4c6.3,0,12,2.6,16.2,6.7l0,0c4.1,4.1,6.7,9.8,6.7,16.1s-2.6,12-6.7,16.1l0,0c-4.1,4.1-9.8,6.7-16.2,6.7
		c-6.3,0-12-2.6-16.1-6.7c-4.1-4.1-6.7-9.9-6.7-16.2c0-6.3,2.5-12,6.7-16.1l0,0C633.1,528,638.8,525.4,645.1,525.4z M634.2,581.4
		L634.2,581.4l0.2,0.2l2.9,3.9l0,0l17.4,23.6c1.2,1.7,1.8,3.4,1.8,5l0,0c0,1.3-0.3,2.4-0.9,3.4c-0.5,0.9-1.2,1.8-2.1,2.4
		c-1.4,1-3.3,1.6-5.1,1.6l0,0h-43.6h-83.5c-2,0-3.8-0.6-5.1-1.6c-0.9-0.7-1.7-1.6-2.2-2.6l0,0c-0.5-1-0.7-2.1-0.7-3.2l0,0
		c0-1.7,0.6-3.6,1.9-5.3l18.3-24.8l0,0l1.7-2.2l0.2-0.3l0,0l22.6-30c0.8-1.1,1.7-1.9,2.6-2.6c1.8-1.3,3.7-2,5.7-2s3.9,0.7,5.6,2
		c0.9,0.7,1.8,1.6,2.6,2.6l21.6,28.7l10.4-13.9c0.8-1.1,1.6-1.9,2.6-2.6c1.7-1.3,3.6-2,5.7-2c2,0,3.9,0.6,5.7,2
		c0.9,0.7,1.8,1.6,2.6,2.6L634.2,581.4L634.2,581.4z M643.3,611.2l-17.4-23.7l-0.7-1l-10.7-14.2l0,0l0,0l-12,16l-2.5,3.3l-4.1,5.5
		l-4.1-5.5l-2.5-3.3L566,557.6l0,0l0,0l-22,29l-0.6,0.9L526,611.2h78.6H643.3z"/>
	<path fill="#34495E" d="M641.9,515.2c6.3,0,12,2.6,16.2,6.7l0,0c4.1,4.1,6.7,9.8,6.7,16.1s-2.6,12-6.7,16.1l0,0
		c-4.1,4.1-9.8,6.7-16.2,6.7c-6.3,0-12-2.6-16.2-6.7c-4.1-4.1-6.7-9.8-6.7-16.2c0-6.3,2.6-12,6.7-16.1l0,0
		C629.9,517.8,635.6,515.2,641.9,515.2 M630.9,571.2L630.9,571.2l0.2,0.2l2.9,3.9l0,0l17.3,23.6c1.2,1.7,1.8,3.4,1.8,5l0,0
		c0,1.3-0.3,2.4-0.9,3.4c-0.5,0.9-1.3,1.8-2.1,2.4c-1.4,1-3.3,1.6-5.1,1.6l0,0h-43.6h-83.5c-2,0-3.7-0.6-5.1-1.6
		c-0.9-0.7-1.7-1.6-2.2-2.6l0,0c-0.5-1-0.7-2.1-0.7-3.2l0,0c0-1.7,0.6-3.6,1.9-5.3l18.3-24.8l0,0l1.7-2.2l0.2-0.3l0,0l0,0l22.6-30
		c0.8-1.1,1.7-1.9,2.6-2.6c1.8-1.3,3.7-2,5.7-2s3.9,0.7,5.6,2c0.9,0.7,1.8,1.6,2.6,2.6l21.6,28.7l10.3-14c0.8-1.1,1.7-1.9,2.6-2.6
		c1.7-1.3,3.6-2,5.7-2c2,0,3.9,0.6,5.7,2c0.9,0.7,1.8,1.6,2.6,2.6L630.9,571.2L630.9,571.2z"/>
	<path fill="#39D4FF" d="M641.9,523.5c-3.9,0-7.5,1.5-10.3,4.3l0,0c-2.7,2.7-4.2,6.4-4.2,10.2c0,3.9,1.5,7.5,4.2,10.3
		c2.7,2.7,6.4,4.2,10.3,4.2c3.9,0,7.5-1.5,10.3-4.3l0,0c2.7-2.7,4.2-6.4,4.2-10.2c0-3.9-1.5-7.5-4.2-10.2l-0.1-0.1
		C649.4,525.1,645.7,523.5,641.9,523.5 M518.9,603h82.5H644l-19.5-26.6L612.8,561c-0.3-0.4-0.6-0.7-0.9-1c-0.2-0.1-0.4-0.3-0.6-0.3
		s-0.5,0.2-0.7,0.3c-0.3,0.3-0.7,0.6-0.9,1l-17.1,22.7l-28.2-37.5c-0.3-0.4-0.6-0.7-0.9-1c-0.2-0.1-0.4-0.3-0.7-0.3
		s-0.5,0.2-0.6,0.3c-0.4,0.3-0.7,0.6-0.9,1l-22.7,30.2L518.9,603z"/>
</g>
</svg>
