<?xml version="1.0" encoding="utf-8"?>
<!-- Generator: Adobe Illustrator 15.1.0, SVG Export Plug-In . SVG Version: 6.00 Build 0)  -->
<!DOCTYPE svg PUBLIC "-//W3C//DTD SVG 1.0//EN" "http://www.w3.org/TR/2001/REC-SVG-20010904/DTD/svg10.dtd">
<svg version="1.0" id="Layer_1" xmlns="http://www.w3.org/2000/svg" xmlns:xlink="http://www.w3.org/1999/xlink" x="0px" y="0px"
	 width="800px" height="800px" viewBox="0 0 800 800" enable-background="new 0 0 800 800" xml:space="preserve">
<g id="Header">
	<path fill="#BCC2C6" d="M33.1,34.5h736.2c8.5,0,16.1,3.5,21.7,9v0c5.6,5.6,9,13.2,9,21.7v654.6c0,8.4-3.5,16.1-9,21.7v0
		c-5.6,5.6-13.2,9-21.7,9H33.1c-8.5,0-16.1-3.5-21.7-9v0c-5.6-5.6-9-13.2-9-21.7V65.2c0-8.4,3.5-16.1,9-21.7v0
		C16.9,38,24.6,34.5,33.1,34.5"/>
	<path fill="#EBEFF0" d="M788.9,65.2v654.6c0,12.3-8.6,19.6-19.6,19.6H33.1c-11,0-19.6-7-19.6-19.6V65.2c0-12.8,8.6-19.6,19.6-19.6
		h736.2C780.2,45.6,788.9,52.7,788.9,65.2"/>
	<path fill-rule="evenodd" clip-rule="evenodd" fill="#94A4A5" d="M677.6,72.3c7.8,0,14.2,6.4,14.2,14.2c0,7.8-6.3,14.2-14.2,14.2
		s-14.2-6.3-14.2-14.2C663.4,78.7,669.7,72.3,677.6,72.3 M722.1,72.3c7.8,0,14.2,6.4,14.2,14.2c0,7.8-6.4,14.2-14.2,14.2
		c-7.8,0-14.2-6.3-14.2-14.2C707.9,78.7,714.3,72.3,722.1,72.3z M633,72.3c7.8,0,14.2,6.4,14.2,14.2c0,7.8-6.3,14.2-14.2,14.2
		c-7.8,0-14.2-6.4-14.2-14.2C618.8,78.7,625.2,72.3,633,72.3z"/>
	
		<text transform="matrix(1 0 0 1 284.0015 99.2964)" fill="#93A2A3" font-family="'NexaBold'" font-size="44.0749" letter-spacing="3">ARTICLE</text>
</g>
<g id="Body">
	<path fill="#BCC2C6" d="M28.5,122h744.8c7.4,0,14,3,18.9,7.8c4.8,4.8,7.8,11.5,7.8,18.9v573.1c0,7.3-3,14-7.8,18.8
		c-4.8,4.8-11.5,7.8-18.9,7.8H28.5c-7.4,0-14-3-18.9-7.8c-4.8-4.8-7.8-11.5-7.8-18.8V148.7c0-7.3,3-14,7.8-18.9
		C14.5,125,21.1,122,28.5,122"/>
	<path fill-rule="evenodd" clip-rule="evenodd" fill="#FFFFFF" d="M28.5,133.1c-4.1,0-8.1,1.7-11,4.6c-2.9,2.9-4.6,6.8-4.6,11v573.1
		c0,4.1,1.7,8,4.6,11c2.9,2.9,6.8,4.6,11,4.6h744.8c4.1,0,8.1-1.6,11-4.6c2.9-2.9,4.6-6.8,4.6-11V148.7c0-4.1-1.6-8-4.6-11
		c-2.9-2.9-6.8-4.6-11-4.6H28.5z"/>
	<path fill-rule="evenodd" clip-rule="evenodd" fill="#BCC2C6" d="M95.9,507.2h250.4c4.1,0,7.5,3.3,7.5,7.4l0,0
		c0,4.1-3.4,7.5-7.5,7.5H95.9c-4.1,0-7.5-3.3-7.5-7.5l0,0C88.5,510.6,91.8,507.2,95.9,507.2"/>
	<path fill-rule="evenodd" clip-rule="evenodd" fill="#BCC2C6" d="M95.9,544.7h250.4c4.1,0,7.5,3.3,7.5,7.5l0,0
		c0,4.1-3.4,7.4-7.5,7.4H95.9c-4.1,0-7.5-3.3-7.5-7.4l0,0C88.5,548,91.8,544.7,95.9,544.7"/>
	<path fill-rule="evenodd" clip-rule="evenodd" fill="#BCC2C6" d="M95.9,582.1h117.8c4.1,0,7.4,3.4,7.4,7.5c0,4.1-3.3,7.5-7.4,7.5
		H95.9c-4.1,0-7.5-3.3-7.5-7.5C88.5,585.5,91.8,582.1,95.9,582.1"/>
	<path fill-rule="evenodd" clip-rule="evenodd" fill="#BCC2C6" d="M95.9,469.8h250.4c4.1,0,7.5,3.4,7.5,7.4v0c0,4.1-3.4,7.4-7.5,7.4
		H95.9c-4.1,0-7.5-3.3-7.5-7.4v0C88.5,473.1,91.8,469.8,95.9,469.8"/>
	<rect x="88.5" y="196.9" fill-rule="evenodd" clip-rule="evenodd" fill="#34495E" width="265.3" height="226.3"/>
	<rect x="99.6" y="208.1" fill="#22A6EF" width="243" height="204"/>
	<path opacity="0.15" d="M286.3,281.1c-2.3-2.3-5.4-3.7-8.9-3.7c-3.5,0-6.6,1.4-8.9,3.7c-2.3,2.3-3.7,5.4-3.7,8.9
		c0,3.5,1.4,6.6,3.7,8.9c2.3,2.3,5.4,3.7,8.9,3.7c3.5,0,6.6-1.4,8.9-3.7c2.2-2.3,3.7-5.4,3.7-8.9
		C289.9,286.5,288.5,283.4,286.3,281.1 M277.4,267.1c6.3,0,12,2.6,16.1,6.7l0,0c4.1,4.1,6.7,9.8,6.7,16.1c0,6.3-2.6,12-6.7,16.2h0
		c-4.1,4.1-9.9,6.7-16.1,6.7c-6.3,0-12-2.6-16.2-6.7c-4.1-4.1-6.7-9.8-6.7-16.2c0-6.3,2.6-12,6.7-16.1l0,0
		C265.4,269.7,271.1,267.1,277.4,267.1z M266.4,323.2L266.4,323.2l0.2,0.2l2.9,3.9l0,0l17.4,23.6c1.2,1.7,1.8,3.4,1.8,5h0
		c0,1.3-0.3,2.4-0.9,3.4c-0.5,0.9-1.2,1.8-2.1,2.4c-1.4,1-3.3,1.6-5.1,1.6v0l-43.6,0l-83.5,0c-2,0-3.8-0.6-5.1-1.6
		c-0.9-0.7-1.7-1.6-2.2-2.6h0c-0.5-1-0.7-2.1-0.7-3.2h0c0-1.7,0.6-3.6,1.9-5.3l18.3-24.9l0,0l1.7-2.2l0.2-0.3l0,0l0,0l22.6-30.1
		c0.8-1.1,1.7-1.9,2.6-2.6c1.8-1.3,3.7-2,5.7-2c2,0,3.9,0.7,5.6,2c0.9,0.7,1.8,1.6,2.6,2.6l21.6,28.7l10.4-13.9
		c0.8-1.1,1.7-1.9,2.6-2.6c1.7-1.3,3.7-2,5.7-2c2,0,3.9,0.6,5.7,2c0.9,0.7,1.8,1.6,2.6,2.6L266.4,323.2L266.4,323.2z M275.6,353
		l-17.4-23.7l-0.7-1l-10.7-14.2l0,0l0,0l-12.1,16l-2.5,3.3l-4.1,5.5l-4.1-5.5l-2.5-3.3l-23.2-30.8l0,0l0,0l-21.9,29.1l-0.6,0.9
		L158.1,353l78.7,0L275.6,353z"/>
	<path fill="#34495E" d="M274.2,256.9c6.3,0,12,2.6,16.1,6.7h0c4.1,4.1,6.7,9.9,6.7,16.1c0,6.3-2.6,12-6.7,16.2l0,0
		c-4.1,4.1-9.8,6.7-16.1,6.7c-6.3,0-12-2.6-16.2-6.7c-4.1-4.1-6.7-9.9-6.7-16.2c0-6.3,2.6-12,6.7-16.1h0
		C262.2,259.4,267.9,256.9,274.2,256.9 M263.2,312.9L263.2,312.9l0.2,0.2l2.9,3.9l0,0l17.4,23.6c1.2,1.7,1.8,3.4,1.8,5h0
		c0,1.3-0.3,2.4-0.9,3.4c-0.5,0.9-1.2,1.8-2.1,2.4c-1.4,1-3.3,1.6-5.1,1.6l0,0h-43.6h-83.5c-2,0-3.8-0.6-5.1-1.6
		c-0.9-0.7-1.6-1.5-2.2-2.6h0c-0.5-1-0.8-2.1-0.8-3.3l0,0c0-1.7,0.6-3.6,1.9-5.3l18.3-24.8l0,0l1.7-2.2l0.2-0.3l0,0l22.6-30
		c0.8-1.1,1.7-1.9,2.6-2.6c1.8-1.3,3.7-2,5.7-2c2,0,3.9,0.7,5.7,2c0.9,0.7,1.8,1.6,2.6,2.6l21.6,28.7l10.4-13.9
		c0.8-1.1,1.7-1.9,2.6-2.6c1.7-1.3,3.7-2,5.7-2c2,0,3.9,0.6,5.7,2c0.9,0.7,1.8,1.6,2.6,2.6L263.2,312.9L263.2,312.9z"/>
	<path fill-rule="evenodd" clip-rule="evenodd" fill="#39D4FF" d="M274.2,265.2c-3.9,0-7.5,1.5-10.3,4.3l0,0
		c-2.7,2.7-4.2,6.4-4.2,10.2c0,3.9,1.5,7.6,4.3,10.3c2.7,2.7,6.4,4.3,10.3,4.3c3.9,0,7.5-1.5,10.3-4.3l0,0c2.7-2.7,4.2-6.4,4.2-10.2
		c0-3.9-1.5-7.5-4.2-10.2l-0.1-0.1C281.7,266.7,278,265.2,274.2,265.2 M151,344.7l82.6,0l42.6,0l-19.6-26.6l-11.6-15.4
		c-0.3-0.3-0.6-0.7-0.9-1c-0.2-0.1-0.4-0.3-0.7-0.3c-0.2,0-0.5,0.2-0.7,0.3c-0.4,0.3-0.7,0.6-1,1l-17.1,22.7l-28.2-37.5
		c-0.3-0.3-0.6-0.7-0.9-1c-0.2-0.1-0.4-0.3-0.7-0.3c-0.2,0-0.5,0.2-0.7,0.3c-0.3,0.3-0.7,0.6-0.9,1l-22.7,30.2L151,344.7z"/>
	<rect x="448" y="196.9" fill-rule="evenodd" clip-rule="evenodd" fill="#34495E" width="265.3" height="226.3"/>
	<rect x="459.1" y="208.1" fill="#22A6EF" width="243" height="204"/>
	<path fill-rule="evenodd" clip-rule="evenodd" fill="#BCC2C6" d="M455.4,507.2h250.4c4.1,0,7.4,3.3,7.4,7.4l0,0
		c0,4.1-3.3,7.5-7.4,7.5H455.4c-4.1,0-7.5-3.3-7.5-7.5l0,0C448,510.6,451.3,507.2,455.4,507.2"/>
	<path fill-rule="evenodd" clip-rule="evenodd" fill="#BCC2C6" d="M455.4,544.7h250.4c4.1,0,7.4,3.3,7.4,7.5l0,0
		c0,4.1-3.3,7.4-7.4,7.4H455.4c-4.1,0-7.5-3.3-7.5-7.4l0,0C448,548,451.3,544.7,455.4,544.7"/>
	<path fill-rule="evenodd" clip-rule="evenodd" fill="#BCC2C6" d="M455.4,582.1h117.8c4.1,0,7.5,3.4,7.5,7.5c0,4.1-3.4,7.5-7.5,7.5
		H455.4c-4.1,0-7.5-3.3-7.5-7.5C448,585.5,451.3,582.1,455.4,582.1"/>
	<path fill-rule="evenodd" clip-rule="evenodd" fill="#BCC2C6" d="M455.4,469.8h250.4c4.1,0,7.4,3.4,7.4,7.4v0
		c0,4.1-3.3,7.4-7.4,7.4H455.4c-4.1,0-7.5-3.3-7.5-7.4v0C448,473.1,451.3,469.8,455.4,469.8"/>
	<path opacity="0.15" d="M645.8,281.1c-2.3-2.3-5.4-3.7-8.9-3.7c-3.5,0-6.6,1.4-8.9,3.7c-2.3,2.3-3.7,5.4-3.7,8.9
		c0,3.5,1.4,6.6,3.7,8.9c2.3,2.3,5.4,3.7,8.9,3.7c3.5,0,6.6-1.4,8.9-3.7c2.3-2.3,3.7-5.4,3.7-8.9C649.4,286.5,648,283.4,645.8,281.1
		 M636.9,267.1c6.3,0,12,2.6,16.1,6.7l0,0c4.1,4.1,6.7,9.8,6.7,16.1c0,6.3-2.6,12-6.7,16.2h0c-4.1,4.1-9.9,6.7-16.1,6.7
		c-6.3,0-12-2.6-16.2-6.7c-4.1-4.1-6.7-9.8-6.7-16.2c0-6.3,2.6-12,6.7-16.1l0,0C624.9,269.7,630.6,267.1,636.9,267.1z M625.9,323.2
		L625.9,323.2l0.2,0.2l2.9,3.9l0,0l17.4,23.6c1.3,1.7,1.8,3.4,1.8,5h0c0,1.3-0.3,2.4-0.9,3.4c-0.5,0.9-1.3,1.8-2.1,2.4
		c-1.4,1-3.3,1.6-5.1,1.6v0l-43.6,0l-83.6,0c-2,0-3.8-0.6-5.1-1.6c-0.9-0.7-1.7-1.6-2.2-2.6h0c-0.5-1-0.7-2.1-0.7-3.2h0
		c0-1.7,0.6-3.6,1.9-5.3l18.3-24.9v0l1.7-2.2l0.2-0.3l0,0l0,0l22.6-30.1c0.8-1.1,1.7-1.9,2.6-2.6c1.8-1.3,3.7-2,5.7-2
		c2,0,3.9,0.7,5.6,2c0.9,0.7,1.8,1.6,2.6,2.6l21.6,28.7l10.4-13.9c0.8-1.1,1.7-1.9,2.6-2.6c1.7-1.3,3.7-2,5.7-2c2,0,3.9,0.6,5.7,2
		c0.9,0.7,1.8,1.6,2.6,2.6L625.9,323.2L625.9,323.2z M635.1,353l-17.4-23.7l-0.7-1l-10.7-14.2l0,0l0,0l-12.1,16l-2.5,3.3l-4.1,5.5
		l-4.1-5.5l-2.5-3.3l-23.2-30.8l0,0l0,0l-21.9,29.1l-0.7,0.9L517.6,353l78.7,0L635.1,353z"/>
	<path fill="#34495E" d="M633.7,256.9c6.3,0,12,2.6,16.1,6.7h0c4.1,4.1,6.7,9.9,6.7,16.1c0,6.3-2.6,12-6.7,16.2l0,0
		c-4.1,4.1-9.9,6.7-16.1,6.7c-6.3,0-12-2.6-16.2-6.7c-4.1-4.1-6.7-9.9-6.7-16.2c0-6.3,2.6-12,6.7-16.1h0
		C621.7,259.4,627.4,256.9,633.7,256.9 M622.7,312.9L622.7,312.9l0.2,0.2l2.9,3.9l0,0l17.3,23.6c1.2,1.7,1.8,3.4,1.8,5h0
		c0,1.3-0.3,2.4-0.9,3.4c-0.5,0.9-1.2,1.8-2.1,2.4c-1.4,1-3.3,1.6-5.1,1.6l0,0h-43.6h-83.5c-2,0-3.8-0.6-5.1-1.6
		c-0.9-0.7-1.7-1.5-2.2-2.6h0c-0.5-1-0.7-2.1-0.7-3.3h0c0-1.7,0.6-3.6,1.9-5.3l18.3-24.8l0,0l1.7-2.2l0.2-0.3l0,0l22.6-30
		c0.8-1.1,1.7-1.9,2.6-2.6c1.8-1.3,3.7-2,5.7-2c2,0,3.9,0.7,5.6,2c0.9,0.7,1.8,1.6,2.6,2.6l21.6,28.7l10.4-13.9
		c0.8-1.1,1.7-1.9,2.6-2.6c1.7-1.3,3.7-2,5.7-2c2,0,3.9,0.6,5.7,2c0.9,0.7,1.8,1.6,2.6,2.6L622.7,312.9L622.7,312.9z"/>
	<path fill-rule="evenodd" clip-rule="evenodd" fill="#39D4FF" d="M633.7,265.2c-3.9,0-7.5,1.5-10.3,4.3l0,0
		c-2.7,2.7-4.2,6.4-4.2,10.2c0,3.9,1.5,7.6,4.3,10.3c2.7,2.7,6.4,4.3,10.3,4.3c3.9,0,7.5-1.5,10.3-4.3l0,0c2.7-2.7,4.2-6.4,4.2-10.2
		c0-3.9-1.5-7.5-4.2-10.2l-0.1-0.1C641.2,266.7,637.5,265.2,633.7,265.2 M510.5,344.7l82.6,0l42.6,0l-19.6-26.6l-11.6-15.4
		c-0.3-0.3-0.6-0.7-0.9-1c-0.2-0.1-0.4-0.3-0.6-0.3c-0.3,0-0.5,0.2-0.7,0.3c-0.4,0.3-0.7,0.6-0.9,1l-17.1,22.7L556,287.9
		c-0.3-0.3-0.6-0.7-0.9-1c-0.2-0.1-0.4-0.3-0.7-0.3c-0.3,0-0.5,0.2-0.7,0.3c-0.3,0.3-0.7,0.6-0.9,1l-22.7,30.2L510.5,344.7z"/>
</g>
</svg>
