<?xml version="1.0" encoding="utf-8"?>
<!-- Generator: Adobe Illustrator 15.1.0, SVG Export Plug-In . SVG Version: 6.00 Build 0)  -->
<!DOCTYPE svg PUBLIC "-//W3C//DTD SVG 1.0//EN" "http://www.w3.org/TR/2001/REC-SVG-20010904/DTD/svg10.dtd">
<svg version="1.0" id="Layer_1" xmlns="http://www.w3.org/2000/svg" xmlns:xlink="http://www.w3.org/1999/xlink" x="0px" y="0px"
	 width="800px" height="800px" viewBox="0 0 800 800" enable-background="new 0 0 800 800" xml:space="preserve">
<g id="Header">
	<path fill="#BCC2C6" d="M33.1,34.5h736.2c8.5,0,16.1,3.5,21.7,9l0,0c5.6,5.6,9,13.2,9,21.7v654.6c0,8.4-3.5,16.1-9,21.7l0,0
		c-5.6,5.6-13.2,9-21.7,9H33.1c-8.5,0-16.1-3.5-21.7-9l0,0c-5.6-5.6-9-13.2-9-21.7V65.2c0-8.4,3.5-16.1,9-21.7l0,0
		C16.9,38,24.6,34.5,33.1,34.5"/>
	<path fill="#EBEFF0" d="M788.9,65.2v654.6c0,12.3-8.6,19.6-19.6,19.6H33.1c-11,0-19.6-7-19.6-19.6V65.2c0-12.8,8.6-19.6,19.6-19.6
		h736.2C780.2,45.6,788.9,52.7,788.9,65.2"/>
	<path fill="#94A4A5" d="M677.6,72.3c7.8,0,14.2,6.4,14.2,14.2s-6.3,14.2-14.2,14.2c-7.9,0-14.2-6.3-14.2-14.2
		C663.4,78.7,669.7,72.3,677.6,72.3 M722.1,72.3c7.8,0,14.2,6.4,14.2,14.2s-6.4,14.2-14.2,14.2c-7.8,0-14.2-6.3-14.2-14.2
		C707.9,78.7,714.3,72.3,722.1,72.3z M633,72.3c7.8,0,14.2,6.4,14.2,14.2s-6.3,14.2-14.2,14.2c-7.8,0-14.2-6.4-14.2-14.2
		S625.2,72.3,633,72.3z"/>
	
		<text transform="matrix(1 0 0 1 177.0015 83.2969)" fill="#93A2A3" font-family="'NexaBold'" font-size="44.0749" letter-spacing="2">ARTICLE</text>
</g>
<g id="Body">
	<path fill="#BCC2C6" d="M26.8,121.5h746.1c7.4,0,14,3,18.9,7.8c4.8,4.8,7.9,11.5,7.9,18.9v574.1c0,7.4-3,14-7.9,18.9
		c-4.8,4.8-11.5,7.8-18.9,7.8H26.8c-7.4,0-14-3-18.9-7.8C3.1,736.4,0,729.7,0,722.3v-574c0-7.4,3-14,7.9-18.9S19.4,121.5,26.8,121.5
		"/>
	<path fill="#FFFFFF" d="M26.8,132.7c-4.1,0-8.1,1.6-11,4.6c-2.9,2.9-4.6,6.9-4.6,11v574.1c0,4.1,1.6,8.1,4.6,11
		c2.9,2.9,6.8,4.6,11,4.6h746.1c4.1,0,8.1-1.7,11-4.6c2.9-2.9,4.6-6.8,4.6-11V148.3c0-4.1-1.6-8.1-4.6-11c-2.9-2.9-6.9-4.6-11-4.6
		H26.8z"/>
	<rect x="84.2" y="204.5" fill="#34495E" width="265.8" height="226.7"/>
	<rect x="95.4" y="215.7" fill="#22A6EF" width="243.5" height="204.4"/>
	<path fill="#BCC2C6" d="M91.7,515.4H708c4.1,0,7.5,3.4,7.5,7.5l0,0c0,4.1-3.4,7.5-7.5,7.5H91.7c-4.1,0-7.5-3.4-7.5-7.5l0,0
		C84.2,518.7,87.6,515.4,91.7,515.4"/>
	<path fill="#BCC2C6" d="M91.7,552.9H708c4.1,0,7.5,3.3,7.5,7.5l0,0c0,4.1-3.4,7.5-7.5,7.5H91.7c-4.1,0-7.5-3.4-7.5-7.5l0,0
		C84.2,556.2,87.6,552.9,91.7,552.9"/>
	<path fill="#BCC2C6" d="M91.7,590.4h300.7c4.1,0,7.5,3.4,7.5,7.5l0,0c0,4.1-3.4,7.5-7.5,7.5H91.7c-4.1,0-7.5-3.4-7.5-7.5l0,0
		C84.2,593.8,87.6,590.4,91.7,590.4"/>
	<path fill="#BCC2C6" d="M91.7,477.8H708c4.1,0,7.5,3.4,7.5,7.5c0,4.1-3.4,7.5-7.5,7.5H91.7c-4.1,0-7.5-3.4-7.5-7.5
		C84.2,481.2,87.6,477.8,91.7,477.8"/>
	<path opacity="0.15" enable-background="new    " d="M282.4,288.8c-2.3-2.3-5.4-3.7-8.9-3.7s-6.6,1.4-8.9,3.7
		c-2.3,2.3-3.7,5.4-3.7,8.9s1.4,6.6,3.7,8.9c2.3,2.3,5.4,3.7,8.9,3.7s6.6-1.4,8.9-3.7c2.3-2.3,3.7-5.4,3.7-8.9
		C286,294.2,284.6,291.1,282.4,288.8 M273.5,274.8c6.3,0,12,2.6,16.2,6.7l0,0c4.1,4.1,6.7,9.9,6.7,16.2c0,6.3-2.6,12-6.7,16.2l0,0
		c-4.1,4.1-9.9,6.7-16.2,6.7s-12.1-2.6-16.2-6.7c-4.1-4.1-6.7-9.9-6.7-16.2c0-6.3,2.6-12,6.7-16.2l0,0
		C261.4,277.4,267.2,274.8,273.5,274.8z M262.5,331L262.5,331l0.2,0.2l2.9,3.9l0,0l17.4,23.6c1.3,1.7,1.8,3.4,1.8,5l0,0
		c0,1.3-0.3,2.4-0.9,3.4c-0.5,0.9-1.3,1.8-2.1,2.4c-1.4,1.1-3.3,1.6-5.1,1.6l0,0H233h-83.7c-2,0-3.8-0.6-5.1-1.6
		c-0.9-0.7-1.7-1.6-2.2-2.6l0,0c-0.5-1-0.7-2.1-0.7-3.3l0,0c0-1.7,0.6-3.6,1.9-5.3l18.3-24.9l0,0l1.7-2.2l0.2-0.3l0,0v-0.1
		l22.6-30.1c0.8-1.1,1.7-1.9,2.6-2.6c1.8-1.3,3.7-2,5.7-2s3.9,0.7,5.7,2c0.9,0.7,1.8,1.6,2.6,2.6l21.6,28.7l10.4-13.9
		c0.8-1,1.7-1.9,2.6-2.6c1.7-1.3,3.7-2,5.7-2s3.9,0.6,5.7,2c0.9,0.7,1.8,1.6,2.6,2.6L262.5,331L262.5,331z M271.7,360.8L254.2,337
		l-0.7-1l-10.7-14.2l0,0l0,0l-12.1,16.1l-2.5,3.3l-4.1,5.5l-4.1-5.5l-2.5-3.3L194.1,307l0,0l0,0l-22,29.2l-0.6,0.9L154,360.8h78.9
		H271.7z"/>
	<path fill="#34495E" d="M270.2,264.6c6.3,0,12,2.6,16.2,6.7l0,0c4.1,4.1,6.7,9.9,6.7,16.2s-2.5,12-6.7,16.2l0,0
		c-4.1,4.1-9.9,6.7-16.2,6.7c-6.3,0-12-2.6-16.2-6.7c-4.1-4.1-6.7-9.9-6.7-16.2s2.6-12,6.7-16.2l0,0
		C258.2,267.1,263.9,264.6,270.2,264.6 M259.3,320.7L259.3,320.7l0.2,0.2l2.9,3.9l0,0l17.4,23.6c1.3,1.7,1.8,3.4,1.8,5l0,0
		c0,1.3-0.3,2.4-0.9,3.4c-0.5,0.9-1.2,1.7-2.1,2.4c-1.4,1-3.3,1.6-5.1,1.6l0,0h-43.7h-83.7c-2,0-3.8-0.6-5.1-1.6
		c-0.9-0.7-1.7-1.6-2.2-2.6l0,0c-0.5-1-0.7-2.1-0.7-3.3l0,0c0-1.7,0.6-3.6,1.9-5.3l18.3-24.9l0,0l1.7-2.2l0.2-0.3l0,0v-0.1
		l22.6-30.1c0.8-1.1,1.7-1.9,2.6-2.6c1.8-1.3,3.7-2,5.7-2s3.9,0.7,5.6,2c0.9,0.7,1.8,1.6,2.6,2.6l21.6,28.7l10.5-13.9
		c0.8-1,1.7-1.9,2.6-2.6c1.7-1.3,3.7-2,5.7-2s3.9,0.6,5.7,2c0.9,0.7,1.8,1.6,2.6,2.6L259.3,320.7L259.3,320.7z"/>
	<path fill="#39D4FF" d="M270.2,272.9c-3.9,0-7.5,1.5-10.4,4.4l0,0c-2.7,2.7-4.3,6.4-4.3,10.3s1.5,7.6,4.3,10.3
		c2.7,2.8,6.4,4.3,10.3,4.3s7.5-1.5,10.4-4.4l0,0c2.7-2.7,4.2-6.4,4.2-10.3s-1.5-7.5-4.2-10.2l-0.1-0.1
		C277.8,274.4,274.1,272.9,270.2,272.9 M146.9,352.6h82.7h42.7L252.7,326l-11.6-15.4c-0.3-0.4-0.6-0.7-0.9-1
		c-0.2-0.1-0.4-0.3-0.6-0.3c-0.2,0-0.5,0.2-0.7,0.3c-0.4,0.3-0.7,0.6-0.9,1l-17.1,22.8l-28.3-37.6c-0.3-0.3-0.6-0.7-0.9-1
		c-0.2-0.1-0.4-0.3-0.7-0.3c-0.2,0-0.5,0.2-0.7,0.3c-0.3,0.3-0.7,0.6-0.9,1l-22.8,30.3L146.9,352.6z"/>
	<path fill="#BCC2C6" d="M403.1,243.9H708c4.1,0,7.5,3.4,7.5,7.5l0,0c0,4.1-3.4,7.5-7.5,7.5H403.1c-4.1,0-7.5-3.4-7.5-7.5l0,0
		C395.6,247.3,399,243.9,403.1,243.9"/>
	<path fill="#BCC2C6" d="M403.1,281.5H708c4.1,0,7.5,3.4,7.5,7.5l0,0c0,4.1-3.4,7.5-7.5,7.5H403.1c-4.1,0-7.5-3.4-7.5-7.5l0,0
		C395.6,284.8,399,281.5,403.1,281.5"/>
	<path fill="#BCC2C6" d="M403.1,206.4H708c4.1,0,7.5,3.4,7.5,7.5l0,0c0,4.1-3.4,7.5-7.5,7.5H403.1c-4.1,0-7.5-3.4-7.5-7.5l0,0
		C395.6,209.8,399,206.4,403.1,206.4"/>
	<path fill="#BCC2C6" d="M403.1,319H708c4.1,0,7.5,3.4,7.5,7.5l0,0c0,4.1-3.4,7.5-7.5,7.5H403.1c-4.1,0-7.5-3.3-7.5-7.5l0,0
		C395.6,322.4,399,319,403.1,319"/>
	<path fill="#BCC2C6" d="M403.1,356.5H708c4.1,0,7.5,3.4,7.5,7.5l0,0c0,4.1-3.4,7.5-7.5,7.5H403.1c-4.1,0-7.5-3.3-7.5-7.5l0,0
		C395.6,359.9,399,356.5,403.1,356.5"/>
	<path fill="#BCC2C6" d="M403.1,394.1H708c4.1,0,7.5,3.4,7.5,7.5l0,0c0,4.1-3.4,7.5-7.5,7.5H403.1c-4.1,0-7.5-3.4-7.5-7.5l0,0
		C395.6,397.4,399,394.1,403.1,394.1"/>
</g>
</svg>
