<?xml version="1.0" encoding="utf-8"?>
<!-- Generator: Adobe Illustrator 15.1.0, SVG Export Plug-In . SVG Version: 6.00 Build 0)  -->
<!DOCTYPE svg PUBLIC "-//W3C//DTD SVG 1.0//EN" "http://www.w3.org/TR/2001/REC-SVG-20010904/DTD/svg10.dtd">
<svg version="1.0" id="Layer_1" xmlns="http://www.w3.org/2000/svg" xmlns:xlink="http://www.w3.org/1999/xlink" x="0px" y="0px"
	 width="800px" height="800px" viewBox="0 0 800 800" enable-background="new 0 0 800 800" xml:space="preserve">
<g id="Header">
	<path fill="#BCC2C6" d="M33.1,34.5h736.2c8.5,0,16.1,3.5,21.7,9l0,0c5.6,5.6,9,13.2,9,21.7v654.6c0,8.4-3.5,16.1-9,21.7l0,0
		c-5.6,5.6-13.2,9-21.7,9H33.1c-8.5,0-16.1-3.5-21.7-9l0,0c-5.6-5.6-9-13.2-9-21.7V65.2c0-8.4,3.5-16.1,9-21.7l0,0
		C16.9,38,24.6,34.5,33.1,34.5"/>
	<path fill="#EBEFF0" d="M788.9,65.2v654.6c0,12.3-8.6,19.6-19.6,19.6H33.1c-11,0-19.6-7-19.6-19.6V65.2c0-12.8,8.6-19.6,19.6-19.6
		h736.2C780.2,45.6,788.9,52.7,788.9,65.2"/>
	<path fill="#94A4A5" d="M677.6,72.3c7.8,0,14.2,6.4,14.2,14.2s-6.3,14.2-14.2,14.2c-7.9,0-14.2-6.3-14.2-14.2
		C663.4,78.7,669.7,72.3,677.6,72.3 M722.1,72.3c7.8,0,14.2,6.4,14.2,14.2s-6.4,14.2-14.2,14.2c-7.8,0-14.2-6.3-14.2-14.2
		C707.9,78.7,714.3,72.3,722.1,72.3z M633,72.3c7.8,0,14.2,6.4,14.2,14.2s-6.3,14.2-14.2,14.2c-7.8,0-14.2-6.4-14.2-14.2
		S625.2,72.3,633,72.3z"/>
	
		<text transform="matrix(1 0 0 1 174.0015 84.2969)" fill="#93A2A3" font-family="'NexaBold'" font-size="44.0749" letter-spacing="2">ARTICLE</text>
</g>
<g id="Body">
	<path fill="#BCC2C6" d="M27.3,122.7h746c7.4,0,14,3,18.9,7.8c4.8,4.8,7.8,11.5,7.8,18.9v574c0,7.4-3,14-7.8,18.9
		c-4.8,4.8-11.5,7.8-18.9,7.8h-746c-7.4,0-14-3-18.9-7.8c-4.8-4.8-7.9-11.5-7.9-18.9v-574c0-7.4,3-14,7.9-18.9
		S19.9,122.7,27.3,122.7"/>
	<path fill="#FFFFFF" d="M27.3,133.8c-4.1,0-8.1,1.7-11,4.6c-2.9,2.9-4.6,6.9-4.6,11v574c0,4.1,1.6,8.1,4.6,11
		c2.9,2.9,6.8,4.6,11,4.6h746c4.1,0,8.1-1.7,11-4.6c2.9-2.9,4.6-6.8,4.6-11v-574c0-4.1-1.6-8.1-4.6-11c-2.9-2.9-6.8-4.6-11-4.6H27.3
		L27.3,133.8z"/>
	<polygon fill="#34495E" points="91.6,194.5 283.6,194.5 292.1,194.5 292.1,203 292.1,395.1 292.1,403.6 283.6,403.6 91.6,403.6 
		83,403.6 83,395.1 83,203 83,194.5 	"/>
	<rect x="93.5" y="204.9" fill="#22A6EF" width="188.3" height="188.3"/>
	<path opacity="0.15" enable-background="new    " d="M246.7,273.4c-2.1-2.1-4.9-3.3-8.1-3.3c-3.2,0-6,1.3-8.1,3.3s-3.3,4.9-3.3,8.1
		c0,3.1,1.3,6,3.3,8.1c2.1,2.1,4.9,3.3,8,3.3s6-1.3,8.1-3.3c2-2.1,3.3-4.9,3.3-8.1C250,278.3,248.8,275.5,246.7,273.4 M238.7,260.7
		c5.7,0,10.9,2.3,14.7,6.1l0,0c3.8,3.8,6.1,9,6.1,14.7s-2.3,10.9-6.1,14.7l0,0c-3.8,3.8-8.9,6.1-14.7,6.1c-5.7,0-10.9-2.3-14.7-6.1
		c-3.8-3.8-6.1-9-6.1-14.7s2.3-10.9,6.1-14.7l0,0C227.8,263,232.9,260.7,238.7,260.7z M228.7,311.6L228.7,311.6l0.1,0.2l2.6,3.5l0,0
		l15.8,21.4c1.1,1.5,1.6,3.1,1.6,4.5l0,0c0,1.1-0.3,2.2-0.8,3.1c-0.5,0.9-1.1,1.6-1.9,2.2c-1.3,1-3,1.5-4.6,1.5l0,0h-39.6h-75.8
		c-1.8,0-3.4-0.5-4.6-1.4c-0.8-0.6-1.5-1.4-2-2.3l0,0c-0.4-0.9-0.7-1.9-0.7-3l0,0c0-1.6,0.5-3.2,1.7-4.8l16.6-22.6l0,0l1.5-2
		l0.2-0.2l0,0l20.5-27.3c0.7-1,1.5-1.8,2.4-2.4c1.6-1.2,3.4-1.8,5.2-1.8c1.8,0,3.5,0.6,5.1,1.8c0.8,0.6,1.6,1.4,2.3,2.4l19.6,26
		l9.5-12.6c0.7-1,1.5-1.8,2.4-2.4c1.6-1.2,3.3-1.8,5.1-1.8c1.8,0,3.5,0.6,5.1,1.8c0.8,0.6,1.6,1.4,2.4,2.4L228.7,311.6L228.7,311.6z
		 M237,338.7l-15.8-21.5l-0.7-0.9l-9.7-12.9l0,0l0,0l-11,14.6l-2.3,3l-3.7,5l-3.7-5l-2.3-3l-21.1-28l0,0l0,0l-19.9,26.4l-0.6,0.8
		l-15.8,21.5h71.5H237z"/>
	<path fill="#34495E" d="M235.7,252c5.7,0,10.9,2.3,14.7,6.1l0,0c3.8,3.8,6.1,8.9,6.1,14.7c0,5.8-2.3,10.9-6.1,14.7l0,0
		c-3.8,3.8-8.9,6.1-14.7,6.1c-5.7,0-10.9-2.3-14.7-6.1s-6.1-9-6.1-14.7c0-5.7,2.3-10.9,6.1-14.7l0,0C224.8,254.3,230,252,235.7,252
		 M225.8,302.9L225.8,302.9l0.1,0.2l2.6,3.5h-0.1l15.8,21.4c1.1,1.5,1.6,3.1,1.6,4.5l0,0c0,1.1-0.3,2.2-0.8,3.1s-1.1,1.6-1.9,2.2
		c-1.3,1-3,1.5-4.6,1.5l0,0h-39.6H123c-1.8,0-3.4-0.5-4.6-1.4c-0.8-0.6-1.5-1.4-2-2.4l0,0c-0.4-0.9-0.7-1.9-0.7-3l0,0
		c0-1.6,0.5-3.2,1.7-4.8l16.6-22.6l0,0l1.5-2l0.2-0.3l0,0l0,0l20.5-27.3c0.7-1,1.5-1.8,2.3-2.4c1.6-1.2,3.4-1.8,5.2-1.8
		c1.8,0,3.5,0.6,5.1,1.8c0.8,0.6,1.6,1.4,2.3,2.4l19.6,26.1l9.5-12.6c0.7-1,1.5-1.7,2.3-2.4c1.6-1.2,3.3-1.8,5.1-1.8
		c1.8,0,3.6,0.6,5.2,1.8c0.8,0.6,1.6,1.4,2.3,2.4L225.8,302.9L225.8,302.9z"/>
	<path fill="#39D4FF" d="M226.8,263.7L226.8,263.7c-2.5,2.5-3.8,5.7-3.8,9.1c0,3.4,1.3,6.6,3.7,9c2.4,2.4,5.6,3.7,9,3.7
		c3.4,0,6.5-1.3,9-3.7l0.1-0.1c2.4-2.4,3.7-5.6,3.7-9c0-3.4-1.3-6.6-3.7-9l-0.1-0.1c-2.4-2.4-5.6-3.7-9-3.7
		C232.3,260,229.2,261.3,226.8,263.7 M124.8,331.3h74.1h37.9l-17.3-23.5l-10.5-14c-0.2-0.3-0.5-0.6-0.8-0.8c-0.1,0-0.3-0.2-0.3-0.2
		c-0.1,0-0.3,0.1-0.3,0.2c-0.3,0.2-0.6,0.5-0.8,0.8l-15.9,21.1l-26-34.5c-0.2-0.3-0.5-0.6-0.7-0.8c-0.1-0.1-0.3-0.2-0.4-0.2
		c-0.1,0-0.3,0.1-0.3,0.2c-0.3,0.2-0.6,0.5-0.8,0.8l-20.6,27.4L124.8,331.3z"/>
	<polygon fill="#34495E" points="91.6,469.2 283.6,469.2 292.1,469.2 292.1,477.7 292.1,669.7 292.1,678.3 283.6,678.3 91.6,678.3 
		83,678.3 83,669.7 83,477.7 83,469.2 	"/>
	<rect x="93.5" y="479.6" fill="#22A6EF" width="188.3" height="188.3"/>
	<path opacity="0.15" enable-background="new    " d="M246.7,548c-2.1-2.1-4.9-3.3-8.1-3.3c-3.2,0-6,1.3-8.1,3.3
		c-2.1,2.1-3.3,4.9-3.3,8.1c0,3.1,1.3,6,3.3,8c2.1,2.1,4.9,3.3,8,3.3s6-1.3,8.1-3.3c2-2.1,3.3-4.9,3.3-8.1
		C250,552.9,248.8,550.1,246.7,548 M238.7,535.3c5.7,0,10.9,2.3,14.7,6.1l0,0c3.8,3.8,6.1,8.9,6.1,14.7c0,5.7-2.3,10.9-6.1,14.7l0,0
		c-3.8,3.8-8.9,6.1-14.7,6.1c-5.7,0-10.9-2.3-14.7-6.1s-6.1-8.9-6.1-14.7c0-5.7,2.3-10.9,6.1-14.7l0,0
		C227.8,537.6,232.9,535.3,238.7,535.3z M228.7,586.2L228.7,586.2l0.1,0.2l2.6,3.5l0,0l15.8,21.4c1.1,1.5,1.6,3.1,1.6,4.5l0,0
		c0,1.1-0.3,2.2-0.8,3.1c-0.5,0.9-1.1,1.6-1.9,2.2c-1.3,1-3,1.5-4.6,1.5l0,0h-39.6h-75.8c-1.8,0-3.4-0.5-4.6-1.4
		c-0.8-0.6-1.5-1.4-2-2.3l0,0c-0.4-0.9-0.7-1.9-0.7-3l0,0c0-1.6,0.5-3.2,1.7-4.8l16.6-22.6l0,0l1.5-2l0.2-0.3l0,0l20.5-27.3
		c0.7-1,1.5-1.8,2.4-2.4c1.6-1.2,3.4-1.8,5.2-1.8c1.8,0,3.5,0.6,5.1,1.8c0.8,0.6,1.6,1.4,2.3,2.4l19.6,26.1l9.5-12.6
		c0.7-1,1.5-1.7,2.4-2.4c1.6-1.2,3.3-1.8,5.1-1.8c1.8,0,3.5,0.6,5.1,1.8c0.8,0.6,1.6,1.4,2.4,2.4L228.7,586.2L228.7,586.2z
		 M237,613.3l-15.8-21.5l-0.7-0.9l-9.7-12.9l0,0l0,0l-11,14.6l-2.3,3l-3.7,5l-3.7-5l-2.3-3l-21.1-28l0,0l0,0L146.8,591l-0.6,0.8
		l-15.8,21.5h71.5H237z"/>
	<path fill="#34495E" d="M235.7,526.6c5.7,0,10.9,2.3,14.7,6.1l0,0c3.8,3.8,6.1,9,6.1,14.7c0,5.7-2.3,10.9-6.1,14.7l0,0
		c-3.8,3.8-8.9,6.1-14.7,6.1c-5.7,0-10.9-2.3-14.7-6.1c-3.8-3.8-6.1-9-6.1-14.7c0-5.7,2.3-10.9,6.1-14.7l0,0
		C224.8,529,230,526.6,235.7,526.6 M225.8,577.5L225.8,577.5l0.1,0.2l2.6,3.5h-0.1l15.8,21.4c1.1,1.5,1.6,3.1,1.6,4.5l0,0
		c0,1.2-0.3,2.2-0.8,3.1c-0.5,0.9-1.1,1.6-1.9,2.2c-1.3,1-3,1.5-4.6,1.5l0,0h-39.6H123c-1.8,0-3.4-0.5-4.6-1.4
		c-0.8-0.6-1.5-1.4-2-2.3l0,0c-0.4-0.9-0.7-1.9-0.7-3l0,0c0-1.6,0.5-3.2,1.7-4.8l16.6-22.6l0,0l1.5-2l0.2-0.3l0,0l0,0l20.5-27.3
		c0.7-1,1.5-1.8,2.3-2.4c1.6-1.2,3.4-1.8,5.2-1.8c1.8,0,3.5,0.6,5.1,1.8c0.8,0.6,1.6,1.4,2.3,2.4l19.6,26l9.5-12.6
		c0.7-1,1.5-1.8,2.3-2.4c1.6-1.2,3.3-1.8,5.1-1.8c1.8,0,3.6,0.6,5.2,1.8c0.8,0.6,1.6,1.4,2.3,2.4L225.8,577.5L225.8,577.5z"/>
	<path fill="#39D4FF" d="M226.8,538.3L226.8,538.3c-2.5,2.5-3.8,5.7-3.8,9.1c0,3.4,1.3,6.6,3.7,9c2.4,2.4,5.6,3.7,9,3.7
		c3.4,0,6.5-1.3,9-3.7l0.1-0.1c2.4-2.4,3.7-5.6,3.7-9c0-3.4-1.3-6.6-3.7-9l-0.1-0.1c-2.4-2.4-5.6-3.7-9-3.7
		C232.3,534.6,229.2,535.9,226.8,538.3 M124.8,605.9h74.1h37.9l-17.3-23.5l-10.5-14c-0.2-0.3-0.5-0.6-0.8-0.8
		c-0.1,0-0.3-0.2-0.3-0.2c-0.1,0-0.3,0.1-0.3,0.2c-0.3,0.2-0.6,0.5-0.8,0.8l-15.9,21.1l-26-34.5c-0.2-0.3-0.5-0.6-0.7-0.8
		c-0.1,0-0.3-0.2-0.4-0.2c-0.1,0-0.3,0.1-0.3,0.2c-0.3,0.2-0.6,0.5-0.8,0.8l-20.6,27.4L124.8,605.9z"/>
	<path fill="#BCC2C6" d="M357.7,272.8h352.4c4.1,0,7.5,3.4,7.5,7.5c0,4.1-3.4,7.5-7.5,7.5H357.7c-4.1,0-7.5-3.4-7.5-7.5
		C350.2,276.2,353.6,272.8,357.7,272.8"/>
	<path fill="#BCC2C6" d="M357.7,310.4h352.4c4.1,0,7.5,3.4,7.5,7.5s-3.4,7.5-7.5,7.5H357.7c-4.1,0-7.5-3.4-7.5-7.5
		S353.6,310.4,357.7,310.4"/>
	<path fill="#BCC2C6" d="M357.7,347.9h168.7c4.1,0,7.5,3.4,7.5,7.5l0,0c0,4.1-3.4,7.5-7.5,7.5H357.7c-4.1,0-7.5-3.4-7.5-7.5l0,0
		C350.3,351.2,353.6,347.9,357.7,347.9"/>
	<path fill="#BCC2C6" d="M357.7,235.3h352.4c4.1,0,7.5,3.4,7.5,7.5c0,4.1-3.4,7.5-7.5,7.5H357.7c-4.1,0-7.5-3.4-7.5-7.5
		C350.3,238.7,353.6,235.3,357.7,235.3"/>
	<path fill="#BCC2C6" d="M357.7,547.5h352.4c4.1,0,7.5,3.4,7.5,7.5l0,0c0,4.1-3.4,7.5-7.5,7.5H357.7c-4.1,0-7.5-3.4-7.5-7.5l0,0
		C350.3,550.8,353.6,547.5,357.7,547.5"/>
	<path fill="#BCC2C6" d="M357.7,585h352.4c4.1,0,7.5,3.4,7.5,7.5s-3.4,7.5-7.5,7.5H357.7c-4.1,0-7.5-3.4-7.5-7.5
		C350.3,588.4,353.6,585,357.7,585"/>
	<path fill="#BCC2C6" d="M357.7,622.5h168.7c4.1,0,7.5,3.4,7.5,7.5s-3.4,7.5-7.5,7.5H357.7c-4.1,0-7.5-3.4-7.5-7.5
		S353.6,622.5,357.7,622.5"/>
	<path fill="#BCC2C6" d="M357.7,510h352.4c4.1,0,7.5,3.4,7.5,7.5l0,0c0,4.1-3.4,7.5-7.5,7.5H357.7c-4.1,0-7.5-3.4-7.5-7.5l0,0
		C350.3,513.3,353.6,510,357.7,510"/>
</g>
</svg>
