<?xml version="1.0" encoding="utf-8"?>
<!-- Generator: Adobe Illustrator 15.1.0, SVG Export Plug-In . SVG Version: 6.00 Build 0)  -->
<!DOCTYPE svg PUBLIC "-//W3C//DTD SVG 1.0//EN" "http://www.w3.org/TR/2001/REC-SVG-20010904/DTD/svg10.dtd">
<svg version="1.0" id="Layer_1" xmlns="http://www.w3.org/2000/svg" xmlns:xlink="http://www.w3.org/1999/xlink" x="0px" y="0px"
	 width="800px" height="800px" viewBox="0 0 800 800" enable-background="new 0 0 800 800" xml:space="preserve">
<g id="Header">
	<path fill="#BCC2C6" d="M33.1,34.5h736.2c8.5,0,16.1,3.5,21.7,9l0,0c5.6,5.6,9,13.2,9,21.7v654.6c0,8.4-3.5,16.1-9,21.7l0,0
		c-5.6,5.6-13.2,9-21.7,9H33.1c-8.5,0-16.1-3.5-21.7-9l0,0c-5.6-5.6-9-13.2-9-21.7V65.2c0-8.4,3.5-16.1,9-21.7l0,0
		C16.9,38,24.6,34.5,33.1,34.5"/>
	<path fill="#EBEFF0" d="M788.9,65.2v654.6c0,12.3-8.6,19.6-19.6,19.6H33.1c-11,0-19.6-7-19.6-19.6V65.2c0-12.8,8.6-19.6,19.6-19.6
		h736.2C780.2,45.6,788.9,52.7,788.9,65.2"/>
	<path fill="#94A4A5" d="M677.6,72.3c7.8,0,14.2,6.4,14.2,14.2s-6.3,14.2-14.2,14.2c-7.9,0-14.2-6.3-14.2-14.2
		C663.4,78.7,669.7,72.3,677.6,72.3 M722.1,72.3c7.8,0,14.2,6.4,14.2,14.2s-6.4,14.2-14.2,14.2c-7.8,0-14.2-6.3-14.2-14.2
		C707.9,78.7,714.3,72.3,722.1,72.3z M633,72.3c7.8,0,14.2,6.4,14.2,14.2s-6.3,14.2-14.2,14.2c-7.8,0-14.2-6.4-14.2-14.2
		S625.2,72.3,633,72.3z"/>
	
		<text transform="matrix(1 0 0 1 165.0015 83.2969)" fill="#93A2A3" font-family="'NexaBold'" font-size="44.0749" letter-spacing="2">ARTICLE</text>
</g>
<g id="Body">
	<path fill="#BCC2C6" d="M27.3,121.1h746c7.4,0,14,3,18.9,7.8c4.8,4.8,7.8,11.5,7.8,18.9v574c0,7.4-3,14-7.8,18.9
		c-4.8,4.8-11.5,7.8-18.9,7.8h-746c-7.3,0-14-3-18.9-7.8c-4.8-4.8-7.9-11.5-7.9-18.9v-574c0-7.4,3-14,7.9-18.9
		C13.3,124.1,20,121.1,27.3,121.1"/>
	<path fill="#FFFFFF" d="M27.3,132.3c-4.1,0-8.1,1.7-11,4.6c-2.9,2.9-4.6,6.9-4.6,11v574c0,4.1,1.7,8.1,4.6,11
		c2.9,2.9,6.9,4.6,11,4.6h746c4.1,0,8.1-1.7,11-4.6c2.9-2.9,4.6-6.8,4.6-11v-574c0-4.1-1.6-8.1-4.6-11c-2.9-2.9-6.9-4.6-11-4.6H27.3
		L27.3,132.3z"/>
	<polygon fill="#34495E" points="91.5,193 283.6,193 292.1,193 292.1,201.5 292.1,393.6 292.1,402.1 283.6,402.1 91.5,402.1 
		83,402.1 83,393.6 83,201.5 83,193 	"/>
	<rect x="93.5" y="203.4" fill="#22A6EF" width="188.3" height="188.3"/>
	<path opacity="0.15" enable-background="new    " d="M246.7,271.8c-2.1-2.1-4.9-3.3-8.1-3.3c-3.2,0-6,1.3-8.1,3.3
		c-2.1,2.1-3.3,4.9-3.3,8.1c0,3.1,1.3,6,3.3,8.1c2.1,2.1,4.9,3.3,8,3.3s6-1.3,8.1-3.3c2.1-2.1,3.3-4.9,3.3-8.1
		C249.9,276.7,248.8,273.9,246.7,271.8 M238.7,259.1c5.7,0,10.9,2.3,14.7,6.1l0,0c3.8,3.8,6.1,9,6.1,14.7c0,5.7-2.3,10.9-6.1,14.7
		l0,0c-3.8,3.8-8.9,6.1-14.7,6.1c-5.8,0-10.9-2.3-14.7-6.1c-3.8-3.8-6.1-8.9-6.1-14.7c0-5.7,2.3-10.9,6.1-14.7l0,0
		C227.8,261.5,232.9,259.1,238.7,259.1z M228.7,310L228.7,310l0.1,0.2l2.6,3.5l0,0l15.8,21.4c1.1,1.5,1.6,3.1,1.6,4.5l0,0
		c0,1.1-0.3,2.2-0.8,3.1c-0.5,0.9-1.1,1.6-1.9,2.2c-1.3,0.9-3,1.5-4.6,1.5l0,0h-39.6h-75.8c-1.8,0-3.4-0.5-4.6-1.4
		c-0.8-0.6-1.5-1.4-2-2.3l0,0c-0.4-0.9-0.7-1.9-0.7-3l0,0c0-1.6,0.6-3.2,1.7-4.8l16.6-22.6l0,0l1.5-2l0.2-0.2l0,0l20.5-27.3
		c0.7-1,1.5-1.8,2.4-2.4c1.6-1.2,3.4-1.8,5.2-1.8c1.8,0,3.5,0.6,5.1,1.8c0.9,0.6,1.6,1.4,2.4,2.4l19.6,26l9.5-12.6
		c0.7-1,1.5-1.8,2.4-2.4c1.6-1.2,3.3-1.8,5.1-1.8s3.5,0.6,5.1,1.8c0.8,0.6,1.6,1.4,2.4,2.4L228.7,310L228.7,310z M237,337.1
		l-15.8-21.5l-0.7-0.9l-9.7-12.9l0,0l0,0l-11,14.6l-2.3,3l-3.7,5l-3.7-5l-2.3-3l-21-28l0,0l0,0l-19.9,26.4l-0.6,0.8l-15.8,21.5H202
		H237z"/>
	<path fill="#34495E" d="M235.7,250.4c5.7,0,10.9,2.3,14.7,6.1l0,0c3.8,3.8,6.1,8.9,6.1,14.7c0,5.8-2.3,10.9-6.1,14.7l0,0
		c-3.8,3.8-8.9,6.1-14.7,6.1c-5.7,0-10.9-2.3-14.7-6.1c-3.8-3.8-6.1-9-6.1-14.7c0-5.7,2.3-10.9,6.1-14.7l0,0
		C224.8,252.8,230,250.4,235.7,250.4 M225.8,301.3L225.8,301.3l0.1,0.2l2.6,3.5l0,0l15.8,21.4c1.1,1.5,1.6,3.1,1.6,4.5l0,0
		c0,1.1-0.3,2.2-0.8,3.1s-1.1,1.6-1.9,2.2c-1.3,0.9-3,1.5-4.7,1.5l0,0h-39.6H123c-1.8,0-3.4-0.5-4.6-1.4c-0.8-0.6-1.5-1.4-2-2.4l0,0
		c-0.4-0.9-0.7-1.9-0.7-3l0,0c0-1.6,0.5-3.2,1.7-4.8l16.6-22.6l0,0l1.5-2l0.2-0.3l0,0l0,0l20.5-27.3c0.7-1,1.5-1.8,2.3-2.4
		c1.6-1.2,3.4-1.8,5.2-1.8c1.8,0,3.5,0.6,5.1,1.8c0.8,0.6,1.6,1.4,2.3,2.4l19.6,26.1l9.5-12.6c0.7-1,1.5-1.7,2.3-2.4
		c1.6-1.2,3.3-1.8,5.1-1.8c1.8,0,3.6,0.6,5.2,1.8c0.8,0.6,1.6,1.4,2.4,2.4L225.8,301.3L225.8,301.3z"/>
	<path fill="#39D4FF" d="M226.8,262.1L226.8,262.1c-2.5,2.5-3.8,5.7-3.8,9.1c0,3.4,1.3,6.6,3.7,9c2.4,2.4,5.6,3.7,9,3.7
		c3.4,0,6.5-1.3,9-3.7l0.1-0.1c2.4-2.4,3.7-5.6,3.7-9s-1.3-6.6-3.7-9l-0.1-0.1c-2.4-2.4-5.6-3.7-9-3.7
		C232.3,258.4,229.2,259.8,226.8,262.1 M124.8,329.8h74.1h37.9l-17.3-23.5l-10.5-14c-0.2-0.3-0.5-0.6-0.8-0.8l-0.3-0.2
		c-0.1,0-0.3,0.1-0.3,0.2c-0.3,0.2-0.5,0.5-0.8,0.8l-15.9,21.1l-26-34.5c-0.2-0.3-0.5-0.6-0.8-0.8c-0.1-0.1-0.3-0.2-0.4-0.2
		c-0.1,0-0.3,0.1-0.3,0.2c-0.3,0.2-0.5,0.5-0.8,0.8L142,306.3L124.8,329.8z"/>
	<polygon fill="#34495E" points="517,467.6 709,467.6 717.6,467.6 717.6,476.1 717.6,668.2 717.6,676.7 709,676.7 517,676.7 
		508.5,676.7 508.5,668.2 508.5,476.1 508.5,467.6 	"/>
	<rect x="518.9" y="478" fill="#22A6EF" width="188.3" height="188.3"/>
	<path opacity="0.15" enable-background="new    " d="M672.1,546.5c-2.1-2.1-4.9-3.3-8.1-3.3s-6,1.3-8.1,3.3
		c-2.1,2.1-3.3,4.9-3.3,8.1c0,3.1,1.3,6,3.3,8c2.1,2.1,4.9,3.3,8.1,3.3c3.1,0,6-1.3,8.1-3.3c2.1-2,3.3-4.9,3.3-8.1
		S674.2,548.5,672.1,546.5 M664.1,533.8c5.7,0,10.9,2.3,14.7,6.1l0,0c3.8,3.8,6.1,8.9,6.1,14.7c0,5.7-2.3,10.9-6.1,14.7l0,0
		c-3.8,3.8-8.9,6.1-14.7,6.1c-5.7,0-10.9-2.3-14.7-6.1c-3.8-3.8-6.1-8.9-6.1-14.7c0-5.7,2.3-10.9,6.1-14.7l0,0
		C653.2,536.1,658.4,533.8,664.1,533.8z M654.1,584.7L654.1,584.7l0.1,0.2l2.6,3.5l0,0l15.7,21.4c1.1,1.5,1.6,3.1,1.6,4.5l0,0
		c0,1.1-0.3,2.2-0.8,3.1c-0.5,0.9-1.1,1.6-1.9,2.2c-1.3,1-3,1.5-4.6,1.5l0,0h-39.6h-75.8c-1.8,0-3.4-0.5-4.6-1.4
		c-0.8-0.6-1.5-1.4-2-2.3l0,0c-0.4-0.9-0.7-1.9-0.7-3l0,0c0-1.6,0.5-3.2,1.7-4.8l16.6-22.6l0,0l1.5-2l0.2-0.3l0,0l0,0l20.5-27.3
		c0.7-1,1.5-1.8,2.4-2.4c1.6-1.2,3.4-1.8,5.2-1.8s3.5,0.6,5.1,1.8c0.8,0.6,1.6,1.4,2.4,2.4l19.6,26.1l9.5-12.6
		c0.7-1,1.5-1.7,2.3-2.4c1.6-1.2,3.3-1.8,5.1-1.8s3.5,0.6,5.1,1.8c0.8,0.6,1.6,1.4,2.4,2.4L654.1,584.7L654.1,584.7z M662.4,611.7
		l-15.8-21.5l-0.7-0.9l-9.7-12.9l0,0l0,0l-11,14.6l-2.3,3l-3.7,5l-3.8-5l-2.3-3L592,563l0,0l0,0l-19.9,26.4l-0.6,0.8l-15.8,21.5
		h71.5H662.4z"/>
	<path fill="#34495E" d="M661.2,525.1c5.7,0,10.9,2.3,14.7,6.1l0,0c3.8,3.8,6.1,8.9,6.1,14.7c0,5.7-2.3,10.9-6.1,14.7l0,0
		c-3.8,3.8-8.9,6.1-14.7,6.1c-5.7,0-10.9-2.3-14.7-6.1c-3.8-3.8-6.1-9-6.1-14.7c0-5.7,2.3-10.9,6.1-14.7l0,0
		C650.2,527.4,655.4,525.1,661.2,525.1 M651.2,576L651.2,576l0.1,0.2l2.6,3.5l0,0l15.8,21.4c1.1,1.5,1.6,3.1,1.6,4.5l0,0
		c0,1.2-0.3,2.2-0.8,3.1c-0.5,0.9-1.1,1.6-1.9,2.2c-1.3,1-3,1.5-4.7,1.5l0,0h-39.6h-75.8c-1.8,0-3.4-0.5-4.6-1.4
		c-0.8-0.6-1.5-1.4-2-2.3l0,0c-0.4-0.9-0.7-1.9-0.7-3l0,0c0-1.6,0.6-3.2,1.7-4.8l16.6-22.6l0,0l1.5-2l0.2-0.3l0,0l0,0l20.5-27.3
		c0.7-1,1.5-1.8,2.4-2.4c1.6-1.2,3.3-1.8,5.2-1.8c1.8,0,3.5,0.6,5.1,1.8c0.8,0.6,1.6,1.4,2.3,2.4l19.6,26l9.5-12.6
		c0.7-0.9,1.5-1.8,2.3-2.4c1.6-1.2,3.3-1.8,5.1-1.8s3.6,0.6,5.2,1.8c0.8,0.6,1.6,1.4,2.3,2.4L651.2,576L651.2,576z"/>
	<path fill="#39D4FF" d="M652.2,536.8L652.2,536.8c-2.5,2.5-3.8,5.7-3.8,9.1c0,3.4,1.3,6.6,3.7,9c2.4,2.4,5.6,3.7,9,3.7
		c3.4,0,6.5-1.3,8.9-3.7l0.1-0.1c2.4-2.4,3.7-5.6,3.7-9c0-3.4-1.3-6.6-3.7-9l-0.1-0.1c-2.4-2.4-5.6-3.7-9-3.7
		C657.8,533.1,654.6,534.4,652.2,536.8 M550.2,604.4h74.1h37.8l-17.3-23.5l-10.5-14c-0.2-0.3-0.5-0.6-0.8-0.8
		c-0.1,0-0.3-0.2-0.3-0.2c-0.1,0-0.3,0.1-0.3,0.2c-0.3,0.2-0.5,0.5-0.8,0.8L616.3,588l-26-34.5c-0.2-0.3-0.5-0.6-0.8-0.8
		c-0.1,0-0.3-0.2-0.3-0.2c-0.1,0-0.3,0.1-0.3,0.2c-0.3,0.2-0.5,0.5-0.8,0.8l-20.6,27.4L550.2,604.4z"/>
	<path fill="#BCC2C6" d="M357.7,271.3H710c4.1,0,7.5,3.4,7.5,7.5c0,4.1-3.4,7.5-7.5,7.5H357.7c-4.1,0-7.5-3.4-7.5-7.5
		C350.2,274.7,353.6,271.3,357.7,271.3"/>
	<path fill="#BCC2C6" d="M357.7,308.8H710c4.1,0,7.5,3.4,7.5,7.5c0,4.1-3.4,7.5-7.5,7.5H357.7c-4.1,0-7.5-3.4-7.5-7.5
		C350.3,312.2,353.6,308.8,357.7,308.8"/>
	<path fill="#BCC2C6" d="M357.7,346.3h168.7c4.1,0,7.5,3.4,7.5,7.5l0,0c0,4.1-3.4,7.5-7.5,7.5H357.7c-4.1,0-7.5-3.4-7.5-7.5l0,0
		C350.3,349.7,353.6,346.3,357.7,346.3"/>
	<path fill="#BCC2C6" d="M357.7,233.8H710c4.1,0,7.5,3.4,7.5,7.5c0,4.1-3.4,7.5-7.5,7.5H357.7c-4.1,0-7.5-3.4-7.5-7.5
		C350.3,237.1,353.6,233.8,357.7,233.8"/>
	<path fill="#BCC2C6" d="M442.9,545.9H90.5c-4.1,0-7.5,3.4-7.5,7.5l0,0c0,4.1,3.4,7.5,7.5,7.5h352.3c4.1,0,7.5-3.4,7.5-7.5l0,0
		C450.3,549.3,447,545.9,442.9,545.9"/>
	<path fill="#BCC2C6" d="M442.9,583.4H90.5c-4.1,0-7.5,3.4-7.5,7.5c0,4.1,3.4,7.5,7.5,7.5h352.3c4.1,0,7.5-3.4,7.5-7.5
		C450.3,586.8,447,583.4,442.9,583.4"/>
	<path fill="#BCC2C6" d="M442.9,621H274.1c-4.1,0-7.5,3.4-7.5,7.5s3.4,7.5,7.5,7.5h168.7c4.1,0,7.5-3.4,7.5-7.5
		C450.3,624.3,447,621,442.9,621"/>
	<path fill="#BCC2C6" d="M442.9,508.4H90.5c-4.1,0-7.5,3.4-7.5,7.5l0,0c0,4.1,3.4,7.5,7.5,7.5h352.3c4.1,0,7.5-3.4,7.5-7.5l0,0
		C450.3,511.8,447,508.4,442.9,508.4"/>
</g>
</svg>
