<?xml version="1.0" encoding="utf-8"?>
<!-- Generator: Adobe Illustrator 15.1.0, SVG Export Plug-In . SVG Version: 6.00 Build 0)  -->
<!DOCTYPE svg PUBLIC "-//W3C//DTD SVG 1.0//EN" "http://www.w3.org/TR/2001/REC-SVG-20010904/DTD/svg10.dtd">
<svg version="1.0" id="Layer_1" xmlns="http://www.w3.org/2000/svg" xmlns:xlink="http://www.w3.org/1999/xlink" x="0px" y="0px"
	 width="800px" height="800px" viewBox="0 0 800 800" enable-background="new 0 0 800 800" xml:space="preserve">
<g id="Header">
	<path fill="#BCC2C6" d="M33.1,34.5h736.2c8.5,0,16.1,3.5,21.7,9l0,0c5.6,5.6,9,13.2,9,21.7v654.6c0,8.4-3.5,16.1-9,21.7l0,0
		c-5.6,5.6-13.2,9-21.7,9H33.1c-8.5,0-16.1-3.5-21.7-9l0,0c-5.6-5.6-9-13.2-9-21.7V65.2c0-8.4,3.5-16.1,9-21.7l0,0
		C16.9,38,24.6,34.5,33.1,34.5"/>
	<path fill="#EBEFF0" d="M788.9,65.2v654.6c0,12.3-8.6,19.6-19.6,19.6H33.1c-11,0-19.6-7-19.6-19.6V65.2c0-12.8,8.6-19.6,19.6-19.6
		h736.2C780.2,45.6,788.9,52.7,788.9,65.2"/>
	<path fill="#94A4A5" d="M677.6,72.3c7.8,0,14.2,6.4,14.2,14.2s-6.3,14.2-14.2,14.2c-7.9,0-14.2-6.3-14.2-14.2
		C663.4,78.7,669.7,72.3,677.6,72.3 M722.1,72.3c7.8,0,14.2,6.4,14.2,14.2s-6.4,14.2-14.2,14.2c-7.8,0-14.2-6.3-14.2-14.2
		C707.9,78.7,714.3,72.3,722.1,72.3z M633,72.3c7.8,0,14.2,6.4,14.2,14.2s-6.3,14.2-14.2,14.2c-7.8,0-14.2-6.4-14.2-14.2
		S625.2,72.3,633,72.3z"/>
	
		<text transform="matrix(1 0 0 1 165.0015 82.2969)" fill="#93A2A3" font-family="'NexaBold'" font-size="44.0749" letter-spacing="2">ARTICLE</text>
</g>
<g id="Body">
	<path fill="#BCC2C6" d="M29.1,123.5h744.3c7.3,0,14,3,18.8,7.8c4.8,4.8,7.8,11.5,7.8,18.8v572.7c0,7.3-3,14-7.8,18.8
		c-4.8,4.8-11.5,7.8-18.8,7.8H29.1c-7.3,0-14-3-18.8-7.8c-4.8-4.8-7.8-11.5-7.8-18.8V150.2c0-7.3,3-14,7.8-18.8
		C15.1,126.5,21.8,123.5,29.1,123.5"/>
	<path fill="#FFFFFF" d="M29.1,134.6c-4.1,0-8,1.7-10.9,4.6c-2.9,2.9-4.6,6.8-4.6,11v572.7c0,4.1,1.6,8,4.6,11
		c2.9,2.9,6.8,4.6,10.9,4.6h744.3c4.1,0,8-1.6,11-4.6c2.9-2.9,4.5-6.8,4.5-11V150.2c0-4.1-1.6-8-4.5-11c-2.9-2.9-6.9-4.6-11-4.6
		H29.1z"/>
	<path fill="#34495E" d="M84.1,229.9h260c5.4,0,9.8,4.4,9.8,9.7v393.9c0,5.4-4.4,9.7-9.8,9.7h-260c-5.4,0-9.8-4.4-9.8-9.7V239.6
		C74.3,234.2,78.7,229.9,84.1,229.9"/>
	<rect x="85.5" y="241" fill="#22A6EF" width="257.2" height="391.1"/>
	<path fill="#34495E" d="M129.9,316.2h168.4c4.1,0,7.4,3.4,7.4,7.4l0,0c0,4.1-3.3,7.5-7.4,7.5H129.9c-4.1,0-7.5-3.4-7.5-7.5l0,0
		C122.4,319.6,125.8,316.2,129.9,316.2"/>
	<path fill="#34495E" d="M129.9,353.6h168.4c4.1,0,7.4,3.3,7.4,7.4l0,0c0,4.1-3.3,7.4-7.4,7.4H129.9c-4.1,0-7.5-3.3-7.5-7.4l0,0
		C122.4,357,125.8,353.6,129.9,353.6"/>
	<path fill="#34495E" d="M129.9,278.8h168.4c4.1,0,7.4,3.3,7.4,7.4c0,4.1-3.3,7.4-7.4,7.4H129.9c-4.1,0-7.5-3.3-7.5-7.4
		C122.4,282.1,125.8,278.8,129.9,278.8"/>
	<path fill="#34495E" d="M129.9,391.1h168.4c4.1,0,7.4,3.3,7.4,7.4l0,0c0,4.1-3.3,7.4-7.4,7.4H129.9c-4.1,0-7.5-3.3-7.5-7.4l0,0
		C122.4,394.4,125.8,391.1,129.9,391.1"/>
	<path fill="#34495E" d="M129.9,428.5h168.4c4.1,0,7.4,3.3,7.4,7.4l0,0c0,4.1-3.3,7.4-7.4,7.4H129.9c-4.1,0-7.5-3.3-7.5-7.4l0,0
		C122.4,431.9,125.8,428.5,129.9,428.5"/>
	<path fill="#34495E" d="M159.8,466h108.6c4.1,0,7.5,3.3,7.5,7.4l0,0c0,4.1-3.3,7.4-7.5,7.4H159.8c-4.1,0-7.4-3.3-7.4-7.4l0,0
		C152.3,469.3,155.7,466,159.8,466"/>
	<path fill="#1C8DCB" d="M276.4,547H164.9c-4.3,0-8.2,1.8-11,4.6c-2.8,2.8-4.6,6.7-4.6,11l0,0c0,4.3,1.8,8.2,4.6,11l0,0
		c2.8,2.8,6.7,4.6,11,4.6h111.5c4.3,0,8.2-1.8,11-4.6c2.8-2.8,4.6-6.7,4.6-11l0,0c0-4.3-1.8-8.2-4.6-11
		C284.6,548.7,280.7,547,276.4,547 M164.9,531.7h111.5c8.5,0,16.2,3.5,21.8,9.1l0,0c5.6,5.6,9,13.3,9,21.8l0,0
		c0,8.5-3.5,16.2-9,21.8c-5.6,5.6-13.3,9.1-21.8,9.1H164.9c-8.4,0-16.2-3.5-21.8-9.1l0,0l0,0c-5.6-5.6-9.1-13.3-9.1-21.8l0,0
		c0-8.5,3.5-16.2,9.1-21.8C148.7,535.2,156.4,531.7,164.9,531.7z"/>
	<path fill="#34495E" d="M158.9,519.1h111.5c8.5,0,16.2,3.5,21.8,9.1l0,0c5.6,5.6,9.1,13.3,9.1,21.8l0,0c0,8.5-3.5,16.2-9.1,21.8
		c-5.6,5.6-13.3,9.1-21.8,9.1H158.9c-8.5,0-16.2-3.5-21.8-9.1l0,0l0,0c-5.6-5.6-9.1-13.3-9.1-21.8l0,0c0-8.5,3.5-16.2,9.1-21.8
		C142.7,522.5,150.4,519.1,158.9,519.1"/>
	<path fill="#27CABF" d="M270.3,528.3c5.8,0,11.3,2.3,15.3,6.4c4.1,4.1,6.3,9.6,6.3,15.3c0,5.8-2.3,11.2-6.4,15.3
		c-4.1,4.1-9.5,6.4-15.3,6.4H158.9c-5.8,0-11.2-2.3-15.3-6.3l0,0c-4.1-4.1-6.3-9.6-6.3-15.3c0-5.7,2.3-11.2,6.4-15.3
		c4.1-4.1,9.6-6.4,15.3-6.4h111.3V528.3z"/>
	<path fill="#51F4E9" d="M270.3,528.3c5.8,0,11.3,2.3,15.3,6.4c4.1,4.1,6.3,9.6,6.3,15.3c0,1.5-0.2,2.9-0.4,4.4
		c-0.9-4.1-2.9-7.9-5.9-11c-4.1-4.1-9.6-6.4-15.3-6.4H158.9c-5.8,0-11.2,2.3-15.3,6.4c-3,3-5.1,6.8-5.9,11c-0.3-1.4-0.4-2.9-0.4-4.4
		c0-5.8,2.3-11.2,6.4-15.3c4.1-4.1,9.6-6.4,15.3-6.4H270.3z"/>
	<path fill="#BCC2C6" d="M458.4,229.9h260c5.4,0,9.7,4.4,9.7,9.7v393.9c0,5.4-4.4,9.7-9.7,9.7h-260c-5.4,0-9.8-4.4-9.8-9.7V239.6
		C448.7,234.2,453.1,229.9,458.4,229.9"/>
	<rect x="459.8" y="241" fill="#FFFFFF" width="257.2" height="391.1"/>
	<path fill="#BCC2C6" d="M504.2,316.2h168.4c4.1,0,7.4,3.4,7.4,7.4l0,0c0,4.1-3.3,7.5-7.4,7.5H504.2c-4.1,0-7.5-3.4-7.5-7.5l0,0
		C496.8,319.6,500.1,316.2,504.2,316.2"/>
	<path fill="#BCC2C6" d="M504.2,353.6h168.4c4.1,0,7.4,3.3,7.4,7.4l0,0c0,4.1-3.3,7.4-7.4,7.4H504.2c-4.1,0-7.5-3.3-7.5-7.4l0,0
		C496.8,357,500.1,353.6,504.2,353.6"/>
	<path fill="#BCC2C6" d="M504.2,278.8h168.4c4.1,0,7.4,3.3,7.4,7.4c0,4.1-3.3,7.4-7.4,7.4H504.2c-4.1,0-7.5-3.3-7.5-7.4
		C496.8,282.1,500.1,278.8,504.2,278.8"/>
	<path fill="#BCC2C6" d="M504.2,391.1h168.4c4.1,0,7.4,3.3,7.4,7.4l0,0c0,4.1-3.3,7.4-7.4,7.4H504.2c-4.1,0-7.5-3.3-7.5-7.4l0,0
		C496.8,394.4,500.1,391.1,504.2,391.1"/>
	<path fill="#BCC2C6" d="M504.2,428.5h168.4c4.1,0,7.4,3.3,7.4,7.4l0,0c0,4.1-3.3,7.4-7.4,7.4H504.2c-4.1,0-7.5-3.3-7.5-7.4l0,0
		C496.8,431.9,500.1,428.5,504.2,428.5"/>
	<path fill="#BCC2C6" d="M534.1,466h108.6c4.1,0,7.5,3.3,7.5,7.4l0,0c0,4.1-3.3,7.4-7.5,7.4H534.1c-4.1,0-7.4-3.3-7.4-7.4l0,0
		C526.7,469.3,530,466,534.1,466"/>
	<path fill="#BCC2C6" d="M650.7,547H539.3c-4.3,0-8.2,1.8-11,4.6c-2.8,2.8-4.6,6.7-4.6,11l0,0c0,4.3,1.8,8.2,4.6,11l0,0
		c2.8,2.8,6.7,4.6,11,4.6h111.4c4.3,0,8.2-1.8,11-4.6c2.8-2.8,4.6-6.7,4.6-11l0,0c0-4.3-1.7-8.2-4.6-11C659,548.7,655,547,650.7,547
		 M539.3,531.7h111.4c8.5,0,16.2,3.5,21.8,9.1l0,0c5.6,5.6,9.1,13.3,9.1,21.8l0,0c0,8.5-3.5,16.2-9.1,21.8
		c-5.6,5.6-13.3,9.1-21.8,9.1H539.3c-8.5,0-16.2-3.5-21.8-9.1l0,0l0,0c-5.6-5.6-9.1-13.3-9.1-21.8l0,0c0-8.5,3.5-16.2,9.1-21.8
		C523.1,535.2,530.8,531.7,539.3,531.7z"/>
	<path fill="#34495E" d="M533.2,519.1h111.5c8.5,0,16.2,3.5,21.8,9.1l0,0c5.6,5.6,9.1,13.3,9.1,21.8l0,0c0,8.5-3.5,16.2-9.1,21.8
		c-5.6,5.6-13.3,9.1-21.8,9.1H533.2c-8.4,0-16.2-3.5-21.8-9.1l0,0l0,0c-5.6-5.6-9.1-13.3-9.1-21.8l0,0c0-8.5,3.5-16.2,9.1-21.8
		C517,522.5,524.7,519.1,533.2,519.1"/>
	<path fill="#27CABF" d="M644.7,528.3c5.8,0,11.3,2.3,15.3,6.4c4.1,4.1,6.3,9.6,6.3,15.3c0,5.8-2.3,11.2-6.4,15.3
		c-4.1,4.1-9.5,6.4-15.3,6.4H533.2c-5.8,0-11.2-2.3-15.3-6.3l0,0c-4.1-4.1-6.3-9.6-6.3-15.3c0-5.7,2.3-11.2,6.4-15.3
		c4.1-4.1,9.5-6.4,15.3-6.4h111.4V528.3z"/>
	<path fill="#51F4E9" d="M644.7,528.3c5.8,0,11.3,2.3,15.3,6.4c4.1,4.1,6.3,9.6,6.3,15.3c0,1.5-0.2,2.9-0.4,4.4
		c-0.9-4.1-2.9-7.9-5.9-11c-4.1-4.1-9.6-6.4-15.3-6.4H533.2c-5.8,0-11.2,2.3-15.3,6.4c-3,3-5.1,6.8-5.9,11c-0.3-1.4-0.4-2.9-0.4-4.4
		c0-5.8,2.3-11.2,6.4-15.3c4.1-4.1,9.5-6.4,15.3-6.4H644.7z"/>
</g>
</svg>
