<?xml version="1.0" encoding="utf-8"?>
<!-- Generator: Adobe Illustrator 15.1.0, SVG Export Plug-In . SVG Version: 6.00 Build 0)  -->
<!DOCTYPE svg PUBLIC "-//W3C//DTD SVG 1.0//EN" "http://www.w3.org/TR/2001/REC-SVG-20010904/DTD/svg10.dtd">
<svg version="1.0" id="Layer_1" xmlns="http://www.w3.org/2000/svg" xmlns:xlink="http://www.w3.org/1999/xlink" x="0px" y="0px"
	 width="800px" height="800px" viewBox="0 0 800 800" enable-background="new 0 0 800 800" xml:space="preserve">
<g id="Header">
	<path fill="#BCC2C6" d="M33.1,34.5h736.2c8.5,0,16.1,3.5,21.7,9l0,0c5.6,5.6,9,13.2,9,21.7v654.6c0,8.4-3.5,16.1-9,21.7l0,0
		c-5.6,5.6-13.2,9-21.7,9H33.1c-8.5,0-16.1-3.5-21.7-9l0,0c-5.6-5.6-9-13.2-9-21.7V65.2c0-8.4,3.5-16.1,9-21.7l0,0
		C16.9,38,24.6,34.5,33.1,34.5"/>
	<path fill="#EBEFF0" d="M788.9,65.2v654.6c0,12.3-8.6,19.6-19.6,19.6H33.1c-11,0-19.6-7-19.6-19.6V65.2c0-12.8,8.6-19.6,19.6-19.6
		h736.2C780.2,45.6,788.9,52.7,788.9,65.2"/>
	<path fill="#94A4A5" d="M677.6,72.3c7.8,0,14.2,6.4,14.2,14.2s-6.3,14.2-14.2,14.2c-7.9,0-14.2-6.3-14.2-14.2
		C663.4,78.7,669.7,72.3,677.6,72.3 M722.1,72.3c7.8,0,14.2,6.4,14.2,14.2s-6.4,14.2-14.2,14.2c-7.8,0-14.2-6.3-14.2-14.2
		C707.9,78.7,714.3,72.3,722.1,72.3z M633,72.3c7.8,0,14.2,6.4,14.2,14.2s-6.3,14.2-14.2,14.2c-7.8,0-14.2-6.4-14.2-14.2
		S625.2,72.3,633,72.3z"/>
	
		<text transform="matrix(1 0 0 1 187.0015 81.2969)" fill="#93A2A3" font-family="'NexaBold'" font-size="44.0749" letter-spacing="2">ARTICLE</text>
</g>
<g id="Body">
	<path fill="#BCC2C6" d="M29,123.9h744.3c7.3,0,14,3,18.8,7.8c4.8,4.8,7.8,11.5,7.8,18.8v572.8c0,7.3-3,14-7.8,18.8
		c-4.8,4.8-11.5,7.8-18.8,7.8H29c-7.3,0-14-3-18.8-7.8c-4.8-4.8-7.8-11.5-7.8-18.8V150.6c0-7.3,3-14,7.8-18.8
		C15,126.9,21.7,123.9,29,123.9"/>
	<path fill="#FFFFFF" d="M29,135.1c-4.1,0-8,1.6-11,4.6c-2.9,2.9-4.6,6.8-4.6,11v572.8c0,4.1,1.7,8,4.6,11c2.9,2.9,6.8,4.6,11,4.6
		h744.3c4.1,0,8-1.6,11-4.6c2.9-2.9,4.6-6.8,4.6-11V150.6c0-4.1-1.6-8-4.6-11c-2.9-2.9-6.8-4.6-11-4.6H29V135.1z"/>
	<rect x="76.9" y="190" fill="#34495E" width="648.6" height="226.2"/>
	<rect x="88" y="201.1" fill="#F65C4C" width="626.4" height="203.9"/>
	<path fill="#34495E" d="M401.2,224.5c-43.4,0-78.6,35.2-78.6,78.6s35.2,78.6,78.6,78.6c43.4,0,78.6-35.2,78.6-78.6
		S444.6,224.5,401.2,224.5z M401.2,371.4c-37.8,0-68.4-30.6-68.4-68.4c0-37.7,30.6-68.4,68.4-68.4s68.4,30.7,68.4,68.4
		C469.6,340.8,439,371.4,401.2,371.4z"/>
	<path fill="#BCC2C6" d="M91.4,463.6h626.7c4.1,0,7.4,3.3,7.4,7.4l0,0c0,4.1-3.4,7.4-7.4,7.4H91.4c-4.1,0-7.4-3.3-7.4-7.4l0,0
		C83.9,467,87.3,463.6,91.4,463.6"/>
	<path fill="#BCC2C6" d="M91.4,501h626.7c4.1,0,7.4,3.3,7.4,7.4l0,0c0,4.1-3.4,7.4-7.4,7.4H91.4c-4.1,0-7.4-3.3-7.4-7.4l0,0
		C83.9,504.4,87.3,501,91.4,501"/>
	<path fill="#BCC2C6" d="M251.8,538.5h305.9c4.1,0,7.4,3.3,7.4,7.5l0,0c0,4.1-3.3,7.5-7.4,7.5H251.8c-4.1,0-7.4-3.4-7.4-7.5l0,0
		C244.3,541.8,247.7,538.5,251.8,538.5"/>
	<path fill="#BCC2C6" d="M459.9,637.8H348.5c-4.3,0-8.2,1.8-11,4.6c-2.8,2.8-4.6,6.7-4.6,11l0,0c0,4.3,1.7,8.2,4.6,11l0,0
		c2.8,2.8,6.7,4.5,11,4.5H460c4.3,0,8.2-1.8,11-4.6s4.6-6.7,4.6-11l0,0c0-4.3-1.8-8.2-4.6-11C468.1,639.6,464.2,637.8,459.9,637.8
		 M348.5,622.6H460c8.5,0,16.2,3.5,21.8,9.1l0,0c5.6,5.6,9.1,13.3,9.1,21.8l0,0c0,8.5-3.5,16.2-9.1,21.8c-5.6,5.6-13.3,9.1-21.8,9.1
		H348.5c-8.5,0-16.2-3.5-21.8-9.1l0,0l0,0c-5.6-5.6-9.1-13.3-9.1-21.8l0,0c0-8.5,3.5-16.2,9.1-21.8C332.3,626,340,622.6,348.5,622.6
		z"/>
	<path fill="#34495E" d="M342.4,609.9h111.5c8.5,0,16.2,3.5,21.8,9.1l0,0c5.6,5.6,9.1,13.3,9.1,21.8l0,0c0,8.5-3.5,16.2-9.1,21.8
		c-5.6,5.6-13.3,9.1-21.8,9.1H342.4c-8.5,0-16.2-3.5-21.8-9.1l0,0l0,0c-5.6-5.6-9.1-13.3-9.1-21.8l0,0c0-8.5,3.5-16.2,9.1-21.8
		C326.2,613.4,333.9,609.9,342.4,609.9"/>
	<path fill="#27CABF" d="M453.9,619.1c5.8,0,11.3,2.3,15.3,6.3c4.1,4.1,6.4,9.6,6.4,15.3s-2.3,11.2-6.4,15.3
		c-4.1,4.1-9.5,6.4-15.3,6.4H342.4c-5.7,0-11.2-2.3-15.3-6.3l0,0c-4.1-4.1-6.3-9.6-6.3-15.3c0-5.8,2.3-11.2,6.4-15.3
		c4.1-4.1,9.6-6.4,15.3-6.4H453.9z"/>
	<path fill="#51F4E9" d="M453.9,619.1c5.8,0,11.3,2.3,15.3,6.3c4.1,4.1,6.4,9.6,6.4,15.3c0,1.5-0.1,2.9-0.4,4.4
		c-0.9-4.1-2.9-7.9-5.9-11c-4.1-4.1-9.6-6.3-15.3-6.3H342.4c-5.8,0-11.2,2.3-15.3,6.4c-3,3-5.1,6.8-5.9,11c-0.3-1.4-0.4-2.9-0.4-4.4
		c0-5.8,2.3-11.2,6.4-15.3c4.1-4.1,9.6-6.4,15.3-6.4H453.9z"/>
	<path fill="#D63C2C" d="M439.8,322.9L418,335.4l0,0L396.3,348c-3,1.7-6,2.6-8.7,2.6c-2.3,0-4.5-0.6-6.4-1.7
		c-1.9-1.1-3.4-2.7-4.6-4.7c-1.4-2.4-2.2-5.4-2.2-8.8v-25.1v-25.1c0-3.5,0.8-6.4,2.2-8.8c1.2-2.1,2.8-3.6,4.7-4.7
		c1.9-1.1,4-1.6,6.3-1.6c2.7,0,5.7,0.8,8.7,2.5l0,0l21.7,12.5l21.7,12.5l0,0c3,1.7,5.2,3.9,6.5,6.3c1.2,2,1.7,4.2,1.7,6.4
		c0,2.2-0.6,4.3-1.7,6.3C444.9,319,442.7,321.2,439.8,322.9"/>
	<path fill="#34495E" d="M435.5,315.6l-21.7,12.5l0,0L392,340.7c-3,1.8-6,2.6-8.7,2.6c-2.3,0-4.5-0.6-6.4-1.7
		c-1.9-1.1-3.4-2.7-4.6-4.6c-1.4-2.4-2.2-5.4-2.2-8.8v-25.1V278c0-3.4,0.8-6.4,2.1-8.8c1.2-2.1,2.8-3.6,4.7-4.7
		c1.9-1.1,4-1.6,6.3-1.6c2.8,0,5.7,0.8,8.7,2.5l0,0l21.7,12.5l21.7,12.6l0,0c3,1.7,5.2,3.9,6.5,6.3c1.2,2,1.7,4.2,1.7,6.4
		c0,2.1-0.6,4.3-1.7,6.2C440.6,311.8,438.4,314,435.5,315.6"/>
	<path fill="#FFFFFF" d="M430.4,306.8c1-0.6,2.2-1.5,2.8-2.5c0.2-0.4,0.4-0.8,0.4-1.3c0-0.4-0.1-0.8-0.4-1.2
		c-0.6-1.1-1.8-1.9-2.8-2.5l-21.7-12.6L387,274.2c-1-0.6-2.4-1.2-3.6-1.2c-0.5,0-0.9,0.1-1.3,0.3c-0.4,0.2-0.7,0.6-0.9,0.9
		c-0.6,1.1-0.8,2.5-0.8,3.7v50.2c0,1.2,0.2,2.6,0.8,3.7c0.2,0.4,0.5,0.7,0.9,1c0.4,0.2,0.8,0.3,1.2,0.3c1.2,0,2.6-0.6,3.6-1.2
		L430.4,306.8z"/>
</g>
</svg>
