<?xml version="1.0" encoding="utf-8"?>
<!-- Generator: Adobe Illustrator 15.1.0, SVG Export Plug-In . SVG Version: 6.00 Build 0)  -->
<!DOCTYPE svg PUBLIC "-//W3C//DTD SVG 1.0//EN" "http://www.w3.org/TR/2001/REC-SVG-20010904/DTD/svg10.dtd">
<svg version="1.0" id="Layer_1" xmlns="http://www.w3.org/2000/svg" xmlns:xlink="http://www.w3.org/1999/xlink" x="0px" y="0px"
	 width="800px" height="800px" viewBox="0 0 800 800" enable-background="new 0 0 800 800" xml:space="preserve">
<g id="Header">
	<path fill="#BCC2C6" d="M33.1,34.5h736.2c8.5,0,16.1,3.5,21.7,9l0,0c5.6,5.6,9,13.2,9,21.7v654.6c0,8.4-3.5,16.1-9,21.7l0,0
		c-5.6,5.6-13.2,9-21.7,9H33.1c-8.5,0-16.1-3.5-21.7-9l0,0c-5.6-5.6-9-13.2-9-21.7V65.2c0-8.4,3.5-16.1,9-21.7l0,0
		C16.9,38,24.6,34.5,33.1,34.5"/>
	<path fill="#EBEFF0" d="M788.9,65.2v654.6c0,12.3-8.6,19.6-19.6,19.6H33.1c-11,0-19.6-7-19.6-19.6V65.2c0-12.8,8.6-19.6,19.6-19.6
		h736.2C780.2,45.6,788.9,52.7,788.9,65.2"/>
	<path fill="#94A4A5" d="M677.6,72.3c7.8,0,14.2,6.4,14.2,14.2s-6.3,14.2-14.2,14.2c-7.9,0-14.2-6.3-14.2-14.2
		C663.4,78.7,669.7,72.3,677.6,72.3 M722.1,72.3c7.8,0,14.2,6.4,14.2,14.2s-6.4,14.2-14.2,14.2c-7.8,0-14.2-6.3-14.2-14.2
		C707.9,78.7,714.3,72.3,722.1,72.3z M633,72.3c7.8,0,14.2,6.4,14.2,14.2s-6.3,14.2-14.2,14.2c-7.8,0-14.2-6.4-14.2-14.2
		S625.2,72.3,633,72.3z"/>
	<text transform="matrix(1 0 0 1 183.1045 85.2969)" fill="#93A2A3" font-family="'NexaBold'" font-size="44.0749">404</text>
</g>
<g id="Body">
	<path fill="#BCC2C6" d="M29.8,130.3h743.6c7.3,0,14,3,18.8,7.8c4.8,4.8,7.8,11.5,7.8,18.8v572.2c0,7.3-3,14-7.8,18.8
		c-4.8,4.8-11.5,7.8-18.8,7.8H29.8c-7.3,0-14-3-18.8-7.8c-4.8-4.8-7.8-11.5-7.8-18.8V157c0-7.3,3-14,7.8-18.8
		C15.8,133.3,22.4,130.3,29.8,130.3"/>
	<path fill-rule="evenodd" clip-rule="evenodd" fill="#FFFFFF" d="M29.8,141.5c-4.1,0-8,1.7-10.9,4.6c-2.9,2.9-4.6,6.8-4.6,10.9
		v572.2c0,4.1,1.7,8,4.6,10.9c2.9,2.9,6.8,4.5,10.9,4.5h743.6c4.1,0,8-1.6,10.9-4.5c2.9-2.9,4.6-6.8,4.6-10.9V157
		c0-4.1-1.6-8-4.6-10.9c-2.9-2.9-6.8-4.6-10.9-4.6H29.8z"/>
	<path fill="#BCC2C6" d="M460.3,651.3H348.9c-4.3,0-8.2,1.8-11,4.6c-2.8,2.8-4.6,6.7-4.6,11l0,0c0,4.3,1.8,8.2,4.6,11l0,0
		c2.8,2.8,6.7,4.6,11,4.6h111.4c4.3,0,8.2-1.8,11-4.6c2.8-2.8,4.6-6.7,4.6-11l0,0c0-4.3-1.8-8.2-4.6-11
		C468.5,653,464.5,651.3,460.3,651.3 M348.9,636h111.4c8.5,0,16.2,3.5,21.8,9.1l0,0c5.6,5.6,9.1,13.3,9.1,21.8l0,0
		c0,8.5-3.5,16.2-9.1,21.8c-5.6,5.6-13.3,9.1-21.8,9.1H348.9c-8.5,0-16.2-3.5-21.8-9.1l0,0l0,0c-5.6-5.6-9.1-13.3-9.1-21.8l0,0
		c0-8.5,3.5-16.2,9.1-21.8C332.7,639.5,340.4,636,348.9,636z"/>
	<path fill="#34495E" d="M342.9,623.4h111.4c8.5,0,16.2,3.5,21.8,9.1l0,0c5.6,5.6,9.1,13.3,9.1,21.8l0,0c0,8.5-3.5,16.2-9.1,21.8
		c-5.6,5.6-13.3,9.1-21.8,9.1H342.9c-8.5,0-16.2-3.5-21.8-9.1l0,0l0,0c-5.6-5.6-9.1-13.3-9.1-21.8l0,0c0-8.5,3.5-16.2,9.1-21.8
		C326.7,626.9,334.4,623.4,342.9,623.4"/>
	<path fill="#27CABF" d="M454.2,632.6c5.7,0,11.2,2.3,15.3,6.3c4.1,4.1,6.3,9.6,6.3,15.3c0,5.8-2.3,11.2-6.4,15.3
		c-4.1,4.1-9.5,6.4-15.3,6.4H342.9c-5.7,0-11.2-2.3-15.3-6.3l0,0c-4.1-4.1-6.3-9.6-6.3-15.3c0-5.7,2.3-11.2,6.4-15.3
		c4.1-4.1,9.5-6.4,15.3-6.4H454.2z"/>
	<path fill="#51F4E9" d="M454.2,632.6c5.7,0,11.2,2.3,15.3,6.3c4.1,4.1,6.3,9.6,6.3,15.3c0,1.5-0.2,2.9-0.4,4.4
		c-0.9-4.1-2.9-7.9-5.9-10.9c-4.1-4.1-9.6-6.3-15.3-6.3H342.9c-5.8,0-11.2,2.3-15.3,6.4c-3,3-5.1,6.8-5.9,10.9
		c-0.3-1.4-0.4-2.9-0.4-4.4c0-5.7,2.3-11.2,6.4-15.3c4.1-4.1,9.5-6.4,15.3-6.4H454.2z"/>
	<path fill-rule="evenodd" clip-rule="evenodd" fill="#BCC2C6" d="M172.6,535h457.9c4.1,0,7.4,3.3,7.4,7.4c0,4.1-3.3,7.4-7.4,7.4
		H172.6c-4.1,0-7.4-3.3-7.4-7.4C165.2,538.3,168.5,535,172.6,535"/>
	<path fill-rule="evenodd" clip-rule="evenodd" fill="#BCC2C6" d="M290.8,572.3h221.5c4.1,0,7.4,3.3,7.4,7.4c0,4.1-3.4,7.4-7.4,7.4
		H290.8c-4.1,0-7.4-3.4-7.4-7.4C283.4,575.7,286.7,572.3,290.8,572.3"/>
	<path fill-rule="evenodd" clip-rule="evenodd" fill="#34495E" d="M479.1,345.9l24.8-33.9v33.9H479.1z M496.5,300.1l-32.9,45.2
		l1.2,14h39.1v13.9h13.6v-13.9h8.6v-13.4h-8.6v-45.8H496.5z M369.3,341.9c0,43.7,64.2,43.6,64.2,0v-10.6c0-43.6-64.2-43.7-64.2,0
		V341.9z M383,331.3c0-26.4,36.8-26.1,36.8,0v10.6c0,26.6-36.8,26.6-36.8,0V331.3z M292.6,345.9l24.8-33.9v33.9H292.6z M310,300.1
		L277,345.3l1.3,14h39.1v13.9H331v-13.9h8.6v-13.4H331v-45.8H310z"/>
</g>
</svg>
