<?xml version="1.0" encoding="utf-8"?>
<!-- Generator: Adobe Illustrator 15.1.0, SVG Export Plug-In . SVG Version: 6.00 Build 0)  -->
<!DOCTYPE svg PUBLIC "-//W3C//DTD SVG 1.0//EN" "http://www.w3.org/TR/2001/REC-SVG-20010904/DTD/svg10.dtd">
<svg version="1.0" id="Layer_1" xmlns="http://www.w3.org/2000/svg" xmlns:xlink="http://www.w3.org/1999/xlink" x="0px" y="0px"
	 width="800px" height="800px" viewBox="0 0 800 800" enable-background="new 0 0 800 800" xml:space="preserve">
<g id="Header">
	<path fill="#BCC2C6" d="M33.1,34.5h736.2c8.5,0,16.1,3.5,21.7,9l0,0c5.6,5.6,9,13.2,9,21.7v654.6c0,8.4-3.5,16.1-9,21.7l0,0
		c-5.6,5.6-13.2,9-21.7,9H33.1c-8.5,0-16.1-3.5-21.7-9l0,0c-5.6-5.6-9-13.2-9-21.7V65.2c0-8.4,3.5-16.1,9-21.7l0,0
		C16.9,38,24.6,34.5,33.1,34.5"/>
	<path fill="#EBEFF0" d="M788.9,65.2v654.6c0,12.3-8.6,19.6-19.6,19.6H33.1c-11,0-19.6-7-19.6-19.6V65.2c0-12.8,8.6-19.6,19.6-19.6
		h736.2C780.2,45.6,788.9,52.7,788.9,65.2"/>
	<path fill="#94A4A5" d="M677.6,72.3c7.8,0,14.2,6.4,14.2,14.2s-6.3,14.2-14.2,14.2c-7.9,0-14.2-6.3-14.2-14.2
		C663.4,78.7,669.7,72.3,677.6,72.3 M722.1,72.3c7.8,0,14.2,6.4,14.2,14.2s-6.4,14.2-14.2,14.2c-7.8,0-14.2-6.3-14.2-14.2
		C707.9,78.7,714.3,72.3,722.1,72.3z M633,72.3c7.8,0,14.2,6.4,14.2,14.2s-6.3,14.2-14.2,14.2c-7.8,0-14.2-6.4-14.2-14.2
		S625.2,72.3,633,72.3z"/>
	<text transform="matrix(1 0 0 1 225.2173 85.2969)" fill="#93A2A3" font-family="'NexaBold'" font-size="44.0749">ABOUT</text>
</g>
<g id="Body">
	<path fill="#BCC2C6" d="M28.6,129.4h744.7c7.3,0,14,3,18.8,7.8c4.8,4.8,7.8,11.5,7.8,18.9v573.1c0,7.3-3,14-7.8,18.8
		c-4.8,4.8-11.5,7.8-18.8,7.8H28.6c-7.3,0-14-3-18.8-7.8c-4.8-4.8-7.8-11.5-7.8-18.8V156.1c0-7.3,3-14,7.8-18.9
		C14.6,132.4,21.3,129.4,28.6,129.4"/>
	<path fill-rule="evenodd" clip-rule="evenodd" fill="#FFFFFF" d="M28.6,140.5c-4.1,0-8,1.6-11,4.6c-2.9,2.9-4.6,6.8-4.6,11v573.1
		c0,4.1,1.6,8,4.6,11c2.9,2.9,6.8,4.6,11,4.6h744.7c4.1,0,8-1.7,11-4.6c2.9-2.9,4.6-6.8,4.6-11V156.1c0-4.1-1.7-8-4.6-11
		c-2.9-2.9-6.8-4.6-11-4.6H28.6z"/>
	<rect x="80.3" y="195.5" fill-rule="evenodd" clip-rule="evenodd" fill="#34495E" width="265.3" height="226.3"/>
	<rect x="91.4" y="206.6" fill="#22A6EF" width="243" height="204"/>
	<path fill-rule="evenodd" clip-rule="evenodd" fill="#BCC2C6" d="M87.7,505.8h619.1c4.1,0,7.4,3.3,7.4,7.4c0,4.1-3.3,7.5-7.4,7.5
		H87.7c-4.1,0-7.4-3.3-7.4-7.5C80.3,509.1,83.6,505.8,87.7,505.8"/>
	<path fill-rule="evenodd" clip-rule="evenodd" fill="#BCC2C6" d="M87.7,543.2h619.1c4.1,0,7.4,3.4,7.4,7.5c0,4.1-3.3,7.5-7.4,7.5
		H87.7c-4.1,0-7.4-3.3-7.4-7.5C80.3,546.6,83.6,543.2,87.7,543.2"/>
	<path fill-rule="evenodd" clip-rule="evenodd" fill="#BCC2C6" d="M87.7,580.7h302.1c4.1,0,7.5,3.4,7.5,7.5c0,4.1-3.4,7.4-7.5,7.4
		H87.7c-4.1,0-7.5-3.4-7.5-7.4C80.3,584,83.6,580.7,87.7,580.7"/>
	<path fill-rule="evenodd" clip-rule="evenodd" fill="#34495E" d="M87.7,468.3h302.1c4.1,0,7.5,3.3,7.5,7.5l0,0
		c0,4.1-3.4,7.5-7.5,7.5H87.7c-4.1,0-7.4-3.4-7.4-7.5l0,0C80.3,471.6,83.6,468.3,87.7,468.3"/>
	<path opacity="0.15" d="M278,279.7c-2.3-2.3-5.4-3.7-8.9-3.7s-6.6,1.4-8.9,3.7c-2.3,2.3-3.7,5.4-3.7,8.9c0,3.5,1.4,6.6,3.7,8.9
		c2.3,2.3,5.4,3.7,8.9,3.7c3.5,0,6.6-1.4,8.9-3.7c2.3-2.3,3.7-5.4,3.7-8.9C281.7,285.1,280.3,281.9,278,279.7 M269.2,265.7
		c6.3,0,12,2.6,16.1,6.7l0,0c4.1,4.1,6.7,9.9,6.7,16.2c0,6.3-2.6,12-6.7,16.1l0,0c-4.1,4.1-9.8,6.7-16.1,6.7c-6.3,0-12-2.6-16.2-6.7
		c-4.1-4.1-6.7-9.9-6.7-16.2c0-6.3,2.6-12,6.7-16.2l0,0C257.1,268.2,262.8,265.7,269.2,265.7z M258.2,321.7L258.2,321.7l0.2,0.2
		l2.9,3.9l0,0l17.3,23.6c1.2,1.7,1.8,3.4,1.8,5h0c0,1.3-0.3,2.4-0.9,3.4c-0.5,0.9-1.2,1.8-2.1,2.4c-1.4,1.1-3.3,1.6-5.1,1.6v0
		l-43.6,0l-83.5,0c-2,0-3.8-0.6-5.1-1.6c-0.9-0.7-1.7-1.5-2.2-2.6h0c-0.5-1-0.7-2.1-0.7-3.3h0c0-1.7,0.6-3.6,1.9-5.3l18.3-24.9l0,0
		l1.7-2.2l0.2-0.3v0l0,0l22.6-30c0.8-1.1,1.7-1.9,2.6-2.6c1.8-1.3,3.7-2,5.7-2c2,0,3.9,0.7,5.6,2c0.9,0.7,1.8,1.6,2.6,2.6l21.6,28.7
		l10.4-13.9c0.8-1.1,1.7-1.9,2.6-2.6c1.7-1.3,3.6-2,5.7-2c2,0,3.9,0.6,5.7,2c0.9,0.7,1.8,1.6,2.6,2.6L258.2,321.7L258.2,321.7z
		 M267.3,351.5l-17.5-23.7l-0.7-1l-10.7-14.2l0,0l0,0l-12.1,16l-2.5,3.3l-4.1,5.5l-4.1-5.5l-2.5-3.3L190,297.8l0,0l0,0L168,326.9
		l-0.6,0.9l-17.4,23.7l78.7,0L267.3,351.5z"/>
	<path fill="#34495E" d="M265.9,255.4c6.3,0,12,2.6,16.1,6.7l0,0c4.1,4.1,6.7,9.8,6.7,16.1c0,6.3-2.6,12-6.7,16.1l0,0
		c-4.1,4.1-9.9,6.7-16.1,6.7c-6.3,0-12-2.6-16.2-6.7c-4.1-4.1-6.7-9.9-6.7-16.2c0-6.3,2.6-12,6.7-16.1l0,0
		C253.9,258,259.6,255.4,265.9,255.4 M255,311.5L255,311.5l0.2,0.2l2.9,3.9l0,0l17.3,23.6c1.2,1.7,1.8,3.4,1.8,5h0
		c0,1.3-0.3,2.4-0.9,3.4c-0.5,0.9-1.2,1.8-2.1,2.4c-1.4,1-3.3,1.6-5.1,1.6v0l-43.6,0l-83.5,0c-2,0-3.8-0.6-5.1-1.6
		c-0.9-0.7-1.7-1.6-2.2-2.6h0c-0.5-1-0.7-2.1-0.7-3.3h0c0-1.7,0.6-3.6,1.9-5.3L154,314l0,0l1.7-2.2l0.2-0.3l0,0l22.6-30
		c0.8-1.1,1.7-2,2.6-2.6c1.8-1.3,3.7-2,5.7-2c2,0,3.9,0.7,5.6,2c0.9,0.7,1.8,1.6,2.6,2.6l21.6,28.7l10.4-13.9c0.8-1,1.7-1.9,2.6-2.6
		c1.7-1.3,3.7-2,5.7-2c2,0,3.9,0.6,5.7,2c0.9,0.7,1.8,1.6,2.6,2.6L255,311.5L255,311.5z"/>
	<path fill-rule="evenodd" clip-rule="evenodd" fill="#39D4FF" d="M265.9,263.8c-3.9,0-7.5,1.5-10.3,4.3l0,0
		c-2.7,2.7-4.2,6.4-4.2,10.2s1.5,7.5,4.3,10.3c2.7,2.7,6.4,4.3,10.3,4.3c3.9,0,7.5-1.5,10.3-4.3l0,0c2.7-2.7,4.2-6.4,4.2-10.2
		s-1.5-7.5-4.2-10.2l-0.1-0.1C273.5,265.3,269.8,263.8,265.9,263.8 M142.8,343.3l82.6,0l42.6,0l-19.6-26.6l-11.6-15.4
		c-0.3-0.3-0.6-0.7-0.9-1c-0.2-0.1-0.4-0.3-0.6-0.3c-0.2,0-0.5,0.2-0.7,0.3c-0.4,0.3-0.7,0.6-0.9,1L216.5,324l-28.2-37.5
		c-0.3-0.3-0.6-0.7-0.9-1c-0.2-0.1-0.4-0.3-0.7-0.3c-0.2,0-0.5,0.2-0.7,0.3c-0.4,0.3-0.7,0.6-0.9,1l-22.7,30.2L142.8,343.3z"/>
	<path fill-rule="evenodd" clip-rule="evenodd" fill="#BCC2C6" d="M463.8,245.4h250.4c4.1,0,7.5,3.3,7.5,7.4l0,0
		c0,4.1-3.3,7.5-7.5,7.5H463.8c-4.1,0-7.4-3.4-7.4-7.5l0,0C456.4,248.8,459.7,245.4,463.8,245.4"/>
	<path fill-rule="evenodd" clip-rule="evenodd" fill="#BCC2C6" d="M463.8,282.9h250.4c4.1,0,7.5,3.3,7.5,7.5l0,0
		c0,4.1-3.3,7.4-7.5,7.4H463.8c-4.1,0-7.4-3.3-7.4-7.4l0,0C456.4,286.2,459.7,282.9,463.8,282.9"/>
	<path fill-rule="evenodd" clip-rule="evenodd" fill="#34495E" d="M463.8,208h250.4c4.1,0,7.5,3.4,7.5,7.5l0,0
		c0,4.1-3.3,7.4-7.5,7.4H463.8c-4.1,0-7.4-3.3-7.4-7.4l0,0C456.4,211.3,459.7,208,463.8,208"/>
	<path fill-rule="evenodd" clip-rule="evenodd" fill="#BCC2C6" d="M463.8,320.4h250.4c4.1,0,7.5,3.3,7.5,7.4v0
		c0,4.1-3.3,7.4-7.5,7.4H463.8c-4.1,0-7.4-3.3-7.4-7.4v0C456.4,323.7,459.7,320.4,463.8,320.4"/>
	<path fill-rule="evenodd" clip-rule="evenodd" fill="#BCC2C6" d="M463.8,357.8h250.4c4.1,0,7.5,3.4,7.5,7.5c0,4.1-3.3,7.5-7.5,7.5
		H463.8c-4.1,0-7.4-3.4-7.4-7.5C456.4,361.2,459.7,357.8,463.8,357.8"/>
	<path fill-rule="evenodd" clip-rule="evenodd" fill="#BCC2C6" d="M463.8,395.3h250.4c4.1,0,7.5,3.3,7.5,7.5c0,4.1-3.3,7.4-7.5,7.4
		H463.8c-4.1,0-7.4-3.4-7.4-7.4C456.4,398.6,459.7,395.3,463.8,395.3"/>
</g>
</svg>
