<?xml version="1.0" encoding="utf-8"?>
<!-- Generator: Adobe Illustrator 15.1.0, SVG Export Plug-In . SVG Version: 6.00 Build 0)  -->
<!DOCTYPE svg PUBLIC "-//W3C//DTD SVG 1.0//EN" "http://www.w3.org/TR/2001/REC-SVG-20010904/DTD/svg10.dtd">
<svg version="1.0" id="Layer_1" xmlns="http://www.w3.org/2000/svg" xmlns:xlink="http://www.w3.org/1999/xlink" x="0px" y="0px"
	 width="800px" height="800px" viewBox="0 0 800 800" enable-background="new 0 0 800 800" xml:space="preserve">
<g id="Header">
	<path fill="#BCC2C6" d="M33.1,34.5h736.2c8.5,0,16.1,3.5,21.7,9l0,0c5.6,5.6,9,13.2,9,21.7v654.6c0,8.4-3.5,16.1-9,21.7l0,0
		c-5.6,5.6-13.2,9-21.7,9H33.1c-8.5,0-16.1-3.5-21.7-9l0,0c-5.6-5.6-9-13.2-9-21.7V65.2c0-8.4,3.5-16.1,9-21.7l0,0
		C16.9,38,24.6,34.5,33.1,34.5"/>
	<path fill="#EBEFF0" d="M788.9,65.2v654.6c0,12.3-8.6,19.6-19.6,19.6H33.1c-11,0-19.6-7-19.6-19.6V65.2c0-12.8,8.6-19.6,19.6-19.6
		h736.2C780.2,45.6,788.9,52.7,788.9,65.2"/>
	<path fill="#94A4A5" d="M677.6,72.3c7.8,0,14.2,6.4,14.2,14.2s-6.3,14.2-14.2,14.2c-7.9,0-14.2-6.3-14.2-14.2
		C663.4,78.7,669.7,72.3,677.6,72.3 M722.1,72.3c7.8,0,14.2,6.4,14.2,14.2s-6.4,14.2-14.2,14.2c-7.8,0-14.2-6.3-14.2-14.2
		C707.9,78.7,714.3,72.3,722.1,72.3z M633,72.3c7.8,0,14.2,6.4,14.2,14.2s-6.3,14.2-14.2,14.2c-7.8,0-14.2-6.4-14.2-14.2
		S625.2,72.3,633,72.3z"/>
	<text transform="matrix(1 0 0 1 186.4761 85.2969)" fill="#93A2A3" font-family="'NexaBold'" font-size="44.0749">CALENDER</text>
</g>
<g id="Body">
	<path fill="#BCC2C6" d="M28.5,129.5h744.8c7.3,0,14,3,18.8,7.8c4.8,4.8,7.8,11.5,7.8,18.9v573.1c0,7.3-3,14-7.8,18.8
		c-4.8,4.8-11.5,7.8-18.8,7.8H28.5c-7.3,0-14-3-18.8-7.8c-4.8-4.8-7.8-11.5-7.8-18.8V156.2c0-7.3,3-14,7.8-18.9
		C14.5,132.5,21.2,129.5,28.5,129.5"/>
	<path fill-rule="evenodd" clip-rule="evenodd" fill="#FFFFFF" d="M28.5,140.7c-4.1,0-8,1.7-11,4.6c-2.9,2.9-4.6,6.8-4.6,11v573.1
		c0,4.1,1.6,8,4.6,11c2.9,2.9,6.8,4.6,11,4.6h744.8c4.1,0,8-1.7,11-4.6c2.9-2.9,4.6-6.8,4.6-11V156.2c0-4.1-1.6-8-4.6-11
		c-2.9-2.9-6.8-4.6-11-4.6H28.5z"/>
	<path fill-rule="evenodd" clip-rule="evenodd" fill="#34495E" d="M110.2,674.6h581.4c8,0,14.6-6.6,14.6-14.6V225.5
		c0-8-6.6-14.6-14.6-14.6H110.2c-8,0-14.6,6.6-14.6,14.6V660C95.6,668,102.2,674.6,110.2,674.6"/>
	<path fill="#FFFFFF" d="M110.2,663.5h581.4c1.9,0,3.5-1.6,3.5-3.5V225.5c0-1.9-1.6-3.5-3.5-3.5H110.2c-1.9,0-3.4,1.5-3.4,3.5V660
		C106.8,661.9,108.3,663.5,110.2,663.5"/>
	<path fill-rule="evenodd" clip-rule="evenodd" fill="#34495E" d="M110.2,674.6h581.4c8,0,14.6-6.6,14.6-14.6V310.1
		c0-8-6.6-14.6-14.6-14.6H110.2c-8,0-14.6,6.6-14.6,14.6V660C95.6,668,102.2,674.6,110.2,674.6"/>
	<path fill="#22A6EF" d="M110.2,663.5h581.4c1.9,0,3.5-1.6,3.5-3.5V310.1c0-1.9-1.6-3.5-3.5-3.5H110.2c-1.9,0-3.4,1.5-3.4,3.5V660
		C106.8,661.9,108.3,663.5,110.2,663.5"/>
	<path fill-rule="evenodd" clip-rule="evenodd" fill="#34495E" d="M279.5,252.5h242.9c3.1,0,5.6,2.5,5.6,5.6c0,3.1-2.5,5.6-5.6,5.6
		H279.5c-3.1,0-5.6-2.5-5.6-5.6C273.9,255,276.4,252.5,279.5,252.5"/>
	<rect x="472.7" y="456.2" fill-rule="evenodd" clip-rule="evenodd" fill="#34495E" width="57.8" height="57.7"/>
	<rect x="170.7" y="357.8" fill-rule="evenodd" clip-rule="evenodd" fill="#34495E" width="57.7" height="57.7"/>
	<rect x="271.4" y="357.8" fill-rule="evenodd" clip-rule="evenodd" fill="#34495E" width="57.7" height="57.7"/>
	<rect x="372.1" y="357.8" fill-rule="evenodd" clip-rule="evenodd" fill="#34495E" width="57.8" height="57.7"/>
	<rect x="472.7" y="357.8" fill-rule="evenodd" clip-rule="evenodd" fill="#34495E" width="57.8" height="57.7"/>
	<rect x="573.4" y="357.8" fill-rule="evenodd" clip-rule="evenodd" fill="#34495E" width="57.8" height="57.7"/>
	<rect x="170.7" y="456.2" fill-rule="evenodd" clip-rule="evenodd" fill="#34495E" width="57.7" height="57.7"/>
	<rect x="271.4" y="456.2" fill-rule="evenodd" clip-rule="evenodd" fill="#34495E" width="57.7" height="57.7"/>
	<rect x="372.1" y="456.2" fill-rule="evenodd" clip-rule="evenodd" fill="#34495E" width="57.8" height="57.7"/>
	<rect x="573.4" y="456.2" fill-rule="evenodd" clip-rule="evenodd" fill="#34495E" width="57.8" height="57.7"/>
	<rect x="170.7" y="554.5" fill-rule="evenodd" clip-rule="evenodd" fill="#34495E" width="57.7" height="57.7"/>
	<rect x="271.4" y="554.5" fill-rule="evenodd" clip-rule="evenodd" fill="#34495E" width="57.7" height="57.7"/>
	<rect x="372.1" y="554.5" fill-rule="evenodd" clip-rule="evenodd" fill="#34495E" width="57.8" height="57.7"/>
	<rect x="472.7" y="554.5" fill-rule="evenodd" clip-rule="evenodd" fill="#34495E" width="57.8" height="57.7"/>
	<rect x="573.4" y="554.5" fill-rule="evenodd" clip-rule="evenodd" fill="#34495E" width="57.8" height="57.7"/>
	<rect x="584.6" y="565.6" fill-rule="evenodd" clip-rule="evenodd" fill="#39D4FF" width="35.4" height="35.4"/>
	<rect x="483.9" y="565.6" fill-rule="evenodd" clip-rule="evenodd" fill="#39D4FF" width="35.4" height="35.4"/>
	<rect x="383.2" y="565.6" fill-rule="evenodd" clip-rule="evenodd" fill="#39D4FF" width="35.4" height="35.4"/>
	<rect x="282.5" y="565.6" fill-rule="evenodd" clip-rule="evenodd" fill="#39D4FF" width="35.4" height="35.4"/>
	<rect x="181.9" y="565.6" fill-rule="evenodd" clip-rule="evenodd" fill="#39D4FF" width="35.5" height="35.4"/>
	<rect x="584.6" y="467.3" fill-rule="evenodd" clip-rule="evenodd" fill="#39D4FF" width="35.4" height="35.5"/>
	<rect x="483.9" y="467.3" fill-rule="evenodd" clip-rule="evenodd" fill="#FFFFFF" width="35.4" height="35.5"/>
	<rect x="383.2" y="467.3" fill-rule="evenodd" clip-rule="evenodd" fill="#39D4FF" width="35.4" height="35.5"/>
	<rect x="282.5" y="467.3" fill-rule="evenodd" clip-rule="evenodd" fill="#39D4FF" width="35.4" height="35.5"/>
	<rect x="181.9" y="467.3" fill-rule="evenodd" clip-rule="evenodd" fill="#39D4FF" width="35.5" height="35.5"/>
	<rect x="584.6" y="369" fill-rule="evenodd" clip-rule="evenodd" fill="#39D4FF" width="35.4" height="35.4"/>
	<rect x="483.9" y="369" fill-rule="evenodd" clip-rule="evenodd" fill="#39D4FF" width="35.4" height="35.4"/>
	<rect x="383.2" y="369" fill-rule="evenodd" clip-rule="evenodd" fill="#39D4FF" width="35.4" height="35.4"/>
	<rect x="282.5" y="369" fill-rule="evenodd" clip-rule="evenodd" fill="#39D4FF" width="35.4" height="35.4"/>
	<rect x="181.9" y="369" fill-rule="evenodd" clip-rule="evenodd" fill="#39D4FF" width="35.5" height="35.4"/>
</g>
</svg>
