<?xml version="1.0" encoding="utf-8"?>
<!-- Generator: Adobe Illustrator 15.1.0, SVG Export Plug-In . SVG Version: 6.00 Build 0)  -->
<!DOCTYPE svg PUBLIC "-//W3C//DTD SVG 1.0//EN" "http://www.w3.org/TR/2001/REC-SVG-20010904/DTD/svg10.dtd">
<svg version="1.0" id="Layer_1" xmlns="http://www.w3.org/2000/svg" xmlns:xlink="http://www.w3.org/1999/xlink" x="0px" y="0px"
	 width="800px" height="800px" viewBox="0 0 800 800" enable-background="new 0 0 800 800" xml:space="preserve">
<g id="Header">
	<path fill="#BCC2C6" d="M33.1,34.5h736.2c8.5,0,16.1,3.5,21.7,9l0,0c5.6,5.6,9,13.2,9,21.7v654.6c0,8.4-3.5,16.1-9,21.7l0,0
		c-5.6,5.6-13.2,9-21.7,9H33.1c-8.5,0-16.1-3.5-21.7-9l0,0c-5.6-5.6-9-13.2-9-21.7V65.2c0-8.4,3.5-16.1,9-21.7l0,0
		C16.9,38,24.6,34.5,33.1,34.5"/>
	<path fill="#EBEFF0" d="M788.9,65.2v654.6c0,12.3-8.6,19.6-19.6,19.6H33.1c-11,0-19.6-7-19.6-19.6V65.2c0-12.8,8.6-19.6,19.6-19.6
		h736.2C780.2,45.6,788.9,52.7,788.9,65.2"/>
	<path fill="#94A4A5" d="M677.6,72.3c7.8,0,14.2,6.4,14.2,14.2s-6.3,14.2-14.2,14.2c-7.9,0-14.2-6.3-14.2-14.2
		C663.4,78.7,669.7,72.3,677.6,72.3 M722.1,72.3c7.8,0,14.2,6.4,14.2,14.2s-6.4,14.2-14.2,14.2c-7.8,0-14.2-6.3-14.2-14.2
		C707.9,78.7,714.3,72.3,722.1,72.3z M633,72.3c7.8,0,14.2,6.4,14.2,14.2s-6.3,14.2-14.2,14.2c-7.8,0-14.2-6.4-14.2-14.2
		S625.2,72.3,633,72.3z"/>
	<text transform="matrix(1 0 0 1 228.0166 85.2969)" fill="#93A2A3" font-family="'NexaBold'" font-size="44.0749">CARDS</text>
</g>
<g id="Body">
	<path fill="#BCC2C6" d="M28.8,130.5h744.5c7.3,0,14,3,18.8,7.8c4.8,4.8,7.8,11.5,7.8,18.8v572.9c0,7.3-3,14-7.8,18.8
		c-4.8,4.8-11.5,7.8-18.8,7.8H28.8c-7.3,0-14-3-18.8-7.8c-4.8-4.8-7.8-11.5-7.8-18.8V157.2c0-7.3,3-14,7.8-18.8
		C14.8,133.5,21.5,130.5,28.8,130.5"/>
	<path fill-rule="evenodd" clip-rule="evenodd" fill="#FFFFFF" d="M28.8,141.6c-4.1,0-8,1.6-10.9,4.6c-2.9,2.9-4.6,6.8-4.6,11v572.9
		c0,4.1,1.6,8,4.6,11c2.9,2.9,6.8,4.6,10.9,4.6h744.5c4.1,0,8-1.7,11-4.6c2.9-2.9,4.5-6.8,4.5-11V157.2c0-4.1-1.6-8-4.5-11
		c-2.9-2.9-6.8-4.6-11-4.6H28.8z"/>
	<path fill-rule="evenodd" clip-rule="evenodd" fill="#34495E" d="M119.5,259.2h212.1c6,0,11,4.9,11,11v304.1c0,6-4.9,11-11,11
		H119.5c-6,0-11-4.9-11-11V270.2C108.5,264.2,113.5,259.2,119.5,259.2"/>
	<rect x="119.7" y="270.4" fill-rule="evenodd" clip-rule="evenodd" fill="#22A6EF" width="211.8" height="303.8"/>
	<path opacity="0.15" d="M290.6,330.6c-2.3-2.3-5.4-3.7-8.9-3.7c-3.5,0-6.6,1.4-8.9,3.7c-2.3,2.3-3.7,5.4-3.7,8.9
		c0,3.5,1.4,6.6,3.7,8.9c2.3,2.3,5.4,3.7,8.9,3.7c3.5,0,6.6-1.4,8.9-3.7c2.3-2.3,3.7-5.4,3.7-8.9C294.3,336,292.9,332.8,290.6,330.6
		 M281.8,316.6c6.3,0,12,2.6,16.2,6.7l0,0c4.1,4.1,6.7,9.9,6.7,16.1c0,6.3-2.6,12-6.7,16.2l0,0c-4.1,4.1-9.9,6.7-16.2,6.7
		c-6.3,0-12-2.6-16.2-6.7c-4.1-4.1-6.7-9.9-6.7-16.2c0-6.3,2.6-12,6.7-16.1l0,0C269.8,319.1,275.5,316.6,281.8,316.6z M270.8,372.6
		L270.8,372.6l0.1,0.2l2.9,3.9l0,0l17.4,23.6c1.2,1.7,1.8,3.4,1.8,5h0c0,1.3-0.3,2.4-0.9,3.4c-0.5,1-1.2,1.8-2.1,2.4
		c-1.4,1.1-3.3,1.6-5.1,1.6v0l-43.6,0l-83.5,0c-2,0-3.8-0.6-5.1-1.6c-0.9-0.7-1.7-1.5-2.2-2.6h0c-0.5-1-0.7-2.1-0.7-3.3h0
		c0-1.7,0.6-3.6,1.9-5.3l18.3-24.8l0,0l1.7-2.2l0.2-0.3l0,0l22.6-30c0.8-1.1,1.7-1.9,2.6-2.6c1.8-1.3,3.7-2,5.7-2c2,0,3.9,0.7,5.6,2
		c0.9,0.7,1.8,1.6,2.6,2.6l21.6,28.7l10.4-13.9c0.8-1.1,1.7-1.9,2.6-2.6c1.7-1.3,3.6-2,5.7-2c2,0,3.9,0.6,5.7,2
		c0.9,0.7,1.8,1.6,2.6,2.6L270.8,372.6L270.8,372.6z M280,402.4l-17.5-23.7l-0.7-1l-10.7-14.2l0,0l0,0l-12.1,16l-2.5,3.3l-4.1,5.5
		l-4.1-5.5l-2.5-3.3l-23.2-30.8l0,0l0,0l-21.9,29.1l-0.6,0.9l-17.4,23.7l78.7,0L280,402.4z"/>
	<path fill="#34495E" d="M278.6,306.4c6.3,0,12,2.6,16.1,6.7l0,0c4.1,4.1,6.7,9.9,6.7,16.1c0,6.3-2.6,12-6.7,16.1l0,0
		c-4.1,4.1-9.8,6.7-16.1,6.7c-6.3,0-12-2.6-16.2-6.7c-4.1-4.1-6.7-9.9-6.7-16.2c0-6.3,2.6-12,6.7-16.1l0,0
		C266.5,308.9,272.2,306.4,278.6,306.4 M267.6,362.4L267.6,362.4l0.2,0.2l2.9,3.9l0,0l17.3,23.6c1.2,1.7,1.8,3.4,1.8,5h0
		c0,1.3-0.3,2.4-0.9,3.4c-0.5,0.9-1.2,1.8-2.1,2.4c-1.4,1-3.3,1.6-5.1,1.6v0l-43.6,0l-83.5,0c-2,0-3.7-0.6-5.1-1.6
		c-0.9-0.7-1.7-1.6-2.2-2.6h0c-0.5-1-0.7-2.1-0.7-3.3h0c0-1.7,0.6-3.6,1.9-5.3l18.3-24.8l0,0l1.7-2.2l0.2-0.3l0,0l0,0l22.6-30
		c0.8-1.1,1.7-1.9,2.6-2.6c1.8-1.3,3.7-2,5.7-2c2,0,3.9,0.7,5.6,2c0.9,0.7,1.8,1.6,2.6,2.6l21.6,28.7l10.4-13.9
		c0.8-1,1.7-1.9,2.6-2.6c1.7-1.3,3.7-2,5.7-2c2,0,3.9,0.6,5.7,2c0.9,0.7,1.8,1.6,2.6,2.6L267.6,362.4L267.6,362.4z"/>
	<path fill-rule="evenodd" clip-rule="evenodd" fill="#39D4FF" d="M278.6,314.7c-3.9,0-7.5,1.5-10.3,4.3l0,0
		c-2.7,2.7-4.2,6.4-4.2,10.2s1.5,7.5,4.3,10.3c2.7,2.7,6.4,4.2,10.3,4.2s7.5-1.5,10.3-4.3l0,0c2.7-2.7,4.2-6.4,4.2-10.2
		s-1.5-7.5-4.2-10.2l-0.1-0.1C286.1,316.2,282.4,314.7,278.6,314.7 M155.5,394.2l82.6,0l42.6,0l-19.6-26.6l-11.6-15.4
		c-0.3-0.3-0.6-0.7-0.9-1c-0.2-0.1-0.4-0.3-0.6-0.3c-0.2,0-0.5,0.2-0.7,0.3c-0.3,0.3-0.7,0.6-0.9,1l-17.1,22.7l-28.2-37.5
		c-0.3-0.4-0.6-0.7-0.9-1c-0.2-0.1-0.4-0.3-0.7-0.3s-0.5,0.2-0.7,0.3c-0.3,0.3-0.7,0.6-0.9,1L175,367.6L155.5,394.2z"/>
	<path fill-rule="evenodd" clip-rule="evenodd" fill="#34495E" d="M167.1,488.5H284c4.1,0,7.4,3.3,7.4,7.4l0,0
		c0,4.1-3.3,7.5-7.4,7.5H167.1c-4.1,0-7.4-3.3-7.4-7.5l0,0C159.6,491.8,163,488.5,167.1,488.5"/>
	<path fill-rule="evenodd" clip-rule="evenodd" fill="#34495E" d="M167.1,525.9H284c4.1,0,7.4,3.3,7.4,7.5l0,0
		c0,4.1-3.3,7.4-7.4,7.4H167.1c-4.1,0-7.4-3.3-7.4-7.4l0,0C159.6,529.3,163,525.9,167.1,525.9"/>
	<path fill-rule="evenodd" clip-rule="evenodd" fill="#34495E" d="M167.1,451h51c4.1,0,7.5,3.3,7.5,7.4v0c0,4.1-3.3,7.4-7.5,7.4h-51
		c-4.1,0-7.4-3.3-7.4-7.4v0C159.6,454.4,163,451,167.1,451"/>
	<path fill-rule="evenodd" clip-rule="evenodd" fill="#BCC2C6" d="M484.9,259.2H697c6,0,11,4.9,11,11v304.1c0,6-4.9,11-11,11H484.9
		c-6,0-11-4.9-11-11V270.2C473.9,264.2,478.9,259.2,484.9,259.2"/>
	<rect x="485" y="270.4" fill-rule="evenodd" clip-rule="evenodd" fill="#EBEFF0" width="211.8" height="303.8"/>
	<path fill="#DEE6E8" d="M656,328.4c-2.3-2.3-5.4-3.7-8.9-3.7c-3.5,0-6.6,1.4-8.9,3.7c-2.3,2.3-3.7,5.4-3.7,8.9
		c0,3.5,1.4,6.6,3.7,8.9c2.3,2.3,5.4,3.7,8.9,3.7c3.5,0,6.6-1.4,8.9-3.7c2.3-2.3,3.7-5.4,3.7-8.9C659.7,333.8,658.3,330.7,656,328.4
		 M647.2,314.4c6.3,0,12,2.6,16.1,6.7l0,0c4.1,4.1,6.7,9.8,6.7,16.1c0,6.3-2.6,12-6.7,16.1l0,0c-4.1,4.1-9.9,6.7-16.1,6.7
		c-6.3,0-12-2.6-16.2-6.7c-4.1-4.1-6.7-9.9-6.7-16.2c0-6.3,2.6-12,6.7-16.1l0,0C635.1,317,640.9,314.4,647.2,314.4z M636.2,370.5
		L636.2,370.5l0.1,0.2l2.9,3.9l0,0l17.4,23.6c1.2,1.7,1.8,3.4,1.8,5h0c0,1.3-0.3,2.4-0.9,3.4c-0.5,0.9-1.2,1.8-2.1,2.4
		c-1.4,1.1-3.3,1.6-5.1,1.6v0l-43.6,0l-83.5,0c-2,0-3.8-0.6-5.1-1.6c-0.9-0.7-1.7-1.5-2.2-2.6h0c-0.5-1-0.7-2.1-0.7-3.3h0
		c0-1.7,0.6-3.6,1.9-5.3l18.3-24.8l0,0l1.7-2.2l0.2-0.3l0,0l0,0l22.6-30c0.8-1.1,1.7-1.9,2.6-2.6c1.8-1.3,3.7-2,5.7-2
		c2,0,3.9,0.7,5.6,2c0.9,0.7,1.8,1.6,2.6,2.6l21.6,28.7l10.4-13.9c0.8-1.1,1.7-1.9,2.6-2.6c1.7-1.3,3.6-2,5.7-2c2,0,3.9,0.6,5.7,2
		c0.9,0.7,1.8,1.6,2.6,2.6L636.2,370.5L636.2,370.5z M645.4,400.3l-17.4-23.7l-0.7-1l-10.7-14.2l0,0l0,0l-12.1,16l-2.5,3.3l-4.1,5.5
		l-4.1-5.5l-2.5-3.3L568,346.6l0,0l0,0L546,375.7l-0.6,0.9l-17.4,23.7l78.7,0L645.4,400.3z"/>
	<path fill="#BCC2C6" d="M643.9,306.4c6.3,0,12,2.6,16.1,6.7l0,0c4.1,4.1,6.7,9.9,6.7,16.1c0,6.3-2.6,12-6.7,16.1l0,0
		c-4.1,4.1-9.8,6.7-16.1,6.7s-12-2.6-16.2-6.7c-4.1-4.1-6.7-9.9-6.7-16.2c0-6.3,2.6-12,6.7-16.1l0,0
		C631.9,308.9,637.6,306.4,643.9,306.4 M633,362.4L633,362.4l0.2,0.2l2.9,3.9l0,0l17.3,23.6c1.2,1.7,1.8,3.4,1.8,5h0
		c0,1.3-0.3,2.4-0.9,3.4c-0.5,0.9-1.2,1.8-2.1,2.4c-1.4,1-3.3,1.6-5.1,1.6v0l-43.6,0l-83.5,0c-2,0-3.7-0.6-5.1-1.6
		c-0.9-0.7-1.7-1.6-2.2-2.6h0c-0.5-1-0.7-2.1-0.7-3.3h0c0-1.7,0.6-3.6,1.9-5.3l18.3-24.8l0,0l1.7-2.2l0.2-0.3l0,0l0,0l22.6-30
		c0.8-1.1,1.7-1.9,2.6-2.6c1.8-1.3,3.7-2,5.7-2c2,0,3.9,0.7,5.6,2c0.9,0.7,1.8,1.6,2.6,2.6l21.6,28.7l10.4-13.9
		c0.8-1,1.7-1.9,2.6-2.6c1.7-1.3,3.7-2,5.7-2c2,0,3.9,0.6,5.7,2c0.9,0.7,1.8,1.6,2.6,2.6L633,362.4L633,362.4z"/>
	<path fill-rule="evenodd" clip-rule="evenodd" fill="#FFFFFF" d="M643.9,314.7c-3.9,0-7.5,1.5-10.3,4.3l0,0
		c-2.7,2.7-4.2,6.4-4.2,10.2s1.5,7.5,4.3,10.3c2.7,2.7,6.4,4.2,10.3,4.2c3.9,0,7.5-1.5,10.3-4.3l0,0c2.7-2.7,4.2-6.4,4.2-10.2
		s-1.5-7.5-4.2-10.2l-0.1-0.1C651.5,316.2,647.8,314.7,643.9,314.7 M520.9,394.2l82.6,0l42.6,0l-19.6-26.6l-11.6-15.4
		c-0.3-0.3-0.6-0.7-0.9-1c-0.2-0.1-0.4-0.3-0.6-0.3s-0.5,0.2-0.7,0.3c-0.4,0.3-0.7,0.6-0.9,1l-17.1,22.7l-28.2-37.5
		c-0.3-0.4-0.6-0.7-0.9-1c-0.2-0.1-0.4-0.3-0.7-0.3c-0.2,0-0.5,0.2-0.7,0.3c-0.3,0.3-0.7,0.6-0.9,1l-22.7,30.2L520.9,394.2z"/>
	<path fill-rule="evenodd" clip-rule="evenodd" fill="#BCC2C6" d="M532.5,488.5h116.9c4.1,0,7.5,3.3,7.5,7.4l0,0
		c0,4.1-3.4,7.5-7.5,7.5H532.5c-4.1,0-7.4-3.3-7.4-7.5l0,0C525,491.8,528.4,488.5,532.5,488.5"/>
	<path fill-rule="evenodd" clip-rule="evenodd" fill="#BCC2C6" d="M532.5,525.9h116.9c4.1,0,7.5,3.3,7.5,7.5l0,0
		c0,4.1-3.4,7.4-7.5,7.4H532.5c-4.1,0-7.4-3.3-7.4-7.4l0,0C525,529.3,528.4,525.9,532.5,525.9"/>
	<path fill-rule="evenodd" clip-rule="evenodd" fill="#BCC2C6" d="M532.5,451h51c4.1,0,7.4,3.3,7.4,7.4v0c0,4.1-3.3,7.4-7.4,7.4h-51
		c-4.1,0-7.4-3.3-7.4-7.4v0C525,454.4,528.4,451,532.5,451"/>
</g>
</svg>
