<?xml version="1.0" encoding="utf-8"?>
<!-- Generator: Adobe Illustrator 15.1.0, SVG Export Plug-In . SVG Version: 6.00 Build 0)  -->
<!DOCTYPE svg PUBLIC "-//W3C//DTD SVG 1.0//EN" "http://www.w3.org/TR/2001/REC-SVG-20010904/DTD/svg10.dtd">
<svg version="1.0" id="Layer_1" xmlns="http://www.w3.org/2000/svg" xmlns:xlink="http://www.w3.org/1999/xlink" x="0px" y="0px"
	 width="800px" height="800px" viewBox="0 0 800 800" enable-background="new 0 0 800 800" xml:space="preserve">
<g id="Header">
	<path fill="#BCC2C6" d="M33.1,34.5h736.2c8.5,0,16.1,3.5,21.7,9l0,0c5.6,5.6,9,13.2,9,21.7v654.6c0,8.4-3.5,16.1-9,21.7l0,0
		c-5.6,5.6-13.2,9-21.7,9H33.1c-8.5,0-16.1-3.5-21.7-9l0,0c-5.6-5.6-9-13.2-9-21.7V65.2c0-8.4,3.5-16.1,9-21.7l0,0
		C16.9,38,24.6,34.5,33.1,34.5"/>
	<path fill="#EBEFF0" d="M788.9,65.2v654.6c0,12.3-8.6,19.6-19.6,19.6H33.1c-11,0-19.6-7-19.6-19.6V65.2c0-12.8,8.6-19.6,19.6-19.6
		h736.2C780.2,45.6,788.9,52.7,788.9,65.2"/>
	<path fill="#94A4A5" d="M677.6,72.3c7.8,0,14.2,6.4,14.2,14.2s-6.3,14.2-14.2,14.2c-7.9,0-14.2-6.3-14.2-14.2
		C663.4,78.7,669.7,72.3,677.6,72.3 M722.1,72.3c7.8,0,14.2,6.4,14.2,14.2s-6.4,14.2-14.2,14.2c-7.8,0-14.2-6.3-14.2-14.2
		C707.9,78.7,714.3,72.3,722.1,72.3z M633,72.3c7.8,0,14.2,6.4,14.2,14.2s-6.3,14.2-14.2,14.2c-7.8,0-14.2-6.4-14.2-14.2
		S625.2,72.3,633,72.3z"/>
	<text transform="matrix(1 0 0 1 198.2881 85.2969)" fill="#93A2A3" font-family="'NexaBold'" font-size="44.0749">CONTACT</text>
</g>
<g id="Body">
	<path fill="#BCC2C6" d="M29.1,129.1h744.2c7.3,0,14,3,18.8,7.8c4.8,4.8,7.8,11.5,7.8,18.8v572.7c0,7.3-3,14-7.8,18.8
		c-4.8,4.8-11.5,7.8-18.8,7.8H29.1c-7.3,0-14-3-18.8-7.8c-4.8-4.8-7.8-11.5-7.8-18.8V155.8c0-7.3,3-14,7.8-18.8
		C15.1,132.1,21.8,129.1,29.1,129.1"/>
	<path fill-rule="evenodd" clip-rule="evenodd" fill="#FFFFFF" d="M29.1,140.2c-4.1,0-8,1.6-11,4.6c-2.9,2.9-4.6,6.8-4.6,11v572.7
		c0,4.1,1.7,8,4.6,11c2.9,2.9,6.8,4.5,11,4.5h744.2c4.1,0,8-1.6,10.9-4.5c2.9-2.9,4.6-6.8,4.6-11V155.8c0-4.1-1.6-8-4.6-11
		c-2.9-2.9-6.8-4.6-10.9-4.6H29.1z"/>
	<path fill-rule="evenodd" clip-rule="evenodd" fill="#BCC2C6" d="M92.3,279.7h298.1c5.3,0,9.7,4.4,9.7,9.7v39.5
		c0,5.3-4.3,9.7-9.7,9.7H92.3c-5.3,0-9.7-4.3-9.7-9.7v-39.5C82.6,284,87,279.7,92.3,279.7"/>
	<path fill-rule="evenodd" clip-rule="evenodd" fill="#BCC2C6" d="M92.3,388h298.1c5.3,0,9.7,4.3,9.7,9.7v39.5
		c0,5.3-4.3,9.7-9.7,9.7H92.3c-5.3,0-9.7-4.3-9.7-9.7v-39.5C82.6,392.3,87,388,92.3,388"/>
	<path fill-rule="evenodd" clip-rule="evenodd" fill="#BCC2C6" d="M92.3,496.3h298.1c5.3,0,9.7,4.3,9.7,9.7v39.5
		c0,5.3-4.3,9.7-9.7,9.7H92.3c-5.3,0-9.7-4.3-9.7-9.7V506C82.6,500.7,87,496.3,92.3,496.3"/>
	<rect x="92.8" y="507.5" fill-rule="evenodd" clip-rule="evenodd" fill="#FFFFFF" width="296.9" height="36.6"/>
	<rect x="92.8" y="399.1" fill-rule="evenodd" clip-rule="evenodd" fill="#FFFFFF" width="296.9" height="36.6"/>
	<rect x="92.8" y="290.8" fill-rule="evenodd" clip-rule="evenodd" fill="#FFFFFF" width="296.9" height="36.6"/>
	<path fill="#BCC2C6" d="M231,629.2H119.5c-4.3,0-8.2,1.8-11,4.6c-2.8,2.8-4.6,6.7-4.6,11c0,4.3,1.7,8.2,4.5,11l0,0
		c2.8,2.8,6.7,4.6,11,4.6H231c4.3,0,8.2-1.8,11-4.6c2.8-2.8,4.6-6.7,4.6-11c0-4.3-1.8-8.2-4.6-11C239.2,630.9,235.3,629.2,231,629.2
		 M119.5,613.9H231c8.5,0,16.2,3.5,21.8,9.1l0,0c5.6,5.6,9.1,13.3,9.1,21.8c0,8.5-3.5,16.2-9.1,21.8c-5.6,5.6-13.3,9.1-21.8,9.1
		H119.5c-8.5,0-16.2-3.5-21.8-9.1l0,0l0,0c-5.6-5.6-9.1-13.3-9.1-21.8c0-8.5,3.5-16.2,9.1-21.8C103.3,617.4,111,613.9,119.5,613.9z"
		/>
	<path fill="#34495E" d="M113.5,601.3h111.4c8.5,0,16.2,3.5,21.8,9l0,0c5.6,5.6,9.1,13.3,9.1,21.8c0,8.5-3.5,16.2-9.1,21.8
		c-5.6,5.6-13.3,9.1-21.8,9.1H113.5c-8.4,0-16.2-3.5-21.8-9.1v0l0,0c-5.6-5.6-9.1-13.3-9.1-21.8c0-8.5,3.5-16.2,9.1-21.8
		C97.3,604.8,105,601.3,113.5,601.3"/>
	<path fill="#27CABF" d="M224.9,610.5c5.8,0,11.3,2.3,15.3,6.4c4.1,4.1,6.3,9.6,6.3,15.3c0,5.8-2.3,11.2-6.4,15.3
		c-4.1,4.1-9.6,6.4-15.3,6.4H113.5c-5.7,0-11.2-2.3-15.3-6.3l0,0c-4.1-4.1-6.3-9.6-6.3-15.3c0-5.8,2.3-11.2,6.4-15.3
		c4.1-4.1,9.6-6.4,15.3-6.4H224.9z"/>
	<path fill="#51F4E9" d="M224.9,610.5c5.8,0,11.3,2.3,15.3,6.4c4.1,4.1,6.3,9.6,6.3,15.3c0,1.5-0.1,2.9-0.4,4.4
		c-0.9-4.1-2.9-7.9-5.9-11c-4.1-4.1-9.6-6.3-15.3-6.3H113.5c-5.7,0-11.2,2.3-15.3,6.4c-3,3-5.1,6.8-5.9,11c-0.3-1.4-0.4-2.9-0.4-4.4
		c0-5.8,2.3-11.2,6.4-15.3c4.1-4.1,9.6-6.4,15.3-6.4H224.9z"/>
	<path fill-rule="evenodd" clip-rule="evenodd" fill="#BCC2C6" d="M90.1,208.5h302.5c4.1,0,7.4,3.3,7.4,7.4v0c0,4.1-3.3,7.4-7.4,7.4
		H90.1c-4.1,0-7.4-3.3-7.4-7.4v0C82.6,211.9,86,208.5,90.1,208.5"/>
	<path fill-rule="evenodd" clip-rule="evenodd" fill="#34495E" d="M466.2,557h238c8.6,0,15.6-7,15.6-15.6V224.1
		c0-8.6-7-15.6-15.6-15.6h-238c-8.6,0-15.6,7-15.6,15.6v317.3C450.6,549.9,457.6,557,466.2,557"/>
	<path fill="#22A6EF" d="M466.2,219.2h238c2.7,0,4.9,2.2,4.9,4.9v317.3c0,2.7-2.2,4.9-4.9,4.9h-238c-2.7,0-4.9-2.2-4.9-4.9V224.1
		C461.3,221.4,463.5,219.2,466.2,219.2"/>
	<path fill-rule="evenodd" clip-rule="evenodd" fill="#34495E" d="M579.9,380c3,3,7.8,3,10.7,0c3-3,3-7.8,0-10.7c-3-3-7.8-3-10.7,0
		C576.9,372.2,576.9,377,579.9,380 M585.2,445.6l-35.5-35.5c-19.5-19.5-19.5-51.4,0-70.9c19.5-19.5,51.4-19.5,70.9,0
		c19.5,19.5,19.5,51.4,0,70.9L585.2,445.6z"/>
	<path fill-rule="evenodd" clip-rule="evenodd" fill="#39D4FF" d="M571.2,388.7c-7.7-7.8-7.7-20.3,0-28c7.8-7.7,20.3-7.7,28,0
		c7.8,7.7,7.8,20.3,0,28C591.5,396.4,579,396.4,571.2,388.7 M585.2,429.9l-27.6-27.6c-15.2-15.2-15.2-40.1,0-55.3
		c15.2-15.2,40.1-15.2,55.3,0c15.2,15.2,15.2,40.1,0,55.3L585.2,429.9z"/>
	<path fill-rule="evenodd" clip-rule="evenodd" fill="#1C8DCB" d="M585.2,450.8c29.3,0,53,1.7,53,3.9c0,2.1-23.7,3.9-53,3.9
		c-29.3,0-53-1.8-53-3.9C532.2,452.5,556,450.8,585.2,450.8"/>
</g>
</svg>
