<?xml version="1.0" encoding="utf-8"?>
<!-- Generator: Adobe Illustrator 15.1.0, SVG Export Plug-In . SVG Version: 6.00 Build 0)  -->
<!DOCTYPE svg PUBLIC "-//W3C//DTD SVG 1.0//EN" "http://www.w3.org/TR/2001/REC-SVG-20010904/DTD/svg10.dtd">
<svg version="1.0" id="Layer_1" xmlns="http://www.w3.org/2000/svg" xmlns:xlink="http://www.w3.org/1999/xlink" x="0px" y="0px"
	 width="800px" height="800px" viewBox="0 0 800 800" enable-background="new 0 0 800 800" xml:space="preserve">
<g id="Header">
	<path fill="#BCC2C6" d="M33.1,34.5h736.2c8.5,0,16.1,3.5,21.7,9l0,0c5.6,5.6,9,13.2,9,21.7v654.6c0,8.4-3.5,16.1-9,21.7l0,0
		c-5.6,5.6-13.2,9-21.7,9H33.1c-8.5,0-16.1-3.5-21.7-9l0,0c-5.6-5.6-9-13.2-9-21.7V65.2c0-8.4,3.5-16.1,9-21.7l0,0
		C16.9,38,24.6,34.5,33.1,34.5"/>
	<path fill="#EBEFF0" d="M788.9,65.2v654.6c0,12.3-8.6,19.6-19.6,19.6H33.1c-11,0-19.6-7-19.6-19.6V65.2c0-12.8,8.6-19.6,19.6-19.6
		h736.2C780.2,45.6,788.9,52.7,788.9,65.2"/>
	<path fill="#94A4A5" d="M677.6,72.3c7.8,0,14.2,6.4,14.2,14.2s-6.3,14.2-14.2,14.2c-7.9,0-14.2-6.3-14.2-14.2
		C663.4,78.7,669.7,72.3,677.6,72.3 M722.1,72.3c7.8,0,14.2,6.4,14.2,14.2s-6.4,14.2-14.2,14.2c-7.8,0-14.2-6.3-14.2-14.2
		C707.9,78.7,714.3,72.3,722.1,72.3z M633,72.3c7.8,0,14.2,6.4,14.2,14.2s-6.3,14.2-14.2,14.2c-7.8,0-14.2-6.4-14.2-14.2
		S625.2,72.3,633,72.3z"/>
	<text transform="matrix(1 0 0 1 197.8916 85.2969)" fill="#93A2A3" font-family="'NexaBold'" font-size="44.0749">COUNTER</text>
</g>
<g id="Body">
	<path fill="#BCC2C6" d="M29.4,131.3h744c7.3,0,14,3,18.8,7.8c4.8,4.8,7.8,11.5,7.8,18.8v572.5c0,7.3-3,14-7.8,18.8
		c-4.8,4.8-11.5,7.8-18.8,7.8h-744c-7.3,0-14-3-18.8-7.8c-4.8-4.8-7.8-11.5-7.8-18.8V158c0-7.3,3-14,7.8-18.8
		C15.4,134.3,22.1,131.3,29.4,131.3"/>
	<path fill-rule="evenodd" clip-rule="evenodd" fill="#FFFFFF" d="M29.4,142.4c-4.1,0-8,1.7-10.9,4.6c-2.9,2.9-4.6,6.8-4.6,11v572.5
		c0,4.1,1.6,8,4.6,11c2.9,2.9,6.8,4.5,10.9,4.5h744c4.1,0,8-1.6,11-4.5c2.9-2.9,4.5-6.8,4.5-11V158c0-4.1-1.6-8-4.5-11
		c-2.9-2.9-6.9-4.6-11-4.6H29.4z"/>
	<rect x="91.5" y="386.9" fill-rule="evenodd" clip-rule="evenodd" fill="#BCC2C6" width="114.6" height="114.6"/>
	<rect x="238.8" y="386.9" fill-rule="evenodd" clip-rule="evenodd" fill="#BCC2C6" width="114.6" height="114.6"/>
	<rect x="250" y="398" fill-rule="evenodd" clip-rule="evenodd" fill="#FFFFFF" width="92.3" height="92.3"/>
	<rect x="102.6" y="398" fill-rule="evenodd" clip-rule="evenodd" fill="#FFFFFF" width="92.3" height="92.3"/>
	<rect x="250" y="444.2" fill-rule="evenodd" clip-rule="evenodd" fill="#EBEFF0" width="92.3" height="46.2"/>
	<rect x="102.6" y="444.2" fill-rule="evenodd" clip-rule="evenodd" fill="#EBEFF0" width="92.3" height="46.2"/>
	<polygon fill-rule="evenodd" clip-rule="evenodd" fill="#34495E" points="136.7,469.8 161.1,469.8 161.1,461.6 154,461.6 
		154,418.6 136.5,418.6 136.5,427.3 144.4,427.3 144.4,461.6 136.7,461.6 	"/>
	<path fill-rule="evenodd" clip-rule="evenodd" fill="#34495E" d="M285.2,433.8c0.1-4.6,5.3-7.2,10.3-7.2c6.6,0,11.6,2.6,11.6,8.2
		c0,5.9-7.1,6.6-11,6.6c-10.1,0-20.8,3.5-20.8,15.3c0,4.5,0,9,0,13.5h41.5v-9H285v-4.4c0-5.6,6.9-6.7,11.1-6.7
		c10.7,0,20.6-2.5,20.6-15.5c0-12.2-11.1-16.3-21.4-16.3c-9.4,0-19.7,4.7-19.7,15.5H285.2z"/>
	<rect x="449.3" y="386.9" fill-rule="evenodd" clip-rule="evenodd" fill="#BCC2C6" width="114.6" height="114.6"/>
	<rect x="596.7" y="386.9" fill-rule="evenodd" clip-rule="evenodd" fill="#BCC2C6" width="114.6" height="114.6"/>
	<rect x="607.8" y="398" fill-rule="evenodd" clip-rule="evenodd" fill="#FFFFFF" width="92.3" height="92.3"/>
	<rect x="460.4" y="398" fill-rule="evenodd" clip-rule="evenodd" fill="#FFFFFF" width="92.3" height="92.3"/>
	<rect x="607.8" y="444.2" fill-rule="evenodd" clip-rule="evenodd" fill="#EBEFF0" width="92.3" height="46.2"/>
	<rect x="460.4" y="444.2" fill-rule="evenodd" clip-rule="evenodd" fill="#EBEFF0" width="92.3" height="46.2"/>
	<path fill-rule="evenodd" clip-rule="evenodd" fill="#34495E" d="M506.8,447.5c9.2,0,10.9,3.8,10.9,6.9c0,5.5-6.5,7.5-11.4,7.5
		c-4.2,0-11.3-1.8-11.3-7.1h-9.7c0.1,11.6,11.2,15.7,20.9,15.7c9.9,0,21.7-3.7,21.7-16.2c0-4.3-3.4-9.1-8.3-10.8
		c4.5-1.4,7.1-6.1,7.1-10.1c-0.1-10.9-10.5-15.6-20.1-15.6c-9.4,0-20.4,4-20.4,15.1h9.7c0-4.7,6.1-6.3,10.7-6.3
		c8.2,0,10.5,3.9,10.5,6.8c-0.1,4.8-5.6,6.2-10.8,6.2h-7.4v7.9H506.8z"/>
	<path fill-rule="evenodd" clip-rule="evenodd" fill="#34495E" d="M643,450.7l17.3-23.7v23.7H643z M655.1,418.6l-23,31.6l0.9,9.8
		h27.4v9.7h9.5V460h6v-9.4h-6v-32H655.1z"/>
	<rect x="399.4" y="417.2" fill-rule="evenodd" clip-rule="evenodd" fill="#BCC2C6" width="11.1" height="11.1"/>
	<rect x="399.4" y="460.1" fill-rule="evenodd" clip-rule="evenodd" fill="#BCC2C6" width="11.1" height="11.1"/>
	<path fill-rule="evenodd" clip-rule="evenodd" fill="#BCC2C6" d="M244.6,588h313.6c4.1,0,7.5,3.3,7.5,7.5l0,0
		c0,4.1-3.3,7.4-7.5,7.4H244.6c-4.1,0-7.5-3.3-7.5-7.4l0,0C237.1,591.4,240.5,588,244.6,588"/>
	<path fill-rule="evenodd" clip-rule="evenodd" fill="#BCC2C6" d="M319.4,641.8h163.9c4.1,0,7.5,3.3,7.5,7.4v0
		c0,4.1-3.3,7.4-7.5,7.4H319.4c-4.1,0-7.5-3.3-7.5-7.4v0C312,645.2,315.3,641.8,319.4,641.8"/>
</g>
</svg>
