<?xml version="1.0" encoding="utf-8"?>
<!-- Generator: Adobe Illustrator 15.1.0, SVG Export Plug-In . SVG Version: 6.00 Build 0)  -->
<!DOCTYPE svg PUBLIC "-//W3C//DTD SVG 1.0//EN" "http://www.w3.org/TR/2001/REC-SVG-20010904/DTD/svg10.dtd">
<svg version="1.0" id="Layer_1" xmlns="http://www.w3.org/2000/svg" xmlns:xlink="http://www.w3.org/1999/xlink" x="0px" y="0px"
	 width="800px" height="800px" viewBox="0 0 800 800" enable-background="new 0 0 800 800" xml:space="preserve">
<g id="Header">
	<path fill="#BCC2C6" d="M33.1,34.5h736.2c8.5,0,16.1,3.5,21.7,9l0,0c5.6,5.6,9,13.2,9,21.7v654.6c0,8.4-3.5,16.1-9,21.7l0,0
		c-5.6,5.6-13.2,9-21.7,9H33.1c-8.5,0-16.1-3.5-21.7-9l0,0c-5.6-5.6-9-13.2-9-21.7V65.2c0-8.4,3.5-16.1,9-21.7l0,0
		C16.9,38,24.6,34.5,33.1,34.5"/>
	<path fill="#EBEFF0" d="M788.9,65.2v654.6c0,12.3-8.6,19.6-19.6,19.6H33.1c-11,0-19.6-7-19.6-19.6V65.2c0-12.8,8.6-19.6,19.6-19.6
		h736.2C780.2,45.6,788.9,52.7,788.9,65.2"/>
	<path fill="#94A4A5" d="M677.6,72.3c7.8,0,14.2,6.4,14.2,14.2s-6.3,14.2-14.2,14.2c-7.9,0-14.2-6.3-14.2-14.2
		C663.4,78.7,669.7,72.3,677.6,72.3 M722.1,72.3c7.8,0,14.2,6.4,14.2,14.2s-6.4,14.2-14.2,14.2c-7.8,0-14.2-6.3-14.2-14.2
		C707.9,78.7,714.3,72.3,722.1,72.3z M633,72.3c7.8,0,14.2,6.4,14.2,14.2s-6.3,14.2-14.2,14.2c-7.8,0-14.2-6.4-14.2-14.2
		S625.2,72.3,633,72.3z"/>
	<text transform="matrix(1 0 0 1 183.1045 85.2969)" fill="#93A2A3" font-family="'NexaBold'" font-size="44.0749">ERROR</text>
</g>
<g id="Body">
	<path fill="#BCC2C6" d="M28.9,130.1h744.5c7.3,0,14,3,18.8,7.8c4.8,4.8,7.8,11.5,7.8,18.8v572.9c0,7.3-3,14-7.8,18.8
		c-4.8,4.8-11.5,7.8-18.8,7.8H28.9c-7.3,0-14-3-18.8-7.8c-4.8-4.8-7.8-11.5-7.8-18.8V156.8c0-7.3,3-14,7.8-18.8
		C14.9,133.1,21.5,130.1,28.9,130.1"/>
	<path fill-rule="evenodd" clip-rule="evenodd" fill="#FFFFFF" d="M28.9,141.2c-4.1,0-8,1.7-10.9,4.6c-2.9,2.9-4.6,6.8-4.6,11v572.9
		c0,4.1,1.6,8,4.6,11c2.9,2.9,6.8,4.5,10.9,4.5h744.5c4.1,0,8-1.6,10.9-4.5c2.9-2.9,4.6-6.8,4.6-11V156.8c0-4.1-1.6-8-4.6-11
		c-2.9-2.9-6.8-4.6-10.9-4.6H28.9z"/>
	<path fill-rule="evenodd" clip-rule="evenodd" fill="#34495E" d="M401.1,295l25.6-25.5c12.6-12.6,33.1-12.6,45.6,0
		c12.6,12.6,12.6,33,0,45.6l-25.6,25.6l25.5,25.5c12.6,12.6,12.6,33.1,0,45.6c-12.6,12.6-33.1,12.6-45.6,0l-25.6-25.5l-25.5,25.5
		c-12.6,12.6-33.1,12.6-45.6,0c-12.6-12.6-12.6-33.1,0-45.6l25.5-25.5l-25.6-25.6c-12.6-12.6-12.6-33,0-45.6
		c12.6-12.6,33.1-12.6,45.6,0L401.1,295z"/>
	<path fill-rule="evenodd" clip-rule="evenodd" fill="#F65C4C" d="M367.7,277.3l33.4,33.4l33.4-33.4c8.2-8.2,21.7-8.2,29.9,0l0,0
		c8.2,8.2,8.2,21.6,0,29.9L431,340.6l33.4,33.4c8.2,8.2,8.2,21.6,0,29.9l0,0c-8.2,8.2-21.7,8.2-29.9,0l-33.4-33.4l-33.4,33.4
		c-8.2,8.2-21.6,8.2-29.9,0l0,0c-8.2-8.2-8.2-21.6,0-29.9l33.4-33.4l-33.4-33.4c-8.2-8.2-8.2-21.6,0-29.9l0,0
		C346,269.1,359.5,269.1,367.7,277.3"/>
	<path fill="#BCC2C6" d="M459.9,644.9H348.4c-4.3,0-8.2,1.8-11,4.6c-2.8,2.8-4.6,6.7-4.6,11c0,4.3,1.8,8.2,4.6,11l0,0
		c2.8,2.8,6.7,4.6,11,4.6h111.5c4.3,0,8.2-1.8,11-4.6c2.8-2.8,4.6-6.7,4.6-11c0-4.3-1.8-8.2-4.6-11
		C468.1,646.7,464.2,644.9,459.9,644.9 M348.4,629.6h111.5c8.5,0,16.2,3.5,21.8,9.1l0,0c5.6,5.6,9.1,13.3,9.1,21.8
		c0,8.5-3.5,16.2-9.1,21.8c-5.6,5.6-13.3,9.1-21.8,9.1H348.4c-8.5,0-16.2-3.5-21.8-9.1l0,0l0,0c-5.6-5.6-9.1-13.3-9.1-21.8
		c0-8.5,3.5-16.2,9.1-21.8C332.2,633.1,339.9,629.6,348.4,629.6z"/>
	<path fill="#34495E" d="M342.3,617h111.5c8.5,0,16.2,3.5,21.8,9.1l0,0c5.6,5.6,9.1,13.3,9.1,21.8c0,8.5-3.5,16.2-9.1,21.8
		c-5.6,5.6-13.3,9.1-21.8,9.1H342.3c-8.5,0-16.2-3.5-21.8-9.1l0,0l0,0c-5.6-5.6-9.1-13.3-9.1-21.8c0-8.5,3.5-16.2,9.1-21.8
		C326.1,620.5,333.8,617,342.3,617"/>
	<path fill="#27CABF" d="M453.8,626.2c5.8,0,11.3,2.3,15.3,6.4c4.1,4.1,6.4,9.6,6.4,15.3c0,5.8-2.3,11.2-6.4,15.3
		c-4.1,4.1-9.6,6.4-15.3,6.4H342.3c-5.7,0-11.2-2.3-15.3-6.3l0,0c-4.1-4.1-6.3-9.6-6.3-15.3c0-5.8,2.3-11.2,6.4-15.3
		c4.1-4.1,9.6-6.4,15.3-6.4H453.8z"/>
	<path fill="#51F4E9" d="M453.8,626.2c5.8,0,11.3,2.3,15.3,6.4c4.1,4.1,6.4,9.6,6.4,15.3c0,1.5-0.2,2.9-0.4,4.4
		c-0.9-4.1-2.9-7.9-5.9-11c-4.1-4.1-9.6-6.3-15.3-6.3H342.3c-5.8,0-11.2,2.3-15.3,6.4c-3,3-5.1,6.8-5.9,11c-0.3-1.4-0.4-2.9-0.4-4.4
		c0-5.8,2.3-11.2,6.4-15.3c4.1-4.1,9.6-6.4,15.3-6.4H453.8z"/>
	<path fill-rule="evenodd" clip-rule="evenodd" fill="#BCC2C6" d="M171.9,528.5h458.4c4.1,0,7.4,3.3,7.4,7.4l0,0
		c0,4.1-3.3,7.5-7.4,7.5H171.9c-4.1,0-7.4-3.3-7.4-7.5l0,0C164.5,531.8,167.8,528.5,171.9,528.5"/>
	<path fill-rule="evenodd" clip-rule="evenodd" fill="#BCC2C6" d="M290.3,565.9H512c4.1,0,7.5,3.3,7.5,7.5l0,0
		c0,4.1-3.3,7.4-7.5,7.4H290.3c-4.1,0-7.5-3.3-7.5-7.4l0,0C282.8,569.3,286.1,565.9,290.3,565.9"/>
</g>
</svg>
