<?xml version="1.0" encoding="utf-8"?>
<!-- Generator: Adobe Illustrator 15.1.0, SVG Export Plug-In . SVG Version: 6.00 Build 0)  -->
<!DOCTYPE svg PUBLIC "-//W3C//DTD SVG 1.0//EN" "http://www.w3.org/TR/2001/REC-SVG-20010904/DTD/svg10.dtd">
<svg version="1.0" id="Layer_1" xmlns="http://www.w3.org/2000/svg" xmlns:xlink="http://www.w3.org/1999/xlink" x="0px" y="0px"
	 width="800px" height="800px" viewBox="0 0 800 800" enable-background="new 0 0 800 800" xml:space="preserve">
<g id="Header">
	<path fill="#BCC2C6" d="M33.1,34.5h736.2c8.5,0,16.1,3.5,21.7,9l0,0c5.6,5.6,9,13.2,9,21.7v654.6c0,8.4-3.5,16.1-9,21.7l0,0
		c-5.6,5.6-13.2,9-21.7,9H33.1c-8.5,0-16.1-3.5-21.7-9l0,0c-5.6-5.6-9-13.2-9-21.7V65.2c0-8.4,3.5-16.1,9-21.7l0,0
		C16.9,38,24.6,34.5,33.1,34.5"/>
	<path fill="#EBEFF0" d="M788.9,65.2v654.6c0,12.3-8.6,19.6-19.6,19.6H33.1c-11,0-19.6-7-19.6-19.6V65.2c0-12.8,8.6-19.6,19.6-19.6
		h736.2C780.2,45.6,788.9,52.7,788.9,65.2"/>
	<path fill="#94A4A5" d="M677.6,72.3c7.8,0,14.2,6.4,14.2,14.2s-6.3,14.2-14.2,14.2c-7.9,0-14.2-6.3-14.2-14.2
		C663.4,78.7,669.7,72.3,677.6,72.3 M722.1,72.3c7.8,0,14.2,6.4,14.2,14.2s-6.4,14.2-14.2,14.2c-7.8,0-14.2-6.3-14.2-14.2
		C707.9,78.7,714.3,72.3,722.1,72.3z M633,72.3c7.8,0,14.2,6.4,14.2,14.2s-6.3,14.2-14.2,14.2c-7.8,0-14.2-6.4-14.2-14.2
		S625.2,72.3,633,72.3z"/>
	<text transform="matrix(1 0 0 1 246.3511 85.2969)" fill="#93A2A3" font-family="'NexaBold'" font-size="44.0749">FAQs</text>
</g>
<g id="Body">
	<path fill="#BCC2C6" d="M28.8,130.7h744.5c7.3,0,14,3,18.8,7.8c4.8,4.8,7.8,11.5,7.8,18.8v572.9c0,7.3-3,14-7.8,18.8
		c-4.8,4.8-11.5,7.8-18.8,7.8H28.8c-7.3,0-14-3-18.8-7.8c-4.8-4.8-7.8-11.5-7.8-18.8V157.4c0-7.3,3-14,7.8-18.8
		C14.8,133.7,21.5,130.7,28.8,130.7"/>
	<path fill-rule="evenodd" clip-rule="evenodd" fill="#FFFFFF" d="M28.8,141.9c-4.1,0-8,1.6-10.9,4.6c-2.9,2.9-4.6,6.8-4.6,11v572.9
		c0,4.1,1.6,8,4.6,11c2.9,2.9,6.8,4.6,10.9,4.6h744.5c4.1,0,8-1.7,10.9-4.6c2.9-2.9,4.6-6.8,4.6-11V157.4c0-4.1-1.6-8-4.6-11
		c-2.9-2.9-6.8-4.6-10.9-4.6H28.8z"/>
	<path fill-rule="evenodd" clip-rule="evenodd" fill="#BCC2C6" d="M110.8,343.6h580.6c4.1,0,7.5,3.3,7.5,7.4l0,0
		c0,4.1-3.3,7.5-7.5,7.5H110.8c-4.1,0-7.5-3.3-7.5-7.5l0,0C103.3,346.9,106.7,343.6,110.8,343.6"/>
	<path fill-rule="evenodd" clip-rule="evenodd" fill="#BCC2C6" d="M110.8,306.3h379.8c4.1,0,7.4,3.4,7.4,7.5l0,0
		c0,4.1-3.3,7.5-7.4,7.5H110.8c-4.1,0-7.5-3.3-7.5-7.5l0,0C103.3,309.7,106.7,306.3,110.8,306.3"/>
	<path fill-rule="evenodd" clip-rule="evenodd" fill="#BCC2C6" d="M110.8,477.9h580.6c4.1,0,7.5,3.3,7.5,7.4c0,4.1-3.3,7.5-7.5,7.5
		H110.8c-4.1,0-7.5-3.3-7.5-7.5C103.3,481.3,106.7,477.9,110.8,477.9"/>
	<path fill-rule="evenodd" clip-rule="evenodd" fill="#BCC2C6" d="M110.8,440.6h379.8c4.1,0,7.4,3.3,7.4,7.4l0,0
		c0,4.1-3.3,7.5-7.4,7.5H110.8c-4.1,0-7.5-3.4-7.5-7.5l0,0C103.3,444,106.7,440.6,110.8,440.6"/>
	<path fill-rule="evenodd" clip-rule="evenodd" fill="#BCC2C6" d="M110.8,612.2h580.6c4.1,0,7.5,3.3,7.5,7.4l0,0
		c0,4.1-3.3,7.5-7.5,7.5H110.8c-4.1,0-7.5-3.3-7.5-7.5l0,0C103.3,615.6,106.7,612.2,110.8,612.2"/>
	<path fill-rule="evenodd" clip-rule="evenodd" fill="#BCC2C6" d="M110.8,574.9h379.8c4.1,0,7.4,3.4,7.4,7.5l0,0
		c0,4.1-3.3,7.5-7.4,7.5H110.8c-4.1,0-7.5-3.3-7.5-7.5l0,0C103.3,578.3,106.7,574.9,110.8,574.9"/>
	<path fill-rule="evenodd" clip-rule="evenodd" fill="#34495E" d="M110.8,260.6h221c4.1,0,7.4,3.3,7.4,7.4v0c0,4.1-3.3,7.4-7.4,7.4
		h-221c-4.1,0-7.5-3.3-7.5-7.4v0C103.3,263.9,106.7,260.6,110.8,260.6"/>
	<path fill-rule="evenodd" clip-rule="evenodd" fill="#34495E" d="M110.8,397h221c4.1,0,7.4,3.3,7.4,7.5l0,0c0,4.1-3.3,7.4-7.4,7.4
		h-221c-4.1,0-7.5-3.3-7.5-7.4l0,0C103.3,400.4,106.7,397,110.8,397"/>
	<path fill-rule="evenodd" clip-rule="evenodd" fill="#34495E" d="M110.8,533.5h221c4.1,0,7.4,3.3,7.4,7.5l0,0
		c0,4.1-3.3,7.4-7.4,7.4h-221c-4.1,0-7.5-3.3-7.5-7.4l0,0C103.3,536.8,106.7,533.5,110.8,533.5"/>
</g>
</svg>
