<?xml version="1.0" encoding="utf-8"?>
<!-- Generator: Adobe Illustrator 15.1.0, SVG Export Plug-In . SVG Version: 6.00 Build 0)  -->
<!DOCTYPE svg PUBLIC "-//W3C//DTD SVG 1.0//EN" "http://www.w3.org/TR/2001/REC-SVG-20010904/DTD/svg10.dtd">
<svg version="1.0" id="Layer_1" xmlns="http://www.w3.org/2000/svg" xmlns:xlink="http://www.w3.org/1999/xlink" x="0px" y="0px"
	 width="800px" height="800px" viewBox="0 0 800 800" enable-background="new 0 0 800 800" xml:space="preserve">
<g id="Header">
	<path fill="#BCC2C6" d="M33.1,34.5h736.2c8.5,0,16.1,3.5,21.7,9l0,0c5.6,5.6,9,13.2,9,21.7v654.6c0,8.4-3.5,16.1-9,21.7l0,0
		c-5.6,5.6-13.2,9-21.7,9H33.1c-8.5,0-16.1-3.5-21.7-9l0,0c-5.6-5.6-9-13.2-9-21.7V65.2c0-8.4,3.5-16.1,9-21.7l0,0
		C16.9,38,24.6,34.5,33.1,34.5"/>
	<path fill="#EBEFF0" d="M788.9,65.2v654.6c0,12.3-8.6,19.6-19.6,19.6H33.1c-11,0-19.6-7-19.6-19.6V65.2c0-12.8,8.6-19.6,19.6-19.6
		h736.2C780.2,45.6,788.9,52.7,788.9,65.2"/>
	<path fill="#94A4A5" d="M677.6,72.3c7.8,0,14.2,6.4,14.2,14.2s-6.3,14.2-14.2,14.2c-7.9,0-14.2-6.3-14.2-14.2
		C663.4,78.7,669.7,72.3,677.6,72.3 M722.1,72.3c7.8,0,14.2,6.4,14.2,14.2s-6.4,14.2-14.2,14.2c-7.8,0-14.2-6.3-14.2-14.2
		C707.9,78.7,714.3,72.3,722.1,72.3z M633,72.3c7.8,0,14.2,6.4,14.2,14.2s-6.3,14.2-14.2,14.2c-7.8,0-14.2-6.4-14.2-14.2
		S625.2,72.3,633,72.3z"/>
	<text transform="matrix(1 0 0 1 223.2783 85.2969)" fill="#93A2A3" font-family="'NexaBold'" font-size="44.0749">FORUM</text>
</g>
<g id="Body">
	<path fill="#BCC2C6" d="M28.7,130h744.6c7.3,0,14,3,18.8,7.8c4.8,4.8,7.8,11.5,7.8,18.8v573c0,7.3-3,14-7.8,18.8
		c-4.8,4.8-11.5,7.8-18.8,7.8H28.7c-7.3,0-14-3-18.8-7.8C5.1,743.6,2,737,2,729.6v-573c0-7.3,3-14,7.8-18.8
		C14.7,133,21.4,130,28.7,130"/>
	<path fill-rule="evenodd" clip-rule="evenodd" fill="#FFFFFF" d="M28.7,141.1c-4.1,0-8.1,1.6-11,4.6c-2.9,2.9-4.6,6.8-4.6,11v573
		c0,4.1,1.6,8,4.6,11c2.9,2.9,6.8,4.6,11,4.6h744.6c4.1,0,8-1.7,10.9-4.6c2.9-2.9,4.6-6.8,4.6-11v-573c0-4.1-1.7-8-4.6-11
		c-2.9-2.9-6.8-4.6-10.9-4.6H28.7z"/>
	<rect x="113.1" y="202.5" fill-rule="evenodd" clip-rule="evenodd" fill="#34495E" width="78.2" height="78.2"/>
	<rect x="124.3" y="213.7" fill="#22A6EF" width="55.9" height="55.9"/>
	<path fill-rule="evenodd" clip-rule="evenodd" fill="#BCC2C6" d="M227,252.8h454.5c4.1,0,7.5,3.4,7.5,7.4l0,0
		c0,4.1-3.3,7.5-7.5,7.5H227c-4.1,0-7.5-3.3-7.5-7.5l0,0C219.5,256.2,222.9,252.8,227,252.8"/>
	<path fill-rule="evenodd" clip-rule="evenodd" fill="#BCC2C6" d="M227,215.5h296.2c4.1,0,7.5,3.4,7.5,7.5l0,0
		c0,4.1-3.3,7.4-7.5,7.4H227c-4.1,0-7.5-3.3-7.5-7.4l0,0C219.5,218.9,222.9,215.5,227,215.5"/>
	<path fill-rule="evenodd" clip-rule="evenodd" fill="#BCC2C6" d="M227,387.1h454.5c4.1,0,7.5,3.4,7.5,7.5c0,4.1-3.3,7.5-7.5,7.5
		H227c-4.1,0-7.5-3.3-7.5-7.5C219.5,390.5,222.9,387.1,227,387.1"/>
	<path fill-rule="evenodd" clip-rule="evenodd" fill="#BCC2C6" d="M227,349.9h296.2c4.1,0,7.5,3.3,7.5,7.5l0,0
		c0,4.1-3.3,7.5-7.5,7.5H227c-4.1,0-7.5-3.4-7.5-7.5l0,0C219.5,353.2,222.9,349.9,227,349.9"/>
	<rect x="113.1" y="336.9" fill-rule="evenodd" clip-rule="evenodd" fill="#34495E" width="78.2" height="78.2"/>
	<rect x="124.3" y="348" fill="#22A6EF" width="55.9" height="55.9"/>
	<path fill-rule="evenodd" clip-rule="evenodd" fill="#BCC2C6" d="M227,521.5h454.5c4.1,0,7.5,3.3,7.5,7.4l0,0
		c0,4.1-3.3,7.5-7.5,7.5H227c-4.1,0-7.5-3.3-7.5-7.5l0,0C219.5,524.8,222.9,521.5,227,521.5"/>
	<path fill-rule="evenodd" clip-rule="evenodd" fill="#BCC2C6" d="M227,484.2h296.2c4.1,0,7.5,3.4,7.5,7.5l0,0
		c0,4.1-3.3,7.4-7.5,7.4H227c-4.1,0-7.5-3.4-7.5-7.4l0,0C219.5,487.6,222.9,484.2,227,484.2"/>
	<rect x="113.1" y="471.2" fill-rule="evenodd" clip-rule="evenodd" fill="#34495E" width="78.2" height="78.2"/>
	<rect x="124.3" y="482.3" fill="#22A6EF" width="55.9" height="55.9"/>
	<path fill-rule="evenodd" clip-rule="evenodd" fill="#BCC2C6" d="M227,655.8h454.5c4.1,0,7.5,3.4,7.5,7.5c0,4.1-3.3,7.5-7.5,7.5
		H227c-4.1,0-7.5-3.3-7.5-7.5C219.5,659.2,222.9,655.8,227,655.8"/>
	<path fill-rule="evenodd" clip-rule="evenodd" fill="#BCC2C6" d="M227,618.5h296.2c4.1,0,7.5,3.3,7.5,7.5c0,4.1-3.3,7.4-7.5,7.4
		H227c-4.1,0-7.5-3.3-7.5-7.4C219.5,621.9,222.9,618.5,227,618.5"/>
	<rect x="113.1" y="605.5" fill-rule="evenodd" clip-rule="evenodd" fill="#34495E" width="78.2" height="78.2"/>
	<rect x="124.3" y="616.7" fill="#22A6EF" width="55.9" height="55.9"/>
</g>
</svg>
