<?xml version="1.0" encoding="utf-8"?>
<!-- Generator: Adobe Illustrator 15.1.0, SVG Export Plug-In . SVG Version: 6.00 Build 0)  -->
<!DOCTYPE svg PUBLIC "-//W3C//DTD SVG 1.0//EN" "http://www.w3.org/TR/2001/REC-SVG-20010904/DTD/svg10.dtd">
<svg version="1.0" id="Layer_1" xmlns="http://www.w3.org/2000/svg" xmlns:xlink="http://www.w3.org/1999/xlink" x="0px" y="0px"
	 width="800px" height="800px" viewBox="0 0 800 800" enable-background="new 0 0 800 800" xml:space="preserve">
<g id="Header">
	<path fill="#BCC2C6" d="M33.1,34.5h736.2c8.5,0,16.1,3.5,21.7,9l0,0c5.6,5.6,9,13.2,9,21.7v654.6c0,8.4-3.5,16.1-9,21.7l0,0
		c-5.6,5.6-13.2,9-21.7,9H33.1c-8.5,0-16.1-3.5-21.7-9l0,0c-5.6-5.6-9-13.2-9-21.7V65.2c0-8.4,3.5-16.1,9-21.7l0,0
		C16.9,38,24.6,34.5,33.1,34.5"/>
	<path fill="#EBEFF0" d="M788.9,65.2v654.6c0,12.3-8.6,19.6-19.6,19.6H33.1c-11,0-19.6-7-19.6-19.6V65.2c0-12.8,8.6-19.6,19.6-19.6
		h736.2C780.2,45.6,788.9,52.7,788.9,65.2"/>
	<path fill="#94A4A5" d="M677.6,72.3c7.8,0,14.2,6.4,14.2,14.2s-6.3,14.2-14.2,14.2c-7.9,0-14.2-6.3-14.2-14.2
		C663.4,78.7,669.7,72.3,677.6,72.3 M722.1,72.3c7.8,0,14.2,6.4,14.2,14.2s-6.4,14.2-14.2,14.2c-7.8,0-14.2-6.3-14.2-14.2
		C707.9,78.7,714.3,72.3,722.1,72.3z M633,72.3c7.8,0,14.2,6.4,14.2,14.2s-6.3,14.2-14.2,14.2c-7.8,0-14.2-6.4-14.2-14.2
		S625.2,72.3,633,72.3z"/>
	<text transform="matrix(1 0 0 1 204.3926 85.2969)" fill="#93A2A3" font-family="'NexaBold'" font-size="44.0749">LOADING</text>
</g>
<g id="Body">
	<path fill="#BCC2C6" d="M28.7,129h744.6c7.3,0,14,3,18.8,7.8c4.8,4.8,7.8,11.5,7.8,18.8v573c0,7.3-3,14-7.8,18.8
		c-4.8,4.8-11.5,7.8-18.8,7.8H28.7c-7.3,0-14-3-18.8-7.8C5,742.7,2,736.1,2,728.7v-573c0-7.3,3-14,7.8-18.8
		C14.7,132,21.3,129,28.7,129"/>
	<path fill-rule="evenodd" clip-rule="evenodd" fill="#FFFFFF" d="M28.7,140.2c-4.1,0-8.1,1.7-11,4.6c-2.9,2.9-4.6,6.8-4.6,11v573
		c0,4.1,1.6,8,4.6,11c2.9,2.9,6.8,4.6,11,4.6h744.6c4.1,0,8-1.7,10.9-4.6c2.9-2.9,4.6-6.8,4.6-11v-573c0-4.1-1.7-8-4.6-11
		c-2.9-2.9-6.8-4.6-10.9-4.6H28.7z"/>
	<path fill-rule="evenodd" clip-rule="evenodd" fill="#34495E" d="M401,473.2L401,473.2c3.1,0,5.6,2.5,5.6,5.6v32.2
		c0,3.1-2.5,5.6-5.6,5.6l0,0c-3.1,0-5.6-2.5-5.6-5.6v-32.2C395.4,475.7,397.9,473.2,401,473.2"/>
	<path fill-rule="evenodd" clip-rule="evenodd" fill="#34495E" d="M376.6,463.1L376.6,463.1c2.2,2.2,2.2,5.7,0,7.9l-22.8,22.8
		c-2.2,2.2-5.7,2.2-7.9,0c-2.2-2.2-2.2-5.7,0-7.9l22.7-22.8C370.9,460.9,374.4,460.9,376.6,463.1"/>
	<path fill-rule="evenodd" clip-rule="evenodd" fill="#34495E" d="M366.5,438.7L366.5,438.7c0,3.1-2.5,5.6-5.6,5.6h-32.2
		c-3.1,0-5.6-2.5-5.6-5.6c0-3.1,2.5-5.6,5.6-5.6h32.2C364,433.1,366.5,435.6,366.5,438.7"/>
	<path fill-rule="evenodd" clip-rule="evenodd" fill="#34495E" d="M376.6,414.2L376.6,414.2c-2.2,2.2-5.7,2.2-7.9,0L346,391.5
		c-2.2-2.2-2.2-5.7,0-7.9l0,0c2.1-2.2,5.7-2.2,7.9,0l22.8,22.7C378.8,408.5,378.8,412.1,376.6,414.2"/>
	<path fill-rule="evenodd" clip-rule="evenodd" fill="#34495E" d="M401,360.8L401,360.8c3.1,0,5.6,2.5,5.6,5.6v32.2
		c0,3-2.5,5.6-5.6,5.6l0,0c-3.1,0-5.6-2.5-5.6-5.6v-32.2C395.4,363.3,397.9,360.8,401,360.8"/>
	<path fill-rule="evenodd" clip-rule="evenodd" fill="#34495E" d="M456,383.6L456,383.6c2.2,2.2,2.2,5.7,0,7.9l-22.7,22.7
		c-2.2,2.2-5.7,2.2-7.9,0l0,0c-2.1-2.2-2.1-5.7,0-7.9l22.8-22.7C450.3,381.5,453.9,381.5,456,383.6"/>
	<path fill-rule="evenodd" clip-rule="evenodd" fill="#34495E" d="M478.8,438.7L478.8,438.7c0,3.1-2.5,5.6-5.6,5.6h-32.2
		c-3,0-5.6-2.5-5.6-5.6c0-3.1,2.5-5.6,5.6-5.6h32.2C476.3,433.1,478.8,435.6,478.8,438.7"/>
	<path fill-rule="evenodd" clip-rule="evenodd" fill="#34495E" d="M456,493.7L456,493.7c-2.1,2.2-5.7,2.2-7.9,0L425.4,471
		c-2.1-2.2-2.1-5.7,0-7.9c2.2-2.2,5.7-2.2,7.9,0l22.7,22.8C458.2,488,458.2,491.5,456,493.7"/>
	<path fill-rule="evenodd" clip-rule="evenodd" fill="#BCC2C6" d="M319,232.2H483c4.1,0,7.5,3.3,7.5,7.5l0,0c0,4.1-3.4,7.4-7.5,7.4
		H319c-4.1,0-7.4-3.3-7.4-7.4l0,0C311.5,235.6,314.9,232.2,319,232.2"/>
	<path fill-rule="evenodd" clip-rule="evenodd" fill="#BCC2C6" d="M182.7,637.3h436.5c4.1,0,7.4,3.4,7.4,7.4l0,0
		c0,4.1-3.3,7.5-7.4,7.5H182.7c-4.1,0-7.4-3.3-7.4-7.5l0,0C175.3,640.6,178.6,637.3,182.7,637.3"/>
</g>
</svg>
