<?xml version="1.0" encoding="utf-8"?>
<!-- Generator: Adobe Illustrator 15.1.0, SVG Export Plug-In . SVG Version: 6.00 Build 0)  -->
<!DOCTYPE svg PUBLIC "-//W3C//DTD SVG 1.0//EN" "http://www.w3.org/TR/2001/REC-SVG-20010904/DTD/svg10.dtd">
<svg version="1.0" id="Layer_1" xmlns="http://www.w3.org/2000/svg" xmlns:xlink="http://www.w3.org/1999/xlink" x="0px" y="0px"
	 width="800px" height="800px" viewBox="0 0 800 800" enable-background="new 0 0 800 800" xml:space="preserve">
<g id="Header">
	<path fill="#BCC2C6" d="M33.1,34.5h736.2c8.5,0,16.1,3.5,21.7,9l0,0c5.6,5.6,9,13.2,9,21.7v654.6c0,8.4-3.5,16.1-9,21.7l0,0
		c-5.6,5.6-13.2,9-21.7,9H33.1c-8.5,0-16.1-3.5-21.7-9l0,0c-5.6-5.6-9-13.2-9-21.7V65.2c0-8.4,3.5-16.1,9-21.7l0,0
		C16.9,38,24.6,34.5,33.1,34.5"/>
	<path fill="#EBEFF0" d="M788.9,65.2v654.6c0,12.3-8.6,19.6-19.6,19.6H33.1c-11,0-19.6-7-19.6-19.6V65.2c0-12.8,8.6-19.6,19.6-19.6
		h736.2C780.2,45.6,788.9,52.7,788.9,65.2"/>
	<path fill="#94A4A5" d="M677.6,72.3c7.8,0,14.2,6.4,14.2,14.2s-6.3,14.2-14.2,14.2c-7.9,0-14.2-6.3-14.2-14.2
		C663.4,78.7,669.7,72.3,677.6,72.3 M722.1,72.3c7.8,0,14.2,6.4,14.2,14.2s-6.4,14.2-14.2,14.2c-7.8,0-14.2-6.3-14.2-14.2
		C707.9,78.7,714.3,72.3,722.1,72.3z M633,72.3c7.8,0,14.2,6.4,14.2,14.2s-6.3,14.2-14.2,14.2c-7.8,0-14.2-6.4-14.2-14.2
		S625.2,72.3,633,72.3z"/>
	<text transform="matrix(1 0 0 1 240.291 85.2969)" fill="#93A2A3" font-family="'NexaBold'" font-size="44.0749">PRICE</text>
</g>
<g id="Body">
	<path fill="#BCC2C6" d="M28.8,128h744.6c7.3,0,14,3,18.8,7.8c4.8,4.8,7.8,11.5,7.8,18.8v573c0,7.3-3,14-7.8,18.8
		c-4.8,4.8-11.5,7.8-18.8,7.8H28.8c-7.3,0-14-3-18.8-7.8c-4.8-4.8-7.8-11.5-7.8-18.8v-573c0-7.3,3-14,7.8-18.8
		C14.8,130.9,21.4,128,28.8,128"/>
	<path fill-rule="evenodd" clip-rule="evenodd" fill="#FFFFFF" d="M28.8,139.1c-4.1,0-8.1,1.6-11,4.6c-2.9,2.9-4.6,6.8-4.6,11v573
		c0,4.1,1.6,8,4.6,11c2.9,2.9,6.8,4.5,11,4.5h744.6c4.1,0,8-1.6,10.9-4.5c2.9-2.9,4.6-6.8,4.6-11v-573c0-4.1-1.7-8-4.6-11
		c-2.9-2.9-6.8-4.6-10.9-4.6H28.8z"/>
	<path fill-rule="evenodd" clip-rule="evenodd" fill="#BCC2C6" d="M130.8,203.1h212.1c6.1,0,11,4.9,11,11v454c0,6-4.9,11-11,11
		H130.8c-6.1,0-11-4.9-11-11v-454C119.8,208.1,124.8,203.1,130.8,203.1"/>
	<rect x="131" y="214.3" fill-rule="evenodd" clip-rule="evenodd" fill="#FFFFFF" width="211.8" height="453.6"/>
	<rect x="189.4" y="266" fill-rule="evenodd" clip-rule="evenodd" fill="#34495E" width="95" height="95"/>
	<rect x="200.4" y="277" fill="#22A6EF" width="72.9" height="72.9"/>
	<path fill-rule="evenodd" clip-rule="evenodd" fill="#BCC2C6" d="M177.1,470.1h119.6c4.1,0,7.5-3.4,7.5-7.4l0,0
		c0-4.1-3.3-7.5-7.5-7.5H177.1c-4.1,0-7.5,3.3-7.5,7.5l0,0C169.6,466.7,173,470.1,177.1,470.1"/>
	<path fill-rule="evenodd" clip-rule="evenodd" fill="#BCC2C6" d="M199.7,507.4H274c4.1,0,7.4-3.3,7.4-7.5l0,0
		c0-4.1-3.4-7.4-7.4-7.4h-74.2c-4.1,0-7.4,3.3-7.4,7.4l0,0C192.3,504,195.7,507.4,199.7,507.4"/>
	<path fill-rule="evenodd" clip-rule="evenodd" fill="#BCC2C6" d="M177.1,432.8h119.6c4.1,0,7.5-3.4,7.5-7.4c0-4.1-3.3-7.5-7.5-7.5
		H177.1c-4.1,0-7.5,3.3-7.5,7.5C169.6,429.5,173,432.8,177.1,432.8"/>
	<path fill="#BCC2C6" d="M281.4,581h-84.5c-3.3,0-6.2,1.3-8.3,3.5c-2.1,2.1-3.5,5.1-3.5,8.3c0,3.3,1.3,6.2,3.4,8.3l0,0
		c2.1,2.1,5.1,3.5,8.3,3.5h84.5c3.2,0,6.2-1.3,8.4-3.5c2.1-2.1,3.5-5.1,3.5-8.3c0-3.3-1.3-6.2-3.5-8.4
		C287.6,582.4,284.7,581,281.4,581 M196.9,569.5h84.5c6.4,0,12.3,2.6,16.5,6.9l0,0c4.2,4.3,6.9,10.1,6.9,16.5
		c0,6.4-2.6,12.3-6.9,16.5c-4.2,4.2-10.1,6.9-16.5,6.9h-84.5c-6.4,0-12.3-2.6-16.5-6.9l0,0v0c-4.2-4.3-6.9-10.1-6.9-16.5
		c0-6.4,2.7-12.3,6.9-16.5C184.6,572.1,190.5,569.5,196.9,569.5z"/>
	<path fill="#34495E" d="M192.3,559.9h84.5c6.4,0,12.3,2.6,16.5,6.9l0,0c4.2,4.3,6.9,10.1,6.9,16.5c0,6.4-2.6,12.3-6.9,16.5
		c-4.2,4.2-10.1,6.9-16.5,6.9h-84.5c-6.4,0-12.3-2.6-16.5-6.9l0,0l0,0c-4.2-4.3-6.9-10.1-6.9-16.5c0-6.4,2.6-12.3,6.9-16.5
		C180,562.5,185.9,559.9,192.3,559.9"/>
	<path fill="#27CABF" d="M276.8,566.9c4.4,0,8.5,1.7,11.6,4.8c3.1,3.1,4.8,7.3,4.8,11.6c0,4.4-1.8,8.5-4.8,11.6
		c-3.1,3.1-7.3,4.8-11.6,4.8h-84.5c-4.4,0-8.5-1.7-11.6-4.8l0,0c-3.1-3.1-4.8-7.3-4.8-11.6c0-4.4,1.8-8.5,4.8-11.6
		c3.1-3.1,7.2-4.8,11.6-4.8H276.8z"/>
	<path fill="#51F4E9" d="M276.8,566.9c4.4,0,8.5,1.7,11.6,4.8c3.1,3.1,4.8,7.3,4.8,11.6c0,1.1-0.1,2.2-0.3,3.3
		c-0.6-3.1-2.2-6-4.5-8.3c-3.1-3.1-7.3-4.8-11.6-4.8h-84.5c-4.4,0-8.5,1.7-11.6,4.8c-2.3,2.3-3.8,5.2-4.5,8.3
		c-0.2-1.1-0.3-2.2-0.3-3.3c0-4.4,1.8-8.5,4.8-11.6c3.1-3.1,7.2-4.8,11.6-4.8H276.8z"/>
	<path fill-rule="evenodd" clip-rule="evenodd" fill="#34495E" d="M459.2,203.1h212.1c6.1,0,11,4.9,11,11v454c0,6-4.9,11-11,11
		H459.2c-6.1,0-11-4.9-11-11v-454C448.2,208.1,453.1,203.1,459.2,203.1"/>
	<rect x="459.4" y="214.3" fill-rule="evenodd" clip-rule="evenodd" fill="#22A6EF" width="211.8" height="453.6"/>
	<rect x="523.6" y="280.4" fill-rule="evenodd" clip-rule="evenodd" fill="#1C8DCB" width="95" height="95"/>
	<rect x="517.7" y="266" fill-rule="evenodd" clip-rule="evenodd" fill="#34495E" width="95" height="95"/>
	<rect x="528.8" y="277" fill="#39D4FF" width="72.9" height="72.9"/>
	<path fill-rule="evenodd" clip-rule="evenodd" fill="#34495E" d="M505.5,470.1H625c4.1,0,7.5-3.4,7.5-7.4l0,0
		c0-4.1-3.3-7.5-7.5-7.5H505.5c-4.1,0-7.5,3.3-7.5,7.5l0,0C498,466.7,501.3,470.1,505.5,470.1"/>
	<path fill-rule="evenodd" clip-rule="evenodd" fill="#34495E" d="M528.1,507.4h74.2c4.1,0,7.4-3.3,7.4-7.5l0,0
		c0-4.1-3.3-7.4-7.4-7.4h-74.2c-4.1,0-7.4,3.3-7.4,7.4l0,0C520.7,504,524,507.4,528.1,507.4"/>
	<path fill-rule="evenodd" clip-rule="evenodd" fill="#34495E" d="M505.5,432.8H625c4.1,0,7.5-3.4,7.5-7.4c0-4.1-3.3-7.5-7.5-7.5
		H505.5c-4.1,0-7.5,3.3-7.5,7.5C498,429.5,501.3,432.8,505.5,432.8"/>
	<path fill="#1C8DCB" d="M609.8,581h-84.5c-3.3,0-6.2,1.3-8.3,3.5c-2.1,2.1-3.5,5.1-3.5,8.3c0,3.3,1.3,6.2,3.4,8.3l0,0
		c2.1,2.1,5.1,3.5,8.3,3.5h84.5c3.2,0,6.2-1.3,8.4-3.5c2.1-2.1,3.5-5.1,3.5-8.3c0-3.3-1.3-6.2-3.5-8.4C616,582.4,613,581,609.8,581
		 M525.3,569.5h84.5c6.4,0,12.3,2.6,16.5,6.9l0,0c4.2,4.3,6.9,10.1,6.9,16.5c0,6.4-2.6,12.3-6.9,16.5c-4.2,4.2-10.1,6.9-16.5,6.9
		h-84.5c-6.4,0-12.3-2.6-16.5-6.9v0v0c-4.2-4.3-6.9-10.1-6.9-16.5c0-6.4,2.6-12.3,6.9-16.5C513,572.1,518.8,569.5,525.3,569.5z"/>
	<path fill="#34495E" d="M520.7,559.9h84.5c6.4,0,12.3,2.6,16.5,6.9v0c4.2,4.3,6.9,10.1,6.9,16.5c0,6.4-2.7,12.3-6.9,16.5
		c-4.2,4.2-10.1,6.9-16.5,6.9h-84.5c-6.4,0-12.3-2.6-16.5-6.9l0,0l0,0c-4.2-4.3-6.9-10.1-6.9-16.5c0-6.4,2.6-12.3,6.9-16.5
		C508.4,562.5,514.2,559.9,520.7,559.9"/>
	<path fill="#27CABF" d="M605.2,566.9c4.4,0,8.5,1.7,11.6,4.8c3.1,3.1,4.8,7.3,4.8,11.6c0,4.4-1.8,8.5-4.8,11.6
		c-3.1,3.1-7.2,4.8-11.6,4.8h-84.5c-4.4,0-8.5-1.7-11.6-4.8l0,0c-3.1-3.1-4.8-7.3-4.8-11.6c0-4.4,1.8-8.5,4.8-11.6
		c3.1-3.1,7.2-4.8,11.6-4.8H605.2z"/>
	<path fill="#51F4E9" d="M605.2,566.9c4.4,0,8.5,1.7,11.6,4.8c3.1,3.1,4.8,7.3,4.8,11.6c0,1.1-0.1,2.2-0.3,3.3
		c-0.7-3.1-2.2-6-4.5-8.3c-3.1-3.1-7.3-4.8-11.6-4.8h-84.5c-4.4,0-8.5,1.7-11.6,4.8c-2.3,2.3-3.9,5.2-4.5,8.3
		c-0.2-1.1-0.3-2.2-0.3-3.3c0-4.4,1.8-8.5,4.8-11.6c3.1-3.1,7.2-4.8,11.6-4.8H605.2z"/>
</g>
</svg>
