<?xml version="1.0" encoding="utf-8"?>
<!-- Generator: Adobe Illustrator 15.1.0, SVG Export Plug-In . SVG Version: 6.00 Build 0)  -->
<!DOCTYPE svg PUBLIC "-//W3C//DTD SVG 1.0//EN" "http://www.w3.org/TR/2001/REC-SVG-20010904/DTD/svg10.dtd">
<svg version="1.0" id="Layer_1" xmlns="http://www.w3.org/2000/svg" xmlns:xlink="http://www.w3.org/1999/xlink" x="0px" y="0px"
	 width="800px" height="800px" viewBox="0 0 800 800" enable-background="new 0 0 800 800" xml:space="preserve">
<g id="Header">
	<path fill="#BCC2C6" d="M33.1,34.5h736.2c8.5,0,16.1,3.5,21.7,9l0,0c5.6,5.6,9,13.2,9,21.7v654.6c0,8.4-3.5,16.1-9,21.7l0,0
		c-5.6,5.6-13.2,9-21.7,9H33.1c-8.5,0-16.1-3.5-21.7-9l0,0c-5.6-5.6-9-13.2-9-21.7V65.2c0-8.4,3.5-16.1,9-21.7l0,0
		C16.9,38,24.6,34.5,33.1,34.5"/>
	<path fill="#EBEFF0" d="M788.9,65.2v654.6c0,12.3-8.6,19.6-19.6,19.6H33.1c-11,0-19.6-7-19.6-19.6V65.2c0-12.8,8.6-19.6,19.6-19.6
		h736.2C780.2,45.6,788.9,52.7,788.9,65.2"/>
	<path fill="#94A4A5" d="M677.6,72.3c7.8,0,14.2,6.4,14.2,14.2s-6.3,14.2-14.2,14.2c-7.9,0-14.2-6.3-14.2-14.2
		C663.4,78.7,669.7,72.3,677.6,72.3 M722.1,72.3c7.8,0,14.2,6.4,14.2,14.2s-6.4,14.2-14.2,14.2c-7.8,0-14.2-6.3-14.2-14.2
		C707.9,78.7,714.3,72.3,722.1,72.3z M633,72.3c7.8,0,14.2,6.4,14.2,14.2s-6.3,14.2-14.2,14.2c-7.8,0-14.2-6.4-14.2-14.2
		S625.2,72.3,633,72.3z"/>
	<text transform="matrix(1 0 0 1 240.291 85.2969)" fill="#93A2A3" font-family="'NexaBold'" font-size="44.0749">PRICE</text>
</g>
<g id="Body">
	<path fill="#BCC2C6" d="M29.1,127.6h744.3c7.3,0,14,3,18.8,7.8c4.8,4.8,7.8,11.5,7.8,18.8V727c0,7.3-3,14-7.8,18.8
		c-4.8,4.8-11.5,7.8-18.8,7.8H29.1c-7.3,0-14-3-18.8-7.8C5.4,741,2.4,734.3,2.4,727V154.2c0-7.3,3-14,7.8-18.8
		C15,130.6,21.7,127.6,29.1,127.6"/>
	<path fill-rule="evenodd" clip-rule="evenodd" fill="#FFFFFF" d="M29.1,138.7c-4.1,0-8,1.6-11,4.6c-2.9,2.9-4.6,6.8-4.6,11V727
		c0,4.1,1.6,8,4.6,11c2.9,2.9,6.8,4.5,11,4.5h744.3c4.1,0,8-1.6,11-4.5c2.9-2.9,4.6-6.8,4.6-11V154.2c0-4.1-1.7-8-4.6-11
		c-2.9-2.9-6.8-4.6-11-4.6H29.1z"/>
	<path fill-rule="evenodd" clip-rule="evenodd" fill="#BCC2C6" d="M295.2,202.7h212c6,0,11,4.9,11,11v453.8c0,6-4.9,11-11,11h-212
		c-6,0-11-4.9-11-11V213.7C284.2,207.6,289.1,202.7,295.2,202.7"/>
	<rect x="295.3" y="213.9" fill-rule="evenodd" clip-rule="evenodd" fill="#FFFFFF" width="211.7" height="453.5"/>
	<rect x="136.1" y="265.5" fill-rule="evenodd" clip-rule="evenodd" fill="#34495E" width="95" height="95"/>
	<rect x="147.2" y="276.5" fill="#22A6EF" width="72.9" height="72.9"/>
	<path fill-rule="evenodd" clip-rule="evenodd" fill="#BCC2C6" d="M123.8,469.6h119.5c4.1,0,7.4-3.3,7.4-7.4l0,0
		c0-4.1-3.3-7.5-7.4-7.5H123.8c-4.1,0-7.4,3.4-7.4,7.5l0,0C116.4,466.2,119.7,469.6,123.8,469.6"/>
	<path fill-rule="evenodd" clip-rule="evenodd" fill="#BCC2C6" d="M146.5,506.8h74.2c4.1,0,7.4-3.3,7.4-7.5l0,0
		c0-4.1-3.3-7.4-7.4-7.4h-74.2c-4.1,0-7.4,3.3-7.4,7.4l0,0C139.1,503.5,142.4,506.8,146.5,506.8"/>
	<path fill-rule="evenodd" clip-rule="evenodd" fill="#BCC2C6" d="M123.8,432.3h119.5c4.1,0,7.4-3.3,7.4-7.4c0-4.1-3.3-7.5-7.4-7.5
		H123.8c-4.1,0-7.4,3.3-7.4,7.5C116.4,429,119.7,432.3,123.8,432.3"/>
	<path fill="#BCC2C6" d="M228.1,580.5h-84.4c-3.2,0-6.2,1.3-8.3,3.5c-2.1,2.1-3.5,5.1-3.5,8.3c0,3.3,1.3,6.2,3.5,8.3l0,0
		c2.1,2.1,5.1,3.5,8.3,3.5h84.4c3.2,0,6.2-1.3,8.3-3.5c2.1-2.1,3.5-5.1,3.5-8.3c0-3.3-1.3-6.2-3.5-8.4
		C234.3,581.8,231.4,580.5,228.1,580.5 M143.7,568.9h84.4c6.4,0,12.3,2.6,16.5,6.9l0,0c4.2,4.2,6.9,10.1,6.9,16.5
		c0,6.4-2.6,12.3-6.9,16.5c-4.2,4.2-10.1,6.9-16.5,6.9h-84.4c-6.4,0-12.3-2.6-16.5-6.9l0,0l0,0c-4.2-4.2-6.9-10.1-6.9-16.5
		c0-6.4,2.6-12.3,6.9-16.5C131.4,571.5,137.2,568.9,143.7,568.9z"/>
	<path fill="#34495E" d="M139.1,559.3h84.4c6.4,0,12.3,2.6,16.5,6.9l0,0c4.2,4.2,6.9,10.1,6.9,16.5c0,6.4-2.6,12.3-6.9,16.5
		c-4.2,4.2-10.1,6.9-16.5,6.9h-84.4c-6.4,0-12.3-2.6-16.5-6.9h0l0,0c-4.2-4.2-6.9-10.1-6.9-16.5c0-6.4,2.6-12.3,6.9-16.5
		C126.8,562,132.6,559.3,139.1,559.3"/>
	<path fill="#27CABF" d="M223.5,566.3c4.4,0,8.5,1.7,11.6,4.8c3.1,3.1,4.8,7.3,4.8,11.6c0,4.4-1.8,8.5-4.8,11.6
		c-3.1,3.1-7.2,4.8-11.6,4.8h-84.4c-4.4,0-8.5-1.7-11.6-4.8l0,0c-3.1-3.1-4.8-7.2-4.8-11.6c0-4.4,1.7-8.5,4.8-11.6
		c3.1-3.1,7.2-4.8,11.6-4.8H223.5z"/>
	<path fill="#51F4E9" d="M223.5,566.3c4.4,0,8.5,1.7,11.6,4.8c3.1,3.1,4.8,7.3,4.8,11.6c0,1.1-0.1,2.2-0.3,3.3
		c-0.6-3.1-2.2-6-4.5-8.3c-3.1-3.1-7.3-4.8-11.6-4.8h-84.4c-4.4,0-8.5,1.7-11.6,4.8c-2.3,2.3-3.8,5.2-4.5,8.3
		c-0.2-1.1-0.3-2.2-0.3-3.3c0-4.4,1.7-8.5,4.8-11.6c3.1-3.1,7.2-4.8,11.6-4.8H223.5z"/>
	<rect x="353.7" y="265.5" fill-rule="evenodd" clip-rule="evenodd" fill="#34495E" width="95" height="95"/>
	<rect x="364.7" y="276.5" fill="#22A6EF" width="72.9" height="72.9"/>
	<path fill-rule="evenodd" clip-rule="evenodd" fill="#BCC2C6" d="M341.4,469.6h119.5c4.1,0,7.5-3.3,7.5-7.4l0,0
		c0-4.1-3.4-7.5-7.5-7.5H341.4c-4.1,0-7.4,3.4-7.4,7.5l0,0C334,466.2,337.3,469.6,341.4,469.6"/>
	<path fill-rule="evenodd" clip-rule="evenodd" fill="#BCC2C6" d="M364.1,506.8h74.2c4.1,0,7.4-3.3,7.4-7.5l0,0
		c0-4.1-3.3-7.4-7.4-7.4h-74.2c-4.1,0-7.4,3.3-7.4,7.4l0,0C356.7,503.5,360,506.8,364.1,506.8"/>
	<path fill-rule="evenodd" clip-rule="evenodd" fill="#BCC2C6" d="M341.4,432.3h119.5c4.1,0,7.5-3.3,7.5-7.4c0-4.1-3.4-7.5-7.5-7.5
		H341.4c-4.1,0-7.4,3.3-7.4,7.5C334,429,337.3,432.3,341.4,432.3"/>
	<path fill="#BCC2C6" d="M445.7,580.5h-84.4c-3.2,0-6.2,1.3-8.3,3.5c-2.1,2.1-3.5,5.1-3.5,8.3c0,3.3,1.3,6.2,3.4,8.3l0,0
		c2.1,2.1,5.1,3.5,8.3,3.5h84.4c3.2,0,6.2-1.3,8.3-3.5c2.1-2.1,3.5-5.1,3.5-8.3c0-3.3-1.3-6.2-3.5-8.4
		C451.9,581.8,449,580.5,445.7,580.5 M361.3,568.9h84.4c6.4,0,12.3,2.6,16.5,6.9l0,0c4.2,4.2,6.9,10.1,6.9,16.5
		c0,6.4-2.6,12.3-6.9,16.5c-4.2,4.2-10.1,6.9-16.5,6.9h-84.4c-6.4,0-12.3-2.6-16.5-6.9l0,0l0,0c-4.2-4.2-6.9-10.1-6.9-16.5
		c0-6.4,2.6-12.3,6.9-16.5C349,571.5,354.8,568.9,361.3,568.9z"/>
	<path fill="#34495E" d="M356.7,559.3h84.4c6.4,0,12.3,2.6,16.5,6.9l0,0c4.2,4.2,6.9,10.1,6.9,16.5c0,6.4-2.6,12.3-6.9,16.5
		c-4.2,4.2-10.1,6.9-16.5,6.9h-84.4c-6.4,0-12.3-2.6-16.5-6.9h0l0,0c-4.2-4.2-6.9-10.1-6.9-16.5c0-6.4,2.6-12.3,6.9-16.5
		C344.4,562,350.2,559.3,356.7,559.3"/>
	<path fill="#27CABF" d="M441.1,566.3c4.4,0,8.5,1.7,11.6,4.8c3.1,3.1,4.8,7.3,4.8,11.6c0,4.4-1.7,8.5-4.8,11.6
		c-3.1,3.1-7.2,4.8-11.6,4.8h-84.4c-4.4,0-8.5-1.7-11.6-4.8l0,0c-3.1-3.1-4.8-7.2-4.8-11.6c0-4.4,1.7-8.5,4.8-11.6
		c3.1-3.1,7.2-4.8,11.6-4.8H441.1z"/>
	<path fill="#51F4E9" d="M441.1,566.3c4.4,0,8.5,1.7,11.6,4.8c3.1,3.1,4.8,7.3,4.8,11.6c0,1.1-0.1,2.2-0.3,3.3
		c-0.6-3.1-2.2-6-4.5-8.3c-3.1-3.1-7.3-4.8-11.6-4.8h-84.4c-4.4,0-8.5,1.7-11.6,4.8c-2.3,2.3-3.8,5.2-4.5,8.3
		c-0.2-1.1-0.3-2.2-0.3-3.3c0-4.4,1.7-8.5,4.8-11.6c3.1-3.1,7.2-4.8,11.6-4.8H441.1z"/>
	<rect x="571.3" y="265.5" fill-rule="evenodd" clip-rule="evenodd" fill="#34495E" width="95" height="95"/>
	<rect x="582.3" y="276.5" fill="#22A6EF" width="72.9" height="72.9"/>
	<path fill-rule="evenodd" clip-rule="evenodd" fill="#BCC2C6" d="M559,469.6h119.5c4.1,0,7.4-3.3,7.4-7.4l0,0
		c0-4.1-3.3-7.5-7.4-7.5H559c-4.1,0-7.4,3.4-7.4,7.5l0,0C551.6,466.2,554.9,469.6,559,469.6"/>
	<path fill-rule="evenodd" clip-rule="evenodd" fill="#BCC2C6" d="M581.7,506.8h74.2c4.1,0,7.5-3.3,7.5-7.5l0,0
		c0-4.1-3.4-7.4-7.5-7.4h-74.2c-4.1,0-7.4,3.3-7.4,7.4l0,0C574.3,503.5,577.6,506.8,581.7,506.8"/>
	<path fill-rule="evenodd" clip-rule="evenodd" fill="#BCC2C6" d="M559,432.3h119.5c4.1,0,7.4-3.3,7.4-7.4c0-4.1-3.3-7.5-7.4-7.5
		H559c-4.1,0-7.4,3.3-7.4,7.5C551.6,429,554.9,432.3,559,432.3"/>
	<path fill="#BCC2C6" d="M663.3,580.5h-84.5c-3.2,0-6.2,1.3-8.3,3.5c-2.1,2.1-3.5,5.1-3.5,8.3c0,3.3,1.3,6.2,3.5,8.3l0,0
		c2.1,2.1,5.1,3.5,8.3,3.5h84.5c3.2,0,6.2-1.3,8.3-3.5c2.1-2.1,3.5-5.1,3.5-8.3c0-3.3-1.3-6.2-3.5-8.4
		C669.5,581.8,666.6,580.5,663.3,580.5 M578.9,568.9h84.5c6.4,0,12.3,2.6,16.5,6.9l0,0c4.2,4.2,6.9,10.1,6.9,16.5
		c0,6.4-2.6,12.3-6.9,16.5c-4.2,4.2-10.1,6.9-16.5,6.9h-84.5c-6.4,0-12.2-2.6-16.5-6.9l0,0l0,0c-4.2-4.2-6.9-10.1-6.9-16.5
		c0-6.4,2.6-12.3,6.9-16.5C566.6,571.5,572.4,568.9,578.9,568.9z"/>
	<path fill="#34495E" d="M574.3,559.3h84.4c6.4,0,12.3,2.6,16.5,6.9l0,0c4.2,4.2,6.9,10.1,6.9,16.5c0,6.4-2.6,12.3-6.9,16.5
		c-4.2,4.2-10.1,6.9-16.5,6.9h-84.4c-6.4,0-12.3-2.6-16.5-6.9h0l0,0c-4.2-4.2-6.9-10.1-6.9-16.5c0-6.4,2.6-12.3,6.9-16.5
		C562,562,567.8,559.3,574.3,559.3"/>
	<path fill="#27CABF" d="M658.7,566.3c4.4,0,8.5,1.7,11.6,4.8c3.1,3.1,4.8,7.3,4.8,11.6c0,4.4-1.7,8.5-4.8,11.6
		c-3.1,3.1-7.2,4.8-11.6,4.8h-84.4c-4.4,0-8.5-1.7-11.6-4.8l0,0c-3.1-3.1-4.8-7.2-4.8-11.6c0-4.4,1.7-8.5,4.8-11.6
		c3.1-3.1,7.2-4.8,11.6-4.8H658.7z"/>
	<path fill="#51F4E9" d="M658.7,566.3c4.4,0,8.5,1.7,11.6,4.8c3.1,3.1,4.8,7.3,4.8,11.6c0,1.1-0.1,2.2-0.3,3.3
		c-0.6-3.1-2.2-6-4.5-8.3c-3.1-3.1-7.2-4.8-11.6-4.8h-84.4c-4.4,0-8.5,1.7-11.6,4.8c-2.3,2.3-3.8,5.2-4.5,8.3
		c-0.2-1.1-0.3-2.2-0.3-3.3c0-4.4,1.7-8.5,4.8-11.6c3.1-3.1,7.2-4.8,11.6-4.8H658.7z"/>
</g>
</svg>
