<?xml version="1.0" encoding="utf-8"?>
<!-- Generator: Adobe Illustrator 15.1.0, SVG Export Plug-In . SVG Version: 6.00 Build 0)  -->
<!DOCTYPE svg PUBLIC "-//W3C//DTD SVG 1.0//EN" "http://www.w3.org/TR/2001/REC-SVG-20010904/DTD/svg10.dtd">
<svg version="1.0" id="Layer_1" xmlns="http://www.w3.org/2000/svg" xmlns:xlink="http://www.w3.org/1999/xlink" x="0px" y="0px"
	 width="800px" height="800px" viewBox="0 0 800 800" enable-background="new 0 0 800 800" xml:space="preserve">
<g id="Header">
	<path fill="#BCC2C6" d="M33.1,34.5h736.2c8.5,0,16.1,3.5,21.7,9l0,0c5.6,5.6,9,13.2,9,21.7v654.6c0,8.4-3.5,16.1-9,21.7l0,0
		c-5.6,5.6-13.2,9-21.7,9H33.1c-8.5,0-16.1-3.5-21.7-9l0,0c-5.6-5.6-9-13.2-9-21.7V65.2c0-8.4,3.5-16.1,9-21.7l0,0
		C16.9,38,24.6,34.5,33.1,34.5"/>
	<path fill="#EBEFF0" d="M788.9,65.2v654.6c0,12.3-8.6,19.6-19.6,19.6H33.1c-11,0-19.6-7-19.6-19.6V65.2c0-12.8,8.6-19.6,19.6-19.6
		h736.2C780.2,45.6,788.9,52.7,788.9,65.2"/>
	<path fill="#94A4A5" d="M677.6,72.3c7.8,0,14.2,6.4,14.2,14.2s-6.3,14.2-14.2,14.2c-7.9,0-14.2-6.3-14.2-14.2
		C663.4,78.7,669.7,72.3,677.6,72.3 M722.1,72.3c7.8,0,14.2,6.4,14.2,14.2s-6.4,14.2-14.2,14.2c-7.8,0-14.2-6.3-14.2-14.2
		C707.9,78.7,714.3,72.3,722.1,72.3z M633,72.3c7.8,0,14.2,6.4,14.2,14.2s-6.3,14.2-14.2,14.2c-7.8,0-14.2-6.4-14.2-14.2
		S625.2,72.3,633,72.3z"/>
	<text transform="matrix(1 0 0 1 108.5967 85.2969)" fill="#93A2A3" font-family="'NexaBold'" font-size="44.0749">SEARCH RESULTS</text>
</g>
<g id="Body">
	<path fill="#BCC2C6" d="M28.9,129.8h744.5c7.3,0,14,3,18.8,7.8c4.8,4.8,7.8,11.5,7.8,18.8v572.9c0,7.3-3,14-7.8,18.8
		c-4.8,4.8-11.5,7.8-18.8,7.8H28.9c-7.3,0-14-3-18.8-7.8c-4.8-4.8-7.8-11.5-7.8-18.8V156.4c0-7.3,3-14,7.8-18.8
		C14.9,132.8,21.5,129.8,28.9,129.8"/>
	<path fill-rule="evenodd" clip-rule="evenodd" fill="#FFFFFF" d="M28.9,140.9c-4.1,0-8,1.7-10.9,4.6c-2.9,2.9-4.6,6.8-4.6,11v572.9
		c0,4.1,1.6,8,4.6,11c2.9,2.9,6.8,4.6,10.9,4.6h744.5c4.1,0,8-1.7,11-4.6c2.9-2.9,4.5-6.8,4.5-11V156.4c0-4.1-1.6-8-4.5-11
		c-2.9-2.9-6.8-4.6-11-4.6H28.9z"/>
	<path fill="#BCC2C6" d="M597.9,215.4H485.5c-0.4,0-0.8,0-1.2,0v46.7c0.4,0,0.8,0,1.2,0h112.4c6.4,0,12.3-2.6,16.5-6.9l0,0l0,0
		c4.2-4.3,6.9-10.1,6.9-16.5c0-6.4-2.6-12.3-6.9-16.5C610.2,218,604.3,215.4,597.9,215.4"/>
	<path fill-rule="evenodd" clip-rule="evenodd" fill="#BCC2C6" d="M589.7,200c6.9,0,13.4,2.7,18.3,7.6c4.9,4.9,7.6,11.4,7.6,18.3
		c0,6.9-2.7,13.4-7.7,18.4l0.1-0.1c-4.9,4.9-11.4,7.6-18.3,7.6H206.9c-6.9,0-13.5-2.7-18.3-7.6c-4.9-4.9-7.6-11.4-7.6-18.3
		c0-6.9,2.7-13.4,7.6-18.3c4.9-4.8,11.4-7.6,18.3-7.6H589.7z"/>
	<path fill="#FFFFFF" d="M206.9,209.5c-4.4,0-8.5,1.7-11.6,4.8c-3.1,3.1-4.8,7.3-4.8,11.6c0,4.4,1.8,8.5,4.8,11.6
		c3.1,3.1,7.2,4.8,11.6,4.8h382.8c4.4,0,8.3-1.9,11.6-4.8l0,0c3.1-3.1,4.8-7.2,4.8-11.6c0-4.4-1.7-8.5-4.8-11.6
		c-3.1-3.1-7.3-4.8-11.6-4.8H206.9z"/>
	<path fill-rule="evenodd" clip-rule="evenodd" fill="#34495E" d="M589.7,200c6.9,0,13.4,2.7,18.3,7.6c4.9,4.9,7.6,11.4,7.6,18.3
		c0,6.9-2.7,13.4-7.7,18.4l0.1-0.1c-4.9,4.9-11.4,7.6-18.3,7.6H477.4c-0.4,0-0.9,0-1.3,0l-2.4-0.1v-51.5l2.4-0.1c0.4,0,0.9,0,1.3,0
		H589.7z"/>
	<path fill="#27CABF" d="M482.9,242.3h106.8c4.4,0,8.3-1.9,11.6-4.8l0,0c3.1-3.1,4.8-7.2,4.8-11.6c0-4.4-1.7-8.5-4.8-11.6
		c-3.1-3.1-7.3-4.8-11.6-4.8H482.9V242.3z"/>
	<path fill="#51F4E9" d="M482.9,216.1h106.8c4.4,0,8.5,1.7,11.6,4.8c2.3,2.3,3.8,5.2,4.5,8.3c0.2-1.1,0.3-2.2,0.3-3.3
		c0-4.4-1.7-8.5-4.8-11.6c-3.1-3.1-7.3-4.8-11.6-4.8H482.9V216.1z"/>
	<rect x="113.2" y="311.1" fill-rule="evenodd" clip-rule="evenodd" fill="#BCC2C6" width="95.2" height="95.2"/>
	<rect x="123.6" y="321.5" fill-rule="evenodd" clip-rule="evenodd" fill="#EBEFF0" width="74.3" height="74.3"/>
	<path fill-rule="evenodd" clip-rule="evenodd" fill="#BCC2C6" d="M265.5,334.6h305.7c3.8,0,6.8,3.1,6.8,6.9l0,0
		c0,3.8-3.1,6.8-6.8,6.8H265.5c-3.8,0-6.8-3.1-6.8-6.8l0,0C258.6,337.7,261.7,334.6,265.5,334.6"/>
	<path fill-rule="evenodd" clip-rule="evenodd" fill="#BCC2C6" d="M265.5,369h265.9c3.8,0,6.8,3.1,6.8,6.8l0,0
		c0,3.8-3.1,6.9-6.8,6.9H265.5c-3.8,0-6.8-3.1-6.8-6.9l0,0C258.6,372.1,261.7,369,265.5,369"/>
	<path fill-rule="evenodd" clip-rule="evenodd" fill="#BCC2C6" d="M652.1,338.2L663,349l10.8-10.8c2.7-2.7,7-2.7,9.7,0l0,0
		c2.7,2.7,2.7,7,0,9.7l-10.8,10.8l10.8,10.8c2.7,2.7,2.7,7,0,9.7l0,0c-2.7,2.7-7,2.7-9.7,0L663,368.4l-10.8,10.8
		c-2.7,2.7-7,2.7-9.7,0l0,0c-2.7-2.7-2.7-7,0-9.7l10.8-10.8l-10.8-10.8c-2.7-2.7-2.7-7,0-9.7l0,0
		C645.1,335.5,649.5,335.5,652.1,338.2"/>
	<rect x="113.2" y="443.7" fill-rule="evenodd" clip-rule="evenodd" fill="#BCC2C6" width="95.2" height="95.2"/>
	<rect x="123.6" y="454.2" fill-rule="evenodd" clip-rule="evenodd" fill="#EBEFF0" width="74.3" height="74.3"/>
	<path fill-rule="evenodd" clip-rule="evenodd" fill="#BCC2C6" d="M265.5,467.3h305.7c3.8,0,6.8,3.1,6.8,6.9c0,3.8-3.1,6.9-6.8,6.9
		H265.5c-3.8,0-6.8-3.1-6.8-6.9C258.6,470.3,261.7,467.3,265.5,467.3"/>
	<path fill-rule="evenodd" clip-rule="evenodd" fill="#BCC2C6" d="M265.5,501.7h265.9c3.8,0,6.8,3.1,6.8,6.8l0,0
		c0,3.8-3.1,6.9-6.8,6.9H265.5c-3.8,0-6.8-3.1-6.8-6.9l0,0C258.6,504.8,261.7,501.7,265.5,501.7"/>
	<rect x="113.2" y="576.3" fill-rule="evenodd" clip-rule="evenodd" fill="#BCC2C6" width="95.2" height="95.2"/>
	<rect x="123.6" y="586.8" fill-rule="evenodd" clip-rule="evenodd" fill="#EBEFF0" width="74.3" height="74.3"/>
	<path fill-rule="evenodd" clip-rule="evenodd" fill="#BCC2C6" d="M265.5,599.9h305.7c3.8,0,6.8,3.1,6.8,6.8c0,3.8-3.1,6.9-6.8,6.9
		H265.5c-3.8,0-6.8-3.1-6.8-6.9C258.6,603,261.7,599.9,265.5,599.9"/>
	<path fill-rule="evenodd" clip-rule="evenodd" fill="#BCC2C6" d="M265.5,634.3h265.9c3.8,0,6.8,3.1,6.8,6.8l0,0
		c0,3.8-3.1,6.9-6.8,6.9H265.5c-3.8,0-6.8-3.1-6.8-6.9l0,0C258.6,637.4,261.7,634.3,265.5,634.3"/>
	<path fill-rule="evenodd" clip-rule="evenodd" fill="#BCC2C6" d="M652.1,603.5l10.8,10.8l10.8-10.8c2.7-2.7,7-2.7,9.7,0l0,0
		c2.7,2.7,2.7,7,0,9.7L672.7,624l10.8,10.8c2.7,2.7,2.7,7,0,9.7l0,0c-2.7,2.7-7,2.7-9.7,0L663,633.7l-10.8,10.8
		c-2.7,2.7-7,2.7-9.7,0l0,0c-2.7-2.7-2.7-7,0-9.7l10.8-10.8l-10.8-10.8c-2.7-2.7-2.7-7,0-9.7l0,0
		C645.1,600.8,649.5,600.8,652.1,603.5"/>
	<path fill-rule="evenodd" clip-rule="evenodd" fill="#BCC2C6" d="M648.6,485.2l8.8,8.8l19.9-19.9c2.7-2.7,7-2.7,9.7,0l0,0
		c2.7,2.7,2.7,7,0,9.7l-24.8,24.8l-0.1,0.1l0,0l-0.1,0.1l-0.1,0.1l-0.1,0.1l-0.1,0.1l-0.1,0.1l0,0l-0.1,0.1l-0.1,0.1l-0.2,0.1
		l-0.1,0.1l0,0l-0.1,0.1l0,0l-0.1,0.1h0l-0.1,0.1l0,0l-0.1,0.1h0l-0.1,0.1l0,0l-0.2,0v0l-0.2,0l-0.2,0.1l-0.1,0h0l-0.2,0v0l-0.2,0
		l0,0l-0.2,0l-0.2,0l0,0l-0.2,0v0l-0.2,0l0,0l-0.2,0l-0.2,0l0,0l-0.2,0l0,0l-0.2,0l0,0l-0.2,0l0,0h-0.2l0,0h-0.2h-0.3l0,0l-0.2,0
		l-0.3,0l0,0l-0.2,0h0c-0.2,0-0.4-0.1-0.6-0.1h0c-0.2,0-0.4-0.1-0.6-0.2l-0.2-0.1l0,0l-0.3-0.1l0,0l-0.3-0.1l-0.2-0.1l0,0l-0.4-0.3
		l0,0l-0.3-0.2l0,0l-0.3-0.2l-0.1-0.1l0,0l-0.1-0.1l0,0l-0.1-0.1l-0.1-0.1h0l-0.1-0.1l0,0l-13.6-13.6c-2.7-2.7-2.7-7,0-9.7l0,0
		C641.6,482.6,646,482.6,648.6,485.2"/>
</g>
</svg>
