<?xml version="1.0" encoding="utf-8"?>
<!-- Generator: Adobe Illustrator 15.1.0, SVG Export Plug-In . SVG Version: 6.00 Build 0)  -->
<!DOCTYPE svg PUBLIC "-//W3C//DTD SVG 1.0//EN" "http://www.w3.org/TR/2001/REC-SVG-20010904/DTD/svg10.dtd">
<svg version="1.0" id="Layer_1" xmlns="http://www.w3.org/2000/svg" xmlns:xlink="http://www.w3.org/1999/xlink" x="0px" y="0px"
	 width="800px" height="800px" viewBox="0 0 800 800" enable-background="new 0 0 800 800" xml:space="preserve">
<g id="Header">
	<path fill="#BCC2C6" d="M33.1,34.5h736.2c8.5,0,16.1,3.5,21.7,9l0,0c5.6,5.6,9,13.2,9,21.7v654.6c0,8.4-3.5,16.1-9,21.7l0,0
		c-5.6,5.6-13.2,9-21.7,9H33.1c-8.5,0-16.1-3.5-21.7-9l0,0c-5.6-5.6-9-13.2-9-21.7V65.2c0-8.4,3.5-16.1,9-21.7l0,0
		C16.9,38,24.6,34.5,33.1,34.5"/>
	<path fill="#EBEFF0" d="M788.9,65.2v654.6c0,12.3-8.6,19.6-19.6,19.6H33.1c-11,0-19.6-7-19.6-19.6V65.2c0-12.8,8.6-19.6,19.6-19.6
		h736.2C780.2,45.6,788.9,52.7,788.9,65.2"/>
	<path fill="#94A4A5" d="M677.6,72.3c7.8,0,14.2,6.4,14.2,14.2s-6.3,14.2-14.2,14.2c-7.9,0-14.2-6.3-14.2-14.2
		C663.4,78.7,669.7,72.3,677.6,72.3 M722.1,72.3c7.8,0,14.2,6.4,14.2,14.2s-6.4,14.2-14.2,14.2c-7.8,0-14.2-6.3-14.2-14.2
		C707.9,78.7,714.3,72.3,722.1,72.3z M633,72.3c7.8,0,14.2,6.4,14.2,14.2s-6.3,14.2-14.2,14.2c-7.8,0-14.2-6.4-14.2-14.2
		S625.2,72.3,633,72.3z"/>
	<text transform="matrix(1 0 0 1 213.626 85.2969)" fill="#93A2A3" font-family="'NexaBold'" font-size="44.0749">SEARCH</text>
</g>
<g id="Body">
	<path fill="#BCC2C6" d="M28.6,129.3h744.7c7.3,0,14,3,18.8,7.8c4.8,4.8,7.8,11.5,7.8,18.9V729c0,7.3-3,14-7.8,18.8
		c-4.8,4.8-11.5,7.8-18.8,7.8H28.6c-7.3,0-14-3-18.8-7.8C4.9,743,1.9,736.4,1.9,729V155.9c0-7.3,3-14,7.8-18.9
		C14.6,132.3,21.3,129.3,28.6,129.3"/>
	<path fill-rule="evenodd" clip-rule="evenodd" fill="#FFFFFF" d="M28.6,140.4c-4.1,0-8.1,1.7-11,4.6c-2.9,2.9-4.6,6.8-4.6,11V729
		c0,4.1,1.7,8,4.6,11c2.9,2.9,6.8,4.6,11,4.6h744.7c4.1,0,8-1.7,11-4.6c2.9-2.9,4.6-6.8,4.6-11V155.9c0-4.1-1.6-8-4.6-11
		c-2.9-2.9-6.8-4.6-11-4.6H28.6z"/>
	<path fill-rule="evenodd" clip-rule="evenodd" fill="#BCC2C6" d="M367.2,294.4c6.3-10.9,20.2-14.6,31.1-8.3
		c10.9,6.3,14.6,20.2,8.3,31.1c-6.3,10.9-20.2,14.6-31.1,8.3C364.7,319.2,361,305.3,367.2,294.4 M357.6,288.8
		c9.4-16.2,30.1-21.8,46.4-12.4c14.6,8.4,20.6,26.1,14.8,41.3l27.3,15.8c2.7,1.5,3.6,4.9,2,7.6c-1.5,2.7-5,3.6-7.6,2l-27.3-15.8
		c-10.3,12.6-28.6,16.2-43.2,7.8C353.8,325.8,348.2,305,357.6,288.8z"/>
	<path fill-rule="evenodd" clip-rule="evenodd" fill="#BCC2C6" d="M244,561.8h313.9c4.1,0,7.5,3.4,7.5,7.5c0,4.1-3.3,7.5-7.5,7.5
		H244c-4.1,0-7.5-3.4-7.5-7.5C236.6,565.2,239.9,561.8,244,561.8"/>
	<path fill-rule="evenodd" clip-rule="evenodd" fill="#BCC2C6" d="M318.9,615.7H483c4.1,0,7.5,3.3,7.5,7.5l0,0
		c0,4.1-3.4,7.4-7.5,7.4H318.9c-4.1,0-7.4-3.3-7.4-7.4l0,0C311.5,619,314.8,615.7,318.9,615.7"/>
	<path fill="#BCC2C6" d="M597.8,426.8H485.4c-0.4,0-0.8,0-1.2,0v46.8c0.4,0,0.8,0,1.2,0h112.4c6.4,0,12.3-2.6,16.5-6.9h0l0,0
		c4.2-4.3,6.9-10.1,6.9-16.5c0-6.4-2.6-12.3-6.9-16.5C610.1,429.4,604.3,426.8,597.8,426.8"/>
	<path fill-rule="evenodd" clip-rule="evenodd" fill="#BCC2C6" d="M589.6,411.4c6.9,0,13.5,2.7,18.3,7.6c4.9,4.9,7.6,11.4,7.6,18.3
		c0,6.9-2.7,13.4-7.7,18.4l0.1-0.1c-4.9,4.9-11.4,7.6-18.3,7.6h-383c-6.9,0-13.4-2.7-18.3-7.6c-4.9-4.9-7.6-11.4-7.6-18.3
		c0-6.9,2.8-13.4,7.6-18.3c4.9-4.9,11.4-7.6,18.3-7.6H589.6z"/>
	<path fill="#FFFFFF" d="M206.6,420.9c-4.4,0-8.5,1.7-11.6,4.8c-3.1,3.1-4.8,7.3-4.8,11.6s1.7,8.5,4.8,11.6
		c3.1,3.1,7.3,4.8,11.6,4.8h383c4.4,0,8.3-1.9,11.6-4.8l0,0c3.1-3.1,4.8-7.3,4.8-11.6s-1.7-8.5-4.8-11.6c-3.1-3.1-7.2-4.8-11.6-4.8
		H206.6z"/>
	<path fill-rule="evenodd" clip-rule="evenodd" fill="#34495E" d="M589.6,411.4c6.9,0,13.5,2.7,18.3,7.6c4.9,4.9,7.6,11.4,7.6,18.3
		c0,6.9-2.7,13.4-7.7,18.4l0.1-0.1c-4.9,4.9-11.4,7.6-18.3,7.6H477.2c-0.4,0-0.9,0-1.3,0l-2.4-0.1v-51.5l2.4-0.1c0.5,0,0.9,0,1.3,0
		H589.6z"/>
	<path fill="#27CABF" d="M482.8,453.7h106.9c4.4,0,8.3-1.9,11.6-4.8l0,0c3.1-3.1,4.8-7.3,4.8-11.6s-1.7-8.5-4.8-11.6
		c-3.1-3.1-7.2-4.8-11.6-4.8H482.8V453.7z"/>
	<path fill="#51F4E9" d="M482.8,427.5h106.9c4.4,0,8.5,1.7,11.6,4.8c2.3,2.3,3.8,5.2,4.5,8.3c0.2-1.1,0.3-2.2,0.3-3.3
		c0-4.4-1.7-8.5-4.8-11.6c-3.1-3.1-7.2-4.8-11.6-4.8H482.8V427.5z"/>
</g>
</svg>
