<?xml version="1.0" encoding="utf-8"?>
<!-- Generator: Adobe Illustrator 15.1.0, SVG Export Plug-In . SVG Version: 6.00 Build 0)  -->
<!DOCTYPE svg PUBLIC "-//W3C//DTD SVG 1.0//EN" "http://www.w3.org/TR/2001/REC-SVG-20010904/DTD/svg10.dtd">
<svg version="1.0" id="Layer_1" xmlns="http://www.w3.org/2000/svg" xmlns:xlink="http://www.w3.org/1999/xlink" x="0px" y="0px"
	 width="800px" height="800px" viewBox="0 0 800 800" enable-background="new 0 0 800 800" xml:space="preserve">
<g id="Header">
	<path fill="#BCC2C6" d="M33.1,34.5h736.2c8.5,0,16.1,3.5,21.7,9l0,0c5.6,5.6,9,13.2,9,21.7v654.6c0,8.4-3.5,16.1-9,21.7l0,0
		c-5.6,5.6-13.2,9-21.7,9H33.1c-8.5,0-16.1-3.5-21.7-9l0,0c-5.6-5.6-9-13.2-9-21.7V65.2c0-8.4,3.5-16.1,9-21.7l0,0
		C16.9,38,24.6,34.5,33.1,34.5"/>
	<path fill="#EBEFF0" d="M788.9,65.2v654.6c0,12.3-8.6,19.6-19.6,19.6H33.1c-11,0-19.6-7-19.6-19.6V65.2c0-12.8,8.6-19.6,19.6-19.6
		h736.2C780.2,45.6,788.9,52.7,788.9,65.2"/>
	<path fill="#94A4A5" d="M677.6,72.3c7.8,0,14.2,6.4,14.2,14.2s-6.3,14.2-14.2,14.2c-7.9,0-14.2-6.3-14.2-14.2
		C663.4,78.7,669.7,72.3,677.6,72.3 M722.1,72.3c7.8,0,14.2,6.4,14.2,14.2s-6.4,14.2-14.2,14.2c-7.8,0-14.2-6.3-14.2-14.2
		C707.9,78.7,714.3,72.3,722.1,72.3z M633,72.3c7.8,0,14.2,6.4,14.2,14.2s-6.3,14.2-14.2,14.2c-7.8,0-14.2-6.4-14.2-14.2
		S625.2,72.3,633,72.3z"/>
	<text transform="matrix(1 0 0 1 196.5913 85.2969)" fill="#93A2A3" font-family="'NexaBold'" font-size="44.0749">SETTINGS</text>
</g>
<g id="Body">
	<path fill="#BCC2C6" d="M29.2,128.1h744.1c7.3,0,14,3,18.8,7.8c4.8,4.8,7.8,11.5,7.8,18.8v572.6c0,7.3-3,14-7.8,18.8
		c-4.8,4.8-11.5,7.8-18.8,7.8H29.2c-7.3,0-14-3-18.8-7.8c-4.8-4.8-7.8-11.5-7.8-18.8V154.8c0-7.3,3-14,7.8-18.8
		C15.2,131.1,21.9,128.1,29.2,128.1"/>
	<path fill-rule="evenodd" clip-rule="evenodd" fill="#FFFFFF" d="M29.2,139.2c-4.1,0-8,1.6-11,4.6c-2.9,2.9-4.6,6.8-4.6,11v572.6
		c0,4.1,1.6,8,4.6,11c2.9,2.9,6.8,4.5,11,4.5h744.1c4.1,0,8-1.6,11-4.5c2.9-2.9,4.6-6.8,4.6-11V154.8c0-4.1-1.6-8-4.6-11
		s-6.8-4.6-11-4.6H29.2z"/>
	<rect x="86.8" y="191.8" fill-rule="evenodd" clip-rule="evenodd" fill="#34495E" width="103.5" height="103.6"/>
	<rect x="98.1" y="203.1" fill-rule="evenodd" clip-rule="evenodd" fill="#22A6EF" width="80.8" height="80.8"/>
	<path fill-rule="evenodd" clip-rule="evenodd" fill="#BCC2C6" d="M252.4,217.4h332.4c4.1,0,7.4,3.3,7.4,7.4l0,0
		c0,4.1-3.3,7.5-7.4,7.5H252.4c-4.1,0-7.4-3.3-7.4-7.5l0,0C244.9,220.7,248.3,217.4,252.4,217.4"/>
	<path fill-rule="evenodd" clip-rule="evenodd" fill="#BCC2C6" d="M252.4,254.8h289.2c4.1,0,7.4,3.3,7.4,7.5l0,0
		c0,4.1-3.3,7.4-7.4,7.4H252.4c-4.1,0-7.4-3.3-7.4-7.4l0,0C244.9,258.2,248.3,254.8,252.4,254.8"/>
	<path fill-rule="evenodd" clip-rule="evenodd" fill="#BCC2C6" d="M672.9,221.2l11.8,11.8l11.8-11.8c2.9-2.9,7.6-2.9,10.5,0h0
		c2.9,2.9,2.9,7.6,0,10.5l-11.8,11.8l11.8,11.8c2.9,2.9,2.9,7.6,0,10.5v0c-2.9,2.9-7.6,2.9-10.5,0l-11.8-11.8l-11.8,11.8
		c-2.9,2.9-7.6,2.9-10.5,0v0c-2.9-2.9-2.9-7.6,0-10.5l11.8-11.8l-11.8-11.8c-2.9-2.9-2.9-7.6,0-10.5h0
		C665.2,218.3,670,218.3,672.9,221.2"/>
	<rect x="86.8" y="336" fill-rule="evenodd" clip-rule="evenodd" fill="#34495E" width="103.5" height="103.5"/>
	<rect x="98.1" y="347.4" fill-rule="evenodd" clip-rule="evenodd" fill="#F65C4C" width="80.8" height="80.8"/>
	<path fill-rule="evenodd" clip-rule="evenodd" fill="#BCC2C6" d="M252.4,361.6h332.4c4.1,0,7.4,3.3,7.4,7.5c0,4.1-3.3,7.4-7.4,7.4
		H252.4c-4.1,0-7.4-3.3-7.4-7.4C244.9,365,248.3,361.6,252.4,361.6"/>
	<path fill-rule="evenodd" clip-rule="evenodd" fill="#BCC2C6" d="M252.4,399.1h289.2c4.1,0,7.4,3.3,7.4,7.4c0,4.1-3.3,7.5-7.4,7.5
		H252.4c-4.1,0-7.4-3.3-7.4-7.5C244.9,402.4,248.3,399.1,252.4,399.1"/>
	<rect x="86.8" y="480.3" fill-rule="evenodd" clip-rule="evenodd" fill="#34495E" width="103.5" height="103.6"/>
	<rect x="98.1" y="491.6" fill-rule="evenodd" clip-rule="evenodd" fill="#F29B12" width="80.8" height="80.8"/>
	<path fill-rule="evenodd" clip-rule="evenodd" fill="#BCC2C6" d="M252.4,505.9h332.4c4.1,0,7.4,3.3,7.4,7.4v0
		c0,4.1-3.3,7.4-7.4,7.4H252.4c-4.1,0-7.4-3.3-7.4-7.4v0C244.9,509.2,248.3,505.9,252.4,505.9"/>
	<path fill-rule="evenodd" clip-rule="evenodd" fill="#BCC2C6" d="M252.4,543.3h289.2c4.1,0,7.4,3.3,7.4,7.5l0,0
		c0,4.1-3.3,7.5-7.4,7.5H252.4c-4.1,0-7.4-3.3-7.4-7.5l0,0C244.9,546.6,248.3,543.3,252.4,543.3"/>
	<path fill-rule="evenodd" clip-rule="evenodd" fill="#BCC2C6" d="M672.9,509.7l11.8,11.8l11.8-11.8c2.9-2.9,7.6-2.9,10.5,0l0,0
		c2.9,2.9,2.9,7.6,0,10.5L695.2,532l11.8,11.8c2.9,2.9,2.9,7.6,0,10.5c-2.9,2.9-7.6,2.9-10.5,0l-11.8-11.8l-11.8,11.8
		c-2.9,2.9-7.6,2.9-10.5,0l0,0c-2.9-2.9-2.9-7.6,0-10.5l11.8-11.8l-11.8-11.8c-2.9-2.9-2.9-7.6,0-10.5l0,0
		C665.2,506.8,670,506.8,672.9,509.7"/>
	<path fill="#BCC2C6" d="M692.4,655.1H608c-3.2,0-6.2,1.3-8.3,3.5c-2.1,2.1-3.5,5.1-3.5,8.3v0c0,3.3,1.3,6.2,3.5,8.3l0,0
		c2.1,2.1,5.1,3.5,8.3,3.5h84.4c3.2,0,6.2-1.3,8.3-3.5c2.1-2.1,3.5-5.1,3.5-8.3v0c0-3.2-1.3-6.2-3.5-8.3
		C698.6,656.5,695.6,655.1,692.4,655.1 M608,643.6h84.4c6.4,0,12.3,2.6,16.5,6.9l0,0c4.2,4.2,6.9,10.1,6.9,16.5v0
		c0,6.4-2.6,12.3-6.9,16.5c-4.2,4.2-10.1,6.9-16.5,6.9H608c-6.4,0-12.3-2.6-16.5-6.9l0,0l0,0c-4.2-4.2-6.9-10.1-6.9-16.5v0
		c0-6.4,2.6-12.3,6.9-16.5C595.7,646.2,601.5,643.6,608,643.6z"/>
	<path fill="#34495E" d="M603.4,634h84.4c6.4,0,12.3,2.6,16.5,6.9l0,0c4.2,4.2,6.9,10.1,6.9,16.5v0c0,6.4-2.6,12.3-6.9,16.5
		c-4.2,4.2-10.1,6.9-16.5,6.9h-84.4c-6.4,0-12.2-2.6-16.5-6.9l0,0l0,0c-4.2-4.2-6.9-10.1-6.9-16.5v0c0-6.4,2.6-12.3,6.9-16.5
		C591.1,636.7,596.9,634,603.4,634"/>
	<path fill="#27CABF" d="M687.8,641c4.4,0,8.5,1.7,11.6,4.8c3.1,3.1,4.8,7.2,4.8,11.6c0,4.4-1.7,8.5-4.8,11.6
		c-3.1,3.1-7.2,4.8-11.6,4.8h-84.4c-4.4,0-8.5-1.7-11.6-4.8l0,0c-3.1-3.1-4.8-7.2-4.8-11.6c0-4.4,1.7-8.5,4.8-11.6
		c3.1-3.1,7.2-4.8,11.6-4.8H687.8z"/>
	<path fill="#51F4E9" d="M687.8,641c4.4,0,8.5,1.7,11.6,4.8c3.1,3.1,4.8,7.2,4.8,11.6c0,1.1-0.1,2.2-0.3,3.3c-0.6-3.1-2.2-6-4.5-8.3
		c-3.1-3.1-7.2-4.8-11.6-4.8h-84.4c-4.4,0-8.5,1.7-11.6,4.8c-2.3,2.3-3.8,5.2-4.5,8.3c-0.2-1.1-0.3-2.2-0.3-3.3
		c0-4.4,1.7-8.5,4.8-11.6c3.1-3.1,7.2-4.8,11.6-4.8H687.8z"/>
	<path fill-rule="evenodd" clip-rule="evenodd" fill="#BCC2C6" d="M94.2,654.7h427.8c4.1,0,7.4,3.3,7.4,7.5c0,4.1-3.3,7.5-7.4,7.5
		H94.2c-4.1,0-7.4-3.3-7.4-7.5C86.8,658.1,90.1,654.7,94.2,654.7"/>
	<path fill-rule="evenodd" clip-rule="evenodd" fill="#BCC2C6" d="M669,381.2l9.6,9.6l21.7-21.7c2.9-2.9,7.6-2.9,10.5,0h0
		c2.9,2.9,2.9,7.6,0,10.5l-26.9,26.9l-0.1,0.1l-0.1,0.1l-0.1,0.1l-0.1,0.1l-0.1,0.1l-0.2,0.1l-0.1,0.1l-0.1,0.1v0l-0.2,0.1l-0.2,0.1
		l0,0l-0.2,0.1v0l-0.2,0.1h0l-0.2,0.1l-0.2,0.1l0,0l-0.2,0.1l-0.2,0.1l0,0l-0.2,0.1h0l-0.2,0l0,0l-0.2,0.1l0,0l-0.2,0v0l-0.2,0l0,0
		l-0.2,0l-0.2,0l0,0l-0.2,0l-0.2,0h0l-0.2,0l-0.2,0l-0.2,0v0h-0.2v0H679l0,0l-0.2,0h0h-0.2l-0.3,0h0h-0.2v0l-0.4,0h0l-0.2,0l0,0
		c-0.2,0-0.5-0.1-0.7-0.1c-0.2,0-0.5-0.1-0.7-0.2h0l-0.2,0l-0.3-0.1l0,0l-0.3-0.2l0,0l-0.2-0.1h0l-0.5-0.3l0,0l-0.3-0.2l-0.3-0.2h0
		l-0.1-0.1l0,0l-0.1-0.1l-0.1-0.1l-0.1-0.1l0,0l-0.1-0.1h0l0,0l-14.8-14.8c-2.9-2.9-2.9-7.6,0-10.5v0
		C661.4,378.3,666.1,378.3,669,381.2"/>
</g>
</svg>
