<?xml version="1.0" encoding="utf-8"?>
<!-- Generator: Adobe Illustrator 15.1.0, SVG Export Plug-In . SVG Version: 6.00 Build 0)  -->
<!DOCTYPE svg PUBLIC "-//W3C//DTD SVG 1.0//EN" "http://www.w3.org/TR/2001/REC-SVG-20010904/DTD/svg10.dtd">
<svg version="1.0" id="Layer_1" xmlns="http://www.w3.org/2000/svg" xmlns:xlink="http://www.w3.org/1999/xlink" x="0px" y="0px"
	 width="800px" height="800px" viewBox="0 0 800 800" enable-background="new 0 0 800 800" xml:space="preserve">
<g id="Header">
	<path fill="#BCC2C6" d="M33.1,34.5h736.2c8.5,0,16.1,3.5,21.7,9l0,0c5.6,5.6,9,13.2,9,21.7v654.6c0,8.4-3.5,16.1-9,21.7l0,0
		c-5.6,5.6-13.2,9-21.7,9H33.1c-8.5,0-16.1-3.5-21.7-9l0,0c-5.6-5.6-9-13.2-9-21.7V65.2c0-8.4,3.5-16.1,9-21.7l0,0
		C16.9,38,24.6,34.5,33.1,34.5"/>
	<path fill="#EBEFF0" d="M788.9,65.2v654.6c0,12.3-8.6,19.6-19.6,19.6H33.1c-11,0-19.6-7-19.6-19.6V65.2c0-12.8,8.6-19.6,19.6-19.6
		h736.2C780.2,45.6,788.9,52.7,788.9,65.2"/>
	<path fill="#94A4A5" d="M677.6,72.3c7.8,0,14.2,6.4,14.2,14.2s-6.3,14.2-14.2,14.2c-7.9,0-14.2-6.3-14.2-14.2
		C663.4,78.7,669.7,72.3,677.6,72.3 M722.1,72.3c7.8,0,14.2,6.4,14.2,14.2s-6.4,14.2-14.2,14.2c-7.8,0-14.2-6.3-14.2-14.2
		C707.9,78.7,714.3,72.3,722.1,72.3z M633,72.3c7.8,0,14.2,6.4,14.2,14.2s-6.3,14.2-14.2,14.2c-7.8,0-14.2-6.4-14.2-14.2
		S625.2,72.3,633,72.3z"/>
	<text transform="matrix(1 0 0 1 183.1045 85.2969)" fill="#93A2A3" font-family="'NexaBold'" font-size="44.0749">SOCIALS</text>
</g>
<g id="Body">
	<path fill="#BCC2C6" d="M29.1,129.8h744.3c7.4,0,14,3,18.9,7.8c4.8,4.8,7.8,11.5,7.8,18.8v572.7c0,7.3-3,14-7.8,18.8
		c-4.8,4.8-11.5,7.8-18.9,7.8H29.1c-7.3,0-14-3-18.8-7.8c-4.8-4.8-7.8-11.5-7.8-18.8V156.4c0-7.3,3-14,7.8-18.8
		C15.1,132.7,21.7,129.8,29.1,129.8"/>
	<path fill-rule="evenodd" clip-rule="evenodd" fill="#FFFFFF" d="M29.1,140.9c-4.1,0-8,1.7-11,4.6c-2.9,2.9-4.6,6.8-4.6,11v572.7
		c0,4.1,1.6,8,4.6,11c2.9,2.9,6.8,4.5,11,4.5h744.3c4.1,0,8.1-1.6,11-4.5c2.9-2.9,4.6-6.8,4.6-11V156.4c0-4.1-1.6-8-4.6-11
		c-2.9-2.9-6.8-4.6-11-4.6H29.1z"/>
	<path fill-rule="evenodd" clip-rule="evenodd" fill="#BCC2C6" d="M490.5,471.4c31.3,0,56.8,25.4,56.8,56.8
		c0,31.3-25.4,56.8-56.8,56.8c-31.4,0-56.8-25.4-56.8-56.8C433.7,496.8,459.1,471.4,490.5,471.4"/>
	<path fill-rule="evenodd" clip-rule="evenodd" fill="#EBEFF0" d="M490.5,482.5c25.2,0,45.6,20.4,45.6,45.6s-20.4,45.6-45.6,45.6
		c-25.2,0-45.6-20.4-45.6-45.6S465.3,482.5,490.5,482.5"/>
	<path fill-rule="evenodd" clip-rule="evenodd" fill="#BCC2C6" d="M463.8,510.7v34.9c0,3.6,2.4,6.7,5.4,8.2c1,0.5,2.3,1,3.7,1h34.7
		c2.6,0,5.3-1.6,6.6-3c1.5-1.5,2.7-4,2.7-6.9v-33.5c0-5.5-4.6-9.9-9.4-9.9H473c-1.4,0-2.6,0.5-3.5,0.9c-0.9,0.4-2.2,1.2-2.8,1.9
		C465.1,505.8,463.8,508.5,463.8,510.7 M507.9,518.4c-1.9,0-6.6,0.3-7.4-0.3c-1-0.8-0.6-4.8-0.6-7.2c0-2.6,3.5-1.9,7.5-1.9
		c2.6,0,1.9,3.5,1.9,7.5C509.4,517.4,508.7,518.4,507.9,518.4z M475.1,527.6c0,17.2,22,21.3,28.8,7.7c2-4,1.7-4.9,1.7-9.3h5.9v18.5
		c0,2.3-1.5,4.7-3.5,4.7h-34.7c-2.4,0-4-2.2-4-4.7v-18.5h6.1C475.3,526.7,475.1,526.8,475.1,527.6z M481.7,528.8
		c0-2.8,0.6-5,2.5-6.9c5.5-5.5,14.8-1.2,14.8,5.5v1.6c0,6.7-9.4,10.9-14.8,5.5C483.1,533.3,481.7,530.9,481.7,528.8z"/>
	<path fill-rule="evenodd" clip-rule="evenodd" fill="#BCC2C6" d="M311.9,471.4c31.4,0,56.8,25.4,56.8,56.8
		c0,31.3-25.4,56.8-56.8,56.8c-31.4,0-56.8-25.4-56.8-56.8C255.2,496.8,280.6,471.4,311.9,471.4"/>
	<path fill-rule="evenodd" clip-rule="evenodd" fill="#EBEFF0" d="M311.9,482.5c25.2,0,45.6,20.4,45.6,45.6s-20.4,45.6-45.6,45.6
		c-25.2,0-45.6-20.4-45.6-45.6S286.7,482.5,311.9,482.5"/>
	<path fill-rule="evenodd" clip-rule="evenodd" fill="#BCC2C6" d="M286.5,516.3V540c0,1.7,1.4,4,2.4,4.9c1.4,1.2,2.9,1.9,5.3,1.9
		h35.4c2.3,0,4-0.8,5.3-1.9c0.9-0.8,2.4-3.3,2.4-4.9v-23.7c0-1.6-1.5-4.1-2.4-4.8c-1.3-1.1-3-1.9-5.3-1.9h-35.4
		c-2.4,0-4,0.8-5.3,1.9C287.9,512.3,286.5,514.6,286.5,516.3 M303.6,537.7v-19l16.4,9.6C319.2,528.5,305.8,536.5,303.6,537.7z"/>
	<path fill-rule="evenodd" clip-rule="evenodd" fill="#BCC2C6" d="M312.2,300.6c31.4,0,56.8,25.4,56.8,56.8
		c0,31.3-25.4,56.8-56.8,56.8c-31.3,0-56.8-25.4-56.8-56.8C255.5,326,280.9,300.6,312.2,300.6"/>
	<path fill-rule="evenodd" clip-rule="evenodd" fill="#EBEFF0" d="M312.2,311.7c25.2,0,45.6,20.4,45.6,45.6S337.4,403,312.2,403
		c-25.2,0-45.6-20.4-45.6-45.6S287,311.7,312.2,311.7"/>
	<path fill-rule="evenodd" clip-rule="evenodd" fill="#BCC2C6" d="M311.4,345.5c0,1.2,0.2,1.4,0.2,2.8c-2.1,0-5.6-0.9-7.7-1.5
		c-4.5-1.3-8.5-3.4-12.1-6.4c-1-0.9-1.5-1.3-2.4-2.2c-1.3-1.2-1.3-2-2.4-2.3c-0.8,3.3-3.8,7.6,1,13.7c0.6,0.7,1.1,1,1.5,1.7
		c-1.7,0-2.8-1.1-4.2-1.2c0,3,1.2,5.8,2.4,7.6c1.2,1.9,3.1,3.3,5.1,4.3c0,0,0.1,0.1,0.2,0.1l0.3,0.2c-4,0.6-2,0-4,0
		c0.3,3.2,5.5,8.3,9.9,8.7c-2,2.9-10.1,5.6-16,4.2c0.9,1.3,7,3.6,8.7,4.2c9.8,3.3,20,2.5,28.8-2.8c10.1-6.1,15.3-17.4,15.3-30.9
		c1.2-0.3,2.2-2,3-2.9c0.5-0.6,0.7-1,1.2-1.7c0.5-0.7,1-1.1,1-2c-1.1,0.6-3.1,1.4-4.7,1.4c0.7-1.1,3.3-3.8,3.5-6.3
		c-0.1,0-6.3,3.1-8,2.1c-1-0.5-3.4-3.1-7.7-3.1c-3.9,0-7.4,0.6-9.7,3.6c-1,1.3-1.6,2.1-2.2,3.6C312,341.7,311.4,344,311.4,345.5"/>
	<path fill-rule="evenodd" clip-rule="evenodd" fill="#BCC2C6" d="M490.2,300.6c31.3,0,56.8,25.4,56.8,56.8
		c0,31.3-25.4,56.8-56.8,56.8c-31.3,0-56.8-25.4-56.8-56.8C433.4,326,458.8,300.6,490.2,300.6"/>
	<path fill-rule="evenodd" clip-rule="evenodd" fill="#EBEFF0" d="M490.2,311.7c25.2,0,45.6,20.4,45.6,45.6S515.4,403,490.2,403
		c-25.2,0-45.6-20.4-45.6-45.6S465,311.7,490.2,311.7"/>
	<path fill-rule="evenodd" clip-rule="evenodd" fill="#BCC2C6" d="M482.7,344.9v6.8h-5.4v8.7h5.4V384h11v-23.7h9.4v-8
		c0-0.5-0.2-0.7-0.7-0.7h-8.7c0-7.4-1.5-9.8,9.4-9.8v-10.3c0-1.2-2-0.7-5.2-0.7C489.1,330.8,482.7,335.9,482.7,344.9"/>
</g>
</svg>
