<?xml version="1.0" encoding="utf-8"?>
<!-- Generator: Adobe Illustrator 15.1.0, SVG Export Plug-In . SVG Version: 6.00 Build 0)  -->
<!DOCTYPE svg PUBLIC "-//W3C//DTD SVG 1.0//EN" "http://www.w3.org/TR/2001/REC-SVG-20010904/DTD/svg10.dtd">
<svg version="1.0" id="Layer_1" xmlns="http://www.w3.org/2000/svg" xmlns:xlink="http://www.w3.org/1999/xlink" x="0px" y="0px"
	 width="800px" height="800px" viewBox="0 0 800 800" enable-background="new 0 0 800 800" xml:space="preserve">
<g id="Header">
	<path fill="#BCC2C6" d="M33.1,34.5h736.2c8.5,0,16.1,3.5,21.7,9l0,0c5.6,5.6,9,13.2,9,21.7v654.6c0,8.4-3.5,16.1-9,21.7l0,0
		c-5.6,5.6-13.2,9-21.7,9H33.1c-8.5,0-16.1-3.5-21.7-9l0,0c-5.6-5.6-9-13.2-9-21.7V65.2c0-8.4,3.5-16.1,9-21.7l0,0
		C16.9,38,24.6,34.5,33.1,34.5"/>
	<path fill="#EBEFF0" d="M788.9,65.2v654.6c0,12.3-8.6,19.6-19.6,19.6H33.1c-11,0-19.6-7-19.6-19.6V65.2c0-12.8,8.6-19.6,19.6-19.6
		h736.2C780.2,45.6,788.9,52.7,788.9,65.2"/>
	<path fill="#94A4A5" d="M677.6,72.3c7.8,0,14.2,6.4,14.2,14.2s-6.3,14.2-14.2,14.2c-7.9,0-14.2-6.3-14.2-14.2
		C663.4,78.7,669.7,72.3,677.6,72.3 M722.1,72.3c7.8,0,14.2,6.4,14.2,14.2s-6.4,14.2-14.2,14.2c-7.8,0-14.2-6.3-14.2-14.2
		C707.9,78.7,714.3,72.3,722.1,72.3z M633,72.3c7.8,0,14.2,6.4,14.2,14.2s-6.3,14.2-14.2,14.2c-7.8,0-14.2-6.4-14.2-14.2
		S625.2,72.3,633,72.3z"/>
	<text transform="matrix(1 0 0 1 232.666 85.2969)" fill="#93A2A3" font-family="'NexaBold'" font-size="44.0749">STEPS</text>
</g>
<g id="Body">
	<path fill="#BCC2C6" d="M28.8,130.2h744.5c7.4,0,14,3,18.9,7.8c4.8,4.8,7.8,11.5,7.8,18.8v572.9c0,7.3-3,14-7.8,18.8
		c-4.8,4.8-11.5,7.8-18.9,7.8H28.8c-7.4,0-14-3-18.8-7.8c-4.8-4.8-7.8-11.5-7.8-18.8V156.9c0-7.3,3-14,7.8-18.8
		C14.8,133.2,21.5,130.2,28.8,130.2"/>
	<path fill-rule="evenodd" clip-rule="evenodd" fill="#FFFFFF" d="M28.8,141.4c-4.1,0-8.1,1.6-11,4.6c-2.9,2.9-4.6,6.8-4.6,11v572.9
		c0,4.1,1.7,8,4.6,11c2.9,2.9,6.8,4.6,11,4.6h744.5c4.1,0,8.1-1.7,11-4.6c2.9-2.9,4.6-6.8,4.6-11V156.9c0-4.1-1.6-8-4.6-11
		c-2.9-2.9-6.8-4.6-11-4.6H28.8z"/>
	<rect x="148.5" y="295.6" fill-rule="evenodd" clip-rule="evenodd" fill="#34495E" width="505.2" height="11.1"/>
	<rect x="148.5" y="262.1" fill-rule="evenodd" clip-rule="evenodd" fill="#34495E" width="78.2" height="78.2"/>
	<rect x="159.6" y="273.2" fill="#22A6EF" width="55.9" height="55.9"/>
	<rect x="362" y="262.1" fill-rule="evenodd" clip-rule="evenodd" fill="#34495E" width="78.2" height="78.2"/>
	<rect x="373.1" y="273.2" fill="#22A6EF" width="55.9" height="55.9"/>
	<rect x="575.5" y="262.1" fill-rule="evenodd" clip-rule="evenodd" fill="#34495E" width="78.2" height="78.2"/>
	<rect x="586.6" y="273.2" fill="#22A6EF" width="55.9" height="55.9"/>
	<path fill-rule="evenodd" clip-rule="evenodd" fill="#BCC2C6" d="M126.2,397.4h122.6c3.8,0,6.9,3.1,6.9,6.8c0,3.8-3.1,6.9-6.9,6.9
		H126.2c-3.8,0-6.9-3.1-6.9-6.9C119.4,400.5,122.5,397.4,126.2,397.4"/>
	<path fill-rule="evenodd" clip-rule="evenodd" fill="#BCC2C6" d="M134.7,431.9h105.6c3.8,0,6.9,3.1,6.9,6.8l0,0
		c0,3.8-3.1,6.9-6.9,6.9H134.7c-3.8,0-6.9-3.1-6.9-6.9l0,0C127.9,434.9,131,431.9,134.7,431.9"/>
	<path fill-rule="evenodd" clip-rule="evenodd" fill="#BCC2C6" d="M339.7,397.4h122.7c3.8,0,6.8,3.1,6.8,6.8c0,3.8-3.1,6.9-6.8,6.9
		H339.7c-3.8,0-6.8-3.1-6.8-6.9C332.9,400.5,336,397.4,339.7,397.4"/>
	<path fill-rule="evenodd" clip-rule="evenodd" fill="#BCC2C6" d="M348.2,431.9h105.7c3.8,0,6.8,3.1,6.8,6.8l0,0
		c0,3.8-3.1,6.9-6.8,6.9H348.2c-3.8,0-6.8-3.1-6.8-6.9l0,0C341.4,434.9,344.5,431.9,348.2,431.9"/>
	<path fill-rule="evenodd" clip-rule="evenodd" fill="#BCC2C6" d="M553.3,397.4h122.6c3.8,0,6.9,3.1,6.9,6.8c0,3.8-3.1,6.9-6.9,6.9
		H553.3c-3.8,0-6.9-3.1-6.9-6.9C546.4,400.5,549.5,397.4,553.3,397.4"/>
	<path fill-rule="evenodd" clip-rule="evenodd" fill="#BCC2C6" d="M561.8,431.9h105.7c3.8,0,6.9,3.1,6.9,6.8l0,0
		c0,3.8-3.1,6.9-6.9,6.9H561.8c-3.8,0-6.8-3.1-6.8-6.9l0,0C554.9,434.9,558,431.9,561.8,431.9"/>
	<path fill-rule="evenodd" clip-rule="evenodd" fill="#BCC2C6" d="M126.8,593.6h548.5c4.1,0,7.4,3.3,7.4,7.5l0,0
		c0,4.1-3.3,7.5-7.4,7.5H126.8c-4.1,0-7.5-3.3-7.5-7.5l0,0C119.4,597,122.7,593.6,126.8,593.6"/>
	<path fill-rule="evenodd" clip-rule="evenodd" fill="#BCC2C6" d="M126.8,631.1h548.5c4.1,0,7.4,3.3,7.4,7.4v0
		c0,4.1-3.3,7.4-7.4,7.4H126.8c-4.1,0-7.5-3.3-7.5-7.4v0C119.4,634.4,122.7,631.1,126.8,631.1"/>
	<path fill-rule="evenodd" clip-rule="evenodd" fill="#BCC2C6" d="M126.8,556.2h266.8c4.1,0,7.4,3.3,7.4,7.4v0
		c0,4.1-3.3,7.4-7.4,7.4H126.8c-4.1,0-7.5-3.3-7.5-7.4v0C119.4,559.5,122.7,556.2,126.8,556.2"/>
</g>
</svg>
