<?xml version="1.0" encoding="utf-8"?>
<!-- Generator: Adobe Illustrator 15.1.0, SVG Export Plug-In . SVG Version: 6.00 Build 0)  -->
<!DOCTYPE svg PUBLIC "-//W3C//DTD SVG 1.0//EN" "http://www.w3.org/TR/2001/REC-SVG-20010904/DTD/svg10.dtd">
<svg version="1.0" id="Layer_1" xmlns="http://www.w3.org/2000/svg" xmlns:xlink="http://www.w3.org/1999/xlink" x="0px" y="0px"
	 width="800px" height="800px" viewBox="0 0 800 800" enable-background="new 0 0 800 800" xml:space="preserve">
<g id="Header">
	<path fill="#BCC2C6" d="M33.1,34.5h736.2c8.5,0,16.1,3.5,21.7,9l0,0c5.6,5.6,9,13.2,9,21.7v654.6c0,8.4-3.5,16.1-9,21.7l0,0
		c-5.6,5.6-13.2,9-21.7,9H33.1c-8.5,0-16.1-3.5-21.7-9l0,0c-5.6-5.6-9-13.2-9-21.7V65.2c0-8.4,3.5-16.1,9-21.7l0,0
		C16.9,38,24.6,34.5,33.1,34.5"/>
	<path fill="#EBEFF0" d="M788.9,65.2v654.6c0,12.3-8.6,19.6-19.6,19.6H33.1c-11,0-19.6-7-19.6-19.6V65.2c0-12.8,8.6-19.6,19.6-19.6
		h736.2C780.2,45.6,788.9,52.7,788.9,65.2"/>
	<path fill="#94A4A5" d="M677.6,72.3c7.8,0,14.2,6.4,14.2,14.2s-6.3,14.2-14.2,14.2c-7.9,0-14.2-6.3-14.2-14.2
		C663.4,78.7,669.7,72.3,677.6,72.3 M722.1,72.3c7.8,0,14.2,6.4,14.2,14.2s-6.4,14.2-14.2,14.2c-7.8,0-14.2-6.3-14.2-14.2
		C707.9,78.7,714.3,72.3,722.1,72.3z M633,72.3c7.8,0,14.2,6.4,14.2,14.2s-6.3,14.2-14.2,14.2c-7.8,0-14.2-6.4-14.2-14.2
		S625.2,72.3,633,72.3z"/>
	<text transform="matrix(1 0 0 1 243.3101 85.2969)" fill="#93A2A3" font-family="'NexaBold'" font-size="44.0749">TAGS</text>
</g>
<g id="Body">
	<path fill="#BCC2C6" d="M28.3,129h745c7.4,0,14,3,18.8,7.8c4.8,4.8,7.8,11.5,7.8,18.9V729c0,7.4-3,14-7.8,18.8
		c-4.8,4.8-11.5,7.8-18.8,7.8h-745c-7.3,0-14-3-18.8-7.8C4.6,743,1.6,736.3,1.6,729V155.7c0-7.4,3-14,7.8-18.9
		C14.3,132,21,129,28.3,129"/>
	<path fill-rule="evenodd" clip-rule="evenodd" fill="#FFFFFF" d="M28.3,140.2c-4.1,0-8,1.7-11,4.6c-2.9,2.9-4.6,6.8-4.6,11V729
		c0,4.1,1.7,8,4.6,11c2.9,2.9,6.8,4.6,11,4.6h745c4.1,0,8-1.7,11-4.6c2.9-2.9,4.6-6.8,4.6-11V155.7c0-4.1-1.6-8-4.6-11
		c-2.9-2.9-6.8-4.6-11-4.6H28.3z"/>
	<path fill-rule="evenodd" clip-rule="evenodd" fill="#BCC2C6" d="M90.4,676.6h620.8c8.6,0,15.6-7,15.6-15.6V384.7
		c0-8.6-7-15.6-15.6-15.6H90.4c-8.6,0-15.6,7-15.6,15.6V661C74.8,669.5,81.8,676.6,90.4,676.6"/>
	<path fill="#EBEFF0" d="M90.4,379.8h620.8c2.7,0,4.9,2.2,4.9,4.9v276.2c0,2.7-2.2,4.9-4.9,4.9H90.4c-2.7,0-4.9-2.2-4.9-4.9V384.7
		C85.5,382,87.7,379.8,90.4,379.8"/>
	<path fill-rule="evenodd" clip-rule="evenodd" fill="#BCC2C6" d="M602.1,605.4h-99.9V549h99.9l28.2,28.2L602.1,605.4z M419.4,605.4
		h-72.3V549h72.3l28.2,28.2L419.4,605.4z M285.5,605.4h-99.8V549h99.8l28.2,28.2L285.5,605.4z M602.1,512.5h-72.3v-56.4h72.3
		l28.2,28.2L602.1,512.5z M445.4,512.5h-99.9v-56.4h99.9l28.2,28.2L445.4,512.5z M258,512.5h-72.3v-56.4H258l28.2,28.2L258,512.5z"
		/>
	<path fill-rule="evenodd" clip-rule="evenodd" fill="#BCC2C6" d="M190,243h421.5c4.1,0,7.5,3.4,7.5,7.4v0c0,4.1-3.4,7.4-7.5,7.4
		H190c-4.1,0-7.5-3.4-7.5-7.4v0C182.6,246.4,185.9,243,190,243"/>
	<path fill-rule="evenodd" clip-rule="evenodd" fill="#BCC2C6" d="M217.2,280.5h367.2c4.1,0,7.5,3.4,7.5,7.5c0,4.1-3.4,7.5-7.5,7.5
		H217.2c-4.1,0-7.5-3.4-7.5-7.5C209.8,283.8,213.1,280.5,217.2,280.5"/>
	<path fill-rule="evenodd" clip-rule="evenodd" fill="#34495E" d="M594.9,597.4h-99.8v-56.3h99.8l28.2,28.2L594.9,597.4z
		 M412.2,597.4h-72.3v-56.3h72.3l28.2,28.2L412.2,597.4z M278.4,597.4h-99.9v-56.3h99.9l28.2,28.2L278.4,597.4z M594.9,504.6h-72.3
		v-56.4h72.3l28.2,28.2L594.9,504.6z M438.2,504.6h-99.9v-56.4h99.9l28.2,28.2L438.2,504.6z M250.8,504.6h-72.3v-56.4h72.3
		l28.2,28.2L250.8,504.6z"/>
	<polygon fill-rule="evenodd" clip-rule="evenodd" fill="#22A6EF" points="246.4,493.8 189.3,493.8 189.3,458.9 246.4,458.9 
		263.8,476.4 	"/>
	<polygon fill-rule="evenodd" clip-rule="evenodd" fill="#22A6EF" points="433.8,493.8 349.1,493.8 349.1,458.9 433.8,458.9 
		451.2,476.4 	"/>
	<polygon fill-rule="evenodd" clip-rule="evenodd" fill="#22A6EF" points="590.5,493.8 533.3,493.8 533.3,458.9 590.5,458.9 
		607.9,476.4 	"/>
	<polygon fill-rule="evenodd" clip-rule="evenodd" fill="#22A6EF" points="273.9,586.7 189.3,586.7 189.3,551.8 273.9,551.8 
		291.4,569.3 	"/>
	<polygon fill-rule="evenodd" clip-rule="evenodd" fill="#22A6EF" points="407.8,586.7 350.7,586.7 350.7,551.8 407.8,551.8 
		425.2,569.3 	"/>
	<polygon fill-rule="evenodd" clip-rule="evenodd" fill="#22A6EF" points="590.5,586.7 505.8,586.7 505.8,551.8 590.5,551.8 
		607.9,569.3 	"/>
</g>
</svg>
