<?xml version="1.0" encoding="utf-8"?>
<!-- Generator: Adobe Illustrator 15.1.0, SVG Export Plug-In . SVG Version: 6.00 Build 0)  -->
<!DOCTYPE svg PUBLIC "-//W3C//DTD SVG 1.0//EN" "http://www.w3.org/TR/2001/REC-SVG-20010904/DTD/svg10.dtd">
<svg version="1.0" id="Layer_1" xmlns="http://www.w3.org/2000/svg" xmlns:xlink="http://www.w3.org/1999/xlink" x="0px" y="0px"
	 width="800px" height="800px" viewBox="0 0 800 800" enable-background="new 0 0 800 800" xml:space="preserve">
<g id="Header">
	<path fill="#BCC2C6" d="M33.1,34.5h736.2c8.5,0,16.1,3.5,21.7,9l0,0c5.6,5.6,9,13.2,9,21.7v654.6c0,8.4-3.5,16.1-9,21.7l0,0
		c-5.6,5.6-13.2,9-21.7,9H33.1c-8.5,0-16.1-3.5-21.7-9l0,0c-5.6-5.6-9-13.2-9-21.7V65.2c0-8.4,3.5-16.1,9-21.7l0,0
		C16.9,38,24.6,34.5,33.1,34.5"/>
	<path fill="#EBEFF0" d="M788.9,65.2v654.6c0,12.3-8.6,19.6-19.6,19.6H33.1c-11,0-19.6-7-19.6-19.6V65.2c0-12.8,8.6-19.6,19.6-19.6
		h736.2C780.2,45.6,788.9,52.7,788.9,65.2"/>
	<path fill="#94A4A5" d="M677.6,72.3c7.8,0,14.2,6.4,14.2,14.2s-6.3,14.2-14.2,14.2c-7.9,0-14.2-6.3-14.2-14.2
		C663.4,78.7,669.7,72.3,677.6,72.3 M722.1,72.3c7.8,0,14.2,6.4,14.2,14.2s-6.4,14.2-14.2,14.2c-7.8,0-14.2-6.3-14.2-14.2
		C707.9,78.7,714.3,72.3,722.1,72.3z M633,72.3c7.8,0,14.2,6.4,14.2,14.2s-6.3,14.2-14.2,14.2c-7.8,0-14.2-6.4-14.2-14.2
		S625.2,72.3,633,72.3z"/>
	<text transform="matrix(1 0 0 1 241.106 85.2969)" fill="#93A2A3" font-family="'NexaBold'" font-size="44.0749">TEAM</text>
</g>
<g id="Body">
	<path fill="#BCC2C6" d="M29,128.5h744.4c7.3,0,14,3,18.8,7.8c4.8,4.8,7.8,11.5,7.8,18.8V728c0,7.3-3,14-7.8,18.8
		c-4.8,4.8-11.5,7.8-18.8,7.8H29c-7.3,0-14-3-18.8-7.8C5.3,742,2.3,735.4,2.3,728V155.2c0-7.3,3-14,7.8-18.8
		C15,131.5,21.6,128.5,29,128.5"/>
	<path fill-rule="evenodd" clip-rule="evenodd" fill="#FFFFFF" d="M29,139.7c-4.1,0-8,1.6-10.9,4.6c-2.9,2.9-4.6,6.8-4.6,11V728
		c0,4.1,1.6,8,4.6,11c2.9,2.9,6.8,4.5,10.9,4.5h744.4c4.1,0,8-1.6,10.9-4.5c2.9-2.9,4.6-6.8,4.6-11V155.2c0-4.1-1.6-8-4.6-11
		c-2.9-2.9-6.8-4.6-10.9-4.6H29z"/>
	<rect x="94.6" y="225.8" fill-rule="evenodd" clip-rule="evenodd" fill="#34495E" width="130.8" height="130.8"/>
	<rect x="105.4" y="236.5" fill="#22A6EF" width="109.3" height="109.3"/>
	<path fill-rule="evenodd" clip-rule="evenodd" fill="#34495E" d="M160,296.7c26.6,0,48.2,21.6,48.2,48.2v1h-96.3l0-1
		C111.9,318.2,133.4,296.7,160,296.7"/>
	<path fill-rule="evenodd" clip-rule="evenodd" fill="#34495E" d="M160,254.4c15,0,27.1,12.1,27.1,27.1c0,15-12.2,27.1-27.1,27.1
		c-15,0-27.1-12.2-27.1-27.1C132.9,266.5,145,254.4,160,254.4"/>
	<path fill-rule="evenodd" clip-rule="evenodd" fill="#39D4FF" d="M160,265.1c9.1,0,16.4,7.3,16.4,16.4c0,9.1-7.4,16.4-16.4,16.4
		c-9.1,0-16.4-7.3-16.4-16.4C143.6,272.4,151,265.1,160,265.1"/>
	<path fill-rule="evenodd" clip-rule="evenodd" fill="#39D4FF" d="M160,307.4c20.7,0,37.4,16.8,37.4,37.4v1h-74.9l0-1
		C122.6,324.2,139.3,307.4,160,307.4"/>
	<path fill-rule="evenodd" clip-rule="evenodd" fill="#BCC2C6" d="M100.3,445h119.5c4.1,0,7.4-3.3,7.4-7.4v0c0-4.1-3.3-7.4-7.4-7.4
		H100.3c-4.1,0-7.5,3.3-7.5,7.4v0C92.8,441.7,96.2,445,100.3,445"/>
	<path fill-rule="evenodd" clip-rule="evenodd" fill="#BCC2C6" d="M122.9,482.3h74.2c4.1,0,7.4-3.3,7.4-7.4l0,0
		c0-4.1-3.3-7.5-7.4-7.5h-74.2c-4.1,0-7.5,3.3-7.5,7.5l0,0C115.5,478.9,118.8,482.3,122.9,482.3"/>
	<path fill-rule="evenodd" clip-rule="evenodd" fill="#BCC2C6" d="M100.3,407.8h119.5c4.1,0,7.4-3.3,7.4-7.5c0-4.1-3.3-7.4-7.4-7.4
		H100.3c-4.1,0-7.5,3.3-7.5,7.4C92.8,404.4,96.2,407.8,100.3,407.8"/>
	<path fill="#BCC2C6" d="M204.5,567h-84.5c-3.3,0-6.2,1.3-8.4,3.5c-2.1,2.1-3.5,5.1-3.5,8.4c0,3.3,1.3,6.2,3.5,8.3l0,0
		c2.1,2.1,5.1,3.5,8.4,3.5h84.5c3.2,0,6.2-1.3,8.3-3.5c2.1-2.1,3.5-5.1,3.5-8.3c0-3.3-1.3-6.2-3.5-8.4
		C210.8,568.3,207.8,567,204.5,567 M120.1,555.4h84.5c6.4,0,12.3,2.6,16.5,6.9l0,0c4.2,4.2,6.9,10.1,6.9,16.5
		c0,6.4-2.6,12.3-6.9,16.5c-4.2,4.2-10.1,6.9-16.5,6.9h-84.5c-6.4,0-12.3-2.6-16.5-6.9l0,0h0c-4.2-4.2-6.9-10.1-6.9-16.5
		c0-6.4,2.6-12.3,6.9-16.5C107.8,558.1,113.7,555.4,120.1,555.4z"/>
	<path fill="#34495E" d="M115.5,545.9h84.4c6.4,0,12.3,2.6,16.5,6.9l0,0c4.2,4.2,6.9,10.1,6.9,16.5c0,6.4-2.6,12.3-6.9,16.5
		c-4.2,4.2-10.1,6.9-16.5,6.9h-84.4c-6.4,0-12.3-2.6-16.5-6.9l0,0l0,0c-4.2-4.2-6.9-10.1-6.9-16.5s2.6-12.3,6.9-16.5
		C103.2,548.5,109.1,545.9,115.5,545.9"/>
	<path fill="#27CABF" d="M199.9,552.8c4.4,0,8.5,1.7,11.6,4.8c3.1,3.1,4.8,7.2,4.8,11.6c0,4.4-1.8,8.5-4.8,11.6
		c-3.1,3.1-7.2,4.8-11.6,4.8h-84.4c-4.4,0-8.5-1.7-11.6-4.8l0,0c-3.1-3.1-4.8-7.2-4.8-11.6c0-4.4,1.8-8.5,4.8-11.6
		c3.1-3.1,7.2-4.8,11.6-4.8H199.9z"/>
	<path fill="#51F4E9" d="M199.9,552.8c4.4,0,8.5,1.7,11.6,4.8c3.1,3.1,4.8,7.2,4.8,11.6c0,1.1-0.1,2.2-0.3,3.3
		c-0.6-3.1-2.2-6-4.5-8.3c-3.1-3.1-7.2-4.8-11.6-4.8h-84.4c-4.4,0-8.5,1.7-11.6,4.8c-2.3,2.3-3.8,5.2-4.5,8.3
		c-0.2-1.1-0.3-2.2-0.3-3.3c0-4.4,1.8-8.5,4.8-11.6c3.1-3.1,7.2-4.8,11.6-4.8H199.9z"/>
	<rect x="335.8" y="225.8" fill-rule="evenodd" clip-rule="evenodd" fill="#34495E" width="130.8" height="130.8"/>
	<rect x="346.5" y="236.5" fill="#22A6EF" width="109.3" height="109.3"/>
	<path fill-rule="evenodd" clip-rule="evenodd" fill="#34495E" d="M401.2,296.7c26.6,0,48.2,21.6,48.2,48.2v1H353l0-1
		C353,318.2,374.6,296.7,401.2,296.7"/>
	<path fill-rule="evenodd" clip-rule="evenodd" fill="#34495E" d="M401.2,254.4c15,0,27.1,12.1,27.1,27.1c0,15-12.2,27.1-27.1,27.1
		c-15,0-27.1-12.2-27.1-27.1C374,266.5,386.2,254.4,401.2,254.4"/>
	<path fill-rule="evenodd" clip-rule="evenodd" fill="#39D4FF" d="M401.2,265.1c9.1,0,16.4,7.3,16.4,16.4c0,9.1-7.4,16.4-16.4,16.4
		c-9.1,0-16.4-7.3-16.4-16.4C384.7,272.4,392.1,265.1,401.2,265.1"/>
	<path fill-rule="evenodd" clip-rule="evenodd" fill="#39D4FF" d="M401.2,307.4c20.7,0,37.4,16.8,37.4,37.4v1h-74.9v-1
		C363.7,324.2,380.5,307.4,401.2,307.4"/>
	<path fill-rule="evenodd" clip-rule="evenodd" fill="#BCC2C6" d="M341.4,445h119.5c4.1,0,7.5-3.3,7.5-7.4v0c0-4.1-3.3-7.4-7.5-7.4
		H341.4c-4.1,0-7.5,3.3-7.5,7.4v0C333.9,441.7,337.3,445,341.4,445"/>
	<path fill-rule="evenodd" clip-rule="evenodd" fill="#BCC2C6" d="M364.1,482.3h74.2c4.1,0,7.4-3.3,7.4-7.4l0,0
		c0-4.1-3.3-7.5-7.4-7.5h-74.2c-4.1,0-7.5,3.3-7.5,7.5l0,0C356.6,478.9,360,482.3,364.1,482.3"/>
	<path fill-rule="evenodd" clip-rule="evenodd" fill="#BCC2C6" d="M341.4,407.8h119.5c4.1,0,7.5-3.3,7.5-7.5c0-4.1-3.3-7.4-7.5-7.4
		H341.4c-4.1,0-7.5,3.3-7.5,7.4C333.9,404.4,337.3,407.8,341.4,407.8"/>
	<path fill="#BCC2C6" d="M445.7,567h-84.4c-3.3,0-6.2,1.3-8.4,3.5c-2.1,2.1-3.5,5.1-3.5,8.4c0,3.3,1.3,6.2,3.5,8.3l0,0
		c2.1,2.1,5.1,3.5,8.4,3.5h84.4c3.3,0,6.2-1.3,8.3-3.5c2.1-2.1,3.5-5.1,3.5-8.3c0-3.3-1.3-6.2-3.5-8.4
		C451.9,568.3,448.9,567,445.7,567 M361.2,555.4h84.4c6.4,0,12.3,2.6,16.5,6.9l0,0c4.3,4.2,6.9,10.1,6.9,16.5
		c0,6.4-2.6,12.3-6.9,16.5c-4.2,4.2-10.1,6.9-16.5,6.9h-84.4c-6.4,0-12.3-2.6-16.5-6.9l0,0h0c-4.2-4.2-6.9-10.1-6.9-16.5
		c0-6.4,2.6-12.3,6.9-16.5C348.9,558.1,354.8,555.4,361.2,555.4z"/>
	<path fill="#34495E" d="M356.6,545.9h84.4c6.4,0,12.3,2.6,16.5,6.9l0,0c4.2,4.2,6.9,10.1,6.9,16.5c0,6.4-2.6,12.3-6.9,16.5
		c-4.2,4.2-10.1,6.9-16.5,6.9h-84.4c-6.4,0-12.3-2.6-16.5-6.9l0,0l0,0c-4.2-4.2-6.9-10.1-6.9-16.5s2.6-12.3,6.9-16.5
		C344.4,548.5,350.2,545.9,356.6,545.9"/>
	<path fill="#27CABF" d="M441.1,552.8c4.4,0,8.5,1.7,11.6,4.8c3.1,3.1,4.8,7.2,4.8,11.6c0,4.4-1.8,8.5-4.8,11.6
		c-3.1,3.1-7.2,4.8-11.6,4.8h-84.4c-4.4,0-8.5-1.7-11.6-4.8l0,0c-3.1-3.1-4.8-7.2-4.8-11.6c0-4.4,1.7-8.5,4.8-11.6
		c3.1-3.1,7.2-4.8,11.6-4.8H441.1z"/>
	<path fill="#51F4E9" d="M441.1,552.8c4.4,0,8.5,1.7,11.6,4.8c3.1,3.1,4.8,7.2,4.8,11.6c0,1.1-0.1,2.2-0.3,3.3
		c-0.6-3.1-2.2-6-4.5-8.3c-3.1-3.1-7.3-4.8-11.6-4.8h-84.4c-4.4,0-8.5,1.7-11.6,4.8c-2.3,2.3-3.8,5.2-4.5,8.3
		c-0.2-1.1-0.3-2.2-0.3-3.3c0-4.4,1.7-8.5,4.8-11.6c3.1-3.1,7.2-4.8,11.6-4.8H441.1z"/>
	<rect x="576.9" y="225.8" fill-rule="evenodd" clip-rule="evenodd" fill="#34495E" width="130.8" height="130.8"/>
	<rect x="587.6" y="236.5" fill="#22A6EF" width="109.3" height="109.3"/>
	<path fill-rule="evenodd" clip-rule="evenodd" fill="#34495E" d="M642.3,296.7c26.6,0,48.2,21.6,48.2,48.2l0,1h-96.3l0-1
		C594.1,318.2,615.7,296.7,642.3,296.7"/>
	<path fill-rule="evenodd" clip-rule="evenodd" fill="#34495E" d="M642.3,254.4c15,0,27.1,12.1,27.1,27.1c0,15-12.2,27.1-27.1,27.1
		c-15,0-27.1-12.2-27.1-27.1C615.1,266.5,627.3,254.4,642.3,254.4"/>
	<path fill-rule="evenodd" clip-rule="evenodd" fill="#39D4FF" d="M642.3,265.1c9.1,0,16.4,7.3,16.4,16.4c0,9.1-7.4,16.4-16.4,16.4
		c-9.1,0-16.4-7.3-16.4-16.4C625.9,272.4,633.2,265.1,642.3,265.1"/>
	<path fill-rule="evenodd" clip-rule="evenodd" fill="#39D4FF" d="M642.3,307.4c20.7,0,37.4,16.8,37.4,37.4v1h-74.9v-1
		C604.9,324.2,621.6,307.4,642.3,307.4"/>
	<path fill-rule="evenodd" clip-rule="evenodd" fill="#BCC2C6" d="M582.5,445h119.5c4.1,0,7.5-3.3,7.5-7.4v0c0-4.1-3.3-7.4-7.5-7.4
		H582.5c-4.1,0-7.5,3.3-7.5,7.4v0C575.1,441.7,578.4,445,582.5,445"/>
	<path fill-rule="evenodd" clip-rule="evenodd" fill="#BCC2C6" d="M605.2,482.3h74.2c4.1,0,7.5-3.3,7.5-7.4l0,0
		c0-4.1-3.4-7.5-7.5-7.5h-74.2c-4.1,0-7.5,3.3-7.5,7.5l0,0C597.7,478.9,601.1,482.3,605.2,482.3"/>
	<path fill-rule="evenodd" clip-rule="evenodd" fill="#BCC2C6" d="M582.5,407.8h119.5c4.1,0,7.5-3.3,7.5-7.5c0-4.1-3.3-7.4-7.5-7.4
		H582.5c-4.1,0-7.5,3.3-7.5,7.4C575.1,404.4,578.4,407.8,582.5,407.8"/>
	<path fill="#BCC2C6" d="M686.8,567h-84.5c-3.3,0-6.2,1.3-8.3,3.5c-2.1,2.1-3.5,5.1-3.5,8.4c0,3.3,1.3,6.2,3.5,8.3l0,0
		c2.1,2.1,5.1,3.5,8.3,3.5h84.5c3.3,0,6.2-1.3,8.3-3.5c2.1-2.1,3.5-5.1,3.5-8.3c0-3.3-1.3-6.2-3.5-8.4
		C693,568.3,690.1,567,686.8,567 M602.4,555.4h84.5c6.4,0,12.3,2.6,16.5,6.9l0,0c4.2,4.2,6.9,10.1,6.9,16.5c0,6.4-2.6,12.3-6.9,16.5
		c-4.2,4.2-10.1,6.9-16.5,6.9h-84.5c-6.4,0-12.3-2.6-16.5-6.9l0,0h0c-4.2-4.2-6.9-10.1-6.9-16.5c0-6.4,2.6-12.3,6.9-16.5
		C590.1,558.1,595.9,555.4,602.4,555.4z"/>
	<path fill="#34495E" d="M597.8,545.9h84.5c6.4,0,12.3,2.6,16.5,6.9l0,0c4.2,4.2,6.9,10.1,6.9,16.5c0,6.4-2.6,12.3-6.9,16.5
		c-4.2,4.2-10.1,6.9-16.5,6.9h-84.5c-6.4,0-12.3-2.6-16.5-6.9l0,0v0c-4.2-4.2-6.9-10.1-6.9-16.5s2.6-12.3,6.9-16.5
		C585.5,548.5,591.3,545.9,597.8,545.9"/>
	<path fill="#27CABF" d="M682.2,552.8c4.4,0,8.5,1.7,11.6,4.8c3.1,3.1,4.8,7.2,4.8,11.6c0,4.4-1.7,8.5-4.8,11.6
		c-3.1,3.1-7.2,4.8-11.6,4.8h-84.5c-4.4,0-8.5-1.7-11.6-4.8l0,0c-3.1-3.1-4.8-7.2-4.8-11.6c0-4.4,1.7-8.5,4.8-11.6
		c3.1-3.1,7.2-4.8,11.6-4.8H682.2z"/>
	<path fill="#51F4E9" d="M682.2,552.8c4.4,0,8.5,1.7,11.6,4.8c3.1,3.1,4.8,7.2,4.8,11.6c0,1.1-0.1,2.2-0.3,3.3
		c-0.6-3.1-2.2-6-4.5-8.3c-3.1-3.1-7.2-4.8-11.6-4.8h-84.5c-4.4,0-8.5,1.7-11.6,4.8c-2.3,2.3-3.8,5.2-4.5,8.3
		c-0.2-1.1-0.3-2.2-0.3-3.3c0-4.4,1.7-8.5,4.8-11.6c3.1-3.1,7.2-4.8,11.6-4.8H682.2z"/>
</g>
</svg>
