<?xml version="1.0" encoding="utf-8"?>
<!-- Generator: Adobe Illustrator 15.1.0, SVG Export Plug-In . SVG Version: 6.00 Build 0)  -->
<!DOCTYPE svg PUBLIC "-//W3C//DTD SVG 1.0//EN" "http://www.w3.org/TR/2001/REC-SVG-20010904/DTD/svg10.dtd">
<svg version="1.0" id="Layer_1" xmlns="http://www.w3.org/2000/svg" xmlns:xlink="http://www.w3.org/1999/xlink" x="0px" y="0px"
	 width="800px" height="800px" viewBox="0 0 800 800" enable-background="new 0 0 800 800" xml:space="preserve">
<g id="Header">
	<path fill="#BCC2C6" d="M33.1,34.5h736.2c8.5,0,16.1,3.5,21.7,9l0,0c5.6,5.6,9,13.2,9,21.7v654.6c0,8.4-3.5,16.1-9,21.7l0,0
		c-5.6,5.6-13.2,9-21.7,9H33.1c-8.5,0-16.1-3.5-21.7-9l0,0c-5.6-5.6-9-13.2-9-21.7V65.2c0-8.4,3.5-16.1,9-21.7l0,0
		C16.9,38,24.6,34.5,33.1,34.5"/>
	<path fill="#EBEFF0" d="M788.9,65.2v654.6c0,12.3-8.6,19.6-19.6,19.6H33.1c-11,0-19.6-7-19.6-19.6V65.2c0-12.8,8.6-19.6,19.6-19.6
		h736.2C780.2,45.6,788.9,52.7,788.9,65.2"/>
	<path fill="#94A4A5" d="M677.6,72.3c7.8,0,14.2,6.4,14.2,14.2s-6.3,14.2-14.2,14.2c-7.9,0-14.2-6.3-14.2-14.2
		C663.4,78.7,669.7,72.3,677.6,72.3 M722.1,72.3c7.8,0,14.2,6.4,14.2,14.2s-6.4,14.2-14.2,14.2c-7.8,0-14.2-6.3-14.2-14.2
		C707.9,78.7,714.3,72.3,722.1,72.3z M633,72.3c7.8,0,14.2,6.4,14.2,14.2s-6.3,14.2-14.2,14.2c-7.8,0-14.2-6.4-14.2-14.2
		S625.2,72.3,633,72.3z"/>
	<text transform="matrix(1 0 0 1 95.5562 83.7368)" fill="#93A2A3" font-family="'NexaBold'" font-size="38.3175">UNDER CONTRUCTION</text>
</g>
<g id="Body">
	<path fill="#BCC2C6" d="M29.4,132h744c7.3,0,14,3,18.8,7.8c4.8,4.8,7.8,11.5,7.8,18.8v572.5c0,7.3-3,14-7.8,18.8
		c-4.8,4.8-11.5,7.8-18.8,7.8h-744c-7.3,0-14-3-18.8-7.8c-4.8-4.8-7.8-11.5-7.8-18.8V158.6c0-7.3,3-14,7.8-18.8
		C15.4,134.9,22,132,29.4,132"/>
	<path fill-rule="evenodd" clip-rule="evenodd" fill="#FFFFFF" d="M29.4,143.1c-4.1,0-8,1.7-10.9,4.6c-2.9,2.9-4.6,6.8-4.6,11v572.5
		c0,4.1,1.6,8,4.6,11c2.9,2.9,6.8,4.5,10.9,4.5h744c4.1,0,8-1.6,10.9-4.5c2.9-2.9,4.6-6.8,4.6-11V158.6c0-4.1-1.7-8-4.6-11
		c-2.9-2.9-6.8-4.6-10.9-4.6H29.4z"/>
	<path fill-rule="evenodd" clip-rule="evenodd" fill="#EBEFF0" d="M401.3,494.7c100.8,0,182.4,11.2,182.4,24.9
		s-81.7,24.9-182.4,24.9c-100.7,0-182.4-11.2-182.4-24.9S300.6,494.7,401.3,494.7"/>
	<path fill-rule="evenodd" clip-rule="evenodd" fill="#BCC2C6" d="M430.6,352.1c6.7-0.5,9.8,6.7,11.9,12.5
		c1.8,4.9,4.6,16.4-0.1,18.6C435.6,386.4,424.4,362,430.6,352.1 M517.1,516.5c4.7,0.1,7.5,0.7,9.2-3c1.9-4.2-5.3-22.8-7.4-27.1
		l-77.3,24.8c1,4.4,6.6,24.7,10.1,26.5c3.9,1.9,6.5,0.3,7.9-2.3c4.8,0.7,6.4,0.7,8.1-2.9c5.5,0.5,3.8,1.3,7.9-1.4
		c3.8-2.5,3.2,0.5,7-1.7c3.8-2.2,0.1-1.8,5.4-2c4.2-0.2,3.9-2.3,5.6-2.8c2.5-0.8,3.1,1.7,6.9-1.5c3.5-3,1.5,0,6-1.3
		c3.5-1.1,1.1-2.5,5.2-2.5C516,519.3,516.4,519.2,517.1,516.5z M424.1,457.1l75.7-24.6c-5.4-15.4-27.2-5.2-34.7-4.5l-3.1-15.4
		l-4.8-22.8c-1.6-11.1-5.2-32.5-13.9-40c-5.2-4.5-12.8-7.2-18.6-1.1c-9.6,10.2-2,26.9,3.3,37.1c7.1,13.7,18.6,33.4,23.7,46.2
		c-0.7,0.6,0.2,0.2-1.7,1.1C437.1,439.2,424.2,438.9,424.1,457.1z M438.9,503.9c5.7-1.2,14-4.4,19.8-6.3
		c10.1-3.3,54.1-17.1,57.5-19.2c-1.2-6.1-4.8-15.2-6.9-21.4c-1.2-3.7-2.4-7-3.5-10.6c-0.7-2.3-2.4-8.4-3.8-10.2l-77.1,25.4
		L438.9,503.9z M332.3,349.9c-13.4,1-27.8,3.5-38.9,8.5c-23.6,10.8-22.7,26.8,0.9,36.2c53.3,21.2,136.6,0.1,113.9-27.3
		C395.3,351.8,353.2,348.4,332.3,349.9z M329.5,360c17.4-2,41.4-0.7,55.1,7.5c9.7,5.8,8.5,13.1-0.8,18.2c-6.8,3.8-16,6-24.7,7
		c-40.5,4.8-79.2-11.3-54.5-25.8C311,363.2,321.1,360.9,329.5,360z M407.5,517l4.6-2.3L412,392.8c-1.1,1.1-0.3,0.6-1.4,0.6
		c-0.8,1.3,0,0.3-1.3,1.7l-4.6,3.4c-2.2,1.3-4.4,2.4-7.1,3.6c-29.4,13-79.7,13-108.6-0.8c-8.3-4-8.4-5.6-12.8-8.1l0.1,121.6
		c4.5,1.8,9.1,4.7,14.1,6.7C330.9,537.9,368.8,537.2,407.5,517z"/>
</g>
</svg>
