<?xml version="1.0" encoding="UTF-8" standalone="no"?>
<svg width="60px" height="60px" viewBox="0 0 60 60" version="1.1" xmlns="http://www.w3.org/2000/svg" xmlns:xlink="http://www.w3.org/1999/xlink" xmlns:sketch="http://www.bohemiancoding.com/sketch/ns">
    <!-- Generator: Sketch 3.3.3 (12081) - http://www.bohemiancoding.com/sketch -->
    <title>Bubblechat</title>
    <desc>Created with Sketch.</desc>
    <defs></defs>
    <g id="outlined" stroke="none" stroke-width="1" fill="none" fill-rule="evenodd" sketch:type="MSPage">
        <g id="Interface_sliced" sketch:type="MSLayerGroup" transform="translate(-120.000000, -2400.000000)"></g>
        <g id="Imported-Layers" sketch:type="MSLayerGroup" transform="translate(-118.000000, -2396.000000)" fill="#535353">
            <path d="M128.645,2452 C128.449,2452 128.252,2451.942 128.083,2451.827 C127.77,2451.615 127.604,2451.243 127.654,2450.867 L129.071,2440.257 C125.153,2435.727 123,2429.957 123,2423.954 C123,2410.194 134.215,2399 148,2399 C161.785,2399 173,2410.194 173,2423.954 C173,2437.715 161.785,2448.909 148,2448.909 C144.542,2448.909 141.202,2448.22 138.063,2446.86 L129.135,2451.872 C128.982,2451.958 128.814,2452 128.645,2452 L128.645,2452 Z M148,2401 C135.318,2401 125,2411.297 125,2423.954 C125,2429.618 127.084,2435.057 130.867,2439.269 C131.062,2439.487 131.153,2439.779 131.114,2440.07 L129.901,2449.147 L137.521,2444.87 C137.8,2444.713 138.136,2444.7 138.427,2444.833 C141.438,2446.211 144.659,2446.909 148,2446.909 C160.682,2446.909 171,2436.611 171,2423.954 C171,2411.297 160.682,2401 148,2401 L148,2401 Z" id="Fill-987" sketch:type="MSShapeGroup"></path>
            <path d="M141,2428 C139.346,2428 138,2426.654 138,2425 C138,2423.346 139.346,2422 141,2422 C142.654,2422 144,2423.346 144,2425 C144,2426.654 142.654,2428 141,2428 L141,2428 Z M141,2424 C140.449,2424 140,2424.448 140,2425 C140,2425.552 140.449,2426 141,2426 C141.551,2426 142,2425.552 142,2425 C142,2424.448 141.551,2424 141,2424 L141,2424 Z" id="Fill-988" sketch:type="MSShapeGroup"></path>
            <path d="M148,2428 C146.346,2428 145,2426.654 145,2425 C145,2423.346 146.346,2422 148,2422 C149.654,2422 151,2423.346 151,2425 C151,2426.654 149.654,2428 148,2428 L148,2428 Z M148,2424 C147.449,2424 147,2424.448 147,2425 C147,2425.552 147.449,2426 148,2426 C148.551,2426 149,2425.552 149,2425 C149,2424.448 148.551,2424 148,2424 L148,2424 Z" id="Fill-989" sketch:type="MSShapeGroup"></path>
            <path d="M155,2428 C153.346,2428 152,2426.654 152,2425 C152,2423.346 153.346,2422 155,2422 C156.654,2422 158,2423.346 158,2425 C158,2426.654 156.654,2428 155,2428 L155,2428 Z M155,2424 C154.449,2424 154,2424.448 154,2425 C154,2425.552 154.449,2426 155,2426 C155.551,2426 156,2425.552 156,2425 C156,2424.448 155.551,2424 155,2424 L155,2424 Z" id="Fill-990" sketch:type="MSShapeGroup"></path>
        </g>
    </g>
</svg>