<svg xmlns="http://www.w3.org/2000/svg" width="60" height="60" viewBox="0 0 60 60" xmlns:xlink="http://www.w3.org/1999/xlink">
  <defs>
    <polygon id="a" points="0 2469 906.345 2469 906.345 0 0 0"/>
    <polygon id="b" points="0 2469 906.345 2469 906.345 0 0 0"/>
    <polygon id="c" points="0 2469 906.345 2469 906.345 0 0 0"/>
    <polygon id="d" points="0 2469 906.345 2469 906.345 0 0 0"/>
    <polygon id="e" points="0 2469 906.345 2469 906.345 0 0 0"/>
    <polygon id="f" points="0 2469 906.345 2469 906.345 0 0 0"/>
    <polygon id="g" points="0 2469 906.345 2469 906.345 0 0 0"/>
    <polygon id="h" points="0 2469 906.345 2469 906.345 0 0 0"/>
    <polygon id="i" points="0 2469 906.345 2469 906.345 0 0 0"/>
    <polygon id="j" points="0 2469 906.345 2469 906.345 0 0 0"/>
    <polygon id="k" points="0 2469 906.345 2469 906.345 0 0 0"/>
    <polygon id="l" points="0 2469 906.345 2469 906.345 0 0 0"/>
    <polygon id="m" points="0 2469 906.345 2469 906.345 0 0 0"/>
    <polygon id="n" points="0 2469 906.345 2469 906.345 0 0 0"/>
    <polygon id="o" points="0 2469 906.345 2469 906.345 0 0 0"/>
    <polygon id="p" points="0 2469 906.345 2469 906.345 0 0 0"/>
    <polygon id="q" points="0 40 54 40 54 0 0 0"/>
    <path id="s" d="M4.001,0 C1.789,0 0,1.791 0,4 C0,6.204 1.792,8 4.001,8 L37,8 L37,12 L40.637,8 L41.999,8 C44.211,8 46,6.209 46,4 C46,1.795 44.208,0 41.999,0 L4.001,0 L4.001,0 Z"/>
    <path id="u" d="M4.001,0 C1.792,0 0,1.795 0,4 C0,6.209 1.789,8 4.001,8 L5.364,8 L9,12 L9,8 L41.999,8 C44.208,8 46,6.204 46,4 C46,1.791 44.211,0 41.999,0 L4.001,0 L4.001,0 Z"/>
    <polygon id="w" points="0 2469 906.345 2469 906.345 0 0 0"/>
    <polygon id="x" points="0 2469 906.345 2469 906.345 0 0 0"/>
    <polygon id="y" points="0 2469 906.345 2469 906.345 0 0 0"/>
  </defs>
  <g fill="none" fill-rule="evenodd">
    <g transform="translate(-362 -2160)">
      <g/>
      <g/>
      <g/>
      <g transform="translate(365 2170)">
        <mask id="r" fill="white">
          <use xlink:href="#q"/>
        </mask>
        <polygon fill="#D0E8FF" points="-5 45 59 45 59 -5 -5 -5" mask="url(#r)"/>
      </g>
      <path fill="#1A6ACC" d="M366,2209 L418,2209 L418,2171 L366,2171 L366,2209 Z M419,2211 L365,2211 C364.448,2211 364,2210.553 364,2210 L364,2170 C364,2169.447 364.448,2169 365,2169 L419,2169 C419.552,2169 420,2169.447 420,2170 L420,2210 C420,2210.553 419.552,2211 419,2211 L419,2211 Z"/>
      <g transform="translate(369 2175)">
        <mask id="t" fill="white">
          <use xlink:href="#s"/>
        </mask>
        <polygon fill="#D0E8FF" points="-5 17 51 17 51 -5 -5 -5" mask="url(#t)"/>
      </g>
      <path fill="#1A6ACC" d="M373.002,2176 C371.347,2176 370,2177.346 370,2179 C370,2180.654 371.347,2182 373.002,2182 L406,2182 C406.552,2182 407,2182.447 407,2183 L407,2184.413 L408.897,2182.327 C409.086,2182.119 409.355,2182 409.636,2182 L410.998,2182 C412.653,2182 414,2180.654 414,2179 C414,2177.346 412.653,2176 410.998,2176 L373.002,2176 Z M406,2188 C405.879,2188 405.757,2187.979 405.64,2187.933 C405.254,2187.784 405,2187.413 405,2187 L405,2184 L373.002,2184 C370.244,2184 368,2181.757 368,2179 C368,2176.243 370.244,2174 373.002,2174 L410.998,2174 C413.756,2174 416,2176.243 416,2179 C416,2181.757 413.756,2184 410.998,2184 L410.079,2184 L406.74,2187.673 C406.547,2187.886 406.276,2188 406,2188 L406,2188 Z"/>
      <g transform="translate(369 2193)">
        <mask id="v" fill="white">
          <use xlink:href="#u"/>
        </mask>
        <polygon fill="#5CB0FF" points="-5 17 51 17 51 -5 -5 -5" mask="url(#v)"/>
      </g>
      <g transform="translate(368 2161)">
        <path fill="#1A6ACC" d="M5.002 33C3.347 33 2 34.346 2 36 2 37.654 3.347 39 5.002 39L6.364 39C6.646 39 6.914 39.119 7.104 39.327L9 41.413 9 40C9 39.447 9.448 39 10 39L42.998 39C44.653 39 46 37.654 46 36 46 34.346 44.653 33 42.998 33L5.002 33zM10 45C9.724 45 9.453 44.886 9.26 44.673L5.921 41 5.002 41C2.244 41 0 38.757 0 36 0 33.243 2.244 31 5.002 31L42.998 31C45.756 31 48 33.243 48 36 48 38.757 45.756 41 42.998 41L11 41 11 44C11 44.413 10.746 44.784 10.36 44.933 10.243 44.979 10.121 45 10 45L10 45zM6 20C4.897 20 4 19.103 4 18 4 16.897 4.897 16 6 16 7.103 16 8 16.897 8 18 8 19.103 7.103 20 6 20M12 20C10.897 20 10 19.103 10 18 10 16.897 10.897 16 12 16 13.103 16 14 16.897 14 18 14 19.103 13.103 20 12 20M18 20C16.897 20 16 19.103 16 18 16 16.897 16.897 16 18 16 19.103 16 20 16.897 20 18 20 19.103 19.103 20 18 20"/>
        <path fill="#1A6ACC" d="M30 38C28.897 38 28 37.103 28 36 28 34.897 28.897 34 30 34 31.103 34 32 34.897 32 36 32 37.103 31.103 38 30 38M36 38C34.897 38 34 37.103 34 36 34 34.897 34.897 34 36 34 37.103 34 38 34.897 38 36 38 37.103 37.103 38 36 38M42 38C40.897 38 40 37.103 40 36 40 34.897 40.897 34 42 34 43.103 34 44 34.897 44 36 44 37.103 43.103 38 42 38"/>
        <path fill="#FF5D5D" d="M41,6 C40.744,6 40.488,5.902 40.293,5.707 C39.902,5.316 39.902,4.684 40.293,4.293 L43.829,0.758 C44.219,0.367 44.852,0.367 45.243,0.758 C45.633,1.148 45.633,1.781 45.243,2.172 L41.707,5.707 C41.512,5.902 41.256,6 41,6"/>
        <path fill="#FF5D5D" d="M44.5356,6 C44.2796,6 44.0236,5.902 43.8286,5.707 L40.2926,2.172 C39.9026,1.781 39.9026,1.148 40.2926,0.758 C40.6836,0.367 41.3166,0.367 41.7066,0.758 L45.2426,4.293 C45.6336,4.684 45.6336,5.316 45.2426,5.707 C45.0476,5.902 44.7916,6 44.5356,6"/>
        <path fill="#00D40B" d="M5.5,53 C4.673,53 4,53.673 4,54.5 C4,55.327 4.673,56 5.5,56 C6.327,56 7,55.327 7,54.5 C7,53.673 6.327,53 5.5,53 M5.5,58 C3.57,58 2,56.43 2,54.5 C2,52.57 3.57,51 5.5,51 C7.43,51 9,52.57 9,54.5 C9,56.43 7.43,58 5.5,58"/>
        <path fill="#FFC504" d="M23.4141,26.8281 L24.8291,28.2431 L26.2431,26.8281 L24.8291,25.4141 L23.4141,26.8281 Z M24.8291,30.6571 C24.5631,30.6571 24.3091,30.5521 24.1221,30.3641 L21.2931,27.5351 C21.1051,27.3481 21.0001,27.0931 21.0001,26.8281 C21.0001,26.5621 21.1051,26.3081 21.2931,26.1211 L24.1221,23.2931 C24.5121,22.9021 25.1451,22.9021 25.5361,23.2931 L28.3641,26.1211 C28.7541,26.5121 28.7541,27.1441 28.3641,27.5351 L25.5361,30.3641 C25.3481,30.5521 25.0941,30.6571 24.8291,30.6571 L24.8291,30.6571 Z"/>
      </g>
      <g/>
      <g/>
      <g/>
    </g>
  </g>
</svg>
