<svg xmlns="http://www.w3.org/2000/svg" width="60" height="60" viewBox="0 0 60 60" xmlns:xlink="http://www.w3.org/1999/xlink">
  <defs>
    <polygon id="a" points="0 2242 927 2242 927 .022 0 .022"/>
    <polygon id="b" points="0 2242 927 2242 927 .022 0 .022"/>
    <polygon id="c" points="0 2242 927 2242 927 .022 0 .022"/>
    <polygon id="d" points="0 2242 927 2242 927 .022 0 .022"/>
    <polygon id="e" points="0 2242 927 2242 927 .022 0 .022"/>
    <polygon id="f" points="0 2242 927 2242 927 .022 0 .022"/>
    <polygon id="g" points="0 2242 927 2242 927 .022 0 .022"/>
    <polygon id="h" points="0 2242 927 2242 927 .022 0 .022"/>
    <polygon id="i" points="0 2242 927 2242 927 .022 0 .022"/>
    <polygon id="j" points="0 2242 927 2242 927 .022 0 .022"/>
    <polygon id="k" points="0 2242 927 2242 927 .022 0 .022"/>
    <polygon id="l" points="0 2242 927 2242 927 .022 0 .022"/>
    <polygon id="m" points="0 2242 927 2242 927 .022 0 .022"/>
    <polygon id="n" points="0 2242 927 2242 927 .022 0 .022"/>
    <polygon id="o" points="0 2242 927 2242 927 .022 0 .022"/>
    <polygon id="p" points="0 2242 927 2242 927 .022 0 .022"/>
    <polygon id="q" points="0 2242 927 2242 927 .022 0 .022"/>
    <polygon id="r" points="0 2242 927 2242 927 .022 0 .022"/>
    <polygon id="s" points="0 2242 927 2242 927 .022 0 .022"/>
    <polygon id="t" points="0 2242 927 2242 927 .022 0 .022"/>
    <polygon id="u" points="0 2242 927 2242 927 .022 0 .022"/>
    <polygon id="v" points="0 2242 927 2242 927 .022 0 .022"/>
    <polygon id="w" points="0 2242 927 2242 927 .022 0 .022"/>
    <polygon id="x" points="0 2242 927 2242 927 .022 0 .022"/>
    <polygon id="y" points="0 2242 927 2242 927 .022 0 .022"/>
    <polygon id="z" points="0 2242 927 2242 927 .022 0 .022"/>
    <polygon id="A" points="0 2242 927 2242 927 .022 0 .022"/>
    <polygon id="B" points="0 2242 927 2242 927 .022 0 .022"/>
    <polygon id="C" points="44 .941 44 7.941 6 7.941 6 .941 0 .941 0 8.441 0 13.942 50 13.942 50 8.441 50 .941"/>
    <polygon id="E" points="0 2242 927 2242 927 .022 0 .022"/>
    <polygon id="G" points="0 2242 927 2242 927 .022 0 .022"/>
    <polygon id="H" points="0 2242 927 2242 927 .022 0 .022"/>
    <polygon id="I" points="0 2242 927 2242 927 .022 0 .022"/>
    <polygon id="J" points="0 2242 927 2242 927 .022 0 .022"/>
    <polygon id="K" points="0 2242 927 2242 927 .022 0 .022"/>
    <polygon id="L" points="0 2242 927 2242 927 .022 0 .022"/>
    <polygon id="M" points="0 2242 927 2242 927 .022 0 .022"/>
    <polygon id="N" points="0 2242 927 2242 927 .022 0 .022"/>
    <polygon id="O" points="0 2242 927 2242 927 .022 0 .022"/>
    <polygon id="P" points="0 2242 927 2242 927 .022 0 .022"/>
    <polygon id="Q" points="0 2242 927 2242 927 .022 0 .022"/>
    <polygon id="R" points="0 2242 927 2242 927 .022 0 .022"/>
    <polygon id="S" points="0 2242 927 2242 927 .022 0 .022"/>
    <polygon id="T" points="0 2242 927 2242 927 .022 0 .022"/>
    <polygon id="U" points="0 2242 927 2242 927 .022 0 .022"/>
    <polygon id="V" points="0 2242 927 2242 927 .022 0 .022"/>
    <polygon id="W" points="0 2242 927 2242 927 .022 0 .022"/>
    <polygon id="X" points="0 2242 927 2242 927 .022 0 .022"/>
    <polygon id="Y" points="0 2242 927 2242 927 .022 0 .022"/>
    <polygon id="Z" points="0 2242 927 2242 927 .022 0 .022"/>
    <polygon id="aa" points="0 2242 927 2242 927 .022 0 .022"/>
    <polygon id="ab" points="0 2242 927 2242 927 .022 0 .022"/>
    <polygon id="ac" points="0 2242 927 2242 927 .022 0 .022"/>
  </defs>
  <g fill="none" fill-rule="evenodd">
    <g transform="translate(-852 -1210)">
      <g transform="translate(0 .98)"/>
      <g transform="translate(0 .98)"/>
      <g transform="translate(0 .98)"/>
      <g transform="translate(0 .98)"/>
      <g transform="translate(0 .98)"/>
      <g transform="translate(0 .98)"/>
      <g transform="translate(0 .98)"/>
      <g transform="translate(0 .98)"/>
      <g transform="translate(0 .98)"/>
      <g transform="translate(0 .98)"/>
      <g transform="translate(0 .98)"/>
      <g transform="translate(0 .98)"/>
      <g transform="translate(0 .98)"/>
      <g transform="translate(0 .98)"/>
      <g transform="translate(0 .98)"/>
      <g transform="translate(0 .98)"/>
      <g transform="translate(0 .98)"/>
      <g transform="translate(0 .98)"/>
      <g transform="translate(0 .98)"/>
      <g transform="translate(0 .98)"/>
      <g transform="translate(0 .98)"/>
      <g transform="translate(0 .98)"/>
      <g transform="translate(0 .98)"/>
      <g transform="translate(0 .98)"/>
      <g transform="translate(0 .98)"/>
      <g transform="translate(0 .98)"/>
      <g transform="translate(0 .98)"/>
      <g transform="translate(0 .98)"/>
      <g transform="translate(857 1247.98)">
        <mask id="D" fill="white">
          <use xlink:href="#C"/>
        </mask>
        <polygon fill="#5CB0FF" points="-5 18.941 55 18.941 55 -4.059 -5 -4.059" mask="url(#D)"/>
      </g>
      <g transform="translate(0 .98)">
        <path fill="#1C71DA" d="M858,1259.9414 L906,1259.9414 L906,1248.9414 L902,1248.9414 L902,1255.9414 L862,1255.9414 L862,1248.9414 L858,1248.9414 L858,1259.9414 L858,1259.9414 Z M908,1261.9414 L856,1261.9414 L856,1246.9414 L864,1246.9414 L864,1253.9414 L900,1253.9414 L900,1246.9414 L908,1246.9414 L908,1261.9414 L908,1261.9414 Z"/>
        <mask id="F" fill="white">
          <use xlink:href="#E"/>
        </mask>
        <polygon fill="#1C71DA" points="881 1245.889 883 1245.889 883 1218.942 881 1218.942" mask="url(#F)"/>
        <path fill="#1C71DA" d="M882.1025,1248.373 C881.8465,1248.373 881.5905,1248.275 881.3955,1248.08 L874.5695,1241.254 C874.1785,1240.863 874.1785,1240.23 874.5695,1239.84 C874.9595,1239.449 875.5925,1239.449 875.9835,1239.84 L882.1025,1245.959 L888.0165,1240.045 C888.4075,1239.654 889.0395,1239.654 889.4305,1240.045 C889.8215,1240.436 889.8215,1241.068 889.4305,1241.459 L882.8095,1248.08 C882.6145,1248.275 882.3585,1248.373 882.1025,1248.373" mask="url(#F)"/>
        <path fill="#FF5D5D" d="M890.4648,1236.5352 C890.2088,1236.5352 889.9528,1236.4372 889.7578,1236.2422 C889.3668,1235.8512 889.3668,1235.2192 889.7578,1234.8282 L893.2928,1231.2932 C893.6838,1230.9022 894.3168,1230.9022 894.7068,1231.2932 C895.0978,1231.6832 895.0978,1232.3162 894.7068,1232.7072 L891.1718,1236.2422 C890.9768,1236.4372 890.7208,1236.5352 890.4648,1236.5352" mask="url(#F)"/>
        <path fill="#FF5D5D" d="M894,1236.5361 C893.744,1236.5361 893.488,1236.4381 893.293,1236.2431 L889.758,1232.7071 C889.367,1232.3161 889.367,1231.6831 889.758,1231.2931 C890.148,1230.9021 890.781,1230.9021 891.172,1231.2931 L894.707,1234.8291 C895.098,1235.2201 895.098,1235.8521 894.707,1236.2431 C894.512,1236.4381 894.256,1236.5361 894,1236.5361" mask="url(#F)"/>
        <path fill="#00D40B" d="M901.5,1215 C900.673,1215 900,1215.673 900,1216.5 C900,1217.327 900.673,1218 901.5,1218 C902.327,1218 903,1217.327 903,1216.5 C903,1215.673 902.327,1215 901.5,1215 M901.5,1220 C899.57,1220 898,1218.43 898,1216.5 C898,1214.57 899.57,1213 901.5,1213 C903.43,1213 905,1214.57 905,1216.5 C905,1218.43 903.43,1220 901.5,1220" mask="url(#F)"/>
        <path fill="#FFC504" d="M864.1367,1218.7695 L865.5507,1220.1835 L866.9647,1218.7695 L865.5507,1217.3545 L864.1367,1218.7695 Z M865.5507,1222.5975 C865.2947,1222.5975 865.0387,1222.4995 864.8437,1222.3045 L862.0157,1219.4765 C861.6247,1219.0855 861.6247,1218.4535 862.0157,1218.0625 L864.8437,1215.2335 C865.2187,1214.8585 865.8827,1214.8585 866.2577,1215.2335 L869.0857,1218.0625 C869.4767,1218.4535 869.4767,1219.0855 869.0857,1219.4765 L866.2577,1222.3045 C866.0627,1222.4995 865.8067,1222.5975 865.5507,1222.5975 L865.5507,1222.5975 Z" mask="url(#F)"/>
      </g>
      <g transform="translate(0 .98)"/>
      <g transform="translate(0 .98)"/>
      <g transform="translate(0 .98)"/>
      <g transform="translate(0 .98)"/>
      <g transform="translate(0 .98)"/>
      <g transform="translate(0 .98)"/>
      <g transform="translate(0 .98)"/>
      <g transform="translate(0 .98)"/>
      <g transform="translate(0 .98)"/>
      <g transform="translate(0 .98)"/>
      <g transform="translate(0 .98)"/>
      <g transform="translate(0 .98)"/>
      <g transform="translate(0 .98)"/>
      <g transform="translate(0 .98)"/>
      <g transform="translate(0 .98)"/>
      <g transform="translate(0 .98)"/>
      <g transform="translate(0 .98)"/>
      <g transform="translate(0 .98)"/>
      <g transform="translate(0 .98)"/>
      <g transform="translate(0 .98)"/>
      <g transform="translate(0 .98)"/>
      <g transform="translate(0 .98)"/>
      <g transform="translate(0 .98)"/>
    </g>
  </g>
</svg>
