<svg xmlns="http://www.w3.org/2000/svg" width="60" height="60" viewBox="0 0 60 60" xmlns:xlink="http://www.w3.org/1999/xlink">
  <defs>
    <polygon id="a" points="0 2469 906.345 2469 906.345 0 0 0"/>
    <polygon id="b" points="0 2469 906.345 2469 906.345 0 0 0"/>
    <polygon id="c" points="0 2469 906.345 2469 906.345 0 0 0"/>
    <polygon id="d" points="0 2469 906.345 2469 906.345 0 0 0"/>
    <polygon id="e" points="0 2469 906.345 2469 906.345 0 0 0"/>
    <polygon id="f" points="0 2469 906.345 2469 906.345 0 0 0"/>
    <polygon id="g" points="0 2469 906.345 2469 906.345 0 0 0"/>
    <polygon id="h" points="0 2469 906.345 2469 906.345 0 0 0"/>
    <polygon id="i" points="0 2469 906.345 2469 906.345 0 0 0"/>
    <polygon id="j" points="0 2469 906.345 2469 906.345 0 0 0"/>
    <polygon id="k" points="0 2469 906.345 2469 906.345 0 0 0"/>
    <polygon id="l" points="0 2469 906.345 2469 906.345 0 0 0"/>
    <polygon id="m" points="0 2469 906.345 2469 906.345 0 0 0"/>
    <polygon id="n" points="0 2469 906.345 2469 906.345 0 0 0"/>
    <polygon id="o" points="0 2469 906.345 2469 906.345 0 0 0"/>
    <polygon id="p" points="0 2469 906.345 2469 906.345 0 0 0"/>
    <polygon id="q" points="0 2469 906.345 2469 906.345 0 0 0"/>
    <path id="r" d="M0,23.955 C0,30.096 2.315,35.698 6.123,39.938 L4.646,51 L14.011,45.742 C17.052,47.133 20.435,47.909 24,47.909 C37.254,47.909 48,37.185 48,23.955 C48,10.725 37.254,0 24,0 C10.745,0 0,10.725 0,23.955 L0,23.955 Z"/>
    <path id="t" d="M0,2 C0,3.105 0.896,4 2,4 C3.104,4 4,3.105 4,2 C4,0.895 3.104,0 2,0 C0.896,0 0,0.895 0,2 L0,2 Z"/>
    <path id="v" d="M0,2 C0,3.105 0.896,4 2,4 C3.104,4 4,3.105 4,2 C4,0.895 3.104,0 2,0 C0.896,0 0,0.895 0,2 L0,2 Z"/>
    <path id="x" d="M0,2 C0,3.105 0.895,4 2,4 C3.105,4 4,3.105 4,2 C4,0.895 3.105,0 2,0 C0.895,0 0,0.895 0,2 L0,2 Z"/>
    <polygon id="z" points="0 2469 906.345 2469 906.345 0 0 0"/>
    <polygon id="A" points="0 2469 906.345 2469 906.345 0 0 0"/>
  </defs>
  <g fill="none" fill-rule="evenodd">
    <g transform="translate(-122 -2400)">
      <g/>
      <g/>
      <g/>
      <g transform="translate(128 2404)">
        <mask id="s" fill="white">
          <use xlink:href="#r"/>
        </mask>
        <polygon fill="#D0E8FF" points="-5 56 53 56 53 -5 -5 -5" mask="url(#s)"/>
      </g>
      <path fill="#1A6ACC" d="M152,2405 C139.318,2405 129,2415.297 129,2427.954 C129,2433.618 131.083,2439.057 134.867,2443.27 C135.063,2443.487 135.153,2443.779 135.114,2444.07 L133.901,2453.147 L141.521,2448.87 C141.8,2448.713 142.136,2448.7 142.427,2448.833 C145.438,2450.211 148.659,2450.909 152,2450.909 C164.682,2450.909 175,2440.611 175,2427.954 C175,2415.297 164.682,2405 152,2405 M132.645,2456 C132.449,2456 132.252,2455.942 132.083,2455.827 C131.77,2455.615 131.604,2455.243 131.654,2454.867 L133.071,2444.257 C129.153,2439.728 127,2433.957 127,2427.954 C127,2414.194 138.215,2403 152,2403 C165.785,2403 177,2414.194 177,2427.954 C177,2441.715 165.785,2452.909 152,2452.909 C148.542,2452.909 145.202,2452.22 142.062,2450.86 L133.135,2455.872 C132.982,2455.958 132.813,2456 132.645,2456"/>
      <g transform="translate(143 2427)">
        <mask id="u" fill="white">
          <use xlink:href="#t"/>
        </mask>
        <polygon fill="#5CB0FF" points="-5 9 9 9 9 -5 -5 -5" mask="url(#u)"/>
      </g>
      <path fill="#1A6ACC" d="M145,2428 C144.449,2428 144,2428.448 144,2429 C144,2429.552 144.449,2430 145,2430 C145.551,2430 146,2429.552 146,2429 C146,2428.448 145.551,2428 145,2428 M145,2432 C143.346,2432 142,2430.654 142,2429 C142,2427.346 143.346,2426 145,2426 C146.654,2426 148,2427.346 148,2429 C148,2430.654 146.654,2432 145,2432"/>
      <g transform="translate(150 2427)">
        <mask id="w" fill="white">
          <use xlink:href="#v"/>
        </mask>
        <polygon fill="#5CB0FF" points="-5 9 9 9 9 -5 -5 -5" mask="url(#w)"/>
      </g>
      <path fill="#1A6ACC" d="M152,2428 C151.449,2428 151,2428.448 151,2429 C151,2429.552 151.449,2430 152,2430 C152.551,2430 153,2429.552 153,2429 C153,2428.448 152.551,2428 152,2428 M152,2432 C150.346,2432 149,2430.654 149,2429 C149,2427.346 150.346,2426 152,2426 C153.654,2426 155,2427.346 155,2429 C155,2430.654 153.654,2432 152,2432"/>
      <g transform="translate(157 2427)">
        <mask id="y" fill="white">
          <use xlink:href="#x"/>
        </mask>
        <polygon fill="#5CB0FF" points="-5 9 9 9 9 -5 -5 -5" mask="url(#y)"/>
      </g>
      <g transform="translate(145 2409)">
        <path fill="#1A6ACC" d="M14,19 C13.449,19 13,19.448 13,20 C13,20.552 13.449,21 14,21 C14.551,21 15,20.552 15,20 C15,19.448 14.551,19 14,19 M14,23 C12.346,23 11,21.654 11,20 C11,18.346 12.346,17 14,17 C15.654,17 17,18.346 17,20 C17,21.654 15.654,23 14,23"/>
        <path fill="#FF5D5D" d="M12,32 C11.744,32 11.488,31.902 11.293,31.707 C10.902,31.316 10.902,30.684 11.293,30.293 L14.829,26.758 C15.219,26.367 15.852,26.367 16.243,26.758 C16.633,27.148 16.633,27.781 16.243,28.172 L12.707,31.707 C12.512,31.902 12.256,32 12,32"/>
        <path fill="#FF5D5D" d="M15.5356,32 C15.2796,32 15.0236,31.902 14.8286,31.707 L11.2926,28.172 C10.9026,27.781 10.9026,27.148 11.2926,26.758 C11.6836,26.367 12.3166,26.367 12.7066,26.758 L16.2426,30.293 C16.6336,30.684 16.6336,31.316 16.2426,31.707 C16.0476,31.902 15.7916,32 15.5356,32"/>
        <path fill="#00D40B" d="M3.5,4 C2.673,4 2,4.673 2,5.5 C2,6.327 2.673,7 3.5,7 C4.327,7 5,6.327 5,5.5 C5,4.673 4.327,4 3.5,4 M3.5,9 C1.57,9 0,7.43 0,5.5 C0,3.57 1.57,2 3.5,2 C5.43,2 7,3.57 7,5.5 C7,7.43 5.43,9 3.5,9"/>
        <path fill="#FFC504" d="M27.4141,43.8281 L28.8291,45.2431 L30.2431,43.8281 L28.8291,42.4141 L27.4141,43.8281 Z M28.8291,47.6571 C28.5631,47.6571 28.3091,47.5521 28.1221,47.3641 L25.2931,44.5351 C25.1051,44.3481 25.0001,44.0931 25.0001,43.8281 C25.0001,43.5621 25.1051,43.3081 25.2931,43.1211 L28.1221,40.2931 C28.5121,39.9021 29.1451,39.9021 29.5361,40.2931 L32.3641,43.1211 C32.7541,43.5121 32.7541,44.1441 32.3641,44.5351 L29.5361,47.3641 C29.3481,47.5521 29.0941,47.6571 28.8291,47.6571 L28.8291,47.6571 Z"/>
      </g>
      <g/>
      <g/>
    </g>
  </g>
</svg>
