<svg xmlns="http://www.w3.org/2000/svg" width="60" height="60" viewBox="0 0 60 60" xmlns:xlink="http://www.w3.org/1999/xlink">
  <defs>
    <polygon id="a" points="0 2469 906.345 2469 906.345 0 0 0"/>
    <polygon id="b" points="0 2469 906.345 2469 906.345 0 0 0"/>
    <polygon id="c" points="0 2469 906.345 2469 906.345 0 0 0"/>
    <polygon id="d" points="0 2469 906.345 2469 906.345 0 0 0"/>
    <path id="e" d="M0,26 C0,40.359 11.64,52 26,52 C40.359,52 52,40.359 52,26 C52,11.641 40.359,0 26,0 C11.64,0 0,11.641 0,26 L0,26 Z"/>
    <polygon id="g" points="0 2469 906.345 2469 906.345 0 0 0"/>
    <polygon id="h" points="0 2469 906.345 2469 906.345 0 0 0"/>
    <polygon id="i" points="0 2469 906.345 2469 906.345 0 0 0"/>
    <polygon id="j" points="0 2469 906.345 2469 906.345 0 0 0"/>
    <polygon id="k" points="0 2469 906.345 2469 906.345 0 0 0"/>
    <polygon id="l" points="0 2469 906.345 2469 906.345 0 0 0"/>
    <polygon id="m" points="0 2469 906.345 2469 906.345 0 0 0"/>
    <polygon id="n" points="0 2469 906.345 2469 906.345 0 0 0"/>
    <polygon id="o" points="0 2469 906.345 2469 906.345 0 0 0"/>
    <polygon id="p" points="0 2469 906.345 2469 906.345 0 0 0"/>
    <polygon id="q" points="0 2469 906.345 2469 906.345 0 0 0"/>
    <polygon id="r" points="0 2469 906.345 2469 906.345 0 0 0"/>
    <polygon id="s" points="0 2469 906.345 2469 906.345 0 0 0"/>
    <polygon id="t" points="0 2469 906.345 2469 906.345 0 0 0"/>
    <polygon id="u" points="0 2469 906.345 2469 906.345 0 0 0"/>
  </defs>
  <g fill="none" fill-rule="evenodd">
    <g transform="translate(-242 -1080)">
      <g transform="translate(246 1084)">
        <mask id="f" fill="white">
          <use xlink:href="#e"/>
        </mask>
        <polygon fill="#5CB0FF" points="-5 57 57 57 57 -5 -5 -5" mask="url(#f)"/>
      </g>
      <g transform="translate(243 1083)">
        <path fill="#1A6ACC" d="M29,2 C15.215,2 4,13.215 4,27 C4,40.785 15.215,52 29,52 C42.785,52 54,40.785 54,27 C54,13.215 42.785,2 29,2 M29,54 C14.112,54 2,41.888 2,27 C2,12.112 14.112,0 29,0 C43.888,0 56,12.112 56,27 C56,41.888 43.888,54 29,54"/>
        <path fill="#FFFFFF" d="M38.1924,37.1929 C37.9364,37.1929 37.6804,37.0949 37.4854,36.8999 L19.1004,18.5149 C18.7104,18.1249 18.7104,17.4919 19.1004,17.1009 C19.4914,16.7109 20.1244,16.7109 20.5144,17.1009 L38.8994,35.4859 C39.2904,35.8769 39.2904,36.5089 38.8994,36.8999 C38.7044,37.0949 38.4484,37.1929 38.1924,37.1929"/>
        <path fill="#FFFFFF" d="M19.4541,37.3389 C19.1981,37.3389 18.9421,37.2409 18.7471,37.0459 C18.3561,36.6549 18.3561,36.0229 18.7471,35.6319 L37.1321,17.2469 C37.5221,16.8569 38.1551,16.8569 38.5461,17.2469 C38.9361,17.6379 38.9361,18.2709 38.5461,18.6609 L20.1611,37.0459 C19.9661,37.2409 19.7101,37.3389 19.4541,37.3389"/>
        <path fill="#FF5D5D" d="M50,8 C49.744,8 49.488,7.902 49.293,7.707 C48.902,7.316 48.902,6.684 49.293,6.293 L52.829,2.757 C53.219,2.367 53.852,2.367 54.243,2.757 C54.633,3.148 54.633,3.781 54.243,4.171 L50.707,7.707 C50.512,7.902 50.256,8 50,8"/>
        <path fill="#FF5D5D" d="M53.5356,7.9995 C53.2796,7.9995 53.0236,7.9015 52.8286,7.7065 L49.2926,4.1705 C48.9026,3.7805 48.9026,3.1475 49.2926,2.7565 C49.6836,2.3665 50.3166,2.3665 50.7066,2.7565 L54.2426,6.2925 C54.6336,6.6835 54.6336,7.3155 54.2426,7.7065 C54.0476,7.9015 53.7916,7.9995 53.5356,7.9995"/>
        <path fill="#00D40B" d="M3.5,3 C2.673,3 2,3.673 2,4.5 C2,5.327 2.673,6 3.5,6 C4.327,6 5,5.327 5,4.5 C5,3.673 4.327,3 3.5,3 M3.5,8 C1.57,8 0,6.43 0,4.5 C0,2.57 1.57,1 3.5,1 C5.43,1 7,2.57 7,4.5 C7,6.43 5.43,8 3.5,8"/>
        <path fill="#FFC504" d="M32.4141,43.8281 L33.8291,45.2421 L35.2431,43.8281 L33.8291,42.4131 L32.4141,43.8281 Z M33.8291,47.6561 C33.5731,47.6561 33.3171,47.5581 33.1221,47.3631 L30.2931,44.5351 C30.1051,44.3481 30.0001,44.0931 30.0001,43.8281 C30.0001,43.5631 30.1051,43.3081 30.2931,43.1211 L33.1221,40.2921 C33.3091,40.1051 33.5631,39.9991 33.8291,39.9991 C34.0941,39.9991 34.3481,40.1051 34.5361,40.2921 L37.3641,43.1211 C37.7541,43.5121 37.7541,44.1441 37.3641,44.5351 L34.5361,47.3631 C34.3401,47.5581 34.0841,47.6561 33.8291,47.6561 L33.8291,47.6561 Z"/>
      </g>
      <g/>
      <g/>
      <g/>
      <g/>
      <g/>
      <g/>
      <g/>
      <g/>
      <g/>
    </g>
  </g>
</svg>
