<svg xmlns="http://www.w3.org/2000/svg" width="60" height="60" viewBox="0 0 60 60" xmlns:xlink="http://www.w3.org/1999/xlink">
  <defs>
    <polygon id="a" points="0 2242 927 2242 927 .022 0 .022"/>
    <polygon id="b" points="0 2242 927 2242 927 .022 0 .022"/>
    <polygon id="c" points="0 2242 927 2242 927 .022 0 .022"/>
    <polygon id="d" points="0 2242 927 2242 927 .022 0 .022"/>
    <polygon id="e" points="0 2242 927 2242 927 .022 0 .022"/>
    <polygon id="f" points="0 2242 927 2242 927 .022 0 .022"/>
    <polygon id="g" points="0 2242 927 2242 927 .022 0 .022"/>
    <polygon id="h" points="0 2242 927 2242 927 .022 0 .022"/>
    <polygon id="i" points="0 2242 927 2242 927 .022 0 .022"/>
    <polygon id="j" points="0 2242 927 2242 927 .022 0 .022"/>
    <polygon id="k" points="0 2242 927 2242 927 .022 0 .022"/>
    <polygon id="l" points="0 2242 927 2242 927 .022 0 .022"/>
    <polygon id="m" points="0 2242 927 2242 927 .022 0 .022"/>
    <polygon id="n" points="0 2242 927 2242 927 .022 0 .022"/>
    <polygon id="o" points="0 2242 927 2242 927 .022 0 .022"/>
    <polygon id="p" points="0 2242 927 2242 927 .022 0 .022"/>
    <polygon id="q" points="0 2242 927 2242 927 .022 0 .022"/>
    <polygon id="r" points="0 2242 927 2242 927 .022 0 .022"/>
    <polygon id="s" points="0 2242 927 2242 927 .022 0 .022"/>
    <polygon id="t" points="0 2242 927 2242 927 .022 0 .022"/>
    <polygon id="u" points="0 2242 927 2242 927 .022 0 .022"/>
    <polygon id="v" points="0 2242 927 2242 927 .022 0 .022"/>
    <polygon id="w" points="0 2242 927 2242 927 .022 0 .022"/>
    <polygon id="x" points="0 2242 927 2242 927 .022 0 .022"/>
    <polygon id="y" points="0 2242 927 2242 927 .022 0 .022"/>
    <polygon id="z" points="0 2242 927 2242 927 .022 0 .022"/>
    <polygon id="A" points="0 2242 927 2242 927 .022 0 .022"/>
    <polygon id="B" points="0 2242 927 2242 927 .022 0 .022"/>
    <polygon id="C" points="0 2242 927 2242 927 .022 0 .022"/>
    <polygon id="D" points="0 2242 927 2242 927 .022 0 .022"/>
    <polygon id="E" points="0 2242 927 2242 927 .022 0 .022"/>
    <polygon id="F" points="0 2242 927 2242 927 .022 0 .022"/>
    <polygon id="G" points="0 2242 927 2242 927 .022 0 .022"/>
    <polygon id="H" points="0 2242 927 2242 927 .022 0 .022"/>
    <polygon id="I" points="0 2242 927 2242 927 .022 0 .022"/>
    <polygon id="J" points="0 2242 927 2242 927 .022 0 .022"/>
    <polygon id="K" points="0 2242 927 2242 927 .022 0 .022"/>
    <polygon id="L" points="0 2242 927 2242 927 .022 0 .022"/>
    <polygon id="M" points="0 2242 927 2242 927 .022 0 .022"/>
    <polygon id="N" points="0 2242 927 2242 927 .022 0 .022"/>
    <polygon id="O" points="0 2242 927 2242 927 .022 0 .022"/>
    <polygon id="P" points="0 2242 927 2242 927 .022 0 .022"/>
    <polygon id="Q" points="0 2242 927 2242 927 .022 0 .022"/>
    <polygon id="R" points="0 2242 927 2242 927 .022 0 .022"/>
    <polygon id="S" points="0 8 14 8 14 0 0 0"/>
    <polygon id="U" points="0 8 14 8 14 0 0 0"/>
    <polygon id="W" points="0 8 14 8 14 0 0 0"/>
    <polygon id="Y" points="0 8 14 8 14 0 0 0"/>
    <polygon id="aa" points="0 8 14 8 14 0 0 0"/>
    <polygon id="ac" points="0 8 14 8 14 0 0 0"/>
    <polygon id="ae" points="0 2242 927 2242 927 .022 0 .022"/>
    <polygon id="ag" points="0 2242 927 2242 927 .022 0 .022"/>
    <polygon id="ah" points="0 2242 927 2242 927 .022 0 .022"/>
    <polygon id="ai" points="0 2242 927 2242 927 .022 0 .022"/>
    <polygon id="aj" points="0 2242 927 2242 927 .022 0 .022"/>
    <polygon id="ak" points="0 2242 927 2242 927 .022 0 .022"/>
    <polygon id="al" points="0 2242 927 2242 927 .022 0 .022"/>
    <polygon id="am" points="0 2242 927 2242 927 .022 0 .022"/>
  </defs>
  <g fill="none" fill-rule="evenodd">
    <g transform="translate(-852 -1930)">
      <g transform="translate(0 .98)"/>
      <g transform="translate(0 .98)"/>
      <g transform="translate(0 .98)"/>
      <g transform="translate(0 .98)"/>
      <g transform="translate(0 .98)"/>
      <g transform="translate(0 .98)"/>
      <g transform="translate(0 .98)"/>
      <g transform="translate(0 .98)"/>
      <g transform="translate(0 .98)"/>
      <g transform="translate(0 .98)"/>
      <g transform="translate(0 .98)"/>
      <g transform="translate(0 .98)"/>
      <g transform="translate(0 .98)"/>
      <g transform="translate(0 .98)"/>
      <g transform="translate(0 .98)"/>
      <g transform="translate(0 .98)"/>
      <g transform="translate(0 .98)"/>
      <g transform="translate(0 .98)"/>
      <g transform="translate(0 .98)"/>
      <g transform="translate(0 .98)"/>
      <g transform="translate(0 .98)"/>
      <g transform="translate(0 .98)"/>
      <g transform="translate(0 .98)"/>
      <g transform="translate(0 .98)"/>
      <g transform="translate(0 .98)"/>
      <g transform="translate(0 .98)"/>
      <g transform="translate(0 .98)"/>
      <g transform="translate(0 .98)"/>
      <g transform="translate(0 .98)"/>
      <g transform="translate(0 .98)"/>
      <g transform="translate(0 .98)"/>
      <g transform="translate(0 .98)"/>
      <g transform="translate(0 .98)"/>
      <g transform="translate(0 .98)"/>
      <g transform="translate(0 .98)"/>
      <g transform="translate(0 .98)"/>
      <g transform="translate(0 .98)"/>
      <g transform="translate(0 .98)"/>
      <g transform="translate(0 .98)"/>
      <g transform="translate(0 .98)"/>
      <g transform="translate(0 .98)"/>
      <g transform="translate(0 .98)"/>
      <g transform="translate(0 .98)"/>
      <g transform="translate(0 .98)"/>
      <g transform="translate(875 1934.98)">
        <mask id="T" fill="white">
          <use xlink:href="#S"/>
        </mask>
        <polygon fill="#5CB0FF" points="0 8 14 8 14 0 0 0" mask="url(#T)"/>
        <path fill="#1C71DA" d="M2,6 L12,6 L12,2 L2,2 L2,6 Z M14,10 L0,10 C-1.104,10 -2,9.104 -2,8 L-2,0 C-2,-1.104 -1.104,-2 0,-2 L14,-2 C15.104,-2 16,-1.104 16,0 L16,8 C16,9.104 15.104,10 14,10 L14,10 Z" mask="url(#T)"/>
      </g>
      <g transform="translate(875 1970.98)">
        <mask id="V" fill="white">
          <use xlink:href="#U"/>
        </mask>
        <polygon fill="#5CB0FF" points="0 8 14 8 14 0 0 0" mask="url(#V)"/>
        <path fill="#1C71DA" d="M2,6 L12,6 L12,2 L2,2 L2,6 Z M14,10 L0,10 C-1.104,10 -2,9.104 -2,8 L-2,0 C-2,-1.104 -1.104,-2 0,-2 L14,-2 C15.104,-2 16,-1.104 16,0 L16,8 C16,9.104 15.104,10 14,10 L14,10 Z" mask="url(#V)"/>
      </g>
      <g transform="translate(853 1970.98)">
        <mask id="X" fill="white">
          <use xlink:href="#W"/>
        </mask>
        <polygon fill="#D0E8FF" points="0 8 14 8 14 0 0 0" mask="url(#X)"/>
        <path fill="#1C71DA" d="M2,6 L12,6 L12,2 L2,2 L2,6 Z M14,10 L0,10 C-1.104,10 -2,9.104 -2,8 L-2,0 C-2,-1.104 -1.104,-2 0,-2 L14,-2 C15.104,-2 16,-1.104 16,0 L16,8 C16,9.104 15.104,10 14,10 L14,10 Z" mask="url(#X)"/>
      </g>
      <g transform="translate(897 1970.98)">
        <mask id="Z" fill="white">
          <use xlink:href="#Y"/>
        </mask>
        <polygon fill="#D0E8FF" points="0 8 14 8 14 0 0 0" mask="url(#Z)"/>
        <path fill="#1C71DA" d="M2,6 L12,6 L12,2 L2,2 L2,6 Z M14,10 L0,10 C-1.104,10 -2,9.104 -2,8 L-2,0 C-2,-1.104 -1.104,-2 0,-2 L14,-2 C15.104,-2 16,-1.104 16,0 L16,8 C16,9.104 15.104,10 14,10 L14,10 Z" mask="url(#Z)"/>
      </g>
      <g transform="translate(864 1952.98)">
        <mask id="ab" fill="white">
          <use xlink:href="#aa"/>
        </mask>
        <polygon fill="#5CB0FF" points="0 8 14 8 14 0 0 0" mask="url(#ab)"/>
        <path fill="#1C71DA" d="M2,6 L12,6 L12,2 L2,2 L2,6 Z M14,10 L0,10 C-1.104,10 -2,9.104 -2,8 L-2,0 C-2,-1.104 -1.104,-2 0,-2 L14,-2 C15.104,-2 16,-1.104 16,0 L16,8 C16,9.104 15.104,10 14,10 L14,10 Z" mask="url(#ab)"/>
      </g>
      <g transform="translate(886 1952.98)">
        <mask id="ad" fill="white">
          <use xlink:href="#ac"/>
        </mask>
        <polygon fill="#D0E8FF" points="0 8 14 8 14 0 0 0" mask="url(#ad)"/>
        <path fill="#1C71DA" d="M2,6 L12,6 L12,2 L2,2 L2,6 Z M14,10 L0,10 C-1.104,10 -2,9.104 -2,8 L-2,0 C-2,-1.104 -1.104,-2 0,-2 L14,-2 C15.104,-2 16,-1.104 16,0 L16,8 C16,9.104 15.104,10 14,10 L14,10 Z" mask="url(#ad)"/>
      </g>
      <g transform="translate(0 .98)">
        <path fill="#1C71DA" d="M871 1954C870.447 1954 870 1953.553 870 1953L870 1938C870 1937.447 870.447 1937 871 1937L876 1937C876.553 1937 877 1937.447 877 1938 877 1938.553 876.553 1939 876 1939L872 1939 872 1953C872 1953.553 871.553 1954 871 1954L871 1954zM893 1954C892.447 1954 892 1953.553 892 1953L892 1939 888 1939C887.447 1939 887 1938.553 887 1938 887 1937.447 887.447 1937 888 1937L893 1937C893.553 1937 894 1937.447 894 1938L894 1953C894 1953.553 893.553 1954 893 1954M860 1972C859.447 1972 859 1971.553 859 1971L859 1956C859 1955.447 859.447 1955 860 1955L865 1955C865.553 1955 866 1955.447 866 1956 866 1956.553 865.553 1957 865 1957L861 1957 861 1971C861 1971.553 860.553 1972 860 1972M904 1972C903.447 1972 903 1971.553 903 1971L903 1957 899 1957C898.447 1957 898 1956.553 898 1956 898 1955.447 898.447 1955 899 1955L904 1955C904.553 1955 905 1955.447 905 1956L905 1971C905 1971.553 904.553 1972 904 1972"/>
        <mask id="af" fill="white">
          <use xlink:href="#ae"/>
        </mask>
        <polygon fill="#1C71DA" points="877 1957 887 1957 887 1955 877 1955" mask="url(#af)"/>
        <polygon fill="#1C71DA" points="881 1971 883 1971 883 1955 881 1955" mask="url(#af)"/>
        <path fill="#FF5D5D" d="M860,1944 C859.744,1944 859.488,1943.902 859.293,1943.707 C858.902,1943.316 858.902,1942.684 859.293,1942.293 L862.828,1938.758 C863.219,1938.367 863.852,1938.367 864.242,1938.758 C864.633,1939.148 864.633,1939.781 864.242,1940.172 L860.707,1943.707 C860.512,1943.902 860.256,1944 860,1944" mask="url(#af)"/>
        <path fill="#FF5D5D" d="M863.5352,1944 C863.2792,1944 863.0232,1943.902 862.8282,1943.707 L859.2932,1940.172 C858.9022,1939.781 858.9022,1939.148 859.2932,1938.758 C859.6832,1938.367 860.3162,1938.367 860.7072,1938.758 L864.2422,1942.293 C864.6332,1942.684 864.6332,1943.316 864.2422,1943.707 C864.0472,1943.902 863.7912,1944 863.5352,1944" mask="url(#af)"/>
        <path fill="#00D40B" d="M883.5,1981 C882.673,1981 882,1981.673 882,1982.5 C882,1983.327 882.673,1984 883.5,1984 C884.327,1984 885,1983.327 885,1982.5 C885,1981.673 884.327,1981 883.5,1981 M883.5,1986 C881.57,1986 880,1984.43 880,1982.5 C880,1980.57 881.57,1979 883.5,1979 C885.43,1979 887,1980.57 887,1982.5 C887,1984.43 885.43,1986 883.5,1986" mask="url(#af)"/>
        <path fill="#FFC504" d="M902.4141,1937.8281 L903.8281,1939.2431 L905.2431,1937.8281 L903.8281,1936.4141 L902.4141,1937.8281 Z M903.8281,1941.6571 L903.8281,1941.6571 C903.5621,1941.6571 903.3091,1941.5521 903.1211,1941.3641 L900.2931,1938.5351 C899.9021,1938.1441 899.9021,1937.5121 900.2931,1937.1211 L903.1211,1934.2931 C903.5121,1933.9021 904.1441,1933.9021 904.5351,1934.2931 L907.3641,1937.1211 C907.5521,1937.3081 907.6571,1937.5621 907.6571,1937.8281 C907.6571,1938.0941 907.5521,1938.3481 907.3641,1938.5351 L904.5351,1941.3641 C904.3481,1941.5521 904.0941,1941.6571 903.8281,1941.6571 L903.8281,1941.6571 Z" mask="url(#af)"/>
      </g>
      <g transform="translate(0 .98)"/>
      <g transform="translate(0 .98)"/>
      <g transform="translate(0 .98)"/>
      <g transform="translate(0 .98)"/>
      <g transform="translate(0 .98)"/>
      <g transform="translate(0 .98)"/>
      <g transform="translate(0 .98)"/>
    </g>
  </g>
</svg>
