<?xml version="1.0" encoding="utf-8"?>
<!-- Generator: Adobe Illustrator 19.2.1, SVG Export Plug-In . SVG Version: 6.00 Build 0)  -->
<svg version="1.1" id="Layer_1" xmlns:sketch="http://www.bohemiancoding.com/sketch/ns"
	 xmlns="http://www.w3.org/2000/svg" xmlns:xlink="http://www.w3.org/1999/xlink" x="0px" y="0px" viewBox="0 0 60 60"
	 style="enable-background:new 0 0 60 60;" xml:space="preserve">
<style type="text/css">
	.st0{fill:#B8BBC0;}
</style>
<title>KeyboardFI</title>
<desc>Created with Sketch.</desc>
<g id="colored" sketch:type="MSPage">
	<g id="Tech_sliced" transform="translate(-840.000000, -600.000000)" sketch:type="MSLayerGroup">
	</g>
	<g id="Imported-Layers" transform="translate(-839.000000, -598.000000)" sketch:type="MSLayerGroup">
		<path id="Fill-374" sketch:type="MSShapeGroup" class="st0" d="M895,651h-52c-1.6,0-3-1.3-3-3v-22c0-1.7,1.3-3,3-3h52
			c1.6,0,3,1.3,3,3v22C898,649.7,896.7,651,895,651L895,651z M843,625c-0.5,0-1,0.4-1,1v22c0,0.5,0.4,1,1,1h52c0.5,0,1-0.4,1-1v-22
			c0-0.5-0.4-1-1-1H843L843,625z"/>
		<path id="Fill-375" sketch:type="MSShapeGroup" class="st0" d="M849,633h-4c-0.6,0-1-0.4-1-1v-4c0-0.6,0.4-1,1-1h4
			c0.6,0,1,0.4,1,1v4C850,632.6,849.6,633,849,633L849,633z M846,631h2v-2h-2V631z"/>
		<path id="Fill-376" sketch:type="MSShapeGroup" class="st0" d="M857,633h-4c-0.6,0-1-0.4-1-1v-4c0-0.6,0.4-1,1-1h4
			c0.6,0,1,0.4,1,1v4C858,632.6,857.6,633,857,633L857,633z M854,631h2v-2h-2V631z"/>
		<path id="Fill-377" sketch:type="MSShapeGroup" class="st0" d="M860,640h-4c-0.6,0-1-0.4-1-1v-4c0-0.6,0.4-1,1-1h4
			c0.6,0,1,0.4,1,1v4C861,639.6,860.6,640,860,640L860,640z M857,638h2v-2h-2V638z"/>
		<path id="Fill-378" sketch:type="MSShapeGroup" class="st0" d="M852,640h-4c-0.6,0-1-0.4-1-1v-4c0-0.6,0.4-1,1-1h4
			c0.6,0,1,0.4,1,1v4C853,639.6,852.6,640,852,640L852,640z M849,638h2v-2h-2V638z"/>
		<path id="Fill-379" sketch:type="MSShapeGroup" class="st0" d="M868,640h-4c-0.6,0-1-0.4-1-1v-4c0-0.6,0.4-1,1-1h4
			c0.6,0,1,0.4,1,1v4C869,639.6,868.6,640,868,640L868,640z M865,638h2v-2h-2V638z"/>
		<path id="Fill-380" sketch:type="MSShapeGroup" class="st0" d="M849,647h-4c-0.6,0-1-0.4-1-1v-4c0-0.6,0.4-1,1-1h4
			c0.6,0,1,0.4,1,1v4C850,646.6,849.6,647,849,647L849,647z M846,645h2v-2h-2V645z"/>
		<path id="Fill-381" sketch:type="MSShapeGroup" class="st0" d="M865,633h-4c-0.6,0-1-0.4-1-1v-4c0-0.6,0.4-1,1-1h4
			c0.6,0,1,0.4,1,1v4C866,632.6,865.6,633,865,633L865,633z M862,631h2v-2h-2V631z"/>
		<path id="Fill-382" sketch:type="MSShapeGroup" class="st0" d="M883,633h-4c-0.6,0-1-0.4-1-1v-4c0-0.6,0.4-1,1-1h4
			c0.6,0,1,0.4,1,1v4C884,632.6,883.6,633,883,633L883,633z M880,631h2v-2h-2V631z"/>
		<path id="Fill-383" sketch:type="MSShapeGroup" class="st0" d="M883,640h-4c-0.6,0-1-0.4-1-1v-4c0-0.6,0.4-1,1-1h4
			c0.6,0,1,0.4,1,1v4C884,639.6,883.6,640,883,640L883,640z M880,638h2v-2h-2V638z"/>
		<path id="Fill-384" sketch:type="MSShapeGroup" class="st0" d="M891,640h-4c-0.6,0-1-0.4-1-1v-4c0-0.6,0.4-1,1-1h4
			c0.6,0,1,0.4,1,1v4C892,639.6,891.6,640,891,640L891,640z M888,638h2v-2h-2V638z"/>
		<path id="Fill-385" sketch:type="MSShapeGroup" class="st0" d="M883,647h-4c-0.6,0-1-0.4-1-1v-4c0-0.6,0.4-1,1-1h4
			c0.6,0,1,0.4,1,1v4C884,646.6,883.6,647,883,647L883,647z M880,645h2v-2h-2V645z"/>
		<path id="Fill-386" sketch:type="MSShapeGroup" class="st0" d="M891,647h-4c-0.6,0-1-0.4-1-1v-4c0-0.6,0.4-1,1-1h4
			c0.6,0,1,0.4,1,1v4C892,646.6,891.6,647,891,647L891,647z M888,645h2v-2h-2V645z"/>
		<path id="Fill-387" sketch:type="MSShapeGroup" class="st0" d="M891,633h-4c-0.6,0-1-0.4-1-1v-4c0-0.6,0.4-1,1-1h4
			c0.6,0,1,0.4,1,1v4C892,632.6,891.6,633,891,633L891,633z M888,631h2v-2h-2V631z"/>
		<path id="Fill-388" sketch:type="MSShapeGroup" class="st0" d="M873,647h-20c-0.6,0-1-0.4-1-1v-4c0-0.6,0.4-1,1-1h20
			c0.6,0,1,0.4,1,1v4C874,646.6,873.6,647,873,647L873,647z M854,645h18v-2h-18V645z"/>
	</g>
</g>
</svg>
