<svg id="Layer_1" data-name="Layer 1" xmlns="http://www.w3.org/2000/svg" viewBox="0 0 60 60"><defs><style>.cls-1{fill:none;stroke:#b8bbc0;stroke-linecap:round;stroke-linejoin:round;stroke-width:2px;}</style></defs><title>template</title><path class="cls-1" d="M24,48.35S17.73,43,16,38.24,14.2,30.3,13.2,27.8s2.13-3.46,3.13-2.95,2.78,3.14,3.25,5,0.34,3.39.91,3.84l0.68-20.48S21.86,11,23.6,11a2.58,2.58,0,0,1,2.52,2c0,0.45.09,12.06,0.09,12.06l0.47-4a3.13,3.13,0,0,1,2.84-1.65,2.24,2.24,0,0,1,2.23,2.11l0.63,4.06L32.3,22.88a2.41,2.41,0,0,1,2.53-1.67c2.14,0,2.54,2,2.54,3.14A41.81,41.81,0,0,0,38,28.85s0.4-4,2.27-4A2.57,2.57,0,0,1,43,27.68V41.34s-1.05,4.41-2.73,6.46v4.29A4.91,4.91,0,0,1,35.36,57H28.88A4.91,4.91,0,0,1,24,52.1V48.35Z"/><path class="cls-1" d="M30.87,19.49a9.5,9.5,0,1,0-10,3.14"/></svg>
