<?xml version="1.0" encoding="utf-8"?>
<!-- Generator: Adobe Illustrator 15.1.0, SVG Export Plug-In . SVG Version: 6.00 Build 0)  -->
<!DOCTYPE svg PUBLIC "-//W3C//DTD SVG 1.0//EN" "http://www.w3.org/TR/2001/REC-SVG-20010904/DTD/svg10.dtd">
<svg version="1.0" id="Layer_1" xmlns="http://www.w3.org/2000/svg" xmlns:xlink="http://www.w3.org/1999/xlink" x="0px" y="0px"
	 width="800px" height="800px" viewBox="0 0 800 800" enable-background="new 0 0 800 800" xml:space="preserve">
<g id="Header">
	<path fill="#BCC2C6" d="M33.1,34.5h736.2c8.5,0,16.1,3.5,21.7,9l0,0c5.6,5.6,9,13.2,9,21.7v654.6c0,8.4-3.5,16.1-9,21.7l0,0
		c-5.6,5.6-13.2,9-21.7,9H33.1c-8.5,0-16.1-3.5-21.7-9l0,0c-5.6-5.6-9-13.2-9-21.7V65.2c0-8.4,3.5-16.1,9-21.7l0,0
		C16.9,38,24.6,34.5,33.1,34.5"/>
	<path fill="#EBEFF0" d="M788.9,65.2v654.6c0,12.3-8.6,19.6-19.6,19.6H33.1c-11,0-19.6-7-19.6-19.6V65.2c0-12.8,8.6-19.6,19.6-19.6
		h736.2C780.2,45.6,788.9,52.7,788.9,65.2"/>
	<path fill="#94A4A5" d="M677.6,72.3c7.8,0,14.2,6.4,14.2,14.2s-6.3,14.2-14.2,14.2c-7.9,0-14.2-6.3-14.2-14.2
		C663.4,78.7,669.7,72.3,677.6,72.3 M722.1,72.3c7.8,0,14.2,6.4,14.2,14.2s-6.4,14.2-14.2,14.2c-7.8,0-14.2-6.3-14.2-14.2
		C707.9,78.7,714.3,72.3,722.1,72.3z M633,72.3c7.8,0,14.2,6.4,14.2,14.2s-6.3,14.2-14.2,14.2c-7.8,0-14.2-6.4-14.2-14.2
		S625.2,72.3,633,72.3z"/>
	
		<text transform="matrix(1 0 0 1 130.1675 83.2969)" fill="#93A2A3" font-family="'NexaBold'" font-size="44.0749" letter-spacing="1">CART POPUP</text>
</g>
<g id="Body">
	<path fill="#34495E" d="M28.8,125h744.5c7.3,0,14,3,18.8,7.8c4.8,4.8,7.8,11.5,7.8,18.8v572.9c0,7.3-3,14-7.8,18.8
		c-4.8,4.8-11.5,7.8-18.8,7.8H28.8c-7.3,0-14-3-18.8-7.8s-7.8-11.5-7.8-18.8V151.7c0-7.3,3-14,7.8-18.8C14.8,128,21.5,125,28.8,125"
		/>
	<path fill="#FFFFFF" d="M28.8,136.2c-4.1,0-8,1.7-11,4.6c-2.9,2.9-4.6,6.8-4.6,11v572.9c0,4.1,1.6,8.1,4.6,11
		c2.9,2.9,6.8,4.6,11,4.6h744.5c4.1,0,8-1.7,11-4.6c2.9-2.9,4.5-6.8,4.5-11v-573c0-4.1-1.6-8-4.5-11c-2.9-2.9-6.9-4.6-11-4.6H28.8
		V136.2z"/>
	<rect x="76.7" y="186.1" fill="#34495E" width="648.8" height="226.2"/>
	<rect x="87.8" y="197.2" fill="#F29B12" width="626.5" height="203.9"/>
	<path fill="#BCC2C6" d="M84.1,438.4H718c4.1,0,7.4,3.3,7.4,7.4l0,0c0,4.1-3.3,7.4-7.4,7.4H84.1c-4.1,0-7.5-3.3-7.5-7.4l0,0
		C76.7,441.7,80,438.4,84.1,438.4"/>
	<path fill="#BCC2C6" d="M84.1,475.8h309.5c4.1,0,7.4,3.3,7.4,7.4l0,0c0,4.1-3.3,7.4-7.4,7.4H84.1c-4.1,0-7.4-3.4-7.4-7.4l0,0
		C76.7,479.2,80,475.8,84.1,475.8"/>
	<rect x="76.8" y="533.8" fill="#34495E" width="103.6" height="103.6"/>
	<rect x="88.2" y="545.1" fill="#F29B12" width="80.9" height="80.9"/>
	<rect x="258.5" y="533.8" fill="#34495E" width="103.6" height="103.6"/>
	<rect x="269.8" y="545.1" fill="#F29B12" width="80.9" height="80.9"/>
	<rect x="440.1" y="533.8" fill="#34495E" width="103.6" height="103.6"/>
	<rect x="451.5" y="545.1" fill="#F29B12" width="80.9" height="80.9"/>
	<rect x="621.8" y="533.8" fill="#34495E" width="103.6" height="103.6"/>
	<rect x="633.1" y="545.1" fill="#F29B12" width="80.9" height="80.9"/>
	<polygon fill="#D5840C" points="401.1,255.4 424.4,268.8 447.6,282.3 447.6,309.2 447.6,336 424.4,349.5 401.1,362.9 377.8,349.5 
		354.5,336 354.5,309.2 354.5,282.3 377.8,268.8 	"/>
	<polygon fill="#34495E" points="401.1,244 424.4,257.5 447.6,270.9 447.6,297.8 447.6,324.7 424.4,338.1 401.1,351.5 377.8,338.1 
		354.5,324.7 354.5,297.8 354.5,270.9 377.8,257.5 	"/>
	<path fill="#F8FBB9" d="M396.4,338.1l-14-8.1l-18.6-10.7v-21.5v-16.7l32.6,18.8V338.1z M438.3,281.1v16.7v21.5L419.7,330l-14,8.1
		v-38.2L438.3,281.1z M401.1,254.8l18.6,10.8l13.5,7.8l-32.1,18.5L369,273.3l13.5-7.8L401.1,254.8z"/>
	<path fill="#BCC2C6" d="M84.3,668.2H173c4.1,0,7.4,3.3,7.4,7.5c0,4.1-3.3,7.4-7.4,7.4H84.3c-4.1,0-7.4-3.3-7.4-7.4
		C76.8,671.6,80.2,668.2,84.3,668.2"/>
	<path fill="#BCC2C6" d="M265.9,668.2h88.7c4.1,0,7.4,3.3,7.4,7.5c0,4.1-3.3,7.4-7.4,7.4h-88.7c-4.1,0-7.4-3.3-7.4-7.4
		C258.5,671.6,261.8,668.2,265.9,668.2"/>
	<path fill="#BCC2C6" d="M447.6,668.2h88.7c4.1,0,7.4,3.3,7.4,7.5c0,4.1-3.4,7.4-7.4,7.4h-88.7c-4.1,0-7.5-3.3-7.5-7.4
		C440.1,671.6,443.5,668.2,447.6,668.2"/>
	<path fill="#BCC2C6" d="M629.2,668.2h88.7c4.1,0,7.4,3.3,7.4,7.5c0,4.1-3.3,7.4-7.4,7.4h-88.7c-4.1,0-7.5-3.3-7.5-7.4
		C621.8,671.6,625.1,668.2,629.2,668.2"/>
	<path opacity="0.5" fill="#34495E" enable-background="new    " d="M28.8,136.2c-4.1,0-8,1.7-11,4.6c-2.9,2.9-4.6,6.8-4.6,11v572.9
		c0,4.1,1.6,8.1,4.6,11c2.9,2.9,6.8,4.6,11,4.6h744.5c4.1,0,8-1.7,11-4.6c2.9-2.9,4.5-6.8,4.5-11v-573c0-4.1-1.6-8-4.5-11
		c-2.9-2.9-6.9-4.6-11-4.6H28.8V136.2z"/>
	<path fill="#34495E" d="M171.5,245h459.1c4.5,0,8.6,1.9,11.6,4.8c3,3,4.8,7.1,4.8,11.6v353.3c0,4.5-1.9,8.6-4.8,11.6
		c-3,3-7.1,4.8-11.6,4.8H171.5c-4.5,0-8.6-1.8-11.6-4.8s-4.8-7.1-4.8-11.6V261.5c0-4.5,1.9-8.6,4.8-11.6
		C162.9,246.9,167,245,171.5,245"/>
	<path fill="#FFFFFF" d="M171.5,256.2c-1.4,0-2.7,0.6-3.7,1.6s-1.6,2.3-1.6,3.7v353.3c0,1.4,0.6,2.7,1.6,3.7s2.3,1.6,3.7,1.6h459.1
		c1.4,0,2.7-0.6,3.7-1.6s1.5-2.3,1.5-3.7V261.5c0-1.4-0.6-2.7-1.5-3.7c-1-1-2.3-1.6-3.7-1.6H171.5L171.5,256.2z"/>
	<path fill="#BCC2C6" d="M445.6,554.2h-84.5c-3.2,0-6.2,1.3-8.3,3.5c-2.1,2.1-3.5,5.1-3.5,8.3s1.3,6.2,3.5,8.3l0,0
		c2.1,2.1,5.1,3.4,8.3,3.4h84.5c3.2,0,6.2-1.3,8.4-3.5c2.1-2.1,3.5-5.1,3.5-8.3c0-3.2-1.3-6.2-3.5-8.4
		C451.8,555.5,448.9,554.2,445.6,554.2 M361.2,542.6h84.5c6.4,0,12.3,2.6,16.5,6.9l0,0c4.2,4.2,6.9,10.1,6.9,16.5
		s-2.6,12.3-6.9,16.5s-10.1,6.9-16.5,6.9h-84.5c-6.4,0-12.3-2.6-16.5-6.9l0,0l0,0c-4.2-4.2-6.9-10.1-6.9-16.5s2.6-12.3,6.9-16.5
		C348.9,545.2,354.7,542.6,361.2,542.6z"/>
	<path fill="#34495E" d="M356.6,533.1H441c6.4,0,12.3,2.6,16.5,6.9l0,0c4.2,4.2,6.9,10.1,6.9,16.5s-2.6,12.3-6.9,16.5
		c-4.2,4.2-10.1,6.9-16.5,6.9h-84.5c-6.4,0-12.3-2.6-16.5-6.9l0,0l0,0c-4.2-4.3-6.9-10.1-6.9-16.5s2.6-12.3,6.9-16.5
		C344.3,535.7,350.1,533.1,356.6,533.1"/>
	<path fill="#27CABF" d="M441,540c4.4,0,8.5,1.7,11.6,4.8c3.1,3.1,4.8,7.3,4.8,11.6c0,4.4-1.8,8.5-4.8,11.6
		c-3.1,3.1-7.2,4.8-11.6,4.8h-84.5c-4.4,0-8.5-1.7-11.6-4.8l0,0c-3.1-3.1-4.8-7.3-4.8-11.6c0-4.4,1.7-8.5,4.8-11.6
		c3.1-3.1,7.2-4.8,11.6-4.8H441z"/>
	<path fill="#51F4E9" d="M441,540c4.4,0,8.5,1.7,11.6,4.8c3.1,3.1,4.8,7.3,4.8,11.6c0,1.1-0.1,2.2-0.3,3.3c-0.7-3.1-2.2-6-4.5-8.3
		c-3.1-3.1-7.3-4.8-11.6-4.8h-84.5c-4.4,0-8.5,1.8-11.6,4.8c-2.3,2.3-3.8,5.2-4.5,8.3c-0.2-1.1-0.3-2.2-0.3-3.3
		c0-4.4,1.7-8.5,4.8-11.6c3.1-3.1,7.2-4.8,11.6-4.8H441z"/>
	<rect x="207.6" y="314.1" fill="#34495E" width="103.6" height="103.6"/>
	<rect x="218.9" y="325.5" fill="#F29B12" width="80.9" height="80.9"/>
	<rect x="349.3" y="314.1" fill="#34495E" width="103.6" height="103.6"/>
	<rect x="360.7" y="325.5" fill="#F29B12" width="80.9" height="80.9"/>
	<rect x="491" y="314.1" fill="#34495E" width="103.6" height="103.6"/>
	<rect x="502.4" y="325.5" fill="#F29B12" width="80.9" height="80.9"/>
	<path fill="#BCC2C6" d="M250.5,434l8.8,8.8l8.8-8.8c2.2-2.2,5.7-2.2,7.9,0l0,0c2.2,2.2,2.2,5.7,0,7.9l-8.8,8.8l8.8,8.8
		c2.2,2.2,2.2,5.7,0,7.9c-2.2,2.1-5.7,2.1-7.9,0l-8.8-8.8l-8.8,8.8c-2.2,2.1-5.7,2.1-7.9,0l0,0c-2.2-2.2-2.2-5.7,0-7.9l8.8-8.8
		l-8.8-8.8c-2.2-2.2-2.2-5.7,0-7.9C244.8,431.8,248.4,431.8,250.5,434"/>
	<path fill="#BCC2C6" d="M392.3,434l8.8,8.8l8.8-8.8c2.2-2.2,5.7-2.2,7.9,0s2.2,5.7,0,7.9l-8.8,8.8l8.8,8.8c2.2,2.2,2.2,5.7,0,7.9
		l0,0c-2.2,2.1-5.7,2.1-7.9,0l-8.8-8.8l-8.8,8.8c-2.2,2.1-5.7,2.1-7.9,0c-2.2-2.2-2.2-5.7,0-7.9l8.8-8.8l-8.8-8.8
		c-2.2-2.2-2.2-5.7,0-7.9l0,0C386.6,431.8,390.1,431.8,392.3,434"/>
	<path fill="#BCC2C6" d="M534,434l8.8,8.8l8.8-8.8c2.2-2.2,5.7-2.2,7.9,0l0,0c2.2,2.2,2.2,5.7,0,7.9l-8.8,8.8l8.8,8.8
		c2.2,2.2,2.2,5.7,0,7.9c-2.2,2.1-5.7,2.1-7.9,0l-8.8-8.8l-8.8,8.8c-2.2,2.1-5.7,2.1-7.9,0l0,0c-2.2-2.2-2.2-5.7,0-7.9l8.8-8.8
		l-8.8-8.8c-2.2-2.2-2.2-5.7,0-7.9C528.3,431.8,531.8,431.8,534,434"/>
	<path fill="#BCC2C6" d="M246.3,496.6h309.5c4.1,0,7.4,3.3,7.4,7.4l0,0c0,4.1-3.3,7.4-7.4,7.4H246.3c-4.1,0-7.4-3.3-7.4-7.4l0,0
		C238.9,499.9,242.2,496.6,246.3,496.6"/>
</g>
</svg>
