<?xml version="1.0" encoding="utf-8"?>
<!-- Generator: Adobe Illustrator 15.1.0, SVG Export Plug-In . SVG Version: 6.00 Build 0)  -->
<!DOCTYPE svg PUBLIC "-//W3C//DTD SVG 1.0//EN" "http://www.w3.org/TR/2001/REC-SVG-20010904/DTD/svg10.dtd">
<svg version="1.0" id="Layer_1" xmlns="http://www.w3.org/2000/svg" xmlns:xlink="http://www.w3.org/1999/xlink" x="0px" y="0px"
	 width="800px" height="800px" viewBox="0 0 800 800" enable-background="new 0 0 800 800" xml:space="preserve">
<g id="Header">
	<path fill="#BCC2C6" d="M33.1,34.5h736.2c8.5,0,16.1,3.5,21.7,9l0,0c5.6,5.6,9,13.2,9,21.7v654.6c0,8.4-3.5,16.1-9,21.7l0,0
		c-5.6,5.6-13.2,9-21.7,9H33.1c-8.5,0-16.1-3.5-21.7-9l0,0c-5.6-5.6-9-13.2-9-21.7V65.2c0-8.4,3.5-16.1,9-21.7l0,0
		C16.9,38,24.6,34.5,33.1,34.5"/>
	<path fill="#EBEFF0" d="M788.9,65.2v654.6c0,12.3-8.6,19.6-19.6,19.6H33.1c-11,0-19.6-7-19.6-19.6V65.2c0-12.8,8.6-19.6,19.6-19.6
		h736.2C780.2,45.6,788.9,52.7,788.9,65.2"/>
	<path fill="#94A4A5" d="M677.6,72.3c7.8,0,14.2,6.4,14.2,14.2s-6.3,14.2-14.2,14.2c-7.9,0-14.2-6.3-14.2-14.2
		C663.4,78.7,669.7,72.3,677.6,72.3 M722.1,72.3c7.8,0,14.2,6.4,14.2,14.2s-6.4,14.2-14.2,14.2c-7.8,0-14.2-6.3-14.2-14.2
		C707.9,78.7,714.3,72.3,722.1,72.3z M633,72.3c7.8,0,14.2,6.4,14.2,14.2s-6.3,14.2-14.2,14.2c-7.8,0-14.2-6.4-14.2-14.2
		S625.2,72.3,633,72.3z"/>
	
		<text transform="matrix(1 0 0 1 212.0005 82.2969)" fill="#93A2A3" font-family="'NexaBold'" font-size="44.0749" letter-spacing="2">CART</text>
</g>
<g id="Body">
	<path fill="#BCC2C6" d="M28.9,125h744.3c7.3,0,14,3,18.8,7.8c4.8,4.8,7.8,11.5,7.8,18.8v572.7c0,7.3-3,14-7.8,18.8
		c-4.8,4.8-11.5,7.8-18.8,7.8H28.9c-7.3,0-14-3-18.8-7.8c-4.8-4.8-7.8-11.5-7.8-18.8V151.6c0-7.3,3-14,7.8-18.8
		C14.9,127.9,21.5,125,28.9,125"/>
	<path fill="#FFFFFF" d="M28.9,136.1c-4.1,0-8,1.6-11,4.6c-2.9,2.9-4.6,6.8-4.6,11v572.7c0,4.1,1.7,8,4.6,11c2.9,2.9,6.8,4.6,11,4.6
		h744.3c4.1,0,8-1.6,10.9-4.6c2.9-2.9,4.6-6.8,4.6-11V151.6c0-4.1-1.6-8-4.6-11c-2.9-2.9-6.8-4.6-10.9-4.6H28.9V136.1z"/>
	<rect x="86.4" y="188.6" fill="#34495E" width="103.6" height="103.6"/>
	<rect x="97.8" y="200" fill="#F29B12" width="80.9" height="80.8"/>
	<path fill="#BCC2C6" d="M252,214.2h332.5c4.1,0,7.5,3.3,7.5,7.4l0,0c0,4.1-3.3,7.4-7.5,7.4H252c-4.1,0-7.4-3.3-7.4-7.4l0,0
		C244.6,217.6,248,214.2,252,214.2"/>
	<path fill="#BCC2C6" d="M252,251.7h289.2c4.1,0,7.5,3.3,7.5,7.4l0,0c0,4.1-3.3,7.4-7.5,7.4H252c-4.1,0-7.4-3.3-7.4-7.4l0,0
		C244.6,255,248,251.7,252,251.7"/>
	<path fill="#BCC2C6" d="M672.7,218.1l11.8,11.8l11.8-11.8c2.9-2.9,7.6-2.9,10.5,0l0,0c2.9,2.9,2.9,7.6,0,10.5L695,240.4l11.8,11.8
		c2.9,2.9,2.9,7.6,0,10.5l0,0c-2.9,2.9-7.6,2.9-10.5,0l-11.8-11.8l-11.8,11.8c-2.9,2.9-7.6,2.9-10.5,0l0,0c-2.9-2.9-2.9-7.6,0-10.5
		l11.8-11.8l-11.8-11.8c-2.9-2.9-2.9-7.6,0-10.5l0,0C665,215.2,669.7,215.2,672.7,218.1"/>
	<rect x="86.4" y="332.9" fill="#34495E" width="103.6" height="103.6"/>
	<rect x="97.8" y="344.3" fill="#F29B12" width="80.9" height="80.8"/>
	<path fill="#BCC2C6" d="M252,358.5h332.5c4.1,0,7.5,3.3,7.5,7.4s-3.3,7.5-7.5,7.5H252c-4.1,0-7.4-3.4-7.4-7.5
		C244.6,361.9,248,358.5,252,358.5"/>
	<path fill="#BCC2C6" d="M252,396h289.2c4.1,0,7.5,3.4,7.5,7.5s-3.3,7.4-7.5,7.4H252c-4.1,0-7.4-3.4-7.4-7.4
		C244.6,399.3,248,396,252,396"/>
	<path fill="#BCC2C6" d="M672.7,362.4l11.8,11.8l11.8-11.8c2.9-2.9,7.6-2.9,10.5,0c2.9,2.9,2.9,7.6,0,10.5L695,384.7l11.8,11.8
		c2.9,2.9,2.9,7.6,0,10.5l0,0c-2.9,2.9-7.6,2.9-10.5,0l-11.8-11.8L672.7,407c-2.9,2.9-7.6,2.9-10.5,0l0,0c-2.9-2.9-2.9-7.6,0-10.5
		l11.8-11.8l-11.8-11.8c-2.9-2.9-2.9-7.6,0-10.5C665,359.5,669.7,359.5,672.7,362.4"/>
	<rect x="86.4" y="477.2" fill="#34495E" width="103.6" height="103.6"/>
	<rect x="97.8" y="488.5" fill="#F29B12" width="80.9" height="80.9"/>
	<path fill="#BCC2C6" d="M252,502.8h332.5c4.1,0,7.5,3.4,7.5,7.4l0,0c0,4.1-3.3,7.4-7.5,7.4H252c-4.1,0-7.4-3.3-7.4-7.4l0,0
		C244.6,506.2,248,502.8,252,502.8"/>
	<path fill="#BCC2C6" d="M252,540.3h289.2c4.1,0,7.5,3.3,7.5,7.4l0,0c0,4.1-3.3,7.4-7.5,7.4H252c-4.1,0-7.4-3.3-7.4-7.4l0,0
		C244.6,543.6,248,540.3,252,540.3"/>
	<path fill="#BCC2C6" d="M672.7,506.7l11.8,11.8l11.8-11.8c2.9-2.9,7.6-2.9,10.5,0l0,0c2.9,2.9,2.9,7.6,0,10.5L695,529l11.8,11.8
		c2.9,2.9,2.9,7.6,0,10.5l0,0c-2.9,2.9-7.6,2.9-10.5,0l-11.8-11.8l-11.8,11.8c-2.9,2.9-7.6,2.9-10.5,0l0,0c-2.9-2.9-2.9-7.6,0-10.5
		L674,529l-11.8-11.8c-2.9-2.9-2.9-7.6,0-10.5l0,0C665,503.8,669.7,503.8,672.7,506.7"/>
	<path fill="#BCC2C6" d="M692.2,652.1h-84.5c-3.3,0-6.2,1.3-8.3,3.5c-2.1,2.1-3.5,5.1-3.5,8.3l0,0c0,3.3,1.3,6.2,3.4,8.3l0,0
		c2.1,2.1,5.1,3.5,8.3,3.5h84.5c3.2,0,6.2-1.3,8.3-3.5c2.1-2.1,3.5-5.1,3.5-8.3l0,0c0-3.3-1.3-6.2-3.5-8.4
		C698.4,653.4,695.4,652.1,692.2,652.1 M607.7,640.5h84.5c6.4,0,12.3,2.6,16.5,6.9l0,0c4.2,4.2,6.9,10.1,6.9,16.5l0,0
		c0,6.4-2.6,12.3-6.9,16.5c-4.2,4.2-10.1,6.9-16.5,6.9h-84.5c-6.4,0-12.3-2.6-16.5-6.9l0,0l0,0c-4.2-4.2-6.9-10.1-6.9-16.5l0,0
		c0-6.4,2.6-12.3,6.9-16.5C595.4,643.2,601.3,640.5,607.7,640.5z"/>
	<path fill="#34495E" d="M603.1,631h84.5c6.4,0,12.3,2.6,16.5,6.9l0,0c4.2,4.2,6.9,10.1,6.9,16.5l0,0c0,6.4-2.6,12.3-6.9,16.5
		c-4.2,4.2-10.1,6.9-16.5,6.9h-84.5c-6.4,0-12.3-2.6-16.5-6.9l0,0l0,0c-4.2-4.2-6.9-10.1-6.9-16.5l0,0c0-6.4,2.6-12.3,6.9-16.5
		C590.9,633.6,596.7,631,603.1,631"/>
	<path fill="#27CABF" d="M687.6,637.9c4.4,0,8.5,1.7,11.6,4.8c3.1,3.1,4.8,7.3,4.8,11.6c0,4.4-1.7,8.5-4.8,11.6
		c-3.1,3.1-7.2,4.8-11.6,4.8h-84.5c-4.4,0-8.5-1.7-11.6-4.8l0,0c-3.1-3.1-4.8-7.2-4.8-11.6c0-4.4,1.7-8.5,4.8-11.6
		c3.1-3.1,7.2-4.8,11.6-4.8H687.6z"/>
	<path fill="#51F4E9" d="M687.6,637.9c4.4,0,8.5,1.7,11.6,4.8c3.1,3.1,4.8,7.3,4.8,11.6c0,1.1-0.1,2.2-0.3,3.3
		c-0.6-3.1-2.2-6-4.5-8.3c-3.1-3.1-7.2-4.8-11.6-4.8h-84.5c-4.4,0-8.5,1.7-11.6,4.8c-2.3,2.3-3.8,5.2-4.5,8.3
		c-0.2-1.1-0.3-2.2-0.3-3.3c0-4.4,1.7-8.5,4.8-11.6c3.1-3.1,7.2-4.8,11.6-4.8H687.6z"/>
	<path fill="#BCC2C6" d="M93.9,651.7h427.9c4.1,0,7.5,3.4,7.5,7.5c0,4.1-3.3,7.4-7.5,7.4H93.9c-4.1,0-7.5-3.3-7.5-7.4
		C86.4,655.1,89.8,651.7,93.9,651.7"/>
</g>
</svg>
