<?xml version="1.0" encoding="utf-8"?>
<!-- Generator: Adobe Illustrator 15.1.0, SVG Export Plug-In . SVG Version: 6.00 Build 0)  -->
<!DOCTYPE svg PUBLIC "-//W3C//DTD SVG 1.0//EN" "http://www.w3.org/TR/2001/REC-SVG-20010904/DTD/svg10.dtd">
<svg version="1.0" id="Layer_1" xmlns="http://www.w3.org/2000/svg" xmlns:xlink="http://www.w3.org/1999/xlink" x="0px" y="0px"
	 width="800px" height="800px" viewBox="0 0 800 800" enable-background="new 0 0 800 800" xml:space="preserve">
<g id="Header">
	<path fill="#BCC2C6" d="M33.1,34.5h736.2c8.5,0,16.1,3.5,21.7,9l0,0c5.6,5.6,9,13.2,9,21.7v654.6c0,8.4-3.5,16.1-9,21.7l0,0
		c-5.6,5.6-13.2,9-21.7,9H33.1c-8.5,0-16.1-3.5-21.7-9l0,0c-5.6-5.6-9-13.2-9-21.7V65.2c0-8.4,3.5-16.1,9-21.7l0,0
		C16.9,38,24.6,34.5,33.1,34.5"/>
	<path fill="#EBEFF0" d="M788.9,65.2v654.6c0,12.3-8.6,19.6-19.6,19.6H33.1c-11,0-19.6-7-19.6-19.6V65.2c0-12.8,8.6-19.6,19.6-19.6
		h736.2C780.2,45.6,788.9,52.7,788.9,65.2"/>
	<path fill="#94A4A5" d="M677.6,72.3c7.8,0,14.2,6.4,14.2,14.2s-6.3,14.2-14.2,14.2c-7.9,0-14.2-6.3-14.2-14.2
		C663.4,78.7,669.7,72.3,677.6,72.3 M722.1,72.3c7.8,0,14.2,6.4,14.2,14.2s-6.4,14.2-14.2,14.2c-7.8,0-14.2-6.3-14.2-14.2
		C707.9,78.7,714.3,72.3,722.1,72.3z M633,72.3c7.8,0,14.2,6.4,14.2,14.2s-6.3,14.2-14.2,14.2c-7.8,0-14.2-6.4-14.2-14.2
		S625.2,72.3,633,72.3z"/>
	
		<text transform="matrix(1 0 0 1 134.1675 82.2969)" fill="#93A2A3" font-family="'NexaBold'" font-size="44.0749" letter-spacing="1">CHECKOUT</text>
</g>
<g id="Body">
	<path fill="#BCC2C6" d="M28.8,125.6h744.5c7.3,0,14,3,18.8,7.8c4.8,4.8,7.8,11.5,7.8,18.8v572.9c0,7.3-3,14-7.8,18.8
		c-4.8,4.8-11.5,7.8-18.8,7.8H28.8c-7.3,0-14-3-18.8-7.8c-4.8-4.8-7.8-11.5-7.8-18.8V152.3c0-7.3,3-14,7.8-18.8
		C14.8,128.6,21.5,125.6,28.8,125.6"/>
	<path fill="#FFFFFF" d="M28.8,136.7c-4.1,0-8,1.7-11,4.6c-2.9,2.9-4.6,6.8-4.6,11v572.9c0,4.1,1.6,8,4.6,11c2.9,2.9,6.8,4.6,11,4.6
		h744.5c4.1,0,8-1.7,10.9-4.6c2.9-2.9,4.6-6.8,4.6-11V152.3c0-4.1-1.7-8-4.6-11c-2.9-2.9-6.8-4.6-10.9-4.6H28.8z"/>
	<path fill="#34495E" d="M94,200.7h340.7c11.5,0,20.8,9.4,20.8,20.8V410c0,11.4-9.4,20.8-20.8,20.8H94c-11.4,0-20.8-9.4-20.8-20.8
		V221.5C73.2,210,82.6,200.7,94,200.7"/>
	<path fill="#EBEFF0" d="M94,211.8h340.7c5.3,0,9.7,4.4,9.7,9.7V410c0,5.3-4.4,9.7-9.7,9.7H94c-5.3,0-9.7-4.4-9.7-9.7V221.5
		C84.3,216.2,88.7,211.8,94,211.8"/>
	<rect x="84.3" y="237.7" fill="#BCC2C6" width="360" height="45.5"/>
	<path fill="#BCC2C6" d="M110.4,313.8h299.2c2.7,0,4.9,2.2,4.9,4.9v19.1c0,2.7-2.2,4.9-4.9,4.9H110.4c-2.7,0-4.9-2.2-4.9-4.9v-19.1
		C105.5,316,107.7,313.8,110.4,313.8"/>
	<rect x="113.9" y="322.5" fill="#FFFFFF" width="292.2" height="11.6"/>
	<path fill="#BCC2C6" d="M110.4,358h135.7c2.7,0,4.9,2.2,4.9,4.9V382c0,2.7-2.2,4.9-4.9,4.9H110.4c-2.7,0-4.9-2.2-4.9-4.9v-19.1
		C105.5,360.2,107.7,358,110.4,358"/>
	<rect x="113.9" y="366.7" fill="#FFFFFF" width="128.7" height="11.6"/>
	<path fill="#BCC2C6" d="M371.5,358h38.7c2.7,0,4.9,2.2,4.9,4.9V382c0,2.7-2.2,4.9-4.9,4.9h-38.7c-2.7,0-4.9-2.2-4.9-4.9v-19.1
		C366.5,360.2,368.7,358,371.5,358"/>
	<rect x="375" y="366.7" fill="#FFFFFF" width="31.6" height="11.6"/>
	<path fill="#BCC2C6" d="M498.8,220.6h124c4.1,0,7.4,3.3,7.4,7.4l0,0c0,4.1-3.3,7.4-7.4,7.4h-124c-4.1,0-7.4-3.3-7.4-7.4l0,0
		C491.3,224,494.7,220.6,498.8,220.6"/>
	<path fill="#BCC2C6" d="M498.8,283h124c4.1,0,7.4,3.3,7.4,7.4s-3.3,7.4-7.4,7.4h-124c-4.1,0-7.4-3.3-7.4-7.4
		C491.3,286.4,494.7,283,498.8,283"/>
	<path fill="#BCC2C6" d="M498.8,345.5h124c4.1,0,7.4,3.3,7.4,7.4l0,0c0,4.1-3.3,7.4-7.4,7.4h-124c-4.1,0-7.4-3.3-7.4-7.4l0,0
		C491.3,348.8,494.7,345.5,498.8,345.5"/>
	<path fill="#BCC2C6" d="M667.3,221.5l9.6,9.6l21.7-21.7c2.9-2.9,7.6-2.9,10.5,0l0,0c2.9,2.9,2.9,7.6,0,10.5l-26.9,26.9l-0.1,0.1
		l0,0L682,247l-0.1,0.1l-0.1,0.1l-0.1,0.1l-0.2,0.1l0,0l-0.2,0.1l-0.1,0.1l-0.2,0.1l-0.2,0.1l0,0l-0.2,0.1l0,0l-0.2,0.1l0,0
		l-0.2,0.1l0,0l-0.2,0.1l0,0l-0.2,0.1l0,0l-0.2,0.1l0,0l-0.2,0.1l-0.2,0.1l0,0l-0.2,0.1l0,0l-0.2,0.1h-0.2l0,0h-0.2h-0.2l0,0H678
		l0,0h-0.2l0,0h-0.2h-0.2l0,0h-0.2l0,0H677l0,0h-0.2l0,0h-0.2l0,0h-0.2H676l0,0h-0.2l0,0h-0.4h-0.2c-0.2,0-0.5-0.1-0.7-0.1l0,0
		c-0.2-0.1-0.5-0.1-0.7-0.2l0,0l-0.2-0.1l0,0l-0.3-0.1l-0.3-0.2l-0.2-0.1l0,0l-0.5-0.3l-0.3-0.2l0,0l-0.3-0.2l0,0l-0.1-0.1l0,0
		l-0.2-0.1l-0.1-0.1l0,0l-0.1-0.1l-0.1-0.1l0,0L656.8,232c-2.9-2.9-2.9-7.6,0-10.5l0,0C659.7,218.6,664.4,218.6,667.3,221.5"/>
	<path fill="#BCC2C6" d="M667.3,283.9l9.6,9.6l21.7-21.7c2.9-2.9,7.6-2.9,10.5,0l0,0c2.9,2.9,2.9,7.6,0,10.5l-26.9,26.9l-0.1,0.1
		l0,0l-0.1,0.1l-0.1,0.1l-0.1,0.1l-0.1,0.1l-0.2,0.1l0,0l-0.2,0.1l-0.1,0.1l0,0l-0.2,0.1l-0.2,0.1l0,0l-0.2,0.1l-0.2,0.1l0,0
		l-0.2,0.1l0,0l-0.2,0.1l0,0l-0.2,0.1l0,0l-0.2,0.1l0,0l-0.2,0.1l-0.2,0.1l0,0l-0.2,0.1l0,0h-0.2l0,0h-0.2h-0.2h-0.2l0,0H678l0,0
		h-0.2l0,0h-0.2h-0.2l0,0h-0.2l0,0H677l0,0h-0.2l0,0h-0.2l0,0h-0.2H676l0,0h-0.2h-0.4h-0.2c-0.2,0-0.5-0.1-0.7-0.1l0,0
		c-0.2-0.1-0.5-0.1-0.7-0.2l0,0l-0.2-0.1l0,0l-0.3-0.1l-0.3-0.2l-0.2-0.1l0,0l-0.5-0.3l-0.3-0.2l0,0l-0.3-0.2l0,0l-0.1-0.1l0,0
		l-0.2-0.1l-0.1-0.1l0,0l-0.1-0.1l-0.1-0.1l-14.8-14.8c-2.9-2.9-2.9-7.6,0-10.5l0,0C659.7,281,664.4,281,667.3,283.9"/>
	<path fill="#BCC2C6" d="M667.3,346.3l9.6,9.6l21.7-21.7c2.9-2.9,7.6-2.9,10.5,0l0,0c2.9,2.9,2.9,7.6,0,10.5l-26.9,26.9l-0.1,0.1
		l0,0l-0.1,0.1l-0.1,0.1l-0.1,0.1l-0.1,0.1l-0.2,0.1l0,0l-0.2,0.1l-0.1,0.1l0,0l-0.2,0.1l-0.2,0.1l0,0l-0.2,0.1l-0.2,0.1l0,0
		l-0.2,0.1l0,0L680,373l0,0l-0.2,0.1l0,0l-0.2,0.1l0,0l-0.2,0.1l-0.2,0.1l0,0l-0.2,0.1l0,0l-0.2,0.1l0,0h-0.2l0,0h-0.2h-0.2l0,0H678
		h-0.2l0,0h-0.2h-0.2l0,0h-0.2l0,0H677l0,0h-0.2l0,0h-0.2l0,0h-0.2H676l0,0h-0.2h-0.4h-0.2c-0.2,0-0.5-0.1-0.7-0.1l0,0
		c-0.2-0.1-0.5-0.1-0.7-0.2l0,0l-0.2-0.1l0,0l-0.3-0.1L673,373l-0.2-0.1l0,0l-0.5-0.3l-0.3-0.2l0,0l-0.3-0.2l0,0l-0.1-0.1l0,0
		l-0.2-0.1l-0.1-0.1l0,0l-0.1-0.1l-0.1-0.1l0,0l-14.8-14.8c-2.9-2.9-2.9-7.6,0-10.5l0,0C659.7,343.4,664.4,343.4,667.3,346.3"/>
	<path fill="#BCC2C6" d="M87.5,489.9h633.9c4.1,0,7.4,3.3,7.4,7.4c0,4.1-3.3,7.5-7.4,7.5H87.5c-4.1,0-7.4-3.4-7.4-7.5
		C80.1,493.2,83.4,489.9,87.5,489.9"/>
	<path fill="#BCC2C6" d="M87.5,527.3H397c4.1,0,7.4,3.4,7.4,7.4c0,4.1-3.3,7.5-7.4,7.5H87.5c-4.1,0-7.4-3.4-7.4-7.5
		C80.1,530.7,83.4,527.3,87.5,527.3"/>
	<path fill="#BCC2C6" d="M463.3,630.3H351.8c-4.3,0-8.2,1.8-11,4.6c-2.8,2.8-4.6,6.7-4.6,11l0,0c0,4.3,1.8,8.2,4.6,11l0,0
		c2.8,2.8,6.7,4.6,11,4.6h111.5c4.3,0,8.2-1.8,11-4.6c2.8-2.8,4.6-6.7,4.6-11l0,0c0-4.3-1.8-8.2-4.6-11
		C471.5,632,467.6,630.3,463.3,630.3 M351.8,615h111.5c8.5,0,16.2,3.5,21.8,9.1l0,0c5.6,5.6,9.1,13.3,9.1,21.8l0,0
		c0,8.5-3.5,16.2-9.1,21.8c-5.6,5.6-13.3,9.1-21.8,9.1H351.8c-8.5,0-16.2-3.5-21.8-9.1l0,0l0,0c-5.6-5.6-9.1-13.3-9.1-21.8l0,0
		c0-8.5,3.5-16.2,9.1-21.8C335.6,618.5,343.3,615,351.8,615z"/>
	<path fill="#34495E" d="M345.7,602.4h111.5c8.5,0,16.2,3.5,21.8,9.1l0,0c5.6,5.6,9.1,13.3,9.1,21.8l0,0c0,8.5-3.5,16.2-9.1,21.8
		c-5.6,5.6-13.3,9.1-21.8,9.1H345.7c-8.5,0-16.2-3.5-21.8-9.1l0,0l0,0c-5.6-5.6-9.1-13.3-9.1-21.8l0,0c0-8.5,3.5-16.2,9.1-21.8
		C329.5,605.9,337.2,602.4,345.7,602.4"/>
	<path fill="#27CABF" d="M457.2,611.6c5.8,0,11.3,2.3,15.3,6.4c4.1,4.1,6.4,9.6,6.4,15.3c0,5.8-2.3,11.2-6.4,15.3
		c-4.1,4.1-9.6,6.4-15.3,6.4H345.7c-5.8,0-11.2-2.3-15.3-6.3l0,0c-4.1-4.1-6.3-9.6-6.3-15.3c0-5.8,2.3-11.2,6.4-15.3
		c4.1-4.1,9.5-6.4,15.3-6.4h111.4V611.6z"/>
	<path fill="#51F4E9" d="M457.2,611.6c5.8,0,11.3,2.3,15.3,6.4c4.1,4.1,6.4,9.6,6.4,15.3c0,1.5-0.2,2.9-0.5,4.4
		c-0.8-4.1-2.9-7.9-5.9-11c-4.1-4.1-9.6-6.4-15.3-6.4H345.7c-5.8,0-11.2,2.3-15.3,6.4c-3,3-5.1,6.8-5.9,11c-0.3-1.4-0.4-2.9-0.4-4.4
		c0-5.8,2.3-11.2,6.4-15.3s9.5-6.4,15.3-6.4H457.2z"/>
</g>
</svg>
