<?xml version="1.0" encoding="utf-8"?>
<!-- Generator: Adobe Illustrator 15.1.0, SVG Export Plug-In . SVG Version: 6.00 Build 0)  -->
<!DOCTYPE svg PUBLIC "-//W3C//DTD SVG 1.0//EN" "http://www.w3.org/TR/2001/REC-SVG-20010904/DTD/svg10.dtd">
<svg version="1.0" id="Layer_1" xmlns="http://www.w3.org/2000/svg" xmlns:xlink="http://www.w3.org/1999/xlink" x="0px" y="0px"
	 width="800px" height="800px" viewBox="0 0 800 800" enable-background="new 0 0 800 800" xml:space="preserve">
<g id="Header">
	<path fill="#BCC2C6" d="M33.1,34.5h736.2c8.5,0,16.1,3.5,21.7,9l0,0c5.6,5.6,9,13.2,9,21.7v654.6c0,8.4-3.5,16.1-9,21.7l0,0
		c-5.6,5.6-13.2,9-21.7,9H33.1c-8.5,0-16.1-3.5-21.7-9l0,0c-5.6-5.6-9-13.2-9-21.7V65.2c0-8.4,3.5-16.1,9-21.7l0,0
		C16.9,38,24.6,34.5,33.1,34.5"/>
	<path fill="#EBEFF0" d="M788.9,65.2v654.6c0,12.3-8.6,19.6-19.6,19.6H33.1c-11,0-19.6-7-19.6-19.6V65.2c0-12.8,8.6-19.6,19.6-19.6
		h736.2C780.2,45.6,788.9,52.7,788.9,65.2"/>
	<path fill="#94A4A5" d="M677.6,72.3c7.8,0,14.2,6.4,14.2,14.2s-6.3,14.2-14.2,14.2c-7.9,0-14.2-6.3-14.2-14.2
		C663.4,78.7,669.7,72.3,677.6,72.3 M722.1,72.3c7.8,0,14.2,6.4,14.2,14.2s-6.4,14.2-14.2,14.2c-7.8,0-14.2-6.3-14.2-14.2
		C707.9,78.7,714.3,72.3,722.1,72.3z M633,72.3c7.8,0,14.2,6.4,14.2,14.2s-6.3,14.2-14.2,14.2c-7.8,0-14.2-6.4-14.2-14.2
		S625.2,72.3,633,72.3z"/>
	
		<text transform="matrix(1 0 0 1 128.5005 83.2969)" fill="#93A2A3" font-family="'NexaBold'" font-size="44.0749" letter-spacing="1">COMPLETED</text>
</g>
<g id="Body">
	<path fill="#BCC2C6" d="M29.3,125.8h744.1c7.3,0,14,3,18.8,7.8c4.8,4.8,7.8,11.5,7.8,18.8V725c0,7.3-3,14-7.8,18.8
		s-11.5,7.8-18.8,7.8H29.3c-7.3,0-14-3-18.8-7.8C5.6,739,2.6,732.4,2.6,725V152.5c0-7.3,3-14,7.8-18.8
		C15.3,128.8,21.9,125.8,29.3,125.8"/>
	<path fill="#FFFFFF" d="M29.3,136.9c-4.1,0-8,1.6-10.9,4.6c-2.9,2.9-4.6,6.8-4.6,10.9V725c0,4.1,1.6,8,4.6,10.9
		c2.9,2.9,6.8,4.6,10.9,4.6h744.1c4.1,0,8-1.6,10.9-4.6c2.9-2.9,4.6-6.8,4.6-10.9V152.5c0-4.1-1.6-8-4.6-10.9
		c-2.9-2.9-6.8-4.6-10.9-4.6H29.3V136.9z"/>
	<path fill="#BCC2C6" d="M337.3,326.1l39.2,39.2l88.9-88.9c11.9-11.9,31.3-11.9,43.2,0l0,0c11.9,11.9,11.9,31.3,0,43.2L398.1,430.1
		l-0.6,0.5l0,0l-0.6,0.5l-0.6,0.5l-0.6,0.5l-0.6,0.5l-0.6,0.5l0,0l-0.6,0.4l-0.6,0.4l0,0l-0.6,0.4l-0.6,0.4l0,0l-0.6,0.4l0,0
		l-0.7,0.4l0,0l-0.6,0.3l0,0l-0.7,0.3l0,0l-0.7,0.3l0,0l-0.7,0.3l0,0l-0.7,0.3l0,0l-0.7,0.3l0,0l-0.7,0.2l0,0l-0.7,0.2l0,0l-0.7,0.2
		l0,0l-0.7,0.2l-0.7,0.2l0,0l-0.7,0.1l0,0l-0.7,0.1l0,0l-0.7,0.1l-0.7,0.1l0,0l-0.7,0.1l0,0H379l0,0h-0.7l0,0h-0.7l0,0h-0.7h-1.5
		l0,0h-0.7l0,0l-1.5-0.1l0,0l-0.7-0.1l0,0c-1-0.1-1.9-0.3-2.9-0.6l0,0c-0.9-0.2-1.9-0.5-2.8-0.8l0,0l-0.7-0.3l0,0l-1.4-0.6l0,0
		l-1.3-0.6l0,0l-0.7-0.3l0,0l-2-1.1l0,0l-1.3-0.8l0,0l-1.2-0.9l0,0l-0.6-0.5l0,0l-0.6-0.5l0,0l-0.6-0.5l0,0l-0.6-0.5l0,0l-0.6-0.5
		l0,0l0,0l-60.8-60.8c-11.9-11.9-11.9-31.3,0-43.2l0,0C306,314.2,325.4,314.2,337.3,326.1"/>
	<path fill="#BCC2C6" d="M460.1,630.2H348.6c-4.3,0-8.2,1.8-11,4.6c-2.8,2.8-4.6,6.7-4.6,11l0,0c0,4.3,1.8,8.2,4.6,11l0,0
		c2.8,2.8,6.7,4.6,11,4.6H460c4.3,0,8.2-1.8,11-4.6s4.6-6.7,4.6-11l0,0c0-4.3-1.8-8.2-4.6-11C468.3,631.9,464.4,630.2,460.1,630.2
		 M348.6,614.9H460c8.5,0,16.2,3.5,21.8,9.1l0,0c5.6,5.6,9.1,13.3,9.1,21.8l0,0c0,8.5-3.5,16.2-9.1,21.8c-5.6,5.6-13.3,9.1-21.8,9.1
		H348.6c-8.5,0-16.2-3.5-21.8-9.1l0,0l0,0c-5.6-5.6-9.1-13.3-9.1-21.8l0,0c0-8.5,3.5-16.2,9.1-21.8
		C332.4,618.4,340.2,614.9,348.6,614.9z"/>
	<path fill="#34495E" d="M342.6,602.3H454c8.5,0,16.2,3.5,21.8,9.1l0,0c5.6,5.6,9.1,13.3,9.1,21.8l0,0c0,8.5-3.5,16.2-9.1,21.8
		c-5.6,5.6-13.3,9.1-21.8,9.1H342.6c-8.5,0-16.2-3.5-21.8-9.1l0,0l0,0c-5.6-5.6-9-13.3-9-21.8l0,0c0-8.5,3.5-16.2,9-21.8
		C326.4,605.8,334.1,602.3,342.6,602.3"/>
	<path fill="#27CABF" d="M454,611.5c5.8,0,11.3,2.3,15.3,6.4c4.1,4.1,6.3,9.6,6.3,15.3c0,5.8-2.3,11.2-6.4,15.3
		c-4.1,4.1-9.6,6.4-15.3,6.4H342.6c-5.7,0-11.2-2.3-15.3-6.3l0,0c-4.1-4.1-6.3-9.6-6.3-15.3c0-5.8,2.3-11.2,6.4-15.3
		c4.1-4.1,9.6-6.4,15.3-6.4L454,611.5L454,611.5z"/>
	<path fill="#51F4E9" d="M454,611.5c5.8,0,11.3,2.3,15.3,6.4c4.1,4.1,6.3,9.6,6.3,15.3c0,1.5-0.2,2.9-0.4,4.3
		c-0.9-4.1-2.9-7.9-5.9-10.9c-4.1-4.1-9.6-6.4-15.3-6.4H342.6c-5.8,0-11.2,2.3-15.3,6.4c-3,3-5.1,6.8-5.9,11
		c-0.3-1.4-0.5-2.9-0.5-4.4c0-5.8,2.3-11.2,6.4-15.3c4.1-4.1,9.6-6.4,15.3-6.4H454L454,611.5z"/>
	<path fill="#BCC2C6" d="M172.3,513.8h458.1c4.1,0,7.4,3.4,7.4,7.5c0,4.1-3.3,7.4-7.4,7.4H172.3c-4.1,0-7.4-3.3-7.4-7.4
		C164.8,517.2,168.2,513.8,172.3,513.8"/>
	<path fill="#BCC2C6" d="M290.5,551.2h221.6c4.1,0,7.5,3.4,7.5,7.5c0,4.1-3.3,7.4-7.5,7.4H290.5c-4.1,0-7.5-3.3-7.5-7.4
		C283.1,554.6,286.4,551.2,290.5,551.2"/>
	<path fill="#34495E" d="M337.3,303.7l39.2,39.2l88.9-88.9c11.9-11.9,31.3-11.9,43.2,0l0,0c11.9,11.9,11.9,31.3,0,43.2L398.1,407.7
		l-0.6,0.5l0,0l-0.6,0.5l-0.6,0.5l-0.6,0.5l-0.6,0.5l-0.6,0.5l0,0l-0.6,0.4l-0.6,0.4l0,0l-0.6,0.4l-0.6,0.4l0,0l-0.6,0.4l0,0
		l-0.7,0.4l0,0l-0.6,0.3l0,0l-0.7,0.3l0,0l-0.7,0.3l0,0l-0.7,0.3l0,0l-0.7,0.3l0,0l-0.7,0.3l0,0l-0.7,0.2l0,0l-0.7,0.2l0,0l-0.7,0.2
		l0,0l-0.7,0.2l-0.7,0.2l0,0l-0.7,0.1l0,0l-0.7,0.1l0,0l-0.7,0.1l-0.7,0.1l0,0l-0.7,0.1l0,0H379l0,0h-0.7l0,0h-0.7l0,0h-0.7h-1.5
		l0,0h-0.7l0,0l-1.5-0.1l0,0l-0.7-0.1l0,0c-1-0.1-1.9-0.3-2.9-0.6l0,0c-0.9-0.2-1.9-0.5-2.8-0.8l0,0l-0.7-0.3l0,0l-1.4-0.6l0,0
		l-1.3-0.6l0,0l-0.7-0.3l0,0l-2-1.1l0,0l-1.3-0.8l0,0l-1.2-0.9l0,0l-0.6-0.5l0,0l-0.6-0.5l0,0l-0.6-0.5l0,0l-0.6-0.5l0,0l-0.6-0.5
		l0,0l0,0l-60.8-60.8c-11.9-11.9-11.9-31.3,0-43.2l0,0C306,291.8,325.4,291.8,337.3,303.7"/>
	<path fill="#27CABF" d="M363.9,400.9l0.5,0.4l1,0.7l0.7,0.5l1.5,0.9l1.1,0.5l0.9,0.4l0.3,0.1c0.6,0.2,1.1,0.4,1.7,0.5
		c0.6,0.1,1.3,0.3,1.9,0.4l0.5,0.1l1.2,0.1h1.2h0.9l0.9-0.1h0.5l0.7-0.1l1.1-0.2l0.5-0.1l0.8-0.2l0.9-0.3l0.5-0.2l0.9-0.4l0.8-0.4
		l0.7-0.4l0.9-0.5l1-0.6l1.1-0.8l0.4-0.4l0.6-0.6l0.5-0.5l110.5-110.5c7.5-7.5,7.5-19.9,0-27.5c-7.5-7.5-19.9-7.5-27.5,0l-96.8,96.8
		l-47.1-47.1c-7.5-7.5-19.9-7.5-27.5,0c-7.5,7.5-7.5,19.9,0,27.4l60.7,60.6l0.9,0.8L363.9,400.9z"/>
</g>
</svg>
