<?xml version="1.0" encoding="utf-8"?>
<!-- Generator: Adobe Illustrator 15.1.0, SVG Export Plug-In . SVG Version: 6.00 Build 0)  -->
<!DOCTYPE svg PUBLIC "-//W3C//DTD SVG 1.0//EN" "http://www.w3.org/TR/2001/REC-SVG-20010904/DTD/svg10.dtd">
<svg version="1.0" id="Layer_1" xmlns="http://www.w3.org/2000/svg" xmlns:xlink="http://www.w3.org/1999/xlink" x="0px" y="0px"
	 width="800px" height="800px" viewBox="0 0 800 800" enable-background="new 0 0 800 800" xml:space="preserve">
<g id="Header">
	<path fill="#BCC2C6" d="M33.1,34.5h736.2c8.5,0,16.1,3.5,21.7,9l0,0c5.6,5.6,9,13.2,9,21.7v654.6c0,8.4-3.5,16.1-9,21.7l0,0
		c-5.6,5.6-13.2,9-21.7,9H33.1c-8.5,0-16.1-3.5-21.7-9l0,0c-5.6-5.6-9-13.2-9-21.7V65.2c0-8.4,3.5-16.1,9-21.7l0,0
		C16.9,38,24.6,34.5,33.1,34.5"/>
	<path fill="#EBEFF0" d="M788.9,65.2v654.6c0,12.3-8.6,19.6-19.6,19.6H33.1c-11,0-19.6-7-19.6-19.6V65.2c0-12.8,8.6-19.6,19.6-19.6
		h736.2C780.2,45.6,788.9,52.7,788.9,65.2"/>
	<path fill="#94A4A5" d="M677.6,72.3c7.8,0,14.2,6.4,14.2,14.2s-6.3,14.2-14.2,14.2c-7.9,0-14.2-6.3-14.2-14.2
		C663.4,78.7,669.7,72.3,677.6,72.3 M722.1,72.3c7.8,0,14.2,6.4,14.2,14.2s-6.4,14.2-14.2,14.2c-7.8,0-14.2-6.3-14.2-14.2
		C707.9,78.7,714.3,72.3,722.1,72.3z M633,72.3c7.8,0,14.2,6.4,14.2,14.2s-6.3,14.2-14.2,14.2c-7.8,0-14.2-6.4-14.2-14.2
		S625.2,72.3,633,72.3z"/>
	
		<text transform="matrix(1 0 0 1 162.1675 85.2969)" fill="#93A2A3" font-family="'NexaBold'" font-size="44.0749" letter-spacing="1">DELIVERY</text>
</g>
<g id="Body">
	<path fill="#BCC2C6" d="M29.1,126.2H773c7.3,0,14,3,18.8,7.8s7.8,11.5,7.8,18.8v572.5c0,7.3-3,14-7.8,18.8
		c-4.8,4.8-11.5,7.8-18.8,7.8H29.1c-7.3,0-14-3-18.8-7.8c-4.8-4.8-7.8-11.5-7.8-18.8V152.8c0-7.3,3-14,7.8-18.8
		C15.1,129.2,21.8,126.2,29.1,126.2"/>
	<path fill="#FFFFFF" d="M29.1,137.3c-4.1,0-8,1.6-10.9,4.6c-2.9,2.9-4.6,6.8-4.6,10.9v572.5c0,4.1,1.6,8,4.6,10.9
		c2.9,2.9,6.8,4.6,10.9,4.6H773c4.1,0,8-1.7,11-4.6c2.9-2.9,4.5-6.8,4.5-10.9V152.8c0-4.1-1.6-8-4.5-10.9s-6.8-4.6-11-4.6H29.1z"/>
	<path fill="#BCC2C6" d="M85.8,276.7h355.7c5.3,0,9.7,4.3,9.7,9.7v39.5c0,5.3-4.3,9.7-9.7,9.7H85.8c-5.3,0-9.6-4.3-9.6-9.7v-39.5
		C76.1,281,80.5,276.7,85.8,276.7"/>
	<path fill="#BCC2C6" d="M85.8,385h355.7c5.3,0,9.7,4.3,9.7,9.7v39.5c0,5.3-4.3,9.7-9.7,9.7H85.8c-5.3,0-9.6-4.3-9.6-9.7v-39.5
		C76.1,389.3,80.5,385,85.8,385"/>
	<path fill="#BCC2C6" d="M85.8,493.3h355.7c5.3,0,9.7,4.3,9.7,9.7v39.5c0,5.3-4.3,9.7-9.7,9.7H85.8c-5.3,0-9.6-4.3-9.6-9.7V503
		C76.1,497.6,80.5,493.3,85.8,493.3"/>
	<rect x="86.4" y="504.4" fill="#FFFFFF" width="354.5" height="36.6"/>
	<rect x="86.4" y="396.1" fill="#FFFFFF" width="354.5" height="36.6"/>
	<rect x="86.4" y="287.8" fill="#FFFFFF" width="354.5" height="36.6"/>
	<path fill="#BCC2C6" d="M85.8,595.9h355.7c5.3,0,9.7,4.3,9.7,9.7v39.5c0,5.3-4.3,9.7-9.7,9.7H85.8c-5.3,0-9.6-4.3-9.6-9.7v-39.5
		C76.1,600.3,80.5,595.9,85.8,595.9"/>
	<rect x="86.4" y="607" fill="#FFFFFF" width="354.5" height="36.6"/>
	<path fill="#BCC2C6" d="M521.8,316.1h196.4c4.3,0,7.9,3.5,7.9,7.9l0,0c0,4.3-3.5,7.9-7.9,7.9H521.8c-4.3,0-7.9-3.5-7.9-7.9l0,0
		C514,319.7,517.5,316.1,521.8,316.1"/>
	<path fill="#BCC2C6" d="M521.8,355.7h196.4c4.3,0,7.9,3.5,7.9,7.9l0,0c0,4.3-3.5,7.9-7.9,7.9H521.8c-4.3,0-7.9-3.5-7.9-7.9l0,0
		C514,359.3,517.5,355.7,521.8,355.7"/>
	<path fill="#BCC2C6" d="M521.8,395.4h196.4c4.3,0,7.9,3.5,7.9,7.9l0,0c0,4.3-3.5,7.9-7.9,7.9H521.8c-4.3,0-7.9-3.5-7.9-7.9l0,0
		C514,398.9,517.5,395.4,521.8,395.4"/>
	<path fill="#BCC2C6" d="M521.8,435h196.4c4.3,0,7.9,3.5,7.9,7.9l0,0c0,4.3-3.5,7.9-7.9,7.9H521.8c-4.3,0-7.9-3.5-7.9-7.9l0,0
		C514,438.5,517.5,435,521.8,435"/>
	<path fill="#BCC2C6" d="M521.8,474.6h124.8c4.3,0,7.9,3.5,7.9,7.9l0,0c0,4.3-3.6,7.9-7.9,7.9H521.8c-4.3,0-7.9-3.5-7.9-7.9l0,0
		C514,478.2,517.5,474.6,521.8,474.6"/>
	<path fill="#BCC2C6" d="M521.8,276.7h124.8c4.3,0,7.9,3.6,7.9,7.9l0,0c0,4.3-3.6,7.9-7.9,7.9H521.8c-4.3,0-7.9-3.6-7.9-7.9l0,0
		C514,280.2,517.5,276.7,521.8,276.7"/>
	<path fill="#BCC2C6" d="M664.8,611.2H553.4c-4.3,0-8.2,1.8-11,4.6c-2.8,2.8-4.6,6.7-4.6,11s1.8,8.2,4.6,11l0,0
		c2.8,2.8,6.7,4.6,11,4.6h111.4c4.3,0,8.2-1.8,11-4.6s4.6-6.7,4.6-11s-1.8-8.2-4.6-11S669.1,611.2,664.8,611.2 M553.4,596h111.4
		c8.5,0,16.2,3.5,21.8,9.1l0,0c5.6,5.6,9,13.3,9,21.8s-3.5,16.2-9,21.8c-5.6,5.6-13.3,9.1-21.8,9.1H553.4c-8.5,0-16.2-3.5-21.8-9.1
		l0,0l0,0c-5.6-5.6-9.1-13.3-9.1-21.8s3.5-16.2,9.1-21.8C537.2,599.4,544.9,596,553.4,596z"/>
	<path fill="#34495E" d="M547.3,583.3h111.4c8.5,0,16.2,3.5,21.8,9.1l0,0c5.6,5.6,9.1,13.3,9.1,21.8s-3.5,16.2-9.1,21.8
		s-13.3,9.1-21.8,9.1H547.3c-8.5,0-16.2-3.5-21.8-9.1l0,0l0,0c-5.6-5.6-9-13.3-9-21.8s3.5-16.2,9-21.8
		C531.1,586.8,538.8,583.3,547.3,583.3"/>
	<path fill="#27CABF" d="M658.7,592.5c5.8,0,11.3,2.3,15.3,6.3c4.1,4.1,6.3,9.6,6.3,15.3c0,5.8-2.3,11.2-6.4,15.3
		c-4.1,4.1-9.5,6.4-15.3,6.4H547.3c-5.7,0-11.2-2.3-15.3-6.3l0,0c-4.1-4.1-6.3-9.6-6.3-15.3c0-5.8,2.3-11.2,6.4-15.3
		c4.1-4.1,9.5-6.4,15.3-6.4H658.7z"/>
	<path fill="#51F4E9" d="M658.7,592.5c5.8,0,11.3,2.3,15.3,6.3c4.1,4.1,6.3,9.6,6.3,15.3c0,1.5-0.2,2.9-0.4,4.3
		c-0.9-4.1-2.9-7.9-5.9-10.9c-4.1-4.1-9.6-6.3-15.3-6.3H547.3c-5.8,0-11.2,2.3-15.3,6.4c-3,3-5.1,6.8-5.9,11
		c-0.3-1.4-0.4-2.9-0.4-4.4c0-5.8,2.3-11.2,6.4-15.3c4.1-4.1,9.5-6.4,15.3-6.4H658.7L658.7,592.5z"/>
	<path fill="#34495E" d="M83.6,201.7h360.1c4.1,0,7.4,3.3,7.4,7.4l0,0c0,4.1-3.3,7.4-7.4,7.4H83.6c-4.1,0-7.4-3.3-7.4-7.4l0,0
		C76.1,205,79.5,201.7,83.6,201.7"/>
</g>
</svg>
