<?xml version="1.0" encoding="utf-8"?>
<!-- Generator: Adobe Illustrator 15.1.0, SVG Export Plug-In . SVG Version: 6.00 Build 0)  -->
<!DOCTYPE svg PUBLIC "-//W3C//DTD SVG 1.0//EN" "http://www.w3.org/TR/2001/REC-SVG-20010904/DTD/svg10.dtd">
<svg version="1.0" id="Layer_1" xmlns="http://www.w3.org/2000/svg" xmlns:xlink="http://www.w3.org/1999/xlink" x="0px" y="0px"
	 width="800px" height="800px" viewBox="0 0 800 800" enable-background="new 0 0 800 800" xml:space="preserve">
<g id="Header">
	<path fill="#BCC2C6" d="M33.1,34.5h736.2c8.5,0,16.1,3.5,21.7,9l0,0c5.6,5.6,9,13.2,9,21.7v654.6c0,8.4-3.5,16.1-9,21.7l0,0
		c-5.6,5.6-13.2,9-21.7,9H33.1c-8.5,0-16.1-3.5-21.7-9l0,0c-5.6-5.6-9-13.2-9-21.7V65.2c0-8.4,3.5-16.1,9-21.7l0,0
		C16.9,38,24.6,34.5,33.1,34.5"/>
	<path fill="#EBEFF0" d="M788.9,65.2v654.6c0,12.3-8.6,19.6-19.6,19.6H33.1c-11,0-19.6-7-19.6-19.6V65.2c0-12.8,8.6-19.6,19.6-19.6
		h736.2C780.2,45.6,788.9,52.7,788.9,65.2"/>
	<path fill="#94A4A5" d="M677.6,72.3c7.8,0,14.2,6.4,14.2,14.2s-6.3,14.2-14.2,14.2c-7.9,0-14.2-6.3-14.2-14.2
		C663.4,78.7,669.7,72.3,677.6,72.3 M722.1,72.3c7.8,0,14.2,6.4,14.2,14.2s-6.4,14.2-14.2,14.2c-7.8,0-14.2-6.3-14.2-14.2
		C707.9,78.7,714.3,72.3,722.1,72.3z M633,72.3c7.8,0,14.2,6.4,14.2,14.2s-6.3,14.2-14.2,14.2c-7.8,0-14.2-6.4-14.2-14.2
		S625.2,72.3,633,72.3z"/>
	
		<text transform="matrix(1 0 0 1 197.0005 83.2969)" fill="#93A2A3" font-family="'NexaBold'" font-size="44.0749" letter-spacing="2">ITEMS</text>
</g>
<g id="Body">
	<path fill="#BCC2C6" d="M28.8,125.1h744.5c7.3,0,14,3,18.8,7.8c4.8,4.8,7.8,11.5,7.8,18.8v572.9c0,7.3-3,14-7.8,18.8
		c-4.8,4.8-11.5,7.8-18.8,7.8H28.8c-7.3,0-14-3-18.8-7.8c-4.8-4.8-7.8-11.5-7.8-18.8V151.7c0-7.3,3-14,7.8-18.8
		C14.8,128.1,21.5,125.1,28.8,125.1"/>
	<path fill="#FFFFFF" d="M28.8,136.2c-4.1,0-8,1.6-10.9,4.6c-2.9,2.9-4.6,6.8-4.6,11v572.9c0,4.1,1.6,8,4.6,11
		c2.9,2.9,6.8,4.6,10.9,4.6h744.5c4.1,0,8-1.7,11-4.6c2.9-2.9,4.5-6.8,4.5-11v-573c0-4.1-1.6-8-4.5-11c-2.9-2.9-6.8-4.6-11-4.6H28.8
		V136.2z"/>
	<polygon fill="#34495E" points="106.6,184.4 349.8,184.4 357.8,184.4 357.8,192.4 357.8,317.9 357.8,325.9 349.8,325.9 
		106.6,325.9 98.6,325.9 98.6,317.9 98.6,192.4 98.6,184.4 	"/>
	<rect x="108.4" y="194.2" fill="#F29B12" width="239.6" height="121.9"/>
	<path fill="#BCC2C6" d="M273,381.8h-84.5c-3.2,0-6.2,1.3-8.3,3.5c-2.1,2.1-3.5,5.1-3.5,8.3c0,3.3,1.3,6.2,3.4,8.3l0,0
		c2.1,2.1,5.1,3.5,8.3,3.5H273c3.3,0,6.2-1.3,8.4-3.5c2.1-2.1,3.5-5.1,3.5-8.3c0-3.3-1.3-6.2-3.5-8.4
		C279.3,383.2,276.3,381.8,273,381.8 M188.6,370.3H273c6.4,0,12.3,2.6,16.5,6.9l0,0c4.2,4.2,6.9,10.1,6.9,16.5
		c0,6.4-2.6,12.3-6.9,16.5c-4.2,4.2-10.1,6.9-16.5,6.9h-84.5c-6.4,0-12.3-2.6-16.5-6.9l0,0l0,0c-4.2-4.2-6.9-10.1-6.9-16.5
		c0-6.4,2.6-12.3,6.9-16.5C176.3,372.9,182.1,370.3,188.6,370.3z"/>
	<path fill="#34495E" d="M184,360.7h84.5c6.4,0,12.3,2.6,16.5,6.9l0,0c4.2,4.2,6.9,10.1,6.9,16.5s-2.6,12.3-6.9,16.5
		c-4.2,4.2-10.1,6.9-16.5,6.9H184c-6.4,0-12.3-2.6-16.5-6.9l0,0l0,0c-4.2-4.3-6.9-10.1-6.9-16.5s2.6-12.3,6.9-16.5
		C171.7,363.3,177.5,360.7,184,360.7"/>
	<path fill="#27CABF" d="M268.5,367.7c4.4,0,8.5,1.7,11.6,4.8s4.8,7.3,4.8,11.6c0,4.4-1.7,8.5-4.8,11.6c-3.1,3.1-7.3,4.8-11.6,4.8
		H184c-4.4,0-8.5-1.7-11.6-4.8l0,0c-3.1-3.1-4.8-7.3-4.8-11.6c0-4.4,1.7-8.5,4.8-11.6s7.3-4.8,11.6-4.8H268.5z"/>
	<path fill="#51F4E9" d="M268.5,367.7c4.4,0,8.5,1.7,11.6,4.8s4.8,7.3,4.8,11.6c0,1.1-0.1,2.2-0.3,3.3c-0.6-3.1-2.2-6-4.5-8.3
		c-3.1-3.1-7.3-4.8-11.6-4.8H184c-4.4,0-8.5,1.7-11.6,4.8c-2.3,2.3-3.8,5.2-4.5,8.3c-0.2-1.1-0.3-2.2-0.3-3.3
		c0-4.4,1.7-8.5,4.8-11.6s7.3-4.8,11.6-4.8H268.5z"/>
	<polygon fill="#34495E" points="452.4,184.4 695.6,184.4 703.6,184.4 703.6,192.4 703.6,317.9 703.6,325.9 695.6,325.9 
		452.4,325.9 444.4,325.9 444.4,317.9 444.4,192.4 444.4,184.4 	"/>
	<rect x="454.2" y="194.2" fill="#F29B12" width="239.6" height="121.9"/>
	<path fill="#BCC2C6" d="M618.9,381.8h-84.5c-3.3,0-6.2,1.3-8.3,3.5c-2.1,2.1-3.5,5.1-3.5,8.3c0,3.3,1.3,6.2,3.4,8.3l0,0
		c2.1,2.1,5.1,3.5,8.3,3.5h84.5c3.3,0,6.2-1.3,8.3-3.5c2.1-2.1,3.5-5.1,3.5-8.3c0-3.3-1.3-6.2-3.5-8.4
		C625.1,383.2,622.1,381.8,618.9,381.8 M534.4,370.3h84.5c6.4,0,12.3,2.6,16.5,6.9l0,0c4.2,4.2,6.9,10.1,6.9,16.5
		c0,6.4-2.6,12.3-6.9,16.5c-4.3,4.2-10.1,6.9-16.5,6.9h-84.5c-6.4,0-12.3-2.6-16.5-6.9l0,0l0,0c-4.2-4.2-6.9-10.1-6.9-16.5
		c0-6.4,2.6-12.3,6.9-16.5C522.1,372.9,528,370.3,534.4,370.3z"/>
	<path fill="#34495E" d="M529.8,360.7h84.5c6.4,0,12.3,2.6,16.5,6.9l0,0c4.2,4.2,6.9,10.1,6.9,16.5s-2.6,12.3-6.9,16.5
		c-4.2,4.2-10.1,6.9-16.5,6.9h-84.5c-6.4,0-12.3-2.6-16.5-6.9l0,0l0,0c-4.2-4.3-6.9-10.1-6.9-16.5s2.6-12.3,6.9-16.5
		C517.5,363.3,523.4,360.7,529.8,360.7"/>
	<path fill="#27CABF" d="M614.3,367.7c4.4,0,8.5,1.7,11.6,4.8c3.1,3.1,4.8,7.3,4.8,11.6c0,4.4-1.7,8.5-4.8,11.6
		c-3.1,3.1-7.2,4.8-11.6,4.8h-84.5c-4.4,0-8.5-1.7-11.6-4.8l0,0c-3.1-3.1-4.8-7.3-4.8-11.6c0-4.4,1.7-8.5,4.8-11.6
		c3.1-3.1,7.3-4.8,11.6-4.8H614.3z"/>
	<path fill="#51F4E9" d="M614.3,367.7c4.4,0,8.5,1.7,11.6,4.8c3.1,3.1,4.8,7.3,4.8,11.6c0,1.1-0.1,2.2-0.3,3.3
		c-0.6-3.1-2.2-6-4.5-8.3c-3.1-3.1-7.3-4.8-11.6-4.8h-84.5c-4.4,0-8.5,1.7-11.6,4.8c-2.3,2.3-3.8,5.2-4.5,8.3
		c-0.2-1.1-0.3-2.2-0.3-3.3c0-4.4,1.7-8.5,4.8-11.6c3.1-3.1,7.3-4.8,11.6-4.8H614.3z"/>
	<polygon fill="#34495E" points="106.6,459.3 349.8,459.3 357.8,459.3 357.8,467.3 357.8,592.8 357.8,600.8 349.8,600.8 
		106.6,600.8 98.6,600.8 98.6,592.8 98.6,467.3 98.6,459.3 	"/>
	<rect x="108.4" y="469.1" fill="#F29B12" width="239.6" height="121.9"/>
	<path fill="#BCC2C6" d="M273,656.8h-84.5c-3.2,0-6.2,1.3-8.3,3.5c-2.1,2.1-3.5,5.1-3.5,8.3c0,3.3,1.3,6.2,3.4,8.3l0,0
		c2.1,2.1,5.1,3.5,8.3,3.5H273c3.3,0,6.2-1.3,8.4-3.5c2.1-2.1,3.5-5.1,3.5-8.3c0-3.3-1.3-6.2-3.5-8.4
		C279.3,658.1,276.3,656.8,273,656.8 M188.6,645.2H273c6.4,0,12.3,2.6,16.5,6.9l0,0c4.2,4.2,6.9,10.1,6.9,16.5
		c0,6.4-2.6,12.3-6.9,16.5c-4.2,4.2-10.1,6.9-16.5,6.9h-84.5c-6.4,0-12.3-2.6-16.5-6.9l0,0l0,0c-4.2-4.2-6.9-10.1-6.9-16.5
		c0-6.4,2.6-12.3,6.9-16.5C176.3,647.8,182.1,645.2,188.6,645.2z"/>
	<path fill="#34495E" d="M184,635.6h84.5c6.4,0,12.3,2.6,16.5,6.9l0,0c4.2,4.2,6.9,10.1,6.9,16.5l0,0c0,6.4-2.6,12.3-6.9,16.5
		c-4.2,4.2-10.1,6.9-16.5,6.9H184c-6.4,0-12.3-2.6-16.5-6.9l0,0l0,0c-4.2-4.2-6.9-10.1-6.9-16.5l0,0c0-6.4,2.6-12.3,6.9-16.5
		C171.7,638.3,177.5,635.6,184,635.6"/>
	<path fill="#27CABF" d="M268.5,642.6c4.4,0,8.5,1.7,11.6,4.8c3.1,3.1,4.8,7.3,4.8,11.6c0,4.4-1.7,8.5-4.8,11.6
		c-3.1,3.1-7.3,4.8-11.6,4.8H184c-4.4,0-8.5-1.7-11.6-4.8l0,0c-3.1-3.1-4.8-7.2-4.8-11.6s1.7-8.5,4.8-11.6c3.1-3.1,7.3-4.8,11.6-4.8
		H268.5z"/>
	<path fill="#51F4E9" d="M268.5,642.6c4.4,0,8.5,1.7,11.6,4.8c3.1,3.1,4.8,7.3,4.8,11.6c0,1.1-0.1,2.2-0.3,3.3
		c-0.6-3.1-2.2-6-4.5-8.3c-3.1-3.1-7.3-4.8-11.6-4.8H184c-4.4,0-8.5,1.7-11.6,4.8c-2.3,2.3-3.8,5.2-4.5,8.3
		c-0.2-1.1-0.3-2.2-0.3-3.3c0-4.4,1.7-8.5,4.8-11.6c3.1-3.1,7.3-4.8,11.6-4.8H268.5z"/>
	<polygon fill="#34495E" points="452.4,459.3 695.6,459.3 703.6,459.3 703.6,467.3 703.6,592.8 703.6,600.8 695.6,600.8 
		452.4,600.8 444.4,600.8 444.4,592.8 444.4,467.3 444.4,459.3 	"/>
	<rect x="454.2" y="469.1" fill="#F29B12" width="239.6" height="121.9"/>
	<path fill="#BCC2C6" d="M618.9,656.8h-84.5c-3.3,0-6.2,1.3-8.3,3.5c-2.1,2.1-3.5,5.1-3.5,8.3c0,3.3,1.3,6.2,3.4,8.3l0,0
		c2.1,2.1,5.1,3.5,8.3,3.5h84.5c3.3,0,6.2-1.3,8.3-3.5c2.1-2.1,3.5-5.1,3.5-8.3c0-3.3-1.3-6.2-3.5-8.4
		C625.1,658.1,622.1,656.8,618.9,656.8 M534.4,645.2h84.5c6.4,0,12.3,2.6,16.5,6.9l0,0c4.2,4.2,6.9,10.1,6.9,16.5
		c0,6.4-2.6,12.3-6.9,16.5c-4.3,4.2-10.1,6.9-16.5,6.9h-84.5c-6.4,0-12.3-2.6-16.5-6.9l0,0l0,0c-4.2-4.2-6.9-10.1-6.9-16.5
		c0-6.4,2.6-12.3,6.9-16.5C522.1,647.8,528,645.2,534.4,645.2z"/>
	<path fill="#34495E" d="M529.8,635.6h84.5c6.4,0,12.3,2.6,16.5,6.9l0,0c4.2,4.2,6.9,10.1,6.9,16.5l0,0c0,6.4-2.6,12.3-6.9,16.5
		c-4.2,4.2-10.1,6.9-16.5,6.9h-84.5c-6.4,0-12.3-2.6-16.5-6.9l0,0l0,0c-4.2-4.2-6.9-10.1-6.9-16.5l0,0c0-6.4,2.6-12.3,6.9-16.5
		C517.5,638.3,523.4,635.6,529.8,635.6"/>
	<path fill="#27CABF" d="M614.3,642.6c4.4,0,8.5,1.7,11.6,4.8c3.1,3.1,4.8,7.3,4.8,11.6c0,4.4-1.7,8.5-4.8,11.6
		c-3.1,3.1-7.2,4.8-11.6,4.8h-84.5c-4.4,0-8.5-1.7-11.6-4.8l0,0c-3.1-3.1-4.8-7.2-4.8-11.6s1.7-8.5,4.8-11.6
		c3.1-3.1,7.3-4.8,11.6-4.8H614.3z"/>
	<path fill="#51F4E9" d="M614.3,642.6c4.4,0,8.5,1.7,11.6,4.8c3.1,3.1,4.8,7.3,4.8,11.6c0,1.1-0.1,2.2-0.3,3.3
		c-0.6-3.1-2.2-6-4.5-8.3c-3.1-3.1-7.3-4.8-11.6-4.8h-84.5c-4.4,0-8.5,1.7-11.6,4.8c-2.3,2.3-3.8,5.2-4.5,8.3
		c-0.2-1.1-0.3-2.2-0.3-3.3c0-4.4,1.7-8.5,4.8-11.6c3.1-3.1,7.3-4.8,11.6-4.8H614.3z"/>
	<polygon fill="#D5840C" points="228.2,218 246.6,228.6 265,239.2 265,260.5 265,281.8 246.6,292.4 228.2,303.1 209.7,292.4 
		191.3,281.8 191.3,260.5 191.3,239.2 209.7,228.6 	"/>
	<polygon fill="#34495E" points="228.2,208.9 246.6,219.6 265,230.2 265,251.5 265,272.8 246.6,283.4 228.2,294.1 209.7,283.4 
		191.3,272.8 191.3,251.5 191.3,230.2 209.7,219.6 	"/>
	<path fill="#F8FBB9" d="M224.5,283.4l-11.1-6.4l-14.8-8.5v-17v-13.3l25.8,14.9v30.3H224.5z M257.7,238.3v13.3v17l-14.7,8.5
		l-11.1,6.4v-30.3L257.7,238.3z M228.2,217.4l14.8,8.5l10.6,6.2l-25.4,14.7l-25.4-14.7l10.7-6.2L228.2,217.4z"/>
	<polygon fill="#D5840C" points="574,218 592.4,228.6 610.9,239.2 610.9,260.5 610.9,281.8 592.4,292.4 574,303.1 555.6,292.4 
		537.2,281.8 537.2,260.5 537.2,239.2 555.6,228.6 	"/>
	<polygon fill="#34495E" points="574,208.9 592.4,219.6 610.9,230.2 610.9,251.5 610.9,272.8 592.4,283.4 574,294.1 555.6,283.4 
		537.2,272.8 537.2,251.5 537.2,230.2 555.6,219.6 	"/>
	<path fill="#F8FBB9" d="M570.3,283.4l-11.1-6.4l-14.7-8.5v-17v-13.3l25.8,14.9V283.4z M603.5,238.3v13.3v17l-14.7,8.5l-11.1,6.4
		v-30.3L603.5,238.3z M574,217.4l14.8,8.5l10.6,6.2L574,246.8l-25.4-14.7l10.7-6.2L574,217.4z"/>
	<polygon fill="#D5840C" points="574,493.9 592.4,504.5 610.9,515.2 610.9,536.5 610.9,557.7 592.4,568.4 574,579 555.6,568.4 
		537.2,557.7 537.2,536.5 537.2,515.2 555.6,504.5 	"/>
	<polygon fill="#34495E" points="574,484.9 592.4,495.5 610.9,506.2 610.9,527.5 610.9,548.7 592.4,559.4 574,570 555.6,559.4 
		537.2,548.7 537.2,527.5 537.2,506.2 555.6,495.5 	"/>
	<path fill="#F8FBB9" d="M570.3,559.4l-11.1-6.4l-14.7-8.5v-17v-13.2l25.8,14.9V559.4z M603.5,514.2v13.2v17l-14.7,8.5l-11.1,6.4
		V529L603.5,514.2z M574,493.4l14.8,8.5l10.6,6.2L574,522.7L548.6,508l10.7-6.2L574,493.4z"/>
	<polygon fill="#D5840C" points="228.2,493.9 246.6,504.5 265,515.2 265,536.5 265,557.7 246.6,568.4 228.2,579 209.7,568.4 
		191.3,557.7 191.3,536.5 191.3,515.2 209.7,504.5 	"/>
	<polygon fill="#34495E" points="228.2,484.9 246.6,495.5 265,506.2 265,527.5 265,548.7 246.6,559.4 228.2,570 209.7,559.4 
		191.3,548.7 191.3,527.5 191.3,506.2 209.7,495.5 	"/>
	<path fill="#F8FBB9" d="M224.5,559.4l-11.1-6.4l-14.8-8.5v-17v-13.2l25.8,14.9v30.2H224.5z M257.7,514.2v13.2v17l-14.7,8.5
		l-11.1,6.4V529L257.7,514.2z M228.2,493.4l14.8,8.5l10.6,6.2l-25.4,14.7l-25.4-14.7l10.7-6.2L228.2,493.4z"/>
</g>
</svg>
