<?xml version="1.0" encoding="utf-8"?>
<!-- Generator: Adobe Illustrator 15.1.0, SVG Export Plug-In . SVG Version: 6.00 Build 0)  -->
<!DOCTYPE svg PUBLIC "-//W3C//DTD SVG 1.0//EN" "http://www.w3.org/TR/2001/REC-SVG-20010904/DTD/svg10.dtd">
<svg version="1.0" id="Layer_1" xmlns="http://www.w3.org/2000/svg" xmlns:xlink="http://www.w3.org/1999/xlink" x="0px" y="0px"
	 width="800px" height="800px" viewBox="0 0 800 800" enable-background="new 0 0 800 800" xml:space="preserve">
<g id="Header">
	<path fill="#BCC2C6" d="M33.1,34.5h736.2c8.5,0,16.1,3.5,21.7,9l0,0c5.6,5.6,9,13.2,9,21.7v654.6c0,8.4-3.5,16.1-9,21.7l0,0
		c-5.6,5.6-13.2,9-21.7,9H33.1c-8.5,0-16.1-3.5-21.7-9l0,0c-5.6-5.6-9-13.2-9-21.7V65.2c0-8.4,3.5-16.1,9-21.7l0,0
		C16.9,38,24.6,34.5,33.1,34.5"/>
	<path fill="#EBEFF0" d="M788.9,65.2v654.6c0,12.3-8.6,19.6-19.6,19.6H33.1c-11,0-19.6-7-19.6-19.6V65.2c0-12.8,8.6-19.6,19.6-19.6
		h736.2C780.2,45.6,788.9,52.7,788.9,65.2"/>
	<path fill="#94A4A5" d="M677.6,72.3c7.8,0,14.2,6.4,14.2,14.2s-6.3,14.2-14.2,14.2c-7.9,0-14.2-6.3-14.2-14.2
		C663.4,78.7,669.7,72.3,677.6,72.3 M722.1,72.3c7.8,0,14.2,6.4,14.2,14.2s-6.4,14.2-14.2,14.2c-7.8,0-14.2-6.3-14.2-14.2
		C707.9,78.7,714.3,72.3,722.1,72.3z M633,72.3c7.8,0,14.2,6.4,14.2,14.2s-6.3,14.2-14.2,14.2c-7.8,0-14.2-6.4-14.2-14.2
		S625.2,72.3,633,72.3z"/>
	
		<text transform="matrix(1 0 0 1 205.0005 84.2969)" fill="#93A2A3" font-family="'NexaBold'" font-size="44.0749" letter-spacing="2">ITEMS</text>
</g>
<g id="Body">
	<path fill="#BCC2C6" d="M29.1,124.9h744.2c7.3,0,14,3,18.8,7.8c4.8,4.8,7.8,11.5,7.8,18.8v572.7c0,7.3-3,14-7.8,18.8
		c-4.8,4.8-11.5,7.8-18.8,7.8H29.1c-7.3,0-14-3-18.8-7.8c-4.8-4.8-7.8-11.5-7.8-18.8V151.6c0-7.3,3-14,7.8-18.8
		C15.1,127.9,21.8,124.9,29.1,124.9"/>
	<path fill="#FFFFFF" d="M29.1,136.1c-4.1,0-8,1.6-10.9,4.6c-2.9,2.9-4.6,6.8-4.6,11v572.7c0,4.1,1.6,8,4.6,11
		c2.9,2.9,6.8,4.6,10.9,4.6h744.2c4.1,0,8-1.7,10.9-4.6c2.9-2.9,4.6-6.8,4.6-11V151.6c0-4.1-1.6-8-4.6-11c-2.9-2.9-6.8-4.6-10.9-4.6
		H29.1V136.1z"/>
	<rect x="87.6" y="200.1" fill="#34495E" width="103.6" height="103.6"/>
	<rect x="99" y="211.4" fill="#F29B12" width="80.8" height="80.8"/>
	<path fill="#BCC2C6" d="M221.4,225.7h167.9c4.1,0,7.5,3.3,7.5,7.4s-3.3,7.5-7.5,7.5H221.4c-4.1,0-7.4-3.4-7.4-7.5
		S217.3,225.7,221.4,225.7"/>
	<path fill="#BCC2C6" d="M221.4,263.1h145.2c4.1,0,7.5,3.3,7.5,7.4s-3.3,7.5-7.5,7.5H221.4c-4.1,0-7.4-3.4-7.4-7.5
		S217.3,263.1,221.4,263.1"/>
	<rect x="440.6" y="200.1" fill="#34495E" width="103.6" height="103.6"/>
	<rect x="451.9" y="211.4" fill="#F29B12" width="80.8" height="80.8"/>
	<path fill="#BCC2C6" d="M574.4,225.7h167.9c4.1,0,7.5,3.3,7.5,7.4s-3.3,7.5-7.5,7.5H574.4c-4.1,0-7.4-3.4-7.4-7.5
		S570.3,225.7,574.4,225.7"/>
	<path fill="#BCC2C6" d="M574.4,263.1h145.2c4.1,0,7.4,3.3,7.4,7.4s-3.3,7.5-7.4,7.5H574.4c-4.1,0-7.4-3.4-7.4-7.5
		S570.3,263.1,574.4,263.1"/>
	<rect x="87.6" y="359.9" fill="#34495E" width="103.6" height="103.6"/>
	<rect x="99" y="371.3" fill="#F29B12" width="80.8" height="80.8"/>
	<path fill="#BCC2C6" d="M221.4,385.5h167.9c4.1,0,7.5,3.4,7.5,7.5c0,4.1-3.3,7.4-7.5,7.4H221.4c-4.1,0-7.4-3.3-7.4-7.4
		C214,388.9,217.3,385.5,221.4,385.5"/>
	<path fill="#BCC2C6" d="M221.4,423h145.2c4.1,0,7.5,3.3,7.5,7.4c0,4.1-3.3,7.4-7.5,7.4H221.4c-4.1,0-7.4-3.3-7.4-7.4
		C214,426.3,217.3,423,221.4,423"/>
	<rect x="440.6" y="359.9" fill="#34495E" width="103.6" height="103.6"/>
	<rect x="451.9" y="371.3" fill="#F29B12" width="80.8" height="80.8"/>
	<path fill="#BCC2C6" d="M574.4,385.5h167.9c4.1,0,7.5,3.4,7.5,7.5c0,4.1-3.3,7.4-7.5,7.4H574.4c-4.1,0-7.4-3.3-7.4-7.4
		C567,388.9,570.3,385.5,574.4,385.5"/>
	<path fill="#BCC2C6" d="M574.4,423h145.2c4.1,0,7.4,3.3,7.4,7.4c0,4.1-3.3,7.4-7.4,7.4H574.4c-4.1,0-7.4-3.3-7.4-7.4
		C567,426.3,570.3,423,574.4,423"/>
	<path fill="#BCC2C6" d="M95,570h361.1c4.1,0,7.5,3.3,7.5,7.4c0,4.1-3.3,7.5-7.5,7.5H95c-4.1,0-7.5-3.4-7.5-7.5
		C87.6,573.3,90.9,570,95,570"/>
	<path fill="#BCC2C6" d="M95,607.4h361.1c4.1,0,7.5,3.4,7.5,7.4c0,4.1-3.3,7.5-7.5,7.5H95c-4.1,0-7.5-3.4-7.5-7.5
		C87.6,610.8,90.9,607.4,95,607.4"/>
	<path fill="#BCC2C6" d="M95,644.8h173.1c4.1,0,7.5,3.4,7.5,7.4l0,0c0,4.1-3.3,7.4-7.5,7.4H95c-4.1,0-7.5-3.3-7.5-7.4l0,0
		C87.6,648.2,90.9,644.8,95,644.8"/>
	<path fill="#BCC2C6" d="M95,532.5h361.1c4.1,0,7.5,3.3,7.5,7.4c0,4.1-3.3,7.4-7.5,7.4H95c-4.1,0-7.5-3.3-7.5-7.4
		C87.6,535.9,90.9,532.5,95,532.5"/>
	<path fill="#BCC2C6" d="M692.6,567.2h-84.4c-3.2,0-6.2,1.3-8.3,3.5c-2.1,2.1-3.5,5.1-3.5,8.3c0,3.3,1.3,6.2,3.5,8.3l0,0
		c2.1,2.1,5.1,3.5,8.3,3.5h84.4c3.3,0,6.2-1.3,8.3-3.5c2.1-2.1,3.5-5.1,3.5-8.3c0-3.3-1.3-6.2-3.5-8.4
		C698.8,568.5,695.8,567.2,692.6,567.2 M608.1,555.6h84.4c6.4,0,12.3,2.6,16.5,6.9l0,0c4.2,4.2,6.9,10.1,6.9,16.5
		s-2.6,12.3-6.9,16.5c-4.2,4.2-10.1,6.9-16.5,6.9h-84.4c-6.4,0-12.2-2.6-16.5-6.9l0,0l0,0c-4.2-4.2-6.9-10.1-6.9-16.5
		s2.6-12.3,6.9-16.5C595.8,558.3,601.7,555.6,608.1,555.6z"/>
	<path fill="#34495E" d="M603.5,546.1H688c6.4,0,12.3,2.6,16.5,6.9l0,0c4.2,4.2,6.9,10.1,6.9,16.5s-2.6,12.3-6.9,16.5
		c-4.2,4.2-10.1,6.9-16.5,6.9h-84.4c-6.4,0-12.3-2.6-16.5-6.9l0,0l0,0c-4.2-4.2-6.9-10.1-6.9-16.5s2.6-12.3,6.9-16.5
		C591.3,548.7,597.1,546.1,603.5,546.1"/>
	<path fill="#27CABF" d="M688,553c4.4,0,8.5,1.7,11.6,4.8c3.1,3.1,4.8,7.2,4.8,11.6c0,4.4-1.7,8.5-4.8,11.6
		c-3.1,3.1-7.2,4.8-11.6,4.8h-84.4c-4.4,0-8.5-1.7-11.6-4.8l0,0c-3.1-3.1-4.8-7.2-4.8-11.6c0-4.4,1.8-8.5,4.8-11.6
		c3.1-3.1,7.2-4.8,11.6-4.8H688z"/>
	<path fill="#51F4E9" d="M688,553c4.4,0,8.5,1.7,11.6,4.8c3.1,3.1,4.8,7.2,4.8,11.6c0,1.1-0.1,2.2-0.3,3.3c-0.6-3.1-2.2-6-4.5-8.3
		c-3.1-3.1-7.2-4.8-11.6-4.8h-84.4c-4.4,0-8.5,1.7-11.6,4.8c-2.3,2.3-3.8,5.2-4.5,8.3c-0.2-1.1-0.3-2.2-0.3-3.3
		c0-4.4,1.8-8.5,4.8-11.6c3.1-3.1,7.2-4.8,11.6-4.8H688z"/>
</g>
</svg>
