<?xml version="1.0" encoding="utf-8"?>
<!-- Generator: Adobe Illustrator 15.1.0, SVG Export Plug-In . SVG Version: 6.00 Build 0)  -->
<!DOCTYPE svg PUBLIC "-//W3C//DTD SVG 1.0//EN" "http://www.w3.org/TR/2001/REC-SVG-20010904/DTD/svg10.dtd">
<svg version="1.0" id="Layer_1" xmlns="http://www.w3.org/2000/svg" xmlns:xlink="http://www.w3.org/1999/xlink" x="0px" y="0px"
	 width="800px" height="800px" viewBox="0 0 800 800" enable-background="new 0 0 800 800" xml:space="preserve">
<g id="Header">
	<path fill="#BCC2C6" d="M33.1,34.5h736.2c8.5,0,16.1,3.5,21.7,9l0,0c5.6,5.6,9,13.2,9,21.7v654.6c0,8.4-3.5,16.1-9,21.7l0,0
		c-5.6,5.6-13.2,9-21.7,9H33.1c-8.5,0-16.1-3.5-21.7-9l0,0c-5.6-5.6-9-13.2-9-21.7V65.2c0-8.4,3.5-16.1,9-21.7l0,0
		C16.9,38,24.6,34.5,33.1,34.5"/>
	<path fill="#EBEFF0" d="M788.9,65.2v654.6c0,12.3-8.6,19.6-19.6,19.6H33.1c-11,0-19.6-7-19.6-19.6V65.2c0-12.8,8.6-19.6,19.6-19.6
		h736.2C780.2,45.6,788.9,52.7,788.9,65.2"/>
	<path fill="#94A4A5" d="M677.6,72.3c7.8,0,14.2,6.4,14.2,14.2s-6.3,14.2-14.2,14.2c-7.9,0-14.2-6.3-14.2-14.2
		C663.4,78.7,669.7,72.3,677.6,72.3 M722.1,72.3c7.8,0,14.2,6.4,14.2,14.2s-6.4,14.2-14.2,14.2c-7.8,0-14.2-6.3-14.2-14.2
		C707.9,78.7,714.3,72.3,722.1,72.3z M633,72.3c7.8,0,14.2,6.4,14.2,14.2s-6.3,14.2-14.2,14.2c-7.8,0-14.2-6.4-14.2-14.2
		S625.2,72.3,633,72.3z"/>
	
		<text transform="matrix(1 0 0 1 183.1675 83.2969)" fill="#93A2A3" font-family="'NexaBold'" font-size="44.0749" letter-spacing="1">PAYPAL</text>
</g>
<g id="Body">
	<path fill="#BCC2C6" d="M28.6,125.4h744.7c7.3,0,14,3,18.9,7.8c4.8,4.8,7.8,11.5,7.8,18.8v573.1c0,7.3-3,14-7.8,18.8
		c-4.8,4.8-11.5,7.8-18.9,7.8H28.6c-7.3,0-14-3-18.8-7.8C5,739.1,2,732.4,2,725.1v-573c0-7.3,3-14,7.8-18.8
		C14.6,128.4,21.3,125.4,28.6,125.4"/>
	<path fill="#FFFFFF" d="M28.6,136.5c-4.1,0-8.1,1.7-11,4.6s-4.6,6.8-4.6,11v573.1c0,4.1,1.7,8,4.6,11c2.9,2.9,6.8,4.6,11,4.6h744.7
		c4.1,0,8.1-1.7,11-4.6c2.9-2.9,4.6-6.8,4.6-11V152.1c0-4.1-1.6-8-4.6-11c-2.9-2.9-6.8-4.6-11-4.6H28.6z"/>
	<path fill="#BCC2C6" d="M273.2,329.2c11.2,0,21.6,6.1,20.1,21.2c-1.7,18-11.4,28-26.6,28h-13.3c-1.9,0-2.8,1.6-3.3,4.8l-2.6,16.4
		c-0.4,2.5-1.7,3.7-3.5,3.7h-12.4c-2,0-2.7-1.3-2.2-4.1l10.2-65.5c0.5-3.2,1.7-4.4,3.9-4.4L273.2,329.2L273.2,329.2z M253,364.3
		h10.1c6.3-0.2,10.5-4.6,10.9-12.5c0.3-4.9-3-8.3-8.3-8.3h-9.5L253,364.3z M326.9,398.2c1.1-1,2.3-1.6,2.1-0.3l-0.4,3
		c-0.2,1.6,0.4,2.4,1.9,2.4h11c1.9,0,2.8-0.8,3.2-3.6l6.8-42.5c0.3-2.1-0.2-3.2-1.8-3.2h-12.1c-1.1,0-1.6,0.6-1.9,2.3l-0.5,2.6
		c-0.2,1.4-0.9,1.6-1.4,0.2c-2-4.9-7.3-7-14.6-6.9c-16.9,0.3-28.4,13.2-29.6,29.7c-0.9,12.8,8.2,22.8,20.2,22.8
		C318.6,404.8,322.5,402.2,326.9,398.2z M317.7,391.7c-7.3,0-12.4-5.8-11.3-13c1.1-7.1,7.9-13,15.2-13c7.3,0,12.4,5.8,11.3,13
		C331.9,385.9,325,391.7,317.7,391.7z M373,353.9h-11.1c-2.3,0-3.2,1.7-2.5,3.8l13.8,40.5l-13.6,19.3c-1.1,1.6-0.3,3.1,1.4,3.1h12.5
		c1.9,0,2.8-0.5,3.7-1.8l42.6-61.1c1.3-1.9,0.7-3.8-1.5-3.8h-11.8c-2,0-2.9,0.8-4,2.5l-17.8,25.8l-7.9-25.8
		C376.3,354.8,375.2,353.9,373,353.9z"/>
	<path fill="#BCC2C6" d="M464.1,329.2c11.2,0,21.6,6.1,20.1,21.2c-1.7,18-11.4,28-26.6,28h-13.3c-1.9,0-2.8,1.6-3.3,4.8l-2.6,16.4
		c-0.4,2.5-1.7,3.7-3.5,3.7h-12.4c-2,0-2.7-1.3-2.2-4.1l10.2-65.5c0.5-3.2,1.7-4.4,3.9-4.4L464.1,329.2L464.1,329.2z M443.9,364.3
		H454c6.3-0.2,10.5-4.6,10.9-12.5c0.3-4.9-3-8.3-8.3-8.3h-9.5L443.9,364.3z M517.9,398.2c1.1-1,2.3-1.6,2.1-0.3l-0.4,3
		c-0.2,1.6,0.4,2.4,1.9,2.4h11c1.9,0,2.8-0.8,3.2-3.6l6.8-42.5c0.3-2.1-0.2-3.2-1.8-3.2h-12.1c-1.1,0-1.6,0.6-1.9,2.3l-0.4,2.6
		c-0.2,1.4-0.9,1.6-1.4,0.2c-2.1-4.9-7.3-7-14.6-6.9c-16.9,0.3-28.4,13.2-29.6,29.7c-0.9,12.8,8.2,22.8,20.2,22.8
		C509.5,404.8,513.5,402.2,517.9,398.2z M508.7,391.7c-7.3,0-12.4-5.8-11.3-13c1.1-7.1,7.9-13,15.2-13c7.3,0,12.4,5.8,11.3,13
		C522.8,385.9,516,391.7,508.7,391.7z M559.4,403.5h-12.7c-1,0-1.7-0.8-1.6-1.8l11.2-70.6c0.1-1,1.1-1.8,2.1-1.8h12.7
		c1,0,1.7,0.8,1.5,1.8l-11.1,70.6C561.3,402.7,560.4,403.5,559.4,403.5z"/>
	<path fill="#BCC2C6" d="M459.8,630.2H348.2c-4.3,0-8.2,1.8-11,4.6s-4.6,6.7-4.6,11l0,0c0,4.3,1.7,8.2,4.6,11l0,0
		c2.8,2.8,6.7,4.6,11,4.6h111.5c4.3,0,8.2-1.8,11-4.6s4.6-6.7,4.6-11l0,0c0-4.3-1.8-8.2-4.6-11S464,630.2,459.8,630.2 M348.2,614.9
		h111.5c8.5,0,16.2,3.5,21.8,9.1l0,0c5.6,5.6,9.1,13.3,9.1,21.8l0,0c0,8.5-3.5,16.2-9.1,21.8c-5.6,5.6-13.3,9.1-21.8,9.1H348.2
		c-8.5,0-16.2-3.5-21.8-9.1l0,0l0,0c-5.6-5.6-9.1-13.3-9.1-21.8l0,0c0-8.5,3.5-16.2,9.1-21.8C332,618.4,339.7,614.9,348.2,614.9z"/>
	<path fill="#34495E" d="M342.2,602.3h111.5c8.5,0,16.2,3.5,21.8,9.1l0,0c5.6,5.6,9.1,13.3,9.1,21.8l0,0c0,8.5-3.5,16.2-9.1,21.8
		s-13.3,9.1-21.8,9.1H342.2c-8.5,0-16.2-3.5-21.8-9.1l0,0l0,0c-5.6-5.6-9.1-13.3-9.1-21.8l0,0c0-8.5,3.5-16.2,9.1-21.8
		C325.9,605.8,333.7,602.3,342.2,602.3"/>
	<path fill="#27CABF" d="M453.7,611.5c5.8,0,11.3,2.3,15.3,6.4c4.1,4.1,6.4,9.6,6.4,15.3c0,5.8-2.3,11.3-6.4,15.3
		c-4.1,4.1-9.6,6.4-15.3,6.4H342.2c-5.8,0-11.3-2.3-15.3-6.3l0,0c-4.1-4.1-6.3-9.6-6.3-15.3c0-5.8,2.3-11.3,6.4-15.3
		c4.1-4.1,9.6-6.4,15.3-6.4L453.7,611.5L453.7,611.5z"/>
	<path fill="#51F4E9" d="M453.7,611.5c5.8,0,11.3,2.3,15.3,6.4c4.1,4.1,6.4,9.6,6.4,15.3c0,1.5-0.1,2.9-0.4,4.4
		c-0.9-4.1-2.9-7.9-5.9-11c-4.1-4.1-9.6-6.4-15.3-6.4H342.2c-5.8,0-11.3,2.3-15.3,6.4c-3,3-5.1,6.9-5.9,11c-0.3-1.4-0.4-2.9-0.4-4.4
		c0-5.8,2.3-11.3,6.4-15.3c4.1-4.1,9.6-6.4,15.3-6.4H453.7z"/>
	<path fill="#BCC2C6" d="M171.7,513.7h458.5c4.1,0,7.5,3.4,7.5,7.5c0,4.1-3.3,7.4-7.5,7.4H171.7c-4.1,0-7.4-3.3-7.4-7.4
		C164.2,517.1,167.6,513.7,171.7,513.7"/>
	<path fill="#BCC2C6" d="M290.1,551.2h221.8c4.1,0,7.4,3.4,7.4,7.5c0,4.1-3.3,7.4-7.4,7.4H290.1c-4.1,0-7.5-3.3-7.5-7.4
		C282.6,554.5,286,551.2,290.1,551.2"/>
</g>
</svg>
