<?xml version="1.0" encoding="utf-8"?>
<!-- Generator: Adobe Illustrator 15.1.0, SVG Export Plug-In . SVG Version: 6.00 Build 0)  -->
<!DOCTYPE svg PUBLIC "-//W3C//DTD SVG 1.0//EN" "http://www.w3.org/TR/2001/REC-SVG-20010904/DTD/svg10.dtd">
<svg version="1.0" id="Layer_1" xmlns="http://www.w3.org/2000/svg" xmlns:xlink="http://www.w3.org/1999/xlink" x="0px" y="0px"
	 width="800px" height="800px" viewBox="0 0 800 800" enable-background="new 0 0 800 800" xml:space="preserve">
<g id="Header">
	<path fill="#BCC2C6" d="M33.1,34.5h736.2c8.5,0,16.1,3.5,21.7,9l0,0c5.6,5.6,9,13.2,9,21.7v654.6c0,8.4-3.5,16.1-9,21.7l0,0
		c-5.6,5.6-13.2,9-21.7,9H33.1c-8.5,0-16.1-3.5-21.7-9l0,0c-5.6-5.6-9-13.2-9-21.7V65.2c0-8.4,3.5-16.1,9-21.7l0,0
		C16.9,38,24.6,34.5,33.1,34.5"/>
	<path fill="#EBEFF0" d="M788.9,65.2v654.6c0,12.3-8.6,19.6-19.6,19.6H33.1c-11,0-19.6-7-19.6-19.6V65.2c0-12.8,8.6-19.6,19.6-19.6
		h736.2C780.2,45.6,788.9,52.7,788.9,65.2"/>
	<path fill="#94A4A5" d="M677.6,72.3c7.8,0,14.2,6.4,14.2,14.2s-6.3,14.2-14.2,14.2c-7.9,0-14.2-6.3-14.2-14.2
		C663.4,78.7,669.7,72.3,677.6,72.3 M722.1,72.3c7.8,0,14.2,6.4,14.2,14.2s-6.4,14.2-14.2,14.2c-7.8,0-14.2-6.3-14.2-14.2
		C707.9,78.7,714.3,72.3,722.1,72.3z M633,72.3c7.8,0,14.2,6.4,14.2,14.2s-6.3,14.2-14.2,14.2c-7.8,0-14.2-6.4-14.2-14.2
		S625.2,72.3,633,72.3z"/>
	
		<text transform="matrix(1 0 0 1 131.0015 84.2969)" fill="#93A2A3" font-family="'NexaBold'" font-size="44.0749" letter-spacing="2">PRODUCTS</text>
</g>
<g id="Body">
	<path fill="#BCC2C6" d="M28.9,124.8h744.5c7.3,0,14,3,18.8,7.8c4.8,4.8,7.8,11.5,7.8,18.8v572.9c0,7.3-3,14-7.8,18.8
		c-4.8,4.8-11.5,7.8-18.8,7.8H28.9c-7.3,0-14-3-18.8-7.8c-4.8-4.8-7.8-11.5-7.8-18.8V151.5c0-7.3,3-14,7.8-18.8
		C14.9,127.8,21.5,124.8,28.9,124.8"/>
	<path fill="#FFFFFF" d="M28.9,136c-4.1,0-8,1.6-11,4.6c-2.9,2.9-4.6,6.8-4.6,11v572.9c0,4.1,1.6,8,4.6,11c2.9,2.9,6.8,4.6,11,4.6
		h744.5c4.1,0,8-1.7,11-4.6c2.9-2.9,4.6-6.8,4.6-11v-573c0-4.1-1.7-8-4.6-11c-2.9-2.9-6.8-4.6-11-4.6H28.9V136z"/>
	<rect x="93.6" y="184.5" fill="#34495E" width="265.2" height="226.2"/>
	<rect x="104.8" y="195.6" fill="#F29B12" width="242.9" height="203.9"/>
	<path fill="#BCC2C6" d="M101.1,490h250.3c4.1,0,7.4,3.4,7.4,7.5s-3.3,7.4-7.4,7.4H101.1c-4.1,0-7.4-3.3-7.4-7.4
		C93.6,493.4,97,490,101.1,490"/>
	<path fill="#BCC2C6" d="M101.1,527.5h250.3c4.1,0,7.4,3.3,7.4,7.4c0,4.1-3.3,7.4-7.4,7.4H101.1c-4.1,0-7.4-3.3-7.4-7.4
		C93.6,530.8,97,527.5,101.1,527.5"/>
	<path fill="#BCC2C6" d="M101.1,564.9h117.7c4.1,0,7.4,3.3,7.4,7.4l0,0c0,4.1-3.3,7.4-7.4,7.4H101.1c-4.1,0-7.4-3.3-7.4-7.4l0,0
		C93.6,568.3,97,564.9,101.1,564.9"/>
	<path fill="#BCC2C6" d="M101.1,452.6h250.3c4.1,0,7.4,3.4,7.4,7.4c0,4.1-3.3,7.5-7.4,7.5H101.1c-4.1,0-7.4-3.3-7.4-7.5
		C93.6,456,97,452.6,101.1,452.6"/>
	<path fill="#BCC2C6" d="M285,638H173.5c-4.3,0-8.2,1.8-11,4.6c-2.8,2.8-4.6,6.7-4.6,11c0,4.3,1.7,8.2,4.6,11l0,0
		c2.8,2.8,6.7,4.6,11,4.6H285c4.3,0,8.2-1.8,11-4.6c2.8-2.8,4.6-6.7,4.6-11c0-4.3-1.8-8.2-4.6-11C293.2,639.8,289.3,638,285,638
		 M173.5,622.7H285c8.5,0,16.2,3.5,21.8,9.1l0,0c5.6,5.6,9.1,13.3,9.1,21.8s-3.5,16.2-9.1,21.8c-5.6,5.6-13.3,9.1-21.8,9.1H173.5
		c-8.5,0-16.2-3.5-21.8-9.1l0,0l0,0c-5.6-5.6-9.1-13.3-9.1-21.8s3.5-16.2,9.1-21.8C157.3,626.2,165,622.7,173.5,622.7z"/>
	<path fill="#34495E" d="M167.5,610.1H279c8.5,0,16.2,3.5,21.8,9.1l0,0c5.6,5.6,9.1,13.3,9.1,21.8s-3.5,16.2-9.1,21.8
		c-5.6,5.6-13.3,9.1-21.8,9.1H167.5c-8.5,0-16.2-3.5-21.8-9.1l0,0l0,0c-5.6-5.6-9.1-13.3-9.1-21.8s3.5-16.2,9.1-21.8
		C151.2,613.6,159,610.1,167.5,610.1"/>
	<path fill="#27CABF" d="M278.9,619.3c5.7,0,11.3,2.3,15.3,6.3c4.1,4.1,6.4,9.6,6.4,15.3c0,5.7-2.3,11.2-6.4,15.3
		c-4.1,4.1-9.6,6.4-15.3,6.4H167.5c-5.8,0-11.3-2.3-15.3-6.3l0,0c-4.1-4.1-6.3-9.6-6.3-15.3s2.3-11.2,6.4-15.3
		c4.1-4.1,9.6-6.4,15.3-6.4H278.9z"/>
	<path fill="#51F4E9" d="M278.9,619.3c5.7,0,11.3,2.3,15.3,6.3c4.1,4.1,6.4,9.6,6.4,15.3c0,1.5-0.2,2.9-0.4,4.4
		c-0.9-4.1-2.9-7.9-5.9-11c-4.1-4.1-9.6-6.4-15.3-6.4H167.5c-5.8,0-11.3,2.3-15.3,6.4c-3,3-5.1,6.8-5.9,11c-0.3-1.4-0.5-2.9-0.5-4.4
		c0-5.8,2.3-11.2,6.4-15.3c4.1-4.1,9.6-6.4,15.3-6.4L278.9,619.3L278.9,619.3z"/>
	<rect x="443.4" y="184.5" fill="#34495E" width="265.2" height="226.2"/>
	<rect x="454.5" y="195.6" fill="#F29B12" width="242.9" height="203.9"/>
	<path fill="#BCC2C6" d="M450.8,490h250.3c4.1,0,7.4,3.4,7.4,7.5s-3.3,7.4-7.4,7.4H450.8c-4.1,0-7.4-3.3-7.4-7.4
		S446.7,490,450.8,490"/>
	<path fill="#BCC2C6" d="M450.8,527.5h250.3c4.1,0,7.4,3.3,7.4,7.4c0,4.1-3.3,7.4-7.4,7.4H450.8c-4.1,0-7.4-3.3-7.4-7.4
		C443.4,530.8,446.7,527.5,450.8,527.5"/>
	<path fill="#BCC2C6" d="M450.8,564.9h117.7c4.1,0,7.4,3.3,7.4,7.4l0,0c0,4.1-3.3,7.4-7.4,7.4H450.8c-4.1,0-7.4-3.3-7.4-7.4l0,0
		C443.4,568.3,446.7,564.9,450.8,564.9"/>
	<path fill="#BCC2C6" d="M450.8,452.6h250.3c4.1,0,7.4,3.4,7.4,7.4c0,4.1-3.3,7.5-7.4,7.5H450.8c-4.1,0-7.4-3.3-7.4-7.5
		C443.4,456,446.7,452.6,450.8,452.6"/>
	<path fill="#BCC2C6" d="M634.7,638H523.3c-4.3,0-8.2,1.8-11,4.6c-2.8,2.8-4.6,6.7-4.6,11c0,4.3,1.7,8.2,4.6,11l0,0
		c2.8,2.8,6.7,4.6,11,4.6h111.5c4.3,0,8.2-1.8,11-4.6c2.8-2.8,4.6-6.7,4.6-11c0-4.3-1.8-8.2-4.6-11C642.9,639.8,639,638,634.7,638
		 M523.3,622.7h111.5c8.5,0,16.2,3.5,21.8,9.1l0,0c5.6,5.6,9.1,13.3,9.1,21.8s-3.5,16.2-9.1,21.8c-5.6,5.6-13.3,9.1-21.8,9.1H523.3
		c-8.5,0-16.2-3.5-21.8-9.1l0,0l0,0c-5.6-5.6-9.1-13.3-9.1-21.8s3.5-16.2,9.1-21.8C507,626.2,514.8,622.7,523.3,622.7z"/>
	<path fill="#34495E" d="M517.2,610.1h111.5c8.5,0,16.2,3.5,21.8,9.1l0,0c5.6,5.6,9.1,13.3,9.1,21.8s-3.5,16.2-9.1,21.8
		c-5.6,5.6-13.3,9.1-21.8,9.1H517.2c-8.5,0-16.2-3.5-21.8-9.1l0,0l0,0c-5.6-5.6-9.1-13.3-9.1-21.8s3.5-16.2,9.1-21.8
		C501,613.6,508.7,610.1,517.2,610.1"/>
	<path fill="#27CABF" d="M628.7,619.3c5.8,0,11.3,2.3,15.3,6.3c4.1,4.1,6.4,9.6,6.4,15.3c0,5.7-2.3,11.2-6.4,15.3
		c-4.1,4.1-9.6,6.4-15.3,6.4H517.2c-5.8,0-11.3-2.3-15.3-6.3l0,0c-4.1-4.1-6.3-9.6-6.3-15.3s2.3-11.2,6.4-15.3
		c4.1-4.1,9.6-6.4,15.3-6.4H628.7z"/>
	<path fill="#51F4E9" d="M628.7,619.3c5.8,0,11.3,2.3,15.3,6.3c4.1,4.1,6.4,9.6,6.4,15.3c0,1.5-0.2,2.9-0.4,4.4
		c-0.8-4.1-2.9-7.9-5.9-11c-4.1-4.1-9.6-6.4-15.3-6.4H517.2c-5.8,0-11.3,2.3-15.3,6.4c-3,3-5.1,6.8-5.9,11c-0.3-1.4-0.4-2.9-0.4-4.4
		c0-5.8,2.3-11.2,6.4-15.3c4.1-4.1,9.6-6.4,15.3-6.4L628.7,619.3L628.7,619.3z"/>
	<polygon fill="#D5840C" points="226.2,255.2 249.5,268.6 272.8,282.1 272.8,309 272.8,335.8 249.5,349.3 226.2,362.7 202.9,349.3 
		179.7,335.8 179.7,309 179.7,282.1 202.9,268.6 	"/>
	<polygon fill="#34495E" points="226.2,243.8 249.5,257.3 272.8,270.7 272.8,297.6 272.8,324.4 249.5,337.9 226.2,351.3 
		202.9,337.9 179.7,324.4 179.7,297.6 179.7,270.7 202.9,257.3 	"/>
	<path fill="#F8FBB9" d="M221.6,337.9l-14-8.1L189,319.1v-21.5v-16.7l32.6,18.8V337.9z M263.5,280.8v16.7V319l-18.6,10.8l-14,8.1
		v-38.2L263.5,280.8z M226.2,254.6l18.6,10.8l13.5,7.8l-32.1,18.5l-32.1-18.5l13.5-7.8L226.2,254.6z"/>
	<polygon fill="#D5840C" points="576,255.2 599.2,268.6 622.5,282.1 622.5,309 622.5,335.8 599.2,349.3 576,362.7 552.7,349.3 
		529.4,335.8 529.4,309 529.4,282.1 552.7,268.6 	"/>
	<polygon fill="#34495E" points="576,243.8 599.2,257.3 622.5,270.7 622.5,297.6 622.5,324.4 599.2,337.9 576,351.3 552.7,337.9 
		529.4,324.4 529.4,297.6 529.4,270.7 552.7,257.3 	"/>
	<path fill="#F8FBB9" d="M571.3,337.9l-14-8.1L538.7,319v-21.5v-16.7l32.6,18.8V337.9z M613.2,280.8v16.7V319l-18.6,10.8l-14,8.1
		v-38.2L613.2,280.8z M576,254.6l18.6,10.8l13.5,7.8L576,291.6l-32.1-18.5l13.5-7.8L576,254.6z"/>
</g>
</svg>
