<?xml version="1.0" encoding="utf-8"?>
<!-- Generator: Adobe Illustrator 15.1.0, SVG Export Plug-In . SVG Version: 6.00 Build 0)  -->
<!DOCTYPE svg PUBLIC "-//W3C//DTD SVG 1.0//EN" "http://www.w3.org/TR/2001/REC-SVG-20010904/DTD/svg10.dtd">
<svg version="1.0" id="Layer_1" xmlns="http://www.w3.org/2000/svg" xmlns:xlink="http://www.w3.org/1999/xlink" x="0px" y="0px"
	 width="800px" height="800px" viewBox="0 0 800 800" enable-background="new 0 0 800 800" xml:space="preserve">
<g id="Header">
	<path fill="#BCC2C6" d="M33.1,34.5h736.2c8.5,0,16.1,3.5,21.7,9l0,0c5.6,5.6,9,13.2,9,21.7v654.6c0,8.4-3.5,16.1-9,21.7l0,0
		c-5.6,5.6-13.2,9-21.7,9H33.1c-8.5,0-16.1-3.5-21.7-9l0,0c-5.6-5.6-9-13.2-9-21.7V65.2c0-8.4,3.5-16.1,9-21.7l0,0
		C16.9,38,24.6,34.5,33.1,34.5"/>
	<path fill="#EBEFF0" d="M788.9,65.2v654.6c0,12.3-8.6,19.6-19.6,19.6H33.1c-11,0-19.6-7-19.6-19.6V65.2c0-12.8,8.6-19.6,19.6-19.6
		h736.2C780.2,45.6,788.9,52.7,788.9,65.2"/>
	<path fill="#94A4A5" d="M677.6,72.3c7.8,0,14.2,6.4,14.2,14.2s-6.3,14.2-14.2,14.2c-7.9,0-14.2-6.3-14.2-14.2
		C663.4,78.7,669.7,72.3,677.6,72.3 M722.1,72.3c7.8,0,14.2,6.4,14.2,14.2s-6.4,14.2-14.2,14.2c-7.8,0-14.2-6.3-14.2-14.2
		C707.9,78.7,714.3,72.3,722.1,72.3z M633,72.3c7.8,0,14.2,6.4,14.2,14.2s-6.3,14.2-14.2,14.2c-7.8,0-14.2-6.4-14.2-14.2
		S625.2,72.3,633,72.3z"/>
	
		<text transform="matrix(1 0 0 1 136.0015 83.2969)" fill="#93A2A3" font-family="'NexaBold'" font-size="44.0749" letter-spacing="2">PRODUCTS</text>
</g>
<g id="Body">
	<path fill="#BCC2C6" d="M29.2,124.8h744.1c7.3,0,14,3,18.8,7.8c4.8,4.8,7.8,11.5,7.8,18.8V724c0,7.3-3,14-7.8,18.8
		c-4.8,4.8-11.5,7.8-18.8,7.8H29.2c-7.3,0-14-3-18.8-7.8C5.6,738,2.6,731.3,2.6,724V151.4c0-7.3,3-14,7.8-18.8
		C15.2,127.8,21.9,124.8,29.2,124.8"/>
	<path fill="#FFFFFF" d="M29.2,135.9c-4.1,0-8,1.6-10.9,4.6c-2.9,2.9-4.6,6.8-4.6,10.9V724c0,4.1,1.6,8,4.6,11
		c2.9,2.9,6.8,4.6,10.9,4.6h744.1c4.1,0,8-1.6,11-4.6c2.9-2.9,4.6-6.8,4.6-11V151.4c0-4.1-1.6-8-4.6-10.9c-2.9-2.9-6.8-4.6-11-4.6
		H29.2z"/>
	<polygon fill="#34495E" points="88.6,196.1 269.3,196.1 277.3,196.1 277.3,204.1 277.3,384.8 277.3,392.8 269.3,392.8 88.6,392.8 
		80.6,392.8 80.6,384.8 80.6,204.1 80.6,196.1 	"/>
	<rect x="90.4" y="205.9" fill="#F29B12" width="177.1" height="177.1"/>
	<polygon fill="#D5840C" points="178.9,252.5 202.2,266 225.4,279.4 225.4,306.3 225.4,333.1 202.2,346.6 178.9,360 155.6,346.6 
		132.4,333.1 132.4,306.3 132.4,279.4 155.6,266 	"/>
	<path fill="#BCC2C6" d="M353.5,196.1h361.1c4.1,0,7.4,3.3,7.4,7.4l0,0c0,4.1-3.3,7.4-7.4,7.4H353.5c-4.1,0-7.4-3.3-7.4-7.4l0,0
		C346,199.4,349.4,196.1,353.5,196.1"/>
	<path fill="#BCC2C6" d="M353.5,233.5h361.1c4.1,0,7.4,3.3,7.4,7.4l0,0c0,4.1-3.3,7.4-7.4,7.4H353.5c-4.1,0-7.4-3.3-7.4-7.4l0,0
		C346,236.8,349.4,233.5,353.5,233.5"/>
	<path fill="#BCC2C6" d="M353.5,270.9h173.1c4.1,0,7.4,3.3,7.4,7.4c0,4.1-3.3,7.5-7.4,7.5H353.5c-4.1,0-7.4-3.4-7.4-7.5
		C346,274.3,349.4,270.9,353.5,270.9"/>
	<path fill="#BCC2C6" d="M494.4,345.8H382.9c-4.3,0-8.2,1.8-11,4.6c-2.8,2.8-4.6,6.7-4.6,11c0,4.3,1.7,8.2,4.6,11l0,0
		c2.8,2.8,6.7,4.6,11,4.6h111.4c4.3,0,8.2-1.8,11-4.6c2.8-2.8,4.6-6.7,4.6-11c0-4.3-1.8-8.2-4.6-11
		C502.6,347.5,498.7,345.8,494.4,345.8 M382.9,330.5h111.4c8.5,0,16.2,3.5,21.8,9.1l0,0c5.6,5.6,9.1,13.3,9.1,21.8
		s-3.5,16.2-9.1,21.8c-5.6,5.6-13.3,9.1-21.8,9.1H382.9c-8.5,0-16.2-3.5-21.8-9.1l0,0l0,0c-5.6-5.6-9.1-13.3-9.1-21.8
		s3.5-16.2,9.1-21.8C366.7,334,374.4,330.5,382.9,330.5z"/>
	<path fill="#34495E" d="M376.9,317.9h111.4c8.5,0,16.2,3.5,21.8,9.1l0,0c5.6,5.6,9.1,13.3,9.1,21.8s-3.5,16.2-9.1,21.8
		c-5.6,5.6-13.3,9.1-21.8,9.1H376.9c-8.5,0-16.2-3.5-21.8-9.1l0,0l0,0c-5.6-5.6-9.1-13.3-9.1-21.8s3.5-16.2,9.1-21.8
		C360.7,321.4,368.4,317.9,376.9,317.9"/>
	<path fill="#27CABF" d="M488.3,327.1c5.8,0,11.3,2.3,15.3,6.4c4.1,4.1,6.4,9.6,6.4,15.3c0,5.8-2.3,11.2-6.4,15.3
		c-4.1,4.1-9.6,6.4-15.3,6.4H376.9c-5.7,0-11.2-2.3-15.3-6.3l0,0c-4.1-4.1-6.3-9.6-6.3-15.3c0-5.8,2.3-11.2,6.4-15.3
		c4.1-4.1,9.6-6.4,15.3-6.4h111.3V327.1z"/>
	<path fill="#51F4E9" d="M488.3,327.1c5.8,0,11.3,2.3,15.3,6.4c4.1,4.1,6.4,9.6,6.4,15.3c0,1.5-0.1,2.9-0.4,4.4
		c-0.9-4.1-2.9-7.9-5.9-11c-4.1-4.1-9.6-6.4-15.3-6.4H376.9c-5.8,0-11.2,2.3-15.3,6.4c-3,3-5.1,6.8-5.9,11c-0.3-1.4-0.4-2.9-0.4-4.4
		c0-5.8,2.3-11.2,6.4-15.3c4.1-4.1,9.6-6.4,15.3-6.4H488.3z"/>
	<polygon fill="#34495E" points="88.6,482.8 269.3,482.8 277.3,482.8 277.3,490.8 277.3,671.5 277.3,679.5 269.3,679.5 88.6,679.5 
		80.6,679.5 80.6,671.5 80.6,490.8 80.6,482.8 	"/>
	<rect x="90.4" y="492.6" fill="#F29B12" width="177.1" height="177.1"/>
	<path fill="#BCC2C6" d="M353.5,482.8h361.1c4.1,0,7.4,3.4,7.4,7.5l0,0c0,4.1-3.3,7.4-7.4,7.4H353.5c-4.1,0-7.4-3.3-7.4-7.4l0,0
		C346,486.1,349.4,482.8,353.5,482.8"/>
	<path fill="#BCC2C6" d="M353.5,520.2h361.1c4.1,0,7.4,3.3,7.4,7.4c0,4.1-3.3,7.4-7.4,7.4H353.5c-4.1,0-7.4-3.3-7.4-7.4
		C346,523.5,349.4,520.2,353.5,520.2"/>
	<path fill="#BCC2C6" d="M353.5,557.6h173.1c4.1,0,7.4,3.3,7.4,7.4s-3.3,7.5-7.4,7.5H353.5c-4.1,0-7.4-3.3-7.4-7.5
		C346,561,349.4,557.6,353.5,557.6"/>
	<path fill="#BCC2C6" d="M494.4,632.5H382.9c-4.3,0-8.2,1.8-11,4.6c-2.8,2.8-4.6,6.7-4.6,11c0,4.3,1.7,8.2,4.6,11l0,0
		c2.8,2.8,6.7,4.6,11,4.6h111.4c4.3,0,8.2-1.8,11-4.6c2.8-2.8,4.6-6.7,4.6-11c0-4.3-1.8-8.2-4.6-11
		C502.6,634.2,498.7,632.5,494.4,632.5 M382.9,617.2h111.4c8.5,0,16.2,3.5,21.8,9.1l0,0c5.6,5.6,9.1,13.3,9.1,21.8
		s-3.5,16.2-9.1,21.8c-5.6,5.6-13.3,9.1-21.8,9.1H382.9c-8.5,0-16.2-3.5-21.8-9.1l0,0l0,0c-5.6-5.6-9.1-13.3-9.1-21.8
		s3.5-16.2,9.1-21.8C366.7,620.7,374.4,617.2,382.9,617.2z"/>
	<path fill="#34495E" d="M376.9,604.6h111.4c8.5,0,16.2,3.5,21.8,9.1l0,0c5.6,5.6,9.1,13.3,9.1,21.8s-3.5,16.2-9.1,21.8
		c-5.6,5.6-13.3,9.1-21.8,9.1H376.9c-8.5,0-16.2-3.5-21.8-9.1l0,0l0,0c-5.6-5.6-9.1-13.3-9.1-21.8s3.5-16.2,9.1-21.8
		C360.7,608.1,368.4,604.6,376.9,604.6"/>
	<path fill="#27CABF" d="M488.3,613.8c5.8,0,11.3,2.3,15.3,6.3c4.1,4.1,6.4,9.6,6.4,15.3c0,5.8-2.3,11.2-6.4,15.3
		c-4.1,4.1-9.6,6.4-15.3,6.4H376.9c-5.7,0-11.2-2.3-15.3-6.3l0,0c-4.1-4.1-6.3-9.6-6.3-15.3c0-5.8,2.3-11.2,6.4-15.3
		c4.1-4.1,9.6-6.4,15.3-6.4H488.3z"/>
	<path fill="#51F4E9" d="M488.3,613.8c5.8,0,11.3,2.3,15.3,6.3c4.1,4.1,6.4,9.6,6.4,15.3c0,1.5-0.1,2.9-0.4,4.4
		c-0.9-4.1-2.9-7.9-5.9-11c-4.1-4.1-9.6-6.3-15.3-6.3H376.9c-5.8,0-11.2,2.3-15.3,6.4c-3,3-5.1,6.8-5.9,11c-0.3-1.4-0.4-2.9-0.4-4.4
		c0-5.8,2.3-11.2,6.4-15.3c4.1-4.1,9.6-6.4,15.3-6.4H488.3z"/>
	<polygon fill="#34495E" points="178.9,240.7 202.2,254.1 225.4,267.5 225.4,294.4 225.4,321.3 202.2,334.7 178.9,348.1 
		155.6,334.7 132.4,321.3 132.4,294.4 132.4,267.5 155.6,254.1 	"/>
	<path fill="#F8FBB9" d="M174.3,334.7l-14-8.1l-18.6-10.7v-21.5v-16.7l32.6,18.8V334.7z M216.1,277.7v16.7v21.5l-18.6,10.7l-14,8.1
		v-38.2L216.1,277.7z M178.9,251.4l18.6,10.8L211,270l-32.1,18.5L146.8,270l13.5-7.8L178.9,251.4z"/>
	<polygon fill="#D5840C" points="178.9,543.1 202.2,556.6 225.4,570 225.4,596.9 225.4,623.7 202.2,637.2 178.9,650.6 155.6,637.2 
		132.4,623.7 132.4,596.9 132.4,570 155.6,556.6 	"/>
	<polygon fill="#34495E" points="178.9,527.4 202.2,540.8 225.4,554.2 225.4,581.1 225.4,608 202.2,621.4 178.9,634.8 155.6,621.4 
		132.4,608 132.4,581.1 132.4,554.2 155.6,540.8 	"/>
	<path fill="#F8FBB9" d="M174.3,622.8l-14-8.1l-18.6-10.8v-21.5v-16.7l32.6,18.8V622.8z M216.1,565.7v16.7v21.5l-18.6,10.8l-14,8.1
		v-38.2L216.1,565.7z M178.9,539.5l18.6,10.8L211,558l-32.1,18.5L146.8,558l13.5-7.8L178.9,539.5z"/>
</g>
</svg>
