<?xml version="1.0" encoding="utf-8"?>
<!-- Generator: Adobe Illustrator 15.1.0, SVG Export Plug-In . SVG Version: 6.00 Build 0)  -->
<!DOCTYPE svg PUBLIC "-//W3C//DTD SVG 1.0//EN" "http://www.w3.org/TR/2001/REC-SVG-20010904/DTD/svg10.dtd">
<svg version="1.0" id="Layer_1" xmlns="http://www.w3.org/2000/svg" xmlns:xlink="http://www.w3.org/1999/xlink" x="0px" y="0px"
	 width="800px" height="800px" viewBox="0 0 800 800" enable-background="new 0 0 800 800" xml:space="preserve">
<g id="Header">
	<path fill="#BCC2C6" d="M33.1,34.5h736.2c8.5,0,16.1,3.5,21.7,9l0,0c5.6,5.6,9,13.2,9,21.7v654.6c0,8.4-3.5,16.1-9,21.7l0,0
		c-5.6,5.6-13.2,9-21.7,9H33.1c-8.5,0-16.1-3.5-21.7-9l0,0c-5.6-5.6-9-13.2-9-21.7V65.2c0-8.4,3.5-16.1,9-21.7l0,0
		C16.9,38,24.6,34.5,33.1,34.5"/>
	<path fill="#EBEFF0" d="M788.9,65.2v654.6c0,12.3-8.6,19.6-19.6,19.6H33.1c-11,0-19.6-7-19.6-19.6V65.2c0-12.8,8.6-19.6,19.6-19.6
		h736.2C780.2,45.6,788.9,52.7,788.9,65.2"/>
	<path fill="#94A4A5" d="M677.6,72.3c7.8,0,14.2,6.4,14.2,14.2s-6.3,14.2-14.2,14.2c-7.9,0-14.2-6.3-14.2-14.2
		C663.4,78.7,669.7,72.3,677.6,72.3 M722.1,72.3c7.8,0,14.2,6.4,14.2,14.2s-6.4,14.2-14.2,14.2c-7.8,0-14.2-6.3-14.2-14.2
		C707.9,78.7,714.3,72.3,722.1,72.3z M633,72.3c7.8,0,14.2,6.4,14.2,14.2s-6.3,14.2-14.2,14.2c-7.8,0-14.2-6.4-14.2-14.2
		S625.2,72.3,633,72.3z"/>
	
		<text transform="matrix(1 0 0 1 125.0015 83.2969)" fill="#93A2A3" font-family="'NexaBold'" font-size="44.0749" letter-spacing="2">PRODUCTS</text>
</g>
<g id="Body">
	<path fill="#BCC2C6" d="M29.4,124.7h743.9c7.4,0,14,3,18.8,7.8c4.8,4.8,7.8,11.5,7.8,18.8v572.5c0,7.3-3,14-7.8,18.8
		c-4.8,4.8-11.5,7.8-18.8,7.8H29.4c-7.4,0-14-3-18.8-7.8c-4.8-4.8-7.8-11.5-7.8-18.8V151.3c0-7.3,3-14,7.8-18.8
		C15.4,127.7,22.1,124.7,29.4,124.7"/>
	<path fill="#FFFFFF" d="M29.4,135.8c-4.1,0-8.1,1.6-11,4.6c-2.9,2.9-4.6,6.8-4.6,10.9v572.5c0,4.1,1.7,8,4.6,10.9
		c2.9,2.9,6.8,4.6,11,4.6h743.9c4.1,0,8-1.6,11-4.6c2.9-2.9,4.6-6.8,4.6-10.9V151.3c0-4.1-1.6-8-4.6-10.9c-2.9-2.9-6.8-4.6-11-4.6
		H29.4z"/>
	<rect x="77.2" y="185.7" fill="#34495E" width="648.3" height="226"/>
	<rect x="88.4" y="196.8" fill="#F29B12" width="626" height="203.8"/>
	<path fill="#BCC2C6" d="M84.7,437.8h633.4c4.1,0,7.4,3.3,7.4,7.4c0,4.1-3.3,7.4-7.4,7.4H84.7c-4.1,0-7.5-3.4-7.5-7.4
		S80.6,437.8,84.7,437.8"/>
	<path fill="#BCC2C6" d="M84.7,475.2H394c4.1,0,7.4,3.4,7.4,7.4c0,4.1-3.3,7.5-7.4,7.5H84.7c-4.1,0-7.5-3.3-7.5-7.5
		C77.2,478.5,80.6,475.2,84.7,475.2"/>
	<rect x="77.3" y="533.1" fill="#34495E" width="103.5" height="103.5"/>
	<rect x="88.7" y="544.5" fill="#F29B12" width="80.8" height="80.8"/>
	<rect x="258.9" y="533.1" fill="#34495E" width="103.5" height="103.5"/>
	<rect x="270.2" y="544.5" fill="#F29B12" width="80.8" height="80.8"/>
	<rect x="440.4" y="533.1" fill="#34495E" width="103.5" height="103.5"/>
	<rect x="451.7" y="544.5" fill="#F29B12" width="80.8" height="80.8"/>
	<rect x="621.9" y="533.1" fill="#34495E" width="103.5" height="103.5"/>
	<rect x="633.2" y="544.5" fill="#F29B12" width="80.8" height="80.8"/>
	<polygon fill="#D5840C" points="401.4,255 424.6,268.4 447.9,281.8 447.9,308.7 447.9,335.5 424.6,348.9 401.4,362.4 378.1,348.9 
		354.9,335.5 354.9,308.7 354.9,281.8 378.1,268.4 	"/>
	<polygon fill="#34495E" points="401.4,243.6 424.6,257 447.9,270.4 447.9,297.3 447.9,324.2 424.6,337.6 401.4,351 378.1,337.6 
		354.9,324.2 354.9,297.3 354.9,270.4 378.1,257 	"/>
	<path fill="#F8FBB9" d="M396.7,337.6l-14-8.1l-18.6-10.7v-21.5v-16.7l32.6,18.8V337.6z M438.6,280.6v16.7v21.5L420,329.5l-14,8.1
		v-38.2L438.6,280.6z M401.4,254.3L420,265l13.4,7.8l-32.1,18.5l-32.1-18.5l13.4-7.8L401.4,254.3z"/>
	<path fill="#BCC2C6" d="M84.8,667.5h88.6c4.1,0,7.4,3.3,7.4,7.4c0,4.1-3.3,7.4-7.4,7.4H84.8c-4.1,0-7.5-3.3-7.5-7.4
		C77.3,670.8,80.7,667.5,84.8,667.5"/>
	<path fill="#BCC2C6" d="M266.3,667.5h88.6c4.1,0,7.4,3.3,7.4,7.4c0,4.1-3.3,7.4-7.4,7.4h-88.6c-4.1,0-7.4-3.3-7.4-7.4
		C258.9,670.8,262.2,667.5,266.3,667.5"/>
	<path fill="#BCC2C6" d="M447.8,667.5h88.6c4.1,0,7.5,3.3,7.5,7.4c0,4.1-3.3,7.4-7.5,7.4h-88.6c-4.1,0-7.5-3.3-7.5-7.4
		C440.3,670.8,443.7,667.5,447.8,667.5"/>
	<path fill="#BCC2C6" d="M629.3,667.5H718c4.1,0,7.5,3.3,7.5,7.4c0,4.1-3.4,7.4-7.5,7.4h-88.6c-4.1,0-7.5-3.3-7.5-7.4
		C621.9,670.8,625.2,667.5,629.3,667.5"/>
</g>
</svg>
