<?xml version="1.0" encoding="utf-8"?>
<!-- Generator: Adobe Illustrator 15.1.0, SVG Export Plug-In . SVG Version: 6.00 Build 0)  -->
<!DOCTYPE svg PUBLIC "-//W3C//DTD SVG 1.0//EN" "http://www.w3.org/TR/2001/REC-SVG-20010904/DTD/svg10.dtd">
<svg version="1.0" id="Layer_1" xmlns="http://www.w3.org/2000/svg" xmlns:xlink="http://www.w3.org/1999/xlink" x="0px" y="0px"
	 width="800px" height="800px" viewBox="0 0 800 800" enable-background="new 0 0 800 800" xml:space="preserve">
<g id="Header">
	<path fill="#BCC2C6" d="M33.1,34.5h736.2c8.5,0,16.1,3.5,21.7,9l0,0c5.6,5.6,9,13.2,9,21.7v654.6c0,8.4-3.5,16.1-9,21.7l0,0
		c-5.6,5.6-13.2,9-21.7,9H33.1c-8.5,0-16.1-3.5-21.7-9l0,0c-5.6-5.6-9-13.2-9-21.7V65.2c0-8.4,3.5-16.1,9-21.7l0,0
		C16.9,38,24.6,34.5,33.1,34.5"/>
	<path fill="#EBEFF0" d="M788.9,65.2v654.6c0,12.3-8.6,19.6-19.6,19.6H33.1c-11,0-19.6-7-19.6-19.6V65.2c0-12.8,8.6-19.6,19.6-19.6
		h736.2C780.2,45.6,788.9,52.7,788.9,65.2"/>
	<path fill="#94A4A5" d="M677.6,72.3c7.8,0,14.2,6.4,14.2,14.2s-6.3,14.2-14.2,14.2c-7.9,0-14.2-6.3-14.2-14.2
		C663.4,78.7,669.7,72.3,677.6,72.3 M722.1,72.3c7.8,0,14.2,6.4,14.2,14.2s-6.4,14.2-14.2,14.2c-7.8,0-14.2-6.3-14.2-14.2
		C707.9,78.7,714.3,72.3,722.1,72.3z M633,72.3c7.8,0,14.2,6.4,14.2,14.2s-6.3,14.2-14.2,14.2c-7.8,0-14.2-6.4-14.2-14.2
		S625.2,72.3,633,72.3z"/>
	
		<text transform="matrix(1 0 0 1 223.6675 86.2969)" fill="#93A2A3" font-family="'NexaBold'" font-size="44.0749" letter-spacing="1">RATE</text>
</g>
<g id="Body">
	<path fill="#BCC2C6" d="M29.2,126h744.2c7.3,0,14,3,18.8,7.8c4.8,4.8,7.8,11.5,7.8,18.8v572.6c0,7.3-3,14-7.8,18.8
		s-11.5,7.8-18.8,7.8H29.2c-7.3,0-14-3-18.8-7.8c-4.8-4.8-7.8-11.5-7.8-18.8V152.6c0-7.3,3-14,7.8-18.8C15.2,129,21.9,126,29.2,126"
		/>
	<path fill="#FFFFFF" d="M29.2,137.1c-4.1,0-8,1.7-11,4.6c-2.9,2.9-4.6,6.8-4.6,10.9v572.6c0,4.1,1.7,8,4.6,10.9
		c2.9,2.9,6.8,4.6,11,4.6h744.2c4.1,0,8-1.7,10.9-4.6c2.9-2.9,4.6-6.8,4.6-10.9V152.6c0-4.1-1.6-8-4.6-10.9
		c-2.9-2.9-6.8-4.6-10.9-4.6H29.2z"/>
	<path fill="#34495E" d="M196.5,300.8l8.2,18.8l20.7,2.1c6,0.6,7.9,6.8,3.5,10.7L213.5,346l4.4,20.4c1.3,5.9-4,9.6-9.1,6.6
		l-17.7-10.4l-18,10.5c-5.2,3-10.4-0.9-9.1-6.6l4.4-20l-15.5-13.9c-4.5-4-2.4-10.2,3.5-10.7l20.4-2l8.4-19
		C187.7,295.2,194.2,295.3,196.5,300.8"/>
	<polygon fill="#F29B12" points="190.8,309.2 182.6,327.8 162.7,329.8 177.9,343.3 173.5,362.9 191.2,352.7 208.4,362.8 
		204.1,342.9 219.1,329.6 198.8,327.6 	"/>
	<path fill="#34495E" d="M301.7,300.8l8.2,18.8l20.7,2.1c6,0.6,7.9,6.8,3.5,10.7L318.7,346l4.4,20.4c1.3,5.9-4,9.6-9.1,6.6
		l-17.7-10.4l-18,10.5c-5.2,3-10.4-0.9-9.1-6.6l4.4-20l-15.5-13.9c-4.5-4-2.4-10.2,3.5-10.7l20.4-2l8.4-19
		C292.8,295.2,299.3,295.3,301.7,300.8"/>
	<polygon fill="#F29B12" points="296,309.2 287.8,327.8 267.8,329.8 283,343.3 278.7,362.9 296.3,352.7 313.6,362.8 309.3,342.9 
		324.3,329.6 304,327.6 	"/>
	<path fill="#34495E" d="M406.9,300.8l8.2,18.8l20.7,2.1c6,0.6,7.9,6.8,3.5,10.7L423.9,346l4.4,20.4c1.3,5.9-4,9.6-9.1,6.6
		l-17.7-10.4l-18,10.5c-5.2,3-10.4-0.9-9.1-6.6l4.4-20l-15.5-13.9c-4.5-4-2.4-10.2,3.5-10.7l20.4-2l8.4-19
		C398,295.2,404.5,295.3,406.9,300.8"/>
	<polygon fill="#F29B12" points="401.2,309.2 393,327.8 373,329.8 388.2,343.3 383.9,362.9 401.5,352.7 418.8,362.8 414.5,342.9 
		429.5,329.6 409.2,327.6 	"/>
	<path fill="#34495E" d="M512,300.8l8.2,18.8l20.7,2.1c6,0.6,7.9,6.8,3.5,10.7L529.1,346l4.4,20.4c1.3,5.9-4,9.6-9.1,6.6l-17.7-10.4
		l-18,10.5c-5.2,3-10.4-0.9-9.1-6.6l4.4-20l-15.5-13.9c-4.5-4-2.4-10.2,3.5-10.7l20.4-2l8.4-19C503.2,295.2,509.7,295.3,512,300.8"
		/>
	<polygon fill="#F29B12" points="506.4,309.2 498.1,327.8 478.2,329.8 493.4,343.3 489.1,362.9 506.7,352.7 523.9,362.8 
		519.7,342.9 534.7,329.6 514.4,327.6 	"/>
	<path fill="#34495E" d="M617.2,300.8l8.2,18.8l20.7,2.1c6,0.6,7.9,6.8,3.5,10.7L634.2,346l4.4,20.4c1.3,5.9-4,9.6-9.1,6.6
		l-17.7-10.4l-18,10.5c-5.2,3-10.4-0.9-9.1-6.6l4.4-20l-15.5-13.9c-4.5-4-2.4-10.2,3.5-10.7l20.4-2l8.4-19
		C608.4,295.2,614.9,295.3,617.2,300.8"/>
	<polygon fill="#FFFFFF" points="611.6,309.2 603.3,327.8 583.4,329.8 598.6,343.3 594.3,362.9 611.9,352.7 629.1,362.8 
		624.8,342.9 639.8,329.6 619.6,327.6 	"/>
	<path fill="#BCC2C6" d="M460,630.4H348.6c-4.3,0-8.2,1.8-11,4.6c-2.8,2.8-4.6,6.7-4.6,11l0,0c0,4.3,1.8,8.2,4.6,11l0,0
		c2.8,2.8,6.7,4.6,11,4.6H460c4.3,0,8.2-1.8,11-4.6s4.6-6.7,4.6-11l0,0c0-4.3-1.7-8.2-4.6-11C468.2,632.2,464.3,630.4,460,630.4
		 M348.6,615.1H460c8.5,0,16.2,3.5,21.8,9.1l0,0c5.6,5.6,9.1,13.3,9.1,21.8l0,0c0,8.5-3.5,16.2-9.1,21.8c-5.6,5.6-13.3,9.1-21.8,9.1
		H348.6c-8.5,0-16.2-3.5-21.8-9.1l0,0l0,0c-5.6-5.6-9.1-13.3-9.1-21.8l0,0c0-8.5,3.5-16.2,9.1-21.8
		C332.4,618.6,340.1,615.1,348.6,615.1z"/>
	<path fill="#34495E" d="M342.5,602.5H454c8.5,0,16.2,3.5,21.8,9.1l0,0c5.6,5.6,9.1,13.3,9.1,21.8l0,0c0,8.5-3.5,16.2-9.1,21.8
		c-5.6,5.6-13.3,9.1-21.8,9.1H342.5c-8.5,0-16.2-3.5-21.8-9.1l0,0l0,0c-5.6-5.6-9-13.3-9-21.8l0,0c0-8.5,3.5-16.2,9-21.8
		C326.3,606,334,602.5,342.5,602.5"/>
	<path fill="#27CABF" d="M454,611.7c5.8,0,11.3,2.3,15.3,6.4c4.1,4.1,6.3,9.6,6.3,15.3c0,5.8-2.3,11.2-6.4,15.3
		c-4.1,4.1-9.6,6.4-15.3,6.4H342.5c-5.7,0-11.2-2.3-15.3-6.3l0,0c-4.1-4.1-6.3-9.6-6.3-15.3s2.3-11.2,6.4-15.3
		c4.1-4.1,9.5-6.4,15.3-6.4L454,611.7L454,611.7z"/>
	<path fill="#51F4E9" d="M454,611.7c5.8,0,11.3,2.3,15.3,6.4c4.1,4.1,6.3,9.6,6.3,15.3c0,1.5-0.1,2.9-0.4,4.4
		c-0.9-4.1-2.9-7.9-5.9-11c-4.1-4.1-9.6-6.4-15.3-6.4H342.5c-5.8,0-11.2,2.3-15.3,6.4c-3,3-5.1,6.8-5.9,11c-0.3-1.4-0.4-2.9-0.4-4.4
		c0-5.8,2.3-11.2,6.4-15.3c4.1-4.1,9.5-6.4,15.3-6.4H454z"/>
	<path fill="#BCC2C6" d="M172.2,514h458.2c4.1,0,7.4,3.4,7.4,7.5s-3.3,7.4-7.4,7.4H172.2c-4.1,0-7.4-3.3-7.4-7.4
		C164.7,517.4,168.1,514,172.2,514"/>
	<path fill="#BCC2C6" d="M290.4,551.4H512c4.1,0,7.5,3.4,7.5,7.5c0,4.1-3.4,7.4-7.5,7.4H290.4c-4.1,0-7.5-3.3-7.5-7.4
		C283,554.8,286.3,551.4,290.4,551.4"/>
</g>
</svg>
