<?xml version="1.0" encoding="UTF-8" standalone="no"?>
<svg
   xmlns:dc="http://purl.org/dc/elements/1.1/"
   xmlns:cc="http://creativecommons.org/ns#"
   xmlns:rdf="http://www.w3.org/1999/02/22-rdf-syntax-ns#"
   xmlns:svg="http://www.w3.org/2000/svg"
   xmlns="http://www.w3.org/2000/svg"
   xmlns:sodipodi="http://sodipodi.sourceforge.net/DTD/sodipodi-0.dtd"
   xmlns:inkscape="http://www.inkscape.org/namespaces/inkscape"
   inkscape:version="1.0 (6e3e5246a0, 2020-05-07)"
   sodipodi:docname="Chat.svg"
   xml:space="preserve"
   enable-background="new 0 0 800 800"
   viewBox="0 0 800 800"
   height="800px"
   width="800px"
   y="0px"
   x="0px"
   id="Layer_1"
   version="1.0"><metadata
   id="metadata3431"><rdf:RDF><cc:Work
       rdf:about=""><dc:format>image/svg+xml</dc:format><dc:type
         rdf:resource="http://purl.org/dc/dcmitype/StillImage" /></cc:Work></rdf:RDF></metadata><defs
   id="defs3429">
	
	
	
	
	
	
	
	
	
	
	
	
	
	
	
	
	
	
	
	
	
	
	
	
	
	
	
	
	
	
</defs><sodipodi:namedview
   inkscape:current-layer="Layer_1"
   inkscape:window-maximized="1"
   inkscape:window-y="28"
   inkscape:window-x="0"
   inkscape:cy="302.77093"
   inkscape:cx="331.11355"
   inkscape:zoom="0.538125"
   showgrid="false"
   id="namedview3427"
   inkscape:window-height="1026"
   inkscape:window-width="1920"
   inkscape:pageshadow="2"
   inkscape:pageopacity="0"
   guidetolerance="10"
   gridtolerance="10"
   objecttolerance="10"
   borderopacity="1"
   bordercolor="#666666"
   pagecolor="#ffffff" />

<g
   transform="matrix(1,0,0,1.1372009,0,-104.14322)"
   id="g3701"><path
     id="path3366"
     d="M 30.815051,206.90295 H 769.19449 c 8.47231,0 16.1884,2.66769 21.76314,6.95412 v 0.0248 c 5.57664,4.28642 9.04233,10.20473 9.04233,16.70888 v 504.79007 c 0,6.50415 -3.46569,12.42245 -9.04233,16.71034 v 0.0248 c -5.57664,4.28788 -13.29083,6.94096 -21.76314,6.94096 H 30.815051 c -8.474212,0 -16.188406,-2.65308 -21.7650461,-6.94096 v -0.0248 C 3.475265,747.8033 0.00387784,741.88647 0.00387784,735.38085 V 230.59078 c 0,-6.50414 3.47138716,-12.42246 9.04612706,-16.70888 v -0.0248 c 5.5766401,-4.28643 13.2908341,-6.95412 21.7650461,-6.95412"
     fill="#bcc2c6"
     style="stroke-width:1.6661" /><path
     id="path3368"
     d="m 788.81628,225.29294 v 508.79199 c 0,9.59943 -8.61672,15.22303 -19.62179,15.22303 H 30.815051 c -10.993676,0 -19.627492,-5.47635 -19.627492,-15.22303 V 225.29294 c 0,-9.93076 8.666117,-15.20979 19.627492,-15.20979 H 769.19449 c 10.99177,0 19.62179,5.4631 19.62179,15.20979"
     fill="#ebeff0"
     style="stroke-width:1.67269" /><path
     id="path3370"
     d="M 26.741349,210.01995 H 773.26439 c 7.36459,0 14.04895,2.61836 18.87887,6.85491 4.84703,4.22492 7.8567,10.08299 7.8567,16.52421 v 502.30707 c 0,6.42627 -3.00967,12.27104 -7.8567,16.50926 -4.82992,4.23821 -11.51428,6.83995 -18.87887,6.83995 H 26.741349 c -7.364585,0 -14.048953,-2.60174 -18.882674,-6.83995 C 3.0135534,747.97718 0.00197779,742.13407 0.00197779,735.70614 V 233.39907 c 0,-6.43956 3.01157561,-12.29929 7.85669721,-16.52421 4.835621,-4.23655 11.518089,-6.85491 18.882674,-6.85491"
     fill="#bcc2c6"
     style="stroke-width:1.77672" /><path
     id="path3372"
     d="m 26.741349,219.78396 c -4.132604,0 -8.061902,1.45372 -10.974675,4.00229 -2.931774,2.56187 -4.579115,5.99597 -4.579115,9.61282 v 502.30707 c 0,3.60024 1.647341,7.03434 4.579115,9.58457 2.912773,2.57682 6.843971,4.01725 10.974675,4.01725 H 773.26439 c 4.1326,0 8.06,-1.44043 10.98798,-4.01725 2.91657,-2.54857 4.56201,-5.98433 4.56201,-9.58457 V 233.39907 c 0,-3.63014 -1.64544,-7.05095 -4.56201,-9.61282 -2.92798,-2.56186 -6.85538,-4.00229 -10.98798,-4.00229 z"
     fill="#ffffff"
     clip-rule="evenodd"
     fill-rule="evenodd"
     style="stroke-width:1.77672" /><path
     id="path3376"
     d="m 159.72759,278.61719 c 36.22061,0 65.57064,25.66353 65.57064,57.33632 0,31.66115 -29.34813,57.33797 -65.57064,57.33797 -36.21111,0 -65.578249,-25.67682 -65.578249,-57.33797 0.0019,-31.67445 29.369039,-57.33632 65.578249,-57.33632"
     fill="#34495e"
     clip-rule="evenodd"
     fill-rule="evenodd"
     style="stroke-width:1.77672" /><path
     id="path3378"
     d="m 159.72759,288.02067 c 30.28296,0 54.81637,21.45356 54.81637,47.93284 0,26.46764 -24.53341,47.93449 -54.81637,47.93449 -30.27156,0 -54.82208,-21.46685 -54.82208,-47.93449 0.002,-26.47928 24.55242,-47.93284 54.82208,-47.93284"
     fill="#22a6ef"
     style="stroke-width:1.77672" /><path
     id="path3380"
     d="m 159.72759,340.80145 c 19.27218,0 35.9033,9.87366 43.66309,24.13837 -10.02465,11.51013 -25.84825,18.94652 -43.66309,18.94652 -17.80535,0 -33.64415,-7.43805 -43.6574,-18.94652 7.7503,-14.26471 24.39851,-24.13837 43.6574,-24.13837"
     fill="#34495e"
     clip-rule="evenodd"
     fill-rule="evenodd"
     style="stroke-width:1.77672" /><path
     id="path3382"
     d="m 159.72759,303.68428 c 15.04268,0 27.22578,10.66282 27.22578,23.80775 0,13.14328 -12.1831,23.80776 -27.22578,23.80776 -15.03318,0 -27.22959,-10.66448 -27.22959,-23.80776 0,-13.14493 12.19641,-23.80775 27.22959,-23.80775"
     fill="#34495e"
     clip-rule="evenodd"
     fill-rule="evenodd"
     style="stroke-width:1.77672" /><path
     id="path3384"
     d="m 159.72759,313.08776 c 9.10313,0 16.46961,6.45285 16.46961,14.40427 0,7.94977 -7.36648,14.40262 -16.46961,14.40262 -9.09363,0 -16.45822,-6.45451 -16.45822,-14.40262 0,-7.95142 7.36459,-14.40427 16.45822,-14.40427"
     fill="#39d4ff"
     clip-rule="evenodd"
     fill-rule="evenodd"
     style="stroke-width:1.77672" /><path
     id="path3386"
     d="m 159.72759,350.20493 c 16.50381,0 30.52046,9.30712 35.55559,22.22943 -9.56294,7.14565 -21.98355,11.45364 -35.55559,11.45364 -13.56064,0 -25.97745,-4.30633 -35.54609,-11.45364 5.03702,-12.92231 19.05557,-22.22943 35.54609,-22.22943"
     fill="#39d4ff"
     clip-rule="evenodd"
     fill-rule="evenodd"
     style="stroke-width:1.77672" /><path
     id="path3388"
     d="m 289.46284,342.2967 h 395.73814 c 4.1155,0 7.47479,-2.93734 7.47479,-6.52429 0,-3.60023 -3.35929,-6.53591 -7.47479,-6.53591 H 289.46284 c -4.1155,0 -7.47858,2.93568 -7.47858,6.53591 0,3.58861 3.36308,6.52429 7.47858,6.52429"
     fill="#bcc2c6"
     clip-rule="evenodd"
     fill-rule="evenodd"
     style="stroke-width:1.77672" /><path
     id="path3390"
     d="m 289.46284,374.96799 h 310.87251 c 4.1174,0 7.47479,-2.93735 7.47479,-6.52263 v -0.0133 c 0,-3.58529 -3.35739,-6.52263 -7.47479,-6.52263 H 289.46284 c -4.1155,0 -7.47858,2.93734 -7.47858,6.52263 v 0.0133 c 0,3.58528 3.36308,6.52263 7.47858,6.52263"
     fill="#bcc2c6"
     clip-rule="evenodd"
     fill-rule="evenodd"
     style="stroke-width:1.77672" /><path
     id="path3392"
     d="M 289.46284,310.00089 H 546.6894 c 4.10031,0 7.47479,-2.93568 7.47479,-6.53758 v 0 c 0,-3.60189 -3.37258,-6.52262 -7.47479,-6.52262 H 289.46284 c -4.1155,0 -7.47858,2.92073 -7.47858,6.52262 v 0 c 0,3.6019 3.36308,6.53758 7.47858,6.53758"
     fill="#bcc2c6"
     clip-rule="evenodd"
     fill-rule="evenodd"
     style="stroke-width:1.77672" /><path
     id="path3394"
     d="m 101.62793,506.49711 h 395.73623 c 4.11931,0 7.47669,-2.93901 7.47669,-6.52429 v -0.0149 c 0,-3.58695 -3.35738,-6.52263 -7.47669,-6.52263 H 101.62793 c -4.119304,0 -7.478589,2.93568 -7.478589,6.52263 v 0.0149 c 0.0019,3.58695 3.359285,6.52429 7.478589,6.52429"
     fill="#bcc2c6"
     clip-rule="evenodd"
     fill-rule="evenodd"
     style="stroke-width:1.77672" /><path
     id="path3396"
     d="m 101.62793,539.16673 h 310.8687 c 4.11931,0 7.47859,-2.93568 7.47859,-6.53758 0,-3.58362 -3.35928,-6.52263 -7.47859,-6.52263 h -310.8687 c -4.100304,0 -7.478589,2.93901 -7.478589,6.52263 0.0019,3.60356 3.378285,6.53758 7.478589,6.53758"
     fill="#bcc2c6"
     clip-rule="evenodd"
     fill-rule="evenodd"
     style="stroke-width:1.77672" /><path
     id="path3398"
     d="m 101.62793,474.18635 h 257.22276 c 4.1193,0 7.47858,-2.93568 7.47858,-6.52429 v 0 c 0,-3.60024 -3.35928,-6.53758 -7.47858,-6.53758 H 101.62793 c -4.100304,0 -7.478589,2.93734 -7.478589,6.53758 v 0 c 0.0019,3.58861 3.378285,6.52429 7.478589,6.52429"
     fill="#bcc2c6"
     clip-rule="evenodd"
     fill-rule="evenodd"
     style="stroke-width:1.77672" /><path
     id="path3400"
     d="m 640.27815,442.81593 c 36.20731,0 65.55735,25.66353 65.55735,57.32303 0,31.67279 -29.35004,57.35127 -65.55735,57.35127 -36.22061,0 -65.58964,-25.67682 -65.58964,-57.35127 0.002,-31.6595 29.36903,-57.32303 65.58964,-57.32303"
     fill="#34495e"
     clip-rule="evenodd"
     fill-rule="evenodd"
     style="stroke-width:1.77672" /><path
     id="path3402"
     d="m 640.27815,452.21941 c 30.26966,0 54.80308,21.45357 54.80308,47.91955 0,26.47927 -24.53342,47.94779 -54.80308,47.94779 -30.28296,0 -54.83347,-21.46852 -54.83347,-47.94779 0,-26.46598 24.55051,-47.91955 54.83347,-47.91955"
     fill="#22a6ef"
     style="stroke-width:1.77672" /><path
     id="path3404"
     d="m 640.27815,504.98856 c 19.26269,0 35.8919,9.87366 43.6517,24.15167 -10.02275,11.51012 -25.84635,18.94652 -43.6517,18.94652 -17.81675,0 -33.65744,-7.43806 -43.66879,-18.94652 7.76359,-14.27801 24.39471,-24.15167 43.66879,-24.15167"
     fill="#34495e"
     clip-rule="evenodd"
     fill-rule="evenodd"
     style="stroke-width:1.77672" /><path
     id="path3406"
     d="m 640.27815,467.88302 c 15.03508,0 27.21248,10.66614 27.21248,23.80942 0,13.14161 -12.1774,23.80609 -27.21248,23.80609 -15.04648,0 -27.22578,-10.66448 -27.22578,-23.80609 0,-13.14328 12.1793,-23.80942 27.22578,-23.80942"
     fill="#34495e"
     clip-rule="evenodd"
     fill-rule="evenodd"
     style="stroke-width:1.77672" /><path
     id="path3408"
     d="m 640.27815,477.2865 c 9.09363,0 16.45631,6.45618 16.45631,14.40594 0,7.9481 -7.36268,14.40261 -16.45631,14.40261 -9.10503,0 -16.46961,-6.45451 -16.46961,-14.40261 0,-7.94976 7.36458,-14.40594 16.46961,-14.40594"
     fill="#39d4ff"
     clip-rule="evenodd"
     fill-rule="evenodd"
     style="stroke-width:1.77672" /><path
     id="path3410"
     d="m 640.27815,514.40534 c 16.48862,0 30.50717,9.29383 35.54229,22.22777 -9.56294,7.13235 -21.98355,11.4553 -35.54229,11.4553 -13.57394,0 -25.99075,-4.32295 -35.55749,-11.4553 5.04083,-12.93394 19.05368,-22.22777 35.55749,-22.22777"
     fill="#39d4ff"
     clip-rule="evenodd"
     fill-rule="evenodd"
     style="stroke-width:1.77672" /><path
     id="path3412"
     d="m 103.60778,631.39229 h 380.78476 c 5.19473,0 9.45844,3.71155 9.45844,8.25546 v 25.37112 c 0,4.54059 -4.26181,8.28038 -9.45844,8.28038 H 103.60778 c -5.192832,0 -9.458439,-3.73979 -9.458439,-8.28038 v -25.37112 c 0.0019,-4.54391 4.265607,-8.25546 9.458439,-8.25546"
     fill="#bcc2c6"
     clip-rule="evenodd"
     fill-rule="evenodd"
     style="stroke-width:1.77672" /><path
     d="m 105.33302,641.16796 h 377.33427 v 22.35403 H 105.33302 Z"
     style="clip-rule:evenodd;fill:#ffffff;fill-rule:evenodd;stroke-width:1.77672"
     id="rect3414" /><path
     id="path3416"
     d="M 674.88942,649.72908 H 563.09631 c -4.2922,0 -8.2025,1.52349 -11.04117,4.01725 -2.85197,2.49208 -4.61142,5.8996 -4.61142,9.66265 v 0 c 0,3.76804 1.75945,7.17556 4.57912,9.64106 l 0.0323,0.0299 c 2.81777,2.46384 6.73187,4.01559 11.04117,4.01559 h 111.79311 c 4.29031,0 8.20441,-1.55175 11.03738,-4.0455 2.83487,-2.46384 4.61141,-5.8996 4.61141,-9.64106 v 0 c 0,-3.76471 -1.77654,-7.19881 -4.59241,-9.66265 -2.83867,-2.49376 -6.74707,-4.01725 -11.05638,-4.01725 M 563.09631,636.32496 h 111.79311 c 8.48751,0 16.23211,3.04367 21.83915,7.9481 l 0.0342,0.0282 c 5.60704,4.90277 9.07273,11.66131 9.07273,19.10934 v 0 c 0,7.453 -3.46569,14.21155 -9.07273,19.11432 -5.62224,4.90443 -13.35544,7.9481 -21.87335,7.9481 H 563.09631 c -8.48941,0 -16.2188,-3.04367 -21.84104,-7.9481 h -0.0152 l -0.019,-0.0283 c -5.60324,-4.90277 -9.08982,-11.66131 -9.08982,-19.08607 v 0 c 0,-7.44803 3.48658,-14.23315 9.08982,-19.13759 5.60895,-4.90443 13.35544,-7.9481 21.87525,-7.9481 z"
     fill="#bcc2c6"
     style="stroke-width:1.77672" /><path
     id="path3418"
     d="m 557.01426,625.25843 h 111.78931 c 8.50651,0 16.23971,3.04699 21.84675,7.96139 l 0.0285,0.0299 c 5.60704,4.9011 9.08983,11.66131 9.08983,19.08275 v 0 c 0,7.45135 -3.48279,14.23813 -9.08983,19.1409 -5.60514,4.90111 -13.34974,7.95143 -21.87525,7.95143 H 557.01426 c -8.48941,0 -16.21881,-3.05032 -21.84105,-7.95143 l -0.019,-0.0282 h -0.0114 c -5.61084,-4.92935 -9.09363,-11.68956 -9.09363,-19.11266 v 0 c 0,-7.45135 3.48279,-14.20989 9.09363,-19.11266 5.60514,-4.9144 13.35164,-7.96139 21.87145,-7.96139"
     fill="#34495e"
     style="stroke-width:1.77672" /><path
     id="path3420"
     d="m 668.80357,633.33113 c 5.76664,0 11.29388,1.99201 15.38088,5.56733 4.07371,3.57199 6.36706,8.39336 6.36706,13.43402 0,5.06891 -2.29335,9.86203 -6.38036,13.43402 -4.0832,3.57199 -9.58384,5.59723 -15.36568,5.59723 H 557.01426 c -5.76474,0 -11.28058,-1.99699 -15.36188,-5.57065 l -0.019,-0.0282 c -4.08511,-3.572 -6.36706,-8.39003 -6.36706,-13.43402 0,-5.04067 2.31425,-9.86203 6.38416,-13.43402 4.0813,-3.57366 9.58194,-5.56733 15.36188,-5.56733 h 111.79121 z"
     fill="#27cabf"
     style="stroke-width:1.77672" /><path
     id="path3422"
     d="m 668.80357,633.33113 c 5.76664,0 11.29388,1.99201 15.38088,5.56733 4.07371,3.57199 6.36706,8.39336 6.36706,13.43402 0,1.30253 -0.1558,2.57682 -0.44081,3.82453 -0.85692,-3.60024 -2.89757,-6.95293 -5.92435,-9.61116 -4.0851,-3.57366 -9.61424,-5.56733 -15.38088,-5.56733 H 557.01426 c -5.77994,0 -11.28058,2.02026 -15.36188,5.59225 -3.02868,2.65823 -5.08643,5.986 -5.94145,9.61448 -0.28501,-1.24771 -0.44271,-2.55024 -0.44271,-3.85277 0,-5.04066 2.31425,-9.86203 6.38416,-13.43402 4.0813,-3.57366 9.58194,-5.56733 15.36188,-5.56733 z"
     fill="#51f4e9"
     style="stroke-width:1.77672" /></g>
</svg>
