<?xml version="1.0" encoding="UTF-8" standalone="no"?>
<svg
   xmlns:dc="http://purl.org/dc/elements/1.1/"
   xmlns:cc="http://creativecommons.org/ns#"
   xmlns:rdf="http://www.w3.org/1999/02/22-rdf-syntax-ns#"
   xmlns:svg="http://www.w3.org/2000/svg"
   xmlns="http://www.w3.org/2000/svg"
   xmlns:sodipodi="http://sodipodi.sourceforge.net/DTD/sodipodi-0.dtd"
   xmlns:inkscape="http://www.inkscape.org/namespaces/inkscape"
   inkscape:version="1.0 (6e3e5246a0, 2020-05-07)"
   sodipodi:docname="Comments.svg"
   xml:space="preserve"
   enable-background="new 0 0 800 800"
   viewBox="0 0 800 800"
   height="800px"
   width="800px"
   y="0px"
   x="0px"
   id="Layer_1"
   version="1.0"><metadata
   id="metadata5290"><rdf:RDF><cc:Work
       rdf:about=""><dc:format>image/svg+xml</dc:format><dc:type
         rdf:resource="http://purl.org/dc/dcmitype/StillImage" /></cc:Work></rdf:RDF></metadata><defs
   id="defs5288">
	
	
	
	
	
	
	
	
	
	
	
	
	
	
	
	
	
	
	
	
	
	
	
	
	
	
	
	
	
	
</defs><sodipodi:namedview
   inkscape:current-layer="Layer_1"
   inkscape:window-maximized="1"
   inkscape:window-y="28"
   inkscape:window-x="0"
   inkscape:cy="400"
   inkscape:cx="489.90484"
   inkscape:zoom="1.07625"
   showgrid="false"
   id="namedview5286"
   inkscape:window-height="1026"
   inkscape:window-width="1920"
   inkscape:pageshadow="2"
   inkscape:pageopacity="0"
   guidetolerance="10"
   gridtolerance="10"
   objecttolerance="10"
   borderopacity="1"
   bordercolor="#666666"
   pagecolor="#ffffff" />

<g
   transform="matrix(1.9000974,0,0,1.9000687,-392.45741,-353.21661)"
   id="g5347"><path
     id="path5229"
     d="m 220.619,254.919 h 392.896 c 3.876,0 7.396,1.576 9.937,4.126 2.551,2.543 4.125,6.069 4.125,9.946 v 302.341 c 0,3.868 -1.574,7.386 -4.125,9.937 -2.541,2.551 -6.061,4.117 -9.937,4.117 H 220.619 c -3.876,0 -7.394,-1.566 -9.937,-4.117 -2.551,-2.551 -4.135,-6.068 -4.135,-9.937 V 268.991 c 0,-3.876 1.584,-7.403 4.135,-9.946 2.544,-2.55 6.061,-4.126 9.937,-4.126"
     fill="#bcc2c6" /><path
     id="path5231"
     d="m 220.619,260.796 c -2.176,0 -4.243,0.875 -5.778,2.409 -1.541,1.542 -2.408,3.609 -2.408,5.786 v 302.341 c 0,2.167 0.867,4.234 2.408,5.769 1.535,1.551 3.603,2.418 5.778,2.418 h 392.896 c 2.175,0 4.245,-0.867 5.776,-2.418 1.543,-1.534 2.41,-3.602 2.41,-5.769 V 268.991 c 0,-2.185 -0.867,-4.244 -2.41,-5.786 -1.531,-1.542 -3.602,-2.409 -5.776,-2.409 z"
     fill="#ffffff"
     clip-rule="evenodd"
     fill-rule="evenodd" /><path
     id="path5235"
     d="m 256.28,375.801 h 221.74 c 4.527,0 8.236,-3.702 8.236,-8.228 v -67.664 c 0,-4.535 -3.717,-8.236 -8.236,-8.236 H 256.28 c -4.525,0 -8.234,3.718 -8.234,8.236 v 67.664 c 0,4.518 3.709,8.228 8.234,8.228"
     fill="#bcc2c6"
     clip-rule="evenodd"
     fill-rule="evenodd" /><path
     id="path5237"
     d="m 256.28,297.333 h 221.74 c 1.418,0 2.577,1.167 2.577,2.576 v 67.664 c 0,1.4 -1.167,2.568 -2.577,2.568 H 256.28 c -1.408,0 -2.575,-1.151 -2.575,-2.568 v -67.664 c 0,-1.417 1.159,-2.576 2.575,-2.576"
     fill="#ebeff0" /><path
     id="path5239"
     d="m 573.743,350.958 h -44.58 c -1.709,0 -3.269,0.7 -4.401,1.834 -1.134,1.135 -1.836,2.693 -1.836,4.402 v 0.008 c 0,1.717 0.702,3.275 1.818,4.401 l 0.018,0.008 c 1.126,1.126 2.684,1.826 4.401,1.826 h 44.58 c 1.709,0 3.27,-0.709 4.402,-1.834 1.133,-1.134 1.834,-2.692 1.834,-4.401 v -0.008 c 0,-1.717 -0.701,-3.276 -1.824,-4.41 -1.134,-1.125 -2.693,-1.826 -4.412,-1.826 m -44.58,-6.109 h 44.58 c 3.385,0 6.471,1.392 8.711,3.626 l 0.011,0.008 c 2.233,2.242 3.626,5.327 3.626,8.711 v 0.008 c 0,3.393 -1.393,6.477 -3.626,8.72 -2.235,2.233 -5.327,3.618 -8.722,3.618 h -44.58 c -3.384,0 -6.469,-1.385 -8.711,-3.618 v -0.009 l -0.01,-0.008 c -2.232,-2.243 -3.625,-5.327 -3.625,-8.703 v -0.008 c 0,-3.394 1.393,-6.486 3.625,-8.719 2.236,-2.234 5.319,-3.626 8.721,-3.626 z"
     fill="#bcc2c6" /><path
     id="path5241"
     d="m 526.737,339.805 h 44.581 c 3.394,0 6.469,1.392 8.711,3.627 l 0.009,0.008 c 2.242,2.242 3.627,5.319 3.627,8.711 0,3.401 -1.385,6.486 -3.627,8.72 -2.234,2.243 -5.326,3.626 -8.72,3.626 h -44.581 c -3.376,0 -6.47,-1.384 -8.703,-3.626 h -0.008 l -0.01,-0.008 c -2.233,-2.242 -3.625,-5.327 -3.625,-8.711 0,-3.4 1.392,-6.485 3.625,-8.719 2.235,-2.236 5.329,-3.628 8.721,-3.628"
     fill="#34495e" /><path
     id="path5243"
     d="m 571.318,343.482 c 2.302,0 4.502,0.909 6.127,2.535 1.636,1.633 2.542,3.834 2.542,6.134 0,2.301 -0.917,4.501 -2.542,6.127 -1.625,1.625 -3.825,2.551 -6.127,2.551 h -44.581 c -2.301,0 -4.494,-0.909 -6.119,-2.542 l -0.015,-0.009 c -1.628,-1.626 -2.536,-3.826 -2.536,-6.127 0,-2.3 0.917,-4.501 2.551,-6.126 1.625,-1.626 3.818,-2.542 6.119,-2.542 h 44.581 z"
     fill="#27cabf" /><path
     id="path5245"
     d="m 571.318,343.482 c 2.302,0 4.502,0.909 6.127,2.535 1.636,1.633 2.542,3.834 2.542,6.134 0,0.592 -0.059,1.176 -0.174,1.743 -0.342,-1.643 -1.15,-3.168 -2.368,-4.376 -1.625,-1.634 -3.825,-2.542 -6.127,-2.542 h -44.581 c -2.301,0 -4.494,0.916 -6.119,2.542 -1.217,1.217 -2.034,2.734 -2.376,4.385 -0.116,-0.566 -0.175,-1.159 -0.175,-1.751 0,-2.3 0.917,-4.501 2.551,-6.126 1.625,-1.626 3.818,-2.542 6.119,-2.542 h 44.581 z"
     fill="#51f4e9" /><path
     id="path5247"
     d="m 282.556,392.198 c 19.065,0 34.512,15.447 34.512,34.511 0,19.058 -15.446,34.513 -34.512,34.513 -19.057,0 -34.51,-15.455 -34.51,-34.513 0,-19.064 15.453,-34.511 34.51,-34.511"
     fill="#34495e"
     clip-rule="evenodd"
     fill-rule="evenodd" /><path
     id="path5249"
     d="m 282.556,397.858 c 15.939,0 28.853,12.914 28.853,28.851 0,15.932 -12.913,28.852 -28.853,28.852 -15.929,0 -28.851,-12.92 -28.851,-28.852 0,-15.938 12.922,-28.851 28.851,-28.851"
     fill="#22a6ef" /><path
     id="path5251"
     d="m 282.556,429.628 c 10.146,0 18.898,5.934 22.975,14.529 -5.269,6.927 -13.596,11.403 -22.975,11.403 -9.377,0 -17.704,-4.477 -22.975,-11.403 4.078,-8.595 12.831,-14.529 22.975,-14.529"
     fill="#34495e"
     clip-rule="evenodd"
     fill-rule="evenodd" /><path
     id="path5253"
     d="m 282.556,407.287 c 7.92,0 14.33,6.418 14.33,14.329 0,7.911 -6.41,14.33 -14.33,14.33 -7.911,0 -14.32,-6.419 -14.32,-14.33 0,-7.911 6.409,-14.329 14.32,-14.329"
     fill="#34495e"
     clip-rule="evenodd"
     fill-rule="evenodd" /><path
     id="path5255"
     d="m 282.556,412.946 c 4.786,0 8.671,3.884 8.671,8.67 0,4.785 -3.885,8.669 -8.671,8.669 -4.785,0 -8.668,-3.884 -8.668,-8.669 0,-4.786 3.883,-8.67 8.668,-8.67"
     fill="#39d4ff"
     clip-rule="evenodd"
     fill-rule="evenodd" /><path
     id="path5257"
     d="m 282.556,435.287 c 8.688,0 16.056,5.594 18.715,13.381 -5.043,4.292 -11.569,6.893 -18.715,6.893 -7.135,0 -13.671,-2.601 -18.705,-6.893 2.65,-7.787 10.027,-13.381 18.705,-13.381"
     fill="#39d4ff"
     clip-rule="evenodd"
     fill-rule="evenodd" /><path
     id="path5259"
     d="m 350.839,430.526 h 208.275 c 2.168,0 3.928,-1.766 3.928,-3.935 0,-2.157 -1.76,-3.926 -3.928,-3.926 H 350.839 c -2.168,0 -3.936,1.769 -3.936,3.926 0,2.17 1.768,3.935 3.936,3.935"
     fill="#bcc2c6"
     clip-rule="evenodd"
     fill-rule="evenodd" /><path
     id="path5261"
     d="m 350.828,450.192 h 163.62 c 2.16,0 3.928,-1.768 3.928,-3.927 v -0.009 c 0,-2.158 -1.768,-3.926 -3.928,-3.926 h -163.62 c -2.157,0 -3.925,1.768 -3.925,3.926 v 0.009 c 0,2.16 1.768,3.927 3.925,3.927"
     fill="#bcc2c6"
     clip-rule="evenodd"
     fill-rule="evenodd" /><path
     id="path5263"
     d="m 350.828,411.087 h 135.388 c 2.158,0 3.927,-1.766 3.927,-3.935 v 0 c 0,-2.167 -1.769,-3.935 -3.927,-3.935 H 350.828 c -2.157,0 -3.925,1.768 -3.925,3.935 v 0 c 0,2.169 1.768,3.935 3.925,3.935"
     fill="#bcc2c6"
     clip-rule="evenodd"
     fill-rule="evenodd" /><path
     id="path5265"
     d="m 282.556,479.609 c 19.065,0 34.512,15.456 34.512,34.521 0,19.057 -15.446,34.512 -34.512,34.512 -19.057,0 -34.51,-15.455 -34.51,-34.512 0,-19.065 15.453,-34.521 34.51,-34.521"
     fill="#34495e"
     clip-rule="evenodd"
     fill-rule="evenodd" /><path
     id="path5267"
     d="m 282.556,485.271 c 15.939,0 28.853,12.921 28.853,28.859 0,15.938 -12.913,28.843 -28.853,28.843 -15.929,0 -28.851,-12.904 -28.851,-28.843 0,-15.939 12.922,-28.859 28.851,-28.859"
     fill="#22a6ef" /><path
     id="path5269"
     d="m 282.556,517.048 c 10.146,0 18.898,5.935 22.975,14.538 -5.269,6.919 -13.596,11.387 -22.975,11.387 -9.377,0 -17.704,-4.468 -22.975,-11.387 4.078,-8.604 12.831,-14.538 22.975,-14.538"
     fill="#34495e"
     clip-rule="evenodd"
     fill-rule="evenodd" /><path
     id="path5271"
     d="m 282.556,494.708 c 7.92,0 14.33,6.409 14.33,14.336 0,7.904 -6.41,14.323 -14.33,14.323 -7.911,0 -14.32,-6.419 -14.32,-14.323 -10e-4,-7.927 6.409,-14.336 14.32,-14.336"
     fill="#34495e"
     clip-rule="evenodd"
     fill-rule="evenodd" /><path
     id="path5273"
     d="m 282.556,500.367 c 4.786,0 8.671,3.876 8.671,8.677 0,4.785 -3.885,8.654 -8.671,8.654 -4.785,0 -8.668,-3.869 -8.668,-8.654 0,-4.801 3.883,-8.677 8.668,-8.677"
     fill="#39d4ff"
     clip-rule="evenodd"
     fill-rule="evenodd" /><path
     id="path5275"
     d="m 282.556,522.699 c 8.688,0 16.056,5.603 18.715,13.388 -5.043,4.301 -11.569,6.886 -18.715,6.886 -7.135,0 -13.671,-2.585 -18.705,-6.886 2.65,-7.785 10.027,-13.388 18.705,-13.388"
     fill="#39d4ff"
     clip-rule="evenodd"
     fill-rule="evenodd" /><path
     id="path5277"
     d="m 350.839,517.947 h 208.275 c 2.168,0 3.928,-1.767 3.928,-3.935 v 0 c 0,-2.167 -1.76,-3.917 -3.928,-3.917 H 350.839 c -2.168,0 -3.936,1.75 -3.936,3.917 v 0 c 0,2.169 1.768,3.935 3.936,3.935"
     fill="#bcc2c6"
     clip-rule="evenodd"
     fill-rule="evenodd" /><path
     id="path5279"
     d="m 350.828,537.62 h 163.62 c 2.16,0 3.928,-1.767 3.928,-3.934 0,-2.168 -1.768,-3.935 -3.928,-3.935 h -163.62 c -2.157,0 -3.925,1.767 -3.925,3.935 0,2.168 1.768,3.934 3.925,3.934"
     fill="#bcc2c6"
     clip-rule="evenodd"
     fill-rule="evenodd" /><path
     id="path5281"
     d="m 350.828,498.5 h 135.388 c 2.158,0 3.927,-1.768 3.927,-3.927 v -0.009 c 0,-2.158 -1.769,-3.927 -3.927,-3.927 H 350.828 c -2.157,0 -3.925,1.769 -3.925,3.927 v 0.009 c 0,2.159 1.768,3.927 3.925,3.927"
     fill="#bcc2c6"
     clip-rule="evenodd"
     fill-rule="evenodd" /></g>
</svg>
