<?xml version="1.0" encoding="utf-8"?>
<!-- Generator: Adobe Illustrator 15.1.0, SVG Export Plug-In . SVG Version: 6.00 Build 0)  -->
<!DOCTYPE svg PUBLIC "-//W3C//DTD SVG 1.0//EN" "http://www.w3.org/TR/2001/REC-SVG-20010904/DTD/svg10.dtd">
<svg version="1.0" id="Layer_1" xmlns="http://www.w3.org/2000/svg" xmlns:xlink="http://www.w3.org/1999/xlink" x="0px" y="0px"
	 width="800px" height="800px" viewBox="187.94700622558594 207.4409942626953 421.031982421875 377.947021484375" enable-background="new 0 0 800 800" xml:space="preserve">
<g>
	<!-- <path fill="#BCC2C6" d="M204.153,207.441h388.612c4.468,0,8.519,1.826,11.453,4.76v0.017c2.935,2.935,4.76,6.986,4.76,11.438
		v345.526c0,4.452-1.825,8.486-4.76,11.438v0.017c-2.935,2.935-6.985,4.751-11.453,4.751H204.153c-4.469,0-8.52-1.816-11.452-4.751
		v-0.017c-2.936-2.951-4.754-6.985-4.754-11.438V223.655c0-4.452,1.818-8.503,4.754-11.438v-0.017
		C195.634,209.267,199.685,207.441,204.153,207.441"/>
	<path fill="#EBEFF0" d="M603.102,223.655v345.526c0,6.503-4.535,10.321-10.336,10.321H204.153c-5.784,0-10.329-3.702-10.329-10.321
		V223.655c0-6.744,4.561-10.329,10.329-10.329h388.612C598.549,213.326,603.102,217.036,603.102,223.655"/> -->
	<path fill="#BCC2C6" d="M202.019,254.916h392.89c3.876,0,7.394,1.575,9.944,4.126c2.542,2.542,4.126,6.069,4.126,9.945v302.328
		c0,3.886-1.584,7.403-4.126,9.938c-2.551,2.552-6.068,4.134-9.944,4.134h-392.89c-3.876,0-7.394-1.582-9.944-4.134
		c-2.542-2.534-4.127-6.052-4.127-9.938V268.986c0-3.876,1.585-7.402,4.127-9.945C194.625,256.491,198.143,254.916,202.019,254.916"
		/>
	<path fill-rule="evenodd" clip-rule="evenodd" fill="#FFFFFF" d="M202.019,260.792c-2.185,0-4.251,0.867-5.785,2.409
		c-1.542,1.543-2.409,3.61-2.409,5.786v302.328c0,2.168,0.867,4.252,2.409,5.786c1.534,1.534,3.601,2.401,5.785,2.401h392.89
		c2.175,0,4.241-0.867,5.775-2.401c1.544-1.534,2.418-3.602,2.418-5.786V268.986c0-2.184-0.874-4.243-2.418-5.786
		c-1.534-1.542-3.601-2.409-5.775-2.409H202.019z"/>
	<!-- <path fill-rule="evenodd" clip-rule="evenodd" fill="#94A4A5" d="M544.35,227.414c4.135,0,7.485,3.351,7.485,7.486
		c0,4.134-3.351,7.485-7.485,7.485c-4.136,0-7.486-3.351-7.486-7.485C536.863,230.765,540.214,227.414,544.35,227.414
		 M567.865,227.414c4.135,0,7.493,3.351,7.493,7.486c0,4.134-3.358,7.485-7.493,7.485c-4.144,0-7.493-3.351-7.493-7.485
		C560.372,230.765,563.729,227.414,567.865,227.414z M520.825,227.414c4.134,0,7.484,3.351,7.484,7.486
		c0,4.134-3.351,7.485-7.484,7.485c-4.135,0-7.485-3.351-7.485-7.485C513.34,230.765,516.69,227.414,520.825,227.414z"/> -->
	<path fill-rule="evenodd" clip-rule="evenodd" fill="#34495E" d="M217.258,456.044H579.66c4.535,0,8.238-3.701,8.238-8.236V289.227
		c0-4.526-3.703-8.228-8.238-8.228H217.258c-4.525,0-8.236,3.702-8.236,8.228v158.581
		C209.021,452.343,212.732,456.044,217.258,456.044"/>
	<path fill="#22A6EF" d="M217.258,286.65H579.66c1.417,0,2.576,1.167,2.576,2.576v158.581c0,1.417-1.159,2.568-2.576,2.568H217.258
		c-1.418,0-2.568-1.151-2.568-2.568V289.227C214.689,287.81,215.84,286.65,217.258,286.65"/>
	<path fill-rule="evenodd" clip-rule="evenodd" fill="#BCC2C6" d="M217.723,518.714h103.703c2.292,0,4.167,1.868,4.167,4.169l0,0
		c0,2.284-1.875,4.167-4.167,4.167H217.723c-2.282,0-4.158-1.883-4.158-4.167l0,0C213.564,520.582,215.44,518.714,217.723,518.714"
		/>
	<path fill-rule="evenodd" clip-rule="evenodd" fill="#BCC2C6" d="M217.723,495.357h65.924c2.282,0,4.16,1.867,4.16,4.151v0.018
		c0,2.282-1.878,4.15-4.16,4.15h-65.924c-2.282,0-4.158-1.868-4.158-4.15v-0.018C213.564,497.225,215.44,495.357,217.723,495.357"/>
	<path fill-rule="evenodd" clip-rule="evenodd" fill="#BCC2C6" d="M217.723,472.951h103.703c2.292,0,4.167,1.883,4.167,4.167l0,0
		c0,2.283-1.875,4.168-4.167,4.168H217.723c-2.282,0-4.158-1.885-4.158-4.168l0,0C213.564,474.834,215.44,472.951,217.723,472.951"
		/>
	<path fill-rule="evenodd" clip-rule="evenodd" fill="#BCC2C6" d="M364.072,499.292h203.451c2.159,0,3.926,1.767,3.926,3.917v0.017
		c0,2.15-1.767,3.919-3.926,3.919H364.072c-2.159,0-3.926-1.769-3.926-3.919v-0.017
		C360.146,501.059,361.913,499.292,364.072,499.292"/>
	<path fill-rule="evenodd" clip-rule="evenodd" fill="#BCC2C6" d="M364.072,519.049h203.451c2.159,0,3.926,1.767,3.926,3.934l0,0
		c0,2.168-1.767,3.936-3.926,3.936H364.072c-2.159,0-3.926-1.768-3.926-3.936l0,0C360.146,520.815,361.913,519.049,364.072,519.049"
		/>
	<path fill-rule="evenodd" clip-rule="evenodd" fill="#BCC2C6" d="M364.072,479.619H496.25c2.167,0,3.934,1.766,3.934,3.933
		c0,2.169-1.767,3.936-3.934,3.936H364.072c-2.159,0-3.926-1.767-3.926-3.936C360.146,481.385,361.913,479.619,364.072,479.619"/>
	<path fill-rule="evenodd" clip-rule="evenodd" fill="#34495E" d="M346.608,419.127H450.31c2.292,0,4.16,1.868,4.16,4.16l0,0
		c0,2.292-1.868,4.16-4.16,4.16H346.608c-2.293,0-4.16-1.868-4.16-4.16l0,0C342.448,420.995,344.315,419.127,346.608,419.127"/>
	<!-- <path fill-rule="evenodd" clip-rule="evenodd" fill="#94A4A5" d="M454.928,239.477h-8.21v-3.301h7.918v-2.568h-7.918v-3.384h8.21
		v-2.677h-10.945c0,4.877,0,9.779,0,14.639h10.945V239.477z M427.27,227.547v14.639h10.278v-2.542h-7.521v-12.097H427.27z
		 M420.141,242.186v-14.639h-2.733v14.639H420.141z M402.986,242.186v-5.402h7.326v-2.55h-7.326v-3.993h7.743v-2.651h-10.503v14.597
		H402.986z M386.164,229.782c3.441,0,4.817,2.759,4.784,5.227c-0.051,2.4-1.343,4.985-4.784,4.985c-3.451,0-4.744-2.568-4.802-4.968
		C381.296,232.558,382.713,229.782,386.164,229.782z M386.164,227.272c-5.052,0-7.52,3.868-7.52,7.711
		c0,3.842,2.384,7.536,7.52,7.536s7.451-3.776,7.502-7.553C393.699,231.14,391.199,227.272,386.164,227.272z M367.623,230.115
		c1.735,0,2.52,1.175,2.52,2.351c0,1.176-0.76,2.352-2.52,2.352h-4.191v-4.702H367.623z M373.627,242.002l-4.436-4.993
		c2.783-0.559,3.702-2.593,3.702-4.602c0-2.542-1.818-4.835-5.271-4.861c-2.316,0.026-4.634,0-6.951,0v14.639h2.76v-4.885h2.65
		l4.259,4.885h3.286V242.002z M348.885,227.547c-2.302-0.016-4.594,0-6.886,0v14.639h2.751v-4.302h4.135
		C356.054,237.884,356.027,227.547,348.885,227.547z M344.75,230.182h4.135c3.508,0,3.535,5.176,0,5.176h-4.135V230.182z"/> -->
	<path fill-rule="evenodd" clip-rule="evenodd" fill="#34495E" d="M398.46,334.008c19.063,0,34.511,15.446,34.511,34.512
		c0,19.056-15.447,34.512-34.511,34.512c-19.066,0-34.505-15.456-34.505-34.512C363.955,349.454,379.394,334.008,398.46,334.008"/>
	<path fill="#22A6EF" d="M398.46,339.668c15.93,0,28.85,12.912,28.85,28.852c0,15.931-12.92,28.851-28.85,28.851
		c-15.932,0-28.853-12.92-28.853-28.851C369.607,352.58,382.528,339.668,398.46,339.668"/>
	<path fill-rule="evenodd" clip-rule="evenodd" fill="#34495E" d="M398.46,371.429c10.145,0,18.896,5.943,22.982,14.538
		c-5.277,6.928-13.604,11.404-22.982,11.404s-17.699-4.477-22.975-11.404C379.562,377.372,388.314,371.429,398.46,371.429"/>
	<path fill-rule="evenodd" clip-rule="evenodd" fill="#34495E" d="M398.46,349.096c7.91,0,14.329,6.419,14.329,14.331
		c0,7.911-6.419,14.33-14.329,14.33c-7.911,0-14.33-6.419-14.33-14.33C384.13,355.515,390.549,349.096,398.46,349.096"/>
	<path fill-rule="evenodd" clip-rule="evenodd" fill="#39D4FF" d="M398.46,354.756c4.791,0,8.668,3.885,8.668,8.67
		c0,4.785-3.877,8.669-8.668,8.669c-4.785,0-8.661-3.884-8.661-8.669C389.799,358.641,393.675,354.756,398.46,354.756"/>
	<path fill-rule="evenodd" clip-rule="evenodd" fill="#39D4FF" d="M398.46,377.097c8.677,0,16.062,5.594,18.714,13.379
		c-5.044,4.293-11.571,6.895-18.714,6.895c-7.136,0-13.673-2.602-18.708-6.895C382.404,382.691,389.782,377.097,398.46,377.097"/>
</g>
</svg>
