<?xml version="1.0" encoding="utf-8"?>
<!-- Generator: Adobe Illustrator 15.1.0, SVG Export Plug-In . SVG Version: 6.00 Build 0)  -->
<!DOCTYPE svg PUBLIC "-//W3C//DTD SVG 1.0//EN" "http://www.w3.org/TR/2001/REC-SVG-20010904/DTD/svg10.dtd">
<svg version="1.0" id="Layer_1" xmlns="http://www.w3.org/2000/svg" xmlns:xlink="http://www.w3.org/1999/xlink" x="0px" y="0px"
	 width="800px" height="800px" viewBox="192.96099853515625 207.4409942626953 421.031005859375 377.947021484375" enable-background="new 0 0 800 800" xml:space="preserve">
<g>
	<!-- <path fill="#BCC2C6" d="M209.166,207.441h388.611c4.469,0,8.52,1.826,11.455,4.76v0.017c2.935,2.935,4.76,6.986,4.76,11.438
		v345.526c0,4.452-1.825,8.486-4.76,11.438v0.017c-2.936,2.935-6.986,4.751-11.455,4.751H209.166c-4.468,0-8.52-1.816-11.453-4.751
		v-0.017c-2.935-2.951-4.752-6.985-4.752-11.438V223.655c0-4.452,1.817-8.503,4.752-11.438v-0.017
		C200.646,209.267,204.698,207.441,209.166,207.441"/>
	<path fill="#EBEFF0" d="M608.106,223.655v345.526c0,6.503-4.526,10.321-10.329,10.321H209.166c-5.785,0-10.328-3.702-10.328-10.321
		V223.655c0-6.744,4.56-10.329,10.328-10.329h388.611C603.563,213.326,608.106,217.036,608.106,223.655"/> -->
	<path fill="#BCC2C6" d="M207.033,254.916h392.879c3.885,0,7.402,1.575,9.953,4.126c2.543,2.542,4.127,6.069,4.127,9.945v302.328
		c0,3.886-1.584,7.403-4.127,9.938c-2.551,2.552-6.068,4.134-9.953,4.134H207.033c-3.886,0-7.403-1.582-9.947-4.134
		c-2.55-2.534-4.125-6.052-4.125-9.938V268.986c0-3.876,1.575-7.402,4.125-9.945C199.63,256.491,203.147,254.916,207.033,254.916"/>
	<path fill-rule="evenodd" clip-rule="evenodd" fill="#FFFFFF" d="M207.033,260.792c-2.185,0-4.252,0.867-5.787,2.409
		c-1.541,1.543-2.418,3.61-2.418,5.786v302.328c0,2.168,0.877,4.252,2.418,5.786c1.535,1.534,3.603,2.401,5.787,2.401h392.879
		c2.184,0,4.252-0.867,5.785-2.401c1.541-1.534,2.409-3.602,2.409-5.786V268.986c0-2.184-0.868-4.243-2.409-5.786
		c-1.533-1.542-3.602-2.409-5.785-2.409H207.033z"/>
	<!-- <path fill-rule="evenodd" clip-rule="evenodd" fill="#94A4A5" d="M549.361,227.414c4.135,0,7.486,3.351,7.486,7.486
		c0,4.134-3.352,7.485-7.486,7.485s-7.494-3.351-7.494-7.485C541.867,230.765,545.227,227.414,549.361,227.414 M572.878,227.414
		c4.127,0,7.495,3.351,7.495,7.486c0,4.134-3.368,7.485-7.495,7.485c-4.144,0-7.495-3.351-7.495-7.485
		C565.383,230.765,568.743,227.414,572.878,227.414z M525.838,227.414c4.135,0,7.485,3.351,7.485,7.486
		c0,4.134-3.351,7.485-7.485,7.485c-4.136,0-7.486-3.351-7.486-7.485C518.352,230.765,521.702,227.414,525.838,227.414z"/> -->
	<path fill-rule="evenodd" clip-rule="evenodd" fill="#34495E" d="M222.271,380.565h362.403c4.533,0,8.235-3.71,8.235-8.236v-83.102
		c0-4.526-3.709-8.228-8.235-8.228H222.271c-4.526,0-8.236,3.702-8.236,8.228v83.102
		C214.034,376.855,217.735,380.565,222.271,380.565"/>
	<path fill="#22A6EF" d="M222.271,286.65h362.403c1.417,0,2.576,1.159,2.576,2.576v83.102c0,1.417-1.159,2.576-2.576,2.576H222.271
		c-1.418,0-2.576-1.159-2.576-2.576v-83.102C219.694,287.81,220.853,286.65,222.271,286.65"/>
	<path fill-rule="evenodd" clip-rule="evenodd" fill="#BCC2C6" d="M267.812,460.763h271.321c2.16,0,3.927-1.769,3.927-3.937
		c0-2.148-1.767-3.934-3.927-3.934H267.812c-2.16,0-3.927,1.785-3.927,3.934C263.885,458.994,265.651,460.763,267.812,460.763"/>
	<path fill-rule="evenodd" clip-rule="evenodd" fill="#BCC2C6" d="M267.812,441.006h271.321c2.16,0,3.927-1.768,3.927-3.935
		s-1.767-3.936-3.927-3.936H267.812c-2.16,0-3.927,1.769-3.927,3.936S265.651,441.006,267.812,441.006"/>
	<path fill-rule="evenodd" clip-rule="evenodd" fill="#BCC2C6" d="M314.894,480.436h177.157c2.16,0,3.927-1.768,3.927-3.936l0,0
		c0-2.166-1.767-3.934-3.927-3.934H314.894c-2.159,0-3.927,1.768-3.927,3.934l0,0C310.967,478.668,312.734,480.436,314.894,480.436"
		/>
	<path fill="#BCC2C6" d="M434.491,523.032h-58.837c-2.268,0-4.317,0.918-5.811,2.418c-1.491,1.485-2.426,3.552-2.426,5.802
		c0,2.284,0.926,4.334,2.409,5.818l0.017,0.017c1.484,1.484,3.543,2.402,5.811,2.402h58.837c2.259,0,4.318-0.918,5.81-2.419
		c1.492-1.484,2.426-3.551,2.426-5.818c0-2.25-0.934-4.316-2.418-5.818C438.81,523.95,436.758,523.032,434.491,523.032
		 M375.654,514.964h58.837c4.467,0,8.536,1.833,11.486,4.784l0.026,0.018c2.941,2.951,4.776,7.019,4.776,11.486
		c0,4.502-1.835,8.569-4.776,11.521c-2.96,2.951-7.029,4.785-11.513,4.785h-58.837c-4.468,0-8.535-1.834-11.496-4.785l-0.008-0.018
		h-0.009c-2.949-2.95-4.785-7.034-4.785-11.503c0-4.484,1.836-8.553,4.785-11.504C367.094,516.797,371.17,514.964,375.654,514.964z"
		/>
	<path fill="#34495E" d="M372.453,508.312h58.836c4.469,0,8.546,1.834,11.495,4.784h0.017c2.951,2.968,4.777,7.035,4.777,11.505l0,0
		c0,4.485-1.826,8.569-4.777,11.504c-2.949,2.967-7.026,4.785-11.512,4.785h-58.836c-4.469,0-8.536-1.818-11.495-4.785h-0.008l0,0
		c-2.96-2.968-4.786-7.036-4.786-11.504l0,0c0-4.486,1.826-8.554,4.786-11.505C363.894,510.146,367.968,508.312,372.453,508.312"/>
	<path fill="#27CABF" d="M431.289,513.146c3.035,0,5.943,1.218,8.087,3.368c2.151,2.134,3.36,5.052,3.36,8.087
		c0,3.034-1.209,5.935-3.36,8.085c-2.15,2.151-5.045,3.368-8.087,3.368h-58.836c-3.035,0-5.935-1.201-8.085-3.352l-0.018-0.017
		c-2.143-2.15-3.343-5.051-3.343-8.085c0-3.035,1.209-5.937,3.36-8.087c2.15-2.15,5.05-3.368,8.085-3.368H431.289z"/>
	<path fill="#51F4E9" d="M431.289,513.146c3.035,0,5.943,1.218,8.087,3.368c2.151,2.134,3.36,5.052,3.36,8.087
		c0,0.784-0.076,1.551-0.234,2.301c-0.451-2.168-1.525-4.185-3.126-5.786c-2.144-2.15-5.052-3.351-8.087-3.351h-58.836
		c-3.035,0-5.935,1.217-8.085,3.368c-1.594,1.584-2.677,3.601-3.126,5.785c-0.16-0.767-0.234-1.533-0.234-2.317
		c0-3.035,1.209-5.937,3.36-8.087c2.15-2.15,5.05-3.368,8.085-3.368H431.289z"/>
	<!-- <path fill-rule="evenodd" clip-rule="evenodd" fill="#94A4A5" d="M459.94,239.477h-8.212v-3.301h7.92v-2.568h-7.92v-3.384h8.212
		v-2.677h-10.945c0,4.877,0,9.779,0,14.639h10.945V239.477z M432.281,227.547v14.639h10.278v-2.542h-7.519v-12.097H432.281z
		 M425.154,242.186v-14.639h-2.743v14.639H425.154z M407.998,242.186v-5.402h7.327v-2.55h-7.327v-3.993h7.745v-2.651h-10.504v14.597
		H407.998z M391.175,229.782c3.444,0,4.82,2.759,4.787,5.227c-0.05,2.4-1.343,4.985-4.787,4.985c-3.45,0-4.741-2.568-4.801-4.968
		C386.307,232.558,387.725,229.782,391.175,229.782z M391.175,227.272c-5.05,0-7.518,3.868-7.518,7.711
		c0,3.842,2.385,7.536,7.518,7.536c5.136,0,7.454-3.776,7.495-7.553C398.713,231.14,396.211,227.272,391.175,227.272z
		 M372.637,230.115c1.733,0,2.51,1.175,2.51,2.351c0,1.176-0.75,2.352-2.51,2.352h-4.193v-4.702H372.637z M378.639,242.002
		l-4.434-4.993c2.784-0.559,3.699-2.593,3.699-4.602c0-2.542-1.816-4.835-5.268-4.861c-2.317,0.026-4.635,0-6.951,0v14.639h2.758
		v-4.885h2.65l4.262,4.885h3.283V242.002z M353.896,227.547c-2.3-0.016-4.592,0-6.885,0v14.639h2.75v-4.302h4.135
		C361.066,237.884,361.042,227.547,353.896,227.547z M349.762,230.182h4.135c3.511,0,3.536,5.176,0,5.176h-4.135V230.182z"/> -->
	<path fill-rule="evenodd" clip-rule="evenodd" fill="#34495E" d="M403.472,346.054c19.065,0,34.512,15.446,34.512,34.511
		c0,19.056-15.446,34.51-34.512,34.51c-19.064,0-34.51-15.454-34.51-34.51C368.962,361.5,384.407,346.054,403.472,346.054"/>
	<path fill="#22A6EF" d="M403.472,351.714c15.931,0,28.853,12.921,28.853,28.851s-12.922,28.851-28.853,28.851
		c-15.929,0-28.851-12.921-28.851-28.851S387.543,351.714,403.472,351.714"/>
	<path fill-rule="evenodd" clip-rule="evenodd" fill="#34495E" d="M403.472,383.482c10.145,0,18.898,5.943,22.982,14.53
		c-5.276,6.928-13.604,11.404-22.982,11.404c-9.378,0-17.704-4.476-22.974-11.404C384.574,389.426,393.327,383.482,403.472,383.482"
		/>
	<path fill-rule="evenodd" clip-rule="evenodd" fill="#34495E" d="M403.472,361.142c7.912,0,14.329,6.419,14.329,14.33
		c0,7.911-6.417,14.33-14.329,14.33c-7.91,0-14.33-6.418-14.33-14.33C389.142,367.561,395.562,361.142,403.472,361.142"/>
	<path fill-rule="evenodd" clip-rule="evenodd" fill="#39D4FF" d="M403.472,366.802c4.786,0,8.669,3.885,8.669,8.67
		s-3.883,8.669-8.669,8.669c-4.784,0-8.661-3.884-8.661-8.669S398.688,366.802,403.472,366.802"/>
	<path fill-rule="evenodd" clip-rule="evenodd" fill="#39D4FF" d="M403.472,389.143c8.679,0,16.057,5.602,18.715,13.379
		c-5.043,4.302-11.579,6.895-18.715,6.895c-7.144,0-13.671-2.593-18.706-6.895C387.417,394.744,394.793,389.143,403.472,389.143"/>
</g>
</svg>
