<?xml version="1.0" encoding="utf-8"?>
<!-- Generator: Adobe Illustrator 15.1.0, SVG Export Plug-In . SVG Version: 6.00 Build 0)  -->
<!DOCTYPE svg PUBLIC "-//W3C//DTD SVG 1.0//EN" "http://www.w3.org/TR/2001/REC-SVG-20010904/DTD/svg10.dtd">
<svg version="1.0" id="Layer_1" xmlns="http://www.w3.org/2000/svg" xmlns:xlink="http://www.w3.org/1999/xlink" x="0px" y="0px"
	 width="800px" height="800px" viewBox="198.74700927734375 207.4409942626953 421.041015625 377.947021484375" enable-background="new 0 0 800 800" xml:space="preserve">
<g>
	<!-- <path fill="#BCC2C6" d="M214.963,207.441h388.61c4.461,0,8.52,1.826,11.454,4.76v0.017c2.935,2.935,4.761,6.986,4.761,11.438
		v345.526c0,4.452-1.826,8.486-4.761,11.438v0.017c-2.935,2.935-6.993,4.751-11.454,4.751h-388.61
		c-4.461,0-8.521-1.816-11.455-4.751v-0.017c-2.935-2.951-4.76-6.985-4.76-11.438V223.655c0-4.452,1.825-8.503,4.76-11.438v-0.017
		C206.442,209.267,210.502,207.441,214.963,207.441"/>
	<path fill="#EBEFF0" d="M613.902,223.655v345.526c0,6.503-4.535,10.321-10.329,10.321h-388.61c-5.787,0-10.329-3.702-10.329-10.321
		V223.655c0-6.744,4.56-10.329,10.329-10.329h388.61C609.358,213.326,613.902,217.036,613.902,223.655"/> -->
	<path fill="#BCC2C6" d="M212.82,254.916h392.896c3.875,0,7.395,1.575,9.937,4.126c2.55,2.542,4.135,6.069,4.135,9.945v302.328
		c0,3.886-1.585,7.403-4.135,9.938c-2.542,2.552-6.062,4.134-9.937,4.134H212.82c-3.876,0-7.395-1.582-9.938-4.134
		c-2.551-2.534-4.135-6.052-4.135-9.938V268.986c0-3.876,1.584-7.402,4.135-9.945C205.426,256.491,208.944,254.916,212.82,254.916"
		/>
	<path fill-rule="evenodd" clip-rule="evenodd" fill="#FFFFFF" d="M212.82,260.792c-2.177,0-4.244,0.867-5.777,2.409
		c-1.542,1.543-2.409,3.61-2.409,5.786v302.328c0,2.168,0.867,4.252,2.409,5.786c1.533,1.534,3.601,2.401,5.777,2.401h392.896
		c2.174,0,4.242-0.867,5.785-2.401c1.533-1.534,2.4-3.602,2.4-5.786V268.986c0-2.184-0.867-4.243-2.4-5.786
		c-1.543-1.542-3.611-2.409-5.785-2.409H212.82z"/>
	<path fill="#34495E" d="M212.82,254.916h392.896c3.875,0,7.395,1.575,9.937,4.126c2.55,2.542,4.135,6.069,4.135,9.945v120.64
		c0,3.876-1.585,7.394-4.135,9.937c-2.542,2.55-6.062,4.134-9.937,4.134H212.82c-3.876,0-7.395-1.584-9.938-4.134
		c-2.551-2.543-4.135-6.061-4.135-9.937v-120.64c0-3.876,1.584-7.402,4.135-9.945C205.426,256.491,208.944,254.916,212.82,254.916"
		/>
	<path fill="#22A6EF" d="M212.82,260.792c-2.177,0-4.244,0.867-5.777,2.409c-1.542,1.543-2.409,3.61-2.409,5.786v120.64
		c0,2.168,0.867,4.243,2.409,5.785c1.533,1.534,3.601,2.401,5.777,2.401h392.896c2.174,0,4.242-0.867,5.785-2.401
		c1.533-1.542,2.4-3.601,2.4-5.785v-120.64c0-2.184-0.867-4.251-2.4-5.786c-1.543-1.542-3.611-2.409-5.785-2.409H212.82z"/>
	<!-- <path fill-rule="evenodd" clip-rule="evenodd" fill="#94A4A5" d="M555.149,227.414c4.135,0,7.495,3.351,7.495,7.486
		c0,4.134-3.36,7.485-7.495,7.485s-7.484-3.351-7.484-7.485C547.665,230.765,551.015,227.414,555.149,227.414 M578.675,227.414
		c4.135,0,7.485,3.351,7.485,7.486c0,4.134-3.351,7.485-7.485,7.485c-4.136,0-7.495-3.351-7.495-7.485
		C571.18,230.765,574.539,227.414,578.675,227.414z M531.633,227.414c4.135,0,7.486,3.351,7.486,7.486
		c0,4.134-3.352,7.485-7.486,7.485c-4.134,0-7.484-3.351-7.484-7.485C524.148,230.765,527.499,227.414,531.633,227.414z"/> -->
	<polygon fill="#34495E" points="251.907,425.213 353.074,425.213 357.56,425.213 357.56,429.697 357.56,530.853 357.56,535.338
		353.074,535.338 251.907,535.338 247.431,535.338 247.431,530.853 247.431,429.697 247.431,425.213 	"/>
	<rect x="252.916" y="430.698" fill="#22A6EF" width="99.158" height="99.152"/>
	<path fill="#1C8DCB" d="M319.729,489.121l-9.712,5.602h-0.007l-9.712,5.602c-1.36,0.784-2.668,1.151-3.869,1.151
		c-1.033,0-2-0.267-2.85-0.767c-0.833-0.5-1.525-1.2-2.035-2.084c-0.625-1.085-0.967-2.418-0.967-3.902v-11.221v-11.203
		c0-1.55,0.342-2.866,0.959-3.917c0.526-0.917,1.234-1.636,2.084-2.102c0.851-0.482,1.81-0.733,2.809-0.733
		c1.234,0,2.56,0.368,3.886,1.134h-0.009l9.704,5.601l9.711,5.603h0.008c1.343,0.784,2.31,1.735,2.919,2.801
		c0.523,0.9,0.774,1.868,0.767,2.852c-0.009,0.967-0.276,1.901-0.776,2.784C322.015,487.404,321.03,488.372,319.729,489.121"/>
	<path fill="#34495E" d="M317.805,485.887l-9.713,5.603h-0.007l-9.713,5.602c-1.351,0.783-2.667,1.149-3.867,1.149
		c-1.034,0-2-0.265-2.851-0.766c-0.834-0.501-1.526-1.201-2.033-2.083c-0.627-1.086-0.969-2.419-0.969-3.92v-11.203v-11.203
		c0-1.551,0.35-2.868,0.959-3.918c0.525-0.917,1.233-1.635,2.084-2.101c0.852-0.485,1.809-0.733,2.81-0.733
		c1.233,0,2.56,0.365,3.885,1.133h-0.008l9.703,5.602l9.711,5.603h0.009c1.342,0.783,2.309,1.734,2.918,2.8
		c0.525,0.901,0.774,1.867,0.767,2.852c-0.009,0.968-0.274,1.899-0.776,2.784C320.089,484.169,319.104,485.137,317.805,485.887"/>
	<path fill-rule="evenodd" clip-rule="evenodd" fill="#FFFFFF" d="M315.537,481.952c0.468-0.266,0.967-0.649,1.241-1.134
		c0.101-0.165,0.175-0.366,0.175-0.566c0-0.184-0.066-0.366-0.166-0.533c-0.267-0.466-0.8-0.868-1.268-1.135l-9.702-5.602
		l-9.704-5.603c-0.458-0.266-1.067-0.532-1.608-0.532c-0.207,0-0.4,0.033-0.575,0.15c-0.174,0.083-0.292,0.25-0.392,0.416
		c-0.274,0.468-0.351,1.101-0.351,1.651v22.406c0,0.551,0.083,1.167,0.359,1.651c0.107,0.185,0.233,0.333,0.407,0.434
		c0.176,0.117,0.351,0.149,0.551,0.149c0.534,0,1.15-0.283,1.608-0.549L315.537,481.952z"/>
	<path fill-rule="evenodd" clip-rule="evenodd" fill="#34495E" d="M302.491,449.709c-16.88,0-30.569,13.688-30.569,30.576
		c0,16.872,13.689,30.562,30.569,30.562c16.889,0,30.576-13.689,30.576-30.562C333.067,463.396,319.38,449.709,302.491,449.709
		 M302.491,445.174c-19.383,0-35.104,15.723-35.104,35.111c0,19.373,15.721,35.095,35.104,35.095
		c19.391,0,35.103-15.722,35.103-35.095C337.594,460.896,321.882,445.174,302.491,445.174z"/>
	<path fill-rule="evenodd" clip-rule="evenodd" fill="#BCC2C6" d="M395.965,467.231h171.213c2.16,0,3.927,1.767,3.927,3.917l0,0
		c0,2.168-1.767,3.935-3.927,3.935H395.965c-2.16,0-3.928-1.767-3.928-3.935l0,0C392.037,468.998,393.805,467.231,395.965,467.231"
		/>
	<path fill-rule="evenodd" clip-rule="evenodd" fill="#BCC2C6" d="M395.965,486.988h171.213c2.16,0,3.927,1.767,3.927,3.935l0,0
		c0,2.15-1.767,3.934-3.927,3.934H395.965c-2.16,0-3.928-1.783-3.928-3.934l0,0C392.037,488.755,393.805,486.988,395.965,486.988"/>
	<path fill-rule="evenodd" clip-rule="evenodd" fill="#BCC2C6" d="M395.965,447.559h110.81c2.168,0,3.936,1.766,3.936,3.934l0,0
		c0,2.168-1.768,3.934-3.936,3.934h-110.81c-2.16,0-3.928-1.766-3.928-3.934l0,0C392.037,449.324,393.805,447.559,395.965,447.559"
		/>
	<!-- <path fill-rule="evenodd" clip-rule="evenodd" fill="#94A4A5" d="M465.736,239.477h-8.212v-3.301h7.92v-2.568h-7.92v-3.384h8.212
		v-2.677H454.79c0,4.877,0,9.779,0,14.639h10.946V239.477z M438.078,227.547v14.639h10.27v-2.542h-7.519v-12.097H438.078z
		 M430.942,242.186v-14.639h-2.734v14.639H430.942z M413.786,242.186v-5.402h7.336v-2.55h-7.336v-3.993h7.752v-2.651h-10.503v14.597
		H413.786z M396.963,229.782c3.451,0,4.827,2.759,4.787,5.227c-0.043,2.4-1.336,4.985-4.787,4.985c-3.441,0-4.733-2.568-4.801-4.968
		C392.104,232.558,393.521,229.782,396.963,229.782z M396.963,227.272c-5.05,0-7.511,3.868-7.511,7.711
		c0,3.842,2.378,7.536,7.511,7.536c5.146,0,7.461-3.776,7.504-7.553C404.509,231.14,401.999,227.272,396.963,227.272z
		 M378.433,230.115c1.735,0,2.509,1.175,2.509,2.351c0,1.176-0.758,2.352-2.509,2.352h-4.192v-4.702H378.433z M384.426,242.002
		L380,237.009c2.775-0.559,3.701-2.593,3.701-4.602c0-2.542-1.817-4.835-5.269-4.861c-2.316,0.026-4.634,0-6.952,0v14.639h2.76
		v-4.885h2.65l4.26,4.885h3.275V242.002z M359.693,227.547c-2.301-0.016-4.593,0-6.895,0v14.639h2.76v-4.302h4.135
		C366.854,237.884,366.83,227.547,359.693,227.547z M355.559,230.182h4.135c3.509,0,3.525,5.176,0,5.176h-4.135V230.182z"/> -->
	<path fill-rule="evenodd" clip-rule="evenodd" fill="#34495E" d="M409.268,294.795c19.058,0,34.513,15.447,34.513,34.511
		c0,19.056-15.455,34.511-34.513,34.511c-19.065,0-34.512-15.455-34.512-34.511C374.756,310.242,390.202,294.795,409.268,294.795"/>
	<path fill="#22A6EF" d="M409.268,300.455c15.932,0,28.852,12.913,28.852,28.851c0,15.93-12.92,28.851-28.852,28.851
		c-15.939,0-28.851-12.92-28.851-28.851C380.417,313.368,393.328,300.455,409.268,300.455"/>
	<path fill-rule="evenodd" clip-rule="evenodd" fill="#34495E" d="M409.268,332.224c10.146,0,18.897,5.935,22.975,14.53
		c-5.269,6.927-13.597,11.403-22.975,11.403c-9.377,0-17.705-4.476-22.975-11.403C390.369,338.159,399.123,332.224,409.268,332.224"
		/>
	<path fill-rule="evenodd" clip-rule="evenodd" fill="#34495E" d="M409.268,309.883c7.912,0,14.33,6.418,14.33,14.329
		c0,7.912-6.418,14.33-14.33,14.33c-7.909,0-14.329-6.418-14.329-14.33C394.938,316.302,401.358,309.883,409.268,309.883"/>
	<path fill-rule="evenodd" clip-rule="evenodd" fill="#39D4FF" d="M409.268,315.543c4.786,0,8.67,3.884,8.67,8.669
		c0,4.786-3.884,8.669-8.67,8.669c-4.783,0-8.669-3.884-8.669-8.669C400.599,319.428,404.484,315.543,409.268,315.543"/>
	<path fill-rule="evenodd" clip-rule="evenodd" fill="#39D4FF" d="M409.268,337.884c8.679,0,16.056,5.593,18.707,13.379
		c-5.035,4.293-11.57,6.894-18.707,6.894c-7.136,0-13.672-2.6-18.706-6.894C393.214,343.477,400.59,337.884,409.268,337.884"/>
</g>
</svg>
