<?xml version="1.0" encoding="utf-8"?>
<!-- Generator: Adobe Illustrator 15.1.0, SVG Export Plug-In . SVG Version: 6.00 Build 0)  -->
<!DOCTYPE svg PUBLIC "-//W3C//DTD SVG 1.0//EN" "http://www.w3.org/TR/2001/REC-SVG-20010904/DTD/svg10.dtd">
<svg version="1.0" id="Layer_1" xmlns="http://www.w3.org/2000/svg" xmlns:xlink="http://www.w3.org/1999/xlink" x="0px" y="0px"
	 width="800px" height="800px" viewBox="194.03700256347656 207.4409942626953 421.0400390625 377.947021484375" enable-background="new 0 0 800 800" xml:space="preserve">
<g>
	<!-- <path fill="#BCC2C6" d="M210.25,207.441h388.621c4.452,0,8.511,1.826,11.444,4.76v0.017c2.935,2.935,4.762,6.986,4.762,11.438
		v345.526c0,4.452-1.827,8.486-4.762,11.438v0.017c-2.934,2.935-6.992,4.751-11.444,4.751H210.25c-4.459,0-8.52-1.816-11.446-4.751
		v-0.017c-2.933-2.951-4.766-6.985-4.766-11.438V223.655c0-4.452,1.833-8.503,4.766-11.438v-0.017
		C201.73,209.267,205.791,207.441,210.25,207.441"/>
	<path fill="#EBEFF0" d="M609.19,223.655v345.526c0,6.503-4.534,10.321-10.319,10.321H210.25c-5.785,0-10.328-3.702-10.328-10.321
		V223.655c0-6.744,4.568-10.329,10.328-10.329h388.621C604.656,213.326,609.19,217.036,609.19,223.655"/> -->
	<path fill="#BCC2C6" d="M208.108,254.916h392.896c3.876,0,7.395,1.575,9.937,4.126c2.551,2.542,4.136,6.069,4.136,9.945v302.328
		c0,3.886-1.585,7.403-4.136,9.938c-2.542,2.552-6.061,4.134-9.937,4.134H208.108c-3.868,0-7.386-1.582-9.937-4.134
		c-2.551-2.534-4.134-6.052-4.134-9.938V268.986c0-3.876,1.583-7.402,4.134-9.945C200.723,256.491,204.24,254.916,208.108,254.916"
		/>
	<path fill-rule="evenodd" clip-rule="evenodd" fill="#FFFFFF" d="M208.108,260.792c-2.176,0-4.234,0.867-5.778,2.409
		c-1.541,1.543-2.408,3.61-2.408,5.786v302.328c0,2.168,0.867,4.252,2.408,5.786c1.544,1.534,3.603,2.401,5.778,2.401h392.896
		c2.184,0,4.244-0.867,5.784-2.401c1.534-1.534,2.401-3.602,2.401-5.786V268.986c0-2.184-0.867-4.243-2.401-5.786
		c-1.54-1.542-3.616-2.409-5.784-2.409H208.108z"/>
	<!-- <path fill-rule="evenodd" clip-rule="evenodd" fill="#94A4A5" d="M550.438,227.414c4.135,0,7.493,3.351,7.493,7.486
		c0,4.134-3.358,7.485-7.493,7.485c-4.136,0-7.487-3.351-7.487-7.485C542.951,230.765,546.303,227.414,550.438,227.414
		 M573.963,227.414c4.134,0,7.484,3.351,7.484,7.486c0,4.134-3.351,7.485-7.484,7.485c-4.135,0-7.487-3.351-7.487-7.485
		C566.476,230.765,569.828,227.414,573.963,227.414z M526.922,227.414c4.135,0,7.492,3.351,7.492,7.486
		c0,4.134-3.357,7.485-7.492,7.485c-4.136,0-7.495-3.351-7.495-7.485C519.427,230.765,522.795,227.414,526.922,227.414z"/> -->
	<path fill-rule="evenodd" clip-rule="evenodd" fill="#34495E" d="M223.362,380.565h362.404c4.518,0,8.228-3.71,8.228-8.236v-83.102
		c0-4.526-3.71-8.228-8.228-8.228H223.362c-4.534,0-8.236,3.702-8.236,8.228v83.102
		C215.126,376.855,218.828,380.565,223.362,380.565"/>
	<path fill="#22A6EF" d="M223.362,286.65h362.404c1.408,0,2.567,1.159,2.567,2.576v83.102c0,1.417-1.159,2.576-2.567,2.576H223.362
		c-1.416,0-2.583-1.159-2.583-2.576v-83.102C220.779,287.81,221.937,286.65,223.362,286.65"/>
	<path fill-rule="evenodd" clip-rule="evenodd" fill="#BCC2C6" d="M223.83,518.714h103.699c2.285,0,4.153,1.868,4.153,4.169l0,0
		c0,2.284-1.868,4.167-4.153,4.167H223.83c-2.301,0-4.168-1.883-4.168-4.167l0,0C219.662,520.582,221.529,518.714,223.83,518.714"/>
	<path fill-rule="evenodd" clip-rule="evenodd" fill="#BCC2C6" d="M223.83,497.891h65.904c2.302,0,4.168,1.867,4.168,4.169l0,0
		c0,2.283-1.866,4.15-4.168,4.15H223.83c-2.301,0-4.168-1.867-4.168-4.15l0,0C219.662,499.758,221.529,497.891,223.83,497.891"/>
	<path fill-rule="evenodd" clip-rule="evenodd" fill="#BCC2C6" d="M370.18,429.589h203.433c2.167,0,3.934,1.764,3.934,3.932l0,0
		c0,2.167-1.767,3.934-3.934,3.934H370.18c-2.17,0-3.936-1.767-3.936-3.934l0,0C366.244,431.353,368.01,429.589,370.18,429.589"/>
	<path fill-rule="evenodd" clip-rule="evenodd" fill="#BCC2C6" d="M370.18,449.358h203.433c2.167,0,3.934,1.769,3.934,3.919l0,0
		c0,2.166-1.767,3.934-3.934,3.934H370.18c-2.17,0-3.936-1.768-3.936-3.934l0,0C366.244,451.127,368.01,449.358,370.18,449.358"/>
	<path fill-rule="evenodd" clip-rule="evenodd" fill="#BCC2C6" d="M370.18,409.924h132.167c2.16,0,3.928,1.768,3.928,3.927
		c0,2.167-1.768,3.936-3.928,3.936H370.18c-2.17,0-3.936-1.769-3.936-3.936C366.244,411.691,368.01,409.924,370.18,409.924"/>
	<path fill-rule="evenodd" clip-rule="evenodd" fill="#BCC2C6" d="M223.83,452.025h103.699c2.285,0,4.153,1.868,4.153,4.169l0,0
		c0,2.283-1.868,4.167-4.153,4.167H223.83c-2.301,0-4.168-1.884-4.168-4.167l0,0C219.662,453.894,221.529,452.025,223.83,452.025"/>
	<path fill-rule="evenodd" clip-rule="evenodd" fill="#BCC2C6" d="M223.83,472.951h103.699c2.285,0,4.153,1.883,4.153,4.167l0,0
		c0,2.283-1.868,4.168-4.153,4.168H223.83c-2.301,0-4.168-1.885-4.168-4.168l0,0C219.662,474.834,221.529,472.951,223.83,472.951"/>
	<path fill-rule="evenodd" clip-rule="evenodd" fill="#BCC2C6" d="M223.83,431.198h65.904c2.302,0,4.168,1.871,4.168,4.156v0.016
		c0,2.284-1.866,4.151-4.168,4.151H223.83c-2.301,0-4.168-1.867-4.168-4.151v-0.016C219.662,433.069,221.529,431.198,223.83,431.198
		"/>
	<path fill-rule="evenodd" clip-rule="evenodd" fill="#BCC2C6" d="M370.18,499.292h203.433c2.167,0,3.934,1.767,3.934,3.917v0.017
		c0,2.15-1.767,3.919-3.934,3.919H370.18c-2.17,0-3.936-1.769-3.936-3.919v-0.017C366.244,501.059,368.01,499.292,370.18,499.292"/>
	<path fill-rule="evenodd" clip-rule="evenodd" fill="#BCC2C6" d="M370.18,519.049h203.433c2.167,0,3.934,1.767,3.934,3.934l0,0
		c0,2.168-1.767,3.936-3.934,3.936H370.18c-2.17,0-3.936-1.768-3.936-3.936l0,0C366.244,520.815,368.01,519.049,370.18,519.049"/>
	<path fill-rule="evenodd" clip-rule="evenodd" fill="#BCC2C6" d="M370.18,479.619h132.167c2.16,0,3.928,1.766,3.928,3.933
		c0,2.169-1.768,3.936-3.928,3.936H370.18c-2.17,0-3.936-1.767-3.936-3.936C366.244,481.385,368.01,479.619,370.18,479.619"/>
	<path fill="#1C8DCB" d="M554.656,327.063h-44.581c-1.71,0-3.269,0.701-4.401,1.834c-1.135,1.134-1.835,2.692-1.835,4.401
		c0,1.726,0.7,3.285,1.825,4.402l0.01,0.016c1.124,1.125,2.684,1.825,4.401,1.825h44.581c1.717,0,3.268-0.708,4.402-1.841
		c1.133-1.126,1.832-2.685,1.832-4.402c0-1.717-0.699-3.275-1.825-4.409C557.932,327.764,556.373,327.063,554.656,327.063
		 M510.075,320.953h44.581c3.385,0,6.468,1.385,8.711,3.627l0.007,0.008c2.235,2.243,3.629,5.318,3.629,8.711
		c0,3.401-1.394,6.486-3.629,8.728c-2.231,2.235-5.316,3.618-8.718,3.618h-44.581c-3.385,0-6.471-1.383-8.702-3.618l-0.018-0.008
		v-0.008c-2.234-2.243-3.618-5.327-3.618-8.712c0-3.393,1.384-6.485,3.618-8.719C503.59,322.337,506.683,320.953,510.075,320.953z"
		/>
	<path fill="#34495E" d="M507.657,315.911h44.581c3.384,0,6.469,1.383,8.703,3.626l0.017,0.008c2.235,2.234,3.616,5.318,3.616,8.711
		c0,3.401-1.381,6.485-3.616,8.72c-2.234,2.242-5.326,3.626-8.72,3.626h-44.581c-3.385,0-6.469-1.384-8.72-3.626v-0.008l0,0
		c-2.243-2.243-3.635-5.327-3.635-8.711c0-3.401,1.392-6.485,3.635-8.719C501.171,317.294,504.255,315.911,507.657,315.911"/>
	<path fill="#27CABF" d="M552.238,319.586c2.301,0,4.493,0.909,6.118,2.534c1.634,1.635,2.552,3.835,2.552,6.136
		s-0.926,4.501-2.552,6.127c-1.633,1.626-3.817,2.542-6.118,2.542h-44.581c-2.301,0-4.502-0.908-6.127-2.534l-0.018-0.008
		c-1.625-1.625-2.525-3.826-2.525-6.127s0.917-4.501,2.543-6.127c1.625-1.625,3.818-2.543,6.127-2.543H552.238z"/>
	<path fill="#51F4E9" d="M552.238,319.586c2.301,0,4.493,0.909,6.118,2.534c1.634,1.635,2.552,3.835,2.552,6.136
		c0,0.592-0.067,1.175-0.184,1.743c-0.333-1.651-1.149-3.176-2.368-4.377c-1.625-1.634-3.817-2.551-6.118-2.551h-44.581
		c-2.309,0-4.502,0.925-6.127,2.551c-1.209,1.209-2.026,2.734-2.376,4.385c-0.116-0.575-0.167-1.159-0.167-1.75
		c0-2.301,0.917-4.501,2.543-6.127c1.625-1.625,3.818-2.543,6.127-2.543H552.238z"/>
	<!-- <path fill-rule="evenodd" clip-rule="evenodd" fill="#94A4A5" d="M461.025,239.477h-8.203v-3.301h7.911v-2.568h-7.911v-3.384h8.203
		v-2.677h-10.937c0,4.877,0,9.779,0,14.639h10.937V239.477z M433.367,227.547v14.639h10.269v-2.542h-7.511v-12.097H433.367z
		 M426.238,242.186v-14.639h-2.741v14.639H426.238z M409.082,242.186v-5.402h7.326v-2.55h-7.326v-3.993h7.744v-2.651h-10.503v14.597
		H409.082z M392.261,229.782c3.442,0,4.827,2.759,4.775,5.227c-0.032,2.4-1.333,4.985-4.775,4.985c-3.443,0-4.743-2.568-4.81-4.968
		C387.392,232.558,388.817,229.782,392.261,229.782z M392.261,227.272c-5.061,0-7.519,3.868-7.519,7.711
		c0,3.842,2.376,7.536,7.519,7.536c5.135,0,7.452-3.776,7.495-7.553C399.805,231.14,397.287,227.272,392.261,227.272z
		 M373.73,230.115c1.732,0,2.5,1.175,2.5,2.351c0,1.176-0.751,2.352-2.5,2.352h-4.202v-4.702H373.73z M379.714,242.002l-4.416-4.993
		c2.767-0.559,3.69-2.593,3.69-4.602c0-2.542-1.816-4.835-5.258-4.861c-2.318,0.026-4.646,0-6.962,0v14.639h2.76v-4.885h2.649
		l4.261,4.885h3.275V242.002z M354.989,227.547c-2.299-0.016-4.602,0-6.901,0v14.639h2.758v-4.302h4.144
		C362.142,237.884,362.125,227.547,354.989,227.547z M350.846,230.182h4.144c3.502,0,3.518,5.176,0,5.176h-4.144V230.182z"/> -->
	<path fill-rule="evenodd" clip-rule="evenodd" fill="#34495E" d="M279.141,342.769c19.063,0,34.51,15.446,34.51,34.511
		c0,19.057-15.446,34.503-34.51,34.503c-19.065,0-34.513-15.446-34.513-34.503C244.628,358.215,260.075,342.769,279.141,342.769"/>
	<path fill="#22A6EF" d="M279.141,348.429c15.931,0,28.85,12.912,28.85,28.851c0,15.931-12.919,28.851-28.85,28.851
		c-15.932,0-28.851-12.92-28.851-28.851C250.29,361.341,263.209,348.429,279.141,348.429"/>
	<path fill-rule="evenodd" clip-rule="evenodd" fill="#34495E" d="M279.141,380.19c10.145,0,18.898,5.943,22.975,14.538
		c-5.271,6.928-13.597,11.403-22.975,11.403s-17.707-4.476-22.982-11.403C260.242,386.133,268.993,380.19,279.141,380.19"/>
	<path fill-rule="evenodd" clip-rule="evenodd" fill="#34495E" d="M279.141,357.857c7.91,0,14.329,6.411,14.329,14.331
		c0,7.911-6.419,14.33-14.329,14.33c-7.911,0-14.331-6.419-14.331-14.33C264.81,364.268,271.229,357.857,279.141,357.857"/>
	<path fill-rule="evenodd" clip-rule="evenodd" fill="#39D4FF" d="M279.141,363.517c4.784,0,8.66,3.885,8.66,8.67
		c0,4.785-3.876,8.661-8.66,8.661c-4.794,0-8.661-3.876-8.661-8.661C270.479,367.402,274.347,363.517,279.141,363.517"/>
	<path fill-rule="evenodd" clip-rule="evenodd" fill="#39D4FF" d="M279.141,385.858c8.678,0,16.055,5.594,18.705,13.379
		c-5.036,4.293-11.563,6.894-18.705,6.894c-7.146,0-13.672-2.601-18.716-6.894C263.085,391.452,270.461,385.858,279.141,385.858"/>
</g>
</svg>
