<?xml version="1.0" encoding="UTF-8" standalone="no"?>
<svg
   xmlns:dc="http://purl.org/dc/elements/1.1/"
   xmlns:cc="http://creativecommons.org/ns#"
   xmlns:rdf="http://www.w3.org/1999/02/22-rdf-syntax-ns#"
   xmlns:svg="http://www.w3.org/2000/svg"
   xmlns="http://www.w3.org/2000/svg"
   xmlns:sodipodi="http://sodipodi.sourceforge.net/DTD/sodipodi-0.dtd"
   xmlns:inkscape="http://www.inkscape.org/namespaces/inkscape"
   inkscape:version="1.0 (6e3e5246a0, 2020-05-07)"
   sodipodi:docname="Users 2.svg"
   xml:space="preserve"
   enable-background="new 0 0 800 800"
   viewBox="0 0 800 800"
   height="800px"
   width="800px"
   y="0px"
   x="0px"
   id="Layer_1"
   version="1.0"><metadata
   id="metadata4753"><rdf:RDF><cc:Work
       rdf:about=""><dc:format>image/svg+xml</dc:format><dc:type
         rdf:resource="http://purl.org/dc/dcmitype/StillImage" /></cc:Work></rdf:RDF></metadata><defs
   id="defs4751">
	
	
	
	
	
	
	
	
	
	
	
	
	
	
	
	
	
	
	
	
	
	
	
	
	
	
	
	
	
	
	
	
	
	
	
	
	
	
	
	
	
	
	
	
	
	
	
	
	
	
	
	
	
	
</defs><sodipodi:namedview
   inkscape:current-layer="Layer_1"
   inkscape:window-maximized="1"
   inkscape:window-y="28"
   inkscape:window-x="0"
   inkscape:cy="400"
   inkscape:cx="279.08327"
   inkscape:zoom="1.07625"
   showgrid="false"
   id="namedview4749"
   inkscape:window-height="1026"
   inkscape:window-width="1920"
   inkscape:pageshadow="2"
   inkscape:pageopacity="0"
   guidetolerance="10"
   gridtolerance="10"
   objecttolerance="10"
   borderopacity="1"
   bordercolor="#666666"
   pagecolor="#ffffff" />

<g
   transform="matrix(1.9000432,0,0,1.9000457,-360.08279,-353.20505)"
   id="g4858"><path
     id="path4644"
     d="m 203.587,254.916 h 392.897 c 3.877,0 7.395,1.575 9.937,4.126 2.551,2.542 4.135,6.069 4.135,9.945 v 302.328 c 0,3.886 -1.584,7.403 -4.135,9.938 -2.542,2.552 -6.06,4.134 -9.937,4.134 H 203.587 c -3.867,0 -7.395,-1.582 -9.936,-4.134 -2.552,-2.534 -4.137,-6.052 -4.137,-9.938 V 268.986 c 0,-3.876 1.585,-7.402 4.137,-9.945 2.541,-2.55 6.069,-4.125 9.936,-4.125"
     fill="#bcc2c6" /><path
     id="path4646"
     d="m 203.587,260.792 c -2.175,0 -4.243,0.867 -5.785,2.409 -1.533,1.543 -2.41,3.61 -2.41,5.786 v 302.328 c 0,2.168 0.877,4.252 2.41,5.786 1.542,1.534 3.61,2.401 5.785,2.401 h 392.897 c 2.175,0 4.243,-0.867 5.776,-2.401 1.541,-1.534 2.409,-3.602 2.409,-5.786 V 268.986 c 0,-2.184 -0.868,-4.243 -2.409,-5.786 -1.533,-1.542 -3.609,-2.409 -5.776,-2.409 H 203.587 Z"
     fill="#ffffff"
     clip-rule="evenodd"
     fill-rule="evenodd" /><path
     id="path4650"
     d="m 251.271,404.697 h 54.509 c 2.168,0 3.926,-1.767 3.926,-3.926 v 0 c 0,-2.167 -1.758,-3.935 -3.926,-3.935 h -54.509 c -2.159,0 -3.928,1.768 -3.928,3.935 v 0 c 0,2.16 1.768,3.926 3.928,3.926"
     fill="#bcc2c6"
     clip-rule="evenodd"
     fill-rule="evenodd" /><path
     id="path4652"
     d="m 243.208,384.941 h 70.642 c 2.157,0 3.926,-1.768 3.926,-3.935 v 0 c 0,-2.159 -1.769,-3.925 -3.926,-3.925 h -70.642 c -2.166,0 -3.934,1.767 -3.934,3.925 v 0 c 0,2.168 1.768,3.935 3.934,3.935"
     fill="#bcc2c6"
     clip-rule="evenodd"
     fill-rule="evenodd" /><path
     id="path4654"
     d="m 372.785,404.697 h 54.501 c 2.167,0 3.936,-1.767 3.936,-3.926 v 0 c 0,-2.167 -1.769,-3.935 -3.936,-3.935 h -54.501 c -2.167,0 -3.935,1.768 -3.935,3.935 v 0 c 10e-4,2.16 1.768,3.926 3.935,3.926"
     fill="#bcc2c6"
     clip-rule="evenodd"
     fill-rule="evenodd" /><path
     id="path4656"
     d="m 364.715,384.941 h 70.642 c 2.158,0 3.926,-1.768 3.926,-3.935 v 0 c 0,-2.159 -1.768,-3.925 -3.926,-3.925 h -70.642 c -2.158,0 -3.927,1.767 -3.927,3.925 v 0 c 0,2.168 1.769,3.935 3.927,3.935"
     fill="#bcc2c6"
     clip-rule="evenodd"
     fill-rule="evenodd" /><path
     id="path4658"
     d="m 494.292,404.697 h 54.501 c 2.167,0 3.936,-1.767 3.936,-3.926 v 0 c 0,-2.167 -1.769,-3.935 -3.936,-3.935 h -54.501 c -2.168,0 -3.936,1.768 -3.936,3.935 v 0 c 0,2.16 1.768,3.926 3.936,3.926"
     fill="#bcc2c6"
     clip-rule="evenodd"
     fill-rule="evenodd" /><path
     id="path4660"
     d="m 486.222,384.941 h 70.642 c 2.158,0 3.927,-1.768 3.927,-3.935 v 0 c 0,-2.159 -1.769,-3.925 -3.927,-3.925 h -70.642 c -2.158,0 -3.926,1.767 -3.926,3.925 v 0 c 0,2.168 1.767,3.935 3.926,3.935"
     fill="#bcc2c6"
     clip-rule="evenodd"
     fill-rule="evenodd" /><path
     id="path4662"
     d="m 251.271,548.558 h 54.509 c 2.168,0 3.926,-1.751 3.926,-3.918 v 0 c 0,-2.168 -1.758,-3.935 -3.926,-3.935 h -54.509 c -2.159,0 -3.928,1.767 -3.928,3.935 v 0 c 0,2.167 1.768,3.918 3.928,3.918"
     fill="#bcc2c6"
     clip-rule="evenodd"
     fill-rule="evenodd" /><path
     id="path4664"
     d="m 243.208,528.801 h 70.642 c 2.157,0 3.926,-1.767 3.926,-3.934 0,-2.15 -1.769,-3.919 -3.926,-3.919 h -70.642 c -2.166,0 -3.934,1.769 -3.934,3.919 0,2.167 1.768,3.934 3.934,3.934"
     fill="#bcc2c6"
     clip-rule="evenodd"
     fill-rule="evenodd" /><path
     id="path4666"
     d="m 372.785,548.558 h 54.501 c 2.167,0 3.936,-1.751 3.936,-3.918 v 0 c 0,-2.168 -1.769,-3.935 -3.936,-3.935 h -54.501 c -2.167,0 -3.935,1.767 -3.935,3.935 v 0 c 10e-4,2.167 1.768,3.918 3.935,3.918"
     fill="#bcc2c6"
     clip-rule="evenodd"
     fill-rule="evenodd" /><path
     id="path4668"
     d="m 364.715,528.801 h 70.642 c 2.158,0 3.926,-1.767 3.926,-3.934 0,-2.15 -1.768,-3.919 -3.926,-3.919 h -70.642 c -2.158,0 -3.927,1.769 -3.927,3.919 0,2.167 1.769,3.934 3.927,3.934"
     fill="#bcc2c6"
     clip-rule="evenodd"
     fill-rule="evenodd" /><path
     id="path4670"
     d="m 494.292,548.558 h 54.501 c 2.167,0 3.936,-1.751 3.936,-3.918 v 0 c 0,-2.168 -1.769,-3.935 -3.936,-3.935 h -54.501 c -2.168,0 -3.936,1.767 -3.936,3.935 v 0 c 0,2.167 1.768,3.918 3.936,3.918"
     fill="#bcc2c6"
     clip-rule="evenodd"
     fill-rule="evenodd" /><path
     id="path4672"
     d="m 486.222,528.801 h 70.642 c 2.158,0 3.927,-1.767 3.927,-3.934 0,-2.15 -1.769,-3.919 -3.927,-3.919 h -70.642 c -2.158,0 -3.926,1.769 -3.926,3.919 0,2.167 1.767,3.934 3.926,3.934"
     fill="#bcc2c6"
     clip-rule="evenodd"
     fill-rule="evenodd" /><path
     id="path4674"
     d="m 278.529,291.736 c 19.057,0 34.511,15.446 34.511,34.511 0,19.057 -15.454,34.512 -34.511,34.512 -19.065,0 -34.512,-15.455 -34.512,-34.512 0.001,-19.065 15.447,-34.511 34.512,-34.511"
     fill="#34495e"
     clip-rule="evenodd"
     fill-rule="evenodd" /><path
     id="path4676"
     d="m 278.529,297.396 c 15.931,0 28.851,12.912 28.851,28.851 0,15.931 -12.92,28.852 -28.851,28.852 -15.938,0 -28.852,-12.921 -28.852,-28.852 0.001,-15.939 12.914,-28.851 28.852,-28.851"
     fill="#22a6ef" /><path
     id="path4678"
     d="m 278.529,329.156 c 10.146,0 18.896,5.944 22.974,14.539 -5.269,6.927 -13.596,11.403 -22.974,11.403 -9.378,0 -17.706,-4.477 -22.983,-11.403 4.085,-8.595 12.839,-14.539 22.983,-14.539"
     fill="#34495e"
     clip-rule="evenodd"
     fill-rule="evenodd" /><path
     id="path4680"
     d="m 278.529,306.824 c 7.911,0 14.329,6.41 14.329,14.33 0,7.911 -6.418,14.33 -14.329,14.33 -7.92,0 -14.329,-6.419 -14.329,-14.33 0,-7.92 6.409,-14.33 14.329,-14.33"
     fill="#34495e"
     clip-rule="evenodd"
     fill-rule="evenodd" /><path
     id="path4682"
     d="m 278.529,312.484 c 4.785,0 8.66,3.884 8.66,8.669 0,4.785 -3.875,8.669 -8.66,8.669 -4.784,0 -8.67,-3.884 -8.67,-8.669 0,-4.785 3.886,-8.669 8.67,-8.669"
     fill="#39d4ff"
     clip-rule="evenodd"
     fill-rule="evenodd" /><path
     id="path4684"
     d="m 278.529,334.825 c 8.678,0 16.056,5.594 18.706,13.379 -5.035,4.293 -11.57,6.894 -18.706,6.894 -7.145,0 -13.671,-2.601 -18.707,-6.894 2.653,-7.786 10.021,-13.379 18.707,-13.379"
     fill="#39d4ff"
     clip-rule="evenodd"
     fill-rule="evenodd" /><path
     id="path4686"
     d="m 400.036,291.736 c 19.056,0 34.51,15.446 34.51,34.511 0,19.057 -15.454,34.512 -34.51,34.512 -19.066,0 -34.511,-15.455 -34.511,-34.512 0,-19.065 15.445,-34.511 34.511,-34.511"
     fill="#34495e"
     clip-rule="evenodd"
     fill-rule="evenodd" /><path
     id="path4688"
     d="m 400.036,297.396 c 15.93,0 28.851,12.912 28.851,28.851 0,15.931 -12.921,28.852 -28.851,28.852 -15.931,0 -28.852,-12.921 -28.852,-28.852 10e-4,-15.939 12.921,-28.851 28.852,-28.851"
     fill="#22a6ef" /><path
     id="path4690"
     d="m 400.036,329.156 c 10.146,0 18.896,5.944 22.974,14.539 -5.269,6.927 -13.597,11.403 -22.974,11.403 -9.379,0 -17.706,-4.477 -22.975,-11.403 4.077,-8.595 12.831,-14.539 22.975,-14.539"
     fill="#34495e"
     clip-rule="evenodd"
     fill-rule="evenodd" /><path
     id="path4692"
     d="m 400.036,306.824 c 7.911,0 14.33,6.41 14.33,14.33 0,7.911 -6.419,14.33 -14.33,14.33 -7.912,0 -14.331,-6.419 -14.331,-14.33 0,-7.92 6.419,-14.33 14.331,-14.33"
     fill="#34495e"
     clip-rule="evenodd"
     fill-rule="evenodd" /><path
     id="path4694"
     d="m 400.036,312.484 c 4.785,0 8.669,3.884 8.669,8.669 0,4.785 -3.884,8.669 -8.669,8.669 -4.786,0 -8.67,-3.884 -8.67,-8.669 0,-4.785 3.884,-8.669 8.67,-8.669"
     fill="#39d4ff"
     clip-rule="evenodd"
     fill-rule="evenodd" /><path
     id="path4696"
     d="m 400.036,334.825 c 8.678,0 16.056,5.594 18.705,13.379 -5.034,4.293 -11.571,6.894 -18.705,6.894 -7.146,0 -13.672,-2.601 -18.707,-6.894 2.65,-7.786 10.02,-13.379 18.707,-13.379"
     fill="#39d4ff"
     clip-rule="evenodd"
     fill-rule="evenodd" /><path
     id="path4698"
     d="m 521.544,291.736 c 19.055,0 34.51,15.446 34.51,34.511 0,19.057 -15.455,34.512 -34.51,34.512 -19.058,0 -34.513,-15.455 -34.513,-34.512 0,-19.065 15.455,-34.511 34.513,-34.511"
     fill="#34495e"
     clip-rule="evenodd"
     fill-rule="evenodd" /><path
     id="path4700"
     d="m 521.544,297.396 c 15.929,0 28.85,12.912 28.85,28.851 0,15.931 -12.921,28.852 -28.85,28.852 -15.932,0 -28.853,-12.921 -28.853,-28.852 0,-15.939 12.921,-28.851 28.853,-28.851"
     fill="#22a6ef" /><path
     id="path4702"
     d="m 521.544,329.156 c 10.145,0 18.896,5.944 22.973,14.539 -5.269,6.927 -13.595,11.403 -22.973,11.403 -9.381,0 -17.707,-4.477 -22.976,-11.403 4.078,-8.595 12.828,-14.539 22.976,-14.539"
     fill="#34495e"
     clip-rule="evenodd"
     fill-rule="evenodd" /><path
     id="path4704"
     d="m 521.544,306.824 c 7.91,0 14.329,6.41 14.329,14.33 0,7.911 -6.419,14.33 -14.329,14.33 -7.913,0 -14.332,-6.419 -14.332,-14.33 0,-7.92 6.419,-14.33 14.332,-14.33"
     fill="#34495e"
     clip-rule="evenodd"
     fill-rule="evenodd" /><path
     id="path4706"
     d="m 521.544,312.484 c 4.784,0 8.668,3.884 8.668,8.669 0,4.785 -3.884,8.669 -8.668,8.669 -4.787,0 -8.671,-3.884 -8.671,-8.669 0,-4.785 3.884,-8.669 8.671,-8.669"
     fill="#39d4ff"
     clip-rule="evenodd"
     fill-rule="evenodd" /><path
     id="path4708"
     d="m 521.544,334.825 c 8.684,0 16.055,5.594 18.705,13.379 -5.035,4.293 -11.57,6.894 -18.705,6.894 -7.137,0 -13.673,-2.601 -18.708,-6.894 2.65,-7.786 10.028,-13.379 18.708,-13.379"
     fill="#39d4ff"
     clip-rule="evenodd"
     fill-rule="evenodd" /><path
     id="path4710"
     d="m 521.544,435.604 c 19.055,0 34.51,15.455 34.51,34.511 0,19.056 -15.455,34.511 -34.51,34.511 -19.058,0 -34.513,-15.455 -34.513,-34.511 0,-19.056 15.455,-34.511 34.513,-34.511"
     fill="#34495e"
     clip-rule="evenodd"
     fill-rule="evenodd" /><path
     id="path4712"
     d="m 521.544,441.256 c 15.929,0 28.85,12.921 28.85,28.859 0,15.922 -12.921,28.842 -28.85,28.842 -15.932,0 -28.853,-12.92 -28.853,-28.842 0,-15.938 12.921,-28.859 28.853,-28.859"
     fill="#22a6ef" /><path
     id="path4714"
     d="m 521.544,473.032 c 10.145,0 18.896,5.936 22.973,14.522 -5.269,6.936 -13.595,11.402 -22.973,11.402 -9.381,0 -17.707,-4.467 -22.976,-11.402 4.078,-8.586 12.828,-14.522 22.976,-14.522"
     fill="#34495e"
     clip-rule="evenodd"
     fill-rule="evenodd" /><path
     id="path4716"
     d="m 521.544,450.692 c 7.91,0 14.329,6.419 14.329,14.321 0,7.92 -6.419,14.338 -14.329,14.338 -7.913,0 -14.332,-6.418 -14.332,-14.338 0,-7.902 6.419,-14.321 14.332,-14.321"
     fill="#34495e"
     clip-rule="evenodd"
     fill-rule="evenodd" /><path
     id="path4718"
     d="m 521.544,456.36 c 4.784,0 8.668,3.869 8.668,8.653 0,4.784 -3.884,8.669 -8.668,8.669 -4.787,0 -8.671,-3.885 -8.671,-8.669 0,-4.784 3.884,-8.653 8.671,-8.653"
     fill="#39d4ff"
     clip-rule="evenodd"
     fill-rule="evenodd" /><path
     id="path4720"
     d="m 521.544,478.685 c 8.684,0 16.055,5.602 18.705,13.388 -5.035,4.301 -11.57,6.885 -18.705,6.885 -7.137,0 -13.673,-2.584 -18.708,-6.885 2.65,-7.787 10.028,-13.388 18.708,-13.388"
     fill="#39d4ff"
     clip-rule="evenodd"
     fill-rule="evenodd" /><path
     id="path4722"
     d="m 400.036,435.604 c 19.056,0 34.51,15.455 34.51,34.511 0,19.056 -15.454,34.511 -34.51,34.511 -19.066,0 -34.511,-15.455 -34.511,-34.511 0,-19.056 15.445,-34.511 34.511,-34.511"
     fill="#34495e"
     clip-rule="evenodd"
     fill-rule="evenodd" /><path
     id="path4724"
     d="m 400.036,441.256 c 15.93,0 28.851,12.921 28.851,28.859 0,15.922 -12.921,28.842 -28.851,28.842 -15.931,0 -28.852,-12.92 -28.852,-28.842 10e-4,-15.938 12.921,-28.859 28.852,-28.859"
     fill="#22a6ef" /><path
     id="path4726"
     d="m 400.036,473.032 c 10.146,0 18.896,5.936 22.974,14.522 -5.269,6.936 -13.597,11.402 -22.974,11.402 -9.379,0 -17.706,-4.467 -22.975,-11.402 4.077,-8.586 12.831,-14.522 22.975,-14.522"
     fill="#34495e"
     clip-rule="evenodd"
     fill-rule="evenodd" /><path
     id="path4728"
     d="m 400.036,450.692 c 7.911,0 14.33,6.419 14.33,14.321 0,7.92 -6.419,14.338 -14.33,14.338 -7.912,0 -14.331,-6.418 -14.331,-14.338 0,-7.902 6.419,-14.321 14.331,-14.321"
     fill="#34495e"
     clip-rule="evenodd"
     fill-rule="evenodd" /><path
     id="path4730"
     d="m 400.036,456.36 c 4.785,0 8.669,3.869 8.669,8.653 0,4.784 -3.884,8.669 -8.669,8.669 -4.786,0 -8.67,-3.885 -8.67,-8.669 0,-4.784 3.884,-8.653 8.67,-8.653"
     fill="#39d4ff"
     clip-rule="evenodd"
     fill-rule="evenodd" /><path
     id="path4732"
     d="m 400.036,478.685 c 8.678,0 16.056,5.602 18.705,13.388 -5.034,4.301 -11.571,6.885 -18.705,6.885 -7.146,0 -13.672,-2.584 -18.707,-6.885 2.65,-7.787 10.02,-13.388 18.707,-13.388"
     fill="#39d4ff"
     clip-rule="evenodd"
     fill-rule="evenodd" /><path
     id="path4734"
     d="m 278.529,435.604 c 19.057,0 34.511,15.455 34.511,34.511 0,19.056 -15.454,34.511 -34.511,34.511 -19.065,0 -34.512,-15.455 -34.512,-34.511 0,-19.056 15.447,-34.511 34.512,-34.511"
     fill="#34495e"
     clip-rule="evenodd"
     fill-rule="evenodd" /><path
     id="path4736"
     d="m 278.529,441.256 c 15.931,0 28.851,12.921 28.851,28.859 0,15.922 -12.92,28.842 -28.851,28.842 -15.938,0 -28.852,-12.92 -28.852,-28.842 0.001,-15.938 12.914,-28.859 28.852,-28.859"
     fill="#22a6ef" /><path
     id="path4738"
     d="m 278.529,473.032 c 10.146,0 18.896,5.936 22.974,14.522 -5.269,6.936 -13.596,11.402 -22.974,11.402 -9.378,0 -17.706,-4.467 -22.983,-11.402 4.085,-8.586 12.839,-14.522 22.983,-14.522"
     fill="#34495e"
     clip-rule="evenodd"
     fill-rule="evenodd" /><path
     id="path4740"
     d="m 278.529,450.692 c 7.911,0 14.329,6.419 14.329,14.321 0,7.92 -6.418,14.338 -14.329,14.338 -7.92,0 -14.329,-6.418 -14.329,-14.338 0,-7.902 6.409,-14.321 14.329,-14.321"
     fill="#34495e"
     clip-rule="evenodd"
     fill-rule="evenodd" /><path
     id="path4742"
     d="m 278.529,456.36 c 4.785,0 8.66,3.869 8.66,8.653 0,4.784 -3.875,8.669 -8.66,8.669 -4.784,0 -8.67,-3.885 -8.67,-8.669 0,-4.784 3.886,-8.653 8.67,-8.653"
     fill="#39d4ff"
     clip-rule="evenodd"
     fill-rule="evenodd" /><path
     id="path4744"
     d="m 278.529,478.685 c 8.678,0 16.056,5.602 18.706,13.388 -5.035,4.301 -11.57,6.885 -18.706,6.885 -7.145,0 -13.671,-2.584 -18.707,-6.885 2.653,-7.787 10.021,-13.388 18.707,-13.388"
     fill="#39d4ff"
     clip-rule="evenodd"
     fill-rule="evenodd" /></g>
</svg>
