<?xml version="1.0" encoding="utf-8"?>
<!-- Generator: Adobe Illustrator 15.1.0, SVG Export Plug-In . SVG Version: 6.00 Build 0)  -->
<!DOCTYPE svg PUBLIC "-//W3C//DTD SVG 1.0//EN" "http://www.w3.org/TR/2001/REC-SVG-20010904/DTD/svg10.dtd">
<svg version="1.0" id="Layer_1" xmlns="http://www.w3.org/2000/svg" xmlns:xlink="http://www.w3.org/1999/xlink" x="0px" y="0px"
	 width="800px" height="800px" viewBox="195.43399047851562 210.11000061035156 422.7359924316406 379.47698974609375" enable-background="new 0 0 800 800" xml:space="preserve">
<g>
	<!-- <path fill="#BCC2C6" d="M211.708,210.11h390.187c4.479,0,8.55,1.841,11.496,4.788v0.017c2.945,2.946,4.779,7.013,4.779,11.482
		v346.91c0,4.469-1.834,8.536-4.779,11.482v0.017c-2.946,2.947-7.018,4.779-11.496,4.779H211.708c-4.481,0-8.554-1.832-11.496-4.779
		v-0.017c-2.945-2.946-4.778-7.014-4.778-11.482v-346.91c0-4.47,1.833-8.537,4.778-11.482v-0.017
		C203.154,211.951,207.227,210.11,211.708,210.11"/>
	<path fill="#EBEFF0" d="M612.265,226.397v346.91c0,6.536-4.554,10.378-10.37,10.378H211.708c-5.808,0-10.37-3.733-10.37-10.378
		v-346.91c0-6.779,4.583-10.378,10.37-10.378h390.187C607.698,216.02,612.265,219.743,612.265,226.397"/> -->
	<path fill="#BCC2C6" d="M209.562,257.775h394.479c3.893,0,7.424,1.582,9.98,4.144c2.559,2.561,4.148,6.093,4.148,9.985v303.562
		c0,3.884-1.59,7.416-4.148,9.977c-2.557,2.562-6.088,4.144-9.98,4.144H209.562c-3.888,0-7.42-1.582-9.98-4.144
		c-2.558-2.561-4.147-6.093-4.147-9.977V271.904c0-3.893,1.59-7.424,4.147-9.985C202.142,259.357,205.674,257.775,209.562,257.775"
		/>
	<path fill-rule="evenodd" clip-rule="evenodd" fill="#FFFFFF" d="M209.562,263.676c-2.188,0-4.261,0.878-5.804,2.427
		c-1.549,1.541-2.42,3.616-2.42,5.801v303.562c0,2.177,0.871,4.253,2.42,5.802c1.543,1.548,3.615,2.418,5.804,2.418h394.479
		c2.188,0,4.26-0.87,5.804-2.418c1.545-1.549,2.42-3.625,2.42-5.802V271.904c0-2.185-0.875-4.26-2.42-5.801
		c-1.544-1.557-3.62-2.427-5.804-2.427H209.562z"/>
	<!-- <path fill-rule="evenodd" clip-rule="evenodd" fill="#94A4A5" d="M553.273,230.164c4.156,0,7.521,3.365,7.521,7.516
		s-3.364,7.524-7.521,7.524c-4.15,0-7.515-3.373-7.515-7.524S549.123,230.164,553.273,230.164 M576.89,230.164
		c4.152,0,7.52,3.365,7.52,7.516s-3.367,7.524-7.52,7.524c-4.155,0-7.521-3.373-7.521-7.524S572.737,230.164,576.89,230.164z
		 M529.663,230.164c4.151,0,7.517,3.365,7.517,7.516s-3.365,7.524-7.517,7.524c-4.155,0-7.521-3.373-7.521-7.524
		S525.508,230.164,529.663,230.164z"/> -->
	<path fill-rule="evenodd" clip-rule="evenodd" fill="#BCC2C6" d="M240.119,365.076h122.016c2.171,0,3.946,1.774,3.946,3.951
		c0,2.168-1.775,3.942-3.946,3.942H240.119c-2.171,0-3.946-1.774-3.946-3.942C236.173,366.85,237.948,365.076,240.119,365.076"/>
	<path fill-rule="evenodd" clip-rule="evenodd" fill="#BCC2C6" d="M240.119,384.921h122.016c2.171,0,3.946,1.774,3.946,3.951
		c0,2.167-1.775,3.942-3.946,3.942H240.119c-2.171,0-3.946-1.774-3.946-3.942C236.173,386.695,237.948,384.921,240.119,384.921"/>
	<path fill-rule="evenodd" clip-rule="evenodd" fill="#BCC2C6" d="M240.119,404.757h57.057c2.172,0,3.951,1.774,3.951,3.95
		s-1.779,3.95-3.951,3.95h-57.057c-2.171,0-3.946-1.774-3.946-3.95S237.948,404.757,240.119,404.757"/>
	<path fill-rule="evenodd" clip-rule="evenodd" fill="#364A5E" d="M301.127,285.211c18.451,0,33.411,14.958,33.411,33.413
		c0,18.455-14.96,33.412-33.411,33.412c-18.455,0-33.412-14.957-33.412-33.412C267.715,300.169,282.672,285.211,301.127,285.211"/>
	<path fill-rule="evenodd" clip-rule="evenodd" fill="#3EA3DB" d="M301.127,291.112c15.191,0,27.507,12.321,27.507,27.512
		s-12.315,27.511-27.507,27.511c-15.195,0-27.511-12.32-27.511-27.511S285.932,291.112,301.127,291.112"/>
	<path fill-rule="evenodd" clip-rule="evenodd" fill="#BCC2C6" d="M451.469,365.076h122.01c2.172,0,3.951,1.774,3.951,3.951
		c0,2.168-1.779,3.942-3.951,3.942h-122.01c-2.172,0-3.946-1.774-3.946-3.942C447.522,366.85,449.297,365.076,451.469,365.076"/>
	<path fill-rule="evenodd" clip-rule="evenodd" fill="#BCC2C6" d="M451.469,384.921h122.01c2.172,0,3.951,1.774,3.951,3.951
		c0,2.167-1.779,3.942-3.951,3.942h-122.01c-2.172,0-3.946-1.774-3.946-3.942C447.522,386.695,449.297,384.921,451.469,384.921"/>
	<path fill-rule="evenodd" clip-rule="evenodd" fill="#BCC2C6" d="M451.469,404.757h57.057c2.172,0,3.947,1.774,3.947,3.95
		s-1.775,3.95-3.947,3.95h-57.057c-2.172,0-3.946-1.774-3.946-3.95S449.297,404.757,451.469,404.757"/>
	<path fill-rule="evenodd" clip-rule="evenodd" fill="#364A5E" d="M512.473,285.211c18.455,0,33.416,14.958,33.416,33.413
		c0,18.455-14.961,33.412-33.416,33.412c-18.451,0-33.413-14.957-33.413-33.412C479.06,300.169,494.021,285.211,512.473,285.211"/>
	<path fill-rule="evenodd" clip-rule="evenodd" fill="#3EA3DB" d="M512.473,291.112c15.195,0,27.511,12.321,27.511,27.512
		s-12.315,27.511-27.511,27.511c-15.191,0-27.508-12.32-27.508-27.511S497.281,291.112,512.473,291.112"/>
	<path fill-rule="evenodd" clip-rule="evenodd" fill="#BCC2C6" d="M240.119,514.576h122.016c2.171,0,3.946,1.775,3.946,3.942l0,0
		c0,2.176-1.775,3.95-3.946,3.95H240.119c-2.171,0-3.946-1.774-3.946-3.95l0,0C236.173,516.352,237.948,514.576,240.119,514.576"/>
	<path fill-rule="evenodd" clip-rule="evenodd" fill="#BCC2C6" d="M240.119,534.421h122.016c2.171,0,3.946,1.774,3.946,3.942l0,0
		c0,2.176-1.775,3.942-3.946,3.942H240.119c-2.171,0-3.946-1.767-3.946-3.942l0,0C236.173,536.195,237.948,534.421,240.119,534.421"
		/>
	<path fill-rule="evenodd" clip-rule="evenodd" fill="#BCC2C6" d="M240.119,554.257h57.057c2.172,0,3.951,1.775,3.951,3.951l0,0
		c0,2.168-1.779,3.941-3.951,3.941h-57.057c-2.171,0-3.946-1.773-3.946-3.941l0,0C236.173,556.032,237.948,554.257,240.119,554.257"
		/>
	<path fill-rule="evenodd" clip-rule="evenodd" fill="#364A5E" d="M301.127,434.704c18.451,0,33.411,14.965,33.411,33.42
		c0,18.456-14.96,33.412-33.411,33.412c-18.455,0-33.412-14.956-33.412-33.412C267.715,449.669,282.672,434.704,301.127,434.704"/>
	<path fill-rule="evenodd" clip-rule="evenodd" fill="#3EA3DB" d="M301.127,440.613c15.191,0,27.507,12.32,27.507,27.511
		c0,15.191-12.315,27.511-27.507,27.511c-15.195,0-27.511-12.319-27.511-27.511C273.616,452.934,285.932,440.613,301.127,440.613"/>
	<path fill-rule="evenodd" clip-rule="evenodd" fill="#BCC2C6" d="M451.469,514.576h122.01c2.172,0,3.951,1.775,3.951,3.942l0,0
		c0,2.176-1.779,3.95-3.951,3.95h-122.01c-2.172,0-3.946-1.774-3.946-3.95l0,0C447.522,516.352,449.297,514.576,451.469,514.576"/>
	<path fill-rule="evenodd" clip-rule="evenodd" fill="#BCC2C6" d="M451.469,534.421h122.01c2.172,0,3.951,1.774,3.951,3.942l0,0
		c0,2.176-1.779,3.942-3.951,3.942h-122.01c-2.172,0-3.946-1.767-3.946-3.942l0,0C447.522,536.195,449.297,534.421,451.469,534.421"
		/>
	<path fill-rule="evenodd" clip-rule="evenodd" fill="#BCC2C6" d="M451.469,554.257h57.057c2.172,0,3.947,1.775,3.947,3.951l0,0
		c0,2.168-1.775,3.941-3.947,3.941h-57.057c-2.172,0-3.946-1.773-3.946-3.941l0,0C447.522,556.032,449.297,554.257,451.469,554.257"
		/>
	<path fill-rule="evenodd" clip-rule="evenodd" fill="#364A5E" d="M512.473,434.704c18.455,0,33.416,14.965,33.416,33.42
		c0,18.456-14.961,33.412-33.416,33.412c-18.451,0-33.413-14.956-33.413-33.412C479.06,449.669,494.021,434.704,512.473,434.704"/>
	<path fill-rule="evenodd" clip-rule="evenodd" fill="#3EA3DB" d="M512.473,440.613c15.195,0,27.511,12.32,27.511,27.511
		c0,15.191-12.315,27.511-27.511,27.511c-15.191,0-27.508-12.319-27.508-27.511C484.965,452.934,497.281,440.613,512.473,440.613"/>
	<!-- <path fill-rule="evenodd" clip-rule="evenodd" fill="#94A4A5" d="M474.335,232.44c-1.197-2.444-3.754-3.147-6.22-3.147
		c-2.915,0.026-6.131,1.356-6.131,4.621c0,3.548,2.988,4.403,6.22,4.787c2.104,0.227,3.666,0.837,3.666,2.328
		c0,1.724-1.763,2.377-3.641,2.377c-1.925,0-3.754-0.771-4.457-2.511l-2.485,1.289c1.175,2.896,3.66,3.892,6.896,3.892
		c3.528,0,6.649-1.515,6.649-5.046c0-3.775-3.075-4.628-6.377-5.039c-1.9-0.226-3.527-0.611-3.527-1.992
		c0-1.172,1.063-2.101,3.276-2.101c1.721,0,3.214,0.862,3.757,1.765L474.335,232.44z M456.959,242.727h-8.889v-3.573h8.575v-2.779
		h-8.575v-3.666h8.889v-2.896h-11.852c0,5.289,0,10.587,0,15.852h11.852V242.727z M434.992,232.6c1.875,0,2.713,1.263,2.713,2.536
		c0,1.281-0.813,2.544-2.713,2.544h-4.548v-5.08H434.992z M441.483,245.464l-4.796-5.408c3.01-0.603,4.004-2.804,4.004-4.988
		c0-2.745-1.966-5.231-5.699-5.255c-2.511,0.024-5.021,0-7.532,0v15.852h2.984v-5.289h2.874l4.612,5.289h3.553V245.464z
		 M419.106,229.863v9.064c0,2.72-1.402,4.369-3.866,4.369c-2.465,0-4.093-1.516-4.093-4.369v-9.064h-2.964v9.064
		c0,4.778,3.23,7.08,7.032,7.08c3.983,0,6.854-2.394,6.854-7.08v-9.064H419.106z M395.441,245.665h2.988v-13.141h5.021v-2.711
		c-4.595,0-8.462,0-13.032,0v2.711h5.022V245.665z M384.355,239.907h-5.883l2.941-6.764L384.355,239.907z M386.888,245.665h3.257
		l-7.103-15.852h-3.256l-7.103,15.852h3.235l1.356-2.979h8.277L386.888,245.665z M369.558,242.727h-8.888v-3.573h8.57v-2.779h-8.57
		v-3.666h8.888v-2.896h-11.854c0,5.289,0,10.587,0,15.852h11.854V242.727z M344.851,245.665v-5.85h7.938v-2.762h-7.938v-4.318h8.391
		v-2.871h-11.374v15.801H344.851z"/> -->
</g>
</svg>
