<?xml version="1.0" encoding="utf-8"?>
<!-- Generator: Adobe Illustrator 15.1.0, SVG Export Plug-In . SVG Version: 6.00 Build 0)  -->
<!DOCTYPE svg PUBLIC "-//W3C//DTD SVG 1.0//EN" "http://www.w3.org/TR/2001/REC-SVG-20010904/DTD/svg10.dtd">
<svg version="1.0" id="Layer_1" xmlns="http://www.w3.org/2000/svg" xmlns:xlink="http://www.w3.org/1999/xlink" x="0px" y="0px"
	 width="800px" height="800px" viewBox="183.67401123046875 210.11000061035156 422.7359619140625 379.47698974609375" enable-background="new 0 0 800 800" xml:space="preserve">
<g>
	<!-- <path fill="#BCC2C6" d="M199.949,210.11h390.186c4.478,0,8.55,1.841,11.496,4.788v0.017c2.946,2.946,4.779,7.013,4.779,11.482
		v346.91c0,4.469-1.833,8.536-4.779,11.482v0.017c-2.946,2.947-7.019,4.779-11.496,4.779H199.949c-4.481,0-8.554-1.832-11.495-4.779
		v-0.017c-2.946-2.946-4.78-7.014-4.78-11.482v-346.91c0-4.47,1.834-8.537,4.78-11.482v-0.017
		C191.396,211.951,195.468,210.11,199.949,210.11"/>
	<path fill="#EBEFF0" d="M600.505,226.397v346.91c0,6.536-4.553,10.378-10.37,10.378H199.949c-5.809,0-10.37-3.733-10.37-10.378
		v-346.91c0-6.779,4.583-10.378,10.37-10.378h390.186C595.944,216.02,600.505,219.743,600.505,226.397"/> -->
	<path fill="#BCC2C6" d="M197.803,257.775h394.479c3.893,0,7.424,1.582,9.98,4.144c2.562,2.561,4.147,6.093,4.147,9.985v303.562
		c0,3.884-1.586,7.416-4.147,9.977c-2.557,2.562-6.088,4.144-9.98,4.144H197.803c-3.893,0-7.424-1.582-9.981-4.144
		c-2.561-2.561-4.147-6.093-4.147-9.977V271.904c0-3.893,1.587-7.424,4.147-9.985C190.379,259.357,193.91,257.775,197.803,257.775"
		/>
	<path fill-rule="evenodd" clip-rule="evenodd" fill="#FFFFFF" d="M197.803,263.676c-2.188,0-4.261,0.878-5.805,2.427
		c-1.548,1.541-2.419,3.616-2.419,5.801v303.562c0,2.177,0.871,4.253,2.419,5.802c1.544,1.548,3.616,2.418,5.805,2.418h394.479
		c2.188,0,4.26-0.87,5.805-2.418c1.543-1.549,2.418-3.625,2.418-5.802V271.904c0-2.185-0.875-4.26-2.418-5.801
		c-1.545-1.557-3.624-2.427-5.805-2.427H197.803z"/>
	<!-- <path fill-rule="evenodd" clip-rule="evenodd" fill="#94A4A5" d="M541.516,230.164c4.151,0,7.52,3.365,7.52,7.516
		s-3.368,7.524-7.52,7.524c-4.152,0-7.521-3.373-7.521-7.524S537.363,230.164,541.516,230.164 M565.131,230.164
		c4.15,0,7.521,3.365,7.521,7.516s-3.37,7.524-7.521,7.524c-4.151,0-7.521-3.373-7.521-7.524S560.979,230.164,565.131,230.164z
		 M517.899,230.164c4.152,0,7.521,3.365,7.521,7.516s-3.368,7.524-7.521,7.524c-4.15,0-7.52-3.373-7.52-7.524
		S513.752,230.164,517.899,230.164z"/> -->
	<path fill="#D7D7D7" d="M426.184,531.726H367.11c-2.269,0-4.336,0.938-5.834,2.428c-1.498,1.506-2.431,3.565-2.431,5.842
		c0,2.277,0.924,4.345,2.414,5.833l0.017,0.01c1.489,1.49,3.558,2.427,5.834,2.427h59.073c2.269,0,4.336-0.937,5.834-2.437
		c1.502-1.498,2.433-3.564,2.433-5.833c0-2.276-0.931-4.344-2.424-5.842C430.528,532.655,428.457,531.726,426.184,531.726
		 M367.11,523.633h59.073c4.491,0,8.579,1.841,11.542,4.796l0.014,0.017c2.967,2.963,4.804,7.056,4.804,11.55
		c0,4.503-1.837,8.596-4.804,11.551c-2.963,2.963-7.052,4.804-11.556,4.804H367.11c-4.481,0-8.57-1.841-11.542-4.804h-0.009
		l-0.003-0.009c-2.968-2.971-4.805-7.056-4.805-11.542c0-4.502,1.837-8.595,4.805-11.566
		C358.516,525.474,362.607,523.633,367.11,523.633z"/>
	<path fill="#364A5E" d="M363.9,516.944h59.07c4.494,0,8.578,1.842,11.546,4.805l0.012,0.018c2.963,2.963,4.805,7.047,4.805,11.542
		c0,4.502-1.842,8.595-4.805,11.558c-2.963,2.964-7.056,4.805-11.558,4.805H363.9c-4.486,0-8.574-1.841-11.542-4.805l-0.008-0.008
		l-0.009-0.008c-2.962-2.972-4.805-7.057-4.805-11.542c0-4.503,1.843-8.596,4.805-11.56
		C355.305,518.786,359.395,516.944,363.9,516.944"/>
	<path fill="#43C0B9" d="M422.971,521.815c3.055,0,5.968,1.205,8.127,3.365c2.155,2.16,3.363,5.072,3.363,8.128
		c0,3.055-1.217,5.959-3.371,8.109c-2.16,2.16-5.064,3.382-8.119,3.382H363.9c-3.051,0-5.96-1.206-8.118-3.365l-0.017-0.017
		c-2.156-2.15-3.356-5.063-3.356-8.109c0-3.056,1.218-5.968,3.373-8.119c2.158-2.151,5.063-3.374,8.118-3.374H422.971z"/>
	<path fill="#7CCED2" d="M422.971,521.815c3.055,0,5.968,1.205,8.127,3.365c2.155,2.16,3.363,5.072,3.363,8.128
		c0,0.778-0.078,1.556-0.233,2.31c-0.448-2.185-1.531-4.21-3.13-5.809c-2.159-2.151-5.072-3.365-8.127-3.365H363.9
		c-3.055,0-5.96,1.214-8.118,3.374c-1.606,1.606-2.687,3.623-3.139,5.808c-0.155-0.752-0.234-1.539-0.234-2.317
		c0-3.056,1.218-5.968,3.373-8.119c2.158-2.151,5.063-3.374,8.118-3.374H422.971z"/>
	<path fill-rule="evenodd" clip-rule="evenodd" fill="#364A5E" d="M289.368,290.728c18.455,0,33.412,14.949,33.412,33.412
		c0,18.448-14.957,33.413-33.412,33.413c-18.456,0-33.413-14.965-33.413-33.413C255.955,305.676,270.912,290.728,289.368,290.728"/>
	<path fill-rule="evenodd" clip-rule="evenodd" fill="#3EA3DB" d="M289.368,296.628c15.195,0,27.508,12.312,27.508,27.511
		c0,15.192-12.313,27.503-27.508,27.503s-27.508-12.311-27.508-27.503C261.86,308.94,274.173,296.628,289.368,296.628"/>
	<path fill-rule="evenodd" clip-rule="evenodd" fill="#BCC2C6" d="M228.03,377.321h122.671c2.173,0,3.946,1.774,3.946,3.951l0,0
		c0,2.176-1.773,3.95-3.946,3.95H228.03c-2.172,0-3.946-1.774-3.946-3.95l0,0C224.084,379.095,225.858,377.321,228.03,377.321"/>
	<path fill-rule="evenodd" clip-rule="evenodd" fill="#BCC2C6" d="M228.03,397.166h122.671c2.173,0,3.946,1.774,3.946,3.942v0.008
		c0,2.168-1.773,3.942-3.946,3.942H228.03c-2.172,0-3.946-1.774-3.946-3.942v-0.008C224.084,398.94,225.858,397.166,228.03,397.166"
		/>
	<path fill-rule="evenodd" clip-rule="evenodd" fill="#BCC2C6" d="M228.03,417.011h122.671c2.173,0,3.946,1.774,3.946,3.942v0.008
		c0,2.167-1.773,3.941-3.946,3.941H228.03c-2.172,0-3.946-1.774-3.946-3.941v-0.008C224.084,418.785,225.858,417.011,228.03,417.011
		"/>
	<path fill-rule="evenodd" clip-rule="evenodd" fill="#BCC2C6" d="M228.03,436.847h122.671c2.173,0,3.946,1.774,3.946,3.95l0,0
		c0,2.177-1.773,3.95-3.946,3.95H228.03c-2.172,0-3.946-1.773-3.946-3.95l0,0C224.084,438.621,225.858,436.847,228.03,436.847"/>
	<path fill-rule="evenodd" clip-rule="evenodd" fill="#BCC2C6" d="M260.672,456.69h57.392c2.173,0,3.942,1.774,3.942,3.943v0.008
		c0,2.168-1.77,3.942-3.942,3.942h-57.392c-2.172,0-3.945-1.774-3.945-3.942v-0.008C256.727,458.465,258.5,456.69,260.672,456.69"/>
	<path fill-rule="evenodd" clip-rule="evenodd" fill="#364A5E" d="M487.782,290.728c18.45,0,33.411,14.949,33.411,33.412
		c0,18.448-14.961,33.413-33.411,33.413c-18.456,0-33.412-14.965-33.412-33.413C454.37,305.676,469.326,290.728,487.782,290.728"/>
	<path fill-rule="evenodd" clip-rule="evenodd" fill="#3EA3DB" d="M487.782,296.628c15.19,0,27.506,12.312,27.506,27.511
		c0,15.192-12.315,27.503-27.506,27.503c-15.196,0-27.512-12.311-27.512-27.503C460.271,308.94,472.586,296.628,487.782,296.628"/>
	<path fill-rule="evenodd" clip-rule="evenodd" fill="#BCC2C6" d="M426.438,377.321h122.678c2.171,0,3.946,1.774,3.946,3.951l0,0
		c0,2.176-1.775,3.95-3.946,3.95H426.438c-2.166,0-3.941-1.774-3.941-3.95l0,0C422.497,379.095,424.272,377.321,426.438,377.321"/>
	<path fill-rule="evenodd" clip-rule="evenodd" fill="#BCC2C6" d="M426.438,397.166h122.678c2.171,0,3.946,1.774,3.946,3.942v0.008
		c0,2.168-1.775,3.942-3.946,3.942H426.438c-2.166,0-3.941-1.774-3.941-3.942v-0.008
		C422.497,398.94,424.272,397.166,426.438,397.166"/>
	<path fill-rule="evenodd" clip-rule="evenodd" fill="#BCC2C6" d="M426.438,417.011h122.678c2.171,0,3.946,1.774,3.946,3.942v0.008
		c0,2.167-1.775,3.941-3.946,3.941H426.438c-2.166,0-3.941-1.774-3.941-3.941v-0.008
		C422.497,418.785,424.272,417.011,426.438,417.011"/>
	<path fill-rule="evenodd" clip-rule="evenodd" fill="#BCC2C6" d="M426.438,436.847h122.678c2.171,0,3.946,1.774,3.946,3.95l0,0
		c0,2.177-1.775,3.95-3.946,3.95H426.438c-2.166,0-3.941-1.773-3.941-3.95l0,0C422.497,438.621,424.272,436.847,426.438,436.847"/>
	<path fill-rule="evenodd" clip-rule="evenodd" fill="#BCC2C6" d="M459.086,456.69h57.388c2.171,0,3.946,1.774,3.946,3.943v0.008
		c0,2.168-1.775,3.942-3.946,3.942h-57.388c-2.171,0-3.946-1.774-3.946-3.942v-0.008C455.14,458.465,456.915,456.69,459.086,456.69"
		/>
	<!-- <path fill-rule="evenodd" clip-rule="evenodd" fill="#94A4A5" d="M462.576,232.44c-1.196-2.444-3.754-3.147-6.219-3.147
		c-2.917,0.026-6.131,1.356-6.131,4.621c0,3.548,2.987,4.403,6.223,4.787c2.101,0.227,3.662,0.837,3.662,2.328
		c0,1.724-1.763,2.377-3.642,2.377c-1.921,0-3.753-0.771-4.456-2.511l-2.486,1.289c1.176,2.896,3.662,3.892,6.897,3.892
		c3.527,0,6.649-1.515,6.649-5.046c0-3.775-3.076-4.628-6.379-5.039c-1.899-0.226-3.527-0.611-3.527-1.992
		c0-1.172,1.063-2.101,3.281-2.101c1.72,0,3.21,0.862,3.755,1.765L462.576,232.44z M445.2,242.727h-8.889v-3.573h8.571v-2.779
		h-8.571v-3.666h8.889v-2.896h-11.852c0,5.289,0,10.587,0,15.852H445.2V242.727z M423.234,232.6c1.874,0,2.715,1.263,2.715,2.536
		c0,1.281-0.819,2.544-2.715,2.544h-4.55v-5.08H423.234z M429.725,245.464l-4.795-5.408c3.009-0.603,4-2.804,4-4.988
		c0-2.745-1.963-5.231-5.695-5.255c-2.511,0.024-5.021,0-7.532,0v15.852h2.982v-5.289h2.875l4.612,5.289h3.553V245.464z
		 M407.349,229.863v9.064c0,2.72-1.402,4.369-3.867,4.369s-4.093-1.516-4.093-4.369v-9.064h-2.963v9.064
		c0,4.778,3.235,7.08,7.03,7.08c3.984,0,6.854-2.394,6.854-7.08v-9.064H407.349z M383.684,245.665h2.987v-13.141h5.021v-2.711
		c-4.591,0-8.457,0-13.026,0v2.711h5.018V245.665z M372.593,239.907h-5.881l2.943-6.764L372.593,239.907z M375.129,245.665h3.255
		l-7.102-15.852h-3.255l-7.102,15.852h3.234l1.356-2.979h8.277L375.129,245.665z M357.796,242.727h-8.886v-3.573h8.571v-2.779
		h-8.571v-3.666h8.886v-2.896h-11.849c0,5.289,0,10.587,0,15.852h11.849V242.727z M333.092,245.665v-5.85h7.938v-2.762h-7.938
		v-4.318h8.395v-2.871h-11.379v15.801H333.092z"/> -->
</g>
</svg>
