<?xml version="1.0" encoding="utf-8"?>
<!-- Generator: Adobe Illustrator 15.1.0, SVG Export Plug-In . SVG Version: 6.00 Build 0)  -->
<!DOCTYPE svg PUBLIC "-//W3C//DTD SVG 1.0//EN" "http://www.w3.org/TR/2001/REC-SVG-20010904/DTD/svg10.dtd">
<svg version="1.0" id="Layer_1" xmlns="http://www.w3.org/2000/svg" xmlns:xlink="http://www.w3.org/1999/xlink" x="0px" y="0px"
	 width="800px" height="800px" viewBox="205.04798889160156 210.11000061035156 422.7320556640625 379.47698974609375" enable-background="new 0 0 800 800" xml:space="preserve">
<g>
	<!-- <path fill="#BCC2C6" d="M221.327,210.11h390.182c4.477,0,8.553,1.841,11.5,4.788v0.017c2.946,2.946,4.771,7.013,4.771,11.482
		v346.91c0,4.469-1.824,8.536-4.771,11.482v0.017c-2.947,2.947-7.023,4.779-11.5,4.779H221.327c-4.486,0-8.554-1.832-11.5-4.779
		v-0.017c-2.946-2.946-4.779-7.014-4.779-11.482v-346.91c0-4.47,1.833-8.537,4.779-11.482v-0.017
		C212.773,211.951,216.841,210.11,221.327,210.11"/>
	<path fill="#EBEFF0" d="M621.879,226.397v346.91c0,6.536-4.554,10.378-10.37,10.378H221.327c-5.809,0-10.37-3.733-10.37-10.378
		v-346.91c0-6.779,4.578-10.378,10.37-10.378h390.182C617.317,216.02,621.879,219.743,621.879,226.397"/> -->
	<path fill="#BCC2C6" d="M219.177,257.775h394.482c3.892,0,7.425,1.582,9.977,4.144c2.562,2.561,4.144,6.093,4.144,9.985v303.562
		c0,3.884-1.582,7.416-4.144,9.977c-2.552,2.562-6.085,4.144-9.977,4.144H219.177c-3.894,0-7.425-1.582-9.978-4.144
		c-2.562-2.561-4.151-6.093-4.151-9.977V271.904c0-3.893,1.59-7.424,4.151-9.985C211.752,259.357,215.283,257.775,219.177,257.775"
		/>
	<path fill="#FFFFFF" d="M219.177,263.676c-2.186,0-4.261,0.878-5.801,2.427c-1.548,1.541-2.419,3.616-2.419,5.801v303.562
		c0,2.177,0.871,4.253,2.419,5.802c1.54,1.548,3.615,2.418,5.801,2.418h394.482c2.185,0,4.261-0.87,5.801-2.418
		c1.548-1.549,2.419-3.625,2.419-5.802V271.904c0-2.185-0.871-4.26-2.419-5.801c-1.54-1.557-3.616-2.427-5.801-2.427H219.177z"/>
	<!-- <path fill-rule="evenodd" clip-rule="evenodd" fill="#94A4A5" d="M562.89,230.164c4.158,0,7.523,3.365,7.523,7.516
		s-3.365,7.524-7.523,7.524c-4.152,0-7.517-3.373-7.517-7.524S558.737,230.164,562.89,230.164 M586.509,230.164
		c4.15,0,7.516,3.365,7.516,7.516s-3.365,7.524-7.516,7.524c-4.16,0-7.525-3.373-7.525-7.524S582.356,230.164,586.509,230.164z
		 M539.277,230.164c4.151,0,7.517,3.365,7.517,7.516s-3.365,7.524-7.517,7.524s-7.516-3.373-7.516-7.524
		S535.126,230.164,539.277,230.164z"/> -->
	<path fill-rule="evenodd" clip-rule="evenodd" fill="#364A5E" d="M383.726,444.145h65.385c1.624,0,2.945,1.331,2.945,2.955l0,0
		c0,1.623-1.321,2.954-2.945,2.954h-65.385c-1.623,0-2.945-1.331-2.945-2.954l0,0C380.78,445.476,382.103,444.145,383.726,444.145"
		/>
	<rect x="404.491" y="421.765" fill-rule="evenodd" clip-rule="evenodd" fill="#364A5E" width="23.854" height="28.289"/>
	<rect x="410.392" y="427.665" fill-rule="evenodd" clip-rule="evenodd" fill="#FFFFFF" width="12.044" height="16.479"/>
	<path fill-rule="evenodd" clip-rule="evenodd" fill="#364A5E" d="M338.772,315.017h155.292c2.67,0,4.862,2.193,4.862,4.863v102.922
		c0,2.679-2.192,4.863-4.862,4.863H338.772c-2.671,0-4.863-2.185-4.863-4.863V319.88
		C333.909,317.21,336.094,315.017,338.772,315.017"/>
	<rect x="339.817" y="320.926" fill="#3EA3DB" width="153.201" height="100.838"/>
	<path opacity="0.15" fill="#010101" d="M452.658,348.496c-1.263-1.264-3.013-2.042-4.938-2.042c-1.934,0-3.683,0.778-4.938,2.042
		c-1.264,1.255-2.043,3.005-2.043,4.938c0,1.925,0.779,3.667,2.043,4.93c1.265,1.264,3.013,2.042,4.938,2.042
		c1.925,0,3.675-0.778,4.938-2.035c1.256-1.263,2.035-3.013,2.035-4.938C454.693,351.5,453.914,349.751,452.658,348.496
		 M447.721,340.703c3.507,0,6.68,1.423,8.989,3.725l0.008,0.017c2.302,2.302,3.725,5.474,3.725,8.989
		c0,3.499-1.423,6.68-3.725,8.989h-0.008c-2.31,2.31-5.482,3.733-8.989,3.733c-3.515,0-6.696-1.423-8.998-3.733
		c-2.31-2.293-3.732-5.482-3.732-8.989c0-3.515,1.423-6.687,3.732-8.989l0.009-0.017
		C441.032,342.126,444.214,340.703,447.721,340.703z M441.618,371.898h0.01l0.084,0.117l1.615,2.142l-0.026,0.026l9.659,13.124
		c0.694,0.946,0.987,1.892,0.987,2.787h-0.017c0.009,0.703-0.166,1.338-0.477,1.899c-0.294,0.528-0.695,0.979-1.172,1.331
		c-0.795,0.586-1.825,0.904-2.846,0.904v-0.008l-24.281,0.008l-46.485-0.008c-1.121,0-2.093-0.318-2.845-0.871
		c-0.512-0.377-0.922-0.862-1.207-1.44h-0.016c-0.268-0.543-0.41-1.146-0.41-1.816h-0.009c0-0.955,0.327-1.975,1.047-2.955
		l10.178-13.827l-0.017-0.017l0.937-1.239l0.109-0.151l0,0l0.024-0.025l12.572-16.714c0.443-0.594,0.929-1.08,1.438-1.465
		c0.988-0.737,2.06-1.104,3.173-1.097c1.113,0.009,2.176,0.377,3.139,1.097c0.52,0.385,1.005,0.871,1.439,1.465l12.011,15.961
		l5.809-7.725c0.435-0.586,0.921-1.071,1.431-1.464c0.972-0.72,2.035-1.088,3.156-1.097c1.112,0,2.185,0.36,3.164,1.097
		c0.51,0.384,0.996,0.87,1.438,1.464l6.37,8.479L441.618,371.898z M446.708,388.486l-9.709-13.191l-0.41-0.56l-5.935-7.893
		l-0.017-0.017l-0.017,0.017l-6.712,8.922l-1.391,1.841l-2.284,3.047l-2.293-3.047l-1.39-1.841l-12.906-17.166l-0.017-0.017
		l-0.017,0.017l-12.186,16.211l-0.36,0.485l-9.71,13.191l43.799,0.017L446.708,388.486z"/>
	<path fill="#364A5E" d="M445.93,335.021c3.507,0,6.688,1.423,8.989,3.733h0.008c2.302,2.31,3.732,5.49,3.732,8.99
		c0,3.515-1.431,6.687-3.732,8.988l-0.008,0.017c-2.302,2.302-5.482,3.725-8.989,3.725c-3.515,0-6.696-1.432-8.998-3.725
		c-2.31-2.31-3.732-5.49-3.732-9.005c0-3.5,1.423-6.68,3.732-8.99h0.009C439.241,336.444,442.423,335.021,445.93,335.021
		 M439.827,366.223l0.01-0.009l0.084,0.126l1.615,2.142l-0.026,0.017l9.659,13.124c0.694,0.938,0.987,1.892,0.987,2.779h-0.017
		c0.009,0.703-0.166,1.347-0.478,1.908c-0.293,0.527-0.694,0.971-1.171,1.331c-0.795,0.578-1.816,0.904-2.846,0.904v-0.009
		l-24.281,0.009l-46.485-0.009c-1.121,0-2.093-0.317-2.837-0.87c-0.52-0.386-0.93-0.871-1.215-1.44h-0.017
		c-0.267-0.544-0.41-1.155-0.41-1.808h-0.008c0-0.962,0.327-1.984,1.047-2.963l10.178-13.826l-0.009-0.017l0.929-1.239l0.108-0.151
		l0,0l0.025-0.026l12.572-16.713c0.443-0.595,0.929-1.089,1.447-1.474c0.979-0.737,2.051-1.097,3.172-1.088
		c1.105,0,2.168,0.368,3.131,1.097c0.52,0.385,1.005,0.879,1.439,1.465l12.011,15.961l5.809-7.725
		c0.444-0.587,0.92-1.072,1.44-1.457c0.961-0.737,2.033-1.104,3.146-1.104c1.113,0,2.185,0.36,3.164,1.095
		c0.511,0.386,0.996,0.879,1.439,1.466l6.378,8.47L439.827,366.223z"/>
	<path fill-rule="evenodd" clip-rule="evenodd" fill="#54CAF2" d="M445.93,339.657c-2.151,0-4.185,0.846-5.759,2.412l0.025-0.017
		c-1.523,1.523-2.359,3.54-2.359,5.692c0,2.159,0.845,4.201,2.376,5.724c1.522,1.524,3.558,2.369,5.717,2.369
		c2.15,0,4.185-0.845,5.749-2.419l-0.017,0.026c1.517-1.524,2.353-3.541,2.353-5.699c0-2.152-0.836-4.169-2.336-5.675l-0.041-0.042
		C450.114,340.511,448.08,339.657,445.93,339.657 M377.407,383.9h45.957h23.72l-10.896-14.807l-6.453-8.587
		c-0.151-0.193-0.318-0.394-0.519-0.544c-0.101-0.067-0.234-0.167-0.36-0.167c-0.143,0-0.276,0.093-0.376,0.167
		c-0.201,0.151-0.377,0.351-0.521,0.552l-9.516,12.646l-15.71-20.89c-0.15-0.192-0.326-0.394-0.519-0.544
		c-0.101-0.075-0.243-0.168-0.377-0.168s-0.269,0.093-0.368,0.168c-0.193,0.151-0.369,0.343-0.52,0.544l-12.646,16.814
		L377.407,383.9z"/>
	<path fill-rule="evenodd" clip-rule="evenodd" fill="#364A5E" d="M338.772,407.436h155.292c2.67,0,4.862,2.192,4.862,4.854v10.513
		c0,2.679-2.192,4.863-4.862,4.863H338.772c-2.671,0-4.863-2.185-4.863-4.863v-10.513
		C333.909,409.62,336.094,407.436,338.772,407.436"/>
	<rect x="339.817" y="413.336" fill-rule="evenodd" clip-rule="evenodd" fill="#FFFFFF" width="153.201" height="8.429"/>
	<path fill-rule="evenodd" clip-rule="evenodd" fill="#BCC2C6" d="M302.455,479.951h227.926c2.168,0,3.942,1.782,3.942,3.95l0,0
		c0,2.177-1.774,3.95-3.942,3.95H302.455c-2.168,0-3.95-1.773-3.95-3.95l0,0C298.505,481.733,300.287,479.951,302.455,479.951"/>
	<path fill-rule="evenodd" clip-rule="evenodd" fill="#BCC2C6" d="M302.455,499.795h227.926c2.168,0,3.942,1.783,3.942,3.942v0.009
		c0,2.168-1.774,3.941-3.942,3.941H302.455c-2.168,0-3.95-1.773-3.95-3.941v-0.009C298.505,501.578,300.287,499.795,302.455,499.795
		"/>
	<path fill-rule="evenodd" clip-rule="evenodd" fill="#BCC2C6" d="M361.412,519.641h110.012c2.167,0,3.95,1.773,3.95,3.941v0.009
		c0,2.168-1.783,3.942-3.95,3.942H361.412c-2.168,0-3.951-1.774-3.951-3.942v-0.009
		C357.461,521.414,359.244,519.641,361.412,519.641"/>
	<!-- <path fill-rule="evenodd" clip-rule="evenodd" fill="#94A4A5" d="M483.954,232.44c-1.197-2.444-3.75-3.147-6.22-3.147
		c-2.921,0.026-6.126,1.356-6.126,4.621c0,3.548,2.979,4.403,6.219,4.787c2.101,0.227,3.657,0.837,3.657,2.328
		c0,1.724-1.758,2.377-3.642,2.377c-1.916,0-3.75-0.771-4.451-2.511l-2.486,1.289c1.171,2.896,3.657,3.892,6.896,3.892
		c3.531,0,6.654-1.515,6.654-5.046c0-3.775-3.08-4.628-6.387-5.039c-1.9-0.226-3.523-0.611-3.523-1.992
		c0-1.172,1.063-2.101,3.281-2.101c1.715,0,3.205,0.862,3.75,1.765L483.954,232.44z M466.578,242.727h-8.889v-3.573h8.57v-2.779
		h-8.57v-3.666h8.889v-2.896h-11.853c0,5.289,0,10.587,0,15.852h11.853V242.727z M444.606,232.6c1.885,0,2.721,1.263,2.721,2.536
		c0,1.281-0.82,2.544-2.721,2.544h-4.544v-5.08H444.606z M451.103,245.464l-4.797-5.408c3.006-0.603,4.002-2.804,4.002-4.988
		c0-2.745-1.968-5.231-5.701-5.255c-2.511,0.024-5.013,0-7.532,0v15.852h2.988v-5.289h2.871l4.619,5.289h3.55V245.464z
		 M428.722,229.863v9.064c0,2.72-1.397,4.369-3.867,4.369c-2.461,0-4.093-1.516-4.093-4.369v-9.064h-2.963v9.064
		c0,4.778,3.239,7.08,7.039,7.08c3.976,0,6.855-2.394,6.855-7.08v-9.064H428.722z M405.06,245.665h2.988v-13.141h5.022v-2.711
		c-4.595,0-8.462,0-13.032,0v2.711h5.021V245.665z M393.971,239.907h-5.876l2.938-6.764L393.971,239.907z M396.507,245.665h3.255
		l-7.097-15.852H389.4l-7.098,15.852h3.23l1.364-2.979h8.27L396.507,245.665z M379.172,242.727h-8.889v-3.573h8.571v-2.779h-8.571
		v-3.666h8.889v-2.896H367.32c0,5.289,0,10.587,0,15.852h11.852V242.727z M354.473,245.665v-5.85h7.936v-2.762h-7.936v-4.318h8.388
		v-2.871h-11.375v15.801H354.473z"/> -->
</g>
</svg>
