<?xml version="1.0" encoding="utf-8"?>
<!-- Generator: Adobe Illustrator 15.1.0, SVG Export Plug-In . SVG Version: 6.00 Build 0)  -->
<!DOCTYPE svg PUBLIC "-//W3C//DTD SVG 1.0//EN" "http://www.w3.org/TR/2001/REC-SVG-20010904/DTD/svg10.dtd">
<svg version="1.0" id="Layer_1" xmlns="http://www.w3.org/2000/svg" xmlns:xlink="http://www.w3.org/1999/xlink" x="0px" y="0px"
	 width="800px" height="800px" viewBox="199.86000061035156 210.11000061035156 422.736083984375 379.47698974609375" enable-background="new 0 0 800 800" xml:space="preserve">
<g>
	<!-- <path fill="#BCC2C6" d="M216.134,210.11h390.182c4.486,0,8.555,1.841,11.5,4.788v0.017c2.947,2.946,4.78,7.013,4.78,11.482v346.91
		c0,4.469-1.833,8.536-4.78,11.482v0.017c-2.945,2.947-7.014,4.779-11.5,4.779H216.134c-4.481,0-8.553-1.832-11.5-4.779v-0.017
		c-2.942-2.946-4.774-7.014-4.774-11.482v-346.91c0-4.47,1.832-8.537,4.774-11.482v-0.017
		C207.581,211.951,211.652,210.11,216.134,210.11"/>
	<path fill="#EBEFF0" d="M616.687,226.397v346.91c0,6.536-4.546,10.378-10.371,10.378H216.134c-5.809,0-10.369-3.733-10.369-10.378
		v-346.91c0-6.779,4.582-10.378,10.369-10.378h390.182C612.125,216.02,616.687,219.743,616.687,226.397"/> -->
	<path fill="#BCC2C6" d="M213.987,257.775h394.471c3.901,0,7.432,1.582,9.994,4.144c2.553,2.561,4.144,6.093,4.144,9.985v303.562
		c0,3.884-1.591,7.416-4.144,9.977c-2.563,2.562-6.093,4.144-9.994,4.144H213.987c-3.892,0-7.424-1.582-9.981-4.144
		c-2.561-2.561-4.146-6.093-4.146-9.977V271.904c0-3.893,1.586-7.424,4.146-9.985C206.563,259.357,210.096,257.775,213.987,257.775"
		/>
	<path fill-rule="evenodd" clip-rule="evenodd" fill="#FFFFFF" d="M213.987,263.676c-2.189,0-4.264,0.878-5.81,2.427
		c-1.542,1.541-2.418,3.616-2.418,5.801v303.562c0,2.177,0.876,4.253,2.418,5.802c1.546,1.548,3.62,2.418,5.81,2.418h394.471
		c2.193,0,4.27-0.87,5.809-2.418c1.55-1.549,2.42-3.625,2.42-5.802V271.904c0-2.185-0.87-4.26-2.42-5.801
		c-1.539-1.557-3.615-2.427-5.809-2.427H213.987z"/>
	<!-- <path fill-rule="evenodd" clip-rule="evenodd" fill="#94A4A5" d="M557.704,230.164c4.152,0,7.517,3.365,7.517,7.516
		s-3.364,7.524-7.517,7.524s-7.523-3.373-7.523-7.524S553.552,230.164,557.704,230.164 M581.315,230.164
		c4.144,0,7.524,3.365,7.524,7.516s-3.381,7.524-7.524,7.524c-4.16,0-7.524-3.373-7.524-7.524S577.164,230.164,581.315,230.164z
		 M534.085,230.164c4.151,0,7.516,3.365,7.516,7.516s-3.364,7.524-7.516,7.524s-7.516-3.373-7.516-7.524
		S529.934,230.164,534.085,230.164z"/> -->
	<path fill-rule="evenodd" clip-rule="evenodd" fill="#BCC2C6" d="M351.348,306.89h227.918c2.176,0,3.95,1.774,3.95,3.942l0,0
		c0,2.176-1.774,3.95-3.95,3.95H351.348c-2.167,0-3.942-1.774-3.942-3.95l0,0C347.405,308.665,349.181,306.89,351.348,306.89"/>
	<path fill-rule="evenodd" clip-rule="evenodd" fill="#BCC2C6" d="M351.348,326.734h227.918c2.176,0,3.95,1.774,3.95,3.942l0,0
		c0,2.167-1.774,3.943-3.95,3.943H351.348c-2.167,0-3.942-1.775-3.942-3.943l0,0C347.405,328.508,349.181,326.734,351.348,326.734"
		/>
	<path fill-rule="evenodd" clip-rule="evenodd" fill="#BCC2C6" d="M351.348,346.57h110.021c2.158,0,3.933,1.775,3.933,3.951l0,0
		c0,2.168-1.774,3.942-3.933,3.942H351.348c-2.167,0-3.942-1.774-3.942-3.942l0,0C347.405,348.346,349.181,346.57,351.348,346.57"/>
	<path fill-rule="evenodd" clip-rule="evenodd" fill="#364A5E" d="M272.646,297.265c18.451,0,33.412,14.957,33.412,33.412
		c0,18.455-14.961,33.413-33.412,33.413c-18.455,0-33.411-14.958-33.411-33.413C239.235,312.222,254.191,297.265,272.646,297.265"/>
	<path fill-rule="evenodd" clip-rule="evenodd" fill="#3EA3DB" d="M272.646,303.165c15.191,0,27.508,12.32,27.508,27.511
		c0,15.192-12.316,27.512-27.508,27.512c-15.195,0-27.511-12.32-27.511-27.512C245.136,315.485,257.451,303.165,272.646,303.165"/>
	<path fill-rule="evenodd" clip-rule="evenodd" fill="#BCC2C6" d="M351.348,399.894h227.918c2.176,0,3.95,1.775,3.95,3.943l0,0
		c0,2.175-1.774,3.949-3.95,3.949H351.348c-2.167,0-3.942-1.774-3.942-3.949l0,0C347.405,401.669,349.181,399.894,351.348,399.894"
		/>
	<path fill-rule="evenodd" clip-rule="evenodd" fill="#BCC2C6" d="M351.348,419.738h227.918c2.176,0,3.95,1.774,3.95,3.942l0,0
		c0,2.168-1.774,3.941-3.95,3.941H351.348c-2.167,0-3.942-1.773-3.942-3.941l0,0C347.405,421.513,349.181,419.738,351.348,419.738"
		/>
	<path fill-rule="evenodd" clip-rule="evenodd" fill="#BCC2C6" d="M351.348,439.574h110.021c2.158,0,3.933,1.774,3.933,3.951l0,0
		c0,2.168-1.774,3.942-3.933,3.942H351.348c-2.167,0-3.942-1.774-3.942-3.942l0,0C347.405,441.349,349.181,439.574,351.348,439.574"
		/>
	<path fill-rule="evenodd" clip-rule="evenodd" fill="#364A5E" d="M272.646,390.27c18.451,0,33.412,14.955,33.412,33.411
		c0,18.455-14.961,33.412-33.412,33.412c-18.455,0-33.411-14.957-33.411-33.412C239.235,405.225,254.191,390.27,272.646,390.27"/>
	<path fill-rule="evenodd" clip-rule="evenodd" fill="#3EA3DB" d="M272.646,396.17c15.191,0,27.508,12.319,27.508,27.511
		c0,15.19-12.316,27.512-27.508,27.512c-15.195,0-27.511-12.321-27.511-27.512C245.136,408.489,257.451,396.17,272.646,396.17"/>
	<path fill-rule="evenodd" clip-rule="evenodd" fill="#BCC2C6" d="M351.348,492.898h227.918c2.176,0,3.95,1.774,3.95,3.942
		c0,2.176-1.774,3.95-3.95,3.95H351.348c-2.167,0-3.942-1.774-3.942-3.95C347.405,494.673,349.181,492.898,351.348,492.898"/>
	<path fill-rule="evenodd" clip-rule="evenodd" fill="#BCC2C6" d="M351.348,512.743h227.918c2.176,0,3.95,1.774,3.95,3.942
		s-1.774,3.951-3.95,3.951H351.348c-2.167,0-3.942-1.783-3.942-3.951S349.181,512.743,351.348,512.743"/>
	<path fill-rule="evenodd" clip-rule="evenodd" fill="#BCC2C6" d="M351.348,532.58h110.021c2.158,0,3.933,1.773,3.933,3.95l0,0
		c0,2.176-1.774,3.942-3.933,3.942H351.348c-2.167,0-3.942-1.767-3.942-3.942l0,0C347.405,534.354,349.181,532.58,351.348,532.58"/>
	<path fill-rule="evenodd" clip-rule="evenodd" fill="#364A5E" d="M272.646,483.273c18.451,0,33.412,14.957,33.412,33.412
		s-14.961,33.412-33.412,33.412c-18.455,0-33.411-14.957-33.411-33.412S254.191,483.273,272.646,483.273"/>
	<path fill-rule="evenodd" clip-rule="evenodd" fill="#3EA3DB" d="M272.646,489.175c15.191,0,27.508,12.319,27.508,27.511
		c0,15.19-12.316,27.512-27.508,27.512c-15.195,0-27.511-12.321-27.511-27.512C245.136,501.494,257.451,489.175,272.646,489.175"/>
	<!-- <path fill-rule="evenodd" clip-rule="evenodd" fill="#94A4A5" d="M478.76,232.44c-1.196-2.444-3.749-3.147-6.218-3.147
		c-2.921,0.026-6.136,1.356-6.136,4.621c0,3.548,2.988,4.403,6.228,4.787c2.102,0.227,3.667,0.837,3.667,2.328
		c0,1.724-1.767,2.377-3.649,2.377c-1.925,0-3.75-0.771-4.454-2.511l-2.485,1.289c1.18,2.896,3.657,3.892,6.897,3.892
		c3.523,0,6.653-1.515,6.653-5.046c0-3.775-3.081-4.628-6.378-5.039c-1.908-0.226-3.531-0.611-3.531-1.992
		c0-1.172,1.062-2.101,3.28-2.101c1.716,0,3.206,0.862,3.75,1.765L478.76,232.44z M461.385,242.727h-8.888v-3.573h8.57v-2.779h-8.57
		v-3.666h8.888v-2.896h-11.851c0,5.289,0,10.587,0,15.852h11.851V242.727z M439.414,232.6c1.883,0,2.722,1.263,2.722,2.536
		c0,1.281-0.821,2.544-2.722,2.544h-4.544v-5.08H439.414z M445.909,245.464l-4.796-5.408c3.005-0.603,4-2.804,4-4.988
		c0-2.745-1.966-5.231-5.699-5.255c-2.511,0.024-5.013,0-7.523,0v15.852h2.979v-5.289h2.871l4.611,5.289h3.557V245.464z
		 M423.537,229.863v9.064c0,2.72-1.406,4.369-3.866,4.369c-2.47,0-4.102-1.516-4.102-4.369v-9.064h-2.964v9.064
		c0,4.778,3.23,7.08,7.04,7.08c3.976,0,6.854-2.394,6.854-7.08v-9.064H423.537z M399.867,245.665h2.988v-13.141h5.015v-2.711
		c-4.589,0-8.454,0-13.024,0v2.711h5.021V245.665z M388.777,239.907h-5.875l2.937-6.764L388.777,239.907z M391.313,245.665h3.256
		l-7.105-15.852h-3.248l-7.105,15.852h3.239l1.355-2.979h8.27L391.313,245.665z M373.979,242.727h-8.888v-3.573h8.578v-2.779h-8.578
		v-3.666h8.888v-2.896h-11.852c0,5.289,0,10.587,0,15.852h11.852V242.727z M349.28,245.665v-5.85h7.935v-2.762h-7.935v-4.318h8.387
		v-2.871h-11.375v15.801H349.28z"/> -->
</g>
</svg>
