<?xml version="1.0" encoding="utf-8"?>
<!-- Generator: Adobe Illustrator 15.1.0, SVG Export Plug-In . SVG Version: 6.00 Build 0)  -->
<!DOCTYPE svg PUBLIC "-//W3C//DTD SVG 1.0//EN" "http://www.w3.org/TR/2001/REC-SVG-20010904/DTD/svg10.dtd">
<svg version="1.0" id="Layer_1" xmlns="http://www.w3.org/2000/svg" xmlns:xlink="http://www.w3.org/1999/xlink" x="0px" y="0px"
	 width="800px" height="800px" viewBox="205.8389892578125 210.11000061035156 422.74005126953125 379.47698974609375" enable-background="new 0 0 800 800" xml:space="preserve">
<g>
	<!-- <path fill="#BCC2C6" d="M222.118,210.11h390.183c4.478,0,8.554,1.841,11.499,4.788v0.017c2.947,2.946,4.779,7.013,4.779,11.482
		v346.91c0,4.469-1.832,8.536-4.779,11.482v0.017c-2.945,2.947-7.021,4.779-11.499,4.779H222.118c-4.478,0-8.554-1.832-11.5-4.779
		v-0.017c-2.945-2.946-4.779-7.014-4.779-11.482v-346.91c0-4.47,1.834-8.537,4.779-11.482v-0.017
		C213.564,211.951,217.641,210.11,222.118,210.11"/>
	<path fill="#EBEFF0" d="M622.671,226.397v346.91c0,6.536-4.554,10.378-10.37,10.378H222.118c-5.808,0-10.37-3.733-10.37-10.378
		v-346.91c0-6.779,4.579-10.378,10.37-10.378h390.183C618.108,216.02,622.671,219.743,622.671,226.397"/> -->
	<path fill="#BCC2C6" d="M219.968,257.775h394.483c3.892,0,7.424,1.582,9.978,4.144c2.561,2.561,4.15,6.093,4.15,9.985v303.562
		c0,3.884-1.59,7.416-4.15,9.977c-2.554,2.562-6.086,4.144-9.978,4.144H219.968c-3.893,0-7.424-1.582-9.978-4.144
		c-2.562-2.561-4.151-6.093-4.151-9.977V271.904c0-3.893,1.59-7.424,4.151-9.985C212.544,259.357,216.075,257.775,219.968,257.775"
		/>
	<path fill="#FFFFFF" d="M219.968,263.676c-2.186,0-4.26,0.878-5.801,2.427c-1.548,1.541-2.419,3.616-2.419,5.801v303.562
		c0,2.177,0.871,4.253,2.419,5.802c1.541,1.548,3.615,2.418,5.801,2.418h394.483c2.185,0,4.26-0.87,5.808-2.418
		c1.541-1.549,2.412-3.625,2.412-5.802V271.904c0-2.185-0.871-4.26-2.412-5.801c-1.548-1.557-3.623-2.427-5.808-2.427H219.968z"/>
	<!-- <path fill-rule="evenodd" clip-rule="evenodd" fill="#94A4A5" d="M563.68,230.164c4.152,0,7.525,3.365,7.525,7.516
		s-3.373,7.524-7.525,7.524c-4.15,0-7.516-3.373-7.516-7.524S559.529,230.164,563.68,230.164 M587.3,230.164
		c4.151,0,7.516,3.365,7.516,7.516s-3.364,7.524-7.516,7.524s-7.524-3.373-7.524-7.524S583.148,230.164,587.3,230.164z
		 M540.068,230.164c4.152,0,7.517,3.365,7.517,7.516s-3.364,7.524-7.517,7.524c-4.151,0-7.515-3.373-7.515-7.524
		S535.917,230.164,540.068,230.164z"/> -->
	<path fill="#364A5E" d="M287.47,316.707h89.096c7.148,0,13.643,2.921,18.348,7.625l-0.01,0.008
		c4.705,4.712,7.634,11.208,7.634,18.338v162.013c0,7.14-2.921,13.643-7.624,18.347c-4.705,4.704-11.199,7.616-18.348,7.616H287.47
		c-7.131,0-13.627-2.921-18.33-7.634l-0.017,0.018c-4.695-4.704-7.624-11.207-7.624-18.347V342.679
		c0-7.123,2.929-13.618,7.624-18.329l0.017-0.009v-0.008C273.86,319.628,280.347,316.707,287.47,316.707"/>
	<path fill-rule="evenodd" clip-rule="evenodd" fill="#FFFFFF" d="M389.489,327.236h0.133l1.205,1.205
		c3.783,3.783,5.9,8.881,5.9,14.237v162.013c0,5.356-2.142,10.445-5.917,14.238c-3.791,3.783-8.888,5.917-14.245,5.917H287.47
		c-5.357,0-10.453-2.118-14.236-5.901l-1.206-1.206v-0.125c-3.029-3.615-4.721-8.169-4.721-12.923V342.679
		c0-5.356,2.117-10.454,5.909-14.237l0.018-0.025c3.783-3.783,8.879-5.9,14.236-5.9h89.096
		C381.328,322.516,385.882,324.207,389.489,327.236"/>
	<path fill="#364A5E" d="M286.774,351.836h90.494c2.629,0,5.015,1.071,6.738,2.795c1.724,1.733,2.804,4.117,2.804,6.746v118.256
		c0,2.628-1.08,5.021-2.804,6.745c-1.724,1.725-4.109,2.797-6.738,2.797h-90.494c-2.628,0-5.021-1.072-6.745-2.797
		c-1.725-1.724-2.804-4.117-2.804-6.745V361.376c0-2.628,1.079-5.013,2.804-6.746C281.753,352.907,284.146,351.836,286.774,351.836"
		/>
	<path fill="#3EA3DB" d="M286.774,357.61h90.494c1.006,0,1.942,0.394,2.653,1.113c0.712,0.703,1.105,1.649,1.105,2.653v118.256
		c0,1.004-0.394,1.949-1.105,2.662c-0.711,0.703-1.647,1.104-2.653,1.104h-90.494c-1.013,0-1.949-0.401-2.662-1.104
		c-0.711-0.713-1.104-1.658-1.104-2.662V361.376c0-1.004,0.393-1.95,1.104-2.653C284.825,358.004,285.762,357.61,286.774,357.61"/>
	<path fill-rule="evenodd" clip-rule="evenodd" fill="#364A5E" d="M332.022,493.962c5.675,0,10.286,4.604,10.286,10.286
		c0,5.684-4.611,10.286-10.286,10.286c-5.684,0-10.287-4.603-10.287-10.286C321.735,498.565,326.339,493.962,332.022,493.962"/>
	<path fill="#364A5E" d="M312.588,340.779h38.86c1.599,0,2.904-1.306,2.904-2.897v-0.008c0-1.599-1.306-2.904-2.904-2.904h-38.86
		c-1.599,0-2.905,1.306-2.905,2.904v0.008C309.683,339.474,310.989,340.779,312.588,340.779"/>
	<path opacity="0.15" fill="#010101" d="M366.514,405.861c-1.205-1.196-2.862-1.942-4.704-1.942s-3.498,0.746-4.703,1.942
		c-1.197,1.205-1.935,2.863-1.935,4.704c0,1.832,0.746,3.498,1.942,4.695c1.197,1.196,2.863,1.95,4.695,1.95
		c1.842,0,3.499-0.745,4.704-1.942c1.196-1.205,1.942-2.861,1.942-4.703C368.456,408.725,367.71,407.066,366.514,405.861
		 M361.81,398.455c3.34,0,6.361,1.356,8.555,3.54l0.017,0.017c2.185,2.192,3.54,5.215,3.54,8.554c0,3.331-1.355,6.361-3.54,8.554
		l-0.017,0.009c-2.193,2.201-5.215,3.549-8.555,3.549c-3.348,0-6.377-1.356-8.562-3.549c-2.193-2.185-3.55-5.215-3.55-8.563
		c0-3.339,1.356-6.361,3.55-8.554l0.008-0.017C355.449,399.812,358.47,398.455,361.81,398.455z M356.01,428.143L356.01,428.143
		l0.083,0.116l1.541,2.042l-0.025,0.017l9.189,12.497c0.662,0.896,0.938,1.791,0.938,2.645h-0.009c0,0.669-0.166,1.28-0.459,1.816
		c-0.276,0.502-0.653,0.92-1.114,1.255c-0.753,0.562-1.732,0.871-2.712,0.871v-0.017l-23.108,0.017l-44.242-0.017
		c-1.072,0-1.992-0.302-2.703-0.82c-0.494-0.369-0.888-0.829-1.156-1.373h-0.017c-0.251-0.519-0.393-1.097-0.385-1.724h-0.017
		c0-0.913,0.318-1.884,1.005-2.813l9.685-13.174l-0.01-0.008l0.879-1.181l0.108-0.142l0,0l0.017-0.024l11.979-15.911
		c0.418-0.562,0.887-1.03,1.373-1.398c0.937-0.702,1.957-1.038,3.013-1.038c1.062,0,2.075,0.353,2.987,1.047
		c0.494,0.359,0.954,0.828,1.373,1.39l11.424,15.19l5.533-7.349c0.418-0.553,0.879-1.021,1.373-1.389
		c0.912-0.696,1.933-1.047,2.996-1.047c1.054-0.009,2.076,0.343,3.005,1.047c0.485,0.367,0.954,0.828,1.372,1.389l6.068,8.069
		L356.01,428.143z M360.847,443.943l-9.24-12.571l-0.384-0.526l-5.658-7.517l-0.009-0.017l-0.018,0.017l-6.385,8.496l-1.323,1.757
		l-2.185,2.896l-2.176-2.896l-1.322-1.757l-12.286-16.338l-0.017-0.018l-0.01,0.018l-11.608,15.425l-0.344,0.469l-9.239,12.563
		h41.689H360.847z"/>
	<path fill="#364A5E" d="M360.111,393.04c3.33,0,6.36,1.356,8.554,3.549l0.008,0.009c2.193,2.201,3.549,5.221,3.549,8.561
		c0,3.331-1.355,6.361-3.549,8.555l-0.008,0.008c-2.193,2.193-5.224,3.55-8.554,3.55c-3.349,0-6.378-1.356-8.571-3.55
		c-2.192-2.192-3.549-5.223-3.549-8.563s1.356-6.36,3.549-8.561l0.009-0.009C353.741,394.396,356.771,393.04,360.111,393.04
		 M354.31,422.734L354.31,422.734l0.076,0.117l1.54,2.043l-0.024,0.017l9.198,12.488c0.653,0.896,0.937,1.799,0.937,2.652h-0.017
		c0,0.662-0.158,1.281-0.451,1.808c-0.276,0.502-0.662,0.93-1.122,1.265c-0.753,0.553-1.725,0.87-2.703,0.87v-0.017l-23.109,0.009
		l-44.25-0.009c-1.063,0-1.992-0.301-2.705-0.829c-0.492-0.359-0.878-0.828-1.154-1.363h-0.008c-0.26-0.52-0.394-1.104-0.394-1.725
		h-0.009c0-0.921,0.318-1.892,0.996-2.82l9.684-13.166l-0.008-0.017l0.887-1.172l0.109-0.151v0.009l0.017-0.025l11.968-15.911
		c0.428-0.56,0.889-1.029,1.373-1.397c0.938-0.703,1.959-1.046,3.022-1.037c1.063,0,2.067,0.351,2.988,1.037
		c0.485,0.368,0.945,0.838,1.363,1.397l11.434,15.192l5.524-7.35c0.418-0.56,0.887-1.021,1.373-1.389
		c0.92-0.695,1.933-1.046,2.996-1.055c1.062,0,2.074,0.352,3.013,1.046c0.485,0.368,0.945,0.828,1.372,1.397l6.061,8.068
		L354.31,422.734z"/>
	<path fill-rule="evenodd" clip-rule="evenodd" fill="#54CAF2" d="M360.111,397.459c-2.052,0-3.984,0.804-5.482,2.293l0.024-0.017
		c-1.447,1.439-2.242,3.364-2.242,5.423c0,2.042,0.804,3.984,2.251,5.441c1.456,1.447,3.39,2.251,5.449,2.251
		c2.042,0,3.983-0.804,5.474-2.294l-0.025,0.025c1.448-1.456,2.251-3.382,2.251-5.424c0-2.059-0.803-3.983-2.226-5.406l-0.043-0.042
		C364.095,398.263,362.153,397.459,360.111,397.459 M294.886,439.558l43.74,0.017l22.581-0.017l-10.37-14.086l-6.144-8.177
		c-0.142-0.185-0.31-0.368-0.493-0.511c-0.093-0.067-0.226-0.159-0.343-0.159c-0.135,0-0.26,0.084-0.36,0.159
		c-0.185,0.143-0.352,0.326-0.494,0.52l-9.056,12.044l-14.957-19.887c-0.142-0.185-0.31-0.377-0.494-0.52
		c-0.101-0.067-0.226-0.159-0.36-0.159c-0.116,0-0.25,0.092-0.343,0.159c-0.192,0.134-0.351,0.335-0.493,0.52l-12.044,16.003
		L294.886,439.558z"/>
	<path fill-rule="evenodd" clip-rule="evenodd" fill="#BCC2C6" d="M448.763,380.05h138.989c2.168,0,3.942,1.774,3.942,3.95l0,0
		c0,2.177-1.774,3.951-3.942,3.951H448.763c-2.168,0-3.941-1.774-3.941-3.951l0,0C444.821,381.824,446.595,380.05,448.763,380.05"/>
	<path fill-rule="evenodd" clip-rule="evenodd" fill="#BCC2C6" d="M448.763,399.894h138.989c2.168,0,3.942,1.775,3.942,3.943l0,0
		c0,2.175-1.774,3.949-3.942,3.949H448.763c-2.168,0-3.941-1.774-3.941-3.949l0,0C444.821,401.669,446.595,399.894,448.763,399.894"
		/>
	<path fill-rule="evenodd" clip-rule="evenodd" fill="#BCC2C6" d="M448.763,419.738h138.989c2.168,0,3.942,1.774,3.942,3.942l0,0
		c0,2.168-1.774,3.941-3.942,3.941H448.763c-2.168,0-3.941-1.773-3.941-3.941l0,0C444.821,421.513,446.595,419.738,448.763,419.738"
		/>
	<path fill-rule="evenodd" clip-rule="evenodd" fill="#BCC2C6" d="M448.763,439.574h138.989c2.168,0,3.942,1.774,3.942,3.951l0,0
		c0,2.168-1.774,3.942-3.942,3.942H448.763c-2.168,0-3.941-1.774-3.941-3.942l0,0C444.821,441.349,446.595,439.574,448.763,439.574"
		/>
	<path fill-rule="evenodd" clip-rule="evenodd" fill="#BCC2C6" d="M448.763,459.42h65.545c2.175,0,3.949,1.767,3.949,3.941l0,0
		c0,2.177-1.774,3.951-3.949,3.951h-65.545c-2.168,0-3.941-1.774-3.941-3.951l0,0C444.821,461.187,446.595,459.42,448.763,459.42"/>
	<!-- <path fill-rule="evenodd" clip-rule="evenodd" fill="#94A4A5" d="M484.745,232.44c-1.196-2.444-3.75-3.147-6.219-3.147
		c-2.921,0.026-6.126,1.356-6.126,4.621c0,3.548,2.979,4.403,6.218,4.787c2.101,0.227,3.666,0.837,3.666,2.328
		c0,1.724-1.766,2.377-3.642,2.377c-1.924,0-3.757-0.771-4.46-2.511l-2.486,1.289c1.172,2.896,3.666,3.892,6.897,3.892
		c3.531,0,6.653-1.515,6.653-5.046c0-3.775-3.08-4.628-6.377-5.039c-1.9-0.226-3.533-0.611-3.533-1.992
		c0-1.172,1.063-2.101,3.281-2.101c1.716,0,3.205,0.862,3.75,1.765L484.745,232.44z M467.369,242.727h-8.889v-3.573h8.571v-2.779
		h-8.571v-3.666h8.889v-2.896h-11.852c0,5.289,0,10.587,0,15.852h11.852V242.727z M445.399,232.6c1.874,0,2.72,1.263,2.72,2.536
		c0,1.281-0.821,2.544-2.72,2.544h-4.545v-5.08H445.399z M451.894,245.464l-4.795-5.408c3.004-0.603,4-2.804,4-4.988
		c0-2.745-1.967-5.231-5.699-5.255c-2.512,0.024-5.022,0-7.533,0v15.852h2.988v-5.289h2.869l4.621,5.289h3.549V245.464z
		 M429.521,229.863v9.064c0,2.72-1.406,4.369-3.867,4.369c-2.47,0-4.101-1.516-4.101-4.369v-9.064h-2.964v9.064
		c0,4.778,3.24,7.08,7.039,7.08c3.977,0,6.848-2.394,6.848-7.08v-9.064H429.521z M405.852,245.665h2.987v-13.141h5.022v-2.711
		c-4.595,0-8.461,0-13.031,0v2.711h5.021V245.665z M394.762,239.907h-5.876l2.938-6.764L394.762,239.907z M397.297,245.665h3.257
		l-7.098-15.852h-3.265l-7.097,15.852h3.23l1.364-2.979h8.27L397.297,245.665z M379.964,242.727h-8.889v-3.573h8.57v-2.779h-8.57
		v-3.666h8.889v-2.896h-11.852c0,5.289,0,10.587,0,15.852h11.852V242.727z M355.265,245.665v-5.85h7.935v-2.762h-7.935v-4.318h8.387
		v-2.871h-11.375v15.801H355.265z"/> -->
</g>
</svg>
