<?xml version="1.0" encoding="utf-8"?>
<!-- Generator: Adobe Illustrator 15.1.0, SVG Export Plug-In . SVG Version: 6.00 Build 0)  -->
<!DOCTYPE svg PUBLIC "-//W3C//DTD SVG 1.0//EN" "http://www.w3.org/TR/2001/REC-SVG-20010904/DTD/svg10.dtd">
<svg version="1.0" id="Layer_1" xmlns="http://www.w3.org/2000/svg" xmlns:xlink="http://www.w3.org/1999/xlink" x="0px" y="0px"
	 width="800px" height="800px" viewBox="200.9449920654297 210.11000061035156 422.740966796875 379.47698974609375" enable-background="new 0 0 800 800" xml:space="preserve">
<g>
	<!-- <path fill="#BCC2C6" d="M217.224,210.11h390.183c4.478,0,8.554,1.841,11.5,4.788v0.017c2.945,2.946,4.779,7.013,4.779,11.482
		v346.91c0,4.469-1.834,8.536-4.779,11.482v0.017c-2.946,2.947-7.022,4.779-11.5,4.779H217.224c-4.486,0-8.553-1.832-11.499-4.779
		v-0.017c-2.946-2.946-4.779-7.014-4.779-11.482v-346.91c0-4.47,1.833-8.537,4.779-11.482v-0.017
		C208.671,211.951,212.737,210.11,217.224,210.11"/>
	<path fill="#EBEFF0" d="M617.775,226.397v346.91c0,6.536-4.552,10.378-10.369,10.378H217.224c-5.809,0-10.369-3.733-10.369-10.378
		v-346.91c0-6.779,4.578-10.378,10.369-10.378h390.183C613.214,216.02,617.775,219.743,617.775,226.397"/> -->
	<path fill="#BCC2C6" d="M215.073,257.775h394.484c3.892,0,7.423,1.582,9.977,4.144c2.561,2.561,4.151,6.093,4.151,9.985v303.562
		c0,3.884-1.591,7.416-4.151,9.977c-2.554,2.562-6.085,4.144-9.977,4.144H215.073c-3.884,0-7.424-1.582-9.977-4.144
		c-2.562-2.561-4.151-6.093-4.151-9.977V271.904c0-3.893,1.59-7.424,4.151-9.985C207.649,259.357,211.189,257.775,215.073,257.775"
		/>
	<path fill="#FFFFFF" d="M215.073,263.676c-2.185,0-4.26,0.878-5.809,2.427c-1.54,1.541-2.418,3.616-2.418,5.801v303.562
		c0,2.177,0.878,4.253,2.418,5.802c1.549,1.548,3.624,2.418,5.809,2.418h394.484c2.185,0,4.26-0.87,5.8-2.418
		c1.548-1.549,2.418-3.625,2.418-5.802V271.904c0-2.185-0.87-4.26-2.418-5.801c-1.54-1.557-3.624-2.427-5.8-2.427H215.073z"/>
	<!-- <path fill-rule="evenodd" clip-rule="evenodd" fill="#94A4A5" d="M558.786,230.164c4.15,0,7.523,3.365,7.523,7.516
		s-3.363,7.524-7.523,7.524c-4.151,0-7.516-3.373-7.516-7.524S554.635,230.164,558.786,230.164 M582.405,230.164
		c4.151,0,7.516,3.365,7.516,7.516s-3.364,7.524-7.516,7.524c-4.15,0-7.523-3.373-7.523-7.524S578.255,230.164,582.405,230.164z
		 M535.175,230.164c4.152,0,7.516,3.365,7.516,7.516s-3.363,7.524-7.516,7.524c-4.151,0-7.524-3.373-7.524-7.524
		S531.023,230.164,535.175,230.164z"/> -->
	<path fill-rule="evenodd" clip-rule="evenodd" fill="#364A5E" d="M338.503,523.558h65.375c1.625,0,2.955,1.321,2.955,2.946v0.008
		c0,1.615-1.33,2.954-2.955,2.954h-65.375c-1.625,0-2.955-1.339-2.955-2.954v-0.008
		C335.548,524.879,336.878,523.558,338.503,523.558"/>
	<rect x="359.268" y="501.168" fill-rule="evenodd" clip-rule="evenodd" fill="#364A5E" width="23.854" height="28.298"/>
	<rect x="365.169" y="507.068" fill-rule="evenodd" clip-rule="evenodd" fill="#FFFFFF" width="12.043" height="16.489"/>
	<path fill-rule="evenodd" clip-rule="evenodd" fill="#364A5E" d="M293.548,394.429h155.293c2.67,0,4.854,2.192,4.854,4.862v102.923
		c0,2.678-2.184,4.854-4.854,4.854H293.548c-2.678,0-4.862-2.176-4.862-4.854V399.292
		C288.686,396.614,290.87,394.429,293.548,394.429"/>
	<rect x="294.587" y="400.338" fill="#3EA3DB" width="153.207" height="100.83"/>
	<path opacity="0.15" fill="#010101" d="M407.428,427.899c-1.256-1.255-3.005-2.034-4.938-2.034c-1.925,0-3.675,0.779-4.939,2.034
		c-1.254,1.264-2.033,3.013-2.033,4.938c0,1.933,0.779,3.674,2.043,4.938c1.263,1.264,3.005,2.042,4.93,2.042
		c1.934,0,3.683-0.778,4.938-2.034c1.263-1.271,2.041-3.013,2.041-4.945C409.469,430.912,408.69,429.163,407.428,427.899
		 M402.489,420.115c3.506,0,6.687,1.423,8.988,3.724l0.018,0.019c2.302,2.301,3.725,5.474,3.725,8.98s-1.423,6.687-3.725,8.988
		l-0.018,0.009c-2.302,2.31-5.482,3.733-8.988,3.733c-3.507,0-6.696-1.424-8.997-3.733c-2.302-2.294-3.726-5.482-3.726-8.997
		c0-3.507,1.424-6.68,3.726-8.98l0.008-0.019C395.81,421.538,398.99,420.115,402.489,420.115z M396.396,451.31L396.396,451.31
		l0.093,0.116l1.615,2.144l-0.025,0.017l9.659,13.132c0.687,0.938,0.979,1.884,0.979,2.787h-0.009c0,0.703-0.176,1.339-0.478,1.9
		c-0.293,0.526-0.694,0.979-1.18,1.331c-0.795,0.585-1.816,0.904-2.847,0.904v-0.018l-24.279,0.018l-46.486-0.01
		c-1.113-0.008-2.092-0.326-2.838-0.878c-0.51-0.368-0.929-0.862-1.213-1.432h-0.009c-0.268-0.544-0.418-1.154-0.409-1.816h-0.018
		c0-0.954,0.335-1.976,1.055-2.954l10.17-13.836l-0.01-0.017l0.931-1.229l0.116-0.159v0.008l0.017-0.025l12.581-16.723
		c0.442-0.586,0.929-1.071,1.438-1.455c0.988-0.746,2.06-1.106,3.173-1.106c1.112,0.01,2.176,0.386,3.138,1.106
		c0.519,0.384,0.996,0.869,1.44,1.455l12.002,15.971l5.809-7.726c0.443-0.586,0.929-1.08,1.439-1.466
		c0.972-0.719,2.033-1.088,3.156-1.096c1.104-0.009,2.176,0.36,3.154,1.096c0.52,0.386,1.004,0.871,1.44,1.466l6.377,8.47
		L396.396,451.31z M401.484,467.898l-9.718-13.191l-0.4-0.561l-5.943-7.892l-0.008-0.026l-0.018,0.026l-6.712,8.921l-1.39,1.842
		l-2.293,3.046l-2.285-3.046l-1.39-1.842l-12.905-17.166l-0.018-0.017l-0.017,0.017l-12.187,16.203l-0.368,0.494l-9.7,13.191
		l43.791,0.017L401.484,467.898z"/>
	<path fill="#364A5E" d="M400.698,414.433c3.506,0,6.687,1.422,8.988,3.724l0.018,0.01c2.302,2.31,3.725,5.49,3.725,8.988
		c0,3.507-1.423,6.688-3.725,8.989l-0.018,0.017c-2.302,2.293-5.482,3.717-8.988,3.717c-3.507,0-6.696-1.424-8.998-3.717
		c-2.301-2.311-3.725-5.49-3.725-9.006c0-3.498,1.424-6.679,3.725-8.988l0.017-0.01
		C394.019,415.854,397.199,414.433,400.698,414.433 M394.604,445.626L394.604,445.626l0.093,0.117l1.614,2.151l-0.024,0.017
		l9.659,13.124c0.687,0.937,0.979,1.892,0.979,2.778h-0.009c0,0.703-0.176,1.348-0.478,1.908c-0.293,0.527-0.694,0.972-1.172,1.322
		c-0.804,0.586-1.824,0.912-2.854,0.912v-0.008l-24.271,0.008l-46.494-0.008c-1.112,0-2.084-0.318-2.838-0.87
		c-0.51-0.385-0.92-0.87-1.213-1.44h-0.009c-0.268-0.543-0.41-1.154-0.41-1.815h-0.017c0-0.955,0.335-1.976,1.055-2.955
		l10.17-13.827v-0.017l0.921-1.238l0.116-0.15l0,0l0.017-0.033l12.581-16.707c0.442-0.594,0.929-1.088,1.438-1.473
		c0.988-0.736,2.06-1.104,3.173-1.087c1.112,0,2.176,0.367,3.138,1.095c0.519,0.386,1.004,0.871,1.44,1.465l12.01,15.953l5.81-7.717
		c0.435-0.586,0.92-1.08,1.431-1.465c0.971-0.728,2.033-1.097,3.154-1.097c1.114,0,2.178,0.36,3.156,1.097
		c0.52,0.385,1.004,0.871,1.448,1.465l6.369,8.471L394.604,445.626z"/>
	<path fill-rule="evenodd" clip-rule="evenodd" fill="#54CAF2" d="M400.698,419.068c-2.15,0-4.186,0.846-5.75,2.411l0.025-0.017
		c-1.523,1.523-2.36,3.54-2.36,5.691c0,2.159,0.845,4.202,2.368,5.725c1.523,1.524,3.566,2.36,5.717,2.36
		c2.159,0,4.192-0.846,5.758-2.41l-0.024,0.025c1.522-1.523,2.36-3.541,2.36-5.7c0-2.151-0.838-4.168-2.336-5.675l-0.051-0.042
		C404.891,419.914,402.857,419.068,400.698,419.068 M332.183,463.312h45.951l23.72-0.008l-10.89-14.807l-6.453-8.579
		c-0.15-0.2-0.327-0.394-0.52-0.543c-0.101-0.067-0.233-0.168-0.367-0.168c-0.135,0-0.269,0.092-0.368,0.168
		c-0.201,0.149-0.377,0.351-0.527,0.543l-9.517,12.655l-15.711-20.892c-0.15-0.2-0.317-0.393-0.519-0.543
		c-0.101-0.076-0.233-0.168-0.368-0.168c-0.134,0-0.268,0.092-0.368,0.168c-0.2,0.142-0.377,0.343-0.519,0.535l-12.656,16.823
		L332.183,463.312z"/>
	<path fill-rule="evenodd" clip-rule="evenodd" fill="#364A5E" d="M293.548,486.848h155.293c2.67,0,4.854,2.185,4.854,4.854v10.513
		c0,2.669-2.184,4.854-4.854,4.854H293.548c-2.67,0-4.862-2.176-4.862-4.854v-10.513
		C288.686,489.032,290.87,486.848,293.548,486.848"/>
	<rect x="294.587" y="492.749" fill-rule="evenodd" clip-rule="evenodd" fill="#FFFFFF" width="153.207" height="8.419"/>
	<path fill-rule="evenodd" clip-rule="evenodd" fill="#364A5E" d="M410.181,439.734h111.478c2.251,0,4.092,1.832,4.092,4.092v71.863
		c0,2.252-1.841,4.085-4.092,4.085H410.181c-2.251,0-4.092-1.833-4.092-4.085v-71.863
		C406.089,441.566,407.93,439.734,410.181,439.734"/>
	<rect x="411.989" y="445.635" fill="#3EA3DB" width="107.86" height="68.247"/>
	<path fill-rule="evenodd" clip-rule="evenodd" fill="#364A5E" d="M395.894,511.505h140.051v8.973c0,4.938-4.042,8.988-8.98,8.988
		h-122.09c-4.938,0-8.98-4.05-8.98-8.988V511.505z"/>
	<path fill-rule="evenodd" clip-rule="evenodd" fill="#FFFFFF" d="M401.803,517.405v3.072c0,1.682,1.389,3.08,3.071,3.08h122.09
		c1.683,0,3.072-1.398,3.072-3.08v-3.072H401.803z"/>
	<path opacity="0.15" fill="#010101" d="M490.849,468.802c-0.87-0.862-2.067-1.397-3.398-1.397c-1.33,0-2.527,0.535-3.398,1.397
		c-0.861,0.871-1.397,2.076-1.397,3.398c0,1.33,0.536,2.528,1.397,3.398c0.871,0.87,2.076,1.405,3.398,1.405
		c1.331,0,2.528-0.535,3.398-1.405c0.861-0.87,1.398-2.068,1.398-3.398C492.247,470.878,491.71,469.673,490.849,468.802
		 M487.45,463.445c2.411,0,4.596,0.987,6.178,2.569l0.008,0.009c1.59,1.582,2.57,3.767,2.57,6.177s-0.98,4.604-2.57,6.186
		l-0.008,0.008c-1.582,1.582-3.767,2.562-6.178,2.562c-2.419,0-4.611-0.979-6.193-2.562s-2.561-3.774-2.561-6.193
		c0-2.41,0.979-4.595,2.561-6.177l0.008-0.009C482.855,464.433,485.04,463.445,487.45,463.445z M483.257,484.906L483.257,484.906
		l0.06,0.082l1.112,1.474l-0.017,0.017l6.646,9.023c0.468,0.653,0.669,1.305,0.669,1.916l0,0c0,0.485-0.126,0.93-0.335,1.314
		c-0.201,0.359-0.478,0.669-0.804,0.904c-0.553,0.41-1.256,0.636-1.957,0.636v-0.017l-16.707,0.008l-31.973-0.008
		c-0.77,0-1.439-0.218-1.95-0.595c-0.352-0.26-0.636-0.594-0.837-0.995l0,0c-0.193-0.369-0.285-0.787-0.285-1.24h-0.008
		c0-0.66,0.227-1.363,0.72-2.041l6.997-9.509l-0.008-0.017l0.645-0.845l0.075-0.101l0.016-0.017l8.646-11.5
		c0.31-0.41,0.636-0.745,0.996-1.013c0.67-0.502,1.414-0.754,2.177-0.754c0.77,0.008,1.498,0.26,2.159,0.762
		c0.359,0.26,0.687,0.603,0.996,1.005l8.253,10.972l3.992-5.306c0.31-0.401,0.636-0.736,0.986-1.004
		c0.67-0.503,1.407-0.754,2.178-0.754c0.761,0,1.498,0.243,2.167,0.754c0.352,0.26,0.687,0.594,0.996,1.004l4.377,5.826
		L483.257,484.906z M486.755,496.321l-6.678-9.081l-0.285-0.385l-4.084-5.432l-0.008-0.008l-0.01,0.008l-4.619,6.143l-0.955,1.265
		l-1.572,2.101l-1.574-2.101l-0.954-1.265l-8.88-11.809l-0.009-0.009l-0.009,0.009l-8.386,11.148l-0.252,0.343l-6.679,9.072h30.123
		H486.755z"/>
	<path fill="#364A5E" d="M486.22,459.545c2.412,0,4.596,0.972,6.177,2.562h0.009c1.582,1.591,2.569,3.775,2.569,6.193
		c0,2.41-0.987,4.587-2.569,6.177l-0.009,0.009c-1.581,1.582-3.765,2.562-6.177,2.562c-2.418,0-4.603-0.979-6.193-2.57
		c-1.582-1.573-2.562-3.767-2.562-6.177c0-2.418,0.979-4.603,2.562-6.193h0.009C481.617,460.517,483.81,459.545,486.22,459.545
		 M482.027,480.996L482.027,480.996l0.058,0.076l1.114,1.481l-0.017,0.008l6.645,9.04c0.469,0.636,0.67,1.289,0.67,1.908h-0.008
		c0,0.485-0.117,0.92-0.326,1.306c-0.201,0.368-0.478,0.67-0.804,0.92c-0.553,0.403-1.256,0.62-1.959,0.62v-0.008l-16.706,0.008
		h-31.973c-0.771-0.008-1.439-0.227-1.949-0.603c-0.36-0.268-0.637-0.603-0.838-0.987h-0.009c-0.184-0.377-0.284-0.795-0.275-1.256
		h-0.018c0-0.652,0.235-1.355,0.729-2.025l6.997-9.517l-0.009-0.009l0.636-0.853l0.084-0.101l0,0l0.017-0.018l8.646-11.5
		c0.301-0.401,0.635-0.745,0.995-1.004c0.679-0.511,1.406-0.762,2.177-0.754c0.77,0,1.498,0.252,2.158,0.754
		c0.353,0.269,0.687,0.603,0.988,1.004l8.261,10.981l3.992-5.314c0.302-0.402,0.637-0.746,0.996-1.013
		c0.662-0.494,1.397-0.754,2.168-0.754c0.763,0,1.498,0.252,2.168,0.754c0.36,0.267,0.687,0.603,0.996,1.013l4.378,5.824
		L482.027,480.996z"/>
	<path fill-rule="evenodd" clip-rule="evenodd" fill="#54CAF2" d="M486.22,463.546c-1.272,0-2.461,0.502-3.355,1.406
		c-0.896,0.887-1.391,2.075-1.391,3.348c0,1.256,0.494,2.453,1.391,3.349c0.895,0.896,2.083,1.39,3.355,1.39
		c1.265,0,2.453-0.504,3.357-1.399c0.887-0.896,1.381-2.083,1.381-3.339c0-1.272-0.494-2.461-1.39-3.356
		S487.484,463.546,486.22,463.546 M474.469,477.624l-7.156,9.508l-11.415-15.174l-8.714,11.575l-6.47,8.805l44.678,0.008
		l-6.486-8.829L474.469,477.624z"/>
	<path fill-rule="evenodd" clip-rule="evenodd" fill="#BCC2C6" d="M298.353,312.974h227.926c2.167,0,3.941,1.774,3.941,3.951
		c0,2.176-1.774,3.951-3.941,3.951H298.353c-2.167,0-3.95-1.774-3.95-3.951C294.402,314.749,296.186,312.974,298.353,312.974"/>
	<path fill-rule="evenodd" clip-rule="evenodd" fill="#BCC2C6" d="M298.353,332.819h227.926c2.167,0,3.941,1.774,3.941,3.942
		c0,2.177-1.774,3.951-3.941,3.951H298.353c-2.167,0-3.95-1.774-3.95-3.951C294.402,334.593,296.186,332.819,298.353,332.819"/>
	<path fill-rule="evenodd" clip-rule="evenodd" fill="#BCC2C6" d="M357.31,352.664h110.012c2.168,0,3.95,1.774,3.95,3.942
		c0,2.167-1.782,3.95-3.95,3.95H357.31c-2.178,0-3.951-1.782-3.951-3.95C353.358,354.438,355.132,352.664,357.31,352.664"/>
	<!-- <path fill-rule="evenodd" clip-rule="evenodd" fill="#94A4A5" d="M479.851,232.44c-1.196-2.444-3.758-3.147-6.218-3.147
		c-2.921,0.026-6.128,1.356-6.128,4.621c0,3.548,2.98,4.403,6.22,4.787c2.101,0.227,3.657,0.837,3.657,2.328
		c0,1.724-1.758,2.377-3.641,2.377c-1.918,0-3.75-0.771-4.453-2.511l-2.486,1.289c1.173,2.896,3.667,3.892,6.896,3.892
		c3.533,0,6.654-1.515,6.654-5.046c0-3.775-3.08-4.628-6.386-5.039c-1.899-0.226-3.523-0.611-3.523-1.992
		c0-1.172,1.063-2.101,3.281-2.101c1.716,0,3.214,0.862,3.749,1.765L479.851,232.44z M462.476,242.727h-8.89v-3.573h8.571v-2.779
		h-8.571v-3.666h8.89v-2.896h-11.852c0,5.289,0,10.587,0,15.852h11.852V242.727z M440.505,232.6c1.883,0,2.711,1.263,2.711,2.536
		c0,1.281-0.812,2.544-2.711,2.544h-4.546v-5.08H440.505z M446.999,245.464l-4.796-5.408c3.005-0.603,4.001-2.804,4.001-4.988
		c0-2.745-1.967-5.231-5.699-5.255c-2.511,0.024-5.021,0-7.533,0v15.852h2.987v-5.289h2.871l4.612,5.289h3.557V245.464z
		 M424.618,229.863v9.064c0,2.72-1.396,4.369-3.867,4.369c-2.46,0-4.092-1.516-4.092-4.369v-9.064h-2.963v9.064
		c0,4.778,3.239,7.08,7.039,7.08c3.975,0,6.854-2.394,6.854-7.08v-9.064H424.618z M400.958,245.665h2.987v-13.141h5.021v-2.711
		c-4.595,0-8.462,0-13.03,0v2.711h5.021V245.665z M389.868,239.907h-5.877l2.938-6.764L389.868,239.907z M392.403,245.665h3.257
		l-7.099-15.852h-3.264l-7.098,15.852h3.23l1.355-2.979h8.287L392.403,245.665z M375.07,242.727h-8.89v-3.573h8.571v-2.779h-8.571
		v-3.666h8.89v-2.896h-11.852c0,5.289,0,10.587,0,15.852h11.852V242.727z M350.362,245.665v-5.85h7.943v-2.762h-7.943v-4.318h8.395
		v-2.871h-11.374v15.801H350.362z"/> -->
</g>
</svg>
