<?xml version="1.0" encoding="utf-8"?>
<!-- Generator: Adobe Illustrator 15.1.0, SVG Export Plug-In . SVG Version: 6.00 Build 0)  -->
<!DOCTYPE svg PUBLIC "-//W3C//DTD SVG 1.0//EN" "http://www.w3.org/TR/2001/REC-SVG-20010904/DTD/svg10.dtd">
<svg version="1.0" id="Layer_1" xmlns="http://www.w3.org/2000/svg" xmlns:xlink="http://www.w3.org/1999/xlink" x="0px" y="0px"
	 width="800px" height="800px" viewBox="189.19400024414062 211.20799255371094 420.6500549316406 377.59796142578125" enable-background="new 0 0 800 800" xml:space="preserve">
<g>
	<!-- <path fill="#BCC2C6" d="M205.389,211.208h388.261c4.455,0,8.507,1.824,11.439,4.756v0.017c2.932,2.932,4.755,6.975,4.755,11.427
		v345.207c0,4.439-1.823,8.487-4.755,11.419v0.016c-2.933,2.933-6.984,4.756-11.439,4.756H205.389
		c-4.459,0-8.512-1.823-11.438-4.756v-0.016c-2.933-2.932-4.756-6.979-4.756-11.419V227.407c0-4.452,1.823-8.495,4.756-11.427
		v-0.017C196.877,213.031,200.93,211.208,205.389,211.208"/>
	<path fill="#EBEFF0" d="M603.968,227.407v345.207c0,6.497-4.53,10.319-10.318,10.319H205.389c-5.78,0-10.319-3.715-10.319-10.319
		V227.407c0-6.738,4.56-10.323,10.319-10.323h388.261C599.425,217.083,603.968,220.79,603.968,227.407"/> -->
	<path fill="#BCC2C6" d="M203.251,258.634h392.534c3.873,0,7.388,1.578,9.932,4.123c2.546,2.544,4.127,6.063,4.127,9.932v302.065
		c0,3.864-1.581,7.379-4.127,9.927c-2.544,2.55-6.059,4.123-9.932,4.123H203.251c-3.867,0-7.382-1.573-9.931-4.123
		c-2.544-2.548-4.126-6.063-4.126-9.927V272.688c0-3.869,1.582-7.387,4.126-9.932C195.869,260.212,199.384,258.634,203.251,258.634"
		/>
	<path fill-rule="evenodd" clip-rule="evenodd" fill="#FFFFFF" d="M203.251,264.51c-2.177,0-4.238,0.867-5.774,2.407
		c-1.541,1.536-2.407,3.602-2.407,5.771v302.065c0,2.166,0.866,4.231,2.407,5.771c1.536,1.541,3.598,2.407,5.774,2.407h392.534
		c2.179,0,4.239-0.866,5.777-2.407c1.536-1.54,2.405-3.598,2.405-5.771V272.688c0-2.174-0.869-4.235-2.405-5.771
		c-1.538-1.541-3.604-2.407-5.777-2.407H203.251z"/>
	<path fill="#364A5E" d="M530.094,282.803h38.361c2.236,0,4.064,1.828,4.064,4.064v0.004c0,2.24-1.828,4.064-4.064,4.064h-38.361
		c-2.239,0-4.066-1.824-4.066-4.064v-0.004C526.027,284.631,527.854,282.803,530.094,282.803"/>
	<path fill="#364A5E" d="M463.563,282.803h51.562c2.24,0,4.068,1.828,4.068,4.064v0.004c0,2.24-1.828,4.064-4.068,4.064h-51.562
		c-2.236,0-4.064-1.824-4.064-4.064v-0.004C459.498,284.631,461.326,282.803,463.563,282.803"/>
	<path fill="#364A5E" d="M409.975,282.803h38.36c2.239,0,4.066,1.828,4.066,4.064v0.004c0,2.24-1.827,4.064-4.066,4.064h-38.36
		c-2.237,0-4.064-1.824-4.064-4.064v-0.004C405.91,284.631,407.737,282.803,409.975,282.803"/>
	<path fill="#364A5E" d="M230.577,282.803h51.566c2.236,0,4.069,1.828,4.069,4.064v0.004c0,2.24-1.833,4.064-4.069,4.064h-51.566
		c-2.235,0-4.063-1.824-4.063-4.064v-0.004C226.514,284.631,228.342,282.803,230.577,282.803"/>
	<!-- <path fill-rule="evenodd" clip-rule="evenodd" fill="#94A4A5" d="M449.316,233.22c1.979,0,2.862,1.336,2.862,2.682
		c0,1.341-0.859,2.678-2.862,2.678h-4.788v-5.36H449.316z M456.155,246.774l-5.052-5.693c3.168-0.645,4.219-2.956,4.219-5.255
		c0-2.894-2.074-5.514-6.006-5.539c-2.644,0.025-5.288,0-7.932,0v16.699h3.144v-5.572h3.027l4.859,5.572h3.74V246.774z
		 M436.35,243.889h-9.357v-3.761h9.024v-2.932h-9.024v-3.855h9.357v-3.053h-12.484c0,5.568,0,11.152,0,16.699h12.484V243.889z
		 M407.495,233.266h3.432c3.622,0,5.146,2.603,5.219,5.209c0.07,2.719-1.435,5.489-5.219,5.489h-3.432V233.266z M410.927,230.288
		c-2.049,0-4.501,0-6.55,0v16.699c2.049,0,4.501,0,6.55,0c5.834,0,8.411-4.264,8.337-8.491
		C419.193,234.365,416.646,230.288,410.927,230.288z M393.983,240.916h-6.192l3.093-7.117L393.983,240.916z M396.65,246.987h3.433
		l-7.483-16.699h-3.427l-7.483,16.699h3.407l1.432-3.14h8.716L396.65,246.987z M378.396,243.889h-9.361v-3.761h9.027v-2.932h-9.027
		v-3.855h9.361v-3.053H365.91c0,5.568,0,11.152,0,16.699h12.486V243.889z M360.428,246.987v-16.649h-3.119v7.025h-8.195v-7.025
		h-3.149v16.649h3.149v-6.717h8.195v6.717H360.428z"/> -->
	<!-- <path fill-rule="evenodd" clip-rule="evenodd" fill="#94A4A5" d="M545.269,231.154c4.136,0,7.483,3.356,7.483,7.488
		c0,4.131-3.348,7.479-7.483,7.479c-4.131,0-7.479-3.348-7.479-7.479C537.79,234.511,541.138,231.154,545.269,231.154
		 M568.769,231.154c4.131,0,7.482,3.356,7.482,7.488c0,4.126-3.352,7.479-7.482,7.479c-4.136,0-7.483-3.348-7.483-7.479
		C561.285,234.511,564.638,231.154,568.769,231.154z M521.774,231.154c4.13,0,7.479,3.356,7.479,7.488
		c0,4.131-3.35,7.479-7.479,7.479c-4.135,0-7.482-3.353-7.482-7.479C514.292,234.511,517.64,231.154,521.774,231.154z"/> -->
	<polygon fill="#364A5E" points="295.456,334.282 503.586,334.282 508.332,334.282 508.332,339.029 508.332,466.982 508.332,471.73
		503.586,471.73 295.456,471.73 290.709,471.73 290.709,466.982 290.709,339.029 290.709,334.282 	"/>
	<rect x="296.644" y="340.216" fill="#3EA3DB" width="205.755" height="125.568"/>
	<path opacity="0.15" fill="#010101" d="M460.856,378.56c-2.087-2.078-4.968-3.365-8.158-3.365s-6.071,1.287-8.157,3.365
		c-2.082,2.082-3.365,4.968-3.365,8.158c0,3.181,1.286,6.067,3.373,8.149c2.082,2.086,4.965,3.373,8.149,3.373
		c3.19,0,6.071-1.287,8.158-3.365c2.078-2.082,3.364-4.968,3.364-8.158S462.935,380.642,460.856,378.56 M452.698,365.697
		c5.788,0,11.04,2.353,14.847,6.159l0.016,0.017c3.807,3.801,6.159,9.053,6.159,14.845s-2.353,11.043-6.159,14.846l-0.016,0.017
		c-3.807,3.806-9.059,6.158-14.847,6.158c-5.805,0-11.061-2.353-14.867-6.158c-3.801-3.802-6.153-9.062-6.153-14.862
		c0-5.792,2.353-11.044,6.153-14.845l0.021-0.017C441.658,368.049,446.906,365.697,452.698,365.697z M442.634,417.229
		L442.634,417.229l0.142,0.191l2.666,3.54l-0.039,0.034l15.952,21.687c1.142,1.55,1.63,3.115,1.63,4.59h-0.021
		c0,1.157-0.287,2.224-0.791,3.148c-0.483,0.873-1.149,1.606-1.94,2.19c-1.312,0.965-3.002,1.498-4.701,1.498v-0.017l-40.103,0.017
		l-76.779-0.017c-1.853,0-3.457-0.532-4.693-1.44c-0.854-0.625-1.528-1.425-2.003-2.374h-0.021c-0.444-0.899-0.683-1.899-0.678-2.99
		h-0.017c0-1.59,0.55-3.272,1.735-4.889l16.804-22.844l-0.017-0.025l1.536-2.04l0.188-0.26l0,0l0.033-0.033l20.771-27.613
		c0.734-0.974,1.532-1.782,2.384-2.419c1.622-1.225,3.396-1.82,5.237-1.812c1.836,0.008,3.591,0.621,5.181,1.812
		c0.854,0.641,1.652,1.449,2.379,2.419l19.833,26.364l9.596-12.755c0.724-0.97,1.523-1.778,2.372-2.416
		c1.595-1.199,3.361-1.811,5.205-1.815c1.833-0.004,3.602,0.596,5.222,1.812c0.846,0.633,1.646,1.44,2.378,2.419l10.528,13.996
		L442.634,417.229z M451.032,444.629l-16.041-21.803l-0.674-0.916l-9.812-13.043l-0.024-0.033l-0.021,0.033l-11.084,14.741
		l-2.295,3.048l-3.781,5.031l-3.785-5.031l-2.292-3.048l-21.324-28.35l-0.021-0.033l-0.024,0.033l-20.138,26.769l-0.596,0.807
		l-16.028,21.795l72.336,0.018L451.032,444.629z"/>
	<path fill="#364A5E" d="M449.742,358.792c5.788,0,11.038,2.353,14.845,6.155l0.021,0.021c3.802,3.801,6.154,9.053,6.154,14.841
		c0,5.792-2.353,11.043-6.154,14.849l-0.021,0.017c-3.807,3.806-9.057,6.155-14.845,6.155c-5.806,0-11.06-2.353-14.866-6.155
		c-3.799-3.802-6.155-9.062-6.155-14.866c0-5.789,2.353-11.04,6.155-14.841l0.02-0.021
		C438.702,361.145,443.949,358.792,449.742,358.792 M439.677,410.317L439.677,410.317l0.142,0.199l2.665,3.539l-0.033,0.034
		l15.949,21.678c1.142,1.55,1.623,3.115,1.623,4.598h-0.016c0,1.158-0.288,2.216-0.792,3.148c-0.479,0.867-1.148,1.607-1.94,2.19
		c-1.312,0.957-3.003,1.499-4.701,1.499v-0.024l-40.102,0.016l-76.785-0.016c-1.849,0-3.451-0.518-4.688-1.433
		c-0.854-0.633-1.527-1.434-2.002-2.374h-0.021c-0.446-0.899-0.679-1.906-0.679-2.989h-0.018c0-1.591,0.551-3.282,1.737-4.889
		l16.803-22.846l-0.017-0.033l1.536-2.032l0.188-0.25l0,0l0.033-0.05l20.771-27.609c0.732-0.974,1.533-1.782,2.382-2.416
		c1.625-1.224,3.399-1.824,5.238-1.811c1.837,0.004,3.59,0.616,5.181,1.811c0.85,0.637,1.654,1.445,2.378,2.416l19.83,26.369
		l9.599-12.76c0.725-0.965,1.529-1.773,2.374-2.415c1.595-1.199,3.36-1.808,5.205-1.815c1.837,0,3.603,0.6,5.223,1.812
		c0.845,0.637,1.644,1.445,2.377,2.419l10.527,14L439.677,410.317z"/>
	<path fill-rule="evenodd" clip-rule="evenodd" fill="#54CAF2" d="M449.742,364.186c4.154,0,8.095,1.636,11.03,4.576l0.021,0.017
		c2.938,2.94,4.576,6.875,4.576,11.031c0,4.16-1.638,8.095-4.576,11.035l-0.021,0.017c-2.936,2.94-6.876,4.58-11.03,4.58
		c-4.166,0-8.107-1.636-11.052-4.58c-2.944-2.944-4.578-6.888-4.578-11.052c0-4.156,1.638-8.091,4.578-11.031l0.016-0.017
		C441.646,365.822,445.582,364.186,449.742,364.186"/>
	<path fill-rule="evenodd" clip-rule="evenodd" fill="#54CAF2" d="M404.339,418.012l13.909-18.484
		c0.373-0.496,0.807-0.97,1.307-1.345c0.588-0.446,1.229-0.733,1.979-0.733c0.739-0.004,1.382,0.287,1.966,0.729
		c0.498,0.375,0.931,0.85,1.306,1.35l10.666,14.179l18.585,25.261c0.213,0.283,0.424,0.648,0.516,0.982l0.041,0.15v0.424
		l-0.037,0.143c-0.078,0.282-0.258,0.516-0.499,0.69c-0.313,0.234-0.713,0.367-1.101,0.426l-0.074,0.008l-40.435,0.016
		l-76.776-0.016c-0.496,0-1.09-0.084-1.494-0.383l-0.213-0.158l-0.296-0.608V440.1l0.029-0.117c0.101-0.449,0.366-0.924,0.642-1.299
		l18.369-24.969l20.912-27.797c0.375-0.5,0.809-0.974,1.307-1.354c0.592-0.441,1.229-0.729,1.978-0.729
		c0.742,0.004,1.384,0.3,1.972,0.737c0.498,0.375,0.932,0.849,1.306,1.345L404.339,418.012z"/>
	<path fill="#D7D7D7" d="M430.507,531.229h-58.777c-2.263,0-4.318,0.933-5.81,2.415c-1.491,1.499-2.419,3.549-2.419,5.813
		s0.923,4.33,2.407,5.805l0.012,0.017c1.482,1.482,3.539,2.407,5.81,2.407h58.777c2.257,0,4.314-0.933,5.81-2.424
		c1.49-1.49,2.415-3.548,2.415-5.805c0-2.265-0.925-4.322-2.411-5.813C434.829,532.154,432.771,531.229,430.507,531.229
		 M371.729,523.176h58.777c4.473,0,8.537,1.832,11.484,4.781l0.018,0.008c2.948,2.956,4.78,7.021,4.78,11.493
		c0,4.48-1.832,8.553-4.78,11.501c-2.949,2.948-7.018,4.781-11.502,4.781h-58.777c-4.465,0-8.533-1.833-11.489-4.781l-0.004-0.008
		l-0.01-0.008c-2.947-2.957-4.78-7.021-4.78-11.485c0-4.48,1.833-8.553,4.78-11.501
		C363.177,525.008,367.243,523.176,371.729,523.176z"/>
	<path fill="#364A5E" d="M368.53,516.521h58.783c4.468,0,8.536,1.832,11.484,4.78l0.012,0.017c2.953,2.949,4.781,7.014,4.781,11.484
		l0,0c0,4.49-1.828,8.555-4.781,11.503c-2.942,2.948-7.02,4.779-11.496,4.779H368.53c-4.463,0-8.527-1.831-11.485-4.779l-0.008-0.01
		l-0.008-0.008c-2.948-2.956-4.777-7.021-4.777-11.485l0,0c0-4.48,1.829-8.553,4.777-11.501
		C359.977,518.354,364.05,516.521,368.53,516.521"/>
	<path fill="#43C0B9" d="M427.313,521.368c3.035,0,5.938,1.199,8.082,3.349c2.148,2.147,3.354,5.047,3.354,8.086
		c0,3.04-1.213,5.931-3.362,8.079c-2.144,2.141-5.038,3.357-8.073,3.357H368.53c-3.034,0-5.929-1.2-8.078-3.341l-0.013-0.017
		c-2.149-2.141-3.344-5.039-3.344-8.079c0-3.039,1.212-5.929,3.356-8.078c2.149-2.14,5.038-3.356,8.078-3.356H427.313z"/>
	<path fill="#7CCED2" d="M427.313,521.368c3.035,0,5.938,1.199,8.082,3.349c2.148,2.147,3.354,5.047,3.354,8.086
		c0,0.775-0.084,1.55-0.238,2.3c-0.445-2.175-1.521-4.182-3.115-5.78c-2.145-2.141-5.047-3.349-8.082-3.349H368.53
		c-3.04,0-5.929,1.208-8.078,3.356c-1.596,1.599-2.673,3.607-3.119,5.78c-0.157-0.75-0.237-1.524-0.237-2.308
		c0-3.039,1.212-5.929,3.356-8.078c2.149-2.14,5.038-3.356,8.078-3.356H427.313z"/>
	<path fill-rule="evenodd" clip-rule="evenodd" fill="#BCC2C6" d="M345.96,490.886h107.117c2.161,0,3.932,1.767,3.932,3.932l0,0
		c0,2.165-1.771,3.923-3.932,3.923H345.96c-2.161,0-3.927-1.758-3.927-3.923l0,0C342.033,492.652,343.799,490.886,345.96,490.886"/>
</g>
</svg>
