<?xml version="1.0" encoding="utf-8"?>
<!-- Generator: Adobe Illustrator 15.1.0, SVG Export Plug-In . SVG Version: 6.00 Build 0)  -->
<!DOCTYPE svg PUBLIC "-//W3C//DTD SVG 1.0//EN" "http://www.w3.org/TR/2001/REC-SVG-20010904/DTD/svg10.dtd">
<svg version="1.0" id="Layer_1" xmlns="http://www.w3.org/2000/svg" xmlns:xlink="http://www.w3.org/1999/xlink" x="0px" y="0px"
	 width="800px" height="800px" viewBox="197.739990234375 211.20799255371094 420.6539306640625 377.59796142578125" enable-background="new 0 0 800 800" xml:space="preserve">
<g>
	<!-- <path fill="#BCC2C6" d="M213.938,211.208h388.257c4.455,0,8.512,1.824,11.442,4.756v0.017c2.933,2.932,4.756,6.975,4.756,11.427
		v345.207c0,4.439-1.823,8.487-4.756,11.419v0.016c-2.931,2.933-6.987,4.756-11.442,4.756H213.938
		c-4.465,0-8.512-1.823-11.444-4.756v-0.016c-2.932-2.932-4.754-6.979-4.754-11.419V227.407c0-4.452,1.822-8.495,4.754-11.427
		v-0.017C205.427,213.031,209.474,211.208,213.938,211.208"/>
	<path fill="#EBEFF0" d="M612.514,227.407v345.207c0,6.497-4.531,10.319-10.318,10.319H213.938c-5.78,0-10.319-3.715-10.319-10.319
		V227.407c0-6.738,4.555-10.323,10.319-10.323h388.257C607.975,217.083,612.514,220.79,612.514,227.407"/> -->
	<path fill="#BCC2C6" d="M211.797,258.634h392.538c3.872,0,7.388,1.578,9.928,4.123c2.548,2.544,4.131,6.063,4.131,9.932v302.065
		c0,3.864-1.583,7.379-4.131,9.927c-2.54,2.55-6.056,4.123-9.928,4.123H211.797c-3.863,0-7.387-1.573-9.927-4.123
		c-2.549-2.548-4.13-6.063-4.13-9.927V272.688c0-3.869,1.581-7.387,4.13-9.932C204.41,260.212,207.934,258.634,211.797,258.634"/>
	<path fill="#FFFFFF" d="M211.797,264.51c-2.173,0-4.238,0.867-5.779,2.407c-1.532,1.536-2.408,3.602-2.408,5.771v302.065
		c0,2.166,0.876,4.231,2.408,5.771c1.541,1.541,3.606,2.407,5.779,2.407h392.538c2.175,0,4.239-0.866,5.771-2.407
		c1.542-1.54,2.407-3.598,2.407-5.771V272.688c0-2.174-0.865-4.235-2.407-5.771c-1.532-1.541-3.605-2.407-5.771-2.407H211.797z"/>
	<path fill="#364A5E" d="M538.64,282.803H577c2.241,0,4.064,1.828,4.064,4.064v0.004c0,2.24-1.823,4.064-4.064,4.064h-38.36
		c-2.239,0-4.064-1.824-4.064-4.064v-0.004C534.575,284.631,536.4,282.803,538.64,282.803"/>
	<path fill="#364A5E" d="M472.112,282.803h51.562c2.241,0,4.064,1.828,4.064,4.064v0.004c0,2.24-1.823,4.064-4.064,4.064h-51.562
		c-2.241,0-4.072-1.824-4.072-4.064v-0.004C468.04,284.631,469.871,282.803,472.112,282.803"/>
	<path fill="#364A5E" d="M418.519,282.803h38.36c2.241,0,4.074,1.828,4.074,4.064v0.004c0,2.24-1.833,4.064-4.074,4.064h-38.36
		c-2.231,0-4.064-1.824-4.064-4.064v-0.004C414.454,284.631,416.287,282.803,418.519,282.803"/>
	<path fill="#364A5E" d="M239.123,282.803h51.57c2.231,0,4.064,1.828,4.064,4.064v0.004c0,2.24-1.833,4.064-4.064,4.064h-51.57
		c-2.231,0-4.064-1.824-4.064-4.064v-0.004C235.059,284.631,236.892,282.803,239.123,282.803"/>
	<!-- <path fill-rule="evenodd" clip-rule="evenodd" fill="#94A4A5" d="M457.862,233.22c1.982,0,2.864,1.336,2.864,2.682
		c0,1.341-0.857,2.678-2.864,2.678h-4.789v-5.36H457.862z M464.701,246.774l-5.049-5.693c3.165-0.645,4.215-2.956,4.215-5.255
		c0-2.894-2.074-5.514-6.005-5.539c-2.64,0.025-5.288,0-7.929,0v16.699h3.14v-5.572h3.032l4.855,5.572h3.74V246.774z
		 M444.896,243.889h-9.362v-3.761h9.028v-2.932h-9.028v-3.855h9.362v-3.053h-12.477c0,5.568,0,11.152,0,16.699h12.477V243.889z
		 M416.045,233.266h3.432c3.622,0,5.139,2.603,5.213,5.209c0.076,2.719-1.424,5.489-5.213,5.489h-3.432V233.266z M419.477,230.288
		c-2.049,0-4.506,0-6.555,0v16.699c2.049,0,4.506,0,6.555,0c5.83,0,8.403-4.264,8.337-8.491
		C427.738,234.365,425.189,230.288,419.477,230.288z M402.527,240.916h-6.188l3.091-7.117L402.527,240.916z M405.202,246.987h3.431
		l-7.479-16.699h-3.431l-7.488,16.699h3.408l1.432-3.14h8.719L405.202,246.987z M386.945,243.889h-9.361v-3.761h9.028v-2.932h-9.028
		v-3.855h9.361v-3.053h-12.484c0,5.568,0,11.152,0,16.699h12.484V243.889z M368.972,246.987v-16.649h-3.114v7.025h-8.195v-7.025
		h-3.148v16.649h3.148v-6.717h8.195v6.717H368.972z"/> -->
	<!-- <path fill-rule="evenodd" clip-rule="evenodd" fill="#94A4A5" d="M553.814,231.154c4.131,0,7.487,3.356,7.487,7.488
		c0,4.131-3.349,7.479-7.487,7.479c-4.131,0-7.479-3.348-7.479-7.479C546.336,234.511,549.684,231.154,553.814,231.154
		 M577.317,231.154c4.131,0,7.479,3.356,7.479,7.488c0,4.126-3.349,7.479-7.479,7.479s-7.486-3.348-7.486-7.479
		C569.831,234.511,573.187,231.154,577.317,231.154z M530.32,231.154c4.13,0,7.479,3.356,7.479,7.488
		c0,4.131-3.349,7.479-7.479,7.479c-4.131,0-7.488-3.353-7.488-7.479C522.832,234.511,526.189,231.154,530.32,231.154z"/> -->
	<path fill="#D7D7D7" d="M317.535,477.278h-58.772c-2.259,0-4.314,0.924-5.814,2.415c-1.491,1.499-2.415,3.547-2.415,5.813l0,0
		c0,2.266,0.924,4.322,2.406,5.806l0.009,0.016c1.482,1.483,3.54,2.399,5.814,2.399h58.772c2.266,0,4.314-0.924,5.814-2.415
		c1.49-1.491,2.415-3.548,2.415-5.806l0,0c0-2.266-0.925-4.331-2.407-5.813C321.867,478.202,319.801,477.278,317.535,477.278
		 M258.763,469.224h58.772c4.473,0,8.546,1.823,11.493,4.781l0.009,0.008c2.949,2.948,4.78,7.021,4.78,11.493l0,0
		c0,4.481-1.831,8.554-4.78,11.494c-2.947,2.956-7.02,4.779-11.502,4.779h-58.772c-4.465,0-8.529-1.823-11.485-4.779h-0.008
		l-0.01-0.01c-2.948-2.956-4.779-7.021-4.779-11.484l0,0c0-4.48,1.831-8.554,4.779-11.501
		C250.208,471.047,254.28,469.224,258.763,469.224z"/>
	<path fill="#364A5E" d="M255.564,462.568h58.781c4.465,0,8.529,1.833,11.485,4.781l0.017,0.017
		c2.939,2.948,4.781,7.013,4.781,11.485l0,0c0,4.48-1.842,8.554-4.781,11.501c-2.947,2.948-7.021,4.781-11.502,4.781h-58.781
		c-4.465,0-8.529-1.833-11.486-4.781l-0.008-0.008l-0.009-0.008c-2.947-2.957-4.78-7.021-4.78-11.485l0,0
		c0-4.48,1.833-8.553,4.78-11.502C247.01,464.401,251.084,462.568,255.564,462.568"/>
	<path fill="#43C0B9" d="M314.346,467.416c3.032,0,5.931,1.2,8.078,3.348c2.149,2.149,3.357,5.047,3.357,8.088
		c0,3.04-1.216,5.93-3.357,8.069c-2.147,2.149-5.046,3.365-8.078,3.365h-58.781c-3.041,0-5.931-1.198-8.08-3.348l-0.016-0.008
		c-2.142-2.149-3.34-5.047-3.34-8.079c0-3.041,1.208-5.931,3.355-8.078c2.149-2.149,5.039-3.357,8.08-3.357H314.346z"/>
	<path fill="#7CCED2" d="M314.346,467.416c3.032,0,5.931,1.2,8.078,3.348c2.149,2.149,3.357,5.047,3.357,8.088
		c0,0.775-0.083,1.549-0.233,2.299c-0.449-2.174-1.524-4.189-3.124-5.779c-2.147-2.142-5.046-3.349-8.078-3.349h-58.781
		c-3.041,0-5.931,1.207-8.08,3.356c-1.599,1.599-2.673,3.605-3.123,5.78c-0.158-0.751-0.232-1.524-0.232-2.308
		c0-3.041,1.208-5.931,3.355-8.078c2.149-2.149,5.039-3.357,8.08-3.357H314.346z"/>
	<path fill-rule="evenodd" clip-rule="evenodd" fill="#BCC2C6" d="M243.205,345.654h122.069c2.165,0,3.932,1.77,3.932,3.931
		s-1.767,3.926-3.932,3.926H243.205c-2.157,0-3.924-1.765-3.924-3.926S241.048,345.654,243.205,345.654"/>
	<path fill-rule="evenodd" clip-rule="evenodd" fill="#BCC2C6" d="M243.205,365.401h122.069c2.165,0,3.932,1.766,3.932,3.927
		c0,2.161-1.767,3.927-3.932,3.927H243.205c-2.157,0-3.924-1.766-3.924-3.927C239.281,367.167,241.048,365.401,243.205,365.401"/>
	<path fill-rule="evenodd" clip-rule="evenodd" fill="#BCC2C6" d="M243.205,385.144h122.069c2.165,0,3.932,1.765,3.932,3.926
		s-1.767,3.932-3.932,3.932H243.205c-2.157,0-3.924-1.771-3.924-3.932S241.048,385.144,243.205,385.144"/>
	<path fill-rule="evenodd" clip-rule="evenodd" fill="#BCC2C6" d="M243.205,404.887h122.069c2.165,0,3.932,1.765,3.932,3.93l0,0
		c0,2.157-1.767,3.932-3.932,3.932H243.205c-2.157,0-3.924-1.774-3.924-3.932l0,0C239.281,406.651,241.048,404.887,243.205,404.887"
		/>
	<path fill-rule="evenodd" clip-rule="evenodd" fill="#BCC2C6" d="M243.213,424.624h57.1c2.165,0,3.932,1.774,3.932,3.932l0,0
		c0,2.165-1.767,3.932-3.932,3.932h-57.1c-2.165,0-3.932-1.767-3.932-3.932l0,0C239.281,426.398,241.048,424.624,243.213,424.624"/>
	<path fill-rule="evenodd" clip-rule="evenodd" fill="#364A5E" d="M466.44,485.023h65.054c1.624,0,2.94,1.323,2.94,2.939v0.008
		c0,1.607-1.316,2.933-2.94,2.933H466.44c-1.616,0-2.939-1.325-2.939-2.933v-0.008C463.501,486.347,464.824,485.023,466.44,485.023"
		/>
	<rect x="487.104" y="462.752" fill-rule="evenodd" clip-rule="evenodd" fill="#364A5E" width="23.728" height="28.151"/>
	<rect x="492.975" y="468.624" fill-rule="evenodd" clip-rule="evenodd" fill="#FFFFFF" width="11.986" height="16.399"/>
	<path fill-rule="evenodd" clip-rule="evenodd" fill="#364A5E" d="M421.709,356.536h154.525c2.657,0,4.83,2.178,4.83,4.838v102.412
		c0,2.665-2.173,4.838-4.83,4.838H421.709c-2.665,0-4.84-2.173-4.84-4.838V361.374C416.869,358.713,419.044,356.536,421.709,356.536
		"/>
	<rect x="422.741" y="362.411" fill="#3EA3DB" width="152.453" height="100.341"/>
	<path opacity="0.15" fill="#010101" d="M535.025,389.841c-1.249-1.25-2.99-2.024-4.913-2.024c-1.917,0-3.657,0.775-4.914,2.024
		c-1.249,1.257-2.024,2.994-2.024,4.917c0,1.916,0.775,3.652,2.032,4.905c1.259,1.258,2.989,2.036,4.906,2.036
		c1.923,0,3.664-0.774,4.913-2.027c1.258-1.257,2.031-2.995,2.031-4.914C537.057,392.835,536.283,391.099,535.025,389.841
		 M530.112,382.096c3.489,0,6.653,1.416,8.944,3.706l0.017,0.012c2.29,2.291,3.707,5.456,3.707,8.945c0,3.49-1.417,6.65-3.707,8.944
		l-0.017,0.01c-2.291,2.29-5.455,3.71-8.944,3.71s-6.663-1.42-8.953-3.71c-2.29-2.291-3.706-5.456-3.706-8.954
		c0-3.489,1.416-6.654,3.706-8.945l0.016-0.012C523.465,383.511,526.631,382.096,530.112,382.096z M524.049,413.141L524.049,413.141
		l0.092,0.115l1.606,2.132l-0.024,0.018l9.611,13.066c0.684,0.934,0.975,1.875,0.975,2.767h-0.01c0,0.699-0.174,1.341-0.473,1.897
		c-0.293,0.525-0.692,0.967-1.167,1.317c-0.799,0.582-1.815,0.898-2.841,0.898v-0.008l-24.151,0.008h-46.265
		c-1.107-0.008-2.074-0.324-2.823-0.874c-0.509-0.375-0.917-0.857-1.208-1.424h-0.009c-0.267-0.551-0.417-1.149-0.407-1.808h-0.018
		c0-0.957,0.334-1.974,1.05-2.94l10.119-13.767l-0.009-0.017l0.926-1.224l0.115-0.158v0.008l0.018-0.033l12.518-16.632
		c0.441-0.587,0.924-1.075,1.432-1.458c0.982-0.733,2.05-1.095,3.157-1.091c1.108,0.005,2.165,0.375,3.123,1.091
		c0.508,0.388,0.991,0.875,1.433,1.458l11.95,15.882l5.78-7.684c0.434-0.582,0.916-1.069,1.424-1.453
		c0.967-0.724,2.024-1.091,3.141-1.095c1.107-0.004,2.165,0.357,3.14,1.091c0.517,0.383,1,0.871,1.44,1.457l6.338,8.434
		L524.049,413.141z M529.112,429.647l-9.661-13.135l-0.408-0.549l-5.912-7.862l-0.01-0.018l-0.016,0.018l-6.68,8.878l-1.383,1.832
		l-2.274,3.032l-2.28-3.032l-1.384-1.832l-12.842-17.073l-0.017-0.021l-0.017,0.021l-12.126,16.124l-0.359,0.482l-9.66,13.135
		l43.583,0.008L529.112,429.647z"/>
	<path fill="#364A5E" d="M528.33,376.436c3.488,0,6.654,1.42,8.943,3.71l0.018,0.013c2.291,2.29,3.705,5.455,3.705,8.944
		c0,3.486-1.414,6.65-3.705,8.945l-0.018,0.008c-2.289,2.29-5.455,3.706-8.943,3.706c-3.49,0-6.663-1.416-8.953-3.706
		c-2.291-2.291-3.707-5.459-3.707-8.954c0-3.489,1.416-6.654,3.707-8.944l0.016-0.013
		C521.684,377.856,524.849,376.436,528.33,376.436 M522.266,407.485v-0.005l0.092,0.121l1.607,2.132l-0.025,0.017l9.612,13.059
		c0.691,0.942,0.975,1.882,0.975,2.774h-0.009c0,0.7-0.175,1.341-0.474,1.89c-0.293,0.534-0.692,0.976-1.167,1.325
		c-0.791,0.582-1.815,0.907-2.841,0.907v-0.017l-24.151,0.009l-46.257-0.009c-1.115,0-2.082-0.316-2.833-0.865
		c-0.508-0.385-0.922-0.859-1.207-1.434h-0.008c-0.266-0.532-0.408-1.149-0.408-1.799h-0.008c0-0.949,0.324-1.974,1.041-2.948
		l10.119-13.758l-0.009-0.018l0.925-1.229l0.116-0.153l0.018-0.025l12.517-16.632c0.442-0.587,0.925-1.075,1.433-1.458
		c0.983-0.737,2.05-1.1,3.156-1.091c1.108,0.009,2.167,0.375,3.124,1.095c0.516,0.383,0.999,0.87,1.433,1.454l11.95,15.882
		l5.78-7.683c0.434-0.583,0.916-1.07,1.434-1.458c0.958-0.72,2.015-1.086,3.131-1.09c1.107-0.005,2.165,0.358,3.147,1.09
		c0.508,0.384,0.991,0.871,1.433,1.458l6.339,8.429L522.266,407.485z"/>
	<path fill-rule="evenodd" clip-rule="evenodd" fill="#54CAF2" d="M528.33,381.054c-2.141,0-4.165,0.841-5.723,2.403l0.025-0.025
		c-1.516,1.516-2.349,3.527-2.349,5.671c0,2.141,0.842,4.173,2.356,5.689c1.516,1.516,3.549,2.357,5.689,2.357
		c2.148,0,4.172-0.841,5.729-2.403l-0.025,0.025c1.517-1.516,2.349-3.527,2.349-5.668c0-2.145-0.832-4.156-2.323-5.646l-0.041-0.046
		C532.502,381.899,530.479,381.054,528.33,381.054 M460.152,425.075l45.723,0.008l23.604-0.008l-10.837-14.734l-6.421-8.541
		c-0.148-0.195-0.324-0.395-0.516-0.54c-0.1-0.071-0.233-0.167-0.367-0.167c-0.133,0-0.266,0.092-0.374,0.167
		c-0.191,0.146-0.367,0.345-0.508,0.54l-9.471,12.598l-15.64-20.792c-0.143-0.196-0.316-0.392-0.517-0.541
		c-0.101-0.075-0.233-0.171-0.366-0.171c-0.134,0-0.267,0.092-0.367,0.166c-0.191,0.15-0.374,0.35-0.517,0.542l-12.592,16.732
		L460.152,425.075z"/>
	<path fill-rule="evenodd" clip-rule="evenodd" fill="#364A5E" d="M421.709,448.494h154.525c2.657,0,4.83,2.183,4.83,4.84v10.452
		c0,2.665-2.173,4.838-4.83,4.838H421.709c-2.657,0-4.84-2.173-4.84-4.838v-10.452C416.869,450.677,419.044,448.494,421.709,448.494
		"/>
	<rect x="422.741" y="454.374" fill-rule="evenodd" clip-rule="evenodd" fill="#FFFFFF" width="152.453" height="8.378"/>
</g>
</svg>
