<?xml version="1.0" encoding="utf-8"?>
<!-- Generator: Adobe Illustrator 15.1.0, SVG Export Plug-In . SVG Version: 6.00 Build 0)  -->
<!DOCTYPE svg PUBLIC "-//W3C//DTD SVG 1.0//EN" "http://www.w3.org/TR/2001/REC-SVG-20010904/DTD/svg10.dtd">
<svg version="1.0" id="Layer_1" xmlns="http://www.w3.org/2000/svg" xmlns:xlink="http://www.w3.org/1999/xlink" x="0px" y="0px"
	 width="800px" height="800px" viewBox="189.8350067138672 211.20799255371094 420.6519775390625 377.59796142578125" enable-background="new 0 0 800 800" xml:space="preserve">
<g>
	<!-- <path fill="#BCC2C6" d="M206.031,211.208h388.26c4.456,0,8.508,1.824,11.439,4.756v0.017c2.931,2.932,4.756,6.975,4.756,11.427
		v345.207c0,4.439-1.825,8.487-4.756,11.419v0.016c-2.932,2.933-6.983,4.756-11.439,4.756h-388.26
		c-4.461,0-8.512-1.823-11.444-4.756v-0.016c-2.928-2.932-4.752-6.979-4.752-11.419V227.407c0-4.452,1.824-8.495,4.752-11.427
		v-0.017C197.52,213.031,201.57,211.208,206.031,211.208"/>
	<path fill="#EBEFF0" d="M604.605,227.407v345.207c0,6.497-4.526,10.319-10.314,10.319h-388.26c-5.78,0-10.32-3.715-10.32-10.319
		V227.407c0-6.738,4.561-10.323,10.32-10.323h388.26C600.067,217.083,604.605,220.79,604.605,227.407"/> -->
	<path fill="#364A5E" d="M203.894,258.634h392.53c3.872,0,7.386,1.578,9.936,4.123c2.544,2.544,4.127,6.063,4.127,9.932v302.065
		c0,3.864-1.583,7.379-4.127,9.927c-2.55,2.55-6.063,4.123-9.936,4.123h-392.53c-3.873,0-7.388-1.573-9.931-4.123
		c-2.549-2.548-4.128-6.063-4.128-9.927V272.688c0-3.869,1.579-7.387,4.128-9.932C196.506,260.212,200.021,258.634,203.894,258.634"
		/>
	<path fill="#F15E4E" d="M203.894,264.51c-2.177,0-4.243,0.867-5.779,2.407c-1.536,1.536-2.406,3.602-2.406,5.771v302.065
		c0,2.166,0.87,4.231,2.406,5.771c1.536,1.541,3.603,2.407,5.779,2.407h392.53c2.181,0,4.242-0.866,5.779-2.407
		c1.537-1.54,2.402-3.598,2.402-5.771V272.688c0-2.174-0.865-4.235-2.402-5.771c-1.537-1.541-3.606-2.407-5.779-2.407H203.894z"/>
	<path fill="#364A5E" d="M530.732,282.803h38.361c2.24,0,4.069,1.828,4.069,4.064v0.004c0,2.24-1.829,4.064-4.069,4.064h-38.361
		c-2.231,0-4.064-1.824-4.064-4.064v-0.004C526.668,284.631,528.501,282.803,530.732,282.803"/>
	<path fill="#364A5E" d="M464.204,282.803h51.562c2.24,0,4.069,1.828,4.069,4.064v0.004c0,2.24-1.829,4.064-4.069,4.064h-51.562
		c-2.234,0-4.064-1.824-4.064-4.064v-0.004C460.14,284.631,461.97,282.803,464.204,282.803"/>
	<path fill="#364A5E" d="M410.615,282.803h38.36c2.237,0,4.068,1.828,4.068,4.064v0.004c0,2.24-1.831,4.064-4.068,4.064h-38.36
		c-2.237,0-4.068-1.824-4.068-4.064v-0.004C406.547,284.631,408.378,282.803,410.615,282.803"/>
	<path fill="#364A5E" d="M231.22,282.803h51.562c2.24,0,4.068,1.828,4.068,4.064v0.004c0,2.24-1.828,4.064-4.068,4.064H231.22
		c-2.236,0-4.064-1.824-4.064-4.064v-0.004C227.155,284.631,228.983,282.803,231.22,282.803"/>
	<!-- <path fill-rule="evenodd" clip-rule="evenodd" fill="#94A4A5" d="M449.959,233.22c1.974,0,2.856,1.336,2.856,2.682
		c0,1.341-0.857,2.678-2.856,2.678h-4.789v-5.36H449.959z M456.796,246.774l-5.051-5.693c3.169-0.645,4.214-2.956,4.214-5.255
		c0-2.894-2.069-5.514-6-5.539c-2.645,0.025-5.289,0-7.934,0v16.699h3.145v-5.572h3.024l4.862,5.572h3.739V246.774z M436.99,243.889
		h-9.359v-3.761h9.027v-2.932h-9.027v-3.855h9.359v-3.053h-12.482c0,5.568,0,11.152,0,16.699h12.482V243.889z M408.138,233.266
		h3.431c3.619,0,5.147,2.603,5.214,5.209c0.075,2.719-1.429,5.489-5.214,5.489h-3.431V233.266z M411.568,230.288
		c-2.049,0-4.502,0-6.555,0v16.699c2.053,0,4.506,0,6.555,0c5.835,0,8.407-4.264,8.338-8.491
		C419.834,234.365,417.286,230.288,411.568,230.288z M394.624,240.916h-6.196l3.098-7.117L394.624,240.916z M397.289,246.987h3.432
		l-7.479-16.699h-3.432l-7.479,16.699h3.406l1.429-3.14h8.72L397.289,246.987z M379.037,243.889h-9.365v-3.761h9.033v-2.932h-9.033
		v-3.855h9.365v-3.053h-12.484c0,5.568,0,11.152,0,16.699h12.484V243.889z M361.069,246.987v-16.649h-3.124v7.025h-8.194v-7.025
		h-3.141v16.649h3.141v-6.717h8.194v6.717H361.069z"/> -->
	<!-- <path fill-rule="evenodd" clip-rule="evenodd" fill="#94A4A5" d="M545.911,231.154c4.131,0,7.483,3.356,7.483,7.488
		c0,4.131-3.353,7.479-7.483,7.479s-7.483-3.348-7.483-7.479C538.428,234.511,541.78,231.154,545.911,231.154 M569.41,231.154
		c4.126,0,7.483,3.356,7.483,7.488c0,4.126-3.357,7.479-7.483,7.479c-4.135,0-7.482-3.348-7.482-7.479
		C561.928,234.511,565.279,231.154,569.41,231.154z M522.412,231.154c4.131,0,7.482,3.356,7.482,7.488
		c0,4.131-3.352,7.479-7.482,7.479s-7.479-3.353-7.479-7.479C514.933,234.511,518.281,231.154,522.412,231.154z"/> -->
	<path fill="#D63E2B" d="M431.149,531.229h-58.783c-2.257,0-4.314,0.933-5.804,2.415c-1.492,1.499-2.421,3.549-2.421,5.813
		s0.921,4.33,2.403,5.805l0.018,0.017c1.481,1.482,3.539,2.407,5.804,2.407h58.783c2.256,0,4.314-0.933,5.804-2.424
		c1.492-1.49,2.425-3.548,2.425-5.805c0-2.265-0.93-4.322-2.417-5.813C435.472,532.154,433.41,531.229,431.149,531.229
		 M372.366,523.176h58.783c4.469,0,8.535,1.832,11.485,4.781l0.016,0.008c2.947,2.956,4.777,7.021,4.777,11.493
		c0,4.48-1.83,8.553-4.777,11.501c-2.952,2.948-7.021,4.781-11.501,4.781h-58.783c-4.463,0-8.527-1.833-11.485-4.781l-0.008-0.008
		l-0.004-0.008c-2.953-2.957-4.781-7.021-4.781-11.485c0-4.48,1.828-8.553,4.781-11.501
		C363.813,525.008,367.89,523.176,372.366,523.176z"/>
	<path fill="#364A5E" d="M369.172,516.521h58.779c4.473,0,8.537,1.832,11.489,4.78l0.012,0.017
		c2.948,2.949,4.781,7.014,4.781,11.484l0,0c0,4.49-1.833,8.555-4.781,11.503s-7.017,4.779-11.501,4.779h-58.779
		c-4.463,0-8.527-1.831-11.484-4.779l-0.009-0.01l-0.009-0.008c-2.946-2.956-4.779-7.021-4.779-11.485l0,0
		c0-4.48,1.833-8.553,4.779-11.501C360.62,518.354,364.688,516.521,369.172,516.521"/>
	<path fill="#43C0B9" d="M427.951,521.368c3.039,0,5.938,1.199,8.087,3.349c2.144,2.147,3.348,5.047,3.348,8.086
		c0,3.04-1.208,5.931-3.355,8.079c-2.146,2.141-5.04,3.357-8.079,3.357h-58.779c-3.035,0-5.929-1.2-8.078-3.341l-0.012-0.017
		c-2.149-2.141-3.345-5.039-3.345-8.079c0-3.039,1.213-5.929,3.356-8.078c2.149-2.14,5.039-3.356,8.078-3.356H427.951z"/>
	<path fill="#7CCED2" d="M427.951,521.368c3.039,0,5.938,1.199,8.087,3.349c2.144,2.147,3.348,5.047,3.348,8.086
		c0,0.775-0.078,1.55-0.232,2.3c-0.447-2.175-1.521-4.182-3.115-5.78c-2.149-2.141-5.048-3.349-8.087-3.349h-58.779
		c-3.039,0-5.929,1.208-8.078,3.356c-1.595,1.599-2.673,3.607-3.123,5.78c-0.154-0.75-0.233-1.524-0.233-2.308
		c0-3.039,1.213-5.929,3.356-8.078c2.149-2.14,5.039-3.356,8.078-3.356H427.951z"/>
	<path fill="#D63E2B" d="M423.175,435.527l-12.964,7.486h-0.016l-12.959,7.479c-1.817,1.049-3.57,1.532-5.168,1.532
		c-1.388,0-2.674-0.358-3.811-1.024c-1.116-0.658-2.036-1.599-2.716-2.772c-0.833-1.45-1.3-3.232-1.3-5.231v-14.966v-14.967
		c0-2.058,0.471-3.814,1.288-5.234c0.703-1.224,1.653-2.165,2.782-2.803c1.141-0.645,2.409-0.975,3.76-0.975
		c1.64,0,3.411,0.496,5.176,1.513l-0.004,0.008l12.951,7.476l12.963,7.487h0.017c1.785,1.032,3.08,2.314,3.897,3.73
		c0.695,1.208,1.033,2.499,1.023,3.798c-0.012,1.291-0.361,2.557-1.04,3.723C426.224,433.237,424.915,434.52,423.175,435.527"/>
	<path fill="#364A5E" d="M420.601,431.205l-12.963,7.486h-0.013l-12.964,7.487c-1.813,1.05-3.564,1.532-5.168,1.532
		c-1.386,0-2.668-0.357-3.809-1.032c-1.112-0.65-2.032-1.599-2.716-2.782c-0.829-1.433-1.296-3.215-1.296-5.213v-14.976v-14.966
		c0-2.058,0.467-3.818,1.288-5.23c0.703-1.224,1.652-2.165,2.781-2.802c1.137-0.645,2.41-0.978,3.756-0.978
		c1.642,0,3.416,0.495,5.177,1.516l-0.006,0.009l12.956,7.479l12.963,7.479h0.013c1.791,1.033,3.083,2.315,3.897,3.731
		c0.7,1.216,1.038,2.499,1.025,3.798c-0.009,1.299-0.362,2.557-1.042,3.73C423.654,428.913,422.342,430.205,420.601,431.205"/>
	<path fill-rule="evenodd" clip-rule="evenodd" fill="#FFFFFF" d="M417.573,425.957c0.625-0.357,1.296-0.874,1.665-1.515
		c0.133-0.234,0.227-0.475,0.227-0.75c0.002-0.258-0.084-0.492-0.213-0.717c-0.367-0.634-1.074-1.149-1.694-1.515l-12.964-7.48
		l-12.951-7.487c-0.612-0.357-1.423-0.703-2.145-0.703c-0.279,0-0.533,0.055-0.773,0.191c-0.23,0.129-0.393,0.338-0.521,0.563
		c-0.367,0.633-0.471,1.482-0.471,2.198v29.941c0,0.725,0.117,1.549,0.486,2.19c0.135,0.232,0.305,0.449,0.537,0.592
		c0.234,0.133,0.472,0.182,0.737,0.182c0.713,0,1.537-0.365,2.142-0.716L417.573,425.957z"/>
	<path fill-rule="evenodd" clip-rule="evenodd" fill="#364A5E" d="M400.159,382.899c-22.545,0-40.818,18.273-40.818,40.827
		c0,22.537,18.273,40.809,40.818,40.809s40.821-18.271,40.821-40.809C440.98,401.172,422.704,382.899,400.159,382.899
		 M400.159,376.849c-25.886,0-46.872,20.983-46.872,46.877c0,25.885,20.986,46.872,46.872,46.872
		c25.885,0,46.872-20.987,46.872-46.872C447.031,397.832,426.044,376.849,400.159,376.849z"/>
</g>
</svg>
