<?xml version="1.0" encoding="utf-8"?>
<!-- Generator: Adobe Illustrator 15.1.0, SVG Export Plug-In . SVG Version: 6.00 Build 0)  -->
<!DOCTYPE svg PUBLIC "-//W3C//DTD SVG 1.0//EN" "http://www.w3.org/TR/2001/REC-SVG-20010904/DTD/svg10.dtd">
<svg version="1.0" id="Layer_1" xmlns="http://www.w3.org/2000/svg" xmlns:xlink="http://www.w3.org/1999/xlink" x="0px" y="0px"
	 width="800px" height="800px" viewBox="199.95199584960938 211.20799255371094 420.6520690917969 377.59796142578125" enable-background="new 0 0 800 800" xml:space="preserve">
<g>
	<!-- <path fill="#BCC2C6" d="M216.147,211.208h388.261c4.457,0,8.508,1.824,11.439,4.756v0.017c2.931,2.932,4.756,6.975,4.756,11.427
		v345.207c0,4.439-1.825,8.487-4.756,11.419v0.016c-2.932,2.933-6.982,4.756-11.439,4.756H216.147c-4.46,0-8.512-1.823-11.439-4.756
		v-0.016c-2.932-2.932-4.756-6.979-4.756-11.419V227.407c0-4.452,1.824-8.495,4.756-11.427v-0.017
		C207.636,213.031,211.688,211.208,216.147,211.208"/>
	<path fill="#EBEFF0" d="M614.728,227.407v345.207c0,6.497-4.53,10.319-10.319,10.319H216.147c-5.78,0-10.319-3.715-10.319-10.319
		V227.407c0-6.738,4.561-10.323,10.319-10.323h388.261C610.188,217.083,614.728,220.79,614.728,227.407"/> -->
	<path fill="#364A5E" d="M214.011,258.634h392.535c3.872,0,7.386,1.578,9.931,4.123c2.549,2.544,4.127,6.063,4.127,9.932v302.065
		c0,3.864-1.578,7.379-4.127,9.927c-2.545,2.55-6.059,4.123-9.931,4.123H214.011c-3.873,0-7.387-1.573-9.932-4.123
		c-2.548-2.548-4.127-6.063-4.127-9.927V272.688c0-3.869,1.579-7.387,4.127-9.932C206.625,260.212,210.139,258.634,214.011,258.634"
		/>
	<path fill-rule="evenodd" clip-rule="evenodd" fill="#3EA3DB" d="M214.011,264.51c-2.178,0-4.239,0.867-5.776,2.407
		c-1.541,1.536-2.407,3.602-2.407,5.771v302.065c0,2.166,0.867,4.231,2.407,5.771c1.537,1.541,3.598,2.407,5.776,2.407h392.535
		c2.177,0,4.238-0.866,5.774-2.407c1.537-1.54,2.407-3.598,2.407-5.771V272.688c0-2.174-0.87-4.235-2.407-5.771
		c-1.536-1.541-3.607-2.407-5.774-2.407H214.011z"/>
	<!-- <path fill-rule="evenodd" clip-rule="evenodd" fill="#94A4A5" d="M460.076,233.22c1.977,0,2.86,1.336,2.86,2.682
		c0,1.341-0.856,2.678-2.86,2.678h-4.789v-5.36H460.076z M466.913,246.774l-5.052-5.693c3.171-0.645,4.219-2.956,4.219-5.255
		c0-2.894-2.072-5.514-6.004-5.539c-2.645,0.025-5.289,0-7.934,0v16.699h3.145v-5.572h3.027l4.859,5.572h3.739V246.774z
		 M447.113,243.889h-9.365v-3.761h9.032v-2.932h-9.032v-3.855h9.365v-3.053h-12.484c0,5.568,0,11.152,0,16.699h12.484V243.889z
		 M418.254,233.266h3.432c3.623,0,5.143,2.603,5.218,5.209c0.071,2.719-1.431,5.489-5.218,5.489h-3.432V233.266z M421.686,230.288
		c-2.049,0-4.502,0-6.55,0v16.699c2.048,0,4.501,0,6.55,0c5.839,0,8.408-4.264,8.338-8.491
		C429.951,234.365,427.403,230.288,421.686,230.288z M404.741,240.916h-6.191l3.098-7.117L404.741,240.916z M407.412,246.987h3.426
		l-7.479-16.699h-3.431l-7.479,16.699h3.406l1.429-3.14h8.72L407.412,246.987z M389.155,243.889h-9.361v-3.761h9.028v-2.932h-9.028
		v-3.855h9.361v-3.053h-12.48c0,5.568,0,11.152,0,16.699h12.48V243.889z M371.186,246.987v-16.649h-3.119v7.025h-8.195v-7.025
		h-3.149v16.649h3.149v-6.717h8.195v6.717H371.186z"/> -->
	<!-- <path fill-rule="evenodd" clip-rule="evenodd" fill="#94A4A5" d="M556.029,231.154c4.131,0,7.482,3.356,7.482,7.488
		c0,4.131-3.352,7.479-7.482,7.479c-4.132,0-7.484-3.348-7.484-7.479C548.545,234.511,551.897,231.154,556.029,231.154
		 M579.527,231.154c4.131,0,7.482,3.356,7.482,7.488c0,4.126-3.352,7.479-7.482,7.479s-7.482-3.348-7.482-7.479
		C572.045,234.511,575.396,231.154,579.527,231.154z M532.529,231.154c4.131,0,7.484,3.356,7.484,7.488
		c0,4.131-3.354,7.479-7.484,7.479s-7.482-3.353-7.482-7.479C525.047,234.511,528.402,231.154,532.529,231.154z"/> -->
	<path fill-rule="evenodd" clip-rule="evenodd" fill="#364A5E" d="M230.381,399.785l2.078-2.078l0,0l11.959-11.956l3.144-3.148
		c1.145-1.145,3.011-1.145,4.156,0c1.141,1.141,1.141,3.011,0,4.151l-3.148,3.149l-9.882,9.881l10.973,10.974l2.057,2.056
		c1.141,1.142,1.141,3.015,0,4.148v0.008c-1.145,1.141-3.011,1.141-4.156,0l-2.057-2.058l-13.047-13.051l0,0L230.381,399.785z"/>
	<path fill-rule="evenodd" clip-rule="evenodd" fill="#364A5E" d="M590.176,399.785l-2.079-2.078l-11.958-11.956l-3.15-3.148
		c-1.141-1.145-3.01-1.145-4.151,0c-1.144,1.141-1.144,3.011,0,4.151l3.149,3.149l9.877,9.881l-10.968,10.974l-2.059,2.056
		c-1.144,1.142-1.144,3.015,0,4.148v0.008c1.142,1.141,3.011,1.141,4.151,0l2.063-2.058l13.046-13.051l0,0L590.176,399.785z"/>
	<path fill="#218DCA" d="M472.272,370.897c-2.157-2.148-5.146-3.485-8.448-3.485c-3.303,0-6.289,1.336-8.449,3.485
		c-2.152,2.161-3.484,5.147-3.484,8.454c0,3.293,1.334,6.279,3.492,8.436c2.156,2.161,5.146,3.499,8.441,3.499
		c3.302,0,6.291-1.333,8.448-3.486c2.157-2.161,3.485-5.147,3.485-8.449C475.758,376.045,474.43,373.059,472.272,370.897
		 M463.824,357.581c6.002,0,11.438,2.432,15.377,6.371l0.018,0.021c3.939,3.939,6.38,9.378,6.38,15.379
		c0,5.997-2.44,11.435-6.38,15.374l-0.018,0.021c-3.939,3.939-9.375,6.375-15.377,6.375c-6.01,0-11.455-2.441-15.393-6.375
		c-3.941-3.94-6.378-9.387-6.378-15.395c0-6.001,2.437-11.439,6.378-15.379l0.014-0.021
		C452.389,360.013,457.826,357.581,463.824,357.581z M453.4,410.95L453.4,410.95l0.15,0.199l2.76,3.673l-0.039,0.024l16.522,22.463
		c1.183,1.606,1.683,3.223,1.683,4.756h-0.021c0.004,1.198-0.291,2.298-0.82,3.256c-0.495,0.908-1.187,1.674-2.008,2.273
		c-1.357,0.999-3.109,1.55-4.867,1.55v-0.018l-41.537,0.018l-79.525-0.018c-1.916,0-3.578-0.541-4.86-1.482
		c-0.883-0.657-1.586-1.481-2.074-2.465h-0.021c-0.462-0.934-0.705-1.966-0.7-3.099h-0.021c0-1.641,0.567-3.39,1.795-5.063
		l17.403-23.653l-0.013-0.033l1.591-2.116l0.191-0.258l0,0l0.037-0.041l21.513-28.601c0.762-1.008,1.591-1.849,2.47-2.507
		c1.682-1.266,3.519-1.883,5.426-1.874c1.903,0.008,3.719,0.641,5.364,1.878c0.882,0.662,1.711,1.499,2.465,2.503l20.538,27.309
		l9.939-13.212c0.755-1.004,1.584-1.841,2.463-2.503c1.652-1.241,3.477-1.874,5.393-1.883c1.894,0,3.727,0.621,5.404,1.878
		c0.875,0.658,1.708,1.495,2.467,2.507l10.896,14.495L453.4,410.95z M462.1,439.334l-16.615-22.588l-0.695-0.95l-10.16-13.508
		l-0.025-0.033l-0.025,0.033l-11.481,15.267l-2.376,3.155l-3.92,5.214l-3.918-5.214l-2.374-3.155l-22.083-29.358l-0.025-0.033
		l-0.025,0.033l-20.854,27.725l-0.616,0.842l-16.603,22.571l74.92,0.016L462.1,439.334z"/>
	<path fill="#364A5E" d="M460.764,350.427c5.996,0,11.435,2.436,15.378,6.375l0.017,0.017c3.939,3.943,6.377,9.381,6.377,15.378
		c0,5.997-2.438,11.435-6.377,15.375l-0.017,0.021c-3.943,3.939-9.382,6.375-15.378,6.375c-6.009,0-11.457-2.44-15.396-6.375
		c-3.939-3.939-6.376-9.386-6.376-15.396c0-5.997,2.437-11.435,6.376-15.378l0.021-0.017
		C449.328,352.862,454.763,350.427,460.764,350.427 M450.336,403.795h0.004l0.146,0.201l2.766,3.672l-0.043,0.029l16.523,22.458
		c1.184,1.606,1.684,3.23,1.684,4.765h-0.021c0.004,1.198-0.295,2.298-0.82,3.247c-0.496,0.907-1.188,1.675-2.007,2.273
		c-1.358,1.008-3.11,1.557-4.868,1.557v-0.023l-41.539,0.016l-79.524-0.016c-1.919,0-3.582-0.541-4.859-1.491
		c-0.883-0.65-1.583-1.475-2.074-2.458h-0.021c-0.462-0.924-0.708-1.974-0.704-3.097h-0.021c0-1.642,0.571-3.391,1.8-5.056
		l17.402-23.666l-0.012-0.029l1.586-2.114l0.195-0.258h0.004l0.034-0.043l21.512-28.6c0.758-1.007,1.587-1.845,2.465-2.507
		c1.686-1.262,3.523-1.883,5.426-1.874c1.903,0.009,3.722,0.641,5.367,1.882c0.883,0.658,1.712,1.495,2.465,2.499l20.538,27.31
		l9.937-13.214c0.753-1.003,1.583-1.836,2.46-2.503c1.654-1.241,3.482-1.874,5.393-1.877c1.9-0.004,3.732,0.616,5.406,1.874
		c0.879,0.658,1.707,1.499,2.465,2.507l10.902,14.496L450.336,403.795z"/>
	<path fill-rule="evenodd" clip-rule="evenodd" fill="#54CAF2" d="M460.764,356.011c4.307,0,8.383,1.694,11.427,4.739l0.021,0.021
		c3.043,3.041,4.738,7.121,4.738,11.427s-1.695,8.383-4.738,11.427l-0.021,0.021c-3.044,3.044-7.12,4.739-11.427,4.739
		c-4.311,0-8.395-1.695-11.443-4.743c-3.053-3.048-4.744-7.133-4.744-11.444c0-4.306,1.696-8.386,4.744-11.427l0.016-0.021
		C452.381,357.705,456.453,356.011,460.764,356.011"/>
	<path fill-rule="evenodd" clip-rule="evenodd" fill="#54CAF2" d="M413.74,411.766l14.4-19.147c0.392-0.517,0.842-1.008,1.357-1.399
		c0.613-0.458,1.275-0.758,2.049-0.758c0.771,0,1.429,0.3,2.037,0.758c0.516,0.392,0.967,0.879,1.352,1.395l11.05,14.688
		l19.247,26.168c0.221,0.291,0.436,0.666,0.537,1.017l0.041,0.149v0.442l-0.039,0.141c-0.082,0.299-0.27,0.541-0.516,0.725
		c-0.324,0.241-0.74,0.375-1.141,0.433l-0.079,0.017l-41.876,0.009l-79.524-0.009c-0.517,0-1.128-0.092-1.549-0.408l-0.216-0.158
		l-0.308-0.625v-0.565l0.025-0.116c0.108-0.467,0.387-0.958,0.67-1.341l19.022-25.869l21.663-28.792
		c0.387-0.516,0.837-1.007,1.357-1.399c0.612-0.454,1.27-0.758,2.045-0.75c0.771,0,1.432,0.3,2.041,0.758
		c0.516,0.391,0.966,0.878,1.354,1.39L413.74,411.766z"/>
	<path fill="#218DCA" d="M443.607,531.063h-60.882c-2.34,0-4.468,0.949-6.013,2.497c-1.544,1.55-2.506,3.682-2.506,6.015
		c0,2.349,0.958,4.48,2.49,6.013l0.017,0.017c1.533,1.54,3.665,2.498,6.013,2.498h60.882c2.34,0,4.469-0.966,6.017-2.515
		c1.546-1.54,2.503-3.674,2.503-6.013c0-2.341-0.957-4.473-2.495-6.022C448.084,532.013,445.951,531.063,443.607,531.063
		 M382.725,522.718h60.882c4.631,0,8.84,1.899,11.896,4.947l0.018,0.017c3.051,3.056,4.951,7.263,4.951,11.894
		c0,4.646-1.9,8.861-4.951,11.917c-3.055,3.057-7.271,4.947-11.914,4.947h-60.882c-4.622,0-8.832-1.891-11.897-4.947l-0.004-0.008
		l-0.008-0.009c-3.057-3.064-4.952-7.279-4.952-11.9c0-4.64,1.895-8.861,4.952-11.91
		C373.868,524.617,378.086,522.718,382.725,522.718z"/>
	<path fill="#364A5E" d="M379.835,515.822h60.88c4.631,0,8.841,1.897,11.897,4.946l0.018,0.017
		c3.053,3.064,4.945,7.271,4.945,11.902c0,4.639-1.893,8.854-4.945,11.909c-3.058,3.057-7.271,4.955-11.915,4.955h-60.88
		c-4.622,0-8.832-1.898-11.893-4.955l-0.009-0.008h-0.008c-3.057-3.065-4.951-7.28-4.951-11.901c0-4.639,1.894-8.854,4.951-11.919
		C370.978,517.72,375.192,515.822,379.835,515.822"/>
	<path fill="#43C0B9" d="M440.716,520.844c3.144,0,6.151,1.241,8.376,3.473c2.224,2.216,3.471,5.23,3.471,8.371
		c0,3.14-1.256,6.138-3.48,8.369c-2.223,2.216-5.217,3.474-8.366,3.474h-60.88c-3.144,0-6.143-1.241-8.366-3.465l-0.017-0.009
		c-2.22-2.231-3.46-5.229-3.46-8.369c0-3.148,1.253-6.14,3.477-8.371c2.224-2.216,5.222-3.473,8.366-3.473H440.716z"/>
	<path fill="#7CCED2" d="M440.716,520.844c3.144,0,6.151,1.241,8.376,3.473c2.224,2.216,3.471,5.23,3.471,8.371
		c0,0.807-0.086,1.606-0.244,2.374c-0.467-2.241-1.574-4.332-3.227-5.981c-2.225-2.216-5.232-3.464-8.376-3.464h-60.88
		c-3.144,0-6.143,1.248-8.366,3.481c-1.653,1.649-2.769,3.73-3.236,5.979c-0.158-0.783-0.241-1.583-0.241-2.39
		c0-3.148,1.253-6.14,3.477-8.371c2.224-2.216,5.222-3.473,8.366-3.473H440.716z"/>
	<path fill-rule="evenodd" clip-rule="evenodd" fill="#364A5E" d="M383.333,478.294c3.065,0,5.555,2.481,5.555,5.546
		c0,3.073-2.49,5.555-5.555,5.555c-3.064,0-5.55-2.481-5.55-5.555C377.783,480.775,380.269,478.294,383.333,478.294"/>
	<path fill-rule="evenodd" clip-rule="evenodd" fill="#364A5E" d="M410.276,478.294c3.069,0,5.556,2.481,5.556,5.546
		c0,3.073-2.486,5.555-5.556,5.555c-3.064,0-5.552-2.481-5.552-5.555C404.725,480.775,407.212,478.294,410.276,478.294"/>
	<path fill-rule="evenodd" clip-rule="evenodd" fill="#364A5E" d="M437.224,478.294c3.063,0,5.551,2.481,5.551,5.546
		c0,3.073-2.487,5.555-5.551,5.555c-3.069,0-5.56-2.481-5.56-5.555C431.664,480.775,434.154,478.294,437.224,478.294"/>
	<path fill-rule="evenodd" clip-rule="evenodd" fill="#364A5E" d="M550.211,290.586h27.695c2.163,0,3.928,1.766,3.928,3.931
		c0,2.161-1.765,3.927-3.928,3.927h-27.695c-2.161,0-3.928-1.766-3.928-3.927C546.283,292.352,548.05,290.586,550.211,290.586"/>
	<path fill-rule="evenodd" clip-rule="evenodd" fill="#364A5E" d="M496.055,290.586h37.786c2.163,0,3.927,1.766,3.927,3.931
		c0,2.161-1.764,3.927-3.927,3.927h-37.786c-2.16,0-3.926-1.766-3.926-3.927C492.129,292.352,493.895,290.586,496.055,290.586"/>
	<path fill-rule="evenodd" clip-rule="evenodd" fill="#364A5E" d="M451.795,290.586h27.691c2.16,0,3.932,1.766,3.932,3.931
		c0,2.161-1.771,3.927-3.932,3.927h-27.691c-2.163,0-3.928-1.766-3.928-3.927C447.867,292.352,449.632,290.586,451.795,290.586"/>
	<path fill-rule="evenodd" clip-rule="evenodd" fill="#364A5E" d="M242.649,290.586h37.786c2.161,0,3.927,1.766,3.927,3.931
		c0,2.161-1.766,3.927-3.927,3.927h-37.786c-2.161,0-3.927-1.766-3.927-3.927C238.722,292.352,240.488,290.586,242.649,290.586"/>
</g>
</svg>
