<?xml version="1.0" encoding="utf-8"?>
<!-- Generator: Adobe Illustrator 15.1.0, SVG Export Plug-In . SVG Version: 6.00 Build 0)  -->
<!DOCTYPE svg PUBLIC "-//W3C//DTD SVG 1.0//EN" "http://www.w3.org/TR/2001/REC-SVG-20010904/DTD/svg10.dtd">
<svg version="1.0" id="Layer_1" xmlns="http://www.w3.org/2000/svg" xmlns:xlink="http://www.w3.org/1999/xlink" x="0px" y="0px"
	 width="800px" height="800px" viewBox="201.1320037841797 211.20799255371094 420.65496826171875 377.59796142578125" enable-background="new 0 0 800 800" xml:space="preserve">
<g>
	<!-- <path fill="#BCC2C6" d="M217.331,211.208h388.257c4.455,0,8.512,1.824,11.443,4.756v0.017c2.932,2.932,4.756,6.975,4.756,11.427
		v345.207c0,4.439-1.824,8.487-4.756,11.419v0.016c-2.932,2.933-6.988,4.756-11.443,4.756H217.331
		c-4.456,0-8.511-1.823-11.443-4.756v-0.016c-2.932-2.932-4.755-6.979-4.755-11.419V227.407c0-4.452,1.823-8.495,4.755-11.427
		v-0.017C208.82,213.031,212.875,211.208,217.331,211.208"/>
	<path fill="#EBEFF0" d="M615.907,227.407v345.207c0,6.497-4.531,10.319-10.319,10.319H217.331c-5.779,0-10.318-3.715-10.318-10.319
		V227.407c0-6.738,4.555-10.323,10.318-10.323h388.257C611.368,217.083,615.907,220.79,615.907,227.407"/> -->
	<path fill="#BCC2C6" d="M215.19,258.634h392.537c3.873,0,7.388,1.578,9.929,4.123c2.548,2.544,4.131,6.063,4.131,9.932v302.065
		c0,3.864-1.583,7.379-4.131,9.927c-2.541,2.55-6.056,4.123-9.929,4.123H215.19c-3.873,0-7.387-1.573-9.927-4.123
		c-2.55-2.548-4.131-6.063-4.131-9.927V272.688c0-3.869,1.581-7.387,4.131-9.932C207.804,260.212,211.317,258.634,215.19,258.634"/>
	<path fill="#FFFFFF" d="M215.19,264.51c-2.173,0-4.238,0.867-5.771,2.407c-1.542,1.536-2.407,3.602-2.407,5.771v302.065
		c0,2.166,0.865,4.231,2.407,5.771c1.532,1.541,3.598,2.407,5.771,2.407h392.537c2.175,0,4.24-0.866,5.78-2.407
		c1.533-1.54,2.399-3.598,2.399-5.771V272.688c0-2.174-0.866-4.235-2.399-5.771c-1.54-1.541-3.605-2.407-5.78-2.407H215.19z"/>
	<path fill="#364A5E" d="M542.033,282.803h38.361c2.24,0,4.072,1.828,4.072,4.064v0.004c0,2.24-1.832,4.064-4.072,4.064h-38.361
		c-2.231,0-4.064-1.824-4.064-4.064v-0.004C537.969,284.631,539.802,282.803,542.033,282.803"/>
	<path fill="#364A5E" d="M475.506,282.803h51.562c2.241,0,4.072,1.828,4.072,4.064v0.004c0,2.24-1.831,4.064-4.072,4.064h-51.562
		c-2.241,0-4.064-1.824-4.064-4.064v-0.004C471.441,284.631,473.265,282.803,475.506,282.803"/>
	<path fill="#364A5E" d="M421.912,282.803h38.369c2.232,0,4.064,1.828,4.064,4.064v0.004c0,2.24-1.832,4.064-4.064,4.064h-38.369
		c-2.232,0-4.064-1.824-4.064-4.064v-0.004C417.848,284.631,419.68,282.803,421.912,282.803"/>
	<path fill="#364A5E" d="M242.517,282.803h51.562c2.241,0,4.072,1.828,4.072,4.064v0.004c0,2.24-1.831,4.064-4.072,4.064h-51.562
		c-2.231,0-4.064-1.824-4.064-4.064v-0.004C238.452,284.631,240.285,282.803,242.517,282.803"/>
	<!-- <path fill-rule="evenodd" clip-rule="evenodd" fill="#94A4A5" d="M461.255,233.22c1.983,0,2.857,1.336,2.857,2.682
		c0,1.341-0.851,2.678-2.857,2.678h-4.789v-5.36H461.255z M468.094,246.774l-5.047-5.693c3.164-0.645,4.213-2.956,4.213-5.255
		c0-2.894-2.073-5.514-6.005-5.539c-2.64,0.025-5.287,0-7.929,0v16.699h3.14v-5.572h3.032l4.855,5.572h3.74V246.774z
		 M448.288,243.889h-9.354v-3.761h9.029v-2.932h-9.029v-3.855h9.354v-3.053h-12.476c0,5.568,0,11.152,0,16.699h12.476V243.889z
		 M419.438,233.266h3.431c3.615,0,5.146,2.603,5.215,5.209c0.074,2.719-1.434,5.489-5.215,5.489h-3.431V233.266z M422.869,230.288
		c-2.048,0-4.506,0-6.554,0v16.699c2.048,0,4.506,0,6.554,0c5.839,0,8.404-4.264,8.338-8.491
		C431.132,234.365,428.583,230.288,422.869,230.288z M405.922,240.916h-6.197l3.106-7.117L405.922,240.916z M408.595,246.987h3.424
		l-7.479-16.699h-3.432l-7.479,16.699h3.407l1.433-3.14h8.719L408.595,246.987z M390.339,243.889h-9.361v-3.761h9.027v-2.932h-9.027
		v-3.855h9.361v-3.053h-12.484c0,5.568,0,11.152,0,16.699h12.484V243.889z M372.366,246.987v-16.649h-3.124v7.025h-8.188v-7.025
		h-3.147v16.649h3.147v-6.717h8.188v6.717H372.366z"/> -->
	<!-- <path fill-rule="evenodd" clip-rule="evenodd" fill="#94A4A5" d="M557.208,231.154c4.13,0,7.487,3.356,7.487,7.488
		c0,4.131-3.357,7.479-7.487,7.479c-4.131,0-7.479-3.348-7.479-7.479C549.729,234.511,553.077,231.154,557.208,231.154
		 M580.71,231.154c4.133,0,7.479,3.356,7.479,7.488c0,4.126-3.347,7.479-7.479,7.479c-4.131,0-7.486-3.348-7.486-7.479
		C573.224,234.511,576.579,231.154,580.71,231.154z M533.713,231.154c4.131,0,7.479,3.356,7.479,7.488
		c0,4.131-3.349,7.479-7.479,7.479s-7.479-3.353-7.479-7.479C526.234,234.511,529.582,231.154,533.713,231.154z"/> -->
	<path fill="#BCC2C6" d="M442.45,531.229h-58.782c-2.257,0-4.314,0.933-5.805,2.415c-1.491,1.499-2.425,3.549-2.425,5.813
		s0.926,4.33,2.407,5.805l0.018,0.017c1.481,1.482,3.539,2.407,5.805,2.407h58.782c2.257,0,4.314-0.933,5.805-2.424
		c1.491-1.49,2.424-3.548,2.424-5.805c0-2.265-0.933-4.322-2.415-5.813C446.772,532.154,444.715,531.229,442.45,531.229
		 M383.668,523.176h58.782c4.464,0,8.536,1.832,11.485,4.781l0.016,0.008c2.948,2.956,4.771,7.021,4.771,11.493
		c0,4.48-1.823,8.553-4.771,11.501s-7.021,4.781-11.501,4.781h-58.782c-4.465,0-8.529-1.833-11.485-4.781l-0.008-0.008l-0.01-0.008
		c-2.946-2.957-4.779-7.021-4.779-11.485c0-4.48,1.833-8.553,4.779-11.501C375.114,525.008,379.188,523.176,383.668,523.176z"/>
	<path fill="#364A5E" d="M380.47,516.521h58.782c4.472,0,8.536,1.832,11.484,4.78l0.018,0.017c2.947,2.949,4.78,7.014,4.78,11.484
		l0,0c0,4.49-1.833,8.555-4.78,11.503c-2.948,2.948-7.021,4.779-11.502,4.779H380.47c-4.465,0-8.529-1.831-11.485-4.779v-0.01
		l-0.016-0.008c-2.949-2.956-4.773-7.021-4.773-11.485l0,0c0-4.48,1.824-8.553,4.773-11.501
		C371.915,518.354,375.989,516.521,380.47,516.521"/>
	<path fill="#43C0B9" d="M439.252,521.368c3.04,0,5.938,1.199,8.087,3.349c2.14,2.147,3.348,5.047,3.348,8.086
		c0,3.04-1.208,5.931-3.355,8.079c-2.149,2.141-5.039,3.357-8.079,3.357H380.47c-3.032,0-5.931-1.2-8.079-3.341l-0.009-0.017
		c-2.147-2.141-3.347-5.039-3.347-8.079c0-3.039,1.215-5.929,3.355-8.078c2.148-2.14,5.047-3.356,8.079-3.356H439.252z"/>
	<path fill="#7CCED2" d="M439.252,521.368c3.04,0,5.938,1.199,8.087,3.349c2.14,2.147,3.348,5.047,3.348,8.086
		c0,0.775-0.075,1.55-0.233,2.3c-0.449-2.175-1.523-4.182-3.114-5.78c-2.149-2.141-5.047-3.349-8.087-3.349H380.47
		c-3.032,0-5.931,1.208-8.079,3.356c-1.591,1.599-2.674,3.607-3.123,5.78c-0.15-0.75-0.232-1.524-0.232-2.308
		c0-3.039,1.215-5.929,3.355-8.078c2.148-2.14,5.047-3.356,8.079-3.356H439.252z"/>
	<path fill-rule="evenodd" clip-rule="evenodd" fill="#BCC2C6" d="M357.899,490.886h107.121c2.165,0,3.922,1.767,3.922,3.932l0,0
		c0,2.165-1.757,3.923-3.922,3.923H357.899c-2.157,0-3.922-1.758-3.922-3.923l0,0C353.978,492.652,355.742,490.886,357.899,490.886"
		/>
	<polygon fill="#364A5E" points="307.395,334.282 515.523,334.282 520.271,334.282 520.271,339.029 520.271,466.975
		520.271,471.723 515.523,471.723 307.395,471.723 302.648,471.723 302.648,466.975 302.648,339.029 302.648,334.282 	"/>
	<rect x="308.694" y="340.333" fill="#F15E4E" width="205.529" height="125.343"/>
	<path fill="#D63E2B" d="M434.737,414.813l-12.967,7.479h-0.017l-12.959,7.487c-1.815,1.04-3.564,1.524-5.164,1.524
		c-1.391,0-2.674-0.35-3.814-1.016c-1.116-0.659-2.032-1.601-2.715-2.782c-0.834-1.44-1.291-3.223-1.291-5.222v-14.972v-14.97
		c0-2.057,0.467-3.814,1.282-5.23c0.708-1.224,1.648-2.166,2.782-2.803c1.141-0.645,2.407-0.978,3.756-0.978
		c1.641,0,3.415,0.5,5.18,1.516l-0.008,0.008l12.951,7.475l12.968,7.483h0.016c1.782,1.037,3.082,2.319,3.891,3.73
		c0.699,1.217,1.04,2.503,1.032,3.807c-0.017,1.291-0.366,2.549-1.042,3.724C437.786,412.516,436.479,413.807,434.737,414.813"/>
	<path fill="#364A5E" d="M432.164,410.491l-12.967,7.487h-0.01l-12.967,7.479c-1.814,1.05-3.563,1.532-5.164,1.532
		c-1.391,0-2.673-0.357-3.806-1.023c-1.116-0.659-2.04-1.601-2.723-2.783c-0.834-1.439-1.291-3.214-1.291-5.223v-14.965v-14.971
		c0-2.057,0.467-3.818,1.282-5.23c0.708-1.225,1.648-2.166,2.781-2.803c1.142-0.645,2.408-0.974,3.756-0.974
		c1.642,0,3.416,0.496,5.181,1.512l-0.008,0.008l12.958,7.475l12.961,7.487h0.016c1.782,1.033,3.082,2.315,3.898,3.731
		c0.699,1.208,1.032,2.498,1.023,3.798c-0.008,1.291-0.365,2.553-1.041,3.728C435.213,408.197,433.905,409.483,432.164,410.491"/>
	<path fill-rule="evenodd" clip-rule="evenodd" fill="#FFFFFF" d="M429.132,405.244c0.625-0.361,1.3-0.883,1.667-1.516
		c0.133-0.232,0.225-0.482,0.232-0.749c0-0.263-0.092-0.5-0.216-0.721c-0.367-0.629-1.074-1.153-1.699-1.511l-12.959-7.488
		l-12.951-7.483c-0.615-0.354-1.424-0.704-2.149-0.704c-0.273,0-0.531,0.055-0.773,0.191c-0.225,0.129-0.392,0.342-0.517,0.563
		c-0.366,0.633-0.475,1.482-0.475,2.199v29.936c0,0.726,0.116,1.56,0.491,2.2c0.133,0.232,0.301,0.441,0.541,0.583
		c0.234,0.142,0.467,0.183,0.732,0.183c0.709,0,1.542-0.366,2.142-0.717L429.132,405.244z"/>
	<path fill-rule="evenodd" clip-rule="evenodd" fill="#364A5E" d="M411.46,362.187c-22.545,0-40.818,18.272-40.818,40.817
		s18.273,40.826,40.818,40.826s40.818-18.281,40.818-40.826S434.005,362.187,411.46,362.187 M411.46,356.131
		c-25.885,0-46.872,20.988-46.872,46.873c0,25.886,20.987,46.873,46.872,46.873s46.872-20.987,46.872-46.873
		C458.332,377.119,437.345,356.131,411.46,356.131z"/>
</g>
</svg>
