<?xml version="1.0" encoding="utf-8"?>
<!-- Generator: Adobe Illustrator 15.1.0, SVG Export Plug-In . SVG Version: 6.00 Build 0)  -->
<!DOCTYPE svg PUBLIC "-//W3C//DTD SVG 1.0//EN" "http://www.w3.org/TR/2001/REC-SVG-20010904/DTD/svg10.dtd">
<svg version="1.0" id="Layer_1" xmlns="http://www.w3.org/2000/svg" xmlns:xlink="http://www.w3.org/1999/xlink" x="0px" y="0px"
	 width="800px" height="800px" viewBox="194.09201049804688 211.20799255371094 420.6479797363281 377.59796142578125" enable-background="new 0 0 800 800" xml:space="preserve">
<g>
	<!-- <path fill="#BCC2C6" d="M210.293,211.208H598.55c4.455,0,8.511,1.824,11.442,4.756v0.017c2.933,2.932,4.748,6.975,4.748,11.427
		v345.207c0,4.439-1.815,8.487-4.748,11.419v0.016c-2.932,2.933-6.987,4.756-11.442,4.756H210.293
		c-4.465,0-8.513-1.823-11.444-4.756v-0.016c-2.932-2.932-4.756-6.979-4.756-11.419V227.407c0-4.452,1.824-8.495,4.756-11.427
		v-0.017C201.78,213.031,205.828,211.208,210.293,211.208"/>
	<path fill="#EBEFF0" d="M608.868,227.407v345.207c0,6.497-4.531,10.319-10.318,10.319H210.293c-5.78,0-10.319-3.715-10.319-10.319
		V227.407c0-6.738,4.555-10.323,10.319-10.323H598.55C604.329,217.083,608.868,220.79,608.868,227.407"/> -->
	<path fill="#BCC2C6" d="M208.151,258.634h392.538c3.872,0,7.388,1.578,9.928,4.123c2.548,2.544,4.123,6.063,4.123,9.932v302.065
		c0,3.864-1.575,7.379-4.123,9.927c-2.54,2.55-6.056,4.123-9.928,4.123H208.151c-3.873,0-7.388-1.573-9.928-4.123
		c-2.549-2.548-4.131-6.063-4.131-9.927V272.688c0-3.869,1.582-7.387,4.131-9.932C200.764,260.212,204.278,258.634,208.151,258.634"
		/>
	<path fill="#FFFFFF" d="M208.151,264.51c-2.173,0-4.238,0.867-5.771,2.407c-1.54,1.536-2.406,3.602-2.406,5.771v302.065
		c0,2.166,0.866,4.231,2.406,5.771c1.533,1.541,3.599,2.407,5.771,2.407h392.538c2.174,0,4.239-0.866,5.771-2.407
		c1.54-1.54,2.407-3.598,2.407-5.771V272.688c0-2.174-0.867-4.235-2.407-5.771c-1.532-1.541-3.598-2.407-5.771-2.407H208.151z"/>
	<path fill="#364A5E" d="M534.994,282.803h38.36c2.241,0,4.064,1.828,4.064,4.064v0.004c0,2.24-1.823,4.064-4.064,4.064h-38.36
		c-2.239,0-4.064-1.824-4.064-4.064v-0.004C530.93,284.631,532.755,282.803,534.994,282.803"/>
	<path fill="#364A5E" d="M468.467,282.803h51.562c2.24,0,4.064,1.828,4.064,4.064v0.004c0,2.24-1.824,4.064-4.064,4.064h-51.562
		c-2.241,0-4.064-1.824-4.064-4.064v-0.004C464.402,284.631,466.226,282.803,468.467,282.803"/>
	<path fill="#364A5E" d="M414.873,282.803h38.36c2.241,0,4.072,1.828,4.072,4.064v0.004c0,2.24-1.831,4.064-4.072,4.064h-38.36
		c-2.231,0-4.064-1.824-4.064-4.064v-0.004C410.809,284.631,412.642,282.803,414.873,282.803"/>
	<path fill="#364A5E" d="M235.478,282.803h51.57c2.231,0,4.063,1.828,4.063,4.064v0.004c0,2.24-1.832,4.064-4.063,4.064h-51.57
		c-2.231,0-4.064-1.824-4.064-4.064v-0.004C231.413,284.631,233.246,282.803,235.478,282.803"/>
	<!-- <path fill-rule="evenodd" clip-rule="evenodd" fill="#94A4A5" d="M454.217,233.22c1.982,0,2.864,1.336,2.864,2.682
		c0,1.341-0.865,2.678-2.864,2.678h-4.789v-5.36H454.217z M461.054,246.774l-5.047-5.693c3.165-0.645,4.215-2.956,4.215-5.255
		c0-2.894-2.074-5.514-6.005-5.539c-2.64,0.025-5.29,0-7.93,0v16.699h3.141v-5.572h3.022l4.865,5.572h3.738V246.774z
		 M441.249,243.889h-9.361v-3.761h9.028v-2.932h-9.028v-3.855h9.361v-3.053h-12.476c0,5.568,0,11.152,0,16.699h12.476V243.889z
		 M412.399,233.266h3.432c3.622,0,5.146,2.603,5.213,5.209c0.076,2.719-1.424,5.489-5.213,5.489h-3.432V233.266z M415.831,230.288
		c-2.049,0-4.506,0-6.555,0v16.699c2.049,0,4.506,0,6.555,0c5.83,0,8.411-4.264,8.337-8.491
		C424.092,234.365,421.544,230.288,415.831,230.288z M398.882,240.916h-6.196l3.099-7.117L398.882,240.916z M401.555,246.987h3.432
		l-7.486-16.699h-3.423l-7.488,16.699h3.406l1.434-3.14h8.719L401.555,246.987z M383.3,243.889h-9.361v-3.761h9.028v-2.932h-9.028
		v-3.855h9.361v-3.053h-12.485c0,5.568,0,11.152,0,16.699H383.3V243.889z M365.326,246.987v-16.649h-3.114v7.025h-8.195v-7.025
		h-3.148v16.649h3.148v-6.717h8.195v6.717H365.326z"/> -->
	<!-- <path fill-rule="evenodd" clip-rule="evenodd" fill="#94A4A5" d="M550.169,231.154c4.139,0,7.487,3.356,7.487,7.488
		c0,4.131-3.349,7.479-7.487,7.479c-4.131,0-7.479-3.348-7.479-7.479C542.69,234.511,546.038,231.154,550.169,231.154
		 M573.671,231.154c4.131,0,7.48,3.356,7.48,7.488c0,4.126-3.35,7.479-7.48,7.479c-4.139,0-7.485-3.348-7.485-7.479
		C566.186,234.511,569.541,231.154,573.671,231.154z M526.674,231.154c4.131,0,7.479,3.356,7.479,7.488
		c0,4.131-3.349,7.479-7.479,7.479c-4.13,0-7.478-3.353-7.478-7.479C519.196,234.511,522.544,231.154,526.674,231.154z"/> -->
	<path fill="#D7D7D7" d="M318.112,478.927H259.33c-2.257,0-4.314,0.925-5.806,2.415c-1.49,1.499-2.414,3.548-2.414,5.813
		c0,2.265,0.916,4.322,2.398,5.806l0.016,0.008c1.483,1.49,3.541,2.415,5.806,2.415h58.782c2.258,0,4.314-0.934,5.805-2.423
		c1.491-1.491,2.425-3.549,2.425-5.806c0-2.266-0.926-4.331-2.415-5.813C322.436,479.852,320.378,478.927,318.112,478.927
		 M259.33,470.873h58.782c4.473,0,8.537,1.823,11.485,4.771l0.017,0.018c2.949,2.948,4.78,7.021,4.78,11.493
		c0,4.48-1.831,8.545-4.78,11.493c-2.948,2.957-7.021,4.78-11.502,4.78H259.33c-4.465,0-8.528-1.823-11.485-4.78h-0.008
		l-0.008-0.017c-2.949-2.949-4.773-7.013-4.773-11.477c0-4.48,1.824-8.554,4.773-11.511
		C250.777,472.696,254.85,470.873,259.33,470.873z"/>
	<path fill="#364A5E" d="M256.141,464.218h58.774c4.473,0,8.537,1.833,11.484,4.781l0.017,0.016c2.948,2.949,4.78,7.013,4.78,11.478
		c0,4.488-1.832,8.563-4.78,11.51c-2.948,2.948-7.021,4.781-11.501,4.781h-58.774c-4.464,0-8.536-1.833-11.485-4.781l-0.008-0.008
		l-0.009-0.009c-2.947-2.956-4.78-7.029-4.78-11.493c0-4.473,1.833-8.545,4.78-11.493
		C247.587,466.051,251.651,464.218,256.141,464.218"/>
	<path fill="#43C0B9" d="M314.915,469.065c3.039,0,5.938,1.2,8.086,3.348c2.149,2.149,3.349,5.047,3.349,8.079
		c0,3.049-1.208,5.938-3.356,8.078c-2.149,2.149-5.039,3.365-8.078,3.365h-58.774c-3.04,0-5.938-1.198-8.079-3.348l-0.016-0.018
		c-2.149-2.14-3.341-5.038-3.341-8.078c0-3.032,1.207-5.93,3.356-8.07c2.142-2.148,5.039-3.356,8.079-3.356H314.915z"/>
	<path fill="#7CCED2" d="M314.915,469.065c3.039,0,5.938,1.2,8.086,3.348c2.149,2.149,3.349,5.047,3.349,8.079
		c0,0.783-0.075,1.558-0.233,2.308c-0.441-2.175-1.516-4.189-3.115-5.78c-2.148-2.148-5.047-3.356-8.086-3.356h-58.774
		c-3.04,0-5.938,1.216-8.079,3.365c-1.599,1.599-2.673,3.597-3.123,5.779c-0.158-0.75-0.233-1.523-0.233-2.315
		c0-3.032,1.207-5.93,3.356-8.07c2.142-2.148,5.039-3.356,8.079-3.356H314.915z"/>
	<rect x="411.858" y="344.01" fill="#364A5E" width="157.125" height="157.121"/>
	<rect x="417.796" y="349.948" fill="#3EA3DB" width="145.25" height="145.252"/>
	<path opacity="0.15" fill="#010101" d="M537.509,400.635c-1.64-1.637-3.914-2.648-6.421-2.648s-4.771,1.012-6.413,2.648
		c-1.641,1.636-2.647,3.91-2.647,6.417c0,2.499,1.017,4.772,2.647,6.413c1.642,1.632,3.906,2.648,6.413,2.648
		s4.781-1.007,6.421-2.648c1.634-1.633,2.649-3.906,2.649-6.413S539.143,402.271,537.509,400.635 M531.088,390.516
		c4.557,0,8.688,1.849,11.677,4.843l0.017,0.017c2.989,2.99,4.848,7.12,4.848,11.677c0,4.556-1.858,8.686-4.848,11.677l-0.017,0.017
		c-2.989,2.989-7.12,4.839-11.677,4.839c-4.563,0-8.703-1.85-11.692-4.839c-2.99-2.998-4.84-7.129-4.84-11.693
		c0-4.557,1.85-8.687,4.84-11.677l0.016-0.017C522.401,392.365,526.533,390.516,531.088,390.516z M523.169,431.055l0.008-0.008
		l0.107,0.158l2.099,2.781l-0.033,0.024l12.552,17.057c0.899,1.225,1.274,2.458,1.274,3.615h-0.01c0,0.916-0.224,1.749-0.624,2.474
		c-0.375,0.691-0.908,1.266-1.523,1.731c-1.033,0.75-2.366,1.174-3.699,1.174v-0.016l-31.547,0.008l-60.399-0.008
		c-1.456,0-2.722-0.408-3.688-1.124c-0.675-0.5-1.208-1.133-1.583-1.875h-0.008c-0.351-0.707-0.542-1.499-0.532-2.356h-0.018
		c0-1.241,0.434-2.565,1.366-3.84l13.217-17.973l-0.016-0.016l1.207-1.608l0.149-0.199l0,0l0.025-0.033l16.341-21.721
		c0.582-0.766,1.207-1.399,1.874-1.899c1.281-0.961,2.673-1.432,4.122-1.424c1.44,0.008,2.823,0.486,4.072,1.424
		c0.675,0.505,1.3,1.142,1.874,1.899l15.6,20.738l7.545-10.028c0.575-0.766,1.2-1.399,1.875-1.899
		c1.258-0.949,2.64-1.424,4.089-1.432c1.448,0,2.831,0.467,4.105,1.424c0.667,0.5,1.3,1.142,1.874,1.907l8.279,11.011
		L523.169,431.055z M529.781,452.609l-12.617-17.158l-0.534-0.715l-7.72-10.261l-0.018-0.025l-0.017,0.025l-8.72,11.593
		l-1.799,2.398l-2.981,3.956l-2.973-3.956l-1.808-2.398l-16.766-22.305l-0.024-0.016l-0.018,0.016l-15.841,21.055l-0.466,0.65
		l-12.609,17.141l56.9,0.008L529.781,452.609z"/>
	<path fill="#364A5E" d="M528.765,385.082c4.555,0,8.686,1.853,11.677,4.847l0.017,0.009c2.989,2.994,4.84,7.125,4.84,11.681
		c0,4.555-1.851,8.682-4.84,11.681l-0.017,0.016c-2.991,2.981-7.122,4.84-11.677,4.84c-4.564,0-8.703-1.858-11.692-4.84
		c-2.991-2.997-4.848-7.134-4.848-11.696c0-4.557,1.856-8.688,4.848-11.681l0.016-0.009
		C520.077,386.934,524.208,385.082,528.765,385.082 M520.845,425.625v-0.009l0.116,0.158l2.091,2.781l-0.025,0.025l12.543,17.057
		c0.908,1.225,1.283,2.456,1.283,3.614h-0.018c0.008,0.917-0.217,1.741-0.615,2.474c-0.384,0.683-0.909,1.267-1.534,1.724
		c-1.032,0.758-2.356,1.175-3.697,1.175v-0.008l-31.539,0.008l-60.399-0.008c-1.456,0-2.723-0.417-3.697-1.134
		c-0.666-0.49-1.199-1.123-1.574-1.874h-0.017c-0.35-0.699-0.533-1.49-0.533-2.349h-0.008c0-1.248,0.433-2.573,1.366-3.839
		l13.217-17.973l-0.018-0.025l1.208-1.599l0.149-0.199l0,0l0.025-0.034l16.342-21.72c0.574-0.767,1.207-1.404,1.873-1.903
		c1.274-0.962,2.674-1.429,4.123-1.425c1.44,0.004,2.822,0.487,4.072,1.429c0.675,0.5,1.3,1.137,1.874,1.899l15.599,20.737
		l7.547-10.027c0.574-0.767,1.199-1.399,1.873-1.907c1.249-0.941,2.641-1.425,4.09-1.425c1.44,0,2.832,0.467,4.105,1.425
		c0.666,0.5,1.299,1.141,1.874,1.907l8.278,11.002L520.845,425.625z"/>
	<path fill-rule="evenodd" clip-rule="evenodd" fill="#D1D2D3" d="M482.492,438.083l-11.011-14.641l-9.328,12.392l-1.648,2.249
		H482.492z M507.377,435.219l-0.808-1.066l-2.966,3.939h5.89l-1.683-2.291L507.377,435.219z"/>
	<path fill-rule="evenodd" clip-rule="evenodd" fill="#54CAF2" d="M520.636,393.831c-2.016,2.103-3.14,4.868-3.14,7.788
		c0,3.001,1.183,5.842,3.298,7.966c2.125,2.123,4.972,3.297,7.971,3.297c2.915,0,5.663-1.115,7.771-3.114l0.191-0.2
		c2.123-2.119,3.298-4.951,3.298-7.948c0-2.999-1.175-5.831-3.298-7.95l-0.01-0.013c-2.124-2.12-4.955-3.302-7.953-3.302
		c-2.999,0-5.83,1.179-7.945,3.298L520.636,393.831z M516.53,428.655l-8.204-10.909c-0.232-0.309-0.508-0.617-0.815-0.85
		c-0.275-0.209-0.584-0.375-0.926-0.375c-0.365,0.008-0.666,0.158-0.949,0.366c-0.316,0.241-0.59,0.542-0.824,0.858l-11.76,15.64
		l-19.813-26.347c-0.232-0.308-0.508-0.62-0.824-0.853c-0.274-0.209-0.583-0.367-0.933-0.367c-0.357-0.004-0.65,0.154-0.934,0.367
		c-0.316,0.232-0.59,0.545-0.824,0.853l-16.465,21.884l-14.426,19.622c-0.1,0.141-0.332,0.498-0.349,0.69
		c0.116,0.091,0.433,0.108,0.565,0.108l91.947,0.017c0.166,0,0.425-0.05,0.583-0.125c-0.017-0.125-0.184-0.374-0.25-0.474
		l-14.508-19.714L516.53,428.655z"/>
	<path fill-rule="evenodd" clip-rule="evenodd" fill="#BCC2C6" d="M243.78,347.303h122.071c2.157,0,3.931,1.766,3.931,3.927v0.004
		c0,2.157-1.773,3.923-3.931,3.923H243.78c-2.157,0-3.922-1.766-3.922-3.923v-0.004C239.858,349.069,241.623,347.303,243.78,347.303
		"/>
	<path fill-rule="evenodd" clip-rule="evenodd" fill="#BCC2C6" d="M243.78,367.05h122.071c2.157,0,3.931,1.761,3.931,3.922v0.004
		c0,2.162-1.773,3.927-3.931,3.927H243.78c-2.157,0-3.922-1.765-3.922-3.927v-0.004C239.858,368.812,241.623,367.05,243.78,367.05"
		/>
	<path fill-rule="evenodd" clip-rule="evenodd" fill="#BCC2C6" d="M243.78,386.793h122.071c2.157,0,3.931,1.762,3.931,3.927l0,0
		c0,2.161-1.773,3.927-3.931,3.927H243.78c-2.157,0-3.922-1.766-3.922-3.927l0,0C239.858,388.555,241.623,386.793,243.78,386.793"/>
	<path fill-rule="evenodd" clip-rule="evenodd" fill="#BCC2C6" d="M243.78,406.536h122.071c2.157,0,3.931,1.765,3.931,3.93l0,0
		c0,2.157-1.773,3.924-3.931,3.924H243.78c-2.157,0-3.922-1.767-3.922-3.924l0,0C239.858,408.301,241.623,406.536,243.78,406.536"/>
	<path fill-rule="evenodd" clip-rule="evenodd" fill="#BCC2C6" d="M243.78,426.273h57.109c2.156,0,3.931,1.767,3.931,3.932l0,0
		c0,2.165-1.774,3.931-3.931,3.931H243.78c-2.157,0-3.922-1.766-3.922-3.931l0,0C239.858,428.04,241.623,426.273,243.78,426.273"/>
</g>
</svg>
