<?xml version="1.0" encoding="utf-8"?>
<!-- Generator: Adobe Illustrator 15.1.0, SVG Export Plug-In . SVG Version: 6.00 Build 0)  -->
<!DOCTYPE svg PUBLIC "-//W3C//DTD SVG 1.0//EN" "http://www.w3.org/TR/2001/REC-SVG-20010904/DTD/svg10.dtd">
<svg version="1.0" id="Layer_1" xmlns="http://www.w3.org/2000/svg" xmlns:xlink="http://www.w3.org/1999/xlink" x="0px" y="0px"
	 width="800px" height="800px" viewBox="0 0 800 800" enable-background="new 0 0 800 800" xml:space="preserve">
<g id="Header">
	<path fill="#BCC2C6" d="M33.1,34.5h736.2c8.5,0,16.1,3.5,21.7,9l0,0c5.6,5.6,9,13.2,9,21.7v654.6c0,8.4-3.5,16.1-9,21.7l0,0
		c-5.6,5.6-13.2,9-21.7,9H33.1c-8.5,0-16.1-3.5-21.7-9l0,0c-5.6-5.6-9-13.2-9-21.7V65.2c0-8.4,3.5-16.1,9-21.7l0,0
		C16.9,38,24.6,34.5,33.1,34.5"/>
	<path fill="#EBEFF0" d="M788.9,65.2v654.6c0,12.3-8.6,19.6-19.6,19.6H33.1c-11,0-19.6-7-19.6-19.6V65.2c0-12.8,8.6-19.6,19.6-19.6
		h736.2C780.2,45.6,788.9,52.7,788.9,65.2"/>
	<path fill="#94A4A5" d="M677.6,72.3c7.8,0,14.2,6.4,14.2,14.2s-6.3,14.2-14.2,14.2c-7.9,0-14.2-6.3-14.2-14.2
		C663.4,78.7,669.7,72.3,677.6,72.3 M722.1,72.3c7.8,0,14.2,6.4,14.2,14.2s-6.4,14.2-14.2,14.2c-7.8,0-14.2-6.3-14.2-14.2
		C707.9,78.7,714.3,72.3,722.1,72.3z M633,72.3c7.8,0,14.2,6.4,14.2,14.2s-6.3,14.2-14.2,14.2c-7.8,0-14.2-6.4-14.2-14.2
		S625.2,72.3,633,72.3z"/>
	
		<text transform="matrix(1 0 0 1 177.0015 82.2969)" fill="#93A2A3" font-family="'NexaBold'" font-size="44.0749" letter-spacing="1">HEADER</text>
</g>
<g id="Body">
	<path fill="#BCC2C6" d="M29,124.4h744.3c7.3,0,14,3,18.8,7.8c4.8,4.8,7.8,11.5,7.8,18.8v572.8c0,7.3-3,14-7.8,18.8
		c-4.8,4.8-11.5,7.8-18.8,7.8H29c-7.3,0-14-3-18.8-7.8c-4.8-4.8-7.8-11.5-7.8-18.8V151.1c0-7.3,3-14,7.8-18.8
		C15,127.4,21.7,124.4,29,124.4"/>
	<path fill="#FFFFFF" d="M29,135.6c-4.1,0-8,1.6-11,4.6c-2.9,2.9-4.6,6.8-4.6,10.9v572.8c0,4.1,1.6,8,4.6,10.9
		c2.9,2.9,6.8,4.6,11,4.6h744.3c4.1,0,8-1.6,10.9-4.6c2.9-2.9,4.6-6.8,4.6-10.9V151.1c0-4.1-1.7-8-4.6-10.9
		c-2.9-2.9-6.8-4.6-10.9-4.6H29z"/>
	<path fill="#34495E" d="M648.8,170.3h72.7c4.2,0,7.7,3.5,7.7,7.7l0,0c0,4.2-3.5,7.7-7.7,7.7h-72.7c-4.3,0-7.7-3.5-7.7-7.7l0,0
		C641.1,173.7,644.5,170.3,648.8,170.3 M522.6,170.3c-4.2,0-7.7,3.5-7.7,7.7l0,0c0,4.2,3.5,7.7,7.7,7.7h97.8c4.2,0,7.7-3.5,7.7-7.7
		l0,0c0-4.2-3.5-7.7-7.7-7.7H522.6 M421,170.3c-4.2,0-7.7,3.5-7.7,7.7l0,0c0,4.2,3.5,7.7,7.7,7.7h72.7c4.3,0,7.7-3.5,7.7-7.7l0,0
		c0-4.2-3.5-7.7-7.7-7.7H421"/>
	<path fill="#34495E" d="M80.8,170.3h97.8c4.2,0,7.7,3.5,7.7,7.7l0,0c0,4.2-3.5,7.7-7.7,7.7H80.8c-4.2,0-7.7-3.5-7.7-7.7l0,0
		C73.1,173.7,76.6,170.3,80.8,170.3"/>
	<polygon fill="#34495E" points="203.9,267.9 598.5,267.9 607.5,267.9 607.5,276.9 607.5,519.5 607.5,528.5 598.5,528.5 
		203.9,528.5 194.9,528.5 194.9,519.5 194.9,276.9 194.9,267.9 	"/>
	<rect x="206.1" y="279.1" fill="#22A6EF" width="390.2" height="238.1"/>
	<path opacity="0.15" enable-background="new    " d="M518.4,473.4c2.2,2.9,3.1,5.9,3.1,8.7l0,0c0,2.2-0.6,4.2-1.5,6
		c-0.9,1.7-2.2,3-3.7,4.2c-2.5,1.8-5.7,2.8-8.9,2.8l0,0h-76H285.8c-3.5,0-6.6-1-8.9-2.7c-1.6-1.2-2.9-2.7-3.8-4.5l0,0
		c-0.8-1.7-1.3-3.6-1.3-5.7l0,0c0-3,1-6.2,3.3-9.3l31.9-43.3l0,0l2.9-3.9l0.4-0.5l0.1-0.1l39.4-52.4c1.4-1.8,2.9-3.4,4.5-4.6
		c3.1-2.3,6.4-3.5,9.9-3.4c3.5,0,6.8,1.2,9.8,3.4c1.6,1.2,3.1,2.7,4.5,4.6l37.6,50l18.2-24.2c1.4-1.8,2.9-3.4,4.5-4.6
		c3-2.3,6.4-3.4,9.9-3.4s6.8,1.1,9.9,3.4c1.6,1.2,3.1,2.7,4.5,4.6l20,26.5l0.1,0.1l0.3,0.4l5.1,6.7l-0.1,0.1L518.4,473.4z
		 M530.2,339.2L530.2,339.2C523,332,513,327.5,502,327.5s-20.9,4.5-28.1,11.7l0,0c-7.2,7.2-11.7,17.2-11.7,28.2s4.5,21,11.7,28.2
		c7.2,7.2,17.2,11.7,28.2,11.7s20.9-4.5,28.2-11.7l0,0c7.2-7.2,11.7-17.2,11.7-28.2C541.9,356.3,537.4,346.4,530.2,339.2z"/>
	<path fill="#34495E" d="M496.4,314.4c11,0,20.9,4.5,28.1,11.7l0,0c7.2,7.2,11.7,17.2,11.7,28.1c0,11-4.5,20.9-11.7,28.2l0,0
		c-7.2,7.2-17.2,11.7-28.1,11.7c-11,0-21-4.5-28.2-11.7c-7.2-7.2-11.7-17.2-11.7-28.2s4.5-20.9,11.7-28.1l0,0
		C475.5,318.8,485.4,314.4,496.4,314.4 M477.3,412.1L477.3,412.1l0.3,0.4l5.1,6.7l-0.1,0.1l30.2,41.1c2.2,2.9,3.1,5.9,3.1,8.7l0,0
		c0,2.2-0.5,4.2-1.5,6c-0.9,1.6-2.2,3-3.7,4.2c-2.5,1.8-5.7,2.8-8.9,2.8l0,0h-76.1H280.1c-3.5,0-6.5-1-8.9-2.7
		c-1.6-1.2-2.9-2.7-3.8-4.5l0,0c-0.8-1.7-1.3-3.6-1.3-5.7l0,0c0-3,1-6.2,3.3-9.3l31.9-43.3v-0.1l2.9-3.9l0.4-0.5l0,0l0.1-0.1
		l39.4-52.4c1.4-1.8,2.9-3.4,4.5-4.6c3.1-2.3,6.4-3.5,9.9-3.4c3.5,0,6.8,1.2,9.8,3.4c1.6,1.2,3.1,2.7,4.5,4.6l37.6,50l18.2-24.2
		c1.4-1.8,2.9-3.4,4.5-4.6c3-2.3,6.4-3.4,9.9-3.4s6.8,1.1,9.9,3.4c1.6,1.2,3.1,2.7,4.5,4.6L477.3,412.1L477.3,412.1z"/>
	<path fill="#39D4FF" d="M496.4,324.6c7.9,0,15.4,3.1,20.9,8.7l0,0c5.6,5.6,8.7,13,8.7,20.9c0,7.9-3.1,15.4-8.7,20.9l0,0
		c-5.6,5.6-13,8.7-20.9,8.7c-7.9,0-15.4-3.1-21-8.7c-5.6-5.6-8.7-13.1-8.7-21s3.1-15.3,8.7-20.9l0,0
		C481.1,327.7,488.5,324.6,496.4,324.6"/>
	<path fill="#39D4FF" d="M410.3,426.6l26.4-35.1c0.7-0.9,1.5-1.8,2.5-2.6c1.1-0.8,2.3-1.4,3.7-1.4c1.4,0,2.6,0.5,3.7,1.4
		c0.9,0.7,1.8,1.6,2.5,2.6l20.2,26.9l35.2,47.9c0.4,0.5,0.8,1.2,1,1.9l0.1,0.3v0.8l-0.1,0.3c-0.2,0.5-0.5,1-0.9,1.3
		c-0.6,0.4-1.4,0.7-2.1,0.8h-0.1h-76.7H280.1c-0.9,0-2.1-0.2-2.8-0.7l-0.4-0.3l-0.6-1.2v-1l0.1-0.2c0.2-0.9,0.7-1.8,1.2-2.5
		l34.8-47.3l39.7-52.7c0.7-0.9,1.5-1.8,2.5-2.6c1.1-0.8,2.3-1.4,3.8-1.4c1.4,0,2.6,0.6,3.7,1.4c0.9,0.7,1.8,1.6,2.5,2.6L410.3,426.6
		z"/>
	<path fill="#D7D7D7" d="M459.9,641.3H348.5c-4.3,0-8.2,1.8-11,4.6c-2.8,2.8-4.6,6.7-4.6,11c0,4.3,1.8,8.2,4.6,11l0,0
		c2.8,2.8,6.7,4.6,11,4.6H460c4.3,0,8.2-1.8,11-4.6c2.8-2.8,4.6-6.7,4.6-11c0-4.3-1.8-8.2-4.6-11
		C468.1,643.1,464.2,641.3,459.9,641.3 M348.5,626.1H460c8.5,0,16.2,3.5,21.8,9.1l0,0c5.6,5.6,9.1,13.3,9.1,21.8s-3.5,16.2-9.1,21.8
		c-5.6,5.6-13.3,9.1-21.8,9.1H348.5c-8.5,0-16.2-3.5-21.8-9.1l0,0l0,0c-5.6-5.6-9.1-13.3-9.1-21.8s3.5-16.2,9.1-21.8
		C332.3,629.5,340,626.1,348.5,626.1z"/>
	<path fill="#34495E" d="M342.4,613.4h111.5c8.5,0,16.2,3.5,21.8,9.1l0,0c5.6,5.6,9.1,13.3,9.1,21.8l0,0c0,8.5-3.5,16.2-9.1,21.8
		c-5.6,5.6-13.3,9.1-21.8,9.1H342.4c-8.5,0-16.2-3.5-21.8-9.1l0,0l0,0c-5.6-5.6-9.1-13.3-9.1-21.8l0,0c0-8.5,3.5-16.2,9.1-21.8
		C326.2,616.9,333.9,613.4,342.4,613.4"/>
	<path fill="#27CABF" d="M453.9,622.6c5.8,0,11.3,2.3,15.3,6.3c4.1,4.1,6.4,9.6,6.4,15.3c0,5.8-2.3,11.2-6.4,15.3
		c-4.1,4.1-9.6,6.4-15.3,6.4H342.4c-5.8,0-11.2-2.3-15.3-6.3l0,0c-4.1-4.1-6.3-9.6-6.3-15.3c0-5.8,2.3-11.2,6.4-15.3
		c4.1-4.1,9.6-6.4,15.3-6.4H453.9z"/>
	<path fill="#51F4E9" d="M453.9,622.6c5.8,0,11.3,2.3,15.3,6.3c4.1,4.1,6.4,9.6,6.4,15.3c0,1.5-0.2,2.9-0.5,4.4
		c-0.8-4.1-2.9-7.9-5.9-11c-4.1-4.1-9.6-6.3-15.3-6.3H342.4c-5.8,0-11.2,2.3-15.3,6.4c-3,3-5.1,6.8-5.9,11c-0.3-1.4-0.5-2.9-0.5-4.4
		c0-5.8,2.3-11.2,6.4-15.3c4.1-4.1,9.6-6.4,15.3-6.4H453.9z"/>
	<path fill="#BCC2C6" d="M299.6,564.8h203.1c4.1,0,7.5,3.3,7.5,7.5l0,0c0,4.1-3.3,7.4-7.5,7.4H299.6c-4.1,0-7.4-3.3-7.4-7.4l0,0
		C292.2,568.2,295.5,564.8,299.6,564.8"/>
</g>
</svg>
