<?xml version="1.0" encoding="utf-8"?>
<!-- Generator: Adobe Illustrator 15.1.0, SVG Export Plug-In . SVG Version: 6.00 Build 0)  -->
<!DOCTYPE svg PUBLIC "-//W3C//DTD SVG 1.0//EN" "http://www.w3.org/TR/2001/REC-SVG-20010904/DTD/svg10.dtd">
<svg version="1.0" id="Layer_1" xmlns="http://www.w3.org/2000/svg" xmlns:xlink="http://www.w3.org/1999/xlink" x="0px" y="0px"
	 width="800px" height="800px" viewBox="0 0 800 800" enable-background="new 0 0 800 800" xml:space="preserve">
<g id="Header">
	<path fill="#BCC2C6" d="M33.1,34.5h736.2c8.5,0,16.1,3.5,21.7,9l0,0c5.6,5.6,9,13.2,9,21.7v654.6c0,8.4-3.5,16.1-9,21.7l0,0
		c-5.6,5.6-13.2,9-21.7,9H33.1c-8.5,0-16.1-3.5-21.7-9l0,0c-5.6-5.6-9-13.2-9-21.7V65.2c0-8.4,3.5-16.1,9-21.7l0,0
		C16.9,38,24.6,34.5,33.1,34.5"/>
	<path fill="#EBEFF0" d="M788.9,65.2v654.6c0,12.3-8.6,19.6-19.6,19.6H33.1c-11,0-19.6-7-19.6-19.6V65.2c0-12.8,8.6-19.6,19.6-19.6
		h736.2C780.2,45.6,788.9,52.7,788.9,65.2"/>
	<path fill="#94A4A5" d="M677.6,72.3c7.8,0,14.2,6.4,14.2,14.2s-6.3,14.2-14.2,14.2c-7.9,0-14.2-6.3-14.2-14.2
		C663.4,78.7,669.7,72.3,677.6,72.3 M722.1,72.3c7.8,0,14.2,6.4,14.2,14.2s-6.4,14.2-14.2,14.2c-7.8,0-14.2-6.3-14.2-14.2
		C707.9,78.7,714.3,72.3,722.1,72.3z M633,72.3c7.8,0,14.2,6.4,14.2,14.2s-6.3,14.2-14.2,14.2c-7.8,0-14.2-6.4-14.2-14.2
		S625.2,72.3,633,72.3z"/>
	
		<text transform="matrix(1 0 0 1 202.0015 83.2969)" fill="#93A2A3" font-family="'NexaBold'" font-size="44.0749" letter-spacing="1">HEADER</text>
</g>
<g id="Body">
	<path fill="#BCC2C6" d="M28.5,124.6h744.8c7.3,0,14,3,18.8,7.8c4.8,4.8,7.8,11.5,7.8,18.8v573.1c0,7.3-3,14-7.8,18.8
		c-4.8,4.8-11.5,7.8-18.8,7.8H28.5c-7.3,0-14-3-18.8-7.8c-4.8-4.8-7.8-11.5-7.8-18.8v-573c0-7.3,3-14,7.8-18.8
		C14.5,127.6,21.2,124.6,28.5,124.6"/>
	<path fill="#FFFFFF" d="M28.5,135.8c-4.1,0-8,1.6-11,4.6c-2.9,2.9-4.6,6.8-4.6,11v573.1c0,4.1,1.7,8,4.6,11c2.9,2.9,6.8,4.6,11,4.6
		h744.8c4.1,0,8-1.7,11-4.6c2.9-2.9,4.6-6.8,4.6-11V151.3c0-4.1-1.6-8-4.6-11c-2.9-2.9-6.8-4.6-11-4.6L28.5,135.8L28.5,135.8z"/>
	<path fill="#34495E" d="M648.6,170.5h72.8c4.3,0,7.7,3.5,7.7,7.7l0,0c0,4.3-3.5,7.7-7.7,7.7h-72.8c-4.3,0-7.7-3.5-7.7-7.7l0,0
		C640.9,173.9,644.4,170.5,648.6,170.5"/>
	<path fill="#34495E" d="M522.4,170.5h97.8c4.2,0,7.7,3.5,7.7,7.7l0,0c0,4.3-3.5,7.7-7.7,7.7h-97.8c-4.3,0-7.7-3.5-7.7-7.7l0,0
		C514.7,173.9,518.2,170.5,522.4,170.5"/>
	<path fill="#34495E" d="M420.7,170.5h72.8c4.3,0,7.7,3.5,7.7,7.7l0,0c0,4.3-3.5,7.7-7.7,7.7h-72.8c-4.2,0-7.7-3.5-7.7-7.7l0,0
		C413,173.9,416.5,170.5,420.7,170.5"/>
	<path fill="#34495E" d="M80.4,170.5h97.8c4.2,0,7.7,3.5,7.7,7.7l0,0c0,4.3-3.5,7.7-7.7,7.7H80.4c-4.2,0-7.7-3.5-7.7-7.7l0,0
		C72.6,173.9,76.1,170.5,80.4,170.5"/>
	<path fill="#D7D7D7" d="M229.1,539.4H117.6c-4.3,0-8.2,1.8-11,4.6c-2.8,2.8-4.6,6.7-4.6,11l0,0c0,4.3,1.8,8.2,4.6,11l0,0
		c2.8,2.8,6.7,4.6,11,4.6h111.5c4.3,0,8.2-1.8,11-4.6c2.8-2.8,4.6-6.7,4.6-11l0,0c0-4.3-1.8-8.2-4.6-11
		C237.3,541.2,233.4,539.4,229.1,539.4 M117.6,524.2h111.5c8.5,0,16.2,3.5,21.8,9.1l0,0c5.6,5.6,9.1,13.3,9.1,21.8l0,0
		c0,8.5-3.5,16.2-9.1,21.8c-5.6,5.6-13.3,9.1-21.8,9.1H117.6c-8.5,0-16.2-3.5-21.8-9.1l0,0l0,0c-5.6-5.6-9.1-13.3-9.1-21.8l0,0
		c0-8.5,3.5-16.2,9.1-21.8C101.4,527.6,109.1,524.2,117.6,524.2z"/>
	<path fill="#34495E" d="M111.5,511.5H223c8.5,0,16.2,3.5,21.8,9.1l0,0c5.6,5.6,9.1,13.3,9.1,21.8l0,0c0,8.5-3.5,16.2-9.1,21.8
		c-5.6,5.6-13.3,9.1-21.8,9.1H111.5c-8.5,0-16.2-3.5-21.8-9.1l0,0l0,0c-5.6-5.6-9.1-13.3-9.1-21.8l0,0c0-8.5,3.5-16.2,9.1-21.8
		C95.3,515,103,511.5,111.5,511.5"/>
	<path fill="#27CABF" d="M223.1,520.7c5.8,0,11.3,2.3,15.3,6.4c4.1,4.1,6.4,9.6,6.4,15.3c0,5.8-2.3,11.3-6.4,15.3
		c-4.1,4.1-9.6,6.4-15.3,6.4H111.5c-5.8,0-11.3-2.3-15.3-6.3l0,0c-4.1-4.1-6.3-9.6-6.3-15.3c0-5.8,2.3-11.2,6.4-15.3
		c4.1-4.1,9.6-6.4,15.3-6.4L223.1,520.7L223.1,520.7z"/>
	<path fill="#51F4E9" d="M223.1,520.7c5.8,0,11.3,2.3,15.3,6.4c4.1,4.1,6.4,9.6,6.4,15.3c0,1.5-0.2,2.9-0.4,4.4
		c-0.9-4.1-2.9-7.9-5.9-11c-4.1-4.1-9.6-6.4-15.3-6.4H111.5c-5.8,0-11.3,2.3-15.3,6.4c-3,3-5.1,6.8-5.9,11c-0.3-1.4-0.4-2.9-0.4-4.4
		c0-5.8,2.3-11.2,6.4-15.3c4.1-4.1,9.6-6.4,15.3-6.4H223.1z"/>
	<path fill="#BCC2C6" d="M88.1,289.7h231.6c4.1,0,7.5,3.4,7.5,7.5c0,4.1-3.4,7.5-7.5,7.5H88.1c-4.1,0-7.4-3.3-7.4-7.5
		C80.7,293,84,289.7,88.1,289.7"/>
	<path fill="#BCC2C6" d="M88.1,327.2h231.6c4.1,0,7.5,3.4,7.5,7.5c0,4.1-3.4,7.4-7.5,7.4H88.1c-4.1,0-7.4-3.4-7.4-7.4
		C80.7,330.5,84,327.2,88.1,327.2"/>
	<path fill="#BCC2C6" d="M88.1,364.6h231.6c4.1,0,7.5,3.4,7.5,7.5s-3.4,7.5-7.5,7.5H88.1c-4.1,0-7.4-3.4-7.4-7.5
		S84,364.6,88.1,364.6"/>
	<path fill="#BCC2C6" d="M88.1,402.1h231.6c4.1,0,7.5,3.4,7.5,7.4l0,0c0,4.1-3.4,7.5-7.5,7.5H88.1c-4.1,0-7.4-3.4-7.4-7.5l0,0
		C80.7,405.4,84,402.1,88.1,402.1"/>
	<path fill="#BCC2C6" d="M88.1,439.6h108.3c4.1,0,7.5,3.4,7.5,7.5l0,0c0,4.1-3.4,7.4-7.5,7.4H88.1c-4.1,0-7.5-3.3-7.5-7.4l0,0
		C80.7,442.9,84,439.6,88.1,439.6"/>
	<path fill="#34495E" d="M511.7,554.1h123.4c3.1,0,5.6,2.5,5.6,5.6l0,0c0,3.1-2.5,5.6-5.6,5.6H511.7c-3.1,0-5.6-2.5-5.6-5.6l0,0
		C506.1,556.7,508.6,554.1,511.7,554.1"/>
	<rect x="550.9" y="511.9" fill="#34495E" width="45" height="53.4"/>
	<rect x="562" y="523" fill="#FFFFFF" width="22.7" height="31.1"/>
	<path fill="#34495E" d="M426.8,310.4H720c5,0,9.2,4.1,9.2,9.2v194.3c0,5-4.1,9.2-9.2,9.2H426.8c-5.1,0-9.2-4.1-9.2-9.2V319.5
		C417.6,314.5,421.7,310.4,426.8,310.4"/>
	<rect x="428.7" y="321.5" fill="#22A6EF" width="289.3" height="190.4"/>
	<path opacity="0.15" enable-background="new    " d="M641.8,373.5c-2.4-2.4-5.7-3.8-9.3-3.8s-6.9,1.5-9.3,3.8
		c-2.4,2.4-3.8,5.7-3.8,9.3c0,3.6,1.5,6.9,3.9,9.3c2.4,2.4,5.7,3.9,9.3,3.9c3.6,0,7-1.5,9.3-3.8c2.4-2.4,3.9-5.7,3.9-9.3
		C645.6,379.2,644.2,375.9,641.8,373.5 M632.5,358.9c6.6,0,12.6,2.7,17,7l0,0c4.3,4.3,7,10.4,7,17s-2.7,12.6-7,17l0,0
		c-4.3,4.3-10.4,7-17,7s-12.6-2.7-17-7c-4.3-4.3-7-10.3-7-17c0-6.6,2.7-12.6,7-17l0,0C619.9,361.5,625.9,358.9,632.5,358.9z
		 M621,417.8L621,417.8l0.2,0.2l3,4l0,0l18.2,24.8c1.3,1.8,1.8,3.6,1.8,5.2l0,0c0,1.3-0.3,2.5-0.9,3.6c-0.6,1-1.3,1.8-2.2,2.5
		c-1.5,1.1-3.4,1.7-5.4,1.7l0,0h-45.8h-87.8c-2.1,0-3.9-0.6-5.4-1.7c-1-0.7-1.7-1.6-2.3-2.7l0,0c-0.5-1-0.8-2.2-0.8-3.4l0,0
		c0-1.8,0.6-3.7,2-5.6l19.2-26.1l0,0l1.8-2.3l0.2-0.3l0,0l0,0l23.8-31.6c0.8-1.1,1.8-2,2.7-2.8c1.9-1.4,3.9-2.1,6-2.1
		c2.1,0,4.1,0.7,5.9,2.1c1,0.7,1.9,1.7,2.7,2.8l22.7,30.1l11-14.6c0.8-1.1,1.7-2,2.7-2.8c1.8-1.4,3.8-2.1,6-2.1c2.1,0,4.1,0.7,6,2.1
		c1,0.7,1.9,1.7,2.7,2.8L621,417.8L621,417.8z M630.6,449.1l-18.3-24.9l-0.8-1.1l-11.2-14.9l0,0l0,0L587.5,425l-2.6,3.5l-4.3,5.8
		l-4.3-5.8l-2.6-3.5l-24.4-32.4l0,0l0,0l-23,30.6l-0.7,0.9L507.3,449H590L630.6,449.1z"/>
	<path fill="#34495E" d="M629.1,348.1c6.6,0,12.6,2.7,17,7l0,0c4.3,4.3,7,10.4,7,17s-2.7,12.6-7,17l0,0c-4.3,4.3-10.4,7-17,7
		c-6.6,0-12.6-2.7-17-7c-4.3-4.3-7-10.4-7-17s2.7-12.6,7-17l0,0C616.5,350.8,622.5,348.1,629.1,348.1 M617.6,407L617.6,407l0.2,0.2
		l3,4l0,0L639,436c1.3,1.8,1.8,3.6,1.8,5.3l0,0c0,1.3-0.3,2.5-0.9,3.6c-0.6,1-1.3,1.8-2.2,2.5c-1.5,1.1-3.4,1.7-5.4,1.7l0,0h-45.8
		h-87.8c-2.1,0-3.9-0.6-5.4-1.6c-1-0.7-1.8-1.6-2.3-2.7l0,0c-0.5-1-0.8-2.2-0.8-3.4l0,0c0-1.8,0.6-3.7,2-5.6l19.2-26.1l0,0l1.8-2.3
		l0.2-0.3l0,0l23.8-31.6c0.8-1.1,1.8-2,2.7-2.8c1.9-1.4,3.9-2.1,6-2.1c2.1,0,4.1,0.7,5.9,2.1c1,0.7,1.9,1.7,2.7,2.8l22.7,30.1
		l11-14.6c0.8-1.1,1.7-2,2.7-2.8c1.8-1.4,3.8-2.1,5.9-2.1c2.1,0,4.1,0.7,6,2.1c1,0.7,1.9,1.6,2.7,2.8L617.6,407L617.6,407z"/>
	<path fill="#39D4FF" d="M629.1,356.9c-4.1,0-7.9,1.6-10.9,4.6l0,0c-2.9,2.9-4.5,6.7-4.5,10.8c0,4.1,1.6,7.9,4.5,10.8
		c2.9,2.9,6.7,4.5,10.8,4.5s7.9-1.6,10.9-4.6l0,0c2.9-2.9,4.5-6.7,4.5-10.8c0-4.1-1.6-7.9-4.4-10.7l-0.1-0.1
		C637,358.5,633.2,356.9,629.1,356.9 M499.7,440.4h86.8h44.8l-20.6-27.9l-12.2-16.2c-0.3-0.4-0.6-0.8-1-1c-0.2-0.1-0.4-0.3-0.7-0.3
		s-0.5,0.2-0.7,0.3c-0.4,0.3-0.7,0.7-1,1l-18,23.9l-29.7-39.4c-0.3-0.4-0.6-0.7-1-1c-0.2-0.1-0.4-0.3-0.7-0.3s-0.5,0.2-0.7,0.3
		c-0.4,0.3-0.7,0.7-1,1l-23.9,31.8L499.7,440.4z"/>
	<path fill="#34495E" d="M426.8,484.8H720c5,0,9.2,4.1,9.2,9.2v19.8c0,5-4.1,9.2-9.2,9.2H426.8c-5,0-9.2-4.1-9.2-9.2V494
		C417.6,489,421.7,484.8,426.8,484.8"/>
	<rect x="428.7" y="496" fill="#FFFFFF" width="289.3" height="15.9"/>
</g>
</svg>
