<?xml version="1.0" encoding="utf-8"?>
<!-- Generator: Adobe Illustrator 15.1.0, SVG Export Plug-In . SVG Version: 6.00 Build 0)  -->
<!DOCTYPE svg PUBLIC "-//W3C//DTD SVG 1.0//EN" "http://www.w3.org/TR/2001/REC-SVG-20010904/DTD/svg10.dtd">
<svg version="1.0" id="Layer_1" xmlns="http://www.w3.org/2000/svg" xmlns:xlink="http://www.w3.org/1999/xlink" x="0px" y="0px"
	 width="800px" height="800px" viewBox="0 0 800 800" enable-background="new 0 0 800 800" xml:space="preserve">
<g id="Header">
	<path fill="#BCC2C6" d="M33.1,34.5h736.2c8.5,0,16.1,3.5,21.7,9l0,0c5.6,5.6,9,13.2,9,21.7v654.6c0,8.4-3.5,16.1-9,21.7l0,0
		c-5.6,5.6-13.2,9-21.7,9H33.1c-8.5,0-16.1-3.5-21.7-9l0,0c-5.6-5.6-9-13.2-9-21.7V65.2c0-8.4,3.5-16.1,9-21.7l0,0
		C16.9,38,24.6,34.5,33.1,34.5"/>
	<path fill="#EBEFF0" d="M788.9,65.2v654.6c0,12.3-8.6,19.6-19.6,19.6H33.1c-11,0-19.6-7-19.6-19.6V65.2c0-12.8,8.6-19.6,19.6-19.6
		h736.2C780.2,45.6,788.9,52.7,788.9,65.2"/>
	<path fill="#94A4A5" d="M677.6,72.3c7.8,0,14.2,6.4,14.2,14.2s-6.3,14.2-14.2,14.2c-7.9,0-14.2-6.3-14.2-14.2
		C663.4,78.7,669.7,72.3,677.6,72.3 M722.1,72.3c7.8,0,14.2,6.4,14.2,14.2s-6.4,14.2-14.2,14.2c-7.8,0-14.2-6.3-14.2-14.2
		C707.9,78.7,714.3,72.3,722.1,72.3z M633,72.3c7.8,0,14.2,6.4,14.2,14.2s-6.3,14.2-14.2,14.2c-7.8,0-14.2-6.4-14.2-14.2
		S625.2,72.3,633,72.3z"/>
	
		<text transform="matrix(1 0 0 1 202.0015 84.2969)" fill="#93A2A3" font-family="'NexaBold'" font-size="44.0749" letter-spacing="2">HEADER</text>
</g>
<g id="Body">
	<path fill="#BCC2C6" d="M29,125.5h744.5c7.3,0,14,3,18.8,7.8c4.8,4.8,7.8,11.5,7.8,18.8V725c0,7.3-3,14-7.8,18.8
		s-11.5,7.8-18.8,7.8H29c-7.3,0-14-3-18.8-7.8C5.4,739,2.4,732.3,2.4,725V152.2c0-7.3,3-14,7.8-18.8C15,128.5,21.7,125.5,29,125.5"
		/>
	<path fill="#FFFFFF" d="M29,136.7c-4.1,0-8,1.6-10.9,4.6c-2.9,2.9-4.6,6.8-4.6,10.9v572.9c0,4.1,1.6,8,4.6,10.9
		c2.9,2.9,6.8,4.6,10.9,4.6h744.5c4.1,0,8-1.6,11-4.6c2.9-2.9,4.5-6.8,4.5-10.9V152.2c0-4.1-1.6-8-4.5-10.9c-2.9-2.9-6.8-4.6-11-4.6
		H29z"/>
	<path fill="#34495E" d="M648.9,171.4h72.8c4.2,0,7.7,3.5,7.7,7.7l0,0c0,4.2-3.5,7.7-7.7,7.7h-72.8c-4.2,0-7.7-3.5-7.7-7.7l0,0
		C641.2,174.8,644.7,171.4,648.9,171.4"/>
	<path fill="#34495E" d="M522.7,171.4h97.8c4.2,0,7.7,3.5,7.7,7.7l0,0c0,4.2-3.5,7.7-7.7,7.7h-97.8c-4.3,0-7.7-3.5-7.7-7.7l0,0
		C515,174.8,518.5,171.4,522.7,171.4"/>
	<path fill="#34495E" d="M421.1,171.4h72.8c4.2,0,7.7,3.5,7.7,7.7l0,0c0,4.2-3.5,7.7-7.7,7.7h-72.8c-4.2,0-7.7-3.5-7.7-7.7l0,0
		C413.4,174.8,416.8,171.4,421.1,171.4"/>
	<path fill="#34495E" d="M80.8,171.4h97.8c4.2,0,7.7,3.5,7.7,7.7l0,0c0,4.2-3.5,7.7-7.7,7.7H80.8c-4.2,0-7.7-3.5-7.7-7.7l0,0
		C73.1,174.8,76.6,171.4,80.8,171.4"/>
	<path fill="#BCC2C6" d="M460,642.5H348.5c-4.3,0-8.2,1.8-11,4.6c-2.8,2.8-4.6,6.7-4.6,11c0,4.3,1.8,8.2,4.6,11l0,0
		c2.8,2.8,6.7,4.6,11,4.6H460c4.3,0,8.2-1.8,11-4.6c2.8-2.8,4.6-6.7,4.6-11c0-4.3-1.8-8.2-4.6-11C468.2,644.3,464.3,642.5,460,642.5
		 M348.5,627.3H460c8.5,0,16.2,3.5,21.8,9.1l0,0c5.6,5.6,9,13.3,9,21.8s-3.5,16.2-9,21.8c-5.6,5.6-13.3,9.1-21.8,9.1H348.5
		c-8.5,0-16.2-3.5-21.8-9.1l0,0l0,0c-5.6-5.6-9.1-13.3-9.1-21.8s3.5-16.2,9.1-21.8C332.3,630.7,340,627.3,348.5,627.3z"/>
	<path fill="#34495E" d="M342.5,614.6H454c8.5,0,16.2,3.5,21.8,9.1l0,0c5.6,5.6,9.1,13.3,9.1,21.8l0,0c0,8.5-3.5,16.2-9.1,21.8
		c-5.6,5.6-13.3,9.1-21.8,9.1H342.5c-8.5,0-16.2-3.5-21.8-9.1l0,0l0,0c-5.6-5.6-9.1-13.3-9.1-21.8l0,0c0-8.5,3.5-16.2,9.1-21.8
		C326.2,618.1,334,614.6,342.5,614.6"/>
	<path fill="#27CABF" d="M454,623.8c5.8,0,11.3,2.3,15.3,6.4c4.1,4.1,6.3,9.6,6.3,15.3c0,5.8-2.3,11.2-6.4,15.3
		c-4.1,4.1-9.6,6.4-15.3,6.4H342.5c-5.8,0-11.2-2.3-15.3-6.3l0,0c-4.1-4.1-6.4-9.6-6.4-15.3c0-5.8,2.3-11.2,6.4-15.3
		c4.1-4.1,9.6-6.4,15.3-6.4H454V623.8z"/>
	<path fill="#51F4E9" d="M454,623.8c5.8,0,11.3,2.3,15.3,6.4c4.1,4.1,6.3,9.6,6.3,15.3c0,1.5-0.1,2.9-0.4,4.4
		c-0.9-4.1-2.9-7.9-5.9-11c-4.1-4.1-9.6-6.4-15.3-6.4H342.5c-5.8,0-11.2,2.3-15.3,6.4c-3,3-5.1,6.8-5.9,11c-0.3-1.4-0.4-2.9-0.4-4.4
		c0-5.8,2.3-11.2,6.4-15.3c4.1-4.1,9.6-6.4,15.3-6.4H454z"/>
	<path fill="#BCC2C6" d="M299.7,566h203.2c4.1,0,7.4,3.3,7.4,7.5l0,0c0,4.1-3.3,7.4-7.4,7.4H299.7c-4.1,0-7.4-3.3-7.4-7.4l0,0
		C292.2,569.4,295.6,566,299.7,566"/>
	<polygon fill="#34495E" points="203.9,269 598.6,269 607.6,269 607.6,278 607.6,520.7 607.6,529.7 598.6,529.7 203.9,529.7 
		194.9,529.7 194.9,520.7 194.9,278 194.9,269 	"/>
	<rect x="206.3" y="280.5" fill="#F65C4C" width="389.8" height="237.7"/>
	<path fill="#D63C2C" d="M445.4,421.7l-24.6,14.2l0,0l-24.6,14.2c-3.4,2-6.8,2.9-9.8,2.9c-2.6,0-5.1-0.7-7.2-1.9
		c-2.1-1.2-3.9-3-5.1-5.3c-1.6-2.7-2.5-6.1-2.5-9.9v-28.4v-28.4c0-3.9,0.9-7.2,2.4-9.9c1.3-2.3,3.1-4.1,5.3-5.3
		c2.2-1.2,4.6-1.9,7.1-1.9c3.1,0,6.5,0.9,9.8,2.9l0,0l24.6,14.2l24.6,14.2l0,0c3.4,2,5.8,4.4,7.4,7.1c1.3,2.3,2,4.7,2,7.2
		c0,2.4-0.7,4.8-2,7.1C451.2,417.4,448.7,419.8,445.4,421.7"/>
	<path fill="#34495E" d="M440.5,413.5l-24.6,14.2l0,0l-24.6,14.2c-3.4,2-6.8,2.9-9.8,2.9c-2.6,0-5.1-0.7-7.2-1.9
		c-2.1-1.2-3.9-3-5.2-5.3c-1.6-2.7-2.5-6.1-2.5-9.9v-28.4v-28.4c0-3.9,0.9-7.2,2.4-9.9c1.3-2.3,3.1-4.1,5.3-5.3
		c2.2-1.2,4.6-1.8,7.1-1.8c3.1,0,6.5,0.9,9.8,2.9l0,0l24.6,14.2l24.6,14.2l0,0c3.4,2,5.8,4.4,7.4,7.1c1.3,2.3,2,4.7,1.9,7.2
		c0,2.4-0.7,4.8-2,7.1C446.3,409.2,443.8,411.6,440.5,413.5"/>
	<path fill="#FFFFFF" d="M434.8,403.6c1.2-0.7,2.5-1.7,3.2-2.9c0.3-0.4,0.4-0.9,0.4-1.4s-0.2-0.9-0.4-1.4c-0.7-1.2-2-2.2-3.2-2.9
		l-24.6-14.2l-24.6-14.2c-1.2-0.7-2.7-1.3-4.1-1.3c-0.5,0-1,0.1-1.5,0.4c-0.4,0.2-0.7,0.6-1,1.1c-0.7,1.2-0.9,2.8-0.9,4.2v56.8
		c0,1.4,0.2,2.9,0.9,4.2c0.3,0.4,0.6,0.8,1,1.1c0.4,0.3,0.9,0.4,1.4,0.4c1.3,0,2.9-0.7,4.1-1.4L434.8,403.6z"/>
	<path fill="#34495E" d="M401.2,310.4c-49.1,0-88.9,39.8-88.9,88.9c0,49.1,39.8,88.9,88.9,88.9c49.1,0,88.9-39.8,88.9-88.9
		C490.1,350.3,450.3,310.4,401.2,310.4z M401.2,476.7c-42.7,0-77.4-34.6-77.4-77.4c0-42.7,34.6-77.4,77.4-77.4s77.5,34.7,77.4,77.4
		C478.6,442,444,476.7,401.2,476.7z"/>
</g>
</svg>
