<?xml version="1.0" encoding="utf-8"?>
<!-- Generator: Adobe Illustrator 15.1.0, SVG Export Plug-In . SVG Version: 6.00 Build 0)  -->
<!DOCTYPE svg PUBLIC "-//W3C//DTD SVG 1.0//EN" "http://www.w3.org/TR/2001/REC-SVG-20010904/DTD/svg10.dtd">
<svg version="1.0" id="Layer_1" xmlns="http://www.w3.org/2000/svg" xmlns:xlink="http://www.w3.org/1999/xlink" x="0px" y="0px"
	 width="800px" height="800px" viewBox="0 0 800 800" enable-background="new 0 0 800 800" xml:space="preserve">
<g id="Header">
	<path fill="#BBC0C5" d="M34.6,44.8H765c8.4,0,16,3.4,21.5,8.9l0,0c5.5,5.5,8.9,13.1,8.9,21.5v649.5c0,8.4-3.4,16-8.9,21.5l0,0
		c-5.5,5.5-13.1,8.9-21.5,8.9H34.6c-8.4,0-16-3.4-21.5-8.9l0,0c-5.5-5.5-8.9-13.1-8.9-21.5V75.3c0-8.4,3.4-16,8.9-21.5l0,0
		C18.5,48.2,26.2,44.8,34.6,44.8"/>
	<path fill="#EAEEEF" d="M784.4,75.3v649.5c0,12.2-8.5,19.4-19.4,19.4H34.6c-10.9,0-19.4-7-19.4-19.4V75.3
		c0-12.7,8.6-19.4,19.4-19.4H765C775.9,55.9,784.4,62.8,784.4,75.3"/>
	<path fill="#93A2A3" d="M674,82.3c7.8,0,14.1,6.3,14.1,14.1c0,7.8-6.3,14.1-14.1,14.1s-14.1-6.3-14.1-14.1
		C659.9,88.7,666.2,82.3,674,82.3 M718.2,82.3c7.8,0,14.1,6.3,14.1,14.1c0,7.8-6.3,14.1-14.1,14.1s-14.1-6.3-14.1-14.1
		C704.1,88.7,710.4,82.3,718.2,82.3z M629.8,82.3c7.8,0,14.1,6.3,14.1,14.1c0,7.8-6.3,14.1-14.1,14.1s-14.1-6.3-14.1-14.1
		C615.7,88.7,622,82.3,629.8,82.3z"/>
	
		<text transform="matrix(1 0 0 1 187.0015 94.6299)" fill="#93A2A3" font-family="'NexaBold'" font-size="44.0749" letter-spacing="2">HEADER</text>
</g>
<g id="Body">
	<path fill="#35495E" d="M30.5,134H769c7.3,0,13.9,3,18.7,7.8c4.8,4.8,7.8,11.4,7.8,18.7v568.3c0,7.3-3,13.9-7.8,18.7
		s-11.4,7.8-18.7,7.8H30.5c-7.3,0-13.9-3-18.7-7.8C7,742.7,4,736.1,4,728.8V160.5c0-7.3,3-13.9,7.8-18.7C16.6,137,23.3,134,30.5,134
		"/>
	<path fill="#3DA1DA" d="M30.5,145.1c-4.1,0-8,1.6-10.9,4.5s-4.5,6.8-4.5,10.9v568.3c0,4.1,1.6,8,4.5,10.9c2.9,2.9,6.8,4.5,10.9,4.5
		H769c4.1,0,8-1.6,10.9-4.5c2.9-2.9,4.5-6.8,4.5-10.9V160.5c0-4.1-1.6-8-4.5-10.9c-2.9-2.9-6.8-4.5-10.9-4.5H30.5z"/>
	<path fill="#35495E" d="M61.3,399.6l3.9-3.9l0,0l22.5-22.5l5.9-5.9c2.2-2.2,5.7-2.2,7.8,0c2.1,2.1,2.1,5.7,0,7.8l-5.9,5.9L77,399.6
		l20.6,20.6l3.9,3.9c2.1,2.1,2.1,5.7,0,7.8l0,0c-2.2,2.1-5.7,2.1-7.8,0l-3.9-3.9l-24.5-24.6l0,0L61.3,399.6z M738.2,399.6l-3.9-3.9
		l-22.5-22.5l-5.9-5.9c-2.1-2.2-5.7-2.2-7.8,0c-2.1,2.1-2.1,5.7,0,7.8l5.9,5.9l18.6,18.6L702,420.2l-3.9,3.9c-2.1,2.1-2.1,5.7,0,7.8
		l0,0c2.2,2.1,5.7,2.1,7.8,0l3.9-3.9l24.6-24.6l0,0L738.2,399.6z"/>
	<path fill="#1E8CC9" d="M541.5,361.1c0,11.3-4.6,21.5-12,28.9l0,0c-7.4,7.4-17.6,12-28.9,12c-11.3,0-21.6-4.6-29-12
		c-7.4-7.4-12-17.7-12-29s4.6-21.5,12-28.9l0,0c7.4-7.4,17.7-12,28.9-12c11.3,0,21.5,4.6,28.9,12l0,0
		C536.9,339.6,541.5,349.9,541.5,361.1z M486.3,427.9L486.3,427.9l-5.1-7l-0.3-0.4l-0.1-0.1l-20.5-27.3c-1.4-1.9-3-3.5-4.6-4.7
		c-3.1-2.4-6.6-3.5-10.2-3.5s-7,1.2-10.2,3.5c-1.6,1.2-3.2,2.8-4.6,4.7L412,418l-38.6-51.4c-1.4-1.9-3-3.5-4.6-4.7
		c-3.1-2.3-6.5-3.5-10.1-3.5c-3.6,0-7,1.1-10.2,3.5c-1.7,1.2-3.2,2.8-4.6,4.7l-40.5,53.8l-0.1,0.1l-0.4,0.5l-3,4v0.1l-32.7,44.5
		c-2.3,3.1-3.4,6.4-3.4,9.5l0,0c0,2.1,0.4,4.1,1.3,5.8l0,0c0.9,1.8,2.2,3.4,3.9,4.6c2.4,1.8,5.5,2.8,9.1,2.8h149.6h78.2l0,0
		c3.3,0,6.6-1,9.2-2.9c1.6-1.1,2.9-2.6,3.8-4.3c1-1.8,1.5-3.9,1.5-6.1l0,0c0-2.9-0.9-5.9-3.2-8.9L486.3,427.9z"/>
	<path fill="#35495E" d="M494.8,306.7c11.3,0,21.5,4.6,28.9,12l0,0c7.4,7.4,12,17.7,12,28.9c0,11.3-4.6,21.5-12,28.9l0,0
		c-7.4,7.4-17.6,12-28.9,12s-21.6-4.6-29-12c-7.4-7.4-12-17.7-12-29s4.6-21.5,12-28.9l0,0C473.3,311.3,483.5,306.7,494.8,306.7
		 M475.2,407.1L475.2,407.1l0.3,0.4l5.2,6.9l-0.1,0.1l31.1,42.3c2.2,3,3.2,6.1,3.2,9l0,0c0,2.3-0.5,4.3-1.5,6.1
		c-0.9,1.7-2.2,3.1-3.8,4.3c-2.6,1.9-5.8,2.9-9.2,2.9l0,0h-78.1H272.7c-3.6,0-6.7-1-9.1-2.8c-1.7-1.2-3-2.8-3.9-4.6l0,0
		c-0.9-1.7-1.3-3.7-1.3-5.8l0,0c0-3.1,1.1-6.4,3.4-9.5l32.7-44.5v-0.1l3-4l0.4-0.5l0,0l0.1-0.1l40.5-53.8c1.4-1.9,3-3.5,4.6-4.7
		c3.2-2.4,6.6-3.5,10.2-3.5c3.6,0,7,1.2,10.1,3.5c1.7,1.2,3.2,2.8,4.6,4.7l38.6,51.4l18.7-24.9c1.4-1.9,3-3.5,4.6-4.7
		c3.1-2.3,6.5-3.5,10.2-3.5c3.6,0,7,1.2,10.2,3.5c1.6,1.2,3.2,2.8,4.6,4.7L475.2,407.1L475.2,407.1z"/>
	<path fill="#53C8F1" d="M494.8,317.2c8.1,0,15.8,3.2,21.5,8.9l0,0c5.7,5.7,8.9,13.4,8.9,21.5s-3.2,15.8-8.9,21.5l0,0
		c-5.7,5.7-13.4,8.9-21.5,8.9c-8.1,0-15.8-3.2-21.5-8.9c-5.7-5.7-8.9-13.4-8.9-21.5s3.2-15.8,8.9-21.5l0,0
		C479,320.4,486.7,317.2,494.8,317.2"/>
	<path fill="#53C8F1" d="M406.3,422.1l27.1-36c0.7-1,1.6-1.9,2.6-2.6c1.2-0.9,2.4-1.4,3.9-1.4c1.4,0,2.7,0.6,3.8,1.4
		c1,0.7,1.8,1.7,2.6,2.6l20.8,27.6l36.2,49.2c0.4,0.5,0.8,1.3,1,1.9l0.1,0.3v0.8l-0.1,0.3c-0.2,0.6-0.5,1-1,1.4
		c-0.6,0.5-1.4,0.7-2.2,0.8H501h-78.8H272.6c-1,0-2.1-0.2-2.9-0.8l-0.4-0.3l-0.6-1.2V465v-0.2c0.2-0.9,0.7-1.8,1.3-2.5l35.8-48.7
		l40.8-54.2c0.7-1,1.6-1.9,2.6-2.6c1.2-0.9,2.4-1.4,3.8-1.4s2.7,0.6,3.8,1.4c1,0.7,1.8,1.7,2.5,2.6L406.3,422.1z"/>
	<path fill="#1E8CC9" d="M462.5,646.6H348c-4.4,0-8.4,1.8-11.3,4.7c-2.9,2.9-4.7,6.9-4.7,11.3c0,4.4,1.8,8.4,4.7,11.3l0,0
		c2.9,2.9,6.9,4.7,11.3,4.7h114.5c4.4,0,8.4-1.8,11.3-4.7c2.9-2.9,4.7-6.9,4.7-11.3c0-4.4-1.8-8.4-4.7-11.3
		C470.9,648.4,466.9,646.6,462.5,646.6 M348,630.9h114.5c8.7,0,16.6,3.6,22.4,9.3l0,0c5.8,5.8,9.3,13.7,9.3,22.4
		c0,8.7-3.6,16.7-9.3,22.4c-5.7,5.8-13.7,9.3-22.4,9.3H348c-8.7,0-16.6-3.6-22.4-9.3l0,0l0,0c-5.8-5.8-9.3-13.7-9.3-22.4
		c0-8.7,3.6-16.7,9.3-22.4C331.3,634.4,339.2,630.9,348,630.9z"/>
	<path fill="#35495E" d="M342.5,617.9H457c8.7,0,16.6,3.6,22.4,9.3l0,0c5.7,5.8,9.3,13.7,9.3,22.4c0,8.7-3.6,16.7-9.3,22.4
		c-5.8,5.8-13.7,9.3-22.4,9.3H342.5c-8.7,0-16.6-3.6-22.4-9.3l0,0l0,0c-5.8-5.8-9.3-13.7-9.3-22.4c0-8.7,3.6-16.7,9.3-22.4
		C325.9,621.5,333.8,617.9,342.5,617.9"/>
	<path fill="#42BEB8" d="M457.1,627.3c5.9,0,11.6,2.3,15.7,6.5c4.2,4.2,6.5,9.8,6.5,15.7s-2.4,11.5-6.5,15.7
		c-4.2,4.2-9.8,6.5-15.7,6.5H342.5c-5.9,0-11.6-2.3-15.7-6.5l0,0c-4.2-4.2-6.5-9.8-6.5-15.7s2.4-11.5,6.5-15.7
		c4.2-4.2,9.8-6.5,15.7-6.5H457.1z"/>
	<path fill="#7BCDD1" d="M457.1,627.3c5.9,0,11.6,2.3,15.7,6.5c4.2,4.2,6.5,9.8,6.5,15.7c0,1.5-0.2,3-0.5,4.5
		c-0.9-4.2-3-8.1-6.1-11.3c-4.2-4.2-9.8-6.5-15.7-6.5H342.5c-5.9,0-11.6,2.4-15.7,6.5c-3.1,3.1-5.2,7-6.1,11.3
		c-0.3-1.5-0.5-3-0.5-4.5c0-5.9,2.4-11.5,6.5-15.7c4.2-4.2,9.8-6.5,15.7-6.5H457.1z"/>
	<path fill="#35495E" d="M349.1,547.3c5.8,0,10.5,4.7,10.5,10.4c0,5.8-4.7,10.5-10.5,10.5c-5.8,0-10.4-4.7-10.4-10.5
		C338.7,552,343.3,547.3,349.1,547.3 M399.8,547.3c-5.8,0-10.4,4.7-10.4,10.4c0,5.8,4.7,10.5,10.4,10.5c5.8,0,10.5-4.7,10.5-10.5
		C410.2,552,405.6,547.3,399.8,547.3 M450.5,547.3c-5.8,0-10.5,4.7-10.5,10.4c0,5.8,4.7,10.5,10.5,10.5s10.4-4.7,10.4-10.5
		C460.9,552,456.3,547.3,450.5,547.3"/>
	<path fill="#35495E" d="M663.1,194.1h52.1c4.1,0,7.4,3.3,7.4,7.4s-3.3,7.4-7.4,7.4h-52.1c-4.1,0-7.4-3.3-7.4-7.4
		C655.7,197.5,659,194.1,663.1,194.1 M561.2,194.1c-4.1,0-7.4,3.3-7.4,7.4s3.3,7.4,7.4,7.4h71.1c4.1,0,7.4-3.3,7.4-7.4
		s-3.3-7.4-7.4-7.4H561.2 M477.9,194.1c-4.1,0-7.4,3.3-7.4,7.4s3.3,7.4,7.4,7.4H530c4.1,0,7.4-3.3,7.4-7.4s-3.3-7.4-7.4-7.4H477.9"
		/>
	<path fill="#35495E" d="M84.4,194.1h71.1c4.1,0,7.4,3.3,7.4,7.4s-3.3,7.4-7.4,7.4H84.4c-4.1,0-7.4-3.3-7.4-7.4
		C77,197.5,80.4,194.1,84.4,194.1"/>
</g>
</svg>
