<?xml version="1.0" encoding="utf-8"?>
<!-- Generator: Adobe Illustrator 15.1.0, SVG Export Plug-In . SVG Version: 6.00 Build 0)  -->
<!DOCTYPE svg PUBLIC "-//W3C//DTD SVG 1.0//EN" "http://www.w3.org/TR/2001/REC-SVG-20010904/DTD/svg10.dtd">
<svg version="1.0" id="Layer_1" xmlns="http://www.w3.org/2000/svg" xmlns:xlink="http://www.w3.org/1999/xlink" x="0px" y="0px"
	 width="800px" height="800px" viewBox="0 0 800 800" enable-background="new 0 0 800 800" xml:space="preserve">
<g id="Header">
	<path fill="#BCC2C6" d="M33.1,34.5h736.2c8.5,0,16.1,3.5,21.7,9l0,0c5.6,5.6,9,13.2,9,21.7v654.6c0,8.4-3.5,16.1-9,21.7l0,0
		c-5.6,5.6-13.2,9-21.7,9H33.1c-8.5,0-16.1-3.5-21.7-9l0,0c-5.6-5.6-9-13.2-9-21.7V65.2c0-8.4,3.5-16.1,9-21.7l0,0
		C16.9,38,24.6,34.5,33.1,34.5"/>
	<path fill="#EBEFF0" d="M788.9,65.2v654.6c0,12.3-8.6,19.6-19.6,19.6H33.1c-11,0-19.6-7-19.6-19.6V65.2c0-12.8,8.6-19.6,19.6-19.6
		h736.2C780.2,45.6,788.9,52.7,788.9,65.2"/>
	<path fill="#94A4A5" d="M677.6,72.3c7.8,0,14.2,6.4,14.2,14.2s-6.3,14.2-14.2,14.2c-7.9,0-14.2-6.3-14.2-14.2
		C663.4,78.7,669.7,72.3,677.6,72.3 M722.1,72.3c7.8,0,14.2,6.4,14.2,14.2s-6.4,14.2-14.2,14.2c-7.8,0-14.2-6.3-14.2-14.2
		C707.9,78.7,714.3,72.3,722.1,72.3z M633,72.3c7.8,0,14.2,6.4,14.2,14.2s-6.3,14.2-14.2,14.2c-7.8,0-14.2-6.4-14.2-14.2
		S625.2,72.3,633,72.3z"/>
	
		<text transform="matrix(1 0 0 1 186.0015 84.2969)" fill="#93A2A3" font-family="'NexaBold'" font-size="44.0749" letter-spacing="1">HEADER</text>
</g>
<g id="Body">
	<path fill="#BCC2C6" d="M29,125.7h744c7.3,0,14,3,18.8,7.8s7.8,11.5,7.8,18.8v572.5c0,7.3-3,14-7.8,18.8
		c-4.8,4.8-11.5,7.8-18.8,7.8H29c-7.3,0-14-3-18.8-7.8c-4.8-4.8-7.8-11.5-7.8-18.8V152.3c0-7.3,3-14,7.8-18.8
		C15,128.7,21.7,125.7,29,125.7"/>
	<path fill="#FFFFFF" d="M29,136.8c-4.1,0-8,1.6-10.9,4.6c-2.9,2.9-4.6,6.8-4.6,10.9v572.5c0,4.1,1.6,8,4.6,10.9
		c2.9,2.9,6.8,4.6,10.9,4.6h744c4.1,0,8-1.6,10.9-4.6c2.9-2.9,4.6-6.8,4.6-10.9V152.3c0-4.1-1.6-8-4.6-10.9
		c-2.9-2.9-6.8-4.6-10.9-4.6H29z"/>
	<path fill="#34495E" d="M648.5,171.5h72.7c4.2,0,7.7,3.5,7.7,7.7l0,0c0,4.2-3.5,7.7-7.7,7.7h-72.7c-4.2,0-7.7-3.5-7.7-7.7l0,0
		C640.8,174.9,644.3,171.5,648.5,171.5"/>
	<path fill="#34495E" d="M522.4,171.5h97.7c4.2,0,7.7,3.5,7.7,7.7l0,0c0,4.2-3.5,7.7-7.7,7.7h-97.7c-4.2,0-7.7-3.5-7.7-7.7l0,0
		C514.7,174.9,518.2,171.5,522.4,171.5"/>
	<path fill="#34495E" d="M420.8,171.5h72.7c4.2,0,7.7,3.5,7.7,7.7l0,0c0,4.2-3.5,7.7-7.7,7.7h-72.7c-4.2,0-7.7-3.5-7.7-7.7l0,0
		C413.1,174.9,416.6,171.5,420.8,171.5"/>
	<path fill="#34495E" d="M80.8,171.5h97.7c4.2,0,7.7,3.5,7.7,7.7l0,0c0,4.2-3.5,7.7-7.7,7.7H80.8c-4.2,0-7.7-3.5-7.7-7.7l0,0
		C73.1,174.9,76.6,171.5,80.8,171.5"/>
	<path fill="#D7D7D7" d="M237.4,543.2H126c-4.3,0-8.2,1.8-11,4.6s-4.6,6.7-4.6,11s1.7,8.2,4.5,11l0,0c2.8,2.8,6.7,4.6,11,4.6h111.4
		c4.3,0,8.2-1.8,11-4.6c2.8-2.8,4.6-6.7,4.6-11s-1.8-8.2-4.6-11C245.6,544.9,241.7,543.2,237.4,543.2 M126,527.9h111.4
		c8.5,0,16.2,3.5,21.8,9l0,0c5.6,5.6,9.1,13.3,9.1,21.8s-3.5,16.2-9.1,21.8c-5.6,5.6-13.3,9.1-21.8,9.1H126
		c-8.5,0-16.2-3.5-21.8-9.1l0,0l0,0c-5.6-5.6-9-13.3-9-21.8s3.5-16.2,9-21.8C109.8,531.4,117.5,527.9,126,527.9z"/>
	<path fill="#34495E" d="M120,515.3h111.4c8.5,0,16.2,3.5,21.8,9.1l0,0c5.6,5.6,9.1,13.3,9.1,21.8s-3.5,16.2-9.1,21.8
		c-5.6,5.6-13.3,9.1-21.8,9.1H120c-8.5,0-16.2-3.5-21.8-9.1l0,0l0,0c-5.6-5.6-9.1-13.3-9.1-21.8s3.5-16.2,9.1-21.8
		C103.8,518.8,111.5,515.3,120,515.3"/>
	<path fill="#27CABF" d="M231.4,524.5c5.8,0,11.3,2.3,15.3,6.3c4.1,4.1,6.3,9.6,6.3,15.3c0,5.8-2.3,11.3-6.4,15.3
		c-4.1,4.1-9.6,6.4-15.3,6.4H120c-5.8,0-11.3-2.3-15.3-6.3l0,0c-4.1-4.1-6.3-9.6-6.3-15.3s2.3-11.2,6.4-15.3
		c4.1-4.1,9.6-6.4,15.3-6.4H231.4z"/>
	<path fill="#51F4E9" d="M231.4,524.5c5.8,0,11.3,2.3,15.3,6.3c4.1,4.1,6.3,9.6,6.3,15.3c0,1.5-0.1,3-0.4,4.4
		c-0.8-4.1-2.9-7.9-5.9-11c-4.1-4.1-9.6-6.4-15.3-6.4H120c-5.8,0-11.3,2.3-15.3,6.4c-3,3-5.1,6.8-5.9,11c-0.3-1.4-0.4-2.9-0.4-4.4
		c0-5.7,2.3-11.2,6.4-15.3c4.1-4.1,9.6-6.4,15.3-6.4L231.4,524.5L231.4,524.5z"/>
	<rect x="415.1" y="287.5" fill="#34495E" width="297.8" height="297.8"/>
	<rect x="426.4" y="298.7" fill="#22A6EF" width="275.3" height="275.3"/>
	<path opacity="0.15" enable-background="new    " d="M653.3,394.8c-3.1-3.1-7.4-5-12.2-5c-4.8,0-9,1.9-12.2,5
		c-3.1,3.1-5,7.4-5,12.2c0,4.7,1.9,9,5,12.2c3.1,3.1,7.4,5,12.2,5c4.8,0,9.1-1.9,12.2-5c3.1-3.1,5-7.4,5-12.2
		S656.4,397.9,653.3,394.8 M641.1,375.6c8.6,0,16.5,3.5,22.1,9.2l0,0c5.7,5.7,9.2,13.5,9.2,22.1c0,8.6-3.5,16.5-9.2,22.1l0,0
		c-5.7,5.7-13.5,9.2-22.1,9.2c-8.6,0-16.5-3.5-22.2-9.2c-5.7-5.7-9.2-13.5-9.2-22.2c0-8.6,3.5-16.5,9.2-22.1l0,0
		C624.6,379.1,632.5,375.6,641.1,375.6z M626.1,452.5L626.1,452.5l0.2,0.3l4,5.3h-0.1l23.8,32.3c1.7,2.3,2.4,4.7,2.4,6.9l0,0
		c0,1.7-0.4,3.3-1.2,4.7c-0.7,1.3-1.7,2.4-2.9,3.3c-2,1.4-4.5,2.2-7,2.2l0,0h-59.8H471c-2.8,0-5.2-0.8-7-2.1c-1.3-0.9-2.3-2.1-3-3.6
		l0,0c-0.7-1.3-1-2.8-1-4.5l0,0c0-2.4,0.8-4.9,2.6-7.3l25.1-34.1l0,0l2.3-3l0.3-0.4l0,0v-0.1l31-41.2c1.1-1.5,2.3-2.7,3.6-3.6
		c2.4-1.8,5.1-2.7,7.8-2.7s5.4,0.9,7.7,2.7c1.3,0.9,2.5,2.2,3.6,3.6l29.6,39.3l14.3-19c1.1-1.5,2.3-2.7,3.6-3.6
		c2.4-1.8,5-2.7,7.8-2.7c2.7,0,5.4,0.9,7.8,2.7c1.3,0.9,2.5,2.2,3.6,3.6L626.1,452.5L626.1,452.5z M638.6,493.3l-23.9-32.5l-1-1.4
		L599.1,440l0,0l0,0l-16.5,22l-3.4,4.5l-5.7,7.5l-5.6-7.5l-3.4-4.5l-31.8-42.3l0,0l0,0l-30,39.9l-0.9,1.2l-23.9,32.5h107.8H638.6
		L638.6,493.3z"/>
	<path fill="#34495E" d="M636.7,365.3c8.6,0,16.5,3.5,22.1,9.2l0,0c5.7,5.7,9.2,13.5,9.2,22.1c0,8.6-3.5,16.4-9.2,22.1l0,0
		c-5.7,5.7-13.5,9.2-22.1,9.2c-8.7,0-16.5-3.5-22.2-9.2s-9.2-13.5-9.2-22.2s3.5-16.5,9.2-22.1l0,0
		C620.2,368.8,628.1,365.3,636.7,365.3 M621.7,442.2L621.7,442.2l0.2,0.3l4,5.3l0,0l23.8,32.3c1.7,2.3,2.4,4.7,2.4,6.9l0,0
		c0,1.7-0.4,3.3-1.2,4.7c-0.7,1.3-1.7,2.4-2.9,3.3c-2,1.4-4.5,2.2-7,2.2l0,0h-59.8H466.7c-2.8,0-5.2-0.8-7-2.1
		c-1.3-0.9-2.3-2.1-3-3.6l0,0c-0.7-1.3-1-2.8-1-4.5l0,0c0-2.4,0.8-4.9,2.6-7.3l25.1-34.1l0,0l2.3-3l0.3-0.4l0,0v-0.1l31-41.2
		c1.1-1.5,2.3-2.7,3.6-3.6c2.4-1.8,5.1-2.7,7.8-2.7c2.7,0,5.4,0.9,7.7,2.7c1.3,0.9,2.5,2.1,3.6,3.6l29.6,39.3l14.3-19
		c1.1-1.5,2.3-2.7,3.6-3.6c2.4-1.8,5-2.7,7.8-2.7c2.7,0,5.4,0.9,7.8,2.7c1.3,0.9,2.5,2.2,3.6,3.6L621.7,442.2L621.7,442.2z"/>
	<path fill="#D0D2D3" d="M549,465.8L528.1,438l-17.7,23.5l-3.1,4.3H549z M596.2,460.4l-1.5-2l-5.6,7.5h11.2l-3.2-4.3L596.2,460.4z"
		/>
	<path fill="#39D4FF" d="M621.3,381.9c-3.8,4-6,9.2-6,14.8c0,5.7,2.2,11.1,6.3,15.1c4,4,9.4,6.3,15.1,6.3c5.5,0,10.7-2.1,14.7-5.9
		l0.4-0.4c4-4,6.3-9.4,6.3-15.1s-2.2-11-6.3-15.1l0,0c-4-4-9.4-6.3-15.1-6.3s-11.1,2.2-15.1,6.3L621.3,381.9z M613.5,447.9
		L598,427.2c-0.4-0.6-1-1.2-1.5-1.6c-0.5-0.4-1.1-0.7-1.8-0.7s-1.3,0.3-1.8,0.7c-0.6,0.5-1.1,1-1.6,1.6L569,456.9L531.4,407
		c-0.4-0.6-1-1.2-1.6-1.6c-0.5-0.4-1.1-0.7-1.8-0.7s-1.2,0.3-1.8,0.7c-0.6,0.4-1.1,1-1.6,1.6l-31.2,41.5l-27.3,37.2
		c-0.2,0.3-0.6,0.9-0.7,1.3c0.2,0.2,0.8,0.2,1.1,0.2h174.3c0.3,0,0.8-0.1,1.1-0.2c0-0.2-0.3-0.7-0.5-0.9l-27.5-37.4L613.5,447.9z"/>
	<path fill="#BCC2C6" d="M96.5,293.7h231.4c4.1,0,7.5,3.3,7.5,7.5l0,0c0,4.1-3.4,7.4-7.5,7.4H96.5c-4.1,0-7.4-3.3-7.4-7.4l0,0
		C89.1,297.1,92.5,293.7,96.5,293.7"/>
	<path fill="#BCC2C6" d="M96.5,331.1h231.4c4.1,0,7.5,3.3,7.5,7.4l0,0c0,4.1-3.4,7.5-7.5,7.5H96.5c-4.1,0-7.4-3.3-7.4-7.5l0,0
		C89.1,334.5,92.5,331.1,96.5,331.1"/>
	<path fill="#BCC2C6" d="M96.5,368.6h231.4c4.1,0,7.5,3.3,7.5,7.4l0,0c0,4.1-3.4,7.4-7.5,7.4H96.5c-4.1,0-7.4-3.3-7.4-7.4l0,0
		C89.1,371.9,92.5,368.6,96.5,368.6"/>
	<path fill="#BCC2C6" d="M96.5,406h231.4c4.1,0,7.5,3.3,7.5,7.5l0,0c0,4.1-3.4,7.4-7.5,7.4H96.5c-4.1,0-7.4-3.3-7.4-7.4l0,0
		C89.1,409.3,92.5,406,96.5,406"/>
	<path fill="#BCC2C6" d="M96.5,443.4h108.2c4.1,0,7.5,3.3,7.5,7.5l0,0c0,4.1-3.4,7.5-7.5,7.5H96.5c-4.1,0-7.4-3.3-7.4-7.5l0,0
		C89.1,446.7,92.5,443.4,96.5,443.4"/>
</g>
</svg>
