<?xml version="1.0" encoding="utf-8"?>
<!-- Generator: Adobe Illustrator 15.1.0, SVG Export Plug-In . SVG Version: 6.00 Build 0)  -->
<!DOCTYPE svg PUBLIC "-//W3C//DTD SVG 1.0//EN" "http://www.w3.org/TR/2001/REC-SVG-20010904/DTD/svg10.dtd">
<svg version="1.0" id="Layer_1" xmlns="http://www.w3.org/2000/svg" xmlns:xlink="http://www.w3.org/1999/xlink" x="0px" y="0px"
	 width="800px" height="800px" viewBox="0 0 800 800" enable-background="new 0 0 800 800" xml:space="preserve">
<g id="Header">
	<path fill="#BCC2C6" d="M33.1,34.5h736.2c8.5,0,16.1,3.5,21.7,9l0,0c5.6,5.6,9,13.2,9,21.7v654.6c0,8.4-3.5,16.1-9,21.7l0,0
		c-5.6,5.6-13.2,9-21.7,9H33.1c-8.5,0-16.1-3.5-21.7-9l0,0c-5.6-5.6-9-13.2-9-21.7V65.2c0-8.4,3.5-16.1,9-21.7l0,0
		C16.9,38,24.6,34.5,33.1,34.5"/>
	<path fill="#EBEFF0" d="M788.9,65.2v654.6c0,12.3-8.6,19.6-19.6,19.6H33.1c-11,0-19.6-7-19.6-19.6V65.2c0-12.8,8.6-19.6,19.6-19.6
		h736.2C780.2,45.6,788.9,52.7,788.9,65.2"/>
	<path fill="#94A4A5" d="M677.6,72.3c7.8,0,14.2,6.4,14.2,14.2s-6.3,14.2-14.2,14.2c-7.9,0-14.2-6.3-14.2-14.2
		C663.4,78.7,669.7,72.3,677.6,72.3 M722.1,72.3c7.8,0,14.2,6.4,14.2,14.2s-6.4,14.2-14.2,14.2c-7.8,0-14.2-6.3-14.2-14.2
		C707.9,78.7,714.3,72.3,722.1,72.3z M633,72.3c7.8,0,14.2,6.4,14.2,14.2s-6.3,14.2-14.2,14.2c-7.8,0-14.2-6.4-14.2-14.2
		S625.2,72.3,633,72.3z"/>
	<text transform="matrix(1 0 0 1 53.7515 81.4961)" fill="#93A2A3" font-family="'NexaBold'" font-size="37.4316">FORGOT PASSWORD</text>
</g>
<g id="Body">
	<path fill="#BCC2C6" d="M28.8,126.4h744.5c7.3,0,14,3,18.8,7.8c4.8,4.8,7.8,11.5,7.8,18.8v572.9c0,7.3-3,14-7.8,18.8
		c-4.8,4.8-11.5,7.8-18.8,7.8H28.8c-7.3,0-14-3-18.8-7.8s-7.8-11.5-7.8-18.8V153c0-7.3,3-14,7.8-18.8
		C14.8,129.4,21.5,126.4,28.8,126.4"/>
	<path fill="#FFFFFF" d="M28.8,137.5c-4.1,0-8,1.6-11,4.5c-2.9,2.9-4.6,6.8-4.6,11v572.9c0,4.1,1.7,8,4.6,11c2.9,2.9,6.8,4.6,11,4.6
		h744.5c4.1,0,8-1.6,11-4.6c2.9-2.9,4.6-6.8,4.6-11V153c0-4.1-1.6-8-4.6-11c-2.9-2.9-6.8-4.5-11-4.5H28.8z"/>
	<path fill="#BCC2C6" d="M601.9,490.4H490.4c-4.3,0-8.2,1.8-11,4.6c-2.8,2.8-4.6,6.7-4.6,11s1.7,8.2,4.6,11l0,0
		c2.8,2.8,6.7,4.5,11,4.5h111.5c4.3,0,8.2-1.8,11-4.6c2.8-2.8,4.6-6.7,4.6-11c0-4.3-1.8-8.2-4.6-11
		C610.1,492.2,606.2,490.4,601.9,490.4 M490.4,475.1h111.5c8.5,0,16.2,3.5,21.8,9.1l0,0c5.6,5.6,9.1,13.3,9.1,21.8
		s-3.5,16.2-9.1,21.8c-5.6,5.6-13.3,9.1-21.8,9.1H490.4c-8.5,0-16.2-3.5-21.8-9.1l0,0l0,0c-5.6-5.6-9.1-13.3-9.1-21.8
		s3.5-16.2,9.1-21.8C474.1,478.6,481.9,475.1,490.4,475.1z"/>
	<path fill="#34495E" d="M484.3,462.5h111.5c8.5,0,16.2,3.5,21.8,9.1l0,0c5.6,5.6,9.1,13.3,9.1,21.8l0,0c0,8.5-3.5,16.2-9.1,21.8
		c-5.6,5.6-13.3,9.1-21.8,9.1H484.3c-8.5,0-16.2-3.5-21.8-9.1l0,0l0,0c-5.6-5.6-9.1-13.3-9.1-21.8l0,0c0-8.5,3.5-16.2,9.1-21.8
		C468.1,466,475.8,462.5,484.3,462.5"/>
	<path fill="#27CABF" d="M595.8,471.7c5.8,0,11.3,2.3,15.3,6.3c4.1,4.1,6.3,9.6,6.3,15.3c0,5.8-2.3,11.2-6.4,15.3
		c-4.1,4.1-9.6,6.4-15.3,6.4H484.3c-5.8,0-11.3-2.3-15.3-6.3l0,0c-4.1-4.1-6.3-9.6-6.3-15.3c0-5.8,2.3-11.2,6.4-15.3
		c4.1-4.1,9.6-6.4,15.3-6.4H595.8L595.8,471.7z"/>
	<path fill="#51F4E9" d="M595.8,471.7c5.8,0,11.3,2.3,15.3,6.3c4.1,4.1,6.3,9.6,6.3,15.3c0,1.5-0.1,2.9-0.4,4.4
		c-0.9-4.1-2.9-7.9-5.9-11c-4.1-4.1-9.6-6.3-15.3-6.3H484.3c-5.8,0-11.3,2.3-15.3,6.4c-3,3-5.1,6.8-5.9,11c-0.3-1.4-0.4-2.9-0.4-4.4
		c0-5.8,2.3-11.2,6.4-15.3c4.1-4.1,9.6-6.4,15.3-6.4H595.8z"/>
	<path fill="#BCC2C6" d="M187.1,374.5H615c5.2,0,9.4,4.3,9.4,9.4v28.9c0,5.2-4.2,9.4-9.4,9.4H187.1c-5.2,0-9.4-4.2-9.4-9.4v-28.9
		C177.7,378.7,181.9,374.5,187.1,374.5"/>
	<rect x="188.8" y="385.6" fill="#FFFFFF" width="424.5" height="25.5"/>
	<path fill="#BCC2C6" d="M278.6,296.2h245c4.3,0,7.9,3.6,7.9,7.9l0,0c0,4.3-3.5,7.9-7.9,7.9h-245c-4.3,0-7.9-3.6-7.9-7.9l0,0
		C270.7,299.7,274.2,296.2,278.6,296.2"/>
	<path fill="#BCC2C6" d="M185.6,507.8h196.5c4.3,0,7.9,3.6,7.9,7.9l0,0c0,4.3-3.5,7.9-7.9,7.9H185.6c-4.3,0-7.9-3.5-7.9-7.9l0,0
		C177.7,511.3,181.2,507.8,185.6,507.8"/>
	<path fill="#BCC2C6" d="M185.6,468.3h124.9c4.3,0,7.9,3.6,7.9,7.9l0,0c0,4.3-3.6,7.9-7.9,7.9H185.6c-4.3,0-7.9-3.6-7.9-7.9l0,0
		C177.7,471.9,181.2,468.3,185.6,468.3"/>
</g>
</svg>
