<?xml version="1.0" encoding="utf-8"?>
<!-- Generator: Adobe Illustrator 15.1.0, SVG Export Plug-In . SVG Version: 6.00 Build 0)  -->
<!DOCTYPE svg PUBLIC "-//W3C//DTD SVG 1.0//EN" "http://www.w3.org/TR/2001/REC-SVG-20010904/DTD/svg10.dtd">
<svg version="1.0" id="Layer_1" xmlns="http://www.w3.org/2000/svg" xmlns:xlink="http://www.w3.org/1999/xlink" x="0px" y="0px"
	 width="800px" height="800px" viewBox="0 0 800 800" enable-background="new 0 0 800 800" xml:space="preserve">
<g id="Header">
	<path fill="#BCC2C6" d="M33.1,34.5h736.2c8.5,0,16.1,3.5,21.7,9l0,0c5.6,5.6,9,13.2,9,21.7v654.6c0,8.4-3.5,16.1-9,21.7l0,0
		c-5.6,5.6-13.2,9-21.7,9H33.1c-8.5,0-16.1-3.5-21.7-9l0,0c-5.6-5.6-9-13.2-9-21.7V65.2c0-8.4,3.5-16.1,9-21.7l0,0
		C16.9,38,24.6,34.5,33.1,34.5"/>
	<path fill="#EBEFF0" d="M788.9,65.2v654.6c0,12.3-8.6,19.6-19.6,19.6H33.1c-11,0-19.6-7-19.6-19.6V65.2c0-12.8,8.6-19.6,19.6-19.6
		h736.2C780.2,45.6,788.9,52.7,788.9,65.2"/>
	<path fill="#94A4A5" d="M677.6,72.3c7.8,0,14.2,6.4,14.2,14.2s-6.3,14.2-14.2,14.2c-7.9,0-14.2-6.3-14.2-14.2
		C663.4,78.7,669.7,72.3,677.6,72.3 M722.1,72.3c7.8,0,14.2,6.4,14.2,14.2s-6.4,14.2-14.2,14.2c-7.8,0-14.2-6.3-14.2-14.2
		C707.9,78.7,714.3,72.3,722.1,72.3z M633,72.3c7.8,0,14.2,6.4,14.2,14.2s-6.3,14.2-14.2,14.2c-7.8,0-14.2-6.4-14.2-14.2
		S625.2,72.3,633,72.3z"/>
	<text transform="matrix(1 0 0 1 59.7515 78.4961)" fill="#93A2A3" font-family="'NexaBold'" font-size="37.4316">FORGOT PASSWORD</text>
</g>
<g id="Body">
	<path fill="#34495E" d="M29,126.2h744.4c7.3,0,14,3,18.8,7.8s7.8,11.5,7.8,18.8v572.8c0,7.3-3,14-7.8,18.8
		c-4.8,4.8-11.5,7.8-18.8,7.8H29c-7.3,0-14-3-18.8-7.8c-4.8-4.8-7.8-11.5-7.8-18.8V152.9c0-7.3,3-14,7.8-18.8
		C15,129.2,21.6,126.2,29,126.2"/>
	<path fill="#FFFFFF" d="M29,137.4c-4.1,0-8,1.6-11,4.5c-2.9,2.9-4.6,6.8-4.6,11v572.8c0,4.1,1.7,8,4.6,11c2.9,2.9,6.8,4.6,11,4.6
		h744.4c4.1,0,8-1.6,10.9-4.6c2.9-2.9,4.6-6.8,4.6-11V152.9c0-4.1-1.6-8-4.6-11c-2.9-2.9-6.8-4.5-10.9-4.5H29z"/>
	<path fill="#34495E" d="M648.8,172.1h72.7c4.3,0,7.7,3.5,7.7,7.7l0,0c0,4.2-3.5,7.7-7.7,7.7h-72.7c-4.3,0-7.7-3.5-7.7-7.7l0,0
		C641.1,175.5,644.5,172.1,648.8,172.1"/>
	<path fill="#34495E" d="M522.6,172.1h97.8c4.2,0,7.7,3.5,7.7,7.7l0,0c0,4.2-3.5,7.7-7.7,7.7h-97.8c-4.2,0-7.7-3.5-7.7-7.7l0,0
		C514.9,175.5,518.4,172.1,522.6,172.1"/>
	<path fill="#34495E" d="M421,172.1h72.7c4.3,0,7.7,3.5,7.7,7.7l0,0c0,4.2-3.5,7.7-7.7,7.7H421c-4.2,0-7.7-3.5-7.7-7.7l0,0
		C413.3,175.5,416.7,172.1,421,172.1"/>
	<path fill="#34495E" d="M80.8,172.1h97.8c4.2,0,7.7,3.5,7.7,7.7l0,0c0,4.2-3.5,7.7-7.7,7.7H80.8c-4.2,0-7.7-3.5-7.7-7.7l0,0
		C73.1,175.5,76.6,172.1,80.8,172.1"/>
	<polygon fill="#34495E" points="203.8,269.7 598.5,269.7 607.5,269.7 607.5,278.7 607.5,521.3 607.5,530.3 598.5,530.3 
		203.8,530.3 194.8,530.3 194.8,521.3 194.8,278.7 194.8,269.7 	"/>
	<rect x="206.1" y="280.9" fill="#22A6EF" width="390.2" height="238.1"/>
	<path opacity="0.15" enable-background="new    " d="M517.5,353.7c-4-3.9-9.4-6.4-15.5-6.4c-6,0-11.5,2.4-15.5,6.4
		c-3.9,3.9-6.4,9.4-6.4,15.5c0,6.1,2.4,11.5,6.4,15.5c3.9,3.9,9.4,6.4,15.4,6.4s11.5-2.4,15.5-6.4c3.9-3.9,6.4-9.4,6.4-15.5
		C523.8,363.1,521.4,357.6,517.5,353.7 M502,329.3c11,0,20.9,4.5,28.2,11.7l0,0c7.2,7.2,11.7,17.2,11.7,28.1
		c0,11-4.5,20.9-11.7,28.2l0,0C522.9,404.5,513,409,502,409s-21-4.5-28.2-11.7c-7.2-7.2-11.7-17.2-11.7-28.2s4.5-20.9,11.7-28.1l0,0
		C481.1,333.7,491,329.3,502,329.3z M482.9,427L482.9,427l0.3,0.4l5.1,6.7l-0.1,0.1l30.3,41.1c2.2,3,3.1,5.9,3.1,8.7l0,0
		c0,2.2-0.5,4.2-1.5,6c-0.9,1.7-2.2,3-3.7,4.2c-2.5,1.8-5.7,2.8-8.9,2.8l0,0h-76H285.9c-3.5,0-6.6-1-8.9-2.7
		c-1.6-1.2-2.9-2.7-3.8-4.5l0,0c-0.9-1.7-1.3-3.6-1.3-5.7l0,0c0-3,1-6.2,3.3-9.3l31.9-43.3l0,0l2.9-3.9l0.4-0.5l0,0l0.1-0.1
		l39.4-52.4c1.4-1.8,2.9-3.4,4.5-4.6c3.1-2.3,6.4-3.5,9.9-3.4c3.5,0,6.8,1.2,9.8,3.4c1.6,1.2,3.1,2.7,4.5,4.6l37.6,50l18.2-24.2
		c1.4-1.8,2.9-3.4,4.5-4.6c3-2.3,6.4-3.4,9.9-3.4s6.8,1.1,9.9,3.4c1.6,1.2,3.1,2.7,4.5,4.6L482.9,427L482.9,427z M498.8,478.9
		l-30.4-41.3l-1.3-1.7l-18.6-24.7v-0.1v0.1l-21,27.9l-4.3,5.8l-7.2,9.5l-7.2-9.5l-4.3-5.8l-40.4-53.7v-0.1v0.1l-38.2,50.8l-1.1,1.5
		L294.4,479h137.2L498.8,478.9z"/>
	<path fill="#34495E" d="M496.4,316.2c11,0,20.9,4.5,28.2,11.7l0,0c7.2,7.2,11.7,17.2,11.7,28.2s-4.5,20.9-11.7,28.2l0,0
		c-7.2,7.2-17.2,11.7-28.2,11.7s-21-4.5-28.2-11.7C461,377,456.5,367,456.5,356s4.5-20.9,11.7-28.2l0,0
		C475.4,320.6,485.4,316.2,496.4,316.2 M477.3,413.9L477.3,413.9l0.3,0.4l5.1,6.7h-0.1l30.3,41.1c2.2,2.9,3.1,5.9,3.1,8.7l0,0
		c0,2.2-0.6,4.2-1.5,6c-0.9,1.7-2.2,3.1-3.7,4.2c-2.5,1.8-5.7,2.8-8.9,2.8l0,0h-76H280.3c-3.5,0-6.6-1-8.9-2.7
		c-1.6-1.2-2.9-2.7-3.8-4.5l0,0c-0.9-1.7-1.3-3.6-1.3-5.7l0,0c0-3,1-6.2,3.3-9.3l31.9-43.3v-0.1l2.9-3.9l0.4-0.5l0,0l0.1-0.1
		l39.4-52.4c1.4-1.8,2.9-3.4,4.5-4.6c3.1-2.3,6.4-3.4,9.9-3.4s6.8,1.2,9.8,3.4c1.6,1.2,3.1,2.7,4.5,4.6l37.6,50l18.2-24.2
		c1.4-1.8,2.9-3.4,4.5-4.6c3-2.3,6.4-3.4,9.9-3.4s6.8,1.1,9.9,3.4c1.6,1.2,3.1,2.7,4.5,4.6L477.3,413.9L477.3,413.9z"/>
	<path fill="#39D4FF" d="M496.4,326.4c7.9,0,15.3,3.1,20.9,8.7l0,0c5.6,5.6,8.7,13,8.7,20.9s-3.1,15.4-8.7,20.9l0,0
		c-5.6,5.6-13,8.7-20.9,8.7c-7.9,0-15.4-3.1-21-8.7c-5.6-5.6-8.7-13.1-8.7-21s3.1-15.4,8.7-20.9l0,0
		C481,329.5,488.5,326.4,496.4,326.4"/>
	<path fill="#39D4FF" d="M410.3,428.5l26.4-35.1c0.7-0.9,1.5-1.8,2.5-2.5c1.1-0.9,2.3-1.4,3.7-1.4c1.4,0,2.6,0.6,3.7,1.4
		c0.9,0.7,1.8,1.6,2.5,2.5l20.2,26.9l35.2,47.9c0.4,0.5,0.8,1.2,1,1.9l0.1,0.3v0.8l-0.1,0.3c-0.2,0.6-0.5,1-0.9,1.3
		c-0.6,0.4-1.4,0.7-2.1,0.8h-0.1h-76.7H280.1c-0.9,0-2.1-0.2-2.8-0.7l-0.4-0.3l-0.6-1.2v-1v-0.2c0.2-0.9,0.7-1.8,1.2-2.4l34.8-47.4
		l39.7-52.7c0.7-0.9,1.5-1.8,2.5-2.6c1.1-0.8,2.3-1.4,3.7-1.4c1.4,0,2.6,0.6,3.7,1.4c0.9,0.7,1.8,1.6,2.5,2.6L410.3,428.5z"/>
	<path fill="#D7D7D7" d="M459.9,643.2H348.5c-4.3,0-8.2,1.8-11,4.6s-4.6,6.7-4.6,11s1.8,8.2,4.6,11l0,0c2.8,2.8,6.7,4.6,11,4.6H460
		c4.3,0,8.2-1.8,11-4.6s4.6-6.7,4.6-11s-1.7-8.2-4.6-11S464.2,643.2,459.9,643.2 M348.5,627.9H460c8.5,0,16.2,3.5,21.8,9.1l0,0
		c5.6,5.6,9.1,13.3,9.1,21.8s-3.5,16.2-9.1,21.8c-5.6,5.6-13.3,9.1-21.8,9.1H348.5c-8.5,0-16.2-3.5-21.8-9.1l0,0l0,0
		c-5.6-5.6-9.1-13.3-9.1-21.8s3.5-16.2,9.1-21.8C332.2,631.4,340,627.9,348.5,627.9z"/>
	<path fill="#34495E" d="M342.4,615.3h111.5c8.5,0,16.2,3.5,21.8,9.1l0,0c5.6,5.6,9.1,13.3,9.1,21.8s-3.5,16.2-9.1,21.8
		c-5.6,5.6-13.3,9.1-21.8,9.1H342.4c-8.5,0-16.2-3.5-21.8-9.1l0,0l0,0c-5.6-5.6-9-13.3-9-21.8s3.5-16.2,9-21.8
		C326.1,618.8,333.9,615.3,342.4,615.3"/>
	<path fill="#27CABF" d="M453.9,624.5c5.8,0,11.3,2.3,15.3,6.3c4.1,4.1,6.3,9.6,6.3,15.3c0,5.7-2.3,11.2-6.4,15.3
		c-4.1,4.1-9.6,6.4-15.3,6.4H342.4c-5.7,0-11.2-2.3-15.3-6.3l0,0c-4.1-4.1-6.3-9.6-6.3-15.3c0-5.8,2.3-11.2,6.4-15.3
		c4.1-4.1,9.5-6.4,15.3-6.4H453.9z"/>
	<path fill="#51F4E9" d="M453.9,624.5c5.8,0,11.3,2.3,15.3,6.3c4.1,4.1,6.3,9.6,6.3,15.3c0,1.5-0.1,2.9-0.4,4.4
		c-0.9-4.1-2.9-7.9-5.9-11c-4.1-4.1-9.6-6.3-15.3-6.3H342.4c-5.8,0-11.2,2.3-15.3,6.4c-3,3-5.1,6.8-5.9,11c-0.3-1.4-0.4-2.9-0.4-4.4
		c0-5.8,2.3-11.2,6.4-15.3c4.1-4.1,9.5-6.4,15.3-6.4H453.9z"/>
	<path fill="#BCC2C6" d="M299.6,566.7h203.1c4.1,0,7.5,3.3,7.5,7.5l0,0c0,4.1-3.4,7.4-7.5,7.4H299.6c-4.1,0-7.4-3.3-7.4-7.4l0,0
		C292.1,570,295.5,566.7,299.6,566.7"/>
	<path opacity="0.5" fill="#34495E" enable-background="new    " d="M29,137.4c-4.1,0-8,1.6-11,4.5c-2.9,2.9-4.6,6.8-4.6,11v572.8
		c0,4.1,1.7,8,4.6,11c2.9,2.9,6.8,4.6,11,4.6h744.4c4.1,0,8-1.6,10.9-4.6c2.9-2.9,4.6-6.8,4.6-11V152.9c0-4.1-1.6-8-4.6-11
		c-2.9-2.9-6.8-4.5-10.9-4.5H29z"/>
	<path fill="#FFFFFF" d="M711.5,175.2l11.8,11.8l11.8-11.8c2.9-2.9,7.6-2.9,10.5,0l0,0c2.9,2.9,2.9,7.6,0,10.5l-11.8,11.8l11.8,11.8
		c2.9,2.9,2.9,7.6,0,10.5l0,0c-2.9,2.9-7.6,2.9-10.5,0L723.3,208l-11.8,11.8c-2.9,2.9-7.6,2.9-10.5,0l0,0c-2.9-2.9-2.9-7.6,0-10.5
		l11.8-11.8L701,185.7c-2.9-2.9-2.9-7.6,0-10.5l0,0C703.8,172.3,708.6,172.3,711.5,175.2"/>
	<path fill="#34495E" d="M171.6,246.2h459.1c4.5,0,8.6,1.8,11.6,4.8s4.8,7.1,4.8,11.6v353.3c0,4.5-1.8,8.6-4.8,11.6
		s-7.1,4.8-11.6,4.8H171.6c-4.5,0-8.6-1.8-11.6-4.8s-4.8-7.1-4.8-11.6V262.7c0-4.5,1.8-8.6,4.8-11.6S167.1,246.2,171.6,246.2"/>
	<path fill="#FFFFFF" d="M171.6,257.4c-1.4,0-2.7,0.6-3.7,1.5c-1,1-1.5,2.3-1.5,3.7v353.3c0,1.4,0.6,2.7,1.5,3.7
		c1,1,2.3,1.6,3.7,1.6h459.1c1.4,0,2.7-0.6,3.7-1.6s1.6-2.3,1.6-3.7V262.7c0-1.4-0.6-2.7-1.6-3.7s-2.3-1.5-3.7-1.5H171.6V257.4z"/>
	<rect x="242.9" y="450.8" fill="#FFFFFF" width="316.5" height="25.5"/>
	<path fill="#BCC2C6" d="M560.7,513.2H449.2c-4.3,0-8.2,1.8-11,4.6s-4.6,6.7-4.6,11s1.7,8.2,4.5,11l0,0c2.8,2.8,6.7,4.6,11,4.6
		h111.5c4.3,0,8.2-1.8,11-4.6c2.8-2.8,4.6-6.7,4.6-11s-1.8-8.2-4.6-11C568.9,514.9,565,513.2,560.7,513.2 M449.2,497.9h111.5
		c8.5,0,16.2,3.5,21.8,9.1l0,0c5.6,5.6,9.1,13.3,9.1,21.8s-3.5,16.2-9.1,21.8c-5.6,5.6-13.3,9.1-21.8,9.1H449.2
		c-8.5,0-16.2-3.5-21.8-9.1l0,0l0,0c-5.6-5.6-9-13.3-9-21.8s3.5-16.2,9-21.8C433,501.4,440.7,497.9,449.2,497.9z"/>
	<path fill="#34495E" d="M443.2,485.3h111.5c8.5,0,16.2,3.5,21.8,9.1l0,0c5.6,5.6,9.1,13.3,9.1,21.8s-3.5,16.2-9.1,21.8
		s-13.3,9.1-21.8,9.1H443.2c-8.5,0-16.2-3.5-21.8-9.1l0,0l0,0c-5.6-5.6-9.1-13.3-9.1-21.8s3.5-16.2,9.1-21.8
		C427,488.8,434.7,485.3,443.2,485.3"/>
	<path fill="#27CABF" d="M554.6,494.5c5.8,0,11.3,2.3,15.3,6.4c4.1,4.1,6.3,9.6,6.3,15.3s-2.3,11.2-6.4,15.3
		c-4.1,4.1-9.6,6.4-15.3,6.4H443.2c-5.8,0-11.2-2.3-15.3-6.3l0,0c-4.1-4.1-6.3-9.6-6.3-15.3c0-5.8,2.3-11.3,6.4-15.3
		c4.1-4.1,9.6-6.4,15.3-6.4L554.6,494.5L554.6,494.5z"/>
	<path fill="#51F4E9" d="M554.6,494.5c5.8,0,11.3,2.3,15.3,6.4c4.1,4.1,6.3,9.6,6.3,15.3c0,1.5-0.1,2.9-0.4,4.3
		c-0.8-4.1-2.9-7.9-5.9-10.9c-4.1-4.1-9.6-6.4-15.3-6.4H443.2c-5.8,0-11.2,2.3-15.3,6.4c-3,3-5.1,6.8-5.9,11
		c-0.3-1.4-0.4-2.9-0.4-4.4c0-5.8,2.3-11.3,6.4-15.3c4.1-4.1,9.6-6.4,15.3-6.4H554.6L554.6,494.5z"/>
	<path fill="#BCC2C6" d="M222.4,397.2H580c5.2,0,9.4,4.3,9.4,9.4v28.9c0,5.2-4.3,9.4-9.4,9.4H222.4c-5.2,0-9.4-4.2-9.4-9.4v-28.9
		C212.9,401.5,217.2,397.2,222.4,397.2"/>
	<rect x="224.1" y="408.4" fill="#FFFFFF" width="354.2" height="25.5"/>
	<path fill="#BCC2C6" d="M274.5,319h245c4.3,0,7.9,3.5,7.9,7.9l0,0c0,4.3-3.5,7.9-7.9,7.9h-245c-4.3,0-7.9-3.6-7.9-7.9l0,0
		C266.6,322.5,270.2,319,274.5,319"/>
	<path fill="#BCC2C6" d="M220.8,530.5h154.4c4.3,0,7.9,3.5,7.9,7.9l0,0c0,4.3-3.6,7.9-7.9,7.9H220.8c-4.3,0-7.9-3.6-7.9-7.9l0,0
		C212.9,534.1,216.5,530.5,220.8,530.5"/>
	<path fill="#BCC2C6" d="M220.8,491.1h97c4.3,0,7.9,3.6,7.9,7.9l0,0c0,4.3-3.6,7.9-7.9,7.9h-97c-4.3,0-7.9-3.5-7.9-7.9l0,0
		C212.9,494.6,216.5,491.1,220.8,491.1"/>
</g>
</svg>
