<?xml version="1.0" encoding="utf-8"?>
<!-- Generator: Adobe Illustrator 15.1.0, SVG Export Plug-In . SVG Version: 6.00 Build 0)  -->
<!DOCTYPE svg PUBLIC "-//W3C//DTD SVG 1.0//EN" "http://www.w3.org/TR/2001/REC-SVG-20010904/DTD/svg10.dtd">
<svg version="1.0" id="Layer_1" xmlns="http://www.w3.org/2000/svg" xmlns:xlink="http://www.w3.org/1999/xlink" x="0px" y="0px"
	 width="800px" height="800px" viewBox="0 0 800 800" enable-background="new 0 0 800 800" xml:space="preserve">
<g id="Header">
	<path fill="#BCC2C6" d="M33.1,34.5h736.2c8.5,0,16.1,3.5,21.7,9l0,0c5.6,5.6,9,13.2,9,21.7v654.6c0,8.4-3.5,16.1-9,21.7l0,0
		c-5.6,5.6-13.2,9-21.7,9H33.1c-8.5,0-16.1-3.5-21.7-9l0,0c-5.6-5.6-9-13.2-9-21.7V65.2c0-8.4,3.5-16.1,9-21.7l0,0
		C16.9,38,24.6,34.5,33.1,34.5"/>
	<path fill="#EBEFF0" d="M788.9,65.2v654.6c0,12.3-8.6,19.6-19.6,19.6H33.1c-11,0-19.6-7-19.6-19.6V65.2c0-12.8,8.6-19.6,19.6-19.6
		h736.2C780.2,45.6,788.9,52.7,788.9,65.2"/>
	<path fill="#94A4A5" d="M677.6,72.3c7.8,0,14.2,6.4,14.2,14.2s-6.3,14.2-14.2,14.2c-7.9,0-14.2-6.3-14.2-14.2
		C663.4,78.7,669.7,72.3,677.6,72.3 M722.1,72.3c7.8,0,14.2,6.4,14.2,14.2s-6.4,14.2-14.2,14.2c-7.8,0-14.2-6.3-14.2-14.2
		C707.9,78.7,714.3,72.3,722.1,72.3z M633,72.3c7.8,0,14.2,6.4,14.2,14.2s-6.3,14.2-14.2,14.2c-7.8,0-14.2-6.4-14.2-14.2
		S625.2,72.3,633,72.3z"/>
	<text transform="matrix(1 0 0 1 190.6675 82.2969)" fill="#93A2A3" font-family="'NexaBold'" font-size="44.0749">SIGN UP</text>
</g>
<g id="Body">
	<path fill="#34495E" d="M28.6,125.9h744.7c7.3,0,14,3,18.8,7.8c4.8,4.8,7.8,11.5,7.8,18.8v573.1c0,7.3-3,14-7.8,18.9
		c-4.8,4.8-11.5,7.8-18.8,7.8H28.6c-7.3,0-14-3-18.8-7.8C5,739.7,2,733,2,725.6v-573c0-7.3,3-14,7.8-18.8
		C14.6,128.9,21.2,125.9,28.6,125.9"/>
	<path fill="#FFFFFF" d="M28.6,137c-4.1,0-8,1.6-11,4.6c-2.9,2.9-4.6,6.8-4.6,11v573.1c0,4.1,1.6,8,4.6,11c2.9,2.9,6.8,4.6,11,4.6
		h744.7c4.1,0,8-1.6,11-4.6c2.9-2.9,4.6-6.8,4.6-11V152.6c0-4.1-1.6-8-4.6-11c-2.9-2.9-6.8-4.6-11-4.6H28.6z"/>
	<path fill="#34495E" d="M648.7,171.7h72.8c4.3,0,7.7,3.5,7.7,7.7l0,0c0,4.2-3.5,7.7-7.7,7.7h-72.8c-4.2,0-7.7-3.5-7.7-7.7l0,0
		C641,175.2,644.5,171.7,648.7,171.7"/>
	<path fill="#34495E" d="M522.5,171.7h97.8c4.3,0,7.7,3.5,7.7,7.7l0,0c0,4.2-3.5,7.7-7.7,7.7h-97.8c-4.3,0-7.7-3.5-7.7-7.7l0,0
		C514.8,175.2,518.2,171.7,522.5,171.7"/>
	<path fill="#34495E" d="M420.8,171.7h72.8c4.2,0,7.7,3.5,7.7,7.7l0,0c0,4.2-3.5,7.7-7.7,7.7h-72.8c-4.2,0-7.7-3.5-7.7-7.7l0,0
		C413.1,175.2,416.6,171.7,420.8,171.7"/>
	<path fill="#34495E" d="M80.4,171.7h97.8c4.3,0,7.7,3.5,7.7,7.7l0,0c0,4.2-3.5,7.7-7.7,7.7H80.4c-4.2,0-7.7-3.5-7.7-7.7l0,0
		C72.7,175.2,76.2,171.7,80.4,171.7"/>
	<polygon fill="#34495E" points="203.5,269.4 598.4,269.4 607.4,269.4 607.4,278.4 607.4,521.2 607.4,530.2 598.4,530.2 
		203.5,530.2 194.5,530.2 194.5,521.2 194.5,278.4 194.5,269.4 	"/>
	<rect x="205.8" y="280.7" fill="#22A6EF" width="390.4" height="238.2"/>
	<path opacity="0.15" enable-background="new    " d="M517.3,353.4c-4-4-9.4-6.4-15.5-6.4c-6.1,0-11.5,2.4-15.5,6.4
		c-3.9,4-6.4,9.4-6.4,15.5s2.5,11.5,6.4,15.5c4,4,9.4,6.4,15.5,6.4c6.1,0,11.5-2.4,15.5-6.4c3.9-3.9,6.4-9.4,6.4-15.5
		S521.3,357.4,517.3,353.4 M501.8,329c11,0,21,4.5,28.2,11.7l0,0c7.2,7.2,11.7,17.2,11.7,28.2s-4.5,21-11.7,28.2l0,0
		c-7.2,7.2-17.2,11.7-28.2,11.7s-21-4.5-28.2-11.7c-7.2-7.2-11.7-17.2-11.7-28.2s4.5-20.9,11.7-28.2l0,0
		C480.9,333.5,490.9,329,501.8,329z M482.8,426.8L482.8,426.8l0.3,0.4l5.1,6.7l-0.1,0.1l30.3,41.1c2.2,3,3.1,5.9,3.1,8.7l0,0
		c0,2.2-0.6,4.2-1.5,6c-0.9,1.7-2.2,3-3.7,4.2c-2.5,1.8-5.7,2.8-8.9,2.8l0,0h-76.1H285.6c-3.5,0-6.6-1-8.9-2.7
		c-1.6-1.2-2.9-2.7-3.8-4.5l0,0c-0.9-1.7-1.3-3.6-1.3-5.7l0,0c0-3,1-6.2,3.3-9.3l31.9-43.3l0,0l2.9-3.9l0.3-0.5l0,0l0.1-0.1
		l39.4-52.4c1.4-1.9,2.9-3.4,4.5-4.6c3.1-2.3,6.4-3.5,9.9-3.4c3.5,0,6.8,1.2,9.8,3.4c1.6,1.2,3.1,2.7,4.5,4.6l37.6,50l18.2-24.2
		c1.4-1.8,2.9-3.4,4.5-4.6c3-2.3,6.4-3.4,9.9-3.4s6.8,1.1,9.9,3.4c1.6,1.2,3.1,2.7,4.5,4.6L482.8,426.8L482.8,426.8z M498.7,478.8
		l-30.4-41.4l-1.3-1.7L448.4,411v-0.1v0.1l-21,28l-4.3,5.8l-7.2,9.5l-7.2-9.5l-4.4-5.8l-40.5-53.8v-0.1v0.1L325.6,436l-1.1,1.5
		l-30.4,41.4h137.2L498.7,478.8z"/>
	<path fill="#34495E" d="M496.2,315.9c11,0,21,4.5,28.2,11.7l0,0c7.2,7.2,11.7,17.2,11.7,28.2s-4.5,21-11.7,28.2l0,0
		c-7.2,7.2-17.2,11.7-28.2,11.7s-21-4.5-28.2-11.7s-11.7-17.2-11.7-28.2s4.5-21,11.7-28.2l0,0C475.3,320.4,485.3,315.9,496.2,315.9
		 M477.1,413.7L477.1,413.7l0.3,0.4l5.1,6.7h-0.1l30.3,41.1c2.2,2.9,3.1,5.9,3.1,8.7l0,0c0,2.2-0.6,4.2-1.5,6
		c-0.9,1.7-2.2,3.1-3.7,4.2c-2.5,1.8-5.7,2.8-8.9,2.8l0,0h-76.1H279.9c-3.5,0-6.6-1-8.9-2.7c-1.6-1.2-2.9-2.7-3.8-4.5l0,0
		c-0.9-1.7-1.3-3.6-1.3-5.7l0,0c0-3,1-6.2,3.3-9.3l31.9-43.3V418l2.9-3.9l0.3-0.5l0,0l0.1-0.1l39.4-52.4c1.4-1.8,2.9-3.4,4.5-4.6
		c3.1-2.3,6.4-3.4,9.9-3.4s6.8,1.2,9.8,3.4c1.6,1.2,3.1,2.7,4.5,4.6l37.6,50l18.2-24.2c1.4-1.8,2.9-3.4,4.5-4.6
		c3-2.3,6.4-3.4,9.9-3.4s6.8,1.1,9.9,3.4c1.6,1.2,3.1,2.7,4.5,4.6L477.1,413.7L477.1,413.7z"/>
	<path fill="#39D4FF" d="M496.2,326.1c7.9,0,15.4,3.1,20.9,8.7l0,0c5.6,5.6,8.7,13,8.7,20.9c0,7.9-3.1,15.4-8.7,20.9l0,0
		c-5.6,5.6-13.1,8.7-20.9,8.7c-7.9,0-15.4-3.1-21-8.7c-5.6-5.6-8.7-13.1-8.7-21s3.1-15.4,8.7-20.9l0,0
		C480.9,329.2,488.4,326.1,496.2,326.1"/>
	<path fill="#39D4FF" d="M410.1,428.3l26.4-35.1c0.7-0.9,1.5-1.8,2.5-2.5c1.1-0.9,2.3-1.4,3.7-1.4c1.4,0,2.6,0.6,3.7,1.4
		c0.9,0.7,1.8,1.6,2.5,2.5l20.2,26.9l35.3,47.9c0.4,0.5,0.8,1.2,1,1.9l0.1,0.3v0.8l-0.1,0.3c-0.2,0.6-0.5,1-0.9,1.3
		c-0.6,0.4-1.4,0.7-2.1,0.8h-0.1h-76.7H279.9c-0.9,0-2.1-0.2-2.8-0.7l-0.4-0.3l-0.6-1.2v-1V470c0.2-0.9,0.7-1.8,1.2-2.5l34.8-47.4
		l39.7-52.7c0.7-0.9,1.5-1.8,2.5-2.6c1.1-0.8,2.3-1.4,3.7-1.4s2.6,0.6,3.7,1.4c0.9,0.7,1.8,1.6,2.5,2.6L410.1,428.3z"/>
	<path fill="#D7D7D7" d="M459.8,643.1H348.2c-4.3,0-8.2,1.8-11,4.6s-4.6,6.7-4.6,11s1.8,8.2,4.6,11l0,0c2.8,2.8,6.7,4.6,11,4.6
		h111.5c4.3,0,8.2-1.8,11-4.6s4.6-6.7,4.6-11s-1.8-8.2-4.6-11C468,644.8,464.1,643.1,459.8,643.1 M348.2,627.8h111.5
		c8.5,0,16.2,3.5,21.8,9.1l0,0c5.6,5.6,9.1,13.3,9.1,21.8s-3.5,16.2-9.1,21.8s-13.3,9.1-21.8,9.1H348.2c-8.5,0-16.2-3.5-21.8-9.1
		l0,0l0,0c-5.6-5.6-9.1-13.3-9.1-21.8s3.5-16.2,9.1-21.8C332,631.3,339.7,627.8,348.2,627.8z"/>
	<path fill="#34495E" d="M342.2,615.2h111.5c8.5,0,16.2,3.5,21.8,9.1l0,0c5.6,5.6,9.1,13.3,9.1,21.8s-3.5,16.2-9.1,21.8
		c-5.6,5.6-13.3,9.1-21.8,9.1H342.2c-8.5,0-16.2-3.5-21.8-9.1l0,0l0,0c-5.6-5.6-9.1-13.3-9.1-21.8s3.5-16.2,9.1-21.8
		C325.9,618.6,333.7,615.2,342.2,615.2"/>
	<path fill="#27CABF" d="M453.7,624.4c5.8,0,11.3,2.3,15.3,6.4c4.1,4.1,6.4,9.6,6.4,15.3c0,5.7-2.3,11.3-6.4,15.3
		c-4.1,4.1-9.6,6.4-15.3,6.4H342.2c-5.8,0-11.3-2.3-15.3-6.3l0,0c-4.1-4.1-6.4-9.6-6.4-15.3c0-5.8,2.3-11.3,6.4-15.3
		c4.1-4.1,9.6-6.4,15.3-6.4L453.7,624.4L453.7,624.4z"/>
	<path fill="#51F4E9" d="M453.7,624.4c5.8,0,11.3,2.3,15.3,6.4c4.1,4.1,6.4,9.6,6.4,15.3c0,1.5-0.1,2.9-0.4,4.4
		c-0.9-4.1-2.9-7.9-5.9-11c-4.1-4.1-9.6-6.4-15.3-6.4H342.2c-5.8,0-11.3,2.3-15.3,6.4c-3,3-5.1,6.8-5.9,11c-0.3-1.4-0.4-2.9-0.4-4.4
		c0-5.8,2.3-11.3,6.4-15.3c4.1-4.1,9.6-6.4,15.3-6.4H453.7z"/>
	<path fill="#BCC2C6" d="M299.3,566.5h203.2c4.1,0,7.4,3.4,7.4,7.5l0,0c0,4.1-3.3,7.4-7.4,7.4H299.3c-4.1,0-7.4-3.4-7.4-7.4l0,0
		C291.9,569.9,295.2,566.5,299.3,566.5"/>
	<path opacity="0.5" fill="#34495E" enable-background="new    " d="M28.6,137c-4.1,0-8,1.6-11,4.6c-2.9,2.9-4.6,6.8-4.6,11v573.1
		c0,4.1,1.6,8,4.6,11c2.9,2.9,6.8,4.6,11,4.6h744.7c4.1,0,8-1.6,11-4.6c2.9-2.9,4.6-6.8,4.6-11V152.6c0-4.1-1.6-8-4.6-11
		c-2.9-2.9-6.8-4.6-11-4.6H28.6z"/>
	<path fill="#FFFFFF" d="M711.5,174.8l11.8,11.8l11.8-11.8c2.9-2.9,7.6-2.9,10.5,0l0,0c2.9,2.9,2.9,7.6,0,10.5l-11.8,11.8l11.8,11.8
		c2.9,2.9,2.9,7.6,0,10.5l0,0c-2.9,2.9-7.6,2.9-10.5,0l-11.8-11.8l-11.8,11.8c-2.9,2.9-7.6,2.9-10.5,0l0,0c-2.9-2.9-2.9-7.6,0-10.5
		l11.8-11.8L701,185.3c-2.9-2.9-2.9-7.6,0-10.5l0,0C703.8,171.9,708.5,171.9,711.5,174.8"/>
	<path fill="#34495E" d="M171.3,245.9h459.3c4.5,0,8.6,1.8,11.6,4.8s4.8,7.1,4.8,11.6v353.4c0,4.5-1.8,8.6-4.8,11.6
		s-7.1,4.8-11.6,4.8H171.3c-4.5,0-8.6-1.8-11.6-4.8s-4.8-7.1-4.8-11.6V262.4c0-4.5,1.8-8.6,4.8-11.6S166.8,245.9,171.3,245.9"/>
	<path fill="#FFFFFF" d="M171.3,257.1c-1.4,0-2.7,0.6-3.7,1.5c-1,1-1.5,2.3-1.5,3.7v353.4c0,1.4,0.6,2.7,1.6,3.7s2.3,1.6,3.7,1.6
		h459.3c1.4,0,2.7-0.6,3.7-1.6s1.6-2.3,1.6-3.7V262.4c0-1.4-0.6-2.7-1.5-3.7c-1-1-2.3-1.5-3.7-1.5H171.3V257.1z"/>
	<path fill="#BCC2C6" d="M240.9,359.4h320c5.2,0,9.4,4.2,9.4,9.4v28.9c0,5.2-4.3,9.4-9.4,9.4h-320c-5.2,0-9.4-4.3-9.4-9.4v-28.9
		C231.5,363.6,235.7,359.4,240.9,359.4"/>
	<rect x="242.7" y="370.5" fill="#FFFFFF" width="316.6" height="25.5"/>
	<path fill="#BCC2C6" d="M240.9,439.4h320c5.2,0,9.4,4.3,9.4,9.4v28.9c0,5.2-4.3,9.4-9.4,9.4h-320c-5.2,0-9.4-4.3-9.4-9.4v-28.9
		C231.5,443.7,235.7,439.4,240.9,439.4"/>
	<rect x="242.7" y="450.6" fill="#FFFFFF" width="316.6" height="25.5"/>
	<path fill="#BCC2C6" d="M459.7,544.3H348.2c-4.3,0-8.2,1.8-11,4.6c-2.8,2.8-4.6,6.7-4.6,11c0,4.3,1.8,8.2,4.6,11l0,0
		c2.8,2.8,6.7,4.6,11,4.6h111.5c4.3,0,8.2-1.8,11-4.6c2.8-2.8,4.6-6.7,4.6-11c0-4.3-1.8-8.2-4.6-11C468,546.1,464,544.3,459.7,544.3
		 M348.2,529h111.5c8.5,0,16.2,3.5,21.8,9.1l0,0c5.6,5.6,9.1,13.3,9.1,21.8s-3.5,16.2-9.1,21.8c-5.6,5.6-13.3,9.1-21.8,9.1H348.2
		c-8.5,0-16.2-3.5-21.8-9.1l0,0l0,0c-5.6-5.6-9.1-13.3-9.1-21.8s3.5-16.2,9.1-21.8C332,532.5,339.7,529,348.2,529z"/>
	<path fill="#34495E" d="M342.2,516.4h111.5c8.5,0,16.2,3.5,21.8,9.1l0,0c5.6,5.6,9.1,13.3,9.1,21.8s-3.5,16.2-9.1,21.8
		c-5.6,5.6-13.3,9.1-21.8,9.1H342.2c-8.5,0-16.2-3.5-21.8-9.1l0,0l0,0c-5.6-5.6-9.1-13.3-9.1-21.8s3.5-16.2,9.1-21.8
		C325.9,519.9,333.7,516.4,342.2,516.4"/>
	<path fill="#27CABF" d="M453.7,525.6c5.8,0,11.3,2.3,15.3,6.4c4.1,4.1,6.4,9.6,6.4,15.3c0,5.8-2.3,11.3-6.4,15.3
		c-4.1,4.1-9.6,6.4-15.3,6.4H342.2c-5.8,0-11.3-2.3-15.3-6.4l0,0c-4.1-4.1-6.3-9.6-6.3-15.3c0-5.8,2.3-11.3,6.4-15.3
		c4.1-4.1,9.6-6.4,15.3-6.4H453.7z"/>
	<path fill="#51F4E9" d="M453.7,525.6c5.8,0,11.3,2.3,15.3,6.4c4.1,4.1,6.4,9.6,6.4,15.3c0,1.5-0.2,2.9-0.4,4.4
		c-0.9-4.1-2.9-7.9-5.9-10.9c-4.1-4.1-9.6-6.4-15.3-6.4H342.2c-5.8,0-11.3,2.3-15.3,6.4c-3,3-5.1,6.8-5.9,11
		c-0.3-1.4-0.4-2.9-0.4-4.4c0-5.8,2.3-11.3,6.4-15.3c4.1-4.1,9.6-6.4,15.3-6.4h111.4V525.6z"/>
	<path fill="#BCC2C6" d="M338.5,306.4h125c4.3,0,7.9,3.6,7.9,7.9l0,0c0,4.3-3.5,7.9-7.9,7.9h-125c-4.3,0-7.9-3.6-7.9-7.9l0,0
		C330.6,310,334.1,306.4,338.5,306.4"/>
</g>
</svg>
