<?xml version="1.0" encoding="utf-8"?>
<!-- Generator: Adobe Illustrator 15.1.0, SVG Export Plug-In . SVG Version: 6.00 Build 0)  -->
<!DOCTYPE svg PUBLIC "-//W3C//DTD SVG 1.0//EN" "http://www.w3.org/TR/2001/REC-SVG-20010904/DTD/svg10.dtd">
<svg version="1.0" id="Layer_1" xmlns="http://www.w3.org/2000/svg" xmlns:xlink="http://www.w3.org/1999/xlink" x="0px" y="0px"
	 width="800px" height="800px" viewBox="0 0 800 800" enable-background="new 0 0 800 800" xml:space="preserve">
<g id="Header">
	<path fill="#BCC2C6" d="M33.1,34.5h736.2c8.5,0,16.1,3.5,21.7,9l0,0c5.6,5.6,9,13.2,9,21.7v654.6c0,8.4-3.5,16.1-9,21.7l0,0
		c-5.6,5.6-13.2,9-21.7,9H33.1c-8.5,0-16.1-3.5-21.7-9l0,0c-5.6-5.6-9-13.2-9-21.7V65.2c0-8.4,3.5-16.1,9-21.7l0,0
		C16.9,38,24.6,34.5,33.1,34.5"/>
	<path fill="#EBEFF0" d="M788.9,65.2v654.6c0,12.3-8.6,19.6-19.6,19.6H33.1c-11,0-19.6-7-19.6-19.6V65.2c0-12.8,8.6-19.6,19.6-19.6
		h736.2C780.2,45.6,788.9,52.7,788.9,65.2"/>
	<path fill="#94A4A5" d="M677.6,72.3c7.8,0,14.2,6.4,14.2,14.2s-6.3,14.2-14.2,14.2c-7.9,0-14.2-6.3-14.2-14.2
		C663.4,78.7,669.7,72.3,677.6,72.3 M722.1,72.3c7.8,0,14.2,6.4,14.2,14.2s-6.4,14.2-14.2,14.2c-7.8,0-14.2-6.3-14.2-14.2
		C707.9,78.7,714.3,72.3,722.1,72.3z M633,72.3c7.8,0,14.2,6.4,14.2,14.2s-6.3,14.2-14.2,14.2c-7.8,0-14.2-6.4-14.2-14.2
		S625.2,72.3,633,72.3z"/>
	<text transform="matrix(1 0 0 1 200.4175 81.2969)" fill="#93A2A3" font-family="'NexaBold'" font-size="44.0749">SIGN IN</text>
</g>
<g id="Body">
	<path fill="#34495E" d="M29.8,126.7h743.6c7.3,0,14,3,18.8,7.8s7.8,11.5,7.8,18.8v572.2c0,7.3-3,14-7.8,18.8s-11.5,7.8-18.8,7.8
		H29.8c-7.3,0-14-3-18.8-7.8s-7.8-11.5-7.8-18.8V153.3c0-7.3,3-14,7.8-18.8S22.4,126.7,29.8,126.7"/>
	<path fill="#FFFFFF" d="M29.8,137.8c-4.1,0-8,1.6-10.9,4.5c-2.9,2.9-4.6,6.8-4.6,10.9v572.2c0,4.1,1.6,8,4.6,10.9
		c2.9,2.9,6.8,4.6,10.9,4.6h743.6c4.1,0,8-1.6,10.9-4.6c2.9-2.9,4.6-6.8,4.6-10.9V153.3c0-4.1-1.6-8-4.6-10.9
		c-2.9-2.9-6.8-4.5-10.9-4.5H29.8V137.8z"/>
	<path fill="#34495E" d="M648.9,172.5h72.7c4.2,0,7.7,3.5,7.7,7.7l0,0c0,4.2-3.5,7.7-7.7,7.7h-72.7c-4.2,0-7.7-3.5-7.7-7.7l0,0
		C641.2,176,644.7,172.5,648.9,172.5"/>
	<path fill="#34495E" d="M522.9,172.5h97.7c4.2,0,7.7,3.5,7.7,7.7l0,0c0,4.2-3.5,7.7-7.7,7.7h-97.7c-4.2,0-7.7-3.5-7.7-7.7l0,0
		C515.2,176,518.7,172.5,522.9,172.5"/>
	<path fill="#34495E" d="M421.4,172.5H494c4.2,0,7.7,3.5,7.7,7.7l0,0c0,4.2-3.5,7.7-7.7,7.7h-72.7c-4.2,0-7.7-3.5-7.7-7.7l0,0
		C413.7,176,417.1,172.5,421.4,172.5"/>
	<path fill="#34495E" d="M81.5,172.5h97.7c4.2,0,7.7,3.5,7.7,7.7l0,0c0,4.2-3.5,7.7-7.7,7.7H81.5c-4.2,0-7.7-3.5-7.7-7.7l0,0
		C73.8,176,77.3,172.5,81.5,172.5"/>
	<polygon fill="#34495E" points="204.4,270 598.7,270 607.7,270 607.7,279 607.7,521.4 607.7,530.4 598.7,530.4 204.4,530.4 
		195.4,530.4 195.4,521.4 195.4,279 195.4,270 	"/>
	<rect x="206.7" y="281.3" fill="#22A6EF" width="389.8" height="237.9"/>
	<path opacity="0.15" enable-background="new    " d="M517.8,353.9c-4-3.9-9.4-6.4-15.5-6.4c-6,0-11.5,2.4-15.4,6.4
		c-3.9,3.9-6.4,9.4-6.4,15.4s2.4,11.5,6.4,15.4c3.9,3.9,9.4,6.4,15.4,6.4s11.5-2.4,15.5-6.4c3.9-3.9,6.4-9.4,6.4-15.5
		C524.1,363.3,521.7,357.8,517.8,353.9 M502.3,329.5c11,0,20.9,4.5,28.1,11.7l0,0c7.2,7.2,11.7,17.2,11.7,28.1
		c0,11-4.4,20.9-11.7,28.1l0,0c-7.2,7.2-17.2,11.7-28.1,11.7c-11,0-21-4.5-28.2-11.7c-7.2-7.2-11.7-17.2-11.7-28.2
		s4.5-20.9,11.7-28.1l0,0C481.4,334,491.3,329.5,502.3,329.5z M483.2,427.2L483.2,427.2l0.3,0.4l5,6.7l-0.1,0.1l30.2,41.1
		c2.2,3,3.1,5.9,3.1,8.7l0,0c0,2.2-0.6,4.2-1.5,6c-0.9,1.7-2.2,3-3.7,4.1c-2.5,1.8-5.7,2.8-8.9,2.8l0,0h-76H286.1
		c-3.5,0-6.5-1-8.9-2.7c-1.6-1.2-2.9-2.7-3.8-4.5l0,0c-0.9-1.7-1.3-3.6-1.3-5.7l0,0c0-3,1-6.2,3.3-9.3l31.8-43.3l0,0l2.9-3.9
		l0.3-0.5l0,0l0.1-0.1l39.3-52.3c1.4-1.8,2.9-3.4,4.5-4.6c3.1-2.3,6.4-3.5,9.9-3.4c3.5,0,6.8,1.2,9.8,3.4c1.6,1.2,3.1,2.7,4.5,4.6
		l37.6,50l18.2-24.2c1.4-1.8,2.9-3.4,4.5-4.6c3-2.3,6.4-3.4,9.9-3.4s6.8,1.1,9.9,3.4c1.6,1.2,3.1,2.7,4.5,4.6L483.2,427.2
		L483.2,427.2z M499.2,479.1l-30.4-41.3l-1.3-1.7l-18.6-24.7v-0.1v0.1l-21,27.9l-4.4,5.8l-7.2,9.5l-7.2-9.5l-4.3-5.8l-40.4-53.7
		v-0.1v0.1l-38.2,50.7l-1.1,1.5l-30.4,41.3h137H499.2z"/>
	<path fill="#34495E" d="M496.7,316.4c11,0,20.9,4.5,28.1,11.7l0,0c7.2,7.2,11.7,17.2,11.7,28.1c0,11-4.4,20.9-11.7,28.1l0,0
		c-7.2,7.2-17.2,11.7-28.1,11.7c-11,0-21-4.5-28.2-11.7c-7.2-7.2-11.7-17.2-11.7-28.2s4.5-20.9,11.7-28.1l0,0
		C475.8,320.9,485.7,316.4,496.7,316.4 M477.6,414.1L477.6,414.1l0.3,0.4l5,6.7h-0.1l30.2,41.1c2.2,2.9,3.1,5.9,3.1,8.7l0,0
		c0,2.2-0.6,4.2-1.5,5.9c-0.9,1.7-2.2,3.1-3.7,4.2c-2.5,1.8-5.7,2.8-8.9,2.8l0,0h-76H280.5c-3.5,0-6.5-1-8.9-2.7
		c-1.6-1.2-2.9-2.7-3.8-4.5l0,0c-0.8-1.7-1.3-3.6-1.3-5.7l0,0c0-3,1-6.2,3.3-9.2l31.8-43.3v-0.1l2.9-3.9l0.3-0.5l0,0l0.1-0.1
		l39.3-52.3c1.4-1.8,2.9-3.4,4.5-4.6c3.1-2.3,6.4-3.4,9.9-3.4s6.8,1.2,9.8,3.4c1.6,1.2,3.1,2.7,4.5,4.6l37.6,50l18.2-24.2
		c1.4-1.8,2.9-3.4,4.5-4.6c3-2.3,6.4-3.4,9.9-3.4s6.8,1.1,9.9,3.4c1.6,1.2,3.1,2.7,4.5,4.6L477.6,414.1L477.6,414.1z"/>
	<path fill="#39D4FF" d="M496.7,326.7c7.9,0,15.3,3.1,20.9,8.7l0,0c5.6,5.6,8.7,13,8.7,20.9c0,7.9-3.1,15.3-8.7,20.9l0,0
		c-5.6,5.6-13,8.7-20.9,8.7c-7.9,0-15.4-3.1-20.9-8.7c-5.6-5.6-8.7-13-8.7-20.9c0-7.9,3.1-15.3,8.7-20.9l0,0
		C481.4,329.8,488.8,326.7,496.7,326.7"/>
	<path fill="#39D4FF" d="M410.7,428.6l26.3-35c0.7-0.9,1.5-1.8,2.5-2.5c1.1-0.9,2.3-1.4,3.7-1.4c1.4,0,2.6,0.6,3.7,1.4
		c0.9,0.7,1.8,1.6,2.5,2.5l20.2,26.9l35.2,47.9c0.4,0.5,0.8,1.2,1,1.9l0.1,0.3v0.8l-0.1,0.3c-0.2,0.6-0.5,1-0.9,1.3
		c-0.6,0.4-1.4,0.7-2.1,0.8h-0.1h-76.6H280.6c-0.9,0-2.1-0.2-2.8-0.7l-0.4-0.3l-0.6-1.2v-1v-0.2c0.2-0.9,0.7-1.8,1.2-2.4l34.8-47.3
		l39.6-52.7c0.7-0.9,1.5-1.8,2.5-2.6c1.1-0.8,2.3-1.4,3.7-1.4c1.4,0,2.6,0.6,3.7,1.4c0.9,0.7,1.8,1.6,2.5,2.6L410.7,428.6z"/>
	<path fill="#D7D7D7" d="M460.3,643.1H348.9c-4.3,0-8.2,1.8-11,4.6c-2.8,2.8-4.6,6.7-4.6,11s1.7,8.2,4.5,11l0,0
		c2.8,2.8,6.7,4.6,11,4.6h111.4c4.3,0,8.2-1.8,11-4.6s4.6-6.7,4.6-11s-1.8-8.2-4.6-11C468.5,644.9,464.6,643.1,460.3,643.1
		 M348.9,627.9h111.4c8.5,0,16.2,3.5,21.8,9.1l0,0c5.6,5.6,9.1,13.3,9.1,21.8s-3.5,16.2-9.1,21.8c-5.6,5.6-13.3,9.1-21.8,9.1H348.9
		c-8.5,0-16.2-3.5-21.8-9.1l0,0l0,0c-5.6-5.6-9.1-13.3-9.1-21.8s3.5-16.2,9.1-21.8C332.7,631.3,340.4,627.9,348.9,627.9z"/>
	<path fill="#34495E" d="M342.9,615.3h111.4c8.5,0,16.2,3.5,21.8,9.1l0,0c5.6,5.6,9.1,13.3,9.1,21.8s-3.5,16.2-9.1,21.8
		c-5.6,5.6-13.3,9.1-21.8,9.1H342.9c-8.5,0-16.2-3.5-21.8-9.1l0,0l0,0c-5.6-5.6-9-13.3-9-21.8s3.5-16.2,9-21.8
		C326.7,618.7,334.4,615.3,342.9,615.3"/>
	<path fill="#27CABF" d="M454.2,624.4c5.8,0,11.3,2.3,15.3,6.3c4.1,4.1,6.3,9.6,6.3,15.3c0,5.8-2.3,11.2-6.4,15.3
		c-4.1,4.1-9.5,6.4-15.3,6.4H342.9c-5.7,0-11.2-2.3-15.3-6.3l0,0c-4.1-4.1-6.3-9.6-6.3-15.3c0-5.8,2.3-11.2,6.4-15.3
		c4.1-4.1,9.5-6.4,15.3-6.4H454.2z"/>
	<path fill="#51F4E9" d="M454.2,624.4c5.8,0,11.3,2.3,15.3,6.3c4.1,4.1,6.3,9.6,6.3,15.3c0,1.5-0.2,2.9-0.4,4.4
		c-0.9-4.1-2.9-7.9-5.9-11c-4.1-4.1-9.6-6.3-15.3-6.3H342.9c-5.8,0-11.2,2.3-15.3,6.4c-3,3-5.1,6.8-5.9,10.9
		c-0.3-1.4-0.5-2.9-0.5-4.4c0-5.8,2.3-11.2,6.4-15.3c4.1-4.1,9.5-6.4,15.3-6.4h111.3V624.4z"/>
	<path fill="#BCC2C6" d="M300.1,566.7H503c4.1,0,7.4,3.3,7.4,7.4l0,0c0,4.1-3.4,7.4-7.4,7.4H300.1c-4.1,0-7.4-3.3-7.4-7.4l0,0
		C292.7,570,296,566.7,300.1,566.7"/>
	<path opacity="0.5" fill="#34495E" enable-background="new    " d="M29.8,137.8c-4.1,0-8,1.6-10.9,4.5c-2.9,2.9-4.6,6.8-4.6,10.9
		v572.2c0,4.1,1.6,8,4.6,10.9c2.9,2.9,6.8,4.6,10.9,4.6h743.6c4.1,0,8-1.6,10.9-4.6c2.9-2.9,4.6-6.8,4.6-10.9V153.3
		c0-4.1-1.6-8-4.6-10.9c-2.9-2.9-6.8-4.5-10.9-4.5H29.8V137.8z"/>
	<path fill="#FFFFFF" d="M711.6,175.6l11.8,11.8l11.8-11.8c2.9-2.9,7.6-2.9,10.5,0l0,0c2.9,2.9,2.9,7.6,0,10.5l-11.8,11.8l11.8,11.8
		c2.9,2.9,2.9,7.6,0,10.5l0,0c-2.9,2.9-7.6,2.9-10.5,0l-11.8-11.8l-11.8,11.8c-2.9,2.9-7.6,2.9-10.5,0l0,0c-2.9-2.9-2.9-7.6,0-10.5
		l11.8-11.8l-11.8-11.8c-2.9-2.9-2.9-7.6,0-10.5l0,0C704,172.7,708.7,172.7,711.6,175.6"/>
	<path fill="#34495E" d="M172.3,246.6h458.6c4.5,0,8.6,1.8,11.6,4.8s4.8,7.1,4.8,11.6v352.9c0,4.5-1.8,8.6-4.8,11.6
		s-7.1,4.8-11.6,4.8H172.3c-4.5,0-8.6-1.8-11.6-4.8s-4.8-7.1-4.8-11.6V263c0-4.5,1.8-8.6,4.8-11.6
		C163.6,248.4,167.8,246.6,172.3,246.6"/>
	<path fill="#FFFFFF" d="M172.3,257.7c-1.4,0-2.7,0.6-3.7,1.5c-1,1-1.6,2.3-1.6,3.7v352.9c0,1.4,0.6,2.7,1.6,3.7s2.3,1.6,3.7,1.6
		h458.6c1.4,0,2.7-0.6,3.7-1.6s1.6-2.3,1.6-3.7V263c0-1.4-0.6-2.7-1.6-3.7s-2.3-1.5-3.7-1.5L172.3,257.7L172.3,257.7z"/>
	<path fill="#BCC2C6" d="M241.8,359.8h319.6c5.2,0,9.4,4.2,9.4,9.4v28.9c0,5.2-4.2,9.4-9.4,9.4H241.8c-5.2,0-9.4-4.2-9.4-9.4v-28.9
		C232.4,364.1,236.6,359.8,241.8,359.8"/>
	<rect x="243.5" y="371" fill="#FFFFFF" width="316.2" height="25.5"/>
	<path fill="#BCC2C6" d="M241.8,439.8h319.6c5.2,0,9.4,4.2,9.4,9.4v28.9c0,5.2-4.2,9.4-9.4,9.4H241.8c-5.2,0-9.4-4.2-9.4-9.4v-28.9
		C232.4,444,236.6,439.8,241.8,439.8"/>
	<rect x="243.5" y="450.9" fill="#FFFFFF" width="316.2" height="25.5"/>
	<path fill="#BCC2C6" d="M546,546.5H434.6c-4.3,0-8.2,1.8-11,4.6c-2.8,2.8-4.6,6.7-4.6,11c0,4.3,1.7,8.2,4.5,11l0,0
		c2.8,2.8,6.7,4.5,11,4.5H546c4.3,0,8.2-1.8,11-4.6s4.6-6.7,4.6-11s-1.8-8.2-4.6-11C554.2,548.3,550.3,546.5,546,546.5 M434.6,531.3
		H546c8.5,0,16.2,3.5,21.8,9.1l0,0c5.6,5.6,9.1,13.3,9.1,21.8s-3.5,16.2-9.1,21.8c-5.6,5.6-13.3,9.1-21.8,9.1H434.6
		c-8.5,0-16.2-3.5-21.8-9.1l0,0l0,0c-5.6-5.6-9.1-13.3-9.1-21.8s3.5-16.2,9.1-21.8C418.4,534.7,426.1,531.3,434.6,531.3z"/>
	<path fill="#34495E" d="M428.6,518.7H540c8.5,0,16.2,3.5,21.8,9.1l0,0c5.6,5.6,9.1,13.3,9.1,21.8s-3.5,16.2-9.1,21.8
		c-5.6,5.6-13.3,9-21.8,9H428.6c-8.5,0-16.2-3.5-21.7-9l0,0l0,0c-5.6-5.6-9.1-13.3-9.1-21.8s3.5-16.2,9.1-21.8
		C412.4,522.1,420.1,518.7,428.6,518.7"/>
	<path fill="#27CABF" d="M539.9,527.8c5.8,0,11.2,2.3,15.3,6.3c4.1,4.1,6.3,9.6,6.3,15.3c0,5.8-2.3,11.2-6.4,15.3
		c-4.1,4.1-9.5,6.4-15.3,6.4H428.6c-5.7,0-11.2-2.3-15.3-6.3l0,0c-4.1-4.1-6.3-9.6-6.3-15.3c0-5.8,2.3-11.2,6.4-15.3
		c4.1-4.1,9.5-6.4,15.3-6.4H539.9z"/>
	<path fill="#51F4E9" d="M539.9,527.8c5.8,0,11.2,2.3,15.3,6.3c4.1,4.1,6.3,9.6,6.3,15.3c0,1.5-0.1,2.9-0.4,4.4
		c-0.9-4.1-2.9-7.9-5.9-10.9c-4.1-4.1-9.6-6.3-15.3-6.3H428.6c-5.7,0-11.2,2.3-15.3,6.4c-3,3-5.1,6.8-5.9,11
		c-0.3-1.4-0.5-2.9-0.5-4.4c0-5.8,2.3-11.2,6.4-15.3c4.1-4.1,9.5-6.4,15.3-6.4h111.3V527.8z"/>
	<path fill="#BCC2C6" d="M240.2,541.6H365c4.3,0,7.9,3.6,7.9,7.9l0,0c0,4.3-3.5,7.9-7.9,7.9H240.2c-4.3,0-7.9-3.5-7.9-7.9l0,0
		C232.4,545.2,235.9,541.6,240.2,541.6"/>
	<path fill="#BCC2C6" d="M339.2,307H464c4.3,0,7.9,3.5,7.9,7.9l0,0c0,4.3-3.5,7.9-7.9,7.9H339.2c-4.3,0-7.9-3.6-7.9-7.9l0,0
		C331.3,310.5,334.9,307,339.2,307"/>
</g>
</svg>
