<?xml version="1.0" encoding="utf-8"?>
<!-- Generator: Adobe Illustrator 15.1.0, SVG Export Plug-In . SVG Version: 6.00 Build 0)  -->
<!DOCTYPE svg PUBLIC "-//W3C//DTD SVG 1.0//EN" "http://www.w3.org/TR/2001/REC-SVG-20010904/DTD/svg10.dtd">
<svg version="1.0" id="Layer_1" xmlns="http://www.w3.org/2000/svg" xmlns:xlink="http://www.w3.org/1999/xlink" x="0px" y="0px"
	 width="800px" height="800px" viewBox="0 0 800 800" enable-background="new 0 0 800 800" xml:space="preserve">
<g id="Header">
	<path fill="#BCC2C6" d="M33.1,34.5h736.2c8.5,0,16.1,3.5,21.7,9l0,0c5.6,5.6,9,13.2,9,21.7v654.6c0,8.4-3.5,16.1-9,21.7l0,0
		c-5.6,5.6-13.2,9-21.7,9H33.1c-8.5,0-16.1-3.5-21.7-9l0,0c-5.6-5.6-9-13.2-9-21.7V65.2c0-8.4,3.5-16.1,9-21.7l0,0
		C16.9,38,24.6,34.5,33.1,34.5"/>
	<path fill="#EBEFF0" d="M788.9,65.2v654.6c0,12.3-8.6,19.6-19.6,19.6H33.1c-11,0-19.6-7-19.6-19.6V65.2c0-12.8,8.6-19.6,19.6-19.6
		h736.2C780.2,45.6,788.9,52.7,788.9,65.2"/>
	<path fill="#94A4A5" d="M677.6,72.3c7.8,0,14.2,6.4,14.2,14.2s-6.3,14.2-14.2,14.2c-7.9,0-14.2-6.3-14.2-14.2
		C663.4,78.7,669.7,72.3,677.6,72.3 M722.1,72.3c7.8,0,14.2,6.4,14.2,14.2s-6.4,14.2-14.2,14.2c-7.8,0-14.2-6.3-14.2-14.2
		C707.9,78.7,714.3,72.3,722.1,72.3z M633,72.3c7.8,0,14.2,6.4,14.2,14.2s-6.3,14.2-14.2,14.2c-7.8,0-14.2-6.4-14.2-14.2
		S625.2,72.3,633,72.3z"/>
	<text transform="matrix(1 0 0 1 227.4175 81.2969)" fill="#93A2A3" font-family="'HelveticaNeue-Medium'" font-size="44.0749">SIGN IN</text>
</g>
<g id="Body">
	<path fill="#BCC2C6" d="M29,126.4h744.4c7.3,0,14,3,18.8,7.8c4.8,4.8,7.8,11.5,7.8,18.8v572.8c0,7.3-3,14-7.8,18.8
		c-4.8,4.8-11.5,7.8-18.8,7.8H29c-7.3,0-14-3-18.8-7.8c-4.8-4.8-7.8-11.5-7.8-18.8V153.1c0-7.3,3-14,7.8-18.8
		C15,129.4,21.6,126.4,29,126.4"/>
	<path fill="#FFFFFF" d="M29,137.6c-4.1,0-8,1.6-11,4.5c-2.9,2.9-4.6,6.8-4.6,11v572.8c0,4.1,1.6,8,4.6,11c2.9,2.9,6.8,4.6,11,4.6
		h744.4c4.1,0,8-1.6,10.9-4.6c2.9-2.9,4.6-6.8,4.6-11V153.1c0-4.1-1.7-8-4.6-11c-2.9-2.9-6.8-4.5-10.9-4.5H29z"/>
	<path fill="#BCC2C6" d="M238.2,355.7h319.9c5.2,0,9.4,4.2,9.4,9.4V394c0,5.2-4.2,9.4-9.4,9.4H238.2c-5.2,0-9.4-4.2-9.4-9.4v-28.9
		C228.8,359.9,233,355.7,238.2,355.7"/>
	<rect x="239.9" y="366.8" fill="#FFFFFF" width="316.5" height="25.5"/>
	<path fill="#BCC2C6" d="M238.2,435.7h319.9c5.2,0,9.4,4.2,9.4,9.4V474c0,5.2-4.2,9.4-9.4,9.4H238.2c-5.2,0-9.4-4.2-9.4-9.4v-28.9
		C228.8,439.9,233,435.7,238.2,435.7"/>
	<rect x="239.9" y="446.9" fill="#FFFFFF" width="316.5" height="25.5"/>
	<path fill="#BCC2C6" d="M542.7,541.8H431.2c-4.3,0-8.2,1.8-11,4.6c-2.8,2.8-4.6,6.7-4.6,11l0,0c0,4.3,1.7,8.2,4.6,11l0,0
		c2.8,2.8,6.7,4.6,11,4.6h111.5c4.3,0,8.2-1.8,11-4.6c2.8-2.8,4.6-6.7,4.6-11l0,0c0-4.3-1.8-8.2-4.6-11
		C550.9,543.5,547,541.8,542.7,541.8 M431.2,526.5h111.5c8.5,0,16.2,3.5,21.8,9l0,0c5.6,5.6,9.1,13.3,9.1,21.8l0,0
		c0,8.5-3.5,16.2-9.1,21.8c-5.6,5.6-13.3,9.1-21.8,9.1H431.2c-8.5,0-16.2-3.5-21.8-9.1l0,0l0,0c-5.6-5.6-9.1-13.3-9.1-21.8l0,0
		c0-8.5,3.5-16.2,9.1-21.8C415,530,422.7,526.5,431.2,526.5z"/>
	<path fill="#34495E" d="M425.1,513.9h111.5c8.5,0,16.2,3.5,21.8,9.1l0,0c5.6,5.6,9.1,13.3,9.1,21.8l0,0c0,8.5-3.5,16.2-9.1,21.8
		c-5.6,5.6-13.3,9-21.8,9H425.1c-8.5,0-16.2-3.5-21.8-9l0,0l0,0c-5.6-5.6-9.1-13.3-9.1-21.8l0,0c0-8.5,3.5-16.2,9.1-21.8
		C408.9,517.4,416.7,513.9,425.1,513.9"/>
	<path fill="#27CABF" d="M536.6,523.1c5.8,0,11.3,2.3,15.3,6.4c4.1,4.1,6.4,9.6,6.4,15.3s-2.3,11.2-6.4,15.3
		c-4.1,4.1-9.6,6.4-15.3,6.4H425.1c-5.7,0-11.2-2.3-15.3-6.3l0,0c-4.1-4.1-6.3-9.6-6.3-15.3c0-5.7,2.3-11.2,6.4-15.3
		c4.1-4.1,9.6-6.4,15.3-6.4h111.4V523.1z"/>
	<path fill="#51F4E9" d="M536.6,523.1c5.8,0,11.3,2.3,15.3,6.4c4.1,4.1,6.4,9.6,6.4,15.3c0,1.5-0.2,2.9-0.4,4.3
		c-0.9-4.1-2.9-7.9-5.9-10.9c-4.1-4.1-9.6-6.4-15.3-6.4H425.1c-5.8,0-11.2,2.3-15.3,6.4c-3,3-5.1,6.8-5.9,11
		c-0.3-1.4-0.5-2.9-0.5-4.4c0-5.7,2.3-11.2,6.4-15.3c4.1-4.1,9.6-6.4,15.3-6.4H536.6L536.6,523.1z"/>
	<path fill="#BCC2C6" d="M236.6,536.9h124.9c4.3,0,7.9,3.6,7.9,7.9l0,0c0,4.3-3.6,7.9-7.9,7.9H236.6c-4.3,0-7.9-3.6-7.9-7.9l0,0
		C228.8,540.4,232.3,536.9,236.6,536.9"/>
	<path fill="#BCC2C6" d="M326.3,290.8h124.9c4.3,0,7.9,3.5,7.9,7.9l0,0c0,4.3-3.6,7.9-7.9,7.9H326.3c-4.3,0-7.9-3.6-7.9-7.9l0,0
		C318.5,294.3,322,290.8,326.3,290.8"/>
</g>
</svg>
