<?xml version="1.0" encoding="utf-8"?>
<!-- Generator: Adobe Illustrator 15.1.0, SVG Export Plug-In . SVG Version: 6.00 Build 0)  -->
<!DOCTYPE svg PUBLIC "-//W3C//DTD SVG 1.0//EN" "http://www.w3.org/TR/2001/REC-SVG-20010904/DTD/svg10.dtd">
<svg version="1.0" id="Layer_1" xmlns="http://www.w3.org/2000/svg" xmlns:xlink="http://www.w3.org/1999/xlink" x="0px" y="0px"
	 width="800px" height="800px" viewBox="0 0 800 800" enable-background="new 0 0 800 800" xml:space="preserve">
<g id="Header">
	<path fill="#BCC2C6" d="M33.1,34.5h736.2c8.5,0,16.1,3.5,21.7,9l0,0c5.6,5.6,9,13.2,9,21.7v654.6c0,8.4-3.5,16.1-9,21.7l0,0
		c-5.6,5.6-13.2,9-21.7,9H33.1c-8.5,0-16.1-3.5-21.7-9l0,0c-5.6-5.6-9-13.2-9-21.7V65.2c0-8.4,3.5-16.1,9-21.7l0,0
		C16.9,38,24.6,34.5,33.1,34.5"/>
	<path fill="#EBEFF0" d="M788.9,65.2v654.6c0,12.3-8.6,19.6-19.6,19.6H33.1c-11,0-19.6-7-19.6-19.6V65.2c0-12.8,8.6-19.6,19.6-19.6
		h736.2C780.2,45.6,788.9,52.7,788.9,65.2"/>
	<path fill="#94A4A5" d="M677.6,72.3c7.8,0,14.2,6.4,14.2,14.2s-6.3,14.2-14.2,14.2c-7.9,0-14.2-6.3-14.2-14.2
		C663.4,78.7,669.7,72.3,677.6,72.3 M722.1,72.3c7.8,0,14.2,6.4,14.2,14.2s-6.4,14.2-14.2,14.2c-7.8,0-14.2-6.3-14.2-14.2
		C707.9,78.7,714.3,72.3,722.1,72.3z M633,72.3c7.8,0,14.2,6.4,14.2,14.2s-6.3,14.2-14.2,14.2c-7.8,0-14.2-6.4-14.2-14.2
		S625.2,72.3,633,72.3z"/>
	<text transform="matrix(1 0 0 1 205.6675 80.2969)" fill="#93A2A3" font-family="'NexaBold'" font-size="44.0749">SIGN UP</text>
</g>
<g id="Body">
	<path fill="#BCC2C6" d="M28.6,126h744.8c7.3,0,14,3,18.8,7.8c4.8,4.8,7.8,11.5,7.8,18.8v573.1c0,7.3-3,14-7.8,18.9
		c-4.8,4.8-11.5,7.8-18.8,7.8H28.6c-7.3,0-14-3-18.8-7.8C5,739.8,2,733.1,2,725.7v-573c0-7.3,3-14,7.8-18.8
		C14.6,129,21.2,126,28.6,126"/>
	<path fill="#FFFFFF" d="M28.6,137.1c-4.1,0-8,1.6-11,4.6c-2.9,2.9-4.6,6.8-4.6,11v573.1c0,4.1,1.6,8,4.6,11c2.9,2.9,6.8,4.6,11,4.6
		h744.8c4.1,0,8-1.6,11-4.6c2.9-2.9,4.6-6.8,4.6-11V152.7c0-4.1-1.6-8-4.6-11c-2.9-2.9-6.9-4.6-11-4.6H28.6z"/>
	<path fill="#BCC2C6" d="M240.9,311H561c5.2,0,9.4,4.3,9.4,9.4v28.9c0,5.2-4.2,9.4-9.4,9.4H240.9c-5.2,0-9.4-4.2-9.4-9.4v-28.9
		C231.5,315.2,235.7,311,240.9,311"/>
	<rect x="242.6" y="322.1" fill="#FFFFFF" width="316.6" height="25.5"/>
	<path fill="#BCC2C6" d="M240.9,391H561c5.2,0,9.4,4.3,9.4,9.4v28.9c0,5.2-4.2,9.4-9.4,9.4H240.9c-5.2,0-9.4-4.3-9.4-9.4v-28.9
		C231.5,395.3,235.7,391,240.9,391"/>
	<rect x="242.6" y="402.2" fill="#FFFFFF" width="316.6" height="25.5"/>
	<path fill="#BCC2C6" d="M240.9,471.1H561c5.2,0,9.4,4.3,9.4,9.4v28.9c0,5.2-4.2,9.4-9.4,9.4H240.9c-5.2,0-9.4-4.3-9.4-9.4v-28.9
		C231.5,475.3,235.7,471.1,240.9,471.1"/>
	<rect x="242.6" y="482.2" fill="#FFFFFF" width="316.6" height="25.5"/>
	<path fill="#BCC2C6" d="M459.7,585.9H348.2c-4.3,0-8.2,1.8-11,4.6s-4.6,6.7-4.6,11l0,0c0,4.3,1.7,8.2,4.6,11l0,0
		c2.8,2.8,6.7,4.6,11,4.6h111.5c4.3,0,8.2-1.8,11-4.6s4.6-6.7,4.6-11l0,0c0-4.3-1.7-8.2-4.6-11C467.9,587.7,464,585.9,459.7,585.9
		 M348.2,570.6h111.5c8.5,0,16.2,3.5,21.8,9.1l0,0c5.6,5.6,9.1,13.3,9.1,21.8l0,0c0,8.5-3.5,16.2-9.1,21.8
		c-5.6,5.6-13.3,9.1-21.8,9.1H348.2c-8.5,0-16.2-3.5-21.8-9.1l0,0l0,0c-5.6-5.6-9.1-13.3-9.1-21.8l0,0c0-8.5,3.5-16.2,9.1-21.8
		C332,574.1,339.7,570.6,348.2,570.6z"/>
	<path fill="#34495E" d="M342.2,558h111.5c8.5,0,16.2,3.5,21.8,9.1l0,0c5.6,5.6,9.1,13.3,9.1,21.8l0,0c0,8.5-3.5,16.2-9.1,21.8
		c-5.6,5.6-13.3,9.1-21.8,9.1H342.2c-8.5,0-16.2-3.5-21.8-9.1l0,0l0,0c-5.6-5.6-9.1-13.3-9.1-21.8l0,0c0-8.5,3.5-16.2,9.1-21.8
		C325.9,561.5,333.6,558,342.2,558"/>
	<path fill="#27CABF" d="M453.7,567.2c5.8,0,11.3,2.3,15.3,6.4c4.1,4.1,6.4,9.6,6.4,15.3c0,5.8-2.3,11.3-6.4,15.3
		c-4.1,4.1-9.6,6.4-15.3,6.4H342.2c-5.8,0-11.3-2.3-15.3-6.4l0,0c-4.1-4.1-6.4-9.6-6.4-15.3c0-5.8,2.3-11.3,6.4-15.3
		c4.1-4.1,9.5-6.4,15.3-6.4H453.7z"/>
	<path fill="#51F4E9" d="M453.7,567.2c5.8,0,11.3,2.3,15.3,6.4c4.1,4.1,6.4,9.6,6.4,15.3c0,1.5-0.2,2.9-0.4,4.4
		c-0.9-4.1-2.9-7.9-5.9-11c-4.1-4.1-9.6-6.4-15.3-6.4H342.2c-5.8,0-11.3,2.3-15.3,6.4c-3,3-5.1,6.8-5.9,11c-0.3-1.4-0.4-2.9-0.4-4.4
		c0-5.8,2.3-11.3,6.4-15.3c4.1-4.1,9.5-6.4,15.3-6.4H453.7z"/>
	<path fill="#BCC2C6" d="M338.5,246h125c4.3,0,7.9,3.6,7.9,7.9l0,0c0,4.3-3.6,7.9-7.9,7.9h-125c-4.3,0-7.9-3.5-7.9-7.9l0,0
		C330.6,249.6,334.1,246,338.5,246"/>
</g>
</svg>
